<?xml version='1.0' encoding='utf-8'?>
<svg width="161.48mm" height="82.36mm" viewBox="-0.003175 -0.039629 0.161481 0.082360" version="1.1" xmlns="http://www.w3.org/2000/svg">
  <defs>
    <pattern id="hatch_cradle" width="0.0012" height="0.0012" patternUnits="userSpaceOnUse" patternTransform="rotate(45)">
      <line x1="0" y1="0" x2="0" y2="0.0012" stroke="rgb(50,120,190)" stroke-width="0.0001" stroke-opacity="0.6"/>
    </pattern>
    <pattern id="hatch_servo" width="0.0012" height="0.0012" patternUnits="userSpaceOnUse" patternTransform="rotate(75)">
      <line x1="0" y1="0" x2="0" y2="0.0012" stroke="rgb(60,60,60)" stroke-width="0.0001" stroke-opacity="0.6"/>
    </pattern>
    <pattern id="hatch_coupler" width="0.0012" height="0.0012" patternUnits="userSpaceOnUse" patternTransform="rotate(105)">
      <line x1="0" y1="0" x2="0" y2="0.0012" stroke="rgb(220,60,40)" stroke-width="0.0001" stroke-opacity="0.6"/>
    </pattern>
  </defs>
  <g transform="scale(1,-1)" stroke-linecap="round">
    <g fill="none" stroke="rgb(50,120,190)" stroke-width="0.00035" id="cradle">
      <line x1="0.0" y1="0.0152" x2="0.007526" y2="0.0152" />
      <line x1="0.007526" y1="0.0152" x2="0.007526" y2="0.0127" />
      <line x1="0.0025" y1="0.0127" x2="0.007526" y2="0.0127" />
      <line x1="0.0025" y1="0.0127" x2="0.0025" y2="-0.0127" />
      <line x1="0.0025" y1="-0.0127" x2="0.007526" y2="-0.0127" />
      <line x1="0.007526" y1="-0.0127" x2="0.007526" y2="-0.0152" />
      <line x1="0.0" y1="-0.0152" x2="0.007526" y2="-0.0152" />
      <line x1="0.0" y1="0.0152" x2="0.0" y2="-0.0152" />
      <line x1="0.126387" y1="-0.020367" x2="0.126387" y2="0.020426" />
      <line x1="0.126387" y1="0.020426" x2="0.133136" y2="0.021006" />
      <line x1="0.126387" y1="-0.020367" x2="0.133725" y2="-0.020399" />
      <line x1="0.133725" y1="-0.020399" x2="0.133725" y2="0.020393" />
      <line x1="0.126387" y1="0.020426" x2="0.133725" y2="0.020393" />
      <line x1="0.133136" y1="0.021006" x2="0.140474" y2="0.020973" />
      <line x1="0.133725" y1="0.020393" x2="0.140474" y2="0.020973" />
      <line x1="0.133725" y1="-0.020399" x2="0.140474" y2="-0.019819" />
      <line x1="0.140474" y1="-0.019819" x2="0.140474" y2="0.020973" />
      <line x1="0.134577" y1="-0.014099" x2="0.13428" y2="-0.014097" />
      <line x1="0.139919" y1="-0.013968" x2="0.13428" y2="-0.014453" />
      <line x1="0.139919" y1="-0.013968" x2="0.139919" y2="0.018426" />
      <line x1="0.139919" y1="0.018426" x2="0.13428" y2="0.017941" />
      <line x1="0.13428" y1="-0.014453" x2="0.13428" y2="0.017941" />
      <path d="M 0.134604,-0.014405 A 0.0021,4.110337306064193e-05 -2.7698275231857675e-17 0,1 0.134656,-0.014396" />
      <path d="M 0.134656,-0.014396 A 0.0021,4.110337306064193e-05 -2.7698275231857675e-17 0,1 0.13428,-0.014372" />
      <path d="M 0.13428,-0.014419 A 0.0021,4.110337306064193e-05 -2.7698275231857675e-17 0,1 0.134604,-0.014405" />
      <path d="M 0.139155,-0.014014 A 0.0021,4.110337306064193e-05 -2.7698275231857675e-17 0,1 0.139207,-0.014005" />
      <path d="M 0.139207,-0.014005 A 0.0021000000000000046,4.110337306064202e-05 -2.7698275231857675e-17 1,1 0.135007,-0.014005" />
      <path d="M 0.135007,-0.014005 A 0.0021,4.110337306064193e-05 -2.7698275231857675e-17 0,1 0.139155,-0.014014" />
      <line x1="0.13428" y1="-0.014124" x2="0.134577" y2="-0.014099" />
      <line x1="0.135018" y1="-0.013946" x2="0.139919" y2="-0.013968" />
      <line x1="0.13428" y1="-0.01401" x2="0.135018" y2="-0.013946" />
      <line x1="0.135018" y1="-0.013946" x2="0.135018" y2="0.018005" />
    </g>
    <g fill="url(#hatch_cradle)" stroke="none" stroke-width="0" id="cradle_fill">
      <path d="M 0.007526,0.0152 L 0.0,0.0152 L 0.0,-0.0152 L 0.007526,-0.0152 L 0.007526,-0.0127 L 0.0025,-0.0127 L 0.0025,0.0127 L 0.007526,0.0127 L 0.007526,0.0152" />
    </g>
    <g fill="none" stroke="rgb(50,120,190)" stroke-opacity="0.4" stroke-width="0.00015" id="cradle_hidden" stroke-dasharray="0.0018 0.00045">
      <line x1="0.126387" y1="-0.020367" x2="0.133136" y2="-0.019786" />
      <line x1="0.133136" y1="-0.019786" x2="0.133136" y2="0.021006" />
      <line x1="0.130871" y1="-0.016782" x2="0.128651" y2="-0.016973" />
      <line x1="0.130871" y1="-0.016782" x2="0.130871" y2="-0.010783" />
      <line x1="0.130871" y1="-0.010783" x2="0.128651" y2="-0.010974" />
      <line x1="0.128651" y1="-0.016973" x2="0.128651" y2="-0.010974" />
      <line x1="0.133136" y1="-0.019786" x2="0.140474" y2="-0.019819" />
      <path d="M 0.134604,-0.020304 A 0.0021,4.110337306064193e-05 -2.7698275231857675e-17 0,1 0.134656,-0.020295" />
      <path d="M 0.134656,-0.020295 A 0.0021000000000000046,4.110337306064202e-05 -2.7698275231857675e-17 1,1 0.130456,-0.020295" />
      <path d="M 0.130456,-0.020295 A 0.0021,4.110337306064193e-05 -2.7698275231857675e-17 0,1 0.134604,-0.020304" />
      <path d="M 0.139155,-0.019913 A 0.0021,4.110337306064193e-05 -2.7698275231857675e-17 0,1 0.139207,-0.019903" />
      <path d="M 0.139207,-0.019903 A 0.0021000000000000046,4.110337306064202e-05 -2.7698275231857675e-17 1,1 0.135007,-0.019903" />
      <path d="M 0.135007,-0.019903 A 0.0021,4.110337306064193e-05 -2.7698275231857675e-17 0,1 0.139155,-0.019913" />
      <line x1="0.130871" y1="-0.016782" x2="0.134577" y2="-0.016798" />
      <line x1="0.132356" y1="-0.016989" x2="0.134577" y2="-0.016798" />
      <line x1="0.128651" y1="-0.016973" x2="0.132356" y2="-0.016989" />
      <line x1="0.134577" y1="-0.016798" x2="0.134577" y2="-0.014099" />
      <line x1="0.13428" y1="-0.014097" x2="0.133309" y2="-0.014093" />
      <line x1="0.133309" y1="-0.014093" x2="0.133309" y2="-0.010794" />
      <line x1="0.130871" y1="-0.010783" x2="0.133309" y2="-0.010794" />
      <line x1="0.133309" y1="-0.010794" x2="0.131089" y2="-0.010985" />
      <line x1="0.128651" y1="-0.010974" x2="0.131089" y2="-0.010985" />
      <line x1="0.132356" y1="-0.016989" x2="0.132356" y2="-0.01429" />
      <line x1="0.132356" y1="-0.01429" x2="0.131089" y2="-0.014284" />
      <line x1="0.131089" y1="-0.014284" x2="0.131089" y2="-0.010985" />
      <path d="M 0.13428,-0.014372 A 0.0021,4.110337306064193e-05 -2.7698275231857675e-17 0,1 0.130456,-0.014396" />
      <path d="M 0.130456,-0.014396 A 0.0021,4.110337306064193e-05 -2.7698275231857675e-17 0,1 0.13428,-0.014419" />
      <line x1="0.132356" y1="-0.01429" x2="0.13428" y2="-0.014124" />
      <line x1="0.129379" y1="-0.014431" x2="0.13428" y2="-0.014453" />
      <line x1="0.129379" y1="-0.014431" x2="0.131089" y2="-0.014284" />
      <line x1="0.133309" y1="-0.014093" x2="0.13428" y2="-0.01401" />
      <line x1="0.129379" y1="0.017963" x2="0.135018" y2="0.018448" />
      <line x1="0.135018" y1="0.018005" x2="0.135018" y2="0.018448" />
      <line x1="0.129379" y1="-0.014431" x2="0.129379" y2="0.017963" />
      <line x1="0.135018" y1="0.018448" x2="0.139919" y2="0.018426" />
      <line x1="0.129379" y1="0.017963" x2="0.13428" y2="0.017941" />
      <line x1="0.134656" y1="-0.020295" x2="0.134656" y2="-0.014396" />
      <line x1="0.130456" y1="-0.020295" x2="0.130456" y2="-0.014396" />
      <line x1="0.139207" y1="-0.019903" x2="0.139207" y2="-0.014005" />
      <line x1="0.135007" y1="-0.019903" x2="0.135007" y2="-0.014005" />
    </g>
    <g fill="none" stroke="rgb(60,60,60)" stroke-width="0.00035" id="servo">
      <line x1="0.0028" y1="0.0124" x2="0.0482" y2="0.0124" />
      <line x1="0.0482" y1="0.0124" x2="0.0482" y2="-0.0124" />
      <line x1="0.0028" y1="-0.0124" x2="0.0482" y2="-0.0124" />
      <line x1="0.0028" y1="0.0124" x2="0.0028" y2="-0.0124" />
      <line x1="0.109729" y1="-0.015852" x2="0.109729" y2="0.015948" />
      <line x1="0.109729" y1="0.015948" x2="0.109731" y2="0.015961" />
      <line x1="0.109729" y1="-0.015852" x2="0.139729" y2="-0.015852" />
      <line x1="0.139729" y1="-0.015852" x2="0.155129" y2="-0.015852" />
      <line x1="0.155129" y1="-0.015852" x2="0.155129" y2="0.015948" />
      <line x1="0.109729" y1="0.015948" x2="0.155129" y2="0.015948" />
      <line x1="0.109731" y1="0.015961" x2="0.14093" y2="0.015961" />
      <line x1="0.14893" y1="0.015961" x2="0.155131" y2="0.015961" />
      <line x1="0.155129" y1="0.015948" x2="0.155131" y2="0.015961" />
      <path d="M 0.14093,0.015955 A 0.0040000000000000036,2.182800256091935e-06 -6.830285894301604e-23 0,1 0.14893,0.015955" />
      <path d="M 0.14893,0.018755 A 0.0040000000000000036,2.182800256091935e-06 -6.830285894301604e-23 0,1 0.14093,0.018755" />
      <path d="M 0.14093,0.018755 A 0.0040000000000000036,2.182800256091935e-06 -6.830285894301604e-23 0,1 0.14893,0.018755" />
      <line x1="0.139729" y1="-0.020039" x2="0.139731" y2="-0.020039" />
      <line x1="0.139731" y1="-0.020039" x2="0.139731" y2="-0.015852" />
      <line x1="0.109031" y1="-0.015839" x2="0.109729" y2="-0.015839" />
      <line x1="0.109031" y1="-0.015852" x2="0.109031" y2="-0.015839" />
      <line x1="0.109031" y1="-0.015838" x2="0.109729" y2="-0.015838" />
      <line x1="0.109029" y1="-0.015852" x2="0.109729" y2="-0.015852" />
      <line x1="0.109029" y1="-0.020053" x2="0.139729" y2="-0.020053" />
      <line x1="0.139729" y1="-0.020053" x2="0.139729" y2="-0.015853" />
      <line x1="0.109029" y1="-0.015853" x2="0.139729" y2="-0.015853" />
      <line x1="0.109029" y1="-0.020053" x2="0.109029" y2="-0.015853" />
      <line x1="0.14893" y1="0.015955" x2="0.14893" y2="0.018755" />
      <line x1="0.14093" y1="0.015955" x2="0.14093" y2="0.018755" />
    </g>
    <g fill="url(#hatch_servo)" stroke="none" stroke-width="0" id="servo_fill">
      <path d="M 0.0482,0.0124 L 0.0028,0.0124 L 0.0028,-0.0124 L 0.0482,-0.0124 L 0.0482,0.0124" />
    </g>
    <g fill="none" stroke="rgb(60,60,60)" stroke-opacity="0.4" stroke-width="0.00015" id="servo_hidden" stroke-dasharray="0.0018 0.00045">
      <line x1="0.109731" y1="-0.015839" x2="0.109731" y2="0.015961" />
      <line x1="0.109729" y1="-0.015852" x2="0.109731" y2="-0.015839" />
      <line x1="0.14093" y1="0.015961" x2="0.14893" y2="0.015961" />
      <path d="M 0.14893,0.015955 A 0.0040000000000000036,2.182800256091935e-06 -6.830285894301604e-23 0,1 0.14093,0.015955" />
      <line x1="0.109731" y1="-0.015839" x2="0.139731" y2="-0.015839" />
      <line x1="0.139731" y1="-0.015839" x2="0.155131" y2="-0.015839" />
      <line x1="0.155131" y1="-0.015839" x2="0.155131" y2="0.015961" />
      <line x1="0.155129" y1="-0.015852" x2="0.155131" y2="-0.015839" />
      <line x1="0.109031" y1="-0.020039" x2="0.139729" y2="-0.020039" />
      <line x1="0.139731" y1="-0.015852" x2="0.139731" y2="-0.015839" />
      <line x1="0.109729" y1="-0.015839" x2="0.109731" y2="-0.015839" />
      <line x1="0.109031" y1="-0.020039" x2="0.109031" y2="-0.015852" />
      <line x1="0.109031" y1="-0.020038" x2="0.139731" y2="-0.020038" />
      <line x1="0.139731" y1="-0.020038" x2="0.139731" y2="-0.015838" />
      <line x1="0.109729" y1="-0.015838" x2="0.139731" y2="-0.015838" />
      <line x1="0.109031" y1="-0.020038" x2="0.109031" y2="-0.015838" />
      <line x1="0.109029" y1="-0.020052" x2="0.139729" y2="-0.020052" />
      <line x1="0.139729" y1="-0.020052" x2="0.139729" y2="-0.015852" />
      <line x1="0.109029" y1="-0.020052" x2="0.109029" y2="-0.015852" />
    </g>
    <g fill="none" stroke="rgb(220,60,40)" stroke-width="0.00035" id="coupler">
      <line x1="0.053301" y1="-0.010789" x2="0.0255" y2="-0.010789" />
      <line x1="0.053301" y1="-0.010789" x2="0.053301" y2="-0.009789" />
      <line x1="0.0255" y1="-0.010789" x2="0.0255" y2="-0.009789" />
      <line x1="0.053301" y1="-0.009789" x2="0.043301" y2="-0.009789" />
      <path d="M 0.0255,0.009789 A 0.009789105352524866,0.009789105352524866 0.0 1,1 0.0255,-0.009789" />
      <line x1="0.043301" y1="-0.009789" x2="0.043301" y2="0.009789" />
      <line x1="0.0255" y1="0.009789" x2="0.0255" y2="0.010789" />
      <line x1="0.053301" y1="0.009789" x2="0.043301" y2="0.009789" />
      <line x1="0.053301" y1="0.010789" x2="0.0255" y2="0.010789" />
      <line x1="0.053301" y1="0.009789" x2="0.053301" y2="0.010789" />
      <circle cx="0.02055" cy="-0.00495" r="0.00125" />
      <circle cx="0.0255" cy="0.0" r="0.0053" />
      <circle cx="0.03045" cy="-0.00495" r="0.00125" />
      <circle cx="0.02055" cy="0.00495" r="0.00125" />
      <circle cx="0.03045" cy="0.00495" r="0.00125" />
      <line x1="0.053301" y1="-0.009789" x2="0.043301" y2="-0.009789" />
      <line x1="0.043301" y1="-0.009789" x2="0.043301" y2="0.009789" />
      <line x1="0.053301" y1="0.009789" x2="0.043301" y2="0.009789" />
      <line x1="0.053301" y1="0.009789" x2="0.053301" y2="-0.009789" />
      <line x1="0.09889" y1="-0.010789" x2="0.07109" y2="-0.010789" />
      <line x1="0.09889" y1="-0.010789" x2="0.09889" y2="0.010789" />
      <line x1="0.09889" y1="0.010789" x2="0.07109" y2="0.010789" />
      <line x1="0.07109" y1="0.009789" x2="0.07109" y2="0.010789" />
      <path d="M 0.07109,0.009789 A 0.009789105352524866,0.009789105352524866 0.0 1,1 0.07109,-0.009789" />
      <line x1="0.07109" y1="-0.010789" x2="0.07109" y2="-0.009789" />
      <circle cx="0.06614" cy="-0.00495" r="0.00125" />
      <circle cx="0.07109" cy="0.0" r="0.0053" />
      <circle cx="0.07604" cy="-0.00495" r="0.00125" />
      <circle cx="0.06614" cy="0.00495" r="0.00125" />
      <circle cx="0.07604" cy="0.00495" r="0.00125" />
      <line x1="0.145832" y1="0.027119" x2="0.118378" y2="0.026433" />
      <line x1="0.145832" y1="0.027119" x2="0.142435" y2="0.030454" />
      <line x1="0.118378" y1="0.026433" x2="0.118221" y2="0.026588" />
      <line x1="0.142435" y1="0.030454" x2="0.114981" y2="0.029769" />
      <path d="M 0.115138,0.029615 A 0.009789105352524866,0.0015324267232534078 -5.243073870449906e-17 0,1 0.10689,0.028101" />
      <path d="M 0.10689,0.028101 A 0.009789105352524866,0.0015324267232534078 -5.243073870449906e-17 0,1 0.118221,0.026588" />
      <line x1="0.115138" y1="0.029615" x2="0.114981" y2="0.029769" />
      <path d="M 0.113805,0.027245 A 0.00125,0.0001956801296016999 -5.243073870449906e-17 0,1 0.111321,0.027214" />
      <path d="M 0.111321,0.027214 A 0.0012500000000000011,0.00019568012960170006 -5.243073870449906e-17 0,1 0.113821,0.027214" />
      <path d="M 0.113821,0.027214 A 0.00125,0.0001956801296016999 -5.243073870449906e-17 0,1 0.113805,0.027245" />
      <path d="M 0.121913,0.028232 A 0.0053,0.0008296837495112074 -5.243073870449906e-17 0,1 0.11138,0.028101" />
      <path d="M 0.11138,0.028101 A 0.0053,0.0008296837495112074 -5.243073870449906e-17 0,1 0.12198,0.028101" />
      <path d="M 0.12198,0.028101 A 0.0053,0.0008296837495112074 -5.243073870449906e-17 0,1 0.121913,0.028232" />
      <path d="M 0.123582,0.027489 A 0.00125,0.0001956801296016999 -5.243073870449906e-17 0,1 0.121097,0.027458" />
      <path d="M 0.121097,0.027458 A 0.0012500000000000011,0.00019568012960170006 -5.243073870449906e-17 0,1 0.123597,0.027458" />
      <path d="M 0.123597,0.027458 A 0.00125,0.0001956801296016999 -5.243073870449906e-17 0,1 0.123582,0.027489" />
      <path d="M 0.112246,0.028775 A 0.00125,0.0001956801296016999 -5.243073870449906e-17 0,1 0.109762,0.028745" />
      <path d="M 0.109762,0.028745 A 0.0012500000000000011,0.00019568012960170006 -5.243073870449906e-17 0,1 0.112262,0.028745" />
      <path d="M 0.112262,0.028745 A 0.00125,0.0001956801296016999 -5.243073870449906e-17 0,1 0.112246,0.028775" />
      <path d="M 0.122023,0.029019 A 0.00125,0.0001956801296016999 -5.243073870449906e-17 0,1 0.119538,0.028989" />
      <path d="M 0.119538,0.028989 A 0.00125,0.0001956801296016999 -5.243073870449906e-17 0,1 0.122038,0.028989" />
      <path d="M 0.122038,0.028989 A 0.00125,0.0001956801296016999 -5.243073870449906e-17 0,1 0.122023,0.029019" />
      <line x1="0.145832" y1="0.017242" x2="0.118378" y2="0.016557" />
      <line x1="0.145832" y1="0.017242" x2="0.145832" y2="0.027119" />
      <line x1="0.118378" y1="0.016557" x2="0.118378" y2="0.026433" />
      <line x1="0.145675" y1="-0.019839" x2="0.145675" y2="0.017238" />
      <line x1="0.145832" y1="-0.019993" x2="0.145675" y2="-0.019839" />
      <line x1="0.145832" y1="-0.02987" x2="0.145832" y2="-0.019993" />
      <line x1="0.118221" y1="0.016711" x2="0.118221" y2="0.026588" />
      <line x1="0.118378" y1="0.016557" x2="0.118221" y2="0.016711" />
      <line x1="0.114981" y1="0.029611" x2="0.114981" y2="0.029769" />
      <path d="M 0.10689,0.018225 A 0.009789105352524866,0.0015324267232534078 -5.243073870449906e-17 0,1 0.118221,0.016711" />
      <line x1="0.135799" y1="-0.020085" x2="0.135799" y2="0.016992" />
      <line x1="0.135799" y1="-0.020085" x2="0.145675" y2="-0.019839" />
      <line x1="0.145832" y1="-0.019993" x2="0.118378" y2="-0.020678" />
      <line x1="0.118378" y1="-0.020678" x2="0.118221" y2="-0.020524" />
      <path d="M 0.115138,-0.017497 A 0.009789105352524866,0.0015324267232534078 -5.243073870449906e-17 0,1 0.10689,-0.019011" />
      <path d="M 0.10689,-0.019011 A 0.009789105352524866,0.0015324267232534078 -5.243073870449906e-17 0,1 0.118221,-0.020524" />
      <line x1="0.132717" y1="-0.017059" x2="0.135799" y2="-0.020085" />
      <line x1="0.115138" y1="-0.017497" x2="0.114981" y2="-0.017343" />
      <line x1="0.132717" y1="-0.0169" x2="0.114981" y2="-0.017343" />
      <path d="M 0.113805,-0.019867 A 0.00125,0.0001956801296016999 -5.243073870449906e-17 0,1 0.111321,-0.019898" />
      <path d="M 0.111321,-0.019898 A 0.0012500000000000011,0.00019568012960170006 -5.243073870449906e-17 0,1 0.113821,-0.019898" />
      <path d="M 0.113821,-0.019898 A 0.00125,0.0001956801296016999 -5.243073870449906e-17 0,1 0.113805,-0.019867" />
      <path d="M 0.121913,-0.01888 A 0.0053,0.0008296837495112074 -5.243073870449906e-17 0,1 0.11138,-0.019011" />
      <path d="M 0.11138,-0.019011 A 0.0053,0.0008296837495112074 -5.243073870449906e-17 0,1 0.12198,-0.019011" />
      <path d="M 0.12198,-0.019011 A 0.0053,0.0008296837495112074 -5.243073870449906e-17 0,1 0.121913,-0.01888" />
      <path d="M 0.123582,-0.019623 A 0.00125,0.0001956801296016999 -5.243073870449906e-17 0,1 0.121097,-0.019654" />
      <path d="M 0.121097,-0.019654 A 0.0012500000000000011,0.00019568012960170006 -5.243073870449906e-17 0,1 0.123597,-0.019654" />
      <path d="M 0.123597,-0.019654 A 0.00125,0.0001956801296016999 -5.243073870449906e-17 0,1 0.123582,-0.019623" />
      <path d="M 0.112246,-0.018337 A 0.00125,0.0001956801296016999 -5.243073870449906e-17 0,1 0.109762,-0.018367" />
      <path d="M 0.109762,-0.018367 A 0.0012500000000000011,0.00019568012960170006 -5.243073870449906e-17 0,1 0.112262,-0.018367" />
      <path d="M 0.112262,-0.018367 A 0.00125,0.0001956801296016999 -5.243073870449906e-17 0,1 0.112246,-0.018337" />
      <path d="M 0.122023,-0.018093 A 0.00125,0.0001956801296016999 -5.243073870449906e-17 0,1 0.119538,-0.018123" />
      <path d="M 0.119538,-0.018123 A 0.00125,0.0001956801296016999 -5.243073870449906e-17 0,1 0.122038,-0.018123" />
      <path d="M 0.122038,-0.018123 A 0.00125,0.0001956801296016999 -5.243073870449906e-17 0,1 0.122023,-0.018093" />
      <line x1="0.145832" y1="-0.02987" x2="0.118378" y2="-0.030555" />
      <line x1="0.118378" y1="-0.030555" x2="0.118378" y2="-0.020678" />
      <path d="M 0.10689,-0.028887 A 0.009789105352524866,0.0015324267232534078 -5.243073870449906e-17 0,1 0.118221,-0.030401" />
      <line x1="0.118378" y1="-0.030555" x2="0.118221" y2="-0.030401" />
      <line x1="0.114981" y1="-0.017501" x2="0.114981" y2="-0.017343" />
      <line x1="0.132717" y1="-0.017059" x2="0.132717" y2="0.016915" />
      <line x1="0.118221" y1="-0.030401" x2="0.118221" y2="-0.020524" />
      <line x1="0.10689" y1="0.018225" x2="0.10689" y2="0.028101" />
      <line x1="0.10689" y1="-0.028887" x2="0.10689" y2="-0.019011" />
    </g>
    <g fill="url(#hatch_coupler)" stroke="none" stroke-width="0" id="coupler_fill">
      <path d="M 0.053301,-0.010789 L 0.0255,-0.010789 L 0.0255,-0.009789 A 0.009789105352524866,0.009789105352524866 0.0 1,0 0.0255,0.009789 L 0.0255,0.010789 L 0.053301,0.010789 L 0.053301,0.009789 L 0.043301,0.009789 L 0.043301,-0.009789 L 0.053301,-0.009789 L 0.053301,-0.010789 M 0.0218,-0.00495 A 0.00125,0.00125 0.0 0,1 0.0193,-0.00495 A 0.00125,0.00125 0.0 0,1 0.0218,-0.00495 M 0.0308,0.0 A 0.005300000000000001,0.005300000000000001 0.0 0,1 0.0202,0.0 A 0.005300000000000001,0.005300000000000001 0.0 0,1 0.0308,-0.0 M 0.0317,-0.00495 A 0.00125,0.00125 0.0 0,1 0.0292,-0.00495 A 0.00125,0.00125 0.0 0,1 0.0317,-0.00495 M 0.0218,0.00495 A 0.00125,0.00125 0.0 0,1 0.0193,0.00495 A 0.00125,0.00125 0.0 0,1 0.0218,0.00495 M 0.0317,0.00495 A 0.00125,0.00125 0.0 0,1 0.0292,0.00495 A 0.00125,0.00125 0.0 0,1 0.0317,0.00495" />
      <path d="M 0.043301,-0.009789 L 0.053301,-0.009789 L 0.053301,0.009789 L 0.043301,0.009789 L 0.043301,-0.009789" />
      <path d="M 0.07109,-0.010789 L 0.09889,-0.010789 L 0.09889,0.010789 L 0.07109,0.010789 L 0.07109,0.009789 A 0.009789105352524866,0.009789105352524866 0.0 1,1 0.07109,-0.009789 L 0.07109,-0.010789 M 0.06739,-0.00495 A 0.0012500000000000011,0.0012500000000000011 0.0 0,0 0.06489,-0.00495 A 0.0012500000000000011,0.0012500000000000011 0.0 0,0 0.06739,-0.00495 M 0.07639,-0.0 A 0.0053,0.0053 0.0 0,0 0.06579,0.0 A 0.0053,0.0053 0.0 0,0 0.07639,0.0 M 0.07729,-0.00495 A 0.0012500000000000011,0.0012500000000000011 0.0 0,0 0.07479,-0.00495 A 0.0012500000000000011,0.0012500000000000011 0.0 0,0 0.07729,-0.00495 M 0.06739,0.00495 A 0.0012500000000000011,0.0012500000000000011 0.0 0,0 0.06489,0.00495 A 0.0012500000000000011,0.0012500000000000011 0.0 0,0 0.06739,0.00495 M 0.07729,0.00495 A 0.0012500000000000011,0.0012500000000000011 0.0 0,0 0.07479,0.00495 A 0.0012500000000000011,0.0012500000000000011 0.0 0,0 0.07729,0.00495" />
    </g>
    <g fill="none" stroke="rgb(220,60,40)" stroke-opacity="0.4" stroke-width="0.00015" id="coupler_hidden" stroke-dasharray="0.0018 0.00045">
      <line x1="0.145832" y1="0.017242" x2="0.145675" y2="0.017397" />
      <line x1="0.145675" y1="0.017238" x2="0.145675" y2="0.017397" />
      <line x1="0.145832" y1="-0.02987" x2="0.142435" y2="-0.026534" />
      <line x1="0.142435" y1="-0.026534" x2="0.142435" y2="-0.016657" />
      <line x1="0.142592" y1="-0.016812" x2="0.142435" y2="-0.016657" />
      <line x1="0.142592" y1="-0.016812" x2="0.142592" y2="0.020423" />
      <line x1="0.142592" y1="0.020423" x2="0.142435" y2="0.020578" />
      <line x1="0.142435" y1="0.020578" x2="0.142435" y2="0.030454" />
      <line x1="0.142435" y1="0.020578" x2="0.114981" y2="0.019893" />
      <line x1="0.114981" y1="0.019893" x2="0.114981" y2="0.029611" />
      <path d="M 0.115138,0.019738 A 0.009789105352524866,0.0015324267232534078 -5.243073870449906e-17 0,1 0.10689,0.018225" />
      <line x1="0.115138" y1="0.019738" x2="0.115138" y2="0.029615" />
      <line x1="0.115138" y1="0.019738" x2="0.114981" y2="0.019893" />
      <path d="M 0.113805,0.017368 A 0.00125,0.0001956801296016999 -5.243073870449906e-17 0,1 0.111321,0.017337" />
      <path d="M 0.111321,0.017337 A 0.0012500000000000011,0.00019568012960170006 -5.243073870449906e-17 0,1 0.113821,0.017337" />
      <path d="M 0.113821,0.017337 A 0.00125,0.0001956801296016999 -5.243073870449906e-17 0,1 0.113805,0.017368" />
      <path d="M 0.121913,0.018355 A 0.0053,0.0008296837495112074 -5.243073870449906e-17 0,1 0.11138,0.018225" />
      <path d="M 0.11138,0.018225 A 0.0053,0.0008296837495112074 -5.243073870449906e-17 0,1 0.12198,0.018225" />
      <path d="M 0.12198,0.018225 A 0.0053,0.0008296837495112074 -5.243073870449906e-17 0,1 0.121913,0.018355" />
      <path d="M 0.123582,0.017612 A 0.00125,0.0001956801296016999 -5.243073870449906e-17 0,1 0.121097,0.017581" />
      <path d="M 0.121097,0.017581 A 0.0012500000000000011,0.00019568012960170006 -5.243073870449906e-17 0,1 0.123597,0.017581" />
      <path d="M 0.123597,0.017581 A 0.00125,0.0001956801296016999 -5.243073870449906e-17 0,1 0.123582,0.017612" />
      <path d="M 0.112246,0.018899 A 0.00125,0.0001956801296016999 -5.243073870449906e-17 0,1 0.109762,0.018868" />
      <path d="M 0.109762,0.018868 A 0.0012500000000000011,0.00019568012960170006 -5.243073870449906e-17 0,1 0.112262,0.018868" />
      <path d="M 0.112262,0.018868 A 0.00125,0.0001956801296016999 -5.243073870449906e-17 0,1 0.112246,0.018899" />
      <path d="M 0.122023,0.019143 A 0.00125,0.0001956801296016999 -5.243073870449906e-17 0,1 0.119538,0.019112" />
      <path d="M 0.119538,0.019112 A 0.00125,0.0001956801296016999 -5.243073870449906e-17 0,1 0.122038,0.019112" />
      <path d="M 0.122038,0.019112 A 0.00125,0.0001956801296016999 -5.243073870449906e-17 0,1 0.122023,0.019143" />
      <line x1="0.145675" y1="0.017397" x2="0.135799" y2="0.01715" />
      <line x1="0.135799" y1="0.01715" x2="0.132717" y2="0.020177" />
      <line x1="0.142592" y1="0.020423" x2="0.132717" y2="0.020177" />
      <line x1="0.135799" y1="0.016992" x2="0.135799" y2="0.01715" />
      <line x1="0.132717" y1="-0.017059" x2="0.142592" y2="-0.016812" />
      <line x1="0.142435" y1="-0.016657" x2="0.132717" y2="-0.0169" />
      <line x1="0.142435" y1="-0.026534" x2="0.114981" y2="-0.027219" />
      <line x1="0.115138" y1="-0.027374" x2="0.114981" y2="-0.027219" />
      <path d="M 0.115138,-0.027374 A 0.009789105352524866,0.0015324267232534078 -5.243073870449906e-17 0,1 0.10689,-0.028887" />
      <path d="M 0.113805,-0.029744 A 0.00125,0.0001956801296016999 -5.243073870449906e-17 0,1 0.111321,-0.029774" />
      <path d="M 0.111321,-0.029774 A 0.0012500000000000011,0.00019568012960170006 -5.243073870449906e-17 0,1 0.113821,-0.029774" />
      <path d="M 0.113821,-0.029774 A 0.00125,0.0001956801296016999 -5.243073870449906e-17 0,1 0.113805,-0.029744" />
      <path d="M 0.123582,-0.0295 A 0.00125,0.0001956801296016999 -5.243073870449906e-17 0,1 0.121097,-0.02953" />
      <path d="M 0.121097,-0.02953 A 0.0012500000000000011,0.00019568012960170006 -5.243073870449906e-17 0,1 0.123597,-0.02953" />
      <path d="M 0.123597,-0.02953 A 0.00125,0.0001956801296016999 -5.243073870449906e-17 0,1 0.123582,-0.0295" />
      <path d="M 0.112246,-0.028213 A 0.00125,0.0001956801296016999 -5.243073870449906e-17 0,1 0.109762,-0.028244" />
      <path d="M 0.109762,-0.028244 A 0.0012500000000000011,0.00019568012960170006 -5.243073870449906e-17 0,1 0.112262,-0.028244" />
      <path d="M 0.112262,-0.028244 A 0.00125,0.0001956801296016999 -5.243073870449906e-17 0,1 0.112246,-0.028213" />
      <path d="M 0.121913,-0.028757 A 0.0053,0.0008296837495112074 -5.243073870449906e-17 0,1 0.11138,-0.028887" />
      <path d="M 0.11138,-0.028887 A 0.0053,0.0008296837495112074 -5.243073870449906e-17 0,1 0.12198,-0.028887" />
      <path d="M 0.12198,-0.028887 A 0.0053,0.0008296837495112074 -5.243073870449906e-17 0,1 0.121913,-0.028757" />
      <path d="M 0.122023,-0.027969 A 0.00125,0.0001956801296016999 -5.243073870449906e-17 0,1 0.119538,-0.028" />
      <path d="M 0.119538,-0.028 A 0.00125,0.0001956801296016999 -5.243073870449906e-17 0,1 0.122038,-0.028" />
      <path d="M 0.122038,-0.028 A 0.00125,0.0001956801296016999 -5.243073870449906e-17 0,1 0.122023,-0.027969" />
      <line x1="0.114981" y1="-0.027219" x2="0.114981" y2="-0.017501" />
      <line x1="0.132717" y1="0.016915" x2="0.132717" y2="0.020177" />
      <line x1="0.115138" y1="-0.027374" x2="0.115138" y2="-0.017497" />
      <line x1="0.113821" y1="0.017337" x2="0.113821" y2="0.027214" />
      <line x1="0.111321" y1="0.017337" x2="0.111321" y2="0.027214" />
      <line x1="0.12198" y1="0.018225" x2="0.12198" y2="0.028101" />
      <line x1="0.11138" y1="0.018225" x2="0.11138" y2="0.028101" />
      <line x1="0.123597" y1="0.017581" x2="0.123597" y2="0.027458" />
      <line x1="0.121097" y1="0.017581" x2="0.121097" y2="0.027458" />
      <line x1="0.112262" y1="0.018868" x2="0.112262" y2="0.028745" />
      <line x1="0.109762" y1="0.018868" x2="0.109762" y2="0.028745" />
      <line x1="0.122038" y1="0.019112" x2="0.122038" y2="0.028989" />
      <line x1="0.119538" y1="0.019112" x2="0.119538" y2="0.028989" />
      <line x1="0.113821" y1="-0.029774" x2="0.113821" y2="-0.019898" />
      <line x1="0.111321" y1="-0.029774" x2="0.111321" y2="-0.019898" />
      <line x1="0.12198" y1="-0.028887" x2="0.12198" y2="-0.019011" />
      <line x1="0.11138" y1="-0.028887" x2="0.11138" y2="-0.019011" />
      <line x1="0.123597" y1="-0.02953" x2="0.123597" y2="-0.019654" />
      <line x1="0.121097" y1="-0.02953" x2="0.121097" y2="-0.019654" />
      <line x1="0.112262" y1="-0.028244" x2="0.112262" y2="-0.018367" />
      <line x1="0.109762" y1="-0.028244" x2="0.109762" y2="-0.018367" />
      <line x1="0.122038" y1="-0.028" x2="0.122038" y2="-0.018123" />
      <line x1="0.119538" y1="-0.028" x2="0.119538" y2="-0.018123" />
    </g>
  </g>
  <text x="0.026650" y="-0.036129" text-anchor="middle" font-family="'Input Sans Narrow', 'DejaVu Sans', Arial, sans-serif" font-size="0.002500" font-weight="bold" fill="#333">A-A</text>
  <text x="0.026650" y="-0.032629" text-anchor="middle" font-family="'Input Sans Narrow', 'DejaVu Sans', Arial, sans-serif" font-size="0.001800" fill="#888">front_horn</text>
  <text x="0.080096" y="-0.036129" text-anchor="middle" font-family="'Input Sans Narrow', 'DejaVu Sans', Arial, sans-serif" font-size="0.002500" font-weight="bold" fill="#333">B-B</text>
  <text x="0.080096" y="-0.032629" text-anchor="middle" font-family="'Input Sans Narrow', 'DejaVu Sans', Arial, sans-serif" font-size="0.001800" fill="#888">rear_horn</text>
  <text x="0.131010" y="-0.036129" text-anchor="middle" font-family="'Input Sans Narrow', 'DejaVu Sans', Arial, sans-serif" font-size="0.002500" font-weight="bold" fill="#333">side_XZ</text>
  <text x="-0.001175" y="0.034231" font-family="'Input Sans Narrow', 'DejaVu Sans', Arial, sans-serif" font-size="0.003500" font-weight="bold" fill="#222">coupler_assembly</text>
  <line x1="-0.001175" y1="0.038231" x2="0.008825" y2="0.038231" stroke="#333" stroke-width="0.000350"/>
  <line x1="-0.001175" y1="0.037231" x2="-0.001175" y2="0.039231" stroke="#333" stroke-width="0.000250"/>
  <line x1="0.008825" y1="0.037231" x2="0.008825" y2="0.039231" stroke="#333" stroke-width="0.000250"/>
  <text x="0.010325" y="0.038931" font-family="'Input Sans Narrow', 'DejaVu Sans', Arial, sans-serif" font-size="0.001800" fill="#888">10 mm</text>
  <rect x="0.028825" y="0.031731" width="0.004000" height="0.002500" fill="url(#hatch_cradle)" stroke="rgb(50,120,190)" stroke-width="0.000300"/>
  <text x="0.034325" y="0.033731" font-family="'Input Sans Narrow', 'DejaVu Sans', Arial, sans-serif" font-size="0.001800" fill="rgb(50,120,190)">cradle</text>
  <rect x="0.028825" y="0.035231" width="0.004000" height="0.002500" fill="url(#hatch_servo)" stroke="rgb(60,60,60)" stroke-width="0.000300"/>
  <text x="0.034325" y="0.037231" font-family="'Input Sans Narrow', 'DejaVu Sans', Arial, sans-serif" font-size="0.001800" fill="rgb(60,60,60)">servo</text>
  <rect x="0.028825" y="0.038731" width="0.004000" height="0.002500" fill="url(#hatch_coupler)" stroke="rgb(220,60,40)" stroke-width="0.000300"/>
  <text x="0.034325" y="0.040731" font-family="'Input Sans Narrow', 'DejaVu Sans', Arial, sans-serif" font-size="0.001800" fill="rgb(220,60,40)">coupler</text>
</svg>