<?xml version='1.0' encoding='utf-8'?>
<svg width="321.39mm" height="90.10mm" viewBox="-0.003175 -0.024513 0.321390 0.090104" version="1.1" xmlns="http://www.w3.org/2000/svg">
  <defs>
    <pattern id="hatch_servo" width="0.0012" height="0.0012" patternUnits="userSpaceOnUse" patternTransform="rotate(45)">
      <line x1="0" y1="0" x2="0" y2="0.0012" stroke="rgb(60,60,60)" stroke-width="0.0001" stroke-opacity="0.6"/>
    </pattern>
    <pattern id="hatch_coupler" width="0.0012" height="0.0012" patternUnits="userSpaceOnUse" patternTransform="rotate(75)">
      <line x1="0" y1="0" x2="0" y2="0.0012" stroke="rgb(220,60,40)" stroke-width="0.0001" stroke-opacity="0.6"/>
    </pattern>
  </defs>
  <g transform="scale(1,-1)" stroke-linecap="round">
    <g fill="none" stroke="rgb(60,60,60)" stroke-width="0.00035" id="servo">
      <path d="M 0.004,0.0124 A 0.004,0.004 180.0 0,1 0.0,0.0084" />
      <line x1="0.004" y1="0.0124" x2="0.0414" y2="0.0124" />
      <path d="M 0.0454,0.0084 A 0.004,0.004 0.0 0,1 0.0414,0.0124" />
      <line x1="0.0454" y1="0.0084" x2="0.0454" y2="-0.0084" />
      <path d="M 0.0414,-0.0124 A 0.004,0.004 0.0 0,1 0.0454,-0.0084" />
      <line x1="0.004" y1="-0.0124" x2="0.0414" y2="-0.0124" />
      <path d="M 0.0,-0.0084 A 0.004,0.004 180.0 0,1 0.004,-0.0124" />
      <line x1="0.0" y1="0.0084" x2="0.0" y2="-0.0084" />
      <path d="M 0.074553,0.0124 A 0.004,0.004 180.0 0,1 0.070553,0.0084" />
      <line x1="0.074553" y1="0.0124" x2="0.111953" y2="0.0124" />
      <path d="M 0.115953,0.0084 A 0.004,0.004 0.0 0,1 0.111953,0.0124" />
      <line x1="0.115953" y1="0.0084" x2="0.115953" y2="-0.0084" />
      <path d="M 0.111953,-0.0124 A 0.004,0.004 0.0 0,1 0.115953,-0.0084" />
      <line x1="0.074553" y1="-0.0124" x2="0.111953" y2="-0.0124" />
      <path d="M 0.070553,-0.0084 A 0.004,0.004 180.0 0,1 0.074553,-0.0124" />
      <line x1="0.070553" y1="0.0084" x2="0.070553" y2="-0.0084" />
      <circle cx="0.076253" cy="-0.01025" r="0.0016" />
      <circle cx="0.093253" cy="-0.01025" r="0.0016" />
      <circle cx="0.110253" cy="-0.01025" r="0.0016" />
      <circle cx="0.076253" cy="0.01025" r="0.0016" />
      <circle cx="0.093253" cy="0.01025" r="0.0016" />
      <circle cx="0.110253" cy="0.01025" r="0.0016" />
      <path d="M 0.145107,0.0124 A 0.004,0.004 180.0 0,1 0.141107,0.0084" />
      <line x1="0.145107" y1="0.0124" x2="0.182507" y2="0.0124" />
      <path d="M 0.186507,0.0084 A 0.004,0.004 0.0 0,1 0.182507,0.0124" />
      <line x1="0.186507" y1="0.0084" x2="0.186507" y2="-0.0084" />
      <path d="M 0.182507,-0.0124 A 0.004,0.004 0.0 0,1 0.186507,-0.0084" />
      <line x1="0.145107" y1="-0.0124" x2="0.182507" y2="-0.0124" />
      <path d="M 0.141107,-0.0084 A 0.004,0.004 180.0 0,1 0.145107,-0.0124" />
      <line x1="0.141107" y1="0.0084" x2="0.141107" y2="-0.0084" />
      <path d="M 0.21166,-0.032313 A 0.004,6.331390824028431e-06 1.7086817160884977e-20 0,1 0.213656,-0.032319" />
      <path d="M 0.25706,-0.032313 A 0.004,6.331390824028431e-06 -180.0 0,0 0.254056,-0.032319" />
      <line x1="0.25706" y1="-0.032313" x2="0.257081" y2="-0.032287" />
      <line x1="0.21166" y1="0.000287" x2="0.211681" y2="0.000313" />
      <line x1="0.21166" y1="-0.032313" x2="0.21166" y2="0.000287" />
      <path d="M 0.213656,-0.032319 A 0.004,6.331390824028431e-06 1.7086817160884977e-20 0,1 0.215655,-0.03232" />
      <line x1="0.215655" y1="-0.03232" x2="0.215655" y2="0.00028" />
      <path d="M 0.21166,0.000287 A 0.004,6.331390824028431e-06 1.7086817160884977e-20 0,1 0.215655,0.00028" />
      <path d="M 0.211681,0.000313 A 0.004,6.331390824028431e-06 -180.0 0,0 0.215686,0.00032" />
      <line x1="0.213655" y1="-0.03442" x2="0.213655" y2="-0.03232" />
      <line x1="0.213655" y1="-0.03232" x2="0.213656" y2="-0.032319" />
      <line x1="0.25406" y1="-0.034413" x2="0.25406" y2="-0.032319" />
      <line x1="0.25406" y1="-0.034387" x2="0.254081" y2="-0.034387" />
      <line x1="0.254081" y1="-0.034387" x2="0.254081" y2="-0.032319" />
      <line x1="0.254055" y1="-0.03442" x2="0.254055" y2="-0.03232" />
      <line x1="0.254055" y1="-0.03442" x2="0.25406" y2="-0.034413" />
      <line x1="0.254086" y1="-0.03438" x2="0.254086" y2="-0.032319" />
      <line x1="0.254081" y1="-0.034387" x2="0.254086" y2="-0.03438" />
      <line x1="0.25706" y1="-0.032313" x2="0.25706" y2="0.000287" />
      <path d="M 0.254056,-0.032319 A 0.004,6.331390824028431e-06 -180.0 0,0 0.253055,-0.03232" />
      <line x1="0.253055" y1="-0.03232" x2="0.253055" y2="0.00028" />
      <path d="M 0.25706,0.000287 A 0.004,6.331390824028431e-06 -180.0 0,0 0.253055,0.00028" />
      <line x1="0.257081" y1="0.000313" x2="0.257081" y2="-0.032287" />
      <path d="M 0.254086,-0.032281 A 0.004,6.331390824028431e-06 1.7086817160884977e-20 0,1 0.253086,-0.03228" />
      <path d="M 0.257081,0.000313 A 0.004,6.331390824028431e-06 1.7086817160884977e-20 0,1 0.25688,0.000315" />
      <line x1="0.25706" y1="0.000287" x2="0.257081" y2="0.000313" />
      <line x1="0.215655" y1="0.00028" x2="0.253055" y2="0.00028" />
      <line x1="0.215686" y1="0.00032" x2="0.236861" y2="0.00032" />
      <path d="M 0.236861,0.000287 A 0.002,3.1656954120142157e-06 1.7086817160884977e-20 0,1 0.238858,0.000284" />
      <line x1="0.238858" y1="0.000284" x2="0.254858" y2="0.000284" />
      <path d="M 0.256861,0.000287 A 0.002,3.1656954120142157e-06 -180.0 0,0 0.254858,0.000284" />
      <line x1="0.256861" y1="0.000287" x2="0.25688" y2="0.000313" />
      <line x1="0.213655" y1="-0.03232" x2="0.215655" y2="-0.03232" />
      <line x1="0.253055" y1="-0.03232" x2="0.254055" y2="-0.03232" />
      <line x1="0.213655" y1="-0.03442" x2="0.254055" y2="-0.03442" />
      <path d="M 0.236861,0.001987 A 0.002,3.1656954120142157e-06 1.7086817160884977e-20 0,1 0.238858,0.001984" />
      <line x1="0.238858" y1="0.001984" x2="0.254858" y2="0.001984" />
      <path d="M 0.256861,0.001987 A 0.002,3.1656954120142157e-06 -180.0 0,0 0.254858,0.001984" />
      <line x1="0.256861" y1="0.001987" x2="0.25688" y2="0.002013" />
      <path d="M 0.25688,0.002013 A 0.002,3.1656954120142157e-06 1.7086817160884977e-20 0,1 0.254883,0.002016" />
      <line x1="0.238883" y1="0.002016" x2="0.242371" y2="0.002016" />
      <line x1="0.251371" y1="0.002016" x2="0.254883" y2="0.002016" />
      <path d="M 0.23688,0.002013 A 0.002,3.1656954120142157e-06 -180.0 0,0 0.238883,0.002016" />
      <line x1="0.236861" y1="0.001987" x2="0.23688" y2="0.002013" />
      <path d="M 0.242371,0.002 A 0.004500000000000004,7.122814677031991e-06 1.575652030466048e-20 0,1 0.251371,0.002" />
      <path d="M 0.251371,0.0035 A 0.004500000000000004,7.122814677031991e-06 1.575652030466048e-20 0,1 0.242371,0.0035" />
      <path d="M 0.242371,0.0035 A 0.004500000000000004,7.122814677031991e-06 1.575652030466048e-20 0,1 0.251371,0.0035" />
      <line x1="0.236861" y1="0.000287" x2="0.236861" y2="0.001987" />
      <line x1="0.238858" y1="0.000284" x2="0.238858" y2="0.001984" />
      <line x1="0.254858" y1="0.000284" x2="0.254858" y2="0.001984" />
      <line x1="0.256861" y1="0.000287" x2="0.256861" y2="0.001987" />
      <line x1="0.25688" y1="0.000313" x2="0.25688" y2="0.002013" />
      <line x1="0.21166" y1="-0.032313" x2="0.21166" y2="0.000287" />
      <line x1="0.257081" y1="-0.032287" x2="0.257081" y2="0.000313" />
      <line x1="0.236861" y1="0.000287" x2="0.236861" y2="0.001987" />
      <line x1="0.25688" y1="0.000313" x2="0.25688" y2="0.002013" />
      <line x1="0.251371" y1="0.002" x2="0.251371" y2="0.0035" />
      <line x1="0.242371" y1="0.002" x2="0.242371" y2="0.0035" />
      <line x1="0.28759" y1="-0.034092" x2="0.30169" y2="-0.034092" />
      <line x1="0.28759" y1="-0.032335" x2="0.28759" y2="-0.034092" />
      <line x1="0.30169" y1="-0.032335" x2="0.30169" y2="-0.034092" />
      <path d="M 0.28624,-0.032335 A 0.004,6.323648049565119e-06 180.0 0,0 0.282367,-0.032331" />
      <line x1="0.28624" y1="-0.032335" x2="0.30304" y2="-0.032335" />
      <path d="M 0.30304,-0.032335 A 0.004,6.323648049565119e-06 -5.108351376014021e-38 0,1 0.306913,-0.032331" />
      <path d="M 0.28464,0.000336 A 0.004,6.323648049565119e-06 -5.108351376014021e-38 0,1 0.28224,0.00033" />
      <path d="M 0.30464,0.000336 A 0.004,6.323648049565119e-06 180.0 0,0 0.30704,0.00033" />
      <line x1="0.28624" y1="-0.034431" x2="0.28624" y2="-0.032335" />
      <line x1="0.30304" y1="-0.034431" x2="0.30304" y2="-0.032335" />
      <line x1="0.28224" y1="-0.034431" x2="0.28224" y2="-0.032331" />
      <line x1="0.28224" y1="-0.032331" x2="0.282367" y2="-0.032331" />
      <line x1="0.28224" y1="-0.034431" x2="0.28624" y2="-0.034431" />
      <line x1="0.306913" y1="-0.032331" x2="0.30704" y2="-0.032331" />
      <line x1="0.30704" y1="-0.034431" x2="0.30704" y2="-0.032331" />
      <line x1="0.30304" y1="-0.034431" x2="0.30704" y2="-0.034431" />
      <line x1="0.28624" y1="-0.032335" x2="0.28624" y2="0.000264" />
      <path d="M 0.282367,-0.032331 A 0.004,6.323648049565119e-06 180.0 0,0 0.28224,-0.032329" />
      <line x1="0.28224" y1="-0.032329" x2="0.28224" y2="0.000271" />
      <path d="M 0.28624,0.000264 A 0.004,6.323648049565119e-06 180.0 0,0 0.28224,0.000271" />
      <line x1="0.30304" y1="0.000264" x2="0.30304" y2="-0.032335" />
      <path d="M 0.306913,-0.032331 A 0.004,6.323648049565119e-06 -5.108351376014021e-38 0,1 0.30704,-0.032329" />
      <line x1="0.30704" y1="0.000271" x2="0.30704" y2="-0.032329" />
      <path d="M 0.30304,0.000264 A 0.004,6.323648049565119e-06 -5.108351376014021e-38 0,1 0.30704,0.000271" />
      <line x1="0.28624" y1="0.000264" x2="0.30304" y2="0.000264" />
      <path d="M 0.29464,-0.033624 A 0.003,4.742736037173839e-06 -6.915920008524899e-38 0,1 0.29764,-0.033619" />
      <path d="M 0.29164,-0.033619 A 0.003,4.742736037173839e-06 -6.915920008524899e-38 0,1 0.29464,-0.033624" />
      <line x1="0.28224" y1="0.00033" x2="0.28224" y2="0.000271" />
      <line x1="0.30704" y1="0.00033" x2="0.30704" y2="0.000271" />
      <path d="M 0.28664,0.000265 A 0.002,3.1618240247825596e-06 180.0 0,0 0.28464,0.000268" />
      <line x1="0.28664" y1="0.000265" x2="0.30264" y2="0.000265" />
      <path d="M 0.30264,0.000265 A 0.002,3.1618240247825596e-06 -5.108351376014021e-38 0,1 0.30464,0.000268" />
      <line x1="0.28224" y1="-0.032329" x2="0.28224" y2="-0.032331" />
      <line x1="0.30704" y1="-0.032329" x2="0.30704" y2="-0.032331" />
      <path d="M 0.28664,0.001996 A 0.002,3.1618240247825596e-06 -5.108351376014021e-38 0,1 0.28464,0.001993" />
      <line x1="0.28464" y1="0.000268" x2="0.28464" y2="0.001968" />
      <line x1="0.28464" y1="0.001993" x2="0.28464" y2="0.001968" />
      <path d="M 0.28664,0.001965 A 0.002,3.1618240247825596e-06 180.0 0,0 0.28464,0.001968" />
      <line x1="0.28664" y1="0.001965" x2="0.30264" y2="0.001965" />
      <line x1="0.30464" y1="0.000268" x2="0.30464" y2="0.001968" />
      <path d="M 0.30264,0.001965 A 0.002,3.1618240247825596e-06 -5.108351376014021e-38 0,1 0.30464,0.001968" />
      <line x1="0.30464" y1="0.001993" x2="0.30464" y2="0.001968" />
      <path d="M 0.30264,0.001996 A 0.002,3.1618240247825596e-06 180.0 0,0 0.30464,0.001993" />
      <line x1="0.28664" y1="0.001996" x2="0.29014" y2="0.001996" />
      <line x1="0.29914" y1="0.001996" x2="0.30264" y2="0.001996" />
      <path d="M 0.29464,0.001973 A 0.0045,7.114104055760758e-06 -6.915920008524899e-38 0,1 0.29914,0.001981" />
      <path d="M 0.29014,0.001981 A 0.0045,7.114104055760758e-06 -6.915920008524899e-38 0,1 0.29464,0.001973" />
      <path d="M 0.29464,0.003473 A 0.0045,7.114104055760758e-06 -6.915920008524899e-38 0,1 0.29914,0.003481" />
      <path d="M 0.29914,0.003481 A 0.004500000000000004,7.114104055760764e-06 -6.915920008524899e-38 0,1 0.29014,0.003481" />
      <path d="M 0.29014,0.003481 A 0.0045,7.114104055760758e-06 -6.915920008524899e-38 0,1 0.29464,0.003473" />
      <line x1="0.28664" y1="0.000265" x2="0.28664" y2="0.001965" />
      <line x1="0.30264" y1="0.000265" x2="0.30264" y2="0.001965" />
      <line x1="0.29764" y1="-0.033619" x2="0.29764" y2="-0.032335" />
      <line x1="0.29164" y1="-0.033619" x2="0.29164" y2="-0.032335" />
      <line x1="0.29914" y1="0.001981" x2="0.29914" y2="0.003481" />
      <line x1="0.29014" y1="0.001981" x2="0.29014" y2="0.003481" />
    </g>
    <g fill="url(#hatch_servo)" stroke="none" stroke-width="0" id="servo_fill">
      <path d="M 0.004,0.0124 A 0.004,0.004 180.0 0,1 0.0,0.0084 L 0.0,-0.0084 A 0.004,0.004 180.0 0,1 0.004,-0.0124 L 0.0414,-0.0124 A 0.004,0.004 0.0 0,1 0.0454,-0.0084 L 0.0454,0.0084 A 0.004,0.004 0.0 0,1 0.0414,0.0124 L 0.004,0.0124" />
      <path d="M 0.074553,0.0124 A 0.004,0.004 180.0 0,1 0.070553,0.0084 L 0.070553,-0.0084 A 0.004,0.004 180.0 0,1 0.074553,-0.0124 L 0.111953,-0.0124 A 0.004,0.004 0.0 0,1 0.115953,-0.0084 L 0.115953,0.0084 A 0.004,0.004 0.0 0,1 0.111953,0.0124 L 0.074553,0.0124 M 0.077853,-0.01025 A 0.0016000000000000044,0.0016000000000000044 0.0 0,0 0.074653,-0.01025 A 0.0016000000000000044,0.0016000000000000044 0.0 0,0 0.077853,-0.01025 M 0.094853,-0.01025 A 0.0016000000000000044,0.0016000000000000044 0.0 0,0 0.091653,-0.01025 A 0.0016000000000000044,0.0016000000000000044 0.0 0,0 0.094853,-0.01025 M 0.111853,-0.01025 A 0.0016,0.0016 0.0 0,0 0.108653,-0.01025 A 0.0016,0.0016 0.0 0,0 0.111853,-0.01025 M 0.077853,0.01025 A 0.0016000000000000044,0.0016000000000000044 0.0 0,0 0.074653,0.01025 A 0.0016000000000000044,0.0016000000000000044 0.0 0,0 0.077853,0.01025 M 0.094853,0.01025 A 0.0016000000000000044,0.0016000000000000044 0.0 0,0 0.091653,0.01025 A 0.0016000000000000044,0.0016000000000000044 0.0 0,0 0.094853,0.01025 M 0.111853,0.01025 A 0.0016,0.0016 0.0 0,0 0.108653,0.01025 A 0.0016,0.0016 0.0 0,0 0.111853,0.01025" />
      <path d="M 0.145107,0.0124 A 0.004,0.004 180.0 0,1 0.141107,0.0084 L 0.141107,-0.0084 A 0.004,0.004 180.0 0,1 0.145107,-0.0124 L 0.182507,-0.0124 A 0.004,0.004 0.0 0,1 0.186507,-0.0084 L 0.186507,0.0084 A 0.004,0.004 0.0 0,1 0.182507,0.0124 L 0.145107,0.0124" />
    </g>
    <g fill="none" stroke="rgb(60,60,60)" stroke-opacity="0.4" stroke-width="0.00015" id="servo_hidden" stroke-dasharray="0.0018 0.00045">
      <line x1="0.229412" y1="-0.034111" x2="0.229429" y2="-0.034089" />
      <line x1="0.229412" y1="-0.032311" x2="0.229412" y2="-0.034111" />
      <line x1="0.229429" y1="-0.032289" x2="0.229412" y2="-0.032311" />
      <line x1="0.229429" y1="-0.032289" x2="0.229429" y2="-0.034089" />
      <line x1="0.228722" y1="-0.034098" x2="0.228719" y2="-0.034102" />
      <line x1="0.228722" y1="-0.034098" x2="0.224022" y2="-0.034098" />
      <line x1="0.224022" y1="-0.034098" x2="0.224019" y2="-0.034102" />
      <line x1="0.228719" y1="-0.034102" x2="0.224019" y2="-0.034102" />
      <line x1="0.229412" y1="-0.034111" x2="0.223312" y2="-0.034111" />
      <line x1="0.223312" y1="-0.034111" x2="0.223329" y2="-0.034089" />
      <line x1="0.229429" y1="-0.034089" x2="0.223329" y2="-0.034089" />
      <line x1="0.224028" y1="-0.03409" x2="0.224023" y2="-0.034097" />
      <line x1="0.228723" y1="-0.034097" x2="0.224023" y2="-0.034097" />
      <line x1="0.228728" y1="-0.03409" x2="0.228723" y2="-0.034097" />
      <line x1="0.228728" y1="-0.03409" x2="0.224028" y2="-0.03409" />
      <line x1="0.228718" y1="-0.034103" x2="0.224018" y2="-0.034103" />
      <line x1="0.224018" y1="-0.034103" x2="0.224013" y2="-0.03411" />
      <line x1="0.228713" y1="-0.03411" x2="0.224013" y2="-0.03411" />
      <line x1="0.228718" y1="-0.034103" x2="0.228713" y2="-0.03411" />
      <line x1="0.21166" y1="-0.032313" x2="0.211681" y2="-0.032287" />
      <line x1="0.213656" y1="-0.032319" x2="0.21366" y2="-0.032313" />
      <line x1="0.21366" y1="-0.032313" x2="0.25406" y2="-0.032313" />
      <line x1="0.254056" y1="-0.032319" x2="0.25406" y2="-0.032313" />
      <path d="M 0.257081,-0.032287 A 0.004,6.331390824028431e-06 1.7086817160884977e-20 0,1 0.254086,-0.032281" />
      <line x1="0.254081" y1="-0.032287" x2="0.254086" y2="-0.032281" />
      <line x1="0.213681" y1="-0.032287" x2="0.254081" y2="-0.032287" />
      <line x1="0.213681" y1="-0.032287" x2="0.213685" y2="-0.032281" />
      <path d="M 0.211681,-0.032287 A 0.004,6.331390824028431e-06 -180.0 0,0 0.213685,-0.032281" />
      <path d="M 0.249871,-0.0323 A 0.0030000000000000027,4.748543118021328e-06 1.575652030466048e-20 0,1 0.243871,-0.0323" />
      <path d="M 0.243871,-0.0323 A 0.0030000000000000027,4.748543118021328e-06 1.575652030466048e-20 0,1 0.249871,-0.0323" />
      <line x1="0.223312" y1="-0.032311" x2="0.229412" y2="-0.032311" />
      <line x1="0.223329" y1="-0.032289" x2="0.223312" y2="-0.032311" />
      <line x1="0.223329" y1="-0.032289" x2="0.229429" y2="-0.032289" />
      <line x1="0.223312" y1="-0.032311" x2="0.223312" y2="-0.034111" />
      <line x1="0.228719" y1="-0.032302" x2="0.228719" y2="-0.034102" />
      <line x1="0.228722" y1="-0.032298" x2="0.228722" y2="-0.034098" />
      <line x1="0.228722" y1="-0.032298" x2="0.228719" y2="-0.032302" />
      <line x1="0.223329" y1="-0.032289" x2="0.223329" y2="-0.034089" />
      <line x1="0.211681" y1="0.000313" x2="0.211681" y2="-0.032287" />
      <path d="M 0.213685,-0.032281 A 0.004,6.331390824028431e-06 -180.0 0,0 0.215686,-0.03228" />
      <line x1="0.215686" y1="0.00032" x2="0.215686" y2="-0.03228" />
      <line x1="0.21366" y1="-0.034413" x2="0.21366" y2="-0.032313" />
      <line x1="0.213655" y1="-0.03442" x2="0.21366" y2="-0.034413" />
      <line x1="0.213681" y1="-0.034387" x2="0.213681" y2="-0.032287" />
      <line x1="0.213685" y1="-0.032281" x2="0.213686" y2="-0.03228" />
      <line x1="0.213686" y1="-0.03438" x2="0.213686" y2="-0.03228" />
      <line x1="0.213681" y1="-0.034387" x2="0.213686" y2="-0.03438" />
      <line x1="0.21366" y1="-0.034413" x2="0.25406" y2="-0.034413" />
      <line x1="0.25406" y1="-0.032319" x2="0.25406" y2="-0.032313" />
      <line x1="0.213681" y1="-0.034387" x2="0.25406" y2="-0.034387" />
      <line x1="0.254081" y1="-0.032319" x2="0.254081" y2="-0.032287" />
      <line x1="0.254086" y1="-0.032319" x2="0.254086" y2="-0.03228" />
      <line x1="0.253086" y1="0.00032" x2="0.253086" y2="-0.03228" />
      <path d="M 0.25688,0.000315 A 0.004,6.331390824028431e-06 1.7086817160884977e-20 0,1 0.253086,0.00032" />
      <path d="M 0.249871,-0.0336 A 0.0030000000000000027,4.748543118021328e-06 1.575652030466048e-20 0,1 0.243871,-0.0336" />
      <path d="M 0.243871,-0.0336 A 0.0030000000000000027,4.748543118021328e-06 1.575652030466048e-20 0,1 0.249871,-0.0336" />
      <line x1="0.228713" y1="-0.03231" x2="0.228713" y2="-0.03411" />
      <line x1="0.228718" y1="-0.034103" x2="0.228718" y2="-0.032303" />
      <line x1="0.228718" y1="-0.032303" x2="0.228713" y2="-0.03231" />
      <line x1="0.224013" y1="-0.03231" x2="0.224013" y2="-0.03411" />
      <line x1="0.224013" y1="-0.03231" x2="0.228713" y2="-0.03231" />
      <line x1="0.224018" y1="-0.034103" x2="0.224018" y2="-0.032303" />
      <line x1="0.224018" y1="-0.032303" x2="0.224013" y2="-0.03231" />
      <line x1="0.224028" y1="-0.03229" x2="0.224023" y2="-0.032297" />
      <line x1="0.224023" y1="-0.032297" x2="0.224023" y2="-0.034097" />
      <line x1="0.224028" y1="-0.03229" x2="0.224028" y2="-0.03409" />
      <line x1="0.228728" y1="-0.03229" x2="0.228728" y2="-0.03409" />
      <line x1="0.224028" y1="-0.03229" x2="0.228728" y2="-0.03229" />
      <line x1="0.228728" y1="-0.03229" x2="0.228723" y2="-0.032297" />
      <line x1="0.228723" y1="-0.032297" x2="0.228723" y2="-0.034097" />
      <line x1="0.224023" y1="-0.032297" x2="0.228723" y2="-0.032297" />
      <line x1="0.224022" y1="-0.032298" x2="0.224022" y2="-0.034098" />
      <line x1="0.224022" y1="-0.032298" x2="0.228722" y2="-0.032298" />
      <line x1="0.224019" y1="-0.032302" x2="0.224019" y2="-0.034102" />
      <line x1="0.224019" y1="-0.032302" x2="0.228719" y2="-0.032302" />
      <line x1="0.224022" y1="-0.032298" x2="0.224019" y2="-0.032302" />
      <line x1="0.224018" y1="-0.032303" x2="0.228718" y2="-0.032303" />
      <line x1="0.236861" y1="0.00032" x2="0.253086" y2="0.00032" />
      <path d="M 0.25688,0.000313 A 0.002,3.1656954120142157e-06 1.7086817160884977e-20 0,1 0.254883,0.000316" />
      <line x1="0.238883" y1="0.000316" x2="0.254883" y2="0.000316" />
      <path d="M 0.23688,0.000313 A 0.002,3.1656954120142157e-06 -180.0 0,0 0.238883,0.000316" />
      <line x1="0.236861" y1="0.000287" x2="0.23688" y2="0.000313" />
      <line x1="0.213686" y1="-0.03228" x2="0.215686" y2="-0.03228" />
      <line x1="0.253086" y1="-0.03228" x2="0.254086" y2="-0.03228" />
      <line x1="0.213686" y1="-0.03438" x2="0.254086" y2="-0.03438" />
      <path d="M 0.218958,-0.034416 A 0.0016000000000000044,2.5325563296113795e-06 1.575652030466048e-20 0,1 0.215758,-0.034416" />
      <path d="M 0.215758,-0.034416 A 0.0016000000000000044,2.5325563296113795e-06 1.575652030466048e-20 0,1 0.218958,-0.034416" />
      <path d="M 0.235958,-0.034416 A 0.0016000000000000044,2.5325563296113795e-06 1.575652030466048e-20 0,1 0.232758,-0.034416" />
      <path d="M 0.232758,-0.034416 A 0.0016000000000000044,2.5325563296113795e-06 1.575652030466048e-20 0,1 0.235958,-0.034416" />
      <path d="M 0.252958,-0.034416 A 0.0016000000000000044,2.5325563296113795e-06 1.575652030466048e-20 0,1 0.249758,-0.034416" />
      <path d="M 0.249758,-0.034416 A 0.0016000000000000044,2.5325563296113795e-06 1.575652030466048e-20 0,1 0.252958,-0.034416" />
      <path d="M 0.218983,-0.034384 A 0.0016000000000000044,2.5325563296113795e-06 1.575652030466048e-20 0,1 0.215783,-0.034384" />
      <path d="M 0.215783,-0.034384 A 0.0016000000000000044,2.5325563296113795e-06 1.575652030466048e-20 0,1 0.218983,-0.034384" />
      <path d="M 0.235983,-0.034384 A 0.0016000000000000044,2.5325563296113795e-06 1.575652030466048e-20 0,1 0.232783,-0.034384" />
      <path d="M 0.232783,-0.034384 A 0.0016000000000000044,2.5325563296113795e-06 1.575652030466048e-20 0,1 0.235983,-0.034384" />
      <path d="M 0.252983,-0.034384 A 0.0016000000000000044,2.5325563296113795e-06 1.575652030466048e-20 0,1 0.249783,-0.034384" />
      <path d="M 0.249783,-0.034384 A 0.0016000000000000044,2.5325563296113795e-06 1.575652030466048e-20 0,1 0.252983,-0.034384" />
      <line x1="0.242371" y1="0.002016" x2="0.251371" y2="0.002016" />
      <path d="M 0.218958,-0.024416 A 0.0016000000000000044,2.5325563296113795e-06 1.575652030466048e-20 0,1 0.215758,-0.024416" />
      <path d="M 0.215758,-0.024416 A 0.0016000000000000044,2.5325563296113795e-06 1.575652030466048e-20 0,1 0.218958,-0.024416" />
      <path d="M 0.235958,-0.024416 A 0.0016000000000000044,2.5325563296113795e-06 1.575652030466048e-20 0,1 0.232758,-0.024416" />
      <path d="M 0.232758,-0.024416 A 0.0016000000000000044,2.5325563296113795e-06 1.575652030466048e-20 0,1 0.235958,-0.024416" />
      <path d="M 0.252958,-0.024416 A 0.0016000000000000044,2.5325563296113795e-06 1.575652030466048e-20 0,1 0.249758,-0.024416" />
      <path d="M 0.249758,-0.024416 A 0.0016000000000000044,2.5325563296113795e-06 1.575652030466048e-20 0,1 0.252958,-0.024416" />
      <path d="M 0.218983,-0.024384 A 0.0016000000000000044,2.5325563296113795e-06 1.575652030466048e-20 0,1 0.215783,-0.024384" />
      <path d="M 0.215783,-0.024384 A 0.0016000000000000044,2.5325563296113795e-06 1.575652030466048e-20 0,1 0.218983,-0.024384" />
      <path d="M 0.235983,-0.024384 A 0.0016000000000000044,2.5325563296113795e-06 1.575652030466048e-20 0,1 0.232783,-0.024384" />
      <path d="M 0.232783,-0.024384 A 0.0016000000000000044,2.5325563296113795e-06 1.575652030466048e-20 0,1 0.235983,-0.024384" />
      <path d="M 0.252983,-0.024384 A 0.0016000000000000044,2.5325563296113795e-06 1.575652030466048e-20 0,1 0.249783,-0.024384" />
      <path d="M 0.249783,-0.024384 A 0.0016000000000000044,2.5325563296113795e-06 1.575652030466048e-20 0,1 0.252983,-0.024384" />
      <path d="M 0.251371,0.002 A 0.004500000000000004,7.122814677031991e-06 1.575652030466048e-20 0,1 0.242371,0.002" />
      <line x1="0.249871" y1="-0.0336" x2="0.249871" y2="-0.0323" />
      <line x1="0.243871" y1="-0.0336" x2="0.243871" y2="-0.0323" />
      <line x1="0.218958" y1="-0.034416" x2="0.218958" y2="-0.024416" />
      <line x1="0.215758" y1="-0.034416" x2="0.215758" y2="-0.024416" />
      <line x1="0.235958" y1="-0.034416" x2="0.235958" y2="-0.024416" />
      <line x1="0.232758" y1="-0.034416" x2="0.232758" y2="-0.024416" />
      <line x1="0.252958" y1="-0.034416" x2="0.252958" y2="-0.024416" />
      <line x1="0.249758" y1="-0.034416" x2="0.249758" y2="-0.024416" />
      <line x1="0.218983" y1="-0.034384" x2="0.218983" y2="-0.024384" />
      <line x1="0.215783" y1="-0.034384" x2="0.215783" y2="-0.024384" />
      <line x1="0.235983" y1="-0.034384" x2="0.235983" y2="-0.024384" />
      <line x1="0.232783" y1="-0.034384" x2="0.232783" y2="-0.024384" />
      <line x1="0.252983" y1="-0.034384" x2="0.252983" y2="-0.024384" />
      <line x1="0.249783" y1="-0.034384" x2="0.249783" y2="-0.024384" />
      <line x1="0.254883" y1="0.000316" x2="0.254883" y2="0.002016" />
      <line x1="0.238883" y1="0.000316" x2="0.238883" y2="0.002016" />
      <line x1="0.23688" y1="0.000313" x2="0.23688" y2="0.002013" />
      <line x1="0.28759" y1="-0.032292" x2="0.28759" y2="-0.032335" />
      <line x1="0.30169" y1="-0.032292" x2="0.28759" y2="-0.032292" />
      <line x1="0.30169" y1="-0.032292" x2="0.30169" y2="-0.032335" />
      <line x1="0.29599" y1="-0.034091" x2="0.29329" y2="-0.034091" />
      <line x1="0.29599" y1="-0.034091" x2="0.29599" y2="-0.034083" />
      <line x1="0.29599" y1="-0.034083" x2="0.29329" y2="-0.034083" />
      <line x1="0.29329" y1="-0.034091" x2="0.29329" y2="-0.034083" />
      <line x1="0.28759" y1="-0.034092" x2="0.28759" y2="-0.034082" />
      <line x1="0.28759" y1="-0.034082" x2="0.30169" y2="-0.034082" />
      <line x1="0.30169" y1="-0.034092" x2="0.30169" y2="-0.034082" />
      <line x1="0.30099" y1="-0.034083" x2="0.29669" y2="-0.034083" />
      <line x1="0.29669" y1="-0.034091" x2="0.29669" y2="-0.034083" />
      <line x1="0.30099" y1="-0.034091" x2="0.29669" y2="-0.034091" />
      <line x1="0.30099" y1="-0.034091" x2="0.30099" y2="-0.034083" />
      <line x1="0.29259" y1="-0.034091" x2="0.29259" y2="-0.034083" />
      <line x1="0.29259" y1="-0.034083" x2="0.28829" y2="-0.034083" />
      <line x1="0.28829" y1="-0.034091" x2="0.28829" y2="-0.034083" />
      <line x1="0.29259" y1="-0.034091" x2="0.28829" y2="-0.034091" />
      <line x1="0.28624" y1="-0.032264" x2="0.30304" y2="-0.032264" />
      <path d="M 0.28624,-0.032264 A 0.004,6.323648049565119e-06 -5.108351376014021e-38 0,1 0.282776,-0.032267" />
      <line x1="0.282776" y1="-0.032267" x2="0.28624" y2="-0.032267" />
      <line x1="0.28624" y1="-0.032267" x2="0.28624" y2="-0.032331" />
      <line x1="0.282367" y1="-0.032331" x2="0.28624" y2="-0.032331" />
      <line x1="0.30304" y1="-0.032331" x2="0.306913" y2="-0.032331" />
      <line x1="0.30304" y1="-0.032267" x2="0.30304" y2="-0.032331" />
      <line x1="0.30304" y1="-0.032267" x2="0.306504" y2="-0.032267" />
      <path d="M 0.30304,-0.032264 A 0.004,6.323648049565119e-06 180.0 0,0 0.306504,-0.032267" />
      <path d="M 0.29464,-0.032324 A 0.003,4.742736037173839e-06 -6.915920008524899e-38 0,1 0.29764,-0.032319" />
      <path d="M 0.29764,-0.032319 A 0.0030000000000000027,4.742736037173843e-06 -6.915920008524899e-38 0,1 0.29164,-0.032319" />
      <path d="M 0.29164,-0.032319 A 0.003,4.742736037173839e-06 -6.915920008524899e-38 0,1 0.29464,-0.032324" />
      <line x1="0.28759" y1="-0.032282" x2="0.28759" y2="-0.032292" />
      <line x1="0.30169" y1="-0.032282" x2="0.28759" y2="-0.032282" />
      <line x1="0.30169" y1="-0.032282" x2="0.30169" y2="-0.032292" />
      <line x1="0.28759" y1="-0.032282" x2="0.28759" y2="-0.034082" />
      <line x1="0.29329" y1="-0.032291" x2="0.29329" y2="-0.034091" />
      <line x1="0.29599" y1="-0.032291" x2="0.29599" y2="-0.034091" />
      <line x1="0.29599" y1="-0.032291" x2="0.29329" y2="-0.032291" />
      <line x1="0.30169" y1="-0.032282" x2="0.30169" y2="-0.034082" />
      <line x1="0.28624" y1="0.000336" x2="0.30304" y2="0.000336" />
      <line x1="0.28624" y1="-0.032264" x2="0.28624" y2="0.000336" />
      <line x1="0.30304" y1="0.000336" x2="0.30304" y2="-0.032264" />
      <path d="M 0.282776,-0.032267 A 0.004,6.323648049565119e-06 -5.108351376014021e-38 0,1 0.28224,-0.03227" />
      <line x1="0.28224" y1="-0.03227" x2="0.28224" y2="0.00033" />
      <path d="M 0.28624,0.000336 A 0.004,6.323648049565119e-06 -5.108351376014021e-38 0,1 0.28464,0.000336" />
      <path d="M 0.306504,-0.032267 A 0.004,6.323648049565119e-06 180.0 0,0 0.30704,-0.03227" />
      <line x1="0.30704" y1="0.00033" x2="0.30704" y2="-0.03227" />
      <path d="M 0.30304,0.000336 A 0.004,6.323648049565119e-06 180.0 0,0 0.30464,0.000336" />
      <line x1="0.28224" y1="-0.034367" x2="0.28224" y2="-0.032267" />
      <line x1="0.28224" y1="-0.032267" x2="0.282776" y2="-0.032267" />
      <line x1="0.28624" y1="-0.034367" x2="0.28624" y2="-0.032267" />
      <line x1="0.28224" y1="-0.034367" x2="0.28624" y2="-0.034367" />
      <line x1="0.30304" y1="-0.034367" x2="0.30304" y2="-0.032267" />
      <line x1="0.306504" y1="-0.032267" x2="0.30704" y2="-0.032267" />
      <line x1="0.30704" y1="-0.034367" x2="0.30704" y2="-0.032267" />
      <line x1="0.30304" y1="-0.034367" x2="0.30704" y2="-0.034367" />
      <line x1="0.28624" y1="-0.034367" x2="0.28624" y2="-0.034431" />
      <line x1="0.28624" y1="-0.032335" x2="0.28624" y2="-0.032331" />
      <line x1="0.30304" y1="-0.034367" x2="0.30304" y2="-0.034431" />
      <line x1="0.30304" y1="-0.032335" x2="0.30304" y2="-0.032331" />
      <path d="M 0.29764,-0.033619 A 0.0030000000000000027,4.742736037173843e-06 -6.915920008524899e-38 0,1 0.29164,-0.033619" />
      <line x1="0.28829" y1="-0.032291" x2="0.28829" y2="-0.034091" />
      <line x1="0.29259" y1="-0.034091" x2="0.29259" y2="-0.032291" />
      <line x1="0.29259" y1="-0.032291" x2="0.28829" y2="-0.032291" />
      <line x1="0.28829" y1="-0.032283" x2="0.28829" y2="-0.034083" />
      <line x1="0.28829" y1="-0.032283" x2="0.28829" y2="-0.032291" />
      <line x1="0.29259" y1="-0.034083" x2="0.29259" y2="-0.032283" />
      <line x1="0.29259" y1="-0.032283" x2="0.28829" y2="-0.032283" />
      <line x1="0.30099" y1="-0.032283" x2="0.29669" y2="-0.032283" />
      <line x1="0.29669" y1="-0.032283" x2="0.29669" y2="-0.034083" />
      <line x1="0.30099" y1="-0.032283" x2="0.30099" y2="-0.034083" />
      <line x1="0.30099" y1="-0.032291" x2="0.30099" y2="-0.034091" />
      <line x1="0.30099" y1="-0.032283" x2="0.30099" y2="-0.032291" />
      <line x1="0.30099" y1="-0.032291" x2="0.29669" y2="-0.032291" />
      <line x1="0.29669" y1="-0.032291" x2="0.29669" y2="-0.034091" />
      <line x1="0.29669" y1="-0.032283" x2="0.29669" y2="-0.032291" />
      <line x1="0.29599" y1="-0.032283" x2="0.29599" y2="-0.034083" />
      <line x1="0.29599" y1="-0.032283" x2="0.29599" y2="-0.032291" />
      <line x1="0.29329" y1="-0.032283" x2="0.29329" y2="-0.034083" />
      <line x1="0.29329" y1="-0.032283" x2="0.29329" y2="-0.032291" />
      <line x1="0.29599" y1="-0.032283" x2="0.29329" y2="-0.032283" />
      <line x1="0.29259" y1="-0.032283" x2="0.29259" y2="-0.032291" />
      <path d="M 0.28664,0.000296 A 0.002,3.1618240247825596e-06 -5.108351376014021e-38 0,1 0.28464,0.000293" />
      <line x1="0.28464" y1="0.000293" x2="0.28464" y2="0.000268" />
      <line x1="0.30464" y1="0.000293" x2="0.30464" y2="0.000268" />
      <path d="M 0.30264,0.000296 A 0.002,3.1618240247825596e-06 180.0 0,0 0.30464,0.000293" />
      <line x1="0.28664" y1="0.000296" x2="0.30264" y2="0.000296" />
      <line x1="0.28224" y1="-0.032267" x2="0.28224" y2="-0.03227" />
      <line x1="0.28224" y1="-0.034367" x2="0.28224" y2="-0.034431" />
      <line x1="0.30704" y1="-0.032267" x2="0.30704" y2="-0.03227" />
      <line x1="0.30704" y1="-0.034367" x2="0.30704" y2="-0.034431" />
      <path d="M 0.28439,-0.034375 A 0.0016,2.5294592198260478e-06 -6.915920008524899e-38 0,1 0.28599,-0.034373" />
      <path d="M 0.28599,-0.034373 A 0.0016000000000000179,2.5294592198260757e-06 -6.915920008524899e-38 0,1 0.28279,-0.034373" />
      <path d="M 0.28279,-0.034373 A 0.0016,2.5294592198260478e-06 -6.915920008524899e-38 0,1 0.28439,-0.034375" />
      <path d="M 0.28439,-0.034402 A 0.0016,2.5294592198260478e-06 -6.915920008524899e-38 0,1 0.28599,-0.0344" />
      <path d="M 0.28599,-0.0344 A 0.0016000000000000179,2.5294592198260757e-06 -6.915920008524899e-38 0,1 0.28279,-0.0344" />
      <path d="M 0.28279,-0.0344 A 0.0016,2.5294592198260478e-06 -6.915920008524899e-38 0,1 0.28439,-0.034402" />
      <path d="M 0.28439,-0.034429 A 0.0016,2.5294592198260478e-06 -6.915920008524899e-38 0,1 0.28599,-0.034426" />
      <path d="M 0.28599,-0.034426 A 0.0016000000000000179,2.5294592198260757e-06 -6.915920008524899e-38 0,1 0.28279,-0.034426" />
      <path d="M 0.28279,-0.034426 A 0.0016,2.5294592198260478e-06 -6.915920008524899e-38 0,1 0.28439,-0.034429" />
      <path d="M 0.30489,-0.034375 A 0.0016,2.5294592198260478e-06 -6.915920008524899e-38 0,1 0.30649,-0.034373" />
      <path d="M 0.30649,-0.034373 A 0.0016,2.5294592198260478e-06 -6.915920008524899e-38 0,1 0.30329,-0.034373" />
      <path d="M 0.30329,-0.034373 A 0.0016,2.5294592198260478e-06 -6.915920008524899e-38 0,1 0.30489,-0.034375" />
      <path d="M 0.30489,-0.034402 A 0.0016,2.5294592198260478e-06 -6.915920008524899e-38 0,1 0.30649,-0.0344" />
      <path d="M 0.30649,-0.0344 A 0.0016,2.5294592198260478e-06 -6.915920008524899e-38 0,1 0.30329,-0.0344" />
      <path d="M 0.30329,-0.0344 A 0.0016,2.5294592198260478e-06 -6.915920008524899e-38 0,1 0.30489,-0.034402" />
      <path d="M 0.30489,-0.034429 A 0.0016,2.5294592198260478e-06 -6.915920008524899e-38 0,1 0.30649,-0.034426" />
      <path d="M 0.30649,-0.034426 A 0.0016,2.5294592198260478e-06 -6.915920008524899e-38 0,1 0.30329,-0.034426" />
      <path d="M 0.30329,-0.034426 A 0.0016,2.5294592198260478e-06 -6.915920008524899e-38 0,1 0.30489,-0.034429" />
      <line x1="0.28464" y1="0.000293" x2="0.28464" y2="0.001993" />
      <line x1="0.30464" y1="0.000293" x2="0.30464" y2="0.001993" />
      <line x1="0.29014" y1="0.001996" x2="0.29914" y2="0.001996" />
      <path d="M 0.28439,-0.024375 A 0.0016,2.5294592198260478e-06 -6.915920008524899e-38 0,1 0.28599,-0.024373" />
      <path d="M 0.28599,-0.024373 A 0.0016000000000000179,2.5294592198260757e-06 -6.915920008524899e-38 0,1 0.28279,-0.024373" />
      <path d="M 0.28279,-0.024373 A 0.0016,2.5294592198260478e-06 -6.915920008524899e-38 0,1 0.28439,-0.024375" />
      <path d="M 0.28439,-0.024402 A 0.0016,2.5294592198260478e-06 -6.915920008524899e-38 0,1 0.28599,-0.0244" />
      <path d="M 0.28599,-0.0244 A 0.0016000000000000179,2.5294592198260757e-06 -6.915920008524899e-38 0,1 0.28279,-0.0244" />
      <path d="M 0.28279,-0.0244 A 0.0016,2.5294592198260478e-06 -6.915920008524899e-38 0,1 0.28439,-0.024402" />
      <path d="M 0.28439,-0.024429 A 0.0016,2.5294592198260478e-06 -6.915920008524899e-38 0,1 0.28599,-0.024426" />
      <path d="M 0.28599,-0.024426 A 0.0016000000000000179,2.5294592198260757e-06 -6.915920008524899e-38 0,1 0.28279,-0.024426" />
      <path d="M 0.28279,-0.024426 A 0.0016,2.5294592198260478e-06 -6.915920008524899e-38 0,1 0.28439,-0.024429" />
      <path d="M 0.30489,-0.024375 A 0.0016,2.5294592198260478e-06 -6.915920008524899e-38 0,1 0.30649,-0.024373" />
      <path d="M 0.30649,-0.024373 A 0.0016,2.5294592198260478e-06 -6.915920008524899e-38 0,1 0.30329,-0.024373" />
      <path d="M 0.30329,-0.024373 A 0.0016,2.5294592198260478e-06 -6.915920008524899e-38 0,1 0.30489,-0.024375" />
      <path d="M 0.30489,-0.024402 A 0.0016,2.5294592198260478e-06 -6.915920008524899e-38 0,1 0.30649,-0.0244" />
      <path d="M 0.30649,-0.0244 A 0.0016,2.5294592198260478e-06 -6.915920008524899e-38 0,1 0.30329,-0.0244" />
      <path d="M 0.30329,-0.0244 A 0.0016,2.5294592198260478e-06 -6.915920008524899e-38 0,1 0.30489,-0.024402" />
      <path d="M 0.30489,-0.024429 A 0.0016,2.5294592198260478e-06 -6.915920008524899e-38 0,1 0.30649,-0.024426" />
      <path d="M 0.30649,-0.024426 A 0.0016,2.5294592198260478e-06 -6.915920008524899e-38 0,1 0.30329,-0.024426" />
      <path d="M 0.30329,-0.024426 A 0.0016,2.5294592198260478e-06 -6.915920008524899e-38 0,1 0.30489,-0.024429" />
      <path d="M 0.29914,0.001981 A 0.004500000000000004,7.114104055760764e-06 -6.915920008524899e-38 0,1 0.29014,0.001981" />
      <line x1="0.29764" y1="-0.032335" x2="0.29764" y2="-0.032319" />
      <line x1="0.29164" y1="-0.032335" x2="0.29164" y2="-0.032319" />
      <line x1="0.28599" y1="-0.034373" x2="0.28599" y2="-0.024373" />
      <line x1="0.28279" y1="-0.034373" x2="0.28279" y2="-0.024373" />
      <line x1="0.28599" y1="-0.0344" x2="0.28599" y2="-0.0244" />
      <line x1="0.28279" y1="-0.0344" x2="0.28279" y2="-0.0244" />
      <line x1="0.28599" y1="-0.034426" x2="0.28599" y2="-0.024426" />
      <line x1="0.28279" y1="-0.034426" x2="0.28279" y2="-0.024426" />
      <line x1="0.30649" y1="-0.034373" x2="0.30649" y2="-0.024373" />
      <line x1="0.30329" y1="-0.034373" x2="0.30329" y2="-0.024373" />
      <line x1="0.30649" y1="-0.0344" x2="0.30649" y2="-0.0244" />
      <line x1="0.30329" y1="-0.0344" x2="0.30329" y2="-0.0244" />
      <line x1="0.30649" y1="-0.034426" x2="0.30649" y2="-0.024426" />
      <line x1="0.30329" y1="-0.034426" x2="0.30329" y2="-0.024426" />
      <line x1="0.28664" y1="0.000296" x2="0.28664" y2="0.001996" />
      <line x1="0.30264" y1="0.000296" x2="0.30264" y2="0.001996" />
    </g>
    <g fill="none" stroke="rgb(220,60,40)" stroke-width="0.00035" id="coupler">
      <line x1="0.062553" y1="0.008294" x2="0.062553" y2="-0.008294" />
      <line x1="0.052553" y1="-0.008294" x2="0.062553" y2="-0.008294" />
      <line x1="0.052553" y1="0.008294" x2="0.052553" y2="-0.008294" />
      <line x1="0.052553" y1="0.008294" x2="0.062553" y2="0.008294" />
      <line x1="0.133107" y1="0.008294" x2="0.133107" y2="-0.008294" />
      <line x1="0.123107" y1="-0.008294" x2="0.133107" y2="-0.008294" />
      <line x1="0.123107" y1="0.008294" x2="0.123107" y2="-0.008294" />
      <line x1="0.123107" y1="0.008294" x2="0.133107" y2="0.008294" />
      <line x1="0.20366" y1="0.008294" x2="0.20366" y2="-0.008294" />
      <line x1="0.19366" y1="-0.008294" x2="0.20366" y2="-0.008294" />
      <line x1="0.19366" y1="0.008294" x2="0.19366" y2="-0.008294" />
      <line x1="0.19366" y1="0.008294" x2="0.20366" y2="0.008294" />
      <line x1="0.27424" y1="0.015286" x2="0.246886" y2="0.015286" />
      <line x1="0.27424" y1="0.015286" x2="0.274208" y2="0.015314" />
      <line x1="0.274208" y1="0.015314" x2="0.246855" y2="0.015314" />
      <path d="M 0.246857,0.015312 A 0.008294306588619054,1.2482899230346054e-05 2.8777382300872024e-20 0,1 0.238576,0.0153" />
      <path d="M 0.238576,0.0153 A 0.008294306588619054,1.2482899230346054e-05 2.8777382300872024e-20 0,1 0.246885,0.015287" />
      <path d="M 0.246881,0.015291 A 0.0012,1.8059953434768373e-06 2.8777382300872024e-20 0,1 0.245683,0.015289" />
      <path d="M 0.245683,0.015289 A 0.0012,1.8059953434768373e-06 2.8777382300872024e-20 0,1 0.248083,0.015289" />
      <path d="M 0.248083,0.015289 A 0.0012,1.8059953434768373e-06 2.8777382300872024e-20 0,1 0.246881,0.015291" />
      <path d="M 0.241071,0.0153 A 0.0012000000000000066,1.8059953434768472e-06 2.8777382300872024e-20 0,1 0.238671,0.0153" />
      <path d="M 0.238671,0.0153 A 0.0012000000000000066,1.8059953434768472e-06 2.8777382300872024e-20 0,1 0.241071,0.0153" />
      <path d="M 0.241071,0.0153 A 0.0058,8.72897749347138e-06 2.8777382300872024e-20 0,1 0.246881,0.015291" />
      <path d="M 0.246881,0.015291 A 0.0058,8.72897749347138e-06 2.8777382300872024e-20 0,1 0.252671,0.0153" />
      <path d="M 0.252671,0.0153 A 0.0058,8.72897749347138e-06 2.8777382300872024e-20 0,1 0.246861,0.015309" />
      <path d="M 0.246861,0.015309 A 0.0058,8.72897749347138e-06 2.8777382300872024e-20 0,1 0.241071,0.0153" />
      <path d="M 0.252671,0.0153 A 0.0012000000000000066,1.8059953434768472e-06 2.8777382300872024e-20 0,1 0.255071,0.0153" />
      <path d="M 0.255071,0.0153 A 0.0012000000000000066,1.8059953434768472e-06 2.8777382300872024e-20 0,1 0.252671,0.0153" />
      <path d="M 0.246861,0.015309 A 0.0012,1.8059953434768373e-06 2.8777382300872024e-20 0,1 0.248059,0.01531" />
      <path d="M 0.248059,0.01531 A 0.0012000000000000066,1.8059953434768472e-06 2.8777382300872024e-20 0,1 0.245659,0.01531" />
      <path d="M 0.245659,0.01531 A 0.0012,1.8059953434768373e-06 2.8777382300872024e-20 0,1 0.246861,0.015309" />
      <line x1="0.27424" y1="0.005286" x2="0.246886" y2="0.005286" />
      <line x1="0.27424" y1="0.005286" x2="0.27424" y2="0.015286" />
      <line x1="0.246886" y1="0.005286" x2="0.246886" y2="0.015286" />
      <line x1="0.274238" y1="-0.035412" x2="0.274238" y2="0.005286" />
      <line x1="0.27424" y1="-0.035414" x2="0.274238" y2="-0.035412" />
      <line x1="0.27424" y1="-0.045414" x2="0.27424" y2="-0.035414" />
      <line x1="0.246885" y1="0.005287" x2="0.246885" y2="0.015287" />
      <path d="M 0.238576,0.0053 A 0.008294306588619054,1.2482899230346054e-05 2.8777382300872024e-20 0,1 0.246885,0.005287" />
      <line x1="0.246881" y1="0.015288" x2="0.246881" y2="0.015291" />
      <line x1="0.246861" y1="0.015291" x2="0.246861" y2="0.015309" />
      <line x1="0.264238" y1="-0.035412" x2="0.264238" y2="0.005286" />
      <line x1="0.264238" y1="-0.035412" x2="0.274238" y2="-0.035412" />
      <line x1="0.27424" y1="-0.035414" x2="0.246886" y2="-0.035414" />
      <path d="M 0.246857,-0.035388 A 0.008294306588619054,1.2482899230346054e-05 2.8777382300872024e-20 0,1 0.238576,-0.0354" />
      <path d="M 0.238576,-0.0354 A 0.008294306588619054,1.2482899230346054e-05 2.8777382300872024e-20 0,1 0.246885,-0.035413" />
      <line x1="0.26421" y1="-0.035387" x2="0.264238" y2="-0.035412" />
      <line x1="0.26421" y1="-0.035386" x2="0.246855" y2="-0.035386" />
      <path d="M 0.246881,-0.035409 A 0.0012,1.8059953434768373e-06 2.8777382300872024e-20 0,1 0.245683,-0.035411" />
      <path d="M 0.245683,-0.035411 A 0.0012,1.8059953434768373e-06 2.8777382300872024e-20 0,1 0.248083,-0.035411" />
      <path d="M 0.248083,-0.035411 A 0.0012,1.8059953434768373e-06 2.8777382300872024e-20 0,1 0.246881,-0.035409" />
      <path d="M 0.241071,-0.0354 A 0.0012000000000000066,1.8059953434768472e-06 2.8777382300872024e-20 0,1 0.238671,-0.0354" />
      <path d="M 0.238671,-0.0354 A 0.0012000000000000066,1.8059953434768472e-06 2.8777382300872024e-20 0,1 0.241071,-0.0354" />
      <path d="M 0.241071,-0.0354 A 0.0058,8.72897749347138e-06 2.8777382300872024e-20 0,1 0.246881,-0.035409" />
      <path d="M 0.246881,-0.035409 A 0.0058,8.72897749347138e-06 2.8777382300872024e-20 0,1 0.252671,-0.0354" />
      <path d="M 0.252671,-0.0354 A 0.0058,8.72897749347138e-06 2.8777382300872024e-20 0,1 0.246861,-0.035391" />
      <path d="M 0.246861,-0.035391 A 0.0058,8.72897749347138e-06 2.8777382300872024e-20 0,1 0.241071,-0.0354" />
      <path d="M 0.252671,-0.0354 A 0.0012000000000000066,1.8059953434768472e-06 2.8777382300872024e-20 0,1 0.255071,-0.0354" />
      <path d="M 0.255071,-0.0354 A 0.0012000000000000066,1.8059953434768472e-06 2.8777382300872024e-20 0,1 0.252671,-0.0354" />
      <path d="M 0.246861,-0.035391 A 0.0012,1.8059953434768373e-06 2.8777382300872024e-20 0,1 0.248059,-0.035389" />
      <path d="M 0.248059,-0.035389 A 0.0012000000000000066,1.8059953434768472e-06 2.8777382300872024e-20 0,1 0.245659,-0.035389" />
      <path d="M 0.245659,-0.035389 A 0.0012,1.8059953434768373e-06 2.8777382300872024e-20 0,1 0.246861,-0.035391" />
      <line x1="0.27424" y1="-0.045414" x2="0.246886" y2="-0.045414" />
      <line x1="0.246886" y1="-0.045414" x2="0.246886" y2="-0.035414" />
      <path d="M 0.238576,-0.0454 A 0.008294306588619054,1.2482899230346054e-05 2.8777382300872024e-20 0,1 0.246885,-0.045412" />
      <line x1="0.26421" y1="-0.035387" x2="0.26421" y2="0.005286" />
      <line x1="0.246885" y1="-0.045412" x2="0.246885" y2="-0.035413" />
      <line x1="0.246881" y1="-0.035412" x2="0.246881" y2="-0.035409" />
      <line x1="0.246861" y1="-0.035409" x2="0.246861" y2="-0.035391" />
      <line x1="0.238576" y1="0.0053" x2="0.238576" y2="0.0153" />
      <line x1="0.238576" y1="-0.0454" x2="0.238576" y2="-0.0354" />
      <line x1="0.285346" y1="0.015284" x2="0.285346" y2="0.015326" />
      <line x1="0.285346" y1="0.015284" x2="0.303934" y2="0.015284" />
      <line x1="0.285346" y1="0.015326" x2="0.286346" y2="0.015326" />
      <line x1="0.303934" y1="0.015284" x2="0.303934" y2="0.015326" />
      <path d="M 0.302934,0.015326 A 0.008294306588619054,1.2504180664225163e-05 1.0594655715771678e-36 0,1 0.286346,0.015326" />
      <line x1="0.302934" y1="0.015326" x2="0.303934" y2="0.015326" />
      <path d="M 0.28884,0.015326 A 0.0012000000000000066,1.8090742893033703e-06 1.0594655715771678e-36 0,1 0.28644,0.015326" />
      <path d="M 0.28644,0.015326 A 0.0012,1.8090742893033604e-06 1.0594655715771678e-36 0,1 0.28764,0.015324" />
      <path d="M 0.28764,0.015324 A 0.0012,1.8090742893033604e-06 1.0594655715771678e-36 0,1 0.28884,0.015326" />
      <path d="M 0.29464,0.015334 A 0.0012,1.8090742893033604e-06 1.0594655715771678e-36 0,1 0.29584,0.015336" />
      <path d="M 0.29584,0.015336 A 0.0012000000000000066,1.8090742893033703e-06 1.0594655715771678e-36 0,1 0.29344,0.015336" />
      <path d="M 0.29344,0.015336 A 0.0012,1.8090742893033604e-06 1.0594655715771678e-36 0,1 0.29464,0.015334" />
      <path d="M 0.29464,0.015334 A 0.0058,8.743859064966242e-06 1.0594655715771678e-36 0,1 0.28884,0.015326" />
      <path d="M 0.28884,0.015326 A 0.0058,8.743859064966242e-06 1.0594655715771678e-36 0,1 0.29464,0.015317" />
      <path d="M 0.29464,0.015317 A 0.0058,8.743859064966242e-06 1.0594655715771678e-36 0,1 0.30044,0.015326" />
      <path d="M 0.30044,0.015326 A 0.0058,8.743859064966242e-06 1.0594655715771678e-36 0,1 0.29464,0.015334" />
      <path d="M 0.29464,0.015317 A 0.0012,1.8090742893033604e-06 1.0594655715771678e-36 0,1 0.29344,0.015315" />
      <path d="M 0.29344,0.015315 A 0.0012,1.8090742893033604e-06 1.0594655715771678e-36 0,1 0.29464,0.015313" />
      <path d="M 0.29464,0.015313 A 0.0012,1.8090742893033604e-06 1.0594655715771678e-36 0,1 0.29584,0.015315" />
      <path d="M 0.29584,0.015315 A 0.0012,1.8090742893033604e-06 1.0594655715771678e-36 0,1 0.29464,0.015317" />
      <path d="M 0.30044,0.015326 A 0.0012,1.8090742893033604e-06 1.0594655715771678e-36 0,1 0.30164,0.015324" />
      <path d="M 0.30164,0.015324 A 0.0012,1.8090742893033604e-06 1.0594655715771678e-36 0,1 0.30284,0.015326" />
      <path d="M 0.30284,0.015326 A 0.0012000000000000066,1.8090742893033703e-06 1.0594655715771678e-36 0,1 0.30044,0.015326" />
      <line x1="0.285346" y1="0.005284" x2="0.285346" y2="0.015284" />
      <line x1="0.285346" y1="0.005284" x2="0.286346" y2="0.005284" />
      <line x1="0.286346" y1="-0.035416" x2="0.286346" y2="0.005284" />
      <line x1="0.285346" y1="-0.035416" x2="0.286346" y2="-0.035416" />
      <line x1="0.285346" y1="-0.045416" x2="0.285346" y2="-0.035416" />
      <line x1="0.285346" y1="-0.045416" x2="0.303934" y2="-0.045416" />
      <line x1="0.303934" y1="-0.045416" x2="0.303934" y2="-0.035416" />
      <line x1="0.302934" y1="-0.035416" x2="0.303934" y2="-0.035416" />
      <line x1="0.302934" y1="-0.035416" x2="0.302934" y2="0.005284" />
      <line x1="0.302934" y1="0.005284" x2="0.303934" y2="0.005284" />
      <line x1="0.303934" y1="0.005284" x2="0.303934" y2="0.015284" />
      <line x1="0.29464" y1="0.015317" x2="0.29464" y2="0.015334" />
      <line x1="0.29464" y1="0.015313" x2="0.29464" y2="0.015317" />
      <line x1="0.285346" y1="-0.035416" x2="0.285346" y2="-0.035374" />
      <line x1="0.285346" y1="-0.035374" x2="0.286346" y2="-0.035374" />
      <path d="M 0.302934,-0.035374 A 0.008294306588619054,1.2504180664225163e-05 1.0594655715771678e-36 0,1 0.302528,-0.03537" />
      <path d="M 0.286752,-0.03537 A 0.008294306588619054,1.2504180664225163e-05 1.0594655715771678e-36 0,1 0.286346,-0.035374" />
      <line x1="0.302934" y1="-0.035374" x2="0.303934" y2="-0.035374" />
      <line x1="0.303934" y1="-0.035416" x2="0.303934" y2="-0.035374" />
    </g>
    <g fill="url(#hatch_coupler)" stroke="none" stroke-width="0" id="coupler_fill">
      <path d="M 0.062553,-0.008294 L 0.062553,0.008294 L 0.052553,0.008294 L 0.052553,-0.008294 L 0.062553,-0.008294" />
      <path d="M 0.133107,-0.008294 L 0.133107,0.008294 L 0.123107,0.008294 L 0.123107,-0.008294 L 0.133107,-0.008294" />
      <path d="M 0.20366,-0.008294 L 0.20366,0.008294 L 0.19366,0.008294 L 0.19366,-0.008294 L 0.20366,-0.008294" />
    </g>
    <g fill="none" stroke="rgb(220,60,40)" stroke-opacity="0.4" stroke-width="0.00015" id="coupler_hidden" stroke-dasharray="0.0018 0.00045">
      <line x1="0.27424" y1="0.005286" x2="0.274238" y2="0.005288" />
      <line x1="0.274238" y1="0.005286" x2="0.274238" y2="0.005288" />
      <line x1="0.27424" y1="-0.045414" x2="0.274208" y2="-0.045386" />
      <line x1="0.274208" y1="-0.045386" x2="0.274208" y2="-0.035386" />
      <line x1="0.27421" y1="-0.035387" x2="0.274208" y2="-0.035386" />
      <line x1="0.27421" y1="-0.035387" x2="0.27421" y2="0.005312" />
      <line x1="0.27421" y1="0.005312" x2="0.274208" y2="0.005314" />
      <line x1="0.274208" y1="0.005314" x2="0.274208" y2="0.015314" />
      <line x1="0.274208" y1="0.005314" x2="0.246855" y2="0.005314" />
      <line x1="0.246855" y1="0.005314" x2="0.246855" y2="0.015314" />
      <path d="M 0.246857,0.005312 A 0.008294306588619054,1.2482899230346054e-05 2.8777382300872024e-20 0,1 0.238576,0.0053" />
      <line x1="0.246857" y1="0.005312" x2="0.246857" y2="0.015312" />
      <path d="M 0.246881,0.005291 A 0.0012,1.8059953434768373e-06 2.8777382300872024e-20 0,1 0.245683,0.005289" />
      <path d="M 0.245683,0.005289 A 0.0012,1.8059953434768373e-06 2.8777382300872024e-20 0,1 0.248083,0.005289" />
      <line x1="0.246881" y1="0.005291" x2="0.246881" y2="0.015288" />
      <path d="M 0.248083,0.005289 A 0.0012,1.8059953434768373e-06 2.8777382300872024e-20 0,1 0.246881,0.005291" />
      <line x1="0.241071" y1="0.0053" x2="0.241071" y2="0.0153" />
      <path d="M 0.241071,0.0053 A 0.0012000000000000066,1.8059953434768472e-06 2.8777382300872024e-20 0,1 0.238671,0.0053" />
      <path d="M 0.238671,0.0053 A 0.0012000000000000066,1.8059953434768472e-06 2.8777382300872024e-20 0,1 0.241071,0.0053" />
      <path d="M 0.241071,0.0053 A 0.0058,8.72897749347138e-06 2.8777382300872024e-20 0,1 0.246881,0.005291" />
      <path d="M 0.246881,0.005291 A 0.0058,8.72897749347138e-06 2.8777382300872024e-20 0,1 0.252671,0.0053" />
      <line x1="0.252671" y1="0.0053" x2="0.252671" y2="0.0153" />
      <line x1="0.246861" y1="0.005309" x2="0.246861" y2="0.015291" />
      <path d="M 0.252671,0.0053 A 0.0058,8.72897749347138e-06 2.8777382300872024e-20 0,1 0.246861,0.005309" />
      <path d="M 0.246861,0.005309 A 0.0058,8.72897749347138e-06 2.8777382300872024e-20 0,1 0.241071,0.0053" />
      <path d="M 0.252671,0.0053 A 0.0012000000000000066,1.8059953434768472e-06 2.8777382300872024e-20 0,1 0.255071,0.0053" />
      <path d="M 0.255071,0.0053 A 0.0012000000000000066,1.8059953434768472e-06 2.8777382300872024e-20 0,1 0.252671,0.0053" />
      <path d="M 0.246861,0.005309 A 0.0012,1.8059953434768373e-06 2.8777382300872024e-20 0,1 0.248059,0.00531" />
      <path d="M 0.248059,0.00531 A 0.0012000000000000066,1.8059953434768472e-06 2.8777382300872024e-20 0,1 0.245659,0.00531" />
      <path d="M 0.245659,0.00531 A 0.0012,1.8059953434768373e-06 2.8777382300872024e-20 0,1 0.246861,0.005309" />
      <line x1="0.274238" y1="0.005288" x2="0.264238" y2="0.005287" />
      <line x1="0.264238" y1="0.005287" x2="0.26421" y2="0.005312" />
      <line x1="0.27421" y1="0.005312" x2="0.26421" y2="0.005312" />
      <line x1="0.264238" y1="0.005286" x2="0.264238" y2="0.005287" />
      <line x1="0.26421" y1="-0.035387" x2="0.27421" y2="-0.035387" />
      <line x1="0.274208" y1="-0.035386" x2="0.26421" y2="-0.035386" />
      <line x1="0.274208" y1="-0.045386" x2="0.246855" y2="-0.045386" />
      <path d="M 0.246857,-0.045388 A 0.008294306588619054,1.2482899230346054e-05 2.8777382300872024e-20 0,1 0.238576,-0.0454" />
      <path d="M 0.246881,-0.045409 A 0.0012,1.8059953434768373e-06 2.8777382300872024e-20 0,1 0.245683,-0.045411" />
      <path d="M 0.245683,-0.045411 A 0.0012,1.8059953434768373e-06 2.8777382300872024e-20 0,1 0.248083,-0.045411" />
      <path d="M 0.248083,-0.045411 A 0.0012,1.8059953434768373e-06 2.8777382300872024e-20 0,1 0.246881,-0.045409" />
      <path d="M 0.241071,-0.0454 A 0.0012000000000000066,1.8059953434768472e-06 2.8777382300872024e-20 0,1 0.238671,-0.0454" />
      <path d="M 0.238671,-0.0454 A 0.0012000000000000066,1.8059953434768472e-06 2.8777382300872024e-20 0,1 0.241071,-0.0454" />
      <path d="M 0.241071,-0.0454 A 0.0058,8.72897749347138e-06 2.8777382300872024e-20 0,1 0.246881,-0.045409" />
      <path d="M 0.246881,-0.045409 A 0.0058,8.72897749347138e-06 2.8777382300872024e-20 0,1 0.252671,-0.0454" />
      <path d="M 0.252671,-0.0454 A 0.0058,8.72897749347138e-06 2.8777382300872024e-20 0,1 0.246861,-0.045391" />
      <path d="M 0.246861,-0.045391 A 0.0058,8.72897749347138e-06 2.8777382300872024e-20 0,1 0.241071,-0.0454" />
      <path d="M 0.252671,-0.0454 A 0.0012000000000000066,1.8059953434768472e-06 2.8777382300872024e-20 0,1 0.255071,-0.0454" />
      <path d="M 0.255071,-0.0454 A 0.0012000000000000066,1.8059953434768472e-06 2.8777382300872024e-20 0,1 0.252671,-0.0454" />
      <path d="M 0.246861,-0.045391 A 0.0012,1.8059953434768373e-06 2.8777382300872024e-20 0,1 0.248059,-0.045389" />
      <path d="M 0.248059,-0.045389 A 0.0012000000000000066,1.8059953434768472e-06 2.8777382300872024e-20 0,1 0.245659,-0.045389" />
      <path d="M 0.245659,-0.045389 A 0.0012,1.8059953434768373e-06 2.8777382300872024e-20 0,1 0.246861,-0.045391" />
      <line x1="0.246855" y1="-0.045386" x2="0.246855" y2="-0.035386" />
      <line x1="0.26421" y1="0.005286" x2="0.26421" y2="0.005312" />
      <line x1="0.246857" y1="-0.045388" x2="0.246857" y2="-0.035388" />
      <line x1="0.246881" y1="-0.045409" x2="0.246881" y2="-0.035412" />
      <line x1="0.241071" y1="-0.0454" x2="0.241071" y2="-0.0354" />
      <line x1="0.252671" y1="-0.0454" x2="0.252671" y2="-0.0354" />
      <line x1="0.246861" y1="-0.045391" x2="0.246861" y2="-0.035409" />
      <line x1="0.248083" y1="0.005289" x2="0.248083" y2="0.015289" />
      <line x1="0.245683" y1="0.005289" x2="0.245683" y2="0.015289" />
      <line x1="0.241071" y1="0.0053" x2="0.241071" y2="0.0153" />
      <line x1="0.238671" y1="0.0053" x2="0.238671" y2="0.0153" />
      <line x1="0.252671" y1="0.0053" x2="0.252671" y2="0.0153" />
      <line x1="0.241071" y1="0.0053" x2="0.241071" y2="0.0153" />
      <line x1="0.255071" y1="0.0053" x2="0.255071" y2="0.0153" />
      <line x1="0.252671" y1="0.0053" x2="0.252671" y2="0.0153" />
      <line x1="0.248059" y1="0.00531" x2="0.248059" y2="0.01531" />
      <line x1="0.245659" y1="0.00531" x2="0.245659" y2="0.01531" />
      <line x1="0.248083" y1="-0.045411" x2="0.248083" y2="-0.035411" />
      <line x1="0.245683" y1="-0.045411" x2="0.245683" y2="-0.035411" />
      <line x1="0.241071" y1="-0.0454" x2="0.241071" y2="-0.0354" />
      <line x1="0.238671" y1="-0.0454" x2="0.238671" y2="-0.0354" />
      <line x1="0.252671" y1="-0.0454" x2="0.252671" y2="-0.0354" />
      <line x1="0.241071" y1="-0.0454" x2="0.241071" y2="-0.0354" />
      <line x1="0.255071" y1="-0.0454" x2="0.255071" y2="-0.0354" />
      <line x1="0.252671" y1="-0.0454" x2="0.252671" y2="-0.0354" />
      <line x1="0.248059" y1="-0.045389" x2="0.248059" y2="-0.035389" />
      <line x1="0.245659" y1="-0.045389" x2="0.245659" y2="-0.035389" />
      <line x1="0.285346" y1="0.005284" x2="0.285346" y2="0.005326" />
      <line x1="0.285346" y1="0.005326" x2="0.285346" y2="0.015326" />
      <line x1="0.286346" y1="0.005326" x2="0.286346" y2="0.015326" />
      <line x1="0.285346" y1="0.005326" x2="0.286346" y2="0.005326" />
      <line x1="0.303934" y1="0.005284" x2="0.303934" y2="0.005326" />
      <line x1="0.303934" y1="0.005326" x2="0.303934" y2="0.015326" />
      <path d="M 0.302934,0.005326 A 0.008294306588619054,1.2504180664225163e-05 1.0594655715771678e-36 0,1 0.286346,0.005326" />
      <line x1="0.302934" y1="0.005326" x2="0.302934" y2="0.015326" />
      <line x1="0.302934" y1="0.005326" x2="0.303934" y2="0.005326" />
      <path d="M 0.28884,0.005326 A 0.0012000000000000066,1.8090742893033703e-06 1.0594655715771678e-36 0,1 0.28644,0.005326" />
      <path d="M 0.28644,0.005326 A 0.0012,1.8090742893033604e-06 1.0594655715771678e-36 0,1 0.28764,0.005324" />
      <line x1="0.28884" y1="0.005326" x2="0.28884" y2="0.015326" />
      <path d="M 0.28764,0.005324 A 0.0012,1.8090742893033604e-06 1.0594655715771678e-36 0,1 0.28884,0.005326" />
      <line x1="0.29464" y1="0.005334" x2="0.29464" y2="0.015317" />
      <path d="M 0.29464,0.005334 A 0.0012,1.8090742893033604e-06 1.0594655715771678e-36 0,1 0.29584,0.005336" />
      <path d="M 0.29584,0.005336 A 0.0012000000000000066,1.8090742893033703e-06 1.0594655715771678e-36 0,1 0.29344,0.005336" />
      <path d="M 0.29344,0.005336 A 0.0012,1.8090742893033604e-06 1.0594655715771678e-36 0,1 0.29464,0.005334" />
      <path d="M 0.29464,0.005334 A 0.0058,8.743859064966242e-06 1.0594655715771678e-36 0,1 0.28884,0.005326" />
      <path d="M 0.28884,0.005326 A 0.0058,8.743859064966242e-06 1.0594655715771678e-36 0,1 0.29464,0.005317" />
      <line x1="0.29464" y1="0.005317" x2="0.29464" y2="0.015313" />
      <line x1="0.30044" y1="0.005326" x2="0.30044" y2="0.015326" />
      <path d="M 0.29464,0.005317 A 0.0058,8.743859064966242e-06 1.0594655715771678e-36 0,1 0.30044,0.005326" />
      <path d="M 0.30044,0.005326 A 0.0058,8.743859064966242e-06 1.0594655715771678e-36 0,1 0.29464,0.005334" />
      <path d="M 0.29464,0.005317 A 0.0012,1.8090742893033604e-06 1.0594655715771678e-36 0,1 0.29344,0.005315" />
      <path d="M 0.29344,0.005315 A 0.0012,1.8090742893033604e-06 1.0594655715771678e-36 0,1 0.29464,0.005313" />
      <path d="M 0.29464,0.005313 A 0.0012,1.8090742893033604e-06 1.0594655715771678e-36 0,1 0.29584,0.005315" />
      <path d="M 0.29584,0.005315 A 0.0012,1.8090742893033604e-06 1.0594655715771678e-36 0,1 0.29464,0.005317" />
      <path d="M 0.30044,0.005326 A 0.0012,1.8090742893033604e-06 1.0594655715771678e-36 0,1 0.30164,0.005324" />
      <path d="M 0.30164,0.005324 A 0.0012,1.8090742893033604e-06 1.0594655715771678e-36 0,1 0.30284,0.005326" />
      <path d="M 0.30284,0.005326 A 0.0012000000000000066,1.8090742893033703e-06 1.0594655715771678e-36 0,1 0.30044,0.005326" />
      <line x1="0.286346" y1="0.005284" x2="0.286346" y2="0.005299" />
      <line x1="0.286346" y1="0.005299" x2="0.302934" y2="0.005299" />
      <line x1="0.302934" y1="0.005284" x2="0.302934" y2="0.005299" />
      <line x1="0.286346" y1="-0.035401" x2="0.286346" y2="0.005299" />
      <line x1="0.286346" y1="-0.035401" x2="0.286346" y2="-0.035416" />
      <path d="M 0.302528,-0.03537 A 0.008294306588619054,1.2504180664225163e-05 1.0594655715771678e-36 0,1 0.286752,-0.03537" />
      <line x1="0.302934" y1="-0.035401" x2="0.286346" y2="-0.035401" />
      <line x1="0.302934" y1="-0.035401" x2="0.302934" y2="-0.035416" />
      <path d="M 0.28884,-0.035374 A 0.0012000000000000066,1.8090742893033703e-06 1.0594655715771678e-36 0,1 0.28644,-0.035374" />
      <path d="M 0.28644,-0.035374 A 0.0012,1.8090742893033604e-06 1.0594655715771678e-36 0,1 0.28764,-0.035376" />
      <path d="M 0.28764,-0.035376 A 0.0012,1.8090742893033604e-06 1.0594655715771678e-36 0,1 0.28884,-0.035374" />
      <path d="M 0.29464,-0.035366 A 0.0012,1.8090742893033604e-06 1.0594655715771678e-36 0,1 0.29584,-0.035364" />
      <path d="M 0.29584,-0.035364 A 0.0012000000000000066,1.8090742893033703e-06 1.0594655715771678e-36 0,1 0.29344,-0.035364" />
      <path d="M 0.29344,-0.035364 A 0.0012,1.8090742893033604e-06 1.0594655715771678e-36 0,1 0.29464,-0.035366" />
      <path d="M 0.29464,-0.035366 A 0.0058,8.743859064966242e-06 1.0594655715771678e-36 0,1 0.28884,-0.035374" />
      <path d="M 0.28884,-0.035374 A 0.0058,8.743859064966242e-06 1.0594655715771678e-36 0,1 0.29464,-0.035383" />
      <path d="M 0.29464,-0.035383 A 0.0058,8.743859064966242e-06 1.0594655715771678e-36 0,1 0.30044,-0.035374" />
      <path d="M 0.30044,-0.035374 A 0.0058,8.743859064966242e-06 1.0594655715771678e-36 0,1 0.29464,-0.035366" />
      <path d="M 0.29464,-0.035383 A 0.0012,1.8090742893033604e-06 1.0594655715771678e-36 0,1 0.29344,-0.035385" />
      <path d="M 0.29344,-0.035385 A 0.0012,1.8090742893033604e-06 1.0594655715771678e-36 0,1 0.29464,-0.035387" />
      <path d="M 0.29464,-0.035387 A 0.0012,1.8090742893033604e-06 1.0594655715771678e-36 0,1 0.29584,-0.035385" />
      <path d="M 0.29584,-0.035385 A 0.0012,1.8090742893033604e-06 1.0594655715771678e-36 0,1 0.29464,-0.035383" />
      <path d="M 0.30044,-0.035374 A 0.0012,1.8090742893033604e-06 1.0594655715771678e-36 0,1 0.30164,-0.035376" />
      <path d="M 0.30164,-0.035376 A 0.0012,1.8090742893033604e-06 1.0594655715771678e-36 0,1 0.30284,-0.035374" />
      <path d="M 0.30284,-0.035374 A 0.0012000000000000066,1.8090742893033703e-06 1.0594655715771678e-36 0,1 0.30044,-0.035374" />
      <line x1="0.285346" y1="-0.045416" x2="0.285346" y2="-0.045374" />
      <line x1="0.285346" y1="-0.045374" x2="0.285346" y2="-0.035374" />
      <line x1="0.303934" y1="-0.045416" x2="0.303934" y2="-0.045374" />
      <line x1="0.302934" y1="-0.045374" x2="0.303934" y2="-0.045374" />
      <path d="M 0.302934,-0.045374 A 0.008294306588619054,1.2504180664225163e-05 1.0594655715771678e-36 0,1 0.286346,-0.045374" />
      <line x1="0.285346" y1="-0.045374" x2="0.286346" y2="-0.045374" />
      <path d="M 0.28884,-0.045374 A 0.0012000000000000066,1.8090742893033703e-06 1.0594655715771678e-36 0,1 0.28644,-0.045374" />
      <path d="M 0.28644,-0.045374 A 0.0012,1.8090742893033604e-06 1.0594655715771678e-36 0,1 0.28764,-0.045376" />
      <path d="M 0.28764,-0.045376 A 0.0012,1.8090742893033604e-06 1.0594655715771678e-36 0,1 0.28884,-0.045374" />
      <path d="M 0.29464,-0.045366 A 0.0012,1.8090742893033604e-06 1.0594655715771678e-36 0,1 0.29584,-0.045364" />
      <path d="M 0.29584,-0.045364 A 0.0012000000000000066,1.8090742893033703e-06 1.0594655715771678e-36 0,1 0.29344,-0.045364" />
      <path d="M 0.29344,-0.045364 A 0.0012,1.8090742893033604e-06 1.0594655715771678e-36 0,1 0.29464,-0.045366" />
      <path d="M 0.29464,-0.045366 A 0.0058,8.743859064966242e-06 1.0594655715771678e-36 0,1 0.28884,-0.045374" />
      <path d="M 0.28884,-0.045374 A 0.0058,8.743859064966242e-06 1.0594655715771678e-36 0,1 0.29464,-0.045383" />
      <path d="M 0.29464,-0.045383 A 0.0058,8.743859064966242e-06 1.0594655715771678e-36 0,1 0.30044,-0.045374" />
      <path d="M 0.30044,-0.045374 A 0.0058,8.743859064966242e-06 1.0594655715771678e-36 0,1 0.29464,-0.045366" />
      <path d="M 0.29464,-0.045383 A 0.0012,1.8090742893033604e-06 1.0594655715771678e-36 0,1 0.29344,-0.045385" />
      <path d="M 0.29344,-0.045385 A 0.0012,1.8090742893033604e-06 1.0594655715771678e-36 0,1 0.29464,-0.045387" />
      <path d="M 0.29464,-0.045387 A 0.0012,1.8090742893033604e-06 1.0594655715771678e-36 0,1 0.29584,-0.045385" />
      <path d="M 0.29584,-0.045385 A 0.0012,1.8090742893033604e-06 1.0594655715771678e-36 0,1 0.29464,-0.045383" />
      <path d="M 0.30044,-0.045374 A 0.0012,1.8090742893033604e-06 1.0594655715771678e-36 0,1 0.30164,-0.045376" />
      <path d="M 0.30164,-0.045376 A 0.0012,1.8090742893033604e-06 1.0594655715771678e-36 0,1 0.30284,-0.045374" />
      <path d="M 0.30284,-0.045374 A 0.0012000000000000066,1.8090742893033703e-06 1.0594655715771678e-36 0,1 0.30044,-0.045374" />
      <line x1="0.303934" y1="-0.045374" x2="0.303934" y2="-0.035374" />
      <line x1="0.302934" y1="-0.035401" x2="0.302934" y2="0.005299" />
      <line x1="0.286346" y1="-0.045374" x2="0.286346" y2="-0.035374" />
      <line x1="0.302934" y1="-0.045374" x2="0.302934" y2="-0.035374" />
      <line x1="0.28884" y1="-0.045374" x2="0.28884" y2="-0.035374" />
      <line x1="0.29464" y1="-0.045366" x2="0.29464" y2="-0.035366" />
      <line x1="0.29464" y1="-0.045383" x2="0.29464" y2="-0.035383" />
      <line x1="0.30044" y1="-0.045374" x2="0.30044" y2="-0.035374" />
      <line x1="0.28644" y1="0.005326" x2="0.28644" y2="0.015326" />
      <line x1="0.29584" y1="0.005336" x2="0.29584" y2="0.015336" />
      <line x1="0.29344" y1="0.005336" x2="0.29344" y2="0.015336" />
      <line x1="0.29344" y1="0.005315" x2="0.29344" y2="0.015315" />
      <line x1="0.29584" y1="0.005315" x2="0.29584" y2="0.015315" />
      <line x1="0.30284" y1="0.005326" x2="0.30284" y2="0.015326" />
      <line x1="0.28644" y1="-0.045374" x2="0.28644" y2="-0.035374" />
      <line x1="0.29584" y1="-0.045364" x2="0.29584" y2="-0.035364" />
      <line x1="0.29344" y1="-0.045364" x2="0.29344" y2="-0.035364" />
      <line x1="0.29344" y1="-0.045385" x2="0.29344" y2="-0.035385" />
      <line x1="0.29584" y1="-0.045385" x2="0.29584" y2="-0.035385" />
      <line x1="0.30284" y1="-0.045374" x2="0.30284" y2="-0.035374" />
    </g>
  </g>
  <text x="0.031277" y="-0.021013" text-anchor="middle" font-family="'Input Sans Narrow', 'DejaVu Sans', Arial, sans-serif" font-size="0.002500" font-weight="bold" fill="#333">A-A</text>
  <text x="0.031277" y="-0.017513" text-anchor="middle" font-family="'Input Sans Narrow', 'DejaVu Sans', Arial, sans-serif" font-size="0.001800" fill="#888">front_horn</text>
  <line x1="0.000000" y1="0.013200" x2="0.000000" y2="0.016200" stroke="#5C7080" stroke-width="0.000140" stroke-opacity="0.5"/>
  <line x1="0.062553" y1="0.013200" x2="0.062553" y2="0.016200" stroke="#5C7080" stroke-width="0.000140" stroke-opacity="0.5"/>
  <line x1="0.000000" y1="0.014600" x2="0.000000" y2="0.016200" stroke="#5C7080" stroke-width="0.000200"/>
  <line x1="0.062553" y1="0.014600" x2="0.062553" y2="0.016200" stroke="#5C7080" stroke-width="0.000200"/>
  <line x1="0.000000" y1="0.015400" x2="0.062553" y2="0.015400" stroke="#5C7080" stroke-width="0.000200"/>
  <polygon points="0.000000,0.015400 0.001500,0.014800 0.001500,0.016000" fill="#5C7080"/>
  <polygon points="0.062553,0.015400 0.061053,0.014800 0.061053,0.016000" fill="#5C7080"/>
  <text x="0.031277" y="0.014200" text-anchor="middle" font-family="'Input Sans Narrow', 'DejaVu Sans', Arial, sans-serif" font-size="0.001600" fill="#5C7080">62.6</text>
  <line x1="0.063353" y1="-0.012400" x2="0.066353" y2="-0.012400" stroke="#5C7080" stroke-width="0.000140" stroke-opacity="0.5"/>
  <line x1="0.063353" y1="0.012400" x2="0.066353" y2="0.012400" stroke="#5C7080" stroke-width="0.000140" stroke-opacity="0.5"/>
  <line x1="0.064753" y1="-0.012400" x2="0.066353" y2="-0.012400" stroke="#5C7080" stroke-width="0.000200"/>
  <line x1="0.064753" y1="0.012400" x2="0.066353" y2="0.012400" stroke="#5C7080" stroke-width="0.000200"/>
  <line x1="0.065553" y1="-0.012400" x2="0.065553" y2="0.012400" stroke="#5C7080" stroke-width="0.000200"/>
  <polygon points="0.065553,-0.012400 0.064953,-0.010900 0.066153,-0.010900" fill="#5C7080"/>
  <polygon points="0.065553,0.012400 0.064953,0.010900 0.066153,0.010900" fill="#5C7080"/>
  <text x="0.067053" y="0.000000" text-anchor="middle" dominant-baseline="central" font-family="'Input Sans Narrow', 'DejaVu Sans', Arial, sans-serif" font-size="0.001600" fill="#5C7080" transform="rotate(-90 0.067053 0.000000)">24.8</text>
  <text x="0.101830" y="-0.021013" text-anchor="middle" font-family="'Input Sans Narrow', 'DejaVu Sans', Arial, sans-serif" font-size="0.002500" font-weight="bold" fill="#333">B-B</text>
  <text x="0.101830" y="-0.017513" text-anchor="middle" font-family="'Input Sans Narrow', 'DejaVu Sans', Arial, sans-serif" font-size="0.001800" fill="#888">rear_horn</text>
  <text x="0.172384" y="-0.021013" text-anchor="middle" font-family="'Input Sans Narrow', 'DejaVu Sans', Arial, sans-serif" font-size="0.002500" font-weight="bold" fill="#333">C-C</text>
  <text x="0.172384" y="-0.017513" text-anchor="middle" font-family="'Input Sans Narrow', 'DejaVu Sans', Arial, sans-serif" font-size="0.001800" fill="#888">mid_body</text>
  <text x="0.242950" y="-0.021013" text-anchor="middle" font-family="'Input Sans Narrow', 'DejaVu Sans', Arial, sans-serif" font-size="0.002500" font-weight="bold" fill="#333">side_XZ</text>
  <line x1="0.211660" y1="0.046214" x2="0.211660" y2="0.049214" stroke="#5C7080" stroke-width="0.000140" stroke-opacity="0.5"/>
  <line x1="0.274240" y1="0.046214" x2="0.274240" y2="0.049214" stroke="#5C7080" stroke-width="0.000140" stroke-opacity="0.5"/>
  <line x1="0.211660" y1="0.047614" x2="0.211660" y2="0.049214" stroke="#5C7080" stroke-width="0.000200"/>
  <line x1="0.274240" y1="0.047614" x2="0.274240" y2="0.049214" stroke="#5C7080" stroke-width="0.000200"/>
  <line x1="0.211660" y1="0.048414" x2="0.274240" y2="0.048414" stroke="#5C7080" stroke-width="0.000200"/>
  <polygon points="0.211660,0.048414 0.213160,0.047814 0.213160,0.049014" fill="#5C7080"/>
  <polygon points="0.274240,0.048414 0.272740,0.047814 0.272740,0.049014" fill="#5C7080"/>
  <text x="0.242950" y="0.047214" text-anchor="middle" font-family="'Input Sans Narrow', 'DejaVu Sans', Arial, sans-serif" font-size="0.001600" fill="#5C7080">62.6</text>
  <line x1="0.275040" y1="-0.015314" x2="0.278040" y2="-0.015314" stroke="#5C7080" stroke-width="0.000140" stroke-opacity="0.5"/>
  <line x1="0.275040" y1="0.045414" x2="0.278040" y2="0.045414" stroke="#5C7080" stroke-width="0.000140" stroke-opacity="0.5"/>
  <line x1="0.276440" y1="-0.015314" x2="0.278040" y2="-0.015314" stroke="#5C7080" stroke-width="0.000200"/>
  <line x1="0.276440" y1="0.045414" x2="0.278040" y2="0.045414" stroke="#5C7080" stroke-width="0.000200"/>
  <line x1="0.277240" y1="-0.015314" x2="0.277240" y2="0.045414" stroke="#5C7080" stroke-width="0.000200"/>
  <polygon points="0.277240,-0.015314 0.276640,-0.013814 0.277840,-0.013814" fill="#5C7080"/>
  <polygon points="0.277240,0.045414 0.276640,0.043914 0.277840,0.043914" fill="#5C7080"/>
  <text x="0.278740" y="0.015050" text-anchor="middle" dominant-baseline="central" font-family="'Input Sans Narrow', 'DejaVu Sans', Arial, sans-serif" font-size="0.001600" fill="#5C7080" transform="rotate(-90 0.278740 0.015050)">60.7</text>
  <line x1="0.208660" y1="-0.000000" x2="0.277240" y2="-0.000000" stroke="#555" stroke-width="0.000250" stroke-dasharray="0.002500,0.000800,0.000500,0.000800"/>
  <text x="0.207160" y="0.000600" text-anchor="end" font-family="'Input Sans Narrow', 'DejaVu Sans', Arial, sans-serif" font-size="0.002000" font-weight="bold" fill="#555">A</text>
  <text x="0.278740" y="0.000600" text-anchor="start" font-family="'Input Sans Narrow', 'DejaVu Sans', Arial, sans-serif" font-size="0.002000" font-weight="bold" fill="#555">A</text>
  <line x1="0.208660" y1="0.032000" x2="0.277240" y2="0.032000" stroke="#555" stroke-width="0.000250" stroke-dasharray="0.002500,0.000800,0.000500,0.000800"/>
  <text x="0.207160" y="0.032600" text-anchor="end" font-family="'Input Sans Narrow', 'DejaVu Sans', Arial, sans-serif" font-size="0.002000" font-weight="bold" fill="#555">B</text>
  <text x="0.278740" y="0.032600" text-anchor="start" font-family="'Input Sans Narrow', 'DejaVu Sans', Arial, sans-serif" font-size="0.002000" font-weight="bold" fill="#555">B</text>
  <line x1="0.208660" y1="0.016000" x2="0.277240" y2="0.016000" stroke="#555" stroke-width="0.000250" stroke-dasharray="0.002500,0.000800,0.000500,0.000800"/>
  <text x="0.207160" y="0.016600" text-anchor="end" font-family="'Input Sans Narrow', 'DejaVu Sans', Arial, sans-serif" font-size="0.002000" font-weight="bold" fill="#555">C</text>
  <text x="0.278740" y="0.016600" text-anchor="start" font-family="'Input Sans Narrow', 'DejaVu Sans', Arial, sans-serif" font-size="0.002000" font-weight="bold" fill="#555">C</text>
  <text x="0.294640" y="-0.021013" text-anchor="middle" font-family="'Input Sans Narrow', 'DejaVu Sans', Arial, sans-serif" font-size="0.002500" font-weight="bold" fill="#333">side_YZ</text>
  <line x1="0.282240" y1="0.046216" x2="0.282240" y2="0.049216" stroke="#5C7080" stroke-width="0.000140" stroke-opacity="0.5"/>
  <line x1="0.307040" y1="0.046216" x2="0.307040" y2="0.049216" stroke="#5C7080" stroke-width="0.000140" stroke-opacity="0.5"/>
  <line x1="0.282240" y1="0.047616" x2="0.282240" y2="0.049216" stroke="#5C7080" stroke-width="0.000200"/>
  <line x1="0.307040" y1="0.047616" x2="0.307040" y2="0.049216" stroke="#5C7080" stroke-width="0.000200"/>
  <line x1="0.282240" y1="0.048416" x2="0.307040" y2="0.048416" stroke="#5C7080" stroke-width="0.000200"/>
  <polygon points="0.282240,0.048416 0.283740,0.047816 0.283740,0.049016" fill="#5C7080"/>
  <polygon points="0.307040,0.048416 0.305540,0.047816 0.305540,0.049016" fill="#5C7080"/>
  <text x="0.294640" y="0.047216" text-anchor="middle" font-family="'Input Sans Narrow', 'DejaVu Sans', Arial, sans-serif" font-size="0.001600" fill="#5C7080">24.8</text>
  <line x1="0.307840" y1="-0.015338" x2="0.310840" y2="-0.015338" stroke="#5C7080" stroke-width="0.000140" stroke-opacity="0.5"/>
  <line x1="0.307840" y1="0.045416" x2="0.310840" y2="0.045416" stroke="#5C7080" stroke-width="0.000140" stroke-opacity="0.5"/>
  <line x1="0.309240" y1="-0.015338" x2="0.310840" y2="-0.015338" stroke="#5C7080" stroke-width="0.000200"/>
  <line x1="0.309240" y1="0.045416" x2="0.310840" y2="0.045416" stroke="#5C7080" stroke-width="0.000200"/>
  <line x1="0.310040" y1="-0.015338" x2="0.310040" y2="0.045416" stroke="#5C7080" stroke-width="0.000200"/>
  <polygon points="0.310040,-0.015338 0.309440,-0.013838 0.310640,-0.013838" fill="#5C7080"/>
  <polygon points="0.310040,0.045416 0.309440,0.043916 0.310640,0.043916" fill="#5C7080"/>
  <text x="0.311540" y="0.015039" text-anchor="middle" dominant-baseline="central" font-family="'Input Sans Narrow', 'DejaVu Sans', Arial, sans-serif" font-size="0.001600" fill="#5C7080" transform="rotate(-90 0.311540 0.015039)">60.8</text>
  <line x1="0.279240" y1="-0.000000" x2="0.310040" y2="-0.000000" stroke="#555" stroke-width="0.000250" stroke-dasharray="0.002500,0.000800,0.000500,0.000800"/>
  <text x="0.277740" y="0.000600" text-anchor="end" font-family="'Input Sans Narrow', 'DejaVu Sans', Arial, sans-serif" font-size="0.002000" font-weight="bold" fill="#555">A</text>
  <text x="0.311540" y="0.000600" text-anchor="start" font-family="'Input Sans Narrow', 'DejaVu Sans', Arial, sans-serif" font-size="0.002000" font-weight="bold" fill="#555">A</text>
  <line x1="0.279240" y1="0.032000" x2="0.310040" y2="0.032000" stroke="#555" stroke-width="0.000250" stroke-dasharray="0.002500,0.000800,0.000500,0.000800"/>
  <text x="0.277740" y="0.032600" text-anchor="end" font-family="'Input Sans Narrow', 'DejaVu Sans', Arial, sans-serif" font-size="0.002000" font-weight="bold" fill="#555">B</text>
  <text x="0.311540" y="0.032600" text-anchor="start" font-family="'Input Sans Narrow', 'DejaVu Sans', Arial, sans-serif" font-size="0.002000" font-weight="bold" fill="#555">B</text>
  <line x1="0.279240" y1="0.016000" x2="0.310040" y2="0.016000" stroke="#555" stroke-width="0.000250" stroke-dasharray="0.002500,0.000800,0.000500,0.000800"/>
  <text x="0.277740" y="0.016600" text-anchor="end" font-family="'Input Sans Narrow', 'DejaVu Sans', Arial, sans-serif" font-size="0.002000" font-weight="bold" fill="#555">C</text>
  <text x="0.311540" y="0.016600" text-anchor="start" font-family="'Input Sans Narrow', 'DejaVu Sans', Arial, sans-serif" font-size="0.002000" font-weight="bold" fill="#555">C</text>
  <text x="-0.001175" y="0.053591" font-family="'Input Sans Narrow', 'DejaVu Sans', Arial, sans-serif" font-size="0.003500" font-weight="bold" fill="#222">coupler</text>
  <line x1="-0.001175" y1="0.057591" x2="0.008825" y2="0.057591" stroke="#333" stroke-width="0.000350"/>
  <line x1="-0.001175" y1="0.056591" x2="-0.001175" y2="0.058591" stroke="#333" stroke-width="0.000250"/>
  <line x1="0.008825" y1="0.056591" x2="0.008825" y2="0.058591" stroke="#333" stroke-width="0.000250"/>
  <text x="0.010325" y="0.058291" font-family="'Input Sans Narrow', 'DejaVu Sans', Arial, sans-serif" font-size="0.001800" fill="#888">10 mm</text>
  <rect x="0.028825" y="0.051091" width="0.004000" height="0.002500" fill="url(#hatch_servo)" stroke="rgb(60,60,60)" stroke-width="0.000300"/>
  <text x="0.034325" y="0.053091" font-family="'Input Sans Narrow', 'DejaVu Sans', Arial, sans-serif" font-size="0.001800" fill="rgb(60,60,60)">servo</text>
  <rect x="0.028825" y="0.054591" width="0.004000" height="0.002500" fill="url(#hatch_coupler)" stroke="rgb(220,60,40)" stroke-width="0.000300"/>
  <text x="0.034325" y="0.056591" font-family="'Input Sans Narrow', 'DejaVu Sans', Arial, sans-serif" font-size="0.001800" fill="rgb(220,60,40)">coupler</text>
</svg>