<?xml version='1.0' encoding='utf-8'?>
<svg width="291.75mm" height="73.11mm" viewBox="-0.003175 -0.031478 0.291750 0.073106" version="1.1" xmlns="http://www.w3.org/2000/svg">
  <defs>
    <pattern id="hatch_servo" width="0.0012" height="0.0012" patternUnits="userSpaceOnUse" patternTransform="rotate(45)">
      <line x1="0" y1="0" x2="0" y2="0.0012" stroke="rgb(60,60,60)" stroke-width="0.0001" stroke-opacity="0.6"/>
    </pattern>
    <pattern id="hatch_bracket" width="0.0012" height="0.0012" patternUnits="userSpaceOnUse" patternTransform="rotate(75)">
      <line x1="0" y1="0" x2="0" y2="0.0012" stroke="rgb(50,120,190)" stroke-width="0.0001" stroke-opacity="0.6"/>
    </pattern>
  </defs>
  <g transform="scale(1,-1)" stroke-linecap="round">
    <g fill="none" stroke="rgb(60,60,60)" stroke-width="0.00035" id="servo">
      <line x1="0.0028" y1="-0.0084" x2="0.0028" y2="0.0084" />
      <path d="M 0.0028,-0.0084 A 0.004,0.004 -90.0 0,1 0.0068,-0.0124" />
      <line x1="0.0068" y1="-0.0124" x2="0.0442" y2="-0.0124" />
      <path d="M 0.0482,-0.0084 A 0.004,0.004 -90.0 0,0 0.0442,-0.0124" />
      <line x1="0.0482" y1="-0.0084" x2="0.0482" y2="0.0084" />
      <path d="M 0.0482,0.0084 A 0.004,0.004 -90.0 0,1 0.0442,0.0124" />
      <line x1="0.0068" y1="0.0124" x2="0.0442" y2="0.0124" />
      <path d="M 0.0028,0.0084 A 0.004,0.004 -90.0 0,0 0.0068,0.0124" />
      <path d="M 0.0658,0.0124 A 0.004,0.004 180.0 0,1 0.0618,0.0084" />
      <line x1="0.0658" y1="0.0124" x2="0.1032" y2="0.0124" />
      <path d="M 0.1072,0.0084 A 0.004,0.004 0.0 0,1 0.1032,0.0124" />
      <line x1="0.1072" y1="0.0084" x2="0.1072" y2="-0.0084" />
      <path d="M 0.1032,-0.0124 A 0.004,0.004 0.0 0,1 0.1072,-0.0084" />
      <line x1="0.0658" y1="-0.0124" x2="0.1032" y2="-0.0124" />
      <path d="M 0.0618,-0.0084 A 0.004,0.004 180.0 0,1 0.0658,-0.0124" />
      <line x1="0.0618" y1="0.0084" x2="0.0618" y2="-0.0084" />
      <line x1="0.1283" y1="-0.0084" x2="0.1283" y2="-0.0124" />
      <line x1="0.1283" y1="-0.0084" x2="0.1687" y2="-0.0084" />
      <line x1="0.1687" y1="-0.0084" x2="0.1687" y2="-0.0124" />
      <line x1="0.1283" y1="-0.0124" x2="0.1687" y2="-0.0124" />
      <circle cx="0.132" cy="-0.01025" r="0.0016" />
      <circle cx="0.149" cy="-0.01025" r="0.0016" />
      <circle cx="0.166" cy="-0.01025" r="0.0016" />
      <line x1="0.1283" y1="0.0124" x2="0.1687" y2="0.0124" />
      <line x1="0.1687" y1="0.0124" x2="0.1687" y2="0.0084" />
      <line x1="0.1283" y1="0.0084" x2="0.1687" y2="0.0084" />
      <line x1="0.1283" y1="0.0124" x2="0.1283" y2="0.0084" />
      <circle cx="0.132" cy="0.01025" r="0.0016" />
      <circle cx="0.149" cy="0.01025" r="0.0016" />
      <circle cx="0.166" cy="0.01025" r="0.0016" />
      <circle cx="0.1615" cy="0.0" r="0.003" />
      <line x1="0.1908" y1="-0.0163" x2="0.1908" y2="0.0163" />
      <line x1="0.1908" y1="0.0163" x2="0.1908" y2="-0.0163" />
      <path d="M 0.1908,0.0163 A 0.004,7.964046740044567e-08 -3.901348164522844e-24 0,0 0.1948,0.0163" />
      <path d="M 0.1908,-0.0163 A 0.004,7.964046740044567e-08 -3.901348164522844e-24 0,0 0.1928,-0.0163" />
      <line x1="0.1948" y1="-0.0163" x2="0.1948" y2="0.0163" />
      <path d="M 0.1908,-0.0163 A 0.004,7.964046740044567e-08 180.0 0,1 0.1928,-0.0163" />
      <path d="M 0.2362,-0.0163 A 0.004,7.964046740044567e-08 180.0 0,1 0.2332,-0.0163" />
      <line x1="0.1948" y1="0.0163" x2="0.2322" y2="0.0163" />
      <path d="M 0.2362,0.0163 A 0.004,7.964046740044567e-08 180.0 0,1 0.2322,0.0163" />
      <line x1="0.2322" y1="0.0163" x2="0.234" y2="0.0163" />
      <line x1="0.1928" y1="-0.0163" x2="0.1948" y2="-0.0163" />
      <line x1="0.2322" y1="-0.0163" x2="0.2322" y2="0.0163" />
      <line x1="0.2322" y1="-0.0163" x2="0.2332" y2="-0.0163" />
      <line x1="0.2332" y1="-0.0184" x2="0.2332" y2="-0.0163" />
      <line x1="0.1928" y1="-0.0184" x2="0.2332" y2="-0.0184" />
      <line x1="0.1928" y1="-0.0184" x2="0.1928" y2="-0.0163" />
      <line x1="0.1928" y1="-0.0184" x2="0.1928" y2="-0.0163" />
      <line x1="0.1928" y1="-0.0184" x2="0.2332" y2="-0.0184" />
      <line x1="0.2362" y1="-0.0163" x2="0.2362" y2="0.0163" />
      <path d="M 0.216,0.018 A 0.002,3.9820233700222834e-08 -3.901348164522844e-24 0,0 0.218,0.018" />
      <line x1="0.218" y1="0.018" x2="0.234" y2="0.018" />
      <path d="M 0.236,0.018 A 0.002,3.9820233700222834e-08 180.0 0,1 0.234,0.018" />
      <path d="M 0.1981,-0.0184 A 0.0016000000000000044,3.185618696017835e-08 -3.1156113220371268e-24 0,0 0.1949,-0.0184" />
      <path d="M 0.1949,-0.0184 A 0.0016000000000000044,3.185618696017835e-08 -3.1156113220371268e-24 1,0 0.1981,-0.0184" />
      <path d="M 0.2151,-0.0184 A 0.0016000000000000044,3.185618696017835e-08 -3.1156113220371268e-24 0,0 0.2119,-0.0184" />
      <path d="M 0.2119,-0.0184 A 0.0016000000000000044,3.185618696017835e-08 -3.1156113220371268e-24 1,0 0.2151,-0.0184" />
      <path d="M 0.2321,-0.0184 A 0.0016000000000000044,3.185618696017835e-08 -3.1156113220371268e-24 0,0 0.2289,-0.0184" />
      <path d="M 0.2289,-0.0184 A 0.0016000000000000044,3.185618696017835e-08 -3.1156113220371268e-24 1,0 0.2321,-0.0184" />
      <path d="M 0.1981,-0.0184 A 0.0016000000000000044,3.185618696017835e-08 -3.1156113220371268e-24 0,0 0.1949,-0.0184" />
      <path d="M 0.1949,-0.0184 A 0.0016000000000000044,3.185618696017835e-08 -3.1156113220371268e-24 1,0 0.1981,-0.0184" />
      <path d="M 0.2151,-0.0184 A 0.0016000000000000044,3.185618696017835e-08 -3.1156113220371268e-24 0,0 0.2119,-0.0184" />
      <path d="M 0.2119,-0.0184 A 0.0016000000000000044,3.185618696017835e-08 -3.1156113220371268e-24 1,0 0.2151,-0.0184" />
      <path d="M 0.2321,-0.0184 A 0.0016000000000000044,3.185618696017835e-08 -3.1156113220371268e-24 0,0 0.2289,-0.0184" />
      <path d="M 0.2289,-0.0184 A 0.0016000000000000044,3.185618696017835e-08 -3.1156113220371268e-24 1,0 0.2321,-0.0184" />
      <path d="M 0.2215,0.0195 A 0.004500000000000004,8.959552582550142e-08 -3.1156113220371268e-24 0,0 0.2305,0.0195" />
      <line x1="0.216" y1="0.0163" x2="0.216" y2="0.018" />
      <line x1="0.218" y1="0.0163" x2="0.218" y2="0.018" />
      <line x1="0.234" y1="0.0163" x2="0.234" y2="0.018" />
      <line x1="0.236" y1="0.0163" x2="0.236" y2="0.018" />
      <line x1="0.1908" y1="-0.0163" x2="0.1908" y2="0.0163" />
      <line x1="0.2362" y1="-0.0163" x2="0.2362" y2="0.0163" />
      <line x1="0.2305" y1="0.018" x2="0.2305" y2="0.0195" />
      <line x1="0.2215" y1="0.018" x2="0.2215" y2="0.0195" />
      <line x1="0.2498" y1="-0.0163" x2="0.2498" y2="0.0163" />
      <line x1="0.249927" y1="-0.0163" x2="0.2538" y2="-0.0163" />
      <line x1="0.2706" y1="-0.0163" x2="0.274473" y2="-0.0163" />
      <path d="M 0.2538,-0.0163 A 0.004,7.964254933831555e-08 -180.0 0,1 0.249927,-0.0163" />
      <path d="M 0.2706,-0.0163 A 0.004,7.964254933831555e-08 1.538184024739024e-39 0,0 0.274473,-0.0163" />
      <line x1="0.2538" y1="-0.0163" x2="0.2706" y2="-0.0163" />
      <path d="M 0.2622,-0.0163 A 0.003,5.973191200373665e-08 1.5347302623733728e-39 0,0 0.2652,-0.0163" />
      <path d="M 0.2592,-0.0163 A 0.003,5.973191200373665e-08 1.5347302623733728e-39 0,0 0.2622,-0.0163" />
      <line x1="0.2746" y1="0.0163" x2="0.2746" y2="-0.0163" />
      <path d="M 0.2538,0.0163 A 0.004,7.964254933831555e-08 -180.0 0,1 0.2498,0.0163" />
      <path d="M 0.2706,0.0163 A 0.004,7.964254933831555e-08 1.538184024739024e-39 0,0 0.2746,0.0163" />
      <line x1="0.2538" y1="0.0163" x2="0.2706" y2="0.0163" />
      <path d="M 0.2538,0.0163 A 0.002,3.982127466915777e-08 -180.0 0,1 0.2522,0.0163" />
      <path d="M 0.2706,0.0163 A 0.002,3.982127466915777e-08 1.538184024739024e-39 0,0 0.2722,0.0163" />
      <line x1="0.2498" y1="-0.0163" x2="0.2498" y2="0.0163" />
      <line x1="0.2498" y1="-0.0184" x2="0.2498" y2="-0.0163" />
      <line x1="0.2538" y1="-0.0184" x2="0.2538" y2="-0.0163" />
      <line x1="0.2706" y1="-0.0184" x2="0.2706" y2="-0.0163" />
      <line x1="0.2498" y1="-0.0163" x2="0.249927" y2="-0.0163" />
      <line x1="0.2498" y1="-0.0184" x2="0.2538" y2="-0.0184" />
      <line x1="0.274473" y1="-0.0163" x2="0.2746" y2="-0.0163" />
      <line x1="0.2746" y1="-0.0184" x2="0.2746" y2="-0.0163" />
      <line x1="0.2706" y1="-0.0184" x2="0.2746" y2="-0.0184" />
      <line x1="0.2538" y1="-0.0163" x2="0.2538" y2="0.0163" />
      <line x1="0.2746" y1="0.0163" x2="0.2746" y2="-0.0163" />
      <line x1="0.2706" y1="0.0163" x2="0.2706" y2="-0.0163" />
      <path d="M 0.2622,-0.0176 A 0.003,5.973191200373665e-08 1.5347302623733728e-39 0,0 0.2652,-0.0176" />
      <path d="M 0.2652,-0.0176 A 0.0030000000000000027,5.97319120037367e-08 1.5347302623733728e-39 0,0 0.2592,-0.0176" />
      <path d="M 0.2592,-0.0176 A 0.003,5.973191200373665e-08 1.5347302623733728e-39 0,0 0.2622,-0.0176" />
      <line x1="0.2522" y1="0.0163" x2="0.2522" y2="0.018" />
      <path d="M 0.2542,0.018 A 0.002,3.982127466915777e-08 -180.0 0,1 0.2522,0.018" />
      <line x1="0.2542" y1="0.018" x2="0.2702" y2="0.018" />
      <line x1="0.2722" y1="0.0163" x2="0.2722" y2="0.018" />
      <path d="M 0.2702,0.018 A 0.002,3.982127466915777e-08 1.538184024739024e-39 0,0 0.2722,0.018" />
      <path d="M 0.25195,-0.0184 A 0.0016,3.185701973532622e-08 1.5347302623733728e-39 0,0 0.25355,-0.0184" />
      <path d="M 0.25355,-0.0184 A 0.0016,3.185701973532622e-08 1.5347302623733728e-39 0,0 0.25035,-0.0184" />
      <path d="M 0.25035,-0.0184 A 0.0016,3.185701973532622e-08 1.5347302623733728e-39 0,0 0.25195,-0.0184" />
      <path d="M 0.25195,-0.0184 A 0.0016,3.185701973532622e-08 1.5347302623733728e-39 0,0 0.25355,-0.0184" />
      <path d="M 0.25355,-0.0184 A 0.0016,3.185701973532622e-08 1.5347302623733728e-39 0,0 0.25035,-0.0184" />
      <path d="M 0.25035,-0.0184 A 0.0016,3.185701973532622e-08 1.5347302623733728e-39 0,0 0.25195,-0.0184" />
      <path d="M 0.25195,-0.0184 A 0.0016,3.185701973532622e-08 1.5347302623733728e-39 0,0 0.25355,-0.0184" />
      <path d="M 0.25355,-0.0184 A 0.0016,3.185701973532622e-08 1.5347302623733728e-39 0,0 0.25035,-0.0184" />
      <path d="M 0.25035,-0.0184 A 0.0016,3.185701973532622e-08 1.5347302623733728e-39 0,0 0.25195,-0.0184" />
      <path d="M 0.27245,-0.0184 A 0.0016,3.185701973532622e-08 1.5347302623733728e-39 0,0 0.27405,-0.0184" />
      <path d="M 0.27405,-0.0184 A 0.0016000000000000179,3.185701973532657e-08 1.5347302623733728e-39 0,0 0.27085,-0.0184" />
      <path d="M 0.27085,-0.0184 A 0.0016,3.185701973532622e-08 1.5347302623733728e-39 0,0 0.27245,-0.0184" />
      <path d="M 0.27245,-0.0184 A 0.0016,3.185701973532622e-08 1.5347302623733728e-39 0,0 0.27405,-0.0184" />
      <path d="M 0.27405,-0.0184 A 0.0016000000000000179,3.185701973532657e-08 1.5347302623733728e-39 0,0 0.27085,-0.0184" />
      <path d="M 0.27085,-0.0184 A 0.0016,3.185701973532622e-08 1.5347302623733728e-39 0,0 0.27245,-0.0184" />
      <path d="M 0.27245,-0.0184 A 0.0016,3.185701973532622e-08 1.5347302623733728e-39 0,0 0.27405,-0.0184" />
      <path d="M 0.27405,-0.0184 A 0.0016000000000000179,3.185701973532657e-08 1.5347302623733728e-39 0,0 0.27085,-0.0184" />
      <path d="M 0.27085,-0.0184 A 0.0016,3.185701973532622e-08 1.5347302623733728e-39 0,0 0.27245,-0.0184" />
      <path d="M 0.2622,0.0195 A 0.0045,8.959786800560498e-08 1.5347302623733728e-39 0,0 0.2667,0.0195" />
      <path d="M 0.2577,0.0195 A 0.0045,8.959786800560498e-08 1.5347302623733728e-39 0,0 0.2622,0.0195" />
      <line x1="0.2542" y1="0.0163" x2="0.2542" y2="0.018" />
      <line x1="0.2702" y1="0.0163" x2="0.2702" y2="0.018" />
      <line x1="0.2652" y1="-0.0176" x2="0.2652" y2="-0.0163" />
      <line x1="0.2592" y1="-0.0176" x2="0.2592" y2="-0.0163" />
      <line x1="0.2667" y1="0.018" x2="0.2667" y2="0.0195" />
      <line x1="0.2577" y1="0.018" x2="0.2577" y2="0.0195" />
    </g>
    <g fill="url(#hatch_servo)" stroke="none" stroke-width="0" id="servo_fill">
      <path d="M 0.0028,0.0084 L 0.0028,-0.0084 A 0.004,0.004 -90.0 0,1 0.0068,-0.0124 L 0.0442,-0.0124 A 0.004,0.004 -90.0 0,1 0.0482,-0.0084 L 0.0482,0.0084 A 0.004,0.004 -90.0 0,1 0.0442,0.0124 L 0.0068,0.0124 A 0.004,0.004 -90.0 0,1 0.0028,0.0084" />
      <path d="M 0.0658,0.0124 A 0.004,0.004 180.0 0,1 0.0618,0.0084 L 0.0618,-0.0084 A 0.004,0.004 180.0 0,1 0.0658,-0.0124 L 0.1032,-0.0124 A 0.004,0.004 0.0 0,1 0.1072,-0.0084 L 0.1072,0.0084 A 0.004,0.004 0.0 0,1 0.1032,0.0124 L 0.0658,0.0124" />
      <path d="M 0.1283,-0.0084 L 0.1283,-0.0124 L 0.1687,-0.0124 L 0.1687,-0.0084 L 0.1283,-0.0084 M 0.1336,-0.01025 A 0.0016000000000000044,0.0016000000000000044 0.0 0,0 0.1304,-0.01025 A 0.0016000000000000044,0.0016000000000000044 0.0 0,0 0.1336,-0.01025 M 0.1506,-0.01025 A 0.0016000000000000044,0.0016000000000000044 0.0 0,0 0.1474,-0.01025 A 0.0016000000000000044,0.0016000000000000044 0.0 0,0 0.1506,-0.01025 M 0.1676,-0.01025 A 0.0016000000000000044,0.0016000000000000044 0.0 0,0 0.1644,-0.01025 A 0.0016000000000000044,0.0016000000000000044 0.0 0,0 0.1676,-0.01025" />
      <path d="M 0.1687,0.0124 L 0.1283,0.0124 L 0.1283,0.0084 L 0.1687,0.0084 L 0.1687,0.0124 M 0.1336,0.01025 A 0.0016000000000000044,0.0016000000000000044 0.0 0,0 0.1304,0.01025 A 0.0016000000000000044,0.0016000000000000044 0.0 0,0 0.1336,0.01025 M 0.1506,0.01025 A 0.0016000000000000044,0.0016000000000000044 0.0 0,0 0.1474,0.01025 A 0.0016000000000000044,0.0016000000000000044 0.0 0,0 0.1506,0.01025 M 0.1676,0.01025 A 0.0016000000000000044,0.0016000000000000044 0.0 0,0 0.1644,0.01025 A 0.0016000000000000044,0.0016000000000000044 0.0 0,0 0.1676,0.01025" />
      <circle cx="0.1615" cy="0.0" r="0.003" />
    </g>
    <g fill="none" stroke="rgb(60,60,60)" stroke-opacity="0.4" stroke-width="0.00015" id="servo_hidden" stroke-dasharray="0.0018 0.00045">
      <path d="M 0.1928,-0.0163 A 0.004,7.964046740044567e-08 -3.901348164522844e-24 0,0 0.1948,-0.0163" />
      <line x1="0.1928" y1="-0.0163" x2="0.2332" y2="-0.0163" />
      <line x1="0.1928" y1="-0.0163" x2="0.2332" y2="-0.0163" />
      <path d="M 0.2362,-0.0163 A 0.004,7.964046740044567e-08 -3.901348164522844e-24 0,0 0.2332,-0.0163" />
      <path d="M 0.229,-0.0163 A 0.0030000000000000027,5.973035055033429e-08 -3.1156113220371268e-24 0,0 0.223,-0.0163" />
      <path d="M 0.223,-0.0163 A 0.0030000000000000027,5.973035055033429e-08 -3.1156113220371268e-24 1,0 0.229,-0.0163" />
      <line x1="0.1948" y1="0.0163" x2="0.1948" y2="-0.0163" />
      <path d="M 0.1908,0.0163 A 0.004,7.964046740044567e-08 180.0 0,1 0.1948,0.0163" />
      <path d="M 0.1928,-0.0163 A 0.004,7.964046740044567e-08 180.0 0,1 0.1948,-0.0163" />
      <line x1="0.1948" y1="0.0163" x2="0.2322" y2="0.0163" />
      <path d="M 0.2362,0.0163 A 0.004,7.964046740044567e-08 -3.901348164522844e-24 0,0 0.2322,0.0163" />
      <path d="M 0.216,0.0163 A 0.002,3.9820233700222834e-08 -3.901348164522844e-24 0,0 0.218,0.0163" />
      <line x1="0.218" y1="0.0163" x2="0.2322" y2="0.0163" />
      <path d="M 0.236,0.0163 A 0.002,3.9820233700222834e-08 180.0 0,1 0.234,0.0163" />
      <path d="M 0.236,0.0163 A 0.002,3.9820233700222834e-08 -3.901348164522844e-24 0,0 0.234,0.0163" />
      <line x1="0.218" y1="0.0163" x2="0.234" y2="0.0163" />
      <path d="M 0.216,0.0163 A 0.002,3.9820233700222834e-08 180.0 0,1 0.218,0.0163" />
      <line x1="0.1928" y1="-0.0184" x2="0.1928" y2="-0.0163" />
      <line x1="0.1928" y1="-0.0184" x2="0.1928" y2="-0.0163" />
      <line x1="0.1928" y1="-0.0184" x2="0.2332" y2="-0.0184" />
      <line x1="0.2332" y1="-0.0184" x2="0.2332" y2="-0.0163" />
      <line x1="0.2332" y1="-0.0184" x2="0.2332" y2="-0.0163" />
      <line x1="0.2332" y1="-0.0184" x2="0.2332" y2="-0.0163" />
      <path d="M 0.2332,-0.0163 A 0.004,7.964046740044567e-08 180.0 0,1 0.2322,-0.0163" />
      <line x1="0.2322" y1="0.0163" x2="0.2322" y2="-0.0163" />
      <line x1="0.2362" y1="0.0163" x2="0.2362" y2="-0.0163" />
      <path d="M 0.2332,-0.0163 A 0.004,7.964046740044567e-08 -3.901348164522844e-24 0,0 0.2322,-0.0163" />
      <path d="M 0.229,-0.0176 A 0.0030000000000000027,5.973035055033429e-08 -3.1156113220371268e-24 0,0 0.223,-0.0176" />
      <path d="M 0.223,-0.0176 A 0.0030000000000000027,5.973035055033429e-08 -3.1156113220371268e-24 1,0 0.229,-0.0176" />
      <line x1="0.2322" y1="-0.0163" x2="0.2332" y2="-0.0163" />
      <line x1="0.1928" y1="-0.0184" x2="0.2332" y2="-0.0184" />
      <line x1="0.1928" y1="-0.0163" x2="0.1948" y2="-0.0163" />
      <path d="M 0.236,0.018 A 0.002,3.9820233700222834e-08 -3.901348164522844e-24 0,0 0.234,0.018" />
      <line x1="0.218" y1="0.018" x2="0.234" y2="0.018" />
      <path d="M 0.216,0.018 A 0.002,3.9820233700222834e-08 180.0 0,1 0.218,0.018" />
      <path d="M 0.2305,0.018 A 0.004500000000000004,8.959552582550142e-08 -3.1156113220371268e-24 0,0 0.2215,0.018" />
      <path d="M 0.2215,0.018 A 0.004500000000000004,8.959552582550142e-08 -3.1156113220371268e-24 0,0 0.2305,0.018" />
      <path d="M 0.1981,-0.0084 A 0.0016000000000000044,3.185618696017835e-08 -3.1156113220371268e-24 0,0 0.1949,-0.0084" />
      <path d="M 0.1949,-0.0084 A 0.0016000000000000044,3.185618696017835e-08 -3.1156113220371268e-24 1,0 0.1981,-0.0084" />
      <path d="M 0.2151,-0.0084 A 0.0016000000000000044,3.185618696017835e-08 -3.1156113220371268e-24 0,0 0.2119,-0.0084" />
      <path d="M 0.2119,-0.0084 A 0.0016000000000000044,3.185618696017835e-08 -3.1156113220371268e-24 1,0 0.2151,-0.0084" />
      <path d="M 0.2321,-0.0084 A 0.0016000000000000044,3.185618696017835e-08 -3.1156113220371268e-24 0,0 0.2289,-0.0084" />
      <path d="M 0.2289,-0.0084 A 0.0016000000000000044,3.185618696017835e-08 -3.1156113220371268e-24 1,0 0.2321,-0.0084" />
      <path d="M 0.1981,-0.0084 A 0.0016000000000000044,3.185618696017835e-08 -3.1156113220371268e-24 0,0 0.1949,-0.0084" />
      <path d="M 0.1949,-0.0084 A 0.0016000000000000044,3.185618696017835e-08 -3.1156113220371268e-24 1,0 0.1981,-0.0084" />
      <path d="M 0.2151,-0.0084 A 0.0016000000000000044,3.185618696017835e-08 -3.1156113220371268e-24 0,0 0.2119,-0.0084" />
      <path d="M 0.2119,-0.0084 A 0.0016000000000000044,3.185618696017835e-08 -3.1156113220371268e-24 1,0 0.2151,-0.0084" />
      <path d="M 0.2321,-0.0084 A 0.0016000000000000044,3.185618696017835e-08 -3.1156113220371268e-24 0,0 0.2289,-0.0084" />
      <path d="M 0.2289,-0.0084 A 0.0016000000000000044,3.185618696017835e-08 -3.1156113220371268e-24 1,0 0.2321,-0.0084" />
      <path d="M 0.2305,0.0195 A 0.004500000000000004,8.959552582550142e-08 -3.1156113220371268e-24 0,0 0.2215,0.0195" />
      <line x1="0.223" y1="-0.0176" x2="0.223" y2="-0.0163" />
      <line x1="0.1949" y1="-0.0184" x2="0.1949" y2="-0.0084" />
      <line x1="0.2119" y1="-0.0184" x2="0.2119" y2="-0.0084" />
      <line x1="0.2289" y1="-0.0184" x2="0.2289" y2="-0.0084" />
      <line x1="0.1949" y1="-0.0184" x2="0.1949" y2="-0.0084" />
      <line x1="0.2119" y1="-0.0184" x2="0.2119" y2="-0.0084" />
      <line x1="0.2289" y1="-0.0184" x2="0.2289" y2="-0.0084" />
      <line x1="0.236" y1="0.0163" x2="0.236" y2="0.018" />
      <line x1="0.234" y1="0.0163" x2="0.234" y2="0.018" />
      <line x1="0.218" y1="0.0163" x2="0.218" y2="0.018" />
      <line x1="0.216" y1="0.0163" x2="0.216" y2="0.018" />
      <line x1="0.2538" y1="-0.0163" x2="0.2538" y2="0.0163" />
      <line x1="0.2538" y1="-0.0163" x2="0.2706" y2="-0.0163" />
      <line x1="0.2706" y1="0.0163" x2="0.2706" y2="-0.0163" />
      <line x1="0.2538" y1="0.0163" x2="0.2706" y2="0.0163" />
      <path d="M 0.2538,0.0163 A 0.004,7.964254933831555e-08 1.538184024739024e-39 0,0 0.2498,0.0163" />
      <path d="M 0.2538,-0.0163 A 0.004,7.964254933831555e-08 1.538184024739024e-39 0,0 0.250336,-0.0163" />
      <path d="M 0.250336,-0.0163 A 0.004,7.964254933831555e-08 1.538184024739024e-39 0,0 0.2498,-0.0163" />
      <path d="M 0.2706,-0.0163 A 0.004,7.964254933831555e-08 -180.0 0,1 0.274064,-0.0163" />
      <line x1="0.250336" y1="-0.0163" x2="0.2538" y2="-0.0163" />
      <line x1="0.2706" y1="-0.0163" x2="0.274064" y2="-0.0163" />
      <path d="M 0.2652,-0.0163 A 0.0030000000000000027,5.97319120037367e-08 1.5347302623733728e-39 0,0 0.2592,-0.0163" />
      <path d="M 0.2706,0.0163 A 0.004,7.964254933831555e-08 -180.0 0,1 0.2746,0.0163" />
      <path d="M 0.274064,-0.0163 A 0.004,7.964254933831555e-08 -180.0 0,1 0.2746,-0.0163" />
      <path d="M 0.2542,0.0163 A 0.002,3.982127466915777e-08 1.538184024739024e-39 0,0 0.2522,0.0163" />
      <path d="M 0.2542,0.0163 A 0.002,3.982127466915777e-08 -180.0 0,1 0.2538,0.0163" />
      <line x1="0.2542" y1="0.0163" x2="0.2702" y2="0.0163" />
      <path d="M 0.2702,0.0163 A 0.002,3.982127466915777e-08 1.538184024739024e-39 0,0 0.2706,0.0163" />
      <path d="M 0.2702,0.0163 A 0.002,3.982127466915777e-08 -180.0 0,1 0.2722,0.0163" />
      <line x1="0.2542" y1="0.0163" x2="0.2702" y2="0.0163" />
      <line x1="0.2498" y1="-0.0163" x2="0.250336" y2="-0.0163" />
      <line x1="0.2498" y1="-0.0184" x2="0.2498" y2="-0.0163" />
      <line x1="0.2538" y1="-0.0184" x2="0.2538" y2="-0.0163" />
      <line x1="0.2498" y1="-0.0184" x2="0.2538" y2="-0.0184" />
      <line x1="0.2706" y1="-0.0184" x2="0.2706" y2="-0.0163" />
      <line x1="0.274064" y1="-0.0163" x2="0.2746" y2="-0.0163" />
      <line x1="0.2746" y1="-0.0184" x2="0.2746" y2="-0.0163" />
      <line x1="0.2706" y1="-0.0184" x2="0.2746" y2="-0.0184" />
      <path d="M 0.249927,-0.0163 A 0.004,7.964254933831555e-08 -180.0 0,1 0.2498,-0.0163" />
      <path d="M 0.274473,-0.0163 A 0.004,7.964254933831555e-08 1.538184024739024e-39 0,0 0.2746,-0.0163" />
      <line x1="0.2522" y1="0.0163" x2="0.2522" y2="0.018" />
      <path d="M 0.2542,0.018 A 0.002,3.982127466915777e-08 1.538184024739024e-39 0,0 0.2522,0.018" />
      <line x1="0.2722" y1="0.0163" x2="0.2722" y2="0.018" />
      <path d="M 0.2702,0.018 A 0.002,3.982127466915777e-08 -180.0 0,1 0.2722,0.018" />
      <line x1="0.2542" y1="0.018" x2="0.2702" y2="0.018" />
      <path d="M 0.2622,0.018 A 0.0045,8.959786800560498e-08 1.5347302623733728e-39 0,0 0.2667,0.018" />
      <path d="M 0.2667,0.018 A 0.004500000000000004,8.959786800560506e-08 1.5347302623733728e-39 0,0 0.2577,0.018" />
      <path d="M 0.2577,0.018 A 0.0045,8.959786800560498e-08 1.5347302623733728e-39 0,0 0.2622,0.018" />
      <path d="M 0.25195,-0.0084 A 0.0016,3.185701973532622e-08 1.5347302623733728e-39 0,0 0.25355,-0.0084" />
      <path d="M 0.25355,-0.0084 A 0.0016,3.185701973532622e-08 1.5347302623733728e-39 0,0 0.25035,-0.0084" />
      <path d="M 0.25035,-0.0084 A 0.0016,3.185701973532622e-08 1.5347302623733728e-39 0,0 0.25195,-0.0084" />
      <path d="M 0.25195,-0.0084 A 0.0016,3.185701973532622e-08 1.5347302623733728e-39 0,0 0.25355,-0.0084" />
      <path d="M 0.25355,-0.0084 A 0.0016,3.185701973532622e-08 1.5347302623733728e-39 0,0 0.25035,-0.0084" />
      <path d="M 0.25035,-0.0084 A 0.0016,3.185701973532622e-08 1.5347302623733728e-39 0,0 0.25195,-0.0084" />
      <path d="M 0.25195,-0.0084 A 0.0016,3.185701973532622e-08 1.5347302623733728e-39 0,0 0.25355,-0.0084" />
      <path d="M 0.25355,-0.0084 A 0.0016,3.185701973532622e-08 1.5347302623733728e-39 0,0 0.25035,-0.0084" />
      <path d="M 0.25035,-0.0084 A 0.0016,3.185701973532622e-08 1.5347302623733728e-39 0,0 0.25195,-0.0084" />
      <path d="M 0.27245,-0.0084 A 0.0016,3.185701973532622e-08 1.5347302623733728e-39 0,0 0.27405,-0.0084" />
      <path d="M 0.27405,-0.0084 A 0.0016000000000000179,3.185701973532657e-08 1.5347302623733728e-39 0,0 0.27085,-0.0084" />
      <path d="M 0.27085,-0.0084 A 0.0016,3.185701973532622e-08 1.5347302623733728e-39 0,0 0.27245,-0.0084" />
      <path d="M 0.27245,-0.0084 A 0.0016,3.185701973532622e-08 1.5347302623733728e-39 0,0 0.27405,-0.0084" />
      <path d="M 0.27405,-0.0084 A 0.0016000000000000179,3.185701973532657e-08 1.5347302623733728e-39 0,0 0.27085,-0.0084" />
      <path d="M 0.27085,-0.0084 A 0.0016,3.185701973532622e-08 1.5347302623733728e-39 0,0 0.27245,-0.0084" />
      <path d="M 0.27245,-0.0084 A 0.0016,3.185701973532622e-08 1.5347302623733728e-39 0,0 0.27405,-0.0084" />
      <path d="M 0.27405,-0.0084 A 0.0016000000000000179,3.185701973532657e-08 1.5347302623733728e-39 0,0 0.27085,-0.0084" />
      <path d="M 0.27085,-0.0084 A 0.0016,3.185701973532622e-08 1.5347302623733728e-39 0,0 0.27245,-0.0084" />
      <path d="M 0.2667,0.0195 A 0.004500000000000004,8.959786800560506e-08 1.5347302623733728e-39 0,0 0.2577,0.0195" />
      <line x1="0.25355" y1="-0.0184" x2="0.25355" y2="-0.0084" />
      <line x1="0.25035" y1="-0.0184" x2="0.25035" y2="-0.0084" />
      <line x1="0.25355" y1="-0.0184" x2="0.25355" y2="-0.0084" />
      <line x1="0.25035" y1="-0.0184" x2="0.25035" y2="-0.0084" />
      <line x1="0.25355" y1="-0.0184" x2="0.25355" y2="-0.0084" />
      <line x1="0.25035" y1="-0.0184" x2="0.25035" y2="-0.0084" />
      <line x1="0.27405" y1="-0.0184" x2="0.27405" y2="-0.0084" />
      <line x1="0.27085" y1="-0.0184" x2="0.27085" y2="-0.0084" />
      <line x1="0.27405" y1="-0.0184" x2="0.27405" y2="-0.0084" />
      <line x1="0.27085" y1="-0.0184" x2="0.27085" y2="-0.0084" />
      <line x1="0.27405" y1="-0.0184" x2="0.27405" y2="-0.0084" />
      <line x1="0.27085" y1="-0.0184" x2="0.27085" y2="-0.0084" />
      <line x1="0.2542" y1="0.0163" x2="0.2542" y2="0.018" />
      <line x1="0.2702" y1="0.0163" x2="0.2702" y2="0.018" />
    </g>
    <g fill="none" stroke="rgb(50,120,190)" stroke-width="0.00035" id="bracket">
      <line x1="0.0" y1="0.0152" x2="0.051" y2="0.0152" />
      <line x1="0.051" y1="0.0152" x2="0.051" y2="-0.0152" />
      <line x1="0.0" y1="-0.0152" x2="0.051" y2="-0.0152" />
      <line x1="0.0" y1="0.0152" x2="0.0" y2="-0.0152" />
      <line x1="0.0025" y1="0.0127" x2="0.0025" y2="-0.0127" />
      <line x1="0.0025" y1="-0.0127" x2="0.0485" y2="-0.0127" />
      <line x1="0.0485" y1="0.0127" x2="0.0485" y2="-0.0127" />
      <line x1="0.0025" y1="0.0127" x2="0.0485" y2="0.0127" />
      <line x1="0.059" y1="0.0152" x2="0.11" y2="0.0152" />
      <line x1="0.11" y1="0.0152" x2="0.11" y2="-0.0152" />
      <line x1="0.059" y1="-0.0152" x2="0.11" y2="-0.0152" />
      <line x1="0.059" y1="0.0152" x2="0.059" y2="-0.0152" />
      <line x1="0.0615" y1="0.0127" x2="0.0615" y2="-0.0127" />
      <line x1="0.0615" y1="-0.0127" x2="0.1075" y2="-0.0127" />
      <line x1="0.1075" y1="0.0127" x2="0.1075" y2="-0.0127" />
      <line x1="0.0615" y1="0.0127" x2="0.1075" y2="0.0127" />
      <line x1="0.118" y1="-0.00305" x2="0.118" y2="-0.00235" />
      <line x1="0.118" y1="-0.00235" x2="0.12052" y2="-0.00235" />
      <line x1="0.12052" y1="-0.00235" x2="0.12052" y2="0.00235" />
      <line x1="0.118" y1="0.00235" x2="0.12052" y2="0.00235" />
      <line x1="0.118" y1="0.00235" x2="0.118" y2="0.00305" />
      <line x1="0.118" y1="0.00305" x2="0.1222" y2="0.00305" />
      <line x1="0.1222" y1="-0.00305" x2="0.1222" y2="0.00305" />
      <line x1="0.118" y1="-0.00305" x2="0.1222" y2="-0.00305" />
      <line x1="0.1235" y1="0.0152" x2="0.1745" y2="0.0152" />
      <line x1="0.1745" y1="0.0152" x2="0.1745" y2="-0.0152" />
      <line x1="0.1235" y1="-0.0152" x2="0.1745" y2="-0.0152" />
      <line x1="0.1235" y1="-0.00455" x2="0.1235" y2="-0.0152" />
      <line x1="0.1235" y1="-0.00455" x2="0.1269" y2="-0.00455" />
      <line x1="0.1269" y1="0.00455" x2="0.1269" y2="-0.00455" />
      <line x1="0.1235" y1="0.00455" x2="0.1269" y2="0.00455" />
      <line x1="0.1235" y1="0.0152" x2="0.1235" y2="0.00455" />
      <circle cx="0.132" cy="-0.01025" r="0.0017" />
      <circle cx="0.149" cy="-0.01025" r="0.0017" />
      <circle cx="0.166" cy="-0.01025" r="0.0017" />
      <circle cx="0.132" cy="0.01025" r="0.0017" />
      <circle cx="0.149" cy="0.01025" r="0.0017" />
      <circle cx="0.166" cy="0.01025" r="0.0017" />
      <line x1="0.1867" y1="-0.02085" x2="0.1825" y2="-0.02085" />
      <line x1="0.1867" y1="-0.02085" x2="0.1867" y2="-0.01175" />
      <line x1="0.1867" y1="-0.01175" x2="0.1825" y2="-0.01175" />
      <line x1="0.1825" y1="-0.02085" x2="0.1825" y2="-0.01175" />
      <line x1="0.1825" y1="-0.02015" x2="0.1825" y2="-0.01245" />
      <line x1="0.1867" y1="-0.01175" x2="0.1825" y2="-0.01175" />
      <line x1="0.188" y1="-0.021452" x2="0.188" y2="0.022298" />
      <line x1="0.188" y1="0.022298" x2="0.188" y2="0.022302" />
      <line x1="0.188" y1="-0.020099" x2="0.188" y2="-0.020101" />
      <line x1="0.188" y1="-0.020099" x2="0.188" y2="-0.012499" />
      <line x1="0.188" y1="-0.021452" x2="0.239" y2="-0.021452" />
      <line x1="0.239" y1="-0.021452" x2="0.239" y2="0.022298" />
      <line x1="0.188" y1="0.022298" x2="0.239" y2="0.022298" />
      <line x1="0.188" y1="0.022302" x2="0.239" y2="0.022302" />
      <line x1="0.239" y1="0.022298" x2="0.239" y2="0.022302" />
      <line x1="0.188" y1="-0.018475" x2="0.1867" y2="-0.018475" />
      <line x1="0.188" y1="-0.014725" x2="0.1867" y2="-0.014725" />
      <line x1="0.247" y1="0.022303" x2="0.2774" y2="0.022303" />
      <line x1="0.247" y1="-0.021453" x2="0.247" y2="0.022297" />
      <line x1="0.247" y1="0.022303" x2="0.247" y2="0.022297" />
      <line x1="0.2774" y1="0.022303" x2="0.2774" y2="0.022297" />
      <line x1="0.247" y1="0.022297" x2="0.2774" y2="0.022297" />
      <line x1="0.247" y1="-0.021453" x2="0.2774" y2="-0.021453" />
      <line x1="0.2774" y1="-0.021453" x2="0.2774" y2="0.022297" />
    </g>
    <g fill="url(#hatch_bracket)" stroke="none" stroke-width="0" id="bracket_fill">
      <path d="M 0.051,0.0152 L 0.0,0.0152 L 0.0,-0.0152 L 0.051,-0.0152 L 0.051,0.0152 M 0.0025,-0.0127 L 0.0025,0.0127 L 0.0485,0.0127 L 0.0485,-0.0127 L 0.0025,-0.0127" />
      <path d="M 0.11,0.0152 L 0.059,0.0152 L 0.059,-0.0152 L 0.11,-0.0152 L 0.11,0.0152 M 0.0615,-0.0127 L 0.0615,0.0127 L 0.1075,0.0127 L 0.1075,-0.0127 L 0.0615,-0.0127" />
      <path d="M 0.118,-0.00235 L 0.118,-0.00305 L 0.1222,-0.00305 L 0.1222,0.00305 L 0.118,0.00305 L 0.118,0.00235 L 0.12052,0.00235 L 0.12052,-0.00235 L 0.118,-0.00235" />
      <path d="M 0.1745,0.0152 L 0.1235,0.0152 L 0.1235,0.00455 L 0.1269,0.00455 L 0.1269,-0.00455 L 0.1235,-0.00455 L 0.1235,-0.0152 L 0.1745,-0.0152 L 0.1745,0.0152 M 0.1337,-0.01025 A 0.001700000000000007,0.001700000000000007 0.0 0,0 0.1303,-0.01025 A 0.001700000000000007,0.001700000000000007 0.0 0,0 0.1337,-0.01025 M 0.1507,-0.01025 A 0.001700000000000007,0.001700000000000007 0.0 0,0 0.1473,-0.01025 A 0.001700000000000007,0.001700000000000007 0.0 0,0 0.1507,-0.01025 M 0.1677,-0.01025 A 0.0017,0.0017 0.0 0,0 0.1643,-0.01025 A 0.0017,0.0017 0.0 0,0 0.1677,-0.01025 M 0.1337,0.01025 A 0.001700000000000007,0.001700000000000007 0.0 0,0 0.1303,0.01025 A 0.001700000000000007,0.001700000000000007 0.0 0,0 0.1337,0.01025 M 0.1507,0.01025 A 0.001700000000000007,0.001700000000000007 0.0 0,0 0.1473,0.01025 A 0.001700000000000007,0.001700000000000007 0.0 0,0 0.1507,0.01025 M 0.1677,0.01025 A 0.0017,0.0017 0.0 0,0 0.1643,0.01025 A 0.0017,0.0017 0.0 0,0 0.1677,0.01025" />
    </g>
    <g fill="none" stroke="rgb(50,120,190)" stroke-opacity="0.4" stroke-width="0.00015" id="bracket_hidden" stroke-dasharray="0.0018 0.00045">
      <line x1="0.1867" y1="-0.02085" x2="0.1825" y2="-0.02085" />
      <line x1="0.1825" y1="-0.02085" x2="0.1825" y2="-0.01175" />
      <line x1="0.1825" y1="-0.02015" x2="0.1825" y2="-0.01245" />
      <line x1="0.1867" y1="-0.02085" x2="0.1867" y2="-0.01175" />
      <path d="M 0.1867,-0.017875 A 0.00030000000188007067,9.35972935329515e-10 90.00000002001272 1,1 0.1867,-0.018475" />
      <path d="M 0.1867,-0.018475 A 0.00030000000188007067,9.35972935329515e-10 90.00000002001272 0,1 0.1867,-0.017875" />
      <path d="M 0.1867,-0.014125 A 0.00030000000188007067,9.35972935329515e-10 90.00000002001272 1,1 0.1867,-0.014725" />
      <path d="M 0.1867,-0.014725 A 0.00030000000188007067,9.35972935329515e-10 90.00000002001272 0,1 0.1867,-0.014125" />
      <line x1="0.18502" y1="-0.02015" x2="0.1825" y2="-0.02015" />
      <line x1="0.18502" y1="-0.02015" x2="0.1825" y2="-0.02015" />
      <line x1="0.18502" y1="-0.02015" x2="0.18502" y2="-0.01245" />
      <line x1="0.18502" y1="-0.01245" x2="0.1825" y2="-0.01245" />
      <line x1="0.18502" y1="-0.01245" x2="0.1825" y2="-0.01245" />
      <line x1="0.18502" y1="-0.02015" x2="0.18502" y2="-0.01245" />
      <path d="M 0.1897,-0.017875 A 0.00030000000188007067,9.35972935329515e-10 90.00000002001272 1,1 0.1897,-0.018475" />
      <path d="M 0.1897,-0.018475 A 0.00030000000188007067,9.35972935329515e-10 90.00000002001272 0,1 0.1897,-0.017875" />
      <path d="M 0.1897,-0.014125 A 0.00030000000188007067,9.35972935329515e-10 90.00000002001272 1,1 0.1897,-0.014725" />
      <path d="M 0.1897,-0.014725 A 0.00030000000188007067,9.35972935329515e-10 90.00000002001272 0,1 0.1897,-0.014125" />
      <line x1="0.188" y1="-0.021452" x2="0.188" y2="-0.021448" />
      <line x1="0.188" y1="-0.021448" x2="0.188" y2="0.022302" />
      <line x1="0.188" y1="-0.012499" x2="0.188" y2="-0.012501" />
      <line x1="0.188" y1="-0.020101" x2="0.188" y2="-0.012501" />
      <line x1="0.188" y1="-0.021448" x2="0.239" y2="-0.021448" />
      <line x1="0.239" y1="-0.021452" x2="0.239" y2="-0.021448" />
      <path d="M 0.19945,-0.021451 A 0.00295,3.30266054242361e-07 -4.910375367252416e-25 0,1 0.19355,-0.021451" />
      <path d="M 0.19355,-0.021451 A 0.00295,3.30266054242361e-07 -4.910375367252416e-25 1,1 0.19945,-0.021451" />
      <path d="M 0.21645,-0.021451 A 0.0029500000000000077,3.302660542423619e-07 -4.910375367252416e-25 0,1 0.21055,-0.021451" />
      <path d="M 0.21055,-0.021451 A 0.0029500000000000077,3.302660542423619e-07 -4.910375367252416e-25 1,1 0.21645,-0.021451" />
      <path d="M 0.23345,-0.021451 A 0.00295,3.30266054242361e-07 -4.910375367252416e-25 0,1 0.22755,-0.021451" />
      <path d="M 0.22755,-0.021451 A 0.00295,3.30266054242361e-07 -4.910375367252416e-25 1,1 0.23345,-0.021451" />
      <path d="M 0.19945,-0.021449 A 0.00295,3.30266054242361e-07 -4.910375367252416e-25 0,1 0.19355,-0.021449" />
      <path d="M 0.19355,-0.021449 A 0.00295,3.30266054242361e-07 -4.910375367252416e-25 1,1 0.19945,-0.021449" />
      <path d="M 0.21645,-0.021449 A 0.0029500000000000077,3.302660542423619e-07 -4.910375367252416e-25 0,1 0.21055,-0.021449" />
      <path d="M 0.21055,-0.021449 A 0.0029500000000000077,3.302660542423619e-07 -4.910375367252416e-25 1,1 0.21645,-0.021449" />
      <path d="M 0.23345,-0.021449 A 0.00295,3.30266054242361e-07 -4.910375367252416e-25 0,1 0.22755,-0.021449" />
      <path d="M 0.22755,-0.021449 A 0.00295,3.30266054242361e-07 -4.910375367252416e-25 1,1 0.23345,-0.021449" />
      <line x1="0.239" y1="-0.021448" x2="0.239" y2="0.022302" />
      <line x1="0.188" y1="-0.020099" x2="0.1914" y2="-0.020099" />
      <line x1="0.1914" y1="-0.020101" x2="0.1914" y2="-0.020099" />
      <line x1="0.188" y1="-0.020101" x2="0.1914" y2="-0.020101" />
      <line x1="0.1914" y1="-0.020099" x2="0.1914" y2="-0.016599" />
      <line x1="0.1914" y1="-0.016599" x2="0.1905" y2="-0.016599" />
      <line x1="0.1905" y1="-0.016599" x2="0.1905" y2="-0.012499" />
      <line x1="0.188" y1="-0.012499" x2="0.1905" y2="-0.012499" />
      <line x1="0.1905" y1="-0.012499" x2="0.1905" y2="-0.012501" />
      <line x1="0.188" y1="-0.012501" x2="0.1905" y2="-0.012501" />
      <line x1="0.1914" y1="-0.020101" x2="0.1914" y2="-0.016601" />
      <line x1="0.1914" y1="-0.016601" x2="0.1905" y2="-0.016601" />
      <line x1="0.1905" y1="-0.016601" x2="0.1905" y2="-0.012501" />
      <line x1="0.19945" y1="-0.021451" x2="0.19945" y2="-0.018951" />
      <path d="M 0.19945,-0.018951 A 0.00295,3.30266054242361e-07 -4.910375367252416e-25 0,1 0.19355,-0.018951" />
      <path d="M 0.19355,-0.018951 A 0.00295,3.30266054242361e-07 -4.910375367252416e-25 1,1 0.19945,-0.018951" />
      <line x1="0.21645" y1="-0.021451" x2="0.21645" y2="-0.018951" />
      <path d="M 0.21645,-0.018951 A 0.0029500000000000077,3.302660542423619e-07 -4.910375367252416e-25 0,1 0.21055,-0.018951" />
      <path d="M 0.21055,-0.018951 A 0.0029500000000000077,3.302660542423619e-07 -4.910375367252416e-25 1,1 0.21645,-0.018951" />
      <line x1="0.23345" y1="-0.021451" x2="0.23345" y2="-0.018951" />
      <path d="M 0.23345,-0.018951 A 0.00295,3.30266054242361e-07 -4.910375367252416e-25 0,1 0.22755,-0.018951" />
      <path d="M 0.22755,-0.018951 A 0.00295,3.30266054242361e-07 -4.910375367252416e-25 1,1 0.23345,-0.018951" />
      <line x1="0.19945" y1="-0.021449" x2="0.19945" y2="-0.018949" />
      <path d="M 0.19945,-0.018949 A 0.00295,3.30266054242361e-07 -4.910375367252416e-25 0,1 0.19355,-0.018949" />
      <path d="M 0.19355,-0.018949 A 0.00295,3.30266054242361e-07 -4.910375367252416e-25 1,1 0.19945,-0.018949" />
      <line x1="0.21645" y1="-0.021449" x2="0.21645" y2="-0.018949" />
      <path d="M 0.21645,-0.018949 A 0.0029500000000000077,3.302660542423619e-07 -4.910375367252416e-25 0,1 0.21055,-0.018949" />
      <path d="M 0.21055,-0.018949 A 0.0029500000000000077,3.302660542423619e-07 -4.910375367252416e-25 1,1 0.21645,-0.018949" />
      <line x1="0.23345" y1="-0.021449" x2="0.23345" y2="-0.018949" />
      <path d="M 0.23345,-0.018949 A 0.00295,3.30266054242361e-07 -4.910375367252416e-25 0,1 0.22755,-0.018949" />
      <path d="M 0.22755,-0.018949 A 0.00295,3.30266054242361e-07 -4.910375367252416e-25 1,1 0.23345,-0.018949" />
      <line x1="0.1914" y1="-0.016601" x2="0.1914" y2="-0.016599" />
      <line x1="0.1905" y1="-0.016599" x2="0.2365" y2="-0.016599" />
      <line x1="0.2365" y1="-0.016601" x2="0.2365" y2="-0.016599" />
      <line x1="0.1905" y1="-0.016601" x2="0.2365" y2="-0.016601" />
      <path d="M 0.1982,-0.016601 A 0.0017,1.9032281091932668e-07 -4.910375367252416e-25 0,1 0.1948,-0.016601" />
      <path d="M 0.1948,-0.016601 A 0.0017,1.9032281091932668e-07 -4.910375367252416e-25 1,1 0.1982,-0.016601" />
      <path d="M 0.2152,-0.016601 A 0.001700000000000007,1.9032281091932748e-07 -4.910375367252416e-25 0,1 0.2118,-0.016601" />
      <path d="M 0.2118,-0.016601 A 0.001700000000000007,1.9032281091932748e-07 -4.910375367252416e-25 1,1 0.2152,-0.016601" />
      <path d="M 0.2322,-0.016601 A 0.0017,1.9032281091932668e-07 -4.910375367252416e-25 0,1 0.2288,-0.016601" />
      <path d="M 0.2288,-0.016601 A 0.0017,1.9032281091932668e-07 -4.910375367252416e-25 1,1 0.2322,-0.016601" />
      <path d="M 0.1982,-0.016599 A 0.0017,1.9032281091932668e-07 -4.910375367252416e-25 0,1 0.1948,-0.016599" />
      <path d="M 0.1948,-0.016599 A 0.0017,1.9032281091932668e-07 -4.910375367252416e-25 1,1 0.1982,-0.016599" />
      <path d="M 0.2152,-0.016599 A 0.001700000000000007,1.9032281091932748e-07 -4.910375367252416e-25 0,1 0.2118,-0.016599" />
      <path d="M 0.2118,-0.016599 A 0.001700000000000007,1.9032281091932748e-07 -4.910375367252416e-25 1,1 0.2152,-0.016599" />
      <path d="M 0.2322,-0.016599 A 0.0017,1.9032281091932668e-07 -4.910375367252416e-25 0,1 0.2288,-0.016599" />
      <path d="M 0.2288,-0.016599 A 0.0017,1.9032281091932668e-07 -4.910375367252416e-25 1,1 0.2322,-0.016599" />
      <line x1="0.1905" y1="0.019799" x2="0.1905" y2="0.019801" />
      <line x1="0.1905" y1="-0.016599" x2="0.1905" y2="0.019801" />
      <line x1="0.1905" y1="-0.016601" x2="0.1905" y2="0.019799" />
      <path d="M 0.1982,-0.018951 A 0.0017,1.9032281091932668e-07 -4.910375367252416e-25 0,1 0.1948,-0.018951" />
      <path d="M 0.1948,-0.018951 A 0.0017,1.9032281091932668e-07 -4.910375367252416e-25 1,1 0.1982,-0.018951" />
      <path d="M 0.2152,-0.018951 A 0.001700000000000007,1.9032281091932748e-07 -4.910375367252416e-25 0,1 0.2118,-0.018951" />
      <path d="M 0.2118,-0.018951 A 0.001700000000000007,1.9032281091932748e-07 -4.910375367252416e-25 1,1 0.2152,-0.018951" />
      <path d="M 0.2322,-0.018951 A 0.0017,1.9032281091932668e-07 -4.910375367252416e-25 0,1 0.2288,-0.018951" />
      <path d="M 0.2288,-0.018951 A 0.0017,1.9032281091932668e-07 -4.910375367252416e-25 1,1 0.2322,-0.018951" />
      <path d="M 0.1982,-0.018949 A 0.0017,1.9032281091932668e-07 -4.910375367252416e-25 0,1 0.1948,-0.018949" />
      <path d="M 0.1948,-0.018949 A 0.0017,1.9032281091932668e-07 -4.910375367252416e-25 1,1 0.1982,-0.018949" />
      <path d="M 0.2152,-0.018949 A 0.001700000000000007,1.9032281091932748e-07 -4.910375367252416e-25 0,1 0.2118,-0.018949" />
      <path d="M 0.2118,-0.018949 A 0.001700000000000007,1.9032281091932748e-07 -4.910375367252416e-25 1,1 0.2152,-0.018949" />
      <path d="M 0.2322,-0.018949 A 0.0017,1.9032281091932668e-07 -4.910375367252416e-25 0,1 0.2288,-0.018949" />
      <path d="M 0.2288,-0.018949 A 0.0017,1.9032281091932668e-07 -4.910375367252416e-25 1,1 0.2322,-0.018949" />
      <line x1="0.2365" y1="-0.016599" x2="0.2365" y2="0.019801" />
      <line x1="0.1905" y1="0.019801" x2="0.2365" y2="0.019801" />
      <line x1="0.2365" y1="-0.016601" x2="0.2365" y2="0.019799" />
      <line x1="0.2365" y1="0.019799" x2="0.2365" y2="0.019801" />
      <line x1="0.1905" y1="0.019799" x2="0.2365" y2="0.019799" />
      <line x1="0.1982" y1="-0.018951" x2="0.1982" y2="-0.016601" />
      <line x1="0.2152" y1="-0.018951" x2="0.2152" y2="-0.016601" />
      <line x1="0.2322" y1="-0.018951" x2="0.2322" y2="-0.016601" />
      <line x1="0.1982" y1="-0.018949" x2="0.1982" y2="-0.016599" />
      <line x1="0.2152" y1="-0.018949" x2="0.2152" y2="-0.016599" />
      <line x1="0.2322" y1="-0.018949" x2="0.2322" y2="-0.016599" />
      <line x1="0.1897" y1="-0.018475" x2="0.188" y2="-0.018475" />
      <line x1="0.1897" y1="-0.014725" x2="0.188" y2="-0.014725" />
      <line x1="0.19355" y1="-0.021451" x2="0.19355" y2="-0.018951" />
      <line x1="0.21055" y1="-0.021451" x2="0.21055" y2="-0.018951" />
      <line x1="0.22755" y1="-0.021451" x2="0.22755" y2="-0.018951" />
      <line x1="0.19355" y1="-0.021449" x2="0.19355" y2="-0.018949" />
      <line x1="0.21055" y1="-0.021449" x2="0.21055" y2="-0.018949" />
      <line x1="0.22755" y1="-0.021449" x2="0.22755" y2="-0.018949" />
      <line x1="0.1948" y1="-0.018951" x2="0.1948" y2="-0.016601" />
      <line x1="0.2118" y1="-0.018951" x2="0.2118" y2="-0.016601" />
      <line x1="0.2288" y1="-0.018951" x2="0.2288" y2="-0.016601" />
      <line x1="0.1948" y1="-0.018949" x2="0.1948" y2="-0.016599" />
      <line x1="0.2118" y1="-0.018949" x2="0.2118" y2="-0.016599" />
      <line x1="0.2288" y1="-0.018949" x2="0.2288" y2="-0.016599" />
      <line x1="0.25915" y1="-0.020847" x2="0.26525" y2="-0.020847" />
      <line x1="0.25915" y1="-0.020847" x2="0.26525" y2="-0.020847" />
      <line x1="0.25915" y1="-0.020847" x2="0.25915" y2="-0.011747" />
      <line x1="0.25915" y1="-0.020847" x2="0.25915" y2="-0.011747" />
      <line x1="0.26525" y1="-0.020847" x2="0.26525" y2="-0.011747" />
      <line x1="0.25915" y1="-0.011747" x2="0.26525" y2="-0.011747" />
      <line x1="0.25985" y1="-0.020147" x2="0.26455" y2="-0.020147" />
      <line x1="0.25985" y1="-0.020147" x2="0.25985" y2="-0.012447" />
      <line x1="0.25985" y1="-0.012447" x2="0.26455" y2="-0.012447" />
      <line x1="0.26455" y1="-0.020147" x2="0.26455" y2="-0.012447" />
      <line x1="0.26525" y1="-0.020847" x2="0.26525" y2="-0.011747" />
      <line x1="0.25915" y1="-0.011747" x2="0.26525" y2="-0.011747" />
      <path d="M 0.2622,-0.017872 A 0.0003,0.00029999999811991356 -1.67041105186498e-14 0,0 0.2625,-0.018172" />
      <path d="M 0.2625,-0.018172 A 0.0003,0.00029999999811991356 -1.67041105186498e-14 0,0 0.2619,-0.018172" />
      <path d="M 0.2619,-0.018172 A 0.0003,0.00029999999811991356 -1.67041105186498e-14 0,0 0.2622,-0.017872" />
      <path d="M 0.2622,-0.014122 A 0.0003,0.00029999999811991356 -1.67041105186498e-14 0,0 0.2625,-0.014422" />
      <path d="M 0.2625,-0.014422 A 0.0003,0.00029999999811991356 -1.67041105186498e-14 0,0 0.2619,-0.014422" />
      <path d="M 0.2619,-0.014422 A 0.0003,0.00029999999811991356 -1.67041105186498e-14 0,0 0.2622,-0.014122" />
      <line x1="0.25985" y1="-0.020147" x2="0.26455" y2="-0.020147" />
      <line x1="0.25985" y1="-0.020147" x2="0.25985" y2="-0.012447" />
      <line x1="0.25985" y1="-0.012447" x2="0.26455" y2="-0.012447" />
      <line x1="0.26455" y1="-0.020147" x2="0.26455" y2="-0.012447" />
      <path d="M 0.2622,-0.017872 A 0.0003,0.00029999999811991356 -1.67041105186498e-14 0,0 0.2625,-0.018172" />
      <path d="M 0.2625,-0.018172 A 0.0003,0.00029999999811991356 -1.67041105186498e-14 0,0 0.2619,-0.018172" />
      <path d="M 0.2619,-0.018172 A 0.0003,0.00029999999811991356 -1.67041105186498e-14 0,0 0.2622,-0.017872" />
      <path d="M 0.2622,-0.014122 A 0.0003,0.00029999999811991356 -1.67041105186498e-14 0,0 0.2625,-0.014422" />
      <path d="M 0.2625,-0.014422 A 0.0003,0.00029999999811991356 -1.67041105186498e-14 0,0 0.2619,-0.014422" />
      <path d="M 0.2619,-0.014422 A 0.0003,0.00029999999811991356 -1.67041105186498e-14 0,0 0.2622,-0.014122" />
      <line x1="0.247" y1="-0.021447" x2="0.247" y2="0.022303" />
      <line x1="0.247" y1="-0.021447" x2="0.2774" y2="-0.021447" />
      <line x1="0.2774" y1="-0.021447" x2="0.2774" y2="0.022303" />
      <line x1="0.26675" y1="-0.020097" x2="0.25765" y2="-0.020097" />
      <line x1="0.26675" y1="-0.020097" x2="0.26675" y2="-0.012497" />
      <line x1="0.26675" y1="-0.012497" x2="0.25765" y2="-0.012497" />
      <line x1="0.25765" y1="-0.020097" x2="0.25765" y2="-0.012497" />
      <line x1="0.247" y1="-0.021447" x2="0.247" y2="-0.021453" />
      <line x1="0.2774" y1="-0.021447" x2="0.2774" y2="-0.021453" />
      <path d="M 0.25195,-0.021448 A 0.00295,3.3026708464746427e-07 2.612860989258232e-39 0,1 0.2549,-0.021448" />
      <path d="M 0.2549,-0.021448 A 0.0029500000000000077,3.3026708464746517e-07 2.612860989258232e-39 0,1 0.249,-0.021448" />
      <path d="M 0.249,-0.021448 A 0.00295,3.3026708464746427e-07 2.612860989258232e-39 0,1 0.25195,-0.021448" />
      <path d="M 0.25195,-0.02145 A 0.00295,3.3026708464746427e-07 2.612860989258232e-39 0,1 0.2549,-0.02145" />
      <path d="M 0.2549,-0.02145 A 0.0029500000000000077,3.3026708464746517e-07 2.612860989258232e-39 0,1 0.249,-0.02145" />
      <path d="M 0.249,-0.02145 A 0.00295,3.3026708464746427e-07 2.612860989258232e-39 0,1 0.25195,-0.02145" />
      <path d="M 0.25195,-0.021452 A 0.00295,3.3026708464746427e-07 2.612860989258232e-39 0,1 0.2549,-0.021452" />
      <path d="M 0.2549,-0.021452 A 0.0029500000000000077,3.3026708464746517e-07 2.612860989258232e-39 0,1 0.249,-0.021452" />
      <path d="M 0.249,-0.021452 A 0.00295,3.3026708464746427e-07 2.612860989258232e-39 0,1 0.25195,-0.021452" />
      <path d="M 0.27245,-0.021448 A 0.00295,3.3026708464746427e-07 2.612860989258232e-39 0,1 0.2754,-0.021448" />
      <path d="M 0.2754,-0.021448 A 0.00295,3.3026708464746427e-07 2.612860989258232e-39 0,1 0.2695,-0.021448" />
      <path d="M 0.2695,-0.021448 A 0.00295,3.3026708464746427e-07 2.612860989258232e-39 0,1 0.27245,-0.021448" />
      <path d="M 0.27245,-0.02145 A 0.00295,3.3026708464746427e-07 2.612860989258232e-39 0,1 0.2754,-0.02145" />
      <path d="M 0.2754,-0.02145 A 0.00295,3.3026708464746427e-07 2.612860989258232e-39 0,1 0.2695,-0.02145" />
      <path d="M 0.2695,-0.02145 A 0.00295,3.3026708464746427e-07 2.612860989258232e-39 0,1 0.27245,-0.02145" />
      <path d="M 0.27245,-0.021452 A 0.00295,3.3026708464746427e-07 2.612860989258232e-39 0,1 0.2754,-0.021452" />
      <path d="M 0.2754,-0.021452 A 0.00295,3.3026708464746427e-07 2.612860989258232e-39 0,1 0.2695,-0.021452" />
      <path d="M 0.2695,-0.021452 A 0.00295,3.3026708464746427e-07 2.612860989258232e-39 0,1 0.27245,-0.021452" />
      <line x1="0.25765" y1="-0.020098" x2="0.26675" y2="-0.020098" />
      <line x1="0.26675" y1="-0.020098" x2="0.26675" y2="-0.016598" />
      <line x1="0.26675" y1="-0.016597" x2="0.26675" y2="-0.012497" />
      <line x1="0.26675" y1="-0.012497" x2="0.25765" y2="-0.012497" />
      <line x1="0.25765" y1="-0.020098" x2="0.25765" y2="-0.016598" />
      <line x1="0.25765" y1="-0.016597" x2="0.25765" y2="-0.012497" />
      <path d="M 0.25195,-0.018948 A 0.00295,3.3026708464746427e-07 2.612860989258232e-39 0,1 0.2549,-0.018948" />
      <path d="M 0.2549,-0.018948 A 0.0029500000000000077,3.3026708464746517e-07 2.612860989258232e-39 0,1 0.249,-0.018948" />
      <path d="M 0.249,-0.018948 A 0.00295,3.3026708464746427e-07 2.612860989258232e-39 0,1 0.25195,-0.018948" />
      <path d="M 0.25195,-0.01895 A 0.00295,3.3026708464746427e-07 2.612860989258232e-39 0,1 0.2549,-0.01895" />
      <path d="M 0.2549,-0.01895 A 0.0029500000000000077,3.3026708464746517e-07 2.612860989258232e-39 0,1 0.249,-0.01895" />
      <path d="M 0.249,-0.01895 A 0.00295,3.3026708464746427e-07 2.612860989258232e-39 0,1 0.25195,-0.01895" />
      <path d="M 0.25195,-0.018952 A 0.00295,3.3026708464746427e-07 2.612860989258232e-39 0,1 0.2549,-0.018952" />
      <path d="M 0.2549,-0.018952 A 0.0029500000000000077,3.3026708464746517e-07 2.612860989258232e-39 0,1 0.249,-0.018952" />
      <path d="M 0.249,-0.018952 A 0.00295,3.3026708464746427e-07 2.612860989258232e-39 0,1 0.25195,-0.018952" />
      <path d="M 0.27245,-0.018948 A 0.00295,3.3026708464746427e-07 2.612860989258232e-39 0,1 0.2754,-0.018948" />
      <path d="M 0.2754,-0.018948 A 0.00295,3.3026708464746427e-07 2.612860989258232e-39 0,1 0.2695,-0.018948" />
      <path d="M 0.2695,-0.018948 A 0.00295,3.3026708464746427e-07 2.612860989258232e-39 0,1 0.27245,-0.018948" />
      <path d="M 0.27245,-0.01895 A 0.00295,3.3026708464746427e-07 2.612860989258232e-39 0,1 0.2754,-0.01895" />
      <path d="M 0.2754,-0.01895 A 0.00295,3.3026708464746427e-07 2.612860989258232e-39 0,1 0.2695,-0.01895" />
      <path d="M 0.2695,-0.01895 A 0.00295,3.3026708464746427e-07 2.612860989258232e-39 0,1 0.27245,-0.01895" />
      <path d="M 0.27245,-0.018952 A 0.00295,3.3026708464746427e-07 2.612860989258232e-39 0,1 0.2754,-0.018952" />
      <path d="M 0.2754,-0.018952 A 0.00295,3.3026708464746427e-07 2.612860989258232e-39 0,1 0.2695,-0.018952" />
      <path d="M 0.2695,-0.018952 A 0.00295,3.3026708464746427e-07 2.612860989258232e-39 0,1 0.27245,-0.018952" />
      <line x1="0.25765" y1="-0.016598" x2="0.26675" y2="-0.016598" />
      <line x1="0.2495" y1="-0.016597" x2="0.25765" y2="-0.016597" />
      <line x1="0.26675" y1="-0.016597" x2="0.2749" y2="-0.016597" />
      <line x1="0.2749" y1="-0.016597" x2="0.2749" y2="-0.016603" />
      <line x1="0.2495" y1="-0.016603" x2="0.2749" y2="-0.016603" />
      <line x1="0.2495" y1="-0.016597" x2="0.2495" y2="-0.016603" />
      <path d="M 0.25195,-0.016598 A 0.0017,1.9032340471209804e-07 2.612860989258232e-39 0,1 0.25365,-0.016598" />
      <path d="M 0.25365,-0.016598 A 0.001700000000000007,1.9032340471209884e-07 2.612860989258232e-39 0,1 0.25025,-0.016598" />
      <path d="M 0.25025,-0.016598 A 0.0017,1.9032340471209804e-07 2.612860989258232e-39 0,1 0.25195,-0.016598" />
      <path d="M 0.25195,-0.0166 A 0.0017,1.9032340471209804e-07 2.612860989258232e-39 0,1 0.25365,-0.0166" />
      <path d="M 0.25365,-0.0166 A 0.001700000000000007,1.9032340471209884e-07 2.612860989258232e-39 0,1 0.25025,-0.0166" />
      <path d="M 0.25025,-0.0166 A 0.0017,1.9032340471209804e-07 2.612860989258232e-39 0,1 0.25195,-0.0166" />
      <path d="M 0.25195,-0.016602 A 0.0017,1.9032340471209804e-07 2.612860989258232e-39 0,1 0.25365,-0.016602" />
      <path d="M 0.25365,-0.016602 A 0.001700000000000007,1.9032340471209884e-07 2.612860989258232e-39 0,1 0.25025,-0.016602" />
      <path d="M 0.25025,-0.016602 A 0.0017,1.9032340471209804e-07 2.612860989258232e-39 0,1 0.25195,-0.016602" />
      <path d="M 0.27245,-0.016598 A 0.0017,1.9032340471209804e-07 2.612860989258232e-39 0,1 0.27415,-0.016598" />
      <path d="M 0.27415,-0.016598 A 0.001700000000000007,1.9032340471209884e-07 2.612860989258232e-39 0,1 0.27075,-0.016598" />
      <path d="M 0.27075,-0.016598 A 0.0017,1.9032340471209804e-07 2.612860989258232e-39 0,1 0.27245,-0.016598" />
      <path d="M 0.27245,-0.0166 A 0.0017,1.9032340471209804e-07 2.612860989258232e-39 0,1 0.27415,-0.0166" />
      <path d="M 0.27415,-0.0166 A 0.001700000000000007,1.9032340471209884e-07 2.612860989258232e-39 0,1 0.27075,-0.0166" />
      <path d="M 0.27075,-0.0166 A 0.0017,1.9032340471209804e-07 2.612860989258232e-39 0,1 0.27245,-0.0166" />
      <path d="M 0.27245,-0.016602 A 0.0017,1.9032340471209804e-07 2.612860989258232e-39 0,1 0.27415,-0.016602" />
      <path d="M 0.27415,-0.016602 A 0.001700000000000007,1.9032340471209884e-07 2.612860989258232e-39 0,1 0.27075,-0.016602" />
      <path d="M 0.27075,-0.016602 A 0.0017,1.9032340471209804e-07 2.612860989258232e-39 0,1 0.27245,-0.016602" />
      <line x1="0.2495" y1="0.019803" x2="0.2749" y2="0.019803" />
      <line x1="0.2749" y1="-0.016597" x2="0.2749" y2="0.019803" />
      <line x1="0.2495" y1="-0.016597" x2="0.2495" y2="0.019803" />
      <path d="M 0.25195,-0.018948 A 0.0017,1.9032340471209804e-07 2.612860989258232e-39 0,1 0.25365,-0.018948" />
      <path d="M 0.25365,-0.018948 A 0.001700000000000007,1.9032340471209884e-07 2.612860989258232e-39 0,1 0.25025,-0.018948" />
      <path d="M 0.25025,-0.018948 A 0.0017,1.9032340471209804e-07 2.612860989258232e-39 0,1 0.25195,-0.018948" />
      <path d="M 0.25195,-0.01895 A 0.0017,1.9032340471209804e-07 2.612860989258232e-39 0,1 0.25365,-0.01895" />
      <path d="M 0.25365,-0.01895 A 0.001700000000000007,1.9032340471209884e-07 2.612860989258232e-39 0,1 0.25025,-0.01895" />
      <path d="M 0.25025,-0.01895 A 0.0017,1.9032340471209804e-07 2.612860989258232e-39 0,1 0.25195,-0.01895" />
      <path d="M 0.25195,-0.018952 A 0.0017,1.9032340471209804e-07 2.612860989258232e-39 0,1 0.25365,-0.018952" />
      <path d="M 0.25365,-0.018952 A 0.001700000000000007,1.9032340471209884e-07 2.612860989258232e-39 0,1 0.25025,-0.018952" />
      <path d="M 0.25025,-0.018952 A 0.0017,1.9032340471209804e-07 2.612860989258232e-39 0,1 0.25195,-0.018952" />
      <path d="M 0.27245,-0.018948 A 0.0017,1.9032340471209804e-07 2.612860989258232e-39 0,1 0.27415,-0.018948" />
      <path d="M 0.27415,-0.018948 A 0.001700000000000007,1.9032340471209884e-07 2.612860989258232e-39 0,1 0.27075,-0.018948" />
      <path d="M 0.27075,-0.018948 A 0.0017,1.9032340471209804e-07 2.612860989258232e-39 0,1 0.27245,-0.018948" />
      <path d="M 0.27245,-0.01895 A 0.0017,1.9032340471209804e-07 2.612860989258232e-39 0,1 0.27415,-0.01895" />
      <path d="M 0.27415,-0.01895 A 0.001700000000000007,1.9032340471209884e-07 2.612860989258232e-39 0,1 0.27075,-0.01895" />
      <path d="M 0.27075,-0.01895 A 0.0017,1.9032340471209804e-07 2.612860989258232e-39 0,1 0.27245,-0.01895" />
      <path d="M 0.27245,-0.018952 A 0.0017,1.9032340471209804e-07 2.612860989258232e-39 0,1 0.27415,-0.018952" />
      <path d="M 0.27415,-0.018952 A 0.001700000000000007,1.9032340471209884e-07 2.612860989258232e-39 0,1 0.27075,-0.018952" />
      <path d="M 0.27075,-0.018952 A 0.0017,1.9032340471209804e-07 2.612860989258232e-39 0,1 0.27245,-0.018952" />
      <line x1="0.2749" y1="-0.016603" x2="0.2749" y2="0.019797" />
      <line x1="0.2749" y1="0.019803" x2="0.2749" y2="0.019797" />
      <line x1="0.2495" y1="-0.016603" x2="0.2495" y2="0.019797" />
      <line x1="0.2495" y1="0.019797" x2="0.2749" y2="0.019797" />
      <line x1="0.2495" y1="0.019803" x2="0.2495" y2="0.019797" />
      <line x1="0.2549" y1="-0.021448" x2="0.2549" y2="-0.018948" />
      <line x1="0.249" y1="-0.021448" x2="0.249" y2="-0.018948" />
      <line x1="0.2549" y1="-0.02145" x2="0.2549" y2="-0.01895" />
      <line x1="0.249" y1="-0.02145" x2="0.249" y2="-0.01895" />
      <line x1="0.2549" y1="-0.021452" x2="0.2549" y2="-0.018952" />
      <line x1="0.249" y1="-0.021452" x2="0.249" y2="-0.018952" />
      <line x1="0.2754" y1="-0.021448" x2="0.2754" y2="-0.018948" />
      <line x1="0.2695" y1="-0.021448" x2="0.2695" y2="-0.018948" />
      <line x1="0.2754" y1="-0.02145" x2="0.2754" y2="-0.01895" />
      <line x1="0.2695" y1="-0.02145" x2="0.2695" y2="-0.01895" />
      <line x1="0.2754" y1="-0.021452" x2="0.2754" y2="-0.018952" />
      <line x1="0.2695" y1="-0.021452" x2="0.2695" y2="-0.018952" />
      <line x1="0.25365" y1="-0.018948" x2="0.25365" y2="-0.016598" />
      <line x1="0.25025" y1="-0.018948" x2="0.25025" y2="-0.016598" />
      <line x1="0.25365" y1="-0.01895" x2="0.25365" y2="-0.0166" />
      <line x1="0.25025" y1="-0.01895" x2="0.25025" y2="-0.0166" />
      <line x1="0.25365" y1="-0.018952" x2="0.25365" y2="-0.016602" />
      <line x1="0.25025" y1="-0.018952" x2="0.25025" y2="-0.016602" />
      <line x1="0.27415" y1="-0.018948" x2="0.27415" y2="-0.016598" />
      <line x1="0.27075" y1="-0.018948" x2="0.27075" y2="-0.016598" />
      <line x1="0.27415" y1="-0.01895" x2="0.27415" y2="-0.0166" />
      <line x1="0.27075" y1="-0.01895" x2="0.27075" y2="-0.0166" />
      <line x1="0.27415" y1="-0.018952" x2="0.27415" y2="-0.016602" />
      <line x1="0.27075" y1="-0.018952" x2="0.27075" y2="-0.016602" />
    </g>
  </g>
  <text x="0.025500" y="-0.027978" text-anchor="middle" font-family="'Input Sans Narrow', 'DejaVu Sans', Arial, sans-serif" font-size="0.002500" font-weight="bold" fill="#333">A-A</text>
  <text x="0.025500" y="-0.024478" text-anchor="middle" font-family="'Input Sans Narrow', 'DejaVu Sans', Arial, sans-serif" font-size="0.001800" fill="#888">top_shaft</text>
  <line x1="0.000000" y1="0.016000" x2="0.000000" y2="0.019000" stroke="#5C7080" stroke-width="0.000140" stroke-opacity="0.5"/>
  <line x1="0.051000" y1="0.016000" x2="0.051000" y2="0.019000" stroke="#5C7080" stroke-width="0.000140" stroke-opacity="0.5"/>
  <line x1="0.000000" y1="0.017400" x2="0.000000" y2="0.019000" stroke="#5C7080" stroke-width="0.000200"/>
  <line x1="0.051000" y1="0.017400" x2="0.051000" y2="0.019000" stroke="#5C7080" stroke-width="0.000200"/>
  <line x1="0.000000" y1="0.018200" x2="0.051000" y2="0.018200" stroke="#5C7080" stroke-width="0.000200"/>
  <polygon points="0.000000,0.018200 0.001500,0.017600 0.001500,0.018800" fill="#5C7080"/>
  <polygon points="0.051000,0.018200 0.049500,0.017600 0.049500,0.018800" fill="#5C7080"/>
  <text x="0.025500" y="0.017000" text-anchor="middle" font-family="'Input Sans Narrow', 'DejaVu Sans', Arial, sans-serif" font-size="0.001600" fill="#5C7080">51.0</text>
  <line x1="0.051800" y1="-0.015200" x2="0.054800" y2="-0.015200" stroke="#5C7080" stroke-width="0.000140" stroke-opacity="0.5"/>
  <line x1="0.051800" y1="0.015200" x2="0.054800" y2="0.015200" stroke="#5C7080" stroke-width="0.000140" stroke-opacity="0.5"/>
  <line x1="0.053200" y1="-0.015200" x2="0.054800" y2="-0.015200" stroke="#5C7080" stroke-width="0.000200"/>
  <line x1="0.053200" y1="0.015200" x2="0.054800" y2="0.015200" stroke="#5C7080" stroke-width="0.000200"/>
  <line x1="0.054000" y1="-0.015200" x2="0.054000" y2="0.015200" stroke="#5C7080" stroke-width="0.000200"/>
  <polygon points="0.054000,-0.015200 0.053400,-0.013700 0.054600,-0.013700" fill="#5C7080"/>
  <polygon points="0.054000,0.015200 0.053400,0.013700 0.054600,0.013700" fill="#5C7080"/>
  <text x="0.055500" y="-0.000000" text-anchor="middle" dominant-baseline="central" font-family="'Input Sans Narrow', 'DejaVu Sans', Arial, sans-serif" font-size="0.001600" fill="#5C7080" transform="rotate(-90 0.055500 -0.000000)">30.4</text>
  <text x="0.084500" y="-0.027978" text-anchor="middle" font-family="'Input Sans Narrow', 'DejaVu Sans', Arial, sans-serif" font-size="0.002500" font-weight="bold" fill="#333">B-B</text>
  <text x="0.084500" y="-0.024478" text-anchor="middle" font-family="'Input Sans Narrow', 'DejaVu Sans', Arial, sans-serif" font-size="0.001800" fill="#888">mid_body</text>
  <text x="0.146250" y="-0.027978" text-anchor="middle" font-family="'Input Sans Narrow', 'DejaVu Sans', Arial, sans-serif" font-size="0.002500" font-weight="bold" fill="#333">C-C</text>
  <text x="0.146250" y="-0.024478" text-anchor="middle" font-family="'Input Sans Narrow', 'DejaVu Sans', Arial, sans-serif" font-size="0.001800" fill="#888">ears</text>
  <line x1="0.118000" y1="0.016000" x2="0.118000" y2="0.019000" stroke="#5C7080" stroke-width="0.000140" stroke-opacity="0.5"/>
  <line x1="0.174500" y1="0.016000" x2="0.174500" y2="0.019000" stroke="#5C7080" stroke-width="0.000140" stroke-opacity="0.5"/>
  <line x1="0.118000" y1="0.017400" x2="0.118000" y2="0.019000" stroke="#5C7080" stroke-width="0.000200"/>
  <line x1="0.174500" y1="0.017400" x2="0.174500" y2="0.019000" stroke="#5C7080" stroke-width="0.000200"/>
  <line x1="0.118000" y1="0.018200" x2="0.174500" y2="0.018200" stroke="#5C7080" stroke-width="0.000200"/>
  <polygon points="0.118000,0.018200 0.119500,0.017600 0.119500,0.018800" fill="#5C7080"/>
  <polygon points="0.174500,0.018200 0.173000,0.017600 0.173000,0.018800" fill="#5C7080"/>
  <text x="0.146250" y="0.017000" text-anchor="middle" font-family="'Input Sans Narrow', 'DejaVu Sans', Arial, sans-serif" font-size="0.001600" fill="#5C7080">56.5</text>
  <line x1="0.175300" y1="-0.015200" x2="0.178300" y2="-0.015200" stroke="#5C7080" stroke-width="0.000140" stroke-opacity="0.5"/>
  <line x1="0.175300" y1="0.015200" x2="0.178300" y2="0.015200" stroke="#5C7080" stroke-width="0.000140" stroke-opacity="0.5"/>
  <line x1="0.176700" y1="-0.015200" x2="0.178300" y2="-0.015200" stroke="#5C7080" stroke-width="0.000200"/>
  <line x1="0.176700" y1="0.015200" x2="0.178300" y2="0.015200" stroke="#5C7080" stroke-width="0.000200"/>
  <line x1="0.177500" y1="-0.015200" x2="0.177500" y2="0.015200" stroke="#5C7080" stroke-width="0.000200"/>
  <polygon points="0.177500,-0.015200 0.176900,-0.013700 0.178100,-0.013700" fill="#5C7080"/>
  <polygon points="0.177500,0.015200 0.176900,0.013700 0.178100,0.013700" fill="#5C7080"/>
  <text x="0.179000" y="-0.000000" text-anchor="middle" dominant-baseline="central" font-family="'Input Sans Narrow', 'DejaVu Sans', Arial, sans-serif" font-size="0.001600" fill="#5C7080" transform="rotate(-90 0.179000 -0.000000)">30.4</text>
  <text x="0.210750" y="-0.027978" text-anchor="middle" font-family="'Input Sans Narrow', 'DejaVu Sans', Arial, sans-serif" font-size="0.002500" font-weight="bold" fill="#333">side_XZ</text>
  <line x1="0.182500" y1="0.022252" x2="0.182500" y2="0.025252" stroke="#5C7080" stroke-width="0.000140" stroke-opacity="0.5"/>
  <line x1="0.239000" y1="0.022252" x2="0.239000" y2="0.025252" stroke="#5C7080" stroke-width="0.000140" stroke-opacity="0.5"/>
  <line x1="0.182500" y1="0.023652" x2="0.182500" y2="0.025252" stroke="#5C7080" stroke-width="0.000200"/>
  <line x1="0.239000" y1="0.023652" x2="0.239000" y2="0.025252" stroke="#5C7080" stroke-width="0.000200"/>
  <line x1="0.182500" y1="0.024452" x2="0.239000" y2="0.024452" stroke="#5C7080" stroke-width="0.000200"/>
  <polygon points="0.182500,0.024452 0.184000,0.023852 0.184000,0.025052" fill="#5C7080"/>
  <polygon points="0.239000,0.024452 0.237500,0.023852 0.237500,0.025052" fill="#5C7080"/>
  <text x="0.210750" y="0.023252" text-anchor="middle" font-family="'Input Sans Narrow', 'DejaVu Sans', Arial, sans-serif" font-size="0.001600" fill="#5C7080">56.5</text>
  <line x1="0.239800" y1="-0.022302" x2="0.242800" y2="-0.022302" stroke="#5C7080" stroke-width="0.000140" stroke-opacity="0.5"/>
  <line x1="0.239800" y1="0.021452" x2="0.242800" y2="0.021452" stroke="#5C7080" stroke-width="0.000140" stroke-opacity="0.5"/>
  <line x1="0.241200" y1="-0.022302" x2="0.242800" y2="-0.022302" stroke="#5C7080" stroke-width="0.000200"/>
  <line x1="0.241200" y1="0.021452" x2="0.242800" y2="0.021452" stroke="#5C7080" stroke-width="0.000200"/>
  <line x1="0.242000" y1="-0.022302" x2="0.242000" y2="0.021452" stroke="#5C7080" stroke-width="0.000200"/>
  <polygon points="0.242000,-0.022302 0.241400,-0.020802 0.242600,-0.020802" fill="#5C7080"/>
  <polygon points="0.242000,0.021452 0.241400,0.019952 0.242600,0.019952" fill="#5C7080"/>
  <text x="0.243500" y="-0.000425" text-anchor="middle" dominant-baseline="central" font-family="'Input Sans Narrow', 'DejaVu Sans', Arial, sans-serif" font-size="0.001600" fill="#5C7080" transform="rotate(-90 0.243500 -0.000425)">43.8</text>
  <line x1="0.179500" y1="-0.016300" x2="0.242000" y2="-0.016300" stroke="#555" stroke-width="0.000250" stroke-dasharray="0.002500,0.000800,0.000500,0.000800"/>
  <text x="0.178000" y="-0.015700" text-anchor="end" font-family="'Input Sans Narrow', 'DejaVu Sans', Arial, sans-serif" font-size="0.002000" font-weight="bold" fill="#555">A</text>
  <text x="0.243500" y="-0.015700" text-anchor="start" font-family="'Input Sans Narrow', 'DejaVu Sans', Arial, sans-serif" font-size="0.002000" font-weight="bold" fill="#555">A</text>
  <line x1="0.179500" y1="-0.000000" x2="0.242000" y2="-0.000000" stroke="#555" stroke-width="0.000250" stroke-dasharray="0.002500,0.000800,0.000500,0.000800"/>
  <text x="0.178000" y="0.000600" text-anchor="end" font-family="'Input Sans Narrow', 'DejaVu Sans', Arial, sans-serif" font-size="0.002000" font-weight="bold" fill="#555">B</text>
  <text x="0.243500" y="0.000600" text-anchor="start" font-family="'Input Sans Narrow', 'DejaVu Sans', Arial, sans-serif" font-size="0.002000" font-weight="bold" fill="#555">B</text>
  <line x1="0.179500" y1="0.017350" x2="0.242000" y2="0.017350" stroke="#555" stroke-width="0.000250" stroke-dasharray="0.002500,0.000800,0.000500,0.000800"/>
  <text x="0.178000" y="0.017950" text-anchor="end" font-family="'Input Sans Narrow', 'DejaVu Sans', Arial, sans-serif" font-size="0.002000" font-weight="bold" fill="#555">C</text>
  <text x="0.243500" y="0.017950" text-anchor="start" font-family="'Input Sans Narrow', 'DejaVu Sans', Arial, sans-serif" font-size="0.002000" font-weight="bold" fill="#555">C</text>
  <text x="0.262200" y="-0.027978" text-anchor="middle" font-family="'Input Sans Narrow', 'DejaVu Sans', Arial, sans-serif" font-size="0.002500" font-weight="bold" fill="#333">side_YZ</text>
  <line x1="0.247000" y1="0.022253" x2="0.247000" y2="0.025253" stroke="#5C7080" stroke-width="0.000140" stroke-opacity="0.5"/>
  <line x1="0.277400" y1="0.022253" x2="0.277400" y2="0.025253" stroke="#5C7080" stroke-width="0.000140" stroke-opacity="0.5"/>
  <line x1="0.247000" y1="0.023653" x2="0.247000" y2="0.025253" stroke="#5C7080" stroke-width="0.000200"/>
  <line x1="0.277400" y1="0.023653" x2="0.277400" y2="0.025253" stroke="#5C7080" stroke-width="0.000200"/>
  <line x1="0.247000" y1="0.024453" x2="0.277400" y2="0.024453" stroke="#5C7080" stroke-width="0.000200"/>
  <polygon points="0.247000,0.024453 0.248500,0.023853 0.248500,0.025053" fill="#5C7080"/>
  <polygon points="0.277400,0.024453 0.275900,0.023853 0.275900,0.025053" fill="#5C7080"/>
  <text x="0.262200" y="0.023253" text-anchor="middle" font-family="'Input Sans Narrow', 'DejaVu Sans', Arial, sans-serif" font-size="0.001600" fill="#5C7080">30.4</text>
  <line x1="0.278200" y1="-0.022303" x2="0.281200" y2="-0.022303" stroke="#5C7080" stroke-width="0.000140" stroke-opacity="0.5"/>
  <line x1="0.278200" y1="0.021453" x2="0.281200" y2="0.021453" stroke="#5C7080" stroke-width="0.000140" stroke-opacity="0.5"/>
  <line x1="0.279600" y1="-0.022303" x2="0.281200" y2="-0.022303" stroke="#5C7080" stroke-width="0.000200"/>
  <line x1="0.279600" y1="0.021453" x2="0.281200" y2="0.021453" stroke="#5C7080" stroke-width="0.000200"/>
  <line x1="0.280400" y1="-0.022303" x2="0.280400" y2="0.021453" stroke="#5C7080" stroke-width="0.000200"/>
  <polygon points="0.280400,-0.022303 0.279800,-0.020803 0.281000,-0.020803" fill="#5C7080"/>
  <polygon points="0.280400,0.021453 0.279800,0.019953 0.281000,0.019953" fill="#5C7080"/>
  <text x="0.281900" y="-0.000425" text-anchor="middle" dominant-baseline="central" font-family="'Input Sans Narrow', 'DejaVu Sans', Arial, sans-serif" font-size="0.001600" fill="#5C7080" transform="rotate(-90 0.281900 -0.000425)">43.8</text>
  <line x1="0.244000" y1="-0.016300" x2="0.280400" y2="-0.016300" stroke="#555" stroke-width="0.000250" stroke-dasharray="0.002500,0.000800,0.000500,0.000800"/>
  <text x="0.242500" y="-0.015700" text-anchor="end" font-family="'Input Sans Narrow', 'DejaVu Sans', Arial, sans-serif" font-size="0.002000" font-weight="bold" fill="#555">A</text>
  <text x="0.281900" y="-0.015700" text-anchor="start" font-family="'Input Sans Narrow', 'DejaVu Sans', Arial, sans-serif" font-size="0.002000" font-weight="bold" fill="#555">A</text>
  <line x1="0.244000" y1="-0.000000" x2="0.280400" y2="-0.000000" stroke="#555" stroke-width="0.000250" stroke-dasharray="0.002500,0.000800,0.000500,0.000800"/>
  <text x="0.242500" y="0.000600" text-anchor="end" font-family="'Input Sans Narrow', 'DejaVu Sans', Arial, sans-serif" font-size="0.002000" font-weight="bold" fill="#555">B</text>
  <text x="0.281900" y="0.000600" text-anchor="start" font-family="'Input Sans Narrow', 'DejaVu Sans', Arial, sans-serif" font-size="0.002000" font-weight="bold" fill="#555">B</text>
  <line x1="0.244000" y1="0.017350" x2="0.280400" y2="0.017350" stroke="#555" stroke-width="0.000250" stroke-dasharray="0.002500,0.000800,0.000500,0.000800"/>
  <text x="0.242500" y="0.017950" text-anchor="end" font-family="'Input Sans Narrow', 'DejaVu Sans', Arial, sans-serif" font-size="0.002000" font-weight="bold" fill="#555">C</text>
  <text x="0.281900" y="0.017950" text-anchor="start" font-family="'Input Sans Narrow', 'DejaVu Sans', Arial, sans-serif" font-size="0.002000" font-weight="bold" fill="#555">C</text>
  <text x="-0.001175" y="0.029628" font-family="'Input Sans Narrow', 'DejaVu Sans', Arial, sans-serif" font-size="0.003500" font-weight="bold" fill="#222">pocket_bracket</text>
  <line x1="-0.001175" y1="0.033628" x2="0.008825" y2="0.033628" stroke="#333" stroke-width="0.000350"/>
  <line x1="-0.001175" y1="0.032628" x2="-0.001175" y2="0.034628" stroke="#333" stroke-width="0.000250"/>
  <line x1="0.008825" y1="0.032628" x2="0.008825" y2="0.034628" stroke="#333" stroke-width="0.000250"/>
  <text x="0.010325" y="0.034328" font-family="'Input Sans Narrow', 'DejaVu Sans', Arial, sans-serif" font-size="0.001800" fill="#888">10 mm</text>
  <rect x="0.028825" y="0.027128" width="0.004000" height="0.002500" fill="url(#hatch_servo)" stroke="rgb(60,60,60)" stroke-width="0.000300"/>
  <text x="0.034325" y="0.029128" font-family="'Input Sans Narrow', 'DejaVu Sans', Arial, sans-serif" font-size="0.001800" fill="rgb(60,60,60)">servo</text>
  <rect x="0.028825" y="0.030628" width="0.004000" height="0.002500" fill="url(#hatch_bracket)" stroke="rgb(50,120,190)" stroke-width="0.000300"/>
  <text x="0.034325" y="0.032628" font-family="'Input Sans Narrow', 'DejaVu Sans', Arial, sans-serif" font-size="0.001800" fill="rgb(50,120,190)">bracket</text>
</svg>