<?xml version='1.0' encoding='utf-8'?>
<svg width="321.39mm" height="83.77mm" viewBox="-0.003175 -0.021575 0.321389 0.083767" version="1.1" xmlns="http://www.w3.org/2000/svg">
  <defs>
    <pattern id="hatch_servo" width="0.0012" height="0.0012" patternUnits="userSpaceOnUse" patternTransform="rotate(45)">
      <line x1="0" y1="0" x2="0" y2="0.0012" stroke="rgb(60,60,60)" stroke-width="0.0001" stroke-opacity="0.6"/>
    </pattern>
    <pattern id="hatch_coupler" width="0.0012" height="0.0012" patternUnits="userSpaceOnUse" patternTransform="rotate(75)">
      <line x1="0" y1="0" x2="0" y2="0.0012" stroke="rgb(220,60,40)" stroke-width="0.0001" stroke-opacity="0.6"/>
    </pattern>
  </defs>
  <g transform="scale(1,-1)" stroke-linecap="round">
    <g fill="none" stroke="rgb(60,60,60)" stroke-width="0.00035" id="servo">
      <path d="M 0.004,0.0124 A 0.004,0.004 180.0 0,1 0.0,0.0084" />
      <line x1="0.004" y1="0.0124" x2="0.0414" y2="0.0124" />
      <path d="M 0.0454,0.0084 A 0.004,0.004 0.0 0,1 0.0414,0.0124" />
      <line x1="0.0454" y1="0.0084" x2="0.0454" y2="-0.0084" />
      <path d="M 0.0414,-0.0124 A 0.004,0.004 0.0 0,1 0.0454,-0.0084" />
      <line x1="0.004" y1="-0.0124" x2="0.0414" y2="-0.0124" />
      <path d="M 0.0,-0.0084 A 0.004,0.004 180.0 0,1 0.004,-0.0124" />
      <line x1="0.0" y1="0.0084" x2="0.0" y2="-0.0084" />
      <path d="M 0.074553,0.0124 A 0.004,0.004 180.0 0,1 0.070553,0.0084" />
      <line x1="0.074553" y1="0.0124" x2="0.111953" y2="0.0124" />
      <path d="M 0.115953,0.0084 A 0.004,0.004 0.0 0,1 0.111953,0.0124" />
      <line x1="0.115953" y1="0.0084" x2="0.115953" y2="-0.0084" />
      <path d="M 0.111953,-0.0124 A 0.004,0.004 0.0 0,1 0.115953,-0.0084" />
      <line x1="0.074553" y1="-0.0124" x2="0.111953" y2="-0.0124" />
      <path d="M 0.070553,-0.0084 A 0.004,0.004 180.0 0,1 0.074553,-0.0124" />
      <line x1="0.070553" y1="0.0084" x2="0.070553" y2="-0.0084" />
      <circle cx="0.076253" cy="-0.01025" r="0.0016" />
      <circle cx="0.093253" cy="-0.01025" r="0.0016" />
      <circle cx="0.110253" cy="-0.01025" r="0.0016" />
      <circle cx="0.076253" cy="0.01025" r="0.0016" />
      <circle cx="0.093253" cy="0.01025" r="0.0016" />
      <circle cx="0.110253" cy="0.01025" r="0.0016" />
      <path d="M 0.145107,0.0124 A 0.004,0.004 180.0 0,1 0.141107,0.0084" />
      <line x1="0.145107" y1="0.0124" x2="0.182507" y2="0.0124" />
      <path d="M 0.186507,0.0084 A 0.004,0.004 0.0 0,1 0.182507,0.0124" />
      <line x1="0.186507" y1="0.0084" x2="0.186507" y2="-0.0084" />
      <path d="M 0.182507,-0.0124 A 0.004,0.004 0.0 0,1 0.186507,-0.0084" />
      <line x1="0.145107" y1="-0.0124" x2="0.182507" y2="-0.0124" />
      <path d="M 0.141107,-0.0084 A 0.004,0.004 180.0 0,1 0.145107,-0.0124" />
      <line x1="0.141107" y1="0.0084" x2="0.141107" y2="-0.0084" />
      <path d="M 0.21166,-0.032313 A 0.004,6.331390824028431e-06 1.7086817160884977e-20 0,1 0.213656,-0.032319" />
      <path d="M 0.25706,-0.032313 A 0.004,6.331390824028431e-06 -180.0 0,0 0.254056,-0.032319" />
      <line x1="0.25706" y1="-0.032313" x2="0.257081" y2="-0.032287" />
      <line x1="0.21166" y1="0.000287" x2="0.211681" y2="0.000313" />
      <line x1="0.21166" y1="-0.032313" x2="0.21166" y2="0.000287" />
      <path d="M 0.213656,-0.032319 A 0.004,6.331390824028431e-06 1.7086817160884977e-20 0,1 0.215655,-0.03232" />
      <line x1="0.215655" y1="-0.03232" x2="0.215655" y2="0.00028" />
      <path d="M 0.21166,0.000287 A 0.004,6.331390824028431e-06 1.7086817160884977e-20 0,1 0.215655,0.00028" />
      <path d="M 0.211681,0.000313 A 0.004,6.331390824028431e-06 -180.0 0,0 0.215686,0.00032" />
      <line x1="0.213655" y1="-0.03442" x2="0.213655" y2="-0.03232" />
      <line x1="0.213655" y1="-0.03232" x2="0.213656" y2="-0.032319" />
      <line x1="0.25406" y1="-0.034413" x2="0.25406" y2="-0.032319" />
      <line x1="0.25406" y1="-0.034387" x2="0.254081" y2="-0.034387" />
      <line x1="0.254081" y1="-0.034387" x2="0.254081" y2="-0.032319" />
      <line x1="0.254055" y1="-0.03442" x2="0.254055" y2="-0.03232" />
      <line x1="0.254055" y1="-0.03442" x2="0.25406" y2="-0.034413" />
      <line x1="0.254086" y1="-0.03438" x2="0.254086" y2="-0.032319" />
      <line x1="0.254081" y1="-0.034387" x2="0.254086" y2="-0.03438" />
      <line x1="0.25706" y1="-0.032313" x2="0.25706" y2="0.000287" />
      <path d="M 0.254056,-0.032319 A 0.004,6.331390824028431e-06 -180.0 0,0 0.253055,-0.03232" />
      <line x1="0.253055" y1="-0.03232" x2="0.253055" y2="0.00028" />
      <path d="M 0.25706,0.000287 A 0.004,6.331390824028431e-06 -180.0 0,0 0.253055,0.00028" />
      <line x1="0.257081" y1="0.000313" x2="0.257081" y2="-0.032287" />
      <path d="M 0.254086,-0.032281 A 0.004,6.331390824028431e-06 1.7086817160884977e-20 0,1 0.253086,-0.03228" />
      <path d="M 0.257081,0.000313 A 0.004,6.331390824028431e-06 1.7086817160884977e-20 0,1 0.25688,0.000315" />
      <line x1="0.25706" y1="0.000287" x2="0.257081" y2="0.000313" />
      <line x1="0.215655" y1="0.00028" x2="0.253055" y2="0.00028" />
      <line x1="0.215686" y1="0.00032" x2="0.236861" y2="0.00032" />
      <path d="M 0.236861,0.000287 A 0.002,3.1656954120142157e-06 1.7086817160884977e-20 0,1 0.238858,0.000284" />
      <line x1="0.238858" y1="0.000284" x2="0.254858" y2="0.000284" />
      <path d="M 0.256861,0.000287 A 0.002,3.1656954120142157e-06 -180.0 0,0 0.254858,0.000284" />
      <line x1="0.256861" y1="0.000287" x2="0.25688" y2="0.000313" />
      <line x1="0.213655" y1="-0.03232" x2="0.215655" y2="-0.03232" />
      <line x1="0.253055" y1="-0.03232" x2="0.254055" y2="-0.03232" />
      <line x1="0.213655" y1="-0.03442" x2="0.254055" y2="-0.03442" />
      <path d="M 0.236861,0.001987 A 0.002,3.1656954120142157e-06 1.7086817160884977e-20 0,1 0.238858,0.001984" />
      <line x1="0.238858" y1="0.001984" x2="0.254858" y2="0.001984" />
      <path d="M 0.256861,0.001987 A 0.002,3.1656954120142157e-06 -180.0 0,0 0.254858,0.001984" />
      <line x1="0.256861" y1="0.001987" x2="0.25688" y2="0.002013" />
      <path d="M 0.25688,0.002013 A 0.002,3.1656954120142157e-06 1.7086817160884977e-20 0,1 0.254883,0.002016" />
      <line x1="0.238883" y1="0.002016" x2="0.242371" y2="0.002016" />
      <line x1="0.251371" y1="0.002016" x2="0.254883" y2="0.002016" />
      <path d="M 0.23688,0.002013 A 0.002,3.1656954120142157e-06 -180.0 0,0 0.238883,0.002016" />
      <line x1="0.236861" y1="0.001987" x2="0.23688" y2="0.002013" />
      <path d="M 0.242371,0.002 A 0.004500000000000004,7.122814677031991e-06 1.575652030466048e-20 0,1 0.251371,0.002" />
      <path d="M 0.251371,0.0035 A 0.004500000000000004,7.122814677031991e-06 1.575652030466048e-20 0,1 0.242371,0.0035" />
      <path d="M 0.242371,0.0035 A 0.004500000000000004,7.122814677031991e-06 1.575652030466048e-20 0,1 0.251371,0.0035" />
      <line x1="0.236861" y1="0.000287" x2="0.236861" y2="0.001987" />
      <line x1="0.238858" y1="0.000284" x2="0.238858" y2="0.001984" />
      <line x1="0.254858" y1="0.000284" x2="0.254858" y2="0.001984" />
      <line x1="0.256861" y1="0.000287" x2="0.256861" y2="0.001987" />
      <line x1="0.25688" y1="0.000313" x2="0.25688" y2="0.002013" />
      <line x1="0.21166" y1="-0.032313" x2="0.21166" y2="0.000287" />
      <line x1="0.257081" y1="-0.032287" x2="0.257081" y2="0.000313" />
      <line x1="0.236861" y1="0.000287" x2="0.236861" y2="0.001987" />
      <line x1="0.25688" y1="0.000313" x2="0.25688" y2="0.002013" />
      <line x1="0.251371" y1="0.002" x2="0.251371" y2="0.0035" />
      <line x1="0.242371" y1="0.002" x2="0.242371" y2="0.0035" />
      <line x1="0.287589" y1="-0.034092" x2="0.301689" y2="-0.034092" />
      <line x1="0.287589" y1="-0.032335" x2="0.287589" y2="-0.034092" />
      <line x1="0.301689" y1="-0.032335" x2="0.301689" y2="-0.034092" />
      <path d="M 0.286239,-0.032335 A 0.004,6.323648049565119e-06 180.0 0,0 0.282366,-0.032331" />
      <line x1="0.286239" y1="-0.032335" x2="0.303039" y2="-0.032335" />
      <path d="M 0.303039,-0.032335 A 0.004,6.323648049565119e-06 -5.108351376014021e-38 0,1 0.306912,-0.032331" />
      <path d="M 0.284639,0.000336 A 0.004,6.323648049565119e-06 -5.108351376014021e-38 0,1 0.282239,0.00033" />
      <path d="M 0.304639,0.000336 A 0.004,6.323648049565119e-06 180.0 0,0 0.307039,0.00033" />
      <line x1="0.286239" y1="-0.034431" x2="0.286239" y2="-0.032335" />
      <line x1="0.303039" y1="-0.034431" x2="0.303039" y2="-0.032335" />
      <line x1="0.282239" y1="-0.034431" x2="0.282239" y2="-0.032331" />
      <line x1="0.282239" y1="-0.032331" x2="0.282366" y2="-0.032331" />
      <line x1="0.282239" y1="-0.034431" x2="0.286239" y2="-0.034431" />
      <line x1="0.306912" y1="-0.032331" x2="0.307039" y2="-0.032331" />
      <line x1="0.307039" y1="-0.034431" x2="0.307039" y2="-0.032331" />
      <line x1="0.303039" y1="-0.034431" x2="0.307039" y2="-0.034431" />
      <line x1="0.286239" y1="-0.032335" x2="0.286239" y2="0.000264" />
      <path d="M 0.282366,-0.032331 A 0.004,6.323648049565119e-06 180.0 0,0 0.282239,-0.032329" />
      <line x1="0.282239" y1="-0.032329" x2="0.282239" y2="0.000271" />
      <path d="M 0.286239,0.000264 A 0.004,6.323648049565119e-06 180.0 0,0 0.282239,0.000271" />
      <line x1="0.303039" y1="0.000264" x2="0.303039" y2="-0.032335" />
      <path d="M 0.306912,-0.032331 A 0.004,6.323648049565119e-06 -5.108351376014021e-38 0,1 0.307039,-0.032329" />
      <line x1="0.307039" y1="0.000271" x2="0.307039" y2="-0.032329" />
      <path d="M 0.303039,0.000264 A 0.004,6.323648049565119e-06 -5.108351376014021e-38 0,1 0.307039,0.000271" />
      <line x1="0.286239" y1="0.000264" x2="0.303039" y2="0.000264" />
      <path d="M 0.294639,-0.033624 A 0.003,4.742736037173839e-06 -6.915920008524899e-38 0,1 0.297639,-0.033619" />
      <path d="M 0.291639,-0.033619 A 0.003,4.742736037173839e-06 -6.915920008524899e-38 0,1 0.294639,-0.033624" />
      <line x1="0.282239" y1="0.00033" x2="0.282239" y2="0.000271" />
      <line x1="0.307039" y1="0.00033" x2="0.307039" y2="0.000271" />
      <path d="M 0.286639,0.000265 A 0.002,3.1618240247825596e-06 180.0 0,0 0.284639,0.000268" />
      <line x1="0.286639" y1="0.000265" x2="0.302639" y2="0.000265" />
      <path d="M 0.302639,0.000265 A 0.002,3.1618240247825596e-06 -5.108351376014021e-38 0,1 0.304639,0.000268" />
      <line x1="0.282239" y1="-0.032329" x2="0.282239" y2="-0.032331" />
      <line x1="0.307039" y1="-0.032329" x2="0.307039" y2="-0.032331" />
      <path d="M 0.286639,0.001996 A 0.002,3.1618240247825596e-06 -5.108351376014021e-38 0,1 0.284639,0.001993" />
      <line x1="0.284639" y1="0.000268" x2="0.284639" y2="0.001968" />
      <line x1="0.284639" y1="0.001993" x2="0.284639" y2="0.001968" />
      <path d="M 0.286639,0.001965 A 0.002,3.1618240247825596e-06 180.0 0,0 0.284639,0.001968" />
      <line x1="0.286639" y1="0.001965" x2="0.302639" y2="0.001965" />
      <line x1="0.304639" y1="0.000268" x2="0.304639" y2="0.001968" />
      <path d="M 0.302639,0.001965 A 0.002,3.1618240247825596e-06 -5.108351376014021e-38 0,1 0.304639,0.001968" />
      <line x1="0.304639" y1="0.001993" x2="0.304639" y2="0.001968" />
      <path d="M 0.302639,0.001996 A 0.002,3.1618240247825596e-06 180.0 0,0 0.304639,0.001993" />
      <line x1="0.286639" y1="0.001996" x2="0.290139" y2="0.001996" />
      <line x1="0.299139" y1="0.001996" x2="0.302639" y2="0.001996" />
      <path d="M 0.294639,0.001973 A 0.0045,7.114104055760758e-06 -6.915920008524899e-38 0,1 0.299139,0.001981" />
      <path d="M 0.290139,0.001981 A 0.0045,7.114104055760758e-06 -6.915920008524899e-38 0,1 0.294639,0.001973" />
      <path d="M 0.294639,0.003473 A 0.0045,7.114104055760758e-06 -6.915920008524899e-38 0,1 0.299139,0.003481" />
      <path d="M 0.299139,0.003481 A 0.004500000000000004,7.114104055760764e-06 -6.915920008524899e-38 0,1 0.290139,0.003481" />
      <path d="M 0.290139,0.003481 A 0.0045,7.114104055760758e-06 -6.915920008524899e-38 0,1 0.294639,0.003473" />
      <line x1="0.286639" y1="0.000265" x2="0.286639" y2="0.001965" />
      <line x1="0.302639" y1="0.000265" x2="0.302639" y2="0.001965" />
      <line x1="0.297639" y1="-0.033619" x2="0.297639" y2="-0.032335" />
      <line x1="0.291639" y1="-0.033619" x2="0.291639" y2="-0.032335" />
      <line x1="0.299139" y1="0.001981" x2="0.299139" y2="0.003481" />
      <line x1="0.290139" y1="0.001981" x2="0.290139" y2="0.003481" />
    </g>
    <g fill="url(#hatch_servo)" stroke="none" stroke-width="0" id="servo_fill">
      <path d="M 0.004,0.0124 A 0.004,0.004 180.0 0,1 0.0,0.0084 L 0.0,-0.0084 A 0.004,0.004 180.0 0,1 0.004,-0.0124 L 0.0414,-0.0124 A 0.004,0.004 0.0 0,1 0.0454,-0.0084 L 0.0454,0.0084 A 0.004,0.004 0.0 0,1 0.0414,0.0124 L 0.004,0.0124" />
      <path d="M 0.074553,0.0124 A 0.004,0.004 180.0 0,1 0.070553,0.0084 L 0.070553,-0.0084 A 0.004,0.004 180.0 0,1 0.074553,-0.0124 L 0.111953,-0.0124 A 0.004,0.004 0.0 0,1 0.115953,-0.0084 L 0.115953,0.0084 A 0.004,0.004 0.0 0,1 0.111953,0.0124 L 0.074553,0.0124 M 0.077853,-0.01025 A 0.0016000000000000044,0.0016000000000000044 0.0 0,0 0.074653,-0.01025 A 0.0016000000000000044,0.0016000000000000044 0.0 0,0 0.077853,-0.01025 M 0.094853,-0.01025 A 0.0016000000000000044,0.0016000000000000044 0.0 0,0 0.091653,-0.01025 A 0.0016000000000000044,0.0016000000000000044 0.0 0,0 0.094853,-0.01025 M 0.111853,-0.01025 A 0.0016,0.0016 0.0 0,0 0.108653,-0.01025 A 0.0016,0.0016 0.0 0,0 0.111853,-0.01025 M 0.077853,0.01025 A 0.0016000000000000044,0.0016000000000000044 0.0 0,0 0.074653,0.01025 A 0.0016000000000000044,0.0016000000000000044 0.0 0,0 0.077853,0.01025 M 0.094853,0.01025 A 0.0016000000000000044,0.0016000000000000044 0.0 0,0 0.091653,0.01025 A 0.0016000000000000044,0.0016000000000000044 0.0 0,0 0.094853,0.01025 M 0.111853,0.01025 A 0.0016,0.0016 0.0 0,0 0.108653,0.01025 A 0.0016,0.0016 0.0 0,0 0.111853,0.01025" />
      <path d="M 0.145107,0.0124 A 0.004,0.004 180.0 0,1 0.141107,0.0084 L 0.141107,-0.0084 A 0.004,0.004 180.0 0,1 0.145107,-0.0124 L 0.182507,-0.0124 A 0.004,0.004 0.0 0,1 0.186507,-0.0084 L 0.186507,0.0084 A 0.004,0.004 0.0 0,1 0.182507,0.0124 L 0.145107,0.0124" />
    </g>
    <g fill="none" stroke="rgb(60,60,60)" stroke-opacity="0.4" stroke-width="0.00015" id="servo_hidden" stroke-dasharray="0.0018 0.00045">
      <line x1="0.229412" y1="-0.034111" x2="0.229429" y2="-0.034089" />
      <line x1="0.229412" y1="-0.032311" x2="0.229412" y2="-0.034111" />
      <line x1="0.229429" y1="-0.032289" x2="0.229412" y2="-0.032311" />
      <line x1="0.229429" y1="-0.032289" x2="0.229429" y2="-0.034089" />
      <line x1="0.228722" y1="-0.034098" x2="0.228719" y2="-0.034102" />
      <line x1="0.228722" y1="-0.034098" x2="0.224022" y2="-0.034098" />
      <line x1="0.224022" y1="-0.034098" x2="0.224019" y2="-0.034102" />
      <line x1="0.228719" y1="-0.034102" x2="0.224019" y2="-0.034102" />
      <line x1="0.229412" y1="-0.034111" x2="0.223312" y2="-0.034111" />
      <line x1="0.223312" y1="-0.034111" x2="0.223329" y2="-0.034089" />
      <line x1="0.229429" y1="-0.034089" x2="0.223329" y2="-0.034089" />
      <line x1="0.224028" y1="-0.03409" x2="0.224023" y2="-0.034097" />
      <line x1="0.228723" y1="-0.034097" x2="0.224023" y2="-0.034097" />
      <line x1="0.228728" y1="-0.03409" x2="0.228723" y2="-0.034097" />
      <line x1="0.228728" y1="-0.03409" x2="0.224028" y2="-0.03409" />
      <line x1="0.228718" y1="-0.034103" x2="0.224018" y2="-0.034103" />
      <line x1="0.224018" y1="-0.034103" x2="0.224013" y2="-0.03411" />
      <line x1="0.228713" y1="-0.03411" x2="0.224013" y2="-0.03411" />
      <line x1="0.228718" y1="-0.034103" x2="0.228713" y2="-0.03411" />
      <line x1="0.21166" y1="-0.032313" x2="0.211681" y2="-0.032287" />
      <line x1="0.213656" y1="-0.032319" x2="0.21366" y2="-0.032313" />
      <line x1="0.21366" y1="-0.032313" x2="0.25406" y2="-0.032313" />
      <line x1="0.254056" y1="-0.032319" x2="0.25406" y2="-0.032313" />
      <path d="M 0.257081,-0.032287 A 0.004,6.331390824028431e-06 1.7086817160884977e-20 0,1 0.254086,-0.032281" />
      <line x1="0.254081" y1="-0.032287" x2="0.254086" y2="-0.032281" />
      <line x1="0.213681" y1="-0.032287" x2="0.254081" y2="-0.032287" />
      <line x1="0.213681" y1="-0.032287" x2="0.213685" y2="-0.032281" />
      <path d="M 0.211681,-0.032287 A 0.004,6.331390824028431e-06 -180.0 0,0 0.213685,-0.032281" />
      <path d="M 0.249871,-0.0323 A 0.0030000000000000027,4.748543118021328e-06 1.575652030466048e-20 0,1 0.243871,-0.0323" />
      <path d="M 0.243871,-0.0323 A 0.0030000000000000027,4.748543118021328e-06 1.575652030466048e-20 0,1 0.249871,-0.0323" />
      <line x1="0.223312" y1="-0.032311" x2="0.229412" y2="-0.032311" />
      <line x1="0.223329" y1="-0.032289" x2="0.223312" y2="-0.032311" />
      <line x1="0.223329" y1="-0.032289" x2="0.229429" y2="-0.032289" />
      <line x1="0.223312" y1="-0.032311" x2="0.223312" y2="-0.034111" />
      <line x1="0.228719" y1="-0.032302" x2="0.228719" y2="-0.034102" />
      <line x1="0.228722" y1="-0.032298" x2="0.228722" y2="-0.034098" />
      <line x1="0.228722" y1="-0.032298" x2="0.228719" y2="-0.032302" />
      <line x1="0.223329" y1="-0.032289" x2="0.223329" y2="-0.034089" />
      <line x1="0.211681" y1="0.000313" x2="0.211681" y2="-0.032287" />
      <path d="M 0.213685,-0.032281 A 0.004,6.331390824028431e-06 -180.0 0,0 0.215686,-0.03228" />
      <line x1="0.215686" y1="0.00032" x2="0.215686" y2="-0.03228" />
      <line x1="0.21366" y1="-0.034413" x2="0.21366" y2="-0.032313" />
      <line x1="0.213655" y1="-0.03442" x2="0.21366" y2="-0.034413" />
      <line x1="0.213681" y1="-0.034387" x2="0.213681" y2="-0.032287" />
      <line x1="0.213685" y1="-0.032281" x2="0.213686" y2="-0.03228" />
      <line x1="0.213686" y1="-0.03438" x2="0.213686" y2="-0.03228" />
      <line x1="0.213681" y1="-0.034387" x2="0.213686" y2="-0.03438" />
      <line x1="0.21366" y1="-0.034413" x2="0.25406" y2="-0.034413" />
      <line x1="0.25406" y1="-0.032319" x2="0.25406" y2="-0.032313" />
      <line x1="0.213681" y1="-0.034387" x2="0.25406" y2="-0.034387" />
      <line x1="0.254081" y1="-0.032319" x2="0.254081" y2="-0.032287" />
      <line x1="0.254086" y1="-0.032319" x2="0.254086" y2="-0.03228" />
      <line x1="0.253086" y1="0.00032" x2="0.253086" y2="-0.03228" />
      <path d="M 0.25688,0.000315 A 0.004,6.331390824028431e-06 1.7086817160884977e-20 0,1 0.253086,0.00032" />
      <path d="M 0.249871,-0.0336 A 0.0030000000000000027,4.748543118021328e-06 1.575652030466048e-20 0,1 0.243871,-0.0336" />
      <path d="M 0.243871,-0.0336 A 0.0030000000000000027,4.748543118021328e-06 1.575652030466048e-20 0,1 0.249871,-0.0336" />
      <line x1="0.228713" y1="-0.03231" x2="0.228713" y2="-0.03411" />
      <line x1="0.228718" y1="-0.034103" x2="0.228718" y2="-0.032303" />
      <line x1="0.228718" y1="-0.032303" x2="0.228713" y2="-0.03231" />
      <line x1="0.224013" y1="-0.03231" x2="0.224013" y2="-0.03411" />
      <line x1="0.224013" y1="-0.03231" x2="0.228713" y2="-0.03231" />
      <line x1="0.224018" y1="-0.034103" x2="0.224018" y2="-0.032303" />
      <line x1="0.224018" y1="-0.032303" x2="0.224013" y2="-0.03231" />
      <line x1="0.224028" y1="-0.03229" x2="0.224023" y2="-0.032297" />
      <line x1="0.224023" y1="-0.032297" x2="0.224023" y2="-0.034097" />
      <line x1="0.224028" y1="-0.03229" x2="0.224028" y2="-0.03409" />
      <line x1="0.228728" y1="-0.03229" x2="0.228728" y2="-0.03409" />
      <line x1="0.224028" y1="-0.03229" x2="0.228728" y2="-0.03229" />
      <line x1="0.228728" y1="-0.03229" x2="0.228723" y2="-0.032297" />
      <line x1="0.228723" y1="-0.032297" x2="0.228723" y2="-0.034097" />
      <line x1="0.224023" y1="-0.032297" x2="0.228723" y2="-0.032297" />
      <line x1="0.224022" y1="-0.032298" x2="0.224022" y2="-0.034098" />
      <line x1="0.224022" y1="-0.032298" x2="0.228722" y2="-0.032298" />
      <line x1="0.224019" y1="-0.032302" x2="0.224019" y2="-0.034102" />
      <line x1="0.224019" y1="-0.032302" x2="0.228719" y2="-0.032302" />
      <line x1="0.224022" y1="-0.032298" x2="0.224019" y2="-0.032302" />
      <line x1="0.224018" y1="-0.032303" x2="0.228718" y2="-0.032303" />
      <line x1="0.236861" y1="0.00032" x2="0.253086" y2="0.00032" />
      <path d="M 0.25688,0.000313 A 0.002,3.1656954120142157e-06 1.7086817160884977e-20 0,1 0.254883,0.000316" />
      <line x1="0.238883" y1="0.000316" x2="0.254883" y2="0.000316" />
      <path d="M 0.23688,0.000313 A 0.002,3.1656954120142157e-06 -180.0 0,0 0.238883,0.000316" />
      <line x1="0.236861" y1="0.000287" x2="0.23688" y2="0.000313" />
      <line x1="0.213686" y1="-0.03228" x2="0.215686" y2="-0.03228" />
      <line x1="0.253086" y1="-0.03228" x2="0.254086" y2="-0.03228" />
      <line x1="0.213686" y1="-0.03438" x2="0.254086" y2="-0.03438" />
      <path d="M 0.218958,-0.034416 A 0.0016000000000000044,2.5325563296113795e-06 1.575652030466048e-20 0,1 0.215758,-0.034416" />
      <path d="M 0.215758,-0.034416 A 0.0016000000000000044,2.5325563296113795e-06 1.575652030466048e-20 0,1 0.218958,-0.034416" />
      <path d="M 0.235958,-0.034416 A 0.0016000000000000044,2.5325563296113795e-06 1.575652030466048e-20 0,1 0.232758,-0.034416" />
      <path d="M 0.232758,-0.034416 A 0.0016000000000000044,2.5325563296113795e-06 1.575652030466048e-20 0,1 0.235958,-0.034416" />
      <path d="M 0.252958,-0.034416 A 0.0016000000000000044,2.5325563296113795e-06 1.575652030466048e-20 0,1 0.249758,-0.034416" />
      <path d="M 0.249758,-0.034416 A 0.0016000000000000044,2.5325563296113795e-06 1.575652030466048e-20 0,1 0.252958,-0.034416" />
      <path d="M 0.218983,-0.034384 A 0.0016000000000000044,2.5325563296113795e-06 1.575652030466048e-20 0,1 0.215783,-0.034384" />
      <path d="M 0.215783,-0.034384 A 0.0016000000000000044,2.5325563296113795e-06 1.575652030466048e-20 0,1 0.218983,-0.034384" />
      <path d="M 0.235983,-0.034384 A 0.0016000000000000044,2.5325563296113795e-06 1.575652030466048e-20 0,1 0.232783,-0.034384" />
      <path d="M 0.232783,-0.034384 A 0.0016000000000000044,2.5325563296113795e-06 1.575652030466048e-20 0,1 0.235983,-0.034384" />
      <path d="M 0.252983,-0.034384 A 0.0016000000000000044,2.5325563296113795e-06 1.575652030466048e-20 0,1 0.249783,-0.034384" />
      <path d="M 0.249783,-0.034384 A 0.0016000000000000044,2.5325563296113795e-06 1.575652030466048e-20 0,1 0.252983,-0.034384" />
      <line x1="0.242371" y1="0.002016" x2="0.251371" y2="0.002016" />
      <path d="M 0.218958,-0.024416 A 0.0016000000000000044,2.5325563296113795e-06 1.575652030466048e-20 0,1 0.215758,-0.024416" />
      <path d="M 0.215758,-0.024416 A 0.0016000000000000044,2.5325563296113795e-06 1.575652030466048e-20 0,1 0.218958,-0.024416" />
      <path d="M 0.235958,-0.024416 A 0.0016000000000000044,2.5325563296113795e-06 1.575652030466048e-20 0,1 0.232758,-0.024416" />
      <path d="M 0.232758,-0.024416 A 0.0016000000000000044,2.5325563296113795e-06 1.575652030466048e-20 0,1 0.235958,-0.024416" />
      <path d="M 0.252958,-0.024416 A 0.0016000000000000044,2.5325563296113795e-06 1.575652030466048e-20 0,1 0.249758,-0.024416" />
      <path d="M 0.249758,-0.024416 A 0.0016000000000000044,2.5325563296113795e-06 1.575652030466048e-20 0,1 0.252958,-0.024416" />
      <path d="M 0.218983,-0.024384 A 0.0016000000000000044,2.5325563296113795e-06 1.575652030466048e-20 0,1 0.215783,-0.024384" />
      <path d="M 0.215783,-0.024384 A 0.0016000000000000044,2.5325563296113795e-06 1.575652030466048e-20 0,1 0.218983,-0.024384" />
      <path d="M 0.235983,-0.024384 A 0.0016000000000000044,2.5325563296113795e-06 1.575652030466048e-20 0,1 0.232783,-0.024384" />
      <path d="M 0.232783,-0.024384 A 0.0016000000000000044,2.5325563296113795e-06 1.575652030466048e-20 0,1 0.235983,-0.024384" />
      <path d="M 0.252983,-0.024384 A 0.0016000000000000044,2.5325563296113795e-06 1.575652030466048e-20 0,1 0.249783,-0.024384" />
      <path d="M 0.249783,-0.024384 A 0.0016000000000000044,2.5325563296113795e-06 1.575652030466048e-20 0,1 0.252983,-0.024384" />
      <path d="M 0.251371,0.002 A 0.004500000000000004,7.122814677031991e-06 1.575652030466048e-20 0,1 0.242371,0.002" />
      <line x1="0.249871" y1="-0.0336" x2="0.249871" y2="-0.0323" />
      <line x1="0.243871" y1="-0.0336" x2="0.243871" y2="-0.0323" />
      <line x1="0.218958" y1="-0.034416" x2="0.218958" y2="-0.024416" />
      <line x1="0.215758" y1="-0.034416" x2="0.215758" y2="-0.024416" />
      <line x1="0.235958" y1="-0.034416" x2="0.235958" y2="-0.024416" />
      <line x1="0.232758" y1="-0.034416" x2="0.232758" y2="-0.024416" />
      <line x1="0.252958" y1="-0.034416" x2="0.252958" y2="-0.024416" />
      <line x1="0.249758" y1="-0.034416" x2="0.249758" y2="-0.024416" />
      <line x1="0.218983" y1="-0.034384" x2="0.218983" y2="-0.024384" />
      <line x1="0.215783" y1="-0.034384" x2="0.215783" y2="-0.024384" />
      <line x1="0.235983" y1="-0.034384" x2="0.235983" y2="-0.024384" />
      <line x1="0.232783" y1="-0.034384" x2="0.232783" y2="-0.024384" />
      <line x1="0.252983" y1="-0.034384" x2="0.252983" y2="-0.024384" />
      <line x1="0.249783" y1="-0.034384" x2="0.249783" y2="-0.024384" />
      <line x1="0.254883" y1="0.000316" x2="0.254883" y2="0.002016" />
      <line x1="0.238883" y1="0.000316" x2="0.238883" y2="0.002016" />
      <line x1="0.23688" y1="0.000313" x2="0.23688" y2="0.002013" />
      <line x1="0.287589" y1="-0.032292" x2="0.287589" y2="-0.032335" />
      <line x1="0.301689" y1="-0.032292" x2="0.287589" y2="-0.032292" />
      <line x1="0.301689" y1="-0.032292" x2="0.301689" y2="-0.032335" />
      <line x1="0.295989" y1="-0.034091" x2="0.293289" y2="-0.034091" />
      <line x1="0.295989" y1="-0.034091" x2="0.295989" y2="-0.034083" />
      <line x1="0.295989" y1="-0.034083" x2="0.293289" y2="-0.034083" />
      <line x1="0.293289" y1="-0.034091" x2="0.293289" y2="-0.034083" />
      <line x1="0.287589" y1="-0.034092" x2="0.287589" y2="-0.034082" />
      <line x1="0.287589" y1="-0.034082" x2="0.301689" y2="-0.034082" />
      <line x1="0.301689" y1="-0.034092" x2="0.301689" y2="-0.034082" />
      <line x1="0.300989" y1="-0.034083" x2="0.296689" y2="-0.034083" />
      <line x1="0.296689" y1="-0.034091" x2="0.296689" y2="-0.034083" />
      <line x1="0.300989" y1="-0.034091" x2="0.296689" y2="-0.034091" />
      <line x1="0.300989" y1="-0.034091" x2="0.300989" y2="-0.034083" />
      <line x1="0.292589" y1="-0.034091" x2="0.292589" y2="-0.034083" />
      <line x1="0.292589" y1="-0.034083" x2="0.288289" y2="-0.034083" />
      <line x1="0.288289" y1="-0.034091" x2="0.288289" y2="-0.034083" />
      <line x1="0.292589" y1="-0.034091" x2="0.288289" y2="-0.034091" />
      <line x1="0.286239" y1="-0.032264" x2="0.303039" y2="-0.032264" />
      <path d="M 0.286239,-0.032264 A 0.004,6.323648049565119e-06 -5.108351376014021e-38 0,1 0.282775,-0.032267" />
      <line x1="0.282775" y1="-0.032267" x2="0.286239" y2="-0.032267" />
      <line x1="0.286239" y1="-0.032267" x2="0.286239" y2="-0.032331" />
      <line x1="0.282366" y1="-0.032331" x2="0.286239" y2="-0.032331" />
      <line x1="0.303039" y1="-0.032331" x2="0.306912" y2="-0.032331" />
      <line x1="0.303039" y1="-0.032267" x2="0.303039" y2="-0.032331" />
      <line x1="0.303039" y1="-0.032267" x2="0.306504" y2="-0.032267" />
      <path d="M 0.303039,-0.032264 A 0.004,6.323648049565119e-06 180.0 0,0 0.306504,-0.032267" />
      <path d="M 0.294639,-0.032324 A 0.003,4.742736037173839e-06 -6.915920008524899e-38 0,1 0.297639,-0.032319" />
      <path d="M 0.297639,-0.032319 A 0.0030000000000000027,4.742736037173843e-06 -6.915920008524899e-38 0,1 0.291639,-0.032319" />
      <path d="M 0.291639,-0.032319 A 0.003,4.742736037173839e-06 -6.915920008524899e-38 0,1 0.294639,-0.032324" />
      <line x1="0.287589" y1="-0.032282" x2="0.287589" y2="-0.032292" />
      <line x1="0.301689" y1="-0.032282" x2="0.287589" y2="-0.032282" />
      <line x1="0.301689" y1="-0.032282" x2="0.301689" y2="-0.032292" />
      <line x1="0.287589" y1="-0.032282" x2="0.287589" y2="-0.034082" />
      <line x1="0.293289" y1="-0.032291" x2="0.293289" y2="-0.034091" />
      <line x1="0.295989" y1="-0.032291" x2="0.295989" y2="-0.034091" />
      <line x1="0.295989" y1="-0.032291" x2="0.293289" y2="-0.032291" />
      <line x1="0.301689" y1="-0.032282" x2="0.301689" y2="-0.034082" />
      <line x1="0.286239" y1="0.000336" x2="0.303039" y2="0.000336" />
      <line x1="0.286239" y1="-0.032264" x2="0.286239" y2="0.000336" />
      <line x1="0.303039" y1="0.000336" x2="0.303039" y2="-0.032264" />
      <path d="M 0.282775,-0.032267 A 0.004,6.323648049565119e-06 -5.108351376014021e-38 0,1 0.282239,-0.03227" />
      <line x1="0.282239" y1="-0.03227" x2="0.282239" y2="0.00033" />
      <path d="M 0.286239,0.000336 A 0.004,6.323648049565119e-06 -5.108351376014021e-38 0,1 0.284639,0.000336" />
      <path d="M 0.306504,-0.032267 A 0.004,6.323648049565119e-06 180.0 0,0 0.307039,-0.03227" />
      <line x1="0.307039" y1="0.00033" x2="0.307039" y2="-0.03227" />
      <path d="M 0.303039,0.000336 A 0.004,6.323648049565119e-06 180.0 0,0 0.304639,0.000336" />
      <line x1="0.282239" y1="-0.034367" x2="0.282239" y2="-0.032267" />
      <line x1="0.282239" y1="-0.032267" x2="0.282775" y2="-0.032267" />
      <line x1="0.286239" y1="-0.034367" x2="0.286239" y2="-0.032267" />
      <line x1="0.282239" y1="-0.034367" x2="0.286239" y2="-0.034367" />
      <line x1="0.303039" y1="-0.034367" x2="0.303039" y2="-0.032267" />
      <line x1="0.306504" y1="-0.032267" x2="0.307039" y2="-0.032267" />
      <line x1="0.307039" y1="-0.034367" x2="0.307039" y2="-0.032267" />
      <line x1="0.303039" y1="-0.034367" x2="0.307039" y2="-0.034367" />
      <line x1="0.286239" y1="-0.034367" x2="0.286239" y2="-0.034431" />
      <line x1="0.286239" y1="-0.032335" x2="0.286239" y2="-0.032331" />
      <line x1="0.303039" y1="-0.034367" x2="0.303039" y2="-0.034431" />
      <line x1="0.303039" y1="-0.032335" x2="0.303039" y2="-0.032331" />
      <path d="M 0.297639,-0.033619 A 0.0030000000000000027,4.742736037173843e-06 -6.915920008524899e-38 0,1 0.291639,-0.033619" />
      <line x1="0.288289" y1="-0.032291" x2="0.288289" y2="-0.034091" />
      <line x1="0.292589" y1="-0.034091" x2="0.292589" y2="-0.032291" />
      <line x1="0.292589" y1="-0.032291" x2="0.288289" y2="-0.032291" />
      <line x1="0.288289" y1="-0.032283" x2="0.288289" y2="-0.034083" />
      <line x1="0.288289" y1="-0.032283" x2="0.288289" y2="-0.032291" />
      <line x1="0.292589" y1="-0.034083" x2="0.292589" y2="-0.032283" />
      <line x1="0.292589" y1="-0.032283" x2="0.288289" y2="-0.032283" />
      <line x1="0.300989" y1="-0.032283" x2="0.296689" y2="-0.032283" />
      <line x1="0.296689" y1="-0.032283" x2="0.296689" y2="-0.034083" />
      <line x1="0.300989" y1="-0.032283" x2="0.300989" y2="-0.034083" />
      <line x1="0.300989" y1="-0.032291" x2="0.300989" y2="-0.034091" />
      <line x1="0.300989" y1="-0.032283" x2="0.300989" y2="-0.032291" />
      <line x1="0.300989" y1="-0.032291" x2="0.296689" y2="-0.032291" />
      <line x1="0.296689" y1="-0.032291" x2="0.296689" y2="-0.034091" />
      <line x1="0.296689" y1="-0.032283" x2="0.296689" y2="-0.032291" />
      <line x1="0.295989" y1="-0.032283" x2="0.295989" y2="-0.034083" />
      <line x1="0.295989" y1="-0.032283" x2="0.295989" y2="-0.032291" />
      <line x1="0.293289" y1="-0.032283" x2="0.293289" y2="-0.034083" />
      <line x1="0.293289" y1="-0.032283" x2="0.293289" y2="-0.032291" />
      <line x1="0.295989" y1="-0.032283" x2="0.293289" y2="-0.032283" />
      <line x1="0.292589" y1="-0.032283" x2="0.292589" y2="-0.032291" />
      <path d="M 0.286639,0.000296 A 0.002,3.1618240247825596e-06 -5.108351376014021e-38 0,1 0.284639,0.000293" />
      <line x1="0.284639" y1="0.000293" x2="0.284639" y2="0.000268" />
      <line x1="0.304639" y1="0.000293" x2="0.304639" y2="0.000268" />
      <path d="M 0.302639,0.000296 A 0.002,3.1618240247825596e-06 180.0 0,0 0.304639,0.000293" />
      <line x1="0.286639" y1="0.000296" x2="0.302639" y2="0.000296" />
      <line x1="0.282239" y1="-0.032267" x2="0.282239" y2="-0.03227" />
      <line x1="0.282239" y1="-0.034367" x2="0.282239" y2="-0.034431" />
      <line x1="0.307039" y1="-0.032267" x2="0.307039" y2="-0.03227" />
      <line x1="0.307039" y1="-0.034367" x2="0.307039" y2="-0.034431" />
      <path d="M 0.284389,-0.034375 A 0.0016,2.5294592198260478e-06 -6.915920008524899e-38 0,1 0.285989,-0.034373" />
      <path d="M 0.285989,-0.034373 A 0.0016,2.5294592198260478e-06 -6.915920008524899e-38 0,1 0.282789,-0.034373" />
      <path d="M 0.282789,-0.034373 A 0.0016,2.5294592198260478e-06 -6.915920008524899e-38 0,1 0.284389,-0.034375" />
      <path d="M 0.284389,-0.034402 A 0.0016,2.5294592198260478e-06 -6.915920008524899e-38 0,1 0.285989,-0.0344" />
      <path d="M 0.285989,-0.0344 A 0.0016,2.5294592198260478e-06 -6.915920008524899e-38 0,1 0.282789,-0.0344" />
      <path d="M 0.282789,-0.0344 A 0.0016,2.5294592198260478e-06 -6.915920008524899e-38 0,1 0.284389,-0.034402" />
      <path d="M 0.284389,-0.034429 A 0.0016,2.5294592198260478e-06 -6.915920008524899e-38 0,1 0.285989,-0.034426" />
      <path d="M 0.285989,-0.034426 A 0.0016,2.5294592198260478e-06 -6.915920008524899e-38 0,1 0.282789,-0.034426" />
      <path d="M 0.282789,-0.034426 A 0.0016,2.5294592198260478e-06 -6.915920008524899e-38 0,1 0.284389,-0.034429" />
      <path d="M 0.304889,-0.034375 A 0.0016,2.5294592198260478e-06 -6.915920008524899e-38 0,1 0.306489,-0.034373" />
      <path d="M 0.306489,-0.034373 A 0.0016000000000000179,2.5294592198260757e-06 -6.915920008524899e-38 0,1 0.303289,-0.034373" />
      <path d="M 0.303289,-0.034373 A 0.0016,2.5294592198260478e-06 -6.915920008524899e-38 0,1 0.304889,-0.034375" />
      <path d="M 0.304889,-0.034402 A 0.0016,2.5294592198260478e-06 -6.915920008524899e-38 0,1 0.306489,-0.0344" />
      <path d="M 0.306489,-0.0344 A 0.0016000000000000179,2.5294592198260757e-06 -6.915920008524899e-38 0,1 0.303289,-0.0344" />
      <path d="M 0.303289,-0.0344 A 0.0016,2.5294592198260478e-06 -6.915920008524899e-38 0,1 0.304889,-0.034402" />
      <path d="M 0.304889,-0.034429 A 0.0016,2.5294592198260478e-06 -6.915920008524899e-38 0,1 0.306489,-0.034426" />
      <path d="M 0.306489,-0.034426 A 0.0016000000000000179,2.5294592198260757e-06 -6.915920008524899e-38 0,1 0.303289,-0.034426" />
      <path d="M 0.303289,-0.034426 A 0.0016,2.5294592198260478e-06 -6.915920008524899e-38 0,1 0.304889,-0.034429" />
      <line x1="0.284639" y1="0.000293" x2="0.284639" y2="0.001993" />
      <line x1="0.304639" y1="0.000293" x2="0.304639" y2="0.001993" />
      <line x1="0.290139" y1="0.001996" x2="0.299139" y2="0.001996" />
      <path d="M 0.284389,-0.024375 A 0.0016,2.5294592198260478e-06 -6.915920008524899e-38 0,1 0.285989,-0.024373" />
      <path d="M 0.285989,-0.024373 A 0.0016,2.5294592198260478e-06 -6.915920008524899e-38 0,1 0.282789,-0.024373" />
      <path d="M 0.282789,-0.024373 A 0.0016,2.5294592198260478e-06 -6.915920008524899e-38 0,1 0.284389,-0.024375" />
      <path d="M 0.284389,-0.024402 A 0.0016,2.5294592198260478e-06 -6.915920008524899e-38 0,1 0.285989,-0.0244" />
      <path d="M 0.285989,-0.0244 A 0.0016,2.5294592198260478e-06 -6.915920008524899e-38 0,1 0.282789,-0.0244" />
      <path d="M 0.282789,-0.0244 A 0.0016,2.5294592198260478e-06 -6.915920008524899e-38 0,1 0.284389,-0.024402" />
      <path d="M 0.284389,-0.024429 A 0.0016,2.5294592198260478e-06 -6.915920008524899e-38 0,1 0.285989,-0.024426" />
      <path d="M 0.285989,-0.024426 A 0.0016,2.5294592198260478e-06 -6.915920008524899e-38 0,1 0.282789,-0.024426" />
      <path d="M 0.282789,-0.024426 A 0.0016,2.5294592198260478e-06 -6.915920008524899e-38 0,1 0.284389,-0.024429" />
      <path d="M 0.304889,-0.024375 A 0.0016,2.5294592198260478e-06 -6.915920008524899e-38 0,1 0.306489,-0.024373" />
      <path d="M 0.306489,-0.024373 A 0.0016000000000000179,2.5294592198260757e-06 -6.915920008524899e-38 0,1 0.303289,-0.024373" />
      <path d="M 0.303289,-0.024373 A 0.0016,2.5294592198260478e-06 -6.915920008524899e-38 0,1 0.304889,-0.024375" />
      <path d="M 0.304889,-0.024402 A 0.0016,2.5294592198260478e-06 -6.915920008524899e-38 0,1 0.306489,-0.0244" />
      <path d="M 0.306489,-0.0244 A 0.0016000000000000179,2.5294592198260757e-06 -6.915920008524899e-38 0,1 0.303289,-0.0244" />
      <path d="M 0.303289,-0.0244 A 0.0016,2.5294592198260478e-06 -6.915920008524899e-38 0,1 0.304889,-0.024402" />
      <path d="M 0.304889,-0.024429 A 0.0016,2.5294592198260478e-06 -6.915920008524899e-38 0,1 0.306489,-0.024426" />
      <path d="M 0.306489,-0.024426 A 0.0016000000000000179,2.5294592198260757e-06 -6.915920008524899e-38 0,1 0.303289,-0.024426" />
      <path d="M 0.303289,-0.024426 A 0.0016,2.5294592198260478e-06 -6.915920008524899e-38 0,1 0.304889,-0.024429" />
      <path d="M 0.299139,0.001981 A 0.004500000000000004,7.114104055760764e-06 -6.915920008524899e-38 0,1 0.290139,0.001981" />
      <line x1="0.297639" y1="-0.032335" x2="0.297639" y2="-0.032319" />
      <line x1="0.291639" y1="-0.032335" x2="0.291639" y2="-0.032319" />
      <line x1="0.285989" y1="-0.034373" x2="0.285989" y2="-0.024373" />
      <line x1="0.282789" y1="-0.034373" x2="0.282789" y2="-0.024373" />
      <line x1="0.285989" y1="-0.0344" x2="0.285989" y2="-0.0244" />
      <line x1="0.282789" y1="-0.0344" x2="0.282789" y2="-0.0244" />
      <line x1="0.285989" y1="-0.034426" x2="0.285989" y2="-0.024426" />
      <line x1="0.282789" y1="-0.034426" x2="0.282789" y2="-0.024426" />
      <line x1="0.306489" y1="-0.034373" x2="0.306489" y2="-0.024373" />
      <line x1="0.303289" y1="-0.034373" x2="0.303289" y2="-0.024373" />
      <line x1="0.306489" y1="-0.0344" x2="0.306489" y2="-0.0244" />
      <line x1="0.303289" y1="-0.0344" x2="0.303289" y2="-0.0244" />
      <line x1="0.306489" y1="-0.034426" x2="0.306489" y2="-0.024426" />
      <line x1="0.303289" y1="-0.034426" x2="0.303289" y2="-0.024426" />
      <line x1="0.286639" y1="0.000296" x2="0.286639" y2="0.001996" />
      <line x1="0.302639" y1="0.000296" x2="0.302639" y2="0.001996" />
    </g>
    <g fill="none" stroke="rgb(220,60,40)" stroke-width="0.00035" id="coupler">
      <line x1="0.062553" y1="-0.009294" x2="0.0352" y2="-0.009294" />
      <line x1="0.062553" y1="-0.009294" x2="0.062553" y2="-0.008294" />
      <line x1="0.062553" y1="-0.008294" x2="0.052553" y2="-0.008294" />
      <line x1="0.052553" y1="-0.008294" x2="0.052553" y2="0.008294" />
      <line x1="0.062553" y1="0.008294" x2="0.052553" y2="0.008294" />
      <line x1="0.062553" y1="0.008294" x2="0.062553" y2="0.009294" />
      <line x1="0.062553" y1="0.009294" x2="0.0352" y2="0.009294" />
      <line x1="0.0352" y1="0.008294" x2="0.0352" y2="0.009294" />
      <path d="M 0.0352,0.008294 A 0.008294306588619054,0.008294306588619054 0.0 0,1 0.0352,-0.008294" />
      <line x1="0.0352" y1="-0.009294" x2="0.0352" y2="-0.008294" />
      <circle cx="0.0352" cy="-0.007" r="0.0012" />
      <circle cx="0.0282" cy="0.0" r="0.0012" />
      <path d="M 0.0294,0.0 A 0.0058,0.0058 0.0 0,1 0.0352,-0.0058" />
      <path d="M 0.0352,0.0058 A 0.0058,0.0058 0.0 0,1 0.0294,0.0" />
      <path d="M 0.041,0.0 A 0.0058,0.0058 0.0 0,1 0.0352,0.0058" />
      <path d="M 0.0352,-0.0058 A 0.0058,0.0058 0.0 0,1 0.041,-0.0" />
      <circle cx="0.0422" cy="-0.0" r="0.0011999999999999997" />
      <circle cx="0.0352" cy="0.007" r="0.0011999999999999995" />
      <line x1="0.062553" y1="-0.008294" x2="0.052553" y2="-0.008294" />
      <line x1="0.052553" y1="-0.008294" x2="0.052553" y2="0.008294" />
      <line x1="0.062553" y1="0.008294" x2="0.052553" y2="0.008294" />
      <line x1="0.062553" y1="0.008294" x2="0.062553" y2="-0.008294" />
      <line x1="0.133107" y1="-0.009294" x2="0.105753" y2="-0.009294" />
      <line x1="0.133107" y1="-0.009294" x2="0.133107" y2="0.009294" />
      <line x1="0.133107" y1="0.009294" x2="0.105753" y2="0.009294" />
      <line x1="0.105753" y1="0.008294" x2="0.105753" y2="0.009294" />
      <path d="M 0.105753,0.008294 A 0.008294306588619054,0.008294306588619054 0.0 0,1 0.105753,-0.008294" />
      <line x1="0.105753" y1="-0.009294" x2="0.105753" y2="-0.008294" />
      <path d="M 0.099953,0.0 A 0.0058,0.0058 0.0 0,1 0.105753,-0.0058" />
      <path d="M 0.105753,0.0058 A 0.0058,0.0058 0.0 0,1 0.099953,0.0" />
      <path d="M 0.111553,0.0 A 0.0058,0.0058 0.0 0,1 0.105753,0.0058" />
      <path d="M 0.105753,-0.0058 A 0.0058,0.0058 0.0 0,1 0.111553,-0.0" />
      <circle cx="0.105753" cy="-0.007" r="0.0011999999999999997" />
      <circle cx="0.098753" cy="0.0" r="0.0012" />
      <circle cx="0.105753" cy="0.007" r="0.0012" />
      <circle cx="0.112753" cy="0.0" r="0.0011999999999999997" />
      <line x1="0.20366" y1="0.008294" x2="0.20366" y2="-0.008294" />
      <line x1="0.19366" y1="-0.008294" x2="0.20366" y2="-0.008294" />
      <line x1="0.19366" y1="0.008294" x2="0.19366" y2="-0.008294" />
      <line x1="0.19366" y1="0.008294" x2="0.20366" y2="0.008294" />
      <line x1="0.274239" y1="0.009985" x2="0.246886" y2="0.009985" />
      <line x1="0.274239" y1="0.009985" x2="0.274209" y2="0.010015" />
      <line x1="0.274209" y1="0.010015" x2="0.246855" y2="0.010015" />
      <path d="M 0.246857,0.010013 A 0.008294306588619054,1.3270855498923608e-05 1.1287376861618063e-20 0,1 0.238576,0.01" />
      <path d="M 0.238576,0.01 A 0.008294306588619054,1.3270855498923608e-05 1.1287376861618063e-20 0,1 0.246884,0.009987" />
      <path d="M 0.24688,0.009991 A 0.0012,1.9199949300836897e-06 1.1287376861618063e-20 0,1 0.245682,0.009989" />
      <path d="M 0.245682,0.009989 A 0.0012,1.9199949300836897e-06 1.1287376861618063e-20 1,1 0.248082,0.009989" />
      <path d="M 0.248082,0.009989 A 0.0012,1.9199949300836897e-06 1.1287376861618063e-20 0,1 0.24688,0.009991" />
      <path d="M 0.241071,0.01 A 0.0012000000000000066,1.9199949300837003e-06 1.1287376861618063e-20 0,1 0.238671,0.01" />
      <path d="M 0.238671,0.01 A 0.0012000000000000066,1.9199949300837003e-06 1.1287376861618063e-20 1,1 0.241071,0.01" />
      <path d="M 0.241071,0.01 A 0.0058,9.279975495404501e-06 1.1287376861618063e-20 0,1 0.24688,0.009991" />
      <path d="M 0.24688,0.009991 A 0.0058,9.279975495404501e-06 1.1287376861618063e-20 0,1 0.252671,0.01" />
      <path d="M 0.252671,0.01 A 0.0058,9.279975495404501e-06 1.1287376861618063e-20 0,1 0.246861,0.010009" />
      <path d="M 0.246861,0.010009 A 0.0058,9.279975495404501e-06 1.1287376861618063e-20 0,1 0.241071,0.01" />
      <path d="M 0.252671,0.01 A 0.0012000000000000066,1.9199949300837003e-06 1.1287376861618063e-20 0,1 0.255071,0.01" />
      <path d="M 0.255071,0.01 A 0.0012000000000000066,1.9199949300837003e-06 1.1287376861618063e-20 0,1 0.252671,0.01" />
      <path d="M 0.246861,0.010009 A 0.0012,1.9199949300836897e-06 1.1287376861618063e-20 0,1 0.248059,0.010011" />
      <path d="M 0.248059,0.010011 A 0.0012000000000000066,1.9199949300837003e-06 1.1287376861618063e-20 0,1 0.245659,0.010011" />
      <path d="M 0.245659,0.010011 A 0.0012,1.9199949300836897e-06 1.1287376861618063e-20 0,1 0.246861,0.010009" />
      <line x1="0.274239" y1="-1.5e-05" x2="0.246886" y2="-1.5e-05" />
      <line x1="0.274239" y1="-1.5e-05" x2="0.274239" y2="0.009985" />
      <line x1="0.246886" y1="-1.5e-05" x2="0.246886" y2="0.009985" />
      <line x1="0.274238" y1="-0.032013" x2="0.274238" y2="-1.5e-05" />
      <line x1="0.274239" y1="-0.032015" x2="0.274238" y2="-0.032013" />
      <line x1="0.274239" y1="-0.042015" x2="0.274239" y2="-0.032015" />
      <line x1="0.246884" y1="-1.3e-05" x2="0.246884" y2="0.009987" />
      <path d="M 0.238576,-0.0 A 0.008294306588619054,1.3270855498923608e-05 1.1287376861618063e-20 0,1 0.246884,-1.3e-05" />
      <line x1="0.24688" y1="0.009987" x2="0.24688" y2="0.009991" />
      <line x1="0.246861" y1="0.009991" x2="0.246861" y2="0.010009" />
      <line x1="0.264238" y1="-0.032013" x2="0.264238" y2="-1.5e-05" />
      <line x1="0.264238" y1="-0.032013" x2="0.274238" y2="-0.032013" />
      <line x1="0.274239" y1="-0.032015" x2="0.246886" y2="-0.032015" />
      <path d="M 0.246857,-0.031987 A 0.008294306588619054,1.3270855498923608e-05 1.1287376861618063e-20 0,1 0.238576,-0.032" />
      <path d="M 0.238576,-0.032 A 0.008294306588619054,1.3270855498923608e-05 1.1287376861618063e-20 0,1 0.246884,-0.032013" />
      <line x1="0.26421" y1="-0.031987" x2="0.264238" y2="-0.032013" />
      <line x1="0.26421" y1="-0.031985" x2="0.246855" y2="-0.031985" />
      <path d="M 0.24688,-0.032009 A 0.0012,1.9199949300836897e-06 1.1287376861618063e-20 0,1 0.245682,-0.032011" />
      <path d="M 0.245682,-0.032011 A 0.0012,1.9199949300836897e-06 1.1287376861618063e-20 1,1 0.248082,-0.032011" />
      <path d="M 0.248082,-0.032011 A 0.0012,1.9199949300836897e-06 1.1287376861618063e-20 0,1 0.24688,-0.032009" />
      <path d="M 0.241071,-0.032 A 0.0012000000000000066,1.9199949300837003e-06 1.1287376861618063e-20 0,1 0.238671,-0.032" />
      <path d="M 0.238671,-0.032 A 0.0012000000000000066,1.9199949300837003e-06 1.1287376861618063e-20 1,1 0.241071,-0.032" />
      <path d="M 0.241071,-0.032 A 0.0058,9.279975495404501e-06 1.1287376861618063e-20 0,1 0.24688,-0.032009" />
      <path d="M 0.24688,-0.032009 A 0.0058,9.279975495404501e-06 1.1287376861618063e-20 0,1 0.252671,-0.032" />
      <path d="M 0.252671,-0.032 A 0.0058,9.279975495404501e-06 1.1287376861618063e-20 0,1 0.246861,-0.031991" />
      <path d="M 0.246861,-0.031991 A 0.0058,9.279975495404501e-06 1.1287376861618063e-20 0,1 0.241071,-0.032" />
      <path d="M 0.252671,-0.032 A 0.0012000000000000066,1.9199949300837003e-06 1.1287376861618063e-20 0,1 0.255071,-0.032" />
      <path d="M 0.255071,-0.032 A 0.0012000000000000066,1.9199949300837003e-06 1.1287376861618063e-20 0,1 0.252671,-0.032" />
      <path d="M 0.246861,-0.031991 A 0.0012,1.9199949300836897e-06 1.1287376861618063e-20 0,1 0.248059,-0.031989" />
      <path d="M 0.248059,-0.031989 A 0.0012000000000000066,1.9199949300837003e-06 1.1287376861618063e-20 0,1 0.245659,-0.031989" />
      <path d="M 0.245659,-0.031989 A 0.0012,1.9199949300836897e-06 1.1287376861618063e-20 0,1 0.246861,-0.031991" />
      <line x1="0.274239" y1="-0.042015" x2="0.246886" y2="-0.042015" />
      <line x1="0.246886" y1="-0.042015" x2="0.246886" y2="-0.032015" />
      <path d="M 0.238576,-0.042 A 0.008294306588619054,1.3270855498923608e-05 1.1287376861618063e-20 0,1 0.246884,-0.042013" />
      <line x1="0.26421" y1="-0.031987" x2="0.26421" y2="-1.5e-05" />
      <line x1="0.246884" y1="-0.042013" x2="0.246884" y2="-0.032013" />
      <line x1="0.24688" y1="-0.032013" x2="0.24688" y2="-0.032009" />
      <line x1="0.246861" y1="-0.032009" x2="0.246861" y2="-0.031991" />
      <line x1="0.238576" y1="-0.0" x2="0.238576" y2="0.01" />
      <line x1="0.238576" y1="-0.042" x2="0.238576" y2="-0.032" />
      <line x1="0.285345" y1="0.009983" x2="0.285345" y2="0.010026" />
      <line x1="0.285345" y1="0.009983" x2="0.303934" y2="0.009983" />
      <line x1="0.285345" y1="0.010026" x2="0.286345" y2="0.010026" />
      <line x1="0.303934" y1="0.009983" x2="0.303934" y2="0.010026" />
      <path d="M 0.302934,0.010026 A 0.008294499999999982,1.3293111287522454e-05 -1.7768419582012272e-38 0,1 0.286345,0.010026" />
      <line x1="0.302934" y1="0.010026" x2="0.303934" y2="0.010026" />
      <path d="M 0.288839,0.010026 A 0.0012000000000000066,1.9231699975920264e-06 -1.7768419582012272e-38 0,1 0.286439,0.010026" />
      <path d="M 0.286439,0.010026 A 0.0012,1.923169997592016e-06 -1.7768419582012272e-38 0,1 0.287639,0.010024" />
      <path d="M 0.287639,0.010024 A 0.0012,1.923169997592016e-06 -1.7768419582012272e-38 0,1 0.288839,0.010026" />
      <path d="M 0.294639,0.010036 A 0.0012,1.923169997592016e-06 -1.7768419582012272e-38 0,1 0.295839,0.010038" />
      <path d="M 0.295839,0.010038 A 0.0012000000000000066,1.9231699975920264e-06 -1.7768419582012272e-38 0,1 0.293439,0.010038" />
      <path d="M 0.293439,0.010038 A 0.0012,1.923169997592016e-06 -1.7768419582012272e-38 0,1 0.294639,0.010036" />
      <path d="M 0.294639,0.010036 A 0.0058,9.295321655028078e-06 -1.7768419582012272e-38 0,1 0.288839,0.010026" />
      <path d="M 0.288839,0.010026 A 0.0058,9.295321655028078e-06 -1.7768419582012272e-38 0,1 0.294639,0.010017" />
      <path d="M 0.294639,0.010017 A 0.0058,9.295321655028078e-06 -1.7768419582012272e-38 0,1 0.300439,0.010026" />
      <path d="M 0.300439,0.010026 A 0.0058,9.295321655028078e-06 -1.7768419582012272e-38 0,1 0.294639,0.010036" />
      <path d="M 0.294639,0.010017 A 0.0012,1.923169997592016e-06 -1.7768419582012272e-38 0,1 0.293439,0.010015" />
      <path d="M 0.293439,0.010015 A 0.0012,1.923169997592016e-06 -1.7768419582012272e-38 0,1 0.294639,0.010013" />
      <path d="M 0.294639,0.010013 A 0.0012,1.923169997592016e-06 -1.7768419582012272e-38 0,1 0.295839,0.010015" />
      <path d="M 0.295839,0.010015 A 0.0012,1.923169997592016e-06 -1.7768419582012272e-38 0,1 0.294639,0.010017" />
      <path d="M 0.300439,0.010026 A 0.0012,1.923169997592016e-06 -1.7768419582012272e-38 0,1 0.301639,0.010024" />
      <path d="M 0.301639,0.010024 A 0.0012,1.923169997592016e-06 -1.7768419582012272e-38 0,1 0.302839,0.010026" />
      <path d="M 0.302839,0.010026 A 0.0012000000000000066,1.9231699975920264e-06 -1.7768419582012272e-38 0,1 0.300439,0.010026" />
      <line x1="0.285345" y1="-1.7e-05" x2="0.285345" y2="0.009983" />
      <line x1="0.285345" y1="-1.7e-05" x2="0.286345" y2="-1.7e-05" />
      <line x1="0.286345" y1="-0.032017" x2="0.286345" y2="-1.7e-05" />
      <line x1="0.285345" y1="-0.032017" x2="0.286345" y2="-0.032017" />
      <line x1="0.285345" y1="-0.042017" x2="0.285345" y2="-0.032017" />
      <line x1="0.285345" y1="-0.042017" x2="0.303934" y2="-0.042017" />
      <line x1="0.303934" y1="-0.042017" x2="0.303934" y2="-0.032017" />
      <line x1="0.302934" y1="-0.032017" x2="0.303934" y2="-0.032017" />
      <line x1="0.302934" y1="-0.032017" x2="0.302934" y2="-1.7e-05" />
      <line x1="0.302934" y1="-1.7e-05" x2="0.303934" y2="-1.7e-05" />
      <line x1="0.303934" y1="-1.7e-05" x2="0.303934" y2="0.009983" />
      <line x1="0.294639" y1="0.010017" x2="0.294639" y2="0.010036" />
      <line x1="0.294639" y1="0.010013" x2="0.294639" y2="0.010017" />
      <line x1="0.285345" y1="-0.032017" x2="0.285345" y2="-0.031974" />
      <line x1="0.285345" y1="-0.031974" x2="0.286345" y2="-0.031974" />
      <path d="M 0.302934,-0.031974 A 0.008294306588619054,1.3292801318384957e-05 -1.7768419582012272e-38 0,1 0.302528,-0.031969" />
      <path d="M 0.286751,-0.031969 A 0.008294306588619054,1.3292801318384957e-05 -1.7768419582012272e-38 0,1 0.286345,-0.031974" />
      <line x1="0.302934" y1="-0.031974" x2="0.303934" y2="-0.031974" />
      <line x1="0.303934" y1="-0.032017" x2="0.303934" y2="-0.031974" />
    </g>
    <g fill="url(#hatch_coupler)" stroke="none" stroke-width="0" id="coupler_fill">
      <path d="M 0.062553,-0.009294 L 0.0352,-0.009294 L 0.0352,-0.008294 A 0.008294306588619054,0.008294306588619054 0.0 0,0 0.0352,0.008294 L 0.0352,0.009294 L 0.062553,0.009294 L 0.062553,0.008294 L 0.052553,0.008294 L 0.052553,-0.008294 L 0.062553,-0.008294 L 0.062553,-0.009294 M 0.0352,-0.0058 A 0.0012000000000000003,0.0012000000000000003 90.00000000000006 0,1 0.0352,-0.0082 A 0.0012000000000000003,0.0012000000000000003 90.00000000000006 0,1 0.0352,-0.0058 M 0.0294,0.0 A 0.0012,0.0012 0.0 0,1 0.027,0.0 A 0.0012,0.0012 0.0 0,1 0.0294,-0.0 A 0.0058,0.0058 0.0 0,1 0.0352,-0.0058 A 0.0058,0.0058 0.0 0,1 0.041,-0.0 A 0.0058,0.0058 0.0 0,1 0.0352,0.0058 A 0.0058,0.0058 0.0 0,1 0.0294,0.0 M 0.041,0.0 A 0.0011999999999999997,0.0011999999999999997 180.0 0,1 0.0434,-0.0 A 0.0011999999999999997,0.0011999999999999997 180.0 0,1 0.041,0.0 M 0.0352,0.0058 A 0.0012000000000000005,0.0012000000000000005 -90.00000000000006 0,1 0.0352,0.0082 A 0.0012000000000000005,0.0012000000000000005 -90.00000000000006 0,1 0.0352,0.0058" />
      <path d="M 0.052553,-0.008294 L 0.062553,-0.008294 L 0.062553,0.008294 L 0.052553,0.008294 L 0.052553,-0.008294" />
      <path d="M 0.105753,-0.009294 L 0.133107,-0.009294 L 0.133107,0.009294 L 0.105753,0.009294 L 0.105753,0.008294 A 0.008294306588619054,0.008294306588619054 0.0 0,1 0.105753,-0.008294 L 0.105753,-0.009294 M 0.105753,-0.0058 A 0.0058,0.0058 0.0 0,0 0.099953,0.0 A 0.0058,0.0058 0.0 0,0 0.105753,0.0058 A 0.0058,0.0058 0.0 0,0 0.111553,0.0 A 0.0058,0.0058 0.0 0,0 0.105753,-0.0058 A 0.0012000000000000005,0.0012000000000000005 90.00000000000006 0,0 0.105753,-0.0082 A 0.0012000000000000005,0.0012000000000000005 90.00000000000006 0,0 0.105753,-0.0058 M 0.099953,-0.0 A 0.0012,0.0012 0.0 0,0 0.097553,0.0 A 0.0012,0.0012 0.0 0,0 0.099953,0.0 M 0.105753,0.0058 A 0.0012000000000000003,0.0012000000000000003 -90.0 0,0 0.105753,0.0082 A 0.0012000000000000003,0.0012000000000000003 -90.0 0,0 0.105753,0.0058 M 0.111553,0.0 A 0.0011999999999999997,0.0011999999999999997 -180.0 0,0 0.113953,0.0 A 0.0011999999999999997,0.0011999999999999997 -180.0 0,0 0.111553,-0.0" />
      <path d="M 0.20366,-0.008294 L 0.20366,0.008294 L 0.19366,0.008294 L 0.19366,-0.008294 L 0.20366,-0.008294" />
    </g>
    <g fill="none" stroke="rgb(220,60,40)" stroke-opacity="0.4" stroke-width="0.00015" id="coupler_hidden" stroke-dasharray="0.0018 0.00045">
      <line x1="0.274239" y1="-1.5e-05" x2="0.274238" y2="-1.3e-05" />
      <line x1="0.274238" y1="-1.5e-05" x2="0.274238" y2="-1.3e-05" />
      <line x1="0.274239" y1="-0.042015" x2="0.274209" y2="-0.041985" />
      <line x1="0.274209" y1="-0.041985" x2="0.274209" y2="-0.031985" />
      <line x1="0.27421" y1="-0.031987" x2="0.274209" y2="-0.031985" />
      <line x1="0.27421" y1="-0.031987" x2="0.27421" y2="1.3e-05" />
      <line x1="0.27421" y1="1.3e-05" x2="0.274209" y2="1.5e-05" />
      <line x1="0.274209" y1="1.5e-05" x2="0.274209" y2="0.010015" />
      <line x1="0.274209" y1="1.5e-05" x2="0.246855" y2="1.5e-05" />
      <line x1="0.246855" y1="1.5e-05" x2="0.246855" y2="0.010015" />
      <path d="M 0.246857,1.3e-05 A 0.008294306588619054,1.3270855498923608e-05 1.1287376861618063e-20 0,1 0.238576,-0.0" />
      <line x1="0.246857" y1="1.3e-05" x2="0.246857" y2="0.010013" />
      <path d="M 0.24688,-9e-06 A 0.0012,1.9199949300836897e-06 1.1287376861618063e-20 0,1 0.245682,-1.1e-05" />
      <path d="M 0.245682,-1.1e-05 A 0.0012,1.9199949300836897e-06 1.1287376861618063e-20 1,1 0.248082,-1.1e-05" />
      <line x1="0.24688" y1="-9e-06" x2="0.24688" y2="0.009987" />
      <path d="M 0.248082,-1.1e-05 A 0.0012,1.9199949300836897e-06 1.1287376861618063e-20 0,1 0.24688,-9e-06" />
      <line x1="0.241071" y1="-0.0" x2="0.241071" y2="0.01" />
      <path d="M 0.241071,-0.0 A 0.0012000000000000066,1.9199949300837003e-06 1.1287376861618063e-20 0,1 0.238671,-0.0" />
      <path d="M 0.238671,-0.0 A 0.0012000000000000066,1.9199949300837003e-06 1.1287376861618063e-20 1,1 0.241071,-0.0" />
      <path d="M 0.241071,-0.0 A 0.0058,9.279975495404501e-06 1.1287376861618063e-20 0,1 0.24688,-9e-06" />
      <path d="M 0.24688,-9e-06 A 0.0058,9.279975495404501e-06 1.1287376861618063e-20 0,1 0.252671,-0.0" />
      <line x1="0.252671" y1="-0.0" x2="0.252671" y2="0.01" />
      <line x1="0.246861" y1="9e-06" x2="0.246861" y2="0.009991" />
      <path d="M 0.252671,-0.0 A 0.0058,9.279975495404501e-06 1.1287376861618063e-20 0,1 0.246861,9e-06" />
      <path d="M 0.246861,9e-06 A 0.0058,9.279975495404501e-06 1.1287376861618063e-20 0,1 0.241071,-0.0" />
      <path d="M 0.252671,-0.0 A 0.0012000000000000066,1.9199949300837003e-06 1.1287376861618063e-20 0,1 0.255071,-0.0" />
      <path d="M 0.255071,-0.0 A 0.0012000000000000066,1.9199949300837003e-06 1.1287376861618063e-20 0,1 0.252671,-0.0" />
      <path d="M 0.246861,9e-06 A 0.0012,1.9199949300836897e-06 1.1287376861618063e-20 0,1 0.248059,1.1e-05" />
      <path d="M 0.248059,1.1e-05 A 0.0012000000000000066,1.9199949300837003e-06 1.1287376861618063e-20 0,1 0.245659,1.1e-05" />
      <path d="M 0.245659,1.1e-05 A 0.0012,1.9199949300836897e-06 1.1287376861618063e-20 0,1 0.246861,9e-06" />
      <line x1="0.274238" y1="-1.3e-05" x2="0.264238" y2="-1.3e-05" />
      <line x1="0.264238" y1="-1.3e-05" x2="0.26421" y2="1.3e-05" />
      <line x1="0.27421" y1="1.3e-05" x2="0.26421" y2="1.3e-05" />
      <line x1="0.264238" y1="-1.5e-05" x2="0.264238" y2="-1.3e-05" />
      <line x1="0.26421" y1="-0.031987" x2="0.27421" y2="-0.031987" />
      <line x1="0.274209" y1="-0.031985" x2="0.26421" y2="-0.031985" />
      <line x1="0.274209" y1="-0.041985" x2="0.246855" y2="-0.041985" />
      <path d="M 0.246857,-0.041987 A 0.008294306588619054,1.3270855498923608e-05 1.1287376861618063e-20 0,1 0.238576,-0.042" />
      <path d="M 0.24688,-0.042009 A 0.0012,1.9199949300836897e-06 1.1287376861618063e-20 0,1 0.245682,-0.042011" />
      <path d="M 0.245682,-0.042011 A 0.0012,1.9199949300836897e-06 1.1287376861618063e-20 1,1 0.248082,-0.042011" />
      <path d="M 0.248082,-0.042011 A 0.0012,1.9199949300836897e-06 1.1287376861618063e-20 0,1 0.24688,-0.042009" />
      <path d="M 0.241071,-0.042 A 0.0012000000000000066,1.9199949300837003e-06 1.1287376861618063e-20 0,1 0.238671,-0.042" />
      <path d="M 0.238671,-0.042 A 0.0012000000000000066,1.9199949300837003e-06 1.1287376861618063e-20 1,1 0.241071,-0.042" />
      <path d="M 0.241071,-0.042 A 0.0058,9.279975495404501e-06 1.1287376861618063e-20 0,1 0.24688,-0.042009" />
      <path d="M 0.24688,-0.042009 A 0.0058,9.279975495404501e-06 1.1287376861618063e-20 0,1 0.252671,-0.042" />
      <path d="M 0.252671,-0.042 A 0.0058,9.279975495404501e-06 1.1287376861618063e-20 0,1 0.246861,-0.041991" />
      <path d="M 0.246861,-0.041991 A 0.0058,9.279975495404501e-06 1.1287376861618063e-20 0,1 0.241071,-0.042" />
      <path d="M 0.252671,-0.042 A 0.0012000000000000066,1.9199949300837003e-06 1.1287376861618063e-20 0,1 0.255071,-0.042" />
      <path d="M 0.255071,-0.042 A 0.0012000000000000066,1.9199949300837003e-06 1.1287376861618063e-20 0,1 0.252671,-0.042" />
      <path d="M 0.246861,-0.041991 A 0.0012,1.9199949300836897e-06 1.1287376861618063e-20 0,1 0.248059,-0.041989" />
      <path d="M 0.248059,-0.041989 A 0.0012000000000000066,1.9199949300837003e-06 1.1287376861618063e-20 0,1 0.245659,-0.041989" />
      <path d="M 0.245659,-0.041989 A 0.0012,1.9199949300836897e-06 1.1287376861618063e-20 0,1 0.246861,-0.041991" />
      <line x1="0.246855" y1="-0.041985" x2="0.246855" y2="-0.031985" />
      <line x1="0.26421" y1="-1.5e-05" x2="0.26421" y2="1.3e-05" />
      <line x1="0.246857" y1="-0.041987" x2="0.246857" y2="-0.031987" />
      <line x1="0.24688" y1="-0.042009" x2="0.24688" y2="-0.032013" />
      <line x1="0.241071" y1="-0.042" x2="0.241071" y2="-0.032" />
      <line x1="0.252671" y1="-0.042" x2="0.252671" y2="-0.032" />
      <line x1="0.246861" y1="-0.041991" x2="0.246861" y2="-0.032009" />
      <line x1="0.248082" y1="-1.1e-05" x2="0.248082" y2="0.009989" />
      <line x1="0.245682" y1="-1.1e-05" x2="0.245682" y2="0.009989" />
      <line x1="0.241071" y1="-0.0" x2="0.241071" y2="0.01" />
      <line x1="0.238671" y1="-0.0" x2="0.238671" y2="0.01" />
      <line x1="0.252671" y1="-0.0" x2="0.252671" y2="0.01" />
      <line x1="0.241071" y1="-0.0" x2="0.241071" y2="0.01" />
      <line x1="0.255071" y1="-0.0" x2="0.255071" y2="0.01" />
      <line x1="0.252671" y1="-0.0" x2="0.252671" y2="0.01" />
      <line x1="0.248059" y1="1.1e-05" x2="0.248059" y2="0.010011" />
      <line x1="0.245659" y1="1.1e-05" x2="0.245659" y2="0.010011" />
      <line x1="0.248082" y1="-0.042011" x2="0.248082" y2="-0.032011" />
      <line x1="0.245682" y1="-0.042011" x2="0.245682" y2="-0.032011" />
      <line x1="0.241071" y1="-0.042" x2="0.241071" y2="-0.032" />
      <line x1="0.238671" y1="-0.042" x2="0.238671" y2="-0.032" />
      <line x1="0.252671" y1="-0.042" x2="0.252671" y2="-0.032" />
      <line x1="0.241071" y1="-0.042" x2="0.241071" y2="-0.032" />
      <line x1="0.255071" y1="-0.042" x2="0.255071" y2="-0.032" />
      <line x1="0.252671" y1="-0.042" x2="0.252671" y2="-0.032" />
      <line x1="0.248059" y1="-0.041989" x2="0.248059" y2="-0.031989" />
      <line x1="0.245659" y1="-0.041989" x2="0.245659" y2="-0.031989" />
      <line x1="0.285345" y1="-1.7e-05" x2="0.285345" y2="2.6e-05" />
      <line x1="0.285345" y1="2.6e-05" x2="0.285345" y2="0.010026" />
      <line x1="0.286345" y1="2.6e-05" x2="0.286345" y2="0.010026" />
      <line x1="0.285345" y1="2.6e-05" x2="0.286345" y2="2.6e-05" />
      <line x1="0.303934" y1="-1.7e-05" x2="0.303934" y2="2.6e-05" />
      <line x1="0.303934" y1="2.6e-05" x2="0.303934" y2="0.010026" />
      <path d="M 0.302934,2.6e-05 A 0.008294499999999982,1.3293111287522454e-05 -1.7768419582012272e-38 0,1 0.286345,2.6e-05" />
      <line x1="0.302934" y1="2.6e-05" x2="0.302934" y2="0.010026" />
      <line x1="0.302934" y1="2.6e-05" x2="0.303934" y2="2.6e-05" />
      <path d="M 0.288839,2.6e-05 A 0.0012000000000000066,1.9231699975920264e-06 -1.7768419582012272e-38 0,1 0.286439,2.6e-05" />
      <path d="M 0.286439,2.6e-05 A 0.0012,1.923169997592016e-06 -1.7768419582012272e-38 0,1 0.287639,2.4e-05" />
      <line x1="0.288839" y1="2.6e-05" x2="0.288839" y2="0.010026" />
      <path d="M 0.287639,2.4e-05 A 0.0012,1.923169997592016e-06 -1.7768419582012272e-38 0,1 0.288839,2.6e-05" />
      <line x1="0.294639" y1="3.6e-05" x2="0.294639" y2="0.010017" />
      <path d="M 0.294639,3.6e-05 A 0.0012,1.923169997592016e-06 -1.7768419582012272e-38 0,1 0.295839,3.8e-05" />
      <path d="M 0.295839,3.8e-05 A 0.0012000000000000066,1.9231699975920264e-06 -1.7768419582012272e-38 0,1 0.293439,3.8e-05" />
      <path d="M 0.293439,3.8e-05 A 0.0012,1.923169997592016e-06 -1.7768419582012272e-38 0,1 0.294639,3.6e-05" />
      <path d="M 0.294639,3.6e-05 A 0.0058,9.295321655028078e-06 -1.7768419582012272e-38 0,1 0.288839,2.6e-05" />
      <path d="M 0.288839,2.6e-05 A 0.0058,9.295321655028078e-06 -1.7768419582012272e-38 0,1 0.294639,1.7e-05" />
      <line x1="0.294639" y1="1.7e-05" x2="0.294639" y2="0.010013" />
      <line x1="0.300439" y1="2.6e-05" x2="0.300439" y2="0.010026" />
      <path d="M 0.294639,1.7e-05 A 0.0058,9.295321655028078e-06 -1.7768419582012272e-38 0,1 0.300439,2.6e-05" />
      <path d="M 0.300439,2.6e-05 A 0.0058,9.295321655028078e-06 -1.7768419582012272e-38 0,1 0.294639,3.6e-05" />
      <path d="M 0.294639,1.7e-05 A 0.0012,1.923169997592016e-06 -1.7768419582012272e-38 0,1 0.293439,1.5e-05" />
      <path d="M 0.293439,1.5e-05 A 0.0012,1.923169997592016e-06 -1.7768419582012272e-38 0,1 0.294639,1.3e-05" />
      <path d="M 0.294639,1.3e-05 A 0.0012,1.923169997592016e-06 -1.7768419582012272e-38 0,1 0.295839,1.5e-05" />
      <path d="M 0.295839,1.5e-05 A 0.0012,1.923169997592016e-06 -1.7768419582012272e-38 0,1 0.294639,1.7e-05" />
      <path d="M 0.300439,2.6e-05 A 0.0012,1.923169997592016e-06 -1.7768419582012272e-38 0,1 0.301639,2.4e-05" />
      <path d="M 0.301639,2.4e-05 A 0.0012,1.923169997592016e-06 -1.7768419582012272e-38 0,1 0.302839,2.6e-05" />
      <path d="M 0.302839,2.6e-05 A 0.0012000000000000066,1.9231699975920264e-06 -1.7768419582012272e-38 0,1 0.300439,2.6e-05" />
      <line x1="0.286345" y1="-1.7e-05" x2="0.286345" y2="-1e-06" />
      <line x1="0.286345" y1="-1e-06" x2="0.302934" y2="-1e-06" />
      <line x1="0.302934" y1="-1.7e-05" x2="0.302934" y2="-1e-06" />
      <line x1="0.286345" y1="-0.032001" x2="0.286345" y2="-1e-06" />
      <line x1="0.286345" y1="-0.032001" x2="0.286345" y2="-0.032017" />
      <path d="M 0.302528,-0.031969 A 0.008294306588619054,1.3292801318384957e-05 -1.7768419582012272e-38 0,1 0.286751,-0.031969" />
      <line x1="0.302934" y1="-0.032001" x2="0.286345" y2="-0.032001" />
      <line x1="0.302934" y1="-0.032001" x2="0.302934" y2="-0.032017" />
      <path d="M 0.288839,-0.031974 A 0.0012000000000000066,1.9231699975920264e-06 -1.7768419582012272e-38 0,1 0.286439,-0.031974" />
      <path d="M 0.286439,-0.031974 A 0.0012,1.923169997592016e-06 -1.7768419582012272e-38 0,1 0.287639,-0.031975" />
      <path d="M 0.287639,-0.031975 A 0.0012,1.923169997592016e-06 -1.7768419582012272e-38 0,1 0.288839,-0.031974" />
      <path d="M 0.294639,-0.031964 A 0.0012,1.923169997592016e-06 -1.7768419582012272e-38 0,1 0.295839,-0.031962" />
      <path d="M 0.295839,-0.031962 A 0.0012000000000000066,1.9231699975920264e-06 -1.7768419582012272e-38 0,1 0.293439,-0.031962" />
      <path d="M 0.293439,-0.031962 A 0.0012,1.923169997592016e-06 -1.7768419582012272e-38 0,1 0.294639,-0.031964" />
      <path d="M 0.294639,-0.031964 A 0.0058,9.295321655028078e-06 -1.7768419582012272e-38 0,1 0.288839,-0.031974" />
      <path d="M 0.288839,-0.031974 A 0.0058,9.295321655028078e-06 -1.7768419582012272e-38 0,1 0.294639,-0.031983" />
      <path d="M 0.294639,-0.031983 A 0.0058,9.295321655028078e-06 -1.7768419582012272e-38 0,1 0.300439,-0.031974" />
      <path d="M 0.300439,-0.031974 A 0.0058,9.295321655028078e-06 -1.7768419582012272e-38 0,1 0.294639,-0.031964" />
      <path d="M 0.294639,-0.031983 A 0.0012,1.923169997592016e-06 -1.7768419582012272e-38 0,1 0.293439,-0.031985" />
      <path d="M 0.293439,-0.031985 A 0.0012,1.923169997592016e-06 -1.7768419582012272e-38 0,1 0.294639,-0.031987" />
      <path d="M 0.294639,-0.031987 A 0.0012,1.923169997592016e-06 -1.7768419582012272e-38 0,1 0.295839,-0.031985" />
      <path d="M 0.295839,-0.031985 A 0.0012,1.923169997592016e-06 -1.7768419582012272e-38 0,1 0.294639,-0.031983" />
      <path d="M 0.300439,-0.031974 A 0.0012,1.923169997592016e-06 -1.7768419582012272e-38 0,1 0.301639,-0.031975" />
      <path d="M 0.301639,-0.031975 A 0.0012,1.923169997592016e-06 -1.7768419582012272e-38 0,1 0.302839,-0.031974" />
      <path d="M 0.302839,-0.031974 A 0.0012000000000000066,1.9231699975920264e-06 -1.7768419582012272e-38 0,1 0.300439,-0.031974" />
      <line x1="0.285345" y1="-0.042017" x2="0.285345" y2="-0.041974" />
      <line x1="0.285345" y1="-0.041974" x2="0.285345" y2="-0.031974" />
      <line x1="0.303934" y1="-0.042017" x2="0.303934" y2="-0.041974" />
      <line x1="0.302934" y1="-0.041974" x2="0.303934" y2="-0.041974" />
      <path d="M 0.302934,-0.041974 A 0.008294499999999982,1.3293111287522454e-05 -1.7768419582012272e-38 0,1 0.286345,-0.041974" />
      <line x1="0.285345" y1="-0.041974" x2="0.286345" y2="-0.041974" />
      <path d="M 0.288839,-0.041974 A 0.0012000000000000066,1.9231699975920264e-06 -1.7768419582012272e-38 0,1 0.286439,-0.041974" />
      <path d="M 0.286439,-0.041974 A 0.0012,1.923169997592016e-06 -1.7768419582012272e-38 0,1 0.287639,-0.041975" />
      <path d="M 0.287639,-0.041975 A 0.0012,1.923169997592016e-06 -1.7768419582012272e-38 0,1 0.288839,-0.041974" />
      <path d="M 0.294639,-0.041964 A 0.0012,1.923169997592016e-06 -1.7768419582012272e-38 0,1 0.295839,-0.041962" />
      <path d="M 0.295839,-0.041962 A 0.0012000000000000066,1.9231699975920264e-06 -1.7768419582012272e-38 0,1 0.293439,-0.041962" />
      <path d="M 0.293439,-0.041962 A 0.0012,1.923169997592016e-06 -1.7768419582012272e-38 0,1 0.294639,-0.041964" />
      <path d="M 0.294639,-0.041964 A 0.0058,9.295321655028078e-06 -1.7768419582012272e-38 0,1 0.288839,-0.041974" />
      <path d="M 0.288839,-0.041974 A 0.0058,9.295321655028078e-06 -1.7768419582012272e-38 0,1 0.294639,-0.041983" />
      <path d="M 0.294639,-0.041983 A 0.0058,9.295321655028078e-06 -1.7768419582012272e-38 0,1 0.300439,-0.041974" />
      <path d="M 0.300439,-0.041974 A 0.0058,9.295321655028078e-06 -1.7768419582012272e-38 0,1 0.294639,-0.041964" />
      <path d="M 0.294639,-0.041983 A 0.0012,1.923169997592016e-06 -1.7768419582012272e-38 0,1 0.293439,-0.041985" />
      <path d="M 0.293439,-0.041985 A 0.0012,1.923169997592016e-06 -1.7768419582012272e-38 0,1 0.294639,-0.041987" />
      <path d="M 0.294639,-0.041987 A 0.0012,1.923169997592016e-06 -1.7768419582012272e-38 0,1 0.295839,-0.041985" />
      <path d="M 0.295839,-0.041985 A 0.0012,1.923169997592016e-06 -1.7768419582012272e-38 0,1 0.294639,-0.041983" />
      <path d="M 0.300439,-0.041974 A 0.0012,1.923169997592016e-06 -1.7768419582012272e-38 0,1 0.301639,-0.041975" />
      <path d="M 0.301639,-0.041975 A 0.0012,1.923169997592016e-06 -1.7768419582012272e-38 0,1 0.302839,-0.041974" />
      <path d="M 0.302839,-0.041974 A 0.0012000000000000066,1.9231699975920264e-06 -1.7768419582012272e-38 0,1 0.300439,-0.041974" />
      <line x1="0.303934" y1="-0.041974" x2="0.303934" y2="-0.031974" />
      <line x1="0.302934" y1="-0.032001" x2="0.302934" y2="-1e-06" />
      <line x1="0.286345" y1="-0.041974" x2="0.286345" y2="-0.031974" />
      <line x1="0.302934" y1="-0.041974" x2="0.302934" y2="-0.031974" />
      <line x1="0.288839" y1="-0.041974" x2="0.288839" y2="-0.031974" />
      <line x1="0.294639" y1="-0.041964" x2="0.294639" y2="-0.031964" />
      <line x1="0.294639" y1="-0.041983" x2="0.294639" y2="-0.031983" />
      <line x1="0.300439" y1="-0.041974" x2="0.300439" y2="-0.031974" />
      <line x1="0.286439" y1="2.6e-05" x2="0.286439" y2="0.010026" />
      <line x1="0.295839" y1="3.8e-05" x2="0.295839" y2="0.010038" />
      <line x1="0.293439" y1="3.8e-05" x2="0.293439" y2="0.010038" />
      <line x1="0.293439" y1="1.5e-05" x2="0.293439" y2="0.010015" />
      <line x1="0.295839" y1="1.5e-05" x2="0.295839" y2="0.010015" />
      <line x1="0.302839" y1="2.6e-05" x2="0.302839" y2="0.010026" />
      <line x1="0.286439" y1="-0.041974" x2="0.286439" y2="-0.031974" />
      <line x1="0.295839" y1="-0.041962" x2="0.295839" y2="-0.031962" />
      <line x1="0.293439" y1="-0.041962" x2="0.293439" y2="-0.031962" />
      <line x1="0.293439" y1="-0.041985" x2="0.293439" y2="-0.031985" />
      <line x1="0.295839" y1="-0.041985" x2="0.295839" y2="-0.031985" />
      <line x1="0.302839" y1="-0.041974" x2="0.302839" y2="-0.031974" />
    </g>
  </g>
  <text x="0.031277" y="-0.018075" text-anchor="middle" font-family="'Input Sans Narrow', 'DejaVu Sans', Arial, sans-serif" font-size="0.002500" font-weight="bold" fill="#333">A-A</text>
  <text x="0.031277" y="-0.014575" text-anchor="middle" font-family="'Input Sans Narrow', 'DejaVu Sans', Arial, sans-serif" font-size="0.001800" fill="#888">front_horn</text>
  <line x1="0.000000" y1="0.013200" x2="0.000000" y2="0.016200" stroke="#5C7080" stroke-width="0.000140" stroke-opacity="0.5"/>
  <line x1="0.062553" y1="0.013200" x2="0.062553" y2="0.016200" stroke="#5C7080" stroke-width="0.000140" stroke-opacity="0.5"/>
  <line x1="0.000000" y1="0.014600" x2="0.000000" y2="0.016200" stroke="#5C7080" stroke-width="0.000200"/>
  <line x1="0.062553" y1="0.014600" x2="0.062553" y2="0.016200" stroke="#5C7080" stroke-width="0.000200"/>
  <line x1="0.000000" y1="0.015400" x2="0.062553" y2="0.015400" stroke="#5C7080" stroke-width="0.000200"/>
  <polygon points="0.000000,0.015400 0.001500,0.014800 0.001500,0.016000" fill="#5C7080"/>
  <polygon points="0.062553,0.015400 0.061053,0.014800 0.061053,0.016000" fill="#5C7080"/>
  <text x="0.031277" y="0.014200" text-anchor="middle" font-family="'Input Sans Narrow', 'DejaVu Sans', Arial, sans-serif" font-size="0.001600" fill="#5C7080">62.6</text>
  <line x1="0.063353" y1="-0.012400" x2="0.066353" y2="-0.012400" stroke="#5C7080" stroke-width="0.000140" stroke-opacity="0.5"/>
  <line x1="0.063353" y1="0.012400" x2="0.066353" y2="0.012400" stroke="#5C7080" stroke-width="0.000140" stroke-opacity="0.5"/>
  <line x1="0.064753" y1="-0.012400" x2="0.066353" y2="-0.012400" stroke="#5C7080" stroke-width="0.000200"/>
  <line x1="0.064753" y1="0.012400" x2="0.066353" y2="0.012400" stroke="#5C7080" stroke-width="0.000200"/>
  <line x1="0.065553" y1="-0.012400" x2="0.065553" y2="0.012400" stroke="#5C7080" stroke-width="0.000200"/>
  <polygon points="0.065553,-0.012400 0.064953,-0.010900 0.066153,-0.010900" fill="#5C7080"/>
  <polygon points="0.065553,0.012400 0.064953,0.010900 0.066153,0.010900" fill="#5C7080"/>
  <text x="0.067053" y="0.000000" text-anchor="middle" dominant-baseline="central" font-family="'Input Sans Narrow', 'DejaVu Sans', Arial, sans-serif" font-size="0.001600" fill="#5C7080" transform="rotate(-90 0.067053 0.000000)">24.8</text>
  <text x="0.101830" y="-0.018075" text-anchor="middle" font-family="'Input Sans Narrow', 'DejaVu Sans', Arial, sans-serif" font-size="0.002500" font-weight="bold" fill="#333">B-B</text>
  <text x="0.101830" y="-0.014575" text-anchor="middle" font-family="'Input Sans Narrow', 'DejaVu Sans', Arial, sans-serif" font-size="0.001800" fill="#888">rear_horn</text>
  <text x="0.172384" y="-0.018075" text-anchor="middle" font-family="'Input Sans Narrow', 'DejaVu Sans', Arial, sans-serif" font-size="0.002500" font-weight="bold" fill="#333">C-C</text>
  <text x="0.172384" y="-0.014575" text-anchor="middle" font-family="'Input Sans Narrow', 'DejaVu Sans', Arial, sans-serif" font-size="0.001800" fill="#888">mid_body</text>
  <text x="0.242950" y="-0.018075" text-anchor="middle" font-family="'Input Sans Narrow', 'DejaVu Sans', Arial, sans-serif" font-size="0.002500" font-weight="bold" fill="#333">side_XZ</text>
  <line x1="0.211660" y1="0.042815" x2="0.211660" y2="0.045815" stroke="#5C7080" stroke-width="0.000140" stroke-opacity="0.5"/>
  <line x1="0.274239" y1="0.042815" x2="0.274239" y2="0.045815" stroke="#5C7080" stroke-width="0.000140" stroke-opacity="0.5"/>
  <line x1="0.211660" y1="0.044215" x2="0.211660" y2="0.045815" stroke="#5C7080" stroke-width="0.000200"/>
  <line x1="0.274239" y1="0.044215" x2="0.274239" y2="0.045815" stroke="#5C7080" stroke-width="0.000200"/>
  <line x1="0.211660" y1="0.045015" x2="0.274239" y2="0.045015" stroke="#5C7080" stroke-width="0.000200"/>
  <polygon points="0.211660,0.045015 0.213160,0.044415 0.213160,0.045615" fill="#5C7080"/>
  <polygon points="0.274239,0.045015 0.272739,0.044415 0.272739,0.045615" fill="#5C7080"/>
  <text x="0.242950" y="0.043815" text-anchor="middle" font-family="'Input Sans Narrow', 'DejaVu Sans', Arial, sans-serif" font-size="0.001600" fill="#5C7080">62.6</text>
  <line x1="0.275039" y1="-0.010015" x2="0.278039" y2="-0.010015" stroke="#5C7080" stroke-width="0.000140" stroke-opacity="0.5"/>
  <line x1="0.275039" y1="0.042015" x2="0.278039" y2="0.042015" stroke="#5C7080" stroke-width="0.000140" stroke-opacity="0.5"/>
  <line x1="0.276439" y1="-0.010015" x2="0.278039" y2="-0.010015" stroke="#5C7080" stroke-width="0.000200"/>
  <line x1="0.276439" y1="0.042015" x2="0.278039" y2="0.042015" stroke="#5C7080" stroke-width="0.000200"/>
  <line x1="0.277239" y1="-0.010015" x2="0.277239" y2="0.042015" stroke="#5C7080" stroke-width="0.000200"/>
  <polygon points="0.277239,-0.010015 0.276639,-0.008515 0.277839,-0.008515" fill="#5C7080"/>
  <polygon points="0.277239,0.042015 0.276639,0.040515 0.277839,0.040515" fill="#5C7080"/>
  <text x="0.278739" y="0.016000" text-anchor="middle" dominant-baseline="central" font-family="'Input Sans Narrow', 'DejaVu Sans', Arial, sans-serif" font-size="0.001600" fill="#5C7080" transform="rotate(-90 0.278739 0.016000)">52.0</text>
  <line x1="0.208660" y1="-0.000000" x2="0.277239" y2="-0.000000" stroke="#555" stroke-width="0.000250" stroke-dasharray="0.002500,0.000800,0.000500,0.000800"/>
  <text x="0.207160" y="0.000600" text-anchor="end" font-family="'Input Sans Narrow', 'DejaVu Sans', Arial, sans-serif" font-size="0.002000" font-weight="bold" fill="#555">A</text>
  <text x="0.278739" y="0.000600" text-anchor="start" font-family="'Input Sans Narrow', 'DejaVu Sans', Arial, sans-serif" font-size="0.002000" font-weight="bold" fill="#555">A</text>
  <line x1="0.208660" y1="0.032000" x2="0.277239" y2="0.032000" stroke="#555" stroke-width="0.000250" stroke-dasharray="0.002500,0.000800,0.000500,0.000800"/>
  <text x="0.207160" y="0.032600" text-anchor="end" font-family="'Input Sans Narrow', 'DejaVu Sans', Arial, sans-serif" font-size="0.002000" font-weight="bold" fill="#555">B</text>
  <text x="0.278739" y="0.032600" text-anchor="start" font-family="'Input Sans Narrow', 'DejaVu Sans', Arial, sans-serif" font-size="0.002000" font-weight="bold" fill="#555">B</text>
  <line x1="0.208660" y1="0.016000" x2="0.277239" y2="0.016000" stroke="#555" stroke-width="0.000250" stroke-dasharray="0.002500,0.000800,0.000500,0.000800"/>
  <text x="0.207160" y="0.016600" text-anchor="end" font-family="'Input Sans Narrow', 'DejaVu Sans', Arial, sans-serif" font-size="0.002000" font-weight="bold" fill="#555">C</text>
  <text x="0.278739" y="0.016600" text-anchor="start" font-family="'Input Sans Narrow', 'DejaVu Sans', Arial, sans-serif" font-size="0.002000" font-weight="bold" fill="#555">C</text>
  <text x="0.294639" y="-0.018075" text-anchor="middle" font-family="'Input Sans Narrow', 'DejaVu Sans', Arial, sans-serif" font-size="0.002500" font-weight="bold" fill="#333">side_YZ</text>
  <line x1="0.282239" y1="0.042817" x2="0.282239" y2="0.045817" stroke="#5C7080" stroke-width="0.000140" stroke-opacity="0.5"/>
  <line x1="0.307039" y1="0.042817" x2="0.307039" y2="0.045817" stroke="#5C7080" stroke-width="0.000140" stroke-opacity="0.5"/>
  <line x1="0.282239" y1="0.044217" x2="0.282239" y2="0.045817" stroke="#5C7080" stroke-width="0.000200"/>
  <line x1="0.307039" y1="0.044217" x2="0.307039" y2="0.045817" stroke="#5C7080" stroke-width="0.000200"/>
  <line x1="0.282239" y1="0.045017" x2="0.307039" y2="0.045017" stroke="#5C7080" stroke-width="0.000200"/>
  <polygon points="0.282239,0.045017 0.283739,0.044417 0.283739,0.045617" fill="#5C7080"/>
  <polygon points="0.307039,0.045017 0.305539,0.044417 0.305539,0.045617" fill="#5C7080"/>
  <text x="0.294639" y="0.043817" text-anchor="middle" font-family="'Input Sans Narrow', 'DejaVu Sans', Arial, sans-serif" font-size="0.001600" fill="#5C7080">24.8</text>
  <line x1="0.307839" y1="-0.010040" x2="0.310839" y2="-0.010040" stroke="#5C7080" stroke-width="0.000140" stroke-opacity="0.5"/>
  <line x1="0.307839" y1="0.042017" x2="0.310839" y2="0.042017" stroke="#5C7080" stroke-width="0.000140" stroke-opacity="0.5"/>
  <line x1="0.309239" y1="-0.010040" x2="0.310839" y2="-0.010040" stroke="#5C7080" stroke-width="0.000200"/>
  <line x1="0.309239" y1="0.042017" x2="0.310839" y2="0.042017" stroke="#5C7080" stroke-width="0.000200"/>
  <line x1="0.310039" y1="-0.010040" x2="0.310039" y2="0.042017" stroke="#5C7080" stroke-width="0.000200"/>
  <polygon points="0.310039,-0.010040 0.309439,-0.008540 0.310639,-0.008540" fill="#5C7080"/>
  <polygon points="0.310039,0.042017 0.309439,0.040517 0.310639,0.040517" fill="#5C7080"/>
  <text x="0.311539" y="0.015989" text-anchor="middle" dominant-baseline="central" font-family="'Input Sans Narrow', 'DejaVu Sans', Arial, sans-serif" font-size="0.001600" fill="#5C7080" transform="rotate(-90 0.311539 0.015989)">52.1</text>
  <line x1="0.279239" y1="-0.000000" x2="0.310039" y2="-0.000000" stroke="#555" stroke-width="0.000250" stroke-dasharray="0.002500,0.000800,0.000500,0.000800"/>
  <text x="0.277739" y="0.000600" text-anchor="end" font-family="'Input Sans Narrow', 'DejaVu Sans', Arial, sans-serif" font-size="0.002000" font-weight="bold" fill="#555">A</text>
  <text x="0.311539" y="0.000600" text-anchor="start" font-family="'Input Sans Narrow', 'DejaVu Sans', Arial, sans-serif" font-size="0.002000" font-weight="bold" fill="#555">A</text>
  <line x1="0.279239" y1="0.032000" x2="0.310039" y2="0.032000" stroke="#555" stroke-width="0.000250" stroke-dasharray="0.002500,0.000800,0.000500,0.000800"/>
  <text x="0.277739" y="0.032600" text-anchor="end" font-family="'Input Sans Narrow', 'DejaVu Sans', Arial, sans-serif" font-size="0.002000" font-weight="bold" fill="#555">B</text>
  <text x="0.311539" y="0.032600" text-anchor="start" font-family="'Input Sans Narrow', 'DejaVu Sans', Arial, sans-serif" font-size="0.002000" font-weight="bold" fill="#555">B</text>
  <line x1="0.279239" y1="0.016000" x2="0.310039" y2="0.016000" stroke="#555" stroke-width="0.000250" stroke-dasharray="0.002500,0.000800,0.000500,0.000800"/>
  <text x="0.277739" y="0.016600" text-anchor="end" font-family="'Input Sans Narrow', 'DejaVu Sans', Arial, sans-serif" font-size="0.002000" font-weight="bold" fill="#555">C</text>
  <text x="0.311539" y="0.016600" text-anchor="start" font-family="'Input Sans Narrow', 'DejaVu Sans', Arial, sans-serif" font-size="0.002000" font-weight="bold" fill="#555">C</text>
  <text x="-0.001175" y="0.050192" font-family="'Input Sans Narrow', 'DejaVu Sans', Arial, sans-serif" font-size="0.003500" font-weight="bold" fill="#222">coupler</text>
  <line x1="-0.001175" y1="0.054192" x2="0.008825" y2="0.054192" stroke="#333" stroke-width="0.000350"/>
  <line x1="-0.001175" y1="0.053192" x2="-0.001175" y2="0.055192" stroke="#333" stroke-width="0.000250"/>
  <line x1="0.008825" y1="0.053192" x2="0.008825" y2="0.055192" stroke="#333" stroke-width="0.000250"/>
  <text x="0.010325" y="0.054892" font-family="'Input Sans Narrow', 'DejaVu Sans', Arial, sans-serif" font-size="0.001800" fill="#888">10 mm</text>
  <rect x="0.028825" y="0.047692" width="0.004000" height="0.002500" fill="url(#hatch_servo)" stroke="rgb(60,60,60)" stroke-width="0.000300"/>
  <text x="0.034325" y="0.049692" font-family="'Input Sans Narrow', 'DejaVu Sans', Arial, sans-serif" font-size="0.001800" fill="rgb(60,60,60)">servo</text>
  <rect x="0.028825" y="0.051192" width="0.004000" height="0.002500" fill="url(#hatch_coupler)" stroke="rgb(220,60,40)" stroke-width="0.000300"/>
  <text x="0.034325" y="0.053192" font-family="'Input Sans Narrow', 'DejaVu Sans', Arial, sans-serif" font-size="0.001800" fill="rgb(220,60,40)">coupler</text>
</svg>