<?xml version='1.0' encoding='utf-8'?>
<svg width="280.75mm" height="73.61mm" viewBox="-0.003175 -0.031480 0.280751 0.073609" version="1.1" xmlns="http://www.w3.org/2000/svg">
  <defs>
    <pattern id="hatch_servo" width="0.0012" height="0.0012" patternUnits="userSpaceOnUse" patternTransform="rotate(45)">
      <line x1="0" y1="0" x2="0" y2="0.0012" stroke="rgb(60,60,60)" stroke-width="0.0001" stroke-opacity="0.6"/>
    </pattern>
    <pattern id="hatch_bracket" width="0.0012" height="0.0012" patternUnits="userSpaceOnUse" patternTransform="rotate(75)">
      <line x1="0" y1="0" x2="0" y2="0.0012" stroke="rgb(50,120,190)" stroke-width="0.0001" stroke-opacity="0.6"/>
    </pattern>
  </defs>
  <g transform="scale(1,-1)" stroke-linecap="round">
    <g fill="none" stroke="rgb(60,60,60)" stroke-width="0.00035" id="servo">
      <line x1="0.0028" y1="-0.0084" x2="0.0028" y2="0.0084" />
      <path d="M 0.0028,-0.0084 A 0.004,0.004 -90.0 0,1 0.0068,-0.0124" />
      <line x1="0.0068" y1="-0.0124" x2="0.0442" y2="-0.0124" />
      <path d="M 0.0482,-0.0084 A 0.004,0.004 -90.0 0,0 0.0442,-0.0124" />
      <line x1="0.0482" y1="-0.0084" x2="0.0482" y2="0.0084" />
      <path d="M 0.0482,0.0084 A 0.004,0.004 -90.0 0,1 0.0442,0.0124" />
      <line x1="0.0068" y1="0.0124" x2="0.0442" y2="0.0124" />
      <path d="M 0.0028,0.0084 A 0.004,0.004 -90.0 0,0 0.0068,0.0124" />
      <path d="M 0.0658,0.0124 A 0.004,0.004 180.0 0,1 0.0618,0.0084" />
      <line x1="0.0658" y1="0.0124" x2="0.1032" y2="0.0124" />
      <path d="M 0.1072,0.0084 A 0.004,0.004 0.0 0,1 0.1032,0.0124" />
      <line x1="0.1072" y1="0.0084" x2="0.1072" y2="-0.0084" />
      <path d="M 0.1032,-0.0124 A 0.004,0.004 0.0 0,1 0.1072,-0.0084" />
      <line x1="0.0658" y1="-0.0124" x2="0.1032" y2="-0.0124" />
      <path d="M 0.0618,-0.0084 A 0.004,0.004 180.0 0,1 0.0658,-0.0124" />
      <line x1="0.0618" y1="0.0084" x2="0.0618" y2="-0.0084" />
      <line x1="0.1228" y1="-0.012312" x2="0.1228" y2="-0.0124" />
      <line x1="0.1228" y1="-0.0124" x2="0.1632" y2="-0.0124" />
      <line x1="0.1632" y1="-0.0084" x2="0.1632" y2="-0.0124" />
      <line x1="0.148694" y1="-0.0084" x2="0.1632" y2="-0.0084" />
      <path d="M 0.148694,-0.0084 A 0.0021,0.0021 61.757462815565304 1,0 0.146706,-0.0084" />
      <line x1="0.127994" y1="-0.0084" x2="0.146706" y2="-0.0084" />
      <path d="M 0.1251,-0.011144 A 0.0021,0.0021 0.0 1,1 0.127994,-0.0084" />
      <path d="M 0.1228,-0.012312 A 0.0021,0.0021 0.0 0,1 0.1251,-0.011144" />
      <path d="M 0.1251,-0.009356 A 0.0021,0.0021 0.0 0,1 0.124194,-0.0084" />
      <line x1="0.124194" y1="-0.0084" x2="0.126006" y2="-0.0084" />
      <path d="M 0.126006,-0.0084 A 0.0021,0.0021 0.0 0,1 0.1251,-0.009356" />
      <path d="M 0.124194,0.0084 A 0.0021,0.0021 0.0 0,1 0.1251,0.009356" />
      <path d="M 0.1251,0.009356 A 0.0021,0.0021 0.0 0,1 0.126006,0.0084" />
      <line x1="0.124194" y1="0.0084" x2="0.126006" y2="0.0084" />
      <path d="M 0.127994,0.0084 A 0.0021,0.0021 0.0 1,1 0.1251,0.011144" />
      <line x1="0.127994" y1="0.0084" x2="0.146706" y2="0.0084" />
      <path d="M 0.146706,0.0084 A 0.0021,0.0021 -118.2425371844347 1,0 0.148694,0.0084" />
      <line x1="0.148694" y1="0.0084" x2="0.1632" y2="0.0084" />
      <line x1="0.1632" y1="0.0124" x2="0.1632" y2="0.0084" />
      <line x1="0.1228" y1="0.0124" x2="0.1632" y2="0.0124" />
      <line x1="0.1228" y1="0.0124" x2="0.1228" y2="0.012312" />
      <path d="M 0.1251,0.011144 A 0.0021,0.0021 0.0 0,1 0.1228,0.012312" />
      <circle cx="0.156" cy="0.0" r="0.003" />
      <line x1="0.179801" y1="-0.0163" x2="0.179801" y2="0.0163" />
      <line x1="0.1798" y1="0.0163" x2="0.1798" y2="-0.0163" />
      <path d="M 0.179801,0.0163 A 0.004,1.2159931182820816e-07 -6.570239861226303e-24 0,0 0.183801,0.0163" />
      <line x1="0.183801" y1="-0.0163" x2="0.183801" y2="0.0163" />
      <line x1="0.182782" y1="-0.0163" x2="0.182782" y2="-0.0084" />
      <path d="M 0.18012,-0.0084 A 0.004,1.2159931182820814e-07 -6.2856768930221406e-24 0,0 0.182782,-0.0084" />
      <line x1="0.18012" y1="-0.0163" x2="0.18012" y2="-0.0084" />
      <path d="M 0.179801,-0.0163 A 0.004,1.2159931182820816e-07 -6.570239861226303e-24 0,0 0.18012,-0.0163" />
      <path d="M 0.1798,-0.0163 A 0.004,1.2159931182820816e-07 180.0 0,1 0.180119,-0.0163" />
      <path d="M 0.225201,-0.0163 A 0.004,1.2159931182820816e-07 180.0 0,1 0.222201,-0.0163" />
      <path d="M 0.181801,-0.0163 A 0.0021,6.383963870980927e-08 -6.2856768930221406e-24 0,0 0.18012,-0.0163" />
      <line x1="0.183801" y1="0.0163" x2="0.221201" y2="0.0163" />
      <path d="M 0.225201,0.0163 A 0.004,1.2159931182820816e-07 180.0 0,1 0.221201,0.0163" />
      <line x1="0.221201" y1="-0.0163" x2="0.221201" y2="0.0163" />
      <line x1="0.221201" y1="-0.0163" x2="0.222201" y2="-0.0163" />
      <line x1="0.222201" y1="-0.0184" x2="0.222201" y2="-0.0163" />
      <line x1="0.181801" y1="-0.0184" x2="0.222201" y2="-0.0184" />
      <line x1="0.181801" y1="-0.0184" x2="0.181801" y2="-0.0163" />
      <line x1="0.181801" y1="-0.0163" x2="0.183801" y2="-0.0163" />
      <path d="M 0.182782,-0.0084 A 0.0021,6.383963870980927e-08 -6.2856768930221406e-24 0,0 0.18012,-0.0084" />
      <path d="M 0.184101,-0.0184 A 0.0021,6.383963870980927e-08 -6.2856768930221406e-24 0,0 0.183195,-0.0184" />
      <line x1="0.183194" y1="-0.0184" x2="0.185006" y2="-0.0184" />
      <path d="M 0.1841,-0.0184 A 0.0021,6.383963870980927e-08 180.0 0,1 0.1881,-0.0184" />
      <path d="M 0.1881,-0.0184 A 0.0021,6.383963870980927e-08 180.0 0,1 0.186994,-0.0184" />
      <path d="M 0.1841,-0.0184 A 0.0021,6.383963870980927e-08 -6.2856768930221406e-24 0,0 0.185006,-0.0184" />
      <line x1="0.186994" y1="-0.0184" x2="0.205706" y2="-0.0184" />
      <path d="M 0.207694,-0.0184 A 0.0021,6.383963870980927e-08 -6.2856768930221406e-24 0,0 0.2088,-0.0184" />
      <path d="M 0.2088,-0.0184 A 0.0021000000000000046,6.383963870980942e-08 -6.2856768930221406e-24 0,0 0.2046,-0.0184" />
      <path d="M 0.2046,-0.0184 A 0.0021,6.383963870980927e-08 -6.2856768930221406e-24 0,0 0.205706,-0.0184" />
      <line x1="0.207694" y1="-0.0184" x2="0.2222" y2="-0.0184" />
      <line x1="0.225201" y1="-0.0163" x2="0.225201" y2="0.0163" />
      <path d="M 0.205707,-0.0184 A 0.0021,6.383963870980927e-08 -6.2856768930221406e-24 0,0 0.204601,-0.0184" />
      <path d="M 0.204601,-0.0184 A 0.0021,6.383963870980927e-08 -6.2856768930221406e-24 1,0 0.208801,-0.0184" />
      <path d="M 0.208801,-0.0184 A 0.0021,6.383963870980927e-08 -6.2856768930221406e-24 0,0 0.207695,-0.0184" />
      <path d="M 0.186995,-0.0184 A 0.0021,6.383963870980927e-08 -180.0 0,1 0.188101,-0.0184" />
      <path d="M 0.188101,-0.0184 A 0.0021,6.383963870980927e-08 -180.0 0,1 0.184101,-0.0184" />
      <path d="M 0.185007,-0.0184 A 0.0021,6.383963870980927e-08 -6.2856768930221406e-24 0,0 0.184101,-0.0184" />
      <path d="M 0.181801,-0.0163 A 0.0021,6.383963870980927e-08 -6.2856768930221406e-24 0,0 0.1818,-0.0163" />
      <line x1="0.1818" y1="-0.0184" x2="0.1818" y2="-0.0163" />
      <path d="M 0.1841,-0.0184 A 0.0021,6.383963870980927e-08 -6.2856768930221406e-24 0,0 0.1818,-0.0184" />
      <path d="M 0.205001,0.018 A 0.002,6.079965591410408e-08 -6.570239861226303e-24 0,0 0.207001,0.018" />
      <line x1="0.207001" y1="0.018" x2="0.223001" y2="0.018" />
      <path d="M 0.225001,0.018 A 0.002,6.079965591410408e-08 180.0 0,1 0.223001,0.018" />
      <path d="M 0.210501,0.0195 A 0.004500000000000004,1.3679922580673427e-07 -6.2856768930221406e-24 1,0 0.219501,0.0195" />
      <line x1="0.205001" y1="0.0163" x2="0.205001" y2="0.018" />
      <line x1="0.207001" y1="0.0163" x2="0.207001" y2="0.018" />
      <line x1="0.223001" y1="0.0163" x2="0.223001" y2="0.018" />
      <line x1="0.225001" y1="0.0163" x2="0.225001" y2="0.018" />
      <line x1="0.1798" y1="-0.0163" x2="0.1798" y2="0.0163" />
      <line x1="0.225201" y1="-0.0163" x2="0.225201" y2="0.0163" />
      <line x1="0.219501" y1="0.018" x2="0.219501" y2="0.0195" />
      <line x1="0.210501" y1="0.018" x2="0.210501" y2="0.0195" />
      <line x1="0.238801" y1="-0.016299" x2="0.238801" y2="0.016299" />
      <path d="M 0.259601,-0.016301 A 0.0021,6.384268007814874e-08 -2.9183442747923052e-39 0,0 0.259351,-0.016301" />
      <path d="M 0.259351,-0.016301 A 0.0021,6.384268007814874e-08 -2.9183442747923052e-39 0,0 0.259601,-0.016301" />
      <path d="M 0.259601,-0.016301 A 0.0021,6.384268007814874e-08 -2.9183442747923052e-39 0,0 0.259351,-0.016301" />
      <path d="M 0.259351,-0.016301 A 0.016447152983300732,5.000144410043992e-07 -2.9183442747923052e-39 0,0 0.259601,-0.0163" />
      <path d="M 0.259601,-0.0163 A 0.0021,6.384268007814874e-08 -2.9183442747923052e-39 0,0 0.259351,-0.0163" />
      <path d="M 0.259351,-0.0163 A 0.0021,6.384268007814874e-08 -2.9183442747923052e-39 0,0 0.259601,-0.0163" />
      <line x1="0.259601" y1="-0.016299" x2="0.263474" y2="-0.016299" />
      <path d="M 0.259601,-0.016299 A 0.004,1.2160510491075951e-07 1.0148355295296673e-39 0,0 0.263474,-0.016299" />
      <line x1="0.242801" y1="-0.016299" x2="0.259601" y2="-0.016299" />
      <path d="M 0.242801,-0.016299 A 0.004,1.2160510491075951e-07 -180.0 0,1 0.238928,-0.016299" />
      <line x1="0.238928" y1="-0.016299" x2="0.242801" y2="-0.016299" />
      <path d="M 0.242801,-0.0163 A 0.0021,6.384268007814874e-08 -2.9183442747923052e-39 0,0 0.243051,-0.0163" />
      <path d="M 0.243051,-0.0163 A 0.0021,6.384268007814874e-08 -2.9183442747923052e-39 0,0 0.242801,-0.0163" />
      <path d="M 0.242801,-0.0163 A 0.016447152983300732,5.000144410043992e-07 -2.9183442747923052e-39 0,0 0.243051,-0.016301" />
      <path d="M 0.243051,-0.016301 A 0.0021,6.384268007814874e-08 -2.9183442747923052e-39 0,0 0.242801,-0.016301" />
      <path d="M 0.242801,-0.016301 A 0.0021,6.384268007814874e-08 -2.9183442747923052e-39 0,0 0.243051,-0.016301" />
      <path d="M 0.243051,-0.016301 A 0.0021,6.384268007814874e-08 -2.9183442747923052e-39 0,0 0.242801,-0.016301" />
      <path d="M 0.251201,-0.0163 A 0.003,9.120382868306963e-08 -2.9183442747923052e-39 0,0 0.254201,-0.0163" />
      <path d="M 0.248201,-0.0163 A 0.003,9.120382868306963e-08 -2.9183442747923052e-39 0,0 0.251201,-0.0163" />
      <line x1="0.263601" y1="0.016299" x2="0.263601" y2="-0.016299" />
      <path d="M 0.242801,0.016301 A 0.004,1.2160510491075951e-07 -180.0 0,1 0.238801,0.016301" />
      <path d="M 0.259601,0.016301 A 0.004,1.2160510491075951e-07 1.0148355295296673e-39 0,0 0.263601,0.016301" />
      <line x1="0.242801" y1="0.016301" x2="0.259601" y2="0.016301" />
      <line x1="0.238801" y1="-0.016299" x2="0.238801" y2="0.016301" />
      <line x1="0.238801" y1="-0.018399" x2="0.238801" y2="-0.016299" />
      <path d="M 0.23889,-0.018401 A 0.0021,6.384268007814874e-08 -2.9183442747923052e-39 0,0 0.238851,-0.018401" />
      <path d="M 0.238851,-0.018401 A 0.0021,6.384268007814874e-08 -2.9183442747923052e-39 0,0 0.240057,-0.018401" />
      <path d="M 0.241846,-0.018401 A 0.0021,6.384268007814874e-08 -2.9183442747923052e-39 0,0 0.242801,-0.018401" />
      <path d="M 0.259601,-0.018401 A 0.0021,6.384268007814874e-08 -2.9183442747923052e-39 0,0 0.260557,-0.018401" />
      <path d="M 0.262346,-0.018401 A 0.0021,6.384268007814874e-08 180.0 0,1 0.263551,-0.018401" />
      <path d="M 0.263551,-0.018401 A 0.01656483749560606,5.035922003707145e-07 180.0 0,1 0.259601,-0.0184" />
      <path d="M 0.260557,-0.018401 A 0.0021,6.384268007814874e-08 -2.9183442747923052e-39 0,0 0.259601,-0.018401" />
      <path d="M 0.259601,-0.0184 A 0.0021,6.384268007814874e-08 -2.9183442747923052e-39 0,0 0.261451,-0.0184" />
      <path d="M 0.261451,-0.0184 A 0.0021,6.384268007814874e-08 -2.9183442747923052e-39 0,0 0.263551,-0.0184" />
      <path d="M 0.263551,-0.0184 A 0.0021,6.384268007814874e-08 -2.9183442747923052e-39 0,0 0.259601,-0.0184" />
      <line x1="0.259601" y1="-0.018399" x2="0.259601" y2="-0.016299" />
      <line x1="0.263474" y1="-0.016299" x2="0.263601" y2="-0.016299" />
      <line x1="0.263601" y1="-0.018399" x2="0.263601" y2="-0.016299" />
      <line x1="0.259601" y1="-0.018399" x2="0.263601" y2="-0.018399" />
      <line x1="0.263601" y1="0.016301" x2="0.263601" y2="-0.016299" />
      <line x1="0.259601" y1="0.016301" x2="0.259601" y2="-0.016299" />
      <line x1="0.242801" y1="-0.016299" x2="0.242801" y2="0.016301" />
      <line x1="0.238801" y1="-0.016299" x2="0.238928" y2="-0.016299" />
      <line x1="0.242801" y1="-0.018399" x2="0.242801" y2="-0.016299" />
      <line x1="0.238801" y1="-0.018399" x2="0.242801" y2="-0.018399" />
      <path d="M 0.242801,-0.0184 A 0.0021,6.384268007814874e-08 -2.9183442747923052e-39 0,0 0.238851,-0.0184" />
      <path d="M 0.238851,-0.0184 A 0.0021,6.384268007814874e-08 -2.9183442747923052e-39 0,0 0.240951,-0.0184" />
      <path d="M 0.240951,-0.0184 A 0.0021,6.384268007814874e-08 -2.9183442747923052e-39 0,0 0.242801,-0.0184" />
      <path d="M 0.242801,-0.0184 A 0.016564837495621855,5.035922003711946e-07 180.0 0,1 0.238851,-0.018401" />
      <path d="M 0.238851,-0.018401 A 0.0021,6.384268007814874e-08 180.0 0,1 0.240057,-0.018401" />
      <path d="M 0.242801,-0.018401 A 0.0021,6.384268007814874e-08 -2.9183442747923052e-39 0,0 0.241846,-0.018401" />
      <path d="M 0.251201,-0.0176 A 0.003,9.120382868306963e-08 -2.9183442747923052e-39 0,0 0.254201,-0.0176" />
      <path d="M 0.254201,-0.0176 A 0.0030000000000000027,9.120382868306971e-08 -2.9183442747923052e-39 0,0 0.248201,-0.0176" />
      <path d="M 0.248201,-0.0176 A 0.003,9.120382868306963e-08 -2.9183442747923052e-39 0,0 0.251201,-0.0176" />
      <path d="M 0.262346,-0.018401 A 0.0021,6.384268007814874e-08 -2.9183442747923052e-39 0,0 0.263551,-0.018401" />
      <path d="M 0.263551,-0.018401 A 0.0021,6.384268007814874e-08 -2.9183442747923052e-39 0,0 0.263513,-0.018401" />
      <line x1="0.241201" y1="0.016301" x2="0.241201" y2="0.018001" />
      <path d="M 0.243201,0.018001 A 0.002,6.080255245537976e-08 -180.0 0,1 0.241201,0.018001" />
      <line x1="0.243201" y1="0.018001" x2="0.259201" y2="0.018001" />
      <line x1="0.261201" y1="0.016301" x2="0.261201" y2="0.018001" />
      <path d="M 0.259201,0.018001 A 0.002,6.080255245537976e-08 1.0148355295296673e-39 0,0 0.261201,0.018001" />
      <path d="M 0.251201,0.019501 A 0.016599870971067764,5.046572627354416e-07 -2.9183442747923052e-39 0,0 0.255701,0.0195" />
      <path d="M 0.246701,0.0195 A 0.016599870971067764,5.046572627354416e-07 -2.9183442747923052e-39 0,0 0.251201,0.019501" />
      <line x1="0.243201" y1="0.016301" x2="0.243201" y2="0.018001" />
      <line x1="0.259201" y1="0.016301" x2="0.259201" y2="0.018001" />
      <line x1="0.263551" y1="-0.018401" x2="0.263551" y2="-0.018399" />
      <line x1="0.238851" y1="-0.018401" x2="0.238851" y2="-0.018399" />
      <line x1="0.254201" y1="-0.0176" x2="0.254201" y2="-0.0163" />
      <line x1="0.248201" y1="-0.0176" x2="0.248201" y2="-0.0163" />
      <line x1="0.255701" y1="0.018001" x2="0.255701" y2="0.0195" />
      <line x1="0.246701" y1="0.018001" x2="0.246701" y2="0.0195" />
    </g>
    <g fill="url(#hatch_servo)" stroke="none" stroke-width="0" id="servo_fill">
      <path d="M 0.0028,0.0084 L 0.0028,-0.0084 A 0.004,0.004 -90.0 0,1 0.0068,-0.0124 L 0.0442,-0.0124 A 0.004,0.004 -90.0 0,1 0.0482,-0.0084 L 0.0482,0.0084 A 0.004,0.004 -90.0 0,1 0.0442,0.0124 L 0.0068,0.0124 A 0.004,0.004 -90.0 0,1 0.0028,0.0084" />
      <path d="M 0.0658,0.0124 A 0.004,0.004 180.0 0,1 0.0618,0.0084 L 0.0618,-0.0084 A 0.004,0.004 180.0 0,1 0.0658,-0.0124 L 0.1032,-0.0124 A 0.004,0.004 0.0 0,1 0.1072,-0.0084 L 0.1072,0.0084 A 0.004,0.004 0.0 0,1 0.1032,0.0124 L 0.0658,0.0124" />
      <path d="M 0.1228,-0.012312 L 0.1228,-0.0124 L 0.1632,-0.0124 L 0.1632,-0.0084 L 0.148694,-0.0084 A 0.0021,0.0021 61.757462815565304 1,0 0.146706,-0.0084 L 0.127994,-0.0084 A 0.0021,0.0021 0.0 1,0 0.1251,-0.011144 A 0.0021,0.0021 0.0 0,0 0.1228,-0.012312" />
      <path d="M 0.124194,-0.0084 A 0.0021,0.0021 0.0 0,0 0.1251,-0.009356 A 0.0021,0.0021 0.0 0,0 0.126006,-0.0084 L 0.124194,-0.0084" />
      <path d="M 0.1251,0.009356 A 0.0021,0.0021 0.0 0,0 0.124194,0.0084 L 0.126006,0.0084 A 0.0021,0.0021 0.0 0,0 0.1251,0.009356" />
      <path d="M 0.1251,0.011144 A 0.0021,0.0021 0.0 1,0 0.127994,0.0084 L 0.146706,0.0084 A 0.0021,0.0021 -118.2425371844347 1,0 0.148694,0.0084 L 0.1632,0.0084 L 0.1632,0.0124 L 0.1228,0.0124 L 0.1228,0.012312 A 0.0021,0.0021 0.0 0,0 0.1251,0.011144" />
      <circle cx="0.156" cy="0.0" r="0.003" />
    </g>
    <g fill="none" stroke="rgb(60,60,60)" stroke-opacity="0.4" stroke-width="0.00015" id="servo_hidden" stroke-dasharray="0.0018 0.00045">
      <path d="M 0.182782,-0.0163 A 0.004,1.2159931182820816e-07 -6.570239861226303e-24 0,0 0.183801,-0.0163" />
      <path d="M 0.180119,-0.0163 A 0.0021,6.383963870980927e-08 -6.2856768930221406e-24 0,0 0.183194,-0.0163" />
      <line x1="0.183194" y1="-0.0163" x2="0.185006" y2="-0.0163" />
      <path d="M 0.185006,-0.0163 A 0.0021,6.383963870980927e-08 -6.2856768930221406e-24 0,0 0.186994,-0.0163" />
      <line x1="0.186994" y1="-0.0163" x2="0.205706" y2="-0.0163" />
      <path d="M 0.205706,-0.0163 A 0.0021,6.383963870980927e-08 -6.2856768930221406e-24 0,0 0.207694,-0.0163" />
      <line x1="0.207694" y1="-0.0163" x2="0.2222" y2="-0.0163" />
      <path d="M 0.2252,-0.0163 A 0.004,1.2159931182820816e-07 -6.570239861226303e-24 0,0 0.2222,-0.0163" />
      <line x1="0.207695" y1="-0.0163" x2="0.222201" y2="-0.0163" />
      <path d="M 0.207695,-0.0163 A 0.0021,6.383963870980927e-08 -6.2856768930221406e-24 0,0 0.205707,-0.0163" />
      <line x1="0.186995" y1="-0.0163" x2="0.205707" y2="-0.0163" />
      <path d="M 0.186995,-0.0163 A 0.0021,6.383963870980927e-08 -6.2856768930221406e-24 0,0 0.185007,-0.0163" />
      <line x1="0.183195" y1="-0.0163" x2="0.185007" y2="-0.0163" />
      <path d="M 0.183195,-0.0163 A 0.0021,6.383963870980927e-08 -6.2856768930221406e-24 0,0 0.181801,-0.0163" />
      <path d="M 0.218001,-0.0163 A 0.0030000000000000027,9.119948387115618e-08 -6.2856768930221406e-24 0,0 0.212001,-0.0163" />
      <path d="M 0.212001,-0.0163 A 0.0030000000000000027,9.119948387115618e-08 -6.2856768930221406e-24 1,0 0.218001,-0.0163" />
      <line x1="0.1838" y1="0.0163" x2="0.1838" y2="-0.0163" />
      <path d="M 0.182781,-0.0163 A 0.004,1.2159931182820816e-07 180.0 0,1 0.1838,-0.0163" />
      <line x1="0.182781" y1="-0.0163" x2="0.182781" y2="-0.0084" />
      <path d="M 0.182781,-0.0084 A 0.004,1.2159931182820814e-07 -6.2856768930221406e-24 0,0 0.180119,-0.0084" />
      <line x1="0.180119" y1="-0.0163" x2="0.180119" y2="-0.0084" />
      <path d="M 0.179801,0.0163 A 0.004,1.2159931182820816e-07 180.0 0,1 0.1838,0.0163" />
      <line x1="0.1838" y1="0.0163" x2="0.2212" y2="0.0163" />
      <path d="M 0.2252,0.0163 A 0.004,1.2159931182820816e-07 -6.570239861226303e-24 0,0 0.2212,0.0163" />
      <path d="M 0.205001,0.0163 A 0.002,6.079965591410408e-08 -6.570239861226303e-24 0,0 0.207001,0.0163" />
      <line x1="0.207001" y1="0.0163" x2="0.223001" y2="0.0163" />
      <path d="M 0.225001,0.0163 A 0.002,6.079965591410408e-08 180.0 0,1 0.223001,0.0163" />
      <path d="M 0.225,0.0163 A 0.002,6.079965591410408e-08 -6.570239861226303e-24 0,0 0.223,0.0163" />
      <line x1="0.207" y1="0.0163" x2="0.223" y2="0.0163" />
      <path d="M 0.205,0.0163 A 0.002,6.079965591410408e-08 180.0 0,1 0.207,0.0163" />
      <path d="M 0.181801,-0.0163 A 0.0021,6.383963870980927e-08 -6.2856768930221406e-24 0,0 0.182782,-0.0163" />
      <line x1="0.184101" y1="-0.0184" x2="0.184101" y2="-0.0084" />
      <path d="M 0.181801,-0.0184 A 0.0021,6.383963870980927e-08 -6.2856768930221406e-24 0,0 0.184101,-0.0184" />
      <line x1="0.181801" y1="-0.0184" x2="0.181801" y2="-0.0163" />
      <path d="M 0.182782,-0.0084 A 0.0021,6.383963870980927e-08 -6.2856768930221406e-24 0,0 0.184101,-0.0084" />
      <path d="M 0.184101,-0.0084 A 0.0021,6.383963870980927e-08 180.0 0,1 0.188101,-0.0084" />
      <path d="M 0.188101,-0.0084 A 0.0021,6.383963870980927e-08 180.0 0,1 0.184101,-0.0084" />
      <path d="M 0.184101,-0.0084 A 0.0021,6.383963870980927e-08 -6.2856768930221406e-24 0,0 0.182782,-0.0084" />
      <line x1="0.183195" y1="-0.0184" x2="0.183195" y2="-0.0163" />
      <line x1="0.184101" y1="-0.0184" x2="0.184101" y2="-0.0084" />
      <line x1="0.1841" y1="-0.0184" x2="0.1841" y2="-0.0084" />
      <path d="M 0.183194,-0.0184 A 0.0021,6.383963870980927e-08 -6.2856768930221406e-24 0,0 0.1841,-0.0184" />
      <line x1="0.183194" y1="-0.0184" x2="0.183194" y2="-0.0163" />
      <path d="M 0.180119,-0.0084 A 0.0021,6.383963870980927e-08 -6.2856768930221406e-24 0,0 0.1841,-0.0084" />
      <line x1="0.185006" y1="-0.0184" x2="0.185006" y2="-0.0163" />
      <line x1="0.1841" y1="-0.0184" x2="0.1841" y2="-0.0084" />
      <path d="M 0.1841,-0.0084 A 0.0021,6.383963870980927e-08 7.25390229779094e-21 0,0 0.1881,-0.0084" />
      <path d="M 0.1881,-0.0084 A 0.0021,6.383963870980927e-08 7.25390229779094e-21 0,0 0.1841,-0.0084" />
      <line x1="0.186994" y1="-0.0184" x2="0.186994" y2="-0.0163" />
      <line x1="0.205706" y1="-0.0184" x2="0.205706" y2="-0.0163" />
      <line x1="0.207694" y1="-0.0184" x2="0.207694" y2="-0.0163" />
      <path d="M 0.2088,-0.0084 A 0.0021000000000000046,6.383963870980942e-08 -6.2856768930221406e-24 0,0 0.2046,-0.0084" />
      <path d="M 0.2046,-0.0084 A 0.0021000000000000046,6.383963870980942e-08 -6.2856768930221406e-24 1,0 0.2088,-0.0084" />
      <line x1="0.2222" y1="-0.0184" x2="0.2222" y2="-0.0163" />
      <line x1="0.2222" y1="-0.0184" x2="0.2222" y2="-0.0163" />
      <line x1="0.2212" y1="0.0163" x2="0.2212" y2="-0.0163" />
      <line x1="0.2252" y1="0.0163" x2="0.2252" y2="-0.0163" />
      <path d="M 0.2222,-0.0163 A 0.004,1.2159931182820816e-07 -6.570239861226303e-24 0,0 0.2212,-0.0163" />
      <path d="M 0.222201,-0.0163 A 0.004,1.2159931182820816e-07 180.0 0,1 0.221201,-0.0163" />
      <line x1="0.222201" y1="-0.0184" x2="0.222201" y2="-0.0163" />
      <line x1="0.207695" y1="-0.0184" x2="0.222201" y2="-0.0184" />
      <line x1="0.207695" y1="-0.0184" x2="0.207695" y2="-0.0163" />
      <line x1="0.205707" y1="-0.0184" x2="0.205707" y2="-0.0163" />
      <path d="M 0.208801,-0.0084 A 0.0021,6.383963870980927e-08 -6.2856768930221406e-24 0,0 0.204601,-0.0084" />
      <path d="M 0.204601,-0.0084 A 0.0021,6.383963870980927e-08 -6.2856768930221406e-24 1,0 0.208801,-0.0084" />
      <line x1="0.186995" y1="-0.0184" x2="0.205707" y2="-0.0184" />
      <line x1="0.186995" y1="-0.0184" x2="0.186995" y2="-0.0163" />
      <line x1="0.185007" y1="-0.0184" x2="0.185007" y2="-0.0163" />
      <line x1="0.183195" y1="-0.0184" x2="0.185007" y2="-0.0184" />
      <path d="M 0.218001,-0.0176 A 0.0030000000000000027,9.119948387115618e-08 -6.2856768930221406e-24 0,0 0.212001,-0.0176" />
      <path d="M 0.212001,-0.0176 A 0.0030000000000000027,9.119948387115618e-08 -6.2856768930221406e-24 1,0 0.218001,-0.0176" />
      <line x1="0.2212" y1="-0.0163" x2="0.2222" y2="-0.0163" />
      <line x1="0.1818" y1="-0.0184" x2="0.2222" y2="-0.0184" />
      <line x1="0.1818" y1="-0.0184" x2="0.1818" y2="-0.0163" />
      <line x1="0.1818" y1="-0.0163" x2="0.1838" y2="-0.0163" />
      <path d="M 0.182781,-0.0163 A 0.0021,6.383963870980927e-08 -6.2856768930221406e-24 0,0 0.181801,-0.0163" />
      <path d="M 0.1841,-0.0084 A 0.0021,6.383963870980927e-08 -6.2856768930221406e-24 0,0 0.182781,-0.0084" />
      <path d="M 0.225,0.018 A 0.002,6.079965591410408e-08 -6.570239861226303e-24 0,0 0.223,0.018" />
      <line x1="0.207" y1="0.018" x2="0.223" y2="0.018" />
      <path d="M 0.205,0.018 A 0.002,6.079965591410408e-08 180.0 0,1 0.207,0.018" />
      <path d="M 0.219501,0.018 A 0.004500000000000004,1.3679922580673427e-07 -6.2856768930221406e-24 0,0 0.210501,0.018" />
      <path d="M 0.210501,0.018 A 0.004500000000000004,1.3679922580673427e-07 -6.2856768930221406e-24 1,0 0.219501,0.018" />
      <path d="M 0.219501,0.0195 A 0.004500000000000004,1.3679922580673427e-07 -6.2856768930221406e-24 0,0 0.210501,0.0195" />
      <line x1="0.1881" y1="-0.0184" x2="0.1881" y2="-0.0084" />
      <line x1="0.2088" y1="-0.0184" x2="0.2088" y2="-0.0084" />
      <line x1="0.2046" y1="-0.0184" x2="0.2046" y2="-0.0084" />
      <line x1="0.208801" y1="-0.0184" x2="0.208801" y2="-0.0084" />
      <line x1="0.204601" y1="-0.0184" x2="0.204601" y2="-0.0084" />
      <line x1="0.188101" y1="-0.0184" x2="0.188101" y2="-0.0084" />
      <line x1="0.218001" y1="-0.0176" x2="0.218001" y2="-0.0163" />
      <line x1="0.212001" y1="-0.0176" x2="0.212001" y2="-0.0163" />
      <line x1="0.225" y1="0.0163" x2="0.225" y2="0.018" />
      <line x1="0.223" y1="0.0163" x2="0.223" y2="0.018" />
      <line x1="0.207" y1="0.0163" x2="0.207" y2="0.018" />
      <line x1="0.205" y1="0.0163" x2="0.205" y2="0.018" />
      <line x1="0.242801" y1="-0.016301" x2="0.242801" y2="0.016299" />
      <line x1="0.242801" y1="-0.016301" x2="0.259601" y2="-0.016301" />
      <line x1="0.259601" y1="0.016299" x2="0.259601" y2="-0.016301" />
      <line x1="0.242801" y1="0.016299" x2="0.259601" y2="0.016299" />
      <path d="M 0.242801,0.016299 A 0.004,1.2160510491075951e-07 1.0148355295296673e-39 0,0 0.238801,0.016299" />
      <line x1="0.238801" y1="-0.016301" x2="0.238801" y2="-0.016299" />
      <path d="M 0.238933,-0.016301 A 0.004,1.2160510491075951e-07 1.0148355295296673e-39 0,0 0.238801,-0.016301" />
      <line x1="0.238933" y1="-0.016301" x2="0.238933" y2="-0.008401" />
      <path d="M 0.241235,-0.008401 A 0.004,1.2160510491075951e-07 -2.9183442747923052e-39 0,0 0.238933,-0.008401" />
      <line x1="0.241235" y1="-0.016301" x2="0.241235" y2="-0.008401" />
      <path d="M 0.242801,-0.016301 A 0.004,1.2160510491075951e-07 1.0148355295296673e-39 0,0 0.241235,-0.016301" />
      <path d="M 0.259601,-0.016301 A 0.004,1.2160510491075951e-07 -180.0 0,1 0.261167,-0.016301" />
      <path d="M 0.261167,-0.016301 A 0.0021,6.384268007814874e-08 -2.9183442747923052e-39 0,0 0.259601,-0.016301" />
      <path d="M 0.242801,-0.016301 A 0.0021,6.384268007814874e-08 -2.9183442747923052e-39 0,0 0.241235,-0.016301" />
      <path d="M 0.254201,-0.0163 A 0.0030000000000000027,9.120382868306971e-08 -2.9183442747923052e-39 0,0 0.248201,-0.0163" />
      <line x1="0.263601" y1="-0.016299" x2="0.263601" y2="-0.016301" />
      <path d="M 0.263469,-0.016301 A 0.004,1.2160510491075951e-07 -180.0 0,1 0.263601,-0.016301" />
      <line x1="0.263469" y1="-0.016301" x2="0.263469" y2="-0.008401" />
      <path d="M 0.263469,-0.008401 A 0.004,1.2160510491075951e-07 -2.9183442747923052e-39 0,0 0.261167,-0.008401" />
      <line x1="0.261167" y1="-0.016301" x2="0.261167" y2="-0.008401" />
      <path d="M 0.259601,0.016299 A 0.004,1.2160510491075951e-07 -180.0 0,1 0.263601,0.016299" />
      <line x1="0.238801" y1="0.016299" x2="0.238801" y2="0.016301" />
      <line x1="0.263601" y1="0.016299" x2="0.263601" y2="0.016301" />
      <path d="M 0.243201,0.0163 A 0.002,6.080255245537976e-08 1.0148355295296673e-39 0,0 0.241201,0.0163" />
      <path d="M 0.243201,0.016301 A 0.002,6.080255245537976e-08 -180.0 0,1 0.241201,0.016301" />
      <line x1="0.243201" y1="0.016301" x2="0.259201" y2="0.016301" />
      <path d="M 0.259201,0.016301 A 0.002,6.080255245537976e-08 1.0148355295296673e-39 0,0 0.261201,0.016301" />
      <path d="M 0.259201,0.0163 A 0.002,6.080255245537976e-08 -180.0 0,1 0.261201,0.0163" />
      <line x1="0.243201" y1="0.0163" x2="0.259201" y2="0.0163" />
      <line x1="0.238801" y1="-0.018401" x2="0.238801" y2="-0.018399" />
      <line x1="0.238801" y1="-0.018401" x2="0.238801" y2="-0.016301" />
      <line x1="0.238801" y1="-0.016301" x2="0.23889" y2="-0.016301" />
      <path d="M 0.23889,-0.016301 A 0.0021,6.384268007814874e-08 -2.9183442747923052e-39 0,0 0.238851,-0.016301" />
      <path d="M 0.238851,-0.016301 A 0.0021,6.384268007814874e-08 -2.9183442747923052e-39 0,0 0.238933,-0.016301" />
      <line x1="0.240057" y1="-0.018401" x2="0.240057" y2="-0.008401" />
      <line x1="0.23889" y1="-0.018401" x2="0.23889" y2="-0.016301" />
      <path d="M 0.238933,-0.008401 A 0.0021,6.384268007814874e-08 -2.9183442747923052e-39 0,0 0.240057,-0.008401" />
      <path d="M 0.241846,-0.008401 A 0.0021,6.384268007814873e-08 -180.0 0,1 0.243051,-0.008401" />
      <path d="M 0.243051,-0.008401 A 0.0021,6.384268007814873e-08 -180.0 1,1 0.238851,-0.008401" />
      <path d="M 0.238851,-0.008401 A 0.0021,6.384268007814873e-08 -180.0 0,1 0.240057,-0.008401" />
      <path d="M 0.241846,-0.008401 A 0.0021,6.384268007814874e-08 -2.9183442747923052e-39 0,0 0.243051,-0.008401" />
      <path d="M 0.243051,-0.008401 A 0.0021,6.384268007814874e-08 -2.9183442747923052e-39 0,0 0.241235,-0.008401" />
      <line x1="0.242801" y1="-0.018401" x2="0.242801" y2="-0.016301" />
      <line x1="0.241846" y1="-0.018401" x2="0.241846" y2="-0.008401" />
      <line x1="0.260557" y1="-0.018401" x2="0.260557" y2="-0.008401" />
      <line x1="0.259601" y1="-0.018401" x2="0.259601" y2="-0.016301" />
      <path d="M 0.261167,-0.008401 A 0.0021,6.384268007814874e-08 -2.9183442747923052e-39 0,0 0.259351,-0.008401" />
      <path d="M 0.259351,-0.008401 A 0.0021,6.384268007814874e-08 -2.9183442747923052e-39 0,0 0.260557,-0.008401" />
      <line x1="0.259601" y1="-0.018401" x2="0.259601" y2="-0.016301" />
      <line x1="0.262346" y1="-0.018401" x2="0.262346" y2="-0.008401" />
      <path d="M 0.260557,-0.008401 A 0.0021,6.384268007814874e-08 4.9811718903393857e-20 0,0 0.259351,-0.008401" />
      <path d="M 0.259351,-0.008401 A 0.0021,6.384268007814874e-08 4.9811718903393857e-20 0,0 0.263551,-0.008401" />
      <path d="M 0.263551,-0.008401 A 0.0021,6.384268007814874e-08 4.9811718903393857e-20 0,0 0.262346,-0.008401" />
      <line x1="0.259601" y1="-0.0184" x2="0.259601" y2="-0.0163" />
      <line x1="0.259601" y1="-0.0184" x2="0.259601" y2="-0.0163" />
      <line x1="0.259601" y1="-0.018399" x2="0.259601" y2="-0.0163" />
      <path d="M 0.261451,-0.0084 A 0.0021,6.384268007814874e-08 -2.9183442747923052e-39 0,0 0.263551,-0.0084" />
      <path d="M 0.263551,-0.0084 A 0.0021,6.384268007814874e-08 -2.9183442747923052e-39 0,0 0.259351,-0.0084" />
      <path d="M 0.259351,-0.0084 A 0.0021,6.384268007814874e-08 -2.9183442747923052e-39 0,0 0.261451,-0.0084" />
      <path d="M 0.263474,-0.016299 A 0.004,1.2160510491075951e-07 1.0148355295296673e-39 0,0 0.263601,-0.016299" />
      <path d="M 0.238928,-0.016299 A 0.004,1.2160510491075951e-07 -180.0 0,1 0.238801,-0.016299" />
      <line x1="0.242801" y1="-0.018399" x2="0.242801" y2="-0.0163" />
      <line x1="0.242801" y1="-0.0184" x2="0.242801" y2="-0.0163" />
      <path d="M 0.240951,-0.0084 A 0.0021,6.384268007814874e-08 -2.9183442747923052e-39 0,0 0.243051,-0.0084" />
      <path d="M 0.243051,-0.0084 A 0.0021,6.384268007814874e-08 -2.9183442747923052e-39 0,0 0.238851,-0.0084" />
      <path d="M 0.238851,-0.0084 A 0.0021,6.384268007814874e-08 -2.9183442747923052e-39 0,0 0.240951,-0.0084" />
      <line x1="0.242801" y1="-0.0184" x2="0.242801" y2="-0.0163" />
      <line x1="0.242801" y1="-0.018401" x2="0.242801" y2="-0.016301" />
      <line x1="0.263601" y1="-0.018401" x2="0.263601" y2="-0.018399" />
      <line x1="0.263601" y1="-0.018401" x2="0.263601" y2="-0.016301" />
      <line x1="0.263513" y1="-0.016301" x2="0.263601" y2="-0.016301" />
      <path d="M 0.263469,-0.016301 A 0.0021,6.384268007814874e-08 -2.9183442747923052e-39 0,0 0.263551,-0.016301" />
      <path d="M 0.263551,-0.016301 A 0.0021,6.384268007814874e-08 -2.9183442747923052e-39 0,0 0.263513,-0.016301" />
      <path d="M 0.262346,-0.008401 A 0.0021,6.384268007814874e-08 -2.9183442747923052e-39 0,0 0.263469,-0.008401" />
      <line x1="0.263513" y1="-0.018401" x2="0.263513" y2="-0.016301" />
      <line x1="0.241201" y1="0.0163" x2="0.241201" y2="0.018" />
      <path d="M 0.243201,0.018 A 0.002,6.080255245537976e-08 1.0148355295296673e-39 0,0 0.241201,0.018" />
      <line x1="0.261201" y1="0.0163" x2="0.261201" y2="0.018" />
      <path d="M 0.259201,0.018 A 0.002,6.080255245537976e-08 -180.0 0,1 0.261201,0.018" />
      <line x1="0.243201" y1="0.018" x2="0.259201" y2="0.018" />
      <line x1="0.238801" y1="-0.018401" x2="0.23889" y2="-0.018401" />
      <line x1="0.263513" y1="-0.018401" x2="0.263601" y2="-0.018401" />
      <path d="M 0.251201,0.018001 A 0.016599870971067764,5.046572627354416e-07 -2.9183442747923052e-39 0,0 0.255701,0.018" />
      <path d="M 0.255701,0.018 A 0.004500000000000004,1.3680574302460457e-07 -2.9183442747923052e-39 0,0 0.246701,0.018" />
      <path d="M 0.246701,0.018 A 0.016599870971067764,5.046572627354416e-07 -2.9183442747923052e-39 0,0 0.251201,0.018001" />
      <path d="M 0.255701,0.0195 A 0.004500000000000004,1.3680574302460457e-07 -2.9183442747923052e-39 0,0 0.246701,0.0195" />
      <line x1="0.238851" y1="-0.018401" x2="0.238851" y2="-0.016301" />
      <line x1="0.243051" y1="-0.016301" x2="0.243051" y2="-0.008401" />
      <line x1="0.259351" y1="-0.016301" x2="0.259351" y2="-0.008401" />
      <line x1="0.263551" y1="-0.018399" x2="0.263551" y2="-0.008401" />
      <line x1="0.259351" y1="-0.0163" x2="0.259351" y2="-0.008401" />
      <line x1="0.263551" y1="-0.018399" x2="0.263551" y2="-0.0084" />
      <line x1="0.259351" y1="-0.016299" x2="0.259351" y2="-0.0084" />
      <line x1="0.243051" y1="-0.016299" x2="0.243051" y2="-0.0084" />
      <line x1="0.238851" y1="-0.018399" x2="0.238851" y2="-0.0084" />
      <line x1="0.243051" y1="-0.0163" x2="0.243051" y2="-0.008401" />
      <line x1="0.238851" y1="-0.018399" x2="0.238851" y2="-0.008401" />
      <line x1="0.263551" y1="-0.018401" x2="0.263551" y2="-0.016301" />
      <line x1="0.243201" y1="0.0163" x2="0.243201" y2="0.018" />
      <line x1="0.259201" y1="0.0163" x2="0.259201" y2="0.018" />
    </g>
    <g fill="none" stroke="rgb(50,120,190)" stroke-width="0.00035" id="bracket">
      <line x1="0.0" y1="0.0152" x2="0.051" y2="0.0152" />
      <line x1="0.051" y1="0.0152" x2="0.051" y2="-0.0152" />
      <line x1="0.0" y1="-0.0152" x2="0.051" y2="-0.0152" />
      <line x1="0.0" y1="0.0152" x2="0.0" y2="-0.0152" />
      <line x1="0.0025" y1="0.0127" x2="0.0025" y2="-0.0127" />
      <line x1="0.0025" y1="-0.0127" x2="0.0485" y2="-0.0127" />
      <line x1="0.0485" y1="0.0127" x2="0.0485" y2="-0.0127" />
      <line x1="0.0025" y1="0.0127" x2="0.0485" y2="0.0127" />
      <line x1="0.059" y1="0.0152" x2="0.11" y2="0.0152" />
      <line x1="0.11" y1="0.0152" x2="0.11" y2="-0.0152" />
      <line x1="0.059" y1="-0.0152" x2="0.11" y2="-0.0152" />
      <line x1="0.059" y1="0.0152" x2="0.059" y2="-0.0152" />
      <line x1="0.0615" y1="0.0127" x2="0.0615" y2="-0.0127" />
      <line x1="0.0615" y1="-0.0127" x2="0.1075" y2="-0.0127" />
      <line x1="0.1075" y1="0.0127" x2="0.1075" y2="-0.0127" />
      <line x1="0.0615" y1="0.0127" x2="0.1075" y2="0.0127" />
      <line x1="0.118" y1="0.0152" x2="0.169" y2="0.0152" />
      <line x1="0.169" y1="0.0152" x2="0.169" y2="-0.0152" />
      <line x1="0.118" y1="-0.0152" x2="0.169" y2="-0.0152" />
      <line x1="0.118" y1="-0.005" x2="0.118" y2="-0.0152" />
      <line x1="0.118" y1="-0.005" x2="0.1218" y2="-0.005" />
      <line x1="0.1218" y1="0.005" x2="0.1218" y2="-0.005" />
      <line x1="0.118" y1="0.005" x2="0.1218" y2="0.005" />
      <line x1="0.118" y1="0.0152" x2="0.118" y2="0.005" />
      <path d="M 0.1251,-0.009356 A 0.0021,0.0021 0.0 1,1 0.1251,-0.011144" />
      <path d="M 0.1251,-0.011144 A 0.0021,0.0021 0.0 1,1 0.1251,-0.009356" />
      <circle cx="0.1477" cy="-0.01025" r="0.0021" />
      <path d="M 0.1251,0.011144 A 0.0021,0.0021 0.0 1,1 0.1251,0.009356" />
      <path d="M 0.1251,0.009356 A 0.0021,0.0021 0.0 1,1 0.1251,0.011144" />
      <circle cx="0.1477" cy="0.01025" r="0.0021" />
      <line x1="0.177001" y1="-0.021953" x2="0.177001" y2="0.022297" />
      <line x1="0.177001" y1="0.022297" x2="0.177" y2="0.022303" />
      <line x1="0.177" y1="-0.019299" x2="0.177001" y2="-0.019301" />
      <line x1="0.177" y1="-0.019299" x2="0.177" y2="-0.013299" />
      <line x1="0.177001" y1="-0.021953" x2="0.228001" y2="-0.021953" />
      <line x1="0.228001" y1="-0.021953" x2="0.228001" y2="0.022297" />
      <line x1="0.177001" y1="0.022297" x2="0.228001" y2="0.022297" />
      <line x1="0.177" y1="0.022303" x2="0.228" y2="0.022303" />
      <line x1="0.228001" y1="0.022297" x2="0.228" y2="0.022303" />
      <line x1="0.236001" y1="0.022305" x2="0.266401" y2="0.022305" />
      <line x1="0.236001" y1="-0.021954" x2="0.236001" y2="0.022296" />
      <line x1="0.236001" y1="0.022305" x2="0.236001" y2="0.022296" />
      <line x1="0.266401" y1="0.022305" x2="0.266401" y2="0.022296" />
      <line x1="0.236001" y1="0.022296" x2="0.266401" y2="0.022296" />
      <line x1="0.236001" y1="-0.021954" x2="0.266401" y2="-0.021954" />
      <line x1="0.266401" y1="-0.021954" x2="0.266401" y2="0.022296" />
    </g>
    <g fill="url(#hatch_bracket)" stroke="none" stroke-width="0" id="bracket_fill">
      <path d="M 0.051,0.0152 L 0.0,0.0152 L 0.0,-0.0152 L 0.051,-0.0152 L 0.051,0.0152 M 0.0025,-0.0127 L 0.0025,0.0127 L 0.0485,0.0127 L 0.0485,-0.0127 L 0.0025,-0.0127" />
      <path d="M 0.11,0.0152 L 0.059,0.0152 L 0.059,-0.0152 L 0.11,-0.0152 L 0.11,0.0152 M 0.0615,-0.0127 L 0.0615,0.0127 L 0.1075,0.0127 L 0.1075,-0.0127 L 0.0615,-0.0127" />
      <path d="M 0.169,0.0152 L 0.118,0.0152 L 0.118,0.005 L 0.1218,0.005 L 0.1218,-0.005 L 0.118,-0.005 L 0.118,-0.0152 L 0.169,-0.0152 L 0.169,0.0152 M 0.1251,-0.011144 A 0.0021,0.0021 0.0 1,0 0.1251,-0.009356 A 0.0021,0.0021 0.0 1,0 0.1251,-0.011144 M 0.1498,-0.01025 A 0.0021,0.0021 0.0 0,0 0.1456,-0.01025 A 0.0021,0.0021 0.0 0,0 0.1498,-0.01025 M 0.1251,0.009356 A 0.0021,0.0021 0.0 1,0 0.1251,0.011144 A 0.0021,0.0021 0.0 1,0 0.1251,0.009356 M 0.1498,0.01025 A 0.0021,0.0021 0.0 0,0 0.1456,0.01025 A 0.0021,0.0021 0.0 0,0 0.1498,0.01025" />
    </g>
    <g fill="none" stroke="rgb(50,120,190)" stroke-opacity="0.4" stroke-width="0.00015" id="bracket_hidden" stroke-dasharray="0.0018 0.00045">
      <line x1="0.177001" y1="-0.021953" x2="0.177" y2="-0.021947" />
      <line x1="0.177" y1="-0.021947" x2="0.177" y2="0.022303" />
      <line x1="0.177" y1="-0.013299" x2="0.177001" y2="-0.013301" />
      <line x1="0.177001" y1="-0.019301" x2="0.177001" y2="-0.013301" />
      <line x1="0.228001" y1="-0.021953" x2="0.228" y2="-0.021947" />
      <line x1="0.177" y1="-0.021947" x2="0.228" y2="-0.021947" />
      <path d="M 0.184101,-0.021952 A 0.0021,3.671292225642711e-07 -3.142176405862912e-24 0,1 0.180101,-0.021952" />
      <path d="M 0.180101,-0.021952 A 0.0021,3.671292225642711e-07 -3.142176405862912e-24 0,1 0.184101,-0.021952" />
      <path d="M 0.184101,-0.021952 A 0.0021,3.671292225642711e-07 -2.756206628987413e-19 0,1 0.188101,-0.021952" />
      <path d="M 0.188101,-0.021952 A 0.0021,3.671292225642711e-07 -2.756206628987413e-19 0,1 0.184101,-0.021952" />
      <path d="M 0.208801,-0.021952 A 0.0021,3.671292225642711e-07 -3.142176405862912e-24 0,1 0.204601,-0.021952" />
      <path d="M 0.204601,-0.021952 A 0.0021,3.671292225642711e-07 -3.142176405862912e-24 1,1 0.208801,-0.021952" />
      <path d="M 0.1841,-0.021948 A 0.0021,3.671292225642711e-07 -3.142176405862912e-24 0,1 0.1801,-0.021948" />
      <path d="M 0.1801,-0.021948 A 0.0021,3.671292225642711e-07 -3.142176405862912e-24 0,1 0.1841,-0.021948" />
      <path d="M 0.1841,-0.021948 A 0.0021,3.671292225642711e-07 -2.756206628987413e-19 0,1 0.1881,-0.021948" />
      <path d="M 0.1881,-0.021948 A 0.0021,3.671292225642711e-07 -2.756206628987413e-19 0,1 0.1841,-0.021948" />
      <path d="M 0.2088,-0.021948 A 0.0021000000000000046,3.6712922256427187e-07 -3.142176405862912e-24 0,1 0.2046,-0.021948" />
      <path d="M 0.2046,-0.021948 A 0.0021000000000000046,3.6712922256427187e-07 -3.142176405862912e-24 1,1 0.2088,-0.021948" />
      <line x1="0.228" y1="-0.021947" x2="0.228" y2="0.022303" />
      <line x1="0.177001" y1="-0.019299" x2="0.1808" y2="-0.019299" />
      <line x1="0.180801" y1="-0.019301" x2="0.1808" y2="-0.019299" />
      <line x1="0.177001" y1="-0.019301" x2="0.180801" y2="-0.019301" />
      <line x1="0.1808" y1="-0.019299" x2="0.1808" y2="-0.016599" />
      <line x1="0.1808" y1="-0.016599" x2="0.1795" y2="-0.016599" />
      <line x1="0.1795" y1="-0.016599" x2="0.1795" y2="-0.013299" />
      <line x1="0.177001" y1="-0.013299" x2="0.1795" y2="-0.013299" />
      <line x1="0.1795" y1="-0.013299" x2="0.179501" y2="-0.013301" />
      <line x1="0.177001" y1="-0.013301" x2="0.179501" y2="-0.013301" />
      <line x1="0.180801" y1="-0.019301" x2="0.180801" y2="-0.016601" />
      <line x1="0.180801" y1="-0.016601" x2="0.179501" y2="-0.016601" />
      <line x1="0.179501" y1="-0.016601" x2="0.179501" y2="-0.013301" />
      <line x1="0.184101" y1="-0.021952" x2="0.184101" y2="-0.016602" />
      <path d="M 0.184101,-0.016602 A 0.0021,3.671292225642711e-07 -3.142176405862912e-24 0,1 0.180101,-0.016602" />
      <path d="M 0.180101,-0.016602 A 0.0021,3.671292225642711e-07 -3.142176405862912e-24 0,1 0.184101,-0.016602" />
      <line x1="0.184101" y1="-0.021952" x2="0.184101" y2="-0.016602" />
      <path d="M 0.184101,-0.016602 A 0.0021,3.671292225642711e-07 -2.756206628987413e-19 0,1 0.188101,-0.016602" />
      <path d="M 0.188101,-0.016602 A 0.0021,3.671292225642711e-07 -2.756206628987413e-19 0,1 0.184101,-0.016602" />
      <path d="M 0.208801,-0.016602 A 0.0021,3.671292225642711e-07 -3.142176405862912e-24 0,1 0.204601,-0.016602" />
      <path d="M 0.204601,-0.016602 A 0.0021,3.671292225642711e-07 -3.142176405862912e-24 1,1 0.208801,-0.016602" />
      <line x1="0.1841" y1="-0.021948" x2="0.1841" y2="-0.016598" />
      <path d="M 0.1841,-0.016598 A 0.0021,3.671292225642711e-07 -3.142176405862912e-24 0,1 0.1801,-0.016598" />
      <path d="M 0.1801,-0.016598 A 0.0021,3.671292225642711e-07 -3.142176405862912e-24 0,1 0.1841,-0.016598" />
      <line x1="0.1841" y1="-0.021948" x2="0.1841" y2="-0.016598" />
      <path d="M 0.1841,-0.016598 A 0.0021,3.671292225642711e-07 -2.756206628987413e-19 0,1 0.1881,-0.016598" />
      <path d="M 0.1881,-0.016598 A 0.0021,3.671292225642711e-07 -2.756206628987413e-19 0,1 0.1841,-0.016598" />
      <path d="M 0.2088,-0.016598 A 0.0021000000000000046,3.6712922256427187e-07 -3.142176405862912e-24 0,1 0.2046,-0.016598" />
      <path d="M 0.2046,-0.016598 A 0.0021000000000000046,3.6712922256427187e-07 -3.142176405862912e-24 1,1 0.2088,-0.016598" />
      <line x1="0.180801" y1="-0.016601" x2="0.1808" y2="-0.016599" />
      <line x1="0.179501" y1="-0.016602" x2="0.179501" y2="-0.016601" />
      <line x1="0.1795" y1="-0.016599" x2="0.1795" y2="-0.016598" />
      <line x1="0.1795" y1="-0.016598" x2="0.2255" y2="-0.016598" />
      <line x1="0.225501" y1="-0.016602" x2="0.2255" y2="-0.016598" />
      <line x1="0.179501" y1="-0.016602" x2="0.225501" y2="-0.016602" />
      <line x1="0.179501" y1="0.019798" x2="0.1795" y2="0.019802" />
      <line x1="0.1795" y1="-0.016598" x2="0.1795" y2="0.019802" />
      <line x1="0.179501" y1="-0.016602" x2="0.179501" y2="0.019798" />
      <line x1="0.2255" y1="-0.016598" x2="0.2255" y2="0.019802" />
      <line x1="0.1795" y1="0.019802" x2="0.2255" y2="0.019802" />
      <line x1="0.225501" y1="-0.016602" x2="0.225501" y2="0.019798" />
      <line x1="0.225501" y1="0.019798" x2="0.2255" y2="0.019802" />
      <line x1="0.179501" y1="0.019798" x2="0.225501" y2="0.019798" />
      <line x1="0.180101" y1="-0.021952" x2="0.180101" y2="-0.016602" />
      <line x1="0.188101" y1="-0.021952" x2="0.188101" y2="-0.016602" />
      <line x1="0.204601" y1="-0.021952" x2="0.204601" y2="-0.016602" />
      <line x1="0.1801" y1="-0.021948" x2="0.1801" y2="-0.016598" />
      <line x1="0.1881" y1="-0.021948" x2="0.1881" y2="-0.016598" />
      <line x1="0.2046" y1="-0.021948" x2="0.2046" y2="-0.016598" />
      <line x1="0.236001" y1="-0.021945" x2="0.236001" y2="0.022305" />
      <line x1="0.236001" y1="-0.021945" x2="0.266401" y2="-0.021945" />
      <line x1="0.266401" y1="-0.021945" x2="0.266401" y2="0.022305" />
      <line x1="0.256201" y1="-0.019295" x2="0.246201" y2="-0.019295" />
      <line x1="0.256201" y1="-0.019295" x2="0.256201" y2="-0.013295" />
      <line x1="0.256201" y1="-0.013295" x2="0.246201" y2="-0.013295" />
      <line x1="0.246201" y1="-0.019295" x2="0.246201" y2="-0.013295" />
      <line x1="0.236001" y1="-0.021945" x2="0.236001" y2="-0.021954" />
      <line x1="0.266401" y1="-0.021945" x2="0.266401" y2="-0.021954" />
      <path d="M 0.241846,-0.021947 A 0.0029227007828492887,5.109749934791208e-07 5.11909600447031e-39 0,1 0.243051,-0.021946" />
      <path d="M 0.243051,-0.021946 A 0.0021,3.671424364077594e-07 5.11909600447031e-39 0,1 0.238851,-0.021946" />
      <path d="M 0.238851,-0.021946 A 0.0029228038962728657,5.109930207712915e-07 5.11909600447031e-39 0,1 0.240057,-0.021947" />
      <path d="M 0.240057,-0.021947 A 0.0021,3.671424364077594e-07 -3.953859720090914e-19 0,1 0.238851,-0.021947" />
      <path d="M 0.238851,-0.021947 A 0.0021,3.671424364077594e-07 -3.953859720090914e-19 0,1 0.243051,-0.021947" />
      <path d="M 0.243051,-0.021947 A 0.0021,3.671424364077594e-07 -3.953859720090914e-19 0,1 0.241846,-0.021947" />
      <path d="M 0.240951,-0.021951 A 0.0021,3.671424364077594e-07 5.11909600447031e-39 0,1 0.243051,-0.021951" />
      <path d="M 0.243051,-0.021951 A 0.0021,3.671424364077594e-07 5.11909600447031e-39 0,1 0.238851,-0.021951" />
      <path d="M 0.238851,-0.021951 A 0.0021,3.671424364077594e-07 5.11909600447031e-39 0,1 0.240951,-0.021951" />
      <path d="M 0.262346,-0.021947 A 0.002922700782849286,5.109749934791204e-07 5.11909600447031e-39 0,1 0.263551,-0.021946" />
      <path d="M 0.263551,-0.021946 A 0.0021,3.671424364077594e-07 5.11909600447031e-39 0,1 0.259351,-0.021946" />
      <path d="M 0.259351,-0.021946 A 0.0029228038962728657,5.109930207712915e-07 5.11909600447031e-39 0,1 0.260557,-0.021947" />
      <path d="M 0.260557,-0.021947 A 0.0021,3.671424364077594e-07 -3.953859720090914e-19 0,1 0.259351,-0.021947" />
      <path d="M 0.259351,-0.021947 A 0.0021,3.671424364077594e-07 -3.953859720090914e-19 0,1 0.263551,-0.021947" />
      <path d="M 0.263551,-0.021947 A 0.0021,3.671424364077594e-07 -3.953859720090914e-19 0,1 0.262346,-0.021947" />
      <path d="M 0.261451,-0.021951 A 0.0021,3.671424364077594e-07 5.11909600447031e-39 0,1 0.263551,-0.021951" />
      <path d="M 0.263551,-0.021951 A 0.0021,3.671424364077594e-07 5.11909600447031e-39 0,1 0.259351,-0.021951" />
      <path d="M 0.259351,-0.021951 A 0.0021,3.671424364077594e-07 5.11909600447031e-39 0,1 0.261451,-0.021951" />
      <line x1="0.246201" y1="-0.019296" x2="0.256201" y2="-0.019296" />
      <line x1="0.256201" y1="-0.019296" x2="0.256201" y2="-0.016596" />
      <line x1="0.256201" y1="-0.016596" x2="0.256201" y2="-0.013296" />
      <line x1="0.256201" y1="-0.013296" x2="0.246201" y2="-0.013296" />
      <line x1="0.246201" y1="-0.019296" x2="0.246201" y2="-0.016596" />
      <line x1="0.246201" y1="-0.016596" x2="0.246201" y2="-0.013296" />
      <line x1="0.241846" y1="-0.021947" x2="0.241846" y2="-0.016597" />
      <path d="M 0.241846,-0.016597 A 0.0029227007828492887,5.109749934791208e-07 5.11909600447031e-39 0,1 0.243051,-0.016596" />
      <path d="M 0.243051,-0.016596 A 0.0021,3.671424364077594e-07 5.11909600447031e-39 0,1 0.238851,-0.016596" />
      <path d="M 0.238851,-0.016596 A 0.0029228038962728657,5.109930207712915e-07 5.11909600447031e-39 0,1 0.240057,-0.016597" />
      <line x1="0.240057" y1="-0.021947" x2="0.240057" y2="-0.016597" />
      <path d="M 0.240057,-0.016597 A 0.0021,3.671424364077594e-07 -3.953859720090914e-19 0,1 0.238851,-0.016597" />
      <path d="M 0.238851,-0.016597 A 0.0021,3.671424364077594e-07 -3.953859720090914e-19 0,1 0.243051,-0.016597" />
      <path d="M 0.243051,-0.016597 A 0.0021,3.671424364077594e-07 -3.953859720090914e-19 0,1 0.241846,-0.016597" />
      <path d="M 0.240951,-0.016601 A 0.0021,3.671424364077594e-07 5.11909600447031e-39 0,1 0.243051,-0.016601" />
      <path d="M 0.243051,-0.016601 A 0.0021,3.671424364077594e-07 5.11909600447031e-39 0,1 0.238851,-0.016601" />
      <path d="M 0.238851,-0.016601 A 0.0021,3.671424364077594e-07 5.11909600447031e-39 0,1 0.240951,-0.016601" />
      <line x1="0.262346" y1="-0.021947" x2="0.262346" y2="-0.016597" />
      <path d="M 0.262346,-0.016597 A 0.002922700782849286,5.109749934791204e-07 5.11909600447031e-39 0,1 0.263551,-0.016596" />
      <path d="M 0.263551,-0.016596 A 0.0021,3.671424364077594e-07 5.11909600447031e-39 0,1 0.259351,-0.016596" />
      <path d="M 0.259351,-0.016596 A 0.0029228038962728657,5.109930207712915e-07 5.11909600447031e-39 0,1 0.260557,-0.016597" />
      <line x1="0.260557" y1="-0.021947" x2="0.260557" y2="-0.016597" />
      <path d="M 0.260557,-0.016597 A 0.0021,3.671424364077594e-07 -3.953859720090914e-19 0,1 0.259351,-0.016597" />
      <path d="M 0.259351,-0.016597 A 0.0021,3.671424364077594e-07 -3.953859720090914e-19 0,1 0.263551,-0.016597" />
      <path d="M 0.263551,-0.016597 A 0.0021,3.671424364077594e-07 -3.953859720090914e-19 0,1 0.262346,-0.016597" />
      <path d="M 0.261451,-0.016601 A 0.0021,3.671424364077594e-07 5.11909600447031e-39 0,1 0.263551,-0.016601" />
      <path d="M 0.263551,-0.016601 A 0.0021,3.671424364077594e-07 5.11909600447031e-39 0,1 0.259351,-0.016601" />
      <path d="M 0.259351,-0.016601 A 0.0021,3.671424364077594e-07 5.11909600447031e-39 0,1 0.261451,-0.016601" />
      <line x1="0.246201" y1="-0.016596" x2="0.256201" y2="-0.016596" />
      <line x1="0.238501" y1="-0.016596" x2="0.246201" y2="-0.016596" />
      <line x1="0.256201" y1="-0.016596" x2="0.263901" y2="-0.016596" />
      <line x1="0.263901" y1="-0.016596" x2="0.263901" y2="-0.016604" />
      <line x1="0.238501" y1="-0.016604" x2="0.263901" y2="-0.016604" />
      <line x1="0.238501" y1="-0.016596" x2="0.238501" y2="-0.016604" />
      <line x1="0.238501" y1="0.019804" x2="0.263901" y2="0.019804" />
      <line x1="0.263901" y1="-0.016596" x2="0.263901" y2="0.019804" />
      <line x1="0.238501" y1="-0.016596" x2="0.238501" y2="0.019804" />
      <line x1="0.263901" y1="-0.016604" x2="0.263901" y2="0.019796" />
      <line x1="0.263901" y1="0.019804" x2="0.263901" y2="0.019796" />
      <line x1="0.238501" y1="-0.016604" x2="0.238501" y2="0.019796" />
      <line x1="0.238501" y1="0.019796" x2="0.263901" y2="0.019796" />
      <line x1="0.238501" y1="0.019804" x2="0.238501" y2="0.019796" />
      <line x1="0.243051" y1="-0.021946" x2="0.243051" y2="-0.016596" />
      <line x1="0.238851" y1="-0.021946" x2="0.238851" y2="-0.016596" />
      <line x1="0.243051" y1="-0.021947" x2="0.243051" y2="-0.016597" />
      <line x1="0.238851" y1="-0.021947" x2="0.238851" y2="-0.016597" />
      <line x1="0.243051" y1="-0.021951" x2="0.243051" y2="-0.016601" />
      <line x1="0.238851" y1="-0.021951" x2="0.238851" y2="-0.016601" />
      <line x1="0.263551" y1="-0.021946" x2="0.263551" y2="-0.016596" />
      <line x1="0.259351" y1="-0.021946" x2="0.259351" y2="-0.016596" />
      <line x1="0.263551" y1="-0.021947" x2="0.263551" y2="-0.016597" />
      <line x1="0.259351" y1="-0.021947" x2="0.259351" y2="-0.016597" />
      <line x1="0.263551" y1="-0.021951" x2="0.263551" y2="-0.016601" />
      <line x1="0.259351" y1="-0.021951" x2="0.259351" y2="-0.016601" />
    </g>
  </g>
  <text x="0.025500" y="-0.027980" text-anchor="middle" font-family="'Input Sans Narrow', 'DejaVu Sans', Arial, sans-serif" font-size="0.002500" font-weight="bold" fill="#333">A-A</text>
  <text x="0.025500" y="-0.024480" text-anchor="middle" font-family="'Input Sans Narrow', 'DejaVu Sans', Arial, sans-serif" font-size="0.001800" fill="#888">top_shaft</text>
  <line x1="0.000000" y1="0.016000" x2="0.000000" y2="0.019000" stroke="#555" stroke-width="0.000140" stroke-opacity="0.5"/>
  <line x1="0.051000" y1="0.016000" x2="0.051000" y2="0.019000" stroke="#555" stroke-width="0.000140" stroke-opacity="0.5"/>
  <line x1="0.000000" y1="0.017400" x2="0.000000" y2="0.019000" stroke="#555" stroke-width="0.000200"/>
  <line x1="0.051000" y1="0.017400" x2="0.051000" y2="0.019000" stroke="#555" stroke-width="0.000200"/>
  <line x1="0.000000" y1="0.018200" x2="0.051000" y2="0.018200" stroke="#555" stroke-width="0.000200"/>
  <polygon points="0.000000,0.018200 0.001500,0.017600 0.001500,0.018800" fill="#555"/>
  <polygon points="0.051000,0.018200 0.049500,0.017600 0.049500,0.018800" fill="#555"/>
  <text x="0.025500" y="0.017000" text-anchor="middle" font-family="'Input Sans Narrow', 'DejaVu Sans', Arial, sans-serif" font-size="0.001600" fill="#555">51.0</text>
  <line x1="0.051800" y1="-0.015200" x2="0.054800" y2="-0.015200" stroke="#555" stroke-width="0.000140" stroke-opacity="0.5"/>
  <line x1="0.051800" y1="0.015200" x2="0.054800" y2="0.015200" stroke="#555" stroke-width="0.000140" stroke-opacity="0.5"/>
  <line x1="0.053200" y1="-0.015200" x2="0.054800" y2="-0.015200" stroke="#555" stroke-width="0.000200"/>
  <line x1="0.053200" y1="0.015200" x2="0.054800" y2="0.015200" stroke="#555" stroke-width="0.000200"/>
  <line x1="0.054000" y1="-0.015200" x2="0.054000" y2="0.015200" stroke="#555" stroke-width="0.000200"/>
  <polygon points="0.054000,-0.015200 0.053400,-0.013700 0.054600,-0.013700" fill="#555"/>
  <polygon points="0.054000,0.015200 0.053400,0.013700 0.054600,0.013700" fill="#555"/>
  <text x="0.055500" y="-0.000000" text-anchor="middle" dominant-baseline="central" font-family="'Input Sans Narrow', 'DejaVu Sans', Arial, sans-serif" font-size="0.001600" fill="#555" transform="rotate(-90 0.055500 -0.000000)">30.4</text>
  <text x="0.084500" y="-0.027980" text-anchor="middle" font-family="'Input Sans Narrow', 'DejaVu Sans', Arial, sans-serif" font-size="0.002500" font-weight="bold" fill="#333">B-B</text>
  <text x="0.084500" y="-0.024480" text-anchor="middle" font-family="'Input Sans Narrow', 'DejaVu Sans', Arial, sans-serif" font-size="0.001800" fill="#888">mid_body</text>
  <text x="0.143500" y="-0.027980" text-anchor="middle" font-family="'Input Sans Narrow', 'DejaVu Sans', Arial, sans-serif" font-size="0.002500" font-weight="bold" fill="#333">C-C</text>
  <text x="0.143500" y="-0.024480" text-anchor="middle" font-family="'Input Sans Narrow', 'DejaVu Sans', Arial, sans-serif" font-size="0.001800" fill="#888">ears</text>
  <text x="0.202501" y="-0.027980" text-anchor="middle" font-family="'Input Sans Narrow', 'DejaVu Sans', Arial, sans-serif" font-size="0.002500" font-weight="bold" fill="#333">side_XZ</text>
  <line x1="0.177000" y1="0.022753" x2="0.177000" y2="0.025753" stroke="#555" stroke-width="0.000140" stroke-opacity="0.5"/>
  <line x1="0.228001" y1="0.022753" x2="0.228001" y2="0.025753" stroke="#555" stroke-width="0.000140" stroke-opacity="0.5"/>
  <line x1="0.177000" y1="0.024153" x2="0.177000" y2="0.025753" stroke="#555" stroke-width="0.000200"/>
  <line x1="0.228001" y1="0.024153" x2="0.228001" y2="0.025753" stroke="#555" stroke-width="0.000200"/>
  <line x1="0.177000" y1="0.024953" x2="0.228001" y2="0.024953" stroke="#555" stroke-width="0.000200"/>
  <polygon points="0.177000,0.024953 0.178500,0.024353 0.178500,0.025553" fill="#555"/>
  <polygon points="0.228001,0.024953 0.226501,0.024353 0.226501,0.025553" fill="#555"/>
  <text x="0.202501" y="0.023753" text-anchor="middle" font-family="'Input Sans Narrow', 'DejaVu Sans', Arial, sans-serif" font-size="0.001600" fill="#555">51.0</text>
  <line x1="0.228801" y1="-0.022303" x2="0.231801" y2="-0.022303" stroke="#555" stroke-width="0.000140" stroke-opacity="0.5"/>
  <line x1="0.228801" y1="0.021953" x2="0.231801" y2="0.021953" stroke="#555" stroke-width="0.000140" stroke-opacity="0.5"/>
  <line x1="0.230201" y1="-0.022303" x2="0.231801" y2="-0.022303" stroke="#555" stroke-width="0.000200"/>
  <line x1="0.230201" y1="0.021953" x2="0.231801" y2="0.021953" stroke="#555" stroke-width="0.000200"/>
  <line x1="0.231001" y1="-0.022303" x2="0.231001" y2="0.021953" stroke="#555" stroke-width="0.000200"/>
  <polygon points="0.231001,-0.022303 0.230401,-0.020803 0.231601,-0.020803" fill="#555"/>
  <polygon points="0.231001,0.021953 0.230401,0.020453 0.231601,0.020453" fill="#555"/>
  <text x="0.232501" y="-0.000175" text-anchor="middle" dominant-baseline="central" font-family="'Input Sans Narrow', 'DejaVu Sans', Arial, sans-serif" font-size="0.001600" fill="#555" transform="rotate(-90 0.232501 -0.000175)">44.3</text>
  <line x1="0.174000" y1="-0.016300" x2="0.231001" y2="-0.016300" stroke="#555" stroke-width="0.000250" stroke-dasharray="0.002500,0.000800,0.000500,0.000800"/>
  <text x="0.172500" y="-0.015700" text-anchor="end" font-family="'Input Sans Narrow', 'DejaVu Sans', Arial, sans-serif" font-size="0.002000" font-weight="bold" fill="#555">A</text>
  <text x="0.232501" y="-0.015700" text-anchor="start" font-family="'Input Sans Narrow', 'DejaVu Sans', Arial, sans-serif" font-size="0.002000" font-weight="bold" fill="#555">A</text>
  <line x1="0.174000" y1="-0.000000" x2="0.231001" y2="-0.000000" stroke="#555" stroke-width="0.000250" stroke-dasharray="0.002500,0.000800,0.000500,0.000800"/>
  <text x="0.172500" y="0.000600" text-anchor="end" font-family="'Input Sans Narrow', 'DejaVu Sans', Arial, sans-serif" font-size="0.002000" font-weight="bold" fill="#555">B</text>
  <text x="0.232501" y="0.000600" text-anchor="start" font-family="'Input Sans Narrow', 'DejaVu Sans', Arial, sans-serif" font-size="0.002000" font-weight="bold" fill="#555">B</text>
  <line x1="0.174000" y1="0.017350" x2="0.231001" y2="0.017350" stroke="#555" stroke-width="0.000250" stroke-dasharray="0.002500,0.000800,0.000500,0.000800"/>
  <text x="0.172500" y="0.017950" text-anchor="end" font-family="'Input Sans Narrow', 'DejaVu Sans', Arial, sans-serif" font-size="0.002000" font-weight="bold" fill="#555">C</text>
  <text x="0.232501" y="0.017950" text-anchor="start" font-family="'Input Sans Narrow', 'DejaVu Sans', Arial, sans-serif" font-size="0.002000" font-weight="bold" fill="#555">C</text>
  <text x="0.251201" y="-0.027980" text-anchor="middle" font-family="'Input Sans Narrow', 'DejaVu Sans', Arial, sans-serif" font-size="0.002500" font-weight="bold" fill="#333">side_YZ</text>
  <line x1="0.236001" y1="0.022754" x2="0.236001" y2="0.025754" stroke="#555" stroke-width="0.000140" stroke-opacity="0.5"/>
  <line x1="0.266401" y1="0.022754" x2="0.266401" y2="0.025754" stroke="#555" stroke-width="0.000140" stroke-opacity="0.5"/>
  <line x1="0.236001" y1="0.024154" x2="0.236001" y2="0.025754" stroke="#555" stroke-width="0.000200"/>
  <line x1="0.266401" y1="0.024154" x2="0.266401" y2="0.025754" stroke="#555" stroke-width="0.000200"/>
  <line x1="0.236001" y1="0.024954" x2="0.266401" y2="0.024954" stroke="#555" stroke-width="0.000200"/>
  <polygon points="0.236001,0.024954 0.237501,0.024354 0.237501,0.025554" fill="#555"/>
  <polygon points="0.266401,0.024954 0.264901,0.024354 0.264901,0.025554" fill="#555"/>
  <text x="0.251201" y="0.023754" text-anchor="middle" font-family="'Input Sans Narrow', 'DejaVu Sans', Arial, sans-serif" font-size="0.001600" fill="#555">30.4</text>
  <line x1="0.267201" y1="-0.022305" x2="0.270201" y2="-0.022305" stroke="#555" stroke-width="0.000140" stroke-opacity="0.5"/>
  <line x1="0.267201" y1="0.021954" x2="0.270201" y2="0.021954" stroke="#555" stroke-width="0.000140" stroke-opacity="0.5"/>
  <line x1="0.268601" y1="-0.022305" x2="0.270201" y2="-0.022305" stroke="#555" stroke-width="0.000200"/>
  <line x1="0.268601" y1="0.021954" x2="0.270201" y2="0.021954" stroke="#555" stroke-width="0.000200"/>
  <line x1="0.269401" y1="-0.022305" x2="0.269401" y2="0.021954" stroke="#555" stroke-width="0.000200"/>
  <polygon points="0.269401,-0.022305 0.268801,-0.020805 0.270001,-0.020805" fill="#555"/>
  <polygon points="0.269401,0.021954 0.268801,0.020454 0.270001,0.020454" fill="#555"/>
  <text x="0.270901" y="-0.000175" text-anchor="middle" dominant-baseline="central" font-family="'Input Sans Narrow', 'DejaVu Sans', Arial, sans-serif" font-size="0.001600" fill="#555" transform="rotate(-90 0.270901 -0.000175)">44.3</text>
  <line x1="0.233001" y1="-0.016300" x2="0.269401" y2="-0.016300" stroke="#555" stroke-width="0.000250" stroke-dasharray="0.002500,0.000800,0.000500,0.000800"/>
  <text x="0.231501" y="-0.015700" text-anchor="end" font-family="'Input Sans Narrow', 'DejaVu Sans', Arial, sans-serif" font-size="0.002000" font-weight="bold" fill="#555">A</text>
  <text x="0.270901" y="-0.015700" text-anchor="start" font-family="'Input Sans Narrow', 'DejaVu Sans', Arial, sans-serif" font-size="0.002000" font-weight="bold" fill="#555">A</text>
  <line x1="0.233001" y1="-0.000000" x2="0.269401" y2="-0.000000" stroke="#555" stroke-width="0.000250" stroke-dasharray="0.002500,0.000800,0.000500,0.000800"/>
  <text x="0.231501" y="0.000600" text-anchor="end" font-family="'Input Sans Narrow', 'DejaVu Sans', Arial, sans-serif" font-size="0.002000" font-weight="bold" fill="#555">B</text>
  <text x="0.270901" y="0.000600" text-anchor="start" font-family="'Input Sans Narrow', 'DejaVu Sans', Arial, sans-serif" font-size="0.002000" font-weight="bold" fill="#555">B</text>
  <line x1="0.233001" y1="0.017350" x2="0.269401" y2="0.017350" stroke="#555" stroke-width="0.000250" stroke-dasharray="0.002500,0.000800,0.000500,0.000800"/>
  <text x="0.231501" y="0.017950" text-anchor="end" font-family="'Input Sans Narrow', 'DejaVu Sans', Arial, sans-serif" font-size="0.002000" font-weight="bold" fill="#555">C</text>
  <text x="0.270901" y="0.017950" text-anchor="start" font-family="'Input Sans Narrow', 'DejaVu Sans', Arial, sans-serif" font-size="0.002000" font-weight="bold" fill="#555">C</text>
  <text x="-0.001175" y="0.030129" font-family="'Input Sans Narrow', 'DejaVu Sans', Arial, sans-serif" font-size="0.003500" font-weight="bold" fill="#222">pocket_bracket</text>
  <line x1="-0.001175" y1="0.034129" x2="0.008825" y2="0.034129" stroke="#333" stroke-width="0.000350"/>
  <line x1="-0.001175" y1="0.033129" x2="-0.001175" y2="0.035129" stroke="#333" stroke-width="0.000250"/>
  <line x1="0.008825" y1="0.033129" x2="0.008825" y2="0.035129" stroke="#333" stroke-width="0.000250"/>
  <text x="0.010325" y="0.034829" font-family="'Input Sans Narrow', 'DejaVu Sans', Arial, sans-serif" font-size="0.001800" fill="#888">10 mm</text>
  <rect x="0.028825" y="0.027629" width="0.004000" height="0.002500" fill="url(#hatch_servo)" stroke="rgb(60,60,60)" stroke-width="0.000300"/>
  <text x="0.034325" y="0.029629" font-family="'Input Sans Narrow', 'DejaVu Sans', Arial, sans-serif" font-size="0.001800" fill="rgb(60,60,60)">servo</text>
  <rect x="0.028825" y="0.031129" width="0.004000" height="0.002500" fill="url(#hatch_bracket)" stroke="rgb(50,120,190)" stroke-width="0.000300"/>
  <text x="0.034325" y="0.033129" font-family="'Input Sans Narrow', 'DejaVu Sans', Arial, sans-serif" font-size="0.001800" fill="rgb(50,120,190)">bracket</text>
</svg>