<?xml version='1.0' encoding='utf-8'?>
<svg width="266.41mm" height="82.83mm" viewBox="-0.003175 -0.024375 0.266414 0.082827" version="1.1" xmlns="http://www.w3.org/2000/svg">
  <defs>
    <pattern id="hatch_servo" width="0.0012" height="0.0012" patternUnits="userSpaceOnUse" patternTransform="rotate(45)">
      <line x1="0" y1="0" x2="0" y2="0.0012" stroke="rgb(60,60,60)" stroke-width="0.0001" stroke-opacity="0.6"/>
    </pattern>
    <pattern id="hatch_cradle" width="0.0012" height="0.0012" patternUnits="userSpaceOnUse" patternTransform="rotate(75)">
      <line x1="0" y1="0" x2="0" y2="0.0012" stroke="rgb(50,120,190)" stroke-width="0.0001" stroke-opacity="0.6"/>
    </pattern>
  </defs>
  <g transform="scale(1,-1)" stroke-linecap="round">
    <g fill="none" stroke="rgb(60,60,60)" stroke-width="0.00035" id="servo">
      <line x1="0.028" y1="-0.008" x2="0.028" y2="0.008" />
      <path d="M 0.028,-0.008 A 0.002,0.002 -90.0 0,1 0.03,-0.01" />
      <line x1="0.03" y1="-0.01" x2="0.046" y2="-0.01" />
      <path d="M 0.048,-0.008 A 0.002,0.002 -90.0 0,0 0.046,-0.01" />
      <line x1="0.048" y1="-0.008" x2="0.048" y2="0.008" />
      <path d="M 0.048,0.008 A 0.002,0.002 -90.0 0,1 0.046,0.01" />
      <line x1="0.03" y1="0.01" x2="0.046" y2="0.01" />
      <path d="M 0.028,0.008 A 0.002,0.002 -90.0 0,0 0.03,0.01" />
      <circle cx="0.094" cy="0.0" r="0.003" />
      <line x1="0.0608" y1="-0.012312" x2="0.0608" y2="-0.0124" />
      <line x1="0.0608" y1="-0.0124" x2="0.1012" y2="-0.0124" />
      <line x1="0.1012" y1="-0.0084" x2="0.1012" y2="-0.0124" />
      <line x1="0.086694" y1="-0.0084" x2="0.1012" y2="-0.0084" />
      <path d="M 0.086694,-0.0084 A 0.0021,0.0021 61.75746281556529 1,0 0.084706,-0.0084" />
      <line x1="0.065994" y1="-0.0084" x2="0.084706" y2="-0.0084" />
      <path d="M 0.0631,-0.011144 A 0.0021,0.0021 0.0 1,1 0.065994,-0.0084" />
      <path d="M 0.0608,-0.012312 A 0.0021,0.0021 0.0 0,1 0.0631,-0.011144" />
      <path d="M 0.0631,-0.009356 A 0.0021,0.0021 0.0 0,1 0.062194,-0.0084" />
      <line x1="0.062194" y1="-0.0084" x2="0.064006" y2="-0.0084" />
      <path d="M 0.064006,-0.0084 A 0.0021,0.0021 0.0 0,1 0.0631,-0.009356" />
      <path d="M 0.062194,0.0084 A 0.0021,0.0021 0.0 0,1 0.0631,0.009356" />
      <path d="M 0.0631,0.009356 A 0.0021,0.0021 0.0 0,1 0.064006,0.0084" />
      <line x1="0.062194" y1="0.0084" x2="0.064006" y2="0.0084" />
      <path d="M 0.065994,0.0084 A 0.0021,0.0021 0.0 1,1 0.0631,0.011144" />
      <line x1="0.065994" y1="0.0084" x2="0.084706" y2="0.0084" />
      <path d="M 0.084706,0.0084 A 0.0021,0.0021 -118.24253718443467 1,0 0.086694,0.0084" />
      <line x1="0.086694" y1="0.0084" x2="0.1012" y2="0.0084" />
      <line x1="0.1012" y1="0.0124" x2="0.1012" y2="0.0084" />
      <line x1="0.0608" y1="0.0124" x2="0.1012" y2="0.0124" />
      <line x1="0.0608" y1="0.0124" x2="0.0608" y2="0.012312" />
      <path d="M 0.0631,0.011144 A 0.0021,0.0021 0.0 0,1 0.0608,0.012312" />
      <path d="M 0.116,0.0124 A 0.004,0.004 180.0 0,1 0.112,0.0084" />
      <line x1="0.116" y1="0.0124" x2="0.1534" y2="0.0124" />
      <path d="M 0.1574,0.0084 A 0.004,0.004 0.0 0,1 0.1534,0.0124" />
      <line x1="0.1574" y1="0.0084" x2="0.1574" y2="-0.0084" />
      <path d="M 0.1534,-0.0124 A 0.004,0.004 0.0 0,1 0.1574,-0.0084" />
      <line x1="0.116" y1="-0.0124" x2="0.1534" y2="-0.0124" />
      <path d="M 0.112,-0.0084 A 0.004,0.004 180.0 0,1 0.116,-0.0124" />
      <line x1="0.112" y1="0.0084" x2="0.112" y2="-0.0084" />
      <line x1="0.168244" y1="-0.032613" x2="0.168244" y2="-1.3e-05" />
      <line x1="0.168244" y1="-1.3e-05" x2="0.168264" y2="1.3e-05" />
      <path d="M 0.168244,-1.3e-05 A 0.004,6.398387877148934e-06 -6.6029846443350364e-21 0,1 0.172239,-2e-05" />
      <line x1="0.172239" y1="-0.03262" x2="0.172239" y2="-2e-05" />
      <path d="M 0.17122,-0.03262 A 0.004,6.398387877148934e-06 -6.6029846443350364e-21 0,1 0.172239,-0.03262" />
      <line x1="0.17122" y1="-0.03262" x2="0.17122" y2="-0.02472" />
      <path d="M 0.168561,-0.024716 A 0.004,6.398387877148934e-06 -1.0878798464191528e-20 0,1 0.17122,-0.02472" />
      <line x1="0.168561" y1="-0.032616" x2="0.168561" y2="-0.024716" />
      <path d="M 0.168244,-0.032613 A 0.004,6.398387877148934e-06 -6.6029846443350364e-21 0,1 0.168561,-0.032616" />
      <line x1="0.213644" y1="-0.032613" x2="0.213664" y2="-0.032587" />
      <path d="M 0.213644,-0.032613 A 0.004,6.398387877148934e-06 180.0 0,0 0.210639,-0.03262" />
      <path d="M 0.17122,-0.032613 A 0.0021,3.3591536355031905e-06 -1.0878798464191528e-20 0,1 0.168561,-0.032616" />
      <path d="M 0.168264,1.3e-05 A 0.004,6.398387877148934e-06 180.0 0,0 0.172269,2e-05" />
      <line x1="0.172239" y1="-2e-05" x2="0.209639" y2="-2e-05" />
      <line x1="0.172269" y1="2e-05" x2="0.193444" y2="2e-05" />
      <path d="M 0.213644,-1.3e-05 A 0.004,6.398387877148934e-06 180.0 0,0 0.209639,-2e-05" />
      <path d="M 0.213664,1.3e-05 A 0.004,6.398387877148934e-06 -6.6029846443350364e-21 0,1 0.213463,1.5e-05" />
      <line x1="0.213644" y1="-1.3e-05" x2="0.213664" y2="1.3e-05" />
      <path d="M 0.193444,-1.3e-05 A 0.002,3.199193938574467e-06 -6.6029846443350364e-21 0,1 0.195442,-1.6e-05" />
      <line x1="0.195442" y1="-1.6e-05" x2="0.211442" y2="-1.6e-05" />
      <path d="M 0.213444,-1.3e-05 A 0.002,3.199193938574467e-06 180.0 0,0 0.211442,-1.6e-05" />
      <line x1="0.213444" y1="-1.3e-05" x2="0.213463" y2="1.3e-05" />
      <line x1="0.209639" y1="-0.03262" x2="0.209639" y2="-2e-05" />
      <line x1="0.209639" y1="-0.03262" x2="0.210639" y2="-0.03262" />
      <line x1="0.210639" y1="-0.03472" x2="0.210639" y2="-0.03262" />
      <line x1="0.170239" y1="-0.03472" x2="0.210639" y2="-0.03472" />
      <line x1="0.170239" y1="-0.03472" x2="0.170239" y2="-0.03262" />
      <line x1="0.170239" y1="-0.03262" x2="0.172239" y2="-0.03262" />
      <path d="M 0.170239,-0.03262 A 0.0021,3.3591536355031905e-06 -1.0878798464191528e-20 0,1 0.17122,-0.03262" />
      <line x1="0.210644" y1="-0.034687" x2="0.210664" y2="-0.034687" />
      <line x1="0.210664" y1="-0.034687" x2="0.210664" y2="-0.03262" />
      <line x1="0.210669" y1="-0.03468" x2="0.210669" y2="-0.03262" />
      <line x1="0.210664" y1="-0.034687" x2="0.210669" y2="-0.03468" />
      <line x1="0.213664" y1="1.3e-05" x2="0.213664" y2="-0.032587" />
      <path d="M 0.210668,-0.03258 A 0.004,6.398387877148934e-06 -6.6029846443350364e-21 0,1 0.209669,-0.03258" />
      <line x1="0.213644" y1="-0.032613" x2="0.213644" y2="-1.3e-05" />
      <path d="M 0.210639,-0.03262 A 0.004,6.398387877148934e-06 180.0 0,0 0.209639,-0.03262" />
      <line x1="0.210644" y1="-0.034713" x2="0.210644" y2="-0.03262" />
      <line x1="0.210639" y1="-0.03472" x2="0.210644" y2="-0.034713" />
      <line x1="0.170268" y1="-0.03262" x2="0.170268" y2="-0.032613" />
      <path d="M 0.171637,-0.034681 A 0.0021,3.3591536355031905e-06 -1.0878798464191528e-20 0,1 0.170268,-0.03468" />
      <path d="M 0.193444,0.001687 A 0.002,3.199193938574467e-06 -6.6029846443350364e-21 0,1 0.195442,0.001684" />
      <line x1="0.195442" y1="0.001684" x2="0.211442" y2="0.001684" />
      <path d="M 0.213444,0.001687 A 0.002,3.199193938574467e-06 180.0 0,0 0.211442,0.001684" />
      <line x1="0.213444" y1="0.001687" x2="0.213463" y2="0.001713" />
      <path d="M 0.213463,0.001713 A 0.002,3.199193938574467e-06 -6.6029846443350364e-21 0,1 0.211466,0.001716" />
      <line x1="0.195466" y1="0.001716" x2="0.198954" y2="0.001716" />
      <line x1="0.207954" y1="0.001716" x2="0.211466" y2="0.001716" />
      <path d="M 0.193463,0.001713 A 0.002,3.199193938574467e-06 180.0 0,0 0.195466,0.001716" />
      <line x1="0.193444" y1="0.001687" x2="0.193463" y2="0.001713" />
      <path d="M 0.198954,0.0017 A 0.004500000000000004,7.198186361792558e-06 -1.0878798464191528e-20 0,1 0.207954,0.0017" />
      <path d="M 0.207954,0.0032 A 0.004500000000000004,7.198186361792558e-06 -1.0878798464191528e-20 0,1 0.198954,0.0032" />
      <path d="M 0.198954,0.0032 A 0.004500000000000004,7.198186361792558e-06 -1.0878798464191528e-20 0,1 0.207954,0.0032" />
      <line x1="0.193444" y1="-1.3e-05" x2="0.193444" y2="0.001687" />
      <line x1="0.195442" y1="-1.6e-05" x2="0.195442" y2="0.001684" />
      <line x1="0.211442" y1="-1.6e-05" x2="0.211442" y2="0.001684" />
      <line x1="0.213444" y1="-1.3e-05" x2="0.213444" y2="0.001687" />
      <line x1="0.213463" y1="1.3e-05" x2="0.213463" y2="0.001713" />
      <line x1="0.168244" y1="-0.032613" x2="0.168244" y2="-1.3e-05" />
      <line x1="0.213664" y1="-0.032587" x2="0.213664" y2="1.3e-05" />
      <line x1="0.193444" y1="-1.3e-05" x2="0.193444" y2="0.001687" />
      <line x1="0.213463" y1="1.3e-05" x2="0.213463" y2="0.001713" />
      <line x1="0.207954" y1="0.0017" x2="0.207954" y2="0.0032" />
      <line x1="0.198954" y1="0.0017" x2="0.198954" y2="0.0032" />
      <path d="M 0.226864,3.6e-05 A 0.004,6.390708572468823e-06 5.401692930135933e-38 0,1 0.224464,3.1e-05" />
      <path d="M 0.245264,-0.032635 A 0.004,6.390708572468823e-06 5.401692930135933e-38 0,1 0.249137,-0.032631" />
      <line x1="0.228464" y1="-0.032635" x2="0.245264" y2="-0.032635" />
      <path d="M 0.228464,-0.032635 A 0.004,6.390708572468823e-06 -180.0 0,0 0.224591,-0.032631" />
      <path d="M 0.246864,3.6e-05 A 0.004,6.390708572468823e-06 -180.0 0,0 0.249264,3.1e-05" />
      <line x1="0.224464" y1="3.1e-05" x2="0.224464" y2="-2.9e-05" />
      <line x1="0.249264" y1="3.1e-05" x2="0.249264" y2="-2.9e-05" />
      <path d="M 0.228464,-3.6e-05 A 0.004,6.390708572468823e-06 -180.0 0,0 0.224464,-2.9e-05" />
      <path d="M 0.245264,-3.6e-05 A 0.004,6.390708572468823e-06 5.401692930135933e-38 0,1 0.249264,-2.9e-05" />
      <line x1="0.228464" y1="-3.6e-05" x2="0.245264" y2="-3.6e-05" />
      <path d="M 0.228864,-3.5e-05 A 0.002,3.1953542862344116e-06 -180.0 0,0 0.226864,-3.2e-05" />
      <line x1="0.228864" y1="-3.5e-05" x2="0.244864" y2="-3.5e-05" />
      <path d="M 0.244864,-3.5e-05 A 0.002,3.1953542862344116e-06 5.401692930135933e-38 0,1 0.246864,-3.2e-05" />
      <line x1="0.224464" y1="-0.032629" x2="0.224464" y2="-2.9e-05" />
      <line x1="0.224464" y1="-0.032629" x2="0.224464" y2="-0.032631" />
      <line x1="0.224464" y1="-0.034731" x2="0.224464" y2="-0.032631" />
      <line x1="0.245264" y1="-0.034731" x2="0.245264" y2="-0.032635" />
      <line x1="0.249137" y1="-0.032631" x2="0.249264" y2="-0.032631" />
      <line x1="0.249264" y1="-0.034731" x2="0.249264" y2="-0.032631" />
      <line x1="0.245264" y1="-0.034731" x2="0.249264" y2="-0.034731" />
      <line x1="0.249264" y1="-2.9e-05" x2="0.249264" y2="-0.032629" />
      <line x1="0.245264" y1="-3.6e-05" x2="0.245264" y2="-0.032635" />
      <path d="M 0.249137,-0.032631 A 0.004,6.390708572468823e-06 5.401692930135933e-38 0,1 0.249264,-0.032629" />
      <line x1="0.228464" y1="-0.032635" x2="0.228464" y2="-3.6e-05" />
      <path d="M 0.224591,-0.032631 A 0.004,6.390708572468823e-06 -180.0 0,0 0.224464,-0.032629" />
      <line x1="0.224464" y1="-0.032631" x2="0.224591" y2="-0.032631" />
      <line x1="0.228464" y1="-0.034731" x2="0.228464" y2="-0.032635" />
      <line x1="0.224464" y1="-0.034731" x2="0.228464" y2="-0.034731" />
      <path d="M 0.236864,-0.033924 A 0.003,4.793031429351618e-06 -4.841106953386328e-38 0,1 0.239864,-0.033919" />
      <path d="M 0.233864,-0.033919 A 0.003,4.793031429351618e-06 -4.841106953386328e-38 0,1 0.236864,-0.033924" />
      <line x1="0.249264" y1="-0.032629" x2="0.249264" y2="-0.032631" />
      <path d="M 0.228864,0.001697 A 0.002,3.1953542862344116e-06 5.401692930135933e-38 0,1 0.226864,0.001694" />
      <line x1="0.226864" y1="-3.2e-05" x2="0.226864" y2="0.001668" />
      <line x1="0.226864" y1="0.001694" x2="0.226864" y2="0.001668" />
      <path d="M 0.228864,0.001665 A 0.002,3.1953542862344116e-06 -180.0 0,0 0.226864,0.001668" />
      <line x1="0.228864" y1="0.001665" x2="0.244864" y2="0.001665" />
      <line x1="0.246864" y1="-3.2e-05" x2="0.246864" y2="0.001668" />
      <path d="M 0.244864,0.001665 A 0.002,3.1953542862344116e-06 5.401692930135933e-38 0,1 0.246864,0.001668" />
      <line x1="0.246864" y1="0.001694" x2="0.246864" y2="0.001668" />
      <path d="M 0.244864,0.001697 A 0.002,3.1953542862344116e-06 -180.0 0,0 0.246864,0.001694" />
      <line x1="0.228864" y1="0.001697" x2="0.232364" y2="0.001697" />
      <line x1="0.241364" y1="0.001697" x2="0.244864" y2="0.001697" />
      <path d="M 0.236864,0.001674 A 0.0045,7.1895471440274255e-06 -4.841106953386328e-38 0,1 0.241364,0.001681" />
      <path d="M 0.232364,0.001681 A 0.0045,7.1895471440274255e-06 -4.841106953386328e-38 0,1 0.236864,0.001674" />
      <path d="M 0.236864,0.003174 A 0.0045,7.1895471440274255e-06 -4.841106953386328e-38 0,1 0.241364,0.003181" />
      <path d="M 0.241364,0.003181 A 0.004500000000000004,7.189547144027432e-06 -4.841106953386328e-38 0,1 0.232364,0.003181" />
      <path d="M 0.232364,0.003181 A 0.0045,7.1895471440274255e-06 -4.841106953386328e-38 0,1 0.236864,0.003174" />
      <line x1="0.228864" y1="-3.5e-05" x2="0.228864" y2="0.001665" />
      <line x1="0.244864" y1="-3.5e-05" x2="0.244864" y2="0.001665" />
      <line x1="0.239864" y1="-0.033919" x2="0.239864" y2="-0.032635" />
      <line x1="0.233864" y1="-0.033919" x2="0.233864" y2="-0.032635" />
      <line x1="0.241364" y1="0.001681" x2="0.241364" y2="0.003181" />
      <line x1="0.232364" y1="0.001681" x2="0.232364" y2="0.003181" />
    </g>
    <g fill="url(#hatch_servo)" stroke="none" stroke-width="0" id="servo_fill">
      <path d="M 0.028,0.008 L 0.028,-0.008 A 0.002,0.002 -90.0 0,1 0.03,-0.01 L 0.046,-0.01 A 0.002,0.002 -90.0 0,1 0.048,-0.008 L 0.048,0.008 A 0.002,0.002 -90.0 0,1 0.046,0.01 L 0.03,0.01 A 0.002,0.002 -90.0 0,1 0.028,0.008" />
      <circle cx="0.094" cy="0.0" r="0.003" />
      <path d="M 0.0608,-0.012312 L 0.0608,-0.0124 L 0.1012,-0.0124 L 0.1012,-0.0084 L 0.086694,-0.0084 A 0.0021,0.0021 61.75746281556529 1,0 0.084706,-0.0084 L 0.065994,-0.0084 A 0.0021,0.0021 0.0 1,0 0.0631,-0.011144 A 0.0021,0.0021 0.0 0,0 0.0608,-0.012312" />
      <path d="M 0.062194,-0.0084 A 0.0021,0.0021 0.0 0,0 0.0631,-0.009356 A 0.0021,0.0021 0.0 0,0 0.064006,-0.0084 L 0.062194,-0.0084" />
      <path d="M 0.0631,0.009356 A 0.0021,0.0021 0.0 0,0 0.062194,0.0084 L 0.064006,0.0084 A 0.0021,0.0021 0.0 0,0 0.0631,0.009356" />
      <path d="M 0.0631,0.011144 A 0.0021,0.0021 0.0 1,0 0.065994,0.0084 L 0.084706,0.0084 A 0.0021,0.0021 -118.24253718443467 1,0 0.086694,0.0084 L 0.1012,0.0084 L 0.1012,0.0124 L 0.0608,0.0124 L 0.0608,0.012312 A 0.0021,0.0021 0.0 0,0 0.0631,0.011144" />
      <path d="M 0.116,0.0124 A 0.004,0.004 180.0 0,1 0.112,0.0084 L 0.112,-0.0084 A 0.004,0.004 180.0 0,1 0.116,-0.0124 L 0.1534,-0.0124 A 0.004,0.004 0.0 0,1 0.1574,-0.0084 L 0.1574,0.0084 A 0.004,0.004 0.0 0,1 0.1534,0.0124 L 0.116,0.0124" />
    </g>
    <g fill="none" stroke="rgb(60,60,60)" stroke-opacity="0.4" stroke-width="0.00015" id="servo_hidden" stroke-dasharray="0.0018 0.00045">
      <line x1="0.168244" y1="-0.032613" x2="0.168264" y2="-0.032586" />
      <line x1="0.168264" y1="1.3e-05" x2="0.168264" y2="-0.032586" />
      <path d="M 0.168264,-0.032586 A 0.004,6.398387877148934e-06 180.0 0,0 0.168585,-0.032584" />
      <path d="M 0.168585,-0.032584 A 0.0021,3.3591536355031905e-06 -1.0878798464191528e-20 0,1 0.171657,-0.032587" />
      <line x1="0.171657" y1="-0.032587" x2="0.17347" y2="-0.032587" />
      <path d="M 0.17347,-0.032587 A 0.0021,3.3591536355031905e-06 -1.0878798464191528e-20 0,1 0.175457,-0.032587" />
      <line x1="0.175457" y1="-0.032587" x2="0.19417" y2="-0.032587" />
      <path d="M 0.19417,-0.032587 A 0.0021,3.3591536355031905e-06 -1.0878798464191528e-20 0,1 0.196157,-0.032587" />
      <line x1="0.196157" y1="-0.032587" x2="0.210664" y2="-0.032587" />
      <line x1="0.210664" y1="-0.032587" x2="0.210668" y2="-0.03258" />
      <path d="M 0.213664,-0.032587 A 0.004,6.398387877148934e-06 -6.6029846443350364e-21 0,1 0.210668,-0.03258" />
      <line x1="0.210639" y1="-0.03262" x2="0.210644" y2="-0.032613" />
      <line x1="0.196137" y1="-0.032613" x2="0.210644" y2="-0.032613" />
      <path d="M 0.196137,-0.032613 A 0.0021,3.3591536355031905e-06 -1.0878798464191528e-20 0,1 0.19415,-0.032613" />
      <line x1="0.175437" y1="-0.032613" x2="0.19415" y2="-0.032613" />
      <path d="M 0.175437,-0.032613 A 0.0021,3.3591536355031905e-06 -1.0878798464191528e-20 0,1 0.17345,-0.032613" />
      <line x1="0.171637" y1="-0.032613" x2="0.17345" y2="-0.032613" />
      <path d="M 0.171637,-0.032613 A 0.0021,3.3591536355031905e-06 -1.0878798464191528e-20 0,1 0.17122,-0.032613" />
      <path d="M 0.206454,-0.0326 A 0.0030000000000000027,4.798790907861705e-06 -1.0878798464191528e-20 0,1 0.200454,-0.0326" />
      <path d="M 0.200454,-0.0326 A 0.0030000000000000027,4.798790907861705e-06 -1.0878798464191528e-20 0,1 0.206454,-0.0326" />
      <line x1="0.172269" y1="2e-05" x2="0.172269" y2="-0.03258" />
      <path d="M 0.171249,-0.03258 A 0.004,6.398387877148934e-06 180.0 0,0 0.172269,-0.03258" />
      <line x1="0.171249" y1="-0.03258" x2="0.171249" y2="-0.02468" />
      <path d="M 0.171249,-0.02468 A 0.004,6.398387877148934e-06 -1.0878798464191528e-20 0,1 0.168585,-0.024684" />
      <line x1="0.168585" y1="-0.032584" x2="0.168585" y2="-0.024684" />
      <line x1="0.193444" y1="2e-05" x2="0.209669" y2="2e-05" />
      <path d="M 0.213463,1.5e-05 A 0.004,6.398387877148934e-06 -6.6029846443350364e-21 0,1 0.209669,2e-05" />
      <path d="M 0.213463,1.3e-05 A 0.002,3.199193938574467e-06 -6.6029846443350364e-21 0,1 0.211466,1.6e-05" />
      <line x1="0.195466" y1="1.6e-05" x2="0.211466" y2="1.6e-05" />
      <path d="M 0.193463,1.3e-05 A 0.002,3.199193938574467e-06 180.0 0,0 0.195466,1.6e-05" />
      <line x1="0.193444" y1="-1.3e-05" x2="0.193463" y2="1.3e-05" />
      <line x1="0.17254" y1="-0.034718" x2="0.17254" y2="-0.024718" />
      <path d="M 0.170239,-0.03472 A 0.0021,3.3591536355031905e-06 -1.0878798464191528e-20 0,1 0.17254,-0.034718" />
      <line x1="0.170239" y1="-0.03472" x2="0.170239" y2="-0.03262" />
      <path d="M 0.17122,-0.02472 A 0.0021,3.3591536355031905e-06 -1.0878798464191528e-20 0,1 0.17254,-0.024718" />
      <path d="M 0.172542,-0.024715 A 0.0021,3.3591536355031893e-06 180.0 0,0 0.176541,-0.024716" />
      <path d="M 0.176541,-0.024716 A 0.0021,3.3591536355031893e-06 180.0 0,0 0.17254,-0.024718" />
      <path d="M 0.172542,-0.024715 A 0.0021,3.3591536355031905e-06 -1.0878798464191528e-20 0,1 0.168561,-0.024716" />
      <line x1="0.171637" y1="-0.034713" x2="0.171637" y2="-0.032613" />
      <path d="M 0.172542,-0.034715 A 0.0021,3.3591536355031905e-06 -1.0878798464191528e-20 0,1 0.171637,-0.034713" />
      <line x1="0.172542" y1="-0.034715" x2="0.172542" y2="-0.024715" />
      <line x1="0.172565" y1="-0.034685" x2="0.172565" y2="-0.024685" />
      <path d="M 0.171657,-0.034687 A 0.0021,3.3591536355031905e-06 -1.0878798464191528e-20 0,1 0.172565,-0.034685" />
      <line x1="0.171657" y1="-0.034687" x2="0.171657" y2="-0.032587" />
      <path d="M 0.168585,-0.024684 A 0.0021,3.3591536355031905e-06 -1.0878798464191528e-20 0,1 0.172565,-0.024685" />
      <line x1="0.171657" y1="-0.034687" x2="0.17347" y2="-0.034687" />
      <line x1="0.17347" y1="-0.034687" x2="0.17347" y2="-0.032587" />
      <path d="M 0.172567,-0.034682 A 0.0021,3.35915363550319e-06 -180.0 0,0 0.176566,-0.034684" />
      <path d="M 0.176566,-0.034684 A 0.0021,3.35915363550319e-06 -180.0 0,0 0.175457,-0.034687" />
      <line x1="0.172567" y1="-0.034682" x2="0.172567" y2="-0.024682" />
      <path d="M 0.172565,-0.024685 A 0.0021,3.35915363550319e-06 -6.0735755993183585e-18 0,1 0.176566,-0.024684" />
      <path d="M 0.176566,-0.024684 A 0.0021,3.35915363550319e-06 -6.0735755993183585e-18 0,1 0.172567,-0.024682" />
      <path d="M 0.172565,-0.034685 A 0.0021,3.3591536355031905e-06 -1.0878798464191528e-20 0,1 0.17347,-0.034687" />
      <line x1="0.175457" y1="-0.034687" x2="0.175457" y2="-0.032587" />
      <line x1="0.175457" y1="-0.034687" x2="0.19417" y2="-0.034687" />
      <line x1="0.19417" y1="-0.034687" x2="0.19417" y2="-0.032587" />
      <path d="M 0.196157,-0.034687 A 0.0021,3.3591536355031905e-06 -1.0878798464191528e-20 0,1 0.197266,-0.034684" />
      <line x1="0.196157" y1="-0.034687" x2="0.196157" y2="-0.032587" />
      <path d="M 0.197266,-0.034684 A 0.0021000000000000046,3.359153635503198e-06 -1.0878798464191528e-20 0,1 0.193066,-0.034684" />
      <path d="M 0.193066,-0.034684 A 0.0021,3.3591536355031905e-06 -1.0878798464191528e-20 0,1 0.19417,-0.034687" />
      <path d="M 0.197266,-0.024684 A 0.0021000000000000046,3.359153635503198e-06 -1.0878798464191528e-20 0,1 0.193066,-0.024684" />
      <path d="M 0.193066,-0.024684 A 0.0021000000000000046,3.359153635503198e-06 -1.0878798464191528e-20 0,1 0.197266,-0.024684" />
      <line x1="0.196157" y1="-0.034687" x2="0.210644" y2="-0.034687" />
      <line x1="0.210664" y1="-0.03262" x2="0.210664" y2="-0.032587" />
      <line x1="0.210669" y1="-0.03262" x2="0.210669" y2="-0.03258" />
      <line x1="0.209669" y1="2e-05" x2="0.209669" y2="-0.03258" />
      <line x1="0.210644" y1="-0.03262" x2="0.210644" y2="-0.032613" />
      <line x1="0.196137" y1="-0.034713" x2="0.210644" y2="-0.034713" />
      <line x1="0.196137" y1="-0.034713" x2="0.196137" y2="-0.032613" />
      <path d="M 0.19415,-0.034713 A 0.0021,3.3591536355031905e-06 -1.0878798464191528e-20 0,1 0.193041,-0.034716" />
      <path d="M 0.193041,-0.034716 A 0.0021000000000000046,3.359153635503198e-06 -1.0878798464191528e-20 0,1 0.197241,-0.034716" />
      <line x1="0.19415" y1="-0.034713" x2="0.19415" y2="-0.032613" />
      <path d="M 0.197241,-0.034716 A 0.0021,3.3591536355031905e-06 -1.0878798464191528e-20 0,1 0.196137,-0.034713" />
      <path d="M 0.197241,-0.024716 A 0.0021000000000000046,3.359153635503198e-06 -1.0878798464191528e-20 0,1 0.193041,-0.024716" />
      <path d="M 0.193041,-0.024716 A 0.0021000000000000046,3.359153635503198e-06 -1.0878798464191528e-20 0,1 0.197241,-0.024716" />
      <line x1="0.175437" y1="-0.034713" x2="0.19415" y2="-0.034713" />
      <line x1="0.175437" y1="-0.034713" x2="0.175437" y2="-0.032613" />
      <path d="M 0.175437,-0.034713 A 0.0021,3.3591536355031893e-06 180.0 0,0 0.176541,-0.034716" />
      <path d="M 0.176541,-0.034716 A 0.0021,3.3591536355031893e-06 180.0 0,0 0.17254,-0.034718" />
      <line x1="0.17345" y1="-0.034713" x2="0.17345" y2="-0.032613" />
      <path d="M 0.17345,-0.034713 A 0.0021,3.3591536355031905e-06 -1.0878798464191528e-20 0,1 0.172542,-0.034715" />
      <line x1="0.171637" y1="-0.034713" x2="0.17345" y2="-0.034713" />
      <path d="M 0.206454,-0.0339 A 0.0030000000000000027,4.798790907861705e-06 -1.0878798464191528e-20 0,1 0.200454,-0.0339" />
      <path d="M 0.200454,-0.0339 A 0.0030000000000000027,4.798790907861705e-06 -1.0878798464191528e-20 0,1 0.206454,-0.0339" />
      <line x1="0.209669" y1="-0.03258" x2="0.210669" y2="-0.03258" />
      <line x1="0.170269" y1="-0.03468" x2="0.210669" y2="-0.03468" />
      <line x1="0.170269" y1="-0.03468" x2="0.170269" y2="-0.03258" />
      <line x1="0.170269" y1="-0.03258" x2="0.172269" y2="-0.03258" />
      <path d="M 0.171249,-0.03258 A 0.0021,3.3591536355031905e-06 -1.0878798464191528e-20 0,1 0.170268,-0.03258" />
      <path d="M 0.172567,-0.024682 A 0.0021,3.3591536355031905e-06 -1.0878798464191528e-20 0,1 0.171249,-0.02468" />
      <line x1="0.170268" y1="-0.03468" x2="0.170268" y2="-0.03262" />
      <line x1="0.170268" y1="-0.032613" x2="0.170268" y2="-0.03258" />
      <path d="M 0.172567,-0.034682 A 0.0021,3.3591536355031905e-06 -1.0878798464191528e-20 0,1 0.171637,-0.034681" />
      <line x1="0.198954" y1="0.001716" x2="0.207954" y2="0.001716" />
      <path d="M 0.207954,0.0017 A 0.004500000000000004,7.198186361792558e-06 -1.0878798464191528e-20 0,1 0.198954,0.0017" />
      <line x1="0.176566" y1="-0.034684" x2="0.176566" y2="-0.024684" />
      <line x1="0.197266" y1="-0.034684" x2="0.197266" y2="-0.024684" />
      <line x1="0.193066" y1="-0.034684" x2="0.193066" y2="-0.024684" />
      <line x1="0.197241" y1="-0.034716" x2="0.197241" y2="-0.024716" />
      <line x1="0.193041" y1="-0.034716" x2="0.193041" y2="-0.024716" />
      <line x1="0.176541" y1="-0.034716" x2="0.176541" y2="-0.024716" />
      <line x1="0.206454" y1="-0.0339" x2="0.206454" y2="-0.0326" />
      <line x1="0.200454" y1="-0.0339" x2="0.200454" y2="-0.0326" />
      <line x1="0.211466" y1="1.6e-05" x2="0.211466" y2="0.001716" />
      <line x1="0.195466" y1="1.6e-05" x2="0.195466" y2="0.001716" />
      <line x1="0.193463" y1="1.3e-05" x2="0.193463" y2="0.001713" />
      <line x1="0.228464" y1="-0.032563" x2="0.228464" y2="3.7e-05" />
      <line x1="0.228464" y1="-0.032563" x2="0.245264" y2="-0.032563" />
      <line x1="0.245264" y1="3.7e-05" x2="0.245264" y2="-0.032563" />
      <line x1="0.228464" y1="3.7e-05" x2="0.245264" y2="3.7e-05" />
      <path d="M 0.228464,3.7e-05 A 0.004,6.390708572468823e-06 5.401692930135933e-38 0,1 0.226864,3.6e-05" />
      <line x1="0.224464" y1="-0.032569" x2="0.224464" y2="3.1e-05" />
      <path d="M 0.224596,-0.032568 A 0.004,6.390708572468823e-06 5.401692930135933e-38 0,1 0.224464,-0.032569" />
      <line x1="0.224596" y1="-0.032568" x2="0.224596" y2="-0.024668" />
      <path d="M 0.226898,-0.024663 A 0.004,6.390708572468823e-06 -4.841106953386328e-38 0,1 0.224596,-0.024668" />
      <line x1="0.226898" y1="-0.032563" x2="0.226898" y2="-0.024663" />
      <path d="M 0.228464,-0.032563 A 0.004,6.390708572468823e-06 5.401692930135933e-38 0,1 0.226898,-0.032563" />
      <path d="M 0.245264,-0.032563 A 0.004,6.390708572468823e-06 -180.0 0,0 0.24683,-0.032563" />
      <path d="M 0.24683,-0.032563 A 0.0021,3.355122000546132e-06 -4.841106953386328e-38 0,1 0.245014,-0.032567" />
      <path d="M 0.245014,-0.032567 A 0.0021,3.355122000546132e-06 -4.841106953386328e-38 0,1 0.245264,-0.032568" />
      <line x1="0.245264" y1="-0.032568" x2="0.245264" y2="-0.032571" />
      <path d="M 0.245264,-0.032571 A 0.0021,3.355122000546132e-06 -4.841106953386328e-38 0,1 0.245014,-0.032573" />
      <path d="M 0.245014,-0.032573 A 0.0021,3.355122000546132e-06 -4.841106953386328e-38 0,1 0.245264,-0.032574" />
      <line x1="0.245264" y1="-0.032574" x2="0.245264" y2="-0.032604" />
      <path d="M 0.245264,-0.032604 A 0.0021,3.355122000546132e-06 -4.841106953386328e-38 0,1 0.245014,-0.032606" />
      <path d="M 0.245014,-0.032606 A 0.0021,3.355122000546132e-06 -4.841106953386328e-38 0,1 0.245264,-0.032608" />
      <line x1="0.245264" y1="-0.032608" x2="0.245264" y2="-0.032631" />
      <line x1="0.245264" y1="-0.032631" x2="0.249137" y2="-0.032631" />
      <line x1="0.224591" y1="-0.032631" x2="0.228464" y2="-0.032631" />
      <line x1="0.228464" y1="-0.032608" x2="0.228464" y2="-0.032631" />
      <path d="M 0.228464,-0.032608 A 0.0021,3.355122000546132e-06 -4.841106953386328e-38 0,1 0.228714,-0.032606" />
      <path d="M 0.228714,-0.032606 A 0.0021,3.355122000546132e-06 -4.841106953386328e-38 0,1 0.228464,-0.032604" />
      <line x1="0.228464" y1="-0.032574" x2="0.228464" y2="-0.032604" />
      <path d="M 0.228464,-0.032574 A 0.0021,3.355122000546132e-06 -4.841106953386328e-38 0,1 0.228714,-0.032573" />
      <path d="M 0.228714,-0.032573 A 0.0021,3.355122000546132e-06 -4.841106953386328e-38 0,1 0.228464,-0.032571" />
      <line x1="0.228464" y1="-0.032568" x2="0.228464" y2="-0.032571" />
      <path d="M 0.228464,-0.032568 A 0.0021,3.355122000546132e-06 -4.841106953386328e-38 0,1 0.228714,-0.032567" />
      <path d="M 0.228714,-0.032567 A 0.0021,3.355122000546132e-06 -4.841106953386328e-38 0,1 0.226898,-0.032563" />
      <path d="M 0.236864,-0.032624 A 0.003,4.793031429351618e-06 -4.841106953386328e-38 0,1 0.239864,-0.032619" />
      <path d="M 0.239864,-0.032619 A 0.0030000000000000027,4.793031429351622e-06 -4.841106953386328e-38 0,1 0.233864,-0.032619" />
      <path d="M 0.233864,-0.032619 A 0.003,4.793031429351618e-06 -4.841106953386328e-38 0,1 0.236864,-0.032624" />
      <line x1="0.249264" y1="3.1e-05" x2="0.249264" y2="-0.032569" />
      <path d="M 0.249132,-0.032568 A 0.004,6.390708572468823e-06 -180.0 0,0 0.249264,-0.032569" />
      <line x1="0.249132" y1="-0.032568" x2="0.249132" y2="-0.024668" />
      <path d="M 0.249132,-0.024668 A 0.004,6.390708572468823e-06 -4.841106953386328e-38 0,1 0.24683,-0.024663" />
      <line x1="0.24683" y1="-0.032563" x2="0.24683" y2="-0.024663" />
      <path d="M 0.245264,3.7e-05 A 0.004,6.390708572468823e-06 -180.0 0,0 0.246864,3.6e-05" />
      <path d="M 0.228864,-3e-06 A 0.002,3.1953542862344116e-06 5.401692930135933e-38 0,1 0.226864,-6e-06" />
      <line x1="0.226864" y1="-6e-06" x2="0.226864" y2="-3.2e-05" />
      <line x1="0.246864" y1="-6e-06" x2="0.246864" y2="-3.2e-05" />
      <path d="M 0.244864,-3e-06 A 0.002,3.1953542862344116e-06 -180.0 0,0 0.246864,-6e-06" />
      <line x1="0.228864" y1="-3e-06" x2="0.244864" y2="-3e-06" />
      <line x1="0.224464" y1="-0.034666" x2="0.224464" y2="-0.034731" />
      <line x1="0.224464" y1="-0.034666" x2="0.224464" y2="-0.032566" />
      <line x1="0.224464" y1="-0.032566" x2="0.224464" y2="-0.032569" />
      <line x1="0.224464" y1="-0.032566" x2="0.224552" y2="-0.032566" />
      <path d="M 0.224552,-0.032566 A 0.0021,3.355122000546132e-06 -4.841106953386328e-38 0,1 0.224514,-0.032567" />
      <path d="M 0.224514,-0.032567 A 0.0021,3.355122000546132e-06 -4.841106953386328e-38 0,1 0.224596,-0.032568" />
      <line x1="0.225719" y1="-0.03467" x2="0.225719" y2="-0.02467" />
      <path d="M 0.224552,-0.034666 A 0.0021,3.355122000546132e-06 -4.841106953386328e-38 0,1 0.224514,-0.034667" />
      <path d="M 0.224514,-0.034667 A 0.0021,3.355122000546132e-06 -4.841106953386328e-38 0,1 0.225719,-0.03467" />
      <line x1="0.224552" y1="-0.034666" x2="0.224552" y2="-0.032566" />
      <path d="M 0.224596,-0.024668 A 0.0021,3.355122000546132e-06 -4.841106953386328e-38 0,1 0.225719,-0.02467" />
      <path d="M 0.227508,-0.02467 A 0.0021,3.355122000546132e-06 180.0 0,0 0.228714,-0.024673" />
      <path d="M 0.228714,-0.024673 A 0.0021000000000000046,3.3551220005461398e-06 180.0 1,0 0.224514,-0.024673" />
      <path d="M 0.224514,-0.024673 A 0.0021,3.355122000546132e-06 180.0 0,0 0.225719,-0.02467" />
      <path d="M 0.227508,-0.02467 A 0.0021,3.355122000546132e-06 -4.841106953386328e-38 0,1 0.228714,-0.024667" />
      <path d="M 0.228714,-0.024667 A 0.0021,3.355122000546132e-06 -4.841106953386328e-38 0,1 0.226898,-0.024663" />
      <line x1="0.228464" y1="-0.034668" x2="0.228464" y2="-0.032568" />
      <path d="M 0.227508,-0.03467 A 0.0021,3.355122000546132e-06 -4.841106953386328e-38 0,1 0.228464,-0.034668" />
      <line x1="0.227508" y1="-0.03467" x2="0.227508" y2="-0.02467" />
      <line x1="0.246219" y1="-0.03467" x2="0.246219" y2="-0.02467" />
      <path d="M 0.245264,-0.034668 A 0.0021,3.355122000546132e-06 -4.841106953386328e-38 0,1 0.246219,-0.03467" />
      <line x1="0.245264" y1="-0.034668" x2="0.245264" y2="-0.032568" />
      <path d="M 0.24683,-0.024663 A 0.0021,3.355122000546132e-06 -4.841106953386328e-38 0,1 0.245014,-0.024667" />
      <path d="M 0.245014,-0.024667 A 0.0021,3.355122000546132e-06 -4.841106953386328e-38 0,1 0.246219,-0.02467" />
      <line x1="0.245264" y1="-0.034668" x2="0.245264" y2="-0.034671" />
      <line x1="0.245264" y1="-0.034671" x2="0.245264" y2="-0.032571" />
      <path d="M 0.248008,-0.03467 A 0.0021,3.355122000546132e-06 -180.0 0,0 0.249214,-0.034673" />
      <path d="M 0.249214,-0.034673 A 0.0021,3.355122000546132e-06 -180.0 0,0 0.245264,-0.034674" />
      <line x1="0.248008" y1="-0.03467" x2="0.248008" y2="-0.02467" />
      <path d="M 0.246219,-0.02467 A 0.0021,3.3551220005461326e-06 -1.5178898456982524e-18 0,1 0.245014,-0.024673" />
      <path d="M 0.245014,-0.024673 A 0.0021,3.3551220005461326e-06 -1.5178898456982524e-18 0,1 0.249214,-0.024673" />
      <path d="M 0.249214,-0.024673 A 0.0021,3.3551220005461326e-06 -1.5178898456982524e-18 0,1 0.248008,-0.02467" />
      <path d="M 0.246219,-0.03467 A 0.0021,3.355122000546132e-06 -4.841106953386328e-38 0,1 0.245264,-0.034671" />
      <line x1="0.245264" y1="-0.034674" x2="0.245264" y2="-0.032574" />
      <line x1="0.245264" y1="-0.034674" x2="0.245264" y2="-0.034704" />
      <line x1="0.245264" y1="-0.034704" x2="0.245264" y2="-0.032604" />
      <path d="M 0.245264,-0.034708 A 0.0021,3.355122000546132e-06 -4.841106953386328e-38 0,1 0.247114,-0.034709" />
      <line x1="0.245264" y1="-0.034708" x2="0.245264" y2="-0.032608" />
      <path d="M 0.247114,-0.034709 A 0.0021,3.355122000546132e-06 -4.841106953386328e-38 0,1 0.249214,-0.034706" />
      <path d="M 0.249214,-0.034706 A 0.0021,3.355122000546132e-06 -4.841106953386328e-38 0,1 0.245264,-0.034704" />
      <path d="M 0.247114,-0.024709 A 0.0021,3.355122000546132e-06 -4.841106953386328e-38 0,1 0.249214,-0.024706" />
      <path d="M 0.249214,-0.024706 A 0.0021,3.355122000546132e-06 -4.841106953386328e-38 0,1 0.245014,-0.024706" />
      <path d="M 0.245014,-0.024706 A 0.0021,3.355122000546132e-06 -4.841106953386328e-38 0,1 0.247114,-0.024709" />
      <line x1="0.245264" y1="-0.034708" x2="0.245264" y2="-0.034731" />
      <line x1="0.245264" y1="-0.032635" x2="0.245264" y2="-0.032631" />
      <line x1="0.228464" y1="-0.032635" x2="0.228464" y2="-0.032631" />
      <line x1="0.228464" y1="-0.034708" x2="0.228464" y2="-0.034731" />
      <line x1="0.228464" y1="-0.034708" x2="0.228464" y2="-0.032608" />
      <path d="M 0.228464,-0.034704 A 0.0021,3.355122000546132e-06 -4.841106953386328e-38 0,1 0.224514,-0.034706" />
      <path d="M 0.224514,-0.034706 A 0.0021,3.355122000546132e-06 -4.841106953386328e-38 0,1 0.226614,-0.034709" />
      <line x1="0.228464" y1="-0.034704" x2="0.228464" y2="-0.032604" />
      <path d="M 0.226614,-0.034709 A 0.0021,3.355122000546132e-06 -4.841106953386328e-38 0,1 0.228464,-0.034708" />
      <path d="M 0.226614,-0.024709 A 0.0021,3.355122000546132e-06 -4.841106953386328e-38 0,1 0.228714,-0.024706" />
      <path d="M 0.228714,-0.024706 A 0.0021000000000000046,3.3551220005461398e-06 -4.841106953386328e-38 0,1 0.224514,-0.024706" />
      <path d="M 0.224514,-0.024706 A 0.0021,3.355122000546132e-06 -4.841106953386328e-38 0,1 0.226614,-0.024709" />
      <line x1="0.228464" y1="-0.034674" x2="0.228464" y2="-0.034704" />
      <line x1="0.228464" y1="-0.034674" x2="0.228464" y2="-0.032574" />
      <path d="M 0.228464,-0.034674 A 0.0021,3.3551220005461317e-06 -180.0 0,0 0.224514,-0.034673" />
      <path d="M 0.224514,-0.034673 A 0.0021,3.3551220005461317e-06 -180.0 0,0 0.225719,-0.03467" />
      <line x1="0.228464" y1="-0.034671" x2="0.228464" y2="-0.032571" />
      <path d="M 0.228464,-0.034671 A 0.0021,3.355122000546132e-06 -4.841106953386328e-38 0,1 0.227508,-0.03467" />
      <line x1="0.228464" y1="-0.034668" x2="0.228464" y2="-0.034671" />
      <path d="M 0.239864,-0.033919 A 0.0030000000000000027,4.793031429351622e-06 -4.841106953386328e-38 0,1 0.233864,-0.033919" />
      <line x1="0.249264" y1="-0.034666" x2="0.249264" y2="-0.034731" />
      <line x1="0.249264" y1="-0.034666" x2="0.249264" y2="-0.032566" />
      <line x1="0.249264" y1="-0.032566" x2="0.249264" y2="-0.032569" />
      <line x1="0.249175" y1="-0.032566" x2="0.249264" y2="-0.032566" />
      <path d="M 0.249132,-0.032568 A 0.0021,3.355122000546132e-06 -4.841106953386328e-38 0,1 0.249214,-0.032567" />
      <path d="M 0.249214,-0.032567 A 0.0021,3.355122000546132e-06 -4.841106953386328e-38 0,1 0.249175,-0.032566" />
      <path d="M 0.248008,-0.02467 A 0.0021,3.355122000546132e-06 -4.841106953386328e-38 0,1 0.249132,-0.024668" />
      <line x1="0.249175" y1="-0.034666" x2="0.249175" y2="-0.032566" />
      <path d="M 0.248008,-0.03467 A 0.0021,3.355122000546132e-06 -4.841106953386328e-38 0,1 0.249214,-0.034667" />
      <path d="M 0.249214,-0.034667 A 0.0021,3.355122000546132e-06 -4.841106953386328e-38 0,1 0.249175,-0.034666" />
      <line x1="0.226864" y1="-6e-06" x2="0.226864" y2="0.001694" />
      <line x1="0.246864" y1="-6e-06" x2="0.246864" y2="0.001694" />
      <line x1="0.232364" y1="0.001697" x2="0.241364" y2="0.001697" />
      <line x1="0.224464" y1="-0.034666" x2="0.224552" y2="-0.034666" />
      <line x1="0.249175" y1="-0.034666" x2="0.249264" y2="-0.034666" />
      <path d="M 0.241364,0.001681 A 0.004500000000000004,7.189547144027432e-06 -4.841106953386328e-38 0,1 0.232364,0.001681" />
      <line x1="0.224514" y1="-0.034667" x2="0.224514" y2="-0.032567" />
      <line x1="0.228714" y1="-0.032567" x2="0.228714" y2="-0.024667" />
      <line x1="0.245014" y1="-0.032567" x2="0.245014" y2="-0.024667" />
      <line x1="0.249214" y1="-0.034673" x2="0.249214" y2="-0.024673" />
      <line x1="0.245014" y1="-0.032573" x2="0.245014" y2="-0.024673" />
      <line x1="0.249214" y1="-0.034706" x2="0.249214" y2="-0.024706" />
      <line x1="0.245014" y1="-0.032606" x2="0.245014" y2="-0.024706" />
      <line x1="0.228714" y1="-0.032606" x2="0.228714" y2="-0.024706" />
      <line x1="0.224514" y1="-0.034706" x2="0.224514" y2="-0.024706" />
      <line x1="0.228714" y1="-0.032573" x2="0.228714" y2="-0.024673" />
      <line x1="0.224514" y1="-0.034673" x2="0.224514" y2="-0.024673" />
      <line x1="0.239864" y1="-0.032635" x2="0.239864" y2="-0.032619" />
      <line x1="0.233864" y1="-0.032635" x2="0.233864" y2="-0.032619" />
      <line x1="0.249214" y1="-0.034667" x2="0.249214" y2="-0.032567" />
      <line x1="0.228864" y1="-3e-06" x2="0.228864" y2="0.001697" />
      <line x1="0.244864" y1="-3e-06" x2="0.244864" y2="0.001697" />
    </g>
    <g fill="none" stroke="rgb(50,120,190)" stroke-width="0.00035" id="cradle">
      <line x1="0.0" y1="0.0152" x2="0.007526" y2="0.0152" />
      <line x1="0.007526" y1="0.0152" x2="0.007526" y2="-0.0152" />
      <line x1="0.0" y1="-0.0152" x2="0.007526" y2="-0.0152" />
      <line x1="0.0" y1="0.0152" x2="0.0" y2="-0.0152" />
      <line x1="0.056" y1="0.0152" x2="0.063526" y2="0.0152" />
      <line x1="0.063526" y1="0.0152" x2="0.063526" y2="-0.0152" />
      <line x1="0.056" y1="-0.0152" x2="0.063526" y2="-0.0152" />
      <line x1="0.056" y1="-0.005" x2="0.056" y2="-0.0152" />
      <line x1="0.056" y1="-0.005" x2="0.0598" y2="-0.005" />
      <line x1="0.0598" y1="0.005" x2="0.0598" y2="-0.005" />
      <line x1="0.056" y1="0.005" x2="0.0598" y2="0.005" />
      <line x1="0.056" y1="0.0152" x2="0.056" y2="0.005" />
      <circle cx="0.0612" cy="-0.01025" r="0.0021" />
      <circle cx="0.0612" cy="0.01025" r="0.0021" />
      <line x1="0.1092" y1="0.0152" x2="0.116726" y2="0.0152" />
      <line x1="0.116726" y1="0.0152" x2="0.116726" y2="0.0127" />
      <line x1="0.1117" y1="0.0127" x2="0.116726" y2="0.0127" />
      <line x1="0.1117" y1="0.0127" x2="0.1117" y2="-0.0127" />
      <line x1="0.1117" y1="-0.0127" x2="0.116726" y2="-0.0127" />
      <line x1="0.116726" y1="-0.0127" x2="0.116726" y2="-0.0152" />
      <line x1="0.1092" y1="-0.0152" x2="0.116726" y2="-0.0152" />
      <line x1="0.1092" y1="0.0152" x2="0.1092" y2="-0.0152" />
      <line x1="0.1654" y1="-0.038277" x2="0.1654" y2="0.002773" />
      <line x1="0.1654" y1="0.002773" x2="0.165507" y2="0.002827" />
      <line x1="0.1654" y1="-0.038277" x2="0.172926" y2="-0.038277" />
      <line x1="0.172926" y1="-0.038277" x2="0.172926" y2="0.002773" />
      <line x1="0.1654" y1="0.002773" x2="0.172926" y2="0.002773" />
      <line x1="0.165507" y1="0.002827" x2="0.173033" y2="0.002827" />
      <line x1="0.172926" y1="0.002773" x2="0.173033" y2="0.002827" />
      <line x1="0.172926" y1="-0.038277" x2="0.173033" y2="-0.038223" />
      <line x1="0.173033" y1="-0.038223" x2="0.173033" y2="0.002827" />
      <line x1="0.173025" y1="-0.032877" x2="0.172935" y2="-0.032923" />
      <line x1="0.173025" y1="-0.032877" x2="0.173025" y2="0.000323" />
      <line x1="0.173025" y1="0.000323" x2="0.172935" y2="0.000277" />
      <line x1="0.172935" y1="-0.032923" x2="0.172935" y2="0.000277" />
      <line x1="0.172935" y1="-0.032877" x2="0.173025" y2="-0.032877" />
      <line x1="0.221664" y1="0.002805" x2="0.252064" y2="0.002805" />
      <line x1="0.221664" y1="-0.038259" x2="0.221664" y2="0.002791" />
      <line x1="0.221664" y1="0.002805" x2="0.221664" y2="0.002791" />
      <line x1="0.252064" y1="0.002805" x2="0.252064" y2="0.002791" />
      <line x1="0.221664" y1="0.002791" x2="0.252064" y2="0.002791" />
      <line x1="0.221664" y1="-0.038259" x2="0.252064" y2="-0.038259" />
      <line x1="0.252064" y1="-0.038259" x2="0.252064" y2="0.002791" />
      <line x1="0.241864" y1="-0.032902" x2="0.241864" y2="-0.0329" />
      <line x1="0.241864" y1="-0.0329" x2="0.241864" y2="-0.0296" />
      <line x1="0.241864" y1="-0.0296" x2="0.231864" y2="-0.0296" />
      <line x1="0.231864" y1="-0.032902" x2="0.231864" y2="-0.0329" />
      <line x1="0.231864" y1="-0.0329" x2="0.231864" y2="-0.0296" />
      <line x1="0.249564" y1="-0.032909" x2="0.224164" y2="-0.032909" />
      <line x1="0.249564" y1="-0.032909" x2="0.249564" y2="0.000291" />
      <line x1="0.249564" y1="0.000291" x2="0.224164" y2="0.000291" />
      <line x1="0.224164" y1="-0.032909" x2="0.224164" y2="0.000291" />
      <path d="M 0.226614,-0.032908 A 0.0021,3.734438453098749e-06 4.3440894057812317e-38 0,1 0.228714,-0.032904" />
      <path d="M 0.228714,-0.032904 A 0.0021000000000000046,3.7344384530987575e-06 4.3440894057812317e-38 0,1 0.224514,-0.032904" />
      <path d="M 0.224514,-0.032904 A 0.0021,3.734438453098749e-06 4.3440894057812317e-38 0,1 0.226614,-0.032908" />
      <path d="M 0.247114,-0.032908 A 0.0021,3.734438453098749e-06 4.3440894057812317e-38 0,1 0.249214,-0.032904" />
      <path d="M 0.249214,-0.032904 A 0.0021,3.734438453098749e-06 4.3440894057812317e-38 0,1 0.245014,-0.032904" />
      <path d="M 0.245014,-0.032904 A 0.0021,3.734438453098749e-06 4.3440894057812317e-38 0,1 0.247114,-0.032908" />
      <line x1="0.231864" y1="-0.032902" x2="0.241864" y2="-0.032902" />
      <line x1="0.224164" y1="-0.0329" x2="0.231864" y2="-0.0329" />
      <line x1="0.241864" y1="-0.0329" x2="0.249564" y2="-0.0329" />
      <line x1="0.249564" y1="-0.0329" x2="0.249564" y2="0.000291" />
      <line x1="0.224164" y1="-0.0329" x2="0.224164" y2="0.000291" />
    </g>
    <g fill="url(#hatch_cradle)" stroke="none" stroke-width="0" id="cradle_fill">
      <path d="M 0.007526,0.0152 L 0.0,0.0152 L 0.0,-0.0152 L 0.007526,-0.0152 L 0.007526,0.0152" />
      <path d="M 0.063526,0.0152 L 0.056,0.0152 L 0.056,0.005 L 0.0598,0.005 L 0.0598,-0.005 L 0.056,-0.005 L 0.056,-0.0152 L 0.063526,-0.0152 L 0.063526,0.0152 M 0.0633,-0.01025 A 0.0021,0.0021 0.0 0,0 0.0591,-0.01025 A 0.0021,0.0021 0.0 0,0 0.0633,-0.01025 M 0.0633,0.01025 A 0.0021,0.0021 0.0 0,0 0.0591,0.01025 A 0.0021,0.0021 0.0 0,0 0.0633,0.01025" />
      <path d="M 0.116726,0.0152 L 0.1092,0.0152 L 0.1092,-0.0152 L 0.116726,-0.0152 L 0.116726,-0.0127 L 0.1117,-0.0127 L 0.1117,0.0127 L 0.116726,0.0127 L 0.116726,0.0152" />
    </g>
    <g fill="none" stroke="rgb(50,120,190)" stroke-opacity="0.4" stroke-width="0.00015" id="cradle_hidden" stroke-dasharray="0.0018 0.00045">
      <line x1="0.1654" y1="-0.038277" x2="0.165507" y2="-0.038223" />
      <line x1="0.165507" y1="-0.038223" x2="0.165507" y2="0.002827" />
      <line x1="0.165471" y1="-0.035591" x2="0.165436" y2="-0.035609" />
      <line x1="0.165471" y1="-0.035591" x2="0.165471" y2="-0.029591" />
      <line x1="0.165471" y1="-0.029591" x2="0.165436" y2="-0.029609" />
      <line x1="0.165436" y1="-0.035609" x2="0.165436" y2="-0.029609" />
      <line x1="0.165507" y1="-0.038223" x2="0.173033" y2="-0.038223" />
      <path d="M 0.172717,-0.038268 A 0.0021000000000000046,3.7475967180603715e-06 4.9717433012602716e-20 0,1 0.168517,-0.038268" />
      <path d="M 0.168517,-0.038268 A 0.0021000000000000046,3.7475967180603715e-06 4.9717433012602716e-20 0,1 0.172717,-0.038268" />
      <path d="M 0.17279,-0.038232 A 0.0021000000000000046,3.7475967180603715e-06 4.9717433012602716e-20 0,1 0.16859,-0.038232" />
      <path d="M 0.16859,-0.038232 A 0.0021000000000000046,3.7475967180603715e-06 4.9717433012602716e-20 0,1 0.17279,-0.038232" />
      <line x1="0.165471" y1="-0.035591" x2="0.169271" y2="-0.035591" />
      <line x1="0.169236" y1="-0.035609" x2="0.169271" y2="-0.035591" />
      <line x1="0.165436" y1="-0.035609" x2="0.169236" y2="-0.035609" />
      <line x1="0.169271" y1="-0.035591" x2="0.169271" y2="-0.032891" />
      <line x1="0.169271" y1="-0.032891" x2="0.167971" y2="-0.032891" />
      <line x1="0.167971" y1="-0.032891" x2="0.167971" y2="-0.029591" />
      <line x1="0.165471" y1="-0.029591" x2="0.167971" y2="-0.029591" />
      <line x1="0.167971" y1="-0.029591" x2="0.167936" y2="-0.029609" />
      <line x1="0.165436" y1="-0.029609" x2="0.167936" y2="-0.029609" />
      <line x1="0.169236" y1="-0.035609" x2="0.169236" y2="-0.032909" />
      <line x1="0.169236" y1="-0.032909" x2="0.167936" y2="-0.032909" />
      <line x1="0.167936" y1="-0.032909" x2="0.167936" y2="-0.029609" />
      <path d="M 0.172717,-0.032918 A 0.0021000000000000046,3.7475967180603715e-06 4.9717433012602716e-20 0,1 0.168517,-0.032918" />
      <path d="M 0.168517,-0.032918 A 0.0021000000000000046,3.7475967180603715e-06 4.9717433012602716e-20 0,1 0.172717,-0.032918" />
      <path d="M 0.17279,-0.032882 A 0.0021000000000000046,3.7475967180603715e-06 4.9717433012602716e-20 0,1 0.16859,-0.032882" />
      <path d="M 0.16859,-0.032882 A 0.0021000000000000046,3.7475967180603715e-06 4.9717433012602716e-20 0,1 0.17279,-0.032882" />
      <line x1="0.169236" y1="-0.032909" x2="0.169271" y2="-0.032891" />
      <line x1="0.167998" y1="-0.032877" x2="0.172935" y2="-0.032877" />
      <line x1="0.167909" y1="-0.032923" x2="0.172935" y2="-0.032923" />
      <line x1="0.167909" y1="-0.032923" x2="0.167936" y2="-0.032909" />
      <line x1="0.167971" y1="-0.032891" x2="0.167998" y2="-0.032877" />
      <line x1="0.167909" y1="0.000277" x2="0.167998" y2="0.000323" />
      <line x1="0.167998" y1="-0.032877" x2="0.167998" y2="0.000323" />
      <line x1="0.167909" y1="-0.032923" x2="0.167909" y2="0.000277" />
      <line x1="0.167998" y1="0.000323" x2="0.173025" y2="0.000323" />
      <line x1="0.167909" y1="0.000277" x2="0.172935" y2="0.000277" />
      <line x1="0.172717" y1="-0.038268" x2="0.172717" y2="-0.032918" />
      <line x1="0.168517" y1="-0.038268" x2="0.168517" y2="-0.032918" />
      <line x1="0.17279" y1="-0.038232" x2="0.17279" y2="-0.032882" />
      <line x1="0.16859" y1="-0.038232" x2="0.16859" y2="-0.032882" />
      <line x1="0.221664" y1="-0.038245" x2="0.221664" y2="0.002805" />
      <line x1="0.221664" y1="-0.038245" x2="0.252064" y2="-0.038245" />
      <line x1="0.252064" y1="-0.038245" x2="0.252064" y2="0.002805" />
      <line x1="0.241864" y1="-0.035595" x2="0.231864" y2="-0.035595" />
      <line x1="0.241864" y1="-0.035595" x2="0.241864" y2="-0.029595" />
      <line x1="0.241864" y1="-0.029595" x2="0.231864" y2="-0.029595" />
      <line x1="0.231864" y1="-0.035595" x2="0.231864" y2="-0.029595" />
      <line x1="0.221664" y1="-0.038245" x2="0.221664" y2="-0.038259" />
      <line x1="0.252064" y1="-0.038245" x2="0.252064" y2="-0.038259" />
      <path d="M 0.226614,-0.038258 A 0.0021,3.734438453098749e-06 4.3440894057812317e-38 0,1 0.228714,-0.038254" />
      <path d="M 0.228714,-0.038254 A 0.0021000000000000046,3.7344384530987575e-06 4.3440894057812317e-38 0,1 0.224514,-0.038254" />
      <path d="M 0.224514,-0.038254 A 0.0021,3.734438453098749e-06 4.3440894057812317e-38 0,1 0.226614,-0.038258" />
      <path d="M 0.247114,-0.038258 A 0.0021,3.734438453098749e-06 4.3440894057812317e-38 0,1 0.249214,-0.038254" />
      <path d="M 0.249214,-0.038254 A 0.0021,3.734438453098749e-06 4.3440894057812317e-38 0,1 0.245014,-0.038254" />
      <path d="M 0.245014,-0.038254 A 0.0021,3.734438453098749e-06 4.3440894057812317e-38 0,1 0.247114,-0.038258" />
      <line x1="0.241864" y1="-0.035595" x2="0.241864" y2="-0.035602" />
      <line x1="0.231864" y1="-0.035602" x2="0.241864" y2="-0.035602" />
      <line x1="0.231864" y1="-0.035595" x2="0.231864" y2="-0.035602" />
      <line x1="0.241864" y1="-0.035602" x2="0.241864" y2="-0.032902" />
      <line x1="0.241864" y1="-0.029595" x2="0.241864" y2="-0.0296" />
      <line x1="0.231864" y1="-0.029595" x2="0.231864" y2="-0.0296" />
      <line x1="0.231864" y1="-0.035602" x2="0.231864" y2="-0.032902" />
      <line x1="0.249564" y1="-0.0329" x2="0.249564" y2="-0.032909" />
      <line x1="0.224164" y1="-0.0329" x2="0.224164" y2="-0.032909" />
      <line x1="0.224164" y1="0.0003" x2="0.249564" y2="0.0003" />
      <line x1="0.249564" y1="0.000291" x2="0.249564" y2="0.0003" />
      <line x1="0.224164" y1="0.000291" x2="0.224164" y2="0.0003" />
      <line x1="0.249564" y1="0.0003" x2="0.249564" y2="0.000291" />
      <line x1="0.224164" y1="0.0003" x2="0.224164" y2="0.000291" />
      <line x1="0.228714" y1="-0.038254" x2="0.228714" y2="-0.032904" />
      <line x1="0.224514" y1="-0.038254" x2="0.224514" y2="-0.032904" />
      <line x1="0.249214" y1="-0.038254" x2="0.249214" y2="-0.032904" />
      <line x1="0.245014" y1="-0.038254" x2="0.245014" y2="-0.032904" />
    </g>
  </g>
  <text x="0.024000" y="-0.020875" text-anchor="middle" font-family="'Input Sans Narrow', 'DejaVu Sans', Arial, sans-serif" font-size="0.002500" font-weight="bold" fill="#333">A-A</text>
  <text x="0.024000" y="-0.017375" text-anchor="middle" font-family="'Input Sans Narrow', 'DejaVu Sans', Arial, sans-serif" font-size="0.001800" fill="#888">front_horn</text>
  <line x1="0.000000" y1="0.016000" x2="0.000000" y2="0.019000" stroke="#555" stroke-width="0.000140" stroke-opacity="0.5"/>
  <line x1="0.048000" y1="0.016000" x2="0.048000" y2="0.019000" stroke="#555" stroke-width="0.000140" stroke-opacity="0.5"/>
  <line x1="0.000000" y1="0.017400" x2="0.000000" y2="0.019000" stroke="#555" stroke-width="0.000200"/>
  <line x1="0.048000" y1="0.017400" x2="0.048000" y2="0.019000" stroke="#555" stroke-width="0.000200"/>
  <line x1="0.000000" y1="0.018200" x2="0.048000" y2="0.018200" stroke="#555" stroke-width="0.000200"/>
  <polygon points="0.000000,0.018200 0.001500,0.017600 0.001500,0.018800" fill="#555"/>
  <polygon points="0.048000,0.018200 0.046500,0.017600 0.046500,0.018800" fill="#555"/>
  <text x="0.024000" y="0.017000" text-anchor="middle" font-family="'Input Sans Narrow', 'DejaVu Sans', Arial, sans-serif" font-size="0.001600" fill="#555">48.0</text>
  <line x1="0.048800" y1="-0.015200" x2="0.051800" y2="-0.015200" stroke="#555" stroke-width="0.000140" stroke-opacity="0.5"/>
  <line x1="0.048800" y1="0.015200" x2="0.051800" y2="0.015200" stroke="#555" stroke-width="0.000140" stroke-opacity="0.5"/>
  <line x1="0.050200" y1="-0.015200" x2="0.051800" y2="-0.015200" stroke="#555" stroke-width="0.000200"/>
  <line x1="0.050200" y1="0.015200" x2="0.051800" y2="0.015200" stroke="#555" stroke-width="0.000200"/>
  <line x1="0.051000" y1="-0.015200" x2="0.051000" y2="0.015200" stroke="#555" stroke-width="0.000200"/>
  <polygon points="0.051000,-0.015200 0.050400,-0.013700 0.051600,-0.013700" fill="#555"/>
  <polygon points="0.051000,0.015200 0.050400,0.013700 0.051600,0.013700" fill="#555"/>
  <text x="0.052500" y="-0.000000" text-anchor="middle" dominant-baseline="central" font-family="'Input Sans Narrow', 'DejaVu Sans', Arial, sans-serif" font-size="0.001600" fill="#555" transform="rotate(-90 0.052500 -0.000000)">30.4</text>
  <text x="0.078600" y="-0.020875" text-anchor="middle" font-family="'Input Sans Narrow', 'DejaVu Sans', Arial, sans-serif" font-size="0.002500" font-weight="bold" fill="#333">B-B</text>
  <text x="0.078600" y="-0.017375" text-anchor="middle" font-family="'Input Sans Narrow', 'DejaVu Sans', Arial, sans-serif" font-size="0.001800" fill="#888">rear_horn</text>
  <line x1="0.056000" y1="0.016000" x2="0.056000" y2="0.019000" stroke="#555" stroke-width="0.000140" stroke-opacity="0.5"/>
  <line x1="0.101200" y1="0.016000" x2="0.101200" y2="0.019000" stroke="#555" stroke-width="0.000140" stroke-opacity="0.5"/>
  <line x1="0.056000" y1="0.017400" x2="0.056000" y2="0.019000" stroke="#555" stroke-width="0.000200"/>
  <line x1="0.101200" y1="0.017400" x2="0.101200" y2="0.019000" stroke="#555" stroke-width="0.000200"/>
  <line x1="0.056000" y1="0.018200" x2="0.101200" y2="0.018200" stroke="#555" stroke-width="0.000200"/>
  <polygon points="0.056000,0.018200 0.057500,0.017600 0.057500,0.018800" fill="#555"/>
  <polygon points="0.101200,0.018200 0.099700,0.017600 0.099700,0.018800" fill="#555"/>
  <text x="0.078600" y="0.017000" text-anchor="middle" font-family="'Input Sans Narrow', 'DejaVu Sans', Arial, sans-serif" font-size="0.001600" fill="#555">45.2</text>
  <line x1="0.102000" y1="-0.015200" x2="0.105000" y2="-0.015200" stroke="#555" stroke-width="0.000140" stroke-opacity="0.5"/>
  <line x1="0.102000" y1="0.015200" x2="0.105000" y2="0.015200" stroke="#555" stroke-width="0.000140" stroke-opacity="0.5"/>
  <line x1="0.103400" y1="-0.015200" x2="0.105000" y2="-0.015200" stroke="#555" stroke-width="0.000200"/>
  <line x1="0.103400" y1="0.015200" x2="0.105000" y2="0.015200" stroke="#555" stroke-width="0.000200"/>
  <line x1="0.104200" y1="-0.015200" x2="0.104200" y2="0.015200" stroke="#555" stroke-width="0.000200"/>
  <polygon points="0.104200,-0.015200 0.103600,-0.013700 0.104800,-0.013700" fill="#555"/>
  <polygon points="0.104200,0.015200 0.103600,0.013700 0.104800,0.013700" fill="#555"/>
  <text x="0.105700" y="-0.000000" text-anchor="middle" dominant-baseline="central" font-family="'Input Sans Narrow', 'DejaVu Sans', Arial, sans-serif" font-size="0.001600" fill="#555" transform="rotate(-90 0.105700 -0.000000)">30.4</text>
  <text x="0.133300" y="-0.020875" text-anchor="middle" font-family="'Input Sans Narrow', 'DejaVu Sans', Arial, sans-serif" font-size="0.002500" font-weight="bold" fill="#333">C-C</text>
  <text x="0.133300" y="-0.017375" text-anchor="middle" font-family="'Input Sans Narrow', 'DejaVu Sans', Arial, sans-serif" font-size="0.001800" fill="#888">mid_body</text>
  <line x1="0.109200" y1="0.016000" x2="0.109200" y2="0.019000" stroke="#555" stroke-width="0.000140" stroke-opacity="0.5"/>
  <line x1="0.157400" y1="0.016000" x2="0.157400" y2="0.019000" stroke="#555" stroke-width="0.000140" stroke-opacity="0.5"/>
  <line x1="0.109200" y1="0.017400" x2="0.109200" y2="0.019000" stroke="#555" stroke-width="0.000200"/>
  <line x1="0.157400" y1="0.017400" x2="0.157400" y2="0.019000" stroke="#555" stroke-width="0.000200"/>
  <line x1="0.109200" y1="0.018200" x2="0.157400" y2="0.018200" stroke="#555" stroke-width="0.000200"/>
  <polygon points="0.109200,0.018200 0.110700,0.017600 0.110700,0.018800" fill="#555"/>
  <polygon points="0.157400,0.018200 0.155900,0.017600 0.155900,0.018800" fill="#555"/>
  <text x="0.133300" y="0.017000" text-anchor="middle" font-family="'Input Sans Narrow', 'DejaVu Sans', Arial, sans-serif" font-size="0.001600" fill="#555">48.2</text>
  <line x1="0.158200" y1="-0.015200" x2="0.161200" y2="-0.015200" stroke="#555" stroke-width="0.000140" stroke-opacity="0.5"/>
  <line x1="0.158200" y1="0.015200" x2="0.161200" y2="0.015200" stroke="#555" stroke-width="0.000140" stroke-opacity="0.5"/>
  <line x1="0.159600" y1="-0.015200" x2="0.161200" y2="-0.015200" stroke="#555" stroke-width="0.000200"/>
  <line x1="0.159600" y1="0.015200" x2="0.161200" y2="0.015200" stroke="#555" stroke-width="0.000200"/>
  <line x1="0.160400" y1="-0.015200" x2="0.160400" y2="0.015200" stroke="#555" stroke-width="0.000200"/>
  <polygon points="0.160400,-0.015200 0.159800,-0.013700 0.161000,-0.013700" fill="#555"/>
  <polygon points="0.160400,0.015200 0.159800,0.013700 0.161000,0.013700" fill="#555"/>
  <text x="0.161900" y="-0.000000" text-anchor="middle" dominant-baseline="central" font-family="'Input Sans Narrow', 'DejaVu Sans', Arial, sans-serif" font-size="0.001600" fill="#555" transform="rotate(-90 0.161900 -0.000000)">30.4</text>
  <text x="0.189532" y="-0.020875" text-anchor="middle" font-family="'Input Sans Narrow', 'DejaVu Sans', Arial, sans-serif" font-size="0.002500" font-weight="bold" fill="#333">side_XZ</text>
  <line x1="0.165400" y1="0.039077" x2="0.165400" y2="0.042077" stroke="#555" stroke-width="0.000140" stroke-opacity="0.5"/>
  <line x1="0.213664" y1="0.039077" x2="0.213664" y2="0.042077" stroke="#555" stroke-width="0.000140" stroke-opacity="0.5"/>
  <line x1="0.165400" y1="0.040477" x2="0.165400" y2="0.042077" stroke="#555" stroke-width="0.000200"/>
  <line x1="0.213664" y1="0.040477" x2="0.213664" y2="0.042077" stroke="#555" stroke-width="0.000200"/>
  <line x1="0.165400" y1="0.041277" x2="0.213664" y2="0.041277" stroke="#555" stroke-width="0.000200"/>
  <polygon points="0.165400,0.041277 0.166900,0.040677 0.166900,0.041877" fill="#555"/>
  <polygon points="0.213664,0.041277 0.212164,0.040677 0.212164,0.041877" fill="#555"/>
  <text x="0.189532" y="0.040077" text-anchor="middle" font-family="'Input Sans Narrow', 'DejaVu Sans', Arial, sans-serif" font-size="0.001600" fill="#555">48.3</text>
  <line x1="0.214464" y1="-0.003207" x2="0.217464" y2="-0.003207" stroke="#555" stroke-width="0.000140" stroke-opacity="0.5"/>
  <line x1="0.214464" y1="0.038277" x2="0.217464" y2="0.038277" stroke="#555" stroke-width="0.000140" stroke-opacity="0.5"/>
  <line x1="0.215864" y1="-0.003207" x2="0.217464" y2="-0.003207" stroke="#555" stroke-width="0.000200"/>
  <line x1="0.215864" y1="0.038277" x2="0.217464" y2="0.038277" stroke="#555" stroke-width="0.000200"/>
  <line x1="0.216664" y1="-0.003207" x2="0.216664" y2="0.038277" stroke="#555" stroke-width="0.000200"/>
  <polygon points="0.216664,-0.003207 0.216064,-0.001707 0.217264,-0.001707" fill="#555"/>
  <polygon points="0.216664,0.038277 0.216064,0.036777 0.217264,0.036777" fill="#555"/>
  <text x="0.218164" y="0.017535" text-anchor="middle" dominant-baseline="central" font-family="'Input Sans Narrow', 'DejaVu Sans', Arial, sans-serif" font-size="0.001600" fill="#555" transform="rotate(-90 0.218164 0.017535)">41.5</text>
  <line x1="0.162400" y1="-0.001700" x2="0.216664" y2="-0.001700" stroke="#555" stroke-width="0.000250" stroke-dasharray="0.002500,0.000800,0.000500,0.000800"/>
  <text x="0.160900" y="-0.001100" text-anchor="end" font-family="'Input Sans Narrow', 'DejaVu Sans', Arial, sans-serif" font-size="0.002000" font-weight="bold" fill="#555">A</text>
  <text x="0.218164" y="-0.001100" text-anchor="start" font-family="'Input Sans Narrow', 'DejaVu Sans', Arial, sans-serif" font-size="0.002000" font-weight="bold" fill="#555">A</text>
  <line x1="0.162400" y1="0.033900" x2="0.216664" y2="0.033900" stroke="#555" stroke-width="0.000250" stroke-dasharray="0.002500,0.000800,0.000500,0.000800"/>
  <text x="0.160900" y="0.034500" text-anchor="end" font-family="'Input Sans Narrow', 'DejaVu Sans', Arial, sans-serif" font-size="0.002000" font-weight="bold" fill="#555">B</text>
  <text x="0.218164" y="0.034500" text-anchor="start" font-family="'Input Sans Narrow', 'DejaVu Sans', Arial, sans-serif" font-size="0.002000" font-weight="bold" fill="#555">B</text>
  <line x1="0.162400" y1="0.016100" x2="0.216664" y2="0.016100" stroke="#555" stroke-width="0.000250" stroke-dasharray="0.002500,0.000800,0.000500,0.000800"/>
  <text x="0.160900" y="0.016700" text-anchor="end" font-family="'Input Sans Narrow', 'DejaVu Sans', Arial, sans-serif" font-size="0.002000" font-weight="bold" fill="#555">C</text>
  <text x="0.218164" y="0.016700" text-anchor="start" font-family="'Input Sans Narrow', 'DejaVu Sans', Arial, sans-serif" font-size="0.002000" font-weight="bold" fill="#555">C</text>
  <text x="0.236864" y="-0.020875" text-anchor="middle" font-family="'Input Sans Narrow', 'DejaVu Sans', Arial, sans-serif" font-size="0.002500" font-weight="bold" fill="#333">side_YZ</text>
  <line x1="0.221664" y1="0.039059" x2="0.221664" y2="0.042059" stroke="#555" stroke-width="0.000140" stroke-opacity="0.5"/>
  <line x1="0.252064" y1="0.039059" x2="0.252064" y2="0.042059" stroke="#555" stroke-width="0.000140" stroke-opacity="0.5"/>
  <line x1="0.221664" y1="0.040459" x2="0.221664" y2="0.042059" stroke="#555" stroke-width="0.000200"/>
  <line x1="0.252064" y1="0.040459" x2="0.252064" y2="0.042059" stroke="#555" stroke-width="0.000200"/>
  <line x1="0.221664" y1="0.041259" x2="0.252064" y2="0.041259" stroke="#555" stroke-width="0.000200"/>
  <polygon points="0.221664,0.041259 0.223164,0.040659 0.223164,0.041859" fill="#555"/>
  <polygon points="0.252064,0.041259 0.250564,0.040659 0.250564,0.041859" fill="#555"/>
  <text x="0.236864" y="0.040059" text-anchor="middle" font-family="'Input Sans Narrow', 'DejaVu Sans', Arial, sans-serif" font-size="0.001600" fill="#555">30.4</text>
  <line x1="0.252864" y1="-0.003188" x2="0.255864" y2="-0.003188" stroke="#555" stroke-width="0.000140" stroke-opacity="0.5"/>
  <line x1="0.252864" y1="0.038259" x2="0.255864" y2="0.038259" stroke="#555" stroke-width="0.000140" stroke-opacity="0.5"/>
  <line x1="0.254264" y1="-0.003188" x2="0.255864" y2="-0.003188" stroke="#555" stroke-width="0.000200"/>
  <line x1="0.254264" y1="0.038259" x2="0.255864" y2="0.038259" stroke="#555" stroke-width="0.000200"/>
  <line x1="0.255064" y1="-0.003188" x2="0.255064" y2="0.038259" stroke="#555" stroke-width="0.000200"/>
  <polygon points="0.255064,-0.003188 0.254464,-0.001688 0.255664,-0.001688" fill="#555"/>
  <polygon points="0.255064,0.038259 0.254464,0.036759 0.255664,0.036759" fill="#555"/>
  <text x="0.256564" y="0.017535" text-anchor="middle" dominant-baseline="central" font-family="'Input Sans Narrow', 'DejaVu Sans', Arial, sans-serif" font-size="0.001600" fill="#555" transform="rotate(-90 0.256564 0.017535)">41.4</text>
  <line x1="0.218664" y1="-0.001700" x2="0.255064" y2="-0.001700" stroke="#555" stroke-width="0.000250" stroke-dasharray="0.002500,0.000800,0.000500,0.000800"/>
  <text x="0.217164" y="-0.001100" text-anchor="end" font-family="'Input Sans Narrow', 'DejaVu Sans', Arial, sans-serif" font-size="0.002000" font-weight="bold" fill="#555">A</text>
  <text x="0.256564" y="-0.001100" text-anchor="start" font-family="'Input Sans Narrow', 'DejaVu Sans', Arial, sans-serif" font-size="0.002000" font-weight="bold" fill="#555">A</text>
  <line x1="0.218664" y1="0.033900" x2="0.255064" y2="0.033900" stroke="#555" stroke-width="0.000250" stroke-dasharray="0.002500,0.000800,0.000500,0.000800"/>
  <text x="0.217164" y="0.034500" text-anchor="end" font-family="'Input Sans Narrow', 'DejaVu Sans', Arial, sans-serif" font-size="0.002000" font-weight="bold" fill="#555">B</text>
  <text x="0.256564" y="0.034500" text-anchor="start" font-family="'Input Sans Narrow', 'DejaVu Sans', Arial, sans-serif" font-size="0.002000" font-weight="bold" fill="#555">B</text>
  <line x1="0.218664" y1="0.016100" x2="0.255064" y2="0.016100" stroke="#555" stroke-width="0.000250" stroke-dasharray="0.002500,0.000800,0.000500,0.000800"/>
  <text x="0.217164" y="0.016700" text-anchor="end" font-family="'Input Sans Narrow', 'DejaVu Sans', Arial, sans-serif" font-size="0.002000" font-weight="bold" fill="#555">C</text>
  <text x="0.256564" y="0.016700" text-anchor="start" font-family="'Input Sans Narrow', 'DejaVu Sans', Arial, sans-serif" font-size="0.002000" font-weight="bold" fill="#555">C</text>
  <text x="-0.001175" y="0.046452" font-family="'Input Sans Narrow', 'DejaVu Sans', Arial, sans-serif" font-size="0.003500" font-weight="bold" fill="#222">cradle</text>
  <line x1="-0.001175" y1="0.050452" x2="0.008825" y2="0.050452" stroke="#333" stroke-width="0.000350"/>
  <line x1="-0.001175" y1="0.049452" x2="-0.001175" y2="0.051452" stroke="#333" stroke-width="0.000250"/>
  <line x1="0.008825" y1="0.049452" x2="0.008825" y2="0.051452" stroke="#333" stroke-width="0.000250"/>
  <text x="0.010325" y="0.051152" font-family="'Input Sans Narrow', 'DejaVu Sans', Arial, sans-serif" font-size="0.001800" fill="#888">10 mm</text>
  <rect x="0.028825" y="0.043952" width="0.004000" height="0.002500" fill="url(#hatch_servo)" stroke="rgb(60,60,60)" stroke-width="0.000300"/>
  <text x="0.034325" y="0.045952" font-family="'Input Sans Narrow', 'DejaVu Sans', Arial, sans-serif" font-size="0.001800" fill="rgb(60,60,60)">servo</text>
  <rect x="0.028825" y="0.047452" width="0.004000" height="0.002500" fill="url(#hatch_cradle)" stroke="rgb(50,120,190)" stroke-width="0.000300"/>
  <text x="0.034325" y="0.049452" font-family="'Input Sans Narrow', 'DejaVu Sans', Arial, sans-serif" font-size="0.001800" fill="rgb(50,120,190)">cradle</text>
</svg>