<?xml version='1.0' encoding='utf-8'?>
<svg width="295.06mm" height="87.03mm" viewBox="-0.003175 -0.024840 0.295064 0.087030" version="1.1" xmlns="http://www.w3.org/2000/svg">
  <defs>
    <pattern id="hatch_cradle" width="0.0012" height="0.0012" patternUnits="userSpaceOnUse" patternTransform="rotate(45)">
      <line x1="0" y1="0" x2="0" y2="0.0012" stroke="rgb(50,120,190)" stroke-width="0.0001" stroke-opacity="0.6"/>
    </pattern>
    <pattern id="hatch_servo" width="0.0012" height="0.0012" patternUnits="userSpaceOnUse" patternTransform="rotate(75)">
      <line x1="0" y1="0" x2="0" y2="0.0012" stroke="rgb(60,60,60)" stroke-width="0.0001" stroke-opacity="0.6"/>
    </pattern>
    <pattern id="hatch_coupler" width="0.0012" height="0.0012" patternUnits="userSpaceOnUse" patternTransform="rotate(105)">
      <line x1="0" y1="0" x2="0" y2="0.0012" stroke="rgb(220,60,40)" stroke-width="0.0001" stroke-opacity="0.6"/>
    </pattern>
  </defs>
  <g transform="scale(1,-1)" stroke-linecap="round">
    <g fill="none" stroke="rgb(50,120,190)" stroke-width="0.00035" id="cradle">
      <line x1="0.141107" y1="0.015665" x2="0.149939" y2="0.015665" />
      <line x1="0.149939" y1="0.015665" x2="0.149939" y2="0.012665" />
      <line x1="0.144107" y1="0.012665" x2="0.149939" y2="0.012665" />
      <line x1="0.144107" y1="0.012665" x2="0.144107" y2="0.00755" />
      <line x1="0.141107" y1="0.00755" x2="0.144107" y2="0.00755" />
      <line x1="0.141107" y1="0.015665" x2="0.141107" y2="0.00755" />
      <line x1="0.141107" y1="-0.00755" x2="0.144107" y2="-0.00755" />
      <line x1="0.144107" y1="-0.00755" x2="0.144107" y2="-0.012665" />
      <line x1="0.144107" y1="-0.012665" x2="0.149939" y2="-0.012665" />
      <line x1="0.149939" y1="-0.012665" x2="0.149939" y2="-0.015665" />
      <line x1="0.141107" y1="-0.015665" x2="0.149939" y2="-0.015665" />
      <line x1="0.141107" y1="-0.00755" x2="0.141107" y2="-0.015665" />
      <line x1="0.214875" y1="-0.028052" x2="0.214904" y2="-0.028025" />
      <line x1="0.214957" y1="-0.028025" x2="0.214957" y2="-0.027975" />
      <line x1="0.214957" y1="-0.027975" x2="0.214986" y2="-0.027948" />
      <line x1="0.214875" y1="-0.038152" x2="0.214875" y2="-0.028052" />
      <line x1="0.217904" y1="-0.028025" x2="0.214904" y2="-0.028025" />
      <line x1="0.217886" y1="-0.028042" x2="0.217904" y2="-0.028025" />
      <line x1="0.223718" y1="-0.028042" x2="0.217886" y2="-0.028042" />
      <line x1="0.223707" y1="-0.028052" x2="0.223718" y2="-0.028042" />
      <line x1="0.214875" y1="-0.028052" x2="0.223707" y2="-0.028052" />
      <line x1="0.217904" y1="-0.028042" x2="0.217904" y2="-0.028025" />
      <line x1="0.217957" y1="-0.028042" x2="0.217957" y2="-0.027975" />
      <line x1="0.217957" y1="-0.027975" x2="0.214957" y2="-0.027975" />
      <line x1="0.223807" y1="-0.027958" x2="0.223817" y2="-0.027948" />
      <line x1="0.223807" y1="-0.027958" x2="0.217975" y2="-0.027958" />
      <line x1="0.217957" y1="-0.027975" x2="0.217975" y2="-0.027958" />
      <line x1="0.214986" y1="-0.027948" x2="0.223817" y2="-0.027948" />
      <line x1="0.223817" y1="-0.038048" x2="0.223817" y2="-0.027948" />
      <path d="M 0.223809,-0.038056 A 0.00295,9.854214615771964e-06 4.3498286580142875e-20 0,1 0.223716,-0.038056" />
      <line x1="0.223707" y1="-0.038152" x2="0.223716" y2="-0.038144" />
      <line x1="0.214875" y1="-0.038152" x2="0.223707" y2="-0.038152" />
      <line x1="0.223809" y1="-0.038056" x2="0.223817" y2="-0.038048" />
      <line x1="0.223707" y1="-0.038152" x2="0.223707" y2="-0.028052" />
      <line x1="0.217975" y1="-0.028042" x2="0.217975" y2="-0.027958" />
      <line x1="0.223718" y1="-0.035642" x2="0.223718" y2="-0.028042" />
      <line x1="0.223716" y1="-0.038144" x2="0.223716" y2="-0.035644" />
      <line x1="0.223809" y1="-0.038056" x2="0.223809" y2="-0.035556" />
      <line x1="0.223807" y1="-0.035558" x2="0.223807" y2="-0.027958" />
      <line x1="0.223718" y1="-0.035558" x2="0.223807" y2="-0.035558" />
      <path d="M 0.223809,-0.035556 A 0.00295,9.854214615771964e-06 4.3498286580142875e-20 0,1 0.223718,-0.035556" />
    </g>
    <g fill="url(#hatch_cradle)" stroke="none" stroke-width="0" id="cradle_fill">
      <path d="M 0.149939,0.015665 L 0.141107,0.015665 L 0.141107,0.00755 L 0.144107,0.00755 L 0.144107,0.012665 L 0.149939,0.012665 L 0.149939,0.015665" />
      <path d="M 0.144107,-0.00755 L 0.141107,-0.00755 L 0.141107,-0.015665 L 0.149939,-0.015665 L 0.149939,-0.012665 L 0.144107,-0.012665 L 0.144107,-0.00755" />
    </g>
    <g fill="none" stroke="rgb(50,120,190)" stroke-opacity="0.4" stroke-width="0.00015" id="cradle_hidden" stroke-dasharray="0.0018 0.00045">
      <line x1="0.214904" y1="-0.036325" x2="0.214904" y2="-0.028025" />
      <line x1="0.214957" y1="-0.036275" x2="0.214904" y2="-0.036325" />
      <line x1="0.214957" y1="-0.036275" x2="0.214957" y2="-0.028025" />
      <line x1="0.214986" y1="-0.038048" x2="0.214986" y2="-0.027948" />
      <line x1="0.214875" y1="-0.038152" x2="0.214986" y2="-0.038048" />
      <line x1="0.214904" y1="-0.036325" x2="0.217904" y2="-0.036325" />
      <line x1="0.217904" y1="-0.036325" x2="0.217904" y2="-0.028042" />
      <line x1="0.214957" y1="-0.036275" x2="0.217957" y2="-0.036275" />
      <line x1="0.217957" y1="-0.036275" x2="0.217904" y2="-0.036325" />
      <line x1="0.217957" y1="-0.036275" x2="0.217957" y2="-0.028042" />
      <line x1="0.214986" y1="-0.038048" x2="0.223817" y2="-0.038048" />
      <path d="M 0.223716,-0.038056 A 0.00295,9.854214615771964e-06 4.3498286580142875e-20 0,1 0.222196,-0.038058" />
      <line x1="0.222196" y1="-0.038058" x2="0.217975" y2="-0.038058" />
      <line x1="0.217886" y1="-0.038142" x2="0.217975" y2="-0.038058" />
      <line x1="0.222107" y1="-0.038142" x2="0.217886" y2="-0.038142" />
      <path d="M 0.222107,-0.038142 A 0.00295,9.854214615771964e-06 4.3498286580142875e-20 0,1 0.223716,-0.038144" />
      <line x1="0.217886" y1="-0.038142" x2="0.217886" y2="-0.028042" />
      <line x1="0.217975" y1="-0.038058" x2="0.217975" y2="-0.028042" />
      <line x1="0.222107" y1="-0.038142" x2="0.222107" y2="-0.035642" />
      <line x1="0.222107" y1="-0.035642" x2="0.223718" y2="-0.035642" />
      <line x1="0.222196" y1="-0.038058" x2="0.222196" y2="-0.035558" />
      <line x1="0.222196" y1="-0.035558" x2="0.223718" y2="-0.035558" />
      <path d="M 0.223718,-0.035556 A 0.00295,9.854214615771964e-06 4.3498286580142875e-20 0,1 0.222196,-0.035558" />
      <path d="M 0.222107,-0.035642 A 0.00295,9.854214615771964e-06 4.3498286580142875e-20 0,1 0.223716,-0.035644" />
    </g>
    <g fill="none" stroke="rgb(60,60,60)" stroke-width="0.00035" id="servo">
      <path d="M 0.004,0.0124 A 0.004,0.004 180.0 0,1 0.0,0.0084" />
      <line x1="0.004" y1="0.0124" x2="0.0414" y2="0.0124" />
      <path d="M 0.0454,0.0084 A 0.004,0.004 0.0 0,1 0.0414,0.0124" />
      <line x1="0.0454" y1="0.0084" x2="0.0454" y2="-0.0084" />
      <path d="M 0.0414,-0.0124 A 0.004,0.004 0.0 0,1 0.0454,-0.0084" />
      <line x1="0.004" y1="-0.0124" x2="0.0414" y2="-0.0124" />
      <path d="M 0.0,-0.0084 A 0.004,0.004 180.0 0,1 0.004,-0.0124" />
      <line x1="0.0" y1="0.0084" x2="0.0" y2="-0.0084" />
      <path d="M 0.074553,0.0124 A 0.004,0.004 180.0 0,1 0.070553,0.0084" />
      <line x1="0.074553" y1="0.0124" x2="0.111953" y2="0.0124" />
      <path d="M 0.115953,0.0084 A 0.004,0.004 0.0 0,1 0.111953,0.0124" />
      <line x1="0.115953" y1="0.0084" x2="0.115953" y2="-0.0084" />
      <path d="M 0.111953,-0.0124 A 0.004,0.004 0.0 0,1 0.115953,-0.0084" />
      <line x1="0.074553" y1="-0.0124" x2="0.111953" y2="-0.0124" />
      <path d="M 0.070553,-0.0084 A 0.004,0.004 180.0 0,1 0.074553,-0.0124" />
      <line x1="0.070553" y1="0.0084" x2="0.070553" y2="-0.0084" />
      <path d="M 0.148322,0.0124 A 0.004,0.004 180.0 0,1 0.144322,0.0084" />
      <line x1="0.148322" y1="0.0124" x2="0.185722" y2="0.0124" />
      <path d="M 0.189722,0.0084 A 0.004,0.004 0.0 0,1 0.185722,0.0124" />
      <line x1="0.189722" y1="0.0084" x2="0.189722" y2="-0.0084" />
      <path d="M 0.185722,-0.0124 A 0.004,0.004 0.0 0,1 0.189722,-0.0084" />
      <line x1="0.148322" y1="-0.0124" x2="0.185722" y2="-0.0124" />
      <path d="M 0.144322,-0.0084 A 0.004,0.004 180.0 0,1 0.148322,-0.0124" />
      <line x1="0.144322" y1="0.0084" x2="0.144322" y2="-0.0084" />
      <circle cx="0.150022" cy="-0.01025" r="0.0016" />
      <circle cx="0.167022" cy="-0.01025" r="0.0016" />
      <circle cx="0.184022" cy="-0.01025" r="0.0016" />
      <circle cx="0.150022" cy="0.01025" r="0.0016" />
      <circle cx="0.167022" cy="0.01025" r="0.0016" />
      <circle cx="0.184022" cy="0.01025" r="0.0016" />
      <path d="M 0.218135,-0.032313 A 0.004,6.331390824028431e-06 1.7086817160884977e-20 0,1 0.220131,-0.032319" />
      <path d="M 0.263535,-0.032313 A 0.004,6.331390824028431e-06 -180.0 0,0 0.260531,-0.032319" />
      <line x1="0.263535" y1="-0.032313" x2="0.263556" y2="-0.032287" />
      <line x1="0.218135" y1="0.000287" x2="0.218156" y2="0.000313" />
      <line x1="0.218135" y1="-0.032313" x2="0.218135" y2="0.000287" />
      <path d="M 0.220131,-0.032319 A 0.004,6.331390824028431e-06 1.7086817160884977e-20 0,1 0.22213,-0.03232" />
      <line x1="0.22213" y1="-0.03232" x2="0.22213" y2="0.00028" />
      <path d="M 0.218135,0.000287 A 0.004,6.331390824028431e-06 1.7086817160884977e-20 0,1 0.22213,0.00028" />
      <path d="M 0.218156,0.000313 A 0.004,6.331390824028431e-06 -180.0 0,0 0.222161,0.00032" />
      <line x1="0.22013" y1="-0.03442" x2="0.22013" y2="-0.03232" />
      <line x1="0.22013" y1="-0.03232" x2="0.220131" y2="-0.032319" />
      <line x1="0.260535" y1="-0.034413" x2="0.260535" y2="-0.032319" />
      <line x1="0.260535" y1="-0.034387" x2="0.260556" y2="-0.034387" />
      <line x1="0.260556" y1="-0.034387" x2="0.260556" y2="-0.032319" />
      <line x1="0.26053" y1="-0.03442" x2="0.26053" y2="-0.03232" />
      <line x1="0.26053" y1="-0.03442" x2="0.260535" y2="-0.034413" />
      <line x1="0.260561" y1="-0.03438" x2="0.260561" y2="-0.032319" />
      <line x1="0.260556" y1="-0.034387" x2="0.260561" y2="-0.03438" />
      <line x1="0.263535" y1="-0.032313" x2="0.263535" y2="0.000287" />
      <path d="M 0.260531,-0.032319 A 0.004,6.331390824028431e-06 -180.0 0,0 0.25953,-0.03232" />
      <line x1="0.25953" y1="-0.03232" x2="0.25953" y2="0.00028" />
      <path d="M 0.263535,0.000287 A 0.004,6.331390824028431e-06 -180.0 0,0 0.25953,0.00028" />
      <line x1="0.263556" y1="0.000313" x2="0.263556" y2="-0.032287" />
      <path d="M 0.260561,-0.032281 A 0.004,6.331390824028431e-06 1.7086817160884977e-20 0,1 0.259561,-0.03228" />
      <path d="M 0.263556,0.000313 A 0.004,6.331390824028431e-06 1.7086817160884977e-20 0,1 0.263355,0.000315" />
      <line x1="0.263535" y1="0.000287" x2="0.263556" y2="0.000313" />
      <line x1="0.22213" y1="0.00028" x2="0.25953" y2="0.00028" />
      <line x1="0.222161" y1="0.00032" x2="0.243336" y2="0.00032" />
      <path d="M 0.243336,0.000287 A 0.002,3.1656954120142157e-06 1.7086817160884977e-20 0,1 0.245333,0.000284" />
      <line x1="0.245333" y1="0.000284" x2="0.261333" y2="0.000284" />
      <path d="M 0.263336,0.000287 A 0.002,3.1656954120142157e-06 -180.0 0,0 0.261333,0.000284" />
      <line x1="0.263336" y1="0.000287" x2="0.263355" y2="0.000313" />
      <line x1="0.22013" y1="-0.03232" x2="0.22213" y2="-0.03232" />
      <line x1="0.25953" y1="-0.03232" x2="0.26053" y2="-0.03232" />
      <line x1="0.22013" y1="-0.03442" x2="0.26053" y2="-0.03442" />
      <path d="M 0.243336,0.001987 A 0.002,3.1656954120142157e-06 1.7086817160884977e-20 0,1 0.245333,0.001984" />
      <line x1="0.245333" y1="0.001984" x2="0.261333" y2="0.001984" />
      <path d="M 0.263336,0.001987 A 0.002,3.1656954120142157e-06 -180.0 0,0 0.261333,0.001984" />
      <line x1="0.263336" y1="0.001987" x2="0.263355" y2="0.002013" />
      <path d="M 0.263355,0.002013 A 0.002,3.1656954120142157e-06 1.7086817160884977e-20 0,1 0.261358,0.002016" />
      <line x1="0.245358" y1="0.002016" x2="0.248846" y2="0.002016" />
      <line x1="0.257846" y1="0.002016" x2="0.261358" y2="0.002016" />
      <path d="M 0.243355,0.002013 A 0.002,3.1656954120142157e-06 -180.0 0,0 0.245358,0.002016" />
      <line x1="0.243336" y1="0.001987" x2="0.243355" y2="0.002013" />
      <path d="M 0.248846,0.002 A 0.004500000000000004,7.122814677031991e-06 1.575652030466048e-20 0,1 0.257846,0.002" />
      <path d="M 0.257846,0.0035 A 0.004500000000000004,7.122814677031991e-06 1.575652030466048e-20 0,1 0.248846,0.0035" />
      <path d="M 0.248846,0.0035 A 0.004500000000000004,7.122814677031991e-06 1.575652030466048e-20 0,1 0.257846,0.0035" />
      <line x1="0.243336" y1="0.000287" x2="0.243336" y2="0.001987" />
      <line x1="0.245333" y1="0.000284" x2="0.245333" y2="0.001984" />
      <line x1="0.261333" y1="0.000284" x2="0.261333" y2="0.001984" />
      <line x1="0.263336" y1="0.000287" x2="0.263336" y2="0.001987" />
      <line x1="0.263355" y1="0.000313" x2="0.263355" y2="0.002013" />
      <line x1="0.218135" y1="-0.032313" x2="0.218135" y2="0.000287" />
      <line x1="0.263556" y1="-0.032287" x2="0.263556" y2="0.000313" />
      <line x1="0.243336" y1="0.000287" x2="0.243336" y2="0.001987" />
      <line x1="0.263355" y1="0.000313" x2="0.263355" y2="0.002013" />
      <line x1="0.257846" y1="0.002" x2="0.257846" y2="0.0035" />
      <line x1="0.248846" y1="0.002" x2="0.248846" y2="0.0035" />
    </g>
    <g fill="url(#hatch_servo)" stroke="none" stroke-width="0" id="servo_fill">
      <path d="M 0.004,0.0124 A 0.004,0.004 180.0 0,1 0.0,0.0084 L 0.0,-0.0084 A 0.004,0.004 180.0 0,1 0.004,-0.0124 L 0.0414,-0.0124 A 0.004,0.004 0.0 0,1 0.0454,-0.0084 L 0.0454,0.0084 A 0.004,0.004 0.0 0,1 0.0414,0.0124 L 0.004,0.0124" />
      <path d="M 0.074553,0.0124 A 0.004,0.004 180.0 0,1 0.070553,0.0084 L 0.070553,-0.0084 A 0.004,0.004 180.0 0,1 0.074553,-0.0124 L 0.111953,-0.0124 A 0.004,0.004 0.0 0,1 0.115953,-0.0084 L 0.115953,0.0084 A 0.004,0.004 0.0 0,1 0.111953,0.0124 L 0.074553,0.0124" />
      <path d="M 0.148322,0.0124 A 0.004,0.004 180.0 0,1 0.144322,0.0084 L 0.144322,-0.0084 A 0.004,0.004 180.0 0,1 0.148322,-0.0124 L 0.185722,-0.0124 A 0.004,0.004 0.0 0,1 0.189722,-0.0084 L 0.189722,0.0084 A 0.004,0.004 0.0 0,1 0.185722,0.0124 L 0.148322,0.0124 M 0.151622,-0.01025 A 0.0016000000000000044,0.0016000000000000044 0.0 0,0 0.148422,-0.01025 A 0.0016000000000000044,0.0016000000000000044 0.0 0,0 0.151622,-0.01025 M 0.168622,-0.01025 A 0.0016,0.0016 0.0 0,0 0.165422,-0.01025 A 0.0016,0.0016 0.0 0,0 0.168622,-0.01025 M 0.185622,-0.01025 A 0.0016000000000000044,0.0016000000000000044 0.0 0,0 0.182422,-0.01025 A 0.0016000000000000044,0.0016000000000000044 0.0 0,0 0.185622,-0.01025 M 0.151622,0.01025 A 0.0016000000000000044,0.0016000000000000044 0.0 0,0 0.148422,0.01025 A 0.0016000000000000044,0.0016000000000000044 0.0 0,0 0.151622,0.01025 M 0.168622,0.01025 A 0.0016,0.0016 0.0 0,0 0.165422,0.01025 A 0.0016,0.0016 0.0 0,0 0.168622,0.01025 M 0.185622,0.01025 A 0.0016000000000000044,0.0016000000000000044 0.0 0,0 0.182422,0.01025 A 0.0016000000000000044,0.0016000000000000044 0.0 0,0 0.185622,0.01025" />
    </g>
    <g fill="none" stroke="rgb(60,60,60)" stroke-opacity="0.4" stroke-width="0.00015" id="servo_hidden" stroke-dasharray="0.0018 0.00045">
      <line x1="0.235887" y1="-0.034111" x2="0.235904" y2="-0.034089" />
      <line x1="0.235887" y1="-0.032311" x2="0.235887" y2="-0.034111" />
      <line x1="0.235904" y1="-0.032289" x2="0.235887" y2="-0.032311" />
      <line x1="0.235904" y1="-0.032289" x2="0.235904" y2="-0.034089" />
      <line x1="0.235197" y1="-0.034098" x2="0.235194" y2="-0.034102" />
      <line x1="0.235197" y1="-0.034098" x2="0.230497" y2="-0.034098" />
      <line x1="0.230497" y1="-0.034098" x2="0.230494" y2="-0.034102" />
      <line x1="0.235194" y1="-0.034102" x2="0.230494" y2="-0.034102" />
      <line x1="0.235887" y1="-0.034111" x2="0.229787" y2="-0.034111" />
      <line x1="0.229787" y1="-0.034111" x2="0.229804" y2="-0.034089" />
      <line x1="0.235904" y1="-0.034089" x2="0.229804" y2="-0.034089" />
      <line x1="0.230503" y1="-0.03409" x2="0.230498" y2="-0.034097" />
      <line x1="0.235198" y1="-0.034097" x2="0.230498" y2="-0.034097" />
      <line x1="0.235203" y1="-0.03409" x2="0.235198" y2="-0.034097" />
      <line x1="0.235203" y1="-0.03409" x2="0.230503" y2="-0.03409" />
      <line x1="0.235193" y1="-0.034103" x2="0.230493" y2="-0.034103" />
      <line x1="0.230493" y1="-0.034103" x2="0.230488" y2="-0.03411" />
      <line x1="0.235188" y1="-0.03411" x2="0.230488" y2="-0.03411" />
      <line x1="0.235193" y1="-0.034103" x2="0.235188" y2="-0.03411" />
      <line x1="0.218135" y1="-0.032313" x2="0.218156" y2="-0.032287" />
      <line x1="0.220131" y1="-0.032319" x2="0.220135" y2="-0.032313" />
      <line x1="0.220135" y1="-0.032313" x2="0.260535" y2="-0.032313" />
      <line x1="0.260531" y1="-0.032319" x2="0.260535" y2="-0.032313" />
      <path d="M 0.263556,-0.032287 A 0.004,6.331390824028431e-06 1.7086817160884977e-20 0,1 0.260561,-0.032281" />
      <line x1="0.260556" y1="-0.032287" x2="0.260561" y2="-0.032281" />
      <line x1="0.220156" y1="-0.032287" x2="0.260556" y2="-0.032287" />
      <line x1="0.220156" y1="-0.032287" x2="0.22016" y2="-0.032281" />
      <path d="M 0.218156,-0.032287 A 0.004,6.331390824028431e-06 -180.0 0,0 0.22016,-0.032281" />
      <path d="M 0.256346,-0.0323 A 0.0030000000000000027,4.748543118021328e-06 1.575652030466048e-20 0,1 0.250346,-0.0323" />
      <path d="M 0.250346,-0.0323 A 0.0030000000000000027,4.748543118021328e-06 1.575652030466048e-20 0,1 0.256346,-0.0323" />
      <line x1="0.229787" y1="-0.032311" x2="0.235887" y2="-0.032311" />
      <line x1="0.229804" y1="-0.032289" x2="0.229787" y2="-0.032311" />
      <line x1="0.229804" y1="-0.032289" x2="0.235904" y2="-0.032289" />
      <line x1="0.229787" y1="-0.032311" x2="0.229787" y2="-0.034111" />
      <line x1="0.235194" y1="-0.032302" x2="0.235194" y2="-0.034102" />
      <line x1="0.235197" y1="-0.032298" x2="0.235197" y2="-0.034098" />
      <line x1="0.235197" y1="-0.032298" x2="0.235194" y2="-0.032302" />
      <line x1="0.229804" y1="-0.032289" x2="0.229804" y2="-0.034089" />
      <line x1="0.218156" y1="0.000313" x2="0.218156" y2="-0.032287" />
      <path d="M 0.22016,-0.032281 A 0.004,6.331390824028431e-06 -180.0 0,0 0.222161,-0.03228" />
      <line x1="0.222161" y1="0.00032" x2="0.222161" y2="-0.03228" />
      <line x1="0.220135" y1="-0.034413" x2="0.220135" y2="-0.032313" />
      <line x1="0.22013" y1="-0.03442" x2="0.220135" y2="-0.034413" />
      <line x1="0.220156" y1="-0.034387" x2="0.220156" y2="-0.032287" />
      <line x1="0.22016" y1="-0.032281" x2="0.220161" y2="-0.03228" />
      <line x1="0.220161" y1="-0.03438" x2="0.220161" y2="-0.03228" />
      <line x1="0.220156" y1="-0.034387" x2="0.220161" y2="-0.03438" />
      <line x1="0.220135" y1="-0.034413" x2="0.260535" y2="-0.034413" />
      <line x1="0.260535" y1="-0.032319" x2="0.260535" y2="-0.032313" />
      <line x1="0.220156" y1="-0.034387" x2="0.260535" y2="-0.034387" />
      <line x1="0.260556" y1="-0.032319" x2="0.260556" y2="-0.032287" />
      <line x1="0.260561" y1="-0.032319" x2="0.260561" y2="-0.03228" />
      <line x1="0.259561" y1="0.00032" x2="0.259561" y2="-0.03228" />
      <path d="M 0.263355,0.000315 A 0.004,6.331390824028431e-06 1.7086817160884977e-20 0,1 0.259561,0.00032" />
      <path d="M 0.256346,-0.0336 A 0.0030000000000000027,4.748543118021328e-06 1.575652030466048e-20 0,1 0.250346,-0.0336" />
      <path d="M 0.250346,-0.0336 A 0.0030000000000000027,4.748543118021328e-06 1.575652030466048e-20 0,1 0.256346,-0.0336" />
      <line x1="0.235188" y1="-0.03231" x2="0.235188" y2="-0.03411" />
      <line x1="0.235193" y1="-0.034103" x2="0.235193" y2="-0.032303" />
      <line x1="0.235193" y1="-0.032303" x2="0.235188" y2="-0.03231" />
      <line x1="0.230488" y1="-0.03231" x2="0.230488" y2="-0.03411" />
      <line x1="0.230488" y1="-0.03231" x2="0.235188" y2="-0.03231" />
      <line x1="0.230493" y1="-0.034103" x2="0.230493" y2="-0.032303" />
      <line x1="0.230493" y1="-0.032303" x2="0.230488" y2="-0.03231" />
      <line x1="0.230503" y1="-0.03229" x2="0.230498" y2="-0.032297" />
      <line x1="0.230498" y1="-0.032297" x2="0.230498" y2="-0.034097" />
      <line x1="0.230503" y1="-0.03229" x2="0.230503" y2="-0.03409" />
      <line x1="0.235203" y1="-0.03229" x2="0.235203" y2="-0.03409" />
      <line x1="0.230503" y1="-0.03229" x2="0.235203" y2="-0.03229" />
      <line x1="0.235203" y1="-0.03229" x2="0.235198" y2="-0.032297" />
      <line x1="0.235198" y1="-0.032297" x2="0.235198" y2="-0.034097" />
      <line x1="0.230498" y1="-0.032297" x2="0.235198" y2="-0.032297" />
      <line x1="0.230497" y1="-0.032298" x2="0.230497" y2="-0.034098" />
      <line x1="0.230497" y1="-0.032298" x2="0.235197" y2="-0.032298" />
      <line x1="0.230494" y1="-0.032302" x2="0.230494" y2="-0.034102" />
      <line x1="0.230494" y1="-0.032302" x2="0.235194" y2="-0.032302" />
      <line x1="0.230497" y1="-0.032298" x2="0.230494" y2="-0.032302" />
      <line x1="0.230493" y1="-0.032303" x2="0.235193" y2="-0.032303" />
      <line x1="0.243336" y1="0.00032" x2="0.259561" y2="0.00032" />
      <path d="M 0.263355,0.000313 A 0.002,3.1656954120142157e-06 1.7086817160884977e-20 0,1 0.261358,0.000316" />
      <line x1="0.245358" y1="0.000316" x2="0.261358" y2="0.000316" />
      <path d="M 0.243355,0.000313 A 0.002,3.1656954120142157e-06 -180.0 0,0 0.245358,0.000316" />
      <line x1="0.243336" y1="0.000287" x2="0.243355" y2="0.000313" />
      <line x1="0.220161" y1="-0.03228" x2="0.222161" y2="-0.03228" />
      <line x1="0.259561" y1="-0.03228" x2="0.260561" y2="-0.03228" />
      <line x1="0.220161" y1="-0.03438" x2="0.260561" y2="-0.03438" />
      <path d="M 0.225433,-0.034416 A 0.0016,2.5325563296113727e-06 1.575652030466048e-20 0,1 0.222233,-0.034416" />
      <path d="M 0.222233,-0.034416 A 0.0016,2.5325563296113727e-06 1.575652030466048e-20 0,1 0.225433,-0.034416" />
      <path d="M 0.242433,-0.034416 A 0.0016000000000000044,2.5325563296113795e-06 1.575652030466048e-20 0,1 0.239233,-0.034416" />
      <path d="M 0.239233,-0.034416 A 0.0016000000000000044,2.5325563296113795e-06 1.575652030466048e-20 0,1 0.242433,-0.034416" />
      <path d="M 0.259433,-0.034416 A 0.0016000000000000179,2.5325563296114006e-06 1.575652030466048e-20 0,1 0.256233,-0.034416" />
      <path d="M 0.256233,-0.034416 A 0.0016000000000000179,2.5325563296114006e-06 1.575652030466048e-20 0,1 0.259433,-0.034416" />
      <path d="M 0.225458,-0.034384 A 0.0016,2.5325563296113727e-06 1.575652030466048e-20 0,1 0.222258,-0.034384" />
      <path d="M 0.222258,-0.034384 A 0.0016,2.5325563296113727e-06 1.575652030466048e-20 0,1 0.225458,-0.034384" />
      <path d="M 0.242458,-0.034384 A 0.0016000000000000044,2.5325563296113795e-06 1.575652030466048e-20 0,1 0.239258,-0.034384" />
      <path d="M 0.239258,-0.034384 A 0.0016000000000000044,2.5325563296113795e-06 1.575652030466048e-20 0,1 0.242458,-0.034384" />
      <path d="M 0.259458,-0.034384 A 0.0016000000000000179,2.5325563296114006e-06 1.575652030466048e-20 0,1 0.256258,-0.034384" />
      <path d="M 0.256258,-0.034384 A 0.0016000000000000179,2.5325563296114006e-06 1.575652030466048e-20 0,1 0.259458,-0.034384" />
      <line x1="0.248846" y1="0.002016" x2="0.257846" y2="0.002016" />
      <path d="M 0.225433,-0.024416 A 0.0016,2.5325563296113727e-06 1.575652030466048e-20 0,1 0.222233,-0.024416" />
      <path d="M 0.222233,-0.024416 A 0.0016,2.5325563296113727e-06 1.575652030466048e-20 0,1 0.225433,-0.024416" />
      <path d="M 0.242433,-0.024416 A 0.0016000000000000044,2.5325563296113795e-06 1.575652030466048e-20 0,1 0.239233,-0.024416" />
      <path d="M 0.239233,-0.024416 A 0.0016000000000000044,2.5325563296113795e-06 1.575652030466048e-20 0,1 0.242433,-0.024416" />
      <path d="M 0.259433,-0.024416 A 0.0016000000000000179,2.5325563296114006e-06 1.575652030466048e-20 0,1 0.256233,-0.024416" />
      <path d="M 0.256233,-0.024416 A 0.0016000000000000179,2.5325563296114006e-06 1.575652030466048e-20 0,1 0.259433,-0.024416" />
      <path d="M 0.225458,-0.024384 A 0.0016,2.5325563296113727e-06 1.575652030466048e-20 0,1 0.222258,-0.024384" />
      <path d="M 0.222258,-0.024384 A 0.0016,2.5325563296113727e-06 1.575652030466048e-20 0,1 0.225458,-0.024384" />
      <path d="M 0.242458,-0.024384 A 0.0016000000000000044,2.5325563296113795e-06 1.575652030466048e-20 0,1 0.239258,-0.024384" />
      <path d="M 0.239258,-0.024384 A 0.0016000000000000044,2.5325563296113795e-06 1.575652030466048e-20 0,1 0.242458,-0.024384" />
      <path d="M 0.259458,-0.024384 A 0.0016000000000000179,2.5325563296114006e-06 1.575652030466048e-20 0,1 0.256258,-0.024384" />
      <path d="M 0.256258,-0.024384 A 0.0016000000000000179,2.5325563296114006e-06 1.575652030466048e-20 0,1 0.259458,-0.024384" />
      <path d="M 0.257846,0.002 A 0.004500000000000004,7.122814677031991e-06 1.575652030466048e-20 0,1 0.248846,0.002" />
      <line x1="0.256346" y1="-0.0336" x2="0.256346" y2="-0.0323" />
      <line x1="0.250346" y1="-0.0336" x2="0.250346" y2="-0.0323" />
      <line x1="0.225433" y1="-0.034416" x2="0.225433" y2="-0.024416" />
      <line x1="0.222233" y1="-0.034416" x2="0.222233" y2="-0.024416" />
      <line x1="0.242433" y1="-0.034416" x2="0.242433" y2="-0.024416" />
      <line x1="0.239233" y1="-0.034416" x2="0.239233" y2="-0.024416" />
      <line x1="0.259433" y1="-0.034416" x2="0.259433" y2="-0.024416" />
      <line x1="0.256233" y1="-0.034416" x2="0.256233" y2="-0.024416" />
      <line x1="0.225458" y1="-0.034384" x2="0.225458" y2="-0.024384" />
      <line x1="0.222258" y1="-0.034384" x2="0.222258" y2="-0.024384" />
      <line x1="0.242458" y1="-0.034384" x2="0.242458" y2="-0.024384" />
      <line x1="0.239258" y1="-0.034384" x2="0.239258" y2="-0.024384" />
      <line x1="0.259458" y1="-0.034384" x2="0.259458" y2="-0.024384" />
      <line x1="0.256258" y1="-0.034384" x2="0.256258" y2="-0.024384" />
      <line x1="0.261358" y1="0.000316" x2="0.261358" y2="0.002016" />
      <line x1="0.245358" y1="0.000316" x2="0.245358" y2="0.002016" />
      <line x1="0.243355" y1="0.000313" x2="0.243355" y2="0.002013" />
    </g>
    <g fill="none" stroke="rgb(220,60,40)" stroke-width="0.00035" id="coupler">
      <line x1="0.062553" y1="-0.009294" x2="0.0352" y2="-0.009294" />
      <line x1="0.062553" y1="-0.009294" x2="0.062553" y2="-0.008294" />
      <line x1="0.062553" y1="-0.008294" x2="0.052553" y2="-0.008294" />
      <line x1="0.052553" y1="-0.008294" x2="0.052553" y2="0.008294" />
      <line x1="0.062553" y1="0.008294" x2="0.052553" y2="0.008294" />
      <line x1="0.062553" y1="0.008294" x2="0.062553" y2="0.009294" />
      <line x1="0.062553" y1="0.009294" x2="0.0352" y2="0.009294" />
      <line x1="0.0352" y1="0.008294" x2="0.0352" y2="0.009294" />
      <path d="M 0.0352,0.008294 A 0.008294306588619054,0.008294306588619054 0.0 0,1 0.0352,-0.008294" />
      <line x1="0.0352" y1="-0.009294" x2="0.0352" y2="-0.008294" />
      <circle cx="0.0352" cy="-0.007" r="0.0012" />
      <circle cx="0.0282" cy="0.0" r="0.0012" />
      <path d="M 0.0294,0.0 A 0.0058,0.0058 0.0 0,1 0.0352,-0.0058" />
      <path d="M 0.0352,0.0058 A 0.0058,0.0058 0.0 0,1 0.0294,0.0" />
      <path d="M 0.041,0.0 A 0.0058,0.0058 0.0 0,1 0.0352,0.0058" />
      <path d="M 0.0352,-0.0058 A 0.0058,0.0058 0.0 0,1 0.041,-0.0" />
      <circle cx="0.0422" cy="-0.0" r="0.0011999999999999997" />
      <circle cx="0.0352" cy="0.007" r="0.0011999999999999995" />
      <line x1="0.062553" y1="-0.008294" x2="0.052553" y2="-0.008294" />
      <line x1="0.052553" y1="-0.008294" x2="0.052553" y2="0.008294" />
      <line x1="0.062553" y1="0.008294" x2="0.052553" y2="0.008294" />
      <line x1="0.062553" y1="0.008294" x2="0.062553" y2="-0.008294" />
      <line x1="0.133107" y1="0.008294" x2="0.133107" y2="-0.008294" />
      <line x1="0.123107" y1="-0.008294" x2="0.133107" y2="-0.008294" />
      <line x1="0.123107" y1="0.008294" x2="0.123107" y2="-0.008294" />
      <line x1="0.123107" y1="0.008294" x2="0.133107" y2="0.008294" />
      <line x1="0.206875" y1="-0.009294" x2="0.179522" y2="-0.009294" />
      <line x1="0.206875" y1="-0.009294" x2="0.206875" y2="0.009294" />
      <line x1="0.206875" y1="0.009294" x2="0.179522" y2="0.009294" />
      <line x1="0.179522" y1="0.008294" x2="0.179522" y2="0.009294" />
      <path d="M 0.179522,0.008294 A 0.008294306588619054,0.008294306588619054 0.0 0,1 0.179522,-0.008294" />
      <line x1="0.179522" y1="-0.009294" x2="0.179522" y2="-0.008294" />
      <path d="M 0.173722,0.0 A 0.0058,0.0058 0.0 0,1 0.179522,-0.0058" />
      <path d="M 0.179522,0.0058 A 0.0058,0.0058 0.0 0,1 0.173722,0.0" />
      <path d="M 0.185322,0.0 A 0.0058,0.0058 0.0 0,1 0.179522,0.0058" />
      <path d="M 0.179522,-0.0058 A 0.0058,0.0058 0.0 0,1 0.185322,-0.0" />
      <circle cx="0.179522" cy="-0.007" r="0.0011999999999999997" />
      <circle cx="0.172522" cy="0.0" r="0.0012" />
      <circle cx="0.179522" cy="0.007" r="0.0012" />
      <circle cx="0.186522" cy="0.0" r="0.0011999999999999997" />
      <line x1="0.280714" y1="0.009985" x2="0.253361" y2="0.009985" />
      <line x1="0.280714" y1="0.009985" x2="0.280684" y2="0.010015" />
      <line x1="0.280684" y1="0.010015" x2="0.25333" y2="0.010015" />
      <path d="M 0.253332,0.010013 A 0.008294306588619054,1.3270855498923608e-05 1.1287376861618063e-20 0,1 0.245051,0.01" />
      <path d="M 0.245051,0.01 A 0.008294306588619054,1.3270855498923608e-05 1.1287376861618063e-20 0,1 0.253359,0.009987" />
      <path d="M 0.253355,0.009991 A 0.0012,1.9199949300836897e-06 1.1287376861618063e-20 0,1 0.252157,0.009989" />
      <path d="M 0.252157,0.009989 A 0.0012,1.9199949300836897e-06 1.1287376861618063e-20 1,1 0.254557,0.009989" />
      <path d="M 0.254557,0.009989 A 0.0012,1.9199949300836897e-06 1.1287376861618063e-20 0,1 0.253355,0.009991" />
      <path d="M 0.247546,0.01 A 0.0012,1.9199949300836897e-06 1.1287376861618063e-20 0,1 0.245146,0.01" />
      <path d="M 0.245146,0.01 A 0.0012,1.9199949300836897e-06 1.1287376861618063e-20 1,1 0.247546,0.01" />
      <path d="M 0.247546,0.01 A 0.0058,9.279975495404501e-06 1.1287376861618063e-20 0,1 0.253355,0.009991" />
      <path d="M 0.253355,0.009991 A 0.0058,9.279975495404501e-06 1.1287376861618063e-20 0,1 0.259146,0.01" />
      <path d="M 0.259146,0.01 A 0.0058,9.279975495404501e-06 1.1287376861618063e-20 0,1 0.253336,0.010009" />
      <path d="M 0.253336,0.010009 A 0.0058,9.279975495404501e-06 1.1287376861618063e-20 0,1 0.247546,0.01" />
      <path d="M 0.259146,0.01 A 0.0012000000000000066,1.9199949300837003e-06 1.1287376861618063e-20 0,1 0.261546,0.01" />
      <path d="M 0.261546,0.01 A 0.0012000000000000066,1.9199949300837003e-06 1.1287376861618063e-20 0,1 0.259146,0.01" />
      <path d="M 0.253336,0.010009 A 0.0012,1.9199949300836897e-06 1.1287376861618063e-20 0,1 0.254534,0.010011" />
      <path d="M 0.254534,0.010011 A 0.0012,1.9199949300836897e-06 1.1287376861618063e-20 0,1 0.252134,0.010011" />
      <path d="M 0.252134,0.010011 A 0.0012,1.9199949300836897e-06 1.1287376861618063e-20 0,1 0.253336,0.010009" />
      <line x1="0.280714" y1="-1.5e-05" x2="0.253361" y2="-1.5e-05" />
      <line x1="0.280714" y1="-1.5e-05" x2="0.280714" y2="0.009985" />
      <line x1="0.253361" y1="-1.5e-05" x2="0.253361" y2="0.009985" />
      <line x1="0.280713" y1="-0.032013" x2="0.280713" y2="-1.5e-05" />
      <line x1="0.280714" y1="-0.032015" x2="0.280713" y2="-0.032013" />
      <line x1="0.280714" y1="-0.042015" x2="0.280714" y2="-0.032015" />
      <line x1="0.253359" y1="-1.3e-05" x2="0.253359" y2="0.009987" />
      <path d="M 0.245051,-0.0 A 0.008294306588619054,1.3270855498923608e-05 1.1287376861618063e-20 0,1 0.253359,-1.3e-05" />
      <line x1="0.253355" y1="0.009987" x2="0.253355" y2="0.009991" />
      <line x1="0.253336" y1="0.009991" x2="0.253336" y2="0.010009" />
      <line x1="0.270713" y1="-0.032013" x2="0.270713" y2="-1.5e-05" />
      <line x1="0.270713" y1="-0.032013" x2="0.280713" y2="-0.032013" />
      <line x1="0.280714" y1="-0.032015" x2="0.253361" y2="-0.032015" />
      <path d="M 0.253332,-0.031987 A 0.008294306588619054,1.3270855498923608e-05 1.1287376861618063e-20 0,1 0.245051,-0.032" />
      <path d="M 0.245051,-0.032 A 0.008294306588619054,1.3270855498923608e-05 1.1287376861618063e-20 0,1 0.253359,-0.032013" />
      <line x1="0.270685" y1="-0.031987" x2="0.270713" y2="-0.032013" />
      <line x1="0.270685" y1="-0.031985" x2="0.25333" y2="-0.031985" />
      <path d="M 0.253355,-0.032009 A 0.0012,1.9199949300836897e-06 1.1287376861618063e-20 0,1 0.252157,-0.032011" />
      <path d="M 0.252157,-0.032011 A 0.0012,1.9199949300836897e-06 1.1287376861618063e-20 1,1 0.254557,-0.032011" />
      <path d="M 0.254557,-0.032011 A 0.0012,1.9199949300836897e-06 1.1287376861618063e-20 0,1 0.253355,-0.032009" />
      <path d="M 0.247546,-0.032 A 0.0012,1.9199949300836897e-06 1.1287376861618063e-20 0,1 0.245146,-0.032" />
      <path d="M 0.245146,-0.032 A 0.0012,1.9199949300836897e-06 1.1287376861618063e-20 1,1 0.247546,-0.032" />
      <path d="M 0.247546,-0.032 A 0.0058,9.279975495404501e-06 1.1287376861618063e-20 0,1 0.253355,-0.032009" />
      <path d="M 0.253355,-0.032009 A 0.0058,9.279975495404501e-06 1.1287376861618063e-20 0,1 0.259146,-0.032" />
      <path d="M 0.259146,-0.032 A 0.0058,9.279975495404501e-06 1.1287376861618063e-20 0,1 0.253336,-0.031991" />
      <path d="M 0.253336,-0.031991 A 0.0058,9.279975495404501e-06 1.1287376861618063e-20 0,1 0.247546,-0.032" />
      <path d="M 0.259146,-0.032 A 0.0012000000000000066,1.9199949300837003e-06 1.1287376861618063e-20 0,1 0.261546,-0.032" />
      <path d="M 0.261546,-0.032 A 0.0012000000000000066,1.9199949300837003e-06 1.1287376861618063e-20 0,1 0.259146,-0.032" />
      <path d="M 0.253336,-0.031991 A 0.0012,1.9199949300836897e-06 1.1287376861618063e-20 0,1 0.254534,-0.031989" />
      <path d="M 0.254534,-0.031989 A 0.0012,1.9199949300836897e-06 1.1287376861618063e-20 0,1 0.252134,-0.031989" />
      <path d="M 0.252134,-0.031989 A 0.0012,1.9199949300836897e-06 1.1287376861618063e-20 0,1 0.253336,-0.031991" />
      <line x1="0.280714" y1="-0.042015" x2="0.253361" y2="-0.042015" />
      <line x1="0.253361" y1="-0.042015" x2="0.253361" y2="-0.032015" />
      <path d="M 0.245051,-0.042 A 0.008294306588619054,1.3270855498923608e-05 1.1287376861618063e-20 0,1 0.253359,-0.042013" />
      <line x1="0.270685" y1="-0.031987" x2="0.270685" y2="-1.5e-05" />
      <line x1="0.253359" y1="-0.042013" x2="0.253359" y2="-0.032013" />
      <line x1="0.253355" y1="-0.032013" x2="0.253355" y2="-0.032009" />
      <line x1="0.253336" y1="-0.032009" x2="0.253336" y2="-0.031991" />
      <line x1="0.245051" y1="-0.0" x2="0.245051" y2="0.01" />
      <line x1="0.245051" y1="-0.042" x2="0.245051" y2="-0.032" />
    </g>
    <g fill="url(#hatch_coupler)" stroke="none" stroke-width="0" id="coupler_fill">
      <path d="M 0.062553,-0.009294 L 0.0352,-0.009294 L 0.0352,-0.008294 A 0.008294306588619054,0.008294306588619054 0.0 0,0 0.0352,0.008294 L 0.0352,0.009294 L 0.062553,0.009294 L 0.062553,0.008294 L 0.052553,0.008294 L 0.052553,-0.008294 L 0.062553,-0.008294 L 0.062553,-0.009294 M 0.0352,-0.0058 A 0.0012000000000000003,0.0012000000000000003 90.00000000000006 0,1 0.0352,-0.0082 A 0.0012000000000000003,0.0012000000000000003 90.00000000000006 0,1 0.0352,-0.0058 M 0.0294,0.0 A 0.0012,0.0012 0.0 0,1 0.027,0.0 A 0.0012,0.0012 0.0 0,1 0.0294,-0.0 A 0.0058,0.0058 0.0 0,1 0.0352,-0.0058 A 0.0058,0.0058 0.0 0,1 0.041,-0.0 A 0.0058,0.0058 0.0 0,1 0.0352,0.0058 A 0.0058,0.0058 0.0 0,1 0.0294,0.0 M 0.041,0.0 A 0.0011999999999999997,0.0011999999999999997 180.0 0,1 0.0434,-0.0 A 0.0011999999999999997,0.0011999999999999997 180.0 0,1 0.041,0.0 M 0.0352,0.0058 A 0.0012000000000000005,0.0012000000000000005 -90.00000000000006 0,1 0.0352,0.0082 A 0.0012000000000000005,0.0012000000000000005 -90.00000000000006 0,1 0.0352,0.0058" />
      <path d="M 0.052553,-0.008294 L 0.062553,-0.008294 L 0.062553,0.008294 L 0.052553,0.008294 L 0.052553,-0.008294" />
      <path d="M 0.133107,-0.008294 L 0.133107,0.008294 L 0.123107,0.008294 L 0.123107,-0.008294 L 0.133107,-0.008294" />
      <path d="M 0.179522,-0.009294 L 0.206875,-0.009294 L 0.206875,0.009294 L 0.179522,0.009294 L 0.179522,0.008294 A 0.008294306588619054,0.008294306588619054 0.0 0,1 0.179522,-0.008294 L 0.179522,-0.009294 M 0.179522,-0.0058 A 0.0058,0.0058 0.0 0,0 0.173722,0.0 A 0.0058,0.0058 0.0 0,0 0.179522,0.0058 A 0.0058,0.0058 0.0 0,0 0.185322,0.0 A 0.0058,0.0058 0.0 0,0 0.179522,-0.0058 A 0.0012000000000000005,0.0012000000000000005 90.00000000000006 0,0 0.179522,-0.0082 A 0.0012000000000000005,0.0012000000000000005 90.00000000000006 0,0 0.179522,-0.0058 M 0.173722,-0.0 A 0.0012,0.0012 0.0 0,0 0.171322,0.0 A 0.0012,0.0012 0.0 0,0 0.173722,0.0 M 0.179522,0.0058 A 0.0012000000000000003,0.0012000000000000003 -90.0 0,0 0.179522,0.0082 A 0.0012000000000000003,0.0012000000000000003 -90.0 0,0 0.179522,0.0058 M 0.185322,0.0 A 0.0012000000000000066,0.0012000000000000066 -180.0 0,0 0.187722,0.0 A 0.0012000000000000066,0.0012000000000000066 -180.0 0,0 0.185322,-0.0" />
    </g>
    <g fill="none" stroke="rgb(220,60,40)" stroke-opacity="0.4" stroke-width="0.00015" id="coupler_hidden" stroke-dasharray="0.0018 0.00045">
      <line x1="0.280714" y1="-1.5e-05" x2="0.280713" y2="-1.3e-05" />
      <line x1="0.280713" y1="-1.5e-05" x2="0.280713" y2="-1.3e-05" />
      <line x1="0.280714" y1="-0.042015" x2="0.280684" y2="-0.041985" />
      <line x1="0.280684" y1="-0.041985" x2="0.280684" y2="-0.031985" />
      <line x1="0.280685" y1="-0.031987" x2="0.280684" y2="-0.031985" />
      <line x1="0.280685" y1="-0.031987" x2="0.280685" y2="1.3e-05" />
      <line x1="0.280685" y1="1.3e-05" x2="0.280684" y2="1.5e-05" />
      <line x1="0.280684" y1="1.5e-05" x2="0.280684" y2="0.010015" />
      <line x1="0.280684" y1="1.5e-05" x2="0.25333" y2="1.5e-05" />
      <line x1="0.25333" y1="1.5e-05" x2="0.25333" y2="0.010015" />
      <path d="M 0.253332,1.3e-05 A 0.008294306588619054,1.3270855498923608e-05 1.1287376861618063e-20 0,1 0.245051,-0.0" />
      <line x1="0.253332" y1="1.3e-05" x2="0.253332" y2="0.010013" />
      <path d="M 0.253355,-9e-06 A 0.0012,1.9199949300836897e-06 1.1287376861618063e-20 0,1 0.252157,-1.1e-05" />
      <path d="M 0.252157,-1.1e-05 A 0.0012,1.9199949300836897e-06 1.1287376861618063e-20 1,1 0.254557,-1.1e-05" />
      <line x1="0.253355" y1="-9e-06" x2="0.253355" y2="0.009987" />
      <path d="M 0.254557,-1.1e-05 A 0.0012,1.9199949300836897e-06 1.1287376861618063e-20 0,1 0.253355,-9e-06" />
      <line x1="0.247546" y1="-0.0" x2="0.247546" y2="0.01" />
      <path d="M 0.247546,-0.0 A 0.0012,1.9199949300836897e-06 1.1287376861618063e-20 0,1 0.245146,-0.0" />
      <path d="M 0.245146,-0.0 A 0.0012,1.9199949300836897e-06 1.1287376861618063e-20 1,1 0.247546,-0.0" />
      <path d="M 0.247546,-0.0 A 0.0058,9.279975495404501e-06 1.1287376861618063e-20 0,1 0.253355,-9e-06" />
      <path d="M 0.253355,-9e-06 A 0.0058,9.279975495404501e-06 1.1287376861618063e-20 0,1 0.259146,-0.0" />
      <line x1="0.259146" y1="-0.0" x2="0.259146" y2="0.01" />
      <line x1="0.253336" y1="9e-06" x2="0.253336" y2="0.009991" />
      <path d="M 0.259146,-0.0 A 0.0058,9.279975495404501e-06 1.1287376861618063e-20 0,1 0.253336,9e-06" />
      <path d="M 0.253336,9e-06 A 0.0058,9.279975495404501e-06 1.1287376861618063e-20 0,1 0.247546,-0.0" />
      <path d="M 0.259146,-0.0 A 0.0012000000000000066,1.9199949300837003e-06 1.1287376861618063e-20 0,1 0.261546,-0.0" />
      <path d="M 0.261546,-0.0 A 0.0012000000000000066,1.9199949300837003e-06 1.1287376861618063e-20 0,1 0.259146,-0.0" />
      <path d="M 0.253336,9e-06 A 0.0012,1.9199949300836897e-06 1.1287376861618063e-20 0,1 0.254534,1.1e-05" />
      <path d="M 0.254534,1.1e-05 A 0.0012,1.9199949300836897e-06 1.1287376861618063e-20 0,1 0.252134,1.1e-05" />
      <path d="M 0.252134,1.1e-05 A 0.0012,1.9199949300836897e-06 1.1287376861618063e-20 0,1 0.253336,9e-06" />
      <line x1="0.280713" y1="-1.3e-05" x2="0.270713" y2="-1.3e-05" />
      <line x1="0.270713" y1="-1.3e-05" x2="0.270685" y2="1.3e-05" />
      <line x1="0.280685" y1="1.3e-05" x2="0.270685" y2="1.3e-05" />
      <line x1="0.270713" y1="-1.5e-05" x2="0.270713" y2="-1.3e-05" />
      <line x1="0.270685" y1="-0.031987" x2="0.280685" y2="-0.031987" />
      <line x1="0.280684" y1="-0.031985" x2="0.270685" y2="-0.031985" />
      <line x1="0.280684" y1="-0.041985" x2="0.25333" y2="-0.041985" />
      <path d="M 0.253332,-0.041987 A 0.008294306588619054,1.3270855498923608e-05 1.1287376861618063e-20 0,1 0.245051,-0.042" />
      <path d="M 0.253355,-0.042009 A 0.0012,1.9199949300836897e-06 1.1287376861618063e-20 0,1 0.252157,-0.042011" />
      <path d="M 0.252157,-0.042011 A 0.0012,1.9199949300836897e-06 1.1287376861618063e-20 1,1 0.254557,-0.042011" />
      <path d="M 0.254557,-0.042011 A 0.0012,1.9199949300836897e-06 1.1287376861618063e-20 0,1 0.253355,-0.042009" />
      <path d="M 0.247546,-0.042 A 0.0012,1.9199949300836897e-06 1.1287376861618063e-20 0,1 0.245146,-0.042" />
      <path d="M 0.245146,-0.042 A 0.0012,1.9199949300836897e-06 1.1287376861618063e-20 1,1 0.247546,-0.042" />
      <path d="M 0.247546,-0.042 A 0.0058,9.279975495404501e-06 1.1287376861618063e-20 0,1 0.253355,-0.042009" />
      <path d="M 0.253355,-0.042009 A 0.0058,9.279975495404501e-06 1.1287376861618063e-20 0,1 0.259146,-0.042" />
      <path d="M 0.259146,-0.042 A 0.0058,9.279975495404501e-06 1.1287376861618063e-20 0,1 0.253336,-0.041991" />
      <path d="M 0.253336,-0.041991 A 0.0058,9.279975495404501e-06 1.1287376861618063e-20 0,1 0.247546,-0.042" />
      <path d="M 0.259146,-0.042 A 0.0012000000000000066,1.9199949300837003e-06 1.1287376861618063e-20 0,1 0.261546,-0.042" />
      <path d="M 0.261546,-0.042 A 0.0012000000000000066,1.9199949300837003e-06 1.1287376861618063e-20 0,1 0.259146,-0.042" />
      <path d="M 0.253336,-0.041991 A 0.0012,1.9199949300836897e-06 1.1287376861618063e-20 0,1 0.254534,-0.041989" />
      <path d="M 0.254534,-0.041989 A 0.0012,1.9199949300836897e-06 1.1287376861618063e-20 0,1 0.252134,-0.041989" />
      <path d="M 0.252134,-0.041989 A 0.0012,1.9199949300836897e-06 1.1287376861618063e-20 0,1 0.253336,-0.041991" />
      <line x1="0.25333" y1="-0.041985" x2="0.25333" y2="-0.031985" />
      <line x1="0.270685" y1="-1.5e-05" x2="0.270685" y2="1.3e-05" />
      <line x1="0.253332" y1="-0.041987" x2="0.253332" y2="-0.031987" />
      <line x1="0.253355" y1="-0.042009" x2="0.253355" y2="-0.032013" />
      <line x1="0.247546" y1="-0.042" x2="0.247546" y2="-0.032" />
      <line x1="0.259146" y1="-0.042" x2="0.259146" y2="-0.032" />
      <line x1="0.253336" y1="-0.041991" x2="0.253336" y2="-0.032009" />
      <line x1="0.254557" y1="-1.1e-05" x2="0.254557" y2="0.009989" />
      <line x1="0.252157" y1="-1.1e-05" x2="0.252157" y2="0.009989" />
      <line x1="0.247546" y1="-0.0" x2="0.247546" y2="0.01" />
      <line x1="0.245146" y1="-0.0" x2="0.245146" y2="0.01" />
      <line x1="0.259146" y1="-0.0" x2="0.259146" y2="0.01" />
      <line x1="0.247546" y1="-0.0" x2="0.247546" y2="0.01" />
      <line x1="0.261546" y1="-0.0" x2="0.261546" y2="0.01" />
      <line x1="0.259146" y1="-0.0" x2="0.259146" y2="0.01" />
      <line x1="0.254534" y1="1.1e-05" x2="0.254534" y2="0.010011" />
      <line x1="0.252134" y1="1.1e-05" x2="0.252134" y2="0.010011" />
      <line x1="0.254557" y1="-0.042011" x2="0.254557" y2="-0.032011" />
      <line x1="0.252157" y1="-0.042011" x2="0.252157" y2="-0.032011" />
      <line x1="0.247546" y1="-0.042" x2="0.247546" y2="-0.032" />
      <line x1="0.245146" y1="-0.042" x2="0.245146" y2="-0.032" />
      <line x1="0.259146" y1="-0.042" x2="0.259146" y2="-0.032" />
      <line x1="0.247546" y1="-0.042" x2="0.247546" y2="-0.032" />
      <line x1="0.261546" y1="-0.042" x2="0.261546" y2="-0.032" />
      <line x1="0.259146" y1="-0.042" x2="0.259146" y2="-0.032" />
      <line x1="0.254534" y1="-0.041989" x2="0.254534" y2="-0.031989" />
      <line x1="0.252134" y1="-0.041989" x2="0.252134" y2="-0.031989" />
    </g>
  </g>
  <text x="0.031277" y="-0.021340" text-anchor="middle" font-family="'Input Sans Narrow', 'DejaVu Sans', Arial, sans-serif" font-size="0.002500" font-weight="bold" fill="#333">A-A</text>
  <text x="0.031277" y="-0.017840" text-anchor="middle" font-family="'Input Sans Narrow', 'DejaVu Sans', Arial, sans-serif" font-size="0.001800" fill="#888">front_horn</text>
  <line x1="0.000000" y1="0.013200" x2="0.000000" y2="0.016200" stroke="#5C7080" stroke-width="0.000140" stroke-opacity="0.5"/>
  <line x1="0.062553" y1="0.013200" x2="0.062553" y2="0.016200" stroke="#5C7080" stroke-width="0.000140" stroke-opacity="0.5"/>
  <line x1="0.000000" y1="0.014600" x2="0.000000" y2="0.016200" stroke="#5C7080" stroke-width="0.000200"/>
  <line x1="0.062553" y1="0.014600" x2="0.062553" y2="0.016200" stroke="#5C7080" stroke-width="0.000200"/>
  <line x1="0.000000" y1="0.015400" x2="0.062553" y2="0.015400" stroke="#5C7080" stroke-width="0.000200"/>
  <polygon points="0.000000,0.015400 0.001500,0.014800 0.001500,0.016000" fill="#5C7080"/>
  <polygon points="0.062553,0.015400 0.061053,0.014800 0.061053,0.016000" fill="#5C7080"/>
  <text x="0.031277" y="0.014200" text-anchor="middle" font-family="'Input Sans Narrow', 'DejaVu Sans', Arial, sans-serif" font-size="0.001600" fill="#5C7080">62.6</text>
  <line x1="0.063353" y1="-0.012400" x2="0.066353" y2="-0.012400" stroke="#5C7080" stroke-width="0.000140" stroke-opacity="0.5"/>
  <line x1="0.063353" y1="0.012400" x2="0.066353" y2="0.012400" stroke="#5C7080" stroke-width="0.000140" stroke-opacity="0.5"/>
  <line x1="0.064753" y1="-0.012400" x2="0.066353" y2="-0.012400" stroke="#5C7080" stroke-width="0.000200"/>
  <line x1="0.064753" y1="0.012400" x2="0.066353" y2="0.012400" stroke="#5C7080" stroke-width="0.000200"/>
  <line x1="0.065553" y1="-0.012400" x2="0.065553" y2="0.012400" stroke="#5C7080" stroke-width="0.000200"/>
  <polygon points="0.065553,-0.012400 0.064953,-0.010900 0.066153,-0.010900" fill="#5C7080"/>
  <polygon points="0.065553,0.012400 0.064953,0.010900 0.066153,0.010900" fill="#5C7080"/>
  <text x="0.067053" y="0.000000" text-anchor="middle" dominant-baseline="central" font-family="'Input Sans Narrow', 'DejaVu Sans', Arial, sans-serif" font-size="0.001600" fill="#5C7080" transform="rotate(-90 0.067053 0.000000)">24.8</text>
  <text x="0.101830" y="-0.021340" text-anchor="middle" font-family="'Input Sans Narrow', 'DejaVu Sans', Arial, sans-serif" font-size="0.002500" font-weight="bold" fill="#333">B-B</text>
  <text x="0.101830" y="-0.017840" text-anchor="middle" font-family="'Input Sans Narrow', 'DejaVu Sans', Arial, sans-serif" font-size="0.001800" fill="#888">mid_body</text>
  <text x="0.173991" y="-0.021340" text-anchor="middle" font-family="'Input Sans Narrow', 'DejaVu Sans', Arial, sans-serif" font-size="0.002500" font-weight="bold" fill="#333">C-C</text>
  <text x="0.173991" y="-0.017840" text-anchor="middle" font-family="'Input Sans Narrow', 'DejaVu Sans', Arial, sans-serif" font-size="0.001800" fill="#888">rear_horn</text>
  <line x1="0.141107" y1="0.016465" x2="0.141107" y2="0.019465" stroke="#5C7080" stroke-width="0.000140" stroke-opacity="0.5"/>
  <line x1="0.206875" y1="0.016465" x2="0.206875" y2="0.019465" stroke="#5C7080" stroke-width="0.000140" stroke-opacity="0.5"/>
  <line x1="0.141107" y1="0.017865" x2="0.141107" y2="0.019465" stroke="#5C7080" stroke-width="0.000200"/>
  <line x1="0.206875" y1="0.017865" x2="0.206875" y2="0.019465" stroke="#5C7080" stroke-width="0.000200"/>
  <line x1="0.141107" y1="0.018665" x2="0.206875" y2="0.018665" stroke="#5C7080" stroke-width="0.000200"/>
  <polygon points="0.141107,0.018665 0.142607,0.018065 0.142607,0.019265" fill="#5C7080"/>
  <polygon points="0.206875,0.018665 0.205375,0.018065 0.205375,0.019265" fill="#5C7080"/>
  <text x="0.173991" y="0.017465" text-anchor="middle" font-family="'Input Sans Narrow', 'DejaVu Sans', Arial, sans-serif" font-size="0.001600" fill="#5C7080">65.8</text>
  <line x1="0.207675" y1="-0.015665" x2="0.210675" y2="-0.015665" stroke="#5C7080" stroke-width="0.000140" stroke-opacity="0.5"/>
  <line x1="0.207675" y1="0.015665" x2="0.210675" y2="0.015665" stroke="#5C7080" stroke-width="0.000140" stroke-opacity="0.5"/>
  <line x1="0.209075" y1="-0.015665" x2="0.210675" y2="-0.015665" stroke="#5C7080" stroke-width="0.000200"/>
  <line x1="0.209075" y1="0.015665" x2="0.210675" y2="0.015665" stroke="#5C7080" stroke-width="0.000200"/>
  <line x1="0.209875" y1="-0.015665" x2="0.209875" y2="0.015665" stroke="#5C7080" stroke-width="0.000200"/>
  <polygon points="0.209875,-0.015665 0.209275,-0.014165 0.210475,-0.014165" fill="#5C7080"/>
  <polygon points="0.209875,0.015665 0.209275,0.014165 0.210475,0.014165" fill="#5C7080"/>
  <text x="0.211375" y="0.000000" text-anchor="middle" dominant-baseline="central" font-family="'Input Sans Narrow', 'DejaVu Sans', Arial, sans-serif" font-size="0.001600" fill="#5C7080" transform="rotate(-90 0.211375 0.000000)">31.3</text>
  <text x="0.247795" y="-0.021340" text-anchor="middle" font-family="'Input Sans Narrow', 'DejaVu Sans', Arial, sans-serif" font-size="0.002500" font-weight="bold" fill="#333">side_XZ</text>
  <line x1="0.214875" y1="0.042815" x2="0.214875" y2="0.045815" stroke="#5C7080" stroke-width="0.000140" stroke-opacity="0.5"/>
  <line x1="0.280714" y1="0.042815" x2="0.280714" y2="0.045815" stroke="#5C7080" stroke-width="0.000140" stroke-opacity="0.5"/>
  <line x1="0.214875" y1="0.044215" x2="0.214875" y2="0.045815" stroke="#5C7080" stroke-width="0.000200"/>
  <line x1="0.280714" y1="0.044215" x2="0.280714" y2="0.045815" stroke="#5C7080" stroke-width="0.000200"/>
  <line x1="0.214875" y1="0.045015" x2="0.280714" y2="0.045015" stroke="#5C7080" stroke-width="0.000200"/>
  <polygon points="0.214875,0.045015 0.216375,0.044415 0.216375,0.045615" fill="#5C7080"/>
  <polygon points="0.280714,0.045015 0.279214,0.044415 0.279214,0.045615" fill="#5C7080"/>
  <text x="0.247795" y="0.043815" text-anchor="middle" font-family="'Input Sans Narrow', 'DejaVu Sans', Arial, sans-serif" font-size="0.001600" fill="#5C7080">65.8</text>
  <line x1="0.281514" y1="-0.010015" x2="0.284514" y2="-0.010015" stroke="#5C7080" stroke-width="0.000140" stroke-opacity="0.5"/>
  <line x1="0.281514" y1="0.042015" x2="0.284514" y2="0.042015" stroke="#5C7080" stroke-width="0.000140" stroke-opacity="0.5"/>
  <line x1="0.282914" y1="-0.010015" x2="0.284514" y2="-0.010015" stroke="#5C7080" stroke-width="0.000200"/>
  <line x1="0.282914" y1="0.042015" x2="0.284514" y2="0.042015" stroke="#5C7080" stroke-width="0.000200"/>
  <line x1="0.283714" y1="-0.010015" x2="0.283714" y2="0.042015" stroke="#5C7080" stroke-width="0.000200"/>
  <polygon points="0.283714,-0.010015 0.283114,-0.008515 0.284314,-0.008515" fill="#5C7080"/>
  <polygon points="0.283714,0.042015 0.283114,0.040515 0.284314,0.040515" fill="#5C7080"/>
  <text x="0.285214" y="0.016000" text-anchor="middle" dominant-baseline="central" font-family="'Input Sans Narrow', 'DejaVu Sans', Arial, sans-serif" font-size="0.001600" fill="#5C7080" transform="rotate(-90 0.285214 0.016000)">52.0</text>
  <line x1="0.211875" y1="-0.000000" x2="0.283714" y2="-0.000000" stroke="#555" stroke-width="0.000250" stroke-dasharray="0.002500,0.000800,0.000500,0.000800"/>
  <text x="0.210375" y="0.000600" text-anchor="end" font-family="'Input Sans Narrow', 'DejaVu Sans', Arial, sans-serif" font-size="0.002000" font-weight="bold" fill="#555">A</text>
  <text x="0.285214" y="0.000600" text-anchor="start" font-family="'Input Sans Narrow', 'DejaVu Sans', Arial, sans-serif" font-size="0.002000" font-weight="bold" fill="#555">A</text>
  <line x1="0.211875" y1="0.016000" x2="0.283714" y2="0.016000" stroke="#555" stroke-width="0.000250" stroke-dasharray="0.002500,0.000800,0.000500,0.000800"/>
  <text x="0.210375" y="0.016600" text-anchor="end" font-family="'Input Sans Narrow', 'DejaVu Sans', Arial, sans-serif" font-size="0.002000" font-weight="bold" fill="#555">B</text>
  <text x="0.285214" y="0.016600" text-anchor="start" font-family="'Input Sans Narrow', 'DejaVu Sans', Arial, sans-serif" font-size="0.002000" font-weight="bold" fill="#555">B</text>
  <line x1="0.211875" y1="0.032000" x2="0.283714" y2="0.032000" stroke="#555" stroke-width="0.000250" stroke-dasharray="0.002500,0.000800,0.000500,0.000800"/>
  <text x="0.210375" y="0.032600" text-anchor="end" font-family="'Input Sans Narrow', 'DejaVu Sans', Arial, sans-serif" font-size="0.002000" font-weight="bold" fill="#555">C</text>
  <text x="0.285214" y="0.032600" text-anchor="start" font-family="'Input Sans Narrow', 'DejaVu Sans', Arial, sans-serif" font-size="0.002000" font-weight="bold" fill="#555">C</text>
  <text x="-0.001175" y="0.050190" font-family="'Input Sans Narrow', 'DejaVu Sans', Arial, sans-serif" font-size="0.003500" font-weight="bold" fill="#222">coupler_assembly</text>
  <line x1="-0.001175" y1="0.054190" x2="0.008825" y2="0.054190" stroke="#333" stroke-width="0.000350"/>
  <line x1="-0.001175" y1="0.053190" x2="-0.001175" y2="0.055190" stroke="#333" stroke-width="0.000250"/>
  <line x1="0.008825" y1="0.053190" x2="0.008825" y2="0.055190" stroke="#333" stroke-width="0.000250"/>
  <text x="0.010325" y="0.054890" font-family="'Input Sans Narrow', 'DejaVu Sans', Arial, sans-serif" font-size="0.001800" fill="#888">10 mm</text>
  <rect x="0.028825" y="0.047690" width="0.004000" height="0.002500" fill="url(#hatch_cradle)" stroke="rgb(50,120,190)" stroke-width="0.000300"/>
  <text x="0.034325" y="0.049690" font-family="'Input Sans Narrow', 'DejaVu Sans', Arial, sans-serif" font-size="0.001800" fill="rgb(50,120,190)">cradle</text>
  <rect x="0.028825" y="0.051190" width="0.004000" height="0.002500" fill="url(#hatch_servo)" stroke="rgb(60,60,60)" stroke-width="0.000300"/>
  <text x="0.034325" y="0.053190" font-family="'Input Sans Narrow', 'DejaVu Sans', Arial, sans-serif" font-size="0.001800" fill="rgb(60,60,60)">servo</text>
  <rect x="0.028825" y="0.054690" width="0.004000" height="0.002500" fill="url(#hatch_coupler)" stroke="rgb(220,60,40)" stroke-width="0.000300"/>
  <text x="0.034325" y="0.056690" font-family="'Input Sans Narrow', 'DejaVu Sans', Arial, sans-serif" font-size="0.001800" fill="rgb(220,60,40)">coupler</text>
</svg>