<?xml version='1.0' encoding='utf-8'?>
<svg width="266.41mm" height="82.33mm" viewBox="-0.003175 -0.024375 0.266413 0.082326" version="1.1" xmlns="http://www.w3.org/2000/svg">
  <defs>
    <pattern id="hatch_servo" width="0.0012" height="0.0012" patternUnits="userSpaceOnUse" patternTransform="rotate(45)">
      <line x1="0" y1="0" x2="0" y2="0.0012" stroke="rgb(60,60,60)" stroke-width="0.0001" stroke-opacity="0.6"/>
    </pattern>
    <pattern id="hatch_cradle" width="0.0012" height="0.0012" patternUnits="userSpaceOnUse" patternTransform="rotate(75)">
      <line x1="0" y1="0" x2="0" y2="0.0012" stroke="rgb(50,120,190)" stroke-width="0.0001" stroke-opacity="0.6"/>
    </pattern>
  </defs>
  <g transform="scale(1,-1)" stroke-linecap="round">
    <g fill="none" stroke="rgb(60,60,60)" stroke-width="0.00035" id="servo">
      <line x1="0.028" y1="-0.008" x2="0.028" y2="0.008" />
      <path d="M 0.028,-0.008 A 0.002,0.002 -90.0 0,1 0.03,-0.01" />
      <line x1="0.03" y1="-0.01" x2="0.046" y2="-0.01" />
      <path d="M 0.048,-0.008 A 0.002,0.002 -90.0 0,0 0.046,-0.01" />
      <line x1="0.048" y1="-0.008" x2="0.048" y2="0.008" />
      <path d="M 0.048,0.008 A 0.002,0.002 -90.0 0,1 0.046,0.01" />
      <line x1="0.03" y1="0.01" x2="0.046" y2="0.01" />
      <path d="M 0.028,0.008 A 0.002,0.002 -90.0 0,0 0.03,0.01" />
      <circle cx="0.094" cy="0.0" r="0.003" />
      <line x1="0.0608" y1="-0.0084" x2="0.0608" y2="-0.0124" />
      <line x1="0.0608" y1="-0.0084" x2="0.1012" y2="-0.0084" />
      <line x1="0.1012" y1="-0.0084" x2="0.1012" y2="-0.0124" />
      <line x1="0.0608" y1="-0.0124" x2="0.1012" y2="-0.0124" />
      <circle cx="0.0645" cy="-0.01025" r="0.0016" />
      <circle cx="0.0815" cy="-0.01025" r="0.0016" />
      <circle cx="0.0985" cy="-0.01025" r="0.0016" />
      <line x1="0.0608" y1="0.0124" x2="0.1012" y2="0.0124" />
      <line x1="0.1012" y1="0.0124" x2="0.1012" y2="0.0084" />
      <line x1="0.0608" y1="0.0084" x2="0.1012" y2="0.0084" />
      <line x1="0.0608" y1="0.0124" x2="0.0608" y2="0.0084" />
      <circle cx="0.0645" cy="0.01025" r="0.0016" />
      <circle cx="0.0815" cy="0.01025" r="0.0016" />
      <circle cx="0.0985" cy="0.01025" r="0.0016" />
      <line x1="0.07045" y1="-0.00705" x2="0.07045" y2="0.00705" />
      <line x1="0.07655" y1="0.00705" x2="0.07045" y2="0.00705" />
      <line x1="0.07655" y1="-0.00705" x2="0.07655" y2="0.00705" />
      <line x1="0.07655" y1="-0.00705" x2="0.07045" y2="-0.00705" />
      <line x1="0.07585" y1="-0.00635" x2="0.07585" y2="-0.00205" />
      <line x1="0.07585" y1="-0.00205" x2="0.07115" y2="-0.00205" />
      <line x1="0.07115" y1="-0.00635" x2="0.07115" y2="-0.00205" />
      <line x1="0.07585" y1="-0.00635" x2="0.07115" y2="-0.00635" />
      <line x1="0.07585" y1="-0.00135" x2="0.07585" y2="0.00135" />
      <line x1="0.07585" y1="0.00135" x2="0.07115" y2="0.00135" />
      <line x1="0.07115" y1="-0.00135" x2="0.07115" y2="0.00135" />
      <line x1="0.07585" y1="-0.00135" x2="0.07115" y2="-0.00135" />
      <line x1="0.07585" y1="0.00205" x2="0.07115" y2="0.00205" />
      <line x1="0.07585" y1="0.00205" x2="0.07585" y2="0.00635" />
      <line x1="0.07585" y1="0.00635" x2="0.07115" y2="0.00635" />
      <line x1="0.07115" y1="0.00205" x2="0.07115" y2="0.00635" />
      <path d="M 0.116,0.0124 A 0.004,0.004 180.0 0,1 0.112,0.0084" />
      <line x1="0.116" y1="0.0124" x2="0.1534" y2="0.0124" />
      <path d="M 0.1574,0.0084 A 0.004,0.004 0.0 0,1 0.1534,0.0124" />
      <line x1="0.1574" y1="0.0084" x2="0.1574" y2="-0.0084" />
      <path d="M 0.1534,-0.0124 A 0.004,0.004 0.0 0,1 0.1574,-0.0084" />
      <line x1="0.116" y1="-0.0124" x2="0.1534" y2="-0.0124" />
      <path d="M 0.112,-0.0084 A 0.004,0.004 180.0 0,1 0.116,-0.0124" />
      <line x1="0.112" y1="0.0084" x2="0.112" y2="-0.0084" />
      <line x1="0.168243" y1="-0.032613" x2="0.168243" y2="-1.4e-05" />
      <line x1="0.168243" y1="-1.4e-05" x2="0.168263" y2="1.4e-05" />
      <path d="M 0.168243,-1.4e-05 A 0.004,6.453338570090055e-06 -9.225807935735018e-22 0,1 0.172238,-2e-05" />
      <path d="M 0.168243,-0.032613 A 0.004,6.453338570090055e-06 -9.225807935735018e-22 0,1 0.170239,-0.032619" />
      <path d="M 0.170239,-0.032619 A 0.004,6.453338570090055e-06 -9.225807935735018e-22 0,1 0.172238,-0.03262" />
      <line x1="0.172238" y1="-0.03262" x2="0.172238" y2="-2e-05" />
      <path d="M 0.213643,-0.032614 A 0.004,6.453338570090055e-06 180.0 0,0 0.210638,-0.03262" />
      <line x1="0.213643" y1="-0.032614" x2="0.213663" y2="-0.032586" />
      <path d="M 0.168263,1.4e-05 A 0.004,6.453338570090055e-06 180.0 0,0 0.172268,2e-05" />
      <line x1="0.172238" y1="-2e-05" x2="0.209638" y2="-2e-05" />
      <line x1="0.172268" y1="2e-05" x2="0.193443" y2="2e-05" />
      <path d="M 0.213643,-1.4e-05 A 0.004,6.453338570090055e-06 180.0 0,0 0.209638,-2e-05" />
      <path d="M 0.213663,1.3e-05 A 0.004,6.453338570090055e-06 -9.225807935735018e-22 0,1 0.213463,1.6e-05" />
      <line x1="0.213643" y1="-1.4e-05" x2="0.213663" y2="1.3e-05" />
      <path d="M 0.193443,-1.3e-05 A 0.002,3.2266692850450277e-06 -9.225807935735018e-22 0,1 0.195441,-1.6e-05" />
      <line x1="0.195441" y1="-1.6e-05" x2="0.211441" y2="-1.6e-05" />
      <path d="M 0.213443,-1.3e-05 A 0.002,3.2266692850450277e-06 180.0 0,0 0.211441,-1.6e-05" />
      <line x1="0.213443" y1="-1.3e-05" x2="0.213463" y2="1.3e-05" />
      <line x1="0.170238" y1="-0.03262" x2="0.170239" y2="-0.032619" />
      <line x1="0.170238" y1="-0.03262" x2="0.172238" y2="-0.03262" />
      <line x1="0.209638" y1="-0.03262" x2="0.209638" y2="-2e-05" />
      <line x1="0.209638" y1="-0.03262" x2="0.210638" y2="-0.03262" />
      <line x1="0.210638" y1="-0.03472" x2="0.210638" y2="-0.03262" />
      <line x1="0.170238" y1="-0.03472" x2="0.210638" y2="-0.03472" />
      <line x1="0.170238" y1="-0.03472" x2="0.170238" y2="-0.03262" />
      <line x1="0.210643" y1="-0.034714" x2="0.210643" y2="-0.03262" />
      <line x1="0.210643" y1="-0.034686" x2="0.210663" y2="-0.034686" />
      <line x1="0.210663" y1="-0.034686" x2="0.210663" y2="-0.03262" />
      <line x1="0.210638" y1="-0.03472" x2="0.210643" y2="-0.034714" />
      <line x1="0.210668" y1="-0.03468" x2="0.210668" y2="-0.03262" />
      <line x1="0.210663" y1="-0.034686" x2="0.210668" y2="-0.03468" />
      <line x1="0.213643" y1="-0.032614" x2="0.213643" y2="-1.4e-05" />
      <path d="M 0.210638,-0.03262 A 0.004,6.453338570090055e-06 180.0 0,0 0.209638,-0.03262" />
      <line x1="0.213663" y1="1.3e-05" x2="0.213663" y2="-0.032586" />
      <path d="M 0.210668,-0.03258 A 0.004,6.453338570090055e-06 -9.225807935735018e-22 0,1 0.209668,-0.03258" />
      <path d="M 0.193443,0.001687 A 0.002,3.2266692850450277e-06 -9.225807935735018e-22 0,1 0.195441,0.001684" />
      <line x1="0.195441" y1="0.001684" x2="0.211441" y2="0.001684" />
      <path d="M 0.213443,0.001687 A 0.002,3.2266692850450277e-06 180.0 0,0 0.211441,0.001684" />
      <line x1="0.213443" y1="0.001687" x2="0.213463" y2="0.001713" />
      <path d="M 0.213463,0.001713 A 0.002,3.2266692850450277e-06 -9.225807935735018e-22 0,1 0.211465,0.001716" />
      <line x1="0.195465" y1="0.001716" x2="0.198953" y2="0.001716" />
      <line x1="0.207953" y1="0.001716" x2="0.211465" y2="0.001716" />
      <path d="M 0.193463,0.001713 A 0.002,3.2266692850450277e-06 180.0 0,0 0.195465,0.001716" />
      <line x1="0.193443" y1="0.001687" x2="0.193463" y2="0.001713" />
      <path d="M 0.198953,0.0017 A 0.004500000000000004,7.260005891351318e-06 -1.5303524409334729e-21 0,1 0.207953,0.0017" />
      <path d="M 0.207953,0.0032 A 0.004500000000000004,7.260005891351318e-06 -1.5303524409334729e-21 0,1 0.198953,0.0032" />
      <path d="M 0.198953,0.0032 A 0.004500000000000004,7.260005891351318e-06 -1.5303524409334729e-21 0,1 0.207953,0.0032" />
      <line x1="0.193443" y1="-1.3e-05" x2="0.193443" y2="0.001687" />
      <line x1="0.195441" y1="-1.6e-05" x2="0.195441" y2="0.001684" />
      <line x1="0.211441" y1="-1.6e-05" x2="0.211441" y2="0.001684" />
      <line x1="0.213443" y1="-1.3e-05" x2="0.213443" y2="0.001687" />
      <line x1="0.213463" y1="1.3e-05" x2="0.213463" y2="0.001713" />
      <line x1="0.168243" y1="-0.032613" x2="0.168243" y2="-1.4e-05" />
      <line x1="0.213663" y1="-0.032586" x2="0.213663" y2="1.3e-05" />
      <line x1="0.193443" y1="-1.3e-05" x2="0.193443" y2="0.001687" />
      <line x1="0.213463" y1="1.3e-05" x2="0.213463" y2="0.001713" />
      <line x1="0.207953" y1="0.0017" x2="0.207953" y2="0.0032" />
      <line x1="0.198953" y1="0.0017" x2="0.198953" y2="0.0032" />
      <path d="M 0.226863,3.6e-05 A 0.004,6.445445262004952e-06 -8.199752028407122e-38 0,1 0.224463,3.1e-05" />
      <path d="M 0.228463,-0.032636 A 0.004,6.445445262004952e-06 180.0 0,0 0.22459,-0.032631" />
      <line x1="0.228463" y1="-0.032636" x2="0.245263" y2="-0.032636" />
      <path d="M 0.245263,-0.032636 A 0.004,6.445445262004952e-06 -8.199752028407122e-38 0,1 0.249136,-0.032631" />
      <path d="M 0.246863,3.6e-05 A 0.004,6.445445262004952e-06 180.0 0,0 0.249263,3.1e-05" />
      <line x1="0.224463" y1="3.1e-05" x2="0.224463" y2="-3e-05" />
      <line x1="0.249263" y1="3.1e-05" x2="0.249263" y2="-3e-05" />
      <path d="M 0.228463,-3.6e-05 A 0.004,6.445445262004952e-06 180.0 0,0 0.224463,-3e-05" />
      <path d="M 0.245263,-3.6e-05 A 0.004,6.445445262004952e-06 -8.199752028407122e-38 0,1 0.249263,-3e-05" />
      <line x1="0.228463" y1="-3.6e-05" x2="0.245263" y2="-3.6e-05" />
      <path d="M 0.228863,-3.6e-05 A 0.002,3.222722631002476e-06 180.0 0,0 0.226863,-3.3e-05" />
      <line x1="0.228863" y1="-3.6e-05" x2="0.244863" y2="-3.6e-05" />
      <path d="M 0.244863,-3.6e-05 A 0.002,3.222722631002476e-06 -8.199752028407122e-38 0,1 0.246863,-3.3e-05" />
      <line x1="0.224463" y1="-0.03263" x2="0.224463" y2="-3e-05" />
      <line x1="0.224463" y1="-0.03263" x2="0.224463" y2="-0.032631" />
      <line x1="0.224463" y1="-0.034731" x2="0.224463" y2="-0.032631" />
      <line x1="0.228463" y1="-0.034731" x2="0.228463" y2="-0.032636" />
      <line x1="0.245263" y1="-0.034731" x2="0.245263" y2="-0.032636" />
      <line x1="0.224463" y1="-0.032631" x2="0.22459" y2="-0.032631" />
      <line x1="0.224463" y1="-0.034731" x2="0.228463" y2="-0.034731" />
      <line x1="0.249136" y1="-0.032631" x2="0.249263" y2="-0.032631" />
      <line x1="0.249263" y1="-0.034731" x2="0.249263" y2="-0.032631" />
      <line x1="0.245263" y1="-0.034731" x2="0.249263" y2="-0.034731" />
      <line x1="0.228463" y1="-0.032636" x2="0.228463" y2="-3.6e-05" />
      <path d="M 0.22459,-0.032631 A 0.004,6.445445262004952e-06 180.0 0,0 0.224463,-0.03263" />
      <line x1="0.249263" y1="-3e-05" x2="0.249263" y2="-0.03263" />
      <line x1="0.245263" y1="-3.6e-05" x2="0.245263" y2="-0.032636" />
      <path d="M 0.249136,-0.032631 A 0.004,6.445445262004952e-06 -8.199752028407122e-38 0,1 0.249263,-0.03263" />
      <path d="M 0.236863,-0.033925 A 0.003,4.8340839465037136e-06 -4.333896047866202e-38 0,1 0.239863,-0.03392" />
      <path d="M 0.233863,-0.03392 A 0.003,4.8340839465037136e-06 -4.333896047866202e-38 0,1 0.236863,-0.033925" />
      <line x1="0.229813" y1="-0.032636" x2="0.229813" y2="-0.034692" />
      <line x1="0.243913" y1="-0.032636" x2="0.243913" y2="-0.034692" />
      <line x1="0.229813" y1="-0.034692" x2="0.243913" y2="-0.034692" />
      <line x1="0.249263" y1="-0.03263" x2="0.249263" y2="-0.032631" />
      <path d="M 0.228863,0.001696 A 0.002,3.222722631002476e-06 -8.199752028407122e-38 0,1 0.226863,0.001693" />
      <line x1="0.226863" y1="-3.3e-05" x2="0.226863" y2="0.001667" />
      <line x1="0.226863" y1="0.001693" x2="0.226863" y2="0.001667" />
      <path d="M 0.228863,0.001664 A 0.002,3.222722631002476e-06 180.0 0,0 0.226863,0.001667" />
      <line x1="0.228863" y1="0.001664" x2="0.244863" y2="0.001664" />
      <line x1="0.246863" y1="-3.3e-05" x2="0.246863" y2="0.001667" />
      <path d="M 0.244863,0.001664 A 0.002,3.222722631002476e-06 -8.199752028407122e-38 0,1 0.246863,0.001667" />
      <line x1="0.246863" y1="0.001693" x2="0.246863" y2="0.001667" />
      <path d="M 0.244863,0.001696 A 0.002,3.222722631002476e-06 180.0 0,0 0.246863,0.001693" />
      <line x1="0.228863" y1="0.001696" x2="0.232363" y2="0.001696" />
      <line x1="0.241363" y1="0.001696" x2="0.244863" y2="0.001696" />
      <path d="M 0.236863,0.001673 A 0.0045,7.25112591975557e-06 -4.333896047866202e-38 0,1 0.241363,0.00168" />
      <path d="M 0.232363,0.00168 A 0.0045,7.25112591975557e-06 -4.333896047866202e-38 0,1 0.236863,0.001673" />
      <path d="M 0.236863,0.003173 A 0.0045,7.25112591975557e-06 -4.333896047866202e-38 0,1 0.241363,0.00318" />
      <path d="M 0.241363,0.00318 A 0.004500000000000004,7.251125919755577e-06 -4.333896047866202e-38 0,1 0.232363,0.00318" />
      <path d="M 0.232363,0.00318 A 0.0045,7.25112591975557e-06 -4.333896047866202e-38 0,1 0.236863,0.003173" />
      <line x1="0.228863" y1="-3.6e-05" x2="0.228863" y2="0.001664" />
      <line x1="0.244863" y1="-3.6e-05" x2="0.244863" y2="0.001664" />
      <line x1="0.239863" y1="-0.03392" x2="0.239863" y2="-0.032636" />
      <line x1="0.233863" y1="-0.03392" x2="0.233863" y2="-0.032636" />
      <line x1="0.241363" y1="0.00168" x2="0.241363" y2="0.00318" />
      <line x1="0.232363" y1="0.00168" x2="0.232363" y2="0.00318" />
    </g>
    <g fill="url(#hatch_servo)" stroke="none" stroke-width="0" id="servo_fill">
      <path d="M 0.028,0.008 L 0.028,-0.008 A 0.002,0.002 -90.0 0,1 0.03,-0.01 L 0.046,-0.01 A 0.002,0.002 -90.0 0,1 0.048,-0.008 L 0.048,0.008 A 0.002,0.002 -90.0 0,1 0.046,0.01 L 0.03,0.01 A 0.002,0.002 -90.0 0,1 0.028,0.008" />
      <circle cx="0.094" cy="0.0" r="0.003" />
      <path d="M 0.0608,-0.0084 L 0.0608,-0.0124 L 0.1012,-0.0124 L 0.1012,-0.0084 L 0.0608,-0.0084 M 0.0661,-0.01025 A 0.0016000000000000044,0.0016000000000000044 0.0 0,0 0.0629,-0.01025 A 0.0016000000000000044,0.0016000000000000044 0.0 0,0 0.0661,-0.01025 M 0.0831,-0.01025 A 0.0016,0.0016 0.0 0,0 0.0799,-0.01025 A 0.0016,0.0016 0.0 0,0 0.0831,-0.01025 M 0.1001,-0.01025 A 0.0016,0.0016 0.0 0,0 0.0969,-0.01025 A 0.0016,0.0016 0.0 0,0 0.1001,-0.01025" />
      <path d="M 0.1012,0.0124 L 0.0608,0.0124 L 0.0608,0.0084 L 0.1012,0.0084 L 0.1012,0.0124 M 0.0661,0.01025 A 0.0016000000000000044,0.0016000000000000044 0.0 0,0 0.0629,0.01025 A 0.0016000000000000044,0.0016000000000000044 0.0 0,0 0.0661,0.01025 M 0.0831,0.01025 A 0.0016,0.0016 0.0 0,0 0.0799,0.01025 A 0.0016,0.0016 0.0 0,0 0.0831,0.01025 M 0.1001,0.01025 A 0.0016,0.0016 0.0 0,0 0.0969,0.01025 A 0.0016,0.0016 0.0 0,0 0.1001,0.01025" />
      <path d="M 0.07045,0.00705 L 0.07045,-0.00705 L 0.07655,-0.00705 L 0.07655,0.00705 L 0.07045,0.00705 M 0.07585,-0.00205 L 0.07585,-0.00635 L 0.07115,-0.00635 L 0.07115,-0.00205 L 0.07585,-0.00205 M 0.07585,0.00135 L 0.07585,-0.00135 L 0.07115,-0.00135 L 0.07115,0.00135 L 0.07585,0.00135 M 0.07585,0.00205 L 0.07115,0.00205 L 0.07115,0.00635 L 0.07585,0.00635 L 0.07585,0.00205" />
      <path d="M 0.116,0.0124 A 0.004,0.004 180.0 0,1 0.112,0.0084 L 0.112,-0.0084 A 0.004,0.004 180.0 0,1 0.116,-0.0124 L 0.1534,-0.0124 A 0.004,0.004 0.0 0,1 0.1574,-0.0084 L 0.1574,0.0084 A 0.004,0.004 0.0 0,1 0.1534,0.0124 L 0.116,0.0124" />
    </g>
    <g fill="none" stroke="rgb(60,60,60)" stroke-opacity="0.4" stroke-width="0.00015" id="servo_hidden" stroke-dasharray="0.0018 0.00045">
      <line x1="0.168243" y1="-0.032613" x2="0.168263" y2="-0.032586" />
      <line x1="0.168263" y1="1.4e-05" x2="0.168263" y2="-0.032586" />
      <line x1="0.170239" y1="-0.032619" x2="0.170243" y2="-0.032613" />
      <line x1="0.170243" y1="-0.032613" x2="0.210643" y2="-0.032614" />
      <line x1="0.210638" y1="-0.03262" x2="0.210643" y2="-0.032614" />
      <path d="M 0.213663,-0.032586 A 0.004,6.453338570090055e-06 -9.225807935735018e-22 0,1 0.210668,-0.03258" />
      <line x1="0.210663" y1="-0.032586" x2="0.210668" y2="-0.03258" />
      <line x1="0.170263" y1="-0.032586" x2="0.210663" y2="-0.032586" />
      <line x1="0.170263" y1="-0.032586" x2="0.170268" y2="-0.032581" />
      <path d="M 0.168263,-0.032586 A 0.004,6.453338570090055e-06 180.0 0,0 0.170268,-0.032581" />
      <path d="M 0.206453,-0.0326 A 0.0030000000000000027,4.840003927567546e-06 -1.5303524409334729e-21 0,1 0.200453,-0.0326" />
      <path d="M 0.200453,-0.0326 A 0.0030000000000000027,4.840003927567546e-06 -1.5303524409334729e-21 0,1 0.206453,-0.0326" />
      <line x1="0.179894" y1="-0.032611" x2="0.185994" y2="-0.032611" />
      <line x1="0.179912" y1="-0.032589" x2="0.179894" y2="-0.032611" />
      <line x1="0.179912" y1="-0.032589" x2="0.186012" y2="-0.032589" />
      <line x1="0.185994" y1="-0.032611" x2="0.186012" y2="-0.032589" />
      <line x1="0.172268" y1="2e-05" x2="0.172268" y2="-0.03258" />
      <path d="M 0.170268,-0.032581 A 0.004,6.453338570090055e-06 180.0 0,0 0.172268,-0.03258" />
      <line x1="0.193443" y1="2e-05" x2="0.209668" y2="2e-05" />
      <path d="M 0.213463,1.6e-05 A 0.004,6.453338570090055e-06 -9.225807935735018e-22 0,1 0.209668,2e-05" />
      <path d="M 0.213463,1.3e-05 A 0.002,3.2266692850450277e-06 -9.225807935735018e-22 0,1 0.211465,1.6e-05" />
      <line x1="0.195465" y1="1.6e-05" x2="0.211465" y2="1.6e-05" />
      <path d="M 0.193463,1.3e-05 A 0.002,3.2266692850450277e-06 180.0 0,0 0.195465,1.6e-05" />
      <line x1="0.193443" y1="-1.3e-05" x2="0.193463" y2="1.3e-05" />
      <line x1="0.170243" y1="-0.034713" x2="0.170243" y2="-0.032613" />
      <line x1="0.170238" y1="-0.03472" x2="0.170243" y2="-0.034713" />
      <line x1="0.170263" y1="-0.034686" x2="0.170263" y2="-0.032586" />
      <line x1="0.170268" y1="-0.032581" x2="0.170268" y2="-0.03258" />
      <line x1="0.170268" y1="-0.03468" x2="0.170268" y2="-0.03258" />
      <line x1="0.170263" y1="-0.034686" x2="0.170268" y2="-0.03468" />
      <line x1="0.170243" y1="-0.034713" x2="0.210643" y2="-0.034714" />
      <line x1="0.210643" y1="-0.03262" x2="0.210643" y2="-0.032614" />
      <line x1="0.170263" y1="-0.034686" x2="0.210643" y2="-0.034686" />
      <line x1="0.210663" y1="-0.03262" x2="0.210663" y2="-0.032586" />
      <line x1="0.210668" y1="-0.03262" x2="0.210668" y2="-0.03258" />
      <line x1="0.209668" y1="2e-05" x2="0.209668" y2="-0.03258" />
      <path d="M 0.206453,-0.0339 A 0.0030000000000000027,4.840003927567546e-06 -1.5303524409334729e-21 0,1 0.200453,-0.0339" />
      <path d="M 0.200453,-0.0339 A 0.0030000000000000027,4.840003927567546e-06 -1.5303524409334729e-21 0,1 0.206453,-0.0339" />
      <line x1="0.179894" y1="-0.032611" x2="0.179894" y2="-0.034711" />
      <line x1="0.179912" y1="-0.032589" x2="0.179912" y2="-0.034689" />
      <line x1="0.179912" y1="-0.034689" x2="0.179894" y2="-0.034711" />
      <line x1="0.185994" y1="-0.032611" x2="0.185994" y2="-0.034711" />
      <line x1="0.185994" y1="-0.034711" x2="0.179894" y2="-0.034711" />
      <line x1="0.186012" y1="-0.032589" x2="0.186012" y2="-0.034689" />
      <line x1="0.185994" y1="-0.034711" x2="0.186012" y2="-0.034689" />
      <line x1="0.186012" y1="-0.034689" x2="0.179912" y2="-0.034689" />
      <line x1="0.209668" y1="-0.03258" x2="0.210668" y2="-0.03258" />
      <line x1="0.170268" y1="-0.03468" x2="0.210668" y2="-0.03468" />
      <line x1="0.170268" y1="-0.03258" x2="0.172268" y2="-0.03258" />
      <line x1="0.198953" y1="0.001716" x2="0.207953" y2="0.001716" />
      <path d="M 0.175541,-0.034716 A 0.0016000000000000044,2.581335428036029e-06 -1.5303524409334729e-21 0,1 0.172341,-0.034716" />
      <path d="M 0.172341,-0.034716 A 0.0016000000000000044,2.581335428036029e-06 -1.5303524409334729e-21 0,1 0.175541,-0.034716" />
      <path d="M 0.192541,-0.034717 A 0.0016,2.581335428036022e-06 -1.5303524409334729e-21 0,1 0.189341,-0.034717" />
      <path d="M 0.189341,-0.034717 A 0.0016,2.581335428036022e-06 -1.5303524409334729e-21 0,1 0.192541,-0.034717" />
      <path d="M 0.20954,-0.034717 A 0.0016000000000000044,2.581335428036029e-06 -1.5303524409334729e-21 0,1 0.20634,-0.034717" />
      <path d="M 0.20634,-0.034717 A 0.0016000000000000044,2.581335428036029e-06 -1.5303524409334729e-21 0,1 0.20954,-0.034717" />
      <path d="M 0.175566,-0.034683 A 0.0016000000000000044,2.581335428036029e-06 -1.5303524409334729e-21 0,1 0.172366,-0.034683" />
      <path d="M 0.172366,-0.034683 A 0.0016000000000000044,2.581335428036029e-06 -1.5303524409334729e-21 0,1 0.175566,-0.034683" />
      <path d="M 0.192566,-0.034683 A 0.0016,2.581335428036022e-06 -1.5303524409334729e-21 0,1 0.189366,-0.034683" />
      <path d="M 0.189366,-0.034683 A 0.0016,2.581335428036022e-06 -1.5303524409334729e-21 0,1 0.192566,-0.034683" />
      <path d="M 0.209566,-0.034683 A 0.0016000000000000044,2.581335428036029e-06 -1.5303524409334729e-21 0,1 0.206366,-0.034683" />
      <path d="M 0.206366,-0.034683 A 0.0016000000000000044,2.581335428036029e-06 -1.5303524409334729e-21 0,1 0.209566,-0.034683" />
      <line x1="0.185301" y1="-0.034703" x2="0.185295" y2="-0.03471" />
      <line x1="0.185301" y1="-0.034703" x2="0.180601" y2="-0.034703" />
      <line x1="0.180601" y1="-0.034703" x2="0.180595" y2="-0.03471" />
      <line x1="0.185295" y1="-0.03471" x2="0.180595" y2="-0.03471" />
      <line x1="0.185305" y1="-0.034698" x2="0.185301" y2="-0.034702" />
      <line x1="0.185305" y1="-0.034698" x2="0.180605" y2="-0.034698" />
      <line x1="0.180605" y1="-0.034698" x2="0.180601" y2="-0.034702" />
      <line x1="0.185301" y1="-0.034702" x2="0.180601" y2="-0.034702" />
      <line x1="0.180611" y1="-0.03469" x2="0.180606" y2="-0.034697" />
      <line x1="0.185306" y1="-0.034697" x2="0.180606" y2="-0.034697" />
      <line x1="0.185311" y1="-0.03469" x2="0.185306" y2="-0.034697" />
      <line x1="0.185311" y1="-0.03469" x2="0.180611" y2="-0.03469" />
      <path d="M 0.207953,0.0017 A 0.004500000000000004,7.260005891351318e-06 -1.5303524409334729e-21 0,1 0.198953,0.0017" />
      <path d="M 0.175541,-0.024716 A 0.0016000000000000044,2.581335428036029e-06 -1.5303524409334729e-21 0,1 0.172341,-0.024716" />
      <path d="M 0.172341,-0.024716 A 0.0016000000000000044,2.581335428036029e-06 -1.5303524409334729e-21 0,1 0.175541,-0.024716" />
      <path d="M 0.192541,-0.024717 A 0.0016,2.581335428036022e-06 -1.5303524409334729e-21 0,1 0.189341,-0.024717" />
      <path d="M 0.189341,-0.024717 A 0.0016,2.581335428036022e-06 -1.5303524409334729e-21 0,1 0.192541,-0.024717" />
      <path d="M 0.20954,-0.024717 A 0.0016000000000000044,2.581335428036029e-06 -1.5303524409334729e-21 0,1 0.20634,-0.024717" />
      <path d="M 0.20634,-0.024717 A 0.0016000000000000044,2.581335428036029e-06 -1.5303524409334729e-21 0,1 0.20954,-0.024717" />
      <path d="M 0.175566,-0.024683 A 0.0016000000000000044,2.581335428036029e-06 -1.5303524409334729e-21 0,1 0.172366,-0.024683" />
      <path d="M 0.172366,-0.024683 A 0.0016000000000000044,2.581335428036029e-06 -1.5303524409334729e-21 0,1 0.175566,-0.024683" />
      <path d="M 0.192566,-0.024683 A 0.0016,2.581335428036022e-06 -1.5303524409334729e-21 0,1 0.189366,-0.024683" />
      <path d="M 0.189366,-0.024683 A 0.0016,2.581335428036022e-06 -1.5303524409334729e-21 0,1 0.192566,-0.024683" />
      <path d="M 0.209566,-0.024683 A 0.0016000000000000044,2.581335428036029e-06 -1.5303524409334729e-21 0,1 0.206366,-0.024683" />
      <path d="M 0.206366,-0.024683 A 0.0016000000000000044,2.581335428036029e-06 -1.5303524409334729e-21 0,1 0.209566,-0.024683" />
      <line x1="0.185295" y1="-0.03261" x2="0.185295" y2="-0.03471" />
      <line x1="0.185301" y1="-0.034703" x2="0.185301" y2="-0.032603" />
      <line x1="0.185301" y1="-0.032603" x2="0.185295" y2="-0.03261" />
      <line x1="0.180595" y1="-0.03261" x2="0.180595" y2="-0.03471" />
      <line x1="0.180595" y1="-0.03261" x2="0.185295" y2="-0.03261" />
      <line x1="0.180601" y1="-0.034703" x2="0.180601" y2="-0.032603" />
      <line x1="0.180601" y1="-0.032603" x2="0.180595" y2="-0.03261" />
      <line x1="0.185301" y1="-0.032602" x2="0.185301" y2="-0.034702" />
      <line x1="0.185305" y1="-0.032598" x2="0.185305" y2="-0.034698" />
      <line x1="0.185305" y1="-0.032598" x2="0.185301" y2="-0.032602" />
      <line x1="0.180611" y1="-0.03259" x2="0.180606" y2="-0.032597" />
      <line x1="0.180606" y1="-0.032597" x2="0.180606" y2="-0.034697" />
      <line x1="0.180611" y1="-0.03259" x2="0.180611" y2="-0.03469" />
      <line x1="0.185311" y1="-0.03259" x2="0.185311" y2="-0.03469" />
      <line x1="0.180611" y1="-0.03259" x2="0.185311" y2="-0.03259" />
      <line x1="0.185311" y1="-0.03259" x2="0.185306" y2="-0.032597" />
      <line x1="0.185306" y1="-0.032597" x2="0.185306" y2="-0.034697" />
      <line x1="0.180601" y1="-0.032602" x2="0.180601" y2="-0.034702" />
      <line x1="0.180605" y1="-0.032598" x2="0.180605" y2="-0.034698" />
      <line x1="0.180605" y1="-0.032598" x2="0.180601" y2="-0.032602" />
      <line x1="0.180601" y1="-0.032603" x2="0.185301" y2="-0.032603" />
      <line x1="0.180606" y1="-0.032597" x2="0.185306" y2="-0.032597" />
      <line x1="0.180605" y1="-0.032598" x2="0.185305" y2="-0.032598" />
      <line x1="0.180601" y1="-0.032602" x2="0.185301" y2="-0.032602" />
      <line x1="0.206453" y1="-0.0339" x2="0.206453" y2="-0.0326" />
      <line x1="0.200453" y1="-0.0339" x2="0.200453" y2="-0.0326" />
      <line x1="0.175541" y1="-0.034716" x2="0.175541" y2="-0.024716" />
      <line x1="0.172341" y1="-0.034716" x2="0.172341" y2="-0.024716" />
      <line x1="0.192541" y1="-0.034717" x2="0.192541" y2="-0.024717" />
      <line x1="0.189341" y1="-0.034717" x2="0.189341" y2="-0.024717" />
      <line x1="0.20954" y1="-0.034717" x2="0.20954" y2="-0.024717" />
      <line x1="0.20634" y1="-0.034717" x2="0.20634" y2="-0.024717" />
      <line x1="0.175566" y1="-0.034683" x2="0.175566" y2="-0.024683" />
      <line x1="0.172366" y1="-0.034683" x2="0.172366" y2="-0.024683" />
      <line x1="0.192566" y1="-0.034683" x2="0.192566" y2="-0.024683" />
      <line x1="0.189366" y1="-0.034683" x2="0.189366" y2="-0.024683" />
      <line x1="0.209566" y1="-0.034683" x2="0.209566" y2="-0.024683" />
      <line x1="0.206366" y1="-0.034683" x2="0.206366" y2="-0.024683" />
      <line x1="0.211465" y1="1.6e-05" x2="0.211465" y2="0.001716" />
      <line x1="0.195465" y1="1.6e-05" x2="0.195465" y2="0.001716" />
      <line x1="0.193463" y1="1.3e-05" x2="0.193463" y2="0.001713" />
      <line x1="0.228463" y1="-0.032563" x2="0.228463" y2="3.7e-05" />
      <line x1="0.228463" y1="-0.032563" x2="0.245263" y2="-0.032563" />
      <line x1="0.245263" y1="3.7e-05" x2="0.245263" y2="-0.032563" />
      <line x1="0.228463" y1="3.7e-05" x2="0.245263" y2="3.7e-05" />
      <path d="M 0.228463,3.7e-05 A 0.004,6.445445262004952e-06 -8.199752028407122e-38 0,1 0.226863,3.6e-05" />
      <path d="M 0.228463,-0.032563 A 0.004,6.445445262004952e-06 -8.199752028407122e-38 0,1 0.224999,-0.032566" />
      <path d="M 0.224999,-0.032566 A 0.004,6.445445262004952e-06 -8.199752028407122e-38 0,1 0.224463,-0.032569" />
      <line x1="0.224463" y1="-0.032569" x2="0.224463" y2="3.1e-05" />
      <line x1="0.224999" y1="-0.032566" x2="0.228463" y2="-0.032566" />
      <line x1="0.228463" y1="-0.032566" x2="0.228463" y2="-0.032631" />
      <line x1="0.22459" y1="-0.032631" x2="0.228463" y2="-0.032631" />
      <line x1="0.245263" y1="-0.032631" x2="0.249136" y2="-0.032631" />
      <line x1="0.245263" y1="-0.032566" x2="0.245263" y2="-0.032631" />
      <line x1="0.245263" y1="-0.032566" x2="0.248727" y2="-0.032566" />
      <path d="M 0.245263,-0.032563 A 0.004,6.445445262004952e-06 180.0 0,0 0.248727,-0.032566" />
      <path d="M 0.236863,-0.032625 A 0.003,4.8340839465037136e-06 -4.333896047866202e-38 0,1 0.239863,-0.03262" />
      <path d="M 0.239863,-0.03262 A 0.0030000000000000027,4.834083946503718e-06 -4.333896047866202e-38 0,1 0.233863,-0.03262" />
      <path d="M 0.233863,-0.03262 A 0.003,4.8340839465037136e-06 -4.333896047866202e-38 0,1 0.236863,-0.032625" />
      <line x1="0.229813" y1="-0.032582" x2="0.229813" y2="-0.032592" />
      <line x1="0.243913" y1="-0.032582" x2="0.229813" y2="-0.032582" />
      <line x1="0.243913" y1="-0.032582" x2="0.243913" y2="-0.032592" />
      <line x1="0.229813" y1="-0.032592" x2="0.243913" y2="-0.032592" />
      <line x1="0.249263" y1="3.1e-05" x2="0.249263" y2="-0.032569" />
      <path d="M 0.245263,3.7e-05 A 0.004,6.445445262004952e-06 180.0 0,0 0.246863,3.6e-05" />
      <path d="M 0.248727,-0.032566 A 0.004,6.445445262004952e-06 180.0 0,0 0.249263,-0.032569" />
      <path d="M 0.228863,-4e-06 A 0.002,3.222722631002476e-06 -8.199752028407122e-38 0,1 0.226863,-7e-06" />
      <line x1="0.226863" y1="-7e-06" x2="0.226863" y2="-3.3e-05" />
      <line x1="0.246863" y1="-7e-06" x2="0.246863" y2="-3.3e-05" />
      <path d="M 0.244863,-4e-06 A 0.002,3.222722631002476e-06 180.0 0,0 0.246863,-7e-06" />
      <line x1="0.228863" y1="-4e-06" x2="0.244863" y2="-4e-06" />
      <line x1="0.224463" y1="-0.032566" x2="0.224999" y2="-0.032566" />
      <line x1="0.224463" y1="-0.032566" x2="0.224463" y2="-0.032569" />
      <line x1="0.224463" y1="-0.034666" x2="0.224463" y2="-0.034731" />
      <line x1="0.224463" y1="-0.034666" x2="0.224463" y2="-0.032566" />
      <line x1="0.228463" y1="-0.034666" x2="0.228463" y2="-0.032566" />
      <line x1="0.224463" y1="-0.034666" x2="0.228463" y2="-0.034666" />
      <line x1="0.245263" y1="-0.034666" x2="0.245263" y2="-0.032566" />
      <line x1="0.248727" y1="-0.032566" x2="0.249263" y2="-0.032566" />
      <line x1="0.249263" y1="-0.034666" x2="0.249263" y2="-0.032566" />
      <line x1="0.245263" y1="-0.034666" x2="0.249263" y2="-0.034666" />
      <line x1="0.228463" y1="-0.034666" x2="0.228463" y2="-0.034731" />
      <line x1="0.228463" y1="-0.032636" x2="0.228463" y2="-0.032631" />
      <line x1="0.245263" y1="-0.034666" x2="0.245263" y2="-0.034731" />
      <line x1="0.245263" y1="-0.032636" x2="0.245263" y2="-0.032631" />
      <path d="M 0.239863,-0.03392 A 0.0030000000000000027,4.834083946503718e-06 -4.333896047866202e-38 0,1 0.233863,-0.03392" />
      <line x1="0.229813" y1="-0.032582" x2="0.229813" y2="-0.034682" />
      <line x1="0.243913" y1="-0.032582" x2="0.243913" y2="-0.034682" />
      <line x1="0.243913" y1="-0.034682" x2="0.229813" y2="-0.034682" />
      <line x1="0.229813" y1="-0.032592" x2="0.229813" y2="-0.032636" />
      <line x1="0.229813" y1="-0.034692" x2="0.229813" y2="-0.034682" />
      <line x1="0.243913" y1="-0.032592" x2="0.243913" y2="-0.032636" />
      <line x1="0.243913" y1="-0.034692" x2="0.243913" y2="-0.034682" />
      <line x1="0.249263" y1="-0.034666" x2="0.249263" y2="-0.034731" />
      <line x1="0.249263" y1="-0.032566" x2="0.249263" y2="-0.032569" />
      <line x1="0.226863" y1="-7e-06" x2="0.226863" y2="0.001693" />
      <line x1="0.246863" y1="-7e-06" x2="0.246863" y2="0.001693" />
      <line x1="0.232363" y1="0.001696" x2="0.241363" y2="0.001696" />
      <path d="M 0.226613,-0.034675 A 0.0016,2.578178104801981e-06 -4.333896047866202e-38 0,1 0.228213,-0.034672" />
      <path d="M 0.228213,-0.034672 A 0.0016000000000000044,2.5781781048019877e-06 -4.333896047866202e-38 0,1 0.225013,-0.034672" />
      <path d="M 0.225013,-0.034672 A 0.0016,2.578178104801981e-06 -4.333896047866202e-38 0,1 0.226613,-0.034675" />
      <path d="M 0.226613,-0.034702 A 0.0016,2.578178104801981e-06 -4.333896047866202e-38 0,1 0.228213,-0.0347" />
      <path d="M 0.228213,-0.0347 A 0.0016000000000000044,2.5781781048019877e-06 -4.333896047866202e-38 0,1 0.225013,-0.0347" />
      <path d="M 0.225013,-0.0347 A 0.0016,2.578178104801981e-06 -4.333896047866202e-38 0,1 0.226613,-0.034702" />
      <path d="M 0.226613,-0.03473 A 0.0016,2.578178104801981e-06 -4.333896047866202e-38 0,1 0.228213,-0.034727" />
      <path d="M 0.228213,-0.034727 A 0.0016000000000000044,2.5781781048019877e-06 -4.333896047866202e-38 0,1 0.225013,-0.034727" />
      <path d="M 0.225013,-0.034727 A 0.0016,2.578178104801981e-06 -4.333896047866202e-38 0,1 0.226613,-0.03473" />
      <path d="M 0.247113,-0.034675 A 0.0016,2.578178104801981e-06 -4.333896047866202e-38 0,1 0.248713,-0.034672" />
      <path d="M 0.248713,-0.034672 A 0.0016,2.578178104801981e-06 -4.333896047866202e-38 0,1 0.245513,-0.034672" />
      <path d="M 0.245513,-0.034672 A 0.0016,2.578178104801981e-06 -4.333896047866202e-38 0,1 0.247113,-0.034675" />
      <path d="M 0.247113,-0.034702 A 0.0016,2.578178104801981e-06 -4.333896047866202e-38 0,1 0.248713,-0.0347" />
      <path d="M 0.248713,-0.0347 A 0.0016,2.578178104801981e-06 -4.333896047866202e-38 0,1 0.245513,-0.0347" />
      <path d="M 0.245513,-0.0347 A 0.0016,2.578178104801981e-06 -4.333896047866202e-38 0,1 0.247113,-0.034702" />
      <path d="M 0.247113,-0.03473 A 0.0016,2.578178104801981e-06 -4.333896047866202e-38 0,1 0.248713,-0.034727" />
      <path d="M 0.248713,-0.034727 A 0.0016,2.578178104801981e-06 -4.333896047866202e-38 0,1 0.245513,-0.034727" />
      <path d="M 0.245513,-0.034727 A 0.0016,2.578178104801981e-06 -4.333896047866202e-38 0,1 0.247113,-0.03473" />
      <line x1="0.234813" y1="-0.03469" x2="0.230513" y2="-0.03469" />
      <line x1="0.234813" y1="-0.03469" x2="0.234813" y2="-0.034683" />
      <line x1="0.234813" y1="-0.034683" x2="0.230513" y2="-0.034683" />
      <line x1="0.230513" y1="-0.03469" x2="0.230513" y2="-0.034683" />
      <line x1="0.238213" y1="-0.03469" x2="0.235513" y2="-0.03469" />
      <line x1="0.238213" y1="-0.03469" x2="0.238213" y2="-0.034683" />
      <line x1="0.238213" y1="-0.034683" x2="0.235513" y2="-0.034683" />
      <line x1="0.235513" y1="-0.03469" x2="0.235513" y2="-0.034683" />
      <line x1="0.243213" y1="-0.034683" x2="0.238913" y2="-0.034683" />
      <line x1="0.238913" y1="-0.03469" x2="0.238913" y2="-0.034683" />
      <line x1="0.243213" y1="-0.03469" x2="0.238913" y2="-0.03469" />
      <line x1="0.243213" y1="-0.03469" x2="0.243213" y2="-0.034683" />
      <path d="M 0.241363,0.00168 A 0.004500000000000004,7.251125919755577e-06 -4.333896047866202e-38 0,1 0.232363,0.00168" />
      <path d="M 0.226613,-0.024675 A 0.0016,2.578178104801981e-06 -4.333896047866202e-38 0,1 0.228213,-0.024672" />
      <path d="M 0.228213,-0.024672 A 0.0016000000000000044,2.5781781048019877e-06 -4.333896047866202e-38 0,1 0.225013,-0.024672" />
      <path d="M 0.225013,-0.024672 A 0.0016,2.578178104801981e-06 -4.333896047866202e-38 0,1 0.226613,-0.024675" />
      <path d="M 0.226613,-0.024702 A 0.0016,2.578178104801981e-06 -4.333896047866202e-38 0,1 0.228213,-0.0247" />
      <path d="M 0.228213,-0.0247 A 0.0016000000000000044,2.5781781048019877e-06 -4.333896047866202e-38 0,1 0.225013,-0.0247" />
      <path d="M 0.225013,-0.0247 A 0.0016,2.578178104801981e-06 -4.333896047866202e-38 0,1 0.226613,-0.024702" />
      <path d="M 0.226613,-0.02473 A 0.0016,2.578178104801981e-06 -4.333896047866202e-38 0,1 0.228213,-0.024727" />
      <path d="M 0.228213,-0.024727 A 0.0016000000000000044,2.5781781048019877e-06 -4.333896047866202e-38 0,1 0.225013,-0.024727" />
      <path d="M 0.225013,-0.024727 A 0.0016,2.578178104801981e-06 -4.333896047866202e-38 0,1 0.226613,-0.02473" />
      <path d="M 0.247113,-0.024675 A 0.0016,2.578178104801981e-06 -4.333896047866202e-38 0,1 0.248713,-0.024672" />
      <path d="M 0.248713,-0.024672 A 0.0016,2.578178104801981e-06 -4.333896047866202e-38 0,1 0.245513,-0.024672" />
      <path d="M 0.245513,-0.024672 A 0.0016,2.578178104801981e-06 -4.333896047866202e-38 0,1 0.247113,-0.024675" />
      <path d="M 0.247113,-0.024702 A 0.0016,2.578178104801981e-06 -4.333896047866202e-38 0,1 0.248713,-0.0247" />
      <path d="M 0.248713,-0.0247 A 0.0016,2.578178104801981e-06 -4.333896047866202e-38 0,1 0.245513,-0.0247" />
      <path d="M 0.245513,-0.0247 A 0.0016,2.578178104801981e-06 -4.333896047866202e-38 0,1 0.247113,-0.024702" />
      <path d="M 0.247113,-0.02473 A 0.0016,2.578178104801981e-06 -4.333896047866202e-38 0,1 0.248713,-0.024727" />
      <path d="M 0.248713,-0.024727 A 0.0016,2.578178104801981e-06 -4.333896047866202e-38 0,1 0.245513,-0.024727" />
      <path d="M 0.245513,-0.024727 A 0.0016,2.578178104801981e-06 -4.333896047866202e-38 0,1 0.247113,-0.02473" />
      <line x1="0.230513" y1="-0.03259" x2="0.230513" y2="-0.03469" />
      <line x1="0.234813" y1="-0.03469" x2="0.234813" y2="-0.03259" />
      <line x1="0.234813" y1="-0.03259" x2="0.230513" y2="-0.03259" />
      <line x1="0.230513" y1="-0.032583" x2="0.230513" y2="-0.034683" />
      <line x1="0.230513" y1="-0.032583" x2="0.230513" y2="-0.03259" />
      <line x1="0.234813" y1="-0.034683" x2="0.234813" y2="-0.032583" />
      <line x1="0.234813" y1="-0.032583" x2="0.230513" y2="-0.032583" />
      <line x1="0.235513" y1="-0.03259" x2="0.235513" y2="-0.03469" />
      <line x1="0.238213" y1="-0.03259" x2="0.238213" y2="-0.03469" />
      <line x1="0.238213" y1="-0.03259" x2="0.235513" y2="-0.03259" />
      <line x1="0.243213" y1="-0.032583" x2="0.238913" y2="-0.032583" />
      <line x1="0.238913" y1="-0.032583" x2="0.238913" y2="-0.034683" />
      <line x1="0.243213" y1="-0.032583" x2="0.243213" y2="-0.034683" />
      <line x1="0.243213" y1="-0.03259" x2="0.243213" y2="-0.03469" />
      <line x1="0.243213" y1="-0.032583" x2="0.243213" y2="-0.03259" />
      <line x1="0.243213" y1="-0.03259" x2="0.238913" y2="-0.03259" />
      <line x1="0.238913" y1="-0.03259" x2="0.238913" y2="-0.03469" />
      <line x1="0.235513" y1="-0.032583" x2="0.235513" y2="-0.034683" />
      <line x1="0.238213" y1="-0.032583" x2="0.238213" y2="-0.034683" />
      <line x1="0.238213" y1="-0.032583" x2="0.235513" y2="-0.032583" />
      <line x1="0.234813" y1="-0.032583" x2="0.234813" y2="-0.03259" />
      <line x1="0.238913" y1="-0.032583" x2="0.238913" y2="-0.03259" />
      <line x1="0.238213" y1="-0.032583" x2="0.238213" y2="-0.03259" />
      <line x1="0.235513" y1="-0.032583" x2="0.235513" y2="-0.03259" />
      <line x1="0.239863" y1="-0.032636" x2="0.239863" y2="-0.03262" />
      <line x1="0.233863" y1="-0.032636" x2="0.233863" y2="-0.03262" />
      <line x1="0.228213" y1="-0.034672" x2="0.228213" y2="-0.024672" />
      <line x1="0.225013" y1="-0.034672" x2="0.225013" y2="-0.024672" />
      <line x1="0.228213" y1="-0.0347" x2="0.228213" y2="-0.0247" />
      <line x1="0.225013" y1="-0.0347" x2="0.225013" y2="-0.0247" />
      <line x1="0.228213" y1="-0.034727" x2="0.228213" y2="-0.024727" />
      <line x1="0.225013" y1="-0.034727" x2="0.225013" y2="-0.024727" />
      <line x1="0.248713" y1="-0.034672" x2="0.248713" y2="-0.024672" />
      <line x1="0.245513" y1="-0.034672" x2="0.245513" y2="-0.024672" />
      <line x1="0.248713" y1="-0.0347" x2="0.248713" y2="-0.0247" />
      <line x1="0.245513" y1="-0.0347" x2="0.245513" y2="-0.0247" />
      <line x1="0.248713" y1="-0.034727" x2="0.248713" y2="-0.024727" />
      <line x1="0.245513" y1="-0.034727" x2="0.245513" y2="-0.024727" />
      <line x1="0.228863" y1="-4e-06" x2="0.228863" y2="0.001696" />
      <line x1="0.244863" y1="-4e-06" x2="0.244863" y2="0.001696" />
    </g>
    <g fill="none" stroke="rgb(50,120,190)" stroke-width="0.00035" id="cradle">
      <line x1="0.0" y1="0.0152" x2="0.008366" y2="0.0152" />
      <line x1="0.008366" y1="0.0152" x2="0.008366" y2="-0.0152" />
      <line x1="0.0" y1="-0.0152" x2="0.008366" y2="-0.0152" />
      <line x1="0.0" y1="0.0152" x2="0.0" y2="-0.0152" />
      <line x1="0.056" y1="0.0152" x2="0.064366" y2="0.0152" />
      <line x1="0.064366" y1="0.0152" x2="0.064366" y2="0.011945" />
      <path d="M 0.064366,0.011945 A 0.0017,0.0017 0.0 0,1 0.064366,0.008555" />
      <line x1="0.064366" y1="0.008555" x2="0.064366" y2="-0.008555" />
      <path d="M 0.064366,-0.008555 A 0.0017,0.0017 0.0 0,1 0.064366,-0.011945" />
      <line x1="0.064366" y1="-0.011945" x2="0.064366" y2="-0.0152" />
      <line x1="0.056" y1="-0.0152" x2="0.064366" y2="-0.0152" />
      <line x1="0.056" y1="-0.00755" x2="0.056" y2="-0.0152" />
      <line x1="0.056" y1="-0.00755" x2="0.0594" y2="-0.00755" />
      <line x1="0.0594" y1="0.00755" x2="0.0594" y2="-0.00755" />
      <line x1="0.056" y1="0.00755" x2="0.0594" y2="0.00755" />
      <line x1="0.056" y1="0.0152" x2="0.056" y2="0.00755" />
      <line x1="0.1092" y1="0.0152" x2="0.117566" y2="0.0152" />
      <line x1="0.117566" y1="0.0152" x2="0.117566" y2="0.0127" />
      <line x1="0.1117" y1="0.0127" x2="0.117566" y2="0.0127" />
      <line x1="0.1117" y1="0.0127" x2="0.1117" y2="-0.0127" />
      <line x1="0.1117" y1="-0.0127" x2="0.117566" y2="-0.0127" />
      <line x1="0.117566" y1="-0.0127" x2="0.117566" y2="-0.0152" />
      <line x1="0.1092" y1="-0.0152" x2="0.117566" y2="-0.0152" />
      <line x1="0.1092" y1="0.0152" x2="0.1092" y2="-0.0152" />
      <line x1="0.1654" y1="-0.037776" x2="0.1654" y2="0.002774" />
      <line x1="0.1654" y1="0.002774" x2="0.165506" y2="0.002826" />
      <line x1="0.1654" y1="-0.037776" x2="0.173766" y2="-0.037776" />
      <line x1="0.173766" y1="-0.037776" x2="0.173766" y2="0.002774" />
      <line x1="0.1654" y1="0.002774" x2="0.173766" y2="0.002774" />
      <line x1="0.165506" y1="0.002826" x2="0.173872" y2="0.002826" />
      <line x1="0.173766" y1="0.002774" x2="0.173872" y2="0.002826" />
      <path d="M 0.173794,-0.037763 A 0.00295,5.059494742889269e-06 5.561109712807895e-20 0,1 0.173773,-0.037763" />
      <line x1="0.173766" y1="-0.037776" x2="0.173773" y2="-0.037773" />
      <line x1="0.173865" y1="-0.037727" x2="0.173872" y2="-0.037724" />
      <path d="M 0.173865,-0.037727 A 0.00295,5.059494742889269e-06 5.561109712807895e-20 0,1 0.173845,-0.037727" />
      <line x1="0.173794" y1="-0.037763" x2="0.173845" y2="-0.037737" />
      <line x1="0.173872" y1="-0.037724" x2="0.173872" y2="0.002826" />
      <line x1="0.173865" y1="-0.037727" x2="0.173865" y2="-0.035227" />
      <line x1="0.173865" y1="-0.035227" x2="0.173861" y2="-0.03523" />
      <line x1="0.173861" y1="-0.03523" x2="0.173861" y2="-0.03288" />
      <line x1="0.173864" y1="-0.032878" x2="0.173861" y2="-0.03288" />
      <line x1="0.173864" y1="-0.032878" x2="0.173864" y2="0.000322" />
      <line x1="0.173864" y1="0.000322" x2="0.173775" y2="0.000278" />
      <line x1="0.173775" y1="-0.032922" x2="0.173775" y2="0.000278" />
      <line x1="0.173778" y1="-0.03292" x2="0.173775" y2="-0.032922" />
      <line x1="0.173778" y1="-0.03527" x2="0.173778" y2="-0.03292" />
      <line x1="0.173778" y1="-0.03527" x2="0.173773" y2="-0.035273" />
      <line x1="0.173773" y1="-0.037773" x2="0.173773" y2="-0.035273" />
      <line x1="0.173794" y1="-0.037763" x2="0.173794" y2="-0.035263" />
      <line x1="0.173845" y1="-0.037737" x2="0.173845" y2="-0.035237" />
      <line x1="0.173794" y1="-0.035263" x2="0.173789" y2="-0.035265" />
      <line x1="0.173789" y1="-0.035265" x2="0.173789" y2="-0.032915" />
      <line x1="0.173849" y1="-0.032885" x2="0.173789" y2="-0.032915" />
      <line x1="0.173849" y1="-0.035235" x2="0.173849" y2="-0.032885" />
      <line x1="0.173849" y1="-0.035235" x2="0.173845" y2="-0.035237" />
      <line x1="0.173775" y1="-0.032878" x2="0.173864" y2="-0.032878" />
      <path d="M 0.173861,-0.03288 A 0.0017,2.9156410382751714e-06 5.561109712807895e-20 0,1 0.173775,-0.03288" />
      <path d="M 0.173775,-0.032885 A 0.0017,2.9156410382751714e-06 5.561109712807895e-20 0,1 0.173849,-0.032885" />
      <path d="M 0.173789,-0.032915 A 0.0017,2.9156410382751714e-06 5.561109712807895e-20 0,1 0.173775,-0.032915" />
      <path d="M 0.173775,-0.03292 A 0.0017,2.9156410382751714e-06 5.561109712807895e-20 0,1 0.173778,-0.03292" />
      <path d="M 0.173861,-0.03523 A 0.0017,2.9156410382751714e-06 5.561109712807895e-20 0,1 0.173849,-0.03523" />
      <path d="M 0.173789,-0.035265 A 0.0017,2.9156410382751714e-06 5.561109712807895e-20 0,1 0.173778,-0.035265" />
      <line x1="0.221663" y1="0.002805" x2="0.252063" y2="0.002805" />
      <line x1="0.221663" y1="-0.037759" x2="0.221663" y2="0.002791" />
      <line x1="0.221663" y1="0.002805" x2="0.221663" y2="0.002791" />
      <line x1="0.252063" y1="0.002805" x2="0.252063" y2="0.002791" />
      <line x1="0.221663" y1="0.002791" x2="0.252063" y2="0.002791" />
      <path d="M 0.22956,-0.037759 A 0.00295,5.041917694841809e-06 -5.501848493897563e-37 0,1 0.223666,-0.037759" />
      <line x1="0.221663" y1="-0.037759" x2="0.223666" y2="-0.037759" />
      <line x1="0.25006" y1="-0.037759" x2="0.252063" y2="-0.037759" />
      <path d="M 0.25006,-0.037759 A 0.00295,5.041917694841809e-06 -5.501848493897563e-37 0,1 0.244166,-0.037759" />
      <line x1="0.22956" y1="-0.037759" x2="0.244166" y2="-0.037759" />
      <line x1="0.252063" y1="-0.037759" x2="0.252063" y2="0.002791" />
      <line x1="0.244413" y1="-0.032901" x2="0.244413" y2="-0.032899" />
      <line x1="0.244413" y1="-0.032899" x2="0.244413" y2="-0.028299" />
      <line x1="0.244413" y1="-0.028299" x2="0.229313" y2="-0.028299" />
      <line x1="0.229313" y1="-0.032901" x2="0.229313" y2="-0.032899" />
      <line x1="0.229313" y1="-0.032899" x2="0.229313" y2="-0.028299" />
      <line x1="0.25006" y1="-0.037759" x2="0.25006" y2="-0.035259" />
      <line x1="0.25006" y1="-0.035259" x2="0.248808" y2="-0.035259" />
      <line x1="0.248808" y1="-0.035259" x2="0.248808" y2="-0.032909" />
      <line x1="0.249563" y1="-0.032909" x2="0.248808" y2="-0.032909" />
      <line x1="0.249563" y1="-0.032909" x2="0.249563" y2="0.000291" />
      <line x1="0.249563" y1="0.000291" x2="0.224163" y2="0.000291" />
      <line x1="0.224163" y1="-0.032909" x2="0.224163" y2="0.000291" />
      <line x1="0.224919" y1="-0.032909" x2="0.224163" y2="-0.032909" />
      <line x1="0.224919" y1="-0.035259" x2="0.224919" y2="-0.032909" />
      <line x1="0.224919" y1="-0.035259" x2="0.223666" y2="-0.035259" />
      <line x1="0.223666" y1="-0.037759" x2="0.223666" y2="-0.035259" />
      <line x1="0.22956" y1="-0.037759" x2="0.22956" y2="-0.035259" />
      <line x1="0.244166" y1="-0.037759" x2="0.244166" y2="-0.035259" />
      <line x1="0.22956" y1="-0.035259" x2="0.228308" y2="-0.035259" />
      <line x1="0.228308" y1="-0.035259" x2="0.228308" y2="-0.032909" />
      <line x1="0.245419" y1="-0.032909" x2="0.228308" y2="-0.032909" />
      <line x1="0.245419" y1="-0.035259" x2="0.245419" y2="-0.032909" />
      <line x1="0.245419" y1="-0.035259" x2="0.244166" y2="-0.035259" />
      <line x1="0.229313" y1="-0.032901" x2="0.244413" y2="-0.032901" />
      <path d="M 0.248808,-0.032909 A 0.0017,2.9055118919427375e-06 -5.501848493897563e-37 0,1 0.245419,-0.032909" />
      <path d="M 0.228308,-0.032909 A 0.0017,2.9055118919427375e-06 -5.501848493897563e-37 0,1 0.224919,-0.032909" />
      <line x1="0.224163" y1="-0.032899" x2="0.229313" y2="-0.032899" />
      <line x1="0.244413" y1="-0.032899" x2="0.249563" y2="-0.032899" />
      <line x1="0.249563" y1="-0.032899" x2="0.249563" y2="0.000291" />
      <line x1="0.224163" y1="-0.032899" x2="0.224163" y2="0.000291" />
      <path d="M 0.248808,-0.035259 A 0.0017,2.9055118919427375e-06 -5.501848493897563e-37 0,1 0.245419,-0.035259" />
      <path d="M 0.228308,-0.035259 A 0.0017,2.9055118919427375e-06 -5.501848493897563e-37 0,1 0.224919,-0.035259" />
    </g>
    <g fill="url(#hatch_cradle)" stroke="none" stroke-width="0" id="cradle_fill">
      <path d="M 0.008366,0.0152 L 0.0,0.0152 L 0.0,-0.0152 L 0.008366,-0.0152 L 0.008366,0.0152" />
      <path d="M 0.064366,0.0152 L 0.056,0.0152 L 0.056,0.00755 L 0.0594,0.00755 L 0.0594,-0.00755 L 0.056,-0.00755 L 0.056,-0.0152 L 0.064366,-0.0152 L 0.064366,-0.011945 A 0.0017,0.0017 0.0 0,0 0.064366,-0.008555 L 0.064366,0.008555 A 0.0017,0.0017 0.0 0,0 0.064366,0.011945 L 0.064366,0.0152" />
      <path d="M 0.117566,0.0152 L 0.1092,0.0152 L 0.1092,-0.0152 L 0.117566,-0.0152 L 0.117566,-0.0127 L 0.1117,-0.0127 L 0.1117,0.0127 L 0.117566,0.0127 L 0.117566,0.0152" />
    </g>
    <g fill="none" stroke="rgb(50,120,190)" stroke-opacity="0.4" stroke-width="0.00015" id="cradle_hidden" stroke-dasharray="0.0018 0.00045">
      <line x1="0.1654" y1="-0.037776" x2="0.165506" y2="-0.037724" />
      <line x1="0.165506" y1="-0.037724" x2="0.165506" y2="0.002826" />
      <line x1="0.165479" y1="-0.036887" x2="0.165427" y2="-0.036913" />
      <line x1="0.165479" y1="-0.036887" x2="0.165479" y2="-0.028287" />
      <line x1="0.165479" y1="-0.028287" x2="0.165427" y2="-0.028313" />
      <line x1="0.165427" y1="-0.036913" x2="0.165427" y2="-0.028313" />
      <path d="M 0.173773,-0.037763 A 0.00295,5.059494742889269e-06 5.561109712807895e-20 0,1 0.170967,-0.037768" />
      <path d="M 0.170967,-0.037768 A 0.00295,5.059494742889269e-06 5.561109712807895e-20 0,1 0.173773,-0.037773" />
      <line x1="0.165506" y1="-0.037724" x2="0.173872" y2="-0.037724" />
      <path d="M 0.173845,-0.037727 A 0.00295,5.059494742889269e-06 5.561109712807895e-20 0,1 0.171039,-0.037732" />
      <path d="M 0.171039,-0.037732 A 0.00295,5.059494742889269e-06 5.561109712807895e-20 0,1 0.173845,-0.037737" />
      <line x1="0.165479" y1="-0.036887" x2="0.168879" y2="-0.036887" />
      <line x1="0.168827" y1="-0.036913" x2="0.168879" y2="-0.036887" />
      <line x1="0.165427" y1="-0.036913" x2="0.168827" y2="-0.036913" />
      <line x1="0.168879" y1="-0.036887" x2="0.168879" y2="-0.032887" />
      <line x1="0.168879" y1="-0.032887" x2="0.167979" y2="-0.032887" />
      <line x1="0.167979" y1="-0.032887" x2="0.167979" y2="-0.028287" />
      <line x1="0.165479" y1="-0.028287" x2="0.167979" y2="-0.028287" />
      <line x1="0.167979" y1="-0.028287" x2="0.167927" y2="-0.028313" />
      <line x1="0.165427" y1="-0.028313" x2="0.167927" y2="-0.028313" />
      <line x1="0.168827" y1="-0.036913" x2="0.168827" y2="-0.032913" />
      <line x1="0.168827" y1="-0.032913" x2="0.167927" y2="-0.032913" />
      <line x1="0.167927" y1="-0.032913" x2="0.167927" y2="-0.028313" />
      <path d="M 0.173794,-0.035263 A 0.00295,5.059494742889269e-06 5.561109712807895e-20 0,1 0.170967,-0.035268" />
      <path d="M 0.170967,-0.035268 A 0.00295,5.059494742889269e-06 5.561109712807895e-20 0,1 0.173773,-0.035273" />
      <path d="M 0.173865,-0.035227 A 0.00295,5.059494742889269e-06 5.561109712807895e-20 0,1 0.171039,-0.035232" />
      <path d="M 0.171039,-0.035232 A 0.00295,5.059494742889269e-06 5.561109712807895e-20 0,1 0.173845,-0.035237" />
      <line x1="0.168827" y1="-0.032913" x2="0.168879" y2="-0.032887" />
      <line x1="0.167997" y1="-0.032878" x2="0.173775" y2="-0.032878" />
      <path d="M 0.173775,-0.03288 A 0.0017,2.9156410382751714e-06 5.561109712807895e-20 0,1 0.172289,-0.032882" />
      <path d="M 0.172289,-0.032882 A 0.0017,2.9156410382751714e-06 5.561109712807895e-20 0,1 0.173775,-0.032885" />
      <path d="M 0.173775,-0.032915 A 0.0017,2.9156410382751714e-06 5.561109712807895e-20 0,1 0.172217,-0.032918" />
      <path d="M 0.172217,-0.032918 A 0.0017,2.9156410382751714e-06 5.561109712807895e-20 0,1 0.173775,-0.03292" />
      <line x1="0.167909" y1="-0.032922" x2="0.173775" y2="-0.032922" />
      <line x1="0.167909" y1="-0.032922" x2="0.167927" y2="-0.032913" />
      <line x1="0.167979" y1="-0.032887" x2="0.167997" y2="-0.032878" />
      <line x1="0.167909" y1="0.000278" x2="0.167997" y2="0.000322" />
      <line x1="0.167997" y1="-0.032878" x2="0.167997" y2="0.000322" />
      <line x1="0.167909" y1="-0.032922" x2="0.167909" y2="0.000278" />
      <path d="M 0.173849,-0.03523 A 0.0017,2.9156410382751714e-06 5.561109712807895e-20 0,1 0.172289,-0.035232" />
      <path d="M 0.172289,-0.035232 A 0.0017,2.9156410382751714e-06 5.561109712807895e-20 0,1 0.173849,-0.035235" />
      <line x1="0.167997" y1="0.000322" x2="0.173864" y2="0.000322" />
      <line x1="0.167909" y1="0.000278" x2="0.173775" y2="0.000278" />
      <path d="M 0.173778,-0.035265 A 0.0017,2.9156410382751714e-06 5.561109712807895e-20 0,1 0.172217,-0.035268" />
      <path d="M 0.172217,-0.035268 A 0.0017,2.9156410382751714e-06 5.561109712807895e-20 0,1 0.173778,-0.03527" />
      <line x1="0.170967" y1="-0.037768" x2="0.170967" y2="-0.035268" />
      <line x1="0.171039" y1="-0.037732" x2="0.171039" y2="-0.035232" />
      <line x1="0.172289" y1="-0.035232" x2="0.172289" y2="-0.032882" />
      <line x1="0.172217" y1="-0.035268" x2="0.172217" y2="-0.032918" />
      <line x1="0.221663" y1="-0.037745" x2="0.221663" y2="0.002805" />
      <line x1="0.221663" y1="-0.037745" x2="0.252063" y2="-0.037745" />
      <line x1="0.252063" y1="-0.037745" x2="0.252063" y2="0.002805" />
      <line x1="0.244413" y1="-0.036895" x2="0.229313" y2="-0.036895" />
      <line x1="0.244413" y1="-0.036895" x2="0.244413" y2="-0.028295" />
      <line x1="0.244413" y1="-0.028295" x2="0.229313" y2="-0.028295" />
      <line x1="0.229313" y1="-0.036895" x2="0.229313" y2="-0.028295" />
      <line x1="0.221663" y1="-0.037745" x2="0.221663" y2="-0.037759" />
      <line x1="0.252063" y1="-0.037745" x2="0.252063" y2="-0.037759" />
      <line x1="0.244413" y1="-0.036895" x2="0.244413" y2="-0.036901" />
      <line x1="0.229313" y1="-0.036901" x2="0.244413" y2="-0.036901" />
      <line x1="0.229313" y1="-0.036895" x2="0.229313" y2="-0.036901" />
      <line x1="0.244413" y1="-0.036901" x2="0.244413" y2="-0.032901" />
      <line x1="0.244413" y1="-0.028295" x2="0.244413" y2="-0.028299" />
      <line x1="0.229313" y1="-0.028295" x2="0.229313" y2="-0.028299" />
      <line x1="0.229313" y1="-0.036901" x2="0.229313" y2="-0.032901" />
      <path d="M 0.22956,-0.035259 A 0.00295,5.041917694841809e-06 -5.501848493897563e-37 0,1 0.223666,-0.035259" />
      <path d="M 0.25006,-0.035259 A 0.00295,5.041917694841809e-06 -5.501848493897563e-37 0,1 0.244166,-0.035259" />
      <line x1="0.249563" y1="-0.032899" x2="0.249563" y2="-0.032909" />
      <line x1="0.224163" y1="-0.032899" x2="0.224163" y2="-0.032909" />
      <line x1="0.224163" y1="0.000301" x2="0.249563" y2="0.000301" />
      <line x1="0.249563" y1="0.000291" x2="0.249563" y2="0.000301" />
      <line x1="0.224163" y1="0.000291" x2="0.224163" y2="0.000301" />
      <line x1="0.249563" y1="0.000301" x2="0.249563" y2="0.000291" />
      <line x1="0.224163" y1="0.000301" x2="0.224163" y2="0.000291" />
    </g>
  </g>
  <text x="0.024000" y="-0.020875" text-anchor="middle" font-family="'Input Sans Narrow', 'DejaVu Sans', Arial, sans-serif" font-size="0.002500" font-weight="bold" fill="#333">A-A</text>
  <text x="0.024000" y="-0.017375" text-anchor="middle" font-family="'Input Sans Narrow', 'DejaVu Sans', Arial, sans-serif" font-size="0.001800" fill="#888">front_horn</text>
  <line x1="0.000000" y1="0.016000" x2="0.000000" y2="0.019000" stroke="#5C7080" stroke-width="0.000140" stroke-opacity="0.5"/>
  <line x1="0.048000" y1="0.016000" x2="0.048000" y2="0.019000" stroke="#5C7080" stroke-width="0.000140" stroke-opacity="0.5"/>
  <line x1="0.000000" y1="0.017400" x2="0.000000" y2="0.019000" stroke="#5C7080" stroke-width="0.000200"/>
  <line x1="0.048000" y1="0.017400" x2="0.048000" y2="0.019000" stroke="#5C7080" stroke-width="0.000200"/>
  <line x1="0.000000" y1="0.018200" x2="0.048000" y2="0.018200" stroke="#5C7080" stroke-width="0.000200"/>
  <polygon points="0.000000,0.018200 0.001500,0.017600 0.001500,0.018800" fill="#5C7080"/>
  <polygon points="0.048000,0.018200 0.046500,0.017600 0.046500,0.018800" fill="#5C7080"/>
  <text x="0.024000" y="0.017000" text-anchor="middle" font-family="'Input Sans Narrow', 'DejaVu Sans', Arial, sans-serif" font-size="0.001600" fill="#5C7080">48.0</text>
  <line x1="0.048800" y1="-0.015200" x2="0.051800" y2="-0.015200" stroke="#5C7080" stroke-width="0.000140" stroke-opacity="0.5"/>
  <line x1="0.048800" y1="0.015200" x2="0.051800" y2="0.015200" stroke="#5C7080" stroke-width="0.000140" stroke-opacity="0.5"/>
  <line x1="0.050200" y1="-0.015200" x2="0.051800" y2="-0.015200" stroke="#5C7080" stroke-width="0.000200"/>
  <line x1="0.050200" y1="0.015200" x2="0.051800" y2="0.015200" stroke="#5C7080" stroke-width="0.000200"/>
  <line x1="0.051000" y1="-0.015200" x2="0.051000" y2="0.015200" stroke="#5C7080" stroke-width="0.000200"/>
  <polygon points="0.051000,-0.015200 0.050400,-0.013700 0.051600,-0.013700" fill="#5C7080"/>
  <polygon points="0.051000,0.015200 0.050400,0.013700 0.051600,0.013700" fill="#5C7080"/>
  <text x="0.052500" y="-0.000000" text-anchor="middle" dominant-baseline="central" font-family="'Input Sans Narrow', 'DejaVu Sans', Arial, sans-serif" font-size="0.001600" fill="#5C7080" transform="rotate(-90 0.052500 -0.000000)">30.4</text>
  <text x="0.078600" y="-0.020875" text-anchor="middle" font-family="'Input Sans Narrow', 'DejaVu Sans', Arial, sans-serif" font-size="0.002500" font-weight="bold" fill="#333">B-B</text>
  <text x="0.078600" y="-0.017375" text-anchor="middle" font-family="'Input Sans Narrow', 'DejaVu Sans', Arial, sans-serif" font-size="0.001800" fill="#888">rear_horn</text>
  <line x1="0.056000" y1="0.016000" x2="0.056000" y2="0.019000" stroke="#5C7080" stroke-width="0.000140" stroke-opacity="0.5"/>
  <line x1="0.101200" y1="0.016000" x2="0.101200" y2="0.019000" stroke="#5C7080" stroke-width="0.000140" stroke-opacity="0.5"/>
  <line x1="0.056000" y1="0.017400" x2="0.056000" y2="0.019000" stroke="#5C7080" stroke-width="0.000200"/>
  <line x1="0.101200" y1="0.017400" x2="0.101200" y2="0.019000" stroke="#5C7080" stroke-width="0.000200"/>
  <line x1="0.056000" y1="0.018200" x2="0.101200" y2="0.018200" stroke="#5C7080" stroke-width="0.000200"/>
  <polygon points="0.056000,0.018200 0.057500,0.017600 0.057500,0.018800" fill="#5C7080"/>
  <polygon points="0.101200,0.018200 0.099700,0.017600 0.099700,0.018800" fill="#5C7080"/>
  <text x="0.078600" y="0.017000" text-anchor="middle" font-family="'Input Sans Narrow', 'DejaVu Sans', Arial, sans-serif" font-size="0.001600" fill="#5C7080">45.2</text>
  <line x1="0.102000" y1="-0.015200" x2="0.105000" y2="-0.015200" stroke="#5C7080" stroke-width="0.000140" stroke-opacity="0.5"/>
  <line x1="0.102000" y1="0.015200" x2="0.105000" y2="0.015200" stroke="#5C7080" stroke-width="0.000140" stroke-opacity="0.5"/>
  <line x1="0.103400" y1="-0.015200" x2="0.105000" y2="-0.015200" stroke="#5C7080" stroke-width="0.000200"/>
  <line x1="0.103400" y1="0.015200" x2="0.105000" y2="0.015200" stroke="#5C7080" stroke-width="0.000200"/>
  <line x1="0.104200" y1="-0.015200" x2="0.104200" y2="0.015200" stroke="#5C7080" stroke-width="0.000200"/>
  <polygon points="0.104200,-0.015200 0.103600,-0.013700 0.104800,-0.013700" fill="#5C7080"/>
  <polygon points="0.104200,0.015200 0.103600,0.013700 0.104800,0.013700" fill="#5C7080"/>
  <text x="0.105700" y="-0.000000" text-anchor="middle" dominant-baseline="central" font-family="'Input Sans Narrow', 'DejaVu Sans', Arial, sans-serif" font-size="0.001600" fill="#5C7080" transform="rotate(-90 0.105700 -0.000000)">30.4</text>
  <text x="0.133300" y="-0.020875" text-anchor="middle" font-family="'Input Sans Narrow', 'DejaVu Sans', Arial, sans-serif" font-size="0.002500" font-weight="bold" fill="#333">C-C</text>
  <text x="0.133300" y="-0.017375" text-anchor="middle" font-family="'Input Sans Narrow', 'DejaVu Sans', Arial, sans-serif" font-size="0.001800" fill="#888">mid_body</text>
  <line x1="0.109200" y1="0.016000" x2="0.109200" y2="0.019000" stroke="#5C7080" stroke-width="0.000140" stroke-opacity="0.5"/>
  <line x1="0.157400" y1="0.016000" x2="0.157400" y2="0.019000" stroke="#5C7080" stroke-width="0.000140" stroke-opacity="0.5"/>
  <line x1="0.109200" y1="0.017400" x2="0.109200" y2="0.019000" stroke="#5C7080" stroke-width="0.000200"/>
  <line x1="0.157400" y1="0.017400" x2="0.157400" y2="0.019000" stroke="#5C7080" stroke-width="0.000200"/>
  <line x1="0.109200" y1="0.018200" x2="0.157400" y2="0.018200" stroke="#5C7080" stroke-width="0.000200"/>
  <polygon points="0.109200,0.018200 0.110700,0.017600 0.110700,0.018800" fill="#5C7080"/>
  <polygon points="0.157400,0.018200 0.155900,0.017600 0.155900,0.018800" fill="#5C7080"/>
  <text x="0.133300" y="0.017000" text-anchor="middle" font-family="'Input Sans Narrow', 'DejaVu Sans', Arial, sans-serif" font-size="0.001600" fill="#5C7080">48.2</text>
  <line x1="0.158200" y1="-0.015200" x2="0.161200" y2="-0.015200" stroke="#5C7080" stroke-width="0.000140" stroke-opacity="0.5"/>
  <line x1="0.158200" y1="0.015200" x2="0.161200" y2="0.015200" stroke="#5C7080" stroke-width="0.000140" stroke-opacity="0.5"/>
  <line x1="0.159600" y1="-0.015200" x2="0.161200" y2="-0.015200" stroke="#5C7080" stroke-width="0.000200"/>
  <line x1="0.159600" y1="0.015200" x2="0.161200" y2="0.015200" stroke="#5C7080" stroke-width="0.000200"/>
  <line x1="0.160400" y1="-0.015200" x2="0.160400" y2="0.015200" stroke="#5C7080" stroke-width="0.000200"/>
  <polygon points="0.160400,-0.015200 0.159800,-0.013700 0.161000,-0.013700" fill="#5C7080"/>
  <polygon points="0.160400,0.015200 0.159800,0.013700 0.161000,0.013700" fill="#5C7080"/>
  <text x="0.161900" y="-0.000000" text-anchor="middle" dominant-baseline="central" font-family="'Input Sans Narrow', 'DejaVu Sans', Arial, sans-serif" font-size="0.001600" fill="#5C7080" transform="rotate(-90 0.161900 -0.000000)">30.4</text>
  <text x="0.189532" y="-0.020875" text-anchor="middle" font-family="'Input Sans Narrow', 'DejaVu Sans', Arial, sans-serif" font-size="0.002500" font-weight="bold" fill="#333">side_XZ</text>
  <line x1="0.165400" y1="0.038576" x2="0.165400" y2="0.041576" stroke="#5C7080" stroke-width="0.000140" stroke-opacity="0.5"/>
  <line x1="0.213663" y1="0.038576" x2="0.213663" y2="0.041576" stroke="#5C7080" stroke-width="0.000140" stroke-opacity="0.5"/>
  <line x1="0.165400" y1="0.039976" x2="0.165400" y2="0.041576" stroke="#5C7080" stroke-width="0.000200"/>
  <line x1="0.213663" y1="0.039976" x2="0.213663" y2="0.041576" stroke="#5C7080" stroke-width="0.000200"/>
  <line x1="0.165400" y1="0.040776" x2="0.213663" y2="0.040776" stroke="#5C7080" stroke-width="0.000200"/>
  <polygon points="0.165400,0.040776 0.166900,0.040176 0.166900,0.041376" fill="#5C7080"/>
  <polygon points="0.213663,0.040776 0.212163,0.040176 0.212163,0.041376" fill="#5C7080"/>
  <text x="0.189532" y="0.039576" text-anchor="middle" font-family="'Input Sans Narrow', 'DejaVu Sans', Arial, sans-serif" font-size="0.001600" fill="#5C7080">48.3</text>
  <line x1="0.214463" y1="-0.003207" x2="0.217463" y2="-0.003207" stroke="#5C7080" stroke-width="0.000140" stroke-opacity="0.5"/>
  <line x1="0.214463" y1="0.037776" x2="0.217463" y2="0.037776" stroke="#5C7080" stroke-width="0.000140" stroke-opacity="0.5"/>
  <line x1="0.215863" y1="-0.003207" x2="0.217463" y2="-0.003207" stroke="#5C7080" stroke-width="0.000200"/>
  <line x1="0.215863" y1="0.037776" x2="0.217463" y2="0.037776" stroke="#5C7080" stroke-width="0.000200"/>
  <line x1="0.216663" y1="-0.003207" x2="0.216663" y2="0.037776" stroke="#5C7080" stroke-width="0.000200"/>
  <polygon points="0.216663,-0.003207 0.216063,-0.001707 0.217263,-0.001707" fill="#5C7080"/>
  <polygon points="0.216663,0.037776 0.216063,0.036276 0.217263,0.036276" fill="#5C7080"/>
  <text x="0.218163" y="0.017284" text-anchor="middle" dominant-baseline="central" font-family="'Input Sans Narrow', 'DejaVu Sans', Arial, sans-serif" font-size="0.001600" fill="#5C7080" transform="rotate(-90 0.218163 0.017284)">41.0</text>
  <line x1="0.162400" y1="-0.001700" x2="0.216663" y2="-0.001700" stroke="#555" stroke-width="0.000250" stroke-dasharray="0.002500,0.000800,0.000500,0.000800"/>
  <text x="0.160900" y="-0.001100" text-anchor="end" font-family="'Input Sans Narrow', 'DejaVu Sans', Arial, sans-serif" font-size="0.002000" font-weight="bold" fill="#555">A</text>
  <text x="0.218163" y="-0.001100" text-anchor="start" font-family="'Input Sans Narrow', 'DejaVu Sans', Arial, sans-serif" font-size="0.002000" font-weight="bold" fill="#555">A</text>
  <line x1="0.162400" y1="0.033900" x2="0.216663" y2="0.033900" stroke="#555" stroke-width="0.000250" stroke-dasharray="0.002500,0.000800,0.000500,0.000800"/>
  <text x="0.160900" y="0.034500" text-anchor="end" font-family="'Input Sans Narrow', 'DejaVu Sans', Arial, sans-serif" font-size="0.002000" font-weight="bold" fill="#555">B</text>
  <text x="0.218163" y="0.034500" text-anchor="start" font-family="'Input Sans Narrow', 'DejaVu Sans', Arial, sans-serif" font-size="0.002000" font-weight="bold" fill="#555">B</text>
  <line x1="0.162400" y1="0.016100" x2="0.216663" y2="0.016100" stroke="#555" stroke-width="0.000250" stroke-dasharray="0.002500,0.000800,0.000500,0.000800"/>
  <text x="0.160900" y="0.016700" text-anchor="end" font-family="'Input Sans Narrow', 'DejaVu Sans', Arial, sans-serif" font-size="0.002000" font-weight="bold" fill="#555">C</text>
  <text x="0.218163" y="0.016700" text-anchor="start" font-family="'Input Sans Narrow', 'DejaVu Sans', Arial, sans-serif" font-size="0.002000" font-weight="bold" fill="#555">C</text>
  <text x="0.236863" y="-0.020875" text-anchor="middle" font-family="'Input Sans Narrow', 'DejaVu Sans', Arial, sans-serif" font-size="0.002500" font-weight="bold" fill="#333">side_YZ</text>
  <line x1="0.221663" y1="0.038559" x2="0.221663" y2="0.041559" stroke="#5C7080" stroke-width="0.000140" stroke-opacity="0.5"/>
  <line x1="0.252063" y1="0.038559" x2="0.252063" y2="0.041559" stroke="#5C7080" stroke-width="0.000140" stroke-opacity="0.5"/>
  <line x1="0.221663" y1="0.039959" x2="0.221663" y2="0.041559" stroke="#5C7080" stroke-width="0.000200"/>
  <line x1="0.252063" y1="0.039959" x2="0.252063" y2="0.041559" stroke="#5C7080" stroke-width="0.000200"/>
  <line x1="0.221663" y1="0.040759" x2="0.252063" y2="0.040759" stroke="#5C7080" stroke-width="0.000200"/>
  <polygon points="0.221663,0.040759 0.223163,0.040159 0.223163,0.041359" fill="#5C7080"/>
  <polygon points="0.252063,0.040759 0.250563,0.040159 0.250563,0.041359" fill="#5C7080"/>
  <text x="0.236863" y="0.039559" text-anchor="middle" font-family="'Input Sans Narrow', 'DejaVu Sans', Arial, sans-serif" font-size="0.001600" fill="#5C7080">30.4</text>
  <line x1="0.252863" y1="-0.003187" x2="0.255863" y2="-0.003187" stroke="#5C7080" stroke-width="0.000140" stroke-opacity="0.5"/>
  <line x1="0.252863" y1="0.037759" x2="0.255863" y2="0.037759" stroke="#5C7080" stroke-width="0.000140" stroke-opacity="0.5"/>
  <line x1="0.254263" y1="-0.003187" x2="0.255863" y2="-0.003187" stroke="#5C7080" stroke-width="0.000200"/>
  <line x1="0.254263" y1="0.037759" x2="0.255863" y2="0.037759" stroke="#5C7080" stroke-width="0.000200"/>
  <line x1="0.255063" y1="-0.003187" x2="0.255063" y2="0.037759" stroke="#5C7080" stroke-width="0.000200"/>
  <polygon points="0.255063,-0.003187 0.254463,-0.001687 0.255663,-0.001687" fill="#5C7080"/>
  <polygon points="0.255063,0.037759 0.254463,0.036259 0.255663,0.036259" fill="#5C7080"/>
  <text x="0.256563" y="0.017286" text-anchor="middle" dominant-baseline="central" font-family="'Input Sans Narrow', 'DejaVu Sans', Arial, sans-serif" font-size="0.001600" fill="#5C7080" transform="rotate(-90 0.256563 0.017286)">40.9</text>
  <line x1="0.218663" y1="-0.001700" x2="0.255063" y2="-0.001700" stroke="#555" stroke-width="0.000250" stroke-dasharray="0.002500,0.000800,0.000500,0.000800"/>
  <text x="0.217163" y="-0.001100" text-anchor="end" font-family="'Input Sans Narrow', 'DejaVu Sans', Arial, sans-serif" font-size="0.002000" font-weight="bold" fill="#555">A</text>
  <text x="0.256563" y="-0.001100" text-anchor="start" font-family="'Input Sans Narrow', 'DejaVu Sans', Arial, sans-serif" font-size="0.002000" font-weight="bold" fill="#555">A</text>
  <line x1="0.218663" y1="0.033900" x2="0.255063" y2="0.033900" stroke="#555" stroke-width="0.000250" stroke-dasharray="0.002500,0.000800,0.000500,0.000800"/>
  <text x="0.217163" y="0.034500" text-anchor="end" font-family="'Input Sans Narrow', 'DejaVu Sans', Arial, sans-serif" font-size="0.002000" font-weight="bold" fill="#555">B</text>
  <text x="0.256563" y="0.034500" text-anchor="start" font-family="'Input Sans Narrow', 'DejaVu Sans', Arial, sans-serif" font-size="0.002000" font-weight="bold" fill="#555">B</text>
  <line x1="0.218663" y1="0.016100" x2="0.255063" y2="0.016100" stroke="#555" stroke-width="0.000250" stroke-dasharray="0.002500,0.000800,0.000500,0.000800"/>
  <text x="0.217163" y="0.016700" text-anchor="end" font-family="'Input Sans Narrow', 'DejaVu Sans', Arial, sans-serif" font-size="0.002000" font-weight="bold" fill="#555">C</text>
  <text x="0.256563" y="0.016700" text-anchor="start" font-family="'Input Sans Narrow', 'DejaVu Sans', Arial, sans-serif" font-size="0.002000" font-weight="bold" fill="#555">C</text>
  <text x="-0.001175" y="0.045951" font-family="'Input Sans Narrow', 'DejaVu Sans', Arial, sans-serif" font-size="0.003500" font-weight="bold" fill="#222">cradle</text>
  <line x1="-0.001175" y1="0.049951" x2="0.008825" y2="0.049951" stroke="#333" stroke-width="0.000350"/>
  <line x1="-0.001175" y1="0.048951" x2="-0.001175" y2="0.050951" stroke="#333" stroke-width="0.000250"/>
  <line x1="0.008825" y1="0.048951" x2="0.008825" y2="0.050951" stroke="#333" stroke-width="0.000250"/>
  <text x="0.010325" y="0.050651" font-family="'Input Sans Narrow', 'DejaVu Sans', Arial, sans-serif" font-size="0.001800" fill="#888">10 mm</text>
  <rect x="0.028825" y="0.043451" width="0.004000" height="0.002500" fill="url(#hatch_servo)" stroke="rgb(60,60,60)" stroke-width="0.000300"/>
  <text x="0.034325" y="0.045451" font-family="'Input Sans Narrow', 'DejaVu Sans', Arial, sans-serif" font-size="0.001800" fill="rgb(60,60,60)">servo</text>
  <rect x="0.028825" y="0.046951" width="0.004000" height="0.002500" fill="url(#hatch_cradle)" stroke="rgb(50,120,190)" stroke-width="0.000300"/>
  <text x="0.034325" y="0.048951" font-family="'Input Sans Narrow', 'DejaVu Sans', Arial, sans-serif" font-size="0.001800" fill="rgb(50,120,190)">cradle</text>
</svg>