<?xml version='1.0' encoding='utf-8'?>
<svg width="270.25mm" height="88.96mm" viewBox="-0.003175 -0.024875 0.270246 0.088965" version="1.1" xmlns="http://www.w3.org/2000/svg">
  <defs>
    <pattern id="hatch_cradle" width="0.0012" height="0.0012" patternUnits="userSpaceOnUse" patternTransform="rotate(45)">
      <line x1="0" y1="0" x2="0" y2="0.0012" stroke="rgb(50,120,190)" stroke-width="0.0001" stroke-opacity="0.6"/>
    </pattern>
    <pattern id="hatch_servo" width="0.0012" height="0.0012" patternUnits="userSpaceOnUse" patternTransform="rotate(75)">
      <line x1="0" y1="0" x2="0" y2="0.0012" stroke="rgb(60,60,60)" stroke-width="0.0001" stroke-opacity="0.6"/>
    </pattern>
    <pattern id="hatch_coupler" width="0.0012" height="0.0012" patternUnits="userSpaceOnUse" patternTransform="rotate(105)">
      <line x1="0" y1="0" x2="0" y2="0.0012" stroke="rgb(220,60,40)" stroke-width="0.0001" stroke-opacity="0.6"/>
    </pattern>
  </defs>
  <g transform="scale(1,-1)" stroke-linecap="round">
    <g fill="none" stroke="rgb(50,120,190)" stroke-width="0.00035" id="cradle">
      <line x1="0.116012" y1="0.0157" x2="0.124879" y2="0.0157" />
      <line x1="0.124879" y1="0.0157" x2="0.124879" y2="0.0127" />
      <line x1="0.119012" y1="0.0127" x2="0.124879" y2="0.0127" />
      <line x1="0.119012" y1="0.0127" x2="0.119012" y2="0.005" />
      <line x1="0.116012" y1="0.005" x2="0.119012" y2="0.005" />
      <line x1="0.116012" y1="0.0157" x2="0.116012" y2="0.005" />
      <line x1="0.116012" y1="-0.005" x2="0.119012" y2="-0.005" />
      <line x1="0.119012" y1="-0.005" x2="0.119012" y2="-0.0127" />
      <line x1="0.119012" y1="-0.0127" x2="0.124879" y2="-0.0127" />
      <line x1="0.124879" y1="-0.0127" x2="0.124879" y2="-0.0157" />
      <line x1="0.116012" y1="-0.0157" x2="0.124879" y2="-0.0157" />
      <line x1="0.116012" y1="-0.005" x2="0.116012" y2="-0.0157" />
      <line x1="0.189919" y1="-0.038303" x2="0.189919" y2="-0.028653" />
      <line x1="0.189919" y1="-0.028653" x2="0.19003" y2="-0.028547" />
      <line x1="0.189919" y1="-0.038303" x2="0.198785" y2="-0.038303" />
      <line x1="0.198785" y1="-0.038303" x2="0.198785" y2="-0.028653" />
      <line x1="0.189919" y1="-0.028653" x2="0.198785" y2="-0.028653" />
      <line x1="0.19003" y1="-0.028547" x2="0.198896" y2="-0.028547" />
      <line x1="0.198886" y1="-0.028557" x2="0.198896" y2="-0.028547" />
      <line x1="0.198886" y1="-0.028557" x2="0.19302" y2="-0.028557" />
      <line x1="0.192929" y1="-0.028643" x2="0.19302" y2="-0.028557" />
      <line x1="0.198795" y1="-0.028643" x2="0.192929" y2="-0.028643" />
      <line x1="0.198785" y1="-0.028653" x2="0.198795" y2="-0.028643" />
      <line x1="0.198886" y1="-0.038207" x2="0.198896" y2="-0.038197" />
      <line x1="0.198886" y1="-0.038207" x2="0.198795" y2="-0.038207" />
      <line x1="0.198785" y1="-0.038303" x2="0.198795" y2="-0.038293" />
      <line x1="0.198896" y1="-0.038197" x2="0.198896" y2="-0.028547" />
      <line x1="0.198795" y1="-0.038293" x2="0.198795" y2="-0.028643" />
      <line x1="0.198886" y1="-0.038207" x2="0.198886" y2="-0.028557" />
      <line x1="0.19302" y1="-0.028643" x2="0.19302" y2="-0.028557" />
    </g>
    <g fill="url(#hatch_cradle)" stroke="none" stroke-width="0" id="cradle_fill">
      <path d="M 0.124879,0.0157 L 0.116012,0.0157 L 0.116012,0.005 L 0.119012,0.005 L 0.119012,0.0127 L 0.124879,0.0127 L 0.124879,0.0157" />
      <path d="M 0.119012,-0.005 L 0.116012,-0.005 L 0.116012,-0.0157 L 0.124879,-0.0157 L 0.124879,-0.0127 L 0.119012,-0.0127 L 0.119012,-0.005" />
    </g>
    <g fill="none" stroke="rgb(50,120,190)" stroke-opacity="0.4" stroke-width="0.00015" id="cradle_hidden" stroke-dasharray="0.0018 0.00045">
      <line x1="0.189919" y1="-0.038303" x2="0.19003" y2="-0.038197" />
      <line x1="0.19003" y1="-0.038197" x2="0.19003" y2="-0.028547" />
      <line x1="0.189992" y1="-0.035583" x2="0.189957" y2="-0.035617" />
      <line x1="0.189992" y1="-0.035583" x2="0.189992" y2="-0.029583" />
      <line x1="0.189992" y1="-0.029583" x2="0.189957" y2="-0.029617" />
      <line x1="0.189957" y1="-0.035617" x2="0.189957" y2="-0.029617" />
      <line x1="0.19003" y1="-0.038197" x2="0.198896" y2="-0.038197" />
      <line x1="0.198795" y1="-0.038207" x2="0.19302" y2="-0.038207" />
      <line x1="0.192929" y1="-0.038293" x2="0.19302" y2="-0.038207" />
      <line x1="0.198795" y1="-0.038293" x2="0.192929" y2="-0.038293" />
      <line x1="0.189992" y1="-0.035583" x2="0.192992" y2="-0.035583" />
      <line x1="0.192992" y1="-0.035583" x2="0.192957" y2="-0.035617" />
      <line x1="0.189957" y1="-0.035617" x2="0.192957" y2="-0.035617" />
      <line x1="0.192992" y1="-0.035583" x2="0.192992" y2="-0.029583" />
      <line x1="0.189992" y1="-0.029583" x2="0.192992" y2="-0.029583" />
      <line x1="0.192992" y1="-0.029583" x2="0.192957" y2="-0.029617" />
      <line x1="0.189957" y1="-0.029617" x2="0.192957" y2="-0.029617" />
      <line x1="0.192957" y1="-0.035617" x2="0.192957" y2="-0.029617" />
      <line x1="0.19302" y1="-0.038207" x2="0.19302" y2="-0.028643" />
      <line x1="0.192929" y1="-0.038293" x2="0.192929" y2="-0.028643" />
    </g>
    <g fill="none" stroke="rgb(60,60,60)" stroke-width="0.00035" id="servo">
      <line x1="0.0" y1="-0.008" x2="0.0" y2="0.008" />
      <path d="M 0.0,-0.008 A 0.002,0.002 -90.0 0,1 0.002,-0.01" />
      <line x1="0.002" y1="-0.01" x2="0.018" y2="-0.01" />
      <path d="M 0.02,-0.008 A 0.002,0.002 -90.0 0,0 0.018,-0.01" />
      <line x1="0.02" y1="-0.008" x2="0.02" y2="0.008" />
      <path d="M 0.02,0.008 A 0.002,0.002 -90.0 0,1 0.018,0.01" />
      <line x1="0.002" y1="0.01" x2="0.018" y2="0.01" />
      <path d="M 0.0,0.008 A 0.002,0.002 -90.0 0,0 0.002,0.01" />
      <path d="M 0.049406,0.0124 A 0.004,0.004 180.0 0,1 0.045406,0.0084" />
      <line x1="0.049406" y1="0.0124" x2="0.086806" y2="0.0124" />
      <path d="M 0.090806,0.0084 A 0.004,0.004 0.0 0,1 0.086806,0.0124" />
      <line x1="0.090806" y1="0.0084" x2="0.090806" y2="-0.0084" />
      <path d="M 0.086806,-0.0124 A 0.004,0.004 0.0 0,1 0.090806,-0.0084" />
      <line x1="0.049406" y1="-0.0124" x2="0.086806" y2="-0.0124" />
      <path d="M 0.045406,-0.0084 A 0.004,0.004 180.0 0,1 0.049406,-0.0124" />
      <line x1="0.045406" y1="0.0084" x2="0.045406" y2="-0.0084" />
      <circle cx="0.154512" cy="0.0" r="0.003" />
      <line x1="0.121312" y1="-0.0084" x2="0.121312" y2="-0.0124" />
      <line x1="0.121312" y1="-0.0084" x2="0.161712" y2="-0.0084" />
      <line x1="0.161712" y1="-0.0084" x2="0.161712" y2="-0.0124" />
      <line x1="0.121312" y1="-0.0124" x2="0.161712" y2="-0.0124" />
      <circle cx="0.125012" cy="-0.01025" r="0.0016" />
      <circle cx="0.142012" cy="-0.01025" r="0.0016" />
      <circle cx="0.159012" cy="-0.01025" r="0.0016" />
      <line x1="0.121312" y1="0.0124" x2="0.161712" y2="0.0124" />
      <line x1="0.161712" y1="0.0124" x2="0.161712" y2="0.0084" />
      <line x1="0.121312" y1="0.0084" x2="0.161712" y2="0.0084" />
      <line x1="0.121312" y1="0.0124" x2="0.121312" y2="0.0084" />
      <circle cx="0.125012" cy="0.01025" r="0.0016" />
      <circle cx="0.142012" cy="0.01025" r="0.0016" />
      <circle cx="0.159012" cy="0.01025" r="0.0016" />
      <line x1="0.193264" y1="-0.032613" x2="0.193264" y2="-1.4e-05" />
      <line x1="0.193264" y1="-1.4e-05" x2="0.193285" y2="1.4e-05" />
      <path d="M 0.193264,-1.4e-05 A 0.004,6.44034636134987e-06 -3.570407266150847e-21 0,1 0.197259,-2e-05" />
      <path d="M 0.193264,-0.032613 A 0.004,6.44034636134987e-06 -3.570407266150847e-21 0,1 0.19526,-0.032619" />
      <path d="M 0.19526,-0.032619 A 0.004,6.44034636134987e-06 -3.570407266150847e-21 0,1 0.197259,-0.03262" />
      <line x1="0.197259" y1="-0.03262" x2="0.197259" y2="-2e-05" />
      <path d="M 0.238664,-0.032614 A 0.004,6.44034636134987e-06 180.0 0,0 0.235659,-0.03262" />
      <line x1="0.238664" y1="-0.032614" x2="0.238685" y2="-0.032586" />
      <path d="M 0.193285,1.4e-05 A 0.004,6.44034636134987e-06 180.0 0,0 0.19729,2e-05" />
      <line x1="0.197259" y1="-2e-05" x2="0.234659" y2="-2e-05" />
      <line x1="0.19729" y1="2e-05" x2="0.218465" y2="2e-05" />
      <path d="M 0.238664,-1.4e-05 A 0.004,6.44034636134987e-06 180.0 0,0 0.234659,-2e-05" />
      <path d="M 0.238685,1.3e-05 A 0.004,6.44034636134987e-06 -3.570407266150847e-21 0,1 0.238484,1.5e-05" />
      <line x1="0.238664" y1="-1.4e-05" x2="0.238685" y2="1.3e-05" />
      <path d="M 0.218465,-1.3e-05 A 0.002,3.220173180674935e-06 -3.570407266150847e-21 0,1 0.220462,-1.6e-05" />
      <line x1="0.220462" y1="-1.6e-05" x2="0.236462" y2="-1.6e-05" />
      <path d="M 0.238465,-1.3e-05 A 0.002,3.220173180674935e-06 180.0 0,0 0.236462,-1.6e-05" />
      <line x1="0.238465" y1="-1.3e-05" x2="0.238484" y2="1.3e-05" />
      <line x1="0.195259" y1="-0.03262" x2="0.19526" y2="-0.032619" />
      <line x1="0.195259" y1="-0.03262" x2="0.197259" y2="-0.03262" />
      <line x1="0.234659" y1="-0.03262" x2="0.234659" y2="-2e-05" />
      <line x1="0.234659" y1="-0.03262" x2="0.235659" y2="-0.03262" />
      <line x1="0.235659" y1="-0.03472" x2="0.235659" y2="-0.03262" />
      <line x1="0.195259" y1="-0.03472" x2="0.235659" y2="-0.03472" />
      <line x1="0.195259" y1="-0.03472" x2="0.195259" y2="-0.03262" />
      <line x1="0.235664" y1="-0.034714" x2="0.235664" y2="-0.03262" />
      <line x1="0.235664" y1="-0.034686" x2="0.235685" y2="-0.034686" />
      <line x1="0.235685" y1="-0.034686" x2="0.235685" y2="-0.03262" />
      <line x1="0.235659" y1="-0.03472" x2="0.235664" y2="-0.034714" />
      <line x1="0.23569" y1="-0.03468" x2="0.23569" y2="-0.03262" />
      <line x1="0.235685" y1="-0.034686" x2="0.23569" y2="-0.03468" />
      <line x1="0.238664" y1="-0.032614" x2="0.238664" y2="-1.4e-05" />
      <path d="M 0.235659,-0.03262 A 0.004,6.44034636134987e-06 180.0 0,0 0.234659,-0.03262" />
      <line x1="0.238685" y1="1.3e-05" x2="0.238685" y2="-0.032586" />
      <path d="M 0.235689,-0.03258 A 0.004,6.44034636134987e-06 -3.570407266150847e-21 0,1 0.23469,-0.03258" />
      <path d="M 0.218465,0.001687 A 0.002,3.220173180674935e-06 -3.570407266150847e-21 0,1 0.220462,0.001684" />
      <line x1="0.220462" y1="0.001684" x2="0.236462" y2="0.001684" />
      <path d="M 0.238465,0.001687 A 0.002,3.220173180674935e-06 180.0 0,0 0.236462,0.001684" />
      <line x1="0.238465" y1="0.001687" x2="0.238484" y2="0.001713" />
      <path d="M 0.238484,0.001713 A 0.002,3.220173180674935e-06 -3.570407266150847e-21 0,1 0.236487,0.001716" />
      <line x1="0.220487" y1="0.001716" x2="0.223974" y2="0.001716" />
      <line x1="0.232974" y1="0.001716" x2="0.236487" y2="0.001716" />
      <path d="M 0.218484,0.001713 A 0.002,3.220173180674935e-06 180.0 0,0 0.220487,0.001716" />
      <line x1="0.218465" y1="0.001687" x2="0.218484" y2="0.001713" />
      <path d="M 0.223974,0.0017 A 0.0045,7.2453896565186026e-06 -7.88103626567807e-21 0,1 0.232974,0.0017" />
      <path d="M 0.232974,0.0032 A 0.0045,7.2453896565186026e-06 -7.88103626567807e-21 1,1 0.223974,0.0032" />
      <path d="M 0.223974,0.0032 A 0.0045,7.2453896565186026e-06 -7.88103626567807e-21 0,1 0.232974,0.0032" />
      <line x1="0.218465" y1="-1.3e-05" x2="0.218465" y2="0.001687" />
      <line x1="0.220462" y1="-1.6e-05" x2="0.220462" y2="0.001684" />
      <line x1="0.236462" y1="-1.6e-05" x2="0.236462" y2="0.001684" />
      <line x1="0.238465" y1="-1.3e-05" x2="0.238465" y2="0.001687" />
      <line x1="0.238484" y1="1.3e-05" x2="0.238484" y2="0.001713" />
      <line x1="0.193264" y1="-0.032613" x2="0.193264" y2="-1.4e-05" />
      <line x1="0.238685" y1="-0.032586" x2="0.238685" y2="1.3e-05" />
      <line x1="0.218465" y1="-1.3e-05" x2="0.218465" y2="0.001687" />
      <line x1="0.238484" y1="1.3e-05" x2="0.238484" y2="0.001713" />
      <line x1="0.232974" y1="0.0017" x2="0.232974" y2="0.0032" />
      <line x1="0.223974" y1="0.0017" x2="0.223974" y2="0.0032" />
    </g>
    <g fill="url(#hatch_servo)" stroke="none" stroke-width="0" id="servo_fill">
      <path d="M 0.0,0.008 L 0.0,-0.008 A 0.002,0.002 -90.0 0,1 0.002,-0.01 L 0.018,-0.01 A 0.002,0.002 -90.0 0,1 0.02,-0.008 L 0.02,0.008 A 0.002,0.002 -90.0 0,1 0.018,0.01 L 0.002,0.01 A 0.002,0.002 -90.0 0,1 0.0,0.008" />
      <path d="M 0.049406,0.0124 A 0.004,0.004 180.0 0,1 0.045406,0.0084 L 0.045406,-0.0084 A 0.004,0.004 180.0 0,1 0.049406,-0.0124 L 0.086806,-0.0124 A 0.004,0.004 0.0 0,1 0.090806,-0.0084 L 0.090806,0.0084 A 0.004,0.004 0.0 0,1 0.086806,0.0124 L 0.049406,0.0124" />
      <circle cx="0.154512" cy="0.0" r="0.003" />
      <path d="M 0.121312,-0.0084 L 0.121312,-0.0124 L 0.161712,-0.0124 L 0.161712,-0.0084 L 0.121312,-0.0084 M 0.126612,-0.01025 A 0.0016000000000000044,0.0016000000000000044 0.0 0,0 0.123412,-0.01025 A 0.0016000000000000044,0.0016000000000000044 0.0 0,0 0.126612,-0.01025 M 0.143612,-0.01025 A 0.0016,0.0016 0.0 0,0 0.140412,-0.01025 A 0.0016,0.0016 0.0 0,0 0.143612,-0.01025 M 0.160612,-0.01025 A 0.0016000000000000044,0.0016000000000000044 0.0 0,0 0.157412,-0.01025 A 0.0016000000000000044,0.0016000000000000044 0.0 0,0 0.160612,-0.01025" />
      <path d="M 0.161712,0.0124 L 0.121312,0.0124 L 0.121312,0.0084 L 0.161712,0.0084 L 0.161712,0.0124 M 0.126612,0.01025 A 0.0016000000000000044,0.0016000000000000044 0.0 0,0 0.123412,0.01025 A 0.0016000000000000044,0.0016000000000000044 0.0 0,0 0.126612,0.01025 M 0.143612,0.01025 A 0.0016,0.0016 0.0 0,0 0.140412,0.01025 A 0.0016,0.0016 0.0 0,0 0.143612,0.01025 M 0.160612,0.01025 A 0.0016000000000000044,0.0016000000000000044 0.0 0,0 0.157412,0.01025 A 0.0016000000000000044,0.0016000000000000044 0.0 0,0 0.160612,0.01025" />
    </g>
    <g fill="none" stroke="rgb(60,60,60)" stroke-opacity="0.4" stroke-width="0.00015" id="servo_hidden" stroke-dasharray="0.0018 0.00045">
      <line x1="0.193264" y1="-0.032613" x2="0.193285" y2="-0.032586" />
      <line x1="0.193285" y1="1.4e-05" x2="0.193285" y2="-0.032586" />
      <path d="M 0.193285,-0.032586 A 0.004,6.44034636134987e-06 180.0 0,0 0.195289,-0.032581" />
      <line x1="0.19526" y1="-0.032619" x2="0.195264" y2="-0.032613" />
      <line x1="0.195285" y1="-0.032586" x2="0.195289" y2="-0.032581" />
      <line x1="0.195264" y1="-0.032613" x2="0.235664" y2="-0.032614" />
      <line x1="0.195285" y1="-0.032586" x2="0.235685" y2="-0.032586" />
      <line x1="0.235659" y1="-0.03262" x2="0.235664" y2="-0.032614" />
      <line x1="0.235685" y1="-0.032586" x2="0.235689" y2="-0.03258" />
      <path d="M 0.238685,-0.032586 A 0.004,6.44034636134987e-06 -3.570407266150847e-21 0,1 0.235689,-0.03258" />
      <path d="M 0.231474,-0.0326 A 0.0030000000000000027,4.8302597710124065e-06 -7.88103626567807e-21 1,1 0.225474,-0.0326" />
      <path d="M 0.225474,-0.0326 A 0.0030000000000000027,4.8302597710124065e-06 -7.88103626567807e-21 0,1 0.231474,-0.0326" />
      <line x1="0.19729" y1="2e-05" x2="0.19729" y2="-0.03258" />
      <path d="M 0.195289,-0.032581 A 0.004,6.44034636134987e-06 180.0 0,0 0.19729,-0.03258" />
      <line x1="0.218465" y1="2e-05" x2="0.23469" y2="2e-05" />
      <path d="M 0.238484,1.5e-05 A 0.004,6.44034636134987e-06 -3.570407266150847e-21 0,1 0.23469,2e-05" />
      <path d="M 0.238484,1.3e-05 A 0.002,3.220173180674935e-06 -3.570407266150847e-21 0,1 0.236487,1.6e-05" />
      <line x1="0.220487" y1="1.6e-05" x2="0.236487" y2="1.6e-05" />
      <path d="M 0.218484,1.3e-05 A 0.002,3.220173180674935e-06 180.0 0,0 0.220487,1.6e-05" />
      <line x1="0.218465" y1="-1.3e-05" x2="0.218484" y2="1.3e-05" />
      <line x1="0.195264" y1="-0.034713" x2="0.195264" y2="-0.032613" />
      <line x1="0.195259" y1="-0.03472" x2="0.195264" y2="-0.034713" />
      <line x1="0.195285" y1="-0.034686" x2="0.195285" y2="-0.032586" />
      <line x1="0.195289" y1="-0.032581" x2="0.19529" y2="-0.03258" />
      <line x1="0.19529" y1="-0.03468" x2="0.19529" y2="-0.03258" />
      <line x1="0.195285" y1="-0.034686" x2="0.19529" y2="-0.03468" />
      <line x1="0.195264" y1="-0.034713" x2="0.235664" y2="-0.034714" />
      <line x1="0.235664" y1="-0.03262" x2="0.235664" y2="-0.032614" />
      <line x1="0.195285" y1="-0.034686" x2="0.235664" y2="-0.034686" />
      <line x1="0.235685" y1="-0.03262" x2="0.235685" y2="-0.032586" />
      <line x1="0.23569" y1="-0.03262" x2="0.23569" y2="-0.03258" />
      <line x1="0.23469" y1="2e-05" x2="0.23469" y2="-0.03258" />
      <path d="M 0.231474,-0.0339 A 0.0030000000000000027,4.8302597710124065e-06 -7.88103626567807e-21 1,1 0.225474,-0.0339" />
      <path d="M 0.225474,-0.0339 A 0.0030000000000000027,4.8302597710124065e-06 -7.88103626567807e-21 0,1 0.231474,-0.0339" />
      <line x1="0.23469" y1="-0.03258" x2="0.23569" y2="-0.03258" />
      <line x1="0.19529" y1="-0.03468" x2="0.23569" y2="-0.03468" />
      <line x1="0.19529" y1="-0.03258" x2="0.19729" y2="-0.03258" />
      <line x1="0.223974" y1="0.001716" x2="0.232974" y2="0.001716" />
      <path d="M 0.200562,-0.034716 A 0.0016,2.576138544539948e-06 -7.88103626567807e-21 1,1 0.197362,-0.034716" />
      <path d="M 0.197362,-0.034716 A 0.0016,2.576138544539948e-06 -7.88103626567807e-21 0,1 0.200562,-0.034716" />
      <path d="M 0.217562,-0.034716 A 0.0016000000000000044,2.576138544539955e-06 -7.88103626567807e-21 1,1 0.214362,-0.034716" />
      <path d="M 0.214362,-0.034716 A 0.0016000000000000044,2.576138544539955e-06 -7.88103626567807e-21 0,1 0.217562,-0.034716" />
      <path d="M 0.234562,-0.034717 A 0.0016,2.576138544539948e-06 -7.88103626567807e-21 1,1 0.231362,-0.034717" />
      <path d="M 0.231362,-0.034717 A 0.0016,2.576138544539948e-06 -7.88103626567807e-21 0,1 0.234562,-0.034717" />
      <path d="M 0.200587,-0.034683 A 0.0016,2.576138544539948e-06 -7.88103626567807e-21 1,1 0.197387,-0.034683" />
      <path d="M 0.197387,-0.034683 A 0.0016,2.576138544539948e-06 -7.88103626567807e-21 0,1 0.200587,-0.034683" />
      <path d="M 0.217587,-0.034683 A 0.0016000000000000044,2.576138544539955e-06 -7.88103626567807e-21 1,1 0.214387,-0.034683" />
      <path d="M 0.214387,-0.034683 A 0.0016000000000000044,2.576138544539955e-06 -7.88103626567807e-21 0,1 0.217587,-0.034683" />
      <path d="M 0.234587,-0.034684 A 0.0016,2.576138544539948e-06 -7.88103626567807e-21 1,1 0.231387,-0.034684" />
      <path d="M 0.231387,-0.034684 A 0.0016,2.576138544539948e-06 -7.88103626567807e-21 0,1 0.234587,-0.034684" />
      <path d="M 0.232974,0.0017 A 0.0045,7.2453896565186026e-06 -7.88103626567807e-21 1,1 0.223974,0.0017" />
      <path d="M 0.200562,-0.024716 A 0.0016,2.576138544539948e-06 -7.88103626567807e-21 1,1 0.197362,-0.024716" />
      <path d="M 0.197362,-0.024716 A 0.0016,2.576138544539948e-06 -7.88103626567807e-21 0,1 0.200562,-0.024716" />
      <path d="M 0.217562,-0.024716 A 0.0016000000000000044,2.576138544539955e-06 -7.88103626567807e-21 1,1 0.214362,-0.024716" />
      <path d="M 0.214362,-0.024716 A 0.0016000000000000044,2.576138544539955e-06 -7.88103626567807e-21 0,1 0.217562,-0.024716" />
      <path d="M 0.234562,-0.024717 A 0.0016,2.576138544539948e-06 -7.88103626567807e-21 1,1 0.231362,-0.024717" />
      <path d="M 0.231362,-0.024717 A 0.0016,2.576138544539948e-06 -7.88103626567807e-21 0,1 0.234562,-0.024717" />
      <path d="M 0.200587,-0.024683 A 0.0016,2.576138544539948e-06 -7.88103626567807e-21 1,1 0.197387,-0.024683" />
      <path d="M 0.197387,-0.024683 A 0.0016,2.576138544539948e-06 -7.88103626567807e-21 0,1 0.200587,-0.024683" />
      <path d="M 0.217587,-0.024683 A 0.0016000000000000044,2.576138544539955e-06 -7.88103626567807e-21 1,1 0.214387,-0.024683" />
      <path d="M 0.214387,-0.024683 A 0.0016000000000000044,2.576138544539955e-06 -7.88103626567807e-21 0,1 0.217587,-0.024683" />
      <path d="M 0.234587,-0.024684 A 0.0016,2.576138544539948e-06 -7.88103626567807e-21 1,1 0.231387,-0.024684" />
      <path d="M 0.231387,-0.024684 A 0.0016,2.576138544539948e-06 -7.88103626567807e-21 0,1 0.234587,-0.024684" />
      <line x1="0.231474" y1="-0.0339" x2="0.231474" y2="-0.0326" />
      <line x1="0.225474" y1="-0.0339" x2="0.225474" y2="-0.0326" />
      <line x1="0.200562" y1="-0.034716" x2="0.200562" y2="-0.024716" />
      <line x1="0.197362" y1="-0.034716" x2="0.197362" y2="-0.024716" />
      <line x1="0.217562" y1="-0.034716" x2="0.217562" y2="-0.024716" />
      <line x1="0.214362" y1="-0.034716" x2="0.214362" y2="-0.024716" />
      <line x1="0.234562" y1="-0.034717" x2="0.234562" y2="-0.024717" />
      <line x1="0.231362" y1="-0.034717" x2="0.231362" y2="-0.024717" />
      <line x1="0.200587" y1="-0.034683" x2="0.200587" y2="-0.024683" />
      <line x1="0.197387" y1="-0.034683" x2="0.197387" y2="-0.024683" />
      <line x1="0.217587" y1="-0.034683" x2="0.217587" y2="-0.024683" />
      <line x1="0.214387" y1="-0.034683" x2="0.214387" y2="-0.024683" />
      <line x1="0.234587" y1="-0.034684" x2="0.234587" y2="-0.024684" />
      <line x1="0.231387" y1="-0.034684" x2="0.231387" y2="-0.024684" />
      <line x1="0.236487" y1="1.6e-05" x2="0.236487" y2="0.001716" />
      <line x1="0.220487" y1="1.6e-05" x2="0.220487" y2="0.001716" />
      <line x1="0.218484" y1="1.3e-05" x2="0.218484" y2="0.001713" />
    </g>
    <g fill="none" stroke="rgb(220,60,40)" stroke-width="0.00035" id="coupler">
      <line x1="0.037406" y1="-0.009294" x2="0.01" y2="-0.009294" />
      <line x1="0.037406" y1="-0.009294" x2="0.037406" y2="-0.008294" />
      <line x1="0.037406" y1="-0.008294" x2="0.027406" y2="-0.008294" />
      <line x1="0.027406" y1="-0.008294" x2="0.027406" y2="0.008294" />
      <line x1="0.037406" y1="0.008294" x2="0.027406" y2="0.008294" />
      <line x1="0.037406" y1="0.008294" x2="0.037406" y2="0.009294" />
      <line x1="0.037406" y1="0.009294" x2="0.01" y2="0.009294" />
      <line x1="0.01" y1="0.008294" x2="0.01" y2="0.009294" />
      <path d="M 0.01,0.008294 A 0.008294306588619054,0.008294306588619054 0.0 1,1 0.01,-0.008294" />
      <line x1="0.01" y1="-0.009294" x2="0.01" y2="-0.008294" />
      <path d="M 0.006129,-0.004319 A 0.00125,0.00125 30.292915047062724 1,0 0.005681,-0.003871" />
      <path d="M 0.005681,-0.003871 A 0.0058,0.0058 131.8634957265941 0,0 0.005681,0.003871" />
      <path d="M 0.005681,0.003871 A 0.00125,0.00125 -59.70708495293722 1,0 0.006129,0.004319" />
      <path d="M 0.006129,0.004319 A 0.0058,0.0058 131.8634957265941 0,0 0.013871,0.004319" />
      <path d="M 0.013871,0.004319 A 0.00125,0.00125 -149.70708495293812 1,0 0.014319,0.003871" />
      <path d="M 0.014319,0.003871 A 0.0058,0.0058 131.8634957265941 0,0 0.014319,-0.003871" />
      <path d="M 0.014319,-0.003871 A 0.00125,0.00125 120.29291504706183 1,0 0.013871,-0.004319" />
      <path d="M 0.013871,-0.004319 A 0.0058,0.0058 131.8634957265941 0,0 0.006129,-0.004319" />
      <line x1="0.037406" y1="-0.008294" x2="0.027406" y2="-0.008294" />
      <line x1="0.027406" y1="-0.008294" x2="0.027406" y2="0.008294" />
      <line x1="0.037406" y1="0.008294" x2="0.027406" y2="0.008294" />
      <line x1="0.037406" y1="0.008294" x2="0.037406" y2="-0.008294" />
      <line x1="0.108012" y1="0.008294" x2="0.108012" y2="-0.008294" />
      <line x1="0.098012" y1="-0.008294" x2="0.108012" y2="-0.008294" />
      <line x1="0.098012" y1="0.008294" x2="0.098012" y2="-0.008294" />
      <line x1="0.098012" y1="0.008294" x2="0.108012" y2="0.008294" />
      <line x1="0.181919" y1="-0.009294" x2="0.154512" y2="-0.009294" />
      <line x1="0.181919" y1="-0.009294" x2="0.181919" y2="0.009294" />
      <line x1="0.181919" y1="0.009294" x2="0.154512" y2="0.009294" />
      <line x1="0.154512" y1="0.008294" x2="0.154512" y2="0.009294" />
      <path d="M 0.154512,0.008294 A 0.008294306588619054,0.008294306588619054 0.0 1,1 0.154512,-0.008294" />
      <line x1="0.154512" y1="-0.009294" x2="0.154512" y2="-0.008294" />
      <path d="M 0.150642,-0.004319 A 0.00125,0.00125 30.292915047062724 1,0 0.150193,-0.003871" />
      <path d="M 0.150193,-0.003871 A 0.0058,0.0058 131.8634957265941 0,0 0.150193,0.003871" />
      <path d="M 0.150193,0.003871 A 0.00125,0.00125 -59.70708495293722 1,0 0.150642,0.004319" />
      <path d="M 0.150642,0.004319 A 0.0058,0.0058 131.8634957265941 0,0 0.158383,0.004319" />
      <path d="M 0.158383,0.004319 A 0.00125,0.00125 -149.70708495293812 1,0 0.158832,0.003871" />
      <path d="M 0.158832,0.003871 A 0.0058,0.0058 131.8634957265941 0,0 0.158832,-0.003871" />
      <path d="M 0.158832,-0.003871 A 0.00125,0.00125 120.29291504706183 1,0 0.158383,-0.004319" />
      <path d="M 0.158383,-0.004319 A 0.0058,0.0058 131.8634957265941 0,0 0.150642,-0.004319" />
      <line x1="0.255896" y1="0.011685" x2="0.22849" y2="0.011685" />
      <line x1="0.255896" y1="0.011685" x2="0.255865" y2="0.011715" />
      <line x1="0.255865" y1="0.011715" x2="0.228459" y2="0.011715" />
      <line x1="0.22846" y1="0.011713" x2="0.228459" y2="0.011715" />
      <path d="M 0.22846,0.011713 A 0.008294306588619054,1.3353797496296493e-05 -1.356145821759614e-20 0,1 0.22018,0.0117" />
      <path d="M 0.22018,0.0117 A 0.008294306588619054,1.3353797496296493e-05 -1.356145821759614e-20 0,1 0.228488,0.011687" />
      <line x1="0.22849" y1="0.011685" x2="0.228488" y2="0.011687" />
      <path d="M 0.224611,0.011693 A 0.00125,2.012494557806039e-06 -180.0 0,0 0.224783,0.011692" />
      <path d="M 0.224783,0.011692 A 0.0012500000000000011,2.0124945578060406e-06 -180.0 0,0 0.222283,0.011692" />
      <path d="M 0.222283,0.011692 A 0.00125,2.012494557806039e-06 -180.0 0,0 0.224161,0.011694" />
      <path d="M 0.224161,0.011694 A 0.0058,9.337974748220018e-06 180.0 0,0 0.222674,0.0117" />
      <path d="M 0.222674,0.0117 A 0.0058,9.337974748220018e-06 180.0 0,0 0.224148,0.011706" />
      <path d="M 0.224148,0.011706 A 0.00125,2.012494557806039e-06 -180.0 0,0 0.222266,0.011708" />
      <path d="M 0.222266,0.011708 A 0.0012500000000000011,2.0124945578060406e-06 -180.0 1,0 0.224766,0.011708" />
      <path d="M 0.224766,0.011708 A 0.00125,2.012494557806039e-06 -180.0 0,0 0.224596,0.011707" />
      <path d="M 0.224596,0.011707 A 0.0058,9.337974748220018e-06 180.0 0,0 0.232338,0.011707" />
      <path d="M 0.232338,0.011707 A 0.00125,2.012494557806039e-06 -180.0 0,0 0.232166,0.011708" />
      <path d="M 0.232166,0.011708 A 0.0012500000000000011,2.0124945578060406e-06 -180.0 0,0 0.234666,0.011708" />
      <path d="M 0.234666,0.011708 A 0.00125,2.012494557806039e-06 -180.0 0,0 0.232787,0.011706" />
      <path d="M 0.232787,0.011706 A 0.0058,9.337974748220018e-06 180.0 0,0 0.234274,0.0117" />
      <path d="M 0.234274,0.0117 A 0.0058,9.337974748220018e-06 180.0 0,0 0.2328,0.011694" />
      <path d="M 0.2328,0.011694 A 0.00125,2.0124945578060385e-06 180.0 0,0 0.234683,0.011692" />
      <path d="M 0.234683,0.011692 A 0.0012500000000000011,2.01249455780604e-06 180.0 0,0 0.232183,0.011692" />
      <path d="M 0.232183,0.011692 A 0.00125,2.0124945578060385e-06 180.0 0,0 0.232352,0.011693" />
      <path d="M 0.232352,0.011693 A 0.0058,9.337974748220018e-06 180.0 0,0 0.224611,0.011693" />
      <line x1="0.255896" y1="0.001685" x2="0.22849" y2="0.001685" />
      <line x1="0.255896" y1="0.001685" x2="0.255896" y2="0.011685" />
      <line x1="0.22849" y1="0.001685" x2="0.22849" y2="0.011685" />
      <line x1="0.255894" y1="-0.033913" x2="0.255894" y2="0.001685" />
      <line x1="0.255896" y1="-0.033915" x2="0.255894" y2="-0.033913" />
      <line x1="0.255896" y1="-0.043915" x2="0.255896" y2="-0.033915" />
      <line x1="0.228459" y1="0.011713" x2="0.228459" y2="0.011715" />
      <line x1="0.228488" y1="0.001687" x2="0.228488" y2="0.011687" />
      <path d="M 0.22018,0.0017 A 0.008294306588619054,1.3353797496296493e-05 -1.356145821759614e-20 0,1 0.228488,0.001687" />
      <line x1="0.22849" y1="0.001685" x2="0.228488" y2="0.001687" />
      <line x1="0.224611" y1="0.011691" x2="0.224611" y2="0.011693" />
      <line x1="0.224161" y1="0.01169" x2="0.224161" y2="0.011694" />
      <line x1="0.224148" y1="0.011694" x2="0.224148" y2="0.011706" />
      <line x1="0.224596" y1="0.011693" x2="0.224596" y2="0.011707" />
      <line x1="0.232338" y1="0.011693" x2="0.232338" y2="0.011707" />
      <line x1="0.232787" y1="0.011694" x2="0.232787" y2="0.011706" />
      <line x1="0.2328" y1="0.01169" x2="0.2328" y2="0.011694" />
      <line x1="0.232352" y1="0.011691" x2="0.232352" y2="0.011693" />
      <line x1="0.245894" y1="-0.033913" x2="0.245894" y2="0.001685" />
      <line x1="0.245894" y1="-0.033913" x2="0.255894" y2="-0.033913" />
      <line x1="0.255896" y1="-0.033915" x2="0.22849" y2="-0.033915" />
      <line x1="0.245867" y1="-0.033887" x2="0.245894" y2="-0.033913" />
      <line x1="0.245867" y1="-0.033885" x2="0.228459" y2="-0.033885" />
      <line x1="0.22846" y1="-0.033887" x2="0.228459" y2="-0.033885" />
      <path d="M 0.22846,-0.033887 A 0.008294306588619054,1.3353797496296493e-05 -1.356145821759614e-20 0,1 0.22018,-0.0339" />
      <path d="M 0.22018,-0.0339 A 0.008294306588619054,1.3353797496296493e-05 -1.356145821759614e-20 0,1 0.228488,-0.033913" />
      <line x1="0.22849" y1="-0.033915" x2="0.228488" y2="-0.033913" />
      <path d="M 0.224611,-0.033907 A 0.00125,2.012494557806039e-06 -180.0 0,0 0.224783,-0.033908" />
      <path d="M 0.224783,-0.033908 A 0.0012500000000000011,2.0124945578060406e-06 -180.0 0,0 0.222283,-0.033908" />
      <path d="M 0.222283,-0.033908 A 0.00125,2.012494557806039e-06 -180.0 0,0 0.224161,-0.033906" />
      <path d="M 0.224161,-0.033906 A 0.0058,9.337974748220018e-06 180.0 0,0 0.222674,-0.0339" />
      <path d="M 0.222674,-0.0339 A 0.0058,9.337974748220018e-06 180.0 0,0 0.224148,-0.033894" />
      <path d="M 0.224148,-0.033894 A 0.00125,2.012494557806039e-06 -180.0 0,0 0.222266,-0.033892" />
      <path d="M 0.222266,-0.033892 A 0.0012500000000000011,2.0124945578060406e-06 -180.0 1,0 0.224766,-0.033892" />
      <path d="M 0.224766,-0.033892 A 0.00125,2.012494557806039e-06 -180.0 0,0 0.224596,-0.033893" />
      <path d="M 0.224596,-0.033893 A 0.0058,9.337974748220018e-06 180.0 0,0 0.232338,-0.033893" />
      <path d="M 0.232338,-0.033893 A 0.00125,2.012494557806039e-06 -180.0 0,0 0.232166,-0.033892" />
      <path d="M 0.232166,-0.033892 A 0.0012500000000000011,2.0124945578060406e-06 -180.0 0,0 0.234666,-0.033892" />
      <path d="M 0.234666,-0.033892 A 0.00125,2.012494557806039e-06 -180.0 0,0 0.232787,-0.033894" />
      <path d="M 0.232787,-0.033894 A 0.0058,9.337974748220018e-06 180.0 0,0 0.234274,-0.0339" />
      <path d="M 0.234274,-0.0339 A 0.0058,9.337974748220018e-06 180.0 0,0 0.2328,-0.033906" />
      <path d="M 0.2328,-0.033906 A 0.00125,2.0124945578060385e-06 180.0 0,0 0.234683,-0.033908" />
      <path d="M 0.234683,-0.033908 A 0.0012500000000000011,2.01249455780604e-06 180.0 0,0 0.232183,-0.033908" />
      <path d="M 0.232183,-0.033908 A 0.00125,2.0124945578060385e-06 180.0 0,0 0.232352,-0.033907" />
      <path d="M 0.232352,-0.033907 A 0.0058,9.337974748220018e-06 180.0 0,0 0.224611,-0.033907" />
      <line x1="0.255896" y1="-0.043915" x2="0.22849" y2="-0.043915" />
      <line x1="0.22849" y1="-0.043915" x2="0.22849" y2="-0.033915" />
      <path d="M 0.22018,-0.0439 A 0.008294306588619054,1.3353797496296493e-05 -1.356145821759614e-20 0,1 0.228488,-0.043913" />
      <line x1="0.22849" y1="-0.043915" x2="0.228488" y2="-0.043913" />
      <line x1="0.228459" y1="-0.033887" x2="0.228459" y2="-0.033885" />
      <line x1="0.245867" y1="-0.033887" x2="0.245867" y2="0.001685" />
      <line x1="0.228488" y1="-0.043913" x2="0.228488" y2="-0.033913" />
      <line x1="0.224611" y1="-0.033909" x2="0.224611" y2="-0.033907" />
      <line x1="0.224161" y1="-0.03391" x2="0.224161" y2="-0.033906" />
      <line x1="0.232352" y1="-0.033909" x2="0.232352" y2="-0.033907" />
      <line x1="0.2328" y1="-0.03391" x2="0.2328" y2="-0.033906" />
      <line x1="0.232787" y1="-0.033906" x2="0.232787" y2="-0.033894" />
      <line x1="0.232338" y1="-0.033907" x2="0.232338" y2="-0.033893" />
      <line x1="0.224596" y1="-0.033907" x2="0.224596" y2="-0.033893" />
      <line x1="0.224148" y1="-0.033906" x2="0.224148" y2="-0.033894" />
      <line x1="0.22018" y1="0.0017" x2="0.22018" y2="0.0117" />
      <line x1="0.22018" y1="-0.0439" x2="0.22018" y2="-0.0339" />
    </g>
    <g fill="url(#hatch_coupler)" stroke="none" stroke-width="0" id="coupler_fill">
      <path d="M 0.037406,-0.009294 L 0.01,-0.009294 L 0.01,-0.008294 A 0.008294306588619054,0.008294306588619054 0.0 1,0 0.01,0.008294 L 0.01,0.009294 L 0.037406,0.009294 L 0.037406,0.008294 L 0.027406,0.008294 L 0.027406,-0.008294 L 0.037406,-0.008294 L 0.037406,-0.009294 M 0.005681,-0.003871 A 0.00125,0.00125 30.292915047062724 1,1 0.006129,-0.004319 A 0.0058,0.0058 131.8634957265941 0,1 0.013871,-0.004319 A 0.00125,0.00125 120.29291504706183 1,1 0.014319,-0.003871 A 0.0058,0.0058 131.8634957265941 0,1 0.014319,0.003871 A 0.00125,0.00125 -149.70708495293812 1,1 0.013871,0.004319 A 0.0058,0.0058 131.8634957265941 0,1 0.006129,0.004319 A 0.00125,0.00125 -59.70708495293722 1,1 0.005681,0.003871 A 0.0058,0.0058 131.8634957265941 0,1 0.005681,-0.003871" />
      <path d="M 0.027406,-0.008294 L 0.037406,-0.008294 L 0.037406,0.008294 L 0.027406,0.008294 L 0.027406,-0.008294" />
      <path d="M 0.108012,-0.008294 L 0.108012,0.008294 L 0.098012,0.008294 L 0.098012,-0.008294 L 0.108012,-0.008294" />
      <path d="M 0.154512,-0.009294 L 0.181919,-0.009294 L 0.181919,0.009294 L 0.154512,0.009294 L 0.154512,0.008294 A 0.008294306588619054,0.008294306588619054 0.0 1,1 0.154512,-0.008294 L 0.154512,-0.009294 M 0.150642,-0.004319 A 0.00125,0.00125 30.292915047062724 1,0 0.150193,-0.003871 A 0.0058,0.0058 131.8634957265941 0,0 0.150193,0.003871 A 0.00125,0.00125 -59.70708495293722 1,0 0.150642,0.004319 A 0.0058,0.0058 131.8634957265941 0,0 0.158383,0.004319 A 0.00125,0.00125 -149.70708495293812 1,0 0.158832,0.003871 A 0.0058,0.0058 131.8634957265941 0,0 0.158832,-0.003871 A 0.00125,0.00125 120.29291504706183 1,0 0.158383,-0.004319 A 0.0058,0.0058 131.8634957265941 0,0 0.150642,-0.004319" />
    </g>
    <g fill="none" stroke="rgb(220,60,40)" stroke-opacity="0.4" stroke-width="0.00015" id="coupler_hidden" stroke-dasharray="0.0018 0.00045">
      <line x1="0.255896" y1="0.001685" x2="0.255894" y2="0.001687" />
      <line x1="0.255894" y1="0.001685" x2="0.255894" y2="0.001687" />
      <line x1="0.255896" y1="-0.043915" x2="0.255865" y2="-0.043885" />
      <line x1="0.255865" y1="-0.043885" x2="0.255865" y2="-0.033885" />
      <line x1="0.255867" y1="-0.033887" x2="0.255865" y2="-0.033885" />
      <line x1="0.255867" y1="-0.033887" x2="0.255867" y2="0.001713" />
      <line x1="0.255867" y1="0.001713" x2="0.255865" y2="0.001715" />
      <line x1="0.255865" y1="0.001715" x2="0.255865" y2="0.011715" />
      <line x1="0.255865" y1="0.001715" x2="0.228459" y2="0.001715" />
      <line x1="0.228459" y1="0.001715" x2="0.228459" y2="0.011713" />
      <line x1="0.22846" y1="0.001713" x2="0.228459" y2="0.001715" />
      <line x1="0.22846" y1="0.001713" x2="0.22846" y2="0.011713" />
      <path d="M 0.22846,0.001713 A 0.008294306588619054,1.3353797496296493e-05 -1.356145821759614e-20 0,1 0.22018,0.0017" />
      <path d="M 0.224611,0.001693 A 0.00125,2.012494557806039e-06 -180.0 0,0 0.224783,0.001692" />
      <path d="M 0.224783,0.001692 A 0.0012500000000000011,2.0124945578060406e-06 -180.0 0,0 0.222283,0.001692" />
      <path d="M 0.222283,0.001692 A 0.00125,2.012494557806039e-06 -180.0 0,0 0.224161,0.001694" />
      <line x1="0.224611" y1="0.001693" x2="0.224611" y2="0.011691" />
      <line x1="0.224161" y1="0.001694" x2="0.224161" y2="0.01169" />
      <path d="M 0.224161,0.001694 A 0.0058,9.337974748220018e-06 180.0 0,0 0.222674,0.0017" />
      <path d="M 0.222674,0.0017 A 0.0058,9.337974748220018e-06 180.0 0,0 0.224148,0.001706" />
      <line x1="0.224148" y1="0.001706" x2="0.224148" y2="0.011694" />
      <path d="M 0.224148,0.001706 A 0.00125,2.012494557806039e-06 -180.0 0,0 0.222266,0.001708" />
      <path d="M 0.222266,0.001708 A 0.0012500000000000011,2.0124945578060406e-06 -180.0 1,0 0.224766,0.001708" />
      <path d="M 0.224766,0.001708 A 0.00125,2.012494557806039e-06 -180.0 0,0 0.224596,0.001707" />
      <line x1="0.224596" y1="0.001707" x2="0.224596" y2="0.011693" />
      <path d="M 0.224596,0.001707 A 0.0058,9.337974748220018e-06 180.0 0,0 0.232338,0.001707" />
      <line x1="0.232338" y1="0.001707" x2="0.232338" y2="0.011693" />
      <path d="M 0.232338,0.001707 A 0.00125,2.012494557806039e-06 -180.0 0,0 0.232166,0.001708" />
      <path d="M 0.232166,0.001708 A 0.0012500000000000011,2.0124945578060406e-06 -180.0 0,0 0.234666,0.001708" />
      <path d="M 0.234666,0.001708 A 0.00125,2.012494557806039e-06 -180.0 0,0 0.232787,0.001706" />
      <line x1="0.232787" y1="0.001706" x2="0.232787" y2="0.011694" />
      <path d="M 0.232787,0.001706 A 0.0058,9.337974748220018e-06 180.0 0,0 0.234274,0.0017" />
      <path d="M 0.234274,0.0017 A 0.0058,9.337974748220018e-06 180.0 0,0 0.2328,0.001694" />
      <line x1="0.2328" y1="0.001694" x2="0.2328" y2="0.01169" />
      <path d="M 0.2328,0.001694 A 0.00125,2.0124945578060385e-06 180.0 0,0 0.234683,0.001692" />
      <path d="M 0.234683,0.001692 A 0.0012500000000000011,2.01249455780604e-06 180.0 0,0 0.232183,0.001692" />
      <path d="M 0.232183,0.001692 A 0.00125,2.0124945578060385e-06 180.0 0,0 0.232352,0.001693" />
      <line x1="0.232352" y1="0.001693" x2="0.232352" y2="0.011691" />
      <path d="M 0.232352,0.001693 A 0.0058,9.337974748220018e-06 180.0 0,0 0.224611,0.001693" />
      <line x1="0.255894" y1="0.001687" x2="0.245894" y2="0.001687" />
      <line x1="0.245894" y1="0.001687" x2="0.245867" y2="0.001713" />
      <line x1="0.255867" y1="0.001713" x2="0.245867" y2="0.001713" />
      <line x1="0.245894" y1="0.001685" x2="0.245894" y2="0.001687" />
      <line x1="0.245867" y1="-0.033887" x2="0.255867" y2="-0.033887" />
      <line x1="0.255865" y1="-0.033885" x2="0.245867" y2="-0.033885" />
      <line x1="0.255865" y1="-0.043885" x2="0.228459" y2="-0.043885" />
      <line x1="0.22846" y1="-0.043887" x2="0.228459" y2="-0.043885" />
      <path d="M 0.22846,-0.043887 A 0.008294306588619054,1.3353797496296493e-05 -1.356145821759614e-20 0,1 0.22018,-0.0439" />
      <path d="M 0.224596,-0.043893 A 0.00125,2.012494557806039e-06 -6.2734347397049804e-18 0,1 0.224766,-0.043892" />
      <path d="M 0.224766,-0.043892 A 0.0012500000000000011,2.0124945578060406e-06 -6.2734347397049804e-18 1,1 0.222266,-0.043892" />
      <path d="M 0.222266,-0.043892 A 0.00125,2.012494557806039e-06 -6.2734347397049804e-18 0,1 0.224148,-0.043894" />
      <path d="M 0.232338,-0.043893 A 0.0058,9.337974748220018e-06 1.2191095560488982e-17 0,1 0.224596,-0.043893" />
      <path d="M 0.232787,-0.043894 A 0.00125,2.012494557806039e-06 -6.7537814046071314e-18 0,1 0.234666,-0.043892" />
      <path d="M 0.234666,-0.043892 A 0.0012500000000000011,2.0124945578060406e-06 -6.7537814046071314e-18 1,1 0.232166,-0.043892" />
      <path d="M 0.232166,-0.043892 A 0.00125,2.012494557806039e-06 -6.7537814046071314e-18 0,1 0.232338,-0.043893" />
      <path d="M 0.2328,-0.043906 A 0.0058,9.337974748220018e-06 1.2191095560488982e-17 0,1 0.234274,-0.0439" />
      <path d="M 0.234274,-0.0439 A 0.0058,9.337974748220018e-06 1.2191095560488982e-17 0,1 0.232787,-0.043894" />
      <path d="M 0.232352,-0.043907 A 0.00125,2.0124945578060385e-06 -1.671174752095824e-18 0,1 0.232183,-0.043908" />
      <path d="M 0.232183,-0.043908 A 0.0012500000000000011,2.01249455780604e-06 -1.671174752095824e-18 0,1 0.234683,-0.043908" />
      <path d="M 0.234683,-0.043908 A 0.00125,2.0124945578060385e-06 -1.671174752095824e-18 0,1 0.2328,-0.043906" />
      <path d="M 0.224611,-0.043907 A 0.0058,9.337974748220018e-06 1.2191095560488982e-17 0,1 0.232352,-0.043907" />
      <path d="M 0.224161,-0.043906 A 0.00125,2.012494557806039e-06 -1.5783917803596014e-18 0,1 0.222283,-0.043908" />
      <path d="M 0.222283,-0.043908 A 0.0012500000000000011,2.0124945578060406e-06 -1.5783917803596014e-18 0,1 0.224783,-0.043908" />
      <path d="M 0.224783,-0.043908 A 0.00125,2.012494557806039e-06 -1.5783917803596014e-18 0,1 0.224611,-0.043907" />
      <path d="M 0.224148,-0.043894 A 0.0058,9.337974748220018e-06 1.2191095560488982e-17 0,1 0.222674,-0.0439" />
      <path d="M 0.222674,-0.0439 A 0.0058,9.337974748220018e-06 1.2191095560488982e-17 0,1 0.224161,-0.043906" />
      <line x1="0.228459" y1="-0.043885" x2="0.228459" y2="-0.033887" />
      <line x1="0.245867" y1="0.001685" x2="0.245867" y2="0.001713" />
      <line x1="0.22846" y1="-0.043887" x2="0.22846" y2="-0.033887" />
      <line x1="0.224611" y1="-0.043907" x2="0.224611" y2="-0.033909" />
      <line x1="0.224161" y1="-0.043906" x2="0.224161" y2="-0.03391" />
      <line x1="0.232352" y1="-0.043907" x2="0.232352" y2="-0.033909" />
      <line x1="0.2328" y1="-0.043906" x2="0.2328" y2="-0.03391" />
      <line x1="0.232787" y1="-0.043894" x2="0.232787" y2="-0.033906" />
      <line x1="0.232338" y1="-0.043893" x2="0.232338" y2="-0.033907" />
      <line x1="0.224596" y1="-0.043893" x2="0.224596" y2="-0.033907" />
      <line x1="0.224148" y1="-0.043894" x2="0.224148" y2="-0.033906" />
      <line x1="0.224783" y1="0.001692" x2="0.224783" y2="0.011692" />
      <line x1="0.222283" y1="0.001692" x2="0.222283" y2="0.011692" />
      <line x1="0.222674" y1="0.0017" x2="0.222674" y2="0.0117" />
      <line x1="0.224766" y1="0.001708" x2="0.224766" y2="0.011708" />
      <line x1="0.222266" y1="0.001708" x2="0.222266" y2="0.011708" />
      <line x1="0.234666" y1="0.001708" x2="0.234666" y2="0.011708" />
      <line x1="0.232166" y1="0.001708" x2="0.232166" y2="0.011708" />
      <line x1="0.234274" y1="0.0017" x2="0.234274" y2="0.0117" />
      <line x1="0.234683" y1="0.001692" x2="0.234683" y2="0.011692" />
      <line x1="0.232183" y1="0.001692" x2="0.232183" y2="0.011692" />
      <line x1="0.224783" y1="-0.043908" x2="0.224783" y2="-0.033908" />
      <line x1="0.222283" y1="-0.043908" x2="0.222283" y2="-0.033908" />
      <line x1="0.234683" y1="-0.043908" x2="0.234683" y2="-0.033908" />
      <line x1="0.232183" y1="-0.043908" x2="0.232183" y2="-0.033908" />
      <line x1="0.234274" y1="-0.0439" x2="0.234274" y2="-0.0339" />
      <line x1="0.234666" y1="-0.043892" x2="0.234666" y2="-0.033892" />
      <line x1="0.232166" y1="-0.043892" x2="0.232166" y2="-0.033892" />
      <line x1="0.224766" y1="-0.043892" x2="0.224766" y2="-0.033892" />
      <line x1="0.222266" y1="-0.043892" x2="0.222266" y2="-0.033892" />
      <line x1="0.222674" y1="-0.0439" x2="0.222674" y2="-0.0339" />
    </g>
  </g>
  <text x="0.018703" y="-0.021375" text-anchor="middle" font-family="'Input Sans Narrow', 'DejaVu Sans', Arial, sans-serif" font-size="0.002500" font-weight="bold" fill="#333">A-A</text>
  <text x="0.018703" y="-0.017875" text-anchor="middle" font-family="'Input Sans Narrow', 'DejaVu Sans', Arial, sans-serif" font-size="0.001800" fill="#888">front_horn</text>
  <line x1="0.000000" y1="0.010800" x2="0.000000" y2="0.013800" stroke="#5C7080" stroke-width="0.000140" stroke-opacity="0.5"/>
  <line x1="0.037406" y1="0.010800" x2="0.037406" y2="0.013800" stroke="#5C7080" stroke-width="0.000140" stroke-opacity="0.5"/>
  <line x1="0.000000" y1="0.012200" x2="0.000000" y2="0.013800" stroke="#5C7080" stroke-width="0.000200"/>
  <line x1="0.037406" y1="0.012200" x2="0.037406" y2="0.013800" stroke="#5C7080" stroke-width="0.000200"/>
  <line x1="0.000000" y1="0.013000" x2="0.037406" y2="0.013000" stroke="#5C7080" stroke-width="0.000200"/>
  <polygon points="0.000000,0.013000 0.001500,0.012400 0.001500,0.013600" fill="#5C7080"/>
  <polygon points="0.037406,0.013000 0.035906,0.012400 0.035906,0.013600" fill="#5C7080"/>
  <text x="0.018703" y="0.011800" text-anchor="middle" font-family="'Input Sans Narrow', 'DejaVu Sans', Arial, sans-serif" font-size="0.001600" fill="#5C7080">37.4</text>
  <line x1="0.038206" y1="-0.010000" x2="0.041206" y2="-0.010000" stroke="#5C7080" stroke-width="0.000140" stroke-opacity="0.5"/>
  <line x1="0.038206" y1="0.010000" x2="0.041206" y2="0.010000" stroke="#5C7080" stroke-width="0.000140" stroke-opacity="0.5"/>
  <line x1="0.039606" y1="-0.010000" x2="0.041206" y2="-0.010000" stroke="#5C7080" stroke-width="0.000200"/>
  <line x1="0.039606" y1="0.010000" x2="0.041206" y2="0.010000" stroke="#5C7080" stroke-width="0.000200"/>
  <line x1="0.040406" y1="-0.010000" x2="0.040406" y2="0.010000" stroke="#5C7080" stroke-width="0.000200"/>
  <polygon points="0.040406,-0.010000 0.039806,-0.008500 0.041006,-0.008500" fill="#5C7080"/>
  <polygon points="0.040406,0.010000 0.039806,0.008500 0.041006,0.008500" fill="#5C7080"/>
  <text x="0.041906" y="0.000000" text-anchor="middle" dominant-baseline="central" font-family="'Input Sans Narrow', 'DejaVu Sans', Arial, sans-serif" font-size="0.001600" fill="#5C7080" transform="rotate(-90 0.041906 0.000000)">20.0</text>
  <text x="0.076709" y="-0.021375" text-anchor="middle" font-family="'Input Sans Narrow', 'DejaVu Sans', Arial, sans-serif" font-size="0.002500" font-weight="bold" fill="#333">B-B</text>
  <text x="0.076709" y="-0.017875" text-anchor="middle" font-family="'Input Sans Narrow', 'DejaVu Sans', Arial, sans-serif" font-size="0.001800" fill="#888">mid_body</text>
  <line x1="0.045406" y1="0.013200" x2="0.045406" y2="0.016200" stroke="#5C7080" stroke-width="0.000140" stroke-opacity="0.5"/>
  <line x1="0.108012" y1="0.013200" x2="0.108012" y2="0.016200" stroke="#5C7080" stroke-width="0.000140" stroke-opacity="0.5"/>
  <line x1="0.045406" y1="0.014600" x2="0.045406" y2="0.016200" stroke="#5C7080" stroke-width="0.000200"/>
  <line x1="0.108012" y1="0.014600" x2="0.108012" y2="0.016200" stroke="#5C7080" stroke-width="0.000200"/>
  <line x1="0.045406" y1="0.015400" x2="0.108012" y2="0.015400" stroke="#5C7080" stroke-width="0.000200"/>
  <polygon points="0.045406,0.015400 0.046906,0.014800 0.046906,0.016000" fill="#5C7080"/>
  <polygon points="0.108012,0.015400 0.106512,0.014800 0.106512,0.016000" fill="#5C7080"/>
  <text x="0.076709" y="0.014200" text-anchor="middle" font-family="'Input Sans Narrow', 'DejaVu Sans', Arial, sans-serif" font-size="0.001600" fill="#5C7080">62.6</text>
  <line x1="0.108812" y1="-0.012400" x2="0.111812" y2="-0.012400" stroke="#5C7080" stroke-width="0.000140" stroke-opacity="0.5"/>
  <line x1="0.108812" y1="0.012400" x2="0.111812" y2="0.012400" stroke="#5C7080" stroke-width="0.000140" stroke-opacity="0.5"/>
  <line x1="0.110212" y1="-0.012400" x2="0.111812" y2="-0.012400" stroke="#5C7080" stroke-width="0.000200"/>
  <line x1="0.110212" y1="0.012400" x2="0.111812" y2="0.012400" stroke="#5C7080" stroke-width="0.000200"/>
  <line x1="0.111012" y1="-0.012400" x2="0.111012" y2="0.012400" stroke="#5C7080" stroke-width="0.000200"/>
  <polygon points="0.111012,-0.012400 0.110412,-0.010900 0.111612,-0.010900" fill="#5C7080"/>
  <polygon points="0.111012,0.012400 0.110412,0.010900 0.111612,0.010900" fill="#5C7080"/>
  <text x="0.112512" y="0.000000" text-anchor="middle" dominant-baseline="central" font-family="'Input Sans Narrow', 'DejaVu Sans', Arial, sans-serif" font-size="0.001600" fill="#5C7080" transform="rotate(-90 0.112512 0.000000)">24.8</text>
  <text x="0.148965" y="-0.021375" text-anchor="middle" font-family="'Input Sans Narrow', 'DejaVu Sans', Arial, sans-serif" font-size="0.002500" font-weight="bold" fill="#333">C-C</text>
  <text x="0.148965" y="-0.017875" text-anchor="middle" font-family="'Input Sans Narrow', 'DejaVu Sans', Arial, sans-serif" font-size="0.001800" fill="#888">rear_horn</text>
  <line x1="0.116012" y1="0.016500" x2="0.116012" y2="0.019500" stroke="#5C7080" stroke-width="0.000140" stroke-opacity="0.5"/>
  <line x1="0.181919" y1="0.016500" x2="0.181919" y2="0.019500" stroke="#5C7080" stroke-width="0.000140" stroke-opacity="0.5"/>
  <line x1="0.116012" y1="0.017900" x2="0.116012" y2="0.019500" stroke="#5C7080" stroke-width="0.000200"/>
  <line x1="0.181919" y1="0.017900" x2="0.181919" y2="0.019500" stroke="#5C7080" stroke-width="0.000200"/>
  <line x1="0.116012" y1="0.018700" x2="0.181919" y2="0.018700" stroke="#5C7080" stroke-width="0.000200"/>
  <polygon points="0.116012,0.018700 0.117512,0.018100 0.117512,0.019300" fill="#5C7080"/>
  <polygon points="0.181919,0.018700 0.180419,0.018100 0.180419,0.019300" fill="#5C7080"/>
  <text x="0.148965" y="0.017500" text-anchor="middle" font-family="'Input Sans Narrow', 'DejaVu Sans', Arial, sans-serif" font-size="0.001600" fill="#5C7080">65.9</text>
  <line x1="0.182719" y1="-0.015700" x2="0.185719" y2="-0.015700" stroke="#5C7080" stroke-width="0.000140" stroke-opacity="0.5"/>
  <line x1="0.182719" y1="0.015700" x2="0.185719" y2="0.015700" stroke="#5C7080" stroke-width="0.000140" stroke-opacity="0.5"/>
  <line x1="0.184119" y1="-0.015700" x2="0.185719" y2="-0.015700" stroke="#5C7080" stroke-width="0.000200"/>
  <line x1="0.184119" y1="0.015700" x2="0.185719" y2="0.015700" stroke="#5C7080" stroke-width="0.000200"/>
  <line x1="0.184919" y1="-0.015700" x2="0.184919" y2="0.015700" stroke="#5C7080" stroke-width="0.000200"/>
  <polygon points="0.184919,-0.015700 0.184319,-0.014200 0.185519,-0.014200" fill="#5C7080"/>
  <polygon points="0.184919,0.015700 0.184319,0.014200 0.185519,0.014200" fill="#5C7080"/>
  <text x="0.186419" y="0.000000" text-anchor="middle" dominant-baseline="central" font-family="'Input Sans Narrow', 'DejaVu Sans', Arial, sans-serif" font-size="0.001600" fill="#5C7080" transform="rotate(-90 0.186419 0.000000)">31.4</text>
  <text x="0.222907" y="-0.021375" text-anchor="middle" font-family="'Input Sans Narrow', 'DejaVu Sans', Arial, sans-serif" font-size="0.002500" font-weight="bold" fill="#333">side_XZ</text>
  <line x1="0.189919" y1="0.044715" x2="0.189919" y2="0.047715" stroke="#5C7080" stroke-width="0.000140" stroke-opacity="0.5"/>
  <line x1="0.255896" y1="0.044715" x2="0.255896" y2="0.047715" stroke="#5C7080" stroke-width="0.000140" stroke-opacity="0.5"/>
  <line x1="0.189919" y1="0.046115" x2="0.189919" y2="0.047715" stroke="#5C7080" stroke-width="0.000200"/>
  <line x1="0.255896" y1="0.046115" x2="0.255896" y2="0.047715" stroke="#5C7080" stroke-width="0.000200"/>
  <line x1="0.189919" y1="0.046915" x2="0.255896" y2="0.046915" stroke="#5C7080" stroke-width="0.000200"/>
  <polygon points="0.189919,0.046915 0.191419,0.046315 0.191419,0.047515" fill="#5C7080"/>
  <polygon points="0.255896,0.046915 0.254396,0.046315 0.254396,0.047515" fill="#5C7080"/>
  <text x="0.222907" y="0.045715" text-anchor="middle" font-family="'Input Sans Narrow', 'DejaVu Sans', Arial, sans-serif" font-size="0.001600" fill="#5C7080">66.0</text>
  <line x1="0.256696" y1="-0.011715" x2="0.259696" y2="-0.011715" stroke="#5C7080" stroke-width="0.000140" stroke-opacity="0.5"/>
  <line x1="0.256696" y1="0.043915" x2="0.259696" y2="0.043915" stroke="#5C7080" stroke-width="0.000140" stroke-opacity="0.5"/>
  <line x1="0.258096" y1="-0.011715" x2="0.259696" y2="-0.011715" stroke="#5C7080" stroke-width="0.000200"/>
  <line x1="0.258096" y1="0.043915" x2="0.259696" y2="0.043915" stroke="#5C7080" stroke-width="0.000200"/>
  <line x1="0.258896" y1="-0.011715" x2="0.258896" y2="0.043915" stroke="#5C7080" stroke-width="0.000200"/>
  <polygon points="0.258896,-0.011715 0.258296,-0.010215 0.259496,-0.010215" fill="#5C7080"/>
  <polygon points="0.258896,0.043915 0.258296,0.042415 0.259496,0.042415" fill="#5C7080"/>
  <text x="0.260396" y="0.016100" text-anchor="middle" dominant-baseline="central" font-family="'Input Sans Narrow', 'DejaVu Sans', Arial, sans-serif" font-size="0.001600" fill="#5C7080" transform="rotate(-90 0.260396 0.016100)">55.6</text>
  <line x1="0.186919" y1="-0.001700" x2="0.258896" y2="-0.001700" stroke="#555" stroke-width="0.000250" stroke-dasharray="0.002500,0.000800,0.000500,0.000800"/>
  <text x="0.185419" y="-0.001100" text-anchor="end" font-family="'Input Sans Narrow', 'DejaVu Sans', Arial, sans-serif" font-size="0.002000" font-weight="bold" fill="#555">A</text>
  <text x="0.260396" y="-0.001100" text-anchor="start" font-family="'Input Sans Narrow', 'DejaVu Sans', Arial, sans-serif" font-size="0.002000" font-weight="bold" fill="#555">A</text>
  <line x1="0.186919" y1="0.016100" x2="0.258896" y2="0.016100" stroke="#555" stroke-width="0.000250" stroke-dasharray="0.002500,0.000800,0.000500,0.000800"/>
  <text x="0.185419" y="0.016700" text-anchor="end" font-family="'Input Sans Narrow', 'DejaVu Sans', Arial, sans-serif" font-size="0.002000" font-weight="bold" fill="#555">B</text>
  <text x="0.260396" y="0.016700" text-anchor="start" font-family="'Input Sans Narrow', 'DejaVu Sans', Arial, sans-serif" font-size="0.002000" font-weight="bold" fill="#555">B</text>
  <line x1="0.186919" y1="0.033900" x2="0.258896" y2="0.033900" stroke="#555" stroke-width="0.000250" stroke-dasharray="0.002500,0.000800,0.000500,0.000800"/>
  <text x="0.185419" y="0.034500" text-anchor="end" font-family="'Input Sans Narrow', 'DejaVu Sans', Arial, sans-serif" font-size="0.002000" font-weight="bold" fill="#555">C</text>
  <text x="0.260396" y="0.034500" text-anchor="start" font-family="'Input Sans Narrow', 'DejaVu Sans', Arial, sans-serif" font-size="0.002000" font-weight="bold" fill="#555">C</text>
  <text x="-0.001175" y="0.052090" font-family="'Input Sans Narrow', 'DejaVu Sans', Arial, sans-serif" font-size="0.003500" font-weight="bold" fill="#222">coupler_assembly</text>
  <line x1="-0.001175" y1="0.056090" x2="0.008825" y2="0.056090" stroke="#333" stroke-width="0.000350"/>
  <line x1="-0.001175" y1="0.055090" x2="-0.001175" y2="0.057090" stroke="#333" stroke-width="0.000250"/>
  <line x1="0.008825" y1="0.055090" x2="0.008825" y2="0.057090" stroke="#333" stroke-width="0.000250"/>
  <text x="0.010325" y="0.056790" font-family="'Input Sans Narrow', 'DejaVu Sans', Arial, sans-serif" font-size="0.001800" fill="#888">10 mm</text>
  <rect x="0.028825" y="0.049590" width="0.004000" height="0.002500" fill="url(#hatch_cradle)" stroke="rgb(50,120,190)" stroke-width="0.000300"/>
  <text x="0.034325" y="0.051590" font-family="'Input Sans Narrow', 'DejaVu Sans', Arial, sans-serif" font-size="0.001800" fill="rgb(50,120,190)">cradle</text>
  <rect x="0.028825" y="0.053090" width="0.004000" height="0.002500" fill="url(#hatch_servo)" stroke="rgb(60,60,60)" stroke-width="0.000300"/>
  <text x="0.034325" y="0.055090" font-family="'Input Sans Narrow', 'DejaVu Sans', Arial, sans-serif" font-size="0.001800" fill="rgb(60,60,60)">servo</text>
  <rect x="0.028825" y="0.056590" width="0.004000" height="0.002500" fill="url(#hatch_coupler)" stroke="rgb(220,60,40)" stroke-width="0.000300"/>
  <text x="0.034325" y="0.058590" font-family="'Input Sans Narrow', 'DejaVu Sans', Arial, sans-serif" font-size="0.001800" fill="rgb(220,60,40)">coupler</text>
</svg>