<?xml version='1.0' encoding='utf-8'?>
<svg width="311.00mm" height="88.46mm" viewBox="-0.003175 -0.024375 0.311001 0.088465" version="1.1" xmlns="http://www.w3.org/2000/svg">
  <defs>
    <pattern id="hatch_cradle" width="0.0012" height="0.0012" patternUnits="userSpaceOnUse" patternTransform="rotate(45)">
      <line x1="0" y1="0" x2="0" y2="0.0012" stroke="rgb(50,120,190)" stroke-width="0.0001" stroke-opacity="0.6"/>
    </pattern>
    <pattern id="hatch_servo" width="0.0012" height="0.0012" patternUnits="userSpaceOnUse" patternTransform="rotate(75)">
      <line x1="0" y1="0" x2="0" y2="0.0012" stroke="rgb(60,60,60)" stroke-width="0.0001" stroke-opacity="0.6"/>
    </pattern>
    <pattern id="hatch_coupler" width="0.0012" height="0.0012" patternUnits="userSpaceOnUse" patternTransform="rotate(105)">
      <line x1="0" y1="0" x2="0" y2="0.0012" stroke="rgb(220,60,40)" stroke-width="0.0001" stroke-opacity="0.6"/>
    </pattern>
  </defs>
  <g transform="scale(1,-1)" stroke-linecap="round">
    <g fill="none" stroke="rgb(50,120,190)" stroke-width="0.00035" id="cradle">
      <line x1="0.0" y1="0.0152" x2="0.008366" y2="0.0152" />
      <line x1="0.008366" y1="0.0152" x2="0.008366" y2="-0.0152" />
      <line x1="0.0" y1="-0.0152" x2="0.008366" y2="-0.0152" />
      <line x1="0.0" y1="0.0152" x2="0.0" y2="-0.0152" />
      <line x1="0.073406" y1="0.0152" x2="0.081772" y2="0.0152" />
      <line x1="0.081772" y1="0.0152" x2="0.081772" y2="0.0127" />
      <line x1="0.075906" y1="0.0127" x2="0.081772" y2="0.0127" />
      <line x1="0.075906" y1="0.0127" x2="0.075906" y2="-0.0127" />
      <line x1="0.075906" y1="-0.0127" x2="0.081772" y2="-0.0127" />
      <line x1="0.081772" y1="-0.0127" x2="0.081772" y2="-0.0152" />
      <line x1="0.073406" y1="-0.0152" x2="0.081772" y2="-0.0152" />
      <line x1="0.073406" y1="0.0152" x2="0.073406" y2="-0.0152" />
      <line x1="0.146812" y1="-0.00305" x2="0.146812" y2="-0.00235" />
      <line x1="0.146812" y1="-0.00235" x2="0.149332" y2="-0.00235" />
      <line x1="0.149332" y1="-0.00235" x2="0.149332" y2="0.00235" />
      <line x1="0.146812" y1="0.00235" x2="0.149332" y2="0.00235" />
      <line x1="0.146812" y1="0.00235" x2="0.146812" y2="0.00305" />
      <line x1="0.146812" y1="0.00305" x2="0.151012" y2="0.00305" />
      <line x1="0.151012" y1="-0.00305" x2="0.151012" y2="0.00305" />
      <line x1="0.146812" y1="-0.00305" x2="0.151012" y2="-0.00305" />
      <line x1="0.152312" y1="0.0152" x2="0.160679" y2="0.0152" />
      <line x1="0.160679" y1="0.0152" x2="0.160679" y2="0.011945" />
      <path d="M 0.160679,0.011945 A 0.0017,0.0017 0.0 0,1 0.160679,0.008555" />
      <line x1="0.160679" y1="0.008555" x2="0.160679" y2="-0.008555" />
      <path d="M 0.160679,-0.008555 A 0.0017,0.0017 0.0 0,1 0.160679,-0.011945" />
      <line x1="0.160679" y1="-0.011945" x2="0.160679" y2="-0.0152" />
      <line x1="0.152312" y1="-0.0152" x2="0.160679" y2="-0.0152" />
      <line x1="0.152312" y1="-0.00455" x2="0.152312" y2="-0.0152" />
      <line x1="0.152312" y1="-0.00455" x2="0.155712" y2="-0.00455" />
      <line x1="0.155712" y1="0.00455" x2="0.155712" y2="-0.00455" />
      <line x1="0.152312" y1="0.00455" x2="0.155712" y2="0.00455" />
      <line x1="0.152312" y1="0.0152" x2="0.152312" y2="0.00455" />
      <line x1="0.229918" y1="-0.037155" x2="0.225719" y2="-0.037155" />
      <line x1="0.229918" y1="-0.037155" x2="0.22994" y2="-0.037144" />
      <line x1="0.229918" y1="-0.037155" x2="0.229918" y2="-0.028055" />
      <line x1="0.229918" y1="-0.028055" x2="0.225719" y2="-0.028055" />
      <line x1="0.225719" y1="-0.037155" x2="0.225719" y2="-0.028055" />
      <line x1="0.225719" y1="-0.028055" x2="0.22574" y2="-0.028044" />
      <line x1="0.22994" y1="-0.037144" x2="0.22994" y2="-0.034775" />
      <line x1="0.22994" y1="-0.034175" x2="0.22994" y2="-0.031025" />
      <line x1="0.22994" y1="-0.030425" x2="0.22994" y2="-0.028044" />
      <line x1="0.22994" y1="-0.028044" x2="0.22574" y2="-0.028044" />
      <line x1="0.229918" y1="-0.028055" x2="0.22994" y2="-0.028044" />
      <path d="M 0.229929,-0.034775 A 0.0003000004921171459,1.0541647125916255e-06 89.99963532951298 0,0 0.229929,-0.034175" />
      <path d="M 0.229929,-0.031025 A 0.00030000049211714416,1.0541647125916194e-06 89.99963532951298 0,0 0.229929,-0.030425" />
      <line x1="0.231176" y1="-0.037777" x2="0.231176" y2="0.002772" />
      <line x1="0.231176" y1="0.002772" x2="0.231283" y2="0.002828" />
      <line x1="0.231176" y1="-0.037777" x2="0.239542" y2="-0.037778" />
      <line x1="0.239542" y1="-0.037778" x2="0.239542" y2="0.002772" />
      <line x1="0.231176" y1="0.002772" x2="0.239542" y2="0.002772" />
      <line x1="0.231283" y1="0.002828" x2="0.239649" y2="0.002827" />
      <line x1="0.239542" y1="0.002772" x2="0.239649" y2="0.002827" />
      <path d="M 0.23957,-0.037763 A 0.00295,5.3433066599107695e-06 1.1691323566651363e-20 0,1 0.239549,-0.037763" />
      <line x1="0.239542" y1="-0.037778" x2="0.239549" y2="-0.037774" />
      <line x1="0.239642" y1="-0.037726" x2="0.239649" y2="-0.037722" />
      <path d="M 0.239642,-0.037726 A 0.00295,5.3433066599107695e-06 1.1691323566651363e-20 0,1 0.239621,-0.037726" />
      <line x1="0.23957" y1="-0.037763" x2="0.239621" y2="-0.037737" />
      <line x1="0.239649" y1="-0.037722" x2="0.239649" y2="0.002827" />
      <line x1="0.239642" y1="-0.037726" x2="0.239642" y2="-0.035226" />
      <line x1="0.239642" y1="-0.035226" x2="0.239637" y2="-0.035228" />
      <line x1="0.239637" y1="-0.035228" x2="0.239637" y2="-0.032878" />
      <line x1="0.23964" y1="-0.032877" x2="0.239637" y2="-0.032878" />
      <line x1="0.23964" y1="-0.032877" x2="0.23964" y2="0.000323" />
      <line x1="0.23964" y1="0.000323" x2="0.239551" y2="0.000277" />
      <line x1="0.239551" y1="-0.032923" x2="0.239551" y2="0.000277" />
      <line x1="0.239553" y1="-0.032922" x2="0.239551" y2="-0.032923" />
      <line x1="0.239553" y1="-0.035272" x2="0.239553" y2="-0.032922" />
      <line x1="0.239553" y1="-0.035272" x2="0.239549" y2="-0.035274" />
      <line x1="0.239549" y1="-0.037774" x2="0.239549" y2="-0.035274" />
      <line x1="0.23957" y1="-0.037763" x2="0.23957" y2="-0.035263" />
      <line x1="0.239621" y1="-0.037737" x2="0.239621" y2="-0.035237" />
      <line x1="0.23957" y1="-0.035263" x2="0.239565" y2="-0.035266" />
      <line x1="0.239565" y1="-0.035266" x2="0.239565" y2="-0.032916" />
      <line x1="0.239625" y1="-0.032885" x2="0.239565" y2="-0.032916" />
      <line x1="0.239625" y1="-0.035235" x2="0.239625" y2="-0.032885" />
      <line x1="0.239625" y1="-0.035235" x2="0.239621" y2="-0.035237" />
      <line x1="0.239551" y1="-0.032877" x2="0.23964" y2="-0.032877" />
      <path d="M 0.239637,-0.032878 A 0.0017,3.079193668423155e-06 1.1691323566651363e-20 0,1 0.239551,-0.032878" />
      <path d="M 0.239551,-0.032885 A 0.0017,3.079193668423155e-06 1.1691323566651363e-20 0,1 0.239625,-0.032885" />
      <path d="M 0.239565,-0.032916 A 0.0017,3.079193668423155e-06 1.1691323566651363e-20 0,1 0.239551,-0.032916" />
      <path d="M 0.239551,-0.032922 A 0.0017,3.079193668423155e-06 1.1691323566651363e-20 0,1 0.239553,-0.032922" />
      <path d="M 0.239637,-0.035228 A 0.0017,3.079193668423155e-06 1.1691323566651363e-20 0,1 0.239625,-0.035228" />
      <path d="M 0.239565,-0.035266 A 0.0017,3.079193668423155e-06 1.1691323566651363e-20 0,1 0.239553,-0.035266" />
      <line x1="0.231176" y1="-0.034175" x2="0.229929" y2="-0.034175" />
      <line x1="0.231176" y1="-0.034775" x2="0.229929" y2="-0.034775" />
      <line x1="0.231176" y1="-0.030425" x2="0.229929" y2="-0.030425" />
      <line x1="0.231176" y1="-0.031025" x2="0.229929" y2="-0.031025" />
    </g>
    <g fill="url(#hatch_cradle)" stroke="none" stroke-width="0" id="cradle_fill">
      <path d="M 0.008366,0.0152 L 0.0,0.0152 L 0.0,-0.0152 L 0.008366,-0.0152 L 0.008366,0.0152" />
      <path d="M 0.081772,0.0152 L 0.073406,0.0152 L 0.073406,-0.0152 L 0.081772,-0.0152 L 0.081772,-0.0127 L 0.075906,-0.0127 L 0.075906,0.0127 L 0.081772,0.0127 L 0.081772,0.0152" />
      <path d="M 0.146812,-0.00235 L 0.146812,-0.00305 L 0.151012,-0.00305 L 0.151012,0.00305 L 0.146812,0.00305 L 0.146812,0.00235 L 0.149332,0.00235 L 0.149332,-0.00235 L 0.146812,-0.00235" />
      <path d="M 0.160679,0.0152 L 0.152312,0.0152 L 0.152312,0.00455 L 0.155712,0.00455 L 0.155712,-0.00455 L 0.152312,-0.00455 L 0.152312,-0.0152 L 0.160679,-0.0152 L 0.160679,-0.011945 A 0.0017,0.0017 0.0 0,0 0.160679,-0.008555 L 0.160679,0.008555 A 0.0017,0.0017 0.0 0,0 0.160679,0.011945 L 0.160679,0.0152" />
    </g>
    <g fill="none" stroke="rgb(50,120,190)" stroke-opacity="0.4" stroke-width="0.00015" id="cradle_hidden" stroke-dasharray="0.0018 0.00045">
      <line x1="0.225719" y1="-0.037155" x2="0.22574" y2="-0.037144" />
      <line x1="0.22994" y1="-0.037144" x2="0.22574" y2="-0.037144" />
      <line x1="0.22574" y1="-0.037144" x2="0.22574" y2="-0.028044" />
      <line x1="0.225721" y1="-0.036454" x2="0.225737" y2="-0.036446" />
      <line x1="0.225721" y1="-0.036454" x2="0.225721" y2="-0.028754" />
      <line x1="0.225721" y1="-0.028754" x2="0.225737" y2="-0.028746" />
      <line x1="0.225737" y1="-0.036446" x2="0.225737" y2="-0.028746" />
      <line x1="0.22994" y1="-0.034775" x2="0.22994" y2="-0.034175" />
      <line x1="0.22994" y1="-0.031025" x2="0.22994" y2="-0.030425" />
      <path d="M 0.229929,-0.034175 A 0.0003000004921171459,1.0541647125916255e-06 89.99963532951298 0,0 0.229929,-0.034775" />
      <path d="M 0.229929,-0.030425 A 0.00030000049211714416,1.0541647125916194e-06 89.99963532951298 0,0 0.229929,-0.031025" />
      <line x1="0.228241" y1="-0.036454" x2="0.225721" y2="-0.036454" />
      <line x1="0.228257" y1="-0.036446" x2="0.225737" y2="-0.036446" />
      <line x1="0.228241" y1="-0.036454" x2="0.228257" y2="-0.036446" />
      <line x1="0.228241" y1="-0.036454" x2="0.228241" y2="-0.028754" />
      <line x1="0.228241" y1="-0.028754" x2="0.225721" y2="-0.028754" />
      <line x1="0.228257" y1="-0.028746" x2="0.225737" y2="-0.028746" />
      <line x1="0.228241" y1="-0.028754" x2="0.228257" y2="-0.028746" />
      <line x1="0.228257" y1="-0.036446" x2="0.228257" y2="-0.028746" />
      <path d="M 0.232929,-0.034175 A 0.0003000004921171459,1.0541647125916255e-06 89.99963532951298 0,0 0.232929,-0.034775" />
      <path d="M 0.232929,-0.034775 A 0.0003000004921171459,1.0541647125916255e-06 89.99963532951298 0,0 0.232929,-0.034175" />
      <path d="M 0.232929,-0.030425 A 0.00030000049211714416,1.0541647125916194e-06 89.99963532951298 0,0 0.232929,-0.031025" />
      <path d="M 0.232929,-0.031025 A 0.00030000049211714416,1.0541647125916194e-06 89.99963532951298 0,0 0.232929,-0.030425" />
      <line x1="0.231176" y1="-0.037777" x2="0.231283" y2="-0.037722" />
      <line x1="0.231283" y1="-0.037722" x2="0.231283" y2="0.002828" />
      <line x1="0.231245" y1="-0.036392" x2="0.231213" y2="-0.036408" />
      <line x1="0.231245" y1="-0.036392" x2="0.231245" y2="-0.028792" />
      <line x1="0.231245" y1="-0.028792" x2="0.231213" y2="-0.028808" />
      <line x1="0.231213" y1="-0.036408" x2="0.231213" y2="-0.028808" />
      <path d="M 0.239549,-0.037763 A 0.00295,5.3433066599107695e-06 1.1691323566651363e-20 0,1 0.236743,-0.037769" />
      <path d="M 0.236743,-0.037769 A 0.00295,5.3433066599107695e-06 1.1691323566651363e-20 0,1 0.239549,-0.037774" />
      <line x1="0.231283" y1="-0.037722" x2="0.239649" y2="-0.037722" />
      <path d="M 0.239621,-0.037726 A 0.00295,5.3433066599107695e-06 1.1691323566651363e-20 0,1 0.236815,-0.037731" />
      <path d="M 0.236815,-0.037731 A 0.00295,5.3433066599107695e-06 1.1691323566651363e-20 0,1 0.239621,-0.037737" />
      <line x1="0.231245" y1="-0.036392" x2="0.234645" y2="-0.036392" />
      <line x1="0.234613" y1="-0.036408" x2="0.234645" y2="-0.036392" />
      <line x1="0.231213" y1="-0.036408" x2="0.234613" y2="-0.036408" />
      <line x1="0.234645" y1="-0.036392" x2="0.234645" y2="-0.032892" />
      <line x1="0.234645" y1="-0.032892" x2="0.233745" y2="-0.032892" />
      <line x1="0.233745" y1="-0.032892" x2="0.233745" y2="-0.028792" />
      <line x1="0.231245" y1="-0.028792" x2="0.233745" y2="-0.028792" />
      <line x1="0.233745" y1="-0.028792" x2="0.233713" y2="-0.028808" />
      <line x1="0.231213" y1="-0.028808" x2="0.233713" y2="-0.028808" />
      <line x1="0.234613" y1="-0.036408" x2="0.234613" y2="-0.032908" />
      <line x1="0.234613" y1="-0.032908" x2="0.233713" y2="-0.032908" />
      <line x1="0.233713" y1="-0.032908" x2="0.233713" y2="-0.028808" />
      <path d="M 0.23957,-0.035263 A 0.00295,5.3433066599107695e-06 1.1691323566651363e-20 0,1 0.236743,-0.035269" />
      <path d="M 0.236743,-0.035269 A 0.00295,5.3433066599107695e-06 1.1691323566651363e-20 0,1 0.239549,-0.035274" />
      <path d="M 0.239642,-0.035226 A 0.00295,5.3433066599107695e-06 1.1691323566651363e-20 0,1 0.236815,-0.035231" />
      <path d="M 0.236815,-0.035231 A 0.00295,5.3433066599107695e-06 1.1691323566651363e-20 0,1 0.239621,-0.035237" />
      <line x1="0.234613" y1="-0.032908" x2="0.234645" y2="-0.032892" />
      <line x1="0.233774" y1="-0.032877" x2="0.239551" y2="-0.032877" />
      <path d="M 0.239551,-0.032878 A 0.0017,3.079193668423155e-06 1.1691323566651363e-20 0,1 0.238065,-0.032881" />
      <path d="M 0.238065,-0.032881 A 0.0017,3.079193668423155e-06 1.1691323566651363e-20 0,1 0.239551,-0.032885" />
      <path d="M 0.239551,-0.032916 A 0.0017,3.079193668423155e-06 1.1691323566651363e-20 0,1 0.237993,-0.032919" />
      <path d="M 0.237993,-0.032919 A 0.0017,3.079193668423155e-06 1.1691323566651363e-20 0,1 0.239551,-0.032922" />
      <line x1="0.233685" y1="-0.032923" x2="0.239551" y2="-0.032923" />
      <line x1="0.233685" y1="-0.032923" x2="0.233713" y2="-0.032908" />
      <line x1="0.233745" y1="-0.032892" x2="0.233774" y2="-0.032877" />
      <line x1="0.233685" y1="0.000277" x2="0.233774" y2="0.000323" />
      <line x1="0.233774" y1="-0.032877" x2="0.233774" y2="0.000323" />
      <line x1="0.233685" y1="-0.032923" x2="0.233685" y2="0.000277" />
      <path d="M 0.239625,-0.035228 A 0.0017,3.079193668423155e-06 1.1691323566651363e-20 0,1 0.238065,-0.035231" />
      <path d="M 0.238065,-0.035231 A 0.0017,3.079193668423155e-06 1.1691323566651363e-20 0,1 0.239625,-0.035235" />
      <line x1="0.233774" y1="0.000323" x2="0.23964" y2="0.000323" />
      <line x1="0.233685" y1="0.000277" x2="0.239551" y2="0.000277" />
      <path d="M 0.239553,-0.035266 A 0.0017,3.079193668423155e-06 1.1691323566651363e-20 0,1 0.237993,-0.035269" />
      <path d="M 0.237993,-0.035269 A 0.0017,3.079193668423155e-06 1.1691323566651363e-20 0,1 0.239553,-0.035272" />
      <line x1="0.232929" y1="-0.034175" x2="0.231176" y2="-0.034175" />
      <line x1="0.232929" y1="-0.034775" x2="0.231176" y2="-0.034775" />
      <line x1="0.232929" y1="-0.030425" x2="0.231176" y2="-0.030425" />
      <line x1="0.232929" y1="-0.031025" x2="0.231176" y2="-0.031025" />
      <line x1="0.236743" y1="-0.037769" x2="0.236743" y2="-0.035269" />
      <line x1="0.236815" y1="-0.037731" x2="0.236815" y2="-0.035231" />
      <line x1="0.238065" y1="-0.035231" x2="0.238065" y2="-0.032881" />
      <line x1="0.237993" y1="-0.035269" x2="0.237993" y2="-0.032919" />
    </g>
    <g fill="none" stroke="rgb(60,60,60)" stroke-width="0.00035" id="servo">
      <line x1="0.028" y1="-0.008" x2="0.028" y2="0.008" />
      <path d="M 0.028,-0.008 A 0.002,0.002 -90.0 0,1 0.03,-0.01" />
      <line x1="0.03" y1="-0.01" x2="0.046" y2="-0.01" />
      <path d="M 0.048,-0.008 A 0.002,0.002 -90.0 0,0 0.046,-0.01" />
      <line x1="0.048" y1="-0.008" x2="0.048" y2="0.008" />
      <path d="M 0.048,0.008 A 0.002,0.002 -90.0 0,1 0.046,0.01" />
      <line x1="0.03" y1="0.01" x2="0.046" y2="0.01" />
      <path d="M 0.028,0.008 A 0.002,0.002 -90.0 0,0 0.03,0.01" />
      <path d="M 0.080206,0.0124 A 0.004,0.004 180.0 0,1 0.076206,0.0084" />
      <line x1="0.080206" y1="0.0124" x2="0.117606" y2="0.0124" />
      <path d="M 0.121606,0.0084 A 0.004,0.004 0.0 0,1 0.117606,0.0124" />
      <line x1="0.121606" y1="0.0084" x2="0.121606" y2="-0.0084" />
      <path d="M 0.117606,-0.0124 A 0.004,0.004 0.0 0,1 0.121606,-0.0084" />
      <line x1="0.080206" y1="-0.0124" x2="0.117606" y2="-0.0124" />
      <path d="M 0.076206,-0.0084 A 0.004,0.004 180.0 0,1 0.080206,-0.0124" />
      <line x1="0.076206" y1="0.0084" x2="0.076206" y2="-0.0084" />
      <circle cx="0.190312" cy="0.0" r="0.003" />
      <line x1="0.157112" y1="-0.0084" x2="0.157112" y2="-0.0124" />
      <line x1="0.157112" y1="-0.0084" x2="0.197512" y2="-0.0084" />
      <line x1="0.197512" y1="-0.0084" x2="0.197512" y2="-0.0124" />
      <line x1="0.157112" y1="-0.0124" x2="0.197512" y2="-0.0124" />
      <circle cx="0.160812" cy="-0.01025" r="0.0016" />
      <circle cx="0.177812" cy="-0.01025" r="0.0016" />
      <circle cx="0.194812" cy="-0.01025" r="0.0016" />
      <line x1="0.157112" y1="0.0124" x2="0.197512" y2="0.0124" />
      <line x1="0.197512" y1="0.0124" x2="0.197512" y2="0.0084" />
      <line x1="0.157112" y1="0.0084" x2="0.197512" y2="0.0084" />
      <line x1="0.157112" y1="0.0124" x2="0.157112" y2="0.0084" />
      <circle cx="0.160812" cy="0.01025" r="0.0016" />
      <circle cx="0.177812" cy="0.01025" r="0.0016" />
      <circle cx="0.194812" cy="0.01025" r="0.0016" />
      <line x1="0.234019" y1="-0.032613" x2="0.234019" y2="-1.4e-05" />
      <line x1="0.234019" y1="-1.4e-05" x2="0.234039" y2="1.4e-05" />
      <path d="M 0.234019,-1.4e-05 A 0.004,6.44034636134987e-06 -3.570407266150847e-21 0,1 0.238014,-2e-05" />
      <path d="M 0.234019,-0.032613 A 0.004,6.44034636134987e-06 -3.570407266150847e-21 0,1 0.236015,-0.032619" />
      <path d="M 0.236015,-0.032619 A 0.004,6.44034636134987e-06 -3.570407266150847e-21 0,1 0.238014,-0.03262" />
      <line x1="0.238014" y1="-0.03262" x2="0.238014" y2="-2e-05" />
      <path d="M 0.279419,-0.032614 A 0.004,6.44034636134987e-06 180.0 0,0 0.276414,-0.03262" />
      <line x1="0.279419" y1="-0.032614" x2="0.279439" y2="-0.032586" />
      <path d="M 0.234039,1.4e-05 A 0.004,6.44034636134987e-06 180.0 0,0 0.238044,2e-05" />
      <line x1="0.238014" y1="-2e-05" x2="0.275414" y2="-2e-05" />
      <line x1="0.238044" y1="2e-05" x2="0.259219" y2="2e-05" />
      <path d="M 0.279419,-1.4e-05 A 0.004,6.44034636134987e-06 180.0 0,0 0.275414,-2e-05" />
      <path d="M 0.279439,1.3e-05 A 0.004,6.44034636134987e-06 -3.570407266150847e-21 0,1 0.279239,1.5e-05" />
      <line x1="0.279419" y1="-1.4e-05" x2="0.279439" y2="1.3e-05" />
      <path d="M 0.259219,-1.3e-05 A 0.002,3.220173180674935e-06 -3.570407266150847e-21 0,1 0.261217,-1.6e-05" />
      <line x1="0.261217" y1="-1.6e-05" x2="0.277217" y2="-1.6e-05" />
      <path d="M 0.279219,-1.3e-05 A 0.002,3.220173180674935e-06 180.0 0,0 0.277217,-1.6e-05" />
      <line x1="0.279219" y1="-1.3e-05" x2="0.279239" y2="1.3e-05" />
      <line x1="0.236014" y1="-0.03262" x2="0.236015" y2="-0.032619" />
      <line x1="0.236014" y1="-0.03262" x2="0.238014" y2="-0.03262" />
      <line x1="0.275414" y1="-0.03262" x2="0.275414" y2="-2e-05" />
      <line x1="0.275414" y1="-0.03262" x2="0.276414" y2="-0.03262" />
      <line x1="0.276414" y1="-0.03472" x2="0.276414" y2="-0.03262" />
      <line x1="0.236014" y1="-0.03472" x2="0.276414" y2="-0.03472" />
      <line x1="0.236014" y1="-0.03472" x2="0.236014" y2="-0.03262" />
      <line x1="0.276419" y1="-0.034714" x2="0.276419" y2="-0.03262" />
      <line x1="0.276419" y1="-0.034686" x2="0.276439" y2="-0.034686" />
      <line x1="0.276439" y1="-0.034686" x2="0.276439" y2="-0.03262" />
      <line x1="0.276414" y1="-0.03472" x2="0.276419" y2="-0.034714" />
      <line x1="0.276444" y1="-0.03468" x2="0.276444" y2="-0.03262" />
      <line x1="0.276439" y1="-0.034686" x2="0.276444" y2="-0.03468" />
      <line x1="0.279419" y1="-0.032614" x2="0.279419" y2="-1.4e-05" />
      <path d="M 0.276414,-0.03262 A 0.004,6.44034636134987e-06 180.0 0,0 0.275414,-0.03262" />
      <line x1="0.279439" y1="1.3e-05" x2="0.279439" y2="-0.032586" />
      <path d="M 0.276444,-0.03258 A 0.004,6.44034636134987e-06 -3.570407266150847e-21 0,1 0.275444,-0.03258" />
      <path d="M 0.259219,0.001687 A 0.002,3.220173180674935e-06 -3.570407266150847e-21 0,1 0.261217,0.001684" />
      <line x1="0.261217" y1="0.001684" x2="0.277217" y2="0.001684" />
      <path d="M 0.279219,0.001687 A 0.002,3.220173180674935e-06 180.0 0,0 0.277217,0.001684" />
      <line x1="0.279219" y1="0.001687" x2="0.279239" y2="0.001713" />
      <path d="M 0.279239,0.001713 A 0.002,3.220173180674935e-06 -3.570407266150847e-21 0,1 0.277241,0.001716" />
      <line x1="0.261241" y1="0.001716" x2="0.264729" y2="0.001716" />
      <line x1="0.273729" y1="0.001716" x2="0.277241" y2="0.001716" />
      <path d="M 0.259239,0.001713 A 0.002,3.220173180674935e-06 180.0 0,0 0.261241,0.001716" />
      <line x1="0.259219" y1="0.001687" x2="0.259239" y2="0.001713" />
      <path d="M 0.264729,0.0017 A 0.004500000000000004,7.245389656518609e-06 -7.88103626567807e-21 0,1 0.273729,0.0017" />
      <path d="M 0.273729,0.0032 A 0.004500000000000004,7.245389656518609e-06 -7.88103626567807e-21 1,1 0.264729,0.0032" />
      <path d="M 0.264729,0.0032 A 0.004500000000000004,7.245389656518609e-06 -7.88103626567807e-21 0,1 0.273729,0.0032" />
      <line x1="0.259219" y1="-1.3e-05" x2="0.259219" y2="0.001687" />
      <line x1="0.261217" y1="-1.6e-05" x2="0.261217" y2="0.001684" />
      <line x1="0.277217" y1="-1.6e-05" x2="0.277217" y2="0.001684" />
      <line x1="0.279219" y1="-1.3e-05" x2="0.279219" y2="0.001687" />
      <line x1="0.279239" y1="1.3e-05" x2="0.279239" y2="0.001713" />
      <line x1="0.234019" y1="-0.032613" x2="0.234019" y2="-1.4e-05" />
      <line x1="0.279439" y1="-0.032586" x2="0.279439" y2="1.3e-05" />
      <line x1="0.259219" y1="-1.3e-05" x2="0.259219" y2="0.001687" />
      <line x1="0.279239" y1="1.3e-05" x2="0.279239" y2="0.001713" />
      <line x1="0.273729" y1="0.0017" x2="0.273729" y2="0.0032" />
      <line x1="0.264729" y1="0.0017" x2="0.264729" y2="0.0032" />
    </g>
    <g fill="url(#hatch_servo)" stroke="none" stroke-width="0" id="servo_fill">
      <path d="M 0.028,0.008 L 0.028,-0.008 A 0.002,0.002 -90.0 0,1 0.03,-0.01 L 0.046,-0.01 A 0.002,0.002 -90.0 0,1 0.048,-0.008 L 0.048,0.008 A 0.002,0.002 -90.0 0,1 0.046,0.01 L 0.03,0.01 A 0.002,0.002 -90.0 0,1 0.028,0.008" />
      <path d="M 0.080206,0.0124 A 0.004,0.004 180.0 0,1 0.076206,0.0084 L 0.076206,-0.0084 A 0.004,0.004 180.0 0,1 0.080206,-0.0124 L 0.117606,-0.0124 A 0.004,0.004 0.0 0,1 0.121606,-0.0084 L 0.121606,0.0084 A 0.004,0.004 0.0 0,1 0.117606,0.0124 L 0.080206,0.0124" />
      <circle cx="0.190312" cy="0.0" r="0.003" />
      <path d="M 0.157112,-0.0084 L 0.157112,-0.0124 L 0.197512,-0.0124 L 0.197512,-0.0084 L 0.157112,-0.0084 M 0.162412,-0.01025 A 0.0016000000000000044,0.0016000000000000044 0.0 0,0 0.159212,-0.01025 A 0.0016000000000000044,0.0016000000000000044 0.0 0,0 0.162412,-0.01025 M 0.179412,-0.01025 A 0.0016,0.0016 0.0 0,0 0.176212,-0.01025 A 0.0016,0.0016 0.0 0,0 0.179412,-0.01025 M 0.196412,-0.01025 A 0.0016000000000000044,0.0016000000000000044 0.0 0,0 0.193212,-0.01025 A 0.0016000000000000044,0.0016000000000000044 0.0 0,0 0.196412,-0.01025" />
      <path d="M 0.197512,0.0124 L 0.157112,0.0124 L 0.157112,0.0084 L 0.197512,0.0084 L 0.197512,0.0124 M 0.162412,0.01025 A 0.0016000000000000044,0.0016000000000000044 0.0 0,0 0.159212,0.01025 A 0.0016000000000000044,0.0016000000000000044 0.0 0,0 0.162412,0.01025 M 0.179412,0.01025 A 0.0016,0.0016 0.0 0,0 0.176212,0.01025 A 0.0016,0.0016 0.0 0,0 0.179412,0.01025 M 0.196412,0.01025 A 0.0016000000000000044,0.0016000000000000044 0.0 0,0 0.193212,0.01025 A 0.0016000000000000044,0.0016000000000000044 0.0 0,0 0.196412,0.01025" />
    </g>
    <g fill="none" stroke="rgb(60,60,60)" stroke-opacity="0.4" stroke-width="0.00015" id="servo_hidden" stroke-dasharray="0.0018 0.00045">
      <line x1="0.234019" y1="-0.032613" x2="0.234039" y2="-0.032586" />
      <line x1="0.234039" y1="1.4e-05" x2="0.234039" y2="-0.032586" />
      <path d="M 0.234039,-0.032586 A 0.004,6.44034636134987e-06 180.0 0,0 0.236044,-0.032581" />
      <line x1="0.236015" y1="-0.032619" x2="0.236019" y2="-0.032613" />
      <line x1="0.236039" y1="-0.032586" x2="0.236044" y2="-0.032581" />
      <line x1="0.236019" y1="-0.032613" x2="0.276419" y2="-0.032614" />
      <line x1="0.236039" y1="-0.032586" x2="0.276439" y2="-0.032586" />
      <line x1="0.276414" y1="-0.03262" x2="0.276419" y2="-0.032614" />
      <line x1="0.276439" y1="-0.032586" x2="0.276444" y2="-0.03258" />
      <path d="M 0.279439,-0.032586 A 0.004,6.44034636134987e-06 -3.570407266150847e-21 0,1 0.276444,-0.03258" />
      <path d="M 0.272229,-0.0326 A 0.0030000000000000027,4.8302597710124065e-06 -7.88103626567807e-21 1,1 0.266229,-0.0326" />
      <path d="M 0.266229,-0.0326 A 0.0030000000000000027,4.8302597710124065e-06 -7.88103626567807e-21 0,1 0.272229,-0.0326" />
      <line x1="0.238044" y1="2e-05" x2="0.238044" y2="-0.03258" />
      <path d="M 0.236044,-0.032581 A 0.004,6.44034636134987e-06 180.0 0,0 0.238044,-0.03258" />
      <line x1="0.259219" y1="2e-05" x2="0.275444" y2="2e-05" />
      <path d="M 0.279239,1.5e-05 A 0.004,6.44034636134987e-06 -3.570407266150847e-21 0,1 0.275444,2e-05" />
      <path d="M 0.279239,1.3e-05 A 0.002,3.220173180674935e-06 -3.570407266150847e-21 0,1 0.277241,1.6e-05" />
      <line x1="0.261241" y1="1.6e-05" x2="0.277241" y2="1.6e-05" />
      <path d="M 0.259239,1.3e-05 A 0.002,3.220173180674935e-06 180.0 0,0 0.261241,1.6e-05" />
      <line x1="0.259219" y1="-1.3e-05" x2="0.259239" y2="1.3e-05" />
      <line x1="0.236019" y1="-0.034713" x2="0.236019" y2="-0.032613" />
      <line x1="0.236014" y1="-0.03472" x2="0.236019" y2="-0.034713" />
      <line x1="0.236039" y1="-0.034686" x2="0.236039" y2="-0.032586" />
      <line x1="0.236044" y1="-0.032581" x2="0.236044" y2="-0.03258" />
      <line x1="0.236044" y1="-0.03468" x2="0.236044" y2="-0.03258" />
      <line x1="0.236039" y1="-0.034686" x2="0.236044" y2="-0.03468" />
      <line x1="0.236019" y1="-0.034713" x2="0.276419" y2="-0.034714" />
      <line x1="0.276419" y1="-0.03262" x2="0.276419" y2="-0.032614" />
      <line x1="0.236039" y1="-0.034686" x2="0.276419" y2="-0.034686" />
      <line x1="0.276439" y1="-0.03262" x2="0.276439" y2="-0.032586" />
      <line x1="0.276444" y1="-0.03262" x2="0.276444" y2="-0.03258" />
      <line x1="0.275444" y1="2e-05" x2="0.275444" y2="-0.03258" />
      <path d="M 0.272229,-0.0339 A 0.0030000000000000027,4.8302597710124065e-06 -7.88103626567807e-21 1,1 0.266229,-0.0339" />
      <path d="M 0.266229,-0.0339 A 0.0030000000000000027,4.8302597710124065e-06 -7.88103626567807e-21 0,1 0.272229,-0.0339" />
      <line x1="0.275444" y1="-0.03258" x2="0.276444" y2="-0.03258" />
      <line x1="0.236044" y1="-0.03468" x2="0.276444" y2="-0.03468" />
      <line x1="0.236044" y1="-0.03258" x2="0.238044" y2="-0.03258" />
      <line x1="0.264729" y1="0.001716" x2="0.273729" y2="0.001716" />
      <path d="M 0.241317,-0.034716 A 0.0016000000000000044,2.576138544539955e-06 -7.88103626567807e-21 1,1 0.238117,-0.034716" />
      <path d="M 0.238117,-0.034716 A 0.0016000000000000044,2.576138544539955e-06 -7.88103626567807e-21 0,1 0.241317,-0.034716" />
      <path d="M 0.258317,-0.034716 A 0.0016000000000000179,2.576138544539977e-06 -7.88103626567807e-21 1,1 0.255117,-0.034716" />
      <path d="M 0.255117,-0.034716 A 0.0016000000000000179,2.576138544539977e-06 -7.88103626567807e-21 0,1 0.258317,-0.034716" />
      <path d="M 0.275317,-0.034717 A 0.0016,2.576138544539948e-06 -7.88103626567807e-21 1,1 0.272117,-0.034717" />
      <path d="M 0.272117,-0.034717 A 0.0016,2.576138544539948e-06 -7.88103626567807e-21 0,1 0.275317,-0.034717" />
      <path d="M 0.241342,-0.034683 A 0.0016000000000000044,2.576138544539955e-06 -7.88103626567807e-21 1,1 0.238142,-0.034683" />
      <path d="M 0.238142,-0.034683 A 0.0016000000000000044,2.576138544539955e-06 -7.88103626567807e-21 0,1 0.241342,-0.034683" />
      <path d="M 0.258342,-0.034683 A 0.0016000000000000179,2.576138544539977e-06 -7.88103626567807e-21 1,1 0.255142,-0.034683" />
      <path d="M 0.255142,-0.034683 A 0.0016000000000000179,2.576138544539977e-06 -7.88103626567807e-21 0,1 0.258342,-0.034683" />
      <path d="M 0.275342,-0.034684 A 0.0016,2.576138544539948e-06 -7.88103626567807e-21 1,1 0.272142,-0.034684" />
      <path d="M 0.272142,-0.034684 A 0.0016,2.576138544539948e-06 -7.88103626567807e-21 0,1 0.275342,-0.034684" />
      <path d="M 0.273729,0.0017 A 0.004500000000000004,7.245389656518609e-06 -7.88103626567807e-21 1,1 0.264729,0.0017" />
      <path d="M 0.241317,-0.024716 A 0.0016000000000000044,2.576138544539955e-06 -7.88103626567807e-21 1,1 0.238117,-0.024716" />
      <path d="M 0.238117,-0.024716 A 0.0016000000000000044,2.576138544539955e-06 -7.88103626567807e-21 0,1 0.241317,-0.024716" />
      <path d="M 0.258317,-0.024716 A 0.0016000000000000179,2.576138544539977e-06 -7.88103626567807e-21 1,1 0.255117,-0.024716" />
      <path d="M 0.255117,-0.024716 A 0.0016000000000000179,2.576138544539977e-06 -7.88103626567807e-21 0,1 0.258317,-0.024716" />
      <path d="M 0.275317,-0.024717 A 0.0016,2.576138544539948e-06 -7.88103626567807e-21 1,1 0.272117,-0.024717" />
      <path d="M 0.272117,-0.024717 A 0.0016,2.576138544539948e-06 -7.88103626567807e-21 0,1 0.275317,-0.024717" />
      <path d="M 0.241342,-0.024683 A 0.0016000000000000044,2.576138544539955e-06 -7.88103626567807e-21 1,1 0.238142,-0.024683" />
      <path d="M 0.238142,-0.024683 A 0.0016000000000000044,2.576138544539955e-06 -7.88103626567807e-21 0,1 0.241342,-0.024683" />
      <path d="M 0.258342,-0.024683 A 0.0016000000000000179,2.576138544539977e-06 -7.88103626567807e-21 1,1 0.255142,-0.024683" />
      <path d="M 0.255142,-0.024683 A 0.0016000000000000179,2.576138544539977e-06 -7.88103626567807e-21 0,1 0.258342,-0.024683" />
      <path d="M 0.275342,-0.024684 A 0.0016,2.576138544539948e-06 -7.88103626567807e-21 1,1 0.272142,-0.024684" />
      <path d="M 0.272142,-0.024684 A 0.0016,2.576138544539948e-06 -7.88103626567807e-21 0,1 0.275342,-0.024684" />
      <line x1="0.272229" y1="-0.0339" x2="0.272229" y2="-0.0326" />
      <line x1="0.266229" y1="-0.0339" x2="0.266229" y2="-0.0326" />
      <line x1="0.241317" y1="-0.034716" x2="0.241317" y2="-0.024716" />
      <line x1="0.238117" y1="-0.034716" x2="0.238117" y2="-0.024716" />
      <line x1="0.258317" y1="-0.034716" x2="0.258317" y2="-0.024716" />
      <line x1="0.255117" y1="-0.034716" x2="0.255117" y2="-0.024716" />
      <line x1="0.275317" y1="-0.034717" x2="0.275317" y2="-0.024717" />
      <line x1="0.272117" y1="-0.034717" x2="0.272117" y2="-0.024717" />
      <line x1="0.241342" y1="-0.034683" x2="0.241342" y2="-0.024683" />
      <line x1="0.238142" y1="-0.034683" x2="0.238142" y2="-0.024683" />
      <line x1="0.258342" y1="-0.034683" x2="0.258342" y2="-0.024683" />
      <line x1="0.255142" y1="-0.034683" x2="0.255142" y2="-0.024683" />
      <line x1="0.275342" y1="-0.034684" x2="0.275342" y2="-0.024684" />
      <line x1="0.272142" y1="-0.034684" x2="0.272142" y2="-0.024684" />
      <line x1="0.277241" y1="1.6e-05" x2="0.277241" y2="0.001716" />
      <line x1="0.261241" y1="1.6e-05" x2="0.261241" y2="0.001716" />
      <line x1="0.259239" y1="1.3e-05" x2="0.259239" y2="0.001713" />
    </g>
    <g fill="none" stroke="rgb(220,60,40)" stroke-width="0.00035" id="coupler">
      <line x1="0.065406" y1="-0.009294" x2="0.038" y2="-0.009294" />
      <line x1="0.065406" y1="-0.009294" x2="0.065406" y2="-0.008294" />
      <line x1="0.065406" y1="-0.008294" x2="0.055406" y2="-0.008294" />
      <line x1="0.055406" y1="-0.008294" x2="0.055406" y2="0.008294" />
      <line x1="0.065406" y1="0.008294" x2="0.055406" y2="0.008294" />
      <line x1="0.065406" y1="0.008294" x2="0.065406" y2="0.009294" />
      <line x1="0.065406" y1="0.009294" x2="0.038" y2="0.009294" />
      <line x1="0.038" y1="0.008294" x2="0.038" y2="0.009294" />
      <path d="M 0.038,0.008294 A 0.008294306588619054,0.008294306588619054 0.0 0,1 0.03266,0.006347" />
      <path d="M 0.03266,0.006347 A 0.00145,0.00145 105.60850485956315 0,0 0.034455,0.00459" />
      <path d="M 0.034455,0.00459 A 0.0058,0.0058 127.68093438926024 0,0 0.041545,0.00459" />
      <path d="M 0.041545,0.00459 A 0.00145,0.00145 -165.63576778793214 1,0 0.04259,0.003545" />
      <path d="M 0.04259,0.003545 A 0.0058,0.0058 127.68093438926024 0,0 0.034455,-0.00459" />
      <path d="M 0.034455,-0.00459 A 0.00145,0.00145 14.364232212067673 0,0 0.03266,-0.006347" />
      <path d="M 0.03266,-0.006347 A 0.008294306588619054,0.008294306588619054 0.0 0,1 0.038,-0.008294" />
      <line x1="0.038" y1="-0.009294" x2="0.038" y2="-0.008294" />
      <line x1="0.065406" y1="-0.008294" x2="0.055406" y2="-0.008294" />
      <line x1="0.055406" y1="-0.008294" x2="0.055406" y2="0.008294" />
      <line x1="0.065406" y1="0.008294" x2="0.055406" y2="0.008294" />
      <line x1="0.065406" y1="0.008294" x2="0.065406" y2="-0.008294" />
      <path d="M 0.031653,0.00534 A 0.008294306588619054,0.008294306588619054 0.0 0,1 0.031653,-0.00534" />
      <path d="M 0.031653,0.00534 A 0.00145,0.00145 0.0 0,1 0.03341,0.003545" />
      <path d="M 0.03341,-0.003545 A 0.0058,0.0058 127.68093438926024 0,0 0.03341,0.003545" />
      <path d="M 0.03341,-0.003545 A 0.00145,0.00145 0.0 0,1 0.031653,-0.00534" />
      <line x1="0.138812" y1="0.008294" x2="0.138812" y2="-0.008294" />
      <line x1="0.128812" y1="-0.008294" x2="0.138812" y2="-0.008294" />
      <line x1="0.128812" y1="0.008294" x2="0.128812" y2="-0.008294" />
      <line x1="0.128812" y1="0.008294" x2="0.138812" y2="0.008294" />
      <line x1="0.217719" y1="-0.009294" x2="0.190312" y2="-0.009294" />
      <line x1="0.217719" y1="-0.009294" x2="0.217719" y2="0.009294" />
      <line x1="0.217719" y1="0.009294" x2="0.190312" y2="0.009294" />
      <line x1="0.190312" y1="0.008294" x2="0.190312" y2="0.009294" />
      <path d="M 0.190312,0.008294 A 0.008294306588619054,0.008294306588619054 0.0 1,1 0.190312,-0.008294" />
      <line x1="0.190312" y1="-0.009294" x2="0.190312" y2="-0.008294" />
      <circle cx="0.190312" cy="0.0" r="0.0058" />
      <line x1="0.296651" y1="0.011685" x2="0.269245" y2="0.011685" />
      <line x1="0.296651" y1="0.011685" x2="0.29662" y2="0.011715" />
      <line x1="0.29662" y1="0.011715" x2="0.269214" y2="0.011715" />
      <line x1="0.269215" y1="0.011714" x2="0.269214" y2="0.011715" />
      <path d="M 0.269215,0.011714 A 0.008294306588619054,1.3576282899776943e-05 1.0955988221629788e-20 0,1 0.263879,0.01171" />
      <path d="M 0.263879,0.01171 A 0.00145,2.3733882988709355e-06 180.0 0,0 0.265721,0.011708" />
      <path d="M 0.265721,0.011708 A 0.00145,2.3733882988709355e-06 180.0 0,0 0.265676,0.011707" />
      <path d="M 0.265676,0.011707 A 0.0058,9.493553195483742e-06 -180.0 0,0 0.272767,0.011707" />
      <path d="M 0.272767,0.011707 A 0.00145,2.3733882988709355e-06 -180.0 0,0 0.272721,0.011708" />
      <path d="M 0.272721,0.011708 A 0.0014500000000000066,2.3733882988709465e-06 -180.0 0,0 0.275621,0.011708" />
      <path d="M 0.275621,0.011708 A 0.00145,2.3733882988709355e-06 -180.0 0,0 0.273814,0.011706" />
      <path d="M 0.273814,0.011706 A 0.0058,9.493553195483742e-06 -180.0 0,0 0.275029,0.0117" />
      <path d="M 0.275029,0.0117 A 0.0058,9.493553195483742e-06 -180.0 0,0 0.265691,0.011692" />
      <path d="M 0.265691,0.011692 A 0.00145,2.3733882988709355e-06 180.0 0,0 0.265737,0.011692" />
      <path d="M 0.265737,0.011692 A 0.00145,2.3733882988709355e-06 180.0 0,0 0.2639,0.01169" />
      <path d="M 0.2639,0.01169 A 0.008294306588619054,1.3576282899776943e-05 1.0955988221629788e-20 0,1 0.269243,0.011686" />
      <line x1="0.269245" y1="0.011685" x2="0.269243" y2="0.011686" />
      <line x1="0.296651" y1="0.001685" x2="0.269245" y2="0.001685" />
      <line x1="0.296651" y1="0.001685" x2="0.296651" y2="0.011685" />
      <line x1="0.269245" y1="0.001685" x2="0.269245" y2="0.011685" />
      <line x1="0.269243" y1="0.001686" x2="0.269243" y2="0.011686" />
      <line x1="0.269245" y1="0.001685" x2="0.269243" y2="0.001686" />
      <path d="M 0.2639,0.00169 A 0.008294306588619054,1.3576282899776943e-05 1.0955988221629788e-20 0,1 0.269243,0.001686" />
      <line x1="0.2639" y1="0.00169" x2="0.2639" y2="0.01169" />
      <line x1="0.265691" y1="0.011691" x2="0.265691" y2="0.011692" />
      <line x1="0.273814" y1="0.011694" x2="0.273814" y2="0.011706" />
      <line x1="0.272767" y1="0.011692" x2="0.272767" y2="0.011707" />
      <line x1="0.265676" y1="0.011692" x2="0.265676" y2="0.011707" />
      <line x1="0.263879" y1="0.011706" x2="0.263879" y2="0.01171" />
      <line x1="0.269214" y1="0.011714" x2="0.269214" y2="0.011715" />
      <line x1="0.296649" y1="-0.033913" x2="0.296649" y2="0.001685" />
      <line x1="0.296651" y1="-0.033915" x2="0.296649" y2="-0.033913" />
      <line x1="0.296651" y1="-0.043915" x2="0.296651" y2="-0.033915" />
      <line x1="0.286649" y1="-0.033914" x2="0.286649" y2="0.001685" />
      <line x1="0.286649" y1="-0.033914" x2="0.296649" y2="-0.033913" />
      <line x1="0.296651" y1="-0.033915" x2="0.269245" y2="-0.033915" />
      <line x1="0.269245" y1="-0.033915" x2="0.269243" y2="-0.033914" />
      <path d="M 0.269215,-0.033886 A 0.008294306588619054,1.3576282899776943e-05 1.0955988221629788e-20 0,1 0.260935,-0.0339" />
      <path d="M 0.260935,-0.0339 A 0.008294306588619054,1.3576282899776943e-05 1.0955988221629788e-20 0,1 0.269243,-0.033914" />
      <line x1="0.269215" y1="-0.033886" x2="0.269214" y2="-0.033885" />
      <line x1="0.286622" y1="-0.033885" x2="0.269214" y2="-0.033885" />
      <line x1="0.286622" y1="-0.033886" x2="0.286649" y2="-0.033914" />
      <path d="M 0.275029,-0.0339 A 0.0058,9.49355319548374e-06 1.0955988221629788e-20 0,1 0.263429,-0.0339" />
      <path d="M 0.263429,-0.0339 A 0.0058,9.49355319548374e-06 1.0955988221629788e-20 1,1 0.275029,-0.0339" />
      <line x1="0.296651" y1="-0.043915" x2="0.269245" y2="-0.043915" />
      <line x1="0.269245" y1="-0.043915" x2="0.269245" y2="-0.033915" />
      <path d="M 0.260935,-0.0439 A 0.008294306588619054,1.3576282899776943e-05 1.0955988221629788e-20 0,1 0.269243,-0.043914" />
      <line x1="0.269245" y1="-0.043915" x2="0.269243" y2="-0.043914" />
      <line x1="0.269214" y1="-0.033886" x2="0.269214" y2="-0.033885" />
      <line x1="0.286622" y1="-0.033886" x2="0.286622" y2="0.001685" />
      <line x1="0.269243" y1="-0.043914" x2="0.269243" y2="-0.033914" />
      <path d="M 0.262874,0.011709 A 0.008294306588619054,1.3576282899776943e-05 1.0955988221629788e-20 0,1 0.260935,0.0117" />
      <path d="M 0.260935,0.0117 A 0.008294306588619054,1.3576282899776943e-05 1.0955988221629788e-20 0,1 0.262892,0.011691" />
      <path d="M 0.262874,0.011709 A 0.00145,2.373388298870935e-06 1.0955988221629788e-20 0,1 0.262821,0.011708" />
      <path d="M 0.262821,0.011708 A 0.00145,2.373388298870935e-06 1.0955988221629788e-20 0,1 0.264633,0.011706" />
      <path d="M 0.264645,0.011694 A 0.0058,9.493553195483742e-06 -180.0 0,0 0.263429,0.0117" />
      <path d="M 0.263429,0.0117 A 0.0058,9.493553195483742e-06 -180.0 0,0 0.264633,0.011706" />
      <path d="M 0.264645,0.011694 A 0.00145,2.373388298870935e-06 1.0955988221629788e-20 0,1 0.262837,0.011692" />
      <path d="M 0.262837,0.011692 A 0.00145,2.373388298870935e-06 1.0955988221629788e-20 0,1 0.262892,0.011691" />
      <line x1="0.262892" y1="0.001691" x2="0.262892" y2="0.011691" />
      <path d="M 0.260935,0.0017 A 0.008294306588619054,1.3576282899776943e-05 1.0955988221629788e-20 0,1 0.262892,0.001691" />
      <line x1="0.262874" y1="0.011707" x2="0.262874" y2="0.011709" />
      <line x1="0.264633" y1="0.011694" x2="0.264633" y2="0.011706" />
      <path d="M 0.263429,0.0017 A 0.0058,9.493553195483742e-06 -180.0 0,0 0.2639,0.001704" />
      <line x1="0.264645" y1="0.01169" x2="0.264645" y2="0.011694" />
      <path d="M 0.2639,0.001694 A 0.00145,2.373388298870935e-06 1.0955988221629788e-20 0,1 0.262892,0.001692" />
      <line x1="0.260935" y1="-0.0439" x2="0.260935" y2="-0.0339" />
      <line x1="0.260935" y1="0.0017" x2="0.260935" y2="0.0117" />
    </g>
    <g fill="url(#hatch_coupler)" stroke="none" stroke-width="0" id="coupler_fill">
      <path d="M 0.065406,-0.009294 L 0.038,-0.009294 L 0.038,-0.008294 A 0.008294306588619054,0.008294306588619054 0.0 0,0 0.03266,-0.006347 A 0.00145,0.00145 14.364232212067673 0,1 0.034455,-0.00459 A 0.0058,0.0058 127.68093438926024 0,1 0.04259,0.003545 A 0.00145,0.00145 -165.63576778793214 1,1 0.041545,0.00459 A 0.0058,0.0058 127.68093438926024 0,1 0.034455,0.00459 A 0.00145,0.00145 105.60850485956315 0,1 0.03266,0.006347 A 0.008294306588619054,0.008294306588619054 0.0 0,0 0.038,0.008294 L 0.038,0.009294 L 0.065406,0.009294 L 0.065406,0.008294 L 0.055406,0.008294 L 0.055406,-0.008294 L 0.065406,-0.008294 L 0.065406,-0.009294" />
      <path d="M 0.055406,-0.008294 L 0.065406,-0.008294 L 0.065406,0.008294 L 0.055406,0.008294 L 0.055406,-0.008294" />
      <path d="M 0.031653,-0.00534 A 0.008294306588619054,0.008294306588619054 0.0 0,0 0.031653,0.00534 A 0.00145,0.00145 0.0 0,1 0.03341,0.003545 A 0.0058,0.0058 127.68093438926024 0,1 0.03341,-0.003545 A 0.00145,0.00145 0.0 0,1 0.031653,-0.00534" />
      <path d="M 0.138812,-0.008294 L 0.138812,0.008294 L 0.128812,0.008294 L 0.128812,-0.008294 L 0.138812,-0.008294" />
      <path d="M 0.190312,-0.009294 L 0.217719,-0.009294 L 0.217719,0.009294 L 0.190312,0.009294 L 0.190312,0.008294 A 0.008294306588619054,0.008294306588619054 0.0 1,1 0.190312,-0.008294 L 0.190312,-0.009294 M 0.196112,-0.0 A 0.0058,0.0058 0.0 0,0 0.184512,0.0 A 0.0058,0.0058 0.0 0,0 0.196112,0.0" />
    </g>
    <g fill="none" stroke="rgb(220,60,40)" stroke-opacity="0.4" stroke-width="0.00015" id="coupler_hidden" stroke-dasharray="0.0018 0.00045">
      <path d="M 0.265691,0.001692 A 0.00145,2.3733882988709355e-06 180.0 0,0 0.265737,0.001692" />
      <path d="M 0.265737,0.001692 A 0.00145,2.3733882988709355e-06 180.0 0,0 0.2639,0.00169" />
      <line x1="0.265691" y1="0.001692" x2="0.265691" y2="0.011691" />
      <path d="M 0.273814,0.001706 A 0.0058,9.493553195483742e-06 -180.0 0,0 0.275029,0.0017" />
      <path d="M 0.275029,0.0017 A 0.0058,9.493553195483742e-06 -180.0 0,0 0.265691,0.001692" />
      <line x1="0.273814" y1="0.001706" x2="0.273814" y2="0.011694" />
      <path d="M 0.272767,0.001707 A 0.00145,2.3733882988709355e-06 -180.0 0,0 0.272721,0.001708" />
      <path d="M 0.272721,0.001708 A 0.0014500000000000066,2.3733882988709465e-06 -180.0 0,0 0.275621,0.001708" />
      <path d="M 0.275621,0.001708 A 0.00145,2.3733882988709355e-06 -180.0 0,0 0.273814,0.001706" />
      <line x1="0.272767" y1="0.001707" x2="0.272767" y2="0.011692" />
      <path d="M 0.265676,0.001707 A 0.0058,9.493553195483742e-06 -180.0 0,0 0.272767,0.001707" />
      <line x1="0.265676" y1="0.001707" x2="0.265676" y2="0.011692" />
      <path d="M 0.263879,0.00171 A 0.00145,2.3733882988709355e-06 180.0 0,0 0.265721,0.001708" />
      <path d="M 0.265721,0.001708 A 0.00145,2.3733882988709355e-06 180.0 0,0 0.265676,0.001707" />
      <line x1="0.263879" y1="0.00171" x2="0.263879" y2="0.011706" />
      <path d="M 0.269215,0.001714 A 0.008294306588619054,1.3576282899776943e-05 1.0955988221629788e-20 0,1 0.263879,0.00171" />
      <line x1="0.269215" y1="0.001714" x2="0.269215" y2="0.011714" />
      <line x1="0.269214" y1="0.001715" x2="0.269214" y2="0.011714" />
      <line x1="0.269215" y1="0.001714" x2="0.269214" y2="0.001715" />
      <line x1="0.29662" y1="0.001715" x2="0.269214" y2="0.001715" />
      <line x1="0.29662" y1="0.001715" x2="0.29662" y2="0.011715" />
      <line x1="0.296651" y1="0.001685" x2="0.296649" y2="0.001686" />
      <line x1="0.296649" y1="0.001685" x2="0.296649" y2="0.001686" />
      <line x1="0.296651" y1="-0.043915" x2="0.29662" y2="-0.043885" />
      <line x1="0.29662" y1="-0.043885" x2="0.29662" y2="-0.033885" />
      <line x1="0.296622" y1="-0.033886" x2="0.29662" y2="-0.033885" />
      <line x1="0.296622" y1="-0.033886" x2="0.296622" y2="0.001714" />
      <line x1="0.296622" y1="0.001714" x2="0.29662" y2="0.001715" />
      <line x1="0.296649" y1="0.001686" x2="0.286649" y2="0.001686" />
      <line x1="0.286649" y1="0.001686" x2="0.286622" y2="0.001714" />
      <line x1="0.296622" y1="0.001714" x2="0.286622" y2="0.001714" />
      <line x1="0.286649" y1="0.001685" x2="0.286649" y2="0.001686" />
      <line x1="0.29662" y1="-0.033885" x2="0.286622" y2="-0.033885" />
      <line x1="0.286622" y1="-0.033886" x2="0.296622" y2="-0.033886" />
      <line x1="0.29662" y1="-0.043885" x2="0.269214" y2="-0.043885" />
      <line x1="0.269215" y1="-0.043886" x2="0.269214" y2="-0.043885" />
      <path d="M 0.269215,-0.043886 A 0.008294306588619054,1.3576282899776943e-05 1.0955988221629788e-20 0,1 0.260935,-0.0439" />
      <path d="M 0.275029,-0.0439 A 0.0058,9.49355319548374e-06 1.0955988221629788e-20 0,1 0.263429,-0.0439" />
      <path d="M 0.263429,-0.0439 A 0.0058,9.49355319548374e-06 1.0955988221629788e-20 1,1 0.275029,-0.0439" />
      <line x1="0.269214" y1="-0.043885" x2="0.269214" y2="-0.033886" />
      <line x1="0.286622" y1="0.001685" x2="0.286622" y2="0.001714" />
      <line x1="0.269215" y1="-0.043886" x2="0.269215" y2="-0.033886" />
      <path d="M 0.262874,0.001709 A 0.008294306588619054,1.3576282899776943e-05 1.0955988221629788e-20 0,1 0.260935,0.0017" />
      <line x1="0.262874" y1="0.001709" x2="0.262874" y2="0.011707" />
      <line x1="0.264633" y1="0.001706" x2="0.264633" y2="0.011694" />
      <path d="M 0.262874,0.001709 A 0.00145,2.373388298870935e-06 1.0955988221629788e-20 0,1 0.262821,0.001708" />
      <path d="M 0.262821,0.001708 A 0.00145,2.373388298870935e-06 1.0955988221629788e-20 0,1 0.264633,0.001706" />
      <path d="M 0.264645,0.001694 A 0.0058,9.493553195483742e-06 -180.0 0,0 0.263429,0.0017" />
      <path d="M 0.2639,0.001704 A 0.0058,9.493553195483742e-06 -180.0 0,0 0.264633,0.001706" />
      <line x1="0.264645" y1="0.001694" x2="0.264645" y2="0.01169" />
      <path d="M 0.264645,0.001694 A 0.00145,2.373388298870935e-06 1.0955988221629788e-20 0,1 0.2639,0.001694" />
      <path d="M 0.262892,0.001692 A 0.00145,2.373388298870935e-06 1.0955988221629788e-20 0,1 0.262837,0.001692" />
      <path d="M 0.262837,0.001692 A 0.00145,2.373388298870935e-06 1.0955988221629788e-20 0,1 0.262892,0.001691" />
      <line x1="0.265737" y1="0.001692" x2="0.265737" y2="0.011692" />
      <line x1="0.275029" y1="0.0017" x2="0.275029" y2="0.0117" />
      <line x1="0.275621" y1="0.001708" x2="0.275621" y2="0.011708" />
      <line x1="0.272721" y1="0.001708" x2="0.272721" y2="0.011708" />
      <line x1="0.265721" y1="0.001708" x2="0.265721" y2="0.011708" />
      <line x1="0.275029" y1="-0.0439" x2="0.275029" y2="-0.0339" />
      <line x1="0.263429" y1="-0.0439" x2="0.263429" y2="-0.0339" />
      <line x1="0.262821" y1="0.001708" x2="0.262821" y2="0.011708" />
      <line x1="0.263429" y1="0.0017" x2="0.263429" y2="0.0117" />
      <line x1="0.262837" y1="0.001692" x2="0.262837" y2="0.011692" />
    </g>
  </g>
  <text x="0.032703" y="-0.020875" text-anchor="middle" font-family="'Input Sans Narrow', 'DejaVu Sans', Arial, sans-serif" font-size="0.002500" font-weight="bold" fill="#333">A-A</text>
  <text x="0.032703" y="-0.017375" text-anchor="middle" font-family="'Input Sans Narrow', 'DejaVu Sans', Arial, sans-serif" font-size="0.001800" fill="#888">front_horn</text>
  <line x1="0.000000" y1="0.016000" x2="0.000000" y2="0.019000" stroke="#5C7080" stroke-width="0.000140" stroke-opacity="0.5"/>
  <line x1="0.065406" y1="0.016000" x2="0.065406" y2="0.019000" stroke="#5C7080" stroke-width="0.000140" stroke-opacity="0.5"/>
  <line x1="0.000000" y1="0.017400" x2="0.000000" y2="0.019000" stroke="#5C7080" stroke-width="0.000200"/>
  <line x1="0.065406" y1="0.017400" x2="0.065406" y2="0.019000" stroke="#5C7080" stroke-width="0.000200"/>
  <line x1="0.000000" y1="0.018200" x2="0.065406" y2="0.018200" stroke="#5C7080" stroke-width="0.000200"/>
  <polygon points="0.000000,0.018200 0.001500,0.017600 0.001500,0.018800" fill="#5C7080"/>
  <polygon points="0.065406,0.018200 0.063906,0.017600 0.063906,0.018800" fill="#5C7080"/>
  <text x="0.032703" y="0.017000" text-anchor="middle" font-family="'Input Sans Narrow', 'DejaVu Sans', Arial, sans-serif" font-size="0.001600" fill="#5C7080">65.4</text>
  <line x1="0.066206" y1="-0.015200" x2="0.069206" y2="-0.015200" stroke="#5C7080" stroke-width="0.000140" stroke-opacity="0.5"/>
  <line x1="0.066206" y1="0.015200" x2="0.069206" y2="0.015200" stroke="#5C7080" stroke-width="0.000140" stroke-opacity="0.5"/>
  <line x1="0.067606" y1="-0.015200" x2="0.069206" y2="-0.015200" stroke="#5C7080" stroke-width="0.000200"/>
  <line x1="0.067606" y1="0.015200" x2="0.069206" y2="0.015200" stroke="#5C7080" stroke-width="0.000200"/>
  <line x1="0.068406" y1="-0.015200" x2="0.068406" y2="0.015200" stroke="#5C7080" stroke-width="0.000200"/>
  <polygon points="0.068406,-0.015200 0.067806,-0.013700 0.069006,-0.013700" fill="#5C7080"/>
  <polygon points="0.068406,0.015200 0.067806,0.013700 0.069006,0.013700" fill="#5C7080"/>
  <text x="0.069906" y="-0.000000" text-anchor="middle" dominant-baseline="central" font-family="'Input Sans Narrow', 'DejaVu Sans', Arial, sans-serif" font-size="0.001600" fill="#5C7080" transform="rotate(-90 0.069906 -0.000000)">30.4</text>
  <text x="0.106109" y="-0.020875" text-anchor="middle" font-family="'Input Sans Narrow', 'DejaVu Sans', Arial, sans-serif" font-size="0.002500" font-weight="bold" fill="#333">B-B</text>
  <text x="0.106109" y="-0.017375" text-anchor="middle" font-family="'Input Sans Narrow', 'DejaVu Sans', Arial, sans-serif" font-size="0.001800" fill="#888">mid_body</text>
  <text x="0.182265" y="-0.020875" text-anchor="middle" font-family="'Input Sans Narrow', 'DejaVu Sans', Arial, sans-serif" font-size="0.002500" font-weight="bold" fill="#333">C-C</text>
  <text x="0.182265" y="-0.017375" text-anchor="middle" font-family="'Input Sans Narrow', 'DejaVu Sans', Arial, sans-serif" font-size="0.001800" fill="#888">rear_horn</text>
  <line x1="0.146812" y1="0.016000" x2="0.146812" y2="0.019000" stroke="#5C7080" stroke-width="0.000140" stroke-opacity="0.5"/>
  <line x1="0.217719" y1="0.016000" x2="0.217719" y2="0.019000" stroke="#5C7080" stroke-width="0.000140" stroke-opacity="0.5"/>
  <line x1="0.146812" y1="0.017400" x2="0.146812" y2="0.019000" stroke="#5C7080" stroke-width="0.000200"/>
  <line x1="0.217719" y1="0.017400" x2="0.217719" y2="0.019000" stroke="#5C7080" stroke-width="0.000200"/>
  <line x1="0.146812" y1="0.018200" x2="0.217719" y2="0.018200" stroke="#5C7080" stroke-width="0.000200"/>
  <polygon points="0.146812,0.018200 0.148312,0.017600 0.148312,0.018800" fill="#5C7080"/>
  <polygon points="0.217719,0.018200 0.216219,0.017600 0.216219,0.018800" fill="#5C7080"/>
  <text x="0.182265" y="0.017000" text-anchor="middle" font-family="'Input Sans Narrow', 'DejaVu Sans', Arial, sans-serif" font-size="0.001600" fill="#5C7080">70.9</text>
  <line x1="0.218519" y1="-0.015200" x2="0.221519" y2="-0.015200" stroke="#5C7080" stroke-width="0.000140" stroke-opacity="0.5"/>
  <line x1="0.218519" y1="0.015200" x2="0.221519" y2="0.015200" stroke="#5C7080" stroke-width="0.000140" stroke-opacity="0.5"/>
  <line x1="0.219919" y1="-0.015200" x2="0.221519" y2="-0.015200" stroke="#5C7080" stroke-width="0.000200"/>
  <line x1="0.219919" y1="0.015200" x2="0.221519" y2="0.015200" stroke="#5C7080" stroke-width="0.000200"/>
  <line x1="0.220719" y1="-0.015200" x2="0.220719" y2="0.015200" stroke="#5C7080" stroke-width="0.000200"/>
  <polygon points="0.220719,-0.015200 0.220119,-0.013700 0.221319,-0.013700" fill="#5C7080"/>
  <polygon points="0.220719,0.015200 0.220119,0.013700 0.221319,0.013700" fill="#5C7080"/>
  <text x="0.222219" y="-0.000000" text-anchor="middle" dominant-baseline="central" font-family="'Input Sans Narrow', 'DejaVu Sans', Arial, sans-serif" font-size="0.001600" fill="#5C7080" transform="rotate(-90 0.222219 -0.000000)">30.4</text>
  <text x="0.261185" y="-0.020875" text-anchor="middle" font-family="'Input Sans Narrow', 'DejaVu Sans', Arial, sans-serif" font-size="0.002500" font-weight="bold" fill="#333">side_XZ</text>
  <line x1="0.225719" y1="0.044715" x2="0.225719" y2="0.047715" stroke="#5C7080" stroke-width="0.000140" stroke-opacity="0.5"/>
  <line x1="0.296651" y1="0.044715" x2="0.296651" y2="0.047715" stroke="#5C7080" stroke-width="0.000140" stroke-opacity="0.5"/>
  <line x1="0.225719" y1="0.046115" x2="0.225719" y2="0.047715" stroke="#5C7080" stroke-width="0.000200"/>
  <line x1="0.296651" y1="0.046115" x2="0.296651" y2="0.047715" stroke="#5C7080" stroke-width="0.000200"/>
  <line x1="0.225719" y1="0.046915" x2="0.296651" y2="0.046915" stroke="#5C7080" stroke-width="0.000200"/>
  <polygon points="0.225719,0.046915 0.227219,0.046315 0.227219,0.047515" fill="#5C7080"/>
  <polygon points="0.296651,0.046915 0.295151,0.046315 0.295151,0.047515" fill="#5C7080"/>
  <text x="0.261185" y="0.045715" text-anchor="middle" font-family="'Input Sans Narrow', 'DejaVu Sans', Arial, sans-serif" font-size="0.001600" fill="#5C7080">70.9</text>
  <line x1="0.297451" y1="-0.011715" x2="0.300451" y2="-0.011715" stroke="#5C7080" stroke-width="0.000140" stroke-opacity="0.5"/>
  <line x1="0.297451" y1="0.043915" x2="0.300451" y2="0.043915" stroke="#5C7080" stroke-width="0.000140" stroke-opacity="0.5"/>
  <line x1="0.298851" y1="-0.011715" x2="0.300451" y2="-0.011715" stroke="#5C7080" stroke-width="0.000200"/>
  <line x1="0.298851" y1="0.043915" x2="0.300451" y2="0.043915" stroke="#5C7080" stroke-width="0.000200"/>
  <line x1="0.299651" y1="-0.011715" x2="0.299651" y2="0.043915" stroke="#5C7080" stroke-width="0.000200"/>
  <polygon points="0.299651,-0.011715 0.299051,-0.010215 0.300251,-0.010215" fill="#5C7080"/>
  <polygon points="0.299651,0.043915 0.299051,0.042415 0.300251,0.042415" fill="#5C7080"/>
  <text x="0.301151" y="0.016100" text-anchor="middle" dominant-baseline="central" font-family="'Input Sans Narrow', 'DejaVu Sans', Arial, sans-serif" font-size="0.001600" fill="#5C7080" transform="rotate(-90 0.301151 0.016100)">55.6</text>
  <line x1="0.222719" y1="-0.001700" x2="0.299651" y2="-0.001700" stroke="#555" stroke-width="0.000250" stroke-dasharray="0.002500,0.000800,0.000500,0.000800"/>
  <text x="0.221219" y="-0.001100" text-anchor="end" font-family="'Input Sans Narrow', 'DejaVu Sans', Arial, sans-serif" font-size="0.002000" font-weight="bold" fill="#555">A</text>
  <text x="0.301151" y="-0.001100" text-anchor="start" font-family="'Input Sans Narrow', 'DejaVu Sans', Arial, sans-serif" font-size="0.002000" font-weight="bold" fill="#555">A</text>
  <line x1="0.222719" y1="0.016100" x2="0.299651" y2="0.016100" stroke="#555" stroke-width="0.000250" stroke-dasharray="0.002500,0.000800,0.000500,0.000800"/>
  <text x="0.221219" y="0.016700" text-anchor="end" font-family="'Input Sans Narrow', 'DejaVu Sans', Arial, sans-serif" font-size="0.002000" font-weight="bold" fill="#555">B</text>
  <text x="0.301151" y="0.016700" text-anchor="start" font-family="'Input Sans Narrow', 'DejaVu Sans', Arial, sans-serif" font-size="0.002000" font-weight="bold" fill="#555">B</text>
  <line x1="0.222719" y1="0.033900" x2="0.299651" y2="0.033900" stroke="#555" stroke-width="0.000250" stroke-dasharray="0.002500,0.000800,0.000500,0.000800"/>
  <text x="0.221219" y="0.034500" text-anchor="end" font-family="'Input Sans Narrow', 'DejaVu Sans', Arial, sans-serif" font-size="0.002000" font-weight="bold" fill="#555">C</text>
  <text x="0.301151" y="0.034500" text-anchor="start" font-family="'Input Sans Narrow', 'DejaVu Sans', Arial, sans-serif" font-size="0.002000" font-weight="bold" fill="#555">C</text>
  <text x="-0.001175" y="0.052090" font-family="'Input Sans Narrow', 'DejaVu Sans', Arial, sans-serif" font-size="0.003500" font-weight="bold" fill="#222">coupler_assembly</text>
  <line x1="-0.001175" y1="0.056090" x2="0.008825" y2="0.056090" stroke="#333" stroke-width="0.000350"/>
  <line x1="-0.001175" y1="0.055090" x2="-0.001175" y2="0.057090" stroke="#333" stroke-width="0.000250"/>
  <line x1="0.008825" y1="0.055090" x2="0.008825" y2="0.057090" stroke="#333" stroke-width="0.000250"/>
  <text x="0.010325" y="0.056790" font-family="'Input Sans Narrow', 'DejaVu Sans', Arial, sans-serif" font-size="0.001800" fill="#888">10 mm</text>
  <rect x="0.028825" y="0.049590" width="0.004000" height="0.002500" fill="url(#hatch_cradle)" stroke="rgb(50,120,190)" stroke-width="0.000300"/>
  <text x="0.034325" y="0.051590" font-family="'Input Sans Narrow', 'DejaVu Sans', Arial, sans-serif" font-size="0.001800" fill="rgb(50,120,190)">cradle</text>
  <rect x="0.028825" y="0.053090" width="0.004000" height="0.002500" fill="url(#hatch_servo)" stroke="rgb(60,60,60)" stroke-width="0.000300"/>
  <text x="0.034325" y="0.055090" font-family="'Input Sans Narrow', 'DejaVu Sans', Arial, sans-serif" font-size="0.001800" fill="rgb(60,60,60)">servo</text>
  <rect x="0.028825" y="0.056590" width="0.004000" height="0.002500" fill="url(#hatch_coupler)" stroke="rgb(220,60,40)" stroke-width="0.000300"/>
  <text x="0.034325" y="0.058590" font-family="'Input Sans Narrow', 'DejaVu Sans', Arial, sans-serif" font-size="0.001800" fill="rgb(220,60,40)">coupler</text>
</svg>