<?xml version='1.0' encoding='utf-8'?>
<svg width="177.1mm" height="47.0mm" viewBox="-0.0031 -0.0218 0.1771 0.047" version="1.1" xmlns="http://www.w3.org/2000/svg">
  <g transform="scale(1,-1)" stroke-linecap="round">
    <g fill="none" stroke="rgb(60,60,60)" stroke-width="0.0002" id="servo">
      <line x1="0.0028" y1="0.0124" x2="0.0482" y2="0.0124" />
      <line x1="0.0482" y1="0.0124" x2="0.0482" y2="-0.0124" />
      <line x1="0.0028" y1="-0.0124" x2="0.0482" y2="-0.0124" />
      <line x1="0.0028" y1="0.0124" x2="0.0028" y2="-0.0124" />
      <line x1="0.0553" y1="0.01335" x2="0.0553" y2="0.0124" />
      <line x1="0.0553" y1="0.01335" x2="0.086" y2="0.01335" />
      <line x1="0.086" y1="0.01335" x2="0.086" y2="0.0124" />
      <line x1="0.0553" y1="0.0124" x2="0.086" y2="0.0124" />
      <line x1="0.0553" y1="-0.0124" x2="0.086" y2="-0.0124" />
      <line x1="0.086" y1="-0.0124" x2="0.086" y2="-0.01335" />
      <line x1="0.0553" y1="-0.01335" x2="0.086" y2="-0.01335" />
      <line x1="0.0553" y1="-0.0124" x2="0.0553" y2="-0.01335" />
      <line x1="0.133" y1="0.0159" x2="0.133" y2="0.0187" />
      <line x1="0.133" y1="0.0159" x2="0.1392" y2="0.0159" />
      <line x1="0.1392" y1="0.0159" x2="0.1392" y2="-0.0159" />
      <line x1="0.0938" y1="-0.0159" x2="0.1392" y2="-0.0159" />
      <line x1="0.0938" y1="0.0159" x2="0.0938" y2="-0.0159" />
      <line x1="0.0938" y1="0.0159" x2="0.125" y2="0.0159" />
      <line x1="0.125" y1="0.0159" x2="0.125" y2="0.0187" />
      <line x1="0.125" y1="0.0187" x2="0.133" y2="0.0187" />
      <line x1="0.14515" y1="0.0159" x2="0.16995" y2="0.0159" />
      <line x1="0.16995" y1="0.0159" x2="0.16995" y2="-0.0159" />
      <line x1="0.14515" y1="-0.0159" x2="0.16995" y2="-0.0159" />
      <line x1="0.14515" y1="0.0159" x2="0.14515" y2="-0.0159" />
      <line x1="0.16995" y1="-0.0159" x2="0.1709" y2="-0.0159" />
      <line x1="0.1709" y1="-0.0159" x2="0.1709" y2="-0.0201" />
      <line x1="0.16995" y1="-0.0201" x2="0.1709" y2="-0.0201" />
      <line x1="0.16995" y1="-0.0159" x2="0.16995" y2="-0.0201" />
      <line x1="0.14515" y1="-0.0159" x2="0.14515" y2="-0.0201" />
      <line x1="0.1442" y1="-0.0201" x2="0.14515" y2="-0.0201" />
      <line x1="0.1442" y1="-0.0159" x2="0.1442" y2="-0.0201" />
      <line x1="0.1442" y1="-0.0159" x2="0.14515" y2="-0.0159" />
    </g>
    <g fill="rgb(60,60,60)" fill-opacity="0.15" stroke="rgb(60,60,60)" stroke-opacity="0.0" stroke-width="0.0" id="servo_fill">
      <path d="M 0.0482,0.0124 L 0.0028,0.0124 L 0.0028,-0.0124 L 0.0482,-0.0124 L 0.0482,0.0124" />
      <path d="M 0.0553,0.01335 L 0.0553,0.0124 L 0.086,0.0124 L 0.086,0.01335 L 0.0553,0.01335" />
      <path d="M 0.086,-0.0124 L 0.0553,-0.0124 L 0.0553,-0.01335 L 0.086,-0.01335 L 0.086,-0.0124" />
      <path d="M 0.133,0.0159 L 0.133,0.0187 L 0.125,0.0187 L 0.125,0.0159 L 0.0938,0.0159 L 0.0938,-0.0159 L 0.1392,-0.0159 L 0.1392,0.0159 L 0.133,0.0159" />
      <path d="M 0.16995,0.0159 L 0.14515,0.0159 L 0.14515,-0.0159 L 0.16995,-0.0159 L 0.16995,0.0159" />
      <path d="M 0.1709,-0.0159 L 0.16995,-0.0159 L 0.16995,-0.0201 L 0.1709,-0.0201 L 0.1709,-0.0159" />
      <path d="M 0.14515,-0.0201 L 0.14515,-0.0159 L 0.1442,-0.0159 L 0.1442,-0.0201 L 0.14515,-0.0201" />
    </g>
    <g fill="none" stroke="rgb(50,120,190)" stroke-width="0.0002" id="cradle">
      <line x1="0.0" y1="0.0152" x2="0.007526" y2="0.0152" />
      <line x1="0.007526" y1="0.0152" x2="0.007526" y2="0.0127" />
      <line x1="0.0025" y1="0.0127" x2="0.007526" y2="0.0127" />
      <line x1="0.0025" y1="0.0127" x2="0.0025" y2="-0.0127" />
      <line x1="0.0025" y1="-0.0127" x2="0.007526" y2="-0.0127" />
      <line x1="0.007526" y1="-0.0127" x2="0.007526" y2="-0.0152" />
      <line x1="0.0" y1="-0.0152" x2="0.007526" y2="-0.0152" />
      <line x1="0.0" y1="0.0152" x2="0.0" y2="-0.0152" />
      <line x1="0.0532" y1="0.0152" x2="0.060726" y2="0.0152" />
      <line x1="0.060726" y1="0.0152" x2="0.060726" y2="0.0127" />
      <line x1="0.0557" y1="0.0127" x2="0.060726" y2="0.0127" />
      <line x1="0.0557" y1="0.0127" x2="0.0557" y2="0.005" />
      <line x1="0.0532" y1="0.005" x2="0.0557" y2="0.005" />
      <line x1="0.0532" y1="0.0152" x2="0.0532" y2="0.005" />
      <line x1="0.0532" y1="-0.005" x2="0.0557" y2="-0.005" />
      <line x1="0.0557" y1="-0.005" x2="0.0557" y2="-0.0127" />
      <line x1="0.0557" y1="-0.0127" x2="0.060726" y2="-0.0127" />
      <line x1="0.060726" y1="-0.0127" x2="0.060726" y2="-0.0152" />
      <line x1="0.0532" y1="-0.0152" x2="0.060726" y2="-0.0152" />
      <line x1="0.0532" y1="-0.005" x2="0.0532" y2="-0.0152" />
      <line x1="0.091" y1="0.0187" x2="0.098526" y2="0.0187" />
      <line x1="0.098526" y1="0.0187" x2="0.098526" y2="0.0162" />
      <line x1="0.0935" y1="0.0162" x2="0.098526" y2="0.0162" />
      <line x1="0.0935" y1="0.0162" x2="0.0935" y2="-0.0129" />
      <line x1="0.091" y1="-0.0129" x2="0.0935" y2="-0.0129" />
      <line x1="0.091" y1="0.0187" x2="0.091" y2="-0.0129" />
      <line x1="0.091" y1="-0.0189" x2="0.0948" y2="-0.0189" />
      <line x1="0.0948" y1="-0.0162" x2="0.0948" y2="-0.0189" />
      <line x1="0.0948" y1="-0.0162" x2="0.098526" y2="-0.0162" />
      <line x1="0.098526" y1="-0.0162" x2="0.098526" y2="-0.0221" />
      <line x1="0.091" y1="-0.0221" x2="0.098526" y2="-0.0221" />
      <line x1="0.091" y1="-0.0189" x2="0.091" y2="-0.0221" />
    </g>
    <g fill="rgb(50,120,190)" fill-opacity="0.15" stroke="rgb(50,120,190)" stroke-opacity="0.0" stroke-width="0.0" id="cradle_fill">
      <path d="M 0.007526,0.0152 L 0.0,0.0152 L 0.0,-0.0152 L 0.007526,-0.0152 L 0.007526,-0.0127 L 0.0025,-0.0127 L 0.0025,0.0127 L 0.007526,0.0127 L 0.007526,0.0152" />
      <path d="M 0.060726,0.0152 L 0.0532,0.0152 L 0.0532,0.005 L 0.0557,0.005 L 0.0557,0.0127 L 0.060726,0.0127 L 0.060726,0.0152" />
      <path d="M 0.0557,-0.005 L 0.0532,-0.005 L 0.0532,-0.0152 L 0.060726,-0.0152 L 0.060726,-0.0127 L 0.0557,-0.0127 L 0.0557,-0.005" />
      <path d="M 0.098526,0.0187 L 0.091,0.0187 L 0.091,-0.0129 L 0.0935,-0.0129 L 0.0935,0.0162 L 0.098526,0.0162 L 0.098526,0.0187" />
      <path d="M 0.0948,-0.0189 L 0.091,-0.0189 L 0.091,-0.0221 L 0.098526,-0.0221 L 0.098526,-0.0162 L 0.0948,-0.0162 L 0.0948,-0.0189" />
    </g>
  </g>
</svg>