<?xml version='1.0' encoding='utf-8'?>
<svg width="285.75mm" height="70.81mm" viewBox="-0.003175 -0.028675 0.285750 0.070814" version="1.1" xmlns="http://www.w3.org/2000/svg">
  <defs>
    <pattern id="hatch_servo" width="0.0012" height="0.0012" patternUnits="userSpaceOnUse" patternTransform="rotate(45)">
      <line x1="0" y1="0" x2="0" y2="0.0012" stroke="rgb(60,60,60)" stroke-width="0.0001" stroke-opacity="0.6"/>
    </pattern>
    <pattern id="hatch_bracket" width="0.0012" height="0.0012" patternUnits="userSpaceOnUse" patternTransform="rotate(75)">
      <line x1="0" y1="0" x2="0" y2="0.0012" stroke="rgb(50,120,190)" stroke-width="0.0001" stroke-opacity="0.6"/>
    </pattern>
  </defs>
  <g transform="scale(1,-1)" stroke-linecap="round">
    <g fill="none" stroke="rgb(60,60,60)" stroke-width="0.00035" id="servo">
      <line x1="0.0033" y1="-0.0084" x2="0.0033" y2="0.0084" />
      <path d="M 0.0033,-0.0084 A 0.004,0.004 -90.0 0,1 0.0073,-0.0124" />
      <line x1="0.0073" y1="-0.0124" x2="0.0447" y2="-0.0124" />
      <path d="M 0.0487,-0.0084 A 0.004,0.004 -90.0 0,0 0.0447,-0.0124" />
      <line x1="0.0487" y1="-0.0084" x2="0.0487" y2="0.0084" />
      <path d="M 0.0487,0.0084 A 0.004,0.004 -90.0 0,1 0.0447,0.0124" />
      <line x1="0.0073" y1="0.0124" x2="0.0447" y2="0.0124" />
      <path d="M 0.0033,0.0084 A 0.004,0.004 -90.0 0,0 0.0073,0.0124" />
      <path d="M 0.0673,0.0124 A 0.004,0.004 180.0 0,1 0.0633,0.0084" />
      <line x1="0.0673" y1="0.0124" x2="0.1047" y2="0.0124" />
      <path d="M 0.1087,0.0084 A 0.004,0.004 0.0 0,1 0.1047,0.0124" />
      <line x1="0.1087" y1="0.0084" x2="0.1087" y2="-0.0084" />
      <path d="M 0.1047,-0.0124 A 0.004,0.004 0.0 0,1 0.1087,-0.0084" />
      <line x1="0.0673" y1="-0.0124" x2="0.1047" y2="-0.0124" />
      <path d="M 0.0633,-0.0084 A 0.004,0.004 180.0 0,1 0.0673,-0.0124" />
      <line x1="0.0633" y1="0.0084" x2="0.0633" y2="-0.0084" />
      <line x1="0.1253" y1="-0.0084" x2="0.1253" y2="-0.0124" />
      <line x1="0.1253" y1="-0.0084" x2="0.1657" y2="-0.0084" />
      <line x1="0.1657" y1="-0.0084" x2="0.1657" y2="-0.0124" />
      <line x1="0.1253" y1="-0.0124" x2="0.1657" y2="-0.0124" />
      <circle cx="0.129" cy="-0.01025" r="0.0016" />
      <circle cx="0.146" cy="-0.01025" r="0.0016" />
      <circle cx="0.163" cy="-0.01025" r="0.0016" />
      <line x1="0.1253" y1="0.0124" x2="0.1657" y2="0.0124" />
      <line x1="0.1657" y1="0.0124" x2="0.1657" y2="0.0084" />
      <line x1="0.1253" y1="0.0084" x2="0.1657" y2="0.0084" />
      <line x1="0.1253" y1="0.0124" x2="0.1253" y2="0.0084" />
      <circle cx="0.129" cy="0.01025" r="0.0016" />
      <circle cx="0.146" cy="0.01025" r="0.0016" />
      <circle cx="0.163" cy="0.01025" r="0.0016" />
      <circle cx="0.1585" cy="0.0" r="0.003" />
      <line x1="0.1833" y1="-0.0163" x2="0.1833" y2="0.0163" />
      <line x1="0.1833" y1="0.0163" x2="0.1833" y2="-0.0163" />
      <path d="M 0.1833,0.0163 A 0.004,7.964046740044567e-08 -3.901348164522844e-24 0,0 0.1873,0.0163" />
      <path d="M 0.1833,-0.0163 A 0.004,7.964046740044567e-08 -3.901348164522844e-24 0,0 0.1853,-0.0163" />
      <line x1="0.1873" y1="-0.0163" x2="0.1873" y2="0.0163" />
      <path d="M 0.1833,-0.0163 A 0.004,7.964046740044567e-08 180.0 0,1 0.1853,-0.0163" />
      <path d="M 0.2287,-0.0163 A 0.004,7.964046740044567e-08 180.0 0,1 0.2257,-0.0163" />
      <line x1="0.1873" y1="0.0163" x2="0.2247" y2="0.0163" />
      <path d="M 0.2287,0.0163 A 0.004,7.964046740044567e-08 180.0 0,1 0.2247,0.0163" />
      <line x1="0.2247" y1="0.0163" x2="0.2265" y2="0.0163" />
      <line x1="0.1853" y1="-0.0163" x2="0.1873" y2="-0.0163" />
      <line x1="0.2247" y1="-0.0163" x2="0.2247" y2="0.0163" />
      <line x1="0.2247" y1="-0.0163" x2="0.2257" y2="-0.0163" />
      <line x1="0.2257" y1="-0.0184" x2="0.2257" y2="-0.0163" />
      <line x1="0.1853" y1="-0.0184" x2="0.2257" y2="-0.0184" />
      <line x1="0.1853" y1="-0.0184" x2="0.1853" y2="-0.0163" />
      <line x1="0.1853" y1="-0.0184" x2="0.1853" y2="-0.0163" />
      <line x1="0.1853" y1="-0.0184" x2="0.2257" y2="-0.0184" />
      <line x1="0.2287" y1="-0.0163" x2="0.2287" y2="0.0163" />
      <path d="M 0.2085,0.018 A 0.002,3.9820233700222834e-08 -3.901348164522844e-24 0,0 0.2105,0.018" />
      <line x1="0.2105" y1="0.018" x2="0.2265" y2="0.018" />
      <path d="M 0.2285,0.018 A 0.002,3.9820233700222834e-08 180.0 0,1 0.2265,0.018" />
      <path d="M 0.1906,-0.0184 A 0.0016,3.185618696017826e-08 -3.1156113220371268e-24 0,0 0.1874,-0.0184" />
      <path d="M 0.1874,-0.0184 A 0.0016,3.185618696017826e-08 -3.1156113220371268e-24 1,0 0.1906,-0.0184" />
      <path d="M 0.2076,-0.0184 A 0.0016000000000000044,3.185618696017835e-08 -3.1156113220371268e-24 0,0 0.2044,-0.0184" />
      <path d="M 0.2044,-0.0184 A 0.0016000000000000044,3.185618696017835e-08 -3.1156113220371268e-24 1,0 0.2076,-0.0184" />
      <path d="M 0.2246,-0.0184 A 0.0016,3.185618696017826e-08 -3.1156113220371268e-24 0,0 0.2214,-0.0184" />
      <path d="M 0.2214,-0.0184 A 0.0016,3.185618696017826e-08 -3.1156113220371268e-24 1,0 0.2246,-0.0184" />
      <path d="M 0.1906,-0.0184 A 0.0016,3.185618696017826e-08 -3.1156113220371268e-24 0,0 0.1874,-0.0184" />
      <path d="M 0.1874,-0.0184 A 0.0016,3.185618696017826e-08 -3.1156113220371268e-24 1,0 0.1906,-0.0184" />
      <path d="M 0.2076,-0.0184 A 0.0016000000000000044,3.185618696017835e-08 -3.1156113220371268e-24 0,0 0.2044,-0.0184" />
      <path d="M 0.2044,-0.0184 A 0.0016000000000000044,3.185618696017835e-08 -3.1156113220371268e-24 1,0 0.2076,-0.0184" />
      <path d="M 0.2246,-0.0184 A 0.0016,3.185618696017826e-08 -3.1156113220371268e-24 0,0 0.2214,-0.0184" />
      <path d="M 0.2214,-0.0184 A 0.0016,3.185618696017826e-08 -3.1156113220371268e-24 1,0 0.2246,-0.0184" />
      <path d="M 0.214,0.0195 A 0.004500000000000004,8.959552582550142e-08 -3.1156113220371268e-24 0,0 0.223,0.0195" />
      <line x1="0.2085" y1="0.0163" x2="0.2085" y2="0.018" />
      <line x1="0.2105" y1="0.0163" x2="0.2105" y2="0.018" />
      <line x1="0.2265" y1="0.0163" x2="0.2265" y2="0.018" />
      <line x1="0.2285" y1="0.0163" x2="0.2285" y2="0.018" />
      <line x1="0.1833" y1="-0.0163" x2="0.1833" y2="0.0163" />
      <line x1="0.2287" y1="-0.0163" x2="0.2287" y2="0.0163" />
      <line x1="0.223" y1="0.018" x2="0.223" y2="0.0195" />
      <line x1="0.214" y1="0.018" x2="0.214" y2="0.0195" />
      <line x1="0.2433" y1="-0.0163" x2="0.2433" y2="0.0163" />
      <line x1="0.243427" y1="-0.0163" x2="0.2473" y2="-0.0163" />
      <line x1="0.2641" y1="-0.0163" x2="0.267973" y2="-0.0163" />
      <path d="M 0.2473,-0.0163 A 0.004,7.964254933831555e-08 -180.0 0,1 0.243427,-0.0163" />
      <path d="M 0.2641,-0.0163 A 0.004,7.964254933831555e-08 1.538184024739024e-39 0,0 0.267973,-0.0163" />
      <line x1="0.2473" y1="-0.0163" x2="0.2641" y2="-0.0163" />
      <path d="M 0.2557,-0.0163 A 0.003,5.973191200373665e-08 1.5347302623733728e-39 0,0 0.2587,-0.0163" />
      <path d="M 0.2527,-0.0163 A 0.003,5.973191200373665e-08 1.5347302623733728e-39 0,0 0.2557,-0.0163" />
      <line x1="0.2681" y1="0.0163" x2="0.2681" y2="-0.0163" />
      <path d="M 0.2473,0.0163 A 0.004,7.964254933831555e-08 -180.0 0,1 0.2433,0.0163" />
      <path d="M 0.2641,0.0163 A 0.004,7.964254933831555e-08 1.538184024739024e-39 0,0 0.2681,0.0163" />
      <line x1="0.2473" y1="0.0163" x2="0.2641" y2="0.0163" />
      <path d="M 0.2473,0.0163 A 0.002,3.982127466915777e-08 -180.0 0,1 0.2457,0.0163" />
      <path d="M 0.2641,0.0163 A 0.002,3.982127466915777e-08 1.538184024739024e-39 0,0 0.2657,0.0163" />
      <line x1="0.2433" y1="-0.0163" x2="0.2433" y2="0.0163" />
      <line x1="0.2433" y1="-0.0184" x2="0.2433" y2="-0.0163" />
      <line x1="0.2473" y1="-0.0184" x2="0.2473" y2="-0.0163" />
      <line x1="0.2641" y1="-0.0184" x2="0.2641" y2="-0.0163" />
      <line x1="0.2433" y1="-0.0163" x2="0.243427" y2="-0.0163" />
      <line x1="0.2433" y1="-0.0184" x2="0.2473" y2="-0.0184" />
      <line x1="0.267973" y1="-0.0163" x2="0.2681" y2="-0.0163" />
      <line x1="0.2681" y1="-0.0184" x2="0.2681" y2="-0.0163" />
      <line x1="0.2641" y1="-0.0184" x2="0.2681" y2="-0.0184" />
      <line x1="0.2473" y1="-0.0163" x2="0.2473" y2="0.0163" />
      <line x1="0.2681" y1="0.0163" x2="0.2681" y2="-0.0163" />
      <line x1="0.2641" y1="0.0163" x2="0.2641" y2="-0.0163" />
      <path d="M 0.2557,-0.0176 A 0.003,5.973191200373665e-08 1.5347302623733728e-39 0,0 0.2587,-0.0176" />
      <path d="M 0.2587,-0.0176 A 0.0030000000000000027,5.97319120037367e-08 1.5347302623733728e-39 0,0 0.2527,-0.0176" />
      <path d="M 0.2527,-0.0176 A 0.003,5.973191200373665e-08 1.5347302623733728e-39 0,0 0.2557,-0.0176" />
      <line x1="0.2457" y1="0.0163" x2="0.2457" y2="0.018" />
      <path d="M 0.2477,0.018 A 0.002,3.982127466915777e-08 -180.0 0,1 0.2457,0.018" />
      <line x1="0.2477" y1="0.018" x2="0.2637" y2="0.018" />
      <line x1="0.2657" y1="0.0163" x2="0.2657" y2="0.018" />
      <path d="M 0.2637,0.018 A 0.002,3.982127466915777e-08 1.538184024739024e-39 0,0 0.2657,0.018" />
      <path d="M 0.24545,-0.0184 A 0.0016,3.185701973532622e-08 1.5347302623733728e-39 0,0 0.24705,-0.0184" />
      <path d="M 0.24705,-0.0184 A 0.0016,3.185701973532622e-08 1.5347302623733728e-39 0,0 0.24385,-0.0184" />
      <path d="M 0.24385,-0.0184 A 0.0016,3.185701973532622e-08 1.5347302623733728e-39 0,0 0.24545,-0.0184" />
      <path d="M 0.24545,-0.0184 A 0.0016,3.185701973532622e-08 1.5347302623733728e-39 0,0 0.24705,-0.0184" />
      <path d="M 0.24705,-0.0184 A 0.0016,3.185701973532622e-08 1.5347302623733728e-39 0,0 0.24385,-0.0184" />
      <path d="M 0.24385,-0.0184 A 0.0016,3.185701973532622e-08 1.5347302623733728e-39 0,0 0.24545,-0.0184" />
      <path d="M 0.24545,-0.0184 A 0.0016,3.185701973532622e-08 1.5347302623733728e-39 0,0 0.24705,-0.0184" />
      <path d="M 0.24705,-0.0184 A 0.0016,3.185701973532622e-08 1.5347302623733728e-39 0,0 0.24385,-0.0184" />
      <path d="M 0.24385,-0.0184 A 0.0016,3.185701973532622e-08 1.5347302623733728e-39 0,0 0.24545,-0.0184" />
      <path d="M 0.26595,-0.0184 A 0.0016,3.185701973532622e-08 1.5347302623733728e-39 0,0 0.26755,-0.0184" />
      <path d="M 0.26755,-0.0184 A 0.0016000000000000179,3.185701973532657e-08 1.5347302623733728e-39 0,0 0.26435,-0.0184" />
      <path d="M 0.26435,-0.0184 A 0.0016,3.185701973532622e-08 1.5347302623733728e-39 0,0 0.26595,-0.0184" />
      <path d="M 0.26595,-0.0184 A 0.0016,3.185701973532622e-08 1.5347302623733728e-39 0,0 0.26755,-0.0184" />
      <path d="M 0.26755,-0.0184 A 0.0016000000000000179,3.185701973532657e-08 1.5347302623733728e-39 0,0 0.26435,-0.0184" />
      <path d="M 0.26435,-0.0184 A 0.0016,3.185701973532622e-08 1.5347302623733728e-39 0,0 0.26595,-0.0184" />
      <path d="M 0.26595,-0.0184 A 0.0016,3.185701973532622e-08 1.5347302623733728e-39 0,0 0.26755,-0.0184" />
      <path d="M 0.26755,-0.0184 A 0.0016000000000000179,3.185701973532657e-08 1.5347302623733728e-39 0,0 0.26435,-0.0184" />
      <path d="M 0.26435,-0.0184 A 0.0016,3.185701973532622e-08 1.5347302623733728e-39 0,0 0.26595,-0.0184" />
      <path d="M 0.2557,0.0195 A 0.0045,8.959786800560498e-08 1.5347302623733728e-39 0,0 0.2602,0.0195" />
      <path d="M 0.2512,0.0195 A 0.0045,8.959786800560498e-08 1.5347302623733728e-39 0,0 0.2557,0.0195" />
      <line x1="0.2477" y1="0.0163" x2="0.2477" y2="0.018" />
      <line x1="0.2637" y1="0.0163" x2="0.2637" y2="0.018" />
      <line x1="0.2587" y1="-0.0176" x2="0.2587" y2="-0.0163" />
      <line x1="0.2527" y1="-0.0176" x2="0.2527" y2="-0.0163" />
      <line x1="0.2602" y1="0.018" x2="0.2602" y2="0.0195" />
      <line x1="0.2512" y1="0.018" x2="0.2512" y2="0.0195" />
    </g>
    <g fill="url(#hatch_servo)" stroke="none" stroke-width="0" id="servo_fill">
      <path d="M 0.0033,0.0084 L 0.0033,-0.0084 A 0.004,0.004 -90.0 0,1 0.0073,-0.0124 L 0.0447,-0.0124 A 0.004,0.004 -90.0 0,1 0.0487,-0.0084 L 0.0487,0.0084 A 0.004,0.004 -90.0 0,1 0.0447,0.0124 L 0.0073,0.0124 A 0.004,0.004 -90.0 0,1 0.0033,0.0084" />
      <path d="M 0.0673,0.0124 A 0.004,0.004 180.0 0,1 0.0633,0.0084 L 0.0633,-0.0084 A 0.004,0.004 180.0 0,1 0.0673,-0.0124 L 0.1047,-0.0124 A 0.004,0.004 0.0 0,1 0.1087,-0.0084 L 0.1087,0.0084 A 0.004,0.004 0.0 0,1 0.1047,0.0124 L 0.0673,0.0124" />
      <path d="M 0.1253,-0.0084 L 0.1253,-0.0124 L 0.1657,-0.0124 L 0.1657,-0.0084 L 0.1253,-0.0084 M 0.1306,-0.01025 A 0.0016,0.0016 0.0 0,0 0.1274,-0.01025 A 0.0016,0.0016 0.0 0,0 0.1306,-0.01025 M 0.1476,-0.01025 A 0.0016000000000000044,0.0016000000000000044 0.0 0,0 0.1444,-0.01025 A 0.0016000000000000044,0.0016000000000000044 0.0 0,0 0.1476,-0.01025 M 0.1646,-0.01025 A 0.0016000000000000044,0.0016000000000000044 0.0 0,0 0.1614,-0.01025 A 0.0016000000000000044,0.0016000000000000044 0.0 0,0 0.1646,-0.01025" />
      <path d="M 0.1657,0.0124 L 0.1253,0.0124 L 0.1253,0.0084 L 0.1657,0.0084 L 0.1657,0.0124 M 0.1306,0.01025 A 0.0016,0.0016 0.0 0,0 0.1274,0.01025 A 0.0016,0.0016 0.0 0,0 0.1306,0.01025 M 0.1476,0.01025 A 0.0016000000000000044,0.0016000000000000044 0.0 0,0 0.1444,0.01025 A 0.0016000000000000044,0.0016000000000000044 0.0 0,0 0.1476,0.01025 M 0.1646,0.01025 A 0.0016000000000000044,0.0016000000000000044 0.0 0,0 0.1614,0.01025 A 0.0016000000000000044,0.0016000000000000044 0.0 0,0 0.1646,0.01025" />
      <circle cx="0.1585" cy="0.0" r="0.003" />
    </g>
    <g fill="none" stroke="rgb(60,60,60)" stroke-opacity="0.4" stroke-width="0.00015" id="servo_hidden" stroke-dasharray="0.0018 0.00045">
      <path d="M 0.1853,-0.0163 A 0.004,7.964046740044567e-08 -3.901348164522844e-24 0,0 0.1873,-0.0163" />
      <line x1="0.1853" y1="-0.0163" x2="0.2257" y2="-0.0163" />
      <line x1="0.1853" y1="-0.0163" x2="0.2257" y2="-0.0163" />
      <path d="M 0.2287,-0.0163 A 0.004,7.964046740044567e-08 -3.901348164522844e-24 0,0 0.2257,-0.0163" />
      <path d="M 0.2215,-0.0163 A 0.0030000000000000027,5.973035055033429e-08 -3.1156113220371268e-24 0,0 0.2155,-0.0163" />
      <path d="M 0.2155,-0.0163 A 0.0030000000000000027,5.973035055033429e-08 -3.1156113220371268e-24 1,0 0.2215,-0.0163" />
      <line x1="0.1873" y1="0.0163" x2="0.1873" y2="-0.0163" />
      <path d="M 0.1833,0.0163 A 0.004,7.964046740044567e-08 180.0 0,1 0.1873,0.0163" />
      <path d="M 0.1853,-0.0163 A 0.004,7.964046740044567e-08 180.0 0,1 0.1873,-0.0163" />
      <line x1="0.1873" y1="0.0163" x2="0.2247" y2="0.0163" />
      <path d="M 0.2287,0.0163 A 0.004,7.964046740044567e-08 -3.901348164522844e-24 0,0 0.2247,0.0163" />
      <path d="M 0.2085,0.0163 A 0.002,3.9820233700222834e-08 -3.901348164522844e-24 0,0 0.2105,0.0163" />
      <line x1="0.2105" y1="0.0163" x2="0.2247" y2="0.0163" />
      <path d="M 0.2285,0.0163 A 0.002,3.9820233700222834e-08 180.0 0,1 0.2265,0.0163" />
      <path d="M 0.2285,0.0163 A 0.002,3.9820233700222834e-08 -3.901348164522844e-24 0,0 0.2265,0.0163" />
      <line x1="0.2105" y1="0.0163" x2="0.2265" y2="0.0163" />
      <path d="M 0.2085,0.0163 A 0.002,3.9820233700222834e-08 180.0 0,1 0.2105,0.0163" />
      <line x1="0.1853" y1="-0.0184" x2="0.1853" y2="-0.0163" />
      <line x1="0.1853" y1="-0.0184" x2="0.1853" y2="-0.0163" />
      <line x1="0.1853" y1="-0.0184" x2="0.2257" y2="-0.0184" />
      <line x1="0.2257" y1="-0.0184" x2="0.2257" y2="-0.0163" />
      <line x1="0.2257" y1="-0.0184" x2="0.2257" y2="-0.0163" />
      <line x1="0.2257" y1="-0.0184" x2="0.2257" y2="-0.0163" />
      <path d="M 0.2257,-0.0163 A 0.004,7.964046740044567e-08 180.0 0,1 0.2247,-0.0163" />
      <line x1="0.2247" y1="0.0163" x2="0.2247" y2="-0.0163" />
      <line x1="0.2287" y1="0.0163" x2="0.2287" y2="-0.0163" />
      <path d="M 0.2257,-0.0163 A 0.004,7.964046740044567e-08 -3.901348164522844e-24 0,0 0.2247,-0.0163" />
      <path d="M 0.2215,-0.0176 A 0.0030000000000000027,5.973035055033429e-08 -3.1156113220371268e-24 0,0 0.2155,-0.0176" />
      <path d="M 0.2155,-0.0176 A 0.0030000000000000027,5.973035055033429e-08 -3.1156113220371268e-24 1,0 0.2215,-0.0176" />
      <line x1="0.2247" y1="-0.0163" x2="0.2257" y2="-0.0163" />
      <line x1="0.1853" y1="-0.0184" x2="0.2257" y2="-0.0184" />
      <line x1="0.1853" y1="-0.0163" x2="0.1873" y2="-0.0163" />
      <path d="M 0.2285,0.018 A 0.002,3.9820233700222834e-08 -3.901348164522844e-24 0,0 0.2265,0.018" />
      <line x1="0.2105" y1="0.018" x2="0.2265" y2="0.018" />
      <path d="M 0.2085,0.018 A 0.002,3.9820233700222834e-08 180.0 0,1 0.2105,0.018" />
      <path d="M 0.223,0.018 A 0.004500000000000004,8.959552582550142e-08 -3.1156113220371268e-24 0,0 0.214,0.018" />
      <path d="M 0.214,0.018 A 0.004500000000000004,8.959552582550142e-08 -3.1156113220371268e-24 0,0 0.223,0.018" />
      <path d="M 0.1906,-0.0084 A 0.0016,3.185618696017826e-08 -3.1156113220371268e-24 0,0 0.1874,-0.0084" />
      <path d="M 0.1874,-0.0084 A 0.0016,3.185618696017826e-08 -3.1156113220371268e-24 1,0 0.1906,-0.0084" />
      <path d="M 0.2076,-0.0084 A 0.0016000000000000044,3.185618696017835e-08 -3.1156113220371268e-24 0,0 0.2044,-0.0084" />
      <path d="M 0.2044,-0.0084 A 0.0016000000000000044,3.185618696017835e-08 -3.1156113220371268e-24 1,0 0.2076,-0.0084" />
      <path d="M 0.2246,-0.0084 A 0.0016,3.185618696017826e-08 -3.1156113220371268e-24 0,0 0.2214,-0.0084" />
      <path d="M 0.2214,-0.0084 A 0.0016,3.185618696017826e-08 -3.1156113220371268e-24 1,0 0.2246,-0.0084" />
      <path d="M 0.1906,-0.0084 A 0.0016,3.185618696017826e-08 -3.1156113220371268e-24 0,0 0.1874,-0.0084" />
      <path d="M 0.1874,-0.0084 A 0.0016,3.185618696017826e-08 -3.1156113220371268e-24 1,0 0.1906,-0.0084" />
      <path d="M 0.2076,-0.0084 A 0.0016000000000000044,3.185618696017835e-08 -3.1156113220371268e-24 0,0 0.2044,-0.0084" />
      <path d="M 0.2044,-0.0084 A 0.0016000000000000044,3.185618696017835e-08 -3.1156113220371268e-24 1,0 0.2076,-0.0084" />
      <path d="M 0.2246,-0.0084 A 0.0016,3.185618696017826e-08 -3.1156113220371268e-24 0,0 0.2214,-0.0084" />
      <path d="M 0.2214,-0.0084 A 0.0016,3.185618696017826e-08 -3.1156113220371268e-24 1,0 0.2246,-0.0084" />
      <path d="M 0.223,0.0195 A 0.004500000000000004,8.959552582550142e-08 -3.1156113220371268e-24 0,0 0.214,0.0195" />
      <line x1="0.2155" y1="-0.0176" x2="0.2155" y2="-0.0163" />
      <line x1="0.1874" y1="-0.0184" x2="0.1874" y2="-0.0084" />
      <line x1="0.2044" y1="-0.0184" x2="0.2044" y2="-0.0084" />
      <line x1="0.2214" y1="-0.0184" x2="0.2214" y2="-0.0084" />
      <line x1="0.1874" y1="-0.0184" x2="0.1874" y2="-0.0084" />
      <line x1="0.2044" y1="-0.0184" x2="0.2044" y2="-0.0084" />
      <line x1="0.2214" y1="-0.0184" x2="0.2214" y2="-0.0084" />
      <line x1="0.2285" y1="0.0163" x2="0.2285" y2="0.018" />
      <line x1="0.2265" y1="0.0163" x2="0.2265" y2="0.018" />
      <line x1="0.2105" y1="0.0163" x2="0.2105" y2="0.018" />
      <line x1="0.2085" y1="0.0163" x2="0.2085" y2="0.018" />
      <line x1="0.2473" y1="-0.0163" x2="0.2473" y2="0.0163" />
      <line x1="0.2473" y1="-0.0163" x2="0.2641" y2="-0.0163" />
      <line x1="0.2641" y1="0.0163" x2="0.2641" y2="-0.0163" />
      <line x1="0.2473" y1="0.0163" x2="0.2641" y2="0.0163" />
      <path d="M 0.2473,0.0163 A 0.004,7.964254933831555e-08 1.538184024739024e-39 0,0 0.2433,0.0163" />
      <path d="M 0.2473,-0.0163 A 0.004,7.964254933831555e-08 1.538184024739024e-39 0,0 0.243836,-0.0163" />
      <path d="M 0.243836,-0.0163 A 0.004,7.964254933831555e-08 1.538184024739024e-39 0,0 0.2433,-0.0163" />
      <path d="M 0.2641,-0.0163 A 0.004,7.964254933831555e-08 -180.0 0,1 0.267564,-0.0163" />
      <line x1="0.243836" y1="-0.0163" x2="0.2473" y2="-0.0163" />
      <line x1="0.2641" y1="-0.0163" x2="0.267564" y2="-0.0163" />
      <path d="M 0.2587,-0.0163 A 0.0030000000000000027,5.97319120037367e-08 1.5347302623733728e-39 0,0 0.2527,-0.0163" />
      <path d="M 0.2641,0.0163 A 0.004,7.964254933831555e-08 -180.0 0,1 0.2681,0.0163" />
      <path d="M 0.267564,-0.0163 A 0.004,7.964254933831555e-08 -180.0 0,1 0.2681,-0.0163" />
      <path d="M 0.2477,0.0163 A 0.002,3.982127466915777e-08 1.538184024739024e-39 0,0 0.2457,0.0163" />
      <path d="M 0.2477,0.0163 A 0.002,3.982127466915777e-08 -180.0 0,1 0.2473,0.0163" />
      <line x1="0.2477" y1="0.0163" x2="0.2637" y2="0.0163" />
      <path d="M 0.2637,0.0163 A 0.002,3.982127466915777e-08 1.538184024739024e-39 0,0 0.2641,0.0163" />
      <path d="M 0.2637,0.0163 A 0.002,3.982127466915777e-08 -180.0 0,1 0.2657,0.0163" />
      <line x1="0.2477" y1="0.0163" x2="0.2637" y2="0.0163" />
      <line x1="0.2433" y1="-0.0163" x2="0.243836" y2="-0.0163" />
      <line x1="0.2433" y1="-0.0184" x2="0.2433" y2="-0.0163" />
      <line x1="0.2473" y1="-0.0184" x2="0.2473" y2="-0.0163" />
      <line x1="0.2433" y1="-0.0184" x2="0.2473" y2="-0.0184" />
      <line x1="0.2641" y1="-0.0184" x2="0.2641" y2="-0.0163" />
      <line x1="0.267564" y1="-0.0163" x2="0.2681" y2="-0.0163" />
      <line x1="0.2681" y1="-0.0184" x2="0.2681" y2="-0.0163" />
      <line x1="0.2641" y1="-0.0184" x2="0.2681" y2="-0.0184" />
      <path d="M 0.243427,-0.0163 A 0.004,7.964254933831555e-08 -180.0 0,1 0.2433,-0.0163" />
      <path d="M 0.267973,-0.0163 A 0.004,7.964254933831555e-08 1.538184024739024e-39 0,0 0.2681,-0.0163" />
      <line x1="0.2457" y1="0.0163" x2="0.2457" y2="0.018" />
      <path d="M 0.2477,0.018 A 0.002,3.982127466915777e-08 1.538184024739024e-39 0,0 0.2457,0.018" />
      <line x1="0.2657" y1="0.0163" x2="0.2657" y2="0.018" />
      <path d="M 0.2637,0.018 A 0.002,3.982127466915777e-08 -180.0 0,1 0.2657,0.018" />
      <line x1="0.2477" y1="0.018" x2="0.2637" y2="0.018" />
      <path d="M 0.2557,0.018 A 0.0045,8.959786800560498e-08 1.5347302623733728e-39 0,0 0.2602,0.018" />
      <path d="M 0.2602,0.018 A 0.004500000000000004,8.959786800560506e-08 1.5347302623733728e-39 0,0 0.2512,0.018" />
      <path d="M 0.2512,0.018 A 0.0045,8.959786800560498e-08 1.5347302623733728e-39 0,0 0.2557,0.018" />
      <path d="M 0.24545,-0.0084 A 0.0016,3.185701973532622e-08 1.5347302623733728e-39 0,0 0.24705,-0.0084" />
      <path d="M 0.24705,-0.0084 A 0.0016,3.185701973532622e-08 1.5347302623733728e-39 0,0 0.24385,-0.0084" />
      <path d="M 0.24385,-0.0084 A 0.0016,3.185701973532622e-08 1.5347302623733728e-39 0,0 0.24545,-0.0084" />
      <path d="M 0.24545,-0.0084 A 0.0016,3.185701973532622e-08 1.5347302623733728e-39 0,0 0.24705,-0.0084" />
      <path d="M 0.24705,-0.0084 A 0.0016,3.185701973532622e-08 1.5347302623733728e-39 0,0 0.24385,-0.0084" />
      <path d="M 0.24385,-0.0084 A 0.0016,3.185701973532622e-08 1.5347302623733728e-39 0,0 0.24545,-0.0084" />
      <path d="M 0.24545,-0.0084 A 0.0016,3.185701973532622e-08 1.5347302623733728e-39 0,0 0.24705,-0.0084" />
      <path d="M 0.24705,-0.0084 A 0.0016,3.185701973532622e-08 1.5347302623733728e-39 0,0 0.24385,-0.0084" />
      <path d="M 0.24385,-0.0084 A 0.0016,3.185701973532622e-08 1.5347302623733728e-39 0,0 0.24545,-0.0084" />
      <path d="M 0.26595,-0.0084 A 0.0016,3.185701973532622e-08 1.5347302623733728e-39 0,0 0.26755,-0.0084" />
      <path d="M 0.26755,-0.0084 A 0.0016000000000000179,3.185701973532657e-08 1.5347302623733728e-39 0,0 0.26435,-0.0084" />
      <path d="M 0.26435,-0.0084 A 0.0016,3.185701973532622e-08 1.5347302623733728e-39 0,0 0.26595,-0.0084" />
      <path d="M 0.26595,-0.0084 A 0.0016,3.185701973532622e-08 1.5347302623733728e-39 0,0 0.26755,-0.0084" />
      <path d="M 0.26755,-0.0084 A 0.0016000000000000179,3.185701973532657e-08 1.5347302623733728e-39 0,0 0.26435,-0.0084" />
      <path d="M 0.26435,-0.0084 A 0.0016,3.185701973532622e-08 1.5347302623733728e-39 0,0 0.26595,-0.0084" />
      <path d="M 0.26595,-0.0084 A 0.0016,3.185701973532622e-08 1.5347302623733728e-39 0,0 0.26755,-0.0084" />
      <path d="M 0.26755,-0.0084 A 0.0016000000000000179,3.185701973532657e-08 1.5347302623733728e-39 0,0 0.26435,-0.0084" />
      <path d="M 0.26435,-0.0084 A 0.0016,3.185701973532622e-08 1.5347302623733728e-39 0,0 0.26595,-0.0084" />
      <path d="M 0.2602,0.0195 A 0.004500000000000004,8.959786800560506e-08 1.5347302623733728e-39 0,0 0.2512,0.0195" />
      <line x1="0.24705" y1="-0.0184" x2="0.24705" y2="-0.0084" />
      <line x1="0.24385" y1="-0.0184" x2="0.24385" y2="-0.0084" />
      <line x1="0.24705" y1="-0.0184" x2="0.24705" y2="-0.0084" />
      <line x1="0.24385" y1="-0.0184" x2="0.24385" y2="-0.0084" />
      <line x1="0.24705" y1="-0.0184" x2="0.24705" y2="-0.0084" />
      <line x1="0.24385" y1="-0.0184" x2="0.24385" y2="-0.0084" />
      <line x1="0.26755" y1="-0.0184" x2="0.26755" y2="-0.0084" />
      <line x1="0.26435" y1="-0.0184" x2="0.26435" y2="-0.0084" />
      <line x1="0.26755" y1="-0.0184" x2="0.26755" y2="-0.0084" />
      <line x1="0.26435" y1="-0.0184" x2="0.26435" y2="-0.0084" />
      <line x1="0.26755" y1="-0.0184" x2="0.26755" y2="-0.0084" />
      <line x1="0.26435" y1="-0.0184" x2="0.26435" y2="-0.0084" />
      <line x1="0.2477" y1="0.0163" x2="0.2477" y2="0.018" />
      <line x1="0.2637" y1="0.0163" x2="0.2637" y2="0.018" />
    </g>
    <g fill="none" stroke="rgb(50,120,190)" stroke-width="0.00035" id="bracket">
      <line x1="0.0" y1="0.0157" x2="0.052" y2="0.0157" />
      <line x1="0.052" y1="0.0157" x2="0.052" y2="-0.0157" />
      <line x1="0.0" y1="-0.0157" x2="0.052" y2="-0.0157" />
      <line x1="0.0" y1="0.0157" x2="0.0" y2="-0.0157" />
      <line x1="0.003" y1="-0.0127" x2="0.049" y2="-0.0127" />
      <line x1="0.049" y1="0.0127" x2="0.049" y2="-0.0127" />
      <line x1="0.003" y1="0.0127" x2="0.049" y2="0.0127" />
      <line x1="0.003" y1="0.0127" x2="0.003" y2="-0.0127" />
      <line x1="0.06" y1="0.0157" x2="0.112" y2="0.0157" />
      <line x1="0.112" y1="0.0157" x2="0.112" y2="-0.0157" />
      <line x1="0.06" y1="-0.0157" x2="0.112" y2="-0.0157" />
      <line x1="0.06" y1="0.0157" x2="0.06" y2="-0.0157" />
      <line x1="0.063" y1="-0.0127" x2="0.109" y2="-0.0127" />
      <line x1="0.109" y1="0.0127" x2="0.109" y2="-0.0127" />
      <line x1="0.063" y1="0.0127" x2="0.109" y2="0.0127" />
      <line x1="0.063" y1="0.0127" x2="0.063" y2="-0.0127" />
      <line x1="0.12" y1="0.0157" x2="0.172" y2="0.0157" />
      <line x1="0.172" y1="0.0157" x2="0.172" y2="-0.0157" />
      <line x1="0.12" y1="-0.0157" x2="0.172" y2="-0.0157" />
      <line x1="0.12" y1="0.0157" x2="0.12" y2="-0.0157" />
      <circle cx="0.129" cy="-0.01025" r="0.0016" />
      <circle cx="0.146" cy="-0.01025" r="0.0016" />
      <circle cx="0.163" cy="-0.01025" r="0.0016" />
      <circle cx="0.129" cy="0.01025" r="0.0016" />
      <circle cx="0.146" cy="0.01025" r="0.0016" />
      <circle cx="0.163" cy="0.01025" r="0.0016" />
      <line x1="0.18" y1="-0.021959" x2="0.18" y2="0.019291" />
      <line x1="0.18" y1="0.019291" x2="0.18" y2="0.019309" />
      <line x1="0.18" y1="-0.021959" x2="0.232" y2="-0.021959" />
      <line x1="0.232" y1="-0.021959" x2="0.232" y2="0.019291" />
      <line x1="0.18" y1="0.019291" x2="0.232" y2="0.019291" />
      <line x1="0.18" y1="0.019309" x2="0.232" y2="0.019309" />
      <line x1="0.232" y1="0.019291" x2="0.232" y2="0.019309" />
      <line x1="0.229" y1="0.019293" x2="0.183" y2="0.019293" />
      <line x1="0.229" y1="0.019293" x2="0.229" y2="0.019307" />
      <line x1="0.229" y1="0.019307" x2="0.183" y2="0.019307" />
      <line x1="0.183" y1="0.019293" x2="0.183" y2="0.019307" />
      <line x1="0.229" y1="0.019293" x2="0.229" y2="0.019307" />
      <line x1="0.24" y1="0.019314" x2="0.2714" y2="0.019314" />
      <line x1="0.24" y1="-0.021964" x2="0.24" y2="0.019286" />
      <line x1="0.24" y1="0.019314" x2="0.24" y2="0.019286" />
      <line x1="0.2714" y1="0.019314" x2="0.2714" y2="0.019286" />
      <line x1="0.24" y1="0.019286" x2="0.2714" y2="0.019286" />
      <line x1="0.243" y1="0.019287" x2="0.243" y2="0.019313" />
      <line x1="0.243" y1="0.019287" x2="0.2684" y2="0.019287" />
      <line x1="0.2684" y1="0.019287" x2="0.2684" y2="0.019313" />
      <line x1="0.243" y1="0.019313" x2="0.2684" y2="0.019313" />
      <line x1="0.2714" y1="-0.021964" x2="0.2714" y2="0.019286" />
      <line x1="0.24" y1="-0.021964" x2="0.2714" y2="-0.021964" />
      <line x1="0.243" y1="0.019287" x2="0.243" y2="0.019313" />
      <line x1="0.2684" y1="0.019287" x2="0.2684" y2="0.019313" />
    </g>
    <g fill="url(#hatch_bracket)" stroke="none" stroke-width="0" id="bracket_fill">
      <path d="M 0.052,0.0157 L 0.0,0.0157 L 0.0,-0.0157 L 0.052,-0.0157 L 0.052,0.0157 M 0.049,-0.0127 L 0.003,-0.0127 L 0.003,0.0127 L 0.049,0.0127 L 0.049,-0.0127" />
      <path d="M 0.112,0.0157 L 0.06,0.0157 L 0.06,-0.0157 L 0.112,-0.0157 L 0.112,0.0157 M 0.109,-0.0127 L 0.063,-0.0127 L 0.063,0.0127 L 0.109,0.0127 L 0.109,-0.0127" />
      <path d="M 0.172,0.0157 L 0.12,0.0157 L 0.12,-0.0157 L 0.172,-0.0157 L 0.172,0.0157 M 0.1306,-0.01025 A 0.0016,0.0016 0.0 0,0 0.1274,-0.01025 A 0.0016,0.0016 0.0 0,0 0.1306,-0.01025 M 0.1476,-0.01025 A 0.0016000000000000044,0.0016000000000000044 0.0 0,0 0.1444,-0.01025 A 0.0016000000000000044,0.0016000000000000044 0.0 0,0 0.1476,-0.01025 M 0.1646,-0.01025 A 0.0016000000000000044,0.0016000000000000044 0.0 0,0 0.1614,-0.01025 A 0.0016000000000000044,0.0016000000000000044 0.0 0,0 0.1646,-0.01025 M 0.1306,0.01025 A 0.0016,0.0016 0.0 0,0 0.1274,0.01025 A 0.0016,0.0016 0.0 0,0 0.1306,0.01025 M 0.1476,0.01025 A 0.0016000000000000044,0.0016000000000000044 0.0 0,0 0.1444,0.01025 A 0.0016000000000000044,0.0016000000000000044 0.0 0,0 0.1476,0.01025 M 0.1646,0.01025 A 0.0016000000000000044,0.0016000000000000044 0.0 0,0 0.1614,0.01025 A 0.0016000000000000044,0.0016000000000000044 0.0 0,0 0.1646,0.01025" />
    </g>
    <g fill="none" stroke="rgb(50,120,190)" stroke-opacity="0.4" stroke-width="0.00015" id="bracket_hidden" stroke-dasharray="0.0018 0.00045">
      <line x1="0.18" y1="-0.021941" x2="0.18" y2="0.019309" />
      <line x1="0.18" y1="-0.021959" x2="0.18" y2="-0.021941" />
      <line x1="0.18" y1="-0.021941" x2="0.232" y2="-0.021941" />
      <line x1="0.232" y1="-0.021941" x2="0.232" y2="0.019309" />
      <line x1="0.232" y1="-0.021959" x2="0.232" y2="-0.021941" />
      <path d="M 0.1906,-0.021956 A 0.0016,8.728179711111575e-07 2.59667551648653e-24 0,1 0.1874,-0.021956" />
      <path d="M 0.1874,-0.021956 A 0.0016,8.728179711111575e-07 2.59667551648653e-24 1,1 0.1906,-0.021956" />
      <line x1="0.203" y1="-0.021952" x2="0.193" y2="-0.021952" />
      <line x1="0.203" y1="-0.021952" x2="0.203" y2="-0.021948" />
      <line x1="0.203" y1="-0.021948" x2="0.193" y2="-0.021948" />
      <line x1="0.193" y1="-0.021952" x2="0.193" y2="-0.021948" />
      <path d="M 0.2076,-0.021956 A 0.0016000000000000044,8.728179711111598e-07 2.59667551648653e-24 0,1 0.2044,-0.021956" />
      <path d="M 0.2044,-0.021956 A 0.0016000000000000044,8.728179711111598e-07 2.59667551648653e-24 1,1 0.2076,-0.021956" />
      <path d="M 0.2246,-0.021956 A 0.0016,8.728179711111575e-07 2.59667551648653e-24 0,1 0.2214,-0.021956" />
      <path d="M 0.2214,-0.021956 A 0.0016,8.728179711111575e-07 2.59667551648653e-24 1,1 0.2246,-0.021956" />
      <path d="M 0.1906,-0.021944 A 0.0016,8.728179711111575e-07 2.59667551648653e-24 0,1 0.1874,-0.021944" />
      <path d="M 0.1874,-0.021944 A 0.0016,8.728179711111575e-07 2.59667551648653e-24 1,1 0.1906,-0.021944" />
      <path d="M 0.2076,-0.021944 A 0.0016000000000000044,8.728179711111598e-07 2.59667551648653e-24 0,1 0.2044,-0.021944" />
      <path d="M 0.2044,-0.021944 A 0.0016000000000000044,8.728179711111598e-07 2.59667551648653e-24 1,1 0.2076,-0.021944" />
      <path d="M 0.2246,-0.021944 A 0.0016,8.728179711111575e-07 2.59667551648653e-24 0,1 0.2214,-0.021944" />
      <path d="M 0.2214,-0.021944 A 0.0016,8.728179711111575e-07 2.59667551648653e-24 1,1 0.2246,-0.021944" />
      <line x1="0.229" y1="-0.016607" x2="0.229" y2="0.019293" />
      <line x1="0.183" y1="-0.016607" x2="0.183" y2="0.019293" />
      <line x1="0.183" y1="-0.016607" x2="0.229" y2="-0.016607" />
      <line x1="0.229" y1="-0.016593" x2="0.229" y2="0.019293" />
      <line x1="0.229" y1="-0.016607" x2="0.229" y2="-0.016593" />
      <line x1="0.183" y1="-0.016593" x2="0.183" y2="0.019307" />
      <line x1="0.183" y1="-0.016593" x2="0.229" y2="-0.016593" />
      <line x1="0.183" y1="-0.016607" x2="0.183" y2="-0.016593" />
      <path d="M 0.1906,-0.016606 A 0.0016,8.728179711111575e-07 2.59667551648653e-24 0,1 0.1874,-0.016606" />
      <path d="M 0.1874,-0.016606 A 0.0016,8.728179711111575e-07 2.59667551648653e-24 1,1 0.1906,-0.016606" />
      <line x1="0.1906" y1="-0.021956" x2="0.1906" y2="-0.016606" />
      <line x1="0.203" y1="-0.021952" x2="0.203" y2="-0.017652" />
      <line x1="0.193" y1="-0.017652" x2="0.203" y2="-0.017652" />
      <line x1="0.193" y1="-0.021952" x2="0.193" y2="-0.017652" />
      <line x1="0.203" y1="-0.017652" x2="0.203" y2="-0.017648" />
      <line x1="0.203" y1="-0.021948" x2="0.203" y2="-0.017648" />
      <line x1="0.193" y1="-0.017648" x2="0.203" y2="-0.017648" />
      <line x1="0.193" y1="-0.021948" x2="0.193" y2="-0.017648" />
      <line x1="0.193" y1="-0.017652" x2="0.193" y2="-0.017648" />
      <path d="M 0.2076,-0.016606 A 0.0016000000000000044,8.728179711111598e-07 2.59667551648653e-24 0,1 0.2044,-0.016606" />
      <path d="M 0.2044,-0.016606 A 0.0016000000000000044,8.728179711111598e-07 2.59667551648653e-24 1,1 0.2076,-0.016606" />
      <line x1="0.2076" y1="-0.021956" x2="0.2076" y2="-0.016606" />
      <path d="M 0.2246,-0.016606 A 0.0016,8.728179711111575e-07 2.59667551648653e-24 0,1 0.2214,-0.016606" />
      <path d="M 0.2214,-0.016606 A 0.0016,8.728179711111575e-07 2.59667551648653e-24 1,1 0.2246,-0.016606" />
      <line x1="0.2246" y1="-0.021956" x2="0.2246" y2="-0.016606" />
      <path d="M 0.1906,-0.016594 A 0.0016,8.728179711111575e-07 2.59667551648653e-24 0,1 0.1874,-0.016594" />
      <path d="M 0.1874,-0.016594 A 0.0016,8.728179711111575e-07 2.59667551648653e-24 1,1 0.1906,-0.016594" />
      <line x1="0.1906" y1="-0.021944" x2="0.1906" y2="-0.016594" />
      <path d="M 0.2076,-0.016594 A 0.0016000000000000044,8.728179711111598e-07 2.59667551648653e-24 0,1 0.2044,-0.016594" />
      <path d="M 0.2044,-0.016594 A 0.0016000000000000044,8.728179711111598e-07 2.59667551648653e-24 1,1 0.2076,-0.016594" />
      <line x1="0.2076" y1="-0.021944" x2="0.2076" y2="-0.016594" />
      <path d="M 0.2246,-0.016594 A 0.0016,8.728179711111575e-07 2.59667551648653e-24 0,1 0.2214,-0.016594" />
      <path d="M 0.2214,-0.016594 A 0.0016,8.728179711111575e-07 2.59667551648653e-24 1,1 0.2246,-0.016594" />
      <line x1="0.2246" y1="-0.021944" x2="0.2246" y2="-0.016594" />
      <line x1="0.1874" y1="-0.021956" x2="0.1874" y2="-0.016606" />
      <line x1="0.2044" y1="-0.021956" x2="0.2044" y2="-0.016606" />
      <line x1="0.2214" y1="-0.021956" x2="0.2214" y2="-0.016606" />
      <line x1="0.1874" y1="-0.021944" x2="0.1874" y2="-0.016594" />
      <line x1="0.2044" y1="-0.021944" x2="0.2044" y2="-0.016594" />
      <line x1="0.2214" y1="-0.021944" x2="0.2214" y2="-0.016594" />
      <line x1="0.24" y1="-0.021936" x2="0.24" y2="0.019314" />
      <line x1="0.2714" y1="-0.021936" x2="0.2714" y2="0.019314" />
      <line x1="0.24" y1="-0.021936" x2="0.2714" y2="-0.021936" />
      <line x1="0.24" y1="-0.021936" x2="0.24" y2="-0.021964" />
      <line x1="0.2714" y1="-0.021936" x2="0.2714" y2="-0.021964" />
      <path d="M 0.24545,-0.021942 A 0.0016,8.728252086594809e-07 1.4684246871168775e-37 0,1 0.24705,-0.021941" />
      <path d="M 0.24705,-0.021941 A 0.0016,8.728252086594809e-07 1.4684246871168775e-37 0,1 0.24385,-0.021941" />
      <path d="M 0.24385,-0.021941 A 0.0016,8.728252086594809e-07 1.4684246871168775e-37 0,1 0.24545,-0.021942" />
      <line x1="0.2527" y1="-0.021948" x2="0.2527" y2="-0.021943" />
      <line x1="0.2527" y1="-0.021948" x2="0.2587" y2="-0.021948" />
      <line x1="0.2587" y1="-0.021948" x2="0.2587" y2="-0.021943" />
      <line x1="0.2527" y1="-0.021943" x2="0.2587" y2="-0.021943" />
      <path d="M 0.24545,-0.021951 A 0.0016,8.728252086594809e-07 1.4684246871168775e-37 0,1 0.24705,-0.02195" />
      <path d="M 0.24705,-0.02195 A 0.0016,8.728252086594809e-07 1.4684246871168775e-37 0,1 0.24385,-0.02195" />
      <path d="M 0.24385,-0.02195 A 0.0016,8.728252086594809e-07 1.4684246871168775e-37 0,1 0.24545,-0.021951" />
      <path d="M 0.24545,-0.02196 A 0.0016,8.728252086594809e-07 1.4684246871168775e-37 0,1 0.24705,-0.021959" />
      <path d="M 0.24705,-0.021959 A 0.0016,8.728252086594809e-07 1.4684246871168775e-37 0,1 0.24385,-0.021959" />
      <path d="M 0.24385,-0.021959 A 0.0016,8.728252086594809e-07 1.4684246871168775e-37 0,1 0.24545,-0.02196" />
      <path d="M 0.26595,-0.021942 A 0.0016,8.728252086594809e-07 1.4684246871168775e-37 0,1 0.26755,-0.021941" />
      <path d="M 0.26755,-0.021941 A 0.0016000000000000179,8.728252086594906e-07 1.4684246871168775e-37 0,1 0.26435,-0.021941" />
      <path d="M 0.26435,-0.021941 A 0.0016,8.728252086594809e-07 1.4684246871168775e-37 0,1 0.26595,-0.021942" />
      <path d="M 0.26595,-0.021951 A 0.0016,8.728252086594809e-07 1.4684246871168775e-37 0,1 0.26755,-0.02195" />
      <path d="M 0.26755,-0.02195 A 0.0016000000000000179,8.728252086594906e-07 1.4684246871168775e-37 0,1 0.26435,-0.02195" />
      <path d="M 0.26435,-0.02195 A 0.0016,8.728252086594809e-07 1.4684246871168775e-37 0,1 0.26595,-0.021951" />
      <path d="M 0.26595,-0.02196 A 0.0016,8.728252086594809e-07 1.4684246871168775e-37 0,1 0.26755,-0.021959" />
      <path d="M 0.26755,-0.021959 A 0.0016000000000000179,8.728252086594906e-07 1.4684246871168775e-37 0,1 0.26435,-0.021959" />
      <path d="M 0.26435,-0.021959 A 0.0016,8.728252086594809e-07 1.4684246871168775e-37 0,1 0.26595,-0.02196" />
      <line x1="0.243" y1="-0.016612" x2="0.243" y2="0.019287" />
      <line x1="0.243" y1="-0.016587" x2="0.243" y2="0.019287" />
      <line x1="0.243" y1="-0.016587" x2="0.243" y2="-0.016612" />
      <line x1="0.2684" y1="-0.016612" x2="0.2684" y2="0.019287" />
      <line x1="0.243" y1="-0.016612" x2="0.2684" y2="-0.016612" />
      <line x1="0.2684" y1="-0.016587" x2="0.2684" y2="0.019287" />
      <line x1="0.2684" y1="-0.016587" x2="0.2684" y2="-0.016612" />
      <line x1="0.243" y1="-0.016587" x2="0.2684" y2="-0.016587" />
      <path d="M 0.24545,-0.016592 A 0.0016,8.728252086594809e-07 1.4684246871168775e-37 0,1 0.24705,-0.016591" />
      <path d="M 0.24705,-0.016591 A 0.0016,8.728252086594809e-07 1.4684246871168775e-37 0,1 0.24385,-0.016591" />
      <path d="M 0.24385,-0.016591 A 0.0016,8.728252086594809e-07 1.4684246871168775e-37 0,1 0.24545,-0.016592" />
      <line x1="0.2527" y1="-0.021948" x2="0.2527" y2="-0.017648" />
      <line x1="0.2527" y1="-0.017643" x2="0.2527" y2="-0.017648" />
      <line x1="0.2527" y1="-0.021943" x2="0.2527" y2="-0.017643" />
      <line x1="0.2527" y1="-0.017648" x2="0.2587" y2="-0.017648" />
      <line x1="0.2587" y1="-0.021948" x2="0.2587" y2="-0.017648" />
      <line x1="0.2587" y1="-0.017643" x2="0.2587" y2="-0.017648" />
      <line x1="0.2587" y1="-0.021943" x2="0.2587" y2="-0.017643" />
      <line x1="0.2527" y1="-0.017643" x2="0.2587" y2="-0.017643" />
      <path d="M 0.24545,-0.016601 A 0.0016,8.728252086594809e-07 1.4684246871168775e-37 0,1 0.24705,-0.0166" />
      <path d="M 0.24705,-0.0166 A 0.0016,8.728252086594809e-07 1.4684246871168775e-37 0,1 0.24385,-0.0166" />
      <path d="M 0.24385,-0.0166 A 0.0016,8.728252086594809e-07 1.4684246871168775e-37 0,1 0.24545,-0.016601" />
      <path d="M 0.24545,-0.01661 A 0.0016,8.728252086594809e-07 1.4684246871168775e-37 0,1 0.24705,-0.016609" />
      <path d="M 0.24705,-0.016609 A 0.0016,8.728252086594809e-07 1.4684246871168775e-37 0,1 0.24385,-0.016609" />
      <path d="M 0.24385,-0.016609 A 0.0016,8.728252086594809e-07 1.4684246871168775e-37 0,1 0.24545,-0.01661" />
      <path d="M 0.26595,-0.016592 A 0.0016,8.728252086594809e-07 1.4684246871168775e-37 0,1 0.26755,-0.016591" />
      <path d="M 0.26755,-0.016591 A 0.0016000000000000179,8.728252086594906e-07 1.4684246871168775e-37 0,1 0.26435,-0.016591" />
      <path d="M 0.26435,-0.016591 A 0.0016,8.728252086594809e-07 1.4684246871168775e-37 0,1 0.26595,-0.016592" />
      <path d="M 0.26595,-0.016601 A 0.0016,8.728252086594809e-07 1.4684246871168775e-37 0,1 0.26755,-0.0166" />
      <path d="M 0.26755,-0.0166 A 0.0016000000000000179,8.728252086594906e-07 1.4684246871168775e-37 0,1 0.26435,-0.0166" />
      <path d="M 0.26435,-0.0166 A 0.0016,8.728252086594809e-07 1.4684246871168775e-37 0,1 0.26595,-0.016601" />
      <path d="M 0.26595,-0.01661 A 0.0016,8.728252086594809e-07 1.4684246871168775e-37 0,1 0.26755,-0.016609" />
      <path d="M 0.26755,-0.016609 A 0.0016000000000000179,8.728252086594906e-07 1.4684246871168775e-37 0,1 0.26435,-0.016609" />
      <path d="M 0.26435,-0.016609 A 0.0016,8.728252086594809e-07 1.4684246871168775e-37 0,1 0.26595,-0.01661" />
      <line x1="0.24705" y1="-0.021941" x2="0.24705" y2="-0.016591" />
      <line x1="0.24385" y1="-0.021941" x2="0.24385" y2="-0.016591" />
      <line x1="0.24705" y1="-0.02195" x2="0.24705" y2="-0.0166" />
      <line x1="0.24385" y1="-0.02195" x2="0.24385" y2="-0.0166" />
      <line x1="0.24705" y1="-0.021959" x2="0.24705" y2="-0.016609" />
      <line x1="0.24385" y1="-0.021959" x2="0.24385" y2="-0.016609" />
      <line x1="0.26755" y1="-0.021941" x2="0.26755" y2="-0.016591" />
      <line x1="0.26435" y1="-0.021941" x2="0.26435" y2="-0.016591" />
      <line x1="0.26755" y1="-0.02195" x2="0.26755" y2="-0.0166" />
      <line x1="0.26435" y1="-0.02195" x2="0.26435" y2="-0.0166" />
      <line x1="0.26755" y1="-0.021959" x2="0.26755" y2="-0.016609" />
      <line x1="0.26435" y1="-0.021959" x2="0.26435" y2="-0.016609" />
    </g>
  </g>
  <text x="0.026000" y="-0.025175" text-anchor="middle" font-family="'Input Sans Narrow', 'DejaVu Sans', Arial, sans-serif" font-size="0.002500" font-weight="bold" fill="#333">A-A</text>
  <text x="0.026000" y="-0.021675" text-anchor="middle" font-family="'Input Sans Narrow', 'DejaVu Sans', Arial, sans-serif" font-size="0.001800" fill="#888">top_shaft</text>
  <line x1="0.000000" y1="0.016500" x2="0.000000" y2="0.019500" stroke="#5C7080" stroke-width="0.000140" stroke-opacity="0.5"/>
  <line x1="0.052000" y1="0.016500" x2="0.052000" y2="0.019500" stroke="#5C7080" stroke-width="0.000140" stroke-opacity="0.5"/>
  <line x1="0.000000" y1="0.017900" x2="0.000000" y2="0.019500" stroke="#5C7080" stroke-width="0.000200"/>
  <line x1="0.052000" y1="0.017900" x2="0.052000" y2="0.019500" stroke="#5C7080" stroke-width="0.000200"/>
  <line x1="0.000000" y1="0.018700" x2="0.052000" y2="0.018700" stroke="#5C7080" stroke-width="0.000200"/>
  <polygon points="0.000000,0.018700 0.001500,0.018100 0.001500,0.019300" fill="#5C7080"/>
  <polygon points="0.052000,0.018700 0.050500,0.018100 0.050500,0.019300" fill="#5C7080"/>
  <text x="0.026000" y="0.017500" text-anchor="middle" font-family="'Input Sans Narrow', 'DejaVu Sans', Arial, sans-serif" font-size="0.001600" fill="#5C7080">52.0</text>
  <line x1="0.052800" y1="-0.015700" x2="0.055800" y2="-0.015700" stroke="#5C7080" stroke-width="0.000140" stroke-opacity="0.5"/>
  <line x1="0.052800" y1="0.015700" x2="0.055800" y2="0.015700" stroke="#5C7080" stroke-width="0.000140" stroke-opacity="0.5"/>
  <line x1="0.054200" y1="-0.015700" x2="0.055800" y2="-0.015700" stroke="#5C7080" stroke-width="0.000200"/>
  <line x1="0.054200" y1="0.015700" x2="0.055800" y2="0.015700" stroke="#5C7080" stroke-width="0.000200"/>
  <line x1="0.055000" y1="-0.015700" x2="0.055000" y2="0.015700" stroke="#5C7080" stroke-width="0.000200"/>
  <polygon points="0.055000,-0.015700 0.054400,-0.014200 0.055600,-0.014200" fill="#5C7080"/>
  <polygon points="0.055000,0.015700 0.054400,0.014200 0.055600,0.014200" fill="#5C7080"/>
  <text x="0.056500" y="0.000000" text-anchor="middle" dominant-baseline="central" font-family="'Input Sans Narrow', 'DejaVu Sans', Arial, sans-serif" font-size="0.001600" fill="#5C7080" transform="rotate(-90 0.056500 0.000000)">31.4</text>
  <text x="0.086000" y="-0.025175" text-anchor="middle" font-family="'Input Sans Narrow', 'DejaVu Sans', Arial, sans-serif" font-size="0.002500" font-weight="bold" fill="#333">B-B</text>
  <text x="0.086000" y="-0.021675" text-anchor="middle" font-family="'Input Sans Narrow', 'DejaVu Sans', Arial, sans-serif" font-size="0.001800" fill="#888">mid_body</text>
  <text x="0.146000" y="-0.025175" text-anchor="middle" font-family="'Input Sans Narrow', 'DejaVu Sans', Arial, sans-serif" font-size="0.002500" font-weight="bold" fill="#333">C-C</text>
  <text x="0.146000" y="-0.021675" text-anchor="middle" font-family="'Input Sans Narrow', 'DejaVu Sans', Arial, sans-serif" font-size="0.001800" fill="#888">ears</text>
  <text x="0.206000" y="-0.025175" text-anchor="middle" font-family="'Input Sans Narrow', 'DejaVu Sans', Arial, sans-serif" font-size="0.002500" font-weight="bold" fill="#333">side_XZ</text>
  <line x1="0.180000" y1="0.022759" x2="0.180000" y2="0.025759" stroke="#5C7080" stroke-width="0.000140" stroke-opacity="0.5"/>
  <line x1="0.232000" y1="0.022759" x2="0.232000" y2="0.025759" stroke="#5C7080" stroke-width="0.000140" stroke-opacity="0.5"/>
  <line x1="0.180000" y1="0.024159" x2="0.180000" y2="0.025759" stroke="#5C7080" stroke-width="0.000200"/>
  <line x1="0.232000" y1="0.024159" x2="0.232000" y2="0.025759" stroke="#5C7080" stroke-width="0.000200"/>
  <line x1="0.180000" y1="0.024959" x2="0.232000" y2="0.024959" stroke="#5C7080" stroke-width="0.000200"/>
  <polygon points="0.180000,0.024959 0.181500,0.024359 0.181500,0.025559" fill="#5C7080"/>
  <polygon points="0.232000,0.024959 0.230500,0.024359 0.230500,0.025559" fill="#5C7080"/>
  <text x="0.206000" y="0.023759" text-anchor="middle" font-family="'Input Sans Narrow', 'DejaVu Sans', Arial, sans-serif" font-size="0.001600" fill="#5C7080">52.0</text>
  <line x1="0.232800" y1="-0.019500" x2="0.235800" y2="-0.019500" stroke="#5C7080" stroke-width="0.000140" stroke-opacity="0.5"/>
  <line x1="0.232800" y1="0.021959" x2="0.235800" y2="0.021959" stroke="#5C7080" stroke-width="0.000140" stroke-opacity="0.5"/>
  <line x1="0.234200" y1="-0.019500" x2="0.235800" y2="-0.019500" stroke="#5C7080" stroke-width="0.000200"/>
  <line x1="0.234200" y1="0.021959" x2="0.235800" y2="0.021959" stroke="#5C7080" stroke-width="0.000200"/>
  <line x1="0.235000" y1="-0.019500" x2="0.235000" y2="0.021959" stroke="#5C7080" stroke-width="0.000200"/>
  <polygon points="0.235000,-0.019500 0.234400,-0.018000 0.235600,-0.018000" fill="#5C7080"/>
  <polygon points="0.235000,0.021959 0.234400,0.020459 0.235600,0.020459" fill="#5C7080"/>
  <text x="0.236500" y="0.001229" text-anchor="middle" dominant-baseline="central" font-family="'Input Sans Narrow', 'DejaVu Sans', Arial, sans-serif" font-size="0.001600" fill="#5C7080" transform="rotate(-90 0.236500 0.001229)">41.5</text>
  <line x1="0.177000" y1="-0.016300" x2="0.235000" y2="-0.016300" stroke="#555" stroke-width="0.000250" stroke-dasharray="0.002500,0.000800,0.000500,0.000800"/>
  <text x="0.175500" y="-0.015700" text-anchor="end" font-family="'Input Sans Narrow', 'DejaVu Sans', Arial, sans-serif" font-size="0.002000" font-weight="bold" fill="#555">A</text>
  <text x="0.236500" y="-0.015700" text-anchor="start" font-family="'Input Sans Narrow', 'DejaVu Sans', Arial, sans-serif" font-size="0.002000" font-weight="bold" fill="#555">A</text>
  <line x1="0.177000" y1="-0.000000" x2="0.235000" y2="-0.000000" stroke="#555" stroke-width="0.000250" stroke-dasharray="0.002500,0.000800,0.000500,0.000800"/>
  <text x="0.175500" y="0.000600" text-anchor="end" font-family="'Input Sans Narrow', 'DejaVu Sans', Arial, sans-serif" font-size="0.002000" font-weight="bold" fill="#555">B</text>
  <text x="0.236500" y="0.000600" text-anchor="start" font-family="'Input Sans Narrow', 'DejaVu Sans', Arial, sans-serif" font-size="0.002000" font-weight="bold" fill="#555">B</text>
  <line x1="0.177000" y1="0.017350" x2="0.235000" y2="0.017350" stroke="#555" stroke-width="0.000250" stroke-dasharray="0.002500,0.000800,0.000500,0.000800"/>
  <text x="0.175500" y="0.017950" text-anchor="end" font-family="'Input Sans Narrow', 'DejaVu Sans', Arial, sans-serif" font-size="0.002000" font-weight="bold" fill="#555">C</text>
  <text x="0.236500" y="0.017950" text-anchor="start" font-family="'Input Sans Narrow', 'DejaVu Sans', Arial, sans-serif" font-size="0.002000" font-weight="bold" fill="#555">C</text>
  <text x="0.255700" y="-0.025175" text-anchor="middle" font-family="'Input Sans Narrow', 'DejaVu Sans', Arial, sans-serif" font-size="0.002500" font-weight="bold" fill="#333">side_YZ</text>
  <line x1="0.240000" y1="0.022764" x2="0.240000" y2="0.025764" stroke="#5C7080" stroke-width="0.000140" stroke-opacity="0.5"/>
  <line x1="0.271400" y1="0.022764" x2="0.271400" y2="0.025764" stroke="#5C7080" stroke-width="0.000140" stroke-opacity="0.5"/>
  <line x1="0.240000" y1="0.024164" x2="0.240000" y2="0.025764" stroke="#5C7080" stroke-width="0.000200"/>
  <line x1="0.271400" y1="0.024164" x2="0.271400" y2="0.025764" stroke="#5C7080" stroke-width="0.000200"/>
  <line x1="0.240000" y1="0.024964" x2="0.271400" y2="0.024964" stroke="#5C7080" stroke-width="0.000200"/>
  <polygon points="0.240000,0.024964 0.241500,0.024364 0.241500,0.025564" fill="#5C7080"/>
  <polygon points="0.271400,0.024964 0.269900,0.024364 0.269900,0.025564" fill="#5C7080"/>
  <text x="0.255700" y="0.023764" text-anchor="middle" font-family="'Input Sans Narrow', 'DejaVu Sans', Arial, sans-serif" font-size="0.001600" fill="#5C7080">31.4</text>
  <line x1="0.272200" y1="-0.019500" x2="0.275200" y2="-0.019500" stroke="#5C7080" stroke-width="0.000140" stroke-opacity="0.5"/>
  <line x1="0.272200" y1="0.021964" x2="0.275200" y2="0.021964" stroke="#5C7080" stroke-width="0.000140" stroke-opacity="0.5"/>
  <line x1="0.273600" y1="-0.019500" x2="0.275200" y2="-0.019500" stroke="#5C7080" stroke-width="0.000200"/>
  <line x1="0.273600" y1="0.021964" x2="0.275200" y2="0.021964" stroke="#5C7080" stroke-width="0.000200"/>
  <line x1="0.274400" y1="-0.019500" x2="0.274400" y2="0.021964" stroke="#5C7080" stroke-width="0.000200"/>
  <polygon points="0.274400,-0.019500 0.273800,-0.018000 0.275000,-0.018000" fill="#5C7080"/>
  <polygon points="0.274400,0.021964 0.273800,0.020464 0.275000,0.020464" fill="#5C7080"/>
  <text x="0.275900" y="0.001232" text-anchor="middle" dominant-baseline="central" font-family="'Input Sans Narrow', 'DejaVu Sans', Arial, sans-serif" font-size="0.001600" fill="#5C7080" transform="rotate(-90 0.275900 0.001232)">41.5</text>
  <line x1="0.237000" y1="-0.016300" x2="0.274400" y2="-0.016300" stroke="#555" stroke-width="0.000250" stroke-dasharray="0.002500,0.000800,0.000500,0.000800"/>
  <text x="0.235500" y="-0.015700" text-anchor="end" font-family="'Input Sans Narrow', 'DejaVu Sans', Arial, sans-serif" font-size="0.002000" font-weight="bold" fill="#555">A</text>
  <text x="0.275900" y="-0.015700" text-anchor="start" font-family="'Input Sans Narrow', 'DejaVu Sans', Arial, sans-serif" font-size="0.002000" font-weight="bold" fill="#555">A</text>
  <line x1="0.237000" y1="-0.000000" x2="0.274400" y2="-0.000000" stroke="#555" stroke-width="0.000250" stroke-dasharray="0.002500,0.000800,0.000500,0.000800"/>
  <text x="0.235500" y="0.000600" text-anchor="end" font-family="'Input Sans Narrow', 'DejaVu Sans', Arial, sans-serif" font-size="0.002000" font-weight="bold" fill="#555">B</text>
  <text x="0.275900" y="0.000600" text-anchor="start" font-family="'Input Sans Narrow', 'DejaVu Sans', Arial, sans-serif" font-size="0.002000" font-weight="bold" fill="#555">B</text>
  <line x1="0.237000" y1="0.017350" x2="0.274400" y2="0.017350" stroke="#555" stroke-width="0.000250" stroke-dasharray="0.002500,0.000800,0.000500,0.000800"/>
  <text x="0.235500" y="0.017950" text-anchor="end" font-family="'Input Sans Narrow', 'DejaVu Sans', Arial, sans-serif" font-size="0.002000" font-weight="bold" fill="#555">C</text>
  <text x="0.275900" y="0.017950" text-anchor="start" font-family="'Input Sans Narrow', 'DejaVu Sans', Arial, sans-serif" font-size="0.002000" font-weight="bold" fill="#555">C</text>
  <text x="-0.001175" y="0.030139" font-family="'Input Sans Narrow', 'DejaVu Sans', Arial, sans-serif" font-size="0.003500" font-weight="bold" fill="#222">pocket_bracket</text>
  <line x1="-0.001175" y1="0.034139" x2="0.008825" y2="0.034139" stroke="#333" stroke-width="0.000350"/>
  <line x1="-0.001175" y1="0.033139" x2="-0.001175" y2="0.035139" stroke="#333" stroke-width="0.000250"/>
  <line x1="0.008825" y1="0.033139" x2="0.008825" y2="0.035139" stroke="#333" stroke-width="0.000250"/>
  <text x="0.010325" y="0.034839" font-family="'Input Sans Narrow', 'DejaVu Sans', Arial, sans-serif" font-size="0.001800" fill="#888">10 mm</text>
  <rect x="0.028825" y="0.027639" width="0.004000" height="0.002500" fill="url(#hatch_servo)" stroke="rgb(60,60,60)" stroke-width="0.000300"/>
  <text x="0.034325" y="0.029639" font-family="'Input Sans Narrow', 'DejaVu Sans', Arial, sans-serif" font-size="0.001800" fill="rgb(60,60,60)">servo</text>
  <rect x="0.028825" y="0.031139" width="0.004000" height="0.002500" fill="url(#hatch_bracket)" stroke="rgb(50,120,190)" stroke-width="0.000300"/>
  <text x="0.034325" y="0.033139" font-family="'Input Sans Narrow', 'DejaVu Sans', Arial, sans-serif" font-size="0.001800" fill="rgb(50,120,190)">bracket</text>
</svg>