<?xml version='1.0' encoding='utf-8'?>
<svg width="294.40mm" height="85.67mm" viewBox="-0.003175 -0.021575 0.294400 0.085668" version="1.1" xmlns="http://www.w3.org/2000/svg">
  <defs>
    <pattern id="hatch_servo" width="0.0012" height="0.0012" patternUnits="userSpaceOnUse" patternTransform="rotate(45)">
      <line x1="0" y1="0" x2="0" y2="0.0012" stroke="rgb(60,60,60)" stroke-width="0.0001" stroke-opacity="0.6"/>
    </pattern>
    <pattern id="hatch_coupler" width="0.0012" height="0.0012" patternUnits="userSpaceOnUse" patternTransform="rotate(75)">
      <line x1="0" y1="0" x2="0" y2="0.0012" stroke="rgb(220,60,40)" stroke-width="0.0001" stroke-opacity="0.6"/>
    </pattern>
  </defs>
  <g transform="scale(1,-1)" stroke-linecap="round">
    <g fill="none" stroke="rgb(60,60,60)" stroke-width="0.00035" id="servo">
      <line x1="0.0" y1="-0.008" x2="0.0" y2="0.008" />
      <path d="M 0.0,-0.008 A 0.002,0.002 -90.0 0,1 0.002,-0.01" />
      <line x1="0.002" y1="-0.01" x2="0.018" y2="-0.01" />
      <path d="M 0.02,-0.008 A 0.002,0.002 -90.0 0,0 0.018,-0.01" />
      <line x1="0.02" y1="-0.008" x2="0.02" y2="0.008" />
      <path d="M 0.02,0.008 A 0.002,0.002 -90.0 0,1 0.018,0.01" />
      <line x1="0.002" y1="0.01" x2="0.018" y2="0.01" />
      <path d="M 0.0,0.008 A 0.002,0.002 -90.0 0,0 0.002,0.01" />
      <circle cx="0.078606" cy="0.0" r="0.003" />
      <line x1="0.045406" y1="-0.0084" x2="0.045406" y2="-0.0124" />
      <line x1="0.045406" y1="-0.0084" x2="0.085806" y2="-0.0084" />
      <line x1="0.085806" y1="-0.0084" x2="0.085806" y2="-0.0124" />
      <line x1="0.045406" y1="-0.0124" x2="0.085806" y2="-0.0124" />
      <circle cx="0.049106" cy="-0.01025" r="0.0016" />
      <circle cx="0.066106" cy="-0.01025" r="0.0016" />
      <circle cx="0.083106" cy="-0.01025" r="0.0016" />
      <line x1="0.045406" y1="0.0124" x2="0.085806" y2="0.0124" />
      <line x1="0.085806" y1="0.0124" x2="0.085806" y2="0.0084" />
      <line x1="0.045406" y1="0.0084" x2="0.085806" y2="0.0084" />
      <line x1="0.045406" y1="0.0124" x2="0.045406" y2="0.0084" />
      <circle cx="0.049106" cy="0.01025" r="0.0016" />
      <circle cx="0.066106" cy="0.01025" r="0.0016" />
      <circle cx="0.083106" cy="0.01025" r="0.0016" />
      <line x1="0.062656" y1="-0.00305" x2="0.053556" y2="-0.00305" />
      <line x1="0.053556" y1="0.00305" x2="0.053556" y2="-0.00305" />
      <line x1="0.062656" y1="0.00305" x2="0.053556" y2="0.00305" />
      <line x1="0.062656" y1="0.00305" x2="0.062656" y2="-0.00305" />
      <line x1="0.054256" y1="0.00235" x2="0.054256" y2="-0.00235" />
      <line x1="0.061956" y1="-0.00235" x2="0.054256" y2="-0.00235" />
      <line x1="0.061956" y1="0.00235" x2="0.061956" y2="-0.00235" />
      <line x1="0.061956" y1="0.00235" x2="0.054256" y2="0.00235" />
      <path d="M 0.118012,0.0124 A 0.004,0.004 180.0 0,1 0.114012,0.0084" />
      <line x1="0.118012" y1="0.0124" x2="0.155412" y2="0.0124" />
      <path d="M 0.159412,0.0084 A 0.004,0.004 0.0 0,1 0.155412,0.0124" />
      <line x1="0.159412" y1="0.0084" x2="0.159412" y2="-0.0084" />
      <path d="M 0.155412,-0.0124 A 0.004,0.004 0.0 0,1 0.159412,-0.0084" />
      <line x1="0.118012" y1="-0.0124" x2="0.155412" y2="-0.0124" />
      <path d="M 0.114012,-0.0084 A 0.004,0.004 180.0 0,1 0.118012,-0.0124" />
      <line x1="0.114012" y1="0.0084" x2="0.114012" y2="-0.0084" />
      <line x1="0.184619" y1="-0.032613" x2="0.184619" y2="-1.4e-05" />
      <line x1="0.184619" y1="-1.4e-05" x2="0.184639" y2="1.4e-05" />
      <path d="M 0.184619,-1.4e-05 A 0.004,6.44798166175754e-06 2.6700668807576755e-21 0,1 0.188614,-2e-05" />
      <path d="M 0.184619,-0.032613 A 0.004,6.44798166175754e-06 2.6700668807576755e-21 0,1 0.186614,-0.032619" />
      <path d="M 0.186614,-0.032619 A 0.004,6.44798166175754e-06 2.6700668807576755e-21 0,1 0.188614,-0.03262" />
      <line x1="0.188614" y1="-0.03262" x2="0.188614" y2="-2e-05" />
      <path d="M 0.230018,-0.032614 A 0.004,6.44798166175754e-06 -180.0 0,0 0.227014,-0.03262" />
      <line x1="0.230018" y1="-0.032614" x2="0.230039" y2="-0.032586" />
      <path d="M 0.184639,1.4e-05 A 0.004,6.44798166175754e-06 -180.0 0,0 0.188644,2e-05" />
      <line x1="0.188614" y1="-2e-05" x2="0.226014" y2="-2e-05" />
      <line x1="0.188644" y1="2e-05" x2="0.209819" y2="2e-05" />
      <path d="M 0.230018,-1.4e-05 A 0.004,6.44798166175754e-06 -180.0 0,0 0.226014,-2e-05" />
      <path d="M 0.230039,1.3e-05 A 0.004,6.44798166175754e-06 2.6700668807576755e-21 0,1 0.229839,1.5e-05" />
      <line x1="0.230018" y1="-1.4e-05" x2="0.230039" y2="1.3e-05" />
      <path d="M 0.209819,-1.3e-05 A 0.002,3.22399083087877e-06 2.6700668807576755e-21 0,1 0.211817,-1.6e-05" />
      <line x1="0.211817" y1="-1.6e-05" x2="0.227817" y2="-1.6e-05" />
      <path d="M 0.229819,-1.3e-05 A 0.002,3.22399083087877e-06 -180.0 0,0 0.227817,-1.6e-05" />
      <line x1="0.229819" y1="-1.3e-05" x2="0.229839" y2="1.3e-05" />
      <line x1="0.186614" y1="-0.03262" x2="0.186614" y2="-0.032619" />
      <line x1="0.186614" y1="-0.03262" x2="0.188614" y2="-0.03262" />
      <line x1="0.226014" y1="-0.03262" x2="0.226014" y2="-2e-05" />
      <line x1="0.226014" y1="-0.03262" x2="0.227014" y2="-0.03262" />
      <line x1="0.227014" y1="-0.03472" x2="0.227014" y2="-0.03262" />
      <line x1="0.186614" y1="-0.03472" x2="0.227014" y2="-0.03472" />
      <line x1="0.186614" y1="-0.03472" x2="0.186614" y2="-0.03262" />
      <line x1="0.227018" y1="-0.034714" x2="0.227018" y2="-0.03262" />
      <line x1="0.227018" y1="-0.034686" x2="0.227039" y2="-0.034686" />
      <line x1="0.227039" y1="-0.034686" x2="0.227039" y2="-0.03262" />
      <line x1="0.227014" y1="-0.03472" x2="0.227018" y2="-0.034714" />
      <line x1="0.227044" y1="-0.03468" x2="0.227044" y2="-0.03262" />
      <line x1="0.227039" y1="-0.034686" x2="0.227044" y2="-0.03468" />
      <line x1="0.230018" y1="-0.032614" x2="0.230018" y2="-1.4e-05" />
      <path d="M 0.227014,-0.03262 A 0.004,6.44798166175754e-06 -180.0 0,0 0.226014,-0.03262" />
      <line x1="0.230039" y1="1.3e-05" x2="0.230039" y2="-0.032586" />
      <path d="M 0.227044,-0.03258 A 0.004,6.44798166175754e-06 2.6700668807576755e-21 0,1 0.226044,-0.03258" />
      <path d="M 0.209819,0.001687 A 0.002,3.22399083087877e-06 2.6700668807576755e-21 0,1 0.211817,0.001684" />
      <line x1="0.211817" y1="0.001684" x2="0.227817" y2="0.001684" />
      <path d="M 0.229819,0.001687 A 0.002,3.22399083087877e-06 -180.0 0,0 0.227817,0.001684" />
      <line x1="0.229819" y1="0.001687" x2="0.229839" y2="0.001713" />
      <path d="M 0.229839,0.001713 A 0.002,3.22399083087877e-06 2.6700668807576755e-21 0,1 0.227841,0.001716" />
      <line x1="0.211841" y1="0.001716" x2="0.215329" y2="0.001716" />
      <line x1="0.224329" y1="0.001716" x2="0.227841" y2="0.001716" />
      <path d="M 0.209839,0.001713 A 0.002,3.22399083087877e-06 -180.0 0,0 0.211841,0.001716" />
      <line x1="0.209819" y1="0.001687" x2="0.209839" y2="0.001713" />
      <path d="M 0.215329,0.0017 A 0.004500000000000004,7.253979369477238e-06 3.606320894914267e-21 0,1 0.224329,0.0017" />
      <path d="M 0.224329,0.0032 A 0.004500000000000004,7.253979369477238e-06 3.606320894914267e-21 0,1 0.215329,0.0032" />
      <path d="M 0.215329,0.0032 A 0.004500000000000004,7.253979369477238e-06 3.606320894914267e-21 0,1 0.224329,0.0032" />
      <line x1="0.209819" y1="-1.3e-05" x2="0.209819" y2="0.001687" />
      <line x1="0.211817" y1="-1.6e-05" x2="0.211817" y2="0.001684" />
      <line x1="0.227817" y1="-1.6e-05" x2="0.227817" y2="0.001684" />
      <line x1="0.229819" y1="-1.3e-05" x2="0.229819" y2="0.001687" />
      <line x1="0.229839" y1="1.3e-05" x2="0.229839" y2="0.001713" />
      <line x1="0.184619" y1="-0.032613" x2="0.184619" y2="-1.4e-05" />
      <line x1="0.230039" y1="-0.032586" x2="0.230039" y2="1.3e-05" />
      <line x1="0.209819" y1="-1.3e-05" x2="0.209819" y2="0.001687" />
      <line x1="0.229839" y1="1.3e-05" x2="0.229839" y2="0.001713" />
      <line x1="0.224329" y1="0.0017" x2="0.224329" y2="0.0032" />
      <line x1="0.215329" y1="0.0017" x2="0.215329" y2="0.0032" />
      <path d="M 0.25765,3.6e-05 A 0.004,6.440098956118237e-06 4.113033410270377e-37 0,1 0.25525,3e-05" />
      <path d="M 0.25925,-0.032636 A 0.004,6.440098956118237e-06 -180.0 0,0 0.255377,-0.032631" />
      <path d="M 0.27605,-0.032636 A 0.004,6.440098956118237e-06 4.113033410270377e-37 0,1 0.279923,-0.032631" />
      <line x1="0.25925" y1="-0.032636" x2="0.27605" y2="-0.032636" />
      <path d="M 0.27765,3.6e-05 A 0.004,6.440098956118237e-06 -180.0 0,0 0.28005,3e-05" />
      <line x1="0.25525" y1="3e-05" x2="0.25525" y2="-3e-05" />
      <line x1="0.28005" y1="3e-05" x2="0.28005" y2="-3e-05" />
      <path d="M 0.25925,-3.6e-05 A 0.004,6.440098956118237e-06 -180.0 0,0 0.25525,-3e-05" />
      <path d="M 0.27605,-3.6e-05 A 0.004,6.440098956118237e-06 4.113033410270377e-37 0,1 0.28005,-3e-05" />
      <line x1="0.25925" y1="-3.6e-05" x2="0.27605" y2="-3.6e-05" />
      <path d="M 0.25965,-3.6e-05 A 0.002,3.2200494780591185e-06 -180.0 0,0 0.25765,-3.3e-05" />
      <line x1="0.25965" y1="-3.6e-05" x2="0.27565" y2="-3.6e-05" />
      <path d="M 0.27565,-3.6e-05 A 0.002,3.2200494780591185e-06 4.113033410270377e-37 0,1 0.27765,-3.3e-05" />
      <line x1="0.25525" y1="-0.03263" x2="0.25525" y2="-3e-05" />
      <line x1="0.25525" y1="-0.03263" x2="0.25525" y2="-0.032631" />
      <line x1="0.25525" y1="-0.034731" x2="0.25525" y2="-0.032631" />
      <line x1="0.25925" y1="-0.034731" x2="0.25925" y2="-0.032636" />
      <line x1="0.27605" y1="-0.034731" x2="0.27605" y2="-0.032636" />
      <line x1="0.25525" y1="-0.032631" x2="0.255377" y2="-0.032631" />
      <line x1="0.25525" y1="-0.034731" x2="0.25925" y2="-0.034731" />
      <line x1="0.279923" y1="-0.032631" x2="0.28005" y2="-0.032631" />
      <line x1="0.28005" y1="-0.034731" x2="0.28005" y2="-0.032631" />
      <line x1="0.27605" y1="-0.034731" x2="0.28005" y2="-0.034731" />
      <line x1="0.25925" y1="-0.032636" x2="0.25925" y2="-3.6e-05" />
      <path d="M 0.255377,-0.032631 A 0.004,6.440098956118237e-06 -180.0 0,0 0.25525,-0.03263" />
      <line x1="0.28005" y1="-3e-05" x2="0.28005" y2="-0.03263" />
      <line x1="0.27605" y1="-3.6e-05" x2="0.27605" y2="-0.032636" />
      <path d="M 0.279923,-0.032631 A 0.004,6.440098956118237e-06 4.113033410270377e-37 0,1 0.28005,-0.03263" />
      <path d="M 0.26765,-0.033925 A 0.003,4.830074217088677e-06 5.671047845894406e-37 0,1 0.27065,-0.03392" />
      <path d="M 0.26465,-0.03392 A 0.003,4.830074217088677e-06 5.671047845894406e-37 0,1 0.26765,-0.033925" />
      <line x1="0.2646" y1="-0.032636" x2="0.2646" y2="-0.034694" />
      <line x1="0.2707" y1="-0.032636" x2="0.2707" y2="-0.034694" />
      <line x1="0.2707" y1="-0.034694" x2="0.2646" y2="-0.034694" />
      <line x1="0.28005" y1="-0.03263" x2="0.28005" y2="-0.032631" />
      <path d="M 0.25965,0.001696 A 0.002,3.2200494780591185e-06 4.113033410270377e-37 0,1 0.25765,0.001693" />
      <line x1="0.25765" y1="-3.3e-05" x2="0.25765" y2="0.001667" />
      <line x1="0.25765" y1="0.001693" x2="0.25765" y2="0.001667" />
      <path d="M 0.25965,0.001664 A 0.002,3.2200494780591185e-06 -180.0 0,0 0.25765,0.001667" />
      <line x1="0.25965" y1="0.001664" x2="0.27565" y2="0.001664" />
      <line x1="0.27765" y1="-3.3e-05" x2="0.27765" y2="0.001667" />
      <path d="M 0.27565,0.001664 A 0.002,3.2200494780591185e-06 4.113033410270377e-37 0,1 0.27765,0.001667" />
      <line x1="0.27765" y1="0.001693" x2="0.27765" y2="0.001667" />
      <path d="M 0.27565,0.001696 A 0.002,3.2200494780591185e-06 -180.0 0,0 0.27765,0.001693" />
      <line x1="0.25965" y1="0.001696" x2="0.26315" y2="0.001696" />
      <line x1="0.27215" y1="0.001696" x2="0.27565" y2="0.001696" />
      <path d="M 0.26765,0.001673 A 0.0045,7.2451113256330155e-06 5.671047845894406e-37 0,1 0.27215,0.00168" />
      <path d="M 0.26315,0.00168 A 0.0045,7.2451113256330155e-06 5.671047845894406e-37 0,1 0.26765,0.001673" />
      <path d="M 0.26765,0.003173 A 0.0045,7.2451113256330155e-06 5.671047845894406e-37 0,1 0.27215,0.00318" />
      <path d="M 0.27215,0.00318 A 0.004500000000000004,7.245111325633022e-06 5.671047845894406e-37 0,1 0.26315,0.00318" />
      <path d="M 0.26315,0.00318 A 0.0045,7.2451113256330155e-06 5.671047845894406e-37 0,1 0.26765,0.003173" />
      <line x1="0.25965" y1="-3.6e-05" x2="0.25965" y2="0.001664" />
      <line x1="0.27565" y1="-3.6e-05" x2="0.27565" y2="0.001664" />
      <line x1="0.27065" y1="-0.03392" x2="0.27065" y2="-0.032636" />
      <line x1="0.26465" y1="-0.03392" x2="0.26465" y2="-0.032636" />
      <line x1="0.27215" y1="0.00168" x2="0.27215" y2="0.00318" />
      <line x1="0.26315" y1="0.00168" x2="0.26315" y2="0.00318" />
    </g>
    <g fill="url(#hatch_servo)" stroke="none" stroke-width="0" id="servo_fill">
      <path d="M 0.0,0.008 L 0.0,-0.008 A 0.002,0.002 -90.0 0,1 0.002,-0.01 L 0.018,-0.01 A 0.002,0.002 -90.0 0,1 0.02,-0.008 L 0.02,0.008 A 0.002,0.002 -90.0 0,1 0.018,0.01 L 0.002,0.01 A 0.002,0.002 -90.0 0,1 0.0,0.008" />
      <circle cx="0.078606" cy="0.0" r="0.003" />
      <path d="M 0.045406,-0.0084 L 0.045406,-0.0124 L 0.085806,-0.0124 L 0.085806,-0.0084 L 0.045406,-0.0084 M 0.050706,-0.01025 A 0.0016000000000000007,0.0016000000000000007 0.0 0,0 0.047506,-0.01025 A 0.0016000000000000007,0.0016000000000000007 0.0 0,0 0.050706,-0.01025 M 0.067706,-0.01025 A 0.0016000000000000044,0.0016000000000000044 0.0 0,0 0.064506,-0.01025 A 0.0016000000000000044,0.0016000000000000044 0.0 0,0 0.067706,-0.01025 M 0.084706,-0.01025 A 0.0016000000000000044,0.0016000000000000044 0.0 0,0 0.081506,-0.01025 A 0.0016000000000000044,0.0016000000000000044 0.0 0,0 0.084706,-0.01025" />
      <path d="M 0.085806,0.0124 L 0.045406,0.0124 L 0.045406,0.0084 L 0.085806,0.0084 L 0.085806,0.0124 M 0.050706,0.01025 A 0.0016000000000000007,0.0016000000000000007 0.0 0,0 0.047506,0.01025 A 0.0016000000000000007,0.0016000000000000007 0.0 0,0 0.050706,0.01025 M 0.067706,0.01025 A 0.0016000000000000044,0.0016000000000000044 0.0 0,0 0.064506,0.01025 A 0.0016000000000000044,0.0016000000000000044 0.0 0,0 0.067706,0.01025 M 0.084706,0.01025 A 0.0016000000000000044,0.0016000000000000044 0.0 0,0 0.081506,0.01025 A 0.0016000000000000044,0.0016000000000000044 0.0 0,0 0.084706,0.01025" />
      <path d="M 0.053556,-0.00305 L 0.062656,-0.00305 L 0.062656,0.00305 L 0.053556,0.00305 L 0.053556,-0.00305 M 0.054256,-0.00235 L 0.054256,0.00235 L 0.061956,0.00235 L 0.061956,-0.00235 L 0.054256,-0.00235" />
      <path d="M 0.118012,0.0124 A 0.004,0.004 180.0 0,1 0.114012,0.0084 L 0.114012,-0.0084 A 0.004,0.004 180.0 0,1 0.118012,-0.0124 L 0.155412,-0.0124 A 0.004,0.004 0.0 0,1 0.159412,-0.0084 L 0.159412,0.0084 A 0.004,0.004 0.0 0,1 0.155412,0.0124 L 0.118012,0.0124" />
    </g>
    <g fill="none" stroke="rgb(60,60,60)" stroke-opacity="0.4" stroke-width="0.00015" id="servo_hidden" stroke-dasharray="0.0018 0.00045">
      <line x1="0.184619" y1="-0.032613" x2="0.184639" y2="-0.032586" />
      <line x1="0.184639" y1="1.4e-05" x2="0.184639" y2="-0.032586" />
      <path d="M 0.184639,-0.032586 A 0.004,6.44798166175754e-06 -180.0 0,0 0.186643,-0.032581" />
      <line x1="0.186614" y1="-0.032619" x2="0.186619" y2="-0.032613" />
      <line x1="0.186639" y1="-0.032586" x2="0.186643" y2="-0.032581" />
      <line x1="0.186619" y1="-0.032613" x2="0.227018" y2="-0.032614" />
      <line x1="0.186639" y1="-0.032586" x2="0.227039" y2="-0.032586" />
      <line x1="0.227014" y1="-0.03262" x2="0.227018" y2="-0.032614" />
      <line x1="0.227039" y1="-0.032586" x2="0.227044" y2="-0.03258" />
      <path d="M 0.230039,-0.032586 A 0.004,6.44798166175754e-06 2.6700668807576755e-21 0,1 0.227044,-0.03258" />
      <path d="M 0.222829,-0.0326 A 0.0030000000000000027,4.835986246318159e-06 3.606320894914267e-21 0,1 0.216829,-0.0326" />
      <path d="M 0.216829,-0.0326 A 0.0030000000000000027,4.835986246318159e-06 3.606320894914267e-21 0,1 0.222829,-0.0326" />
      <line x1="0.194775" y1="-0.032605" x2="0.203875" y2="-0.032605" />
      <line x1="0.203875" y1="-0.032605" x2="0.203883" y2="-0.032595" />
      <line x1="0.194783" y1="-0.032595" x2="0.203883" y2="-0.032595" />
      <line x1="0.194775" y1="-0.032605" x2="0.194783" y2="-0.032595" />
      <line x1="0.188644" y1="2e-05" x2="0.188644" y2="-0.03258" />
      <path d="M 0.186643,-0.032581 A 0.004,6.44798166175754e-06 -180.0 0,0 0.188644,-0.03258" />
      <line x1="0.209819" y1="2e-05" x2="0.226044" y2="2e-05" />
      <path d="M 0.229839,1.5e-05 A 0.004,6.44798166175754e-06 2.6700668807576755e-21 0,1 0.226044,2e-05" />
      <path d="M 0.229839,1.3e-05 A 0.002,3.22399083087877e-06 2.6700668807576755e-21 0,1 0.227841,1.6e-05" />
      <line x1="0.211841" y1="1.6e-05" x2="0.227841" y2="1.6e-05" />
      <path d="M 0.209839,1.3e-05 A 0.002,3.22399083087877e-06 -180.0 0,0 0.211841,1.6e-05" />
      <line x1="0.209819" y1="-1.3e-05" x2="0.209839" y2="1.3e-05" />
      <line x1="0.186619" y1="-0.034713" x2="0.186619" y2="-0.032613" />
      <line x1="0.186614" y1="-0.03472" x2="0.186619" y2="-0.034713" />
      <line x1="0.186639" y1="-0.034686" x2="0.186639" y2="-0.032586" />
      <line x1="0.186643" y1="-0.032581" x2="0.186644" y2="-0.03258" />
      <line x1="0.186644" y1="-0.03468" x2="0.186644" y2="-0.03258" />
      <line x1="0.186639" y1="-0.034686" x2="0.186644" y2="-0.03468" />
      <line x1="0.186619" y1="-0.034713" x2="0.227018" y2="-0.034714" />
      <line x1="0.227018" y1="-0.03262" x2="0.227018" y2="-0.032614" />
      <line x1="0.186639" y1="-0.034686" x2="0.227018" y2="-0.034686" />
      <line x1="0.227039" y1="-0.03262" x2="0.227039" y2="-0.032586" />
      <line x1="0.227044" y1="-0.03262" x2="0.227044" y2="-0.03258" />
      <line x1="0.226044" y1="2e-05" x2="0.226044" y2="-0.03258" />
      <path d="M 0.222829,-0.0339 A 0.0030000000000000027,4.835986246318159e-06 3.606320894914267e-21 0,1 0.216829,-0.0339" />
      <path d="M 0.216829,-0.0339 A 0.0030000000000000027,4.835986246318159e-06 3.606320894914267e-21 0,1 0.222829,-0.0339" />
      <line x1="0.203875" y1="-0.032605" x2="0.203875" y2="-0.034705" />
      <line x1="0.194775" y1="-0.034705" x2="0.203875" y2="-0.034705" />
      <line x1="0.194775" y1="-0.032605" x2="0.194775" y2="-0.034705" />
      <line x1="0.203883" y1="-0.032595" x2="0.203883" y2="-0.034695" />
      <line x1="0.203883" y1="-0.034695" x2="0.203875" y2="-0.034705" />
      <line x1="0.194783" y1="-0.034695" x2="0.203883" y2="-0.034695" />
      <line x1="0.194783" y1="-0.032595" x2="0.194783" y2="-0.034695" />
      <line x1="0.194783" y1="-0.034695" x2="0.194775" y2="-0.034705" />
      <line x1="0.226044" y1="-0.03258" x2="0.227044" y2="-0.03258" />
      <line x1="0.186644" y1="-0.03468" x2="0.227044" y2="-0.03468" />
      <line x1="0.186644" y1="-0.03258" x2="0.188644" y2="-0.03258" />
      <line x1="0.215329" y1="0.001716" x2="0.224329" y2="0.001716" />
      <path d="M 0.191916,-0.034716 A 0.0016000000000000044,2.579192664703023e-06 3.606320894914267e-21 0,1 0.188716,-0.034716" />
      <path d="M 0.188716,-0.034716 A 0.0016000000000000044,2.579192664703023e-06 3.606320894914267e-21 0,1 0.191916,-0.034716" />
      <path d="M 0.208916,-0.034716 A 0.0016,2.579192664703016e-06 3.606320894914267e-21 0,1 0.205716,-0.034716" />
      <path d="M 0.205716,-0.034716 A 0.0016297877989831524,2.6272104600998875e-06 3.606320894914267e-21 0,1 0.208916,-0.034717" />
      <path d="M 0.225916,-0.034717 A 0.0016000000000000044,2.579192664703023e-06 3.606320894914267e-21 0,1 0.222716,-0.034717" />
      <path d="M 0.222716,-0.034717 A 0.0016000000000000044,2.579192664703023e-06 3.606320894914267e-21 0,1 0.225916,-0.034717" />
      <path d="M 0.191941,-0.034683 A 0.0016000000000000044,2.579192664703023e-06 3.606320894914267e-21 0,1 0.188741,-0.034683" />
      <path d="M 0.188741,-0.034683 A 0.0016000000000000044,2.579192664703023e-06 3.606320894914267e-21 0,1 0.191941,-0.034683" />
      <path d="M 0.208941,-0.034683 A 0.0016,2.579192664703016e-06 3.606320894914267e-21 0,1 0.205741,-0.034683" />
      <path d="M 0.205741,-0.034683 A 0.0016,2.579192664703016e-06 3.606320894914267e-21 0,1 0.208941,-0.034683" />
      <path d="M 0.225941,-0.034683 A 0.0016000000000000044,2.579192664703023e-06 3.606320894914267e-21 0,1 0.222741,-0.034683" />
      <path d="M 0.222741,-0.034683 A 0.0016000000000000044,2.579192664703023e-06 3.606320894914267e-21 0,1 0.225941,-0.034683" />
      <line x1="0.195482" y1="-0.034696" x2="0.195476" y2="-0.034704" />
      <line x1="0.195482" y1="-0.034696" x2="0.203182" y2="-0.034696" />
      <line x1="0.203182" y1="-0.034696" x2="0.203176" y2="-0.034704" />
      <line x1="0.195476" y1="-0.034704" x2="0.203176" y2="-0.034704" />
      <path d="M 0.224329,0.0017 A 0.004500000000000004,7.253979369477238e-06 3.606320894914267e-21 0,1 0.215329,0.0017" />
      <path d="M 0.191916,-0.024716 A 0.0016000000000000044,2.579192664703023e-06 3.606320894914267e-21 0,1 0.188716,-0.024716" />
      <path d="M 0.188716,-0.024716 A 0.0016000000000000044,2.579192664703023e-06 3.606320894914267e-21 0,1 0.191916,-0.024716" />
      <path d="M 0.208916,-0.024717 A 0.0016,2.579192664703016e-06 3.606320894914267e-21 0,1 0.205716,-0.024717" />
      <path d="M 0.205716,-0.024717 A 0.0016,2.579192664703016e-06 3.606320894914267e-21 0,1 0.208916,-0.024717" />
      <path d="M 0.225916,-0.024717 A 0.0016000000000000044,2.579192664703023e-06 3.606320894914267e-21 0,1 0.222716,-0.024717" />
      <path d="M 0.222716,-0.024717 A 0.0016000000000000044,2.579192664703023e-06 3.606320894914267e-21 0,1 0.225916,-0.024717" />
      <path d="M 0.191941,-0.024683 A 0.0016000000000000044,2.579192664703023e-06 3.606320894914267e-21 0,1 0.188741,-0.024683" />
      <path d="M 0.188741,-0.024683 A 0.0016000000000000044,2.579192664703023e-06 3.606320894914267e-21 0,1 0.191941,-0.024683" />
      <path d="M 0.208941,-0.024683 A 0.0016,2.579192664703016e-06 3.606320894914267e-21 0,1 0.205741,-0.024683" />
      <path d="M 0.205741,-0.024683 A 0.0016,2.579192664703016e-06 3.606320894914267e-21 0,1 0.208941,-0.024683" />
      <path d="M 0.225941,-0.024683 A 0.0016000000000000044,2.579192664703023e-06 3.606320894914267e-21 0,1 0.222741,-0.024683" />
      <path d="M 0.222741,-0.024683 A 0.0016297877989831662,2.62721046009991e-06 3.606320894914267e-21 0,1 0.225941,-0.024684" />
      <line x1="0.195482" y1="-0.032596" x2="0.195482" y2="-0.034696" />
      <line x1="0.195476" y1="-0.032604" x2="0.195476" y2="-0.034704" />
      <line x1="0.195476" y1="-0.032604" x2="0.195482" y2="-0.032596" />
      <line x1="0.203182" y1="-0.032596" x2="0.203182" y2="-0.034696" />
      <line x1="0.195482" y1="-0.032596" x2="0.203182" y2="-0.032596" />
      <line x1="0.203176" y1="-0.032604" x2="0.203176" y2="-0.034704" />
      <line x1="0.203176" y1="-0.032604" x2="0.203182" y2="-0.032596" />
      <line x1="0.195476" y1="-0.032604" x2="0.203176" y2="-0.032604" />
      <line x1="0.222829" y1="-0.0339" x2="0.222829" y2="-0.0326" />
      <line x1="0.216829" y1="-0.0339" x2="0.216829" y2="-0.0326" />
      <line x1="0.191916" y1="-0.034716" x2="0.191916" y2="-0.024716" />
      <line x1="0.188716" y1="-0.034716" x2="0.188716" y2="-0.024716" />
      <line x1="0.208916" y1="-0.034716" x2="0.208916" y2="-0.024717" />
      <line x1="0.205716" y1="-0.034716" x2="0.205716" y2="-0.024717" />
      <line x1="0.225916" y1="-0.034717" x2="0.225916" y2="-0.024717" />
      <line x1="0.222716" y1="-0.034717" x2="0.222716" y2="-0.024717" />
      <line x1="0.191941" y1="-0.034683" x2="0.191941" y2="-0.024683" />
      <line x1="0.188741" y1="-0.034683" x2="0.188741" y2="-0.024683" />
      <line x1="0.208941" y1="-0.034683" x2="0.208941" y2="-0.024683" />
      <line x1="0.205741" y1="-0.034683" x2="0.205741" y2="-0.024683" />
      <line x1="0.225941" y1="-0.034683" x2="0.225941" y2="-0.024683" />
      <line x1="0.222741" y1="-0.034683" x2="0.222741" y2="-0.024683" />
      <line x1="0.227841" y1="1.6e-05" x2="0.227841" y2="0.001716" />
      <line x1="0.211841" y1="1.6e-05" x2="0.211841" y2="0.001716" />
      <line x1="0.209839" y1="1.3e-05" x2="0.209839" y2="0.001713" />
      <line x1="0.25925" y1="-0.032563" x2="0.25925" y2="3.7e-05" />
      <line x1="0.25925" y1="-0.032563" x2="0.27605" y2="-0.032563" />
      <line x1="0.27605" y1="3.7e-05" x2="0.27605" y2="-0.032563" />
      <line x1="0.25925" y1="3.7e-05" x2="0.27605" y2="3.7e-05" />
      <path d="M 0.25925,3.7e-05 A 0.004,6.440098956118237e-06 4.113033410270377e-37 0,1 0.25765,3.6e-05" />
      <path d="M 0.25925,-0.032563 A 0.004,6.440098956118237e-06 4.113033410270377e-37 0,1 0.255786,-0.032566" />
      <path d="M 0.255786,-0.032566 A 0.004,6.440098956118237e-06 4.113033410270377e-37 0,1 0.25525,-0.032569" />
      <line x1="0.25525" y1="-0.032569" x2="0.25525" y2="3e-05" />
      <path d="M 0.27605,-0.032563 A 0.004,6.440098956118237e-06 -180.0 0,0 0.279514,-0.032566" />
      <line x1="0.255786" y1="-0.032566" x2="0.25925" y2="-0.032566" />
      <line x1="0.27605" y1="-0.032566" x2="0.279514" y2="-0.032566" />
      <line x1="0.25925" y1="-0.032566" x2="0.25925" y2="-0.032631" />
      <line x1="0.27605" y1="-0.032566" x2="0.27605" y2="-0.032631" />
      <line x1="0.255377" y1="-0.032631" x2="0.25925" y2="-0.032631" />
      <line x1="0.27605" y1="-0.032631" x2="0.279923" y2="-0.032631" />
      <path d="M 0.26765,-0.032625 A 0.003,4.830074217088677e-06 5.671047845894406e-37 0,1 0.27065,-0.03262" />
      <path d="M 0.27065,-0.03262 A 0.0030000000000000027,4.8300742170886815e-06 5.671047845894406e-37 0,1 0.26465,-0.03262" />
      <path d="M 0.26465,-0.03262 A 0.003,4.830074217088677e-06 5.671047845894406e-37 0,1 0.26765,-0.032625" />
      <line x1="0.2646" y1="-0.032579" x2="0.2646" y2="-0.032594" />
      <line x1="0.2646" y1="-0.032594" x2="0.2707" y2="-0.032594" />
      <line x1="0.2707" y1="-0.032579" x2="0.2707" y2="-0.032594" />
      <line x1="0.2646" y1="-0.032579" x2="0.2707" y2="-0.032579" />
      <line x1="0.28005" y1="3e-05" x2="0.28005" y2="-0.032569" />
      <path d="M 0.27605,3.7e-05 A 0.004,6.440098956118237e-06 -180.0 0,0 0.27765,3.6e-05" />
      <path d="M 0.279514,-0.032566 A 0.004,6.440098956118237e-06 -180.0 0,0 0.28005,-0.032569" />
      <path d="M 0.25965,-4e-06 A 0.002,3.2200494780591185e-06 4.113033410270377e-37 0,1 0.25765,-7e-06" />
      <line x1="0.25765" y1="-7e-06" x2="0.25765" y2="-3.3e-05" />
      <line x1="0.27765" y1="-7e-06" x2="0.27765" y2="-3.3e-05" />
      <path d="M 0.27565,-4e-06 A 0.002,3.2200494780591185e-06 -180.0 0,0 0.27765,-7e-06" />
      <line x1="0.25965" y1="-4e-06" x2="0.27565" y2="-4e-06" />
      <line x1="0.25525" y1="-0.032566" x2="0.255786" y2="-0.032566" />
      <line x1="0.25525" y1="-0.032566" x2="0.25525" y2="-0.032569" />
      <line x1="0.25525" y1="-0.034666" x2="0.25525" y2="-0.034731" />
      <line x1="0.25525" y1="-0.034666" x2="0.25525" y2="-0.032566" />
      <line x1="0.25925" y1="-0.034666" x2="0.25925" y2="-0.032566" />
      <line x1="0.25525" y1="-0.034666" x2="0.25925" y2="-0.034666" />
      <line x1="0.27605" y1="-0.034666" x2="0.27605" y2="-0.032566" />
      <line x1="0.279514" y1="-0.032566" x2="0.28005" y2="-0.032566" />
      <line x1="0.28005" y1="-0.034666" x2="0.28005" y2="-0.032566" />
      <line x1="0.27605" y1="-0.034666" x2="0.28005" y2="-0.034666" />
      <line x1="0.25925" y1="-0.034666" x2="0.25925" y2="-0.034731" />
      <line x1="0.25925" y1="-0.032636" x2="0.25925" y2="-0.032631" />
      <line x1="0.27605" y1="-0.034666" x2="0.27605" y2="-0.034731" />
      <line x1="0.27605" y1="-0.032636" x2="0.27605" y2="-0.032631" />
      <path d="M 0.27065,-0.03392 A 0.0030000000000000027,4.8300742170886815e-06 5.671047845894406e-37 0,1 0.26465,-0.03392" />
      <line x1="0.2646" y1="-0.032594" x2="0.2646" y2="-0.032636" />
      <line x1="0.2646" y1="-0.034679" x2="0.2646" y2="-0.034694" />
      <line x1="0.2646" y1="-0.032579" x2="0.2646" y2="-0.034679" />
      <line x1="0.2707" y1="-0.032594" x2="0.2707" y2="-0.032636" />
      <line x1="0.2707" y1="-0.034679" x2="0.2707" y2="-0.034694" />
      <line x1="0.2707" y1="-0.032579" x2="0.2707" y2="-0.034679" />
      <line x1="0.2707" y1="-0.034679" x2="0.2646" y2="-0.034679" />
      <line x1="0.28005" y1="-0.034666" x2="0.28005" y2="-0.034731" />
      <line x1="0.28005" y1="-0.032566" x2="0.28005" y2="-0.032569" />
      <line x1="0.25765" y1="-7e-06" x2="0.25765" y2="0.001693" />
      <line x1="0.27765" y1="-7e-06" x2="0.27765" y2="0.001693" />
      <line x1="0.26315" y1="0.001696" x2="0.27215" y2="0.001696" />
      <path d="M 0.2574,-0.034675 A 0.0016,2.5760395824472946e-06 5.671047845894406e-37 0,1 0.259,-0.034672" />
      <path d="M 0.259,-0.034672 A 0.0016,2.5760395824472946e-06 5.671047845894406e-37 0,1 0.2558,-0.034672" />
      <path d="M 0.2558,-0.034672 A 0.0016,2.5760395824472946e-06 5.671047845894406e-37 0,1 0.2574,-0.034675" />
      <path d="M 0.2574,-0.034702 A 0.0016,2.5760395824472946e-06 5.671047845894406e-37 0,1 0.259,-0.0347" />
      <path d="M 0.259,-0.0347 A 0.0016,2.5760395824472946e-06 5.671047845894406e-37 0,1 0.2558,-0.0347" />
      <path d="M 0.2558,-0.0347 A 0.0016,2.5760395824472946e-06 5.671047845894406e-37 0,1 0.2574,-0.034702" />
      <path d="M 0.2574,-0.03473 A 0.0016,2.5760395824472946e-06 5.671047845894406e-37 0,1 0.259,-0.034727" />
      <path d="M 0.259,-0.034727 A 0.0016,2.5760395824472946e-06 5.671047845894406e-37 0,1 0.2558,-0.034727" />
      <path d="M 0.2558,-0.034727 A 0.0016,2.5760395824472946e-06 5.671047845894406e-37 0,1 0.2574,-0.03473" />
      <path d="M 0.2779,-0.034675 A 0.0016,2.5760395824472946e-06 5.671047845894406e-37 0,1 0.2795,-0.034672" />
      <path d="M 0.2795,-0.034672 A 0.0016000000000000179,2.5760395824473234e-06 5.671047845894406e-37 0,1 0.2763,-0.034672" />
      <path d="M 0.2763,-0.034672 A 0.0016,2.5760395824472946e-06 5.671047845894406e-37 0,1 0.2779,-0.034675" />
      <path d="M 0.2779,-0.034702 A 0.0016,2.5760395824472946e-06 5.671047845894406e-37 0,1 0.2795,-0.0347" />
      <path d="M 0.2795,-0.0347 A 0.0016000000000000179,2.5760395824473234e-06 5.671047845894406e-37 0,1 0.2763,-0.0347" />
      <path d="M 0.2763,-0.0347 A 0.0016,2.5760395824472946e-06 5.671047845894406e-37 0,1 0.2779,-0.034702" />
      <path d="M 0.2779,-0.03473 A 0.0016,2.5760395824472946e-06 5.671047845894406e-37 0,1 0.2795,-0.034727" />
      <path d="M 0.2795,-0.034727 A 0.0016000000000000179,2.5760395824473234e-06 5.671047845894406e-37 0,1 0.2763,-0.034727" />
      <path d="M 0.2763,-0.034727 A 0.0016,2.5760395824472946e-06 5.671047845894406e-37 0,1 0.2779,-0.03473" />
      <line x1="0.27" y1="-0.03468" x2="0.2653" y2="-0.03468" />
      <line x1="0.27" y1="-0.03468" x2="0.27" y2="-0.034693" />
      <line x1="0.27" y1="-0.034693" x2="0.2653" y2="-0.034693" />
      <line x1="0.2653" y1="-0.03468" x2="0.2653" y2="-0.034693" />
      <path d="M 0.27215,0.00168 A 0.004500000000000004,7.245111325633022e-06 5.671047845894406e-37 0,1 0.26315,0.00168" />
      <path d="M 0.2574,-0.024675 A 0.0016,2.5760395824472946e-06 5.671047845894406e-37 0,1 0.259,-0.024672" />
      <path d="M 0.259,-0.024672 A 0.0016,2.5760395824472946e-06 5.671047845894406e-37 0,1 0.2558,-0.024672" />
      <path d="M 0.2558,-0.024672 A 0.0016,2.5760395824472946e-06 5.671047845894406e-37 0,1 0.2574,-0.024675" />
      <path d="M 0.2574,-0.024702 A 0.0016,2.5760395824472946e-06 5.671047845894406e-37 0,1 0.259,-0.0247" />
      <path d="M 0.259,-0.0247 A 0.0016,2.5760395824472946e-06 5.671047845894406e-37 0,1 0.2558,-0.0247" />
      <path d="M 0.2558,-0.0247 A 0.0016,2.5760395824472946e-06 5.671047845894406e-37 0,1 0.2574,-0.024702" />
      <path d="M 0.2574,-0.02473 A 0.0016,2.5760395824472946e-06 5.671047845894406e-37 0,1 0.259,-0.024727" />
      <path d="M 0.259,-0.024727 A 0.0016,2.5760395824472946e-06 5.671047845894406e-37 0,1 0.2558,-0.024727" />
      <path d="M 0.2558,-0.024727 A 0.0016,2.5760395824472946e-06 5.671047845894406e-37 0,1 0.2574,-0.02473" />
      <path d="M 0.2779,-0.024675 A 0.0016,2.5760395824472946e-06 5.671047845894406e-37 0,1 0.2795,-0.024672" />
      <path d="M 0.2795,-0.024672 A 0.0016000000000000179,2.5760395824473234e-06 5.671047845894406e-37 0,1 0.2763,-0.024672" />
      <path d="M 0.2763,-0.024672 A 0.0016,2.5760395824472946e-06 5.671047845894406e-37 0,1 0.2779,-0.024675" />
      <path d="M 0.2779,-0.024702 A 0.0016,2.5760395824472946e-06 5.671047845894406e-37 0,1 0.2795,-0.0247" />
      <path d="M 0.2795,-0.0247 A 0.0016000000000000179,2.5760395824473234e-06 5.671047845894406e-37 0,1 0.2763,-0.0247" />
      <path d="M 0.2763,-0.0247 A 0.0016,2.5760395824472946e-06 5.671047845894406e-37 0,1 0.2779,-0.024702" />
      <path d="M 0.2779,-0.02473 A 0.0016,2.5760395824472946e-06 5.671047845894406e-37 0,1 0.2795,-0.024727" />
      <path d="M 0.2795,-0.024727 A 0.0016000000000000179,2.5760395824473234e-06 5.671047845894406e-37 0,1 0.2763,-0.024727" />
      <path d="M 0.2763,-0.024727 A 0.0016,2.5760395824472946e-06 5.671047845894406e-37 0,1 0.2779,-0.02473" />
      <line x1="0.27" y1="-0.03258" x2="0.27" y2="-0.03468" />
      <line x1="0.2653" y1="-0.03258" x2="0.2653" y2="-0.03468" />
      <line x1="0.2653" y1="-0.03258" x2="0.27" y2="-0.03258" />
      <line x1="0.27" y1="-0.032593" x2="0.27" y2="-0.034693" />
      <line x1="0.27" y1="-0.03258" x2="0.27" y2="-0.032593" />
      <line x1="0.2653" y1="-0.032593" x2="0.2653" y2="-0.034693" />
      <line x1="0.2653" y1="-0.032593" x2="0.27" y2="-0.032593" />
      <line x1="0.2653" y1="-0.03258" x2="0.2653" y2="-0.032593" />
      <line x1="0.27065" y1="-0.032636" x2="0.27065" y2="-0.03262" />
      <line x1="0.26465" y1="-0.032636" x2="0.26465" y2="-0.03262" />
      <line x1="0.259" y1="-0.034672" x2="0.259" y2="-0.024672" />
      <line x1="0.2558" y1="-0.034672" x2="0.2558" y2="-0.024672" />
      <line x1="0.259" y1="-0.0347" x2="0.259" y2="-0.0247" />
      <line x1="0.2558" y1="-0.0347" x2="0.2558" y2="-0.0247" />
      <line x1="0.259" y1="-0.034727" x2="0.259" y2="-0.024727" />
      <line x1="0.2558" y1="-0.034727" x2="0.2558" y2="-0.024727" />
      <line x1="0.2795" y1="-0.034672" x2="0.2795" y2="-0.024672" />
      <line x1="0.2763" y1="-0.034672" x2="0.2763" y2="-0.024672" />
      <line x1="0.2795" y1="-0.0347" x2="0.2795" y2="-0.0247" />
      <line x1="0.2763" y1="-0.0347" x2="0.2763" y2="-0.0247" />
      <line x1="0.2795" y1="-0.034727" x2="0.2795" y2="-0.024727" />
      <line x1="0.2763" y1="-0.034727" x2="0.2763" y2="-0.024727" />
      <line x1="0.25965" y1="-4e-06" x2="0.25965" y2="0.001696" />
      <line x1="0.27565" y1="-4e-06" x2="0.27565" y2="0.001696" />
    </g>
    <g fill="none" stroke="rgb(220,60,40)" stroke-width="0.00035" id="coupler">
      <line x1="0.037406" y1="-0.009294" x2="0.01" y2="-0.009294" />
      <line x1="0.037406" y1="-0.009294" x2="0.037406" y2="-0.008294" />
      <line x1="0.037406" y1="-0.008294" x2="0.027406" y2="-0.008294" />
      <line x1="0.027406" y1="-0.008294" x2="0.027406" y2="0.008294" />
      <line x1="0.037406" y1="0.008294" x2="0.027406" y2="0.008294" />
      <line x1="0.037406" y1="0.008294" x2="0.037406" y2="0.009294" />
      <line x1="0.037406" y1="0.009294" x2="0.01" y2="0.009294" />
      <line x1="0.01" y1="0.008294" x2="0.01" y2="0.009294" />
      <path d="M 0.01,0.008294 A 0.008294306588619054,0.008294306588619054 0.0 0,1 0.00466,0.006347" />
      <path d="M 0.00466,0.006347 A 0.00145,0.00145 105.60850485956315 0,0 0.006455,0.00459" />
      <path d="M 0.006455,0.00459 A 0.0058,0.0058 127.68093438926024 0,0 0.013545,0.00459" />
      <path d="M 0.013545,0.00459 A 0.00145,0.00145 -165.63576778793214 1,0 0.01459,0.003545" />
      <path d="M 0.01459,0.003545 A 0.0058,0.0058 127.68093438926024 0,0 0.006455,-0.00459" />
      <path d="M 0.006455,-0.00459 A 0.00145,0.00145 14.364232212067673 0,0 0.00466,-0.006347" />
      <path d="M 0.00466,-0.006347 A 0.008294306588619054,0.008294306588619054 0.0 0,1 0.01,-0.008294" />
      <line x1="0.01" y1="-0.009294" x2="0.01" y2="-0.008294" />
      <line x1="0.037406" y1="-0.008294" x2="0.027406" y2="-0.008294" />
      <line x1="0.027406" y1="-0.008294" x2="0.027406" y2="0.008294" />
      <line x1="0.037406" y1="0.008294" x2="0.027406" y2="0.008294" />
      <line x1="0.037406" y1="0.008294" x2="0.037406" y2="-0.008294" />
      <path d="M 0.003653,0.00534 A 0.008294306588619054,0.008294306588619054 0.0 0,1 0.003653,-0.00534" />
      <path d="M 0.003653,0.00534 A 0.00145,0.00145 0.0 0,1 0.00541,0.003545" />
      <path d="M 0.00541,-0.003545 A 0.0058,0.0058 127.68093438926024 0,0 0.00541,0.003545" />
      <path d="M 0.00541,-0.003545 A 0.00145,0.00145 0.0 0,1 0.003653,-0.00534" />
      <line x1="0.106012" y1="-0.009294" x2="0.078606" y2="-0.009294" />
      <line x1="0.106012" y1="-0.009294" x2="0.106012" y2="0.009294" />
      <line x1="0.106012" y1="0.009294" x2="0.078606" y2="0.009294" />
      <line x1="0.078606" y1="0.008294" x2="0.078606" y2="0.009294" />
      <path d="M 0.078606,0.008294 A 0.008294306588619054,0.008294306588619054 0.0 1,1 0.078606,-0.008294" />
      <line x1="0.078606" y1="-0.009294" x2="0.078606" y2="-0.008294" />
      <circle cx="0.078606" cy="0.0" r="0.0058" />
      <line x1="0.176619" y1="0.008294" x2="0.176619" y2="-0.008294" />
      <line x1="0.166619" y1="-0.008294" x2="0.176619" y2="-0.008294" />
      <line x1="0.166619" y1="0.008294" x2="0.166619" y2="-0.008294" />
      <line x1="0.166619" y1="0.008294" x2="0.176619" y2="0.008294" />
      <line x1="0.24725" y1="0.011685" x2="0.219844" y2="0.011685" />
      <line x1="0.24725" y1="0.011685" x2="0.24722" y2="0.011715" />
      <line x1="0.24722" y1="0.011715" x2="0.219813" y2="0.011715" />
      <line x1="0.219815" y1="0.011714" x2="0.219813" y2="0.011715" />
      <path d="M 0.219815,0.011714 A 0.008294306588619054,1.3576282899776943e-05 1.0955988221629788e-20 0,1 0.214478,0.01171" />
      <path d="M 0.214478,0.01171 A 0.00145,2.3733882988709355e-06 180.0 0,0 0.216321,0.011708" />
      <path d="M 0.216321,0.011708 A 0.00145,2.3733882988709355e-06 180.0 0,0 0.216276,0.011707" />
      <path d="M 0.216276,0.011707 A 0.0058,9.493553195483742e-06 -180.0 0,0 0.223366,0.011707" />
      <path d="M 0.223366,0.011707 A 0.00145,2.3733882988709355e-06 -180.0 0,0 0.223321,0.011708" />
      <path d="M 0.223321,0.011708 A 0.0014500000000000066,2.3733882988709465e-06 -180.0 0,0 0.226221,0.011708" />
      <path d="M 0.226221,0.011708 A 0.00145,2.3733882988709355e-06 -180.0 0,0 0.224413,0.011706" />
      <path d="M 0.224413,0.011706 A 0.0058,9.493553195483742e-06 -180.0 0,0 0.225629,0.0117" />
      <path d="M 0.225629,0.0117 A 0.0058,9.493553195483742e-06 -180.0 0,0 0.216291,0.011692" />
      <path d="M 0.216291,0.011692 A 0.00145,2.3733882988709355e-06 180.0 0,0 0.216337,0.011692" />
      <path d="M 0.216337,0.011692 A 0.00145,2.3733882988709355e-06 180.0 0,0 0.214499,0.01169" />
      <path d="M 0.214499,0.01169 A 0.008294306588619054,1.3576282899776943e-05 1.0955988221629788e-20 0,1 0.219843,0.011686" />
      <line x1="0.219844" y1="0.011685" x2="0.219843" y2="0.011686" />
      <line x1="0.24725" y1="0.001685" x2="0.219844" y2="0.001685" />
      <line x1="0.24725" y1="0.001685" x2="0.24725" y2="0.011685" />
      <line x1="0.219844" y1="0.001685" x2="0.219844" y2="0.011685" />
      <line x1="0.219843" y1="0.001686" x2="0.219843" y2="0.011686" />
      <line x1="0.219844" y1="0.001685" x2="0.219843" y2="0.001686" />
      <path d="M 0.214499,0.00169 A 0.008294306588619054,1.3576282899776943e-05 1.0955988221629788e-20 0,1 0.219843,0.001686" />
      <line x1="0.214499" y1="0.00169" x2="0.214499" y2="0.01169" />
      <line x1="0.216291" y1="0.011691" x2="0.216291" y2="0.011692" />
      <line x1="0.224413" y1="0.011694" x2="0.224413" y2="0.011706" />
      <line x1="0.223366" y1="0.011692" x2="0.223366" y2="0.011707" />
      <line x1="0.216276" y1="0.011692" x2="0.216276" y2="0.011707" />
      <line x1="0.214478" y1="0.011706" x2="0.214478" y2="0.01171" />
      <line x1="0.219813" y1="0.011714" x2="0.219813" y2="0.011715" />
      <line x1="0.247249" y1="-0.033913" x2="0.247249" y2="0.001685" />
      <line x1="0.24725" y1="-0.033915" x2="0.247249" y2="-0.033913" />
      <line x1="0.24725" y1="-0.043915" x2="0.24725" y2="-0.033915" />
      <line x1="0.237249" y1="-0.033914" x2="0.237249" y2="0.001685" />
      <line x1="0.237249" y1="-0.033914" x2="0.247249" y2="-0.033913" />
      <line x1="0.24725" y1="-0.033915" x2="0.219844" y2="-0.033915" />
      <line x1="0.219844" y1="-0.033915" x2="0.219843" y2="-0.033914" />
      <path d="M 0.219815,-0.033886 A 0.008294306588619054,1.3576282899776943e-05 1.0955988221629788e-20 0,1 0.211534,-0.0339" />
      <path d="M 0.211534,-0.0339 A 0.008294306588619054,1.3576282899776943e-05 1.0955988221629788e-20 0,1 0.219843,-0.033914" />
      <line x1="0.219815" y1="-0.033886" x2="0.219813" y2="-0.033885" />
      <line x1="0.237221" y1="-0.033885" x2="0.219813" y2="-0.033885" />
      <line x1="0.237221" y1="-0.033886" x2="0.237249" y2="-0.033914" />
      <path d="M 0.225629,-0.0339 A 0.0058,9.49355319548374e-06 1.0955988221629788e-20 0,1 0.214029,-0.0339" />
      <path d="M 0.214029,-0.0339 A 0.0058,9.49355319548374e-06 1.0955988221629788e-20 1,1 0.225629,-0.0339" />
      <line x1="0.24725" y1="-0.043915" x2="0.219844" y2="-0.043915" />
      <line x1="0.219844" y1="-0.043915" x2="0.219844" y2="-0.033915" />
      <path d="M 0.211534,-0.0439 A 0.008294306588619054,1.3576282899776943e-05 1.0955988221629788e-20 0,1 0.219843,-0.043914" />
      <line x1="0.219844" y1="-0.043915" x2="0.219843" y2="-0.043914" />
      <line x1="0.219813" y1="-0.033886" x2="0.219813" y2="-0.033885" />
      <line x1="0.237221" y1="-0.033886" x2="0.237221" y2="0.001685" />
      <line x1="0.219843" y1="-0.043914" x2="0.219843" y2="-0.033914" />
      <path d="M 0.213473,0.011709 A 0.008294306588619054,1.3576282899776943e-05 1.0955988221629788e-20 0,1 0.211534,0.0117" />
      <path d="M 0.211534,0.0117 A 0.008294306588619054,1.3576282899776943e-05 1.0955988221629788e-20 0,1 0.213491,0.011691" />
      <path d="M 0.213473,0.011709 A 0.00145,2.373388298870935e-06 1.0955988221629788e-20 0,1 0.213421,0.011708" />
      <path d="M 0.213421,0.011708 A 0.00145,2.373388298870935e-06 1.0955988221629788e-20 0,1 0.215233,0.011706" />
      <path d="M 0.215244,0.011694 A 0.0058,9.493553195483742e-06 -180.0 0,0 0.214029,0.0117" />
      <path d="M 0.214029,0.0117 A 0.0058,9.493553195483742e-06 -180.0 0,0 0.215233,0.011706" />
      <path d="M 0.215244,0.011694 A 0.00145,2.373388298870935e-06 1.0955988221629788e-20 0,1 0.213437,0.011692" />
      <path d="M 0.213437,0.011692 A 0.00145,2.373388298870935e-06 1.0955988221629788e-20 0,1 0.213491,0.011691" />
      <line x1="0.213491" y1="0.001691" x2="0.213491" y2="0.011691" />
      <path d="M 0.211534,0.0017 A 0.008294306588619054,1.3576282899776943e-05 1.0955988221629788e-20 0,1 0.213491,0.001691" />
      <line x1="0.213473" y1="0.011707" x2="0.213473" y2="0.011709" />
      <line x1="0.215233" y1="0.011694" x2="0.215233" y2="0.011706" />
      <path d="M 0.214029,0.0017 A 0.0058,9.493553195483742e-06 -180.0 0,0 0.214499,0.001704" />
      <line x1="0.215244" y1="0.01169" x2="0.215244" y2="0.011694" />
      <path d="M 0.214499,0.001694 A 0.00145,2.373388298870935e-06 1.0955988221629788e-20 0,1 0.213491,0.001692" />
      <line x1="0.211534" y1="-0.0439" x2="0.211534" y2="-0.0339" />
      <line x1="0.211534" y1="0.0017" x2="0.211534" y2="0.0117" />
      <line x1="0.258356" y1="0.011682" x2="0.258356" y2="0.011727" />
      <line x1="0.258356" y1="0.011682" x2="0.276945" y2="0.011682" />
      <line x1="0.276945" y1="0.011682" x2="0.276945" y2="0.011727" />
      <line x1="0.275945" y1="0.011727" x2="0.276945" y2="0.011727" />
      <path d="M 0.275945,0.011727 A 0.008294306588619054,1.3598830577853647e-05 1.1737255385165707e-23 0,1 0.273997,0.011736" />
      <path d="M 0.273997,0.011736 A 0.00145,2.377330054925152e-06 -180.0 0,0 0.27405,0.011735" />
      <path d="M 0.27405,0.011735 A 0.00145,2.377330054925152e-06 -180.0 0,0 0.272241,0.011733" />
      <path d="M 0.272241,0.011733 A 0.0058,9.509320219700608e-06 180.0 0,0 0.27345,0.011727" />
      <path d="M 0.27345,0.011727 A 0.0058,9.509320219700608e-06 180.0 0,0 0.272241,0.011721" />
      <path d="M 0.272241,0.011721 A 0.00145,2.377330054925152e-06 -180.0 0,0 0.27405,0.011719" />
      <path d="M 0.27405,0.011719 A 0.0014500000000000066,2.377330054925163e-06 -180.0 0,0 0.27115,0.011719" />
      <path d="M 0.27115,0.011719 A 0.00145,2.377330054925152e-06 -180.0 0,0 0.271196,0.01172" />
      <path d="M 0.271196,0.01172 A 0.0058,9.509320219700608e-06 180.0 0,0 0.26185,0.011727" />
      <path d="M 0.26185,0.011727 A 0.0058,9.509320219700608e-06 180.0 0,0 0.26306,0.011733" />
      <path d="M 0.26306,0.011733 A 0.00145,2.377330054925152e-06 -180.0 0,0 0.26125,0.011735" />
      <path d="M 0.26125,0.011735 A 0.00145,2.377330054925152e-06 -180.0 0,0 0.261304,0.011736" />
      <path d="M 0.261304,0.011736 A 0.008294306588619054,1.3598830577853647e-05 1.1737255385165707e-23 0,1 0.259356,0.011727" />
      <line x1="0.258356" y1="0.011727" x2="0.259356" y2="0.011727" />
      <line x1="0.258356" y1="0.001682" x2="0.258356" y2="0.011682" />
      <line x1="0.261304" y1="0.011735" x2="0.261304" y2="0.011736" />
      <line x1="0.26306" y1="0.011721" x2="0.26306" y2="0.011733" />
      <line x1="0.271196" y1="0.011718" x2="0.271196" y2="0.01172" />
      <line x1="0.272241" y1="0.011717" x2="0.272241" y2="0.011721" />
      <line x1="0.272241" y1="0.011721" x2="0.272241" y2="0.011733" />
      <line x1="0.273997" y1="0.011735" x2="0.273997" y2="0.011736" />
      <line x1="0.276945" y1="0.001682" x2="0.276945" y2="0.011682" />
      <line x1="0.258356" y1="0.001682" x2="0.259356" y2="0.001682" />
      <line x1="0.259356" y1="-0.033918" x2="0.259356" y2="0.001682" />
      <line x1="0.258356" y1="-0.033918" x2="0.259356" y2="-0.033918" />
      <line x1="0.258356" y1="-0.043918" x2="0.258356" y2="-0.033918" />
      <line x1="0.258356" y1="-0.043918" x2="0.276945" y2="-0.043918" />
      <line x1="0.276945" y1="-0.043918" x2="0.276945" y2="-0.033918" />
      <line x1="0.275945" y1="-0.033918" x2="0.276945" y2="-0.033918" />
      <line x1="0.275945" y1="-0.033918" x2="0.275945" y2="0.001682" />
      <line x1="0.275945" y1="0.001682" x2="0.276945" y2="0.001682" />
      <line x1="0.258356" y1="-0.033918" x2="0.258356" y2="-0.033873" />
      <line x1="0.258356" y1="-0.033873" x2="0.259356" y2="-0.033873" />
      <line x1="0.275945" y1="-0.033873" x2="0.276945" y2="-0.033873" />
      <line x1="0.276945" y1="-0.033918" x2="0.276945" y2="-0.033873" />
      <line x1="0.275945" y1="-0.033901" x2="0.275945" y2="-0.033918" />
      <path d="M 0.272991,0.011738 A 0.008294306588619054,1.3598830577853647e-05 1.1737255385165707e-23 0,1 0.26231,0.011738" />
      <path d="M 0.272991,0.011738 A 0.00145,2.377330054925152e-06 1.1737255385165707e-23 0,1 0.27115,0.011735" />
      <path d="M 0.27115,0.011735 A 0.00145,2.377330054925152e-06 1.1737255385165707e-23 0,1 0.271196,0.011735" />
      <path d="M 0.264105,0.011735 A 0.0058,9.509320219700608e-06 180.0 0,0 0.271196,0.011735" />
      <path d="M 0.264105,0.011735 A 0.00145,2.377330054925152e-06 1.1737255385165707e-23 0,1 0.26415,0.011735" />
      <path d="M 0.26415,0.011735 A 0.00145,2.377330054925152e-06 1.1737255385165707e-23 0,1 0.26231,0.011738" />
      <line x1="0.26231" y1="0.011733" x2="0.26231" y2="0.011738" />
      <line x1="0.272991" y1="0.011733" x2="0.272991" y2="0.011738" />
      <line x1="0.271196" y1="0.01172" x2="0.271196" y2="0.011735" />
      <line x1="0.264105" y1="0.01172" x2="0.264105" y2="0.011735" />
    </g>
    <g fill="url(#hatch_coupler)" stroke="none" stroke-width="0" id="coupler_fill">
      <path d="M 0.037406,-0.009294 L 0.01,-0.009294 L 0.01,-0.008294 A 0.008294306588619054,0.008294306588619054 0.0 0,0 0.00466,-0.006347 A 0.00145,0.00145 14.364232212067673 0,1 0.006455,-0.00459 A 0.0058,0.0058 127.68093438926024 0,1 0.01459,0.003545 A 0.00145,0.00145 -165.63576778793214 1,1 0.013545,0.00459 A 0.0058,0.0058 127.68093438926024 0,1 0.006455,0.00459 A 0.00145,0.00145 105.60850485956315 0,1 0.00466,0.006347 A 0.008294306588619054,0.008294306588619054 0.0 0,0 0.01,0.008294 L 0.01,0.009294 L 0.037406,0.009294 L 0.037406,0.008294 L 0.027406,0.008294 L 0.027406,-0.008294 L 0.037406,-0.008294 L 0.037406,-0.009294" />
      <path d="M 0.027406,-0.008294 L 0.037406,-0.008294 L 0.037406,0.008294 L 0.027406,0.008294 L 0.027406,-0.008294" />
      <path d="M 0.003653,-0.00534 A 0.008294306588619054,0.008294306588619054 0.0 0,0 0.003653,0.00534 A 0.00145,0.00145 0.0 0,1 0.00541,0.003545 A 0.0058,0.0058 127.68093438926024 0,1 0.00541,-0.003545 A 0.00145,0.00145 0.0 0,1 0.003653,-0.00534" />
      <path d="M 0.078606,-0.009294 L 0.106012,-0.009294 L 0.106012,0.009294 L 0.078606,0.009294 L 0.078606,0.008294 A 0.008294306588619054,0.008294306588619054 0.0 1,1 0.078606,-0.008294 L 0.078606,-0.009294 M 0.084406,-0.0 A 0.0058,0.0058 0.0 0,0 0.072806,0.0 A 0.0058,0.0058 0.0 0,0 0.084406,0.0" />
      <path d="M 0.176619,-0.008294 L 0.176619,0.008294 L 0.166619,0.008294 L 0.166619,-0.008294 L 0.176619,-0.008294" />
    </g>
    <g fill="none" stroke="rgb(220,60,40)" stroke-opacity="0.4" stroke-width="0.00015" id="coupler_hidden" stroke-dasharray="0.0018 0.00045">
      <path d="M 0.216291,0.001692 A 0.00145,2.3733882988709355e-06 180.0 0,0 0.216337,0.001692" />
      <path d="M 0.216337,0.001692 A 0.00145,2.3733882988709355e-06 180.0 0,0 0.214499,0.00169" />
      <line x1="0.216291" y1="0.001692" x2="0.216291" y2="0.011691" />
      <path d="M 0.224413,0.001706 A 0.0058,9.493553195483742e-06 -180.0 0,0 0.225629,0.0017" />
      <path d="M 0.225629,0.0017 A 0.0058,9.493553195483742e-06 -180.0 0,0 0.216291,0.001692" />
      <line x1="0.224413" y1="0.001706" x2="0.224413" y2="0.011694" />
      <path d="M 0.223366,0.001707 A 0.00145,2.3733882988709355e-06 -180.0 0,0 0.223321,0.001708" />
      <path d="M 0.223321,0.001708 A 0.0014500000000000066,2.3733882988709465e-06 -180.0 0,0 0.226221,0.001708" />
      <path d="M 0.226221,0.001708 A 0.00145,2.3733882988709355e-06 -180.0 0,0 0.224413,0.001706" />
      <line x1="0.223366" y1="0.001707" x2="0.223366" y2="0.011692" />
      <path d="M 0.216276,0.001707 A 0.0058,9.493553195483742e-06 -180.0 0,0 0.223366,0.001707" />
      <line x1="0.216276" y1="0.001707" x2="0.216276" y2="0.011692" />
      <path d="M 0.214478,0.00171 A 0.00145,2.3733882988709355e-06 180.0 0,0 0.216321,0.001708" />
      <path d="M 0.216321,0.001708 A 0.00145,2.3733882988709355e-06 180.0 0,0 0.216276,0.001707" />
      <line x1="0.214478" y1="0.00171" x2="0.214478" y2="0.011706" />
      <path d="M 0.219815,0.001714 A 0.008294306588619054,1.3576282899776943e-05 1.0955988221629788e-20 0,1 0.214478,0.00171" />
      <line x1="0.219815" y1="0.001714" x2="0.219815" y2="0.011714" />
      <line x1="0.219813" y1="0.001715" x2="0.219813" y2="0.011714" />
      <line x1="0.219815" y1="0.001714" x2="0.219813" y2="0.001715" />
      <line x1="0.24722" y1="0.001715" x2="0.219813" y2="0.001715" />
      <line x1="0.24722" y1="0.001715" x2="0.24722" y2="0.011715" />
      <line x1="0.24725" y1="0.001685" x2="0.247249" y2="0.001686" />
      <line x1="0.247249" y1="0.001685" x2="0.247249" y2="0.001686" />
      <line x1="0.24725" y1="-0.043915" x2="0.24722" y2="-0.043885" />
      <line x1="0.24722" y1="-0.043885" x2="0.24722" y2="-0.033885" />
      <line x1="0.247221" y1="-0.033886" x2="0.24722" y2="-0.033885" />
      <line x1="0.247221" y1="-0.033886" x2="0.247221" y2="0.001714" />
      <line x1="0.247221" y1="0.001714" x2="0.24722" y2="0.001715" />
      <line x1="0.247249" y1="0.001686" x2="0.237249" y2="0.001686" />
      <line x1="0.237249" y1="0.001686" x2="0.237221" y2="0.001714" />
      <line x1="0.247221" y1="0.001714" x2="0.237221" y2="0.001714" />
      <line x1="0.237249" y1="0.001685" x2="0.237249" y2="0.001686" />
      <line x1="0.24722" y1="-0.033885" x2="0.237221" y2="-0.033885" />
      <line x1="0.237221" y1="-0.033886" x2="0.247221" y2="-0.033886" />
      <line x1="0.24722" y1="-0.043885" x2="0.219813" y2="-0.043885" />
      <line x1="0.219815" y1="-0.043886" x2="0.219813" y2="-0.043885" />
      <path d="M 0.219815,-0.043886 A 0.008294306588619054,1.3576282899776943e-05 1.0955988221629788e-20 0,1 0.211534,-0.0439" />
      <path d="M 0.225629,-0.0439 A 0.0058,9.49355319548374e-06 1.0955988221629788e-20 0,1 0.214029,-0.0439" />
      <path d="M 0.214029,-0.0439 A 0.0058,9.49355319548374e-06 1.0955988221629788e-20 1,1 0.225629,-0.0439" />
      <line x1="0.219813" y1="-0.043885" x2="0.219813" y2="-0.033886" />
      <line x1="0.237221" y1="0.001685" x2="0.237221" y2="0.001714" />
      <line x1="0.219815" y1="-0.043886" x2="0.219815" y2="-0.033886" />
      <path d="M 0.213473,0.001709 A 0.008294306588619054,1.3576282899776943e-05 1.0955988221629788e-20 0,1 0.211534,0.0017" />
      <line x1="0.213473" y1="0.001709" x2="0.213473" y2="0.011707" />
      <line x1="0.215233" y1="0.001706" x2="0.215233" y2="0.011694" />
      <path d="M 0.213473,0.001709 A 0.00145,2.373388298870935e-06 1.0955988221629788e-20 0,1 0.213421,0.001708" />
      <path d="M 0.213421,0.001708 A 0.00145,2.373388298870935e-06 1.0955988221629788e-20 0,1 0.215233,0.001706" />
      <path d="M 0.215244,0.001694 A 0.0058,9.493553195483742e-06 -180.0 0,0 0.214029,0.0017" />
      <path d="M 0.214499,0.001704 A 0.0058,9.493553195483742e-06 -180.0 0,0 0.215233,0.001706" />
      <line x1="0.215244" y1="0.001694" x2="0.215244" y2="0.01169" />
      <path d="M 0.215244,0.001694 A 0.00145,2.373388298870935e-06 1.0955988221629788e-20 0,1 0.214499,0.001694" />
      <path d="M 0.213491,0.001692 A 0.00145,2.373388298870935e-06 1.0955988221629788e-20 0,1 0.213437,0.001692" />
      <path d="M 0.213437,0.001692 A 0.00145,2.373388298870935e-06 1.0955988221629788e-20 0,1 0.213491,0.001691" />
      <line x1="0.216337" y1="0.001692" x2="0.216337" y2="0.011692" />
      <line x1="0.225629" y1="0.0017" x2="0.225629" y2="0.0117" />
      <line x1="0.226221" y1="0.001708" x2="0.226221" y2="0.011708" />
      <line x1="0.223321" y1="0.001708" x2="0.223321" y2="0.011708" />
      <line x1="0.216321" y1="0.001708" x2="0.216321" y2="0.011708" />
      <line x1="0.225629" y1="-0.0439" x2="0.225629" y2="-0.0339" />
      <line x1="0.214029" y1="-0.0439" x2="0.214029" y2="-0.0339" />
      <line x1="0.213421" y1="0.001708" x2="0.213421" y2="0.011708" />
      <line x1="0.214029" y1="0.0017" x2="0.214029" y2="0.0117" />
      <line x1="0.213437" y1="0.001692" x2="0.213437" y2="0.011692" />
      <line x1="0.258356" y1="0.001682" x2="0.258356" y2="0.001727" />
      <line x1="0.258356" y1="0.001727" x2="0.258356" y2="0.011727" />
      <line x1="0.259356" y1="0.001727" x2="0.259356" y2="0.011727" />
      <line x1="0.258356" y1="0.001727" x2="0.259356" y2="0.001727" />
      <path d="M 0.261304,0.001736 A 0.008294306588619054,1.3598830577853647e-05 1.1737255385165707e-23 0,1 0.259356,0.001727" />
      <line x1="0.261304" y1="0.001736" x2="0.261304" y2="0.011735" />
      <path d="M 0.26306,0.001733 A 0.00145,2.377330054925152e-06 -180.0 0,0 0.26125,0.001735" />
      <path d="M 0.26125,0.001735 A 0.00145,2.377330054925152e-06 -180.0 0,0 0.261304,0.001736" />
      <line x1="0.26306" y1="0.001733" x2="0.26306" y2="0.011721" />
      <path d="M 0.271196,0.00172 A 0.0058,9.509320219700608e-06 180.0 0,0 0.26185,0.001727" />
      <path d="M 0.26185,0.001727 A 0.0058,9.509320219700608e-06 180.0 0,0 0.26306,0.001733" />
      <line x1="0.271196" y1="0.00172" x2="0.271196" y2="0.011718" />
      <path d="M 0.272241,0.001721 A 0.00145,2.377330054925152e-06 -180.0 0,0 0.27405,0.001719" />
      <path d="M 0.27405,0.001719 A 0.0014500000000000066,2.377330054925163e-06 -180.0 0,0 0.27115,0.001719" />
      <path d="M 0.27115,0.001719 A 0.00145,2.377330054925152e-06 -180.0 0,0 0.271196,0.00172" />
      <line x1="0.272241" y1="0.001721" x2="0.272241" y2="0.011717" />
      <path d="M 0.272241,0.001733 A 0.0058,9.509320219700608e-06 180.0 0,0 0.27345,0.001727" />
      <path d="M 0.27345,0.001727 A 0.0058,9.509320219700608e-06 180.0 0,0 0.272241,0.001721" />
      <line x1="0.272241" y1="0.001733" x2="0.272241" y2="0.011721" />
      <path d="M 0.273997,0.001736 A 0.00145,2.377330054925152e-06 -180.0 0,0 0.27405,0.001735" />
      <path d="M 0.27405,0.001735 A 0.00145,2.377330054925152e-06 -180.0 0,0 0.272241,0.001733" />
      <line x1="0.273997" y1="0.001736" x2="0.273997" y2="0.011735" />
      <path d="M 0.275945,0.001727 A 0.008294306588619054,1.3598830577853647e-05 1.1737255385165707e-23 0,1 0.273997,0.001736" />
      <line x1="0.275945" y1="0.001727" x2="0.275945" y2="0.011727" />
      <line x1="0.276945" y1="0.001727" x2="0.276945" y2="0.011727" />
      <line x1="0.275945" y1="0.001727" x2="0.276945" y2="0.001727" />
      <line x1="0.276945" y1="0.001682" x2="0.276945" y2="0.001727" />
      <line x1="0.259356" y1="0.001682" x2="0.259356" y2="0.001699" />
      <line x1="0.259356" y1="0.001699" x2="0.275945" y2="0.001699" />
      <line x1="0.275945" y1="0.001682" x2="0.275945" y2="0.001699" />
      <line x1="0.259356" y1="-0.033901" x2="0.259356" y2="0.001699" />
      <line x1="0.259356" y1="-0.033901" x2="0.259356" y2="-0.033918" />
      <path d="M 0.275945,-0.033873 A 0.00829450000000001,1.3599147683156345e-05 1.1737255385165707e-23 1,1 0.259356,-0.033873" />
      <line x1="0.275945" y1="-0.033901" x2="0.259356" y2="-0.033901" />
      <path d="M 0.26765,-0.033882 A 0.0058,9.509320219700608e-06 1.1737255385165707e-23 0,1 0.27345,-0.033873" />
      <path d="M 0.27345,-0.033873 A 0.0058,9.509320219700608e-06 1.1737255385165707e-23 1,1 0.26185,-0.033873" />
      <path d="M 0.26185,-0.033873 A 0.0058,9.509320219700608e-06 1.1737255385165707e-23 0,1 0.26765,-0.033882" />
      <line x1="0.258356" y1="-0.043918" x2="0.258356" y2="-0.043873" />
      <line x1="0.258356" y1="-0.043873" x2="0.258356" y2="-0.033873" />
      <line x1="0.276945" y1="-0.043918" x2="0.276945" y2="-0.043873" />
      <line x1="0.275945" y1="-0.043873" x2="0.276945" y2="-0.043873" />
      <path d="M 0.275945,-0.043873 A 0.00829450000000001,1.3599147683156345e-05 1.1737255385165707e-23 1,1 0.259356,-0.043873" />
      <line x1="0.258356" y1="-0.043873" x2="0.259356" y2="-0.043873" />
      <path d="M 0.26765,-0.043882 A 0.0058,9.509320219700608e-06 1.1737255385165707e-23 0,1 0.27345,-0.043873" />
      <path d="M 0.27345,-0.043873 A 0.0058,9.509320219700608e-06 1.1737255385165707e-23 1,1 0.26185,-0.043873" />
      <path d="M 0.26185,-0.043873 A 0.0058,9.509320219700608e-06 1.1737255385165707e-23 0,1 0.26765,-0.043882" />
      <line x1="0.276945" y1="-0.043873" x2="0.276945" y2="-0.033873" />
      <line x1="0.275945" y1="-0.033901" x2="0.275945" y2="0.001699" />
      <line x1="0.259356" y1="-0.043873" x2="0.259356" y2="-0.033873" />
      <line x1="0.275945" y1="-0.043873" x2="0.275945" y2="-0.033873" />
      <line x1="0.26231" y1="0.001738" x2="0.26231" y2="0.011733" />
      <path d="M 0.272991,0.001738 A 0.008294306588619054,1.3598830577853647e-05 1.1737255385165707e-23 0,1 0.26231,0.001738" />
      <line x1="0.272991" y1="0.001738" x2="0.272991" y2="0.011733" />
      <line x1="0.271196" y1="0.001735" x2="0.271196" y2="0.01172" />
      <path d="M 0.272991,0.001738 A 0.00145,2.377330054925152e-06 1.1737255385165707e-23 0,1 0.27115,0.001735" />
      <path d="M 0.27115,0.001735 A 0.00145,2.377330054925152e-06 1.1737255385165707e-23 0,1 0.271196,0.001735" />
      <path d="M 0.264105,0.001735 A 0.0058,9.509320219700608e-06 180.0 0,0 0.271196,0.001735" />
      <line x1="0.264105" y1="0.001735" x2="0.264105" y2="0.01172" />
      <path d="M 0.264105,0.001735 A 0.00145,2.377330054925152e-06 1.1737255385165707e-23 0,1 0.26415,0.001735" />
      <path d="M 0.26415,0.001735 A 0.00145,2.377330054925152e-06 1.1737255385165707e-23 0,1 0.26231,0.001738" />
      <line x1="0.26125" y1="0.001735" x2="0.26125" y2="0.011735" />
      <line x1="0.26185" y1="0.001727" x2="0.26185" y2="0.011727" />
      <line x1="0.27405" y1="0.001719" x2="0.27405" y2="0.011719" />
      <line x1="0.27115" y1="0.001719" x2="0.27115" y2="0.011719" />
      <line x1="0.27345" y1="0.001727" x2="0.27345" y2="0.011727" />
      <line x1="0.27405" y1="0.001735" x2="0.27405" y2="0.011735" />
      <line x1="0.27345" y1="-0.043873" x2="0.27345" y2="-0.033873" />
      <line x1="0.26185" y1="-0.043873" x2="0.26185" y2="-0.033873" />
      <line x1="0.27115" y1="0.001735" x2="0.27115" y2="0.011735" />
      <line x1="0.26415" y1="0.001735" x2="0.26415" y2="0.011735" />
    </g>
  </g>
  <text x="0.018703" y="-0.018075" text-anchor="middle" font-family="'Input Sans Narrow', 'DejaVu Sans', Arial, sans-serif" font-size="0.002500" font-weight="bold" fill="#333">A-A</text>
  <text x="0.018703" y="-0.014575" text-anchor="middle" font-family="'Input Sans Narrow', 'DejaVu Sans', Arial, sans-serif" font-size="0.001800" fill="#888">front_horn</text>
  <line x1="0.000000" y1="0.010800" x2="0.000000" y2="0.013800" stroke="#5C7080" stroke-width="0.000140" stroke-opacity="0.5"/>
  <line x1="0.037406" y1="0.010800" x2="0.037406" y2="0.013800" stroke="#5C7080" stroke-width="0.000140" stroke-opacity="0.5"/>
  <line x1="0.000000" y1="0.012200" x2="0.000000" y2="0.013800" stroke="#5C7080" stroke-width="0.000200"/>
  <line x1="0.037406" y1="0.012200" x2="0.037406" y2="0.013800" stroke="#5C7080" stroke-width="0.000200"/>
  <line x1="0.000000" y1="0.013000" x2="0.037406" y2="0.013000" stroke="#5C7080" stroke-width="0.000200"/>
  <polygon points="0.000000,0.013000 0.001500,0.012400 0.001500,0.013600" fill="#5C7080"/>
  <polygon points="0.037406,0.013000 0.035906,0.012400 0.035906,0.013600" fill="#5C7080"/>
  <text x="0.018703" y="0.011800" text-anchor="middle" font-family="'Input Sans Narrow', 'DejaVu Sans', Arial, sans-serif" font-size="0.001600" fill="#5C7080">37.4</text>
  <line x1="0.038206" y1="-0.010000" x2="0.041206" y2="-0.010000" stroke="#5C7080" stroke-width="0.000140" stroke-opacity="0.5"/>
  <line x1="0.038206" y1="0.010000" x2="0.041206" y2="0.010000" stroke="#5C7080" stroke-width="0.000140" stroke-opacity="0.5"/>
  <line x1="0.039606" y1="-0.010000" x2="0.041206" y2="-0.010000" stroke="#5C7080" stroke-width="0.000200"/>
  <line x1="0.039606" y1="0.010000" x2="0.041206" y2="0.010000" stroke="#5C7080" stroke-width="0.000200"/>
  <line x1="0.040406" y1="-0.010000" x2="0.040406" y2="0.010000" stroke="#5C7080" stroke-width="0.000200"/>
  <polygon points="0.040406,-0.010000 0.039806,-0.008500 0.041006,-0.008500" fill="#5C7080"/>
  <polygon points="0.040406,0.010000 0.039806,0.008500 0.041006,0.008500" fill="#5C7080"/>
  <text x="0.041906" y="0.000000" text-anchor="middle" dominant-baseline="central" font-family="'Input Sans Narrow', 'DejaVu Sans', Arial, sans-serif" font-size="0.001600" fill="#5C7080" transform="rotate(-90 0.041906 0.000000)">20.0</text>
  <text x="0.075709" y="-0.018075" text-anchor="middle" font-family="'Input Sans Narrow', 'DejaVu Sans', Arial, sans-serif" font-size="0.002500" font-weight="bold" fill="#333">B-B</text>
  <text x="0.075709" y="-0.014575" text-anchor="middle" font-family="'Input Sans Narrow', 'DejaVu Sans', Arial, sans-serif" font-size="0.001800" fill="#888">rear_horn</text>
  <line x1="0.045406" y1="0.013200" x2="0.045406" y2="0.016200" stroke="#5C7080" stroke-width="0.000140" stroke-opacity="0.5"/>
  <line x1="0.106012" y1="0.013200" x2="0.106012" y2="0.016200" stroke="#5C7080" stroke-width="0.000140" stroke-opacity="0.5"/>
  <line x1="0.045406" y1="0.014600" x2="0.045406" y2="0.016200" stroke="#5C7080" stroke-width="0.000200"/>
  <line x1="0.106012" y1="0.014600" x2="0.106012" y2="0.016200" stroke="#5C7080" stroke-width="0.000200"/>
  <line x1="0.045406" y1="0.015400" x2="0.106012" y2="0.015400" stroke="#5C7080" stroke-width="0.000200"/>
  <polygon points="0.045406,0.015400 0.046906,0.014800 0.046906,0.016000" fill="#5C7080"/>
  <polygon points="0.106012,0.015400 0.104512,0.014800 0.104512,0.016000" fill="#5C7080"/>
  <text x="0.075709" y="0.014200" text-anchor="middle" font-family="'Input Sans Narrow', 'DejaVu Sans', Arial, sans-serif" font-size="0.001600" fill="#5C7080">60.6</text>
  <line x1="0.106812" y1="-0.012400" x2="0.109812" y2="-0.012400" stroke="#5C7080" stroke-width="0.000140" stroke-opacity="0.5"/>
  <line x1="0.106812" y1="0.012400" x2="0.109812" y2="0.012400" stroke="#5C7080" stroke-width="0.000140" stroke-opacity="0.5"/>
  <line x1="0.108212" y1="-0.012400" x2="0.109812" y2="-0.012400" stroke="#5C7080" stroke-width="0.000200"/>
  <line x1="0.108212" y1="0.012400" x2="0.109812" y2="0.012400" stroke="#5C7080" stroke-width="0.000200"/>
  <line x1="0.109012" y1="-0.012400" x2="0.109012" y2="0.012400" stroke="#5C7080" stroke-width="0.000200"/>
  <polygon points="0.109012,-0.012400 0.108412,-0.010900 0.109612,-0.010900" fill="#5C7080"/>
  <polygon points="0.109012,0.012400 0.108412,0.010900 0.109612,0.010900" fill="#5C7080"/>
  <text x="0.110512" y="0.000000" text-anchor="middle" dominant-baseline="central" font-family="'Input Sans Narrow', 'DejaVu Sans', Arial, sans-serif" font-size="0.001600" fill="#5C7080" transform="rotate(-90 0.110512 0.000000)">24.8</text>
  <text x="0.145315" y="-0.018075" text-anchor="middle" font-family="'Input Sans Narrow', 'DejaVu Sans', Arial, sans-serif" font-size="0.002500" font-weight="bold" fill="#333">C-C</text>
  <text x="0.145315" y="-0.014575" text-anchor="middle" font-family="'Input Sans Narrow', 'DejaVu Sans', Arial, sans-serif" font-size="0.001800" fill="#888">mid_body</text>
  <line x1="0.114012" y1="0.013200" x2="0.114012" y2="0.016200" stroke="#5C7080" stroke-width="0.000140" stroke-opacity="0.5"/>
  <line x1="0.176619" y1="0.013200" x2="0.176619" y2="0.016200" stroke="#5C7080" stroke-width="0.000140" stroke-opacity="0.5"/>
  <line x1="0.114012" y1="0.014600" x2="0.114012" y2="0.016200" stroke="#5C7080" stroke-width="0.000200"/>
  <line x1="0.176619" y1="0.014600" x2="0.176619" y2="0.016200" stroke="#5C7080" stroke-width="0.000200"/>
  <line x1="0.114012" y1="0.015400" x2="0.176619" y2="0.015400" stroke="#5C7080" stroke-width="0.000200"/>
  <polygon points="0.114012,0.015400 0.115512,0.014800 0.115512,0.016000" fill="#5C7080"/>
  <polygon points="0.176619,0.015400 0.175119,0.014800 0.175119,0.016000" fill="#5C7080"/>
  <text x="0.145315" y="0.014200" text-anchor="middle" font-family="'Input Sans Narrow', 'DejaVu Sans', Arial, sans-serif" font-size="0.001600" fill="#5C7080">62.6</text>
  <line x1="0.177419" y1="-0.012400" x2="0.180419" y2="-0.012400" stroke="#5C7080" stroke-width="0.000140" stroke-opacity="0.5"/>
  <line x1="0.177419" y1="0.012400" x2="0.180419" y2="0.012400" stroke="#5C7080" stroke-width="0.000140" stroke-opacity="0.5"/>
  <line x1="0.178819" y1="-0.012400" x2="0.180419" y2="-0.012400" stroke="#5C7080" stroke-width="0.000200"/>
  <line x1="0.178819" y1="0.012400" x2="0.180419" y2="0.012400" stroke="#5C7080" stroke-width="0.000200"/>
  <line x1="0.179619" y1="-0.012400" x2="0.179619" y2="0.012400" stroke="#5C7080" stroke-width="0.000200"/>
  <polygon points="0.179619,-0.012400 0.179019,-0.010900 0.180219,-0.010900" fill="#5C7080"/>
  <polygon points="0.179619,0.012400 0.179019,0.010900 0.180219,0.010900" fill="#5C7080"/>
  <text x="0.181119" y="0.000000" text-anchor="middle" dominant-baseline="central" font-family="'Input Sans Narrow', 'DejaVu Sans', Arial, sans-serif" font-size="0.001600" fill="#5C7080" transform="rotate(-90 0.181119 0.000000)">24.8</text>
  <text x="0.215934" y="-0.018075" text-anchor="middle" font-family="'Input Sans Narrow', 'DejaVu Sans', Arial, sans-serif" font-size="0.002500" font-weight="bold" fill="#333">side_XZ</text>
  <line x1="0.184619" y1="0.044715" x2="0.184619" y2="0.047715" stroke="#5C7080" stroke-width="0.000140" stroke-opacity="0.5"/>
  <line x1="0.247250" y1="0.044715" x2="0.247250" y2="0.047715" stroke="#5C7080" stroke-width="0.000140" stroke-opacity="0.5"/>
  <line x1="0.184619" y1="0.046115" x2="0.184619" y2="0.047715" stroke="#5C7080" stroke-width="0.000200"/>
  <line x1="0.247250" y1="0.046115" x2="0.247250" y2="0.047715" stroke="#5C7080" stroke-width="0.000200"/>
  <line x1="0.184619" y1="0.046915" x2="0.247250" y2="0.046915" stroke="#5C7080" stroke-width="0.000200"/>
  <polygon points="0.184619,0.046915 0.186119,0.046315 0.186119,0.047515" fill="#5C7080"/>
  <polygon points="0.247250,0.046915 0.245750,0.046315 0.245750,0.047515" fill="#5C7080"/>
  <text x="0.215934" y="0.045715" text-anchor="middle" font-family="'Input Sans Narrow', 'DejaVu Sans', Arial, sans-serif" font-size="0.001600" fill="#5C7080">62.6</text>
  <line x1="0.248050" y1="-0.011715" x2="0.251050" y2="-0.011715" stroke="#5C7080" stroke-width="0.000140" stroke-opacity="0.5"/>
  <line x1="0.248050" y1="0.043915" x2="0.251050" y2="0.043915" stroke="#5C7080" stroke-width="0.000140" stroke-opacity="0.5"/>
  <line x1="0.249450" y1="-0.011715" x2="0.251050" y2="-0.011715" stroke="#5C7080" stroke-width="0.000200"/>
  <line x1="0.249450" y1="0.043915" x2="0.251050" y2="0.043915" stroke="#5C7080" stroke-width="0.000200"/>
  <line x1="0.250250" y1="-0.011715" x2="0.250250" y2="0.043915" stroke="#5C7080" stroke-width="0.000200"/>
  <polygon points="0.250250,-0.011715 0.249650,-0.010215 0.250850,-0.010215" fill="#5C7080"/>
  <polygon points="0.250250,0.043915 0.249650,0.042415 0.250850,0.042415" fill="#5C7080"/>
  <text x="0.251750" y="0.016100" text-anchor="middle" dominant-baseline="central" font-family="'Input Sans Narrow', 'DejaVu Sans', Arial, sans-serif" font-size="0.001600" fill="#5C7080" transform="rotate(-90 0.251750 0.016100)">55.6</text>
  <line x1="0.181619" y1="-0.001700" x2="0.250250" y2="-0.001700" stroke="#555" stroke-width="0.000250" stroke-dasharray="0.002500,0.000800,0.000500,0.000800"/>
  <text x="0.180119" y="-0.001100" text-anchor="end" font-family="'Input Sans Narrow', 'DejaVu Sans', Arial, sans-serif" font-size="0.002000" font-weight="bold" fill="#555">A</text>
  <text x="0.251750" y="-0.001100" text-anchor="start" font-family="'Input Sans Narrow', 'DejaVu Sans', Arial, sans-serif" font-size="0.002000" font-weight="bold" fill="#555">A</text>
  <line x1="0.181619" y1="0.033900" x2="0.250250" y2="0.033900" stroke="#555" stroke-width="0.000250" stroke-dasharray="0.002500,0.000800,0.000500,0.000800"/>
  <text x="0.180119" y="0.034500" text-anchor="end" font-family="'Input Sans Narrow', 'DejaVu Sans', Arial, sans-serif" font-size="0.002000" font-weight="bold" fill="#555">B</text>
  <text x="0.251750" y="0.034500" text-anchor="start" font-family="'Input Sans Narrow', 'DejaVu Sans', Arial, sans-serif" font-size="0.002000" font-weight="bold" fill="#555">B</text>
  <line x1="0.181619" y1="0.016100" x2="0.250250" y2="0.016100" stroke="#555" stroke-width="0.000250" stroke-dasharray="0.002500,0.000800,0.000500,0.000800"/>
  <text x="0.180119" y="0.016700" text-anchor="end" font-family="'Input Sans Narrow', 'DejaVu Sans', Arial, sans-serif" font-size="0.002000" font-weight="bold" fill="#555">C</text>
  <text x="0.251750" y="0.016700" text-anchor="start" font-family="'Input Sans Narrow', 'DejaVu Sans', Arial, sans-serif" font-size="0.002000" font-weight="bold" fill="#555">C</text>
  <text x="0.267650" y="-0.018075" text-anchor="middle" font-family="'Input Sans Narrow', 'DejaVu Sans', Arial, sans-serif" font-size="0.002500" font-weight="bold" fill="#333">side_YZ</text>
  <line x1="0.255250" y1="0.044718" x2="0.255250" y2="0.047718" stroke="#5C7080" stroke-width="0.000140" stroke-opacity="0.5"/>
  <line x1="0.280050" y1="0.044718" x2="0.280050" y2="0.047718" stroke="#5C7080" stroke-width="0.000140" stroke-opacity="0.5"/>
  <line x1="0.255250" y1="0.046118" x2="0.255250" y2="0.047718" stroke="#5C7080" stroke-width="0.000200"/>
  <line x1="0.280050" y1="0.046118" x2="0.280050" y2="0.047718" stroke="#5C7080" stroke-width="0.000200"/>
  <line x1="0.255250" y1="0.046918" x2="0.280050" y2="0.046918" stroke="#5C7080" stroke-width="0.000200"/>
  <polygon points="0.255250,0.046918 0.256750,0.046318 0.256750,0.047518" fill="#5C7080"/>
  <polygon points="0.280050,0.046918 0.278550,0.046318 0.278550,0.047518" fill="#5C7080"/>
  <text x="0.267650" y="0.045718" text-anchor="middle" font-family="'Input Sans Narrow', 'DejaVu Sans', Arial, sans-serif" font-size="0.001600" fill="#5C7080">24.8</text>
  <line x1="0.280850" y1="-0.011741" x2="0.283850" y2="-0.011741" stroke="#5C7080" stroke-width="0.000140" stroke-opacity="0.5"/>
  <line x1="0.280850" y1="0.043918" x2="0.283850" y2="0.043918" stroke="#5C7080" stroke-width="0.000140" stroke-opacity="0.5"/>
  <line x1="0.282250" y1="-0.011741" x2="0.283850" y2="-0.011741" stroke="#5C7080" stroke-width="0.000200"/>
  <line x1="0.282250" y1="0.043918" x2="0.283850" y2="0.043918" stroke="#5C7080" stroke-width="0.000200"/>
  <line x1="0.283050" y1="-0.011741" x2="0.283050" y2="0.043918" stroke="#5C7080" stroke-width="0.000200"/>
  <polygon points="0.283050,-0.011741 0.282450,-0.010241 0.283650,-0.010241" fill="#5C7080"/>
  <polygon points="0.283050,0.043918 0.282450,0.042418 0.283650,0.042418" fill="#5C7080"/>
  <text x="0.284550" y="0.016088" text-anchor="middle" dominant-baseline="central" font-family="'Input Sans Narrow', 'DejaVu Sans', Arial, sans-serif" font-size="0.001600" fill="#5C7080" transform="rotate(-90 0.284550 0.016088)">55.7</text>
  <line x1="0.252250" y1="-0.001700" x2="0.283050" y2="-0.001700" stroke="#555" stroke-width="0.000250" stroke-dasharray="0.002500,0.000800,0.000500,0.000800"/>
  <text x="0.250750" y="-0.001100" text-anchor="end" font-family="'Input Sans Narrow', 'DejaVu Sans', Arial, sans-serif" font-size="0.002000" font-weight="bold" fill="#555">A</text>
  <text x="0.284550" y="-0.001100" text-anchor="start" font-family="'Input Sans Narrow', 'DejaVu Sans', Arial, sans-serif" font-size="0.002000" font-weight="bold" fill="#555">A</text>
  <line x1="0.252250" y1="0.033900" x2="0.283050" y2="0.033900" stroke="#555" stroke-width="0.000250" stroke-dasharray="0.002500,0.000800,0.000500,0.000800"/>
  <text x="0.250750" y="0.034500" text-anchor="end" font-family="'Input Sans Narrow', 'DejaVu Sans', Arial, sans-serif" font-size="0.002000" font-weight="bold" fill="#555">B</text>
  <text x="0.284550" y="0.034500" text-anchor="start" font-family="'Input Sans Narrow', 'DejaVu Sans', Arial, sans-serif" font-size="0.002000" font-weight="bold" fill="#555">B</text>
  <line x1="0.252250" y1="0.016100" x2="0.283050" y2="0.016100" stroke="#555" stroke-width="0.000250" stroke-dasharray="0.002500,0.000800,0.000500,0.000800"/>
  <text x="0.250750" y="0.016700" text-anchor="end" font-family="'Input Sans Narrow', 'DejaVu Sans', Arial, sans-serif" font-size="0.002000" font-weight="bold" fill="#555">C</text>
  <text x="0.284550" y="0.016700" text-anchor="start" font-family="'Input Sans Narrow', 'DejaVu Sans', Arial, sans-serif" font-size="0.002000" font-weight="bold" fill="#555">C</text>
  <text x="-0.001175" y="0.052093" font-family="'Input Sans Narrow', 'DejaVu Sans', Arial, sans-serif" font-size="0.003500" font-weight="bold" fill="#222">coupler</text>
  <line x1="-0.001175" y1="0.056093" x2="0.008825" y2="0.056093" stroke="#333" stroke-width="0.000350"/>
  <line x1="-0.001175" y1="0.055093" x2="-0.001175" y2="0.057093" stroke="#333" stroke-width="0.000250"/>
  <line x1="0.008825" y1="0.055093" x2="0.008825" y2="0.057093" stroke="#333" stroke-width="0.000250"/>
  <text x="0.010325" y="0.056793" font-family="'Input Sans Narrow', 'DejaVu Sans', Arial, sans-serif" font-size="0.001800" fill="#888">10 mm</text>
  <rect x="0.028825" y="0.049593" width="0.004000" height="0.002500" fill="url(#hatch_servo)" stroke="rgb(60,60,60)" stroke-width="0.000300"/>
  <text x="0.034325" y="0.051593" font-family="'Input Sans Narrow', 'DejaVu Sans', Arial, sans-serif" font-size="0.001800" fill="rgb(60,60,60)">servo</text>
  <rect x="0.028825" y="0.053093" width="0.004000" height="0.002500" fill="url(#hatch_coupler)" stroke="rgb(220,60,40)" stroke-width="0.000300"/>
  <text x="0.034325" y="0.055093" font-family="'Input Sans Narrow', 'DejaVu Sans', Arial, sans-serif" font-size="0.001800" fill="rgb(220,60,40)">coupler</text>
</svg>