<?xml version='1.0' encoding='utf-8'?>
<svg width="242.692mm" height="69.8mm" viewBox="-0.0031 -0.0218 0.242692 0.0698" version="1.1" xmlns="http://www.w3.org/2000/svg">
  <g transform="scale(1,-1)" stroke-linecap="round">
    <g fill="none" stroke="rgb(60,60,60)" stroke-width="0.0002" id="servo">
      <line x1="0.0" y1="0.0124" x2="0.0454" y2="0.0124" />
      <line x1="0.0454" y1="0.0124" x2="0.0454" y2="-0.0124" />
      <line x1="0.0" y1="-0.0124" x2="0.0454" y2="-0.0124" />
      <line x1="0.0" y1="0.0124" x2="0.0" y2="-0.0124" />
      <line x1="0.09809" y1="0.01335" x2="0.09809" y2="0.0124" />
      <line x1="0.09809" y1="0.01335" x2="0.12879" y2="0.01335" />
      <line x1="0.12879" y1="0.01335" x2="0.12879" y2="0.0124" />
      <line x1="0.09809" y1="0.0124" x2="0.12879" y2="0.0124" />
      <line x1="0.09809" y1="-0.0124" x2="0.12879" y2="-0.0124" />
      <line x1="0.12879" y1="-0.0124" x2="0.12879" y2="-0.01335" />
      <line x1="0.09809" y1="-0.01335" x2="0.12879" y2="-0.01335" />
      <line x1="0.09809" y1="-0.0124" x2="0.09809" y2="-0.01335" />
      <line x1="0.193491" y1="0.0159" x2="0.193491" y2="0.0187" />
      <line x1="0.193491" y1="0.0159" x2="0.199691" y2="0.0159" />
      <line x1="0.199691" y1="0.0159" x2="0.199691" y2="-0.0159" />
      <line x1="0.154291" y1="-0.0159" x2="0.199691" y2="-0.0159" />
      <line x1="0.154291" y1="0.0159" x2="0.154291" y2="-0.0159" />
      <line x1="0.154291" y1="0.0159" x2="0.185491" y2="0.0159" />
      <line x1="0.185491" y1="0.0159" x2="0.185491" y2="0.0187" />
      <line x1="0.185491" y1="0.0187" x2="0.193491" y2="0.0187" />
      <line x1="0.210742" y1="0.0159" x2="0.235542" y2="0.0159" />
      <line x1="0.235542" y1="0.0159" x2="0.235542" y2="-0.0159" />
      <line x1="0.210742" y1="-0.0159" x2="0.235542" y2="-0.0159" />
      <line x1="0.210742" y1="0.0159" x2="0.210742" y2="-0.0159" />
      <line x1="0.235542" y1="-0.0159" x2="0.236492" y2="-0.0159" />
      <line x1="0.236492" y1="-0.0159" x2="0.236492" y2="-0.0201" />
      <line x1="0.235542" y1="-0.0201" x2="0.236492" y2="-0.0201" />
      <line x1="0.235542" y1="-0.0159" x2="0.235542" y2="-0.0201" />
      <line x1="0.210742" y1="-0.0159" x2="0.210742" y2="-0.0201" />
      <line x1="0.209792" y1="-0.0201" x2="0.210742" y2="-0.0201" />
      <line x1="0.209792" y1="-0.0159" x2="0.209792" y2="-0.0201" />
      <line x1="0.209792" y1="-0.0159" x2="0.210742" y2="-0.0159" />
    </g>
    <g fill="rgb(60,60,60)" fill-opacity="0.15" stroke="rgb(60,60,60)" stroke-opacity="0.0" stroke-width="0.0" id="servo_fill">
      <path d="M 0.0454,0.0124 L 0.0,0.0124 L 0.0,-0.0124 L 0.0454,-0.0124 L 0.0454,0.0124" />
      <path d="M 0.09809,0.01335 L 0.09809,0.0124 L 0.12879,0.0124 L 0.12879,0.01335 L 0.09809,0.01335" />
      <path d="M 0.12879,-0.0124 L 0.09809,-0.0124 L 0.09809,-0.01335 L 0.12879,-0.01335 L 0.12879,-0.0124" />
      <path d="M 0.193491,0.0159 L 0.193491,0.0187 L 0.185491,0.0187 L 0.185491,0.0159 L 0.154291,0.0159 L 0.154291,-0.0159 L 0.199691,-0.0159 L 0.199691,0.0159 L 0.193491,0.0159" />
      <path d="M 0.235542,0.0159 L 0.210742,0.0159 L 0.210742,-0.0159 L 0.235542,-0.0159 L 0.235542,0.0159" />
      <path d="M 0.236492,-0.0159 L 0.235542,-0.0159 L 0.235542,-0.0201 L 0.236492,-0.0201 L 0.236492,-0.0159" />
      <path d="M 0.210742,-0.0201 L 0.210742,-0.0159 L 0.209792,-0.0159 L 0.209792,-0.0201 L 0.210742,-0.0201" />
    </g>
    <g fill="none" stroke="rgb(220,60,40)" stroke-width="0.0002" id="coupler">
      <line x1="0.050501" y1="-0.010789" x2="0.0227" y2="-0.010789" />
      <line x1="0.050501" y1="-0.010789" x2="0.050501" y2="-0.009789" />
      <line x1="0.0227" y1="-0.010789" x2="0.0227" y2="-0.009789" />
      <line x1="0.050501" y1="-0.009789" x2="0.040501" y2="-0.009789" />
      <path d="M 0.0227,0.009789 A 0.009789105352524866,0.009789105352524866 0.0 1,1 0.0227,-0.009789" />
      <line x1="0.040501" y1="-0.009789" x2="0.040501" y2="0.009789" />
      <line x1="0.0227" y1="0.009789" x2="0.0227" y2="0.010789" />
      <line x1="0.050501" y1="0.009789" x2="0.040501" y2="0.009789" />
      <line x1="0.050501" y1="0.010789" x2="0.0227" y2="0.010789" />
      <line x1="0.050501" y1="0.009789" x2="0.050501" y2="0.010789" />
      <circle cx="0.01775" cy="-0.00495" r="0.00125" />
      <circle cx="0.0227" cy="0.0" r="0.0053" />
      <circle cx="0.02765" cy="-0.00495" r="0.00125" />
      <circle cx="0.01775" cy="0.00495" r="0.00125" />
      <circle cx="0.02765" cy="0.00495" r="0.00125" />
      <line x1="0.050501" y1="-0.009789" x2="0.040501" y2="-0.009789" />
      <line x1="0.040501" y1="-0.009789" x2="0.040501" y2="0.009789" />
      <line x1="0.050501" y1="0.009789" x2="0.040501" y2="0.009789" />
      <line x1="0.050501" y1="0.009789" x2="0.050501" y2="-0.009789" />
      <line x1="0.09309" y1="-0.010789" x2="0.06529" y2="-0.010789" />
      <line x1="0.09309" y1="-0.010789" x2="0.09309" y2="0.010789" />
      <line x1="0.09309" y1="0.010789" x2="0.06529" y2="0.010789" />
      <line x1="0.06529" y1="0.009789" x2="0.06529" y2="0.010789" />
      <path d="M 0.06529,0.009789 A 0.009789105352524866,0.009789105352524866 0.0 1,1 0.06529,-0.009789" />
      <line x1="0.06529" y1="-0.010789" x2="0.06529" y2="-0.009789" />
      <circle cx="0.06034" cy="-0.00495" r="0.00125" />
      <circle cx="0.06529" cy="0.0" r="0.0053" />
      <circle cx="0.07024" cy="-0.00495" r="0.00125" />
      <circle cx="0.06034" cy="0.00495" r="0.00125" />
      <circle cx="0.07024" cy="0.00495" r="0.00125" />
      <line x1="0.149291" y1="0.009789" x2="0.149291" y2="-0.009789" />
      <line x1="0.139291" y1="-0.009789" x2="0.149291" y2="-0.009789" />
      <line x1="0.139291" y1="0.009789" x2="0.139291" y2="-0.009789" />
      <line x1="0.139291" y1="0.009789" x2="0.149291" y2="0.009789" />
      <line x1="0.182291" y1="0.0028" x2="0.182291" y2="0.0128" />
      <line x1="0.182291" y1="0.0128" x2="0.204792" y2="0.0128" />
      <line x1="0.204792" y1="0.0128" x2="0.204792" y2="-0.0449" />
      <line x1="0.182291" y1="-0.0449" x2="0.204792" y2="-0.0449" />
      <line x1="0.182291" y1="-0.0449" x2="0.182291" y2="-0.0349" />
      <line x1="0.182291" y1="-0.0349" x2="0.194792" y2="-0.0349" />
      <line x1="0.194792" y1="0.0028" x2="0.194792" y2="-0.0349" />
      <line x1="0.182291" y1="0.0028" x2="0.194792" y2="0.0028" />
      <line x1="0.167202" y1="0.0128" x2="0.171691" y2="0.0128" />
      <line x1="0.171691" y1="0.0028" x2="0.171691" y2="0.0128" />
      <line x1="0.167202" y1="0.0028" x2="0.171691" y2="0.0028" />
      <line x1="0.167202" y1="0.0028" x2="0.167202" y2="0.0128" />
      <line x1="0.167202" y1="-0.0349" x2="0.171691" y2="-0.0349" />
      <line x1="0.171691" y1="-0.0449" x2="0.171691" y2="-0.0349" />
      <line x1="0.167202" y1="-0.0449" x2="0.171691" y2="-0.0449" />
      <line x1="0.167202" y1="-0.0449" x2="0.167202" y2="-0.0349" />
      <line x1="0.212353" y1="0.0128" x2="0.213353" y2="0.0128" />
      <line x1="0.213353" y1="0.0028" x2="0.213353" y2="0.0128" />
      <line x1="0.212353" y1="0.0028" x2="0.213353" y2="0.0028" />
      <line x1="0.212353" y1="0.0028" x2="0.212353" y2="0.0128" />
      <line x1="0.213353" y1="0.0128" x2="0.217842" y2="0.0128" />
      <line x1="0.217842" y1="0.0028" x2="0.217842" y2="0.0128" />
      <line x1="0.213353" y1="0.0028" x2="0.217842" y2="0.0028" />
      <line x1="0.213353" y1="0.0028" x2="0.213353" y2="0.0128" />
      <line x1="0.232931" y1="0.0128" x2="0.233931" y2="0.0128" />
      <line x1="0.233931" y1="0.0028" x2="0.233931" y2="0.0128" />
      <line x1="0.232931" y1="0.0028" x2="0.233931" y2="0.0028" />
      <line x1="0.232931" y1="0.0028" x2="0.232931" y2="0.0128" />
      <line x1="0.232931" y1="0.0028" x2="0.232931" y2="0.0128" />
      <line x1="0.228442" y1="0.0028" x2="0.232931" y2="0.0028" />
      <line x1="0.228442" y1="0.0028" x2="0.228442" y2="0.0128" />
      <line x1="0.228442" y1="0.0128" x2="0.232931" y2="0.0128" />
      <line x1="0.212353" y1="-0.0349" x2="0.213353" y2="-0.0349" />
      <line x1="0.213353" y1="-0.0449" x2="0.213353" y2="-0.0349" />
      <line x1="0.212353" y1="-0.0449" x2="0.213353" y2="-0.0449" />
      <line x1="0.212353" y1="-0.0449" x2="0.212353" y2="-0.0349" />
      <line x1="0.213353" y1="-0.0349" x2="0.217842" y2="-0.0349" />
      <line x1="0.217842" y1="-0.0449" x2="0.217842" y2="-0.0349" />
      <line x1="0.213353" y1="-0.0449" x2="0.217842" y2="-0.0449" />
      <line x1="0.213353" y1="-0.0449" x2="0.213353" y2="-0.0349" />
      <line x1="0.232931" y1="-0.0349" x2="0.233931" y2="-0.0349" />
      <line x1="0.233931" y1="-0.0449" x2="0.233931" y2="-0.0349" />
      <line x1="0.232931" y1="-0.0449" x2="0.233931" y2="-0.0449" />
      <line x1="0.232931" y1="-0.0449" x2="0.232931" y2="-0.0349" />
      <line x1="0.232931" y1="-0.0449" x2="0.232931" y2="-0.0349" />
      <line x1="0.228442" y1="-0.0449" x2="0.232931" y2="-0.0449" />
      <line x1="0.228442" y1="-0.0449" x2="0.228442" y2="-0.0349" />
      <line x1="0.228442" y1="-0.0349" x2="0.232931" y2="-0.0349" />
    </g>
    <g fill="rgb(220,60,40)" fill-opacity="0.15" stroke="rgb(220,60,40)" stroke-opacity="0.0" stroke-width="0.0" id="coupler_fill">
      <path d="M 0.050501,-0.010789 L 0.0227,-0.010789 L 0.0227,-0.009789 A 0.009789105352524866,0.009789105352524866 0.0 1,0 0.0227,0.009789 L 0.0227,0.010789 L 0.050501,0.010789 L 0.050501,0.009789 L 0.040501,0.009789 L 0.040501,-0.009789 L 0.050501,-0.009789 L 0.050501,-0.010789 M 0.019,-0.00495 A 0.00125,0.00125 0.0 0,1 0.0165,-0.00495 A 0.00125,0.00125 0.0 0,1 0.019,-0.00495 M 0.028,0.0 A 0.005300000000000001,0.005300000000000001 0.0 0,1 0.0174,0.0 A 0.005300000000000001,0.005300000000000001 0.0 0,1 0.028,-0.0 M 0.0289,-0.00495 A 0.00125,0.00125 0.0 0,1 0.0264,-0.00495 A 0.00125,0.00125 0.0 0,1 0.0289,-0.00495 M 0.019,0.00495 A 0.00125,0.00125 0.0 0,1 0.0165,0.00495 A 0.00125,0.00125 0.0 0,1 0.019,0.00495 M 0.0289,0.00495 A 0.00125,0.00125 0.0 0,1 0.0264,0.00495 A 0.00125,0.00125 0.0 0,1 0.0289,0.00495" />
      <path d="M 0.040501,-0.009789 L 0.050501,-0.009789 L 0.050501,0.009789 L 0.040501,0.009789 L 0.040501,-0.009789" />
      <path d="M 0.06529,-0.010789 L 0.09309,-0.010789 L 0.09309,0.010789 L 0.06529,0.010789 L 0.06529,0.009789 A 0.009789105352524866,0.009789105352524866 0.0 1,1 0.06529,-0.009789 L 0.06529,-0.010789 M 0.06159,-0.00495 A 0.0012500000000000011,0.0012500000000000011 0.0 0,0 0.05909,-0.00495 A 0.0012500000000000011,0.0012500000000000011 0.0 0,0 0.06159,-0.00495 M 0.07059,-0.0 A 0.0053,0.0053 0.0 0,0 0.05999,0.0 A 0.0053,0.0053 0.0 0,0 0.07059,0.0 M 0.07149,-0.00495 A 0.0012500000000000011,0.0012500000000000011 0.0 0,0 0.06899,-0.00495 A 0.0012500000000000011,0.0012500000000000011 0.0 0,0 0.07149,-0.00495 M 0.06159,0.00495 A 0.0012500000000000011,0.0012500000000000011 0.0 0,0 0.05909,0.00495 A 0.0012500000000000011,0.0012500000000000011 0.0 0,0 0.06159,0.00495 M 0.07149,0.00495 A 0.0012500000000000011,0.0012500000000000011 0.0 0,0 0.06899,0.00495 A 0.0012500000000000011,0.0012500000000000011 0.0 0,0 0.07149,0.00495" />
      <path d="M 0.149291,-0.009789 L 0.149291,0.009789 L 0.139291,0.009789 L 0.139291,-0.009789 L 0.149291,-0.009789" />
      <path d="M 0.182291,0.0128 L 0.182291,0.0028 L 0.194792,0.0028 L 0.194792,-0.0349 L 0.182291,-0.0349 L 0.182291,-0.0449 L 0.204792,-0.0449 L 0.204792,0.0128 L 0.182291,0.0128" />
      <path d="M 0.171691,0.0128 L 0.167202,0.0128 L 0.167202,0.0028 L 0.171691,0.0028 L 0.171691,0.0128" />
      <path d="M 0.171691,-0.0349 L 0.167202,-0.0349 L 0.167202,-0.0449 L 0.171691,-0.0449 L 0.171691,-0.0349" />
      <path d="M 0.212353,0.0128 L 0.213353,0.0128 L 0.213353,0.0028 L 0.212353,0.0028 L 0.212353,0.0128" />
      <path d="M 0.217842,0.0128 L 0.213353,0.0128 L 0.213353,0.0028 L 0.217842,0.0028 L 0.217842,0.0128" />
      <path d="M 0.232931,0.0128 L 0.233931,0.0128 L 0.233931,0.0028 L 0.232931,0.0028 L 0.232931,0.0128" />
      <path d="M 0.232931,0.0028 L 0.232931,0.0128 L 0.228442,0.0128 L 0.228442,0.0028 L 0.232931,0.0028" />
      <path d="M 0.212353,-0.0349 L 0.213353,-0.0349 L 0.213353,-0.0449 L 0.212353,-0.0449 L 0.212353,-0.0349" />
      <path d="M 0.217842,-0.0349 L 0.213353,-0.0349 L 0.213353,-0.0449 L 0.217842,-0.0449 L 0.217842,-0.0349" />
      <path d="M 0.232931,-0.0349 L 0.233931,-0.0349 L 0.233931,-0.0449 L 0.232931,-0.0449 L 0.232931,-0.0349" />
      <path d="M 0.232931,-0.0449 L 0.232931,-0.0349 L 0.228442,-0.0349 L 0.228442,-0.0449 L 0.232931,-0.0449" />
    </g>
  </g>
</svg>