<?xml version='1.0' encoding='utf-8'?>
<svg width="254.84mm" height="84.95mm" viewBox="-0.003175 -0.027875 0.254842 0.084950" version="1.1" xmlns="http://www.w3.org/2000/svg">
  <defs>
    <pattern id="hatch_servo" width="0.0012" height="0.0012" patternUnits="userSpaceOnUse" patternTransform="rotate(45)">
      <line x1="0" y1="0" x2="0" y2="0.0012" stroke="rgb(60,60,60)" stroke-width="0.0001" stroke-opacity="0.6"/>
    </pattern>
    <pattern id="hatch_coupler" width="0.0012" height="0.0012" patternUnits="userSpaceOnUse" patternTransform="rotate(75)">
      <line x1="0" y1="0" x2="0" y2="0.0012" stroke="rgb(220,60,40)" stroke-width="0.0001" stroke-opacity="0.6"/>
    </pattern>
  </defs>
  <g transform="scale(1,-1)" stroke-linecap="round">
    <g fill="none" stroke="rgb(60,60,60)" stroke-width="0.00035" id="servo">
      <line x1="0.0" y1="0.0124" x2="0.0454" y2="0.0124" />
      <line x1="0.0454" y1="0.0124" x2="0.0454" y2="-0.0124" />
      <line x1="0.0" y1="-0.0124" x2="0.0454" y2="-0.0124" />
      <line x1="0.0" y1="0.0124" x2="0.0" y2="-0.0124" />
      <line x1="0.10409" y1="0.01335" x2="0.10409" y2="0.0124" />
      <line x1="0.10409" y1="0.01335" x2="0.13479" y2="0.01335" />
      <line x1="0.13479" y1="0.01335" x2="0.13479" y2="0.0124" />
      <line x1="0.10409" y1="0.0124" x2="0.13479" y2="0.0124" />
      <line x1="0.10409" y1="-0.0124" x2="0.13479" y2="-0.0124" />
      <line x1="0.13479" y1="-0.0124" x2="0.13479" y2="-0.01335" />
      <line x1="0.10409" y1="-0.01335" x2="0.13479" y2="-0.01335" />
      <line x1="0.10409" y1="-0.0124" x2="0.10409" y2="-0.01335" />
      <line x1="0.202491" y1="0.0159" x2="0.202491" y2="0.0187" />
      <line x1="0.202491" y1="0.0159" x2="0.208691" y2="0.0159" />
      <line x1="0.208691" y1="0.0159" x2="0.208691" y2="-0.0159" />
      <line x1="0.163291" y1="-0.0159" x2="0.208691" y2="-0.0159" />
      <line x1="0.163291" y1="0.0159" x2="0.163291" y2="-0.0159" />
      <line x1="0.163291" y1="0.0159" x2="0.194491" y2="0.0159" />
      <line x1="0.194491" y1="0.0159" x2="0.194491" y2="0.0187" />
      <line x1="0.194491" y1="0.0187" x2="0.202491" y2="0.0187" />
      <line x1="0.222742" y1="0.0159" x2="0.247542" y2="0.0159" />
      <line x1="0.247542" y1="0.0159" x2="0.247542" y2="-0.0159" />
      <line x1="0.222742" y1="-0.0159" x2="0.247542" y2="-0.0159" />
      <line x1="0.222742" y1="0.0159" x2="0.222742" y2="-0.0159" />
      <line x1="0.247542" y1="-0.0159" x2="0.248492" y2="-0.0159" />
      <line x1="0.248492" y1="-0.0159" x2="0.248492" y2="-0.0201" />
      <line x1="0.247542" y1="-0.0201" x2="0.248492" y2="-0.0201" />
      <line x1="0.247542" y1="-0.0159" x2="0.247542" y2="-0.0201" />
      <line x1="0.222742" y1="-0.0159" x2="0.222742" y2="-0.0201" />
      <line x1="0.221792" y1="-0.0201" x2="0.222742" y2="-0.0201" />
      <line x1="0.221792" y1="-0.0159" x2="0.221792" y2="-0.0201" />
      <line x1="0.221792" y1="-0.0159" x2="0.222742" y2="-0.0159" />
    </g>
    <g fill="url(#hatch_servo)" stroke="none" stroke-width="0" id="servo_fill">
      <path d="M 0.0454,0.0124 L 0.0,0.0124 L 0.0,-0.0124 L 0.0454,-0.0124 L 0.0454,0.0124" />
      <path d="M 0.10409,0.01335 L 0.10409,0.0124 L 0.13479,0.0124 L 0.13479,0.01335 L 0.10409,0.01335" />
      <path d="M 0.13479,-0.0124 L 0.10409,-0.0124 L 0.10409,-0.01335 L 0.13479,-0.01335 L 0.13479,-0.0124" />
      <path d="M 0.202491,0.0159 L 0.202491,0.0187 L 0.194491,0.0187 L 0.194491,0.0159 L 0.163291,0.0159 L 0.163291,-0.0159 L 0.208691,-0.0159 L 0.208691,0.0159 L 0.202491,0.0159" />
      <path d="M 0.247542,0.0159 L 0.222742,0.0159 L 0.222742,-0.0159 L 0.247542,-0.0159 L 0.247542,0.0159" />
      <path d="M 0.248492,-0.0159 L 0.247542,-0.0159 L 0.247542,-0.0201 L 0.248492,-0.0201 L 0.248492,-0.0159" />
      <path d="M 0.222742,-0.0201 L 0.222742,-0.0159 L 0.221792,-0.0159 L 0.221792,-0.0201 L 0.222742,-0.0201" />
    </g>
    <g fill="none" stroke="rgb(220,60,40)" stroke-width="0.00035" id="coupler">
      <line x1="0.050501" y1="-0.010789" x2="0.0227" y2="-0.010789" />
      <line x1="0.050501" y1="-0.010789" x2="0.050501" y2="-0.009789" />
      <line x1="0.0227" y1="-0.010789" x2="0.0227" y2="-0.009789" />
      <line x1="0.050501" y1="-0.009789" x2="0.040501" y2="-0.009789" />
      <path d="M 0.0227,0.009789 A 0.009789105352524866,0.009789105352524866 0.0 1,1 0.0227,-0.009789" />
      <line x1="0.040501" y1="-0.009789" x2="0.040501" y2="0.009789" />
      <line x1="0.0227" y1="0.009789" x2="0.0227" y2="0.010789" />
      <line x1="0.050501" y1="0.009789" x2="0.040501" y2="0.009789" />
      <line x1="0.050501" y1="0.010789" x2="0.0227" y2="0.010789" />
      <line x1="0.050501" y1="0.009789" x2="0.050501" y2="0.010789" />
      <circle cx="0.01775" cy="-0.00495" r="0.00125" />
      <circle cx="0.0227" cy="0.0" r="0.0053" />
      <circle cx="0.02765" cy="-0.00495" r="0.00125" />
      <circle cx="0.01775" cy="0.00495" r="0.00125" />
      <circle cx="0.02765" cy="0.00495" r="0.00125" />
      <line x1="0.050501" y1="-0.009789" x2="0.040501" y2="-0.009789" />
      <line x1="0.040501" y1="-0.009789" x2="0.040501" y2="0.009789" />
      <line x1="0.050501" y1="0.009789" x2="0.040501" y2="0.009789" />
      <line x1="0.050501" y1="0.009789" x2="0.050501" y2="-0.009789" />
      <line x1="0.09609" y1="-0.010789" x2="0.06829" y2="-0.010789" />
      <line x1="0.09609" y1="-0.010789" x2="0.09609" y2="0.010789" />
      <line x1="0.09609" y1="0.010789" x2="0.06829" y2="0.010789" />
      <line x1="0.06829" y1="0.009789" x2="0.06829" y2="0.010789" />
      <path d="M 0.06829,0.009789 A 0.009789105352524866,0.009789105352524866 0.0 1,1 0.06829,-0.009789" />
      <line x1="0.06829" y1="-0.010789" x2="0.06829" y2="-0.009789" />
      <circle cx="0.06334" cy="-0.00495" r="0.00125" />
      <circle cx="0.06829" cy="0.0" r="0.0053" />
      <circle cx="0.07324" cy="-0.00495" r="0.00125" />
      <circle cx="0.06334" cy="0.00495" r="0.00125" />
      <circle cx="0.07324" cy="0.00495" r="0.00125" />
      <line x1="0.155291" y1="0.009789" x2="0.155291" y2="-0.009789" />
      <line x1="0.145291" y1="-0.009789" x2="0.155291" y2="-0.009789" />
      <line x1="0.145291" y1="0.009789" x2="0.145291" y2="-0.009789" />
      <line x1="0.145291" y1="0.009789" x2="0.155291" y2="0.009789" />
      <line x1="0.191291" y1="0.0028" x2="0.191291" y2="0.0128" />
      <line x1="0.191291" y1="0.0128" x2="0.213792" y2="0.0128" />
      <line x1="0.213792" y1="0.0128" x2="0.213792" y2="-0.0449" />
      <line x1="0.191291" y1="-0.0449" x2="0.213792" y2="-0.0449" />
      <line x1="0.191291" y1="-0.0449" x2="0.191291" y2="-0.0349" />
      <line x1="0.191291" y1="-0.0349" x2="0.203792" y2="-0.0349" />
      <line x1="0.203792" y1="0.0028" x2="0.203792" y2="-0.0349" />
      <line x1="0.191291" y1="0.0028" x2="0.203792" y2="0.0028" />
      <line x1="0.176202" y1="0.0128" x2="0.180691" y2="0.0128" />
      <line x1="0.180691" y1="0.0028" x2="0.180691" y2="0.0128" />
      <line x1="0.176202" y1="0.0028" x2="0.180691" y2="0.0028" />
      <line x1="0.176202" y1="0.0028" x2="0.176202" y2="0.0128" />
      <line x1="0.176202" y1="-0.0349" x2="0.180691" y2="-0.0349" />
      <line x1="0.180691" y1="-0.0449" x2="0.180691" y2="-0.0349" />
      <line x1="0.176202" y1="-0.0449" x2="0.180691" y2="-0.0449" />
      <line x1="0.176202" y1="-0.0449" x2="0.176202" y2="-0.0349" />
      <line x1="0.224353" y1="0.0128" x2="0.225353" y2="0.0128" />
      <line x1="0.225353" y1="0.0028" x2="0.225353" y2="0.0128" />
      <line x1="0.224353" y1="0.0028" x2="0.225353" y2="0.0028" />
      <line x1="0.224353" y1="0.0028" x2="0.224353" y2="0.0128" />
      <line x1="0.225353" y1="0.0128" x2="0.229842" y2="0.0128" />
      <line x1="0.229842" y1="0.0028" x2="0.229842" y2="0.0128" />
      <line x1="0.225353" y1="0.0028" x2="0.229842" y2="0.0028" />
      <line x1="0.225353" y1="0.0028" x2="0.225353" y2="0.0128" />
      <line x1="0.244931" y1="0.0128" x2="0.245931" y2="0.0128" />
      <line x1="0.245931" y1="0.0028" x2="0.245931" y2="0.0128" />
      <line x1="0.244931" y1="0.0028" x2="0.245931" y2="0.0028" />
      <line x1="0.244931" y1="0.0028" x2="0.244931" y2="0.0128" />
      <line x1="0.244931" y1="0.0028" x2="0.244931" y2="0.0128" />
      <line x1="0.240442" y1="0.0028" x2="0.244931" y2="0.0028" />
      <line x1="0.240442" y1="0.0028" x2="0.240442" y2="0.0128" />
      <line x1="0.240442" y1="0.0128" x2="0.244931" y2="0.0128" />
      <line x1="0.224353" y1="-0.0349" x2="0.225353" y2="-0.0349" />
      <line x1="0.225353" y1="-0.0449" x2="0.225353" y2="-0.0349" />
      <line x1="0.224353" y1="-0.0449" x2="0.225353" y2="-0.0449" />
      <line x1="0.224353" y1="-0.0449" x2="0.224353" y2="-0.0349" />
      <line x1="0.225353" y1="-0.0349" x2="0.229842" y2="-0.0349" />
      <line x1="0.229842" y1="-0.0449" x2="0.229842" y2="-0.0349" />
      <line x1="0.225353" y1="-0.0449" x2="0.229842" y2="-0.0449" />
      <line x1="0.225353" y1="-0.0449" x2="0.225353" y2="-0.0349" />
      <line x1="0.244931" y1="-0.0349" x2="0.245931" y2="-0.0349" />
      <line x1="0.245931" y1="-0.0449" x2="0.245931" y2="-0.0349" />
      <line x1="0.244931" y1="-0.0449" x2="0.245931" y2="-0.0449" />
      <line x1="0.244931" y1="-0.0449" x2="0.244931" y2="-0.0349" />
      <line x1="0.244931" y1="-0.0449" x2="0.244931" y2="-0.0349" />
      <line x1="0.240442" y1="-0.0449" x2="0.244931" y2="-0.0449" />
      <line x1="0.240442" y1="-0.0449" x2="0.240442" y2="-0.0349" />
      <line x1="0.240442" y1="-0.0349" x2="0.244931" y2="-0.0349" />
    </g>
    <g fill="url(#hatch_coupler)" stroke="none" stroke-width="0" id="coupler_fill">
      <path d="M 0.050501,-0.010789 L 0.0227,-0.010789 L 0.0227,-0.009789 A 0.009789105352524866,0.009789105352524866 0.0 1,0 0.0227,0.009789 L 0.0227,0.010789 L 0.050501,0.010789 L 0.050501,0.009789 L 0.040501,0.009789 L 0.040501,-0.009789 L 0.050501,-0.009789 L 0.050501,-0.010789 M 0.019,-0.00495 A 0.00125,0.00125 0.0 0,1 0.0165,-0.00495 A 0.00125,0.00125 0.0 0,1 0.019,-0.00495 M 0.028,0.0 A 0.005300000000000001,0.005300000000000001 0.0 0,1 0.0174,0.0 A 0.005300000000000001,0.005300000000000001 0.0 0,1 0.028,-0.0 M 0.0289,-0.00495 A 0.00125,0.00125 0.0 0,1 0.0264,-0.00495 A 0.00125,0.00125 0.0 0,1 0.0289,-0.00495 M 0.019,0.00495 A 0.00125,0.00125 0.0 0,1 0.0165,0.00495 A 0.00125,0.00125 0.0 0,1 0.019,0.00495 M 0.0289,0.00495 A 0.00125,0.00125 0.0 0,1 0.0264,0.00495 A 0.00125,0.00125 0.0 0,1 0.0289,0.00495" />
      <path d="M 0.040501,-0.009789 L 0.050501,-0.009789 L 0.050501,0.009789 L 0.040501,0.009789 L 0.040501,-0.009789" />
      <path d="M 0.06829,-0.010789 L 0.09609,-0.010789 L 0.09609,0.010789 L 0.06829,0.010789 L 0.06829,0.009789 A 0.009789105352524866,0.009789105352524866 0.0 1,1 0.06829,-0.009789 L 0.06829,-0.010789 M 0.06459,-0.00495 A 0.00125,0.00125 0.0 0,0 0.06209,-0.00495 A 0.00125,0.00125 0.0 0,0 0.06459,-0.00495 M 0.07359,-0.0 A 0.0053,0.0053 0.0 0,0 0.06299,0.0 A 0.0053,0.0053 0.0 0,0 0.07359,0.0 M 0.07449,-0.00495 A 0.0012500000000000011,0.0012500000000000011 0.0 0,0 0.07199,-0.00495 A 0.0012500000000000011,0.0012500000000000011 0.0 0,0 0.07449,-0.00495 M 0.06459,0.00495 A 0.00125,0.00125 0.0 0,0 0.06209,0.00495 A 0.00125,0.00125 0.0 0,0 0.06459,0.00495 M 0.07449,0.00495 A 0.0012500000000000011,0.0012500000000000011 0.0 0,0 0.07199,0.00495 A 0.0012500000000000011,0.0012500000000000011 0.0 0,0 0.07449,0.00495" />
      <path d="M 0.155291,-0.009789 L 0.155291,0.009789 L 0.145291,0.009789 L 0.145291,-0.009789 L 0.155291,-0.009789" />
      <path d="M 0.191291,0.0128 L 0.191291,0.0028 L 0.203792,0.0028 L 0.203792,-0.0349 L 0.191291,-0.0349 L 0.191291,-0.0449 L 0.213792,-0.0449 L 0.213792,0.0128 L 0.191291,0.0128" />
      <path d="M 0.180691,0.0128 L 0.176202,0.0128 L 0.176202,0.0028 L 0.180691,0.0028 L 0.180691,0.0128" />
      <path d="M 0.180691,-0.0349 L 0.176202,-0.0349 L 0.176202,-0.0449 L 0.180691,-0.0449 L 0.180691,-0.0349" />
      <path d="M 0.224353,0.0128 L 0.225353,0.0128 L 0.225353,0.0028 L 0.224353,0.0028 L 0.224353,0.0128" />
      <path d="M 0.229842,0.0128 L 0.225353,0.0128 L 0.225353,0.0028 L 0.229842,0.0028 L 0.229842,0.0128" />
      <path d="M 0.244931,0.0128 L 0.245931,0.0128 L 0.245931,0.0028 L 0.244931,0.0028 L 0.244931,0.0128" />
      <path d="M 0.244931,0.0028 L 0.244931,0.0128 L 0.240442,0.0128 L 0.240442,0.0028 L 0.244931,0.0028" />
      <path d="M 0.224353,-0.0349 L 0.225353,-0.0349 L 0.225353,-0.0449 L 0.224353,-0.0449 L 0.224353,-0.0349" />
      <path d="M 0.229842,-0.0349 L 0.225353,-0.0349 L 0.225353,-0.0449 L 0.229842,-0.0449 L 0.229842,-0.0349" />
      <path d="M 0.244931,-0.0349 L 0.245931,-0.0349 L 0.245931,-0.0449 L 0.244931,-0.0449 L 0.244931,-0.0349" />
      <path d="M 0.244931,-0.0449 L 0.244931,-0.0349 L 0.240442,-0.0349 L 0.240442,-0.0449 L 0.244931,-0.0449" />
    </g>
  </g>
  <text x="0.025250" y="-0.024375" text-anchor="middle" font-family="'Input Sans Narrow', 'DejaVu Sans', Arial, sans-serif" font-size="0.002500" font-weight="bold" fill="#333">A-A</text>
  <text x="0.025250" y="-0.020875" text-anchor="middle" font-family="'Input Sans Narrow', 'DejaVu Sans', Arial, sans-serif" font-size="0.001800" fill="#888">front_horn</text>
  <text x="0.077296" y="-0.024375" text-anchor="middle" font-family="'Input Sans Narrow', 'DejaVu Sans', Arial, sans-serif" font-size="0.002500" font-weight="bold" fill="#333">B-B</text>
  <text x="0.077296" y="-0.020875" text-anchor="middle" font-family="'Input Sans Narrow', 'DejaVu Sans', Arial, sans-serif" font-size="0.001800" fill="#888">rear_horn</text>
  <text x="0.129691" y="-0.024375" text-anchor="middle" font-family="'Input Sans Narrow', 'DejaVu Sans', Arial, sans-serif" font-size="0.002500" font-weight="bold" fill="#333">C-C</text>
  <text x="0.129691" y="-0.020875" text-anchor="middle" font-family="'Input Sans Narrow', 'DejaVu Sans', Arial, sans-serif" font-size="0.001800" fill="#888">mid_body</text>
  <text x="0.188541" y="-0.024375" text-anchor="middle" font-family="'Input Sans Narrow', 'DejaVu Sans', Arial, sans-serif" font-size="0.002500" font-weight="bold" fill="#333">D-D</text>
  <text x="0.188541" y="-0.020875" text-anchor="middle" font-family="'Input Sans Narrow', 'DejaVu Sans', Arial, sans-serif" font-size="0.001800" fill="#888">side_XZ</text>
  <text x="0.235142" y="-0.024375" text-anchor="middle" font-family="'Input Sans Narrow', 'DejaVu Sans', Arial, sans-serif" font-size="0.002500" font-weight="bold" fill="#333">E-E</text>
  <text x="0.235142" y="-0.020875" text-anchor="middle" font-family="'Input Sans Narrow', 'DejaVu Sans', Arial, sans-serif" font-size="0.001800" fill="#888">side_YZ</text>
  <text x="-0.001175" y="0.048575" font-family="'Input Sans Narrow', 'DejaVu Sans', Arial, sans-serif" font-size="0.003500" font-weight="bold" fill="#222">coupler</text>
  <line x1="-0.001175" y1="0.052575" x2="0.008825" y2="0.052575" stroke="#333" stroke-width="0.000350"/>
  <line x1="-0.001175" y1="0.051575" x2="-0.001175" y2="0.053575" stroke="#333" stroke-width="0.000250"/>
  <line x1="0.008825" y1="0.051575" x2="0.008825" y2="0.053575" stroke="#333" stroke-width="0.000250"/>
  <text x="0.010325" y="0.053275" font-family="'Input Sans Narrow', 'DejaVu Sans', Arial, sans-serif" font-size="0.001800" fill="#888">10 mm</text>
  <rect x="0.028825" y="0.046075" width="0.004000" height="0.002500" fill="url(#hatch_servo)" stroke="rgb(60,60,60)" stroke-width="0.000300"/>
  <text x="0.034325" y="0.048075" font-family="'Input Sans Narrow', 'DejaVu Sans', Arial, sans-serif" font-size="0.001800" fill="rgb(60,60,60)">servo</text>
  <rect x="0.028825" y="0.049575" width="0.004000" height="0.002500" fill="url(#hatch_coupler)" stroke="rgb(220,60,40)" stroke-width="0.000300"/>
  <text x="0.034325" y="0.051575" font-family="'Input Sans Narrow', 'DejaVu Sans', Arial, sans-serif" font-size="0.001800" fill="rgb(220,60,40)">coupler</text>
</svg>