<?xml version='1.0' encoding='utf-8'?>
<svg width="277.37mm" height="82.33mm" viewBox="-0.003175 -0.024375 0.277371 0.082328" version="1.1" xmlns="http://www.w3.org/2000/svg">
  <defs>
    <pattern id="hatch_servo" width="0.0012" height="0.0012" patternUnits="userSpaceOnUse" patternTransform="rotate(45)">
      <line x1="0" y1="0" x2="0" y2="0.0012" stroke="rgb(60,60,60)" stroke-width="0.0001" stroke-opacity="0.6"/>
    </pattern>
    <pattern id="hatch_cradle" width="0.0012" height="0.0012" patternUnits="userSpaceOnUse" patternTransform="rotate(75)">
      <line x1="0" y1="0" x2="0" y2="0.0012" stroke="rgb(50,120,190)" stroke-width="0.0001" stroke-opacity="0.6"/>
    </pattern>
  </defs>
  <g transform="scale(1,-1)" stroke-linecap="round">
    <g fill="none" stroke="rgb(60,60,60)" stroke-width="0.00035" id="servo">
      <line x1="0.028" y1="-0.008" x2="0.028" y2="0.008" />
      <path d="M 0.028,-0.008 A 0.002,0.002 -90.0 0,1 0.03,-0.01" />
      <line x1="0.03" y1="-0.01" x2="0.046" y2="-0.01" />
      <path d="M 0.048,-0.008 A 0.002,0.002 -90.0 0,0 0.046,-0.01" />
      <line x1="0.048" y1="-0.008" x2="0.048" y2="0.008" />
      <path d="M 0.048,0.008 A 0.002,0.002 -90.0 0,1 0.046,0.01" />
      <line x1="0.03" y1="0.01" x2="0.046" y2="0.01" />
      <path d="M 0.028,0.008 A 0.002,0.002 -90.0 0,0 0.03,0.01" />
      <circle cx="0.0995" cy="0.0" r="0.003" />
      <line x1="0.0663" y1="-0.0084" x2="0.0663" y2="-0.0124" />
      <line x1="0.0663" y1="-0.0084" x2="0.1067" y2="-0.0084" />
      <line x1="0.1067" y1="-0.0084" x2="0.1067" y2="-0.0124" />
      <line x1="0.0663" y1="-0.0124" x2="0.1067" y2="-0.0124" />
      <circle cx="0.07" cy="-0.01025" r="0.0016" />
      <circle cx="0.087" cy="-0.01025" r="0.0016" />
      <circle cx="0.104" cy="-0.01025" r="0.0016" />
      <line x1="0.0663" y1="0.0124" x2="0.1067" y2="0.0124" />
      <line x1="0.1067" y1="0.0124" x2="0.1067" y2="0.0084" />
      <line x1="0.0663" y1="0.0084" x2="0.1067" y2="0.0084" />
      <line x1="0.0663" y1="0.0124" x2="0.0663" y2="0.0084" />
      <circle cx="0.07" cy="0.01025" r="0.0016" />
      <circle cx="0.087" cy="0.01025" r="0.0016" />
      <circle cx="0.104" cy="0.01025" r="0.0016" />
      <path d="M 0.1215,0.0124 A 0.004,0.004 180.0 0,1 0.1175,0.0084" />
      <line x1="0.1215" y1="0.0124" x2="0.1589" y2="0.0124" />
      <path d="M 0.1629,0.0084 A 0.004,0.004 0.0 0,1 0.1589,0.0124" />
      <line x1="0.1629" y1="0.0084" x2="0.1629" y2="-0.0084" />
      <path d="M 0.1589,-0.0124 A 0.004,0.004 0.0 0,1 0.1629,-0.0084" />
      <line x1="0.1215" y1="-0.0124" x2="0.1589" y2="-0.0124" />
      <path d="M 0.1175,-0.0084 A 0.004,0.004 180.0 0,1 0.1215,-0.0124" />
      <line x1="0.1175" y1="0.0084" x2="0.1175" y2="-0.0084" />
      <line x1="0.1792" y1="-0.032613" x2="0.1792" y2="-1.4e-05" />
      <line x1="0.1792" y1="-1.4e-05" x2="0.179221" y2="1.4e-05" />
      <path d="M 0.1792,-1.4e-05 A 0.004,6.44034636134987e-06 -3.570407266150847e-21 0,1 0.183196,-2e-05" />
      <path d="M 0.1792,-0.032613 A 0.004,6.44034636134987e-06 -3.570407266150847e-21 0,1 0.181196,-0.032619" />
      <path d="M 0.181196,-0.032619 A 0.004,6.44034636134987e-06 -3.570407266150847e-21 0,1 0.183196,-0.03262" />
      <line x1="0.183196" y1="-0.03262" x2="0.183196" y2="-2e-05" />
      <path d="M 0.2246,-0.032614 A 0.004,6.44034636134987e-06 180.0 0,0 0.221596,-0.03262" />
      <line x1="0.2246" y1="-0.032614" x2="0.224621" y2="-0.032586" />
      <path d="M 0.179221,1.4e-05 A 0.004,6.44034636134987e-06 180.0 0,0 0.183226,2e-05" />
      <line x1="0.183196" y1="-2e-05" x2="0.220595" y2="-2e-05" />
      <line x1="0.183226" y1="2e-05" x2="0.204401" y2="2e-05" />
      <path d="M 0.2246,-1.4e-05 A 0.004,6.44034636134987e-06 180.0 0,0 0.220595,-2e-05" />
      <path d="M 0.224621,1.3e-05 A 0.004,6.44034636134987e-06 -3.570407266150847e-21 0,1 0.22442,1.5e-05" />
      <line x1="0.2246" y1="-1.4e-05" x2="0.224621" y2="1.3e-05" />
      <path d="M 0.204401,-1.3e-05 A 0.002,3.220173180674935e-06 -3.570407266150847e-21 0,1 0.206398,-1.6e-05" />
      <line x1="0.206398" y1="-1.6e-05" x2="0.222398" y2="-1.6e-05" />
      <path d="M 0.224401,-1.3e-05 A 0.002,3.220173180674935e-06 180.0 0,0 0.222398,-1.6e-05" />
      <line x1="0.224401" y1="-1.3e-05" x2="0.22442" y2="1.3e-05" />
      <line x1="0.181196" y1="-0.03262" x2="0.181196" y2="-0.032619" />
      <line x1="0.181196" y1="-0.03262" x2="0.183196" y2="-0.03262" />
      <line x1="0.220595" y1="-0.03262" x2="0.220595" y2="-2e-05" />
      <line x1="0.220595" y1="-0.03262" x2="0.221595" y2="-0.03262" />
      <line x1="0.221595" y1="-0.03472" x2="0.221595" y2="-0.03262" />
      <line x1="0.181196" y1="-0.03472" x2="0.221595" y2="-0.03472" />
      <line x1="0.181196" y1="-0.03472" x2="0.181196" y2="-0.03262" />
      <line x1="0.2216" y1="-0.034714" x2="0.2216" y2="-0.03262" />
      <line x1="0.2216" y1="-0.034686" x2="0.221621" y2="-0.034686" />
      <line x1="0.221621" y1="-0.034686" x2="0.221621" y2="-0.03262" />
      <line x1="0.221595" y1="-0.03472" x2="0.2216" y2="-0.034714" />
      <line x1="0.221626" y1="-0.03468" x2="0.221626" y2="-0.03262" />
      <line x1="0.221621" y1="-0.034686" x2="0.221626" y2="-0.03468" />
      <line x1="0.2246" y1="-0.032614" x2="0.2246" y2="-1.4e-05" />
      <path d="M 0.221596,-0.03262 A 0.004,6.44034636134987e-06 180.0 0,0 0.220595,-0.03262" />
      <line x1="0.224621" y1="1.3e-05" x2="0.224621" y2="-0.032586" />
      <path d="M 0.221626,-0.03258 A 0.004,6.44034636134987e-06 -3.570407266150847e-21 0,1 0.220626,-0.03258" />
      <path d="M 0.204401,0.001687 A 0.002,3.220173180674935e-06 -3.570407266150847e-21 0,1 0.206398,0.001684" />
      <line x1="0.206398" y1="0.001684" x2="0.222398" y2="0.001684" />
      <path d="M 0.224401,0.001687 A 0.002,3.220173180674935e-06 180.0 0,0 0.222398,0.001684" />
      <line x1="0.224401" y1="0.001687" x2="0.22442" y2="0.001713" />
      <path d="M 0.22442,0.001713 A 0.002,3.220173180674935e-06 -3.570407266150847e-21 0,1 0.222423,0.001716" />
      <line x1="0.206423" y1="0.001716" x2="0.209911" y2="0.001716" />
      <line x1="0.218911" y1="0.001716" x2="0.222423" y2="0.001716" />
      <path d="M 0.20442,0.001713 A 0.002,3.220173180674935e-06 180.0 0,0 0.206423,0.001716" />
      <line x1="0.204401" y1="0.001687" x2="0.20442" y2="0.001713" />
      <path d="M 0.209911,0.0017 A 0.004500000000000004,7.245389656518609e-06 -7.88103626567807e-21 0,1 0.218911,0.0017" />
      <path d="M 0.218911,0.0032 A 0.004500000000000004,7.245389656518609e-06 -7.88103626567807e-21 1,1 0.209911,0.0032" />
      <path d="M 0.209911,0.0032 A 0.004500000000000004,7.245389656518609e-06 -7.88103626567807e-21 0,1 0.218911,0.0032" />
      <line x1="0.204401" y1="-1.3e-05" x2="0.204401" y2="0.001687" />
      <line x1="0.206398" y1="-1.6e-05" x2="0.206398" y2="0.001684" />
      <line x1="0.222398" y1="-1.6e-05" x2="0.222398" y2="0.001684" />
      <line x1="0.224401" y1="-1.3e-05" x2="0.224401" y2="0.001687" />
      <line x1="0.22442" y1="1.3e-05" x2="0.22442" y2="0.001713" />
      <line x1="0.1792" y1="-0.032613" x2="0.1792" y2="-1.4e-05" />
      <line x1="0.224621" y1="-0.032586" x2="0.224621" y2="1.3e-05" />
      <line x1="0.204401" y1="-1.3e-05" x2="0.204401" y2="0.001687" />
      <line x1="0.22442" y1="1.3e-05" x2="0.22442" y2="0.001713" />
      <line x1="0.218911" y1="0.0017" x2="0.218911" y2="0.0032" />
      <line x1="0.209911" y1="0.0017" x2="0.209911" y2="0.0032" />
      <path d="M 0.237821,3.6e-05 A 0.004,6.432478755953831e-06 6.500546119967843e-37 0,1 0.235421,3e-05" />
      <path d="M 0.239421,-0.032636 A 0.004,6.432478755953831e-06 -180.0 0,0 0.235548,-0.032631" />
      <path d="M 0.256221,-0.032636 A 0.004,6.432478755953831e-06 6.500546119967843e-37 0,1 0.260094,-0.032631" />
      <line x1="0.239421" y1="-0.032636" x2="0.256221" y2="-0.032636" />
      <path d="M 0.257821,3.6e-05 A 0.004,6.432478755953831e-06 -180.0 0,0 0.260221,3e-05" />
      <line x1="0.235421" y1="3e-05" x2="0.235421" y2="-3e-05" />
      <line x1="0.260221" y1="3e-05" x2="0.260221" y2="-3e-05" />
      <path d="M 0.239421,-3.6e-05 A 0.004,6.432478755953831e-06 -180.0 0,0 0.235421,-3e-05" />
      <path d="M 0.256221,-3.6e-05 A 0.004,6.432478755953831e-06 6.500546119967843e-37 0,1 0.260221,-3e-05" />
      <line x1="0.239421" y1="-3.6e-05" x2="0.256221" y2="-3.6e-05" />
      <path d="M 0.239821,-3.6e-05 A 0.002,3.2162393779769155e-06 -180.0 0,0 0.237821,-3.3e-05" />
      <line x1="0.239821" y1="-3.6e-05" x2="0.255821" y2="-3.6e-05" />
      <path d="M 0.255821,-3.6e-05 A 0.002,3.2162393779769155e-06 6.500546119967843e-37 0,1 0.257821,-3.3e-05" />
      <line x1="0.235421" y1="-0.03263" x2="0.235421" y2="-3e-05" />
      <line x1="0.235421" y1="-0.03263" x2="0.235421" y2="-0.032631" />
      <line x1="0.235421" y1="-0.034731" x2="0.235421" y2="-0.032631" />
      <line x1="0.239421" y1="-0.034731" x2="0.239421" y2="-0.032636" />
      <line x1="0.256221" y1="-0.034731" x2="0.256221" y2="-0.032636" />
      <line x1="0.235421" y1="-0.032631" x2="0.235548" y2="-0.032631" />
      <line x1="0.235421" y1="-0.034731" x2="0.239421" y2="-0.034731" />
      <line x1="0.260094" y1="-0.032631" x2="0.260221" y2="-0.032631" />
      <line x1="0.260221" y1="-0.034731" x2="0.260221" y2="-0.032631" />
      <line x1="0.256221" y1="-0.034731" x2="0.260221" y2="-0.034731" />
      <line x1="0.239421" y1="-0.032636" x2="0.239421" y2="-3.6e-05" />
      <path d="M 0.235548,-0.032631 A 0.004,6.432478755953831e-06 -180.0 0,0 0.235421,-0.03263" />
      <line x1="0.260221" y1="-3e-05" x2="0.260221" y2="-0.03263" />
      <line x1="0.256221" y1="-3.6e-05" x2="0.256221" y2="-0.032636" />
      <path d="M 0.260094,-0.032631 A 0.004,6.432478755953831e-06 6.500546119967843e-37 0,1 0.260221,-0.03263" />
      <path d="M 0.247821,-0.033924 A 0.003,4.824359066965373e-06 3.470408899297471e-37 0,1 0.250821,-0.03392" />
      <path d="M 0.244821,-0.03392 A 0.003,4.824359066965373e-06 3.470408899297471e-37 0,1 0.247821,-0.033924" />
      <line x1="0.260221" y1="-0.03263" x2="0.260221" y2="-0.032631" />
      <path d="M 0.239821,0.001696 A 0.002,3.2162393779769155e-06 6.500546119967843e-37 0,1 0.237821,0.001693" />
      <line x1="0.237821" y1="-3.3e-05" x2="0.237821" y2="0.001667" />
      <line x1="0.237821" y1="0.001693" x2="0.237821" y2="0.001667" />
      <path d="M 0.239821,0.001664 A 0.002,3.2162393779769155e-06 -180.0 0,0 0.237821,0.001667" />
      <line x1="0.239821" y1="0.001664" x2="0.255821" y2="0.001664" />
      <line x1="0.257821" y1="-3.3e-05" x2="0.257821" y2="0.001667" />
      <path d="M 0.255821,0.001664 A 0.002,3.2162393779769155e-06 6.500546119967843e-37 0,1 0.257821,0.001667" />
      <line x1="0.257821" y1="0.001693" x2="0.257821" y2="0.001667" />
      <path d="M 0.255821,0.001696 A 0.002,3.2162393779769155e-06 -180.0 0,0 0.257821,0.001693" />
      <line x1="0.239821" y1="0.001696" x2="0.243321" y2="0.001696" />
      <line x1="0.252321" y1="0.001696" x2="0.255821" y2="0.001696" />
      <path d="M 0.247821,0.001673 A 0.0045,7.23653860044806e-06 3.470408899297471e-37 0,1 0.252321,0.00168" />
      <path d="M 0.243321,0.00168 A 0.0045,7.23653860044806e-06 3.470408899297471e-37 0,1 0.247821,0.001673" />
      <path d="M 0.247821,0.003173 A 0.0045,7.23653860044806e-06 3.470408899297471e-37 0,1 0.252321,0.00318" />
      <path d="M 0.252321,0.00318 A 0.004500000000000004,7.236538600448066e-06 3.470408899297471e-37 0,1 0.243321,0.00318" />
      <path d="M 0.243321,0.00318 A 0.0045,7.23653860044806e-06 3.470408899297471e-37 0,1 0.247821,0.003173" />
      <line x1="0.239821" y1="-3.6e-05" x2="0.239821" y2="0.001664" />
      <line x1="0.255821" y1="-3.6e-05" x2="0.255821" y2="0.001664" />
      <line x1="0.250821" y1="-0.03392" x2="0.250821" y2="-0.032636" />
      <line x1="0.244821" y1="-0.03392" x2="0.244821" y2="-0.032636" />
      <line x1="0.252321" y1="0.00168" x2="0.252321" y2="0.00318" />
      <line x1="0.243321" y1="0.00168" x2="0.243321" y2="0.00318" />
    </g>
    <g fill="url(#hatch_servo)" stroke="none" stroke-width="0" id="servo_fill">
      <path d="M 0.028,0.008 L 0.028,-0.008 A 0.002,0.002 -90.0 0,1 0.03,-0.01 L 0.046,-0.01 A 0.002,0.002 -90.0 0,1 0.048,-0.008 L 0.048,0.008 A 0.002,0.002 -90.0 0,1 0.046,0.01 L 0.03,0.01 A 0.002,0.002 -90.0 0,1 0.028,0.008" />
      <circle cx="0.0995" cy="0.0" r="0.003" />
      <path d="M 0.0663,-0.0084 L 0.0663,-0.0124 L 0.1067,-0.0124 L 0.1067,-0.0084 L 0.0663,-0.0084 M 0.0716,-0.01025 A 0.0016,0.0016 0.0 0,0 0.0684,-0.01025 A 0.0016,0.0016 0.0 0,0 0.0716,-0.01025 M 0.0886,-0.01025 A 0.0016,0.0016 0.0 0,0 0.0854,-0.01025 A 0.0016,0.0016 0.0 0,0 0.0886,-0.01025 M 0.1056,-0.01025 A 0.0016,0.0016 0.0 0,0 0.1024,-0.01025 A 0.0016,0.0016 0.0 0,0 0.1056,-0.01025" />
      <path d="M 0.1067,0.0124 L 0.0663,0.0124 L 0.0663,0.0084 L 0.1067,0.0084 L 0.1067,0.0124 M 0.0716,0.01025 A 0.0016,0.0016 0.0 0,0 0.0684,0.01025 A 0.0016,0.0016 0.0 0,0 0.0716,0.01025 M 0.0886,0.01025 A 0.0016,0.0016 0.0 0,0 0.0854,0.01025 A 0.0016,0.0016 0.0 0,0 0.0886,0.01025 M 0.1056,0.01025 A 0.0016,0.0016 0.0 0,0 0.1024,0.01025 A 0.0016,0.0016 0.0 0,0 0.1056,0.01025" />
      <path d="M 0.1215,0.0124 A 0.004,0.004 180.0 0,1 0.1175,0.0084 L 0.1175,-0.0084 A 0.004,0.004 180.0 0,1 0.1215,-0.0124 L 0.1589,-0.0124 A 0.004,0.004 0.0 0,1 0.1629,-0.0084 L 0.1629,0.0084 A 0.004,0.004 0.0 0,1 0.1589,0.0124 L 0.1215,0.0124" />
    </g>
    <g fill="none" stroke="rgb(60,60,60)" stroke-opacity="0.4" stroke-width="0.00015" id="servo_hidden" stroke-dasharray="0.0018 0.00045">
      <line x1="0.1792" y1="-0.032613" x2="0.179221" y2="-0.032586" />
      <line x1="0.179221" y1="1.4e-05" x2="0.179221" y2="-0.032586" />
      <path d="M 0.179221,-0.032586 A 0.004,6.44034636134987e-06 180.0 0,0 0.181225,-0.032581" />
      <line x1="0.181196" y1="-0.032619" x2="0.1812" y2="-0.032613" />
      <line x1="0.181221" y1="-0.032586" x2="0.181225" y2="-0.032581" />
      <line x1="0.1812" y1="-0.032613" x2="0.2216" y2="-0.032614" />
      <line x1="0.181221" y1="-0.032586" x2="0.221621" y2="-0.032586" />
      <line x1="0.221596" y1="-0.03262" x2="0.2216" y2="-0.032614" />
      <line x1="0.221621" y1="-0.032586" x2="0.221626" y2="-0.03258" />
      <path d="M 0.224621,-0.032586 A 0.004,6.44034636134987e-06 -3.570407266150847e-21 0,1 0.221626,-0.03258" />
      <path d="M 0.217411,-0.0326 A 0.0030000000000000027,4.8302597710124065e-06 -7.88103626567807e-21 1,1 0.211411,-0.0326" />
      <path d="M 0.211411,-0.0326 A 0.0030000000000000027,4.8302597710124065e-06 -7.88103626567807e-21 0,1 0.217411,-0.0326" />
      <line x1="0.183226" y1="2e-05" x2="0.183226" y2="-0.03258" />
      <path d="M 0.181225,-0.032581 A 0.004,6.44034636134987e-06 180.0 0,0 0.183226,-0.03258" />
      <line x1="0.204401" y1="2e-05" x2="0.220626" y2="2e-05" />
      <path d="M 0.22442,1.5e-05 A 0.004,6.44034636134987e-06 -3.570407266150847e-21 0,1 0.220626,2e-05" />
      <path d="M 0.22442,1.3e-05 A 0.002,3.220173180674935e-06 -3.570407266150847e-21 0,1 0.222423,1.6e-05" />
      <line x1="0.206423" y1="1.6e-05" x2="0.222423" y2="1.6e-05" />
      <path d="M 0.20442,1.3e-05 A 0.002,3.220173180674935e-06 180.0 0,0 0.206423,1.6e-05" />
      <line x1="0.204401" y1="-1.3e-05" x2="0.20442" y2="1.3e-05" />
      <line x1="0.1812" y1="-0.034713" x2="0.1812" y2="-0.032613" />
      <line x1="0.181196" y1="-0.03472" x2="0.1812" y2="-0.034713" />
      <line x1="0.181221" y1="-0.034686" x2="0.181221" y2="-0.032586" />
      <line x1="0.181225" y1="-0.032581" x2="0.181226" y2="-0.03258" />
      <line x1="0.181226" y1="-0.03468" x2="0.181226" y2="-0.03258" />
      <line x1="0.181221" y1="-0.034686" x2="0.181226" y2="-0.03468" />
      <line x1="0.1812" y1="-0.034713" x2="0.2216" y2="-0.034714" />
      <line x1="0.2216" y1="-0.03262" x2="0.2216" y2="-0.032614" />
      <line x1="0.181221" y1="-0.034686" x2="0.2216" y2="-0.034686" />
      <line x1="0.221621" y1="-0.03262" x2="0.221621" y2="-0.032586" />
      <line x1="0.221626" y1="-0.03262" x2="0.221626" y2="-0.03258" />
      <line x1="0.220626" y1="2e-05" x2="0.220626" y2="-0.03258" />
      <path d="M 0.217411,-0.0339 A 0.0030000000000000027,4.8302597710124065e-06 -7.88103626567807e-21 1,1 0.211411,-0.0339" />
      <path d="M 0.211411,-0.0339 A 0.0030000000000000027,4.8302597710124065e-06 -7.88103626567807e-21 0,1 0.217411,-0.0339" />
      <line x1="0.220626" y1="-0.03258" x2="0.221626" y2="-0.03258" />
      <line x1="0.181226" y1="-0.03468" x2="0.221626" y2="-0.03468" />
      <line x1="0.181226" y1="-0.03258" x2="0.183226" y2="-0.03258" />
      <line x1="0.209911" y1="0.001716" x2="0.218911" y2="0.001716" />
      <path d="M 0.186498,-0.034716 A 0.0016000000000000044,2.576138544539955e-06 -7.88103626567807e-21 1,1 0.183298,-0.034716" />
      <path d="M 0.183298,-0.034716 A 0.0016000000000000044,2.576138544539955e-06 -7.88103626567807e-21 0,1 0.186498,-0.034716" />
      <path d="M 0.203498,-0.034716 A 0.0016000000000000044,2.576138544539955e-06 -7.88103626567807e-21 1,1 0.200298,-0.034716" />
      <path d="M 0.200298,-0.034716 A 0.0016000000000000044,2.576138544539955e-06 -7.88103626567807e-21 0,1 0.203498,-0.034716" />
      <path d="M 0.220498,-0.034717 A 0.0016000000000000044,2.576138544539955e-06 -7.88103626567807e-21 1,1 0.217298,-0.034717" />
      <path d="M 0.217298,-0.034717 A 0.0016000000000000044,2.576138544539955e-06 -7.88103626567807e-21 0,1 0.220498,-0.034717" />
      <path d="M 0.186523,-0.034683 A 0.0016,2.576138544539948e-06 -7.88103626567807e-21 1,1 0.183323,-0.034683" />
      <path d="M 0.183323,-0.034683 A 0.0016,2.576138544539948e-06 -7.88103626567807e-21 0,1 0.186523,-0.034683" />
      <path d="M 0.203523,-0.034683 A 0.0016000000000000044,2.576138544539955e-06 -7.88103626567807e-21 1,1 0.200323,-0.034683" />
      <path d="M 0.200323,-0.034683 A 0.0016000000000000044,2.576138544539955e-06 -7.88103626567807e-21 0,1 0.203523,-0.034683" />
      <path d="M 0.220523,-0.034684 A 0.0016000000000000044,2.576138544539955e-06 -7.88103626567807e-21 1,1 0.217323,-0.034684" />
      <path d="M 0.217323,-0.034684 A 0.0016000000000000044,2.576138544539955e-06 -7.88103626567807e-21 0,1 0.220523,-0.034684" />
      <path d="M 0.218911,0.0017 A 0.004500000000000004,7.245389656518609e-06 -7.88103626567807e-21 1,1 0.209911,0.0017" />
      <path d="M 0.186498,-0.024716 A 0.0016000000000000044,2.576138544539955e-06 -7.88103626567807e-21 1,1 0.183298,-0.024716" />
      <path d="M 0.183298,-0.024716 A 0.0016000000000000044,2.576138544539955e-06 -7.88103626567807e-21 0,1 0.186498,-0.024716" />
      <path d="M 0.203498,-0.024716 A 0.0016000000000000044,2.576138544539955e-06 -7.88103626567807e-21 1,1 0.200298,-0.024716" />
      <path d="M 0.200298,-0.024716 A 0.0016000000000000044,2.576138544539955e-06 -7.88103626567807e-21 0,1 0.203498,-0.024716" />
      <path d="M 0.220498,-0.024717 A 0.0016000000000000044,2.576138544539955e-06 -7.88103626567807e-21 1,1 0.217298,-0.024717" />
      <path d="M 0.217298,-0.024717 A 0.0016000000000000044,2.576138544539955e-06 -7.88103626567807e-21 0,1 0.220498,-0.024717" />
      <path d="M 0.186523,-0.024683 A 0.0016,2.576138544539948e-06 -7.88103626567807e-21 1,1 0.183323,-0.024683" />
      <path d="M 0.183323,-0.024683 A 0.0016,2.576138544539948e-06 -7.88103626567807e-21 0,1 0.186523,-0.024683" />
      <path d="M 0.203523,-0.024683 A 0.0016000000000000044,2.576138544539955e-06 -7.88103626567807e-21 1,1 0.200323,-0.024683" />
      <path d="M 0.200323,-0.024683 A 0.0016000000000000044,2.576138544539955e-06 -7.88103626567807e-21 0,1 0.203523,-0.024683" />
      <path d="M 0.220523,-0.024684 A 0.0016000000000000044,2.576138544539955e-06 -7.88103626567807e-21 1,1 0.217323,-0.024684" />
      <path d="M 0.217323,-0.024684 A 0.0016000000000000044,2.576138544539955e-06 -7.88103626567807e-21 0,1 0.220523,-0.024684" />
      <line x1="0.217411" y1="-0.0339" x2="0.217411" y2="-0.0326" />
      <line x1="0.211411" y1="-0.0339" x2="0.211411" y2="-0.0326" />
      <line x1="0.186498" y1="-0.034716" x2="0.186498" y2="-0.024716" />
      <line x1="0.183298" y1="-0.034716" x2="0.183298" y2="-0.024716" />
      <line x1="0.203498" y1="-0.034716" x2="0.203498" y2="-0.024716" />
      <line x1="0.200298" y1="-0.034716" x2="0.200298" y2="-0.024716" />
      <line x1="0.220498" y1="-0.034717" x2="0.220498" y2="-0.024717" />
      <line x1="0.217298" y1="-0.034717" x2="0.217298" y2="-0.024717" />
      <line x1="0.186523" y1="-0.034683" x2="0.186523" y2="-0.024683" />
      <line x1="0.183323" y1="-0.034683" x2="0.183323" y2="-0.024683" />
      <line x1="0.203523" y1="-0.034683" x2="0.203523" y2="-0.024683" />
      <line x1="0.200323" y1="-0.034683" x2="0.200323" y2="-0.024683" />
      <line x1="0.220523" y1="-0.034684" x2="0.220523" y2="-0.024684" />
      <line x1="0.217323" y1="-0.034684" x2="0.217323" y2="-0.024684" />
      <line x1="0.222423" y1="1.6e-05" x2="0.222423" y2="0.001716" />
      <line x1="0.206423" y1="1.6e-05" x2="0.206423" y2="0.001716" />
      <line x1="0.20442" y1="1.3e-05" x2="0.20442" y2="0.001713" />
      <line x1="0.239421" y1="-0.032563" x2="0.239421" y2="3.7e-05" />
      <line x1="0.239421" y1="-0.032563" x2="0.256221" y2="-0.032563" />
      <line x1="0.256221" y1="3.7e-05" x2="0.256221" y2="-0.032563" />
      <line x1="0.239421" y1="3.7e-05" x2="0.256221" y2="3.7e-05" />
      <path d="M 0.239421,3.7e-05 A 0.004,6.432478755953831e-06 6.500546119967843e-37 0,1 0.237821,3.6e-05" />
      <path d="M 0.239421,-0.032563 A 0.004,6.432478755953831e-06 6.500546119967843e-37 0,1 0.235957,-0.032566" />
      <path d="M 0.235957,-0.032566 A 0.004,6.432478755953831e-06 6.500546119967843e-37 0,1 0.235421,-0.032569" />
      <line x1="0.235421" y1="-0.032569" x2="0.235421" y2="3e-05" />
      <path d="M 0.256221,-0.032563 A 0.004,6.432478755953831e-06 -180.0 0,0 0.259685,-0.032566" />
      <line x1="0.235957" y1="-0.032566" x2="0.239421" y2="-0.032566" />
      <line x1="0.256221" y1="-0.032566" x2="0.259685" y2="-0.032566" />
      <line x1="0.239421" y1="-0.032566" x2="0.239421" y2="-0.032631" />
      <line x1="0.256221" y1="-0.032566" x2="0.256221" y2="-0.032631" />
      <line x1="0.235548" y1="-0.032631" x2="0.239421" y2="-0.032631" />
      <line x1="0.256221" y1="-0.032631" x2="0.260094" y2="-0.032631" />
      <path d="M 0.247821,-0.032624 A 0.003,4.824359066965373e-06 3.470408899297471e-37 0,1 0.250821,-0.03262" />
      <path d="M 0.250821,-0.03262 A 0.0030000000000000027,4.824359066965377e-06 3.470408899297471e-37 0,1 0.244821,-0.03262" />
      <path d="M 0.244821,-0.03262 A 0.003,4.824359066965373e-06 3.470408899297471e-37 0,1 0.247821,-0.032624" />
      <line x1="0.260221" y1="3e-05" x2="0.260221" y2="-0.032569" />
      <path d="M 0.256221,3.7e-05 A 0.004,6.432478755953831e-06 -180.0 0,0 0.257821,3.6e-05" />
      <path d="M 0.259685,-0.032566 A 0.004,6.432478755953831e-06 -180.0 0,0 0.260221,-0.032569" />
      <path d="M 0.239821,-4e-06 A 0.002,3.2162393779769155e-06 6.500546119967843e-37 0,1 0.237821,-7e-06" />
      <line x1="0.237821" y1="-7e-06" x2="0.237821" y2="-3.3e-05" />
      <line x1="0.257821" y1="-7e-06" x2="0.257821" y2="-3.3e-05" />
      <path d="M 0.255821,-4e-06 A 0.002,3.2162393779769155e-06 -180.0 0,0 0.257821,-7e-06" />
      <line x1="0.239821" y1="-4e-06" x2="0.255821" y2="-4e-06" />
      <line x1="0.235421" y1="-0.032566" x2="0.235957" y2="-0.032566" />
      <line x1="0.235421" y1="-0.032566" x2="0.235421" y2="-0.032569" />
      <line x1="0.235421" y1="-0.034666" x2="0.235421" y2="-0.034731" />
      <line x1="0.235421" y1="-0.034666" x2="0.235421" y2="-0.032566" />
      <line x1="0.239421" y1="-0.034666" x2="0.239421" y2="-0.032566" />
      <line x1="0.235421" y1="-0.034666" x2="0.239421" y2="-0.034666" />
      <line x1="0.256221" y1="-0.034666" x2="0.256221" y2="-0.032566" />
      <line x1="0.259685" y1="-0.032566" x2="0.260221" y2="-0.032566" />
      <line x1="0.260221" y1="-0.034666" x2="0.260221" y2="-0.032566" />
      <line x1="0.256221" y1="-0.034666" x2="0.260221" y2="-0.034666" />
      <line x1="0.239421" y1="-0.034666" x2="0.239421" y2="-0.034731" />
      <line x1="0.239421" y1="-0.032636" x2="0.239421" y2="-0.032631" />
      <line x1="0.256221" y1="-0.034666" x2="0.256221" y2="-0.034731" />
      <line x1="0.256221" y1="-0.032636" x2="0.256221" y2="-0.032631" />
      <path d="M 0.250821,-0.03392 A 0.0030000000000000027,4.824359066965377e-06 3.470408899297471e-37 0,1 0.244821,-0.03392" />
      <line x1="0.260221" y1="-0.034666" x2="0.260221" y2="-0.034731" />
      <line x1="0.260221" y1="-0.032566" x2="0.260221" y2="-0.032569" />
      <line x1="0.237821" y1="-7e-06" x2="0.237821" y2="0.001693" />
      <line x1="0.257821" y1="-7e-06" x2="0.257821" y2="0.001693" />
      <line x1="0.243321" y1="0.001696" x2="0.252321" y2="0.001696" />
      <path d="M 0.237571,-0.034675 A 0.0016,2.5729915023815325e-06 3.470408899297471e-37 0,1 0.239171,-0.034672" />
      <path d="M 0.239171,-0.034672 A 0.0016000000000000044,2.5729915023815393e-06 3.470408899297471e-37 0,1 0.235971,-0.034672" />
      <path d="M 0.235971,-0.034672 A 0.0016,2.5729915023815325e-06 3.470408899297471e-37 0,1 0.237571,-0.034675" />
      <path d="M 0.237571,-0.034702 A 0.0016,2.5729915023815325e-06 3.470408899297471e-37 0,1 0.239171,-0.0347" />
      <path d="M 0.239171,-0.0347 A 0.0016000000000000044,2.5729915023815393e-06 3.470408899297471e-37 0,1 0.235971,-0.0347" />
      <path d="M 0.235971,-0.0347 A 0.0016,2.5729915023815325e-06 3.470408899297471e-37 0,1 0.237571,-0.034702" />
      <path d="M 0.237571,-0.034729 A 0.0016,2.5729915023815325e-06 3.470408899297471e-37 0,1 0.239171,-0.034727" />
      <path d="M 0.239171,-0.034727 A 0.0016000000000000044,2.5729915023815393e-06 3.470408899297471e-37 0,1 0.235971,-0.034727" />
      <path d="M 0.235971,-0.034727 A 0.0016,2.5729915023815325e-06 3.470408899297471e-37 0,1 0.237571,-0.034729" />
      <path d="M 0.258071,-0.034675 A 0.0016,2.5729915023815325e-06 3.470408899297471e-37 0,1 0.259671,-0.034672" />
      <path d="M 0.259671,-0.034672 A 0.0016,2.5729915023815325e-06 3.470408899297471e-37 0,1 0.256471,-0.034672" />
      <path d="M 0.256471,-0.034672 A 0.0016,2.5729915023815325e-06 3.470408899297471e-37 0,1 0.258071,-0.034675" />
      <path d="M 0.258071,-0.034702 A 0.0016,2.5729915023815325e-06 3.470408899297471e-37 0,1 0.259671,-0.0347" />
      <path d="M 0.259671,-0.0347 A 0.0016,2.5729915023815325e-06 3.470408899297471e-37 0,1 0.256471,-0.0347" />
      <path d="M 0.256471,-0.0347 A 0.0016,2.5729915023815325e-06 3.470408899297471e-37 0,1 0.258071,-0.034702" />
      <path d="M 0.258071,-0.034729 A 0.0016,2.5729915023815325e-06 3.470408899297471e-37 0,1 0.259671,-0.034727" />
      <path d="M 0.259671,-0.034727 A 0.0016,2.5729915023815325e-06 3.470408899297471e-37 0,1 0.256471,-0.034727" />
      <path d="M 0.256471,-0.034727 A 0.0016,2.5729915023815325e-06 3.470408899297471e-37 0,1 0.258071,-0.034729" />
      <path d="M 0.252321,0.00168 A 0.004500000000000004,7.236538600448066e-06 3.470408899297471e-37 0,1 0.243321,0.00168" />
      <path d="M 0.237571,-0.024675 A 0.0016,2.5729915023815325e-06 3.470408899297471e-37 0,1 0.239171,-0.024672" />
      <path d="M 0.239171,-0.024672 A 0.0016000000000000044,2.5729915023815393e-06 3.470408899297471e-37 0,1 0.235971,-0.024672" />
      <path d="M 0.235971,-0.024672 A 0.0016,2.5729915023815325e-06 3.470408899297471e-37 0,1 0.237571,-0.024675" />
      <path d="M 0.237571,-0.024702 A 0.0016,2.5729915023815325e-06 3.470408899297471e-37 0,1 0.239171,-0.0247" />
      <path d="M 0.239171,-0.0247 A 0.0016000000000000044,2.5729915023815393e-06 3.470408899297471e-37 0,1 0.235971,-0.0247" />
      <path d="M 0.235971,-0.0247 A 0.0016,2.5729915023815325e-06 3.470408899297471e-37 0,1 0.237571,-0.024702" />
      <path d="M 0.237571,-0.024729 A 0.0016,2.5729915023815325e-06 3.470408899297471e-37 0,1 0.239171,-0.024727" />
      <path d="M 0.239171,-0.024727 A 0.0016000000000000044,2.5729915023815393e-06 3.470408899297471e-37 0,1 0.235971,-0.024727" />
      <path d="M 0.235971,-0.024727 A 0.0016,2.5729915023815325e-06 3.470408899297471e-37 0,1 0.237571,-0.024729" />
      <path d="M 0.258071,-0.024675 A 0.0016,2.5729915023815325e-06 3.470408899297471e-37 0,1 0.259671,-0.024672" />
      <path d="M 0.259671,-0.024672 A 0.0016,2.5729915023815325e-06 3.470408899297471e-37 0,1 0.256471,-0.024672" />
      <path d="M 0.256471,-0.024672 A 0.0016,2.5729915023815325e-06 3.470408899297471e-37 0,1 0.258071,-0.024675" />
      <path d="M 0.258071,-0.024702 A 0.0016,2.5729915023815325e-06 3.470408899297471e-37 0,1 0.259671,-0.0247" />
      <path d="M 0.259671,-0.0247 A 0.0016,2.5729915023815325e-06 3.470408899297471e-37 0,1 0.256471,-0.0247" />
      <path d="M 0.256471,-0.0247 A 0.0016,2.5729915023815325e-06 3.470408899297471e-37 0,1 0.258071,-0.024702" />
      <path d="M 0.258071,-0.024729 A 0.0016,2.5729915023815325e-06 3.470408899297471e-37 0,1 0.259671,-0.024727" />
      <path d="M 0.259671,-0.024727 A 0.0016,2.5729915023815325e-06 3.470408899297471e-37 0,1 0.256471,-0.024727" />
      <path d="M 0.256471,-0.024727 A 0.0016,2.5729915023815325e-06 3.470408899297471e-37 0,1 0.258071,-0.024729" />
      <line x1="0.250821" y1="-0.032636" x2="0.250821" y2="-0.03262" />
      <line x1="0.244821" y1="-0.032636" x2="0.244821" y2="-0.03262" />
      <line x1="0.239171" y1="-0.034672" x2="0.239171" y2="-0.024672" />
      <line x1="0.235971" y1="-0.034672" x2="0.235971" y2="-0.024672" />
      <line x1="0.239171" y1="-0.0347" x2="0.239171" y2="-0.0247" />
      <line x1="0.235971" y1="-0.0347" x2="0.235971" y2="-0.0247" />
      <line x1="0.239171" y1="-0.034727" x2="0.239171" y2="-0.024727" />
      <line x1="0.235971" y1="-0.034727" x2="0.235971" y2="-0.024727" />
      <line x1="0.259671" y1="-0.034672" x2="0.259671" y2="-0.024672" />
      <line x1="0.256471" y1="-0.034672" x2="0.256471" y2="-0.024672" />
      <line x1="0.259671" y1="-0.0347" x2="0.259671" y2="-0.0247" />
      <line x1="0.256471" y1="-0.0347" x2="0.256471" y2="-0.0247" />
      <line x1="0.259671" y1="-0.034727" x2="0.259671" y2="-0.024727" />
      <line x1="0.256471" y1="-0.034727" x2="0.256471" y2="-0.024727" />
      <line x1="0.239821" y1="-4e-06" x2="0.239821" y2="0.001696" />
      <line x1="0.255821" y1="-4e-06" x2="0.255821" y2="0.001696" />
    </g>
    <g fill="none" stroke="rgb(50,120,190)" stroke-width="0.00035" id="cradle">
      <line x1="0.0" y1="0.0152" x2="0.008366" y2="0.0152" />
      <line x1="0.008366" y1="0.0152" x2="0.008366" y2="-0.0152" />
      <line x1="0.0" y1="-0.0152" x2="0.008366" y2="-0.0152" />
      <line x1="0.0" y1="0.0152" x2="0.0" y2="-0.0152" />
      <line x1="0.056" y1="-0.00305" x2="0.056" y2="-0.00235" />
      <line x1="0.056" y1="-0.00235" x2="0.05852" y2="-0.00235" />
      <line x1="0.05852" y1="-0.00235" x2="0.05852" y2="0.00235" />
      <line x1="0.056" y1="0.00235" x2="0.05852" y2="0.00235" />
      <line x1="0.056" y1="0.00235" x2="0.056" y2="0.00305" />
      <line x1="0.056" y1="0.00305" x2="0.0602" y2="0.00305" />
      <line x1="0.0602" y1="-0.00305" x2="0.0602" y2="0.00305" />
      <line x1="0.056" y1="-0.00305" x2="0.0602" y2="-0.00305" />
      <line x1="0.0615" y1="0.0152" x2="0.069866" y2="0.0152" />
      <line x1="0.069866" y1="0.0152" x2="0.069866" y2="0.011945" />
      <path d="M 0.069866,0.011945 A 0.0017,0.0017 0.0 0,1 0.069866,0.008555" />
      <line x1="0.069866" y1="0.008555" x2="0.069866" y2="-0.008555" />
      <path d="M 0.069866,-0.008555 A 0.0017,0.0017 0.0 0,1 0.069866,-0.011945" />
      <line x1="0.069866" y1="-0.011945" x2="0.069866" y2="-0.0152" />
      <line x1="0.0615" y1="-0.0152" x2="0.069866" y2="-0.0152" />
      <line x1="0.0615" y1="-0.00455" x2="0.0615" y2="-0.0152" />
      <line x1="0.0615" y1="-0.00455" x2="0.0649" y2="-0.00455" />
      <line x1="0.0649" y1="0.00455" x2="0.0649" y2="-0.00455" />
      <line x1="0.0615" y1="0.00455" x2="0.0649" y2="0.00455" />
      <line x1="0.0615" y1="0.0152" x2="0.0615" y2="0.00455" />
      <line x1="0.1147" y1="0.0152" x2="0.123066" y2="0.0152" />
      <line x1="0.123066" y1="0.0152" x2="0.123066" y2="0.0127" />
      <line x1="0.1172" y1="0.0127" x2="0.123066" y2="0.0127" />
      <line x1="0.1172" y1="0.0127" x2="0.1172" y2="-0.0127" />
      <line x1="0.1172" y1="-0.0127" x2="0.123066" y2="-0.0127" />
      <line x1="0.123066" y1="-0.0127" x2="0.123066" y2="-0.0152" />
      <line x1="0.1147" y1="-0.0152" x2="0.123066" y2="-0.0152" />
      <line x1="0.1147" y1="0.0152" x2="0.1147" y2="-0.0152" />
      <line x1="0.1751" y1="-0.037155" x2="0.1709" y2="-0.037155" />
      <line x1="0.1751" y1="-0.037155" x2="0.175121" y2="-0.037144" />
      <line x1="0.1751" y1="-0.037155" x2="0.1751" y2="-0.028055" />
      <line x1="0.1751" y1="-0.028055" x2="0.1709" y2="-0.028055" />
      <line x1="0.1709" y1="-0.037155" x2="0.1709" y2="-0.028055" />
      <line x1="0.1709" y1="-0.028055" x2="0.170921" y2="-0.028044" />
      <line x1="0.175121" y1="-0.037144" x2="0.175121" y2="-0.034775" />
      <line x1="0.175121" y1="-0.034175" x2="0.175121" y2="-0.031025" />
      <line x1="0.175121" y1="-0.030425" x2="0.175121" y2="-0.028044" />
      <line x1="0.175121" y1="-0.028044" x2="0.170921" y2="-0.028044" />
      <line x1="0.1751" y1="-0.028055" x2="0.175121" y2="-0.028044" />
      <path d="M 0.175111,-0.034775 A 0.0003000004921171459,1.0541647125916255e-06 89.99963532951298 0,0 0.175111,-0.034175" />
      <path d="M 0.175111,-0.031025 A 0.00030000049211714416,1.0541647125916194e-06 89.99963532951298 0,0 0.175111,-0.030425" />
      <line x1="0.176357" y1="-0.037777" x2="0.176357" y2="0.002772" />
      <line x1="0.176357" y1="0.002772" x2="0.176464" y2="0.002828" />
      <line x1="0.176357" y1="-0.037777" x2="0.184723" y2="-0.037778" />
      <line x1="0.184723" y1="-0.037778" x2="0.184723" y2="0.002772" />
      <line x1="0.176357" y1="0.002772" x2="0.184723" y2="0.002772" />
      <line x1="0.176464" y1="0.002828" x2="0.18483" y2="0.002827" />
      <line x1="0.184723" y1="0.002772" x2="0.18483" y2="0.002827" />
      <path d="M 0.184751,-0.037763 A 0.00295,5.3433066599107695e-06 1.1691323566651363e-20 0,1 0.18473,-0.037763" />
      <line x1="0.184723" y1="-0.037778" x2="0.18473" y2="-0.037774" />
      <line x1="0.184823" y1="-0.037726" x2="0.18483" y2="-0.037722" />
      <path d="M 0.184823,-0.037726 A 0.00295,5.3433066599107695e-06 1.1691323566651363e-20 0,1 0.184803,-0.037726" />
      <line x1="0.184751" y1="-0.037763" x2="0.184803" y2="-0.037737" />
      <line x1="0.18483" y1="-0.037722" x2="0.18483" y2="0.002827" />
      <line x1="0.184823" y1="-0.037726" x2="0.184823" y2="-0.035226" />
      <line x1="0.184823" y1="-0.035226" x2="0.184819" y2="-0.035228" />
      <line x1="0.184819" y1="-0.035228" x2="0.184819" y2="-0.032878" />
      <line x1="0.184821" y1="-0.032877" x2="0.184819" y2="-0.032878" />
      <line x1="0.184821" y1="-0.032877" x2="0.184821" y2="0.000323" />
      <line x1="0.184821" y1="0.000323" x2="0.184732" y2="0.000277" />
      <line x1="0.184732" y1="-0.032923" x2="0.184732" y2="0.000277" />
      <line x1="0.184735" y1="-0.032922" x2="0.184732" y2="-0.032923" />
      <line x1="0.184735" y1="-0.035272" x2="0.184735" y2="-0.032922" />
      <line x1="0.184735" y1="-0.035272" x2="0.18473" y2="-0.035274" />
      <line x1="0.18473" y1="-0.037774" x2="0.18473" y2="-0.035274" />
      <line x1="0.184751" y1="-0.037763" x2="0.184751" y2="-0.035263" />
      <line x1="0.184803" y1="-0.037737" x2="0.184803" y2="-0.035237" />
      <line x1="0.184751" y1="-0.035263" x2="0.184747" y2="-0.035266" />
      <line x1="0.184747" y1="-0.035266" x2="0.184747" y2="-0.032916" />
      <line x1="0.184807" y1="-0.032885" x2="0.184747" y2="-0.032916" />
      <line x1="0.184807" y1="-0.035235" x2="0.184807" y2="-0.032885" />
      <line x1="0.184807" y1="-0.035235" x2="0.184803" y2="-0.035237" />
      <line x1="0.184732" y1="-0.032877" x2="0.184821" y2="-0.032877" />
      <path d="M 0.184819,-0.032878 A 0.0017,3.079193668423155e-06 1.1691323566651363e-20 0,1 0.184732,-0.032878" />
      <path d="M 0.184732,-0.032885 A 0.0017,3.079193668423155e-06 1.1691323566651363e-20 0,1 0.184807,-0.032885" />
      <path d="M 0.184747,-0.032916 A 0.0017,3.079193668423155e-06 1.1691323566651363e-20 0,1 0.184732,-0.032916" />
      <path d="M 0.184732,-0.032922 A 0.0017,3.079193668423155e-06 1.1691323566651363e-20 0,1 0.184735,-0.032922" />
      <path d="M 0.184819,-0.035228 A 0.0017,3.079193668423155e-06 1.1691323566651363e-20 0,1 0.184807,-0.035228" />
      <path d="M 0.184747,-0.035266 A 0.0017,3.079193668423155e-06 1.1691323566651363e-20 0,1 0.184735,-0.035266" />
      <line x1="0.176357" y1="-0.034175" x2="0.175111" y2="-0.034175" />
      <line x1="0.176357" y1="-0.034775" x2="0.175111" y2="-0.034775" />
      <line x1="0.176357" y1="-0.030425" x2="0.175111" y2="-0.030425" />
      <line x1="0.176357" y1="-0.031025" x2="0.175111" y2="-0.031025" />
      <line x1="0.244771" y1="-0.032901" x2="0.244771" y2="-0.028799" />
      <line x1="0.250871" y1="-0.032901" x2="0.250871" y2="-0.028799" />
      <path d="M 0.247821,-0.030417 A 0.0003,0.0002999995113179757 -4.882772539980884e-15 0,0 0.248121,-0.030717" />
      <path d="M 0.247521,-0.030717 A 0.0003,0.0002999995113179757 -4.882772539980884e-15 0,0 0.247821,-0.030417" />
      <path d="M 0.247821,-0.030423 A 0.0003,0.0002999995113179757 -4.882772539980884e-15 0,0 0.248121,-0.030723" />
      <path d="M 0.248121,-0.030723 A 0.0003000000000000086,0.00029999951131798433 -4.882772539980884e-15 0,0 0.247521,-0.030723" />
      <path d="M 0.247521,-0.030723 A 0.0003,0.0002999995113179757 -4.882772539980884e-15 0,0 0.247821,-0.030423" />
      <line x1="0.232621" y1="0.002805" x2="0.263021" y2="0.002805" />
      <line x1="0.232621" y1="-0.03776" x2="0.232621" y2="0.00279" />
      <line x1="0.232621" y1="0.002805" x2="0.232621" y2="0.00279" />
      <line x1="0.263021" y1="0.002805" x2="0.263021" y2="0.00279" />
      <line x1="0.232621" y1="0.00279" x2="0.263021" y2="0.00279" />
      <path d="M 0.240518,-0.03776 A 0.00295,5.324629472107261e-06 -2.0000737607656855e-36 0,1 0.234624,-0.03776" />
      <line x1="0.232621" y1="-0.03776" x2="0.234624" y2="-0.03776" />
      <line x1="0.261018" y1="-0.03776" x2="0.263021" y2="-0.03776" />
      <path d="M 0.261018,-0.03776 A 0.00295,5.324629472107261e-06 -2.0000737607656855e-36 0,1 0.255124,-0.03776" />
      <line x1="0.240518" y1="-0.03776" x2="0.255124" y2="-0.03776" />
      <line x1="0.263021" y1="-0.03776" x2="0.263021" y2="0.00279" />
      <line x1="0.252371" y1="-0.032901" x2="0.252371" y2="-0.032899" />
      <line x1="0.252371" y1="-0.032899" x2="0.252371" y2="-0.028799" />
      <line x1="0.252371" y1="-0.028799" x2="0.243271" y2="-0.028799" />
      <line x1="0.243271" y1="-0.032901" x2="0.243271" y2="-0.032899" />
      <line x1="0.243271" y1="-0.032899" x2="0.243271" y2="-0.028799" />
      <line x1="0.261018" y1="-0.03776" x2="0.261018" y2="-0.03526" />
      <line x1="0.261018" y1="-0.03526" x2="0.259766" y2="-0.03526" />
      <line x1="0.259766" y1="-0.03526" x2="0.259766" y2="-0.03291" />
      <line x1="0.260521" y1="-0.03291" x2="0.259766" y2="-0.03291" />
      <line x1="0.260521" y1="-0.03291" x2="0.260521" y2="0.00029" />
      <line x1="0.260521" y1="0.00029" x2="0.235121" y2="0.00029" />
      <line x1="0.235121" y1="-0.03291" x2="0.235121" y2="0.00029" />
      <line x1="0.235876" y1="-0.03291" x2="0.235121" y2="-0.03291" />
      <line x1="0.235876" y1="-0.03526" x2="0.235876" y2="-0.03291" />
      <line x1="0.235876" y1="-0.03526" x2="0.234624" y2="-0.03526" />
      <line x1="0.234624" y1="-0.03776" x2="0.234624" y2="-0.03526" />
      <line x1="0.240518" y1="-0.03776" x2="0.240518" y2="-0.03526" />
      <line x1="0.255124" y1="-0.03776" x2="0.255124" y2="-0.03526" />
      <line x1="0.240518" y1="-0.03526" x2="0.239266" y2="-0.03526" />
      <line x1="0.239266" y1="-0.03526" x2="0.239266" y2="-0.03291" />
      <line x1="0.256376" y1="-0.03291" x2="0.239266" y2="-0.03291" />
      <line x1="0.256376" y1="-0.03526" x2="0.256376" y2="-0.03291" />
      <line x1="0.256376" y1="-0.03526" x2="0.255124" y2="-0.03526" />
      <line x1="0.243271" y1="-0.032901" x2="0.252371" y2="-0.032901" />
      <path d="M 0.259766,-0.03291 A 0.0017,3.068430543248252e-06 -2.0000737607656855e-36 0,1 0.256376,-0.03291" />
      <path d="M 0.239266,-0.03291 A 0.0017,3.068430543248252e-06 -2.0000737607656855e-36 0,1 0.235876,-0.03291" />
      <line x1="0.235121" y1="-0.032899" x2="0.243271" y2="-0.032899" />
      <line x1="0.252371" y1="-0.032899" x2="0.260521" y2="-0.032899" />
      <line x1="0.260521" y1="-0.032899" x2="0.260521" y2="0.00029" />
      <line x1="0.235121" y1="-0.032899" x2="0.235121" y2="0.00029" />
      <path d="M 0.259766,-0.03526 A 0.0017,3.068430543248252e-06 -2.0000737607656855e-36 0,1 0.256376,-0.03526" />
      <path d="M 0.239266,-0.03526 A 0.0017,3.068430543248252e-06 -2.0000737607656855e-36 0,1 0.235876,-0.03526" />
      <line x1="0.248121" y1="-0.030723" x2="0.248121" y2="-0.030717" />
      <line x1="0.247521" y1="-0.030723" x2="0.247521" y2="-0.030717" />
    </g>
    <g fill="url(#hatch_cradle)" stroke="none" stroke-width="0" id="cradle_fill">
      <path d="M 0.008366,0.0152 L 0.0,0.0152 L 0.0,-0.0152 L 0.008366,-0.0152 L 0.008366,0.0152" />
      <path d="M 0.056,-0.00235 L 0.056,-0.00305 L 0.0602,-0.00305 L 0.0602,0.00305 L 0.056,0.00305 L 0.056,0.00235 L 0.05852,0.00235 L 0.05852,-0.00235 L 0.056,-0.00235" />
      <path d="M 0.069866,0.0152 L 0.0615,0.0152 L 0.0615,0.00455 L 0.0649,0.00455 L 0.0649,-0.00455 L 0.0615,-0.00455 L 0.0615,-0.0152 L 0.069866,-0.0152 L 0.069866,-0.011945 A 0.0017,0.0017 0.0 0,0 0.069866,-0.008555 L 0.069866,0.008555 A 0.0017,0.0017 0.0 0,0 0.069866,0.011945 L 0.069866,0.0152" />
      <path d="M 0.123066,0.0152 L 0.1147,0.0152 L 0.1147,-0.0152 L 0.123066,-0.0152 L 0.123066,-0.0127 L 0.1172,-0.0127 L 0.1172,0.0127 L 0.123066,0.0127 L 0.123066,0.0152" />
    </g>
    <g fill="none" stroke="rgb(50,120,190)" stroke-opacity="0.4" stroke-width="0.00015" id="cradle_hidden" stroke-dasharray="0.0018 0.00045">
      <line x1="0.1709" y1="-0.037155" x2="0.170921" y2="-0.037144" />
      <line x1="0.175121" y1="-0.037144" x2="0.170921" y2="-0.037144" />
      <line x1="0.170921" y1="-0.037144" x2="0.170921" y2="-0.028044" />
      <line x1="0.170902" y1="-0.036454" x2="0.170919" y2="-0.036446" />
      <line x1="0.170902" y1="-0.036454" x2="0.170902" y2="-0.028754" />
      <line x1="0.170902" y1="-0.028754" x2="0.170919" y2="-0.028746" />
      <line x1="0.170919" y1="-0.036446" x2="0.170919" y2="-0.028746" />
      <line x1="0.175121" y1="-0.034775" x2="0.175121" y2="-0.034175" />
      <line x1="0.175121" y1="-0.031025" x2="0.175121" y2="-0.030425" />
      <path d="M 0.175111,-0.034175 A 0.0003000004921171459,1.0541647125916255e-06 89.99963532951298 0,0 0.175111,-0.034775" />
      <path d="M 0.175111,-0.030425 A 0.00030000049211714416,1.0541647125916194e-06 89.99963532951298 0,0 0.175111,-0.031025" />
      <line x1="0.173422" y1="-0.036454" x2="0.170902" y2="-0.036454" />
      <line x1="0.173439" y1="-0.036446" x2="0.170919" y2="-0.036446" />
      <line x1="0.173422" y1="-0.036454" x2="0.173439" y2="-0.036446" />
      <line x1="0.173422" y1="-0.036454" x2="0.173422" y2="-0.028754" />
      <line x1="0.173422" y1="-0.028754" x2="0.170902" y2="-0.028754" />
      <line x1="0.173439" y1="-0.028746" x2="0.170919" y2="-0.028746" />
      <line x1="0.173422" y1="-0.028754" x2="0.173439" y2="-0.028746" />
      <line x1="0.173439" y1="-0.036446" x2="0.173439" y2="-0.028746" />
      <path d="M 0.178111,-0.034175 A 0.0003000004921171459,1.0541647125916255e-06 89.99963532951298 0,0 0.178111,-0.034775" />
      <path d="M 0.178111,-0.034775 A 0.0003000004921171459,1.0541647125916255e-06 89.99963532951298 0,0 0.178111,-0.034175" />
      <path d="M 0.178111,-0.030425 A 0.00030000049211714416,1.0541647125916194e-06 89.99963532951298 0,0 0.178111,-0.031025" />
      <path d="M 0.178111,-0.031025 A 0.00030000049211714416,1.0541647125916194e-06 89.99963532951298 0,0 0.178111,-0.030425" />
      <line x1="0.176357" y1="-0.037777" x2="0.176464" y2="-0.037722" />
      <line x1="0.176464" y1="-0.037722" x2="0.176464" y2="0.002828" />
      <line x1="0.176427" y1="-0.036392" x2="0.176395" y2="-0.036408" />
      <line x1="0.176427" y1="-0.036392" x2="0.176427" y2="-0.028792" />
      <line x1="0.176427" y1="-0.028792" x2="0.176395" y2="-0.028808" />
      <line x1="0.176395" y1="-0.036408" x2="0.176395" y2="-0.028808" />
      <path d="M 0.18473,-0.037763 A 0.00295,5.3433066599107695e-06 1.1691323566651363e-20 0,1 0.181925,-0.037769" />
      <path d="M 0.181925,-0.037769 A 0.00295,5.3433066599107695e-06 1.1691323566651363e-20 0,1 0.18473,-0.037774" />
      <line x1="0.176464" y1="-0.037722" x2="0.18483" y2="-0.037722" />
      <path d="M 0.184803,-0.037726 A 0.00295,5.3433066599107695e-06 1.1691323566651363e-20 0,1 0.181997,-0.037731" />
      <path d="M 0.181997,-0.037731 A 0.00295,5.3433066599107695e-06 1.1691323566651363e-20 0,1 0.184803,-0.037737" />
      <line x1="0.176427" y1="-0.036392" x2="0.179827" y2="-0.036392" />
      <line x1="0.179795" y1="-0.036408" x2="0.179827" y2="-0.036392" />
      <line x1="0.176395" y1="-0.036408" x2="0.179795" y2="-0.036408" />
      <line x1="0.179827" y1="-0.036392" x2="0.179827" y2="-0.032892" />
      <line x1="0.179827" y1="-0.032892" x2="0.178927" y2="-0.032892" />
      <line x1="0.178927" y1="-0.032892" x2="0.178927" y2="-0.028792" />
      <line x1="0.176427" y1="-0.028792" x2="0.178927" y2="-0.028792" />
      <line x1="0.178927" y1="-0.028792" x2="0.178895" y2="-0.028808" />
      <line x1="0.176395" y1="-0.028808" x2="0.178895" y2="-0.028808" />
      <line x1="0.179795" y1="-0.036408" x2="0.179795" y2="-0.032908" />
      <line x1="0.179795" y1="-0.032908" x2="0.178895" y2="-0.032908" />
      <line x1="0.178895" y1="-0.032908" x2="0.178895" y2="-0.028808" />
      <path d="M 0.184751,-0.035263 A 0.00295,5.3433066599107695e-06 1.1691323566651363e-20 0,1 0.181925,-0.035269" />
      <path d="M 0.181925,-0.035269 A 0.00295,5.3433066599107695e-06 1.1691323566651363e-20 0,1 0.18473,-0.035274" />
      <path d="M 0.184823,-0.035226 A 0.00295,5.3433066599107695e-06 1.1691323566651363e-20 0,1 0.181997,-0.035231" />
      <path d="M 0.181997,-0.035231 A 0.00295,5.3433066599107695e-06 1.1691323566651363e-20 0,1 0.184803,-0.035237" />
      <line x1="0.179795" y1="-0.032908" x2="0.179827" y2="-0.032892" />
      <line x1="0.178955" y1="-0.032877" x2="0.184732" y2="-0.032877" />
      <path d="M 0.184732,-0.032878 A 0.0017,3.079193668423155e-06 1.1691323566651363e-20 0,1 0.183247,-0.032881" />
      <path d="M 0.183247,-0.032881 A 0.0017,3.079193668423155e-06 1.1691323566651363e-20 0,1 0.184732,-0.032885" />
      <path d="M 0.184732,-0.032916 A 0.0017,3.079193668423155e-06 1.1691323566651363e-20 0,1 0.183175,-0.032919" />
      <path d="M 0.183175,-0.032919 A 0.0017,3.079193668423155e-06 1.1691323566651363e-20 0,1 0.184732,-0.032922" />
      <line x1="0.178866" y1="-0.032923" x2="0.184732" y2="-0.032923" />
      <line x1="0.178866" y1="-0.032923" x2="0.178895" y2="-0.032908" />
      <line x1="0.178927" y1="-0.032892" x2="0.178955" y2="-0.032877" />
      <line x1="0.178866" y1="0.000277" x2="0.178955" y2="0.000323" />
      <line x1="0.178955" y1="-0.032877" x2="0.178955" y2="0.000323" />
      <line x1="0.178866" y1="-0.032923" x2="0.178866" y2="0.000277" />
      <path d="M 0.184807,-0.035228 A 0.0017,3.079193668423155e-06 1.1691323566651363e-20 0,1 0.183247,-0.035231" />
      <path d="M 0.183247,-0.035231 A 0.0017,3.079193668423155e-06 1.1691323566651363e-20 0,1 0.184807,-0.035235" />
      <line x1="0.178955" y1="0.000323" x2="0.184821" y2="0.000323" />
      <line x1="0.178866" y1="0.000277" x2="0.184732" y2="0.000277" />
      <path d="M 0.184735,-0.035266 A 0.0017,3.079193668423155e-06 1.1691323566651363e-20 0,1 0.183175,-0.035269" />
      <path d="M 0.183175,-0.035269 A 0.0017,3.079193668423155e-06 1.1691323566651363e-20 0,1 0.184735,-0.035272" />
      <line x1="0.178111" y1="-0.034175" x2="0.176357" y2="-0.034175" />
      <line x1="0.178111" y1="-0.034775" x2="0.176357" y2="-0.034775" />
      <line x1="0.178111" y1="-0.030425" x2="0.176357" y2="-0.030425" />
      <line x1="0.178111" y1="-0.031025" x2="0.176357" y2="-0.031025" />
      <line x1="0.181925" y1="-0.037769" x2="0.181925" y2="-0.035269" />
      <line x1="0.181997" y1="-0.037731" x2="0.181997" y2="-0.035231" />
      <line x1="0.183247" y1="-0.035231" x2="0.183247" y2="-0.032881" />
      <line x1="0.183175" y1="-0.035269" x2="0.183175" y2="-0.032919" />
      <line x1="0.244771" y1="-0.037142" x2="0.244771" y2="-0.037135" />
      <line x1="0.244771" y1="-0.037135" x2="0.250871" y2="-0.037135" />
      <line x1="0.250871" y1="-0.037142" x2="0.250871" y2="-0.037135" />
      <line x1="0.244771" y1="-0.037142" x2="0.250871" y2="-0.037142" />
      <line x1="0.244771" y1="-0.037142" x2="0.244771" y2="-0.032901" />
      <line x1="0.244771" y1="-0.028799" x2="0.244771" y2="-0.028042" />
      <line x1="0.244771" y1="-0.028042" x2="0.244771" y2="-0.028035" />
      <line x1="0.244771" y1="-0.037135" x2="0.244771" y2="-0.028035" />
      <line x1="0.250871" y1="-0.037135" x2="0.250871" y2="-0.028035" />
      <line x1="0.244771" y1="-0.028035" x2="0.250871" y2="-0.028035" />
      <line x1="0.245471" y1="-0.036435" x2="0.250171" y2="-0.036435" />
      <line x1="0.245471" y1="-0.036435" x2="0.245471" y2="-0.028735" />
      <line x1="0.245471" y1="-0.028735" x2="0.250171" y2="-0.028735" />
      <line x1="0.250171" y1="-0.036435" x2="0.250171" y2="-0.028735" />
      <line x1="0.250871" y1="-0.037142" x2="0.250871" y2="-0.032901" />
      <line x1="0.250871" y1="-0.028799" x2="0.250871" y2="-0.028042" />
      <line x1="0.250871" y1="-0.028042" x2="0.250871" y2="-0.028035" />
      <line x1="0.244771" y1="-0.028042" x2="0.250871" y2="-0.028042" />
      <path d="M 0.247821,-0.034167 A 0.0003,0.0002999995113179757 -4.882772539980884e-15 0,0 0.248121,-0.034467" />
      <path d="M 0.248121,-0.034467 A 0.0003000000000000086,0.00029999951131798433 -4.882772539980884e-15 0,0 0.247521,-0.034467" />
      <path d="M 0.247521,-0.034467 A 0.0003,0.0002999995113179757 -4.882772539980884e-15 0,0 0.247821,-0.034167" />
      <path d="M 0.248121,-0.030717 A 0.0003000000000000086,0.00029999951131798433 -4.882772539980884e-15 0,0 0.247521,-0.030717" />
      <line x1="0.245471" y1="-0.036439" x2="0.245471" y2="-0.036435" />
      <line x1="0.250171" y1="-0.036439" x2="0.250171" y2="-0.036435" />
      <line x1="0.245471" y1="-0.036439" x2="0.250171" y2="-0.036439" />
      <line x1="0.245471" y1="-0.036439" x2="0.245471" y2="-0.028739" />
      <line x1="0.245471" y1="-0.028739" x2="0.245471" y2="-0.028735" />
      <line x1="0.250171" y1="-0.028739" x2="0.250171" y2="-0.028735" />
      <line x1="0.245471" y1="-0.028739" x2="0.250171" y2="-0.028739" />
      <line x1="0.250171" y1="-0.036439" x2="0.250171" y2="-0.028739" />
      <path d="M 0.247821,-0.034173 A 0.0003,0.0002999995113179757 -4.882772539980884e-15 0,0 0.248121,-0.034473" />
      <path d="M 0.248121,-0.034473 A 0.0003000000000000086,0.00029999951131798433 -4.882772539980884e-15 0,0 0.247521,-0.034473" />
      <path d="M 0.247521,-0.034473 A 0.0003,0.0002999995113179757 -4.882772539980884e-15 0,0 0.247821,-0.034173" />
      <line x1="0.232621" y1="-0.037745" x2="0.232621" y2="0.002805" />
      <line x1="0.232621" y1="-0.037745" x2="0.263021" y2="-0.037745" />
      <line x1="0.263021" y1="-0.037745" x2="0.263021" y2="0.002805" />
      <line x1="0.252371" y1="-0.036395" x2="0.243271" y2="-0.036395" />
      <line x1="0.252371" y1="-0.036395" x2="0.252371" y2="-0.028795" />
      <line x1="0.252371" y1="-0.028795" x2="0.243271" y2="-0.028795" />
      <line x1="0.243271" y1="-0.036395" x2="0.243271" y2="-0.028795" />
      <line x1="0.232621" y1="-0.037745" x2="0.232621" y2="-0.03776" />
      <line x1="0.263021" y1="-0.037745" x2="0.263021" y2="-0.03776" />
      <line x1="0.252371" y1="-0.036395" x2="0.252371" y2="-0.036401" />
      <line x1="0.243271" y1="-0.036401" x2="0.252371" y2="-0.036401" />
      <line x1="0.243271" y1="-0.036395" x2="0.243271" y2="-0.036401" />
      <line x1="0.252371" y1="-0.036401" x2="0.252371" y2="-0.032901" />
      <line x1="0.252371" y1="-0.028795" x2="0.252371" y2="-0.028799" />
      <line x1="0.243271" y1="-0.028795" x2="0.243271" y2="-0.028799" />
      <line x1="0.243271" y1="-0.036401" x2="0.243271" y2="-0.032901" />
      <path d="M 0.240518,-0.03526 A 0.00295,5.324629472107261e-06 -2.0000737607656855e-36 0,1 0.234624,-0.03526" />
      <path d="M 0.261018,-0.03526 A 0.00295,5.324629472107261e-06 -2.0000737607656855e-36 0,1 0.255124,-0.03526" />
      <line x1="0.260521" y1="-0.032899" x2="0.260521" y2="-0.03291" />
      <line x1="0.235121" y1="-0.032899" x2="0.235121" y2="-0.03291" />
      <line x1="0.235121" y1="0.000301" x2="0.260521" y2="0.000301" />
      <line x1="0.260521" y1="0.00029" x2="0.260521" y2="0.000301" />
      <line x1="0.235121" y1="0.00029" x2="0.235121" y2="0.000301" />
      <line x1="0.260521" y1="0.000301" x2="0.260521" y2="0.00029" />
      <line x1="0.235121" y1="0.000301" x2="0.235121" y2="0.00029" />
      <line x1="0.248121" y1="-0.034473" x2="0.248121" y2="-0.034467" />
      <line x1="0.247521" y1="-0.034473" x2="0.247521" y2="-0.034467" />
    </g>
  </g>
  <text x="0.024000" y="-0.020875" text-anchor="middle" font-family="'Input Sans Narrow', 'DejaVu Sans', Arial, sans-serif" font-size="0.002500" font-weight="bold" fill="#333">A-A</text>
  <text x="0.024000" y="-0.017375" text-anchor="middle" font-family="'Input Sans Narrow', 'DejaVu Sans', Arial, sans-serif" font-size="0.001800" fill="#888">front_horn</text>
  <line x1="0.000000" y1="0.016000" x2="0.000000" y2="0.019000" stroke="#5C7080" stroke-width="0.000140" stroke-opacity="0.5"/>
  <line x1="0.048000" y1="0.016000" x2="0.048000" y2="0.019000" stroke="#5C7080" stroke-width="0.000140" stroke-opacity="0.5"/>
  <line x1="0.000000" y1="0.017400" x2="0.000000" y2="0.019000" stroke="#5C7080" stroke-width="0.000200"/>
  <line x1="0.048000" y1="0.017400" x2="0.048000" y2="0.019000" stroke="#5C7080" stroke-width="0.000200"/>
  <line x1="0.000000" y1="0.018200" x2="0.048000" y2="0.018200" stroke="#5C7080" stroke-width="0.000200"/>
  <polygon points="0.000000,0.018200 0.001500,0.017600 0.001500,0.018800" fill="#5C7080"/>
  <polygon points="0.048000,0.018200 0.046500,0.017600 0.046500,0.018800" fill="#5C7080"/>
  <text x="0.024000" y="0.017000" text-anchor="middle" font-family="'Input Sans Narrow', 'DejaVu Sans', Arial, sans-serif" font-size="0.001600" fill="#5C7080">48.0</text>
  <line x1="0.048800" y1="-0.015200" x2="0.051800" y2="-0.015200" stroke="#5C7080" stroke-width="0.000140" stroke-opacity="0.5"/>
  <line x1="0.048800" y1="0.015200" x2="0.051800" y2="0.015200" stroke="#5C7080" stroke-width="0.000140" stroke-opacity="0.5"/>
  <line x1="0.050200" y1="-0.015200" x2="0.051800" y2="-0.015200" stroke="#5C7080" stroke-width="0.000200"/>
  <line x1="0.050200" y1="0.015200" x2="0.051800" y2="0.015200" stroke="#5C7080" stroke-width="0.000200"/>
  <line x1="0.051000" y1="-0.015200" x2="0.051000" y2="0.015200" stroke="#5C7080" stroke-width="0.000200"/>
  <polygon points="0.051000,-0.015200 0.050400,-0.013700 0.051600,-0.013700" fill="#5C7080"/>
  <polygon points="0.051000,0.015200 0.050400,0.013700 0.051600,0.013700" fill="#5C7080"/>
  <text x="0.052500" y="-0.000000" text-anchor="middle" dominant-baseline="central" font-family="'Input Sans Narrow', 'DejaVu Sans', Arial, sans-serif" font-size="0.001600" fill="#5C7080" transform="rotate(-90 0.052500 -0.000000)">30.4</text>
  <text x="0.081350" y="-0.020875" text-anchor="middle" font-family="'Input Sans Narrow', 'DejaVu Sans', Arial, sans-serif" font-size="0.002500" font-weight="bold" fill="#333">B-B</text>
  <text x="0.081350" y="-0.017375" text-anchor="middle" font-family="'Input Sans Narrow', 'DejaVu Sans', Arial, sans-serif" font-size="0.001800" fill="#888">rear_horn</text>
  <line x1="0.056000" y1="0.016000" x2="0.056000" y2="0.019000" stroke="#5C7080" stroke-width="0.000140" stroke-opacity="0.5"/>
  <line x1="0.106700" y1="0.016000" x2="0.106700" y2="0.019000" stroke="#5C7080" stroke-width="0.000140" stroke-opacity="0.5"/>
  <line x1="0.056000" y1="0.017400" x2="0.056000" y2="0.019000" stroke="#5C7080" stroke-width="0.000200"/>
  <line x1="0.106700" y1="0.017400" x2="0.106700" y2="0.019000" stroke="#5C7080" stroke-width="0.000200"/>
  <line x1="0.056000" y1="0.018200" x2="0.106700" y2="0.018200" stroke="#5C7080" stroke-width="0.000200"/>
  <polygon points="0.056000,0.018200 0.057500,0.017600 0.057500,0.018800" fill="#5C7080"/>
  <polygon points="0.106700,0.018200 0.105200,0.017600 0.105200,0.018800" fill="#5C7080"/>
  <text x="0.081350" y="0.017000" text-anchor="middle" font-family="'Input Sans Narrow', 'DejaVu Sans', Arial, sans-serif" font-size="0.001600" fill="#5C7080">50.7</text>
  <line x1="0.107500" y1="-0.015200" x2="0.110500" y2="-0.015200" stroke="#5C7080" stroke-width="0.000140" stroke-opacity="0.5"/>
  <line x1="0.107500" y1="0.015200" x2="0.110500" y2="0.015200" stroke="#5C7080" stroke-width="0.000140" stroke-opacity="0.5"/>
  <line x1="0.108900" y1="-0.015200" x2="0.110500" y2="-0.015200" stroke="#5C7080" stroke-width="0.000200"/>
  <line x1="0.108900" y1="0.015200" x2="0.110500" y2="0.015200" stroke="#5C7080" stroke-width="0.000200"/>
  <line x1="0.109700" y1="-0.015200" x2="0.109700" y2="0.015200" stroke="#5C7080" stroke-width="0.000200"/>
  <polygon points="0.109700,-0.015200 0.109100,-0.013700 0.110300,-0.013700" fill="#5C7080"/>
  <polygon points="0.109700,0.015200 0.109100,0.013700 0.110300,0.013700" fill="#5C7080"/>
  <text x="0.111200" y="-0.000000" text-anchor="middle" dominant-baseline="central" font-family="'Input Sans Narrow', 'DejaVu Sans', Arial, sans-serif" font-size="0.001600" fill="#5C7080" transform="rotate(-90 0.111200 -0.000000)">30.4</text>
  <text x="0.138800" y="-0.020875" text-anchor="middle" font-family="'Input Sans Narrow', 'DejaVu Sans', Arial, sans-serif" font-size="0.002500" font-weight="bold" fill="#333">C-C</text>
  <text x="0.138800" y="-0.017375" text-anchor="middle" font-family="'Input Sans Narrow', 'DejaVu Sans', Arial, sans-serif" font-size="0.001800" fill="#888">mid_body</text>
  <line x1="0.114700" y1="0.016000" x2="0.114700" y2="0.019000" stroke="#5C7080" stroke-width="0.000140" stroke-opacity="0.5"/>
  <line x1="0.162900" y1="0.016000" x2="0.162900" y2="0.019000" stroke="#5C7080" stroke-width="0.000140" stroke-opacity="0.5"/>
  <line x1="0.114700" y1="0.017400" x2="0.114700" y2="0.019000" stroke="#5C7080" stroke-width="0.000200"/>
  <line x1="0.162900" y1="0.017400" x2="0.162900" y2="0.019000" stroke="#5C7080" stroke-width="0.000200"/>
  <line x1="0.114700" y1="0.018200" x2="0.162900" y2="0.018200" stroke="#5C7080" stroke-width="0.000200"/>
  <polygon points="0.114700,0.018200 0.116200,0.017600 0.116200,0.018800" fill="#5C7080"/>
  <polygon points="0.162900,0.018200 0.161400,0.017600 0.161400,0.018800" fill="#5C7080"/>
  <text x="0.138800" y="0.017000" text-anchor="middle" font-family="'Input Sans Narrow', 'DejaVu Sans', Arial, sans-serif" font-size="0.001600" fill="#5C7080">48.2</text>
  <line x1="0.163700" y1="-0.015200" x2="0.166700" y2="-0.015200" stroke="#5C7080" stroke-width="0.000140" stroke-opacity="0.5"/>
  <line x1="0.163700" y1="0.015200" x2="0.166700" y2="0.015200" stroke="#5C7080" stroke-width="0.000140" stroke-opacity="0.5"/>
  <line x1="0.165100" y1="-0.015200" x2="0.166700" y2="-0.015200" stroke="#5C7080" stroke-width="0.000200"/>
  <line x1="0.165100" y1="0.015200" x2="0.166700" y2="0.015200" stroke="#5C7080" stroke-width="0.000200"/>
  <line x1="0.165900" y1="-0.015200" x2="0.165900" y2="0.015200" stroke="#5C7080" stroke-width="0.000200"/>
  <polygon points="0.165900,-0.015200 0.165300,-0.013700 0.166500,-0.013700" fill="#5C7080"/>
  <polygon points="0.165900,0.015200 0.165300,0.013700 0.166500,0.013700" fill="#5C7080"/>
  <text x="0.167400" y="-0.000000" text-anchor="middle" dominant-baseline="central" font-family="'Input Sans Narrow', 'DejaVu Sans', Arial, sans-serif" font-size="0.001600" fill="#5C7080" transform="rotate(-90 0.167400 -0.000000)">30.4</text>
  <text x="0.197760" y="-0.020875" text-anchor="middle" font-family="'Input Sans Narrow', 'DejaVu Sans', Arial, sans-serif" font-size="0.002500" font-weight="bold" fill="#333">side_XZ</text>
  <line x1="0.170900" y1="0.038578" x2="0.170900" y2="0.041578" stroke="#5C7080" stroke-width="0.000140" stroke-opacity="0.5"/>
  <line x1="0.224621" y1="0.038578" x2="0.224621" y2="0.041578" stroke="#5C7080" stroke-width="0.000140" stroke-opacity="0.5"/>
  <line x1="0.170900" y1="0.039978" x2="0.170900" y2="0.041578" stroke="#5C7080" stroke-width="0.000200"/>
  <line x1="0.224621" y1="0.039978" x2="0.224621" y2="0.041578" stroke="#5C7080" stroke-width="0.000200"/>
  <line x1="0.170900" y1="0.040778" x2="0.224621" y2="0.040778" stroke="#5C7080" stroke-width="0.000200"/>
  <polygon points="0.170900,0.040778 0.172400,0.040178 0.172400,0.041378" fill="#5C7080"/>
  <polygon points="0.224621,0.040778 0.223121,0.040178 0.223121,0.041378" fill="#5C7080"/>
  <text x="0.197760" y="0.039578" text-anchor="middle" font-family="'Input Sans Narrow', 'DejaVu Sans', Arial, sans-serif" font-size="0.001600" fill="#5C7080">53.7</text>
  <line x1="0.225421" y1="-0.003207" x2="0.228421" y2="-0.003207" stroke="#5C7080" stroke-width="0.000140" stroke-opacity="0.5"/>
  <line x1="0.225421" y1="0.037778" x2="0.228421" y2="0.037778" stroke="#5C7080" stroke-width="0.000140" stroke-opacity="0.5"/>
  <line x1="0.226821" y1="-0.003207" x2="0.228421" y2="-0.003207" stroke="#5C7080" stroke-width="0.000200"/>
  <line x1="0.226821" y1="0.037778" x2="0.228421" y2="0.037778" stroke="#5C7080" stroke-width="0.000200"/>
  <line x1="0.227621" y1="-0.003207" x2="0.227621" y2="0.037778" stroke="#5C7080" stroke-width="0.000200"/>
  <polygon points="0.227621,-0.003207 0.227021,-0.001707 0.228221,-0.001707" fill="#5C7080"/>
  <polygon points="0.227621,0.037778 0.227021,0.036278 0.228221,0.036278" fill="#5C7080"/>
  <text x="0.229121" y="0.017285" text-anchor="middle" dominant-baseline="central" font-family="'Input Sans Narrow', 'DejaVu Sans', Arial, sans-serif" font-size="0.001600" fill="#5C7080" transform="rotate(-90 0.229121 0.017285)">41.0</text>
  <line x1="0.167900" y1="-0.001700" x2="0.227621" y2="-0.001700" stroke="#555" stroke-width="0.000250" stroke-dasharray="0.002500,0.000800,0.000500,0.000800"/>
  <text x="0.166400" y="-0.001100" text-anchor="end" font-family="'Input Sans Narrow', 'DejaVu Sans', Arial, sans-serif" font-size="0.002000" font-weight="bold" fill="#555">A</text>
  <text x="0.229121" y="-0.001100" text-anchor="start" font-family="'Input Sans Narrow', 'DejaVu Sans', Arial, sans-serif" font-size="0.002000" font-weight="bold" fill="#555">A</text>
  <line x1="0.167900" y1="0.033900" x2="0.227621" y2="0.033900" stroke="#555" stroke-width="0.000250" stroke-dasharray="0.002500,0.000800,0.000500,0.000800"/>
  <text x="0.166400" y="0.034500" text-anchor="end" font-family="'Input Sans Narrow', 'DejaVu Sans', Arial, sans-serif" font-size="0.002000" font-weight="bold" fill="#555">B</text>
  <text x="0.229121" y="0.034500" text-anchor="start" font-family="'Input Sans Narrow', 'DejaVu Sans', Arial, sans-serif" font-size="0.002000" font-weight="bold" fill="#555">B</text>
  <line x1="0.167900" y1="0.016100" x2="0.227621" y2="0.016100" stroke="#555" stroke-width="0.000250" stroke-dasharray="0.002500,0.000800,0.000500,0.000800"/>
  <text x="0.166400" y="0.016700" text-anchor="end" font-family="'Input Sans Narrow', 'DejaVu Sans', Arial, sans-serif" font-size="0.002000" font-weight="bold" fill="#555">C</text>
  <text x="0.229121" y="0.016700" text-anchor="start" font-family="'Input Sans Narrow', 'DejaVu Sans', Arial, sans-serif" font-size="0.002000" font-weight="bold" fill="#555">C</text>
  <text x="0.247821" y="-0.020875" text-anchor="middle" font-family="'Input Sans Narrow', 'DejaVu Sans', Arial, sans-serif" font-size="0.002500" font-weight="bold" fill="#333">side_YZ</text>
  <line x1="0.232621" y1="0.038560" x2="0.232621" y2="0.041560" stroke="#5C7080" stroke-width="0.000140" stroke-opacity="0.5"/>
  <line x1="0.263021" y1="0.038560" x2="0.263021" y2="0.041560" stroke="#5C7080" stroke-width="0.000140" stroke-opacity="0.5"/>
  <line x1="0.232621" y1="0.039960" x2="0.232621" y2="0.041560" stroke="#5C7080" stroke-width="0.000200"/>
  <line x1="0.263021" y1="0.039960" x2="0.263021" y2="0.041560" stroke="#5C7080" stroke-width="0.000200"/>
  <line x1="0.232621" y1="0.040760" x2="0.263021" y2="0.040760" stroke="#5C7080" stroke-width="0.000200"/>
  <polygon points="0.232621,0.040760 0.234121,0.040160 0.234121,0.041360" fill="#5C7080"/>
  <polygon points="0.263021,0.040760 0.261521,0.040160 0.261521,0.041360" fill="#5C7080"/>
  <text x="0.247821" y="0.039560" text-anchor="middle" font-family="'Input Sans Narrow', 'DejaVu Sans', Arial, sans-serif" font-size="0.001600" fill="#5C7080">30.4</text>
  <line x1="0.263821" y1="-0.003188" x2="0.266821" y2="-0.003188" stroke="#5C7080" stroke-width="0.000140" stroke-opacity="0.5"/>
  <line x1="0.263821" y1="0.037760" x2="0.266821" y2="0.037760" stroke="#5C7080" stroke-width="0.000140" stroke-opacity="0.5"/>
  <line x1="0.265221" y1="-0.003188" x2="0.266821" y2="-0.003188" stroke="#5C7080" stroke-width="0.000200"/>
  <line x1="0.265221" y1="0.037760" x2="0.266821" y2="0.037760" stroke="#5C7080" stroke-width="0.000200"/>
  <line x1="0.266021" y1="-0.003188" x2="0.266021" y2="0.037760" stroke="#5C7080" stroke-width="0.000200"/>
  <polygon points="0.266021,-0.003188 0.265421,-0.001688 0.266621,-0.001688" fill="#5C7080"/>
  <polygon points="0.266021,0.037760 0.265421,0.036260 0.266621,0.036260" fill="#5C7080"/>
  <text x="0.267521" y="0.017286" text-anchor="middle" dominant-baseline="central" font-family="'Input Sans Narrow', 'DejaVu Sans', Arial, sans-serif" font-size="0.001600" fill="#5C7080" transform="rotate(-90 0.267521 0.017286)">40.9</text>
  <line x1="0.229621" y1="-0.001700" x2="0.266021" y2="-0.001700" stroke="#555" stroke-width="0.000250" stroke-dasharray="0.002500,0.000800,0.000500,0.000800"/>
  <text x="0.228121" y="-0.001100" text-anchor="end" font-family="'Input Sans Narrow', 'DejaVu Sans', Arial, sans-serif" font-size="0.002000" font-weight="bold" fill="#555">A</text>
  <text x="0.267521" y="-0.001100" text-anchor="start" font-family="'Input Sans Narrow', 'DejaVu Sans', Arial, sans-serif" font-size="0.002000" font-weight="bold" fill="#555">A</text>
  <line x1="0.229621" y1="0.033900" x2="0.266021" y2="0.033900" stroke="#555" stroke-width="0.000250" stroke-dasharray="0.002500,0.000800,0.000500,0.000800"/>
  <text x="0.228121" y="0.034500" text-anchor="end" font-family="'Input Sans Narrow', 'DejaVu Sans', Arial, sans-serif" font-size="0.002000" font-weight="bold" fill="#555">B</text>
  <text x="0.267521" y="0.034500" text-anchor="start" font-family="'Input Sans Narrow', 'DejaVu Sans', Arial, sans-serif" font-size="0.002000" font-weight="bold" fill="#555">B</text>
  <line x1="0.229621" y1="0.016100" x2="0.266021" y2="0.016100" stroke="#555" stroke-width="0.000250" stroke-dasharray="0.002500,0.000800,0.000500,0.000800"/>
  <text x="0.228121" y="0.016700" text-anchor="end" font-family="'Input Sans Narrow', 'DejaVu Sans', Arial, sans-serif" font-size="0.002000" font-weight="bold" fill="#555">C</text>
  <text x="0.267521" y="0.016700" text-anchor="start" font-family="'Input Sans Narrow', 'DejaVu Sans', Arial, sans-serif" font-size="0.002000" font-weight="bold" fill="#555">C</text>
  <text x="-0.001175" y="0.045953" font-family="'Input Sans Narrow', 'DejaVu Sans', Arial, sans-serif" font-size="0.003500" font-weight="bold" fill="#222">cradle</text>
  <line x1="-0.001175" y1="0.049953" x2="0.008825" y2="0.049953" stroke="#333" stroke-width="0.000350"/>
  <line x1="-0.001175" y1="0.048953" x2="-0.001175" y2="0.050953" stroke="#333" stroke-width="0.000250"/>
  <line x1="0.008825" y1="0.048953" x2="0.008825" y2="0.050953" stroke="#333" stroke-width="0.000250"/>
  <text x="0.010325" y="0.050653" font-family="'Input Sans Narrow', 'DejaVu Sans', Arial, sans-serif" font-size="0.001800" fill="#888">10 mm</text>
  <rect x="0.028825" y="0.043453" width="0.004000" height="0.002500" fill="url(#hatch_servo)" stroke="rgb(60,60,60)" stroke-width="0.000300"/>
  <text x="0.034325" y="0.045453" font-family="'Input Sans Narrow', 'DejaVu Sans', Arial, sans-serif" font-size="0.001800" fill="rgb(60,60,60)">servo</text>
  <rect x="0.028825" y="0.046953" width="0.004000" height="0.002500" fill="url(#hatch_cradle)" stroke="rgb(50,120,190)" stroke-width="0.000300"/>
  <text x="0.034325" y="0.048953" font-family="'Input Sans Narrow', 'DejaVu Sans', Arial, sans-serif" font-size="0.001800" fill="rgb(50,120,190)">cradle</text>
</svg>