<?xml version='1.0' encoding='utf-8'?>
<svg width="301.62mm" height="88.47mm" viewBox="-0.003175 -0.024375 0.301624 0.088467" version="1.1" xmlns="http://www.w3.org/2000/svg">
  <defs>
    <pattern id="hatch_cradle" width="0.0012" height="0.0012" patternUnits="userSpaceOnUse" patternTransform="rotate(45)">
      <line x1="0" y1="0" x2="0" y2="0.0012" stroke="rgb(50,120,190)" stroke-width="0.0001" stroke-opacity="0.6"/>
    </pattern>
    <pattern id="hatch_servo" width="0.0012" height="0.0012" patternUnits="userSpaceOnUse" patternTransform="rotate(75)">
      <line x1="0" y1="0" x2="0" y2="0.0012" stroke="rgb(60,60,60)" stroke-width="0.0001" stroke-opacity="0.6"/>
    </pattern>
    <pattern id="hatch_coupler" width="0.0012" height="0.0012" patternUnits="userSpaceOnUse" patternTransform="rotate(105)">
      <line x1="0" y1="0" x2="0" y2="0.0012" stroke="rgb(220,60,40)" stroke-width="0.0001" stroke-opacity="0.6"/>
    </pattern>
  </defs>
  <g transform="scale(1,-1)" stroke-linecap="round">
    <g fill="none" stroke="rgb(50,120,190)" stroke-width="0.00035" id="cradle">
      <line x1="0.0" y1="0.0152" x2="0.007526" y2="0.0152" />
      <line x1="0.007526" y1="0.0152" x2="0.007526" y2="-0.0152" />
      <line x1="0.0" y1="-0.0152" x2="0.007526" y2="-0.0152" />
      <line x1="0.0" y1="0.0152" x2="0.0" y2="-0.0152" />
      <line x1="0.073801" y1="0.0152" x2="0.081327" y2="0.0152" />
      <line x1="0.081327" y1="0.0152" x2="0.081327" y2="0.0127" />
      <line x1="0.076301" y1="0.0127" x2="0.081327" y2="0.0127" />
      <line x1="0.076301" y1="0.0127" x2="0.076301" y2="-0.0127" />
      <line x1="0.076301" y1="-0.0127" x2="0.081327" y2="-0.0127" />
      <line x1="0.081327" y1="-0.0127" x2="0.081327" y2="-0.0152" />
      <line x1="0.073801" y1="-0.0152" x2="0.081327" y2="-0.0152" />
      <line x1="0.073801" y1="0.0152" x2="0.073801" y2="-0.0152" />
      <line x1="0.147601" y1="0.0152" x2="0.155128" y2="0.0152" />
      <line x1="0.155128" y1="0.0152" x2="0.155128" y2="-0.0152" />
      <line x1="0.147601" y1="-0.0152" x2="0.155128" y2="-0.0152" />
      <line x1="0.147601" y1="-0.005" x2="0.147601" y2="-0.0152" />
      <line x1="0.147601" y1="-0.005" x2="0.151401" y2="-0.005" />
      <line x1="0.151401" y1="0.005" x2="0.151401" y2="-0.005" />
      <line x1="0.147601" y1="0.005" x2="0.151401" y2="0.005" />
      <line x1="0.147601" y1="0.0152" x2="0.147601" y2="0.005" />
      <circle cx="0.152801" cy="-0.01025" r="0.0021" />
      <circle cx="0.152801" cy="0.01025" r="0.0021" />
      <line x1="0.221402" y1="-0.038277" x2="0.221402" y2="0.002773" />
      <line x1="0.221402" y1="0.002773" x2="0.221509" y2="0.002827" />
      <line x1="0.221402" y1="-0.038277" x2="0.228928" y2="-0.038277" />
      <line x1="0.228928" y1="-0.038277" x2="0.228928" y2="0.002773" />
      <line x1="0.221402" y1="0.002773" x2="0.228928" y2="0.002773" />
      <line x1="0.221509" y1="0.002827" x2="0.229035" y2="0.002827" />
      <line x1="0.228928" y1="0.002773" x2="0.229035" y2="0.002827" />
      <line x1="0.228928" y1="-0.038277" x2="0.229035" y2="-0.038223" />
      <line x1="0.229035" y1="-0.038223" x2="0.229035" y2="0.002827" />
      <line x1="0.229027" y1="-0.032877" x2="0.228937" y2="-0.032923" />
      <line x1="0.229027" y1="-0.032877" x2="0.229027" y2="0.000323" />
      <line x1="0.229027" y1="0.000323" x2="0.228937" y2="0.000277" />
      <line x1="0.228937" y1="-0.032923" x2="0.228937" y2="0.000277" />
      <line x1="0.228937" y1="-0.032877" x2="0.229027" y2="-0.032877" />
    </g>
    <g fill="url(#hatch_cradle)" stroke="none" stroke-width="0" id="cradle_fill">
      <path d="M 0.007526,0.0152 L 0.0,0.0152 L 0.0,-0.0152 L 0.007526,-0.0152 L 0.007526,0.0152" />
      <path d="M 0.081327,0.0152 L 0.073801,0.0152 L 0.073801,-0.0152 L 0.081327,-0.0152 L 0.081327,-0.0127 L 0.076301,-0.0127 L 0.076301,0.0127 L 0.081327,0.0127 L 0.081327,0.0152" />
      <path d="M 0.155128,0.0152 L 0.147601,0.0152 L 0.147601,0.005 L 0.151401,0.005 L 0.151401,-0.005 L 0.147601,-0.005 L 0.147601,-0.0152 L 0.155128,-0.0152 L 0.155128,0.0152 M 0.154901,-0.01025 A 0.0021000000000000046,0.0021000000000000046 0.0 0,0 0.150701,-0.01025 A 0.0021000000000000046,0.0021000000000000046 0.0 0,0 0.154901,-0.01025 M 0.154901,0.01025 A 0.0021000000000000046,0.0021000000000000046 0.0 0,0 0.150701,0.01025 A 0.0021000000000000046,0.0021000000000000046 0.0 0,0 0.154901,0.01025" />
    </g>
    <g fill="none" stroke="rgb(50,120,190)" stroke-opacity="0.4" stroke-width="0.00015" id="cradle_hidden" stroke-dasharray="0.0018 0.00045">
      <line x1="0.221402" y1="-0.038277" x2="0.221509" y2="-0.038223" />
      <line x1="0.221509" y1="-0.038223" x2="0.221509" y2="0.002827" />
      <line x1="0.221473" y1="-0.035591" x2="0.221438" y2="-0.035609" />
      <line x1="0.221473" y1="-0.035591" x2="0.221473" y2="-0.029591" />
      <line x1="0.221473" y1="-0.029591" x2="0.221438" y2="-0.029609" />
      <line x1="0.221438" y1="-0.035609" x2="0.221438" y2="-0.029609" />
      <line x1="0.221509" y1="-0.038223" x2="0.229035" y2="-0.038223" />
      <path d="M 0.228719,-0.038268 A 0.0021000000000000046,3.7475967180603715e-06 4.9717433012602716e-20 0,1 0.224519,-0.038268" />
      <path d="M 0.224519,-0.038268 A 0.0021000000000000046,3.7475967180603715e-06 4.9717433012602716e-20 0,1 0.228719,-0.038268" />
      <path d="M 0.228792,-0.038232 A 0.0021,3.747596718060363e-06 4.9717433012602716e-20 0,1 0.224592,-0.038232" />
      <path d="M 0.224592,-0.038232 A 0.0021,3.747596718060363e-06 4.9717433012602716e-20 0,1 0.228792,-0.038232" />
      <line x1="0.221473" y1="-0.035591" x2="0.225273" y2="-0.035591" />
      <line x1="0.225238" y1="-0.035609" x2="0.225273" y2="-0.035591" />
      <line x1="0.221438" y1="-0.035609" x2="0.225238" y2="-0.035609" />
      <line x1="0.225273" y1="-0.035591" x2="0.225273" y2="-0.032891" />
      <line x1="0.225273" y1="-0.032891" x2="0.223973" y2="-0.032891" />
      <line x1="0.223973" y1="-0.032891" x2="0.223973" y2="-0.029591" />
      <line x1="0.221473" y1="-0.029591" x2="0.223973" y2="-0.029591" />
      <line x1="0.223973" y1="-0.029591" x2="0.223938" y2="-0.029609" />
      <line x1="0.221438" y1="-0.029609" x2="0.223938" y2="-0.029609" />
      <line x1="0.225238" y1="-0.035609" x2="0.225238" y2="-0.032909" />
      <line x1="0.225238" y1="-0.032909" x2="0.223938" y2="-0.032909" />
      <line x1="0.223938" y1="-0.032909" x2="0.223938" y2="-0.029609" />
      <path d="M 0.228719,-0.032918 A 0.0021000000000000046,3.7475967180603715e-06 4.9717433012602716e-20 0,1 0.224519,-0.032918" />
      <path d="M 0.224519,-0.032918 A 0.0021000000000000046,3.7475967180603715e-06 4.9717433012602716e-20 0,1 0.228719,-0.032918" />
      <path d="M 0.228792,-0.032882 A 0.0021,3.747596718060363e-06 4.9717433012602716e-20 0,1 0.224592,-0.032882" />
      <path d="M 0.224592,-0.032882 A 0.0021,3.747596718060363e-06 4.9717433012602716e-20 0,1 0.228792,-0.032882" />
      <line x1="0.225238" y1="-0.032909" x2="0.225273" y2="-0.032891" />
      <line x1="0.224" y1="-0.032877" x2="0.228937" y2="-0.032877" />
      <line x1="0.223911" y1="-0.032923" x2="0.228937" y2="-0.032923" />
      <line x1="0.223911" y1="-0.032923" x2="0.223938" y2="-0.032909" />
      <line x1="0.223973" y1="-0.032891" x2="0.224" y2="-0.032877" />
      <line x1="0.223911" y1="0.000277" x2="0.224" y2="0.000323" />
      <line x1="0.224" y1="-0.032877" x2="0.224" y2="0.000323" />
      <line x1="0.223911" y1="-0.032923" x2="0.223911" y2="0.000277" />
      <line x1="0.224" y1="0.000323" x2="0.229027" y2="0.000323" />
      <line x1="0.223911" y1="0.000277" x2="0.228937" y2="0.000277" />
      <line x1="0.228719" y1="-0.038268" x2="0.228719" y2="-0.032918" />
      <line x1="0.224519" y1="-0.038268" x2="0.224519" y2="-0.032918" />
      <line x1="0.228792" y1="-0.038232" x2="0.228792" y2="-0.032882" />
      <line x1="0.224592" y1="-0.038232" x2="0.224592" y2="-0.032882" />
    </g>
    <g fill="none" stroke="rgb(60,60,60)" stroke-width="0.00035" id="servo">
      <line x1="0.028" y1="-0.008" x2="0.028" y2="0.008" />
      <path d="M 0.028,-0.008 A 0.002,0.002 -90.0 0,1 0.03,-0.01" />
      <line x1="0.03" y1="-0.01" x2="0.046" y2="-0.01" />
      <path d="M 0.048,-0.008 A 0.002,0.002 -90.0 0,0 0.046,-0.01" />
      <line x1="0.048" y1="-0.008" x2="0.048" y2="0.008" />
      <path d="M 0.048,0.008 A 0.002,0.002 -90.0 0,1 0.046,0.01" />
      <line x1="0.03" y1="0.01" x2="0.046" y2="0.01" />
      <path d="M 0.028,0.008 A 0.002,0.002 -90.0 0,0 0.03,0.01" />
      <path d="M 0.080601,0.0124 A 0.004,0.004 180.0 0,1 0.076601,0.0084" />
      <line x1="0.080601" y1="0.0124" x2="0.118001" y2="0.0124" />
      <path d="M 0.122001,0.0084 A 0.004,0.004 0.0 0,1 0.118001,0.0124" />
      <line x1="0.122001" y1="0.0084" x2="0.122001" y2="-0.0084" />
      <path d="M 0.118001,-0.0124 A 0.004,0.004 0.0 0,1 0.122001,-0.0084" />
      <line x1="0.080601" y1="-0.0124" x2="0.118001" y2="-0.0124" />
      <path d="M 0.076601,-0.0084 A 0.004,0.004 180.0 0,1 0.080601,-0.0124" />
      <line x1="0.076601" y1="0.0084" x2="0.076601" y2="-0.0084" />
      <circle cx="0.185601" cy="0.0" r="0.003" />
      <line x1="0.152401" y1="-0.012312" x2="0.152401" y2="-0.0124" />
      <line x1="0.152401" y1="-0.0124" x2="0.192801" y2="-0.0124" />
      <line x1="0.192801" y1="-0.0084" x2="0.192801" y2="-0.0124" />
      <line x1="0.178295" y1="-0.0084" x2="0.192801" y2="-0.0084" />
      <path d="M 0.178295,-0.0084 A 0.0021,0.0021 61.75746281556529 1,0 0.176308,-0.0084" />
      <line x1="0.157595" y1="-0.0084" x2="0.176308" y2="-0.0084" />
      <path d="M 0.154701,-0.011144 A 0.0021,0.0021 0.0 1,1 0.157595,-0.0084" />
      <path d="M 0.152401,-0.012312 A 0.0021,0.0021 0.0 0,1 0.154701,-0.011144" />
      <path d="M 0.154701,-0.009356 A 0.0021,0.0021 0.0 0,1 0.153795,-0.0084" />
      <line x1="0.153795" y1="-0.0084" x2="0.155608" y2="-0.0084" />
      <path d="M 0.155608,-0.0084 A 0.0021,0.0021 0.0 0,1 0.154701,-0.009356" />
      <path d="M 0.153795,0.0084 A 0.0021,0.0021 0.0 0,1 0.154701,0.009356" />
      <path d="M 0.154701,0.009356 A 0.0021,0.0021 0.0 0,1 0.155608,0.0084" />
      <line x1="0.153795" y1="0.0084" x2="0.155608" y2="0.0084" />
      <path d="M 0.157595,0.0084 A 0.0021,0.0021 0.0 1,1 0.154701,0.011144" />
      <line x1="0.157595" y1="0.0084" x2="0.176308" y2="0.0084" />
      <path d="M 0.176308,0.0084 A 0.0021,0.0021 -118.24253718443467 1,0 0.178295,0.0084" />
      <line x1="0.178295" y1="0.0084" x2="0.192801" y2="0.0084" />
      <line x1="0.192801" y1="0.0124" x2="0.192801" y2="0.0084" />
      <line x1="0.152401" y1="0.0124" x2="0.192801" y2="0.0124" />
      <line x1="0.152401" y1="0.0124" x2="0.152401" y2="0.012312" />
      <path d="M 0.154701,0.011144 A 0.0021,0.0021 0.0 0,1 0.152401,0.012312" />
      <line x1="0.224246" y1="-0.032613" x2="0.224246" y2="-1.3e-05" />
      <line x1="0.224246" y1="-1.3e-05" x2="0.224266" y2="1.3e-05" />
      <path d="M 0.224246,-1.3e-05 A 0.004,6.398387877148934e-06 -6.6029846443350364e-21 0,1 0.228241,-2e-05" />
      <line x1="0.228241" y1="-0.03262" x2="0.228241" y2="-2e-05" />
      <path d="M 0.227222,-0.03262 A 0.004,6.398387877148934e-06 -6.6029846443350364e-21 0,1 0.228241,-0.03262" />
      <line x1="0.227222" y1="-0.03262" x2="0.227222" y2="-0.02472" />
      <path d="M 0.224563,-0.024716 A 0.004,6.398387877148934e-06 -1.0878798464191528e-20 0,1 0.227222,-0.02472" />
      <line x1="0.224563" y1="-0.032616" x2="0.224563" y2="-0.024716" />
      <path d="M 0.224246,-0.032613 A 0.004,6.398387877148934e-06 -6.6029846443350364e-21 0,1 0.224563,-0.032616" />
      <line x1="0.269646" y1="-0.032613" x2="0.269666" y2="-0.032587" />
      <path d="M 0.269646,-0.032613 A 0.004,6.398387877148934e-06 180.0 0,0 0.266641,-0.03262" />
      <path d="M 0.227222,-0.032613 A 0.0021,3.3591536355031905e-06 -1.0878798464191528e-20 0,1 0.224563,-0.032616" />
      <path d="M 0.224266,1.3e-05 A 0.004,6.398387877148934e-06 180.0 0,0 0.228271,2e-05" />
      <line x1="0.228241" y1="-2e-05" x2="0.265641" y2="-2e-05" />
      <line x1="0.228271" y1="2e-05" x2="0.249446" y2="2e-05" />
      <path d="M 0.269646,-1.3e-05 A 0.004,6.398387877148934e-06 180.0 0,0 0.265641,-2e-05" />
      <path d="M 0.269666,1.3e-05 A 0.004,6.398387877148934e-06 -6.6029846443350364e-21 0,1 0.269465,1.5e-05" />
      <line x1="0.269646" y1="-1.3e-05" x2="0.269666" y2="1.3e-05" />
      <path d="M 0.249446,-1.3e-05 A 0.002,3.199193938574467e-06 -6.6029846443350364e-21 0,1 0.251444,-1.6e-05" />
      <line x1="0.251444" y1="-1.6e-05" x2="0.267444" y2="-1.6e-05" />
      <path d="M 0.269446,-1.3e-05 A 0.002,3.199193938574467e-06 180.0 0,0 0.267444,-1.6e-05" />
      <line x1="0.269446" y1="-1.3e-05" x2="0.269465" y2="1.3e-05" />
      <line x1="0.265641" y1="-0.03262" x2="0.265641" y2="-2e-05" />
      <line x1="0.265641" y1="-0.03262" x2="0.266641" y2="-0.03262" />
      <line x1="0.266641" y1="-0.03472" x2="0.266641" y2="-0.03262" />
      <line x1="0.226241" y1="-0.03472" x2="0.266641" y2="-0.03472" />
      <line x1="0.226241" y1="-0.03472" x2="0.226241" y2="-0.03262" />
      <line x1="0.226241" y1="-0.03262" x2="0.228241" y2="-0.03262" />
      <path d="M 0.226241,-0.03262 A 0.0021,3.3591536355031905e-06 -1.0878798464191528e-20 0,1 0.227222,-0.03262" />
      <line x1="0.266646" y1="-0.034687" x2="0.266666" y2="-0.034687" />
      <line x1="0.266666" y1="-0.034687" x2="0.266666" y2="-0.03262" />
      <line x1="0.266671" y1="-0.03468" x2="0.266671" y2="-0.03262" />
      <line x1="0.266666" y1="-0.034687" x2="0.266671" y2="-0.03468" />
      <line x1="0.269666" y1="1.3e-05" x2="0.269666" y2="-0.032587" />
      <path d="M 0.26667,-0.03258 A 0.004,6.398387877148934e-06 -6.6029846443350364e-21 0,1 0.265671,-0.03258" />
      <line x1="0.269646" y1="-0.032613" x2="0.269646" y2="-1.3e-05" />
      <path d="M 0.266641,-0.03262 A 0.004,6.398387877148934e-06 180.0 0,0 0.265641,-0.03262" />
      <line x1="0.266646" y1="-0.034713" x2="0.266646" y2="-0.03262" />
      <line x1="0.266641" y1="-0.03472" x2="0.266646" y2="-0.034713" />
      <line x1="0.22627" y1="-0.03262" x2="0.22627" y2="-0.032613" />
      <path d="M 0.227639,-0.034681 A 0.0021,3.3591536355031905e-06 -1.0878798464191528e-20 0,1 0.22627,-0.03468" />
      <path d="M 0.249446,0.001687 A 0.002,3.199193938574467e-06 -6.6029846443350364e-21 0,1 0.251444,0.001684" />
      <line x1="0.251444" y1="0.001684" x2="0.267444" y2="0.001684" />
      <path d="M 0.269446,0.001687 A 0.002,3.199193938574467e-06 180.0 0,0 0.267444,0.001684" />
      <line x1="0.269446" y1="0.001687" x2="0.269465" y2="0.001713" />
      <path d="M 0.269465,0.001713 A 0.002,3.199193938574467e-06 -6.6029846443350364e-21 0,1 0.267468,0.001716" />
      <line x1="0.251468" y1="0.001716" x2="0.254956" y2="0.001716" />
      <line x1="0.263956" y1="0.001716" x2="0.267468" y2="0.001716" />
      <path d="M 0.249465,0.001713 A 0.002,3.199193938574467e-06 180.0 0,0 0.251468,0.001716" />
      <line x1="0.249446" y1="0.001687" x2="0.249465" y2="0.001713" />
      <path d="M 0.254956,0.0017 A 0.004500000000000004,7.198186361792558e-06 -1.0878798464191528e-20 0,1 0.263956,0.0017" />
      <path d="M 0.263956,0.0032 A 0.004500000000000004,7.198186361792558e-06 -1.0878798464191528e-20 0,1 0.254956,0.0032" />
      <path d="M 0.254956,0.0032 A 0.004500000000000004,7.198186361792558e-06 -1.0878798464191528e-20 0,1 0.263956,0.0032" />
      <line x1="0.249446" y1="-1.3e-05" x2="0.249446" y2="0.001687" />
      <line x1="0.251444" y1="-1.6e-05" x2="0.251444" y2="0.001684" />
      <line x1="0.267444" y1="-1.6e-05" x2="0.267444" y2="0.001684" />
      <line x1="0.269446" y1="-1.3e-05" x2="0.269446" y2="0.001687" />
      <line x1="0.269465" y1="1.3e-05" x2="0.269465" y2="0.001713" />
      <line x1="0.224246" y1="-0.032613" x2="0.224246" y2="-1.3e-05" />
      <line x1="0.269666" y1="-0.032587" x2="0.269666" y2="1.3e-05" />
      <line x1="0.249446" y1="-1.3e-05" x2="0.249446" y2="0.001687" />
      <line x1="0.269465" y1="1.3e-05" x2="0.269465" y2="0.001713" />
      <line x1="0.263956" y1="0.0017" x2="0.263956" y2="0.0032" />
      <line x1="0.254956" y1="0.0017" x2="0.254956" y2="0.0032" />
    </g>
    <g fill="url(#hatch_servo)" stroke="none" stroke-width="0" id="servo_fill">
      <path d="M 0.028,0.008 L 0.028,-0.008 A 0.002,0.002 -90.0 0,1 0.03,-0.01 L 0.046,-0.01 A 0.002,0.002 -90.0 0,1 0.048,-0.008 L 0.048,0.008 A 0.002,0.002 -90.0 0,1 0.046,0.01 L 0.03,0.01 A 0.002,0.002 -90.0 0,1 0.028,0.008" />
      <path d="M 0.080601,0.0124 A 0.004,0.004 180.0 0,1 0.076601,0.0084 L 0.076601,-0.0084 A 0.004,0.004 180.0 0,1 0.080601,-0.0124 L 0.118001,-0.0124 A 0.004,0.004 0.0 0,1 0.122001,-0.0084 L 0.122001,0.0084 A 0.004,0.004 0.0 0,1 0.118001,0.0124 L 0.080601,0.0124" />
      <circle cx="0.185601" cy="0.0" r="0.003" />
      <path d="M 0.152401,-0.012312 L 0.152401,-0.0124 L 0.192801,-0.0124 L 0.192801,-0.0084 L 0.178295,-0.0084 A 0.0021,0.0021 61.75746281556529 1,0 0.176308,-0.0084 L 0.157595,-0.0084 A 0.0021,0.0021 0.0 1,0 0.154701,-0.011144 A 0.0021,0.0021 0.0 0,0 0.152401,-0.012312" />
      <path d="M 0.153795,-0.0084 A 0.0021,0.0021 0.0 0,0 0.154701,-0.009356 A 0.0021,0.0021 0.0 0,0 0.155608,-0.0084 L 0.153795,-0.0084" />
      <path d="M 0.154701,0.009356 A 0.0021,0.0021 0.0 0,0 0.153795,0.0084 L 0.155608,0.0084 A 0.0021,0.0021 0.0 0,0 0.154701,0.009356" />
      <path d="M 0.154701,0.011144 A 0.0021,0.0021 0.0 1,0 0.157595,0.0084 L 0.176308,0.0084 A 0.0021,0.0021 -118.24253718443467 1,0 0.178295,0.0084 L 0.192801,0.0084 L 0.192801,0.0124 L 0.152401,0.0124 L 0.152401,0.012312 A 0.0021,0.0021 0.0 0,0 0.154701,0.011144" />
    </g>
    <g fill="none" stroke="rgb(60,60,60)" stroke-opacity="0.4" stroke-width="0.00015" id="servo_hidden" stroke-dasharray="0.0018 0.00045">
      <line x1="0.224246" y1="-0.032613" x2="0.224266" y2="-0.032586" />
      <line x1="0.224266" y1="1.3e-05" x2="0.224266" y2="-0.032586" />
      <path d="M 0.224266,-0.032586 A 0.004,6.398387877148934e-06 180.0 0,0 0.224587,-0.032584" />
      <path d="M 0.224587,-0.032584 A 0.0021,3.3591536355031905e-06 -1.0878798464191528e-20 0,1 0.227659,-0.032587" />
      <line x1="0.227659" y1="-0.032587" x2="0.229472" y2="-0.032587" />
      <path d="M 0.229472,-0.032587 A 0.0021,3.3591536355031905e-06 -1.0878798464191528e-20 0,1 0.231459,-0.032587" />
      <line x1="0.231459" y1="-0.032587" x2="0.250172" y2="-0.032587" />
      <path d="M 0.250172,-0.032587 A 0.0021,3.3591536355031905e-06 -1.0878798464191528e-20 0,1 0.252159,-0.032587" />
      <line x1="0.252159" y1="-0.032587" x2="0.266666" y2="-0.032587" />
      <line x1="0.266666" y1="-0.032587" x2="0.26667" y2="-0.03258" />
      <path d="M 0.269666,-0.032587 A 0.004,6.398387877148934e-06 -6.6029846443350364e-21 0,1 0.26667,-0.03258" />
      <line x1="0.266641" y1="-0.03262" x2="0.266646" y2="-0.032613" />
      <line x1="0.252139" y1="-0.032613" x2="0.266646" y2="-0.032613" />
      <path d="M 0.252139,-0.032613 A 0.0021,3.3591536355031905e-06 -1.0878798464191528e-20 0,1 0.250152,-0.032613" />
      <line x1="0.231439" y1="-0.032613" x2="0.250152" y2="-0.032613" />
      <path d="M 0.231439,-0.032613 A 0.0021,3.3591536355031905e-06 -1.0878798464191528e-20 0,1 0.229452,-0.032613" />
      <line x1="0.227639" y1="-0.032613" x2="0.229452" y2="-0.032613" />
      <path d="M 0.227639,-0.032613 A 0.0021,3.3591536355031905e-06 -1.0878798464191528e-20 0,1 0.227222,-0.032613" />
      <path d="M 0.262456,-0.0326 A 0.0030000000000000027,4.798790907861705e-06 -1.0878798464191528e-20 0,1 0.256456,-0.0326" />
      <path d="M 0.256456,-0.0326 A 0.0030000000000000027,4.798790907861705e-06 -1.0878798464191528e-20 0,1 0.262456,-0.0326" />
      <line x1="0.228271" y1="2e-05" x2="0.228271" y2="-0.03258" />
      <path d="M 0.227251,-0.03258 A 0.004,6.398387877148934e-06 180.0 0,0 0.228271,-0.03258" />
      <line x1="0.227251" y1="-0.03258" x2="0.227251" y2="-0.02468" />
      <path d="M 0.227251,-0.02468 A 0.004,6.398387877148934e-06 -1.0878798464191528e-20 0,1 0.224587,-0.024684" />
      <line x1="0.224587" y1="-0.032584" x2="0.224587" y2="-0.024684" />
      <line x1="0.249446" y1="2e-05" x2="0.265671" y2="2e-05" />
      <path d="M 0.269465,1.5e-05 A 0.004,6.398387877148934e-06 -6.6029846443350364e-21 0,1 0.265671,2e-05" />
      <path d="M 0.269465,1.3e-05 A 0.002,3.199193938574467e-06 -6.6029846443350364e-21 0,1 0.267468,1.6e-05" />
      <line x1="0.251468" y1="1.6e-05" x2="0.267468" y2="1.6e-05" />
      <path d="M 0.249465,1.3e-05 A 0.002,3.199193938574467e-06 180.0 0,0 0.251468,1.6e-05" />
      <line x1="0.249446" y1="-1.3e-05" x2="0.249465" y2="1.3e-05" />
      <line x1="0.228542" y1="-0.034718" x2="0.228542" y2="-0.024718" />
      <path d="M 0.226241,-0.03472 A 0.0021,3.3591536355031905e-06 -1.0878798464191528e-20 0,1 0.228542,-0.034718" />
      <line x1="0.226241" y1="-0.03472" x2="0.226241" y2="-0.03262" />
      <path d="M 0.227222,-0.02472 A 0.0021,3.3591536355031905e-06 -1.0878798464191528e-20 0,1 0.228542,-0.024718" />
      <path d="M 0.228544,-0.024715 A 0.0021,3.3591536355031893e-06 180.0 0,0 0.232543,-0.024716" />
      <path d="M 0.232543,-0.024716 A 0.0021,3.3591536355031893e-06 180.0 0,0 0.228542,-0.024718" />
      <path d="M 0.228544,-0.024715 A 0.0021,3.3591536355031905e-06 -1.0878798464191528e-20 0,1 0.224563,-0.024716" />
      <line x1="0.227639" y1="-0.034713" x2="0.227639" y2="-0.032613" />
      <path d="M 0.228544,-0.034715 A 0.0021,3.3591536355031905e-06 -1.0878798464191528e-20 0,1 0.227639,-0.034713" />
      <line x1="0.228544" y1="-0.034715" x2="0.228544" y2="-0.024715" />
      <line x1="0.228567" y1="-0.034685" x2="0.228567" y2="-0.024685" />
      <path d="M 0.227659,-0.034687 A 0.0021,3.3591536355031905e-06 -1.0878798464191528e-20 0,1 0.228567,-0.034685" />
      <line x1="0.227659" y1="-0.034687" x2="0.227659" y2="-0.032587" />
      <path d="M 0.224587,-0.024684 A 0.0021,3.3591536355031905e-06 -1.0878798464191528e-20 0,1 0.228567,-0.024685" />
      <line x1="0.227659" y1="-0.034687" x2="0.229472" y2="-0.034687" />
      <line x1="0.229472" y1="-0.034687" x2="0.229472" y2="-0.032587" />
      <path d="M 0.228569,-0.034682 A 0.0021,3.35915363550319e-06 -180.0 0,0 0.232568,-0.034684" />
      <path d="M 0.232568,-0.034684 A 0.0021,3.35915363550319e-06 -180.0 0,0 0.231459,-0.034687" />
      <line x1="0.228569" y1="-0.034682" x2="0.228569" y2="-0.024682" />
      <path d="M 0.228567,-0.024685 A 0.0021,3.35915363550319e-06 -6.0735755993183585e-18 0,1 0.232568,-0.024684" />
      <path d="M 0.232568,-0.024684 A 0.0021,3.35915363550319e-06 -6.0735755993183585e-18 0,1 0.228569,-0.024682" />
      <path d="M 0.228567,-0.034685 A 0.0021,3.3591536355031905e-06 -1.0878798464191528e-20 0,1 0.229472,-0.034687" />
      <line x1="0.231459" y1="-0.034687" x2="0.231459" y2="-0.032587" />
      <line x1="0.231459" y1="-0.034687" x2="0.250172" y2="-0.034687" />
      <line x1="0.250172" y1="-0.034687" x2="0.250172" y2="-0.032587" />
      <path d="M 0.252159,-0.034687 A 0.0021,3.3591536355031905e-06 -1.0878798464191528e-20 0,1 0.253268,-0.034684" />
      <line x1="0.252159" y1="-0.034687" x2="0.252159" y2="-0.032587" />
      <path d="M 0.253268,-0.034684 A 0.0021,3.3591536355031905e-06 -1.0878798464191528e-20 0,1 0.249068,-0.034684" />
      <path d="M 0.249068,-0.034684 A 0.0021,3.3591536355031905e-06 -1.0878798464191528e-20 0,1 0.250172,-0.034687" />
      <path d="M 0.253268,-0.024684 A 0.0021,3.3591536355031905e-06 -1.0878798464191528e-20 0,1 0.249068,-0.024684" />
      <path d="M 0.249068,-0.024684 A 0.0021,3.3591536355031905e-06 -1.0878798464191528e-20 0,1 0.253268,-0.024684" />
      <line x1="0.252159" y1="-0.034687" x2="0.266646" y2="-0.034687" />
      <line x1="0.266666" y1="-0.03262" x2="0.266666" y2="-0.032587" />
      <line x1="0.266671" y1="-0.03262" x2="0.266671" y2="-0.03258" />
      <line x1="0.265671" y1="2e-05" x2="0.265671" y2="-0.03258" />
      <line x1="0.266646" y1="-0.03262" x2="0.266646" y2="-0.032613" />
      <line x1="0.252139" y1="-0.034713" x2="0.266646" y2="-0.034713" />
      <line x1="0.252139" y1="-0.034713" x2="0.252139" y2="-0.032613" />
      <path d="M 0.250152,-0.034713 A 0.0021,3.3591536355031905e-06 -1.0878798464191528e-20 0,1 0.249043,-0.034716" />
      <path d="M 0.249043,-0.034716 A 0.0021000000000000046,3.359153635503198e-06 -1.0878798464191528e-20 0,1 0.253243,-0.034716" />
      <line x1="0.250152" y1="-0.034713" x2="0.250152" y2="-0.032613" />
      <path d="M 0.253243,-0.034716 A 0.0021,3.3591536355031905e-06 -1.0878798464191528e-20 0,1 0.252139,-0.034713" />
      <path d="M 0.253243,-0.024716 A 0.0021000000000000046,3.359153635503198e-06 -1.0878798464191528e-20 0,1 0.249043,-0.024716" />
      <path d="M 0.249043,-0.024716 A 0.0021000000000000046,3.359153635503198e-06 -1.0878798464191528e-20 0,1 0.253243,-0.024716" />
      <line x1="0.231439" y1="-0.034713" x2="0.250152" y2="-0.034713" />
      <line x1="0.231439" y1="-0.034713" x2="0.231439" y2="-0.032613" />
      <path d="M 0.231439,-0.034713 A 0.0021,3.3591536355031893e-06 180.0 0,0 0.232543,-0.034716" />
      <path d="M 0.232543,-0.034716 A 0.0021,3.3591536355031893e-06 180.0 0,0 0.228542,-0.034718" />
      <line x1="0.229452" y1="-0.034713" x2="0.229452" y2="-0.032613" />
      <path d="M 0.229452,-0.034713 A 0.0021,3.3591536355031905e-06 -1.0878798464191528e-20 0,1 0.228544,-0.034715" />
      <line x1="0.227639" y1="-0.034713" x2="0.229452" y2="-0.034713" />
      <path d="M 0.262456,-0.0339 A 0.0030000000000000027,4.798790907861705e-06 -1.0878798464191528e-20 0,1 0.256456,-0.0339" />
      <path d="M 0.256456,-0.0339 A 0.0030000000000000027,4.798790907861705e-06 -1.0878798464191528e-20 0,1 0.262456,-0.0339" />
      <line x1="0.265671" y1="-0.03258" x2="0.266671" y2="-0.03258" />
      <line x1="0.226271" y1="-0.03468" x2="0.266671" y2="-0.03468" />
      <line x1="0.226271" y1="-0.03468" x2="0.226271" y2="-0.03258" />
      <line x1="0.226271" y1="-0.03258" x2="0.228271" y2="-0.03258" />
      <path d="M 0.227251,-0.03258 A 0.0021,3.3591536355031905e-06 -1.0878798464191528e-20 0,1 0.22627,-0.03258" />
      <path d="M 0.228569,-0.024682 A 0.0021,3.3591536355031905e-06 -1.0878798464191528e-20 0,1 0.227251,-0.02468" />
      <line x1="0.22627" y1="-0.03468" x2="0.22627" y2="-0.03262" />
      <line x1="0.22627" y1="-0.032613" x2="0.22627" y2="-0.03258" />
      <path d="M 0.228569,-0.034682 A 0.0021,3.3591536355031905e-06 -1.0878798464191528e-20 0,1 0.227639,-0.034681" />
      <line x1="0.254956" y1="0.001716" x2="0.263956" y2="0.001716" />
      <path d="M 0.263956,0.0017 A 0.004500000000000004,7.198186361792558e-06 -1.0878798464191528e-20 0,1 0.254956,0.0017" />
      <line x1="0.232568" y1="-0.034684" x2="0.232568" y2="-0.024684" />
      <line x1="0.253268" y1="-0.034684" x2="0.253268" y2="-0.024684" />
      <line x1="0.249068" y1="-0.034684" x2="0.249068" y2="-0.024684" />
      <line x1="0.253243" y1="-0.034716" x2="0.253243" y2="-0.024716" />
      <line x1="0.249043" y1="-0.034716" x2="0.249043" y2="-0.024716" />
      <line x1="0.232543" y1="-0.034716" x2="0.232543" y2="-0.024716" />
      <line x1="0.262456" y1="-0.0339" x2="0.262456" y2="-0.0326" />
      <line x1="0.256456" y1="-0.0339" x2="0.256456" y2="-0.0326" />
      <line x1="0.267468" y1="1.6e-05" x2="0.267468" y2="0.001716" />
      <line x1="0.251468" y1="1.6e-05" x2="0.251468" y2="0.001716" />
      <line x1="0.249465" y1="1.3e-05" x2="0.249465" y2="0.001713" />
    </g>
    <g fill="none" stroke="rgb(220,60,40)" stroke-width="0.00035" id="coupler">
      <line x1="0.065801" y1="-0.010789" x2="0.038" y2="-0.010789" />
      <line x1="0.065801" y1="-0.010789" x2="0.065801" y2="-0.009789" />
      <line x1="0.065801" y1="-0.009789" x2="0.055801" y2="-0.009789" />
      <line x1="0.055801" y1="-0.009789" x2="0.055801" y2="0.009789" />
      <line x1="0.065801" y1="0.009789" x2="0.055801" y2="0.009789" />
      <line x1="0.065801" y1="0.009789" x2="0.065801" y2="0.010789" />
      <line x1="0.065801" y1="0.010789" x2="0.038" y2="0.010789" />
      <line x1="0.038" y1="0.009789" x2="0.038" y2="0.010789" />
      <path d="M 0.038,0.009789 A 0.009789105352524866,0.009789105352524866 0.0 1,1 0.038,-0.009789" />
      <line x1="0.038" y1="-0.010789" x2="0.038" y2="-0.009789" />
      <path d="M 0.034129,-0.004319 A 0.00125,0.00125 30.292915047062724 1,0 0.033681,-0.003871" />
      <path d="M 0.033681,-0.003871 A 0.0058,0.0058 131.8634957265941 0,0 0.033681,0.003871" />
      <path d="M 0.033681,0.003871 A 0.00125,0.00125 -59.70708495293722 1,0 0.034129,0.004319" />
      <path d="M 0.034129,0.004319 A 0.0058,0.0058 131.8634957265941 0,0 0.041871,0.004319" />
      <path d="M 0.041871,0.004319 A 0.00125,0.00125 -149.70708495293812 1,0 0.042319,0.003871" />
      <path d="M 0.042319,0.003871 A 0.0058,0.0058 131.8634957265941 0,0 0.042319,-0.003871" />
      <path d="M 0.042319,-0.003871 A 0.00125,0.00125 120.29291504706183 1,0 0.041871,-0.004319" />
      <path d="M 0.041871,-0.004319 A 0.0058,0.0058 131.8634957265941 0,0 0.034129,-0.004319" />
      <line x1="0.065801" y1="-0.009789" x2="0.055801" y2="-0.009789" />
      <line x1="0.055801" y1="-0.009789" x2="0.055801" y2="0.009789" />
      <line x1="0.065801" y1="0.009789" x2="0.055801" y2="0.009789" />
      <line x1="0.065801" y1="0.009789" x2="0.065801" y2="-0.009789" />
      <line x1="0.139601" y1="0.009789" x2="0.139601" y2="-0.009789" />
      <line x1="0.129601" y1="-0.009789" x2="0.139601" y2="-0.009789" />
      <line x1="0.129601" y1="0.009789" x2="0.129601" y2="-0.009789" />
      <line x1="0.129601" y1="0.009789" x2="0.139601" y2="0.009789" />
      <line x1="0.213402" y1="-0.010789" x2="0.185601" y2="-0.010789" />
      <line x1="0.213402" y1="-0.010789" x2="0.213402" y2="0.010789" />
      <line x1="0.213402" y1="0.010789" x2="0.185601" y2="0.010789" />
      <line x1="0.185601" y1="0.009789" x2="0.185601" y2="0.010789" />
      <path d="M 0.185601,0.009789 A 0.009789105352524866,0.009789105352524866 0.0 1,1 0.185601,-0.009789" />
      <line x1="0.185601" y1="-0.010789" x2="0.185601" y2="-0.009789" />
      <path d="M 0.181731,-0.004319 A 0.00125,0.00125 30.292915047062724 1,0 0.181282,-0.003871" />
      <path d="M 0.181282,-0.003871 A 0.0058,0.0058 131.8634957265941 0,0 0.181282,0.003871" />
      <path d="M 0.181282,0.003871 A 0.00125,0.00125 -59.70708495293722 1,0 0.181731,0.004319" />
      <path d="M 0.181731,0.004319 A 0.0058,0.0058 131.8634957265941 0,0 0.189472,0.004319" />
      <path d="M 0.189472,0.004319 A 0.00125,0.00125 -149.70708495293812 1,0 0.189921,0.003871" />
      <path d="M 0.189921,0.003871 A 0.0058,0.0058 131.8634957265941 0,0 0.189921,-0.003871" />
      <path d="M 0.189921,-0.003871 A 0.00125,0.00125 120.29291504706183 1,0 0.189472,-0.004319" />
      <path d="M 0.189472,-0.004319 A 0.0058,0.0058 131.8634957265941 0,0 0.181731,-0.004319" />
      <line x1="0.287274" y1="0.011683" x2="0.259473" y2="0.011683" />
      <line x1="0.287274" y1="0.011683" x2="0.287239" y2="0.011717" />
      <line x1="0.287239" y1="0.011717" x2="0.259438" y2="0.011717" />
      <line x1="0.25944" y1="0.011716" x2="0.259438" y2="0.011717" />
      <path d="M 0.25944,0.011716 A 0.009789105352524866,1.576041880922712e-05 2.4762381338981672e-21 0,1 0.249667,0.0117" />
      <path d="M 0.249667,0.0117 A 0.009789105352524866,1.576041880922712e-05 2.4762381338981672e-21 0,1 0.259471,0.011684" />
      <line x1="0.259473" y1="0.011683" x2="0.259471" y2="0.011684" />
      <path d="M 0.255592,0.011693 A 0.00125,2.012494789061864e-06 180.0 0,0 0.255764,0.011692" />
      <path d="M 0.255764,0.011692 A 0.0012500000000000011,2.012494789061866e-06 180.0 1,0 0.253264,0.011692" />
      <path d="M 0.253264,0.011692 A 0.00125,2.012494789061864e-06 180.0 0,0 0.255142,0.011694" />
      <path d="M 0.255142,0.011694 A 0.0058,9.337975821247051e-06 180.0 0,0 0.253656,0.0117" />
      <path d="M 0.253656,0.0117 A 0.0058,9.337975821247051e-06 180.0 0,0 0.25513,0.011706" />
      <path d="M 0.25513,0.011706 A 0.00125,2.012494789061864e-06 180.0 0,0 0.253248,0.011708" />
      <path d="M 0.253248,0.011708 A 0.0012500000000000011,2.012494789061866e-06 180.0 1,0 0.255748,0.011708" />
      <path d="M 0.255748,0.011708 A 0.00125,2.012494789061864e-06 180.0 0,0 0.255578,0.011707" />
      <path d="M 0.255578,0.011707 A 0.0058,9.337975821247051e-06 180.0 0,0 0.263319,0.011707" />
      <path d="M 0.263319,0.011707 A 0.00125,2.012494789061864e-06 -180.0 0,0 0.263148,0.011708" />
      <path d="M 0.263148,0.011708 A 0.0012500000000000011,2.012494789061866e-06 -180.0 1,0 0.265648,0.011708" />
      <path d="M 0.265648,0.011708 A 0.00125,2.012494789061864e-06 -180.0 0,0 0.263769,0.011706" />
      <path d="M 0.263769,0.011706 A 0.0058,9.337975821247051e-06 180.0 0,0 0.265256,0.0117" />
      <path d="M 0.265256,0.0117 A 0.0058,9.337975821247051e-06 180.0 0,0 0.263781,0.011694" />
      <path d="M 0.263781,0.011694 A 0.00125,2.012494789061864e-06 -180.0 0,0 0.265664,0.011692" />
      <path d="M 0.265664,0.011692 A 0.0012500000000000011,2.012494789061866e-06 -180.0 1,0 0.263164,0.011692" />
      <path d="M 0.263164,0.011692 A 0.00125,2.012494789061864e-06 -180.0 0,0 0.263333,0.011693" />
      <path d="M 0.263333,0.011693 A 0.0058,9.337975821247051e-06 180.0 0,0 0.255592,0.011693" />
      <line x1="0.287274" y1="0.001683" x2="0.259473" y2="0.001683" />
      <line x1="0.287274" y1="0.001683" x2="0.287274" y2="0.011683" />
      <line x1="0.259473" y1="0.001683" x2="0.259473" y2="0.011683" />
      <line x1="0.287272" y1="-0.033916" x2="0.287272" y2="0.001683" />
      <line x1="0.287274" y1="-0.033917" x2="0.287272" y2="-0.033916" />
      <line x1="0.287274" y1="-0.043917" x2="0.287274" y2="-0.033917" />
      <line x1="0.259438" y1="0.011716" x2="0.259438" y2="0.011717" />
      <line x1="0.259471" y1="0.001684" x2="0.259471" y2="0.011684" />
      <path d="M 0.249667,0.0017 A 0.009789105352524866,1.576041880922712e-05 2.4762381338981672e-21 0,1 0.259471,0.001684" />
      <line x1="0.259473" y1="0.001683" x2="0.259471" y2="0.001684" />
      <line x1="0.255592" y1="0.011691" x2="0.255592" y2="0.011693" />
      <line x1="0.255142" y1="0.01169" x2="0.255142" y2="0.011694" />
      <line x1="0.25513" y1="0.011694" x2="0.25513" y2="0.011706" />
      <line x1="0.255578" y1="0.011693" x2="0.255578" y2="0.011707" />
      <line x1="0.263319" y1="0.011693" x2="0.263319" y2="0.011707" />
      <line x1="0.263769" y1="0.011694" x2="0.263769" y2="0.011706" />
      <line x1="0.263781" y1="0.01169" x2="0.263781" y2="0.011694" />
      <line x1="0.263333" y1="0.011691" x2="0.263333" y2="0.011693" />
      <line x1="0.277272" y1="-0.033916" x2="0.277272" y2="0.001683" />
      <line x1="0.277272" y1="-0.033916" x2="0.287272" y2="-0.033916" />
      <line x1="0.287274" y1="-0.033917" x2="0.259473" y2="-0.033917" />
      <line x1="0.277241" y1="-0.033884" x2="0.277272" y2="-0.033916" />
      <line x1="0.277241" y1="-0.033883" x2="0.259438" y2="-0.033883" />
      <line x1="0.25944" y1="-0.033884" x2="0.259438" y2="-0.033883" />
      <path d="M 0.25944,-0.033884 A 0.009789105352524866,1.576041880922712e-05 2.4762381338981672e-21 0,1 0.249667,-0.0339" />
      <path d="M 0.249667,-0.0339 A 0.009789105352524866,1.576041880922712e-05 2.4762381338981672e-21 0,1 0.259471,-0.033916" />
      <line x1="0.259473" y1="-0.033917" x2="0.259471" y2="-0.033916" />
      <path d="M 0.255592,-0.033907 A 0.00125,2.012494789061864e-06 180.0 0,0 0.255764,-0.033908" />
      <path d="M 0.255764,-0.033908 A 0.0012500000000000011,2.012494789061866e-06 180.0 1,0 0.253264,-0.033908" />
      <path d="M 0.253264,-0.033908 A 0.00125,2.012494789061864e-06 180.0 0,0 0.255142,-0.033906" />
      <path d="M 0.255142,-0.033906 A 0.0058,9.337975821247051e-06 180.0 0,0 0.253656,-0.0339" />
      <path d="M 0.253656,-0.0339 A 0.0058,9.337975821247051e-06 180.0 0,0 0.25513,-0.033894" />
      <path d="M 0.25513,-0.033894 A 0.00125,2.012494789061864e-06 180.0 0,0 0.253248,-0.033892" />
      <path d="M 0.253248,-0.033892 A 0.0012500000000000011,2.012494789061866e-06 180.0 1,0 0.255748,-0.033892" />
      <path d="M 0.255748,-0.033892 A 0.00125,2.012494789061864e-06 180.0 0,0 0.255578,-0.033893" />
      <path d="M 0.255578,-0.033893 A 0.0058,9.337975821247051e-06 180.0 0,0 0.263319,-0.033893" />
      <path d="M 0.263319,-0.033893 A 0.00125,2.012494789061864e-06 -180.0 0,0 0.263148,-0.033892" />
      <path d="M 0.263148,-0.033892 A 0.0012500000000000011,2.012494789061866e-06 -180.0 1,0 0.265648,-0.033892" />
      <path d="M 0.265648,-0.033892 A 0.00125,2.012494789061864e-06 -180.0 0,0 0.263769,-0.033894" />
      <path d="M 0.263769,-0.033894 A 0.0058,9.337975821247051e-06 180.0 0,0 0.265256,-0.0339" />
      <path d="M 0.265256,-0.0339 A 0.0058,9.337975821247051e-06 180.0 0,0 0.263781,-0.033906" />
      <path d="M 0.263781,-0.033906 A 0.00125,2.012494789061864e-06 -180.0 0,0 0.265664,-0.033908" />
      <path d="M 0.265664,-0.033908 A 0.0012500000000000011,2.012494789061866e-06 -180.0 1,0 0.263164,-0.033908" />
      <path d="M 0.263164,-0.033908 A 0.00125,2.012494789061864e-06 -180.0 0,0 0.263333,-0.033907" />
      <path d="M 0.263333,-0.033907 A 0.0058,9.337975821247051e-06 180.0 0,0 0.255592,-0.033907" />
      <line x1="0.287274" y1="-0.043917" x2="0.259473" y2="-0.043917" />
      <line x1="0.259473" y1="-0.043917" x2="0.259473" y2="-0.033917" />
      <path d="M 0.249667,-0.0439 A 0.009789105352524866,1.576041880922712e-05 2.4762381338981672e-21 0,1 0.259471,-0.043916" />
      <line x1="0.259473" y1="-0.043917" x2="0.259471" y2="-0.043916" />
      <line x1="0.259438" y1="-0.033884" x2="0.259438" y2="-0.033883" />
      <line x1="0.277241" y1="-0.033884" x2="0.277241" y2="0.001683" />
      <line x1="0.259471" y1="-0.043916" x2="0.259471" y2="-0.033916" />
      <line x1="0.255592" y1="-0.033909" x2="0.255592" y2="-0.033907" />
      <line x1="0.255142" y1="-0.03391" x2="0.255142" y2="-0.033906" />
      <line x1="0.263333" y1="-0.033909" x2="0.263333" y2="-0.033907" />
      <line x1="0.263781" y1="-0.03391" x2="0.263781" y2="-0.033906" />
      <line x1="0.263769" y1="-0.033906" x2="0.263769" y2="-0.033894" />
      <line x1="0.263319" y1="-0.033907" x2="0.263319" y2="-0.033893" />
      <line x1="0.255578" y1="-0.033907" x2="0.255578" y2="-0.033893" />
      <line x1="0.25513" y1="-0.033906" x2="0.25513" y2="-0.033894" />
      <line x1="0.249667" y1="0.0017" x2="0.249667" y2="0.0117" />
      <line x1="0.249667" y1="-0.0439" x2="0.249667" y2="-0.0339" />
    </g>
    <g fill="url(#hatch_coupler)" stroke="none" stroke-width="0" id="coupler_fill">
      <path d="M 0.065801,-0.010789 L 0.038,-0.010789 L 0.038,-0.009789 A 0.009789105352524866,0.009789105352524866 0.0 1,0 0.038,0.009789 L 0.038,0.010789 L 0.065801,0.010789 L 0.065801,0.009789 L 0.055801,0.009789 L 0.055801,-0.009789 L 0.065801,-0.009789 L 0.065801,-0.010789 M 0.033681,-0.003871 A 0.00125,0.00125 30.292915047062724 1,1 0.034129,-0.004319 A 0.0058,0.0058 131.8634957265941 0,1 0.041871,-0.004319 A 0.00125,0.00125 120.29291504706183 1,1 0.042319,-0.003871 A 0.0058,0.0058 131.8634957265941 0,1 0.042319,0.003871 A 0.00125,0.00125 -149.70708495293812 1,1 0.041871,0.004319 A 0.0058,0.0058 131.8634957265941 0,1 0.034129,0.004319 A 0.00125,0.00125 -59.70708495293722 1,1 0.033681,0.003871 A 0.0058,0.0058 131.8634957265941 0,1 0.033681,-0.003871" />
      <path d="M 0.055801,-0.009789 L 0.065801,-0.009789 L 0.065801,0.009789 L 0.055801,0.009789 L 0.055801,-0.009789" />
      <path d="M 0.139601,-0.009789 L 0.139601,0.009789 L 0.129601,0.009789 L 0.129601,-0.009789 L 0.139601,-0.009789" />
      <path d="M 0.185601,-0.010789 L 0.213402,-0.010789 L 0.213402,0.010789 L 0.185601,0.010789 L 0.185601,0.009789 A 0.009789105352524866,0.009789105352524866 0.0 1,1 0.185601,-0.009789 L 0.185601,-0.010789 M 0.181731,-0.004319 A 0.00125,0.00125 30.292915047062724 1,0 0.181282,-0.003871 A 0.0058,0.0058 131.8634957265941 0,0 0.181282,0.003871 A 0.00125,0.00125 -59.70708495293722 1,0 0.181731,0.004319 A 0.0058,0.0058 131.8634957265941 0,0 0.189472,0.004319 A 0.00125,0.00125 -149.70708495293812 1,0 0.189921,0.003871 A 0.0058,0.0058 131.8634957265941 0,0 0.189921,-0.003871 A 0.00125,0.00125 120.29291504706183 1,0 0.189472,-0.004319 A 0.0058,0.0058 131.8634957265941 0,0 0.181731,-0.004319" />
    </g>
    <g fill="none" stroke="rgb(220,60,40)" stroke-opacity="0.4" stroke-width="0.00015" id="coupler_hidden" stroke-dasharray="0.0018 0.00045">
      <line x1="0.287274" y1="0.001683" x2="0.287272" y2="0.001684" />
      <line x1="0.287272" y1="0.001683" x2="0.287272" y2="0.001684" />
      <line x1="0.287274" y1="-0.043917" x2="0.287239" y2="-0.043883" />
      <line x1="0.287239" y1="-0.043883" x2="0.287239" y2="-0.033883" />
      <line x1="0.287241" y1="-0.033884" x2="0.287239" y2="-0.033883" />
      <line x1="0.287241" y1="-0.033884" x2="0.287241" y2="0.001716" />
      <line x1="0.287241" y1="0.001716" x2="0.287239" y2="0.001717" />
      <line x1="0.287239" y1="0.001717" x2="0.287239" y2="0.011717" />
      <line x1="0.287239" y1="0.001717" x2="0.259438" y2="0.001717" />
      <line x1="0.259438" y1="0.001717" x2="0.259438" y2="0.011716" />
      <line x1="0.25944" y1="0.001716" x2="0.259438" y2="0.001717" />
      <line x1="0.25944" y1="0.001716" x2="0.25944" y2="0.011716" />
      <path d="M 0.25944,0.001716 A 0.009789105352524866,1.576041880922712e-05 2.4762381338981672e-21 0,1 0.249667,0.0017" />
      <path d="M 0.255592,0.001693 A 0.00125,2.012494789061864e-06 180.0 0,0 0.255764,0.001692" />
      <path d="M 0.255764,0.001692 A 0.0012500000000000011,2.012494789061866e-06 180.0 1,0 0.253264,0.001692" />
      <path d="M 0.253264,0.001692 A 0.00125,2.012494789061864e-06 180.0 0,0 0.255142,0.001694" />
      <line x1="0.255592" y1="0.001693" x2="0.255592" y2="0.011691" />
      <line x1="0.255142" y1="0.001694" x2="0.255142" y2="0.01169" />
      <path d="M 0.255142,0.001694 A 0.0058,9.337975821247051e-06 180.0 0,0 0.253656,0.0017" />
      <path d="M 0.253656,0.0017 A 0.0058,9.337975821247051e-06 180.0 0,0 0.25513,0.001706" />
      <line x1="0.25513" y1="0.001706" x2="0.25513" y2="0.011694" />
      <path d="M 0.25513,0.001706 A 0.00125,2.012494789061864e-06 180.0 0,0 0.253248,0.001708" />
      <path d="M 0.253248,0.001708 A 0.0012500000000000011,2.012494789061866e-06 180.0 1,0 0.255748,0.001708" />
      <path d="M 0.255748,0.001708 A 0.00125,2.012494789061864e-06 180.0 0,0 0.255578,0.001707" />
      <line x1="0.255578" y1="0.001707" x2="0.255578" y2="0.011693" />
      <path d="M 0.255578,0.001707 A 0.0058,9.337975821247051e-06 180.0 0,0 0.263319,0.001707" />
      <line x1="0.263319" y1="0.001707" x2="0.263319" y2="0.011693" />
      <path d="M 0.263319,0.001707 A 0.00125,2.012494789061864e-06 -180.0 0,0 0.263148,0.001708" />
      <path d="M 0.263148,0.001708 A 0.0012500000000000011,2.012494789061866e-06 -180.0 1,0 0.265648,0.001708" />
      <path d="M 0.265648,0.001708 A 0.00125,2.012494789061864e-06 -180.0 0,0 0.263769,0.001706" />
      <line x1="0.263769" y1="0.001706" x2="0.263769" y2="0.011694" />
      <path d="M 0.263769,0.001706 A 0.0058,9.337975821247051e-06 180.0 0,0 0.265256,0.0017" />
      <path d="M 0.265256,0.0017 A 0.0058,9.337975821247051e-06 180.0 0,0 0.263781,0.001694" />
      <line x1="0.263781" y1="0.001694" x2="0.263781" y2="0.01169" />
      <path d="M 0.263781,0.001694 A 0.00125,2.012494789061864e-06 -180.0 0,0 0.265664,0.001692" />
      <path d="M 0.265664,0.001692 A 0.0012500000000000011,2.012494789061866e-06 -180.0 1,0 0.263164,0.001692" />
      <path d="M 0.263164,0.001692 A 0.00125,2.012494789061864e-06 -180.0 0,0 0.263333,0.001693" />
      <line x1="0.263333" y1="0.001693" x2="0.263333" y2="0.011691" />
      <path d="M 0.263333,0.001693 A 0.0058,9.337975821247051e-06 180.0 0,0 0.255592,0.001693" />
      <line x1="0.287272" y1="0.001684" x2="0.277272" y2="0.001684" />
      <line x1="0.277272" y1="0.001684" x2="0.277241" y2="0.001716" />
      <line x1="0.287241" y1="0.001716" x2="0.277241" y2="0.001716" />
      <line x1="0.277272" y1="0.001683" x2="0.277272" y2="0.001684" />
      <line x1="0.277241" y1="-0.033884" x2="0.287241" y2="-0.033884" />
      <line x1="0.287239" y1="-0.033883" x2="0.277241" y2="-0.033883" />
      <line x1="0.287239" y1="-0.043883" x2="0.259438" y2="-0.043883" />
      <line x1="0.25944" y1="-0.043884" x2="0.259438" y2="-0.043883" />
      <path d="M 0.25944,-0.043884 A 0.009789105352524866,1.576041880922712e-05 2.4762381338981672e-21 0,1 0.249667,-0.0439" />
      <path d="M 0.255578,-0.043893 A 0.00125,2.012494789061865e-06 1.2898308919816724e-17 0,1 0.255748,-0.043892" />
      <path d="M 0.255748,-0.043892 A 0.0012500000000000011,2.0124947890618667e-06 1.2898308919816724e-17 1,1 0.253248,-0.043892" />
      <path d="M 0.253248,-0.043892 A 0.00125,2.012494789061865e-06 1.2898308919816724e-17 0,1 0.25513,-0.043894" />
      <path d="M 0.263319,-0.043893 A 0.0058,9.33797582124705e-06 1.4153127032037207e-19 0,1 0.255578,-0.043893" />
      <path d="M 0.263769,-0.043894 A 0.00125,2.0124947890618646e-06 1.5311396767398307e-17 0,1 0.265648,-0.043892" />
      <path d="M 0.265648,-0.043892 A 0.0012500000000000011,2.0124947890618663e-06 1.5311396767398307e-17 0,1 0.263148,-0.043892" />
      <path d="M 0.263148,-0.043892 A 0.00125,2.0124947890618646e-06 1.5311396767398307e-17 0,1 0.263319,-0.043893" />
      <path d="M 0.263781,-0.043906 A 0.0058,9.33797582124705e-06 1.4153127032037207e-19 0,1 0.265256,-0.0439" />
      <path d="M 0.265256,-0.0439 A 0.0058,9.33797582124705e-06 1.4153127032037207e-19 0,1 0.263769,-0.043894" />
      <path d="M 0.263333,-0.043907 A 0.00125,2.0124947890618646e-06 1.121083114127384e-17 0,1 0.263164,-0.043908" />
      <path d="M 0.263164,-0.043908 A 0.0012500000000000011,2.0124947890618663e-06 1.121083114127384e-17 0,1 0.265664,-0.043908" />
      <path d="M 0.265664,-0.043908 A 0.00125,2.0124947890618646e-06 1.121083114127384e-17 0,1 0.263781,-0.043906" />
      <path d="M 0.255592,-0.043907 A 0.0058,9.33797582124705e-06 1.4153127032037207e-19 0,1 0.263333,-0.043907" />
      <path d="M 0.255142,-0.043906 A 0.00125,2.0124947890618646e-06 1.428190027210397e-17 0,1 0.253264,-0.043908" />
      <path d="M 0.253264,-0.043908 A 0.0012500000000000011,2.0124947890618663e-06 1.428190027210397e-17 0,1 0.255764,-0.043908" />
      <path d="M 0.255764,-0.043908 A 0.00125,2.0124947890618646e-06 1.428190027210397e-17 0,1 0.255592,-0.043907" />
      <path d="M 0.25513,-0.043894 A 0.0058,9.33797582124705e-06 1.4153127032037207e-19 0,1 0.253656,-0.0439" />
      <path d="M 0.253656,-0.0439 A 0.0058,9.33797582124705e-06 1.4153127032037207e-19 0,1 0.255142,-0.043906" />
      <line x1="0.259438" y1="-0.043883" x2="0.259438" y2="-0.033884" />
      <line x1="0.277241" y1="0.001683" x2="0.277241" y2="0.001716" />
      <line x1="0.25944" y1="-0.043884" x2="0.25944" y2="-0.033884" />
      <line x1="0.255592" y1="-0.043907" x2="0.255592" y2="-0.033909" />
      <line x1="0.255142" y1="-0.043906" x2="0.255142" y2="-0.03391" />
      <line x1="0.263333" y1="-0.043907" x2="0.263333" y2="-0.033909" />
      <line x1="0.263781" y1="-0.043906" x2="0.263781" y2="-0.03391" />
      <line x1="0.263769" y1="-0.043894" x2="0.263769" y2="-0.033906" />
      <line x1="0.263319" y1="-0.043893" x2="0.263319" y2="-0.033907" />
      <line x1="0.255578" y1="-0.043893" x2="0.255578" y2="-0.033907" />
      <line x1="0.25513" y1="-0.043894" x2="0.25513" y2="-0.033906" />
      <line x1="0.255764" y1="0.001692" x2="0.255764" y2="0.011692" />
      <line x1="0.253264" y1="0.001692" x2="0.253264" y2="0.011692" />
      <line x1="0.253656" y1="0.0017" x2="0.253656" y2="0.0117" />
      <line x1="0.255748" y1="0.001708" x2="0.255748" y2="0.011708" />
      <line x1="0.253248" y1="0.001708" x2="0.253248" y2="0.011708" />
      <line x1="0.265648" y1="0.001708" x2="0.265648" y2="0.011708" />
      <line x1="0.263148" y1="0.001708" x2="0.263148" y2="0.011708" />
      <line x1="0.265256" y1="0.0017" x2="0.265256" y2="0.0117" />
      <line x1="0.265664" y1="0.001692" x2="0.265664" y2="0.011692" />
      <line x1="0.263164" y1="0.001692" x2="0.263164" y2="0.011692" />
      <line x1="0.255764" y1="-0.043908" x2="0.255764" y2="-0.033908" />
      <line x1="0.253264" y1="-0.043908" x2="0.253264" y2="-0.033908" />
      <line x1="0.265664" y1="-0.043908" x2="0.265664" y2="-0.033908" />
      <line x1="0.263164" y1="-0.043908" x2="0.263164" y2="-0.033908" />
      <line x1="0.265256" y1="-0.0439" x2="0.265256" y2="-0.0339" />
      <line x1="0.265648" y1="-0.043892" x2="0.265648" y2="-0.033892" />
      <line x1="0.263148" y1="-0.043892" x2="0.263148" y2="-0.033892" />
      <line x1="0.255748" y1="-0.043892" x2="0.255748" y2="-0.033892" />
      <line x1="0.253248" y1="-0.043892" x2="0.253248" y2="-0.033892" />
      <line x1="0.253656" y1="-0.0439" x2="0.253656" y2="-0.0339" />
    </g>
  </g>
  <text x="0.032900" y="-0.020875" text-anchor="middle" font-family="'Input Sans Narrow', 'DejaVu Sans', Arial, sans-serif" font-size="0.002500" font-weight="bold" fill="#333">A-A</text>
  <text x="0.032900" y="-0.017375" text-anchor="middle" font-family="'Input Sans Narrow', 'DejaVu Sans', Arial, sans-serif" font-size="0.001800" fill="#888">front_horn</text>
  <line x1="0.000000" y1="0.016000" x2="0.000000" y2="0.019000" stroke="#555" stroke-width="0.000140" stroke-opacity="0.5"/>
  <line x1="0.065801" y1="0.016000" x2="0.065801" y2="0.019000" stroke="#555" stroke-width="0.000140" stroke-opacity="0.5"/>
  <line x1="0.000000" y1="0.017400" x2="0.000000" y2="0.019000" stroke="#555" stroke-width="0.000200"/>
  <line x1="0.065801" y1="0.017400" x2="0.065801" y2="0.019000" stroke="#555" stroke-width="0.000200"/>
  <line x1="0.000000" y1="0.018200" x2="0.065801" y2="0.018200" stroke="#555" stroke-width="0.000200"/>
  <polygon points="0.000000,0.018200 0.001500,0.017600 0.001500,0.018800" fill="#555"/>
  <polygon points="0.065801,0.018200 0.064301,0.017600 0.064301,0.018800" fill="#555"/>
  <text x="0.032900" y="0.017000" text-anchor="middle" font-family="'Input Sans Narrow', 'DejaVu Sans', Arial, sans-serif" font-size="0.001600" fill="#555">65.8</text>
  <line x1="0.066601" y1="-0.015200" x2="0.069601" y2="-0.015200" stroke="#555" stroke-width="0.000140" stroke-opacity="0.5"/>
  <line x1="0.066601" y1="0.015200" x2="0.069601" y2="0.015200" stroke="#555" stroke-width="0.000140" stroke-opacity="0.5"/>
  <line x1="0.068001" y1="-0.015200" x2="0.069601" y2="-0.015200" stroke="#555" stroke-width="0.000200"/>
  <line x1="0.068001" y1="0.015200" x2="0.069601" y2="0.015200" stroke="#555" stroke-width="0.000200"/>
  <line x1="0.068801" y1="-0.015200" x2="0.068801" y2="0.015200" stroke="#555" stroke-width="0.000200"/>
  <polygon points="0.068801,-0.015200 0.068201,-0.013700 0.069401,-0.013700" fill="#555"/>
  <polygon points="0.068801,0.015200 0.068201,0.013700 0.069401,0.013700" fill="#555"/>
  <text x="0.070301" y="-0.000000" text-anchor="middle" dominant-baseline="central" font-family="'Input Sans Narrow', 'DejaVu Sans', Arial, sans-serif" font-size="0.001600" fill="#555" transform="rotate(-90 0.070301 -0.000000)">30.4</text>
  <text x="0.106701" y="-0.020875" text-anchor="middle" font-family="'Input Sans Narrow', 'DejaVu Sans', Arial, sans-serif" font-size="0.002500" font-weight="bold" fill="#333">B-B</text>
  <text x="0.106701" y="-0.017375" text-anchor="middle" font-family="'Input Sans Narrow', 'DejaVu Sans', Arial, sans-serif" font-size="0.001800" fill="#888">mid_body</text>
  <text x="0.180502" y="-0.020875" text-anchor="middle" font-family="'Input Sans Narrow', 'DejaVu Sans', Arial, sans-serif" font-size="0.002500" font-weight="bold" fill="#333">C-C</text>
  <text x="0.180502" y="-0.017375" text-anchor="middle" font-family="'Input Sans Narrow', 'DejaVu Sans', Arial, sans-serif" font-size="0.001800" fill="#888">rear_horn</text>
  <text x="0.254338" y="-0.020875" text-anchor="middle" font-family="'Input Sans Narrow', 'DejaVu Sans', Arial, sans-serif" font-size="0.002500" font-weight="bold" fill="#333">side_XZ</text>
  <line x1="0.221402" y1="0.044717" x2="0.221402" y2="0.047717" stroke="#555" stroke-width="0.000140" stroke-opacity="0.5"/>
  <line x1="0.287274" y1="0.044717" x2="0.287274" y2="0.047717" stroke="#555" stroke-width="0.000140" stroke-opacity="0.5"/>
  <line x1="0.221402" y1="0.046117" x2="0.221402" y2="0.047717" stroke="#555" stroke-width="0.000200"/>
  <line x1="0.287274" y1="0.046117" x2="0.287274" y2="0.047717" stroke="#555" stroke-width="0.000200"/>
  <line x1="0.221402" y1="0.046917" x2="0.287274" y2="0.046917" stroke="#555" stroke-width="0.000200"/>
  <polygon points="0.221402,0.046917 0.222902,0.046317 0.222902,0.047517" fill="#555"/>
  <polygon points="0.287274,0.046917 0.285774,0.046317 0.285774,0.047517" fill="#555"/>
  <text x="0.254338" y="0.045717" text-anchor="middle" font-family="'Input Sans Narrow', 'DejaVu Sans', Arial, sans-serif" font-size="0.001600" fill="#555">65.9</text>
  <line x1="0.288074" y1="-0.011717" x2="0.291074" y2="-0.011717" stroke="#555" stroke-width="0.000140" stroke-opacity="0.5"/>
  <line x1="0.288074" y1="0.043917" x2="0.291074" y2="0.043917" stroke="#555" stroke-width="0.000140" stroke-opacity="0.5"/>
  <line x1="0.289474" y1="-0.011717" x2="0.291074" y2="-0.011717" stroke="#555" stroke-width="0.000200"/>
  <line x1="0.289474" y1="0.043917" x2="0.291074" y2="0.043917" stroke="#555" stroke-width="0.000200"/>
  <line x1="0.290274" y1="-0.011717" x2="0.290274" y2="0.043917" stroke="#555" stroke-width="0.000200"/>
  <polygon points="0.290274,-0.011717 0.289674,-0.010217 0.290874,-0.010217" fill="#555"/>
  <polygon points="0.290274,0.043917 0.289674,0.042417 0.290874,0.042417" fill="#555"/>
  <text x="0.291774" y="0.016100" text-anchor="middle" dominant-baseline="central" font-family="'Input Sans Narrow', 'DejaVu Sans', Arial, sans-serif" font-size="0.001600" fill="#555" transform="rotate(-90 0.291774 0.016100)">55.6</text>
  <line x1="0.218402" y1="-0.001700" x2="0.290274" y2="-0.001700" stroke="#555" stroke-width="0.000250" stroke-dasharray="0.002500,0.000800,0.000500,0.000800"/>
  <text x="0.216902" y="-0.001100" text-anchor="end" font-family="'Input Sans Narrow', 'DejaVu Sans', Arial, sans-serif" font-size="0.002000" font-weight="bold" fill="#555">A</text>
  <text x="0.291774" y="-0.001100" text-anchor="start" font-family="'Input Sans Narrow', 'DejaVu Sans', Arial, sans-serif" font-size="0.002000" font-weight="bold" fill="#555">A</text>
  <line x1="0.218402" y1="0.016100" x2="0.290274" y2="0.016100" stroke="#555" stroke-width="0.000250" stroke-dasharray="0.002500,0.000800,0.000500,0.000800"/>
  <text x="0.216902" y="0.016700" text-anchor="end" font-family="'Input Sans Narrow', 'DejaVu Sans', Arial, sans-serif" font-size="0.002000" font-weight="bold" fill="#555">B</text>
  <text x="0.291774" y="0.016700" text-anchor="start" font-family="'Input Sans Narrow', 'DejaVu Sans', Arial, sans-serif" font-size="0.002000" font-weight="bold" fill="#555">B</text>
  <line x1="0.218402" y1="0.033900" x2="0.290274" y2="0.033900" stroke="#555" stroke-width="0.000250" stroke-dasharray="0.002500,0.000800,0.000500,0.000800"/>
  <text x="0.216902" y="0.034500" text-anchor="end" font-family="'Input Sans Narrow', 'DejaVu Sans', Arial, sans-serif" font-size="0.002000" font-weight="bold" fill="#555">C</text>
  <text x="0.291774" y="0.034500" text-anchor="start" font-family="'Input Sans Narrow', 'DejaVu Sans', Arial, sans-serif" font-size="0.002000" font-weight="bold" fill="#555">C</text>
  <text x="-0.001175" y="0.052092" font-family="'Input Sans Narrow', 'DejaVu Sans', Arial, sans-serif" font-size="0.003500" font-weight="bold" fill="#222">coupler_assembly</text>
  <line x1="-0.001175" y1="0.056092" x2="0.008825" y2="0.056092" stroke="#333" stroke-width="0.000350"/>
  <line x1="-0.001175" y1="0.055092" x2="-0.001175" y2="0.057092" stroke="#333" stroke-width="0.000250"/>
  <line x1="0.008825" y1="0.055092" x2="0.008825" y2="0.057092" stroke="#333" stroke-width="0.000250"/>
  <text x="0.010325" y="0.056792" font-family="'Input Sans Narrow', 'DejaVu Sans', Arial, sans-serif" font-size="0.001800" fill="#888">10 mm</text>
  <rect x="0.028825" y="0.049592" width="0.004000" height="0.002500" fill="url(#hatch_cradle)" stroke="rgb(50,120,190)" stroke-width="0.000300"/>
  <text x="0.034325" y="0.051592" font-family="'Input Sans Narrow', 'DejaVu Sans', Arial, sans-serif" font-size="0.001800" fill="rgb(50,120,190)">cradle</text>
  <rect x="0.028825" y="0.053092" width="0.004000" height="0.002500" fill="url(#hatch_servo)" stroke="rgb(60,60,60)" stroke-width="0.000300"/>
  <text x="0.034325" y="0.055092" font-family="'Input Sans Narrow', 'DejaVu Sans', Arial, sans-serif" font-size="0.001800" fill="rgb(60,60,60)">servo</text>
  <rect x="0.028825" y="0.056592" width="0.004000" height="0.002500" fill="url(#hatch_coupler)" stroke="rgb(220,60,40)" stroke-width="0.000300"/>
  <text x="0.034325" y="0.058592" font-family="'Input Sans Narrow', 'DejaVu Sans', Arial, sans-serif" font-size="0.001800" fill="rgb(220,60,40)">coupler</text>
</svg>