<?xml version='1.0' encoding='utf-8'?>
<svg width="166.54mm" height="84.95mm" viewBox="-0.003175 -0.027875 0.166541 0.084950" version="1.1" xmlns="http://www.w3.org/2000/svg">
  <defs>
    <pattern id="hatch_cradle" width="0.0012" height="0.0012" patternUnits="userSpaceOnUse" patternTransform="rotate(45)">
      <line x1="0" y1="0" x2="0" y2="0.0012" stroke="rgb(50,120,190)" stroke-width="0.0001" stroke-opacity="0.6"/>
    </pattern>
    <pattern id="hatch_servo" width="0.0012" height="0.0012" patternUnits="userSpaceOnUse" patternTransform="rotate(75)">
      <line x1="0" y1="0" x2="0" y2="0.0012" stroke="rgb(60,60,60)" stroke-width="0.0001" stroke-opacity="0.6"/>
    </pattern>
    <pattern id="hatch_coupler" width="0.0012" height="0.0012" patternUnits="userSpaceOnUse" patternTransform="rotate(105)">
      <line x1="0" y1="0" x2="0" y2="0.0012" stroke="rgb(220,60,40)" stroke-width="0.0001" stroke-opacity="0.6"/>
    </pattern>
  </defs>
  <g transform="scale(1,-1)" stroke-linecap="round">
    <g fill="none" stroke="rgb(50,120,190)" stroke-width="0.00035" id="cradle">
      <line x1="0.0" y1="0.0152" x2="0.007526" y2="0.0152" />
      <line x1="0.007526" y1="0.0152" x2="0.007526" y2="0.0127" />
      <line x1="0.0025" y1="0.0127" x2="0.007526" y2="0.0127" />
      <line x1="0.0025" y1="0.0127" x2="0.0025" y2="-0.0127" />
      <line x1="0.0025" y1="-0.0127" x2="0.007526" y2="-0.0127" />
      <line x1="0.007526" y1="-0.0127" x2="0.007526" y2="-0.0152" />
      <line x1="0.0" y1="-0.0152" x2="0.007526" y2="-0.0152" />
      <line x1="0.0" y1="0.0152" x2="0.0" y2="-0.0152" />
      <line x1="0.10689" y1="0.0187" x2="0.114417" y2="0.0187" />
      <line x1="0.114417" y1="0.0187" x2="0.114417" y2="0.0162" />
      <line x1="0.10939" y1="0.0162" x2="0.114417" y2="0.0162" />
      <line x1="0.10939" y1="0.0162" x2="0.10939" y2="-0.0129" />
      <line x1="0.10689" y1="-0.0129" x2="0.10939" y2="-0.0129" />
      <line x1="0.10689" y1="0.0187" x2="0.10689" y2="-0.0129" />
      <line x1="0.10689" y1="-0.0189" x2="0.11069" y2="-0.0189" />
      <line x1="0.11069" y1="-0.0162" x2="0.11069" y2="-0.0189" />
      <line x1="0.11069" y1="-0.0162" x2="0.114417" y2="-0.0162" />
      <line x1="0.114417" y1="-0.0162" x2="0.114417" y2="-0.0221" />
      <line x1="0.10689" y1="-0.0221" x2="0.114417" y2="-0.0221" />
      <line x1="0.10689" y1="-0.0189" x2="0.10689" y2="-0.0221" />
    </g>
    <g fill="url(#hatch_cradle)" stroke="none" stroke-width="0" id="cradle_fill">
      <path d="M 0.007526,0.0152 L 0.0,0.0152 L 0.0,-0.0152 L 0.007526,-0.0152 L 0.007526,-0.0127 L 0.0025,-0.0127 L 0.0025,0.0127 L 0.007526,0.0127 L 0.007526,0.0152" />
      <path d="M 0.114417,0.0187 L 0.10689,0.0187 L 0.10689,-0.0129 L 0.10939,-0.0129 L 0.10939,0.0162 L 0.114417,0.0162 L 0.114417,0.0187" />
      <path d="M 0.11069,-0.0189 L 0.10689,-0.0189 L 0.10689,-0.0221 L 0.114417,-0.0221 L 0.114417,-0.0162 L 0.11069,-0.0162 L 0.11069,-0.0189" />
    </g>
    <g fill="none" stroke="rgb(60,60,60)" stroke-width="0.00035" id="servo">
      <line x1="0.0028" y1="0.0124" x2="0.0482" y2="0.0124" />
      <line x1="0.0482" y1="0.0124" x2="0.0482" y2="-0.0124" />
      <line x1="0.0028" y1="-0.0124" x2="0.0482" y2="-0.0124" />
      <line x1="0.0028" y1="0.0124" x2="0.0028" y2="-0.0124" />
      <line x1="0.14889" y1="0.0159" x2="0.14889" y2="0.0187" />
      <line x1="0.14889" y1="0.0159" x2="0.15509" y2="0.0159" />
      <line x1="0.15509" y1="0.0159" x2="0.15509" y2="-0.0159" />
      <line x1="0.10969" y1="-0.0159" x2="0.15509" y2="-0.0159" />
      <line x1="0.10969" y1="0.0159" x2="0.10969" y2="-0.0159" />
      <line x1="0.10969" y1="0.0159" x2="0.14089" y2="0.0159" />
      <line x1="0.14089" y1="0.0159" x2="0.14089" y2="0.0187" />
      <line x1="0.14089" y1="0.0187" x2="0.14889" y2="0.0187" />
    </g>
    <g fill="url(#hatch_servo)" stroke="none" stroke-width="0" id="servo_fill">
      <path d="M 0.0482,0.0124 L 0.0028,0.0124 L 0.0028,-0.0124 L 0.0482,-0.0124 L 0.0482,0.0124" />
      <path d="M 0.14889,0.0159 L 0.14889,0.0187 L 0.14089,0.0187 L 0.14089,0.0159 L 0.10969,0.0159 L 0.10969,-0.0159 L 0.15509,-0.0159 L 0.15509,0.0159 L 0.14889,0.0159" />
    </g>
    <g fill="none" stroke="rgb(220,60,40)" stroke-width="0.00035" id="coupler">
      <line x1="0.053301" y1="-0.010789" x2="0.0255" y2="-0.010789" />
      <line x1="0.053301" y1="-0.010789" x2="0.053301" y2="-0.009789" />
      <line x1="0.0255" y1="-0.010789" x2="0.0255" y2="-0.009789" />
      <line x1="0.053301" y1="-0.009789" x2="0.043301" y2="-0.009789" />
      <path d="M 0.0255,0.009789 A 0.009789105352524866,0.009789105352524866 0.0 1,1 0.0255,-0.009789" />
      <line x1="0.043301" y1="-0.009789" x2="0.043301" y2="0.009789" />
      <line x1="0.0255" y1="0.009789" x2="0.0255" y2="0.010789" />
      <line x1="0.053301" y1="0.009789" x2="0.043301" y2="0.009789" />
      <line x1="0.053301" y1="0.010789" x2="0.0255" y2="0.010789" />
      <line x1="0.053301" y1="0.009789" x2="0.053301" y2="0.010789" />
      <circle cx="0.02055" cy="-0.00495" r="0.00125" />
      <circle cx="0.0255" cy="0.0" r="0.0053" />
      <circle cx="0.03045" cy="-0.00495" r="0.00125" />
      <circle cx="0.02055" cy="0.00495" r="0.00125" />
      <circle cx="0.03045" cy="0.00495" r="0.00125" />
      <line x1="0.053301" y1="-0.009789" x2="0.043301" y2="-0.009789" />
      <line x1="0.043301" y1="-0.009789" x2="0.043301" y2="0.009789" />
      <line x1="0.053301" y1="0.009789" x2="0.043301" y2="0.009789" />
      <line x1="0.053301" y1="0.009789" x2="0.053301" y2="-0.009789" />
      <line x1="0.09889" y1="-0.010789" x2="0.07109" y2="-0.010789" />
      <line x1="0.09889" y1="-0.010789" x2="0.09889" y2="0.010789" />
      <line x1="0.09889" y1="0.010789" x2="0.07109" y2="0.010789" />
      <line x1="0.07109" y1="0.009789" x2="0.07109" y2="0.010789" />
      <path d="M 0.07109,0.009789 A 0.009789105352524866,0.009789105352524866 0.0 1,1 0.07109,-0.009789" />
      <line x1="0.07109" y1="-0.010789" x2="0.07109" y2="-0.009789" />
      <circle cx="0.06614" cy="-0.00495" r="0.00125" />
      <circle cx="0.07109" cy="0.0" r="0.0053" />
      <circle cx="0.07604" cy="-0.00495" r="0.00125" />
      <circle cx="0.06614" cy="0.00495" r="0.00125" />
      <circle cx="0.07604" cy="0.00495" r="0.00125" />
      <line x1="0.13769" y1="0.0028" x2="0.13769" y2="0.0128" />
      <line x1="0.13769" y1="0.0128" x2="0.160191" y2="0.0128" />
      <line x1="0.160191" y1="0.0128" x2="0.160191" y2="-0.0449" />
      <line x1="0.13769" y1="-0.0449" x2="0.160191" y2="-0.0449" />
      <line x1="0.13769" y1="-0.0449" x2="0.13769" y2="-0.0349" />
      <line x1="0.13769" y1="-0.0349" x2="0.150191" y2="-0.0349" />
      <line x1="0.150191" y1="0.0028" x2="0.150191" y2="-0.0349" />
      <line x1="0.13769" y1="0.0028" x2="0.150191" y2="0.0028" />
      <line x1="0.122601" y1="0.0128" x2="0.12709" y2="0.0128" />
      <line x1="0.12709" y1="0.0028" x2="0.12709" y2="0.0128" />
      <line x1="0.122601" y1="0.0028" x2="0.12709" y2="0.0028" />
      <line x1="0.122601" y1="0.0028" x2="0.122601" y2="0.0128" />
      <line x1="0.122601" y1="-0.0349" x2="0.12709" y2="-0.0349" />
      <line x1="0.12709" y1="-0.0449" x2="0.12709" y2="-0.0349" />
      <line x1="0.122601" y1="-0.0449" x2="0.12709" y2="-0.0449" />
      <line x1="0.122601" y1="-0.0449" x2="0.122601" y2="-0.0349" />
    </g>
    <g fill="url(#hatch_coupler)" stroke="none" stroke-width="0" id="coupler_fill">
      <path d="M 0.053301,-0.010789 L 0.0255,-0.010789 L 0.0255,-0.009789 A 0.009789105352524866,0.009789105352524866 0.0 1,0 0.0255,0.009789 L 0.0255,0.010789 L 0.053301,0.010789 L 0.053301,0.009789 L 0.043301,0.009789 L 0.043301,-0.009789 L 0.053301,-0.009789 L 0.053301,-0.010789 M 0.0218,-0.00495 A 0.00125,0.00125 0.0 0,1 0.0193,-0.00495 A 0.00125,0.00125 0.0 0,1 0.0218,-0.00495 M 0.0308,0.0 A 0.005300000000000001,0.005300000000000001 0.0 0,1 0.0202,0.0 A 0.005300000000000001,0.005300000000000001 0.0 0,1 0.0308,-0.0 M 0.0317,-0.00495 A 0.00125,0.00125 0.0 0,1 0.0292,-0.00495 A 0.00125,0.00125 0.0 0,1 0.0317,-0.00495 M 0.0218,0.00495 A 0.00125,0.00125 0.0 0,1 0.0193,0.00495 A 0.00125,0.00125 0.0 0,1 0.0218,0.00495 M 0.0317,0.00495 A 0.00125,0.00125 0.0 0,1 0.0292,0.00495 A 0.00125,0.00125 0.0 0,1 0.0317,0.00495" />
      <path d="M 0.043301,-0.009789 L 0.053301,-0.009789 L 0.053301,0.009789 L 0.043301,0.009789 L 0.043301,-0.009789" />
      <path d="M 0.07109,-0.010789 L 0.09889,-0.010789 L 0.09889,0.010789 L 0.07109,0.010789 L 0.07109,0.009789 A 0.009789105352524866,0.009789105352524866 0.0 1,1 0.07109,-0.009789 L 0.07109,-0.010789 M 0.06739,-0.00495 A 0.0012500000000000011,0.0012500000000000011 0.0 0,0 0.06489,-0.00495 A 0.0012500000000000011,0.0012500000000000011 0.0 0,0 0.06739,-0.00495 M 0.07639,-0.0 A 0.0053,0.0053 0.0 0,0 0.06579,0.0 A 0.0053,0.0053 0.0 0,0 0.07639,0.0 M 0.07729,-0.00495 A 0.0012500000000000011,0.0012500000000000011 0.0 0,0 0.07479,-0.00495 A 0.0012500000000000011,0.0012500000000000011 0.0 0,0 0.07729,-0.00495 M 0.06739,0.00495 A 0.0012500000000000011,0.0012500000000000011 0.0 0,0 0.06489,0.00495 A 0.0012500000000000011,0.0012500000000000011 0.0 0,0 0.06739,0.00495 M 0.07729,0.00495 A 0.0012500000000000011,0.0012500000000000011 0.0 0,0 0.07479,0.00495 A 0.0012500000000000011,0.0012500000000000011 0.0 0,0 0.07729,0.00495" />
      <path d="M 0.13769,0.0128 L 0.13769,0.0028 L 0.150191,0.0028 L 0.150191,-0.0349 L 0.13769,-0.0349 L 0.13769,-0.0449 L 0.160191,-0.0449 L 0.160191,0.0128 L 0.13769,0.0128" />
      <path d="M 0.12709,0.0128 L 0.122601,0.0128 L 0.122601,0.0028 L 0.12709,0.0028 L 0.12709,0.0128" />
      <path d="M 0.12709,-0.0349 L 0.122601,-0.0349 L 0.122601,-0.0449 L 0.12709,-0.0449 L 0.12709,-0.0349" />
    </g>
  </g>
  <text x="0.026650" y="-0.024375" text-anchor="middle" font-family="'Input Sans Narrow', 'DejaVu Sans', Arial, sans-serif" font-size="0.002500" font-weight="bold" fill="#333">A-A</text>
  <text x="0.026650" y="-0.020875" text-anchor="middle" font-family="'Input Sans Narrow', 'DejaVu Sans', Arial, sans-serif" font-size="0.001800" fill="#888">front_horn</text>
  <text x="0.080096" y="-0.024375" text-anchor="middle" font-family="'Input Sans Narrow', 'DejaVu Sans', Arial, sans-serif" font-size="0.002500" font-weight="bold" fill="#333">B-B</text>
  <text x="0.080096" y="-0.020875" text-anchor="middle" font-family="'Input Sans Narrow', 'DejaVu Sans', Arial, sans-serif" font-size="0.001800" fill="#888">rear_horn</text>
  <text x="0.133541" y="-0.024375" text-anchor="middle" font-family="'Input Sans Narrow', 'DejaVu Sans', Arial, sans-serif" font-size="0.002500" font-weight="bold" fill="#333">C-C</text>
  <text x="0.133541" y="-0.020875" text-anchor="middle" font-family="'Input Sans Narrow', 'DejaVu Sans', Arial, sans-serif" font-size="0.001800" fill="#888">side_XZ</text>
  <text x="-0.001175" y="0.048575" font-family="'Input Sans Narrow', 'DejaVu Sans', Arial, sans-serif" font-size="0.003500" font-weight="bold" fill="#222">coupler_assembly</text>
  <line x1="-0.001175" y1="0.052575" x2="0.008825" y2="0.052575" stroke="#333" stroke-width="0.000350"/>
  <line x1="-0.001175" y1="0.051575" x2="-0.001175" y2="0.053575" stroke="#333" stroke-width="0.000250"/>
  <line x1="0.008825" y1="0.051575" x2="0.008825" y2="0.053575" stroke="#333" stroke-width="0.000250"/>
  <text x="0.010325" y="0.053275" font-family="'Input Sans Narrow', 'DejaVu Sans', Arial, sans-serif" font-size="0.001800" fill="#888">10 mm</text>
  <rect x="0.028825" y="0.046075" width="0.004000" height="0.002500" fill="url(#hatch_cradle)" stroke="rgb(50,120,190)" stroke-width="0.000300"/>
  <text x="0.034325" y="0.048075" font-family="'Input Sans Narrow', 'DejaVu Sans', Arial, sans-serif" font-size="0.001800" fill="rgb(50,120,190)">cradle</text>
  <rect x="0.028825" y="0.049575" width="0.004000" height="0.002500" fill="url(#hatch_servo)" stroke="rgb(60,60,60)" stroke-width="0.000300"/>
  <text x="0.034325" y="0.051575" font-family="'Input Sans Narrow', 'DejaVu Sans', Arial, sans-serif" font-size="0.001800" fill="rgb(60,60,60)">servo</text>
  <rect x="0.028825" y="0.053075" width="0.004000" height="0.002500" fill="url(#hatch_coupler)" stroke="rgb(220,60,40)" stroke-width="0.000300"/>
  <text x="0.034325" y="0.055075" font-family="'Input Sans Narrow', 'DejaVu Sans', Arial, sans-serif" font-size="0.001800" fill="rgb(220,60,40)">coupler</text>
</svg>