<?xml version='1.0' encoding='utf-8'?>
<svg width="280.87mm" height="74.60mm" viewBox="-0.003175 -0.034371 0.280865 0.074599" version="1.1" xmlns="http://www.w3.org/2000/svg">
  <defs>
    <pattern id="hatch_servo" width="0.0012" height="0.0012" patternUnits="userSpaceOnUse" patternTransform="rotate(45)">
      <line x1="0" y1="0" x2="0" y2="0.0012" stroke="rgb(60,60,60)" stroke-width="0.0001" stroke-opacity="0.6"/>
    </pattern>
    <pattern id="hatch_bracket" width="0.0012" height="0.0012" patternUnits="userSpaceOnUse" patternTransform="rotate(75)">
      <line x1="0" y1="0" x2="0" y2="0.0012" stroke="rgb(50,120,190)" stroke-width="0.0001" stroke-opacity="0.6"/>
    </pattern>
  </defs>
  <g transform="scale(1,-1)" stroke-linecap="round">
    <g fill="none" stroke="rgb(60,60,60)" stroke-width="0.00035" id="servo">
      <line x1="0.0028" y1="-0.0124" x2="0.0028" y2="0.0124" />
      <line x1="0.0028" y1="-0.0124" x2="0.0482" y2="-0.0124" />
      <line x1="0.0482" y1="-0.0124" x2="0.0482" y2="0.0124" />
      <line x1="0.0028" y1="0.0124" x2="0.0482" y2="0.0124" />
      <line x1="0.0618" y1="0.0124" x2="0.1072" y2="0.0124" />
      <line x1="0.1072" y1="0.0124" x2="0.1072" y2="-0.0124" />
      <line x1="0.0618" y1="-0.0124" x2="0.1072" y2="-0.0124" />
      <line x1="0.0618" y1="0.0124" x2="0.0618" y2="-0.0124" />
      <line x1="0.1201" y1="0.01335" x2="0.1201" y2="0.0124" />
      <line x1="0.1201" y1="0.01335" x2="0.1508" y2="0.01335" />
      <line x1="0.1508" y1="0.01335" x2="0.1508" y2="0.0124" />
      <line x1="0.1201" y1="0.0124" x2="0.1508" y2="0.0124" />
      <line x1="0.1201" y1="-0.0124" x2="0.1508" y2="-0.0124" />
      <line x1="0.1508" y1="-0.0124" x2="0.1508" y2="-0.01335" />
      <line x1="0.1201" y1="-0.01335" x2="0.1508" y2="-0.01335" />
      <line x1="0.1201" y1="-0.0124" x2="0.1201" y2="-0.01335" />
      <line x1="0.180244" y1="-0.015852" x2="0.180244" y2="0.015948" />
      <line x1="0.180244" y1="0.015948" x2="0.180245" y2="0.015961" />
      <line x1="0.180244" y1="-0.015852" x2="0.210244" y2="-0.015852" />
      <line x1="0.210244" y1="-0.015852" x2="0.225644" y2="-0.015852" />
      <line x1="0.225644" y1="-0.015852" x2="0.225644" y2="0.015948" />
      <line x1="0.180244" y1="0.015948" x2="0.225644" y2="0.015948" />
      <line x1="0.180245" y1="0.015961" x2="0.211444" y2="0.015961" />
      <line x1="0.219444" y1="0.015961" x2="0.225645" y2="0.015961" />
      <line x1="0.225644" y1="0.015948" x2="0.225645" y2="0.015961" />
      <path d="M 0.211444,0.015955 A 0.0040000000000000036,2.182800256091935e-06 -6.830285894301604e-23 0,1 0.219444,0.015955" />
      <path d="M 0.219444,0.018755 A 0.0040000000000000036,2.182800256091935e-06 -6.830285894301604e-23 0,1 0.211444,0.018755" />
      <path d="M 0.211444,0.018755 A 0.0040000000000000036,2.182800256091935e-06 -6.830285894301604e-23 0,1 0.219444,0.018755" />
      <line x1="0.210244" y1="-0.020039" x2="0.210245" y2="-0.020039" />
      <line x1="0.210245" y1="-0.020039" x2="0.210245" y2="-0.015852" />
      <line x1="0.179545" y1="-0.015839" x2="0.180244" y2="-0.015839" />
      <line x1="0.179545" y1="-0.015852" x2="0.179545" y2="-0.015839" />
      <line x1="0.179545" y1="-0.015838" x2="0.180244" y2="-0.015838" />
      <line x1="0.179544" y1="-0.015852" x2="0.180244" y2="-0.015852" />
      <line x1="0.179544" y1="-0.020053" x2="0.210244" y2="-0.020053" />
      <line x1="0.210244" y1="-0.020053" x2="0.210244" y2="-0.015853" />
      <line x1="0.179544" y1="-0.015853" x2="0.210244" y2="-0.015853" />
      <line x1="0.179544" y1="-0.020053" x2="0.179544" y2="-0.015853" />
      <line x1="0.219444" y1="0.015955" x2="0.219444" y2="0.018755" />
      <line x1="0.211444" y1="0.015955" x2="0.211444" y2="0.018755" />
      <line x1="0.238915" y1="0.015967" x2="0.247315" y2="0.015967" />
      <line x1="0.255315" y1="0.015967" x2="0.263715" y2="0.015967" />
      <line x1="0.238915" y1="-0.015858" x2="0.238915" y2="0.015942" />
      <line x1="0.238915" y1="0.015967" x2="0.238915" y2="0.015942" />
      <line x1="0.263715" y1="0.015967" x2="0.263715" y2="0.015942" />
      <line x1="0.238915" y1="0.015942" x2="0.263715" y2="0.015942" />
      <path d="M 0.251315,0.015946 A 0.004,2.1826718896676833e-06 -3.9032160245301656e-36 0,1 0.255315,0.015948" />
      <path d="M 0.247315,0.015948 A 0.004,2.1826718896676833e-06 -3.9032160245301656e-36 0,1 0.251315,0.015946" />
      <line x1="0.263715" y1="-0.015858" x2="0.263715" y2="0.015942" />
      <line x1="0.238915" y1="-0.015858" x2="0.263715" y2="-0.015858" />
      <path d="M 0.251315,0.018746 A 0.004,2.1826718896676833e-06 -3.9032160245301656e-36 0,1 0.255315,0.018748" />
      <path d="M 0.255315,0.018748 A 0.0040000000000000036,2.1826718896676854e-06 -3.9032160245301656e-36 0,1 0.247315,0.018748" />
      <path d="M 0.247315,0.018748 A 0.004,2.1826718896676833e-06 -3.9032160245301656e-36 0,1 0.251315,0.018746" />
      <line x1="0.263715" y1="-0.020049" x2="0.263715" y2="-0.015858" />
      <line x1="0.263715" y1="-0.020049" x2="0.264665" y2="-0.020049" />
      <line x1="0.263715" y1="-0.015849" x2="0.264665" y2="-0.015849" />
      <line x1="0.264665" y1="-0.020049" x2="0.264665" y2="-0.015849" />
      <line x1="0.263715" y1="-0.015833" x2="0.264665" y2="-0.015833" />
      <line x1="0.264665" y1="-0.015833" x2="0.264665" y2="-0.015849" />
      <line x1="0.238915" y1="-0.020049" x2="0.238915" y2="-0.015858" />
      <line x1="0.237965" y1="-0.020049" x2="0.238915" y2="-0.020049" />
      <line x1="0.237965" y1="-0.020049" x2="0.237965" y2="-0.015849" />
      <line x1="0.237965" y1="-0.015849" x2="0.238915" y2="-0.015849" />
      <line x1="0.237965" y1="-0.015833" x2="0.238915" y2="-0.015833" />
      <line x1="0.237965" y1="-0.015833" x2="0.237965" y2="-0.015849" />
      <line x1="0.255315" y1="0.015948" x2="0.255315" y2="0.018748" />
      <line x1="0.247315" y1="0.015948" x2="0.247315" y2="0.018748" />
    </g>
    <g fill="url(#hatch_servo)" stroke="none" stroke-width="0" id="servo_fill">
      <path d="M 0.0028,0.0124 L 0.0028,-0.0124 L 0.0482,-0.0124 L 0.0482,0.0124 L 0.0028,0.0124" />
      <path d="M 0.1072,0.0124 L 0.0618,0.0124 L 0.0618,-0.0124 L 0.1072,-0.0124 L 0.1072,0.0124" />
      <path d="M 0.1201,0.01335 L 0.1201,0.0124 L 0.1508,0.0124 L 0.1508,0.01335 L 0.1201,0.01335" />
      <path d="M 0.1508,-0.0124 L 0.1201,-0.0124 L 0.1201,-0.01335 L 0.1508,-0.01335 L 0.1508,-0.0124" />
    </g>
    <g fill="none" stroke="rgb(60,60,60)" stroke-opacity="0.4" stroke-width="0.00015" id="servo_hidden" stroke-dasharray="0.0018 0.00045">
      <line x1="0.180245" y1="-0.015839" x2="0.180245" y2="0.015961" />
      <line x1="0.180244" y1="-0.015852" x2="0.180245" y2="-0.015839" />
      <line x1="0.211444" y1="0.015961" x2="0.219444" y2="0.015961" />
      <path d="M 0.219444,0.015955 A 0.0040000000000000036,2.182800256091935e-06 -6.830285894301604e-23 0,1 0.211444,0.015955" />
      <line x1="0.180245" y1="-0.015839" x2="0.210245" y2="-0.015839" />
      <line x1="0.210245" y1="-0.015839" x2="0.225645" y2="-0.015839" />
      <line x1="0.225645" y1="-0.015839" x2="0.225645" y2="0.015961" />
      <line x1="0.225644" y1="-0.015852" x2="0.225645" y2="-0.015839" />
      <line x1="0.179545" y1="-0.020039" x2="0.210244" y2="-0.020039" />
      <line x1="0.210245" y1="-0.015852" x2="0.210245" y2="-0.015839" />
      <line x1="0.180244" y1="-0.015839" x2="0.180245" y2="-0.015839" />
      <line x1="0.179545" y1="-0.020039" x2="0.179545" y2="-0.015852" />
      <line x1="0.179545" y1="-0.020038" x2="0.210245" y2="-0.020038" />
      <line x1="0.210245" y1="-0.020038" x2="0.210245" y2="-0.015838" />
      <line x1="0.180244" y1="-0.015838" x2="0.210245" y2="-0.015838" />
      <line x1="0.179545" y1="-0.020038" x2="0.179545" y2="-0.015838" />
      <line x1="0.179544" y1="-0.020052" x2="0.210244" y2="-0.020052" />
      <line x1="0.210244" y1="-0.020052" x2="0.210244" y2="-0.015852" />
      <line x1="0.179544" y1="-0.020052" x2="0.179544" y2="-0.015852" />
      <line x1="0.238915" y1="-0.015833" x2="0.238915" y2="0.015967" />
      <line x1="0.247315" y1="0.015967" x2="0.255315" y2="0.015967" />
      <line x1="0.263715" y1="-0.015833" x2="0.263715" y2="0.015967" />
      <line x1="0.238915" y1="-0.015833" x2="0.263715" y2="-0.015833" />
      <line x1="0.238915" y1="-0.015833" x2="0.238915" y2="-0.015849" />
      <line x1="0.238915" y1="-0.015849" x2="0.238915" y2="-0.015858" />
      <path d="M 0.255315,0.015948 A 0.0040000000000000036,2.1826718896676854e-06 -3.9032160245301656e-36 0,1 0.247315,0.015948" />
      <line x1="0.263715" y1="-0.015833" x2="0.263715" y2="-0.015849" />
      <line x1="0.263715" y1="-0.015849" x2="0.263715" y2="-0.015858" />
      <line x1="0.263715" y1="-0.020033" x2="0.263715" y2="-0.020049" />
      <line x1="0.263715" y1="-0.015858" x2="0.263715" y2="-0.015849" />
      <line x1="0.263715" y1="-0.020033" x2="0.263715" y2="-0.015833" />
      <line x1="0.263715" y1="-0.020033" x2="0.264665" y2="-0.020033" />
      <line x1="0.264665" y1="-0.020033" x2="0.264665" y2="-0.020049" />
      <line x1="0.264665" y1="-0.020033" x2="0.264665" y2="-0.015833" />
      <line x1="0.238915" y1="-0.020033" x2="0.238915" y2="-0.020049" />
      <line x1="0.238915" y1="-0.015858" x2="0.238915" y2="-0.015849" />
      <line x1="0.238915" y1="-0.020033" x2="0.238915" y2="-0.015833" />
      <line x1="0.237965" y1="-0.020033" x2="0.238915" y2="-0.020033" />
      <line x1="0.237965" y1="-0.020033" x2="0.237965" y2="-0.020049" />
      <line x1="0.237965" y1="-0.020033" x2="0.237965" y2="-0.015833" />
    </g>
    <g fill="none" stroke="rgb(50,120,190)" stroke-width="0.00035" id="bracket">
      <line x1="0.0" y1="0.0152" x2="0.051" y2="0.0152" />
      <line x1="0.051" y1="0.0152" x2="0.051" y2="-0.0152" />
      <line x1="0.0" y1="-0.0152" x2="0.051" y2="-0.0152" />
      <line x1="0.0" y1="0.0152" x2="0.0" y2="-0.0152" />
      <line x1="0.0025" y1="0.0127" x2="0.0025" y2="-0.0127" />
      <line x1="0.0025" y1="-0.0127" x2="0.0485" y2="-0.0127" />
      <line x1="0.0485" y1="0.0127" x2="0.0485" y2="-0.0127" />
      <line x1="0.0025" y1="0.0127" x2="0.0485" y2="0.0127" />
      <line x1="0.059" y1="0.0152" x2="0.11" y2="0.0152" />
      <line x1="0.11" y1="0.0152" x2="0.11" y2="-0.0152" />
      <line x1="0.059" y1="-0.0152" x2="0.11" y2="-0.0152" />
      <line x1="0.059" y1="0.0152" x2="0.059" y2="-0.0152" />
      <line x1="0.0615" y1="0.0127" x2="0.0615" y2="-0.0127" />
      <line x1="0.0615" y1="-0.0127" x2="0.1075" y2="-0.0127" />
      <line x1="0.1075" y1="0.0127" x2="0.1075" y2="-0.0127" />
      <line x1="0.0615" y1="0.0127" x2="0.1075" y2="0.0127" />
      <line x1="0.118" y1="0.0152" x2="0.169" y2="0.0152" />
      <line x1="0.169" y1="0.0152" x2="0.169" y2="-0.0152" />
      <line x1="0.118" y1="-0.0152" x2="0.169" y2="-0.0152" />
      <line x1="0.118" y1="-0.005" x2="0.118" y2="-0.0152" />
      <line x1="0.118" y1="-0.005" x2="0.1218" y2="-0.005" />
      <line x1="0.1218" y1="0.005" x2="0.1218" y2="-0.005" />
      <line x1="0.118" y1="0.005" x2="0.1218" y2="0.005" />
      <line x1="0.118" y1="0.0152" x2="0.118" y2="0.005" />
      <path d="M 0.1251,-0.009356 A 0.0021,0.0021 0.0 1,1 0.1251,-0.011144" />
      <path d="M 0.1251,-0.011144 A 0.0021,0.0021 0.0 1,1 0.1251,-0.009356" />
      <circle cx="0.1477" cy="-0.01025" r="0.0021" />
      <path d="M 0.1251,0.011144 A 0.0021,0.0021 0.0 1,1 0.1251,0.009356" />
      <path d="M 0.1251,0.009356 A 0.0021,0.0021 0.0 1,1 0.1251,0.011144" />
      <circle cx="0.1477" cy="0.01025" r="0.0021" />
      <line x1="0.177116" y1="-0.019599" x2="0.177116" y2="0.023982" />
      <line x1="0.177116" y1="0.023982" x2="0.177" y2="0.024876" />
      <line x1="0.177116" y1="-0.019599" x2="0.177" y2="-0.018705" />
      <line x1="0.177" y1="-0.018705" x2="0.177" y2="0.024876" />
      <line x1="0.177039" y1="-0.015806" x2="0.177077" y2="-0.0161" />
      <line x1="0.177039" y1="-0.015806" x2="0.177039" y2="-0.009809" />
      <line x1="0.177039" y1="-0.009809" x2="0.177077" y2="-0.010103" />
      <line x1="0.177077" y1="-0.0161" x2="0.177077" y2="-0.010103" />
      <line x1="0.177116" y1="-0.019599" x2="0.228115" y2="-0.019593" />
      <line x1="0.228115" y1="-0.019593" x2="0.228115" y2="0.023988" />
      <line x1="0.177116" y1="0.023982" x2="0.228115" y2="0.023988" />
      <line x1="0.177" y1="0.024876" x2="0.228" y2="0.024882" />
      <line x1="0.228115" y1="0.023988" x2="0.228" y2="0.024882" />
      <line x1="0.177039" y1="-0.015806" x2="0.177077" y2="-0.015806" />
      <line x1="0.236115" y1="0.025196" x2="0.266515" y2="0.025196" />
      <line x1="0.236115" y1="-0.019891" x2="0.236115" y2="0.02369" />
      <line x1="0.236115" y1="0.025196" x2="0.236115" y2="0.02369" />
      <line x1="0.266515" y1="0.025196" x2="0.266515" y2="0.02369" />
      <line x1="0.236115" y1="0.02369" x2="0.266515" y2="0.02369" />
      <line x1="0.236115" y1="-0.019891" x2="0.266515" y2="-0.019891" />
      <line x1="0.266515" y1="-0.019891" x2="0.266515" y2="0.02369" />
    </g>
    <g fill="url(#hatch_bracket)" stroke="none" stroke-width="0" id="bracket_fill">
      <path d="M 0.051,0.0152 L 0.0,0.0152 L 0.0,-0.0152 L 0.051,-0.0152 L 0.051,0.0152 M 0.0025,-0.0127 L 0.0025,0.0127 L 0.0485,0.0127 L 0.0485,-0.0127 L 0.0025,-0.0127" />
      <path d="M 0.11,0.0152 L 0.059,0.0152 L 0.059,-0.0152 L 0.11,-0.0152 L 0.11,0.0152 M 0.0615,-0.0127 L 0.0615,0.0127 L 0.1075,0.0127 L 0.1075,-0.0127 L 0.0615,-0.0127" />
      <path d="M 0.169,0.0152 L 0.118,0.0152 L 0.118,0.005 L 0.1218,0.005 L 0.1218,-0.005 L 0.118,-0.005 L 0.118,-0.0152 L 0.169,-0.0152 L 0.169,0.0152 M 0.1251,-0.011144 A 0.0021,0.0021 0.0 1,0 0.1251,-0.009356 A 0.0021,0.0021 0.0 1,0 0.1251,-0.011144 M 0.1498,-0.01025 A 0.0021,0.0021 0.0 0,0 0.1456,-0.01025 A 0.0021,0.0021 0.0 0,0 0.1498,-0.01025 M 0.1251,0.009356 A 0.0021,0.0021 0.0 1,0 0.1251,0.011144 A 0.0021,0.0021 0.0 1,0 0.1251,0.009356 M 0.1498,0.01025 A 0.0021,0.0021 0.0 0,0 0.1456,0.01025 A 0.0021,0.0021 0.0 0,0 0.1498,0.01025" />
    </g>
    <g fill="none" stroke="rgb(50,120,190)" stroke-opacity="0.4" stroke-width="0.00015" id="bracket_hidden" stroke-dasharray="0.0018 0.00045">
      <line x1="0.228115" y1="-0.019593" x2="0.228" y2="-0.018699" />
      <line x1="0.177" y1="-0.018705" x2="0.228" y2="-0.018699" />
      <path d="M 0.184193,-0.019426 A 0.0021,6.177037682514863e-05 6.788346705214816e-19 0,1 0.180197,-0.019453" />
      <path d="M 0.180197,-0.019453 A 0.0021,6.177037682514863e-05 6.788346705214816e-19 0,1 0.1842,-0.019479" />
      <path d="M 0.1842,-0.019479 A 0.0021,6.177037682514861e-05 -3.3825560674581144e-17 0,1 0.188197,-0.019452" />
      <path d="M 0.188197,-0.019452 A 0.0021,6.177037682514861e-05 -3.3825560674581144e-17 0,1 0.184193,-0.019426" />
      <path d="M 0.208897,-0.01945 A 0.0021000000000000046,6.177037682514876e-05 6.788346705214816e-19 0,1 0.204697,-0.01945" />
      <path d="M 0.204697,-0.01945 A 0.0021000000000000046,6.177037682514876e-05 6.788346705214816e-19 0,1 0.208897,-0.01945" />
      <path d="M 0.184115,-0.018823 A 0.0021,6.177037682514863e-05 6.788346705214816e-19 0,1 0.180119,-0.01885" />
      <path d="M 0.180119,-0.01885 A 0.0021,6.177037682514863e-05 6.788346705214816e-19 0,1 0.184122,-0.018876" />
      <path d="M 0.184122,-0.018876 A 0.0021,6.177037682514861e-05 -3.3825560674581144e-17 0,1 0.188119,-0.018849" />
      <path d="M 0.188119,-0.018849 A 0.0021,6.177037682514861e-05 -3.3825560674581144e-17 0,1 0.184115,-0.018823" />
      <path d="M 0.208819,-0.018847 A 0.0021000000000000046,6.177037682514876e-05 6.788346705214816e-19 0,1 0.204619,-0.018847" />
      <path d="M 0.204619,-0.018847 A 0.0021000000000000046,6.177037682514876e-05 6.788346705214816e-19 0,1 0.208819,-0.018847" />
      <line x1="0.228" y1="-0.018699" x2="0.228" y2="0.024882" />
      <line x1="0.177077" y1="-0.015806" x2="0.180839" y2="-0.015806" />
      <line x1="0.180877" y1="-0.0161" x2="0.180839" y2="-0.015806" />
      <line x1="0.177077" y1="-0.0161" x2="0.180877" y2="-0.0161" />
      <line x1="0.180839" y1="-0.015806" x2="0.180839" y2="-0.013107" />
      <line x1="0.180839" y1="-0.013107" x2="0.179539" y2="-0.013107" />
      <line x1="0.179539" y1="-0.013107" x2="0.179539" y2="-0.009808" />
      <line x1="0.177039" y1="-0.009809" x2="0.179539" y2="-0.009808" />
      <line x1="0.179539" y1="-0.009808" x2="0.179577" y2="-0.010103" />
      <line x1="0.177077" y1="-0.010103" x2="0.179577" y2="-0.010103" />
      <line x1="0.180877" y1="-0.0161" x2="0.180877" y2="-0.013401" />
      <line x1="0.180877" y1="-0.013401" x2="0.179577" y2="-0.013401" />
      <line x1="0.179577" y1="-0.013401" x2="0.179577" y2="-0.010103" />
      <line x1="0.184193" y1="-0.019426" x2="0.184193" y2="-0.013529" />
      <path d="M 0.184193,-0.013529 A 0.0021,6.177037682514863e-05 6.788346705214816e-19 0,1 0.180197,-0.013555" />
      <path d="M 0.180197,-0.013555 A 0.0021,6.177037682514863e-05 6.788346705214816e-19 0,1 0.1842,-0.013581" />
      <line x1="0.1842" y1="-0.019479" x2="0.1842" y2="-0.013581" />
      <path d="M 0.1842,-0.013581 A 0.0021,6.177037682514861e-05 -3.3825560674581144e-17 0,1 0.188197,-0.013555" />
      <path d="M 0.188197,-0.013555 A 0.0021,6.177037682514861e-05 -3.3825560674581144e-17 0,1 0.184193,-0.013529" />
      <path d="M 0.208897,-0.013552 A 0.0021000687957631547,6.177240041572674e-05 6.788346705214816e-19 0,1 0.204697,-0.013553" />
      <path d="M 0.204697,-0.013553 A 0.0021000000000000046,6.177037682514876e-05 6.788346705214816e-19 0,1 0.208897,-0.013553" />
      <line x1="0.184115" y1="-0.018823" x2="0.184115" y2="-0.012926" />
      <path d="M 0.184115,-0.012926 A 0.0021,6.177037682514863e-05 6.788346705214816e-19 0,1 0.180119,-0.012952" />
      <path d="M 0.180119,-0.012952 A 0.0021,6.177037682514863e-05 6.788346705214816e-19 0,1 0.184122,-0.012978" />
      <line x1="0.184122" y1="-0.018876" x2="0.184122" y2="-0.012978" />
      <path d="M 0.184122,-0.012978 A 0.0021,6.177037682514861e-05 -3.3825560674581144e-17 0,1 0.188119,-0.012952" />
      <path d="M 0.188119,-0.012952 A 0.0021,6.177037682514861e-05 -3.3825560674581144e-17 0,1 0.184115,-0.012926" />
      <path d="M 0.208819,-0.012949 A 0.0021000687957631542,6.177240041572673e-05 6.788346705214816e-19 0,1 0.204619,-0.01295" />
      <path d="M 0.204619,-0.01295 A 0.0021000000000000046,6.177037682514876e-05 6.788346705214816e-19 0,1 0.208819,-0.01295" />
      <line x1="0.180877" y1="-0.013401" x2="0.180839" y2="-0.013107" />
      <line x1="0.179606" y1="-0.013628" x2="0.179577" y2="-0.013401" />
      <line x1="0.179539" y1="-0.013107" x2="0.17951" y2="-0.012881" />
      <line x1="0.17951" y1="-0.012881" x2="0.225509" y2="-0.012875" />
      <line x1="0.225606" y1="-0.013623" x2="0.225509" y2="-0.012875" />
      <line x1="0.179606" y1="-0.013628" x2="0.225606" y2="-0.013623" />
      <line x1="0.179606" y1="0.021957" x2="0.17951" y2="0.022704" />
      <line x1="0.17951" y1="-0.012881" x2="0.17951" y2="0.022704" />
      <line x1="0.179606" y1="-0.013628" x2="0.179606" y2="0.021957" />
      <line x1="0.225509" y1="-0.012875" x2="0.225509" y2="0.022709" />
      <line x1="0.17951" y1="0.022704" x2="0.225509" y2="0.022709" />
      <line x1="0.225606" y1="-0.013623" x2="0.225606" y2="0.021962" />
      <line x1="0.225606" y1="0.021962" x2="0.225509" y2="0.022709" />
      <line x1="0.179606" y1="0.021957" x2="0.225606" y2="0.021962" />
      <line x1="0.180197" y1="-0.019453" x2="0.180197" y2="-0.013555" />
      <line x1="0.188197" y1="-0.019452" x2="0.188197" y2="-0.013555" />
      <line x1="0.208897" y1="-0.01945" x2="0.208897" y2="-0.013553" />
      <line x1="0.204697" y1="-0.01945" x2="0.204697" y2="-0.013553" />
      <line x1="0.180119" y1="-0.01885" x2="0.180119" y2="-0.012952" />
      <line x1="0.188119" y1="-0.018849" x2="0.188119" y2="-0.012952" />
      <line x1="0.208819" y1="-0.018847" x2="0.208819" y2="-0.01295" />
      <line x1="0.204619" y1="-0.018847" x2="0.204619" y2="-0.01295" />
      <line x1="0.236115" y1="-0.018385" x2="0.236115" y2="0.025196" />
      <line x1="0.236115" y1="-0.018385" x2="0.266515" y2="-0.018385" />
      <line x1="0.266515" y1="-0.018385" x2="0.266515" y2="0.025196" />
      <line x1="0.256315" y1="-0.015186" x2="0.246315" y2="-0.015186" />
      <line x1="0.256315" y1="-0.015186" x2="0.256315" y2="-0.009189" />
      <line x1="0.256315" y1="-0.009189" x2="0.246315" y2="-0.009189" />
      <line x1="0.246315" y1="-0.015186" x2="0.246315" y2="-0.009189" />
      <line x1="0.236115" y1="-0.018385" x2="0.236115" y2="-0.019891" />
      <line x1="0.266515" y1="-0.018385" x2="0.266515" y2="-0.019891" />
      <path d="M 0.24196,-0.018594 A 0.0021,6.20067480175144e-05 -2.433335817508151e-33 0,1 0.243165,-0.018538" />
      <path d="M 0.243165,-0.018538 A 0.0021,6.20067480175144e-05 -2.433335817508151e-33 0,1 0.238965,-0.018538" />
      <path d="M 0.238965,-0.018538 A 0.0021,6.20067480175144e-05 -2.433335817508151e-33 0,1 0.240171,-0.018594" />
      <path d="M 0.240171,-0.018594 A 0.0021,6.200674801751441e-05 -3.7136685677462415e-17 0,1 0.238965,-0.01865" />
      <path d="M 0.238965,-0.01865 A 0.0021,6.200674801751441e-05 -3.7136685677462415e-17 0,1 0.243165,-0.01865" />
      <path d="M 0.243165,-0.01865 A 0.0021,6.200674801751441e-05 -3.7136685677462415e-17 0,1 0.24196,-0.018594" />
      <path d="M 0.241065,-0.019324 A 0.0021,6.20067480175144e-05 -2.433335817508151e-33 0,1 0.243165,-0.019262" />
      <path d="M 0.243165,-0.019262 A 0.0021,6.20067480175144e-05 -2.433335817508151e-33 0,1 0.238965,-0.019262" />
      <path d="M 0.238965,-0.019262 A 0.0021,6.20067480175144e-05 -2.433335817508151e-33 0,1 0.241065,-0.019324" />
      <path d="M 0.26246,-0.018594 A 0.0021,6.20067480175144e-05 -2.433335817508151e-33 0,1 0.263665,-0.018538" />
      <path d="M 0.263665,-0.018538 A 0.0021,6.20067480175144e-05 -2.433335817508151e-33 0,1 0.259465,-0.018538" />
      <path d="M 0.259465,-0.018538 A 0.0021,6.20067480175144e-05 -2.433335817508151e-33 0,1 0.260671,-0.018594" />
      <path d="M 0.260671,-0.018594 A 0.0021,6.200674801751441e-05 -3.7136685677462415e-17 0,1 0.259465,-0.01865" />
      <path d="M 0.259465,-0.01865 A 0.0021,6.200674801751441e-05 -3.7136685677462415e-17 0,1 0.263665,-0.01865" />
      <path d="M 0.263665,-0.01865 A 0.0021,6.200674801751441e-05 -3.7136685677462415e-17 0,1 0.26246,-0.018594" />
      <path d="M 0.261565,-0.019324 A 0.0021,6.20067480175144e-05 -2.433335817508151e-33 0,1 0.263665,-0.019262" />
      <path d="M 0.263665,-0.019262 A 0.0021,6.20067480175144e-05 -2.433335817508151e-33 0,1 0.259465,-0.019262" />
      <path d="M 0.259465,-0.019262 A 0.0021,6.20067480175144e-05 -2.433335817508151e-33 0,1 0.261565,-0.019324" />
      <line x1="0.256315" y1="-0.015186" x2="0.256315" y2="-0.015298" />
      <line x1="0.246315" y1="-0.015298" x2="0.256315" y2="-0.015298" />
      <line x1="0.246315" y1="-0.015186" x2="0.246315" y2="-0.015298" />
      <line x1="0.256315" y1="-0.015298" x2="0.256315" y2="-0.012599" />
      <line x1="0.256315" y1="-0.012599" x2="0.256315" y2="-0.012561" />
      <line x1="0.256315" y1="-0.012561" x2="0.256315" y2="-0.009263" />
      <line x1="0.256315" y1="-0.009189" x2="0.256315" y2="-0.009263" />
      <line x1="0.256315" y1="-0.009263" x2="0.246315" y2="-0.009263" />
      <line x1="0.246315" y1="-0.009189" x2="0.246315" y2="-0.009263" />
      <line x1="0.246315" y1="-0.015298" x2="0.246315" y2="-0.012599" />
      <line x1="0.246315" y1="-0.012599" x2="0.246315" y2="-0.012561" />
      <line x1="0.246315" y1="-0.012561" x2="0.246315" y2="-0.009263" />
      <line x1="0.24196" y1="-0.018594" x2="0.24196" y2="-0.012697" />
      <path d="M 0.24196,-0.012697 A 0.0021,6.20067480175144e-05 -2.433335817508151e-33 0,1 0.243165,-0.012641" />
      <path d="M 0.243165,-0.012641 A 0.0021,6.20067480175144e-05 -2.433335817508151e-33 0,1 0.238965,-0.012641" />
      <path d="M 0.238965,-0.012641 A 0.0021,6.20067480175144e-05 -2.433335817508151e-33 0,1 0.240171,-0.012697" />
      <line x1="0.240171" y1="-0.018594" x2="0.240171" y2="-0.012697" />
      <path d="M 0.240171,-0.012697 A 0.0021,6.200674801751441e-05 -3.7136685677462415e-17 0,1 0.238965,-0.012753" />
      <path d="M 0.238965,-0.012753 A 0.0021,6.200674801751441e-05 -3.7136685677462415e-17 0,1 0.243165,-0.012753" />
      <path d="M 0.243165,-0.012753 A 0.0021,6.200674801751441e-05 -3.7136685677462415e-17 0,1 0.24196,-0.012697" />
      <path d="M 0.241065,-0.013426 A 0.0021,6.20067480175144e-05 -2.433335817508151e-33 0,1 0.243165,-0.013364" />
      <path d="M 0.243165,-0.013364 A 0.0021,6.20067480175144e-05 -2.433335817508151e-33 0,1 0.238965,-0.013364" />
      <path d="M 0.238965,-0.013364 A 0.0021,6.20067480175144e-05 -2.433335817508151e-33 0,1 0.241065,-0.013426" />
      <line x1="0.26246" y1="-0.018594" x2="0.26246" y2="-0.012697" />
      <path d="M 0.26246,-0.012697 A 0.0021,6.20067480175144e-05 -2.433335817508151e-33 0,1 0.263665,-0.012641" />
      <path d="M 0.263665,-0.012641 A 0.0021,6.20067480175144e-05 -2.433335817508151e-33 0,1 0.259465,-0.012641" />
      <path d="M 0.259465,-0.012641 A 0.0021,6.20067480175144e-05 -2.433335817508151e-33 0,1 0.260671,-0.012697" />
      <line x1="0.260671" y1="-0.018594" x2="0.260671" y2="-0.012697" />
      <path d="M 0.260671,-0.012697 A 0.0021,6.200674801751441e-05 -3.7136685677462415e-17 0,1 0.259465,-0.012753" />
      <path d="M 0.259465,-0.012753 A 0.0021,6.200674801751441e-05 -3.7136685677462415e-17 0,1 0.263665,-0.012753" />
      <path d="M 0.263665,-0.012753 A 0.0021,6.200674801751441e-05 -3.7136685677462415e-17 0,1 0.26246,-0.012697" />
      <path d="M 0.261565,-0.013426 A 0.0021,6.20067480175144e-05 -2.433335817508151e-33 0,1 0.263665,-0.013364" />
      <path d="M 0.263665,-0.013364 A 0.0021,6.20067480175144e-05 -2.433335817508151e-33 0,1 0.259465,-0.013364" />
      <path d="M 0.259465,-0.013364 A 0.0021,6.20067480175144e-05 -2.433335817508151e-33 0,1 0.261565,-0.013426" />
      <line x1="0.246315" y1="-0.012599" x2="0.256315" y2="-0.012599" />
      <line x1="0.238615" y1="-0.012561" x2="0.246315" y2="-0.012561" />
      <line x1="0.256315" y1="-0.012561" x2="0.264015" y2="-0.012561" />
      <line x1="0.264015" y1="-0.012561" x2="0.264015" y2="-0.013919" />
      <line x1="0.238615" y1="-0.013919" x2="0.264015" y2="-0.013919" />
      <line x1="0.238615" y1="-0.012561" x2="0.238615" y2="-0.013919" />
      <line x1="0.238615" y1="0.023023" x2="0.264015" y2="0.023023" />
      <line x1="0.264015" y1="-0.012561" x2="0.264015" y2="0.023023" />
      <line x1="0.238615" y1="-0.012561" x2="0.238615" y2="0.023023" />
      <line x1="0.264015" y1="-0.013919" x2="0.264015" y2="0.021665" />
      <line x1="0.264015" y1="0.023023" x2="0.264015" y2="0.021665" />
      <line x1="0.238615" y1="-0.013919" x2="0.238615" y2="0.021665" />
      <line x1="0.238615" y1="0.021665" x2="0.264015" y2="0.021665" />
      <line x1="0.238615" y1="0.023023" x2="0.238615" y2="0.021665" />
      <line x1="0.243165" y1="-0.018538" x2="0.243165" y2="-0.012641" />
      <line x1="0.238965" y1="-0.018538" x2="0.238965" y2="-0.012641" />
      <line x1="0.243165" y1="-0.01865" x2="0.243165" y2="-0.012753" />
      <line x1="0.238965" y1="-0.01865" x2="0.238965" y2="-0.012753" />
      <line x1="0.243165" y1="-0.019262" x2="0.243165" y2="-0.013364" />
      <line x1="0.238965" y1="-0.019262" x2="0.238965" y2="-0.013364" />
      <line x1="0.263665" y1="-0.018538" x2="0.263665" y2="-0.012641" />
      <line x1="0.259465" y1="-0.018538" x2="0.259465" y2="-0.012641" />
      <line x1="0.263665" y1="-0.01865" x2="0.263665" y2="-0.012753" />
      <line x1="0.259465" y1="-0.01865" x2="0.259465" y2="-0.012753" />
      <line x1="0.263665" y1="-0.019262" x2="0.263665" y2="-0.013364" />
      <line x1="0.259465" y1="-0.019262" x2="0.259465" y2="-0.013364" />
    </g>
  </g>
  <text x="0.025500" y="-0.030871" text-anchor="middle" font-family="'Input Sans Narrow', 'DejaVu Sans', Arial, sans-serif" font-size="0.002500" font-weight="bold" fill="#333">A-A</text>
  <text x="0.025500" y="-0.027371" text-anchor="middle" font-family="'Input Sans Narrow', 'DejaVu Sans', Arial, sans-serif" font-size="0.001800" fill="#888">top_shaft</text>
  <line x1="0.000000" y1="0.016000" x2="0.000000" y2="0.019000" stroke="#555" stroke-width="0.000140" stroke-opacity="0.5"/>
  <line x1="0.051000" y1="0.016000" x2="0.051000" y2="0.019000" stroke="#555" stroke-width="0.000140" stroke-opacity="0.5"/>
  <line x1="0.000000" y1="0.017400" x2="0.000000" y2="0.019000" stroke="#555" stroke-width="0.000200"/>
  <line x1="0.051000" y1="0.017400" x2="0.051000" y2="0.019000" stroke="#555" stroke-width="0.000200"/>
  <line x1="0.000000" y1="0.018200" x2="0.051000" y2="0.018200" stroke="#555" stroke-width="0.000200"/>
  <polygon points="0.000000,0.018200 0.001500,0.017600 0.001500,0.018800" fill="#555"/>
  <polygon points="0.051000,0.018200 0.049500,0.017600 0.049500,0.018800" fill="#555"/>
  <text x="0.025500" y="0.017000" text-anchor="middle" font-family="'Input Sans Narrow', 'DejaVu Sans', Arial, sans-serif" font-size="0.001600" fill="#555">51.0</text>
  <line x1="0.051800" y1="-0.015200" x2="0.054800" y2="-0.015200" stroke="#555" stroke-width="0.000140" stroke-opacity="0.5"/>
  <line x1="0.051800" y1="0.015200" x2="0.054800" y2="0.015200" stroke="#555" stroke-width="0.000140" stroke-opacity="0.5"/>
  <line x1="0.053200" y1="-0.015200" x2="0.054800" y2="-0.015200" stroke="#555" stroke-width="0.000200"/>
  <line x1="0.053200" y1="0.015200" x2="0.054800" y2="0.015200" stroke="#555" stroke-width="0.000200"/>
  <line x1="0.054000" y1="-0.015200" x2="0.054000" y2="0.015200" stroke="#555" stroke-width="0.000200"/>
  <polygon points="0.054000,-0.015200 0.053400,-0.013700 0.054600,-0.013700" fill="#555"/>
  <polygon points="0.054000,0.015200 0.053400,0.013700 0.054600,0.013700" fill="#555"/>
  <text x="0.055500" y="-0.000000" text-anchor="middle" dominant-baseline="central" font-family="'Input Sans Narrow', 'DejaVu Sans', Arial, sans-serif" font-size="0.001600" fill="#555" transform="rotate(-90 0.055500 -0.000000)">30.4</text>
  <text x="0.084500" y="-0.030871" text-anchor="middle" font-family="'Input Sans Narrow', 'DejaVu Sans', Arial, sans-serif" font-size="0.002500" font-weight="bold" fill="#333">B-B</text>
  <text x="0.084500" y="-0.027371" text-anchor="middle" font-family="'Input Sans Narrow', 'DejaVu Sans', Arial, sans-serif" font-size="0.001800" fill="#888">mid_body</text>
  <text x="0.143500" y="-0.030871" text-anchor="middle" font-family="'Input Sans Narrow', 'DejaVu Sans', Arial, sans-serif" font-size="0.002500" font-weight="bold" fill="#333">C-C</text>
  <text x="0.143500" y="-0.027371" text-anchor="middle" font-family="'Input Sans Narrow', 'DejaVu Sans', Arial, sans-serif" font-size="0.001800" fill="#888">ears</text>
  <text x="0.202558" y="-0.030871" text-anchor="middle" font-family="'Input Sans Narrow', 'DejaVu Sans', Arial, sans-serif" font-size="0.002500" font-weight="bold" fill="#333">side_XZ</text>
  <line x1="0.177000" y1="0.020853" x2="0.177000" y2="0.023853" stroke="#555" stroke-width="0.000140" stroke-opacity="0.5"/>
  <line x1="0.228115" y1="0.020853" x2="0.228115" y2="0.023853" stroke="#555" stroke-width="0.000140" stroke-opacity="0.5"/>
  <line x1="0.177000" y1="0.022253" x2="0.177000" y2="0.023853" stroke="#555" stroke-width="0.000200"/>
  <line x1="0.228115" y1="0.022253" x2="0.228115" y2="0.023853" stroke="#555" stroke-width="0.000200"/>
  <line x1="0.177000" y1="0.023053" x2="0.228115" y2="0.023053" stroke="#555" stroke-width="0.000200"/>
  <polygon points="0.177000,0.023053 0.178500,0.022453 0.178500,0.023653" fill="#555"/>
  <polygon points="0.228115,0.023053 0.226615,0.022453 0.226615,0.023653" fill="#555"/>
  <text x="0.202558" y="0.021853" text-anchor="middle" font-family="'Input Sans Narrow', 'DejaVu Sans', Arial, sans-serif" font-size="0.001600" fill="#555">51.1</text>
  <line x1="0.228915" y1="-0.024882" x2="0.231915" y2="-0.024882" stroke="#555" stroke-width="0.000140" stroke-opacity="0.5"/>
  <line x1="0.228915" y1="0.020053" x2="0.231915" y2="0.020053" stroke="#555" stroke-width="0.000140" stroke-opacity="0.5"/>
  <line x1="0.230315" y1="-0.024882" x2="0.231915" y2="-0.024882" stroke="#555" stroke-width="0.000200"/>
  <line x1="0.230315" y1="0.020053" x2="0.231915" y2="0.020053" stroke="#555" stroke-width="0.000200"/>
  <line x1="0.231115" y1="-0.024882" x2="0.231115" y2="0.020053" stroke="#555" stroke-width="0.000200"/>
  <polygon points="0.231115,-0.024882 0.230515,-0.023382 0.231715,-0.023382" fill="#555"/>
  <polygon points="0.231115,0.020053 0.230515,0.018553 0.231715,0.018553" fill="#555"/>
  <text x="0.232615" y="-0.002415" text-anchor="middle" dominant-baseline="central" font-family="'Input Sans Narrow', 'DejaVu Sans', Arial, sans-serif" font-size="0.001600" fill="#555" transform="rotate(-90 0.232615 -0.002415)">44.9</text>
  <text x="0.251315" y="-0.030871" text-anchor="middle" font-family="'Input Sans Narrow', 'DejaVu Sans', Arial, sans-serif" font-size="0.002500" font-weight="bold" fill="#333">side_YZ</text>
  <line x1="0.236115" y1="0.020849" x2="0.236115" y2="0.023849" stroke="#555" stroke-width="0.000140" stroke-opacity="0.5"/>
  <line x1="0.266515" y1="0.020849" x2="0.266515" y2="0.023849" stroke="#555" stroke-width="0.000140" stroke-opacity="0.5"/>
  <line x1="0.236115" y1="0.022249" x2="0.236115" y2="0.023849" stroke="#555" stroke-width="0.000200"/>
  <line x1="0.266515" y1="0.022249" x2="0.266515" y2="0.023849" stroke="#555" stroke-width="0.000200"/>
  <line x1="0.236115" y1="0.023049" x2="0.266515" y2="0.023049" stroke="#555" stroke-width="0.000200"/>
  <polygon points="0.236115,0.023049 0.237615,0.022449 0.237615,0.023649" fill="#555"/>
  <polygon points="0.266515,0.023049 0.265015,0.022449 0.265015,0.023649" fill="#555"/>
  <text x="0.251315" y="0.021849" text-anchor="middle" font-family="'Input Sans Narrow', 'DejaVu Sans', Arial, sans-serif" font-size="0.001600" fill="#555">30.4</text>
  <line x1="0.267315" y1="-0.025196" x2="0.270315" y2="-0.025196" stroke="#555" stroke-width="0.000140" stroke-opacity="0.5"/>
  <line x1="0.267315" y1="0.020049" x2="0.270315" y2="0.020049" stroke="#555" stroke-width="0.000140" stroke-opacity="0.5"/>
  <line x1="0.268715" y1="-0.025196" x2="0.270315" y2="-0.025196" stroke="#555" stroke-width="0.000200"/>
  <line x1="0.268715" y1="0.020049" x2="0.270315" y2="0.020049" stroke="#555" stroke-width="0.000200"/>
  <line x1="0.269515" y1="-0.025196" x2="0.269515" y2="0.020049" stroke="#555" stroke-width="0.000200"/>
  <polygon points="0.269515,-0.025196 0.268915,-0.023696 0.270115,-0.023696" fill="#555"/>
  <polygon points="0.269515,0.020049 0.268915,0.018549 0.270115,0.018549" fill="#555"/>
  <text x="0.271015" y="-0.002573" text-anchor="middle" dominant-baseline="central" font-family="'Input Sans Narrow', 'DejaVu Sans', Arial, sans-serif" font-size="0.001600" fill="#555" transform="rotate(-90 0.271015 -0.002573)">45.2</text>
  <text x="-0.001175" y="0.028228" font-family="'Input Sans Narrow', 'DejaVu Sans', Arial, sans-serif" font-size="0.003500" font-weight="bold" fill="#222">pocket_bracket</text>
  <line x1="-0.001175" y1="0.032228" x2="0.008825" y2="0.032228" stroke="#333" stroke-width="0.000350"/>
  <line x1="-0.001175" y1="0.031228" x2="-0.001175" y2="0.033228" stroke="#333" stroke-width="0.000250"/>
  <line x1="0.008825" y1="0.031228" x2="0.008825" y2="0.033228" stroke="#333" stroke-width="0.000250"/>
  <text x="0.010325" y="0.032928" font-family="'Input Sans Narrow', 'DejaVu Sans', Arial, sans-serif" font-size="0.001800" fill="#888">10 mm</text>
  <rect x="0.028825" y="0.025728" width="0.004000" height="0.002500" fill="url(#hatch_servo)" stroke="rgb(60,60,60)" stroke-width="0.000300"/>
  <text x="0.034325" y="0.027728" font-family="'Input Sans Narrow', 'DejaVu Sans', Arial, sans-serif" font-size="0.001800" fill="rgb(60,60,60)">servo</text>
  <rect x="0.028825" y="0.029228" width="0.004000" height="0.002500" fill="url(#hatch_bracket)" stroke="rgb(50,120,190)" stroke-width="0.000300"/>
  <text x="0.034325" y="0.031228" font-family="'Input Sans Narrow', 'DejaVu Sans', Arial, sans-serif" font-size="0.001800" fill="rgb(50,120,190)">bracket</text>
</svg>