<?xml version='1.0' encoding='utf-8'?>
<svg width="260.58mm" height="93.08mm" viewBox="-0.003175 -0.042339 0.260581 0.093076" version="1.1" xmlns="http://www.w3.org/2000/svg">
  <defs>
    <pattern id="hatch_servo" width="0.0012" height="0.0012" patternUnits="userSpaceOnUse" patternTransform="rotate(45)">
      <line x1="0" y1="0" x2="0" y2="0.0012" stroke="rgb(60,60,60)" stroke-width="0.0001" stroke-opacity="0.6"/>
    </pattern>
    <pattern id="hatch_coupler" width="0.0012" height="0.0012" patternUnits="userSpaceOnUse" patternTransform="rotate(75)">
      <line x1="0" y1="0" x2="0" y2="0.0012" stroke="rgb(220,60,40)" stroke-width="0.0001" stroke-opacity="0.6"/>
    </pattern>
  </defs>
  <g transform="scale(1,-1)" stroke-linecap="round">
    <g fill="none" stroke="rgb(60,60,60)" stroke-width="0.00035" id="servo">
      <line x1="0.0" y1="0.0124" x2="0.0454" y2="0.0124" />
      <line x1="0.0454" y1="0.0124" x2="0.0454" y2="-0.0124" />
      <line x1="0.0" y1="-0.0124" x2="0.0454" y2="-0.0124" />
      <line x1="0.0" y1="0.0124" x2="0.0" y2="-0.0124" />
      <line x1="0.10409" y1="0.01335" x2="0.10409" y2="0.0124" />
      <line x1="0.10409" y1="0.01335" x2="0.13479" y2="0.01335" />
      <line x1="0.13479" y1="0.01335" x2="0.13479" y2="0.0124" />
      <line x1="0.10409" y1="0.0124" x2="0.13479" y2="0.0124" />
      <line x1="0.10409" y1="-0.0124" x2="0.13479" y2="-0.0124" />
      <line x1="0.13479" y1="-0.0124" x2="0.13479" y2="-0.01335" />
      <line x1="0.10409" y1="-0.01335" x2="0.13479" y2="-0.01335" />
      <line x1="0.10409" y1="-0.0124" x2="0.10409" y2="-0.01335" />
      <line x1="0.16613" y1="-0.015852" x2="0.16613" y2="0.015948" />
      <line x1="0.16613" y1="0.015948" x2="0.166131" y2="0.015961" />
      <line x1="0.16613" y1="-0.015852" x2="0.19613" y2="-0.015852" />
      <line x1="0.19613" y1="-0.015852" x2="0.21153" y2="-0.015852" />
      <line x1="0.21153" y1="-0.015852" x2="0.21153" y2="0.015948" />
      <line x1="0.16613" y1="0.015948" x2="0.21153" y2="0.015948" />
      <line x1="0.166131" y1="0.015961" x2="0.19733" y2="0.015961" />
      <line x1="0.20533" y1="0.015961" x2="0.211531" y2="0.015961" />
      <line x1="0.21153" y1="0.015948" x2="0.211531" y2="0.015961" />
      <path d="M 0.19733,0.015955 A 0.0040000000000000036,2.182800256091935e-06 -6.830285894301604e-23 0,1 0.20533,0.015955" />
      <path d="M 0.20533,0.018755 A 0.0040000000000000036,2.182800256091935e-06 -6.830285894301604e-23 0,1 0.19733,0.018755" />
      <path d="M 0.19733,0.018755 A 0.0040000000000000036,2.182800256091935e-06 -6.830285894301604e-23 0,1 0.20533,0.018755" />
      <line x1="0.19613" y1="-0.020039" x2="0.196131" y2="-0.020039" />
      <line x1="0.196131" y1="-0.020039" x2="0.196131" y2="-0.015852" />
      <line x1="0.165431" y1="-0.015839" x2="0.16613" y2="-0.015839" />
      <line x1="0.165431" y1="-0.015852" x2="0.165431" y2="-0.015839" />
      <line x1="0.165431" y1="-0.015838" x2="0.16613" y2="-0.015838" />
      <line x1="0.16543" y1="-0.015852" x2="0.16613" y2="-0.015852" />
      <line x1="0.16543" y1="-0.020053" x2="0.19613" y2="-0.020053" />
      <line x1="0.19613" y1="-0.020053" x2="0.19613" y2="-0.015853" />
      <line x1="0.16543" y1="-0.015853" x2="0.19613" y2="-0.015853" />
      <line x1="0.16543" y1="-0.020053" x2="0.16543" y2="-0.015853" />
      <line x1="0.20533" y1="0.015955" x2="0.20533" y2="0.018755" />
      <line x1="0.19733" y1="0.015955" x2="0.19733" y2="0.018755" />
      <line x1="0.220481" y1="0.015967" x2="0.228881" y2="0.015967" />
      <line x1="0.236881" y1="0.015967" x2="0.245281" y2="0.015967" />
      <line x1="0.220481" y1="-0.015858" x2="0.220481" y2="0.015942" />
      <line x1="0.220481" y1="0.015967" x2="0.220481" y2="0.015942" />
      <line x1="0.245281" y1="0.015967" x2="0.245281" y2="0.015942" />
      <line x1="0.220481" y1="0.015942" x2="0.245281" y2="0.015942" />
      <path d="M 0.232881,0.015946 A 0.004,2.1826718896676833e-06 -3.9032160245301656e-36 0,1 0.236881,0.015948" />
      <path d="M 0.228881,0.015948 A 0.004,2.1826718896676833e-06 -3.9032160245301656e-36 0,1 0.232881,0.015946" />
      <line x1="0.245281" y1="-0.015858" x2="0.245281" y2="0.015942" />
      <line x1="0.220481" y1="-0.015858" x2="0.245281" y2="-0.015858" />
      <path d="M 0.232881,0.018746 A 0.004,2.1826718896676833e-06 -3.9032160245301656e-36 0,1 0.236881,0.018748" />
      <path d="M 0.236881,0.018748 A 0.0040000000000000036,2.1826718896676854e-06 -3.9032160245301656e-36 0,1 0.228881,0.018748" />
      <path d="M 0.228881,0.018748 A 0.004,2.1826718896676833e-06 -3.9032160245301656e-36 0,1 0.232881,0.018746" />
      <line x1="0.245281" y1="-0.020049" x2="0.245281" y2="-0.015858" />
      <line x1="0.245281" y1="-0.020049" x2="0.246231" y2="-0.020049" />
      <line x1="0.245281" y1="-0.015849" x2="0.246231" y2="-0.015849" />
      <line x1="0.246231" y1="-0.020049" x2="0.246231" y2="-0.015849" />
      <line x1="0.245281" y1="-0.015833" x2="0.246231" y2="-0.015833" />
      <line x1="0.246231" y1="-0.015833" x2="0.246231" y2="-0.015849" />
      <line x1="0.220481" y1="-0.020049" x2="0.220481" y2="-0.015858" />
      <line x1="0.219531" y1="-0.020049" x2="0.220481" y2="-0.020049" />
      <line x1="0.219531" y1="-0.020049" x2="0.219531" y2="-0.015849" />
      <line x1="0.219531" y1="-0.015849" x2="0.220481" y2="-0.015849" />
      <line x1="0.219531" y1="-0.015833" x2="0.220481" y2="-0.015833" />
      <line x1="0.219531" y1="-0.015833" x2="0.219531" y2="-0.015849" />
      <line x1="0.236881" y1="0.015948" x2="0.236881" y2="0.018748" />
      <line x1="0.228881" y1="0.015948" x2="0.228881" y2="0.018748" />
    </g>
    <g fill="url(#hatch_servo)" stroke="none" stroke-width="0" id="servo_fill">
      <path d="M 0.0454,0.0124 L 0.0,0.0124 L 0.0,-0.0124 L 0.0454,-0.0124 L 0.0454,0.0124" />
      <path d="M 0.10409,0.01335 L 0.10409,0.0124 L 0.13479,0.0124 L 0.13479,0.01335 L 0.10409,0.01335" />
      <path d="M 0.13479,-0.0124 L 0.10409,-0.0124 L 0.10409,-0.01335 L 0.13479,-0.01335 L 0.13479,-0.0124" />
    </g>
    <g fill="none" stroke="rgb(60,60,60)" stroke-opacity="0.4" stroke-width="0.00015" id="servo_hidden" stroke-dasharray="0.0018 0.00045">
      <line x1="0.166131" y1="-0.015839" x2="0.166131" y2="0.015961" />
      <line x1="0.16613" y1="-0.015852" x2="0.166131" y2="-0.015839" />
      <line x1="0.19733" y1="0.015961" x2="0.20533" y2="0.015961" />
      <path d="M 0.20533,0.015955 A 0.0040000000000000036,2.182800256091935e-06 -6.830285894301604e-23 0,1 0.19733,0.015955" />
      <line x1="0.166131" y1="-0.015839" x2="0.196131" y2="-0.015839" />
      <line x1="0.196131" y1="-0.015839" x2="0.211531" y2="-0.015839" />
      <line x1="0.211531" y1="-0.015839" x2="0.211531" y2="0.015961" />
      <line x1="0.21153" y1="-0.015852" x2="0.211531" y2="-0.015839" />
      <line x1="0.165431" y1="-0.020039" x2="0.19613" y2="-0.020039" />
      <line x1="0.196131" y1="-0.015852" x2="0.196131" y2="-0.015839" />
      <line x1="0.16613" y1="-0.015839" x2="0.166131" y2="-0.015839" />
      <line x1="0.165431" y1="-0.020039" x2="0.165431" y2="-0.015852" />
      <line x1="0.165431" y1="-0.020038" x2="0.196131" y2="-0.020038" />
      <line x1="0.196131" y1="-0.020038" x2="0.196131" y2="-0.015838" />
      <line x1="0.16613" y1="-0.015838" x2="0.196131" y2="-0.015838" />
      <line x1="0.165431" y1="-0.020038" x2="0.165431" y2="-0.015838" />
      <line x1="0.16543" y1="-0.020052" x2="0.19613" y2="-0.020052" />
      <line x1="0.19613" y1="-0.020052" x2="0.19613" y2="-0.015852" />
      <line x1="0.16543" y1="-0.020052" x2="0.16543" y2="-0.015852" />
      <line x1="0.220481" y1="-0.015833" x2="0.220481" y2="0.015967" />
      <line x1="0.228881" y1="0.015967" x2="0.236881" y2="0.015967" />
      <line x1="0.245281" y1="-0.015833" x2="0.245281" y2="0.015967" />
      <line x1="0.220481" y1="-0.015833" x2="0.245281" y2="-0.015833" />
      <line x1="0.220481" y1="-0.015833" x2="0.220481" y2="-0.015849" />
      <line x1="0.220481" y1="-0.015849" x2="0.220481" y2="-0.015858" />
      <path d="M 0.236881,0.015948 A 0.0040000000000000036,2.1826718896676854e-06 -3.9032160245301656e-36 0,1 0.228881,0.015948" />
      <line x1="0.245281" y1="-0.015833" x2="0.245281" y2="-0.015849" />
      <line x1="0.245281" y1="-0.015849" x2="0.245281" y2="-0.015858" />
      <line x1="0.245281" y1="-0.020033" x2="0.245281" y2="-0.020049" />
      <line x1="0.245281" y1="-0.015858" x2="0.245281" y2="-0.015849" />
      <line x1="0.245281" y1="-0.020033" x2="0.245281" y2="-0.015833" />
      <line x1="0.245281" y1="-0.020033" x2="0.246231" y2="-0.020033" />
      <line x1="0.246231" y1="-0.020033" x2="0.246231" y2="-0.020049" />
      <line x1="0.246231" y1="-0.020033" x2="0.246231" y2="-0.015833" />
      <line x1="0.220481" y1="-0.020033" x2="0.220481" y2="-0.020049" />
      <line x1="0.220481" y1="-0.015858" x2="0.220481" y2="-0.015849" />
      <line x1="0.220481" y1="-0.020033" x2="0.220481" y2="-0.015833" />
      <line x1="0.219531" y1="-0.020033" x2="0.220481" y2="-0.020033" />
      <line x1="0.219531" y1="-0.020033" x2="0.219531" y2="-0.020049" />
      <line x1="0.219531" y1="-0.020033" x2="0.219531" y2="-0.015833" />
    </g>
    <g fill="none" stroke="rgb(220,60,40)" stroke-width="0.00035" id="coupler">
      <line x1="0.050501" y1="-0.010789" x2="0.0227" y2="-0.010789" />
      <line x1="0.050501" y1="-0.010789" x2="0.050501" y2="-0.009789" />
      <line x1="0.0227" y1="-0.010789" x2="0.0227" y2="-0.009789" />
      <line x1="0.050501" y1="-0.009789" x2="0.040501" y2="-0.009789" />
      <path d="M 0.0227,0.009789 A 0.009789105352524866,0.009789105352524866 0.0 1,1 0.0227,-0.009789" />
      <line x1="0.040501" y1="-0.009789" x2="0.040501" y2="0.009789" />
      <line x1="0.0227" y1="0.009789" x2="0.0227" y2="0.010789" />
      <line x1="0.050501" y1="0.009789" x2="0.040501" y2="0.009789" />
      <line x1="0.050501" y1="0.010789" x2="0.0227" y2="0.010789" />
      <line x1="0.050501" y1="0.009789" x2="0.050501" y2="0.010789" />
      <circle cx="0.01775" cy="-0.00495" r="0.00125" />
      <circle cx="0.0227" cy="0.0" r="0.0053" />
      <circle cx="0.02765" cy="-0.00495" r="0.00125" />
      <circle cx="0.01775" cy="0.00495" r="0.00125" />
      <circle cx="0.02765" cy="0.00495" r="0.00125" />
      <line x1="0.050501" y1="-0.009789" x2="0.040501" y2="-0.009789" />
      <line x1="0.040501" y1="-0.009789" x2="0.040501" y2="0.009789" />
      <line x1="0.050501" y1="0.009789" x2="0.040501" y2="0.009789" />
      <line x1="0.050501" y1="0.009789" x2="0.050501" y2="-0.009789" />
      <line x1="0.09609" y1="-0.010789" x2="0.06829" y2="-0.010789" />
      <line x1="0.09609" y1="-0.010789" x2="0.09609" y2="0.010789" />
      <line x1="0.09609" y1="0.010789" x2="0.06829" y2="0.010789" />
      <line x1="0.06829" y1="0.009789" x2="0.06829" y2="0.010789" />
      <path d="M 0.06829,0.009789 A 0.009789105352524866,0.009789105352524866 0.0 1,1 0.06829,-0.009789" />
      <line x1="0.06829" y1="-0.010789" x2="0.06829" y2="-0.009789" />
      <circle cx="0.06334" cy="-0.00495" r="0.00125" />
      <circle cx="0.06829" cy="0.0" r="0.0053" />
      <circle cx="0.07324" cy="-0.00495" r="0.00125" />
      <circle cx="0.06334" cy="0.00495" r="0.00125" />
      <circle cx="0.07324" cy="0.00495" r="0.00125" />
      <line x1="0.155291" y1="0.009789" x2="0.155291" y2="-0.009789" />
      <line x1="0.145291" y1="-0.009789" x2="0.155291" y2="-0.009789" />
      <line x1="0.145291" y1="0.009789" x2="0.145291" y2="-0.009789" />
      <line x1="0.145291" y1="0.009789" x2="0.155291" y2="0.009789" />
      <line x1="0.202233" y1="0.027119" x2="0.174779" y2="0.026433" />
      <line x1="0.202233" y1="0.027119" x2="0.198835" y2="0.030454" />
      <line x1="0.174779" y1="0.026433" x2="0.174621" y2="0.026588" />
      <line x1="0.198835" y1="0.030454" x2="0.171382" y2="0.029769" />
      <path d="M 0.171539,0.029615 A 0.009789105352524866,0.0015324267232534078 -5.243073870449906e-17 0,1 0.163291,0.028101" />
      <path d="M 0.163291,0.028101 A 0.009789105352524866,0.0015324267232534078 -5.243073870449906e-17 0,1 0.174621,0.026588" />
      <line x1="0.171539" y1="0.029615" x2="0.171382" y2="0.029769" />
      <path d="M 0.170206,0.027245 A 0.00125,0.0001956801296016999 -5.243073870449906e-17 0,1 0.167721,0.027214" />
      <path d="M 0.167721,0.027214 A 0.0012500000000000011,0.00019568012960170006 -5.243073870449906e-17 0,1 0.170221,0.027214" />
      <path d="M 0.170221,0.027214 A 0.00125,0.0001956801296016999 -5.243073870449906e-17 0,1 0.170206,0.027245" />
      <path d="M 0.178314,0.028232 A 0.0053,0.0008296837495112074 -5.243073870449906e-17 0,1 0.16778,0.028101" />
      <path d="M 0.16778,0.028101 A 0.0053,0.0008296837495112074 -5.243073870449906e-17 0,1 0.17838,0.028101" />
      <path d="M 0.17838,0.028101 A 0.0053,0.0008296837495112074 -5.243073870449906e-17 0,1 0.178314,0.028232" />
      <path d="M 0.179982,0.027489 A 0.00125,0.0001956801296016999 -5.243073870449906e-17 0,1 0.177498,0.027458" />
      <path d="M 0.177498,0.027458 A 0.0012500000000000011,0.00019568012960170006 -5.243073870449906e-17 0,1 0.179998,0.027458" />
      <path d="M 0.179998,0.027458 A 0.00125,0.0001956801296016999 -5.243073870449906e-17 0,1 0.179982,0.027489" />
      <path d="M 0.168647,0.028775 A 0.00125,0.0001956801296016999 -5.243073870449906e-17 0,1 0.166163,0.028745" />
      <path d="M 0.166163,0.028745 A 0.0012500000000000011,0.00019568012960170006 -5.243073870449906e-17 0,1 0.168663,0.028745" />
      <path d="M 0.168663,0.028745 A 0.00125,0.0001956801296016999 -5.243073870449906e-17 0,1 0.168647,0.028775" />
      <path d="M 0.178424,0.029019 A 0.00125,0.0001956801296016999 -5.243073870449906e-17 0,1 0.175939,0.028989" />
      <path d="M 0.175939,0.028989 A 0.00125,0.0001956801296016999 -5.243073870449906e-17 0,1 0.178439,0.028989" />
      <path d="M 0.178439,0.028989 A 0.00125,0.0001956801296016999 -5.243073870449906e-17 0,1 0.178424,0.029019" />
      <line x1="0.202233" y1="0.017242" x2="0.174779" y2="0.016557" />
      <line x1="0.202233" y1="0.017242" x2="0.202233" y2="0.027119" />
      <line x1="0.174779" y1="0.016557" x2="0.174779" y2="0.026433" />
      <line x1="0.202075" y1="-0.019839" x2="0.202075" y2="0.017238" />
      <line x1="0.202233" y1="-0.019993" x2="0.202075" y2="-0.019839" />
      <line x1="0.202233" y1="-0.02987" x2="0.202233" y2="-0.019993" />
      <line x1="0.174621" y1="0.016711" x2="0.174621" y2="0.026588" />
      <line x1="0.174779" y1="0.016557" x2="0.174621" y2="0.016711" />
      <line x1="0.171382" y1="0.029611" x2="0.171382" y2="0.029769" />
      <path d="M 0.163291,0.018225 A 0.009789105352524866,0.0015324267232534078 -5.243073870449906e-17 0,1 0.174621,0.016711" />
      <line x1="0.1922" y1="-0.020085" x2="0.1922" y2="0.016992" />
      <line x1="0.1922" y1="-0.020085" x2="0.202075" y2="-0.019839" />
      <line x1="0.202233" y1="-0.019993" x2="0.174779" y2="-0.020678" />
      <line x1="0.174779" y1="-0.020678" x2="0.174621" y2="-0.020524" />
      <path d="M 0.171539,-0.017497 A 0.009789105352524866,0.0015324267232534078 -5.243073870449906e-17 0,1 0.163291,-0.019011" />
      <path d="M 0.163291,-0.019011 A 0.009789105352524866,0.0015324267232534078 -5.243073870449906e-17 0,1 0.174621,-0.020524" />
      <line x1="0.189118" y1="-0.017059" x2="0.1922" y2="-0.020085" />
      <line x1="0.171539" y1="-0.017497" x2="0.171382" y2="-0.017343" />
      <line x1="0.189118" y1="-0.0169" x2="0.171382" y2="-0.017343" />
      <path d="M 0.170206,-0.019867 A 0.00125,0.0001956801296016999 -5.243073870449906e-17 0,1 0.167721,-0.019898" />
      <path d="M 0.167721,-0.019898 A 0.0012500000000000011,0.00019568012960170006 -5.243073870449906e-17 0,1 0.170221,-0.019898" />
      <path d="M 0.170221,-0.019898 A 0.00125,0.0001956801296016999 -5.243073870449906e-17 0,1 0.170206,-0.019867" />
      <path d="M 0.178314,-0.01888 A 0.0053,0.0008296837495112074 -5.243073870449906e-17 0,1 0.16778,-0.019011" />
      <path d="M 0.16778,-0.019011 A 0.0053,0.0008296837495112074 -5.243073870449906e-17 0,1 0.17838,-0.019011" />
      <path d="M 0.17838,-0.019011 A 0.0053,0.0008296837495112074 -5.243073870449906e-17 0,1 0.178314,-0.01888" />
      <path d="M 0.179982,-0.019623 A 0.00125,0.0001956801296016999 -5.243073870449906e-17 0,1 0.177498,-0.019654" />
      <path d="M 0.177498,-0.019654 A 0.0012500000000000011,0.00019568012960170006 -5.243073870449906e-17 0,1 0.179998,-0.019654" />
      <path d="M 0.179998,-0.019654 A 0.00125,0.0001956801296016999 -5.243073870449906e-17 0,1 0.179982,-0.019623" />
      <path d="M 0.168647,-0.018337 A 0.00125,0.0001956801296016999 -5.243073870449906e-17 0,1 0.166163,-0.018367" />
      <path d="M 0.166163,-0.018367 A 0.0012500000000000011,0.00019568012960170006 -5.243073870449906e-17 0,1 0.168663,-0.018367" />
      <path d="M 0.168663,-0.018367 A 0.00125,0.0001956801296016999 -5.243073870449906e-17 0,1 0.168647,-0.018337" />
      <path d="M 0.178424,-0.018093 A 0.00125,0.0001956801296016999 -5.243073870449906e-17 0,1 0.175939,-0.018123" />
      <path d="M 0.175939,-0.018123 A 0.00125,0.0001956801296016999 -5.243073870449906e-17 0,1 0.178439,-0.018123" />
      <path d="M 0.178439,-0.018123 A 0.00125,0.0001956801296016999 -5.243073870449906e-17 0,1 0.178424,-0.018093" />
      <line x1="0.202233" y1="-0.02987" x2="0.174779" y2="-0.030555" />
      <line x1="0.174779" y1="-0.030555" x2="0.174779" y2="-0.020678" />
      <path d="M 0.163291,-0.028887 A 0.009789105352524866,0.0015324267232534078 -5.243073870449906e-17 0,1 0.174621,-0.030401" />
      <line x1="0.174779" y1="-0.030555" x2="0.174621" y2="-0.030401" />
      <line x1="0.171382" y1="-0.017501" x2="0.171382" y2="-0.017343" />
      <line x1="0.189118" y1="-0.017059" x2="0.189118" y2="0.016915" />
      <line x1="0.174621" y1="-0.030401" x2="0.174621" y2="-0.020524" />
      <line x1="0.163291" y1="0.018225" x2="0.163291" y2="0.028101" />
      <line x1="0.163291" y1="-0.028887" x2="0.163291" y2="-0.019011" />
      <line x1="0.222092" y1="0.026114" x2="0.222092" y2="0.031328" />
      <line x1="0.222092" y1="0.026114" x2="0.24367" y2="0.026114" />
      <line x1="0.222092" y1="0.031328" x2="0.223092" y2="0.031328" />
      <line x1="0.24367" y1="0.026114" x2="0.24367" y2="0.031328" />
      <path d="M 0.24267,0.031328 A 0.009789105352524866,0.0018359857423291281 -7.142314128693826e-33 1,1 0.223092,0.031328" />
      <line x1="0.24267" y1="0.031328" x2="0.24367" y2="0.031328" />
      <path d="M 0.227931,0.032022 A 0.00125,0.00023444248429908607 -7.142314128693826e-33 0,1 0.229181,0.032257" />
      <path d="M 0.229181,0.032257 A 0.0012500000000000011,0.00023444248429908628 -7.142314128693826e-33 0,1 0.226681,0.032257" />
      <path d="M 0.226681,0.032257 A 0.00125,0.00023444248429908607 -7.142314128693826e-33 0,1 0.227931,0.032022" />
      <path d="M 0.232881,0.030334 A 0.0053,0.000994036133428125 -7.142314128693826e-33 0,1 0.238181,0.031328" />
      <path d="M 0.238181,0.031328 A 0.0053,0.000994036133428125 -7.142314128693826e-33 0,1 0.227581,0.031328" />
      <path d="M 0.227581,0.031328 A 0.0053,0.000994036133428125 -7.142314128693826e-33 0,1 0.232881,0.030334" />
      <path d="M 0.227931,0.030165 A 0.00125,0.00023444248429908607 -7.142314128693826e-33 0,1 0.229181,0.0304" />
      <path d="M 0.229181,0.0304 A 0.0012500000000000011,0.00023444248429908628 -7.142314128693826e-33 0,1 0.226681,0.0304" />
      <path d="M 0.226681,0.0304 A 0.00125,0.00023444248429908607 -7.142314128693826e-33 0,1 0.227931,0.030165" />
      <path d="M 0.237831,0.032022 A 0.00125,0.00023444248429908607 -7.142314128693826e-33 0,1 0.239081,0.032257" />
      <path d="M 0.239081,0.032257 A 0.00125,0.00023444248429908607 -7.142314128693826e-33 0,1 0.236581,0.032257" />
      <path d="M 0.236581,0.032257 A 0.00125,0.00023444248429908607 -7.142314128693826e-33 0,1 0.237831,0.032022" />
      <path d="M 0.237831,0.030165 A 0.00125,0.00023444248429908607 -7.142314128693826e-33 0,1 0.239081,0.0304" />
      <path d="M 0.239081,0.0304 A 0.00125,0.00023444248429908607 -7.142314128693826e-33 0,1 0.236581,0.0304" />
      <path d="M 0.236581,0.0304 A 0.00125,0.00023444248429908607 -7.142314128693826e-33 0,1 0.237831,0.030165" />
      <line x1="0.222092" y1="0.016292" x2="0.222092" y2="0.026114" />
      <line x1="0.222092" y1="0.016292" x2="0.223092" y2="0.016292" />
      <line x1="0.223092" y1="-0.020739" x2="0.223092" y2="0.016292" />
      <line x1="0.222092" y1="-0.020739" x2="0.223092" y2="-0.020739" />
      <line x1="0.222092" y1="-0.030562" x2="0.222092" y2="-0.020739" />
      <line x1="0.222092" y1="-0.030562" x2="0.24367" y2="-0.030562" />
      <line x1="0.24367" y1="-0.030562" x2="0.24367" y2="-0.020739" />
      <line x1="0.24267" y1="-0.020739" x2="0.24367" y2="-0.020739" />
      <line x1="0.24267" y1="-0.020739" x2="0.24267" y2="0.016292" />
      <line x1="0.24267" y1="0.016292" x2="0.24367" y2="0.016292" />
      <line x1="0.24367" y1="0.016292" x2="0.24367" y2="0.026114" />
      <line x1="0.222092" y1="-0.020739" x2="0.222092" y2="-0.015525" />
      <line x1="0.222092" y1="-0.015525" x2="0.223092" y2="-0.015525" />
      <line x1="0.24267" y1="-0.015525" x2="0.24367" y2="-0.015525" />
      <line x1="0.24367" y1="-0.020739" x2="0.24367" y2="-0.015525" />
    </g>
    <g fill="url(#hatch_coupler)" stroke="none" stroke-width="0" id="coupler_fill">
      <path d="M 0.050501,-0.010789 L 0.0227,-0.010789 L 0.0227,-0.009789 A 0.009789105352524866,0.009789105352524866 0.0 1,0 0.0227,0.009789 L 0.0227,0.010789 L 0.050501,0.010789 L 0.050501,0.009789 L 0.040501,0.009789 L 0.040501,-0.009789 L 0.050501,-0.009789 L 0.050501,-0.010789 M 0.019,-0.00495 A 0.00125,0.00125 0.0 0,1 0.0165,-0.00495 A 0.00125,0.00125 0.0 0,1 0.019,-0.00495 M 0.028,0.0 A 0.005300000000000001,0.005300000000000001 0.0 0,1 0.0174,0.0 A 0.005300000000000001,0.005300000000000001 0.0 0,1 0.028,-0.0 M 0.0289,-0.00495 A 0.00125,0.00125 0.0 0,1 0.0264,-0.00495 A 0.00125,0.00125 0.0 0,1 0.0289,-0.00495 M 0.019,0.00495 A 0.00125,0.00125 0.0 0,1 0.0165,0.00495 A 0.00125,0.00125 0.0 0,1 0.019,0.00495 M 0.0289,0.00495 A 0.00125,0.00125 0.0 0,1 0.0264,0.00495 A 0.00125,0.00125 0.0 0,1 0.0289,0.00495" />
      <path d="M 0.040501,-0.009789 L 0.050501,-0.009789 L 0.050501,0.009789 L 0.040501,0.009789 L 0.040501,-0.009789" />
      <path d="M 0.06829,-0.010789 L 0.09609,-0.010789 L 0.09609,0.010789 L 0.06829,0.010789 L 0.06829,0.009789 A 0.009789105352524866,0.009789105352524866 0.0 1,1 0.06829,-0.009789 L 0.06829,-0.010789 M 0.06459,-0.00495 A 0.00125,0.00125 0.0 0,0 0.06209,-0.00495 A 0.00125,0.00125 0.0 0,0 0.06459,-0.00495 M 0.07359,-0.0 A 0.0053,0.0053 0.0 0,0 0.06299,0.0 A 0.0053,0.0053 0.0 0,0 0.07359,0.0 M 0.07449,-0.00495 A 0.0012500000000000011,0.0012500000000000011 0.0 0,0 0.07199,-0.00495 A 0.0012500000000000011,0.0012500000000000011 0.0 0,0 0.07449,-0.00495 M 0.06459,0.00495 A 0.00125,0.00125 0.0 0,0 0.06209,0.00495 A 0.00125,0.00125 0.0 0,0 0.06459,0.00495 M 0.07449,0.00495 A 0.0012500000000000011,0.0012500000000000011 0.0 0,0 0.07199,0.00495 A 0.0012500000000000011,0.0012500000000000011 0.0 0,0 0.07449,0.00495" />
      <path d="M 0.155291,-0.009789 L 0.155291,0.009789 L 0.145291,0.009789 L 0.145291,-0.009789 L 0.155291,-0.009789" />
    </g>
    <g fill="none" stroke="rgb(220,60,40)" stroke-opacity="0.4" stroke-width="0.00015" id="coupler_hidden" stroke-dasharray="0.0018 0.00045">
      <line x1="0.202233" y1="0.017242" x2="0.202075" y2="0.017397" />
      <line x1="0.202075" y1="0.017238" x2="0.202075" y2="0.017397" />
      <line x1="0.202233" y1="-0.02987" x2="0.198835" y2="-0.026534" />
      <line x1="0.198835" y1="-0.026534" x2="0.198835" y2="-0.016657" />
      <line x1="0.198993" y1="-0.016812" x2="0.198835" y2="-0.016657" />
      <line x1="0.198993" y1="-0.016812" x2="0.198993" y2="0.020423" />
      <line x1="0.198993" y1="0.020423" x2="0.198835" y2="0.020578" />
      <line x1="0.198835" y1="0.020578" x2="0.198835" y2="0.030454" />
      <line x1="0.198835" y1="0.020578" x2="0.171382" y2="0.019893" />
      <line x1="0.171382" y1="0.019893" x2="0.171382" y2="0.029611" />
      <path d="M 0.171539,0.019738 A 0.009789105352524866,0.0015324267232534078 -5.243073870449906e-17 0,1 0.163291,0.018225" />
      <line x1="0.171539" y1="0.019738" x2="0.171539" y2="0.029615" />
      <line x1="0.171539" y1="0.019738" x2="0.171382" y2="0.019893" />
      <path d="M 0.170206,0.017368 A 0.00125,0.0001956801296016999 -5.243073870449906e-17 0,1 0.167721,0.017337" />
      <path d="M 0.167721,0.017337 A 0.0012500000000000011,0.00019568012960170006 -5.243073870449906e-17 0,1 0.170221,0.017337" />
      <path d="M 0.170221,0.017337 A 0.00125,0.0001956801296016999 -5.243073870449906e-17 0,1 0.170206,0.017368" />
      <path d="M 0.178314,0.018355 A 0.0053,0.0008296837495112074 -5.243073870449906e-17 0,1 0.16778,0.018225" />
      <path d="M 0.16778,0.018225 A 0.0053,0.0008296837495112074 -5.243073870449906e-17 0,1 0.17838,0.018225" />
      <path d="M 0.17838,0.018225 A 0.0053,0.0008296837495112074 -5.243073870449906e-17 0,1 0.178314,0.018355" />
      <path d="M 0.179982,0.017612 A 0.00125,0.0001956801296016999 -5.243073870449906e-17 0,1 0.177498,0.017581" />
      <path d="M 0.177498,0.017581 A 0.0012500000000000011,0.00019568012960170006 -5.243073870449906e-17 0,1 0.179998,0.017581" />
      <path d="M 0.179998,0.017581 A 0.00125,0.0001956801296016999 -5.243073870449906e-17 0,1 0.179982,0.017612" />
      <path d="M 0.168647,0.018899 A 0.00125,0.0001956801296016999 -5.243073870449906e-17 0,1 0.166163,0.018868" />
      <path d="M 0.166163,0.018868 A 0.0012500000000000011,0.00019568012960170006 -5.243073870449906e-17 0,1 0.168663,0.018868" />
      <path d="M 0.168663,0.018868 A 0.00125,0.0001956801296016999 -5.243073870449906e-17 0,1 0.168647,0.018899" />
      <path d="M 0.178424,0.019143 A 0.00125,0.0001956801296016999 -5.243073870449906e-17 0,1 0.175939,0.019112" />
      <path d="M 0.175939,0.019112 A 0.00125,0.0001956801296016999 -5.243073870449906e-17 0,1 0.178439,0.019112" />
      <path d="M 0.178439,0.019112 A 0.00125,0.0001956801296016999 -5.243073870449906e-17 0,1 0.178424,0.019143" />
      <line x1="0.202075" y1="0.017397" x2="0.1922" y2="0.01715" />
      <line x1="0.1922" y1="0.01715" x2="0.189118" y2="0.020177" />
      <line x1="0.198993" y1="0.020423" x2="0.189118" y2="0.020177" />
      <line x1="0.1922" y1="0.016992" x2="0.1922" y2="0.01715" />
      <line x1="0.189118" y1="-0.017059" x2="0.198993" y2="-0.016812" />
      <line x1="0.198835" y1="-0.016657" x2="0.189118" y2="-0.0169" />
      <line x1="0.198835" y1="-0.026534" x2="0.171382" y2="-0.027219" />
      <line x1="0.171539" y1="-0.027374" x2="0.171382" y2="-0.027219" />
      <path d="M 0.171539,-0.027374 A 0.009789105352524866,0.0015324267232534078 -5.243073870449906e-17 0,1 0.163291,-0.028887" />
      <path d="M 0.170206,-0.029744 A 0.00125,0.0001956801296016999 -5.243073870449906e-17 0,1 0.167721,-0.029774" />
      <path d="M 0.167721,-0.029774 A 0.0012500000000000011,0.00019568012960170006 -5.243073870449906e-17 0,1 0.170221,-0.029774" />
      <path d="M 0.170221,-0.029774 A 0.00125,0.0001956801296016999 -5.243073870449906e-17 0,1 0.170206,-0.029744" />
      <path d="M 0.179982,-0.0295 A 0.00125,0.0001956801296016999 -5.243073870449906e-17 0,1 0.177498,-0.02953" />
      <path d="M 0.177498,-0.02953 A 0.0012500000000000011,0.00019568012960170006 -5.243073870449906e-17 0,1 0.179998,-0.02953" />
      <path d="M 0.179998,-0.02953 A 0.00125,0.0001956801296016999 -5.243073870449906e-17 0,1 0.179982,-0.0295" />
      <path d="M 0.168647,-0.028213 A 0.00125,0.0001956801296016999 -5.243073870449906e-17 0,1 0.166163,-0.028244" />
      <path d="M 0.166163,-0.028244 A 0.0012500000000000011,0.00019568012960170006 -5.243073870449906e-17 0,1 0.168663,-0.028244" />
      <path d="M 0.168663,-0.028244 A 0.00125,0.0001956801296016999 -5.243073870449906e-17 0,1 0.168647,-0.028213" />
      <path d="M 0.178314,-0.028757 A 0.0053,0.0008296837495112074 -5.243073870449906e-17 0,1 0.16778,-0.028887" />
      <path d="M 0.16778,-0.028887 A 0.0053,0.0008296837495112074 -5.243073870449906e-17 0,1 0.17838,-0.028887" />
      <path d="M 0.17838,-0.028887 A 0.0053,0.0008296837495112074 -5.243073870449906e-17 0,1 0.178314,-0.028757" />
      <path d="M 0.178424,-0.027969 A 0.00125,0.0001956801296016999 -5.243073870449906e-17 0,1 0.175939,-0.028" />
      <path d="M 0.175939,-0.028 A 0.00125,0.0001956801296016999 -5.243073870449906e-17 0,1 0.178439,-0.028" />
      <path d="M 0.178439,-0.028 A 0.00125,0.0001956801296016999 -5.243073870449906e-17 0,1 0.178424,-0.027969" />
      <line x1="0.171382" y1="-0.027219" x2="0.171382" y2="-0.017501" />
      <line x1="0.189118" y1="0.016915" x2="0.189118" y2="0.020177" />
      <line x1="0.171539" y1="-0.027374" x2="0.171539" y2="-0.017497" />
      <line x1="0.170221" y1="0.017337" x2="0.170221" y2="0.027214" />
      <line x1="0.167721" y1="0.017337" x2="0.167721" y2="0.027214" />
      <line x1="0.17838" y1="0.018225" x2="0.17838" y2="0.028101" />
      <line x1="0.16778" y1="0.018225" x2="0.16778" y2="0.028101" />
      <line x1="0.179998" y1="0.017581" x2="0.179998" y2="0.027458" />
      <line x1="0.177498" y1="0.017581" x2="0.177498" y2="0.027458" />
      <line x1="0.168663" y1="0.018868" x2="0.168663" y2="0.028745" />
      <line x1="0.166163" y1="0.018868" x2="0.166163" y2="0.028745" />
      <line x1="0.178439" y1="0.019112" x2="0.178439" y2="0.028989" />
      <line x1="0.175939" y1="0.019112" x2="0.175939" y2="0.028989" />
      <line x1="0.170221" y1="-0.029774" x2="0.170221" y2="-0.019898" />
      <line x1="0.167721" y1="-0.029774" x2="0.167721" y2="-0.019898" />
      <line x1="0.17838" y1="-0.028887" x2="0.17838" y2="-0.019011" />
      <line x1="0.16778" y1="-0.028887" x2="0.16778" y2="-0.019011" />
      <line x1="0.179998" y1="-0.02953" x2="0.179998" y2="-0.019654" />
      <line x1="0.177498" y1="-0.02953" x2="0.177498" y2="-0.019654" />
      <line x1="0.168663" y1="-0.028244" x2="0.168663" y2="-0.018367" />
      <line x1="0.166163" y1="-0.028244" x2="0.166163" y2="-0.018367" />
      <line x1="0.178439" y1="-0.028" x2="0.178439" y2="-0.018123" />
      <line x1="0.175939" y1="-0.028" x2="0.175939" y2="-0.018123" />
      <line x1="0.222092" y1="0.016292" x2="0.222092" y2="0.021506" />
      <line x1="0.222092" y1="0.021506" x2="0.222092" y2="0.031328" />
      <line x1="0.223092" y1="0.021506" x2="0.223092" y2="0.031328" />
      <line x1="0.222092" y1="0.021506" x2="0.223092" y2="0.021506" />
      <line x1="0.24367" y1="0.016292" x2="0.24367" y2="0.021506" />
      <line x1="0.24367" y1="0.021506" x2="0.24367" y2="0.031328" />
      <path d="M 0.24267,0.021506 A 0.009789105352524866,0.0018359857423291281 -7.142314128693826e-33 1,1 0.223092,0.021506" />
      <line x1="0.24267" y1="0.021506" x2="0.24267" y2="0.031328" />
      <line x1="0.24267" y1="0.021506" x2="0.24367" y2="0.021506" />
      <path d="M 0.227931,0.0222 A 0.00125,0.00023444248429908607 -7.142314128693826e-33 0,1 0.229181,0.022434" />
      <path d="M 0.229181,0.022434 A 0.0012500000000000011,0.00023444248429908628 -7.142314128693826e-33 0,1 0.226681,0.022434" />
      <path d="M 0.226681,0.022434 A 0.00125,0.00023444248429908607 -7.142314128693826e-33 0,1 0.227931,0.0222" />
      <path d="M 0.232881,0.020512 A 0.0053,0.000994036133428125 -7.142314128693826e-33 0,1 0.238181,0.021506" />
      <path d="M 0.238181,0.021506 A 0.0053,0.000994036133428125 -7.142314128693826e-33 0,1 0.227581,0.021506" />
      <path d="M 0.227581,0.021506 A 0.0053,0.000994036133428125 -7.142314128693826e-33 0,1 0.232881,0.020512" />
      <path d="M 0.227931,0.020343 A 0.00125,0.00023444248429908607 -7.142314128693826e-33 0,1 0.229181,0.020577" />
      <path d="M 0.229181,0.020577 A 0.0012500000000000011,0.00023444248429908628 -7.142314128693826e-33 0,1 0.226681,0.020577" />
      <path d="M 0.226681,0.020577 A 0.00125,0.00023444248429908607 -7.142314128693826e-33 0,1 0.227931,0.020343" />
      <path d="M 0.237831,0.0222 A 0.00125,0.00023444248429908607 -7.142314128693826e-33 0,1 0.239081,0.022434" />
      <path d="M 0.239081,0.022434 A 0.00125,0.00023444248429908607 -7.142314128693826e-33 0,1 0.236581,0.022434" />
      <path d="M 0.236581,0.022434 A 0.00125,0.00023444248429908607 -7.142314128693826e-33 0,1 0.237831,0.0222" />
      <path d="M 0.237831,0.020343 A 0.00125,0.00023444248429908607 -7.142314128693826e-33 0,1 0.239081,0.020577" />
      <path d="M 0.239081,0.020577 A 0.00125,0.00023444248429908607 -7.142314128693826e-33 0,1 0.236581,0.020577" />
      <path d="M 0.236581,0.020577 A 0.00125,0.00023444248429908607 -7.142314128693826e-33 0,1 0.237831,0.020343" />
      <line x1="0.223092" y1="0.016292" x2="0.223092" y2="0.018167" />
      <line x1="0.223092" y1="0.018167" x2="0.24267" y2="0.018167" />
      <line x1="0.24267" y1="0.016292" x2="0.24267" y2="0.018167" />
      <line x1="0.223092" y1="-0.018864" x2="0.223092" y2="0.018167" />
      <line x1="0.223092" y1="-0.018864" x2="0.223092" y2="-0.020739" />
      <path d="M 0.24267,-0.015525 A 0.009789105352524866,0.0018359857423291281 -7.142314128693826e-33 1,1 0.223092,-0.015525" />
      <line x1="0.24267" y1="-0.018864" x2="0.223092" y2="-0.018864" />
      <line x1="0.24267" y1="-0.018864" x2="0.24267" y2="-0.020739" />
      <path d="M 0.227931,-0.014831 A 0.00125,0.00023444248429908607 -7.142314128693826e-33 0,1 0.229181,-0.014597" />
      <path d="M 0.229181,-0.014597 A 0.0012500000000000011,0.00023444248429908628 -7.142314128693826e-33 0,1 0.226681,-0.014597" />
      <path d="M 0.226681,-0.014597 A 0.00125,0.00023444248429908607 -7.142314128693826e-33 0,1 0.227931,-0.014831" />
      <path d="M 0.232881,-0.016519 A 0.0053,0.000994036133428125 -7.142314128693826e-33 0,1 0.238181,-0.015525" />
      <path d="M 0.238181,-0.015525 A 0.0053,0.000994036133428125 -7.142314128693826e-33 0,1 0.227581,-0.015525" />
      <path d="M 0.227581,-0.015525 A 0.0053,0.000994036133428125 -7.142314128693826e-33 0,1 0.232881,-0.016519" />
      <path d="M 0.227931,-0.016688 A 0.00125,0.00023444248429908607 -7.142314128693826e-33 0,1 0.229181,-0.016454" />
      <path d="M 0.229181,-0.016454 A 0.0012500000000000011,0.00023444248429908628 -7.142314128693826e-33 0,1 0.226681,-0.016454" />
      <path d="M 0.226681,-0.016454 A 0.00125,0.00023444248429908607 -7.142314128693826e-33 0,1 0.227931,-0.016688" />
      <path d="M 0.237831,-0.014831 A 0.00125,0.00023444248429908607 -7.142314128693826e-33 0,1 0.239081,-0.014597" />
      <path d="M 0.239081,-0.014597 A 0.00125,0.00023444248429908607 -7.142314128693826e-33 0,1 0.236581,-0.014597" />
      <path d="M 0.236581,-0.014597 A 0.00125,0.00023444248429908607 -7.142314128693826e-33 0,1 0.237831,-0.014831" />
      <path d="M 0.237831,-0.016688 A 0.00125,0.00023444248429908607 -7.142314128693826e-33 0,1 0.239081,-0.016454" />
      <path d="M 0.239081,-0.016454 A 0.00125,0.00023444248429908607 -7.142314128693826e-33 0,1 0.236581,-0.016454" />
      <path d="M 0.236581,-0.016454 A 0.00125,0.00023444248429908607 -7.142314128693826e-33 0,1 0.237831,-0.016688" />
      <line x1="0.222092" y1="-0.030562" x2="0.222092" y2="-0.025348" />
      <line x1="0.222092" y1="-0.025348" x2="0.222092" y2="-0.015525" />
      <line x1="0.24367" y1="-0.030562" x2="0.24367" y2="-0.025348" />
      <line x1="0.24267" y1="-0.025348" x2="0.24367" y2="-0.025348" />
      <path d="M 0.24267,-0.025348 A 0.009789105352524866,0.0018359857423291281 -7.142314128693826e-33 1,1 0.223092,-0.025348" />
      <line x1="0.222092" y1="-0.025348" x2="0.223092" y2="-0.025348" />
      <path d="M 0.227931,-0.024654 A 0.00125,0.00023444248429908607 -7.142314128693826e-33 0,1 0.229181,-0.024419" />
      <path d="M 0.229181,-0.024419 A 0.0012500000000000011,0.00023444248429908628 -7.142314128693826e-33 0,1 0.226681,-0.024419" />
      <path d="M 0.226681,-0.024419 A 0.00125,0.00023444248429908607 -7.142314128693826e-33 0,1 0.227931,-0.024654" />
      <path d="M 0.227931,-0.026511 A 0.00125,0.00023444248429908607 -7.142314128693826e-33 0,1 0.229181,-0.026276" />
      <path d="M 0.229181,-0.026276 A 0.0012500000000000011,0.00023444248429908628 -7.142314128693826e-33 0,1 0.226681,-0.026276" />
      <path d="M 0.226681,-0.026276 A 0.00125,0.00023444248429908607 -7.142314128693826e-33 0,1 0.227931,-0.026511" />
      <path d="M 0.237831,-0.024654 A 0.00125,0.00023444248429908607 -7.142314128693826e-33 0,1 0.239081,-0.024419" />
      <path d="M 0.239081,-0.024419 A 0.00125,0.00023444248429908607 -7.142314128693826e-33 0,1 0.236581,-0.024419" />
      <path d="M 0.236581,-0.024419 A 0.00125,0.00023444248429908607 -7.142314128693826e-33 0,1 0.237831,-0.024654" />
      <path d="M 0.232881,-0.026342 A 0.0053,0.000994036133428125 -7.142314128693826e-33 0,1 0.238181,-0.025348" />
      <path d="M 0.238181,-0.025348 A 0.0053,0.000994036133428125 -7.142314128693826e-33 0,1 0.227581,-0.025348" />
      <path d="M 0.227581,-0.025348 A 0.0053,0.000994036133428125 -7.142314128693826e-33 0,1 0.232881,-0.026342" />
      <path d="M 0.237831,-0.026511 A 0.00125,0.00023444248429908607 -7.142314128693826e-33 0,1 0.239081,-0.026276" />
      <path d="M 0.239081,-0.026276 A 0.00125,0.00023444248429908607 -7.142314128693826e-33 0,1 0.236581,-0.026276" />
      <path d="M 0.236581,-0.026276 A 0.00125,0.00023444248429908607 -7.142314128693826e-33 0,1 0.237831,-0.026511" />
      <line x1="0.24367" y1="-0.025348" x2="0.24367" y2="-0.015525" />
      <line x1="0.24267" y1="-0.018864" x2="0.24267" y2="0.018167" />
      <line x1="0.223092" y1="-0.025348" x2="0.223092" y2="-0.015525" />
      <line x1="0.24267" y1="-0.025348" x2="0.24267" y2="-0.015525" />
      <line x1="0.229181" y1="0.022434" x2="0.229181" y2="0.032257" />
      <line x1="0.226681" y1="0.022434" x2="0.226681" y2="0.032257" />
      <line x1="0.238181" y1="0.021506" x2="0.238181" y2="0.031328" />
      <line x1="0.227581" y1="0.021506" x2="0.227581" y2="0.031328" />
      <line x1="0.229181" y1="0.020577" x2="0.229181" y2="0.0304" />
      <line x1="0.226681" y1="0.020577" x2="0.226681" y2="0.0304" />
      <line x1="0.239081" y1="0.022434" x2="0.239081" y2="0.032257" />
      <line x1="0.236581" y1="0.022434" x2="0.236581" y2="0.032257" />
      <line x1="0.239081" y1="0.020577" x2="0.239081" y2="0.0304" />
      <line x1="0.236581" y1="0.020577" x2="0.236581" y2="0.0304" />
      <line x1="0.229181" y1="-0.024419" x2="0.229181" y2="-0.014597" />
      <line x1="0.226681" y1="-0.024419" x2="0.226681" y2="-0.014597" />
      <line x1="0.238181" y1="-0.025348" x2="0.238181" y2="-0.015525" />
      <line x1="0.227581" y1="-0.025348" x2="0.227581" y2="-0.015525" />
      <line x1="0.229181" y1="-0.026276" x2="0.229181" y2="-0.016454" />
      <line x1="0.226681" y1="-0.026276" x2="0.226681" y2="-0.016454" />
      <line x1="0.239081" y1="-0.024419" x2="0.239081" y2="-0.014597" />
      <line x1="0.236581" y1="-0.024419" x2="0.236581" y2="-0.014597" />
      <line x1="0.239081" y1="-0.026276" x2="0.239081" y2="-0.016454" />
      <line x1="0.236581" y1="-0.026276" x2="0.236581" y2="-0.016454" />
    </g>
  </g>
  <text x="0.025250" y="-0.038839" text-anchor="middle" font-family="'Input Sans Narrow', 'DejaVu Sans', Arial, sans-serif" font-size="0.002500" font-weight="bold" fill="#333">A-A</text>
  <text x="0.025250" y="-0.035339" text-anchor="middle" font-family="'Input Sans Narrow', 'DejaVu Sans', Arial, sans-serif" font-size="0.001800" fill="#888">front_horn</text>
  <line x1="0.000000" y1="0.014600" x2="0.000000" y2="0.016200" stroke="#555" stroke-width="0.000200"/>
  <line x1="0.050501" y1="0.014600" x2="0.050501" y2="0.016200" stroke="#555" stroke-width="0.000200"/>
  <line x1="0.000000" y1="0.015400" x2="0.050501" y2="0.015400" stroke="#555" stroke-width="0.000200"/>
  <polygon points="0.000000,0.015400 0.001500,0.014800 0.001500,0.016000" fill="#555"/>
  <polygon points="0.050501,0.015400 0.049001,0.014800 0.049001,0.016000" fill="#555"/>
  <text x="0.025250" y="0.013600" text-anchor="middle" font-family="'Input Sans Narrow', 'DejaVu Sans', Arial, sans-serif" font-size="0.001600" fill="#555">50.5</text>
  <line x1="0.052701" y1="-0.012400" x2="0.054301" y2="-0.012400" stroke="#555" stroke-width="0.000200"/>
  <line x1="0.052701" y1="0.012400" x2="0.054301" y2="0.012400" stroke="#555" stroke-width="0.000200"/>
  <line x1="0.053501" y1="-0.012400" x2="0.053501" y2="0.012400" stroke="#555" stroke-width="0.000200"/>
  <polygon points="0.053501,-0.012400 0.052901,-0.010900 0.054101,-0.010900" fill="#555"/>
  <polygon points="0.053501,0.012400 0.052901,0.010900 0.054101,0.010900" fill="#555"/>
  <text x="0.055001" y="0.000000" text-anchor="middle" dominant-baseline="central" font-family="'Input Sans Narrow', 'DejaVu Sans', Arial, sans-serif" font-size="0.001600" fill="#555" transform="rotate(-90 0.055001 0.000000)">24.8</text>
  <text x="0.077296" y="-0.038839" text-anchor="middle" font-family="'Input Sans Narrow', 'DejaVu Sans', Arial, sans-serif" font-size="0.002500" font-weight="bold" fill="#333">B-B</text>
  <text x="0.077296" y="-0.035339" text-anchor="middle" font-family="'Input Sans Narrow', 'DejaVu Sans', Arial, sans-serif" font-size="0.001800" fill="#888">rear_horn</text>
  <line x1="0.058501" y1="0.012989" x2="0.058501" y2="0.014589" stroke="#555" stroke-width="0.000200"/>
  <line x1="0.096090" y1="0.012989" x2="0.096090" y2="0.014589" stroke="#555" stroke-width="0.000200"/>
  <line x1="0.058501" y1="0.013789" x2="0.096090" y2="0.013789" stroke="#555" stroke-width="0.000200"/>
  <polygon points="0.058501,0.013789 0.060001,0.013189 0.060001,0.014389" fill="#555"/>
  <polygon points="0.096090,0.013789 0.094590,0.013189 0.094590,0.014389" fill="#555"/>
  <text x="0.077296" y="0.011989" text-anchor="middle" font-family="'Input Sans Narrow', 'DejaVu Sans', Arial, sans-serif" font-size="0.001600" fill="#555">37.6</text>
  <line x1="0.098290" y1="-0.010789" x2="0.099890" y2="-0.010789" stroke="#555" stroke-width="0.000200"/>
  <line x1="0.098290" y1="0.010789" x2="0.099890" y2="0.010789" stroke="#555" stroke-width="0.000200"/>
  <line x1="0.099090" y1="-0.010789" x2="0.099090" y2="0.010789" stroke="#555" stroke-width="0.000200"/>
  <polygon points="0.099090,-0.010789 0.098490,-0.009289 0.099690,-0.009289" fill="#555"/>
  <polygon points="0.099090,0.010789 0.098490,0.009289 0.099690,0.009289" fill="#555"/>
  <text x="0.100590" y="0.000000" text-anchor="middle" dominant-baseline="central" font-family="'Input Sans Narrow', 'DejaVu Sans', Arial, sans-serif" font-size="0.001600" fill="#555" transform="rotate(-90 0.100590 0.000000)">21.6</text>
  <text x="0.129691" y="-0.038839" text-anchor="middle" font-family="'Input Sans Narrow', 'DejaVu Sans', Arial, sans-serif" font-size="0.002500" font-weight="bold" fill="#333">C-C</text>
  <text x="0.129691" y="-0.035339" text-anchor="middle" font-family="'Input Sans Narrow', 'DejaVu Sans', Arial, sans-serif" font-size="0.001800" fill="#888">mid_body</text>
  <line x1="0.104090" y1="0.015550" x2="0.104090" y2="0.017150" stroke="#555" stroke-width="0.000200"/>
  <line x1="0.155291" y1="0.015550" x2="0.155291" y2="0.017150" stroke="#555" stroke-width="0.000200"/>
  <line x1="0.104090" y1="0.016350" x2="0.155291" y2="0.016350" stroke="#555" stroke-width="0.000200"/>
  <polygon points="0.104090,0.016350 0.105590,0.015750 0.105590,0.016950" fill="#555"/>
  <polygon points="0.155291,0.016350 0.153791,0.015750 0.153791,0.016950" fill="#555"/>
  <text x="0.129691" y="0.014550" text-anchor="middle" font-family="'Input Sans Narrow', 'DejaVu Sans', Arial, sans-serif" font-size="0.001600" fill="#555">51.2</text>
  <line x1="0.157491" y1="-0.013350" x2="0.159091" y2="-0.013350" stroke="#555" stroke-width="0.000200"/>
  <line x1="0.157491" y1="0.013350" x2="0.159091" y2="0.013350" stroke="#555" stroke-width="0.000200"/>
  <line x1="0.158291" y1="-0.013350" x2="0.158291" y2="0.013350" stroke="#555" stroke-width="0.000200"/>
  <polygon points="0.158291,-0.013350 0.157691,-0.011850 0.158891,-0.011850" fill="#555"/>
  <polygon points="0.158291,0.013350 0.157691,0.011850 0.158891,0.011850" fill="#555"/>
  <text x="0.159791" y="-0.000000" text-anchor="middle" dominant-baseline="central" font-family="'Input Sans Narrow', 'DejaVu Sans', Arial, sans-serif" font-size="0.001600" fill="#555" transform="rotate(-90 0.159791 -0.000000)">26.7</text>
  <text x="0.187411" y="-0.038839" text-anchor="middle" font-family="'Input Sans Narrow', 'DejaVu Sans', Arial, sans-serif" font-size="0.002500" font-weight="bold" fill="#333">side_XZ</text>
  <line x1="0.163291" y1="0.032755" x2="0.163291" y2="0.034355" stroke="#555" stroke-width="0.000200"/>
  <line x1="0.211531" y1="0.032755" x2="0.211531" y2="0.034355" stroke="#555" stroke-width="0.000200"/>
  <line x1="0.163291" y1="0.033555" x2="0.211531" y2="0.033555" stroke="#555" stroke-width="0.000200"/>
  <polygon points="0.163291,0.033555 0.164791,0.032955 0.164791,0.034155" fill="#555"/>
  <polygon points="0.211531,0.033555 0.210031,0.032955 0.210031,0.034155" fill="#555"/>
  <text x="0.187411" y="0.031755" text-anchor="middle" font-family="'Input Sans Narrow', 'DejaVu Sans', Arial, sans-serif" font-size="0.001600" fill="#555">48.2</text>
  <line x1="0.213731" y1="-0.030454" x2="0.215331" y2="-0.030454" stroke="#555" stroke-width="0.000200"/>
  <line x1="0.213731" y1="0.030555" x2="0.215331" y2="0.030555" stroke="#555" stroke-width="0.000200"/>
  <line x1="0.214531" y1="-0.030454" x2="0.214531" y2="0.030555" stroke="#555" stroke-width="0.000200"/>
  <polygon points="0.214531,-0.030454 0.213931,-0.028954 0.215131,-0.028954" fill="#555"/>
  <polygon points="0.214531,0.030555 0.213931,0.029055 0.215131,0.029055" fill="#555"/>
  <text x="0.216031" y="0.000050" text-anchor="middle" dominant-baseline="central" font-family="'Input Sans Narrow', 'DejaVu Sans', Arial, sans-serif" font-size="0.001600" fill="#555" transform="rotate(-90 0.216031 0.000050)">61.0</text>
  <text x="0.232881" y="-0.038839" text-anchor="middle" font-family="'Input Sans Narrow', 'DejaVu Sans', Arial, sans-serif" font-size="0.002500" font-weight="bold" fill="#333">side_YZ</text>
  <line x1="0.219531" y1="0.032762" x2="0.219531" y2="0.034362" stroke="#555" stroke-width="0.000200"/>
  <line x1="0.246231" y1="0.032762" x2="0.246231" y2="0.034362" stroke="#555" stroke-width="0.000200"/>
  <line x1="0.219531" y1="0.033562" x2="0.246231" y2="0.033562" stroke="#555" stroke-width="0.000200"/>
  <polygon points="0.219531,0.033562 0.221031,0.032962 0.221031,0.034162" fill="#555"/>
  <polygon points="0.246231,0.033562 0.244731,0.032962 0.244731,0.034162" fill="#555"/>
  <text x="0.232881" y="0.031762" text-anchor="middle" font-family="'Input Sans Narrow', 'DejaVu Sans', Arial, sans-serif" font-size="0.001600" fill="#555">26.7</text>
  <line x1="0.248431" y1="-0.033164" x2="0.250031" y2="-0.033164" stroke="#555" stroke-width="0.000200"/>
  <line x1="0.248431" y1="0.030562" x2="0.250031" y2="0.030562" stroke="#555" stroke-width="0.000200"/>
  <line x1="0.249231" y1="-0.033164" x2="0.249231" y2="0.030562" stroke="#555" stroke-width="0.000200"/>
  <polygon points="0.249231,-0.033164 0.248631,-0.031664 0.249831,-0.031664" fill="#555"/>
  <polygon points="0.249231,0.030562 0.248631,0.029062 0.249831,0.029062" fill="#555"/>
  <text x="0.250731" y="-0.001301" text-anchor="middle" dominant-baseline="central" font-family="'Input Sans Narrow', 'DejaVu Sans', Arial, sans-serif" font-size="0.001600" fill="#555" transform="rotate(-90 0.250731 -0.001301)">63.7</text>
  <text x="-0.001175" y="0.034237" font-family="'Input Sans Narrow', 'DejaVu Sans', Arial, sans-serif" font-size="0.003500" font-weight="bold" fill="#222">coupler</text>
  <line x1="-0.001175" y1="0.038237" x2="0.008825" y2="0.038237" stroke="#333" stroke-width="0.000350"/>
  <line x1="-0.001175" y1="0.037237" x2="-0.001175" y2="0.039237" stroke="#333" stroke-width="0.000250"/>
  <line x1="0.008825" y1="0.037237" x2="0.008825" y2="0.039237" stroke="#333" stroke-width="0.000250"/>
  <text x="0.010325" y="0.038937" font-family="'Input Sans Narrow', 'DejaVu Sans', Arial, sans-serif" font-size="0.001800" fill="#888">10 mm</text>
  <rect x="0.028825" y="0.031737" width="0.004000" height="0.002500" fill="url(#hatch_servo)" stroke="rgb(60,60,60)" stroke-width="0.000300"/>
  <text x="0.034325" y="0.033737" font-family="'Input Sans Narrow', 'DejaVu Sans', Arial, sans-serif" font-size="0.001800" fill="rgb(60,60,60)">servo</text>
  <rect x="0.028825" y="0.035237" width="0.004000" height="0.002500" fill="url(#hatch_coupler)" stroke="rgb(220,60,40)" stroke-width="0.000300"/>
  <text x="0.034325" y="0.037237" font-family="'Input Sans Narrow', 'DejaVu Sans', Arial, sans-serif" font-size="0.001800" fill="rgb(220,60,40)">coupler</text>
</svg>