<?xml version='1.0' encoding='utf-8'?>
<svg width="301.62mm" height="89.47mm" viewBox="-0.003175 -0.024375 0.301623 0.089467" version="1.1" xmlns="http://www.w3.org/2000/svg">
  <defs>
    <pattern id="hatch_cradle" width="0.0012" height="0.0012" patternUnits="userSpaceOnUse" patternTransform="rotate(45)">
      <line x1="0" y1="0" x2="0" y2="0.0012" stroke="rgb(50,120,190)" stroke-width="0.0001" stroke-opacity="0.6"/>
    </pattern>
    <pattern id="hatch_servo" width="0.0012" height="0.0012" patternUnits="userSpaceOnUse" patternTransform="rotate(75)">
      <line x1="0" y1="0" x2="0" y2="0.0012" stroke="rgb(60,60,60)" stroke-width="0.0001" stroke-opacity="0.6"/>
    </pattern>
    <pattern id="hatch_coupler" width="0.0012" height="0.0012" patternUnits="userSpaceOnUse" patternTransform="rotate(105)">
      <line x1="0" y1="0" x2="0" y2="0.0012" stroke="rgb(220,60,40)" stroke-width="0.0001" stroke-opacity="0.6"/>
    </pattern>
  </defs>
  <g transform="scale(1,-1)" stroke-linecap="round">
    <g fill="none" stroke="rgb(50,120,190)" stroke-width="0.00035" id="cradle">
      <line x1="0.0" y1="-0.0152" x2="0.0" y2="0.0152" />
      <line x1="0.0" y1="0.0152" x2="0.007526" y2="0.0152" />
      <line x1="0.007526" y1="-0.0152" x2="0.007526" y2="0.0152" />
      <line x1="0.0" y1="-0.0152" x2="0.007526" y2="-0.0152" />
      <line x1="0.073801" y1="0.0152" x2="0.081327" y2="0.0152" />
      <line x1="0.081327" y1="0.0152" x2="0.081327" y2="0.0127" />
      <line x1="0.076301" y1="0.0127" x2="0.081327" y2="0.0127" />
      <line x1="0.076301" y1="0.0127" x2="0.076301" y2="-0.0127" />
      <line x1="0.076301" y1="-0.0127" x2="0.081327" y2="-0.0127" />
      <line x1="0.081327" y1="-0.0127" x2="0.081327" y2="-0.0152" />
      <line x1="0.073801" y1="-0.0152" x2="0.081327" y2="-0.0152" />
      <line x1="0.073801" y1="0.0152" x2="0.073801" y2="-0.0152" />
      <line x1="0.147601" y1="0.0152" x2="0.155128" y2="0.0152" />
      <line x1="0.155128" y1="0.0152" x2="0.155128" y2="-0.0152" />
      <line x1="0.147601" y1="-0.0152" x2="0.155128" y2="-0.0152" />
      <line x1="0.147601" y1="0.0152" x2="0.147601" y2="-0.0152" />
      <circle cx="0.152801" cy="-0.01025" r="0.0021" />
      <circle cx="0.152801" cy="0.01025" r="0.0021" />
      <line x1="0.221402" y1="-0.038027" x2="0.221402" y2="0.002773" />
      <line x1="0.221402" y1="0.002773" x2="0.221509" y2="0.002827" />
      <line x1="0.221402" y1="-0.038027" x2="0.228928" y2="-0.038027" />
      <line x1="0.228928" y1="-0.038027" x2="0.228928" y2="0.002773" />
      <line x1="0.221402" y1="0.002773" x2="0.228928" y2="0.002773" />
      <line x1="0.221509" y1="0.002827" x2="0.229035" y2="0.002827" />
      <line x1="0.228928" y1="0.002773" x2="0.229035" y2="0.002827" />
      <line x1="0.228928" y1="-0.038027" x2="0.229035" y2="-0.037973" />
      <line x1="0.229035" y1="-0.037973" x2="0.229035" y2="0.002827" />
      <line x1="0.229027" y1="-0.032077" x2="0.228937" y2="-0.032123" />
      <line x1="0.229027" y1="-0.032077" x2="0.229027" y2="0.000323" />
      <line x1="0.229027" y1="0.000323" x2="0.228937" y2="0.000277" />
      <line x1="0.228937" y1="-0.032123" x2="0.228937" y2="0.000277" />
      <line x1="0.228937" y1="-0.032077" x2="0.229027" y2="-0.032077" />
    </g>
    <g fill="url(#hatch_cradle)" stroke="none" stroke-width="0" id="cradle_fill">
      <path d="M 0.0,0.0152 L 0.0,-0.0152 L 0.007526,-0.0152 L 0.007526,0.0152 L 0.0,0.0152" />
      <path d="M 0.081327,0.0152 L 0.073801,0.0152 L 0.073801,-0.0152 L 0.081327,-0.0152 L 0.081327,-0.0127 L 0.076301,-0.0127 L 0.076301,0.0127 L 0.081327,0.0127 L 0.081327,0.0152" />
      <path d="M 0.155128,0.0152 L 0.147601,0.0152 L 0.147601,-0.0152 L 0.155128,-0.0152 L 0.155128,0.0152 M 0.154901,-0.01025 A 0.0021000000000000046,0.0021000000000000046 0.0 0,0 0.150701,-0.01025 A 0.0021000000000000046,0.0021000000000000046 0.0 0,0 0.154901,-0.01025 M 0.154901,0.01025 A 0.0021000000000000046,0.0021000000000000046 0.0 0,0 0.150701,0.01025 A 0.0021000000000000046,0.0021000000000000046 0.0 0,0 0.154901,0.01025" />
    </g>
    <g fill="none" stroke="rgb(50,120,190)" stroke-opacity="0.4" stroke-width="0.00015" id="cradle_hidden" stroke-dasharray="0.0018 0.00045">
      <line x1="0.221402" y1="-0.038027" x2="0.221509" y2="-0.037973" />
      <line x1="0.221509" y1="-0.037973" x2="0.221509" y2="0.002827" />
      <line x1="0.221473" y1="-0.034791" x2="0.221438" y2="-0.034809" />
      <line x1="0.221473" y1="-0.034791" x2="0.221473" y2="-0.028791" />
      <line x1="0.221473" y1="-0.028791" x2="0.221438" y2="-0.028809" />
      <line x1="0.221438" y1="-0.034809" x2="0.221438" y2="-0.028809" />
      <line x1="0.221509" y1="-0.037973" x2="0.229035" y2="-0.037973" />
      <path d="M 0.228719,-0.038018 A 0.0021000000000000046,3.7606052440131087e-06 -8.781710968625401e-21 0,1 0.224519,-0.038018" />
      <path d="M 0.224519,-0.038018 A 0.0021000000000000046,3.7606052440131087e-06 -8.781710968625401e-21 0,1 0.228719,-0.038018" />
      <path d="M 0.228792,-0.037982 A 0.0021,3.7606052440131002e-06 -8.781710968625401e-21 0,1 0.224592,-0.037982" />
      <path d="M 0.224592,-0.037982 A 0.0021,3.7606052440131002e-06 -8.781710968625401e-21 0,1 0.228792,-0.037982" />
      <line x1="0.221473" y1="-0.034791" x2="0.225273" y2="-0.034791" />
      <line x1="0.225238" y1="-0.034809" x2="0.225273" y2="-0.034791" />
      <line x1="0.221438" y1="-0.034809" x2="0.225238" y2="-0.034809" />
      <line x1="0.225273" y1="-0.034791" x2="0.225273" y2="-0.032091" />
      <line x1="0.225273" y1="-0.032091" x2="0.223973" y2="-0.032091" />
      <line x1="0.223973" y1="-0.032091" x2="0.223973" y2="-0.028791" />
      <line x1="0.221473" y1="-0.028791" x2="0.223973" y2="-0.028791" />
      <line x1="0.223973" y1="-0.028791" x2="0.223938" y2="-0.028809" />
      <line x1="0.221438" y1="-0.028809" x2="0.223938" y2="-0.028809" />
      <line x1="0.225238" y1="-0.034809" x2="0.225238" y2="-0.032109" />
      <line x1="0.225238" y1="-0.032109" x2="0.223938" y2="-0.032109" />
      <line x1="0.223938" y1="-0.032109" x2="0.223938" y2="-0.028809" />
      <path d="M 0.228719,-0.032118 A 0.0021000000000000046,3.7606052440131087e-06 -8.781710968625401e-21 0,1 0.224519,-0.032118" />
      <path d="M 0.224519,-0.032118 A 0.0021000000000000046,3.7606052440131087e-06 -8.781710968625401e-21 0,1 0.228719,-0.032118" />
      <path d="M 0.228792,-0.032082 A 0.0021,3.7606052440131002e-06 -8.781710968625401e-21 0,1 0.224592,-0.032082" />
      <path d="M 0.224592,-0.032082 A 0.0021,3.7606052440131002e-06 -8.781710968625401e-21 0,1 0.228792,-0.032082" />
      <line x1="0.225238" y1="-0.032109" x2="0.225273" y2="-0.032091" />
      <line x1="0.224" y1="-0.032077" x2="0.228937" y2="-0.032077" />
      <line x1="0.223911" y1="-0.032123" x2="0.228937" y2="-0.032123" />
      <line x1="0.223911" y1="-0.032123" x2="0.223938" y2="-0.032109" />
      <line x1="0.223973" y1="-0.032091" x2="0.224" y2="-0.032077" />
      <line x1="0.223911" y1="0.000277" x2="0.224" y2="0.000323" />
      <line x1="0.224" y1="-0.032077" x2="0.224" y2="0.000323" />
      <line x1="0.223911" y1="-0.032123" x2="0.223911" y2="0.000277" />
      <line x1="0.224" y1="0.000323" x2="0.229027" y2="0.000323" />
      <line x1="0.223911" y1="0.000277" x2="0.228937" y2="0.000277" />
      <line x1="0.228719" y1="-0.038018" x2="0.228719" y2="-0.032118" />
      <line x1="0.224519" y1="-0.038018" x2="0.224519" y2="-0.032118" />
      <line x1="0.228792" y1="-0.037982" x2="0.228792" y2="-0.032082" />
      <line x1="0.224592" y1="-0.037982" x2="0.224592" y2="-0.032082" />
    </g>
    <g fill="none" stroke="rgb(60,60,60)" stroke-width="0.00035" id="servo">
      <circle cx="0.038" cy="0.0" r="0.004" />
      <line x1="0.076601" y1="0.0124" x2="0.122001" y2="0.0124" />
      <line x1="0.122001" y1="0.0124" x2="0.122001" y2="-0.0124" />
      <line x1="0.076601" y1="-0.0124" x2="0.122001" y2="-0.0124" />
      <line x1="0.076601" y1="0.0124" x2="0.076601" y2="-0.0124" />
      <line x1="0.149701" y1="0.01335" x2="0.149701" y2="0.0124" />
      <line x1="0.149701" y1="0.01335" x2="0.180401" y2="0.01335" />
      <line x1="0.180401" y1="0.01335" x2="0.180401" y2="0.0124" />
      <line x1="0.149701" y1="0.0124" x2="0.180401" y2="0.0124" />
      <line x1="0.149701" y1="-0.0124" x2="0.180401" y2="-0.0124" />
      <line x1="0.180401" y1="-0.0124" x2="0.180401" y2="-0.01335" />
      <line x1="0.149701" y1="-0.01335" x2="0.180401" y2="-0.01335" />
      <line x1="0.149701" y1="-0.0124" x2="0.149701" y2="-0.01335" />
      <line x1="0.22424" y1="-0.03182" x2="0.22424" y2="-2e-05" />
      <line x1="0.22424" y1="-2e-05" x2="0.224271" y2="2e-05" />
      <line x1="0.22424" y1="-0.03182" x2="0.25424" y2="-0.03182" />
      <line x1="0.25424" y1="-0.03182" x2="0.26964" y2="-0.03182" />
      <line x1="0.26964" y1="-0.03182" x2="0.26964" y2="-2e-05" />
      <line x1="0.22424" y1="-2e-05" x2="0.26964" y2="-2e-05" />
      <line x1="0.224271" y1="2e-05" x2="0.255456" y2="2e-05" />
      <line x1="0.263456" y1="2e-05" x2="0.269671" y2="2e-05" />
      <line x1="0.26964" y1="-2e-05" x2="0.269671" y2="2e-05" />
      <path d="M 0.255456,-0.0 A 0.0040000000000000036,6.381814892975729e-06 -1.8136319151190684e-20 0,1 0.263456,-0.0" />
      <line x1="0.269671" y1="-0.03178" x2="0.269671" y2="2e-05" />
      <line x1="0.26964" y1="-0.03182" x2="0.269671" y2="-0.03178" />
      <path d="M 0.263456,0.0028 A 0.0040000000000000036,6.381814892975729e-06 -1.8136319151190684e-20 0,1 0.255456,0.0028" />
      <path d="M 0.255456,0.0028 A 0.0040000000000000036,6.381814892975729e-06 -1.8136319151190684e-20 0,1 0.263456,0.0028" />
      <line x1="0.25424" y1="-0.03598" x2="0.254271" y2="-0.03598" />
      <line x1="0.254271" y1="-0.03598" x2="0.254271" y2="-0.03182" />
      <line x1="0.223571" y1="-0.03178" x2="0.22424" y2="-0.03178" />
      <line x1="0.223571" y1="-0.03182" x2="0.223571" y2="-0.03178" />
      <line x1="0.254271" y1="-0.03598" x2="0.254272" y2="-0.035979" />
      <line x1="0.254272" y1="-0.035979" x2="0.254272" y2="-0.03182" />
      <line x1="0.223571" y1="-0.03178" x2="0.223572" y2="-0.031779" />
      <line x1="0.223572" y1="-0.031779" x2="0.22424" y2="-0.031779" />
      <line x1="0.25424" y1="-0.03602" x2="0.25424" y2="-0.03182" />
      <line x1="0.22354" y1="-0.03182" x2="0.22424" y2="-0.03182" />
      <line x1="0.254239" y1="-0.036021" x2="0.25424" y2="-0.03602" />
      <line x1="0.223539" y1="-0.036021" x2="0.254239" y2="-0.036021" />
      <line x1="0.254239" y1="-0.036021" x2="0.254239" y2="-0.031821" />
      <line x1="0.254239" y1="-0.031821" x2="0.25424" y2="-0.03182" />
      <line x1="0.223539" y1="-0.031821" x2="0.22354" y2="-0.03182" />
      <line x1="0.223539" y1="-0.031821" x2="0.254239" y2="-0.031821" />
      <line x1="0.223539" y1="-0.036021" x2="0.223539" y2="-0.031821" />
      <line x1="0.263456" y1="-0.0" x2="0.263456" y2="0.0028" />
      <line x1="0.255456" y1="-0.0" x2="0.255456" y2="0.0028" />
    </g>
    <g fill="url(#hatch_servo)" stroke="none" stroke-width="0" id="servo_fill">
      <circle cx="0.038" cy="0.0" r="0.004" />
      <path d="M 0.122001,0.0124 L 0.076601,0.0124 L 0.076601,-0.0124 L 0.122001,-0.0124 L 0.122001,0.0124" />
      <path d="M 0.149701,0.01335 L 0.149701,0.0124 L 0.180401,0.0124 L 0.180401,0.01335 L 0.149701,0.01335" />
      <path d="M 0.180401,-0.0124 L 0.149701,-0.0124 L 0.149701,-0.01335 L 0.180401,-0.01335 L 0.180401,-0.0124" />
    </g>
    <g fill="none" stroke="rgb(60,60,60)" stroke-opacity="0.4" stroke-width="0.00015" id="servo_hidden" stroke-dasharray="0.0018 0.00045">
      <line x1="0.224271" y1="-0.03178" x2="0.224271" y2="2e-05" />
      <line x1="0.22424" y1="-0.03182" x2="0.224271" y2="-0.03178" />
      <line x1="0.255456" y1="2e-05" x2="0.263456" y2="2e-05" />
      <path d="M 0.263456,-0.0 A 0.0040000000000000036,6.381814892975729e-06 -1.8136319151190684e-20 0,1 0.255456,-0.0" />
      <line x1="0.224271" y1="-0.03178" x2="0.254271" y2="-0.03178" />
      <line x1="0.254271" y1="-0.03178" x2="0.269671" y2="-0.03178" />
      <line x1="0.223571" y1="-0.03598" x2="0.25424" y2="-0.03598" />
      <line x1="0.254271" y1="-0.03182" x2="0.254271" y2="-0.03178" />
      <line x1="0.22424" y1="-0.03178" x2="0.224271" y2="-0.03178" />
      <line x1="0.223571" y1="-0.03598" x2="0.223571" y2="-0.03182" />
      <line x1="0.223571" y1="-0.03598" x2="0.223572" y2="-0.035979" />
      <line x1="0.223572" y1="-0.035979" x2="0.254272" y2="-0.035979" />
      <line x1="0.254271" y1="-0.03178" x2="0.254272" y2="-0.031779" />
      <line x1="0.254272" y1="-0.03182" x2="0.254272" y2="-0.031779" />
      <line x1="0.22424" y1="-0.031779" x2="0.254272" y2="-0.031779" />
      <line x1="0.223572" y1="-0.035979" x2="0.223572" y2="-0.031779" />
      <line x1="0.22354" y1="-0.03602" x2="0.25424" y2="-0.03602" />
      <line x1="0.22354" y1="-0.03602" x2="0.22354" y2="-0.03182" />
      <line x1="0.223539" y1="-0.036021" x2="0.22354" y2="-0.03602" />
    </g>
    <g fill="none" stroke="rgb(220,60,40)" stroke-width="0.00035" id="coupler">
      <line x1="0.065801" y1="-0.010789" x2="0.038" y2="-0.010789" />
      <line x1="0.065801" y1="-0.010789" x2="0.065801" y2="-0.009789" />
      <line x1="0.038" y1="-0.010789" x2="0.038" y2="-0.009789" />
      <line x1="0.065801" y1="-0.009789" x2="0.055801" y2="-0.009789" />
      <path d="M 0.038,0.009789 A 0.009789105352524866,0.009789105352524866 0.0 1,1 0.038,-0.009789" />
      <line x1="0.055801" y1="-0.009789" x2="0.055801" y2="0.009789" />
      <line x1="0.038" y1="0.009789" x2="0.038" y2="0.010789" />
      <line x1="0.065801" y1="0.009789" x2="0.055801" y2="0.009789" />
      <line x1="0.065801" y1="0.010789" x2="0.038" y2="0.010789" />
      <line x1="0.065801" y1="0.009789" x2="0.065801" y2="0.010789" />
      <circle cx="0.03305" cy="-0.00495" r="0.00125" />
      <circle cx="0.038" cy="0.0" r="0.0053" />
      <circle cx="0.04295" cy="-0.00495" r="0.00125" />
      <circle cx="0.03305" cy="0.00495" r="0.00125" />
      <circle cx="0.04295" cy="0.00495" r="0.00125" />
      <line x1="0.065801" y1="-0.009789" x2="0.055801" y2="-0.009789" />
      <line x1="0.055801" y1="-0.009789" x2="0.055801" y2="0.009789" />
      <line x1="0.065801" y1="0.009789" x2="0.055801" y2="0.009789" />
      <line x1="0.065801" y1="0.009789" x2="0.065801" y2="-0.009789" />
      <line x1="0.139601" y1="0.009789" x2="0.139601" y2="-0.009789" />
      <line x1="0.129601" y1="-0.009789" x2="0.139601" y2="-0.009789" />
      <line x1="0.129601" y1="0.009789" x2="0.129601" y2="-0.009789" />
      <line x1="0.129601" y1="0.009789" x2="0.139601" y2="0.009789" />
      <line x1="0.213402" y1="-0.010789" x2="0.185601" y2="-0.010789" />
      <line x1="0.213402" y1="-0.010789" x2="0.213402" y2="0.010789" />
      <line x1="0.213402" y1="0.010789" x2="0.185601" y2="0.010789" />
      <line x1="0.185601" y1="0.009789" x2="0.185601" y2="0.010789" />
      <path d="M 0.185601,0.009789 A 0.009789105352524866,0.009789105352524866 0.0 1,1 0.185601,-0.009789" />
      <line x1="0.185601" y1="-0.010789" x2="0.185601" y2="-0.009789" />
      <circle cx="0.180651" cy="-0.00495" r="0.00125" />
      <circle cx="0.185601" cy="0.0" r="0.0053" />
      <circle cx="0.190551" cy="-0.00495" r="0.00125" />
      <circle cx="0.180651" cy="0.00495" r="0.00125" />
      <circle cx="0.190551" cy="0.00495" r="0.00125" />
      <line x1="0.287273" y1="0.012783" x2="0.259473" y2="0.012783" />
      <line x1="0.287273" y1="0.012783" x2="0.287239" y2="0.012817" />
      <line x1="0.259473" y1="0.012783" x2="0.259471" y2="0.012784" />
      <line x1="0.287239" y1="0.012817" x2="0.259438" y2="0.012817" />
      <path d="M 0.25944,0.012816 A 0.009789105352524866,1.5711473886037303e-05 -2.9294789267481595e-20 0,1 0.249667,0.0128" />
      <path d="M 0.249667,0.0128 A 0.009789105352524866,1.5711473886037303e-05 -2.9294789267481595e-20 0,1 0.259471,0.012784" />
      <line x1="0.25944" y1="0.012816" x2="0.259438" y2="0.012817" />
      <path d="M 0.255764,0.012792 A 0.0012500000000000011,2.0062448661338747e-06 -2.9294789267481595e-20 0,1 0.253264,0.012792" />
      <path d="M 0.253264,0.012792 A 0.0012500000000000011,2.0062448661338747e-06 -2.9294789267481595e-20 0,1 0.255764,0.012792" />
      <path d="M 0.264756,0.0128 A 0.0053,8.50647823240762e-06 -2.9294789267481595e-20 0,1 0.254156,0.0128" />
      <path d="M 0.254156,0.0128 A 0.0053,8.50647823240762e-06 -2.9294789267481595e-20 0,1 0.264756,0.0128" />
      <path d="M 0.265664,0.012792 A 0.0012500000000000011,2.0062448661338747e-06 -2.9294789267481595e-20 0,1 0.263164,0.012792" />
      <path d="M 0.263164,0.012792 A 0.0012500000000000011,2.0062448661338747e-06 -2.9294789267481595e-20 0,1 0.265664,0.012792" />
      <path d="M 0.255748,0.012808 A 0.0012500000000000011,2.0062448661338747e-06 -2.9294789267481595e-20 0,1 0.253248,0.012808" />
      <path d="M 0.253248,0.012808 A 0.0012500000000000011,2.0062448661338747e-06 -2.9294789267481595e-20 0,1 0.255748,0.012808" />
      <path d="M 0.265648,0.012808 A 0.0012500000000000011,2.0062448661338747e-06 -2.9294789267481595e-20 0,1 0.263148,0.012808" />
      <path d="M 0.263148,0.012808 A 0.0012500000000000011,2.0062448661338747e-06 -2.9294789267481595e-20 0,1 0.265648,0.012808" />
      <line x1="0.287273" y1="0.002783" x2="0.259473" y2="0.002783" />
      <line x1="0.287273" y1="0.002783" x2="0.287273" y2="0.012783" />
      <line x1="0.259473" y1="0.002783" x2="0.259473" y2="0.012783" />
      <line x1="0.287272" y1="-0.034916" x2="0.287272" y2="0.002783" />
      <line x1="0.287273" y1="-0.034917" x2="0.287272" y2="-0.034916" />
      <line x1="0.287273" y1="-0.044917" x2="0.287273" y2="-0.034917" />
      <line x1="0.259471" y1="0.002784" x2="0.259471" y2="0.012784" />
      <line x1="0.259473" y1="0.002783" x2="0.259471" y2="0.002784" />
      <line x1="0.259438" y1="0.012816" x2="0.259438" y2="0.012817" />
      <path d="M 0.249667,0.0028 A 0.009789105352524866,1.5711473886037303e-05 -2.9294789267481595e-20 0,1 0.259471,0.002784" />
      <line x1="0.277272" y1="-0.034916" x2="0.277272" y2="0.002783" />
      <line x1="0.277272" y1="-0.034916" x2="0.287272" y2="-0.034916" />
      <line x1="0.287273" y1="-0.034917" x2="0.259473" y2="-0.034917" />
      <line x1="0.259473" y1="-0.034917" x2="0.259471" y2="-0.034916" />
      <path d="M 0.25944,-0.034884 A 0.009789105352524866,1.5711473886037303e-05 -2.9294789267481595e-20 0,1 0.249667,-0.0349" />
      <path d="M 0.249667,-0.0349 A 0.009789105352524866,1.5711473886037303e-05 -2.9294789267481595e-20 0,1 0.259471,-0.034916" />
      <line x1="0.277241" y1="-0.034884" x2="0.277272" y2="-0.034916" />
      <line x1="0.25944" y1="-0.034884" x2="0.259438" y2="-0.034883" />
      <line x1="0.277241" y1="-0.034883" x2="0.259438" y2="-0.034883" />
      <path d="M 0.255764,-0.034908 A 0.0012500000000000011,2.0062448661338747e-06 -2.9294789267481595e-20 0,1 0.253264,-0.034908" />
      <path d="M 0.253264,-0.034908 A 0.0012500000000000011,2.0062448661338747e-06 -2.9294789267481595e-20 0,1 0.255764,-0.034908" />
      <path d="M 0.264756,-0.0349 A 0.0053,8.50647823240762e-06 -2.9294789267481595e-20 0,1 0.254156,-0.0349" />
      <path d="M 0.254156,-0.0349 A 0.0053,8.50647823240762e-06 -2.9294789267481595e-20 0,1 0.264756,-0.0349" />
      <path d="M 0.265664,-0.034908 A 0.0012500000000000011,2.0062448661338747e-06 -2.9294789267481595e-20 0,1 0.263164,-0.034908" />
      <path d="M 0.263164,-0.034908 A 0.0012500000000000011,2.0062448661338747e-06 -2.9294789267481595e-20 0,1 0.265664,-0.034908" />
      <path d="M 0.255748,-0.034892 A 0.0012500000000000011,2.0062448661338747e-06 -2.9294789267481595e-20 0,1 0.253248,-0.034892" />
      <path d="M 0.253248,-0.034892 A 0.0012500000000000011,2.0062448661338747e-06 -2.9294789267481595e-20 0,1 0.255748,-0.034892" />
      <path d="M 0.265648,-0.034892 A 0.0012500000000000011,2.0062448661338747e-06 -2.9294789267481595e-20 0,1 0.263148,-0.034892" />
      <path d="M 0.263148,-0.034892 A 0.0012500000000000011,2.0062448661338747e-06 -2.9294789267481595e-20 0,1 0.265648,-0.034892" />
      <line x1="0.287273" y1="-0.044917" x2="0.259473" y2="-0.044917" />
      <line x1="0.259473" y1="-0.044917" x2="0.259473" y2="-0.034917" />
      <path d="M 0.249667,-0.0449 A 0.009789105352524866,1.5711473886037303e-05 -2.9294789267481595e-20 0,1 0.259471,-0.044916" />
      <line x1="0.259473" y1="-0.044917" x2="0.259471" y2="-0.044916" />
      <line x1="0.259438" y1="-0.034884" x2="0.259438" y2="-0.034883" />
      <line x1="0.277241" y1="-0.034884" x2="0.277241" y2="0.002783" />
      <line x1="0.259471" y1="-0.044916" x2="0.259471" y2="-0.034916" />
      <line x1="0.249667" y1="0.0028" x2="0.249667" y2="0.0128" />
      <line x1="0.249667" y1="-0.0449" x2="0.249667" y2="-0.0349" />
    </g>
    <g fill="url(#hatch_coupler)" stroke="none" stroke-width="0" id="coupler_fill">
      <path d="M 0.065801,-0.010789 L 0.038,-0.010789 L 0.038,-0.009789 A 0.009789105352524866,0.009789105352524866 0.0 1,0 0.038,0.009789 L 0.038,0.010789 L 0.065801,0.010789 L 0.065801,0.009789 L 0.055801,0.009789 L 0.055801,-0.009789 L 0.065801,-0.009789 L 0.065801,-0.010789 M 0.0343,-0.00495 A 0.00125,0.00125 0.0 0,1 0.0318,-0.00495 A 0.00125,0.00125 0.0 0,1 0.0343,-0.00495 M 0.0433,0.0 A 0.0053,0.0053 0.0 0,1 0.0327,0.0 A 0.0053,0.0053 0.0 0,1 0.0433,-0.0 M 0.0442,-0.00495 A 0.0012500000000000011,0.0012500000000000011 0.0 0,1 0.0417,-0.00495 A 0.0012500000000000011,0.0012500000000000011 0.0 0,1 0.0442,-0.00495 M 0.0343,0.00495 A 0.00125,0.00125 0.0 0,1 0.0318,0.00495 A 0.00125,0.00125 0.0 0,1 0.0343,0.00495 M 0.0442,0.00495 A 0.0012500000000000011,0.0012500000000000011 0.0 0,1 0.0417,0.00495 A 0.0012500000000000011,0.0012500000000000011 0.0 0,1 0.0442,0.00495" />
      <path d="M 0.055801,-0.009789 L 0.065801,-0.009789 L 0.065801,0.009789 L 0.055801,0.009789 L 0.055801,-0.009789" />
      <path d="M 0.139601,-0.009789 L 0.139601,0.009789 L 0.129601,0.009789 L 0.129601,-0.009789 L 0.139601,-0.009789" />
      <path d="M 0.185601,-0.010789 L 0.213402,-0.010789 L 0.213402,0.010789 L 0.185601,0.010789 L 0.185601,0.009789 A 0.009789105352524866,0.009789105352524866 0.0 1,1 0.185601,-0.009789 L 0.185601,-0.010789 M 0.181901,-0.00495 A 0.0012500000000000011,0.0012500000000000011 0.0 0,0 0.179401,-0.00495 A 0.0012500000000000011,0.0012500000000000011 0.0 0,0 0.181901,-0.00495 M 0.190901,-0.0 A 0.0053,0.0053 0.0 0,0 0.180301,0.0 A 0.0053,0.0053 0.0 0,0 0.190901,0.0 M 0.191801,-0.00495 A 0.0012500000000000011,0.0012500000000000011 0.0 0,0 0.189301,-0.00495 A 0.0012500000000000011,0.0012500000000000011 0.0 0,0 0.191801,-0.00495 M 0.181901,0.00495 A 0.0012500000000000011,0.0012500000000000011 0.0 0,0 0.179401,0.00495 A 0.0012500000000000011,0.0012500000000000011 0.0 0,0 0.181901,0.00495 M 0.191801,0.00495 A 0.0012500000000000011,0.0012500000000000011 0.0 0,0 0.189301,0.00495 A 0.0012500000000000011,0.0012500000000000011 0.0 0,0 0.191801,0.00495" />
    </g>
    <g fill="none" stroke="rgb(220,60,40)" stroke-opacity="0.4" stroke-width="0.00015" id="coupler_hidden" stroke-dasharray="0.0018 0.00045">
      <line x1="0.287273" y1="0.002783" x2="0.287272" y2="0.002784" />
      <line x1="0.287272" y1="0.002783" x2="0.287272" y2="0.002784" />
      <line x1="0.287273" y1="-0.044917" x2="0.287239" y2="-0.044883" />
      <line x1="0.287239" y1="-0.044883" x2="0.287239" y2="-0.034883" />
      <line x1="0.287241" y1="-0.034884" x2="0.287239" y2="-0.034883" />
      <line x1="0.287241" y1="-0.034884" x2="0.287241" y2="0.002816" />
      <line x1="0.287241" y1="0.002816" x2="0.287239" y2="0.002817" />
      <line x1="0.287239" y1="0.002817" x2="0.287239" y2="0.012817" />
      <line x1="0.287239" y1="0.002817" x2="0.259438" y2="0.002817" />
      <line x1="0.259438" y1="0.002817" x2="0.259438" y2="0.012816" />
      <path d="M 0.25944,0.002816 A 0.009789105352524866,1.5711473886037303e-05 -2.9294789267481595e-20 0,1 0.249667,0.0028" />
      <line x1="0.25944" y1="0.002816" x2="0.25944" y2="0.012816" />
      <line x1="0.25944" y1="0.002816" x2="0.259438" y2="0.002817" />
      <path d="M 0.255764,0.002792 A 0.0012500000000000011,2.0062448661338747e-06 -2.9294789267481595e-20 0,1 0.253264,0.002792" />
      <path d="M 0.253264,0.002792 A 0.0012500000000000011,2.0062448661338747e-06 -2.9294789267481595e-20 0,1 0.255764,0.002792" />
      <path d="M 0.264756,0.0028 A 0.0053,8.50647823240762e-06 -2.9294789267481595e-20 0,1 0.254156,0.0028" />
      <path d="M 0.254156,0.0028 A 0.0053,8.50647823240762e-06 -2.9294789267481595e-20 0,1 0.264756,0.0028" />
      <path d="M 0.265664,0.002792 A 0.0012500000000000011,2.0062448661338747e-06 -2.9294789267481595e-20 0,1 0.263164,0.002792" />
      <path d="M 0.263164,0.002792 A 0.0012500000000000011,2.0062448661338747e-06 -2.9294789267481595e-20 0,1 0.265664,0.002792" />
      <path d="M 0.255748,0.002808 A 0.0012500000000000011,2.0062448661338747e-06 -2.9294789267481595e-20 0,1 0.253248,0.002808" />
      <path d="M 0.253248,0.002808 A 0.0012500000000000011,2.0062448661338747e-06 -2.9294789267481595e-20 0,1 0.255748,0.002808" />
      <path d="M 0.265648,0.002808 A 0.0012500000000000011,2.0062448661338747e-06 -2.9294789267481595e-20 0,1 0.263148,0.002808" />
      <path d="M 0.263148,0.002808 A 0.0012500000000000011,2.0062448661338747e-06 -2.9294789267481595e-20 0,1 0.265648,0.002808" />
      <line x1="0.287272" y1="0.002784" x2="0.277272" y2="0.002784" />
      <line x1="0.277272" y1="0.002784" x2="0.277241" y2="0.002816" />
      <line x1="0.287241" y1="0.002816" x2="0.277241" y2="0.002816" />
      <line x1="0.277272" y1="0.002783" x2="0.277272" y2="0.002784" />
      <line x1="0.277241" y1="-0.034884" x2="0.287241" y2="-0.034884" />
      <line x1="0.287239" y1="-0.034883" x2="0.277241" y2="-0.034883" />
      <line x1="0.287239" y1="-0.044883" x2="0.259438" y2="-0.044883" />
      <line x1="0.25944" y1="-0.044884" x2="0.259438" y2="-0.044883" />
      <path d="M 0.25944,-0.044884 A 0.009789105352524866,1.5711473886037303e-05 -2.9294789267481595e-20 0,1 0.249667,-0.0449" />
      <path d="M 0.255764,-0.044908 A 0.0012500000000000011,2.0062448661338747e-06 -2.9294789267481595e-20 0,1 0.253264,-0.044908" />
      <path d="M 0.253264,-0.044908 A 0.0012500000000000011,2.0062448661338747e-06 -2.9294789267481595e-20 0,1 0.255764,-0.044908" />
      <path d="M 0.265664,-0.044908 A 0.0012500000000000011,2.0062448661338747e-06 -2.9294789267481595e-20 0,1 0.263164,-0.044908" />
      <path d="M 0.263164,-0.044908 A 0.0012500000000000011,2.0062448661338747e-06 -2.9294789267481595e-20 0,1 0.265664,-0.044908" />
      <path d="M 0.255748,-0.044892 A 0.0012500000000000011,2.0062448661338747e-06 -2.9294789267481595e-20 0,1 0.253248,-0.044892" />
      <path d="M 0.253248,-0.044892 A 0.0012500000000000011,2.0062448661338747e-06 -2.9294789267481595e-20 0,1 0.255748,-0.044892" />
      <path d="M 0.264756,-0.0449 A 0.0053,8.50647823240762e-06 -2.9294789267481595e-20 0,1 0.254156,-0.0449" />
      <path d="M 0.254156,-0.0449 A 0.0053,8.50647823240762e-06 -2.9294789267481595e-20 0,1 0.264756,-0.0449" />
      <path d="M 0.265648,-0.044892 A 0.0012500000000000011,2.0062448661338747e-06 -2.9294789267481595e-20 0,1 0.263148,-0.044892" />
      <path d="M 0.263148,-0.044892 A 0.0012500000000000011,2.0062448661338747e-06 -2.9294789267481595e-20 0,1 0.265648,-0.044892" />
      <line x1="0.259438" y1="-0.044883" x2="0.259438" y2="-0.034884" />
      <line x1="0.277241" y1="0.002783" x2="0.277241" y2="0.002816" />
      <line x1="0.25944" y1="-0.044884" x2="0.25944" y2="-0.034884" />
      <line x1="0.255764" y1="0.002792" x2="0.255764" y2="0.012792" />
      <line x1="0.253264" y1="0.002792" x2="0.253264" y2="0.012792" />
      <line x1="0.264756" y1="0.0028" x2="0.264756" y2="0.0128" />
      <line x1="0.254156" y1="0.0028" x2="0.254156" y2="0.0128" />
      <line x1="0.265664" y1="0.002792" x2="0.265664" y2="0.012792" />
      <line x1="0.263164" y1="0.002792" x2="0.263164" y2="0.012792" />
      <line x1="0.255748" y1="0.002808" x2="0.255748" y2="0.012808" />
      <line x1="0.253248" y1="0.002808" x2="0.253248" y2="0.012808" />
      <line x1="0.265648" y1="0.002808" x2="0.265648" y2="0.012808" />
      <line x1="0.263148" y1="0.002808" x2="0.263148" y2="0.012808" />
      <line x1="0.255764" y1="-0.044908" x2="0.255764" y2="-0.034908" />
      <line x1="0.253264" y1="-0.044908" x2="0.253264" y2="-0.034908" />
      <line x1="0.264756" y1="-0.0449" x2="0.264756" y2="-0.0349" />
      <line x1="0.254156" y1="-0.0449" x2="0.254156" y2="-0.0349" />
      <line x1="0.265664" y1="-0.044908" x2="0.265664" y2="-0.034908" />
      <line x1="0.263164" y1="-0.044908" x2="0.263164" y2="-0.034908" />
      <line x1="0.255748" y1="-0.044892" x2="0.255748" y2="-0.034892" />
      <line x1="0.253248" y1="-0.044892" x2="0.253248" y2="-0.034892" />
      <line x1="0.265648" y1="-0.044892" x2="0.265648" y2="-0.034892" />
      <line x1="0.263148" y1="-0.044892" x2="0.263148" y2="-0.034892" />
    </g>
  </g>
  <text x="0.032900" y="-0.020875" text-anchor="middle" font-family="'Input Sans Narrow', 'DejaVu Sans', Arial, sans-serif" font-size="0.002500" font-weight="bold" fill="#333">A-A</text>
  <text x="0.032900" y="-0.017375" text-anchor="middle" font-family="'Input Sans Narrow', 'DejaVu Sans', Arial, sans-serif" font-size="0.001800" fill="#888">front_horn</text>
  <line x1="0.000000" y1="0.016000" x2="0.000000" y2="0.019000" stroke="#555" stroke-width="0.000140" stroke-opacity="0.5"/>
  <line x1="0.065801" y1="0.016000" x2="0.065801" y2="0.019000" stroke="#555" stroke-width="0.000140" stroke-opacity="0.5"/>
  <line x1="0.000000" y1="0.017400" x2="0.000000" y2="0.019000" stroke="#555" stroke-width="0.000200"/>
  <line x1="0.065801" y1="0.017400" x2="0.065801" y2="0.019000" stroke="#555" stroke-width="0.000200"/>
  <line x1="0.000000" y1="0.018200" x2="0.065801" y2="0.018200" stroke="#555" stroke-width="0.000200"/>
  <polygon points="0.000000,0.018200 0.001500,0.017600 0.001500,0.018800" fill="#555"/>
  <polygon points="0.065801,0.018200 0.064301,0.017600 0.064301,0.018800" fill="#555"/>
  <text x="0.032900" y="0.017000" text-anchor="middle" font-family="'Input Sans Narrow', 'DejaVu Sans', Arial, sans-serif" font-size="0.001600" fill="#555">65.8</text>
  <line x1="0.066601" y1="-0.015200" x2="0.069601" y2="-0.015200" stroke="#555" stroke-width="0.000140" stroke-opacity="0.5"/>
  <line x1="0.066601" y1="0.015200" x2="0.069601" y2="0.015200" stroke="#555" stroke-width="0.000140" stroke-opacity="0.5"/>
  <line x1="0.068001" y1="-0.015200" x2="0.069601" y2="-0.015200" stroke="#555" stroke-width="0.000200"/>
  <line x1="0.068001" y1="0.015200" x2="0.069601" y2="0.015200" stroke="#555" stroke-width="0.000200"/>
  <line x1="0.068801" y1="-0.015200" x2="0.068801" y2="0.015200" stroke="#555" stroke-width="0.000200"/>
  <polygon points="0.068801,-0.015200 0.068201,-0.013700 0.069401,-0.013700" fill="#555"/>
  <polygon points="0.068801,0.015200 0.068201,0.013700 0.069401,0.013700" fill="#555"/>
  <text x="0.070301" y="0.000000" text-anchor="middle" dominant-baseline="central" font-family="'Input Sans Narrow', 'DejaVu Sans', Arial, sans-serif" font-size="0.001600" fill="#555" transform="rotate(-90 0.070301 0.000000)">30.4</text>
  <text x="0.106701" y="-0.020875" text-anchor="middle" font-family="'Input Sans Narrow', 'DejaVu Sans', Arial, sans-serif" font-size="0.002500" font-weight="bold" fill="#333">B-B</text>
  <text x="0.106701" y="-0.017375" text-anchor="middle" font-family="'Input Sans Narrow', 'DejaVu Sans', Arial, sans-serif" font-size="0.001800" fill="#888">mid_body</text>
  <text x="0.180502" y="-0.020875" text-anchor="middle" font-family="'Input Sans Narrow', 'DejaVu Sans', Arial, sans-serif" font-size="0.002500" font-weight="bold" fill="#333">C-C</text>
  <text x="0.180502" y="-0.017375" text-anchor="middle" font-family="'Input Sans Narrow', 'DejaVu Sans', Arial, sans-serif" font-size="0.001800" fill="#888">rear_horn</text>
  <text x="0.254338" y="-0.020875" text-anchor="middle" font-family="'Input Sans Narrow', 'DejaVu Sans', Arial, sans-serif" font-size="0.002500" font-weight="bold" fill="#333">side_XZ</text>
  <line x1="0.221402" y1="0.045717" x2="0.221402" y2="0.048717" stroke="#555" stroke-width="0.000140" stroke-opacity="0.5"/>
  <line x1="0.287273" y1="0.045717" x2="0.287273" y2="0.048717" stroke="#555" stroke-width="0.000140" stroke-opacity="0.5"/>
  <line x1="0.221402" y1="0.047117" x2="0.221402" y2="0.048717" stroke="#555" stroke-width="0.000200"/>
  <line x1="0.287273" y1="0.047117" x2="0.287273" y2="0.048717" stroke="#555" stroke-width="0.000200"/>
  <line x1="0.221402" y1="0.047917" x2="0.287273" y2="0.047917" stroke="#555" stroke-width="0.000200"/>
  <polygon points="0.221402,0.047917 0.222902,0.047317 0.222902,0.048517" fill="#555"/>
  <polygon points="0.287273,0.047917 0.285773,0.047317 0.285773,0.048517" fill="#555"/>
  <text x="0.254338" y="0.046717" text-anchor="middle" font-family="'Input Sans Narrow', 'DejaVu Sans', Arial, sans-serif" font-size="0.001600" fill="#555">65.9</text>
  <line x1="0.288073" y1="-0.012817" x2="0.291073" y2="-0.012817" stroke="#555" stroke-width="0.000140" stroke-opacity="0.5"/>
  <line x1="0.288073" y1="0.044917" x2="0.291073" y2="0.044917" stroke="#555" stroke-width="0.000140" stroke-opacity="0.5"/>
  <line x1="0.289473" y1="-0.012817" x2="0.291073" y2="-0.012817" stroke="#555" stroke-width="0.000200"/>
  <line x1="0.289473" y1="0.044917" x2="0.291073" y2="0.044917" stroke="#555" stroke-width="0.000200"/>
  <line x1="0.290273" y1="-0.012817" x2="0.290273" y2="0.044917" stroke="#555" stroke-width="0.000200"/>
  <polygon points="0.290273,-0.012817 0.289673,-0.011317 0.290873,-0.011317" fill="#555"/>
  <polygon points="0.290273,0.044917 0.289673,0.043417 0.290873,0.043417" fill="#555"/>
  <text x="0.291773" y="0.016050" text-anchor="middle" dominant-baseline="central" font-family="'Input Sans Narrow', 'DejaVu Sans', Arial, sans-serif" font-size="0.001600" fill="#555" transform="rotate(-90 0.291773 0.016050)">57.7</text>
  <line x1="0.218402" y1="-0.002800" x2="0.290273" y2="-0.002800" stroke="#555" stroke-width="0.000250" stroke-dasharray="0.002500,0.000800,0.000500,0.000800"/>
  <text x="0.216902" y="-0.002200" text-anchor="end" font-family="'Input Sans Narrow', 'DejaVu Sans', Arial, sans-serif" font-size="0.002000" font-weight="bold" fill="#555">A</text>
  <text x="0.291773" y="-0.002200" text-anchor="start" font-family="'Input Sans Narrow', 'DejaVu Sans', Arial, sans-serif" font-size="0.002000" font-weight="bold" fill="#555">A</text>
  <line x1="0.218402" y1="0.016050" x2="0.290273" y2="0.016050" stroke="#555" stroke-width="0.000250" stroke-dasharray="0.002500,0.000800,0.000500,0.000800"/>
  <text x="0.216902" y="0.016650" text-anchor="end" font-family="'Input Sans Narrow', 'DejaVu Sans', Arial, sans-serif" font-size="0.002000" font-weight="bold" fill="#555">B</text>
  <text x="0.291773" y="0.016650" text-anchor="start" font-family="'Input Sans Narrow', 'DejaVu Sans', Arial, sans-serif" font-size="0.002000" font-weight="bold" fill="#555">B</text>
  <line x1="0.218402" y1="0.034900" x2="0.290273" y2="0.034900" stroke="#555" stroke-width="0.000250" stroke-dasharray="0.002500,0.000800,0.000500,0.000800"/>
  <text x="0.216902" y="0.035500" text-anchor="end" font-family="'Input Sans Narrow', 'DejaVu Sans', Arial, sans-serif" font-size="0.002000" font-weight="bold" fill="#555">C</text>
  <text x="0.291773" y="0.035500" text-anchor="start" font-family="'Input Sans Narrow', 'DejaVu Sans', Arial, sans-serif" font-size="0.002000" font-weight="bold" fill="#555">C</text>
  <text x="-0.001175" y="0.053092" font-family="'Input Sans Narrow', 'DejaVu Sans', Arial, sans-serif" font-size="0.003500" font-weight="bold" fill="#222">coupler_assembly</text>
  <line x1="-0.001175" y1="0.057092" x2="0.008825" y2="0.057092" stroke="#333" stroke-width="0.000350"/>
  <line x1="-0.001175" y1="0.056092" x2="-0.001175" y2="0.058092" stroke="#333" stroke-width="0.000250"/>
  <line x1="0.008825" y1="0.056092" x2="0.008825" y2="0.058092" stroke="#333" stroke-width="0.000250"/>
  <text x="0.010325" y="0.057792" font-family="'Input Sans Narrow', 'DejaVu Sans', Arial, sans-serif" font-size="0.001800" fill="#888">10 mm</text>
  <rect x="0.028825" y="0.050592" width="0.004000" height="0.002500" fill="url(#hatch_cradle)" stroke="rgb(50,120,190)" stroke-width="0.000300"/>
  <text x="0.034325" y="0.052592" font-family="'Input Sans Narrow', 'DejaVu Sans', Arial, sans-serif" font-size="0.001800" fill="rgb(50,120,190)">cradle</text>
  <rect x="0.028825" y="0.054092" width="0.004000" height="0.002500" fill="url(#hatch_servo)" stroke="rgb(60,60,60)" stroke-width="0.000300"/>
  <text x="0.034325" y="0.056092" font-family="'Input Sans Narrow', 'DejaVu Sans', Arial, sans-serif" font-size="0.001800" fill="rgb(60,60,60)">servo</text>
  <rect x="0.028825" y="0.057592" width="0.004000" height="0.002500" fill="url(#hatch_coupler)" stroke="rgb(220,60,40)" stroke-width="0.000300"/>
  <text x="0.034325" y="0.059592" font-family="'Input Sans Narrow', 'DejaVu Sans', Arial, sans-serif" font-size="0.001800" fill="rgb(220,60,40)">coupler</text>
</svg>