<?xml version='1.0' encoding='utf-8'?>
<svg width="228.94mm" height="95.21mm" viewBox="-0.003175 -0.024375 0.228940 0.095211" version="1.1" xmlns="http://www.w3.org/2000/svg">
  <defs>
    <pattern id="hatch_servo" width="0.0012" height="0.0012" patternUnits="userSpaceOnUse" patternTransform="rotate(45)">
      <line x1="0" y1="0" x2="0" y2="0.0012" stroke="rgb(60,60,60)" stroke-width="0.0001" stroke-opacity="0.6"/>
    </pattern>
    <pattern id="hatch_cradle" width="0.0012" height="0.0012" patternUnits="userSpaceOnUse" patternTransform="rotate(75)">
      <line x1="0" y1="0" x2="0" y2="0.0012" stroke="rgb(50,120,190)" stroke-width="0.0001" stroke-opacity="0.6"/>
    </pattern>
  </defs>
  <g transform="scale(1,-1)" stroke-linecap="round">
    <g fill="none" stroke="rgb(60,60,60)" stroke-width="0.00035" id="servo">
      <path d="M 0.022326,0.0124 A 0.004,0.004 180.0 0,1 0.018326,0.0084" />
      <line x1="0.022326" y1="0.0124" x2="0.059726" y2="0.0124" />
      <path d="M 0.063726,0.0084 A 0.004,0.004 0.0 0,1 0.059726,0.0124" />
      <line x1="0.063726" y1="0.0084" x2="0.063726" y2="-0.0084" />
      <path d="M 0.059726,-0.0124 A 0.004,0.004 0.0 0,1 0.063726,-0.0084" />
      <line x1="0.022326" y1="-0.0124" x2="0.059726" y2="-0.0124" />
      <path d="M 0.018326,-0.0084 A 0.004,0.004 180.0 0,1 0.022326,-0.0124" />
      <line x1="0.018326" y1="0.0084" x2="0.018326" y2="-0.0084" />
      <path d="M 0.078526,0.0124 A 0.004,0.004 180.0 0,1 0.074526,0.0084" />
      <line x1="0.078526" y1="0.0124" x2="0.115926" y2="0.0124" />
      <path d="M 0.119926,0.0084 A 0.004,0.004 0.0 0,1 0.115926,0.0124" />
      <line x1="0.119926" y1="0.0084" x2="0.119926" y2="-0.0084" />
      <path d="M 0.115926,-0.0124 A 0.004,0.004 0.0 0,1 0.119926,-0.0084" />
      <line x1="0.078526" y1="-0.0124" x2="0.115926" y2="-0.0124" />
      <path d="M 0.074526,-0.0084 A 0.004,0.004 180.0 0,1 0.078526,-0.0124" />
      <line x1="0.074526" y1="0.0084" x2="0.074526" y2="-0.0084" />
      <line x1="0.13077" y1="-0.048527" x2="0.13077" y2="-0.015927" />
      <line x1="0.13077" y1="-0.015927" x2="0.13079" y2="-0.015873" />
      <path d="M 0.13077,-0.015927 A 0.004,1.2758326567258113e-05 2.7972745530007117e-20 0,1 0.134765,-0.01594" />
      <line x1="0.134765" y1="-0.048539" x2="0.134765" y2="-0.01594" />
      <path d="M 0.133746,-0.048539 A 0.004,1.2758326567258113e-05 2.7972745530007117e-20 0,1 0.134765,-0.048539" />
      <line x1="0.133746" y1="-0.048539" x2="0.133746" y2="-0.040639" />
      <path d="M 0.131087,-0.040632 A 0.004,1.2758326567258113e-05 5.045731239565665e-20 0,1 0.133746,-0.040639" />
      <line x1="0.131087" y1="-0.048532" x2="0.131087" y2="-0.040632" />
      <path d="M 0.13077,-0.048527 A 0.004,1.2758326567258113e-05 2.7972745530007117e-20 0,1 0.131087,-0.048532" />
      <line x1="0.17617" y1="-0.048527" x2="0.17619" y2="-0.048473" />
      <path d="M 0.17617,-0.048527 A 0.004,1.2758326567258113e-05 -180.0 0,0 0.173165,-0.048539" />
      <path d="M 0.133746,-0.048526 A 0.0021,6.698121447810509e-06 5.045731239565665e-20 0,1 0.131087,-0.048532" />
      <path d="M 0.13079,-0.015873 A 0.004,1.2758326567258113e-05 -180.0 0,0 0.134795,-0.01586" />
      <line x1="0.134765" y1="-0.01594" x2="0.172165" y2="-0.01594" />
      <line x1="0.134795" y1="-0.01586" x2="0.15597" y2="-0.015861" />
      <path d="M 0.17617,-0.015927 A 0.004,1.2758326567258113e-05 -180.0 0,0 0.172165,-0.01594" />
      <path d="M 0.17619,-0.015873 A 0.004,1.2758326567258113e-05 2.7972745530007117e-20 0,1 0.175989,-0.015869" />
      <line x1="0.17617" y1="-0.015927" x2="0.17619" y2="-0.015873" />
      <path d="M 0.15597,-0.015926 A 0.002,6.379163283629056e-06 2.7972745530007117e-20 0,1 0.157968,-0.015932" />
      <line x1="0.157968" y1="-0.015932" x2="0.173968" y2="-0.015932" />
      <path d="M 0.17597,-0.015926 A 0.002,6.379163283629056e-06 -180.0 0,0 0.173968,-0.015932" />
      <line x1="0.17597" y1="-0.015926" x2="0.175989" y2="-0.015875" />
      <line x1="0.172165" y1="-0.04854" x2="0.172165" y2="-0.01594" />
      <line x1="0.172165" y1="-0.04854" x2="0.173165" y2="-0.04854" />
      <line x1="0.173165" y1="-0.05064" x2="0.173165" y2="-0.04854" />
      <line x1="0.132765" y1="-0.050639" x2="0.173165" y2="-0.05064" />
      <line x1="0.132765" y1="-0.050639" x2="0.132765" y2="-0.048539" />
      <line x1="0.132765" y1="-0.048539" x2="0.134765" y2="-0.048539" />
      <path d="M 0.132765,-0.048539 A 0.0021,6.698121447810509e-06 5.045731239565665e-20 0,1 0.133746,-0.048539" />
      <line x1="0.17317" y1="-0.050573" x2="0.17319" y2="-0.050573" />
      <line x1="0.17319" y1="-0.050573" x2="0.17319" y2="-0.048539" />
      <line x1="0.173195" y1="-0.05056" x2="0.173195" y2="-0.048539" />
      <line x1="0.17319" y1="-0.050573" x2="0.173195" y2="-0.05056" />
      <line x1="0.17619" y1="-0.015873" x2="0.17619" y2="-0.048473" />
      <path d="M 0.173195,-0.048461 A 0.004,1.2758326567258113e-05 2.7972745530007117e-20 0,1 0.172195,-0.04846" />
      <line x1="0.17617" y1="-0.048527" x2="0.17617" y2="-0.015927" />
      <path d="M 0.173165,-0.048539 A 0.004,1.2758326567258113e-05 -180.0 0,0 0.172165,-0.04854" />
      <line x1="0.17317" y1="-0.050627" x2="0.17317" y2="-0.048539" />
      <line x1="0.173165" y1="-0.05064" x2="0.17317" y2="-0.050627" />
      <line x1="0.132795" y1="-0.048539" x2="0.132795" y2="-0.048526" />
      <path d="M 0.134163,-0.050561 A 0.0021,6.698121447810509e-06 5.045731239565665e-20 0,1 0.132795,-0.050561" />
      <path d="M 0.15597,-0.014226 A 0.002,6.379163283629056e-06 2.7972745530007117e-20 0,1 0.157968,-0.014232" />
      <line x1="0.157968" y1="-0.014232" x2="0.173968" y2="-0.014232" />
      <path d="M 0.17597,-0.014226 A 0.002,6.379163283629056e-06 -180.0 0,0 0.173968,-0.014232" />
      <line x1="0.17597" y1="-0.014226" x2="0.175989" y2="-0.014175" />
      <path d="M 0.175989,-0.014175 A 0.002,6.379163283629056e-06 2.7972745530007117e-20 0,1 0.173992,-0.014168" />
      <line x1="0.157992" y1="-0.014168" x2="0.16148" y2="-0.014168" />
      <line x1="0.17048" y1="-0.014168" x2="0.173992" y2="-0.014168" />
      <path d="M 0.155989,-0.014175 A 0.002,6.379163283629056e-06 -180.0 0,0 0.157992,-0.014168" />
      <line x1="0.15597" y1="-0.014226" x2="0.155989" y2="-0.014175" />
      <path d="M 0.16148,-0.0142 A 0.0045,1.4353117388165375e-05 5.045731239565665e-20 0,1 0.17048,-0.0142" />
      <path d="M 0.17048,-0.0127 A 0.0045,1.4353117388165375e-05 5.045731239565665e-20 0,1 0.16148,-0.0127" />
      <path d="M 0.16148,-0.0127 A 0.0045,1.4353117388165375e-05 5.045731239565665e-20 0,1 0.17048,-0.0127" />
      <line x1="0.15597" y1="-0.015926" x2="0.15597" y2="-0.014226" />
      <line x1="0.157968" y1="-0.015932" x2="0.157968" y2="-0.014232" />
      <line x1="0.173968" y1="-0.015932" x2="0.173968" y2="-0.014232" />
      <line x1="0.17597" y1="-0.015926" x2="0.17597" y2="-0.014226" />
      <line x1="0.175989" y1="-0.015875" x2="0.175989" y2="-0.014175" />
      <line x1="0.13077" y1="-0.048527" x2="0.13077" y2="-0.015927" />
      <line x1="0.17619" y1="-0.048473" x2="0.17619" y2="-0.015873" />
      <line x1="0.15597" y1="-0.015926" x2="0.15597" y2="-0.014226" />
      <line x1="0.175989" y1="-0.015875" x2="0.175989" y2="-0.014175" />
      <line x1="0.17048" y1="-0.0142" x2="0.17048" y2="-0.0127" />
      <line x1="0.16148" y1="-0.0142" x2="0.16148" y2="-0.0127" />
      <path d="M 0.18939,-0.015827 A 0.004,1.2743014220759701e-05 5.137717932218091e-37 0,1 0.18699,-0.015839" />
      <path d="M 0.20779,-0.048571 A 0.004,1.2743014220759701e-05 5.137717932218091e-37 0,1 0.211663,-0.048561" />
      <line x1="0.19099" y1="-0.048571" x2="0.20779" y2="-0.048571" />
      <path d="M 0.19099,-0.048571 A 0.004,1.2743014220759701e-05 -180.0 0,0 0.187117,-0.048561" />
      <path d="M 0.20939,-0.015827 A 0.004,1.2743014220759701e-05 -180.0 0,0 0.21179,-0.015839" />
      <line x1="0.18699" y1="-0.015839" x2="0.18699" y2="-0.015958" />
      <line x1="0.21179" y1="-0.015839" x2="0.21179" y2="-0.015958" />
      <path d="M 0.19099,-0.015971 A 0.004,1.2743014220759701e-05 -180.0 0,0 0.18699,-0.015958" />
      <path d="M 0.20779,-0.015971 A 0.004,1.2743014220759701e-05 5.137717932218091e-37 0,1 0.21179,-0.015958" />
      <line x1="0.19099" y1="-0.015971" x2="0.20779" y2="-0.015971" />
      <path d="M 0.19139,-0.01597 A 0.002,6.371507110379851e-06 -180.0 0,0 0.18939,-0.015964" />
      <line x1="0.19139" y1="-0.01597" x2="0.20739" y2="-0.01597" />
      <path d="M 0.20739,-0.01597 A 0.002,6.371507110379851e-06 5.137717932218091e-37 0,1 0.20939,-0.015964" />
      <line x1="0.18699" y1="-0.048558" x2="0.18699" y2="-0.015958" />
      <line x1="0.18699" y1="-0.048558" x2="0.18699" y2="-0.048561" />
      <line x1="0.18699" y1="-0.050661" x2="0.18699" y2="-0.048561" />
      <line x1="0.20779" y1="-0.050661" x2="0.20779" y2="-0.048571" />
      <line x1="0.211663" y1="-0.048561" x2="0.21179" y2="-0.048561" />
      <line x1="0.21179" y1="-0.050661" x2="0.21179" y2="-0.048561" />
      <line x1="0.20779" y1="-0.050661" x2="0.21179" y2="-0.050661" />
      <line x1="0.21179" y1="-0.015958" x2="0.21179" y2="-0.048558" />
      <line x1="0.20779" y1="-0.015971" x2="0.20779" y2="-0.048571" />
      <path d="M 0.211663,-0.048561 A 0.004,1.2743014220759701e-05 5.137717932218091e-37 0,1 0.21179,-0.048558" />
      <line x1="0.19099" y1="-0.048571" x2="0.19099" y2="-0.015971" />
      <path d="M 0.187117,-0.048561 A 0.004,1.2743014220759701e-05 -180.0 0,0 0.18699,-0.048558" />
      <line x1="0.18699" y1="-0.048561" x2="0.187117" y2="-0.048561" />
      <line x1="0.19099" y1="-0.050661" x2="0.19099" y2="-0.048571" />
      <line x1="0.18699" y1="-0.050661" x2="0.19099" y2="-0.050661" />
      <path d="M 0.19939,-0.049848 A 0.003,9.557260665569775e-06 4.303285539666651e-37 0,1 0.20239,-0.049838" />
      <path d="M 0.19639,-0.049838 A 0.003,9.557260665569775e-06 4.303285539666651e-37 0,1 0.19939,-0.049848" />
      <line x1="0.21179" y1="-0.048558" x2="0.21179" y2="-0.048561" />
      <path d="M 0.19139,-0.014207 A 0.002,6.371507110379851e-06 5.137717932218091e-37 0,1 0.18939,-0.014213" />
      <line x1="0.18939" y1="-0.015964" x2="0.18939" y2="-0.014264" />
      <line x1="0.18939" y1="-0.014213" x2="0.18939" y2="-0.014264" />
      <path d="M 0.19139,-0.01427 A 0.002,6.371507110379851e-06 -180.0 0,0 0.18939,-0.014264" />
      <line x1="0.19139" y1="-0.01427" x2="0.20739" y2="-0.01427" />
      <line x1="0.20939" y1="-0.015964" x2="0.20939" y2="-0.014264" />
      <path d="M 0.20739,-0.01427 A 0.002,6.371507110379851e-06 5.137717932218091e-37 0,1 0.20939,-0.014264" />
      <line x1="0.20939" y1="-0.014213" x2="0.20939" y2="-0.014264" />
      <path d="M 0.20739,-0.014207 A 0.002,6.371507110379851e-06 -180.0 0,0 0.20939,-0.014213" />
      <line x1="0.19139" y1="-0.014207" x2="0.19489" y2="-0.014207" />
      <line x1="0.20389" y1="-0.014207" x2="0.20739" y2="-0.014207" />
      <path d="M 0.19939,-0.014253 A 0.0045,1.4335890998354662e-05 4.303285539666651e-37 0,1 0.20389,-0.014238" />
      <path d="M 0.19489,-0.014238 A 0.0045,1.4335890998354662e-05 4.303285539666651e-37 0,1 0.19939,-0.014253" />
      <path d="M 0.19939,-0.012753 A 0.0045,1.4335890998354662e-05 4.303285539666651e-37 0,1 0.20389,-0.012738" />
      <path d="M 0.20389,-0.012738 A 0.0045,1.4335890998354662e-05 4.303285539666651e-37 0,1 0.19489,-0.012738" />
      <path d="M 0.19489,-0.012738 A 0.0045,1.4335890998354662e-05 4.303285539666651e-37 0,1 0.19939,-0.012753" />
      <line x1="0.19139" y1="-0.01597" x2="0.19139" y2="-0.01427" />
      <line x1="0.20739" y1="-0.01597" x2="0.20739" y2="-0.01427" />
      <line x1="0.20239" y1="-0.049838" x2="0.20239" y2="-0.048571" />
      <line x1="0.19639" y1="-0.049838" x2="0.19639" y2="-0.048571" />
      <line x1="0.20389" y1="-0.014238" x2="0.20389" y2="-0.012738" />
      <line x1="0.19489" y1="-0.014238" x2="0.19489" y2="-0.012738" />
    </g>
    <g fill="url(#hatch_servo)" stroke="none" stroke-width="0" id="servo_fill">
      <path d="M 0.022326,0.0124 A 0.004,0.004 180.0 0,1 0.018326,0.0084 L 0.018326,-0.0084 A 0.004,0.004 180.0 0,1 0.022326,-0.0124 L 0.059726,-0.0124 A 0.004,0.004 0.0 0,1 0.063726,-0.0084 L 0.063726,0.0084 A 0.004,0.004 0.0 0,1 0.059726,0.0124 L 0.022326,0.0124" />
      <path d="M 0.078526,0.0124 A 0.004,0.004 180.0 0,1 0.074526,0.0084 L 0.074526,-0.0084 A 0.004,0.004 180.0 0,1 0.078526,-0.0124 L 0.115926,-0.0124 A 0.004,0.004 0.0 0,1 0.119926,-0.0084 L 0.119926,0.0084 A 0.004,0.004 0.0 0,1 0.115926,0.0124 L 0.078526,0.0124" />
    </g>
    <g fill="none" stroke="rgb(60,60,60)" stroke-opacity="0.4" stroke-width="0.00015" id="servo_hidden" stroke-dasharray="0.0018 0.00045">
      <line x1="0.13077" y1="-0.048527" x2="0.13079" y2="-0.048473" />
      <line x1="0.13079" y1="-0.015873" x2="0.13079" y2="-0.048473" />
      <path d="M 0.13079,-0.048473 A 0.004,1.2758326567258113e-05 -180.0 0,0 0.131111,-0.048468" />
      <path d="M 0.131111,-0.048468 A 0.0021,6.698121447810509e-06 5.045731239565665e-20 0,1 0.134184,-0.048473" />
      <line x1="0.134184" y1="-0.048473" x2="0.135996" y2="-0.048473" />
      <path d="M 0.135996,-0.048473 A 0.0021,6.698121447810509e-06 5.045731239565665e-20 0,1 0.137984,-0.048473" />
      <line x1="0.137984" y1="-0.048473" x2="0.156696" y2="-0.048473" />
      <path d="M 0.156696,-0.048473 A 0.0021,6.698121447810509e-06 5.045731239565665e-20 0,1 0.158684,-0.048473" />
      <line x1="0.158684" y1="-0.048473" x2="0.17319" y2="-0.048473" />
      <line x1="0.17319" y1="-0.048473" x2="0.173195" y2="-0.048461" />
      <path d="M 0.17619,-0.048473 A 0.004,1.2758326567258113e-05 2.7972745530007117e-20 0,1 0.173195,-0.048461" />
      <line x1="0.173165" y1="-0.048539" x2="0.17317" y2="-0.048527" />
      <line x1="0.158663" y1="-0.048527" x2="0.17317" y2="-0.048527" />
      <path d="M 0.158663,-0.048527 A 0.0021,6.698121447810509e-06 5.045731239565665e-20 0,1 0.156676,-0.048527" />
      <line x1="0.137963" y1="-0.048527" x2="0.156676" y2="-0.048527" />
      <path d="M 0.137963,-0.048527 A 0.0021,6.698121447810509e-06 5.045731239565665e-20 0,1 0.135976,-0.048527" />
      <line x1="0.134163" y1="-0.048527" x2="0.135976" y2="-0.048527" />
      <path d="M 0.134163,-0.048527 A 0.0021,6.698121447810509e-06 5.045731239565665e-20 0,1 0.133746,-0.048526" />
      <path d="M 0.16898,-0.0485 A 0.003,9.568744925443584e-06 5.045731239565665e-20 0,1 0.16298,-0.0485" />
      <path d="M 0.16298,-0.0485 A 0.003,9.568744925443584e-06 5.045731239565665e-20 0,1 0.16898,-0.0485" />
      <line x1="0.134795" y1="-0.01586" x2="0.134795" y2="-0.04846" />
      <path d="M 0.133776,-0.048461 A 0.004,1.2758326567258113e-05 -180.0 0,0 0.134795,-0.04846" />
      <line x1="0.133776" y1="-0.048461" x2="0.133776" y2="-0.040561" />
      <path d="M 0.133776,-0.040561 A 0.004,1.2758326567258113e-05 5.045731239565665e-20 0,1 0.131111,-0.040568" />
      <line x1="0.131111" y1="-0.048468" x2="0.131111" y2="-0.040568" />
      <line x1="0.15597" y1="-0.015861" x2="0.172195" y2="-0.015861" />
      <path d="M 0.175989,-0.015869 A 0.004,1.2758326567258113e-05 2.7972745530007117e-20 0,1 0.172195,-0.015861" />
      <path d="M 0.175989,-0.015875 A 0.002,6.379163283629056e-06 2.7972745530007117e-20 0,1 0.173992,-0.015868" />
      <line x1="0.157992" y1="-0.015868" x2="0.173992" y2="-0.015868" />
      <path d="M 0.155989,-0.015875 A 0.002,6.379163283629056e-06 -180.0 0,0 0.157992,-0.015868" />
      <line x1="0.15597" y1="-0.015926" x2="0.155989" y2="-0.015875" />
      <line x1="0.135066" y1="-0.050635" x2="0.135066" y2="-0.040635" />
      <path d="M 0.132765,-0.050639 A 0.0021,6.698121447810509e-06 5.045731239565665e-20 0,1 0.135066,-0.050635" />
      <line x1="0.132765" y1="-0.050639" x2="0.132765" y2="-0.048539" />
      <path d="M 0.133746,-0.040639 A 0.0021,6.698121447810509e-06 5.045731239565665e-20 0,1 0.135066,-0.040635" />
      <path d="M 0.135069,-0.04063 A 0.0021,6.698121447810509e-06 -180.0 0,0 0.139067,-0.040633" />
      <path d="M 0.139067,-0.040633 A 0.0021,6.698121447810509e-06 -180.0 0,0 0.135066,-0.040635" />
      <path d="M 0.135069,-0.04063 A 0.0021,6.698121447810509e-06 5.045731239565665e-20 0,1 0.131087,-0.040632" />
      <line x1="0.134163" y1="-0.050627" x2="0.134163" y2="-0.048527" />
      <path d="M 0.135069,-0.05063 A 0.0021,6.698121447810509e-06 5.045731239565665e-20 0,1 0.134163,-0.050627" />
      <line x1="0.135069" y1="-0.05063" x2="0.135069" y2="-0.04063" />
      <line x1="0.135091" y1="-0.05057" x2="0.135091" y2="-0.04057" />
      <path d="M 0.134184,-0.050573 A 0.0021,6.698121447810509e-06 5.045731239565665e-20 0,1 0.135091,-0.05057" />
      <line x1="0.134184" y1="-0.050573" x2="0.134184" y2="-0.048473" />
      <path d="M 0.131111,-0.040568 A 0.0021,6.698121447810509e-06 5.045731239565665e-20 0,1 0.135091,-0.04057" />
      <line x1="0.134184" y1="-0.050573" x2="0.135996" y2="-0.050573" />
      <line x1="0.135996" y1="-0.050573" x2="0.135996" y2="-0.048473" />
      <path d="M 0.135093,-0.050564 A 0.0021,6.69812144781051e-06 -180.0 0,0 0.139092,-0.050567" />
      <path d="M 0.139092,-0.050567 A 0.0021,6.69812144781051e-06 -180.0 0,0 0.137984,-0.050573" />
      <line x1="0.135093" y1="-0.050564" x2="0.135093" y2="-0.040564" />
      <path d="M 0.135091,-0.04057 A 0.0021,6.69812144781051e-06 -1.927846472669193e-17 0,1 0.139092,-0.040567" />
      <path d="M 0.139092,-0.040567 A 0.0021,6.69812144781051e-06 -1.927846472669193e-17 0,1 0.135093,-0.040564" />
      <path d="M 0.135091,-0.05057 A 0.0021,6.698121447810509e-06 5.045731239565665e-20 0,1 0.135996,-0.050573" />
      <line x1="0.137984" y1="-0.050573" x2="0.137984" y2="-0.048473" />
      <line x1="0.137984" y1="-0.050573" x2="0.156696" y2="-0.050573" />
      <line x1="0.156696" y1="-0.050573" x2="0.156696" y2="-0.048473" />
      <path d="M 0.158684,-0.050573 A 0.0021,6.698121447810509e-06 5.045731239565665e-20 0,1 0.159792,-0.050567" />
      <line x1="0.158684" y1="-0.050573" x2="0.158684" y2="-0.048473" />
      <path d="M 0.159792,-0.050567 A 0.0021,6.698121447810509e-06 5.045731239565665e-20 0,1 0.155592,-0.050567" />
      <path d="M 0.155592,-0.050567 A 0.0021,6.698121447810509e-06 5.045731239565665e-20 0,1 0.156696,-0.050573" />
      <path d="M 0.159792,-0.040567 A 0.0021,6.698121447810509e-06 5.045731239565665e-20 0,1 0.155592,-0.040567" />
      <path d="M 0.155592,-0.040567 A 0.0021,6.698121447810509e-06 5.045731239565665e-20 0,1 0.159792,-0.040567" />
      <line x1="0.158684" y1="-0.050573" x2="0.17317" y2="-0.050573" />
      <line x1="0.17319" y1="-0.048539" x2="0.17319" y2="-0.048473" />
      <line x1="0.173195" y1="-0.048539" x2="0.173195" y2="-0.04846" />
      <line x1="0.172195" y1="-0.015861" x2="0.172195" y2="-0.04846" />
      <line x1="0.17317" y1="-0.048539" x2="0.17317" y2="-0.048527" />
      <line x1="0.158663" y1="-0.050627" x2="0.17317" y2="-0.050627" />
      <line x1="0.158663" y1="-0.050627" x2="0.158663" y2="-0.048527" />
      <path d="M 0.156676,-0.050627 A 0.0021,6.698121447810509e-06 5.045731239565665e-20 0,1 0.155567,-0.050633" />
      <path d="M 0.155567,-0.050633 A 0.0021,6.698121447810509e-06 5.045731239565665e-20 0,1 0.159767,-0.050633" />
      <line x1="0.156676" y1="-0.050627" x2="0.156676" y2="-0.048527" />
      <path d="M 0.159767,-0.050633 A 0.0021,6.698121447810509e-06 5.045731239565665e-20 0,1 0.158663,-0.050627" />
      <path d="M 0.159767,-0.040633 A 0.0021,6.698121447810509e-06 5.045731239565665e-20 0,1 0.155567,-0.040633" />
      <path d="M 0.155567,-0.040633 A 0.0021,6.698121447810509e-06 5.045731239565665e-20 0,1 0.159767,-0.040633" />
      <line x1="0.137963" y1="-0.050627" x2="0.156676" y2="-0.050627" />
      <line x1="0.137963" y1="-0.050627" x2="0.137963" y2="-0.048527" />
      <path d="M 0.137963,-0.050627 A 0.0021,6.698121447810509e-06 180.0 0,0 0.139067,-0.050633" />
      <path d="M 0.139067,-0.050633 A 0.0021,6.698121447810509e-06 180.0 0,0 0.135066,-0.050635" />
      <line x1="0.135976" y1="-0.050627" x2="0.135976" y2="-0.048527" />
      <path d="M 0.135976,-0.050627 A 0.0021,6.698121447810509e-06 5.045731239565665e-20 0,1 0.135069,-0.05063" />
      <line x1="0.134163" y1="-0.050627" x2="0.135976" y2="-0.050627" />
      <path d="M 0.16898,-0.0498 A 0.003,9.568744925443584e-06 5.045731239565665e-20 0,1 0.16298,-0.0498" />
      <path d="M 0.16298,-0.0498 A 0.003,9.568744925443584e-06 5.045731239565665e-20 0,1 0.16898,-0.0498" />
      <line x1="0.172195" y1="-0.04846" x2="0.173195" y2="-0.04846" />
      <line x1="0.132795" y1="-0.05056" x2="0.173195" y2="-0.05056" />
      <line x1="0.132795" y1="-0.05056" x2="0.132795" y2="-0.04846" />
      <line x1="0.132795" y1="-0.04846" x2="0.134795" y2="-0.04846" />
      <path d="M 0.133776,-0.048461 A 0.0021,6.698121447810509e-06 5.045731239565665e-20 0,1 0.132795,-0.048461" />
      <path d="M 0.135093,-0.040564 A 0.0021,6.698121447810509e-06 5.045731239565665e-20 0,1 0.133776,-0.040561" />
      <line x1="0.132795" y1="-0.050561" x2="0.132795" y2="-0.048539" />
      <line x1="0.132795" y1="-0.048526" x2="0.132795" y2="-0.048461" />
      <path d="M 0.135093,-0.050564 A 0.0021,6.698121447810509e-06 5.045731239565665e-20 0,1 0.134163,-0.050561" />
      <line x1="0.16148" y1="-0.014168" x2="0.17048" y2="-0.014168" />
      <path d="M 0.17048,-0.0142 A 0.0045,1.4353117388165375e-05 5.045731239565665e-20 0,1 0.16148,-0.0142" />
      <line x1="0.139092" y1="-0.050567" x2="0.139092" y2="-0.040567" />
      <line x1="0.159792" y1="-0.050567" x2="0.159792" y2="-0.040567" />
      <line x1="0.155592" y1="-0.050567" x2="0.155592" y2="-0.040567" />
      <line x1="0.159767" y1="-0.050633" x2="0.159767" y2="-0.040633" />
      <line x1="0.155567" y1="-0.050633" x2="0.155567" y2="-0.040633" />
      <line x1="0.139067" y1="-0.050633" x2="0.139067" y2="-0.040633" />
      <line x1="0.16898" y1="-0.0498" x2="0.16898" y2="-0.0485" />
      <line x1="0.16298" y1="-0.0498" x2="0.16298" y2="-0.0485" />
      <line x1="0.173992" y1="-0.015868" x2="0.173992" y2="-0.014168" />
      <line x1="0.157992" y1="-0.015868" x2="0.157992" y2="-0.014168" />
      <line x1="0.155989" y1="-0.015875" x2="0.155989" y2="-0.014175" />
      <line x1="0.19099" y1="-0.048426" x2="0.19099" y2="-0.015826" />
      <line x1="0.19099" y1="-0.048426" x2="0.20779" y2="-0.048426" />
      <line x1="0.20779" y1="-0.015826" x2="0.20779" y2="-0.048426" />
      <line x1="0.19099" y1="-0.015826" x2="0.20779" y2="-0.015826" />
      <path d="M 0.19099,-0.015826 A 0.004,1.2743014220759701e-05 5.137717932218091e-37 0,1 0.18939,-0.015827" />
      <line x1="0.18699" y1="-0.048439" x2="0.18699" y2="-0.015839" />
      <path d="M 0.187122,-0.048436 A 0.004,1.2743014220759701e-05 5.137717932218091e-37 0,1 0.18699,-0.048439" />
      <line x1="0.187122" y1="-0.048436" x2="0.187122" y2="-0.040536" />
      <path d="M 0.189424,-0.040527 A 0.004,1.2743014220759701e-05 4.303285539666651e-37 0,1 0.187122,-0.040536" />
      <line x1="0.189424" y1="-0.048427" x2="0.189424" y2="-0.040527" />
      <path d="M 0.19099,-0.048426 A 0.004,1.2743014220759701e-05 5.137717932218091e-37 0,1 0.189424,-0.048427" />
      <path d="M 0.20779,-0.048426 A 0.004,1.2743014220759701e-05 -180.0 0,0 0.209356,-0.048427" />
      <path d="M 0.209356,-0.048427 A 0.0021,6.6900824658988425e-06 4.303285539666651e-37 0,1 0.20754,-0.048434" />
      <path d="M 0.20754,-0.048434 A 0.0021,6.6900824658988425e-06 4.303285539666651e-37 0,1 0.20779,-0.048437" />
      <line x1="0.20779" y1="-0.048437" x2="0.20779" y2="-0.048443" />
      <path d="M 0.20779,-0.048443 A 0.0021,6.6900824658988425e-06 4.303285539666651e-37 0,1 0.20754,-0.048446" />
      <path d="M 0.20754,-0.048446 A 0.0021,6.6900824658988425e-06 4.303285539666651e-37 0,1 0.20779,-0.048449" />
      <line x1="0.20779" y1="-0.048449" x2="0.20779" y2="-0.048509" />
      <path d="M 0.20779,-0.048509 A 0.0021,6.6900824658988425e-06 4.303285539666651e-37 0,1 0.20754,-0.048512" />
      <path d="M 0.20754,-0.048512 A 0.0021,6.6900824658988425e-06 4.303285539666651e-37 0,1 0.20779,-0.048515" />
      <line x1="0.20779" y1="-0.048515" x2="0.20779" y2="-0.048561" />
      <line x1="0.20779" y1="-0.048561" x2="0.211663" y2="-0.048561" />
      <line x1="0.187117" y1="-0.048561" x2="0.19099" y2="-0.048561" />
      <line x1="0.19099" y1="-0.048515" x2="0.19099" y2="-0.048561" />
      <path d="M 0.19099,-0.048515 A 0.0021,6.6900824658988425e-06 4.303285539666651e-37 0,1 0.19124,-0.048512" />
      <path d="M 0.19124,-0.048512 A 0.0021,6.6900824658988425e-06 4.303285539666651e-37 0,1 0.19099,-0.048509" />
      <line x1="0.19099" y1="-0.048449" x2="0.19099" y2="-0.048509" />
      <path d="M 0.19099,-0.048449 A 0.0021,6.6900824658988425e-06 4.303285539666651e-37 0,1 0.19124,-0.048446" />
      <path d="M 0.19124,-0.048446 A 0.0021,6.6900824658988425e-06 4.303285539666651e-37 0,1 0.19099,-0.048443" />
      <line x1="0.19099" y1="-0.048437" x2="0.19099" y2="-0.048443" />
      <path d="M 0.19099,-0.048437 A 0.0021,6.6900824658988425e-06 4.303285539666651e-37 0,1 0.19124,-0.048434" />
      <path d="M 0.19124,-0.048434 A 0.0021,6.6900824658988425e-06 4.303285539666651e-37 0,1 0.189424,-0.048427" />
      <path d="M 0.19939,-0.048548 A 0.003,9.557260665569775e-06 4.303285539666651e-37 0,1 0.20239,-0.048538" />
      <path d="M 0.20239,-0.048538 A 0.003,9.557260665569775e-06 4.303285539666651e-37 0,1 0.19639,-0.048538" />
      <path d="M 0.19639,-0.048538 A 0.003,9.557260665569775e-06 4.303285539666651e-37 0,1 0.19939,-0.048548" />
      <line x1="0.21179" y1="-0.015839" x2="0.21179" y2="-0.048439" />
      <path d="M 0.211658,-0.048436 A 0.004,1.2743014220759701e-05 -180.0 0,0 0.21179,-0.048439" />
      <line x1="0.211658" y1="-0.048436" x2="0.211658" y2="-0.040536" />
      <path d="M 0.211658,-0.040536 A 0.004,1.2743014220759701e-05 4.303285539666651e-37 0,1 0.209356,-0.040527" />
      <line x1="0.209356" y1="-0.048427" x2="0.209356" y2="-0.040527" />
      <path d="M 0.20779,-0.015826 A 0.004,1.2743014220759701e-05 -180.0 0,0 0.20939,-0.015827" />
      <path d="M 0.19139,-0.015907 A 0.002,6.371507110379851e-06 5.137717932218091e-37 0,1 0.18939,-0.015913" />
      <line x1="0.18939" y1="-0.015913" x2="0.18939" y2="-0.015964" />
      <line x1="0.20939" y1="-0.015913" x2="0.20939" y2="-0.015964" />
      <path d="M 0.20739,-0.015907 A 0.002,6.371507110379851e-06 -180.0 0,0 0.20939,-0.015913" />
      <line x1="0.19139" y1="-0.015907" x2="0.20739" y2="-0.015907" />
      <line x1="0.18699" y1="-0.050532" x2="0.18699" y2="-0.050661" />
      <line x1="0.18699" y1="-0.050532" x2="0.18699" y2="-0.048432" />
      <line x1="0.18699" y1="-0.048432" x2="0.18699" y2="-0.048439" />
      <line x1="0.18699" y1="-0.048432" x2="0.187078" y2="-0.048432" />
      <path d="M 0.187078,-0.048432 A 0.0021,6.6900824658988425e-06 4.303285539666651e-37 0,1 0.18704,-0.048434" />
      <path d="M 0.18704,-0.048434 A 0.0021,6.6900824658988425e-06 4.303285539666651e-37 0,1 0.187122,-0.048436" />
      <line x1="0.188245" y1="-0.05054" x2="0.188245" y2="-0.04054" />
      <path d="M 0.187078,-0.050532 A 0.0021,6.6900824658988425e-06 4.303285539666651e-37 0,1 0.18704,-0.050534" />
      <path d="M 0.18704,-0.050534 A 0.0021,6.6900824658988425e-06 4.303285539666651e-37 0,1 0.188245,-0.05054" />
      <line x1="0.187078" y1="-0.050532" x2="0.187078" y2="-0.048432" />
      <path d="M 0.187122,-0.040536 A 0.0021,6.6900824658988425e-06 4.303285539666651e-37 0,1 0.188245,-0.04054" />
      <path d="M 0.190034,-0.04054 A 0.0021,6.690082465898843e-06 180.0 0,0 0.19124,-0.040546" />
      <path d="M 0.19124,-0.040546 A 0.0021,6.690082465898843e-06 180.0 1,0 0.18704,-0.040546" />
      <path d="M 0.18704,-0.040546 A 0.0021,6.690082465898843e-06 180.0 0,0 0.188245,-0.04054" />
      <path d="M 0.190034,-0.04054 A 0.0021,6.6900824658988425e-06 4.303285539666651e-37 0,1 0.19124,-0.040534" />
      <path d="M 0.19124,-0.040534 A 0.0021,6.6900824658988425e-06 4.303285539666651e-37 0,1 0.189424,-0.040527" />
      <line x1="0.19099" y1="-0.050537" x2="0.19099" y2="-0.048437" />
      <path d="M 0.190034,-0.05054 A 0.0021,6.6900824658988425e-06 4.303285539666651e-37 0,1 0.19099,-0.050537" />
      <line x1="0.190034" y1="-0.05054" x2="0.190034" y2="-0.04054" />
      <line x1="0.208745" y1="-0.05054" x2="0.208745" y2="-0.04054" />
      <path d="M 0.20779,-0.050537 A 0.0021,6.6900824658988425e-06 4.303285539666651e-37 0,1 0.208745,-0.05054" />
      <line x1="0.20779" y1="-0.050537" x2="0.20779" y2="-0.048437" />
      <path d="M 0.209356,-0.040527 A 0.0021,6.6900824658988425e-06 4.303285539666651e-37 0,1 0.20754,-0.040534" />
      <path d="M 0.20754,-0.040534 A 0.0021,6.6900824658988425e-06 4.303285539666651e-37 0,1 0.208745,-0.04054" />
      <line x1="0.20779" y1="-0.050537" x2="0.20779" y2="-0.050543" />
      <line x1="0.20779" y1="-0.050543" x2="0.20779" y2="-0.048443" />
      <path d="M 0.210534,-0.05054 A 0.0021,6.6900824658988425e-06 180.0 0,0 0.21174,-0.050546" />
      <path d="M 0.21174,-0.050546 A 0.0021,6.6900824658988425e-06 180.0 0,0 0.20779,-0.050549" />
      <line x1="0.210534" y1="-0.05054" x2="0.210534" y2="-0.04054" />
      <path d="M 0.208745,-0.04054 A 0.0021,6.690082465898843e-06 8.99643577623463e-18 0,1 0.20754,-0.040546" />
      <path d="M 0.20754,-0.040546 A 0.0021000000000000046,6.690082465898859e-06 8.99643577623463e-18 0,1 0.21174,-0.040546" />
      <path d="M 0.21174,-0.040546 A 0.0021,6.690082465898843e-06 8.99643577623463e-18 0,1 0.210534,-0.04054" />
      <path d="M 0.208745,-0.05054 A 0.0021,6.6900824658988425e-06 4.303285539666651e-37 0,1 0.20779,-0.050543" />
      <line x1="0.20779" y1="-0.050549" x2="0.20779" y2="-0.048449" />
      <line x1="0.20779" y1="-0.050549" x2="0.20779" y2="-0.050609" />
      <line x1="0.20779" y1="-0.050609" x2="0.20779" y2="-0.048509" />
      <path d="M 0.20779,-0.050615 A 0.0021,6.6900824658988425e-06 4.303285539666651e-37 0,1 0.20964,-0.050618" />
      <line x1="0.20779" y1="-0.050615" x2="0.20779" y2="-0.048515" />
      <path d="M 0.20964,-0.050618 A 0.0021,6.6900824658988425e-06 4.303285539666651e-37 0,1 0.21174,-0.050612" />
      <path d="M 0.21174,-0.050612 A 0.0021,6.6900824658988425e-06 4.303285539666651e-37 0,1 0.20779,-0.050609" />
      <path d="M 0.20964,-0.040619 A 0.0021,6.6900824658988425e-06 4.303285539666651e-37 0,1 0.21174,-0.040612" />
      <path d="M 0.21174,-0.040612 A 0.0021000000000000046,6.690082465898858e-06 4.303285539666651e-37 0,1 0.20754,-0.040612" />
      <path d="M 0.20754,-0.040612 A 0.0021,6.6900824658988425e-06 4.303285539666651e-37 0,1 0.20964,-0.040619" />
      <line x1="0.20779" y1="-0.050615" x2="0.20779" y2="-0.050661" />
      <line x1="0.20779" y1="-0.048571" x2="0.20779" y2="-0.048561" />
      <line x1="0.19099" y1="-0.048571" x2="0.19099" y2="-0.048561" />
      <line x1="0.19099" y1="-0.050615" x2="0.19099" y2="-0.050661" />
      <line x1="0.19099" y1="-0.050615" x2="0.19099" y2="-0.048515" />
      <path d="M 0.19099,-0.050609 A 0.0021,6.6900824658988425e-06 4.303285539666651e-37 0,1 0.18704,-0.050612" />
      <path d="M 0.18704,-0.050612 A 0.0021,6.6900824658988425e-06 4.303285539666651e-37 0,1 0.18914,-0.050618" />
      <line x1="0.19099" y1="-0.050609" x2="0.19099" y2="-0.048509" />
      <path d="M 0.18914,-0.050618 A 0.0021,6.6900824658988425e-06 4.303285539666651e-37 0,1 0.19099,-0.050615" />
      <path d="M 0.18914,-0.040619 A 0.0021,6.6900824658988425e-06 4.303285539666651e-37 0,1 0.19124,-0.040612" />
      <path d="M 0.19124,-0.040612 A 0.0021,6.6900824658988425e-06 4.303285539666651e-37 0,1 0.18704,-0.040612" />
      <path d="M 0.18704,-0.040612 A 0.0021,6.6900824658988425e-06 4.303285539666651e-37 0,1 0.18914,-0.040619" />
      <line x1="0.19099" y1="-0.050549" x2="0.19099" y2="-0.050609" />
      <line x1="0.19099" y1="-0.050549" x2="0.19099" y2="-0.048449" />
      <path d="M 0.19099,-0.050549 A 0.0021,6.6900824658988425e-06 -180.0 0,0 0.18704,-0.050546" />
      <path d="M 0.18704,-0.050546 A 0.0021,6.6900824658988425e-06 -180.0 0,0 0.188245,-0.05054" />
      <line x1="0.19099" y1="-0.050543" x2="0.19099" y2="-0.048443" />
      <path d="M 0.19099,-0.050543 A 0.0021,6.6900824658988425e-06 4.303285539666651e-37 0,1 0.190034,-0.05054" />
      <line x1="0.19099" y1="-0.050537" x2="0.19099" y2="-0.050543" />
      <path d="M 0.20239,-0.049838 A 0.003,9.557260665569775e-06 4.303285539666651e-37 0,1 0.19639,-0.049838" />
      <line x1="0.21179" y1="-0.050532" x2="0.21179" y2="-0.050661" />
      <line x1="0.21179" y1="-0.050532" x2="0.21179" y2="-0.048432" />
      <line x1="0.21179" y1="-0.048432" x2="0.21179" y2="-0.048439" />
      <line x1="0.211701" y1="-0.048432" x2="0.21179" y2="-0.048432" />
      <path d="M 0.211658,-0.048436 A 0.0021,6.6900824658988425e-06 4.303285539666651e-37 0,1 0.21174,-0.048434" />
      <path d="M 0.21174,-0.048434 A 0.0021,6.6900824658988425e-06 4.303285539666651e-37 0,1 0.211701,-0.048432" />
      <path d="M 0.210534,-0.04054 A 0.0021,6.6900824658988425e-06 4.303285539666651e-37 0,1 0.211658,-0.040536" />
      <line x1="0.211701" y1="-0.050532" x2="0.211701" y2="-0.048432" />
      <path d="M 0.210534,-0.05054 A 0.0021,6.6900824658988425e-06 4.303285539666651e-37 0,1 0.21174,-0.050534" />
      <path d="M 0.21174,-0.050534 A 0.0021,6.6900824658988425e-06 4.303285539666651e-37 0,1 0.211701,-0.050532" />
      <line x1="0.18939" y1="-0.015913" x2="0.18939" y2="-0.014213" />
      <line x1="0.20939" y1="-0.015913" x2="0.20939" y2="-0.014213" />
      <line x1="0.19489" y1="-0.014207" x2="0.20389" y2="-0.014207" />
      <line x1="0.18699" y1="-0.050532" x2="0.187078" y2="-0.050532" />
      <line x1="0.211701" y1="-0.050532" x2="0.21179" y2="-0.050532" />
      <path d="M 0.20389,-0.014238 A 0.0045,1.4335890998354662e-05 4.303285539666651e-37 0,1 0.19489,-0.014238" />
      <line x1="0.18704" y1="-0.050534" x2="0.18704" y2="-0.048434" />
      <line x1="0.19124" y1="-0.048434" x2="0.19124" y2="-0.040534" />
      <line x1="0.20754" y1="-0.048434" x2="0.20754" y2="-0.040534" />
      <line x1="0.21174" y1="-0.050546" x2="0.21174" y2="-0.040546" />
      <line x1="0.20754" y1="-0.048446" x2="0.20754" y2="-0.040546" />
      <line x1="0.21174" y1="-0.050612" x2="0.21174" y2="-0.040612" />
      <line x1="0.20754" y1="-0.048512" x2="0.20754" y2="-0.040612" />
      <line x1="0.19124" y1="-0.048512" x2="0.19124" y2="-0.040612" />
      <line x1="0.18704" y1="-0.050612" x2="0.18704" y2="-0.040612" />
      <line x1="0.19124" y1="-0.048446" x2="0.19124" y2="-0.040546" />
      <line x1="0.18704" y1="-0.050546" x2="0.18704" y2="-0.040546" />
      <line x1="0.20239" y1="-0.048571" x2="0.20239" y2="-0.048538" />
      <line x1="0.19639" y1="-0.048571" x2="0.19639" y2="-0.048538" />
      <line x1="0.21174" y1="-0.050534" x2="0.21174" y2="-0.048434" />
      <line x1="0.19139" y1="-0.015907" x2="0.19139" y2="-0.014207" />
      <line x1="0.20739" y1="-0.015907" x2="0.20739" y2="-0.014207" />
    </g>
    <g fill="none" stroke="rgb(50,120,190)" stroke-width="0.00035" id="cradle">
      <line x1="0.0" y1="-0.0152" x2="0.0" y2="0.0152" />
      <line x1="0.0" y1="0.0152" x2="0.007526" y2="0.0152" />
      <line x1="0.007526" y1="-0.0152" x2="0.007526" y2="0.0152" />
      <line x1="0.0" y1="-0.0152" x2="0.007526" y2="-0.0152" />
      <line x1="0.015526" y1="0.0152" x2="0.023052" y2="0.0152" />
      <line x1="0.023052" y1="0.0152" x2="0.023052" y2="-0.0152" />
      <line x1="0.015526" y1="-0.0152" x2="0.023052" y2="-0.0152" />
      <line x1="0.015526" y1="0.0152" x2="0.015526" y2="-0.0152" />
      <circle cx="0.020726" cy="-0.01025" r="0.0021" />
      <circle cx="0.020726" cy="0.01025" r="0.0021" />
      <line x1="0.071726" y1="0.0152" x2="0.079252" y2="0.0152" />
      <line x1="0.079252" y1="0.0152" x2="0.079252" y2="0.0127" />
      <line x1="0.074226" y1="0.0127" x2="0.079252" y2="0.0127" />
      <line x1="0.074226" y1="0.0127" x2="0.074226" y2="-0.0127" />
      <line x1="0.074226" y1="-0.0127" x2="0.079252" y2="-0.0127" />
      <line x1="0.079252" y1="-0.0127" x2="0.079252" y2="-0.0152" />
      <line x1="0.071726" y1="-0.0152" x2="0.079252" y2="-0.0152" />
      <line x1="0.071726" y1="0.0152" x2="0.071726" y2="-0.0152" />
      <line x1="0.127926" y1="-0.038027" x2="0.127926" y2="0.002773" />
      <line x1="0.127926" y1="0.002773" x2="0.128033" y2="0.002827" />
      <line x1="0.127926" y1="-0.038027" x2="0.135452" y2="-0.038027" />
      <line x1="0.135452" y1="-0.038027" x2="0.135452" y2="0.002773" />
      <line x1="0.127926" y1="0.002773" x2="0.135452" y2="0.002773" />
      <line x1="0.128033" y1="0.002827" x2="0.13556" y2="0.002827" />
      <line x1="0.135452" y1="0.002773" x2="0.13556" y2="0.002827" />
      <line x1="0.135452" y1="-0.038027" x2="0.13556" y2="-0.037973" />
      <line x1="0.13556" y1="-0.037973" x2="0.13556" y2="0.002827" />
      <line x1="0.135551" y1="-0.032077" x2="0.135461" y2="-0.032123" />
      <line x1="0.135551" y1="-0.032077" x2="0.135551" y2="0.000323" />
      <line x1="0.135551" y1="0.000323" x2="0.135461" y2="0.000277" />
      <line x1="0.135461" y1="-0.032123" x2="0.135461" y2="0.000277" />
      <line x1="0.135461" y1="-0.032077" x2="0.135551" y2="-0.032077" />
      <line x1="0.18419" y1="0.002805" x2="0.21459" y2="0.002805" />
      <line x1="0.18419" y1="-0.038009" x2="0.18419" y2="0.002791" />
      <line x1="0.18419" y1="0.002805" x2="0.18419" y2="0.002791" />
      <line x1="0.21459" y1="0.002805" x2="0.21459" y2="0.002791" />
      <line x1="0.18419" y1="0.002791" x2="0.21459" y2="0.002791" />
      <line x1="0.18419" y1="-0.038009" x2="0.21459" y2="-0.038009" />
      <line x1="0.21459" y1="-0.038009" x2="0.21459" y2="0.002791" />
      <line x1="0.20439" y1="-0.032102" x2="0.20439" y2="-0.0321" />
      <line x1="0.20439" y1="-0.0321" x2="0.20439" y2="-0.0288" />
      <line x1="0.20439" y1="-0.0288" x2="0.19439" y2="-0.0288" />
      <line x1="0.19439" y1="-0.032102" x2="0.19439" y2="-0.0321" />
      <line x1="0.19439" y1="-0.0321" x2="0.19439" y2="-0.0288" />
      <line x1="0.21209" y1="-0.032109" x2="0.18669" y2="-0.032109" />
      <line x1="0.21209" y1="-0.032109" x2="0.21209" y2="0.000291" />
      <line x1="0.21209" y1="0.000291" x2="0.18669" y2="0.000291" />
      <line x1="0.18669" y1="-0.032109" x2="0.18669" y2="0.000291" />
      <path d="M 0.18914,-0.032108 A 0.0021,3.747411835936681e-06 0.0 0,1 0.19124,-0.032104" />
      <path d="M 0.19124,-0.032104 A 0.0021,3.747411835936681e-06 0.0 0,1 0.18704,-0.032104" />
      <path d="M 0.18704,-0.032104 A 0.0021,3.747411835936681e-06 0.0 0,1 0.18914,-0.032108" />
      <path d="M 0.20964,-0.032108 A 0.0021,3.747411835936681e-06 0.0 0,1 0.21174,-0.032104" />
      <path d="M 0.21174,-0.032104 A 0.0021000000000000046,3.7474118359366894e-06 0.0 0,1 0.20754,-0.032104" />
      <path d="M 0.20754,-0.032104 A 0.0021,3.747411835936681e-06 0.0 0,1 0.20964,-0.032108" />
      <line x1="0.19439" y1="-0.032102" x2="0.20439" y2="-0.032102" />
      <line x1="0.18669" y1="-0.0321" x2="0.19439" y2="-0.0321" />
      <line x1="0.20439" y1="-0.0321" x2="0.21209" y2="-0.0321" />
      <line x1="0.21209" y1="-0.0321" x2="0.21209" y2="0.000291" />
      <line x1="0.18669" y1="-0.0321" x2="0.18669" y2="0.000291" />
    </g>
    <g fill="url(#hatch_cradle)" stroke="none" stroke-width="0" id="cradle_fill">
      <path d="M 0.0,0.0152 L 0.0,-0.0152 L 0.007526,-0.0152 L 0.007526,0.0152 L 0.0,0.0152" />
      <path d="M 0.023052,0.0152 L 0.015526,0.0152 L 0.015526,-0.0152 L 0.023052,-0.0152 L 0.023052,0.0152 M 0.022826,-0.01025 A 0.0021,0.0021 0.0 0,0 0.018626,-0.01025 A 0.0021,0.0021 0.0 0,0 0.022826,-0.01025 M 0.022826,0.01025 A 0.0021,0.0021 0.0 0,0 0.018626,0.01025 A 0.0021,0.0021 0.0 0,0 0.022826,0.01025" />
      <path d="M 0.079252,0.0152 L 0.071726,0.0152 L 0.071726,-0.0152 L 0.079252,-0.0152 L 0.079252,-0.0127 L 0.074226,-0.0127 L 0.074226,0.0127 L 0.079252,0.0127 L 0.079252,0.0152" />
    </g>
    <g fill="none" stroke="rgb(50,120,190)" stroke-opacity="0.4" stroke-width="0.00015" id="cradle_hidden" stroke-dasharray="0.0018 0.00045">
      <line x1="0.127926" y1="-0.038027" x2="0.128033" y2="-0.037973" />
      <line x1="0.128033" y1="-0.037973" x2="0.128033" y2="0.002827" />
      <line x1="0.127997" y1="-0.034791" x2="0.127962" y2="-0.034809" />
      <line x1="0.127997" y1="-0.034791" x2="0.127997" y2="-0.028791" />
      <line x1="0.127997" y1="-0.028791" x2="0.127962" y2="-0.028809" />
      <line x1="0.127962" y1="-0.034809" x2="0.127962" y2="-0.028809" />
      <line x1="0.128033" y1="-0.037973" x2="0.13556" y2="-0.037973" />
      <path d="M 0.135244,-0.038018 A 0.0021000000000000046,3.7606052440131087e-06 -8.781710968625401e-21 0,1 0.131044,-0.038018" />
      <path d="M 0.131044,-0.038018 A 0.0021000000000000046,3.7606052440131087e-06 -8.781710968625401e-21 0,1 0.135244,-0.038018" />
      <path d="M 0.135316,-0.037982 A 0.0021,3.7606052440131002e-06 -8.781710968625401e-21 0,1 0.131116,-0.037982" />
      <path d="M 0.131116,-0.037982 A 0.0021,3.7606052440131002e-06 -8.781710968625401e-21 0,1 0.135316,-0.037982" />
      <line x1="0.127997" y1="-0.034791" x2="0.131797" y2="-0.034791" />
      <line x1="0.131762" y1="-0.034809" x2="0.131797" y2="-0.034791" />
      <line x1="0.127962" y1="-0.034809" x2="0.131762" y2="-0.034809" />
      <line x1="0.131797" y1="-0.034791" x2="0.131797" y2="-0.032091" />
      <line x1="0.131797" y1="-0.032091" x2="0.130497" y2="-0.032091" />
      <line x1="0.130497" y1="-0.032091" x2="0.130497" y2="-0.028791" />
      <line x1="0.127997" y1="-0.028791" x2="0.130497" y2="-0.028791" />
      <line x1="0.130497" y1="-0.028791" x2="0.130462" y2="-0.028809" />
      <line x1="0.127962" y1="-0.028809" x2="0.130462" y2="-0.028809" />
      <line x1="0.131762" y1="-0.034809" x2="0.131762" y2="-0.032109" />
      <line x1="0.131762" y1="-0.032109" x2="0.130462" y2="-0.032109" />
      <line x1="0.130462" y1="-0.032109" x2="0.130462" y2="-0.028809" />
      <path d="M 0.135244,-0.032118 A 0.0021000000000000046,3.7606052440131087e-06 -8.781710968625401e-21 0,1 0.131044,-0.032118" />
      <path d="M 0.131044,-0.032118 A 0.0021000000000000046,3.7606052440131087e-06 -8.781710968625401e-21 0,1 0.135244,-0.032118" />
      <path d="M 0.135316,-0.032082 A 0.0021,3.7606052440131002e-06 -8.781710968625401e-21 0,1 0.131116,-0.032082" />
      <path d="M 0.131116,-0.032082 A 0.0021,3.7606052440131002e-06 -8.781710968625401e-21 0,1 0.135316,-0.032082" />
      <line x1="0.131762" y1="-0.032109" x2="0.131797" y2="-0.032091" />
      <line x1="0.130525" y1="-0.032077" x2="0.135461" y2="-0.032077" />
      <line x1="0.130435" y1="-0.032123" x2="0.135461" y2="-0.032123" />
      <line x1="0.130435" y1="-0.032123" x2="0.130462" y2="-0.032109" />
      <line x1="0.130497" y1="-0.032091" x2="0.130525" y2="-0.032077" />
      <line x1="0.130435" y1="0.000277" x2="0.130525" y2="0.000323" />
      <line x1="0.130525" y1="-0.032077" x2="0.130525" y2="0.000323" />
      <line x1="0.130435" y1="-0.032123" x2="0.130435" y2="0.000277" />
      <line x1="0.130525" y1="0.000323" x2="0.135551" y2="0.000323" />
      <line x1="0.130435" y1="0.000277" x2="0.135461" y2="0.000277" />
      <line x1="0.135244" y1="-0.038018" x2="0.135244" y2="-0.032118" />
      <line x1="0.131044" y1="-0.038018" x2="0.131044" y2="-0.032118" />
      <line x1="0.135316" y1="-0.037982" x2="0.135316" y2="-0.032082" />
      <line x1="0.131116" y1="-0.037982" x2="0.131116" y2="-0.032082" />
      <line x1="0.18419" y1="-0.037995" x2="0.18419" y2="0.002805" />
      <line x1="0.18419" y1="-0.037995" x2="0.21459" y2="-0.037995" />
      <line x1="0.21459" y1="-0.037995" x2="0.21459" y2="0.002805" />
      <line x1="0.20439" y1="-0.034795" x2="0.19439" y2="-0.034795" />
      <line x1="0.20439" y1="-0.034795" x2="0.20439" y2="-0.028795" />
      <line x1="0.20439" y1="-0.028795" x2="0.19439" y2="-0.028795" />
      <line x1="0.19439" y1="-0.034795" x2="0.19439" y2="-0.028795" />
      <line x1="0.18419" y1="-0.037995" x2="0.18419" y2="-0.038009" />
      <line x1="0.21459" y1="-0.037995" x2="0.21459" y2="-0.038009" />
      <path d="M 0.18914,-0.038008 A 0.0021,3.747411835936681e-06 0.0 0,1 0.19124,-0.038004" />
      <path d="M 0.19124,-0.038004 A 0.0021,3.747411835936681e-06 0.0 0,1 0.18704,-0.038004" />
      <path d="M 0.18704,-0.038004 A 0.0021,3.747411835936681e-06 0.0 0,1 0.18914,-0.038008" />
      <path d="M 0.20964,-0.038008 A 0.0021,3.747411835936681e-06 0.0 0,1 0.21174,-0.038004" />
      <path d="M 0.21174,-0.038004 A 0.0021000000000000046,3.7474118359366894e-06 0.0 0,1 0.20754,-0.038004" />
      <path d="M 0.20754,-0.038004 A 0.0021,3.747411835936681e-06 0.0 0,1 0.20964,-0.038008" />
      <line x1="0.20439" y1="-0.034795" x2="0.20439" y2="-0.034802" />
      <line x1="0.19439" y1="-0.034802" x2="0.20439" y2="-0.034802" />
      <line x1="0.19439" y1="-0.034795" x2="0.19439" y2="-0.034802" />
      <line x1="0.20439" y1="-0.034802" x2="0.20439" y2="-0.032102" />
      <line x1="0.20439" y1="-0.028795" x2="0.20439" y2="-0.0288" />
      <line x1="0.19439" y1="-0.028795" x2="0.19439" y2="-0.0288" />
      <line x1="0.19439" y1="-0.034802" x2="0.19439" y2="-0.032102" />
      <line x1="0.21209" y1="-0.0321" x2="0.21209" y2="-0.032109" />
      <line x1="0.18669" y1="-0.0321" x2="0.18669" y2="-0.032109" />
      <line x1="0.18669" y1="0.0003" x2="0.21209" y2="0.0003" />
      <line x1="0.21209" y1="0.000291" x2="0.21209" y2="0.0003" />
      <line x1="0.18669" y1="0.000291" x2="0.18669" y2="0.0003" />
      <line x1="0.21209" y1="0.0003" x2="0.21209" y2="0.000291" />
      <line x1="0.18669" y1="0.0003" x2="0.18669" y2="0.000291" />
      <line x1="0.19124" y1="-0.038004" x2="0.19124" y2="-0.032104" />
      <line x1="0.18704" y1="-0.038004" x2="0.18704" y2="-0.032104" />
      <line x1="0.21174" y1="-0.038004" x2="0.21174" y2="-0.032104" />
      <line x1="0.20754" y1="-0.038004" x2="0.20754" y2="-0.032104" />
    </g>
  </g>
  <text x="0.003763" y="-0.020875" text-anchor="middle" font-family="'Input Sans Narrow', 'DejaVu Sans', Arial, sans-serif" font-size="0.002500" font-weight="bold" fill="#333">A-A</text>
  <text x="0.003763" y="-0.017375" text-anchor="middle" font-family="'Input Sans Narrow', 'DejaVu Sans', Arial, sans-serif" font-size="0.001800" fill="#888">front_horn</text>
  <line x1="0.000000" y1="0.016000" x2="0.000000" y2="0.019000" stroke="#555" stroke-width="0.000140" stroke-opacity="0.5"/>
  <line x1="0.007526" y1="0.016000" x2="0.007526" y2="0.019000" stroke="#555" stroke-width="0.000140" stroke-opacity="0.5"/>
  <line x1="0.000000" y1="0.017400" x2="0.000000" y2="0.019000" stroke="#555" stroke-width="0.000200"/>
  <line x1="0.007526" y1="0.017400" x2="0.007526" y2="0.019000" stroke="#555" stroke-width="0.000200"/>
  <line x1="0.000000" y1="0.018200" x2="0.007526" y2="0.018200" stroke="#555" stroke-width="0.000200"/>
  <polygon points="0.000000,0.018200 0.001500,0.017600 0.001500,0.018800" fill="#555"/>
  <polygon points="0.007526,0.018200 0.006026,0.017600 0.006026,0.018800" fill="#555"/>
  <text x="0.003763" y="0.017000" text-anchor="middle" font-family="'Input Sans Narrow', 'DejaVu Sans', Arial, sans-serif" font-size="0.001600" fill="#555">7.53</text>
  <line x1="0.008326" y1="-0.015200" x2="0.011326" y2="-0.015200" stroke="#555" stroke-width="0.000140" stroke-opacity="0.5"/>
  <line x1="0.008326" y1="0.015200" x2="0.011326" y2="0.015200" stroke="#555" stroke-width="0.000140" stroke-opacity="0.5"/>
  <line x1="0.009726" y1="-0.015200" x2="0.011326" y2="-0.015200" stroke="#555" stroke-width="0.000200"/>
  <line x1="0.009726" y1="0.015200" x2="0.011326" y2="0.015200" stroke="#555" stroke-width="0.000200"/>
  <line x1="0.010526" y1="-0.015200" x2="0.010526" y2="0.015200" stroke="#555" stroke-width="0.000200"/>
  <polygon points="0.010526,-0.015200 0.009926,-0.013700 0.011126,-0.013700" fill="#555"/>
  <polygon points="0.010526,0.015200 0.009926,0.013700 0.011126,0.013700" fill="#555"/>
  <text x="0.012026" y="0.000000" text-anchor="middle" dominant-baseline="central" font-family="'Input Sans Narrow', 'DejaVu Sans', Arial, sans-serif" font-size="0.001600" fill="#555" transform="rotate(-90 0.012026 0.000000)">30.4</text>
  <text x="0.039626" y="-0.020875" text-anchor="middle" font-family="'Input Sans Narrow', 'DejaVu Sans', Arial, sans-serif" font-size="0.002500" font-weight="bold" fill="#333">B-B</text>
  <text x="0.039626" y="-0.017375" text-anchor="middle" font-family="'Input Sans Narrow', 'DejaVu Sans', Arial, sans-serif" font-size="0.001800" fill="#888">rear_horn</text>
  <line x1="0.015526" y1="0.016000" x2="0.015526" y2="0.019000" stroke="#555" stroke-width="0.000140" stroke-opacity="0.5"/>
  <line x1="0.063726" y1="0.016000" x2="0.063726" y2="0.019000" stroke="#555" stroke-width="0.000140" stroke-opacity="0.5"/>
  <line x1="0.015526" y1="0.017400" x2="0.015526" y2="0.019000" stroke="#555" stroke-width="0.000200"/>
  <line x1="0.063726" y1="0.017400" x2="0.063726" y2="0.019000" stroke="#555" stroke-width="0.000200"/>
  <line x1="0.015526" y1="0.018200" x2="0.063726" y2="0.018200" stroke="#555" stroke-width="0.000200"/>
  <polygon points="0.015526,0.018200 0.017026,0.017600 0.017026,0.018800" fill="#555"/>
  <polygon points="0.063726,0.018200 0.062226,0.017600 0.062226,0.018800" fill="#555"/>
  <text x="0.039626" y="0.017000" text-anchor="middle" font-family="'Input Sans Narrow', 'DejaVu Sans', Arial, sans-serif" font-size="0.001600" fill="#555">48.2</text>
  <line x1="0.064526" y1="-0.015200" x2="0.067526" y2="-0.015200" stroke="#555" stroke-width="0.000140" stroke-opacity="0.5"/>
  <line x1="0.064526" y1="0.015200" x2="0.067526" y2="0.015200" stroke="#555" stroke-width="0.000140" stroke-opacity="0.5"/>
  <line x1="0.065926" y1="-0.015200" x2="0.067526" y2="-0.015200" stroke="#555" stroke-width="0.000200"/>
  <line x1="0.065926" y1="0.015200" x2="0.067526" y2="0.015200" stroke="#555" stroke-width="0.000200"/>
  <line x1="0.066726" y1="-0.015200" x2="0.066726" y2="0.015200" stroke="#555" stroke-width="0.000200"/>
  <polygon points="0.066726,-0.015200 0.066126,-0.013700 0.067326,-0.013700" fill="#555"/>
  <polygon points="0.066726,0.015200 0.066126,0.013700 0.067326,0.013700" fill="#555"/>
  <text x="0.068226" y="-0.000000" text-anchor="middle" dominant-baseline="central" font-family="'Input Sans Narrow', 'DejaVu Sans', Arial, sans-serif" font-size="0.001600" fill="#555" transform="rotate(-90 0.068226 -0.000000)">30.4</text>
  <text x="0.095826" y="-0.020875" text-anchor="middle" font-family="'Input Sans Narrow', 'DejaVu Sans', Arial, sans-serif" font-size="0.002500" font-weight="bold" fill="#333">C-C</text>
  <text x="0.095826" y="-0.017375" text-anchor="middle" font-family="'Input Sans Narrow', 'DejaVu Sans', Arial, sans-serif" font-size="0.001800" fill="#888">mid_body</text>
  <text x="0.152058" y="-0.020875" text-anchor="middle" font-family="'Input Sans Narrow', 'DejaVu Sans', Arial, sans-serif" font-size="0.002500" font-weight="bold" fill="#333">side_XZ</text>
  <line x1="0.127926" y1="0.051440" x2="0.127926" y2="0.054440" stroke="#555" stroke-width="0.000140" stroke-opacity="0.5"/>
  <line x1="0.176190" y1="0.051440" x2="0.176190" y2="0.054440" stroke="#555" stroke-width="0.000140" stroke-opacity="0.5"/>
  <line x1="0.127926" y1="0.052840" x2="0.127926" y2="0.054440" stroke="#555" stroke-width="0.000200"/>
  <line x1="0.176190" y1="0.052840" x2="0.176190" y2="0.054440" stroke="#555" stroke-width="0.000200"/>
  <line x1="0.127926" y1="0.053640" x2="0.176190" y2="0.053640" stroke="#555" stroke-width="0.000200"/>
  <polygon points="0.127926,0.053640 0.129426,0.053040 0.129426,0.054240" fill="#555"/>
  <polygon points="0.176190,0.053640 0.174690,0.053040 0.174690,0.054240" fill="#555"/>
  <text x="0.152058" y="0.052440" text-anchor="middle" font-family="'Input Sans Narrow', 'DejaVu Sans', Arial, sans-serif" font-size="0.001600" fill="#555">48.3</text>
  <line x1="0.176990" y1="-0.002827" x2="0.179990" y2="-0.002827" stroke="#555" stroke-width="0.000140" stroke-opacity="0.5"/>
  <line x1="0.176990" y1="0.050640" x2="0.179990" y2="0.050640" stroke="#555" stroke-width="0.000140" stroke-opacity="0.5"/>
  <line x1="0.178390" y1="-0.002827" x2="0.179990" y2="-0.002827" stroke="#555" stroke-width="0.000200"/>
  <line x1="0.178390" y1="0.050640" x2="0.179990" y2="0.050640" stroke="#555" stroke-width="0.000200"/>
  <line x1="0.179190" y1="-0.002827" x2="0.179190" y2="0.050640" stroke="#555" stroke-width="0.000200"/>
  <polygon points="0.179190,-0.002827 0.178590,-0.001327 0.179790,-0.001327" fill="#555"/>
  <polygon points="0.179190,0.050640 0.178590,0.049140 0.179790,0.049140" fill="#555"/>
  <text x="0.180690" y="0.023906" text-anchor="middle" dominant-baseline="central" font-family="'Input Sans Narrow', 'DejaVu Sans', Arial, sans-serif" font-size="0.001600" fill="#555" transform="rotate(-90 0.180690 0.023906)">53.5</text>
  <line x1="0.124926" y1="-0.002800" x2="0.179190" y2="-0.002800" stroke="#555" stroke-width="0.000250" stroke-dasharray="0.002500,0.000800,0.000500,0.000800"/>
  <text x="0.123426" y="-0.002200" text-anchor="end" font-family="'Input Sans Narrow', 'DejaVu Sans', Arial, sans-serif" font-size="0.002000" font-weight="bold" fill="#555">A</text>
  <text x="0.180690" y="-0.002200" text-anchor="start" font-family="'Input Sans Narrow', 'DejaVu Sans', Arial, sans-serif" font-size="0.002000" font-weight="bold" fill="#555">A</text>
  <line x1="0.124926" y1="0.034900" x2="0.179190" y2="0.034900" stroke="#555" stroke-width="0.000250" stroke-dasharray="0.002500,0.000800,0.000500,0.000800"/>
  <text x="0.123426" y="0.035500" text-anchor="end" font-family="'Input Sans Narrow', 'DejaVu Sans', Arial, sans-serif" font-size="0.002000" font-weight="bold" fill="#555">B</text>
  <text x="0.180690" y="0.035500" text-anchor="start" font-family="'Input Sans Narrow', 'DejaVu Sans', Arial, sans-serif" font-size="0.002000" font-weight="bold" fill="#555">B</text>
  <line x1="0.124926" y1="0.016050" x2="0.179190" y2="0.016050" stroke="#555" stroke-width="0.000250" stroke-dasharray="0.002500,0.000800,0.000500,0.000800"/>
  <text x="0.123426" y="0.016650" text-anchor="end" font-family="'Input Sans Narrow', 'DejaVu Sans', Arial, sans-serif" font-size="0.002000" font-weight="bold" fill="#555">C</text>
  <text x="0.180690" y="0.016650" text-anchor="start" font-family="'Input Sans Narrow', 'DejaVu Sans', Arial, sans-serif" font-size="0.002000" font-weight="bold" fill="#555">C</text>
  <text x="0.199390" y="-0.020875" text-anchor="middle" font-family="'Input Sans Narrow', 'DejaVu Sans', Arial, sans-serif" font-size="0.002500" font-weight="bold" fill="#333">side_YZ</text>
  <line x1="0.184190" y1="0.051461" x2="0.184190" y2="0.054461" stroke="#555" stroke-width="0.000140" stroke-opacity="0.5"/>
  <line x1="0.214590" y1="0.051461" x2="0.214590" y2="0.054461" stroke="#555" stroke-width="0.000140" stroke-opacity="0.5"/>
  <line x1="0.184190" y1="0.052861" x2="0.184190" y2="0.054461" stroke="#555" stroke-width="0.000200"/>
  <line x1="0.214590" y1="0.052861" x2="0.214590" y2="0.054461" stroke="#555" stroke-width="0.000200"/>
  <line x1="0.184190" y1="0.053661" x2="0.214590" y2="0.053661" stroke="#555" stroke-width="0.000200"/>
  <polygon points="0.184190,0.053661 0.185690,0.053061 0.185690,0.054261" fill="#555"/>
  <polygon points="0.214590,0.053661 0.213090,0.053061 0.213090,0.054261" fill="#555"/>
  <text x="0.199390" y="0.052461" text-anchor="middle" font-family="'Input Sans Narrow', 'DejaVu Sans', Arial, sans-serif" font-size="0.001600" fill="#555">30.4</text>
  <line x1="0.215390" y1="-0.002805" x2="0.218390" y2="-0.002805" stroke="#555" stroke-width="0.000140" stroke-opacity="0.5"/>
  <line x1="0.215390" y1="0.050661" x2="0.218390" y2="0.050661" stroke="#555" stroke-width="0.000140" stroke-opacity="0.5"/>
  <line x1="0.216790" y1="-0.002805" x2="0.218390" y2="-0.002805" stroke="#555" stroke-width="0.000200"/>
  <line x1="0.216790" y1="0.050661" x2="0.218390" y2="0.050661" stroke="#555" stroke-width="0.000200"/>
  <line x1="0.217590" y1="-0.002805" x2="0.217590" y2="0.050661" stroke="#555" stroke-width="0.000200"/>
  <polygon points="0.217590,-0.002805 0.216990,-0.001305 0.218190,-0.001305" fill="#555"/>
  <polygon points="0.217590,0.050661 0.216990,0.049161 0.218190,0.049161" fill="#555"/>
  <text x="0.219090" y="0.023928" text-anchor="middle" dominant-baseline="central" font-family="'Input Sans Narrow', 'DejaVu Sans', Arial, sans-serif" font-size="0.001600" fill="#555" transform="rotate(-90 0.219090 0.023928)">53.5</text>
  <line x1="0.181190" y1="-0.002800" x2="0.217590" y2="-0.002800" stroke="#555" stroke-width="0.000250" stroke-dasharray="0.002500,0.000800,0.000500,0.000800"/>
  <text x="0.179690" y="-0.002200" text-anchor="end" font-family="'Input Sans Narrow', 'DejaVu Sans', Arial, sans-serif" font-size="0.002000" font-weight="bold" fill="#555">A</text>
  <text x="0.219090" y="-0.002200" text-anchor="start" font-family="'Input Sans Narrow', 'DejaVu Sans', Arial, sans-serif" font-size="0.002000" font-weight="bold" fill="#555">A</text>
  <line x1="0.181190" y1="0.034900" x2="0.217590" y2="0.034900" stroke="#555" stroke-width="0.000250" stroke-dasharray="0.002500,0.000800,0.000500,0.000800"/>
  <text x="0.179690" y="0.035500" text-anchor="end" font-family="'Input Sans Narrow', 'DejaVu Sans', Arial, sans-serif" font-size="0.002000" font-weight="bold" fill="#555">B</text>
  <text x="0.219090" y="0.035500" text-anchor="start" font-family="'Input Sans Narrow', 'DejaVu Sans', Arial, sans-serif" font-size="0.002000" font-weight="bold" fill="#555">B</text>
  <line x1="0.181190" y1="0.016050" x2="0.217590" y2="0.016050" stroke="#555" stroke-width="0.000250" stroke-dasharray="0.002500,0.000800,0.000500,0.000800"/>
  <text x="0.179690" y="0.016650" text-anchor="end" font-family="'Input Sans Narrow', 'DejaVu Sans', Arial, sans-serif" font-size="0.002000" font-weight="bold" fill="#555">C</text>
  <text x="0.219090" y="0.016650" text-anchor="start" font-family="'Input Sans Narrow', 'DejaVu Sans', Arial, sans-serif" font-size="0.002000" font-weight="bold" fill="#555">C</text>
  <text x="-0.001175" y="0.058836" font-family="'Input Sans Narrow', 'DejaVu Sans', Arial, sans-serif" font-size="0.003500" font-weight="bold" fill="#222">cradle</text>
  <line x1="-0.001175" y1="0.062836" x2="0.008825" y2="0.062836" stroke="#333" stroke-width="0.000350"/>
  <line x1="-0.001175" y1="0.061836" x2="-0.001175" y2="0.063836" stroke="#333" stroke-width="0.000250"/>
  <line x1="0.008825" y1="0.061836" x2="0.008825" y2="0.063836" stroke="#333" stroke-width="0.000250"/>
  <text x="0.010325" y="0.063536" font-family="'Input Sans Narrow', 'DejaVu Sans', Arial, sans-serif" font-size="0.001800" fill="#888">10 mm</text>
  <rect x="0.028825" y="0.056336" width="0.004000" height="0.002500" fill="url(#hatch_servo)" stroke="rgb(60,60,60)" stroke-width="0.000300"/>
  <text x="0.034325" y="0.058336" font-family="'Input Sans Narrow', 'DejaVu Sans', Arial, sans-serif" font-size="0.001800" fill="rgb(60,60,60)">servo</text>
  <rect x="0.028825" y="0.059836" width="0.004000" height="0.002500" fill="url(#hatch_cradle)" stroke="rgb(50,120,190)" stroke-width="0.000300"/>
  <text x="0.034325" y="0.061836" font-family="'Input Sans Narrow', 'DejaVu Sans', Arial, sans-serif" font-size="0.001800" fill="rgb(50,120,190)">cradle</text>
</svg>