<?xml version='1.0' encoding='utf-8'?>
<svg width="187.85mm" height="62.75mm" viewBox="-0.003175 -0.030181 0.187852 0.062755" version="1.1" xmlns="http://www.w3.org/2000/svg">
  <defs>
    <pattern id="hatch_servo" width="0.0012" height="0.0012" patternUnits="userSpaceOnUse" patternTransform="rotate(45)">
      <line x1="0" y1="0" x2="0" y2="0.0012" stroke="rgb(60,60,60)" stroke-width="0.0001" stroke-opacity="0.6"/>
    </pattern>
    <pattern id="hatch_cradle" width="0.0012" height="0.0012" patternUnits="userSpaceOnUse" patternTransform="rotate(75)">
      <line x1="0" y1="0" x2="0" y2="0.0012" stroke="rgb(50,120,190)" stroke-width="0.0001" stroke-opacity="0.6"/>
    </pattern>
  </defs>
  <g transform="scale(1,-1)" stroke-linecap="round">
    <g fill="none" stroke="rgb(60,60,60)" stroke-width="0.00035" id="servo">
      <line x1="0.0028" y1="0.0124" x2="0.0482" y2="0.0124" />
      <line x1="0.0482" y1="0.0124" x2="0.0482" y2="-0.0124" />
      <line x1="0.0028" y1="-0.0124" x2="0.0482" y2="-0.0124" />
      <line x1="0.0028" y1="0.0124" x2="0.0028" y2="-0.0124" />
      <line x1="0.0583" y1="0.01335" x2="0.0583" y2="0.0124" />
      <line x1="0.0583" y1="0.01335" x2="0.089" y2="0.01335" />
      <line x1="0.089" y1="0.01335" x2="0.089" y2="0.0124" />
      <line x1="0.0583" y1="0.0124" x2="0.089" y2="0.0124" />
      <line x1="0.0583" y1="-0.0124" x2="0.089" y2="-0.0124" />
      <line x1="0.089" y1="-0.0124" x2="0.089" y2="-0.01335" />
      <line x1="0.0583" y1="-0.01335" x2="0.089" y2="-0.01335" />
      <line x1="0.0583" y1="-0.0124" x2="0.0583" y2="-0.01335" />
      <line x1="0.0977" y1="-0.015852" x2="0.0977" y2="0.015948" />
      <line x1="0.0977" y1="0.015948" x2="0.097702" y2="0.015961" />
      <line x1="0.0977" y1="-0.015852" x2="0.1277" y2="-0.015852" />
      <line x1="0.1277" y1="-0.015852" x2="0.1431" y2="-0.015852" />
      <line x1="0.1431" y1="-0.015852" x2="0.1431" y2="0.015948" />
      <line x1="0.0977" y1="0.015948" x2="0.1431" y2="0.015948" />
      <line x1="0.097702" y1="0.015961" x2="0.128901" y2="0.015961" />
      <line x1="0.136901" y1="0.015961" x2="0.143102" y2="0.015961" />
      <line x1="0.1431" y1="0.015948" x2="0.143102" y2="0.015961" />
      <path d="M 0.128901,0.015955 A 0.0040000000000000036,2.182800256091935e-06 -6.830285894301604e-23 0,1 0.136901,0.015955" />
      <path d="M 0.136901,0.018755 A 0.0040000000000000036,2.182800256091935e-06 -6.830285894301604e-23 0,1 0.128901,0.018755" />
      <path d="M 0.128901,0.018755 A 0.0040000000000000036,2.182800256091935e-06 -6.830285894301604e-23 0,1 0.136901,0.018755" />
      <line x1="0.1277" y1="-0.020039" x2="0.127702" y2="-0.020039" />
      <line x1="0.127702" y1="-0.020039" x2="0.127702" y2="-0.015852" />
      <line x1="0.097002" y1="-0.015839" x2="0.0977" y2="-0.015839" />
      <line x1="0.097002" y1="-0.015852" x2="0.097002" y2="-0.015839" />
      <line x1="0.097002" y1="-0.015838" x2="0.0977" y2="-0.015838" />
      <line x1="0.097" y1="-0.015852" x2="0.0977" y2="-0.015852" />
      <line x1="0.097" y1="-0.020053" x2="0.1277" y2="-0.020053" />
      <line x1="0.1277" y1="-0.020053" x2="0.1277" y2="-0.015853" />
      <line x1="0.097" y1="-0.015853" x2="0.1277" y2="-0.015853" />
      <line x1="0.097" y1="-0.020053" x2="0.097" y2="-0.015853" />
      <line x1="0.136901" y1="0.015955" x2="0.136901" y2="0.018755" />
      <line x1="0.128901" y1="0.015955" x2="0.128901" y2="0.018755" />
      <line x1="0.153902" y1="0.015967" x2="0.162302" y2="0.015967" />
      <line x1="0.170302" y1="0.015967" x2="0.178702" y2="0.015967" />
      <line x1="0.153902" y1="-0.015858" x2="0.153902" y2="0.015942" />
      <line x1="0.153902" y1="0.015967" x2="0.153902" y2="0.015942" />
      <line x1="0.178702" y1="0.015967" x2="0.178702" y2="0.015942" />
      <line x1="0.153902" y1="0.015942" x2="0.178702" y2="0.015942" />
      <path d="M 0.166302,0.015946 A 0.004,2.1826718896676833e-06 -3.9032160245301656e-36 0,1 0.170302,0.015948" />
      <path d="M 0.162302,0.015948 A 0.004,2.1826718896676833e-06 -3.9032160245301656e-36 0,1 0.166302,0.015946" />
      <line x1="0.178702" y1="-0.015858" x2="0.178702" y2="0.015942" />
      <line x1="0.153902" y1="-0.015858" x2="0.178702" y2="-0.015858" />
      <path d="M 0.166302,0.018746 A 0.004,2.1826718896676833e-06 -3.9032160245301656e-36 0,1 0.170302,0.018748" />
      <path d="M 0.170302,0.018748 A 0.0040000000000000036,2.1826718896676854e-06 -3.9032160245301656e-36 0,1 0.162302,0.018748" />
      <path d="M 0.162302,0.018748 A 0.004,2.1826718896676833e-06 -3.9032160245301656e-36 0,1 0.166302,0.018746" />
      <line x1="0.178702" y1="-0.020049" x2="0.178702" y2="-0.015858" />
      <line x1="0.178702" y1="-0.020049" x2="0.179652" y2="-0.020049" />
      <line x1="0.178702" y1="-0.015849" x2="0.179652" y2="-0.015849" />
      <line x1="0.179652" y1="-0.020049" x2="0.179652" y2="-0.015849" />
      <line x1="0.178702" y1="-0.015833" x2="0.179652" y2="-0.015833" />
      <line x1="0.179652" y1="-0.015833" x2="0.179652" y2="-0.015849" />
      <line x1="0.153902" y1="-0.020049" x2="0.153902" y2="-0.015858" />
      <line x1="0.152952" y1="-0.020049" x2="0.153902" y2="-0.020049" />
      <line x1="0.152952" y1="-0.020049" x2="0.152952" y2="-0.015849" />
      <line x1="0.152952" y1="-0.015849" x2="0.153902" y2="-0.015849" />
      <line x1="0.152952" y1="-0.015833" x2="0.153902" y2="-0.015833" />
      <line x1="0.152952" y1="-0.015833" x2="0.152952" y2="-0.015849" />
      <line x1="0.170302" y1="0.015948" x2="0.170302" y2="0.018748" />
      <line x1="0.162302" y1="0.015948" x2="0.162302" y2="0.018748" />
    </g>
    <g fill="url(#hatch_servo)" stroke="none" stroke-width="0" id="servo_fill">
      <path d="M 0.0482,0.0124 L 0.0028,0.0124 L 0.0028,-0.0124 L 0.0482,-0.0124 L 0.0482,0.0124" />
      <path d="M 0.0583,0.01335 L 0.0583,0.0124 L 0.089,0.0124 L 0.089,0.01335 L 0.0583,0.01335" />
      <path d="M 0.089,-0.0124 L 0.0583,-0.0124 L 0.0583,-0.01335 L 0.089,-0.01335 L 0.089,-0.0124" />
    </g>
    <g fill="none" stroke="rgb(60,60,60)" stroke-opacity="0.4" stroke-width="0.00015" id="servo_hidden" stroke-dasharray="0.0018 0.00045">
      <line x1="0.097702" y1="-0.015839" x2="0.097702" y2="0.015961" />
      <line x1="0.0977" y1="-0.015852" x2="0.097702" y2="-0.015839" />
      <line x1="0.128901" y1="0.015961" x2="0.136901" y2="0.015961" />
      <path d="M 0.136901,0.015955 A 0.0040000000000000036,2.182800256091935e-06 -6.830285894301604e-23 0,1 0.128901,0.015955" />
      <line x1="0.097702" y1="-0.015839" x2="0.127702" y2="-0.015839" />
      <line x1="0.127702" y1="-0.015839" x2="0.143102" y2="-0.015839" />
      <line x1="0.143102" y1="-0.015839" x2="0.143102" y2="0.015961" />
      <line x1="0.1431" y1="-0.015852" x2="0.143102" y2="-0.015839" />
      <line x1="0.097002" y1="-0.020039" x2="0.1277" y2="-0.020039" />
      <line x1="0.127702" y1="-0.015852" x2="0.127702" y2="-0.015839" />
      <line x1="0.0977" y1="-0.015839" x2="0.097702" y2="-0.015839" />
      <line x1="0.097002" y1="-0.020039" x2="0.097002" y2="-0.015852" />
      <line x1="0.097002" y1="-0.020038" x2="0.127702" y2="-0.020038" />
      <line x1="0.127702" y1="-0.020038" x2="0.127702" y2="-0.015838" />
      <line x1="0.0977" y1="-0.015838" x2="0.127702" y2="-0.015838" />
      <line x1="0.097002" y1="-0.020038" x2="0.097002" y2="-0.015838" />
      <line x1="0.097" y1="-0.020052" x2="0.1277" y2="-0.020052" />
      <line x1="0.1277" y1="-0.020052" x2="0.1277" y2="-0.015852" />
      <line x1="0.097" y1="-0.020052" x2="0.097" y2="-0.015852" />
      <line x1="0.153902" y1="-0.015833" x2="0.153902" y2="0.015967" />
      <line x1="0.162302" y1="0.015967" x2="0.170302" y2="0.015967" />
      <line x1="0.178702" y1="-0.015833" x2="0.178702" y2="0.015967" />
      <line x1="0.153902" y1="-0.015833" x2="0.178702" y2="-0.015833" />
      <line x1="0.153902" y1="-0.015833" x2="0.153902" y2="-0.015849" />
      <line x1="0.153902" y1="-0.015849" x2="0.153902" y2="-0.015858" />
      <path d="M 0.170302,0.015948 A 0.0040000000000000036,2.1826718896676854e-06 -3.9032160245301656e-36 0,1 0.162302,0.015948" />
      <line x1="0.178702" y1="-0.015833" x2="0.178702" y2="-0.015849" />
      <line x1="0.178702" y1="-0.015849" x2="0.178702" y2="-0.015858" />
      <line x1="0.178702" y1="-0.020033" x2="0.178702" y2="-0.020049" />
      <line x1="0.178702" y1="-0.015858" x2="0.178702" y2="-0.015849" />
      <line x1="0.178702" y1="-0.020033" x2="0.178702" y2="-0.015833" />
      <line x1="0.178702" y1="-0.020033" x2="0.179652" y2="-0.020033" />
      <line x1="0.179652" y1="-0.020033" x2="0.179652" y2="-0.020049" />
      <line x1="0.179652" y1="-0.020033" x2="0.179652" y2="-0.015833" />
      <line x1="0.153902" y1="-0.020033" x2="0.153902" y2="-0.020049" />
      <line x1="0.153902" y1="-0.015858" x2="0.153902" y2="-0.015849" />
      <line x1="0.153902" y1="-0.020033" x2="0.153902" y2="-0.015833" />
      <line x1="0.152952" y1="-0.020033" x2="0.153902" y2="-0.020033" />
      <line x1="0.152952" y1="-0.020033" x2="0.152952" y2="-0.020049" />
      <line x1="0.152952" y1="-0.020033" x2="0.152952" y2="-0.015833" />
    </g>
    <g fill="none" stroke="rgb(50,120,190)" stroke-width="0.00035" id="cradle">
      <line x1="0.0" y1="0.0152" x2="0.007526" y2="0.0152" />
      <line x1="0.007526" y1="0.0152" x2="0.007526" y2="0.0127" />
      <line x1="0.0025" y1="0.0127" x2="0.007526" y2="0.0127" />
      <line x1="0.0025" y1="0.0127" x2="0.0025" y2="-0.0127" />
      <line x1="0.0025" y1="-0.0127" x2="0.007526" y2="-0.0127" />
      <line x1="0.007526" y1="-0.0127" x2="0.007526" y2="-0.0152" />
      <line x1="0.0" y1="-0.0152" x2="0.007526" y2="-0.0152" />
      <line x1="0.0" y1="0.0152" x2="0.0" y2="-0.0152" />
      <line x1="0.0562" y1="0.0152" x2="0.063726" y2="0.0152" />
      <line x1="0.063726" y1="0.0152" x2="0.063726" y2="0.0127" />
      <line x1="0.0587" y1="0.0127" x2="0.063726" y2="0.0127" />
      <line x1="0.0587" y1="0.0127" x2="0.0587" y2="0.005" />
      <line x1="0.0562" y1="0.005" x2="0.0587" y2="0.005" />
      <line x1="0.0562" y1="0.0152" x2="0.0562" y2="0.005" />
      <line x1="0.0562" y1="-0.005" x2="0.0587" y2="-0.005" />
      <line x1="0.0587" y1="-0.005" x2="0.0587" y2="-0.0127" />
      <line x1="0.0587" y1="-0.0127" x2="0.063726" y2="-0.0127" />
      <line x1="0.063726" y1="-0.0127" x2="0.063726" y2="-0.0152" />
      <line x1="0.0562" y1="-0.0152" x2="0.063726" y2="-0.0152" />
      <line x1="0.0562" y1="-0.005" x2="0.0562" y2="-0.0152" />
      <line x1="0.114358" y1="-0.020367" x2="0.114358" y2="0.020426" />
      <line x1="0.114358" y1="0.020426" x2="0.121107" y2="0.021006" />
      <line x1="0.114358" y1="-0.020367" x2="0.121696" y2="-0.020399" />
      <line x1="0.121696" y1="-0.020399" x2="0.121696" y2="0.020393" />
      <line x1="0.114358" y1="0.020426" x2="0.121696" y2="0.020393" />
      <line x1="0.121107" y1="0.021006" x2="0.128445" y2="0.020973" />
      <line x1="0.121696" y1="0.020393" x2="0.128445" y2="0.020973" />
      <line x1="0.121696" y1="-0.020399" x2="0.128445" y2="-0.019819" />
      <line x1="0.128445" y1="-0.019819" x2="0.128445" y2="0.020973" />
      <line x1="0.122548" y1="-0.014099" x2="0.122251" y2="-0.014097" />
      <line x1="0.12789" y1="-0.013968" x2="0.122251" y2="-0.014453" />
      <line x1="0.12789" y1="-0.013968" x2="0.12789" y2="0.018426" />
      <line x1="0.12789" y1="0.018426" x2="0.122251" y2="0.017941" />
      <line x1="0.122251" y1="-0.014453" x2="0.122251" y2="0.017941" />
      <path d="M 0.122575,-0.014405 A 0.0021,4.110337306064193e-05 -2.7698275231857675e-17 0,1 0.122627,-0.014396" />
      <path d="M 0.122627,-0.014396 A 0.0021,4.110337306064193e-05 -2.7698275231857675e-17 0,1 0.122251,-0.014372" />
      <path d="M 0.122251,-0.014419 A 0.0021,4.110337306064193e-05 -2.7698275231857675e-17 0,1 0.122575,-0.014405" />
      <path d="M 0.127126,-0.014014 A 0.0021,4.110337306064193e-05 -2.7698275231857675e-17 0,1 0.127178,-0.014005" />
      <path d="M 0.127178,-0.014005 A 0.0021000000000000046,4.110337306064202e-05 -2.7698275231857675e-17 1,1 0.122978,-0.014005" />
      <path d="M 0.122978,-0.014005 A 0.0021,4.110337306064193e-05 -2.7698275231857675e-17 0,1 0.127126,-0.014014" />
      <line x1="0.122251" y1="-0.014124" x2="0.122548" y2="-0.014099" />
      <line x1="0.122989" y1="-0.013946" x2="0.12789" y2="-0.013968" />
      <line x1="0.122251" y1="-0.01401" x2="0.122989" y2="-0.013946" />
      <line x1="0.122989" y1="-0.013946" x2="0.122989" y2="0.018005" />
      <line x1="0.151102" y1="0.02075" x2="0.181502" y2="0.02075" />
      <line x1="0.151102" y1="-0.020168" x2="0.151102" y2="0.020627" />
      <line x1="0.151102" y1="0.02075" x2="0.151102" y2="0.020627" />
      <line x1="0.181502" y1="0.02075" x2="0.181502" y2="0.020627" />
      <line x1="0.151102" y1="0.020627" x2="0.181502" y2="0.020627" />
      <line x1="0.151102" y1="-0.020168" x2="0.181502" y2="-0.020168" />
      <line x1="0.181502" y1="-0.020168" x2="0.181502" y2="0.020627" />
      <line x1="0.171302" y1="-0.014208" x2="0.171302" y2="-0.014187" />
      <line x1="0.171302" y1="-0.014187" x2="0.171302" y2="-0.010887" />
      <line x1="0.171302" y1="-0.010887" x2="0.161302" y2="-0.010887" />
      <line x1="0.161302" y1="-0.014208" x2="0.161302" y2="-0.014187" />
      <line x1="0.161302" y1="-0.014187" x2="0.161302" y2="-0.010887" />
      <line x1="0.179002" y1="-0.014269" x2="0.153602" y2="-0.014269" />
      <line x1="0.179002" y1="-0.014269" x2="0.179002" y2="0.018127" />
      <line x1="0.179002" y1="0.018127" x2="0.153602" y2="0.018127" />
      <line x1="0.153602" y1="-0.014269" x2="0.153602" y2="0.018127" />
      <path d="M 0.156052,-0.014265 A 0.0021,3.4339078976618334e-05 -1.0095395250867777e-33 0,1 0.158152,-0.014231" />
      <path d="M 0.158152,-0.014231 A 0.0021,3.4339078976618334e-05 -1.0095395250867777e-33 0,1 0.153952,-0.014231" />
      <path d="M 0.153952,-0.014231 A 0.0021,3.4339078976618334e-05 -1.0095395250867777e-33 0,1 0.156052,-0.014265" />
      <path d="M 0.176552,-0.014265 A 0.0021,3.4339078976618334e-05 -1.0095395250867777e-33 0,1 0.178652,-0.014231" />
      <path d="M 0.178652,-0.014231 A 0.0021000000000000046,3.433907897661841e-05 -1.0095395250867777e-33 0,1 0.174452,-0.014231" />
      <path d="M 0.174452,-0.014231 A 0.0021,3.4339078976618334e-05 -1.0095395250867777e-33 0,1 0.176552,-0.014265" />
      <line x1="0.161302" y1="-0.014208" x2="0.171302" y2="-0.014208" />
      <line x1="0.153602" y1="-0.014187" x2="0.161302" y2="-0.014187" />
      <line x1="0.171302" y1="-0.014187" x2="0.179002" y2="-0.014187" />
      <line x1="0.179002" y1="-0.014187" x2="0.179002" y2="0.018127" />
      <line x1="0.153602" y1="-0.014187" x2="0.153602" y2="0.018127" />
    </g>
    <g fill="url(#hatch_cradle)" stroke="none" stroke-width="0" id="cradle_fill">
      <path d="M 0.007526,0.0152 L 0.0,0.0152 L 0.0,-0.0152 L 0.007526,-0.0152 L 0.007526,-0.0127 L 0.0025,-0.0127 L 0.0025,0.0127 L 0.007526,0.0127 L 0.007526,0.0152" />
      <path d="M 0.063726,0.0152 L 0.0562,0.0152 L 0.0562,0.005 L 0.0587,0.005 L 0.0587,0.0127 L 0.063726,0.0127 L 0.063726,0.0152" />
      <path d="M 0.0587,-0.005 L 0.0562,-0.005 L 0.0562,-0.0152 L 0.063726,-0.0152 L 0.063726,-0.0127 L 0.0587,-0.0127 L 0.0587,-0.005" />
    </g>
    <g fill="none" stroke="rgb(50,120,190)" stroke-opacity="0.4" stroke-width="0.00015" id="cradle_hidden" stroke-dasharray="0.0018 0.00045">
      <line x1="0.114358" y1="-0.020367" x2="0.121107" y2="-0.019786" />
      <line x1="0.121107" y1="-0.019786" x2="0.121107" y2="0.021006" />
      <line x1="0.118842" y1="-0.016782" x2="0.116622" y2="-0.016973" />
      <line x1="0.118842" y1="-0.016782" x2="0.118842" y2="-0.010783" />
      <line x1="0.118842" y1="-0.010783" x2="0.116622" y2="-0.010974" />
      <line x1="0.116622" y1="-0.016973" x2="0.116622" y2="-0.010974" />
      <line x1="0.121107" y1="-0.019786" x2="0.128445" y2="-0.019819" />
      <path d="M 0.122575,-0.020304 A 0.0021,4.110337306064193e-05 -2.7698275231857675e-17 0,1 0.122627,-0.020295" />
      <path d="M 0.122627,-0.020295 A 0.0021,4.110337306064193e-05 -2.7698275231857675e-17 1,1 0.118427,-0.020295" />
      <path d="M 0.118427,-0.020295 A 0.0021,4.110337306064193e-05 -2.7698275231857675e-17 0,1 0.122575,-0.020304" />
      <path d="M 0.127126,-0.019913 A 0.0021,4.110337306064193e-05 -2.7698275231857675e-17 0,1 0.127178,-0.019903" />
      <path d="M 0.127178,-0.019903 A 0.0021000000000000046,4.110337306064202e-05 -2.7698275231857675e-17 1,1 0.122978,-0.019903" />
      <path d="M 0.122978,-0.019903 A 0.0021,4.110337306064193e-05 -2.7698275231857675e-17 0,1 0.127126,-0.019913" />
      <line x1="0.118842" y1="-0.016782" x2="0.122548" y2="-0.016798" />
      <line x1="0.120327" y1="-0.016989" x2="0.122548" y2="-0.016798" />
      <line x1="0.116622" y1="-0.016973" x2="0.120327" y2="-0.016989" />
      <line x1="0.122548" y1="-0.016798" x2="0.122548" y2="-0.014099" />
      <line x1="0.122251" y1="-0.014097" x2="0.12128" y2="-0.014093" />
      <line x1="0.12128" y1="-0.014093" x2="0.12128" y2="-0.010794" />
      <line x1="0.118842" y1="-0.010783" x2="0.12128" y2="-0.010794" />
      <line x1="0.12128" y1="-0.010794" x2="0.11906" y2="-0.010985" />
      <line x1="0.116622" y1="-0.010974" x2="0.11906" y2="-0.010985" />
      <line x1="0.120327" y1="-0.016989" x2="0.120327" y2="-0.01429" />
      <line x1="0.120327" y1="-0.01429" x2="0.11906" y2="-0.014284" />
      <line x1="0.11906" y1="-0.014284" x2="0.11906" y2="-0.010985" />
      <path d="M 0.122251,-0.014372 A 0.0021,4.110337306064193e-05 -2.7698275231857675e-17 0,1 0.118427,-0.014396" />
      <path d="M 0.118427,-0.014396 A 0.0021,4.110337306064193e-05 -2.7698275231857675e-17 0,1 0.122251,-0.014419" />
      <line x1="0.120327" y1="-0.01429" x2="0.122251" y2="-0.014124" />
      <line x1="0.11735" y1="-0.014431" x2="0.122251" y2="-0.014453" />
      <line x1="0.11735" y1="-0.014431" x2="0.11906" y2="-0.014284" />
      <line x1="0.12128" y1="-0.014093" x2="0.122251" y2="-0.01401" />
      <line x1="0.11735" y1="0.017963" x2="0.122989" y2="0.018448" />
      <line x1="0.122989" y1="0.018005" x2="0.122989" y2="0.018448" />
      <line x1="0.11735" y1="-0.014431" x2="0.11735" y2="0.017963" />
      <line x1="0.122989" y1="0.018448" x2="0.12789" y2="0.018426" />
      <line x1="0.11735" y1="0.017963" x2="0.122251" y2="0.017941" />
      <line x1="0.122627" y1="-0.020295" x2="0.122627" y2="-0.014396" />
      <line x1="0.118427" y1="-0.020295" x2="0.118427" y2="-0.014396" />
      <line x1="0.127178" y1="-0.019903" x2="0.127178" y2="-0.014005" />
      <line x1="0.122978" y1="-0.019903" x2="0.122978" y2="-0.014005" />
      <line x1="0.151102" y1="-0.020045" x2="0.151102" y2="0.02075" />
      <line x1="0.151102" y1="-0.020045" x2="0.181502" y2="-0.020045" />
      <line x1="0.181502" y1="-0.020045" x2="0.181502" y2="0.02075" />
      <line x1="0.171302" y1="-0.016845" x2="0.161302" y2="-0.016845" />
      <line x1="0.171302" y1="-0.016845" x2="0.171302" y2="-0.010846" />
      <line x1="0.171302" y1="-0.010846" x2="0.161302" y2="-0.010846" />
      <line x1="0.161302" y1="-0.016845" x2="0.161302" y2="-0.010846" />
      <line x1="0.151102" y1="-0.020045" x2="0.151102" y2="-0.020168" />
      <line x1="0.181502" y1="-0.020045" x2="0.181502" y2="-0.020168" />
      <path d="M 0.156052,-0.020164 A 0.0021,3.4339078976618334e-05 -1.0095395250867777e-33 0,1 0.158152,-0.02013" />
      <path d="M 0.158152,-0.02013 A 0.0021,3.4339078976618334e-05 -1.0095395250867777e-33 0,1 0.153952,-0.02013" />
      <path d="M 0.153952,-0.02013 A 0.0021,3.4339078976618334e-05 -1.0095395250867777e-33 0,1 0.156052,-0.020164" />
      <path d="M 0.176552,-0.020164 A 0.0021,3.4339078976618334e-05 -1.0095395250867777e-33 0,1 0.178652,-0.02013" />
      <path d="M 0.178652,-0.02013 A 0.0021000000000000046,3.433907897661841e-05 -1.0095395250867777e-33 0,1 0.174452,-0.02013" />
      <path d="M 0.174452,-0.02013 A 0.0021,3.4339078976618334e-05 -1.0095395250867777e-33 0,1 0.176552,-0.020164" />
      <line x1="0.171302" y1="-0.016845" x2="0.171302" y2="-0.016907" />
      <line x1="0.161302" y1="-0.016907" x2="0.171302" y2="-0.016907" />
      <line x1="0.161302" y1="-0.016845" x2="0.161302" y2="-0.016907" />
      <line x1="0.171302" y1="-0.016907" x2="0.171302" y2="-0.014208" />
      <line x1="0.171302" y1="-0.010846" x2="0.171302" y2="-0.010887" />
      <line x1="0.161302" y1="-0.010846" x2="0.161302" y2="-0.010887" />
      <line x1="0.161302" y1="-0.016907" x2="0.161302" y2="-0.014208" />
      <line x1="0.179002" y1="-0.014187" x2="0.179002" y2="-0.014269" />
      <line x1="0.153602" y1="-0.014187" x2="0.153602" y2="-0.014269" />
      <line x1="0.153602" y1="0.018209" x2="0.179002" y2="0.018209" />
      <line x1="0.179002" y1="0.018127" x2="0.179002" y2="0.018209" />
      <line x1="0.153602" y1="0.018127" x2="0.153602" y2="0.018209" />
      <line x1="0.179002" y1="0.018209" x2="0.179002" y2="0.018127" />
      <line x1="0.153602" y1="0.018209" x2="0.153602" y2="0.018127" />
      <line x1="0.158152" y1="-0.02013" x2="0.158152" y2="-0.014231" />
      <line x1="0.153952" y1="-0.02013" x2="0.153952" y2="-0.014231" />
      <line x1="0.178652" y1="-0.02013" x2="0.178652" y2="-0.014231" />
      <line x1="0.174452" y1="-0.02013" x2="0.174452" y2="-0.014231" />
    </g>
  </g>
  <text x="0.024100" y="-0.026681" text-anchor="middle" font-family="'Input Sans Narrow', 'DejaVu Sans', Arial, sans-serif" font-size="0.002500" font-weight="bold" fill="#333">A-A</text>
  <text x="0.024100" y="-0.023181" text-anchor="middle" font-family="'Input Sans Narrow', 'DejaVu Sans', Arial, sans-serif" font-size="0.001800" fill="#888">front_horn</text>
  <text x="0.072600" y="-0.026681" text-anchor="middle" font-family="'Input Sans Narrow', 'DejaVu Sans', Arial, sans-serif" font-size="0.002500" font-weight="bold" fill="#333">B-B</text>
  <text x="0.072600" y="-0.023181" text-anchor="middle" font-family="'Input Sans Narrow', 'DejaVu Sans', Arial, sans-serif" font-size="0.001800" fill="#888">mid_body</text>
  <text x="0.120051" y="-0.026681" text-anchor="middle" font-family="'Input Sans Narrow', 'DejaVu Sans', Arial, sans-serif" font-size="0.002500" font-weight="bold" fill="#333">side_XZ</text>
  <text x="0.166302" y="-0.026681" text-anchor="middle" font-family="'Input Sans Narrow', 'DejaVu Sans', Arial, sans-serif" font-size="0.002500" font-weight="bold" fill="#333">side_YZ</text>
  <text x="-0.001175" y="0.024074" font-family="'Input Sans Narrow', 'DejaVu Sans', Arial, sans-serif" font-size="0.003500" font-weight="bold" fill="#222">cradle</text>
  <line x1="-0.001175" y1="0.028074" x2="0.008825" y2="0.028074" stroke="#333" stroke-width="0.000350"/>
  <line x1="-0.001175" y1="0.027074" x2="-0.001175" y2="0.029074" stroke="#333" stroke-width="0.000250"/>
  <line x1="0.008825" y1="0.027074" x2="0.008825" y2="0.029074" stroke="#333" stroke-width="0.000250"/>
  <text x="0.010325" y="0.028774" font-family="'Input Sans Narrow', 'DejaVu Sans', Arial, sans-serif" font-size="0.001800" fill="#888">10 mm</text>
  <rect x="0.028825" y="0.021574" width="0.004000" height="0.002500" fill="url(#hatch_servo)" stroke="rgb(60,60,60)" stroke-width="0.000300"/>
  <text x="0.034325" y="0.023574" font-family="'Input Sans Narrow', 'DejaVu Sans', Arial, sans-serif" font-size="0.001800" fill="rgb(60,60,60)">servo</text>
  <rect x="0.028825" y="0.025074" width="0.004000" height="0.002500" fill="url(#hatch_cradle)" stroke="rgb(50,120,190)" stroke-width="0.000300"/>
  <text x="0.034325" y="0.027074" font-family="'Input Sans Narrow', 'DejaVu Sans', Arial, sans-serif" font-size="0.001800" fill="rgb(50,120,190)">cradle</text>
</svg>