<?xml version='1.0' encoding='utf-8'?>
<svg width="295.98mm" height="85.67mm" viewBox="-0.003175 -0.021575 0.295980 0.085669" version="1.1" xmlns="http://www.w3.org/2000/svg">
  <defs>
    <pattern id="hatch_servo" width="0.0012" height="0.0012" patternUnits="userSpaceOnUse" patternTransform="rotate(45)">
      <line x1="0" y1="0" x2="0" y2="0.0012" stroke="rgb(60,60,60)" stroke-width="0.0001" stroke-opacity="0.6"/>
    </pattern>
    <pattern id="hatch_coupler" width="0.0012" height="0.0012" patternUnits="userSpaceOnUse" patternTransform="rotate(75)">
      <line x1="0" y1="0" x2="0" y2="0.0012" stroke="rgb(220,60,40)" stroke-width="0.0001" stroke-opacity="0.6"/>
    </pattern>
  </defs>
  <g transform="scale(1,-1)" stroke-linecap="round">
    <g fill="none" stroke="rgb(60,60,60)" stroke-width="0.00035" id="servo">
      <line x1="0.0" y1="-0.008" x2="0.0" y2="0.008" />
      <path d="M 0.0,-0.008 A 0.002,0.002 -90.0 0,1 0.002,-0.01" />
      <line x1="0.002" y1="-0.01" x2="0.018" y2="-0.01" />
      <path d="M 0.02,-0.008 A 0.002,0.002 -90.0 0,0 0.018,-0.01" />
      <line x1="0.02" y1="-0.008" x2="0.02" y2="0.008" />
      <path d="M 0.02,0.008 A 0.002,0.002 -90.0 0,1 0.018,0.01" />
      <line x1="0.002" y1="0.01" x2="0.018" y2="0.01" />
      <path d="M 0.0,0.008 A 0.002,0.002 -90.0 0,0 0.002,0.01" />
      <circle cx="0.079001" cy="0.0" r="0.003" />
      <line x1="0.045801" y1="-0.012312" x2="0.045801" y2="-0.0124" />
      <line x1="0.045801" y1="-0.0124" x2="0.086201" y2="-0.0124" />
      <line x1="0.086201" y1="-0.0084" x2="0.086201" y2="-0.0124" />
      <line x1="0.071694" y1="-0.0084" x2="0.086201" y2="-0.0084" />
      <path d="M 0.071694,-0.0084 A 0.0021,0.0021 61.75746281556529 1,0 0.069707,-0.0084" />
      <line x1="0.050994" y1="-0.0084" x2="0.069707" y2="-0.0084" />
      <path d="M 0.048101,-0.011144 A 0.0021,0.0021 0.0 1,1 0.050994,-0.0084" />
      <path d="M 0.045801,-0.012312 A 0.0021,0.0021 0.0 0,1 0.048101,-0.011144" />
      <path d="M 0.048101,-0.009356 A 0.0021,0.0021 0.0 0,1 0.047194,-0.0084" />
      <line x1="0.047194" y1="-0.0084" x2="0.049007" y2="-0.0084" />
      <path d="M 0.049007,-0.0084 A 0.0021,0.0021 0.0 0,1 0.048101,-0.009356" />
      <path d="M 0.047194,0.0084 A 0.0021,0.0021 0.0 0,1 0.048101,0.009356" />
      <path d="M 0.048101,0.009356 A 0.0021,0.0021 0.0 0,1 0.049007,0.0084" />
      <line x1="0.047194" y1="0.0084" x2="0.049007" y2="0.0084" />
      <path d="M 0.050994,0.0084 A 0.0021,0.0021 0.0 1,1 0.048101,0.011144" />
      <line x1="0.050994" y1="0.0084" x2="0.069707" y2="0.0084" />
      <path d="M 0.069707,0.0084 A 0.0021,0.0021 -118.24253718443467 1,0 0.071694,0.0084" />
      <line x1="0.071694" y1="0.0084" x2="0.086201" y2="0.0084" />
      <line x1="0.086201" y1="0.0124" x2="0.086201" y2="0.0084" />
      <line x1="0.045801" y1="0.0124" x2="0.086201" y2="0.0124" />
      <line x1="0.045801" y1="0.0124" x2="0.045801" y2="0.012312" />
      <path d="M 0.048101,0.011144 A 0.0021,0.0021 0.0 0,1 0.045801,0.012312" />
      <path d="M 0.118801,0.0124 A 0.004,0.004 180.0 0,1 0.114801,0.0084" />
      <line x1="0.118801" y1="0.0124" x2="0.156201" y2="0.0124" />
      <path d="M 0.160201,0.0084 A 0.004,0.004 0.0 0,1 0.156201,0.0124" />
      <line x1="0.160201" y1="0.0084" x2="0.160201" y2="-0.0084" />
      <path d="M 0.156201,-0.0124 A 0.004,0.004 0.0 0,1 0.160201,-0.0084" />
      <line x1="0.118801" y1="-0.0124" x2="0.156201" y2="-0.0124" />
      <path d="M 0.114801,-0.0084 A 0.004,0.004 180.0 0,1 0.118801,-0.0124" />
      <line x1="0.114801" y1="0.0084" x2="0.114801" y2="-0.0084" />
      <line x1="0.185802" y1="-0.032613" x2="0.185802" y2="-1.3e-05" />
      <line x1="0.185802" y1="-1.3e-05" x2="0.185822" y2="1.3e-05" />
      <path d="M 0.185802,-1.3e-05 A 0.004,6.398387877148934e-06 -6.6029846443350364e-21 0,1 0.189797,-2e-05" />
      <line x1="0.189797" y1="-0.03262" x2="0.189797" y2="-2e-05" />
      <path d="M 0.188778,-0.03262 A 0.004,6.398387877148934e-06 -6.6029846443350364e-21 0,1 0.189797,-0.03262" />
      <line x1="0.188778" y1="-0.03262" x2="0.188778" y2="-0.02472" />
      <path d="M 0.186119,-0.024716 A 0.004,6.398387877148934e-06 -1.0878798464191528e-20 0,1 0.188778,-0.02472" />
      <line x1="0.186119" y1="-0.032616" x2="0.186119" y2="-0.024716" />
      <path d="M 0.185802,-0.032613 A 0.004,6.398387877148934e-06 -6.6029846443350364e-21 0,1 0.186119,-0.032616" />
      <line x1="0.231202" y1="-0.032613" x2="0.231222" y2="-0.032587" />
      <path d="M 0.231202,-0.032613 A 0.004,6.398387877148934e-06 180.0 0,0 0.228197,-0.03262" />
      <path d="M 0.188778,-0.032613 A 0.0021,3.3591536355031905e-06 -1.0878798464191528e-20 0,1 0.186119,-0.032616" />
      <path d="M 0.185822,1.3e-05 A 0.004,6.398387877148934e-06 180.0 0,0 0.189827,2e-05" />
      <line x1="0.189797" y1="-2e-05" x2="0.227197" y2="-2e-05" />
      <line x1="0.189827" y1="2e-05" x2="0.211002" y2="2e-05" />
      <path d="M 0.231202,-1.3e-05 A 0.004,6.398387877148934e-06 180.0 0,0 0.227197,-2e-05" />
      <path d="M 0.231222,1.3e-05 A 0.004,6.398387877148934e-06 -6.6029846443350364e-21 0,1 0.231022,1.5e-05" />
      <line x1="0.231202" y1="-1.3e-05" x2="0.231222" y2="1.3e-05" />
      <path d="M 0.211002,-1.3e-05 A 0.002,3.199193938574467e-06 -6.6029846443350364e-21 0,1 0.213,-1.6e-05" />
      <line x1="0.213" y1="-1.6e-05" x2="0.229" y2="-1.6e-05" />
      <path d="M 0.231002,-1.3e-05 A 0.002,3.199193938574467e-06 180.0 0,0 0.229,-1.6e-05" />
      <line x1="0.231002" y1="-1.3e-05" x2="0.231022" y2="1.3e-05" />
      <line x1="0.227197" y1="-0.03262" x2="0.227197" y2="-2e-05" />
      <line x1="0.227197" y1="-0.03262" x2="0.228197" y2="-0.03262" />
      <line x1="0.228197" y1="-0.03472" x2="0.228197" y2="-0.03262" />
      <line x1="0.187797" y1="-0.03472" x2="0.228197" y2="-0.03472" />
      <line x1="0.187797" y1="-0.03472" x2="0.187797" y2="-0.03262" />
      <line x1="0.187797" y1="-0.03262" x2="0.189797" y2="-0.03262" />
      <path d="M 0.187797,-0.03262 A 0.0021,3.3591536355031905e-06 -1.0878798464191528e-20 0,1 0.188778,-0.03262" />
      <line x1="0.228202" y1="-0.034687" x2="0.228222" y2="-0.034687" />
      <line x1="0.228222" y1="-0.034687" x2="0.228222" y2="-0.03262" />
      <line x1="0.228227" y1="-0.03468" x2="0.228227" y2="-0.03262" />
      <line x1="0.228222" y1="-0.034687" x2="0.228227" y2="-0.03468" />
      <line x1="0.231222" y1="1.3e-05" x2="0.231222" y2="-0.032587" />
      <path d="M 0.228227,-0.03258 A 0.004,6.398387877148934e-06 -6.6029846443350364e-21 0,1 0.227227,-0.03258" />
      <line x1="0.231202" y1="-0.032613" x2="0.231202" y2="-1.3e-05" />
      <path d="M 0.228197,-0.03262 A 0.004,6.398387877148934e-06 180.0 0,0 0.227197,-0.03262" />
      <line x1="0.228202" y1="-0.034713" x2="0.228202" y2="-0.03262" />
      <line x1="0.228197" y1="-0.03472" x2="0.228202" y2="-0.034713" />
      <line x1="0.187827" y1="-0.03262" x2="0.187827" y2="-0.032613" />
      <path d="M 0.189196,-0.034681 A 0.0021,3.3591536355031905e-06 -1.0878798464191528e-20 0,1 0.187827,-0.03468" />
      <path d="M 0.211002,0.001687 A 0.002,3.199193938574467e-06 -6.6029846443350364e-21 0,1 0.213,0.001684" />
      <line x1="0.213" y1="0.001684" x2="0.229" y2="0.001684" />
      <path d="M 0.231002,0.001687 A 0.002,3.199193938574467e-06 180.0 0,0 0.229,0.001684" />
      <line x1="0.231002" y1="0.001687" x2="0.231022" y2="0.001713" />
      <path d="M 0.231022,0.001713 A 0.002,3.199193938574467e-06 -6.6029846443350364e-21 0,1 0.229024,0.001716" />
      <line x1="0.213024" y1="0.001716" x2="0.216512" y2="0.001716" />
      <line x1="0.225512" y1="0.001716" x2="0.229024" y2="0.001716" />
      <path d="M 0.211022,0.001713 A 0.002,3.199193938574467e-06 180.0 0,0 0.213024,0.001716" />
      <line x1="0.211002" y1="0.001687" x2="0.211022" y2="0.001713" />
      <path d="M 0.216512,0.0017 A 0.0045,7.198186361792551e-06 -1.0878798464191528e-20 0,1 0.225512,0.0017" />
      <path d="M 0.225512,0.0032 A 0.0045,7.198186361792551e-06 -1.0878798464191528e-20 0,1 0.216512,0.0032" />
      <path d="M 0.216512,0.0032 A 0.0045,7.198186361792551e-06 -1.0878798464191528e-20 0,1 0.225512,0.0032" />
      <line x1="0.211002" y1="-1.3e-05" x2="0.211002" y2="0.001687" />
      <line x1="0.213" y1="-1.6e-05" x2="0.213" y2="0.001684" />
      <line x1="0.229" y1="-1.6e-05" x2="0.229" y2="0.001684" />
      <line x1="0.231002" y1="-1.3e-05" x2="0.231002" y2="0.001687" />
      <line x1="0.231022" y1="1.3e-05" x2="0.231022" y2="0.001713" />
      <line x1="0.185802" y1="-0.032613" x2="0.185802" y2="-1.3e-05" />
      <line x1="0.231222" y1="-0.032587" x2="0.231222" y2="1.3e-05" />
      <line x1="0.211002" y1="-1.3e-05" x2="0.211002" y2="0.001687" />
      <line x1="0.231022" y1="1.3e-05" x2="0.231022" y2="0.001713" />
      <line x1="0.225512" y1="0.0017" x2="0.225512" y2="0.0032" />
      <line x1="0.216512" y1="0.0017" x2="0.216512" y2="0.0032" />
      <path d="M 0.25923,3.6e-05 A 0.004,6.390708572468823e-06 5.401692930135933e-38 0,1 0.25683,3.1e-05" />
      <path d="M 0.27763,-0.032635 A 0.004,6.390708572468823e-06 5.401692930135933e-38 0,1 0.281503,-0.032631" />
      <line x1="0.26083" y1="-0.032635" x2="0.27763" y2="-0.032635" />
      <path d="M 0.26083,-0.032635 A 0.004,6.390708572468823e-06 -180.0 0,0 0.256957,-0.032631" />
      <path d="M 0.27923,3.6e-05 A 0.004,6.390708572468823e-06 -180.0 0,0 0.28163,3.1e-05" />
      <line x1="0.25683" y1="3.1e-05" x2="0.25683" y2="-2.9e-05" />
      <line x1="0.28163" y1="3.1e-05" x2="0.28163" y2="-2.9e-05" />
      <path d="M 0.26083,-3.6e-05 A 0.004,6.390708572468823e-06 -180.0 0,0 0.25683,-2.9e-05" />
      <path d="M 0.27763,-3.6e-05 A 0.004,6.390708572468823e-06 5.401692930135933e-38 0,1 0.28163,-2.9e-05" />
      <line x1="0.26083" y1="-3.6e-05" x2="0.27763" y2="-3.6e-05" />
      <path d="M 0.26123,-3.5e-05 A 0.002,3.1953542862344116e-06 -180.0 0,0 0.25923,-3.2e-05" />
      <line x1="0.26123" y1="-3.5e-05" x2="0.27723" y2="-3.5e-05" />
      <path d="M 0.27723,-3.5e-05 A 0.002,3.1953542862344116e-06 5.401692930135933e-38 0,1 0.27923,-3.2e-05" />
      <line x1="0.25683" y1="-0.032629" x2="0.25683" y2="-2.9e-05" />
      <line x1="0.25683" y1="-0.032629" x2="0.25683" y2="-0.032631" />
      <line x1="0.25683" y1="-0.034731" x2="0.25683" y2="-0.032631" />
      <line x1="0.27763" y1="-0.034731" x2="0.27763" y2="-0.032635" />
      <line x1="0.281503" y1="-0.032631" x2="0.28163" y2="-0.032631" />
      <line x1="0.28163" y1="-0.034731" x2="0.28163" y2="-0.032631" />
      <line x1="0.27763" y1="-0.034731" x2="0.28163" y2="-0.034731" />
      <line x1="0.28163" y1="-2.9e-05" x2="0.28163" y2="-0.032629" />
      <line x1="0.27763" y1="-3.6e-05" x2="0.27763" y2="-0.032635" />
      <path d="M 0.281503,-0.032631 A 0.004,6.390708572468823e-06 5.401692930135933e-38 0,1 0.28163,-0.032629" />
      <line x1="0.26083" y1="-0.032635" x2="0.26083" y2="-3.6e-05" />
      <path d="M 0.256957,-0.032631 A 0.004,6.390708572468823e-06 -180.0 0,0 0.25683,-0.032629" />
      <line x1="0.25683" y1="-0.032631" x2="0.256957" y2="-0.032631" />
      <line x1="0.26083" y1="-0.034731" x2="0.26083" y2="-0.032635" />
      <line x1="0.25683" y1="-0.034731" x2="0.26083" y2="-0.034731" />
      <path d="M 0.26923,-0.033924 A 0.003,4.793031429351618e-06 -4.841106953386328e-38 0,1 0.27223,-0.033919" />
      <path d="M 0.26623,-0.033919 A 0.003,4.793031429351618e-06 -4.841106953386328e-38 0,1 0.26923,-0.033924" />
      <line x1="0.28163" y1="-0.032629" x2="0.28163" y2="-0.032631" />
      <path d="M 0.26123,0.001697 A 0.002,3.1953542862344116e-06 5.401692930135933e-38 0,1 0.25923,0.001694" />
      <line x1="0.25923" y1="-3.2e-05" x2="0.25923" y2="0.001668" />
      <line x1="0.25923" y1="0.001694" x2="0.25923" y2="0.001668" />
      <path d="M 0.26123,0.001665 A 0.002,3.1953542862344116e-06 -180.0 0,0 0.25923,0.001668" />
      <line x1="0.26123" y1="0.001665" x2="0.27723" y2="0.001665" />
      <line x1="0.27923" y1="-3.2e-05" x2="0.27923" y2="0.001668" />
      <path d="M 0.27723,0.001665 A 0.002,3.1953542862344116e-06 5.401692930135933e-38 0,1 0.27923,0.001668" />
      <line x1="0.27923" y1="0.001694" x2="0.27923" y2="0.001668" />
      <path d="M 0.27723,0.001697 A 0.002,3.1953542862344116e-06 -180.0 0,0 0.27923,0.001694" />
      <line x1="0.26123" y1="0.001697" x2="0.26473" y2="0.001697" />
      <line x1="0.27373" y1="0.001697" x2="0.27723" y2="0.001697" />
      <path d="M 0.26923,0.001674 A 0.0045,7.1895471440274255e-06 -4.841106953386328e-38 0,1 0.27373,0.001681" />
      <path d="M 0.26473,0.001681 A 0.0045,7.1895471440274255e-06 -4.841106953386328e-38 0,1 0.26923,0.001674" />
      <path d="M 0.26923,0.003174 A 0.0045,7.1895471440274255e-06 -4.841106953386328e-38 0,1 0.27373,0.003181" />
      <path d="M 0.27373,0.003181 A 0.0045,7.1895471440274255e-06 -4.841106953386328e-38 0,1 0.26473,0.003181" />
      <path d="M 0.26473,0.003181 A 0.0045,7.1895471440274255e-06 -4.841106953386328e-38 0,1 0.26923,0.003174" />
      <line x1="0.26123" y1="-3.5e-05" x2="0.26123" y2="0.001665" />
      <line x1="0.27723" y1="-3.5e-05" x2="0.27723" y2="0.001665" />
      <line x1="0.27223" y1="-0.033919" x2="0.27223" y2="-0.032635" />
      <line x1="0.26623" y1="-0.033919" x2="0.26623" y2="-0.032635" />
      <line x1="0.27373" y1="0.001681" x2="0.27373" y2="0.003181" />
      <line x1="0.26473" y1="0.001681" x2="0.26473" y2="0.003181" />
    </g>
    <g fill="url(#hatch_servo)" stroke="none" stroke-width="0" id="servo_fill">
      <path d="M 0.0,0.008 L 0.0,-0.008 A 0.002,0.002 -90.0 0,1 0.002,-0.01 L 0.018,-0.01 A 0.002,0.002 -90.0 0,1 0.02,-0.008 L 0.02,0.008 A 0.002,0.002 -90.0 0,1 0.018,0.01 L 0.002,0.01 A 0.002,0.002 -90.0 0,1 0.0,0.008" />
      <circle cx="0.079001" cy="0.0" r="0.003" />
      <path d="M 0.045801,-0.012312 L 0.045801,-0.0124 L 0.086201,-0.0124 L 0.086201,-0.0084 L 0.071694,-0.0084 A 0.0021,0.0021 61.75746281556529 1,0 0.069707,-0.0084 L 0.050994,-0.0084 A 0.0021,0.0021 0.0 1,0 0.048101,-0.011144 A 0.0021,0.0021 0.0 0,0 0.045801,-0.012312" />
      <path d="M 0.047194,-0.0084 A 0.0021,0.0021 0.0 0,0 0.048101,-0.009356 A 0.0021,0.0021 0.0 0,0 0.049007,-0.0084 L 0.047194,-0.0084" />
      <path d="M 0.048101,0.009356 A 0.0021,0.0021 0.0 0,0 0.047194,0.0084 L 0.049007,0.0084 A 0.0021,0.0021 0.0 0,0 0.048101,0.009356" />
      <path d="M 0.048101,0.011144 A 0.0021,0.0021 0.0 1,0 0.050994,0.0084 L 0.069707,0.0084 A 0.0021,0.0021 -118.24253718443467 1,0 0.071694,0.0084 L 0.086201,0.0084 L 0.086201,0.0124 L 0.045801,0.0124 L 0.045801,0.012312 A 0.0021,0.0021 0.0 0,0 0.048101,0.011144" />
      <path d="M 0.118801,0.0124 A 0.004,0.004 180.0 0,1 0.114801,0.0084 L 0.114801,-0.0084 A 0.004,0.004 180.0 0,1 0.118801,-0.0124 L 0.156201,-0.0124 A 0.004,0.004 0.0 0,1 0.160201,-0.0084 L 0.160201,0.0084 A 0.004,0.004 0.0 0,1 0.156201,0.0124 L 0.118801,0.0124" />
    </g>
    <g fill="none" stroke="rgb(60,60,60)" stroke-opacity="0.4" stroke-width="0.00015" id="servo_hidden" stroke-dasharray="0.0018 0.00045">
      <line x1="0.185802" y1="-0.032613" x2="0.185822" y2="-0.032586" />
      <line x1="0.185822" y1="1.3e-05" x2="0.185822" y2="-0.032586" />
      <path d="M 0.185822,-0.032586 A 0.004,6.398387877148934e-06 180.0 0,0 0.186143,-0.032584" />
      <path d="M 0.186143,-0.032584 A 0.0021,3.3591536355031905e-06 -1.0878798464191528e-20 0,1 0.189216,-0.032587" />
      <line x1="0.189216" y1="-0.032587" x2="0.191028" y2="-0.032587" />
      <path d="M 0.191028,-0.032587 A 0.0021,3.3591536355031905e-06 -1.0878798464191528e-20 0,1 0.193016,-0.032587" />
      <line x1="0.193016" y1="-0.032587" x2="0.211728" y2="-0.032587" />
      <path d="M 0.211728,-0.032587 A 0.0021,3.3591536355031905e-06 -1.0878798464191528e-20 0,1 0.213716,-0.032587" />
      <line x1="0.213716" y1="-0.032587" x2="0.228222" y2="-0.032587" />
      <line x1="0.228222" y1="-0.032587" x2="0.228227" y2="-0.03258" />
      <path d="M 0.231222,-0.032587 A 0.004,6.398387877148934e-06 -6.6029846443350364e-21 0,1 0.228227,-0.03258" />
      <line x1="0.228197" y1="-0.03262" x2="0.228202" y2="-0.032613" />
      <line x1="0.213696" y1="-0.032613" x2="0.228202" y2="-0.032613" />
      <path d="M 0.213696,-0.032613 A 0.0021,3.3591536355031905e-06 -1.0878798464191528e-20 0,1 0.211708,-0.032613" />
      <line x1="0.192996" y1="-0.032613" x2="0.211708" y2="-0.032613" />
      <path d="M 0.192996,-0.032613 A 0.0021,3.3591536355031905e-06 -1.0878798464191528e-20 0,1 0.191008,-0.032613" />
      <line x1="0.189196" y1="-0.032613" x2="0.191008" y2="-0.032613" />
      <path d="M 0.189196,-0.032613 A 0.0021,3.3591536355031905e-06 -1.0878798464191528e-20 0,1 0.188778,-0.032613" />
      <path d="M 0.224012,-0.0326 A 0.003,4.798790907861701e-06 -1.0878798464191528e-20 0,1 0.218012,-0.0326" />
      <path d="M 0.218012,-0.0326 A 0.003,4.798790907861701e-06 -1.0878798464191528e-20 0,1 0.224012,-0.0326" />
      <line x1="0.189827" y1="2e-05" x2="0.189827" y2="-0.03258" />
      <path d="M 0.188808,-0.03258 A 0.004,6.398387877148934e-06 180.0 0,0 0.189827,-0.03258" />
      <line x1="0.188808" y1="-0.03258" x2="0.188808" y2="-0.02468" />
      <path d="M 0.188808,-0.02468 A 0.004,6.398387877148934e-06 -1.0878798464191528e-20 0,1 0.186143,-0.024684" />
      <line x1="0.186143" y1="-0.032584" x2="0.186143" y2="-0.024684" />
      <line x1="0.211002" y1="2e-05" x2="0.227227" y2="2e-05" />
      <path d="M 0.231022,1.5e-05 A 0.004,6.398387877148934e-06 -6.6029846443350364e-21 0,1 0.227227,2e-05" />
      <path d="M 0.231022,1.3e-05 A 0.002,3.199193938574467e-06 -6.6029846443350364e-21 0,1 0.229024,1.6e-05" />
      <line x1="0.213024" y1="1.6e-05" x2="0.229024" y2="1.6e-05" />
      <path d="M 0.211022,1.3e-05 A 0.002,3.199193938574467e-06 180.0 0,0 0.213024,1.6e-05" />
      <line x1="0.211002" y1="-1.3e-05" x2="0.211022" y2="1.3e-05" />
      <line x1="0.190099" y1="-0.034718" x2="0.190099" y2="-0.024718" />
      <path d="M 0.187797,-0.03472 A 0.0021,3.3591536355031905e-06 -1.0878798464191528e-20 0,1 0.190099,-0.034718" />
      <line x1="0.187797" y1="-0.03472" x2="0.187797" y2="-0.03262" />
      <path d="M 0.188778,-0.02472 A 0.0021,3.3591536355031905e-06 -1.0878798464191528e-20 0,1 0.190099,-0.024718" />
      <path d="M 0.190101,-0.024715 A 0.0021,3.3591536355031893e-06 180.0 0,0 0.1941,-0.024716" />
      <path d="M 0.1941,-0.024716 A 0.0021,3.3591536355031893e-06 180.0 0,0 0.190099,-0.024718" />
      <path d="M 0.190101,-0.024715 A 0.0021,3.3591536355031905e-06 -1.0878798464191528e-20 0,1 0.186119,-0.024716" />
      <line x1="0.189196" y1="-0.034713" x2="0.189196" y2="-0.032613" />
      <path d="M 0.190101,-0.034715 A 0.0021,3.3591536355031905e-06 -1.0878798464191528e-20 0,1 0.189196,-0.034713" />
      <line x1="0.190101" y1="-0.034715" x2="0.190101" y2="-0.024715" />
      <line x1="0.190123" y1="-0.034685" x2="0.190123" y2="-0.024685" />
      <path d="M 0.189216,-0.034687 A 0.0021,3.3591536355031905e-06 -1.0878798464191528e-20 0,1 0.190123,-0.034685" />
      <line x1="0.189216" y1="-0.034687" x2="0.189216" y2="-0.032587" />
      <path d="M 0.186143,-0.024684 A 0.0021,3.3591536355031905e-06 -1.0878798464191528e-20 0,1 0.190123,-0.024685" />
      <line x1="0.189216" y1="-0.034687" x2="0.191028" y2="-0.034687" />
      <line x1="0.191028" y1="-0.034687" x2="0.191028" y2="-0.032587" />
      <path d="M 0.190126,-0.034682 A 0.0021,3.35915363550319e-06 -180.0 0,0 0.194124,-0.034684" />
      <path d="M 0.194124,-0.034684 A 0.0021,3.35915363550319e-06 -180.0 0,0 0.193016,-0.034687" />
      <line x1="0.190126" y1="-0.034682" x2="0.190126" y2="-0.024682" />
      <path d="M 0.190123,-0.024685 A 0.0021,3.35915363550319e-06 -6.0735755993183585e-18 0,1 0.194124,-0.024684" />
      <path d="M 0.194124,-0.024684 A 0.0021,3.35915363550319e-06 -6.0735755993183585e-18 0,1 0.190126,-0.024682" />
      <path d="M 0.190123,-0.034685 A 0.0021,3.3591536355031905e-06 -1.0878798464191528e-20 0,1 0.191028,-0.034687" />
      <line x1="0.193016" y1="-0.034687" x2="0.193016" y2="-0.032587" />
      <line x1="0.193016" y1="-0.034687" x2="0.211728" y2="-0.034687" />
      <line x1="0.211728" y1="-0.034687" x2="0.211728" y2="-0.032587" />
      <path d="M 0.213716,-0.034687 A 0.0021,3.3591536355031905e-06 -1.0878798464191528e-20 0,1 0.214824,-0.034684" />
      <line x1="0.213716" y1="-0.034687" x2="0.213716" y2="-0.032587" />
      <path d="M 0.214824,-0.034684 A 0.0021,3.3591536355031905e-06 -1.0878798464191528e-20 0,1 0.210624,-0.034684" />
      <path d="M 0.210624,-0.034684 A 0.0021,3.3591536355031905e-06 -1.0878798464191528e-20 0,1 0.211728,-0.034687" />
      <path d="M 0.214824,-0.024684 A 0.0021,3.3591536355031905e-06 -1.0878798464191528e-20 0,1 0.210624,-0.024684" />
      <path d="M 0.210624,-0.024684 A 0.0021,3.3591536355031905e-06 -1.0878798464191528e-20 0,1 0.214824,-0.024684" />
      <line x1="0.213716" y1="-0.034687" x2="0.228202" y2="-0.034687" />
      <line x1="0.228222" y1="-0.03262" x2="0.228222" y2="-0.032587" />
      <line x1="0.228227" y1="-0.03262" x2="0.228227" y2="-0.03258" />
      <line x1="0.227227" y1="2e-05" x2="0.227227" y2="-0.03258" />
      <line x1="0.228202" y1="-0.03262" x2="0.228202" y2="-0.032613" />
      <line x1="0.213696" y1="-0.034713" x2="0.228202" y2="-0.034713" />
      <line x1="0.213696" y1="-0.034713" x2="0.213696" y2="-0.032613" />
      <path d="M 0.211708,-0.034713 A 0.0021,3.3591536355031905e-06 -1.0878798464191528e-20 0,1 0.2106,-0.034716" />
      <path d="M 0.2106,-0.034716 A 0.0021,3.3591536355031905e-06 -1.0878798464191528e-20 0,1 0.2148,-0.034716" />
      <line x1="0.211708" y1="-0.034713" x2="0.211708" y2="-0.032613" />
      <path d="M 0.2148,-0.034716 A 0.0021,3.3591536355031905e-06 -1.0878798464191528e-20 0,1 0.213696,-0.034713" />
      <path d="M 0.2148,-0.024716 A 0.0021,3.3591536355031905e-06 -1.0878798464191528e-20 0,1 0.2106,-0.024716" />
      <path d="M 0.2106,-0.024716 A 0.0021,3.3591536355031905e-06 -1.0878798464191528e-20 0,1 0.2148,-0.024716" />
      <line x1="0.192996" y1="-0.034713" x2="0.211708" y2="-0.034713" />
      <line x1="0.192996" y1="-0.034713" x2="0.192996" y2="-0.032613" />
      <path d="M 0.192996,-0.034713 A 0.0021,3.3591536355031893e-06 180.0 0,0 0.1941,-0.034716" />
      <path d="M 0.1941,-0.034716 A 0.0021,3.3591536355031893e-06 180.0 0,0 0.190099,-0.034718" />
      <line x1="0.191008" y1="-0.034713" x2="0.191008" y2="-0.032613" />
      <path d="M 0.191008,-0.034713 A 0.0021,3.3591536355031905e-06 -1.0878798464191528e-20 0,1 0.190101,-0.034715" />
      <line x1="0.189196" y1="-0.034713" x2="0.191008" y2="-0.034713" />
      <path d="M 0.224012,-0.0339 A 0.003,4.798790907861701e-06 -1.0878798464191528e-20 0,1 0.218012,-0.0339" />
      <path d="M 0.218012,-0.0339 A 0.003,4.798790907861701e-06 -1.0878798464191528e-20 0,1 0.224012,-0.0339" />
      <line x1="0.227227" y1="-0.03258" x2="0.228227" y2="-0.03258" />
      <line x1="0.187827" y1="-0.03468" x2="0.228227" y2="-0.03468" />
      <line x1="0.187827" y1="-0.03468" x2="0.187827" y2="-0.03258" />
      <line x1="0.187827" y1="-0.03258" x2="0.189827" y2="-0.03258" />
      <path d="M 0.188808,-0.03258 A 0.0021,3.3591536355031905e-06 -1.0878798464191528e-20 0,1 0.187827,-0.03258" />
      <path d="M 0.190126,-0.024682 A 0.0021,3.3591536355031905e-06 -1.0878798464191528e-20 0,1 0.188808,-0.02468" />
      <line x1="0.187827" y1="-0.03468" x2="0.187827" y2="-0.03262" />
      <line x1="0.187827" y1="-0.032613" x2="0.187827" y2="-0.03258" />
      <path d="M 0.190126,-0.034682 A 0.0021,3.3591536355031905e-06 -1.0878798464191528e-20 0,1 0.189196,-0.034681" />
      <line x1="0.216512" y1="0.001716" x2="0.225512" y2="0.001716" />
      <path d="M 0.225512,0.0017 A 0.0045,7.198186361792551e-06 -1.0878798464191528e-20 0,1 0.216512,0.0017" />
      <line x1="0.194124" y1="-0.034684" x2="0.194124" y2="-0.024684" />
      <line x1="0.214824" y1="-0.034684" x2="0.214824" y2="-0.024684" />
      <line x1="0.210624" y1="-0.034684" x2="0.210624" y2="-0.024684" />
      <line x1="0.2148" y1="-0.034716" x2="0.2148" y2="-0.024716" />
      <line x1="0.2106" y1="-0.034716" x2="0.2106" y2="-0.024716" />
      <line x1="0.1941" y1="-0.034716" x2="0.1941" y2="-0.024716" />
      <line x1="0.224012" y1="-0.0339" x2="0.224012" y2="-0.0326" />
      <line x1="0.218012" y1="-0.0339" x2="0.218012" y2="-0.0326" />
      <line x1="0.229024" y1="1.6e-05" x2="0.229024" y2="0.001716" />
      <line x1="0.213024" y1="1.6e-05" x2="0.213024" y2="0.001716" />
      <line x1="0.211022" y1="1.3e-05" x2="0.211022" y2="0.001713" />
      <line x1="0.26083" y1="-0.032563" x2="0.26083" y2="3.7e-05" />
      <line x1="0.26083" y1="-0.032563" x2="0.27763" y2="-0.032563" />
      <line x1="0.27763" y1="3.7e-05" x2="0.27763" y2="-0.032563" />
      <line x1="0.26083" y1="3.7e-05" x2="0.27763" y2="3.7e-05" />
      <path d="M 0.26083,3.7e-05 A 0.004,6.390708572468823e-06 5.401692930135933e-38 0,1 0.25923,3.6e-05" />
      <line x1="0.25683" y1="-0.032569" x2="0.25683" y2="3.1e-05" />
      <path d="M 0.256962,-0.032568 A 0.004,6.390708572468823e-06 5.401692930135933e-38 0,1 0.25683,-0.032569" />
      <line x1="0.256962" y1="-0.032568" x2="0.256962" y2="-0.024668" />
      <path d="M 0.259264,-0.024663 A 0.004,6.390708572468823e-06 -4.841106953386328e-38 0,1 0.256962,-0.024668" />
      <line x1="0.259264" y1="-0.032563" x2="0.259264" y2="-0.024663" />
      <path d="M 0.26083,-0.032563 A 0.004,6.390708572468823e-06 5.401692930135933e-38 0,1 0.259264,-0.032563" />
      <path d="M 0.27763,-0.032563 A 0.004,6.390708572468823e-06 -180.0 0,0 0.279196,-0.032563" />
      <path d="M 0.279196,-0.032563 A 0.0021,3.355122000546132e-06 -4.841106953386328e-38 0,1 0.27738,-0.032567" />
      <path d="M 0.27738,-0.032567 A 0.0021,3.355122000546132e-06 -4.841106953386328e-38 0,1 0.27763,-0.032568" />
      <line x1="0.27763" y1="-0.032568" x2="0.27763" y2="-0.032571" />
      <path d="M 0.27763,-0.032571 A 0.0021,3.355122000546132e-06 -4.841106953386328e-38 0,1 0.27738,-0.032573" />
      <path d="M 0.27738,-0.032573 A 0.0021,3.355122000546132e-06 -4.841106953386328e-38 0,1 0.27763,-0.032574" />
      <line x1="0.27763" y1="-0.032574" x2="0.27763" y2="-0.032604" />
      <path d="M 0.27763,-0.032604 A 0.0021,3.355122000546132e-06 -4.841106953386328e-38 0,1 0.27738,-0.032606" />
      <path d="M 0.27738,-0.032606 A 0.0021,3.355122000546132e-06 -4.841106953386328e-38 0,1 0.27763,-0.032608" />
      <line x1="0.27763" y1="-0.032608" x2="0.27763" y2="-0.032631" />
      <line x1="0.27763" y1="-0.032631" x2="0.281503" y2="-0.032631" />
      <line x1="0.256957" y1="-0.032631" x2="0.26083" y2="-0.032631" />
      <line x1="0.26083" y1="-0.032608" x2="0.26083" y2="-0.032631" />
      <path d="M 0.26083,-0.032608 A 0.0021,3.355122000546132e-06 -4.841106953386328e-38 0,1 0.26108,-0.032606" />
      <path d="M 0.26108,-0.032606 A 0.0021,3.355122000546132e-06 -4.841106953386328e-38 0,1 0.26083,-0.032604" />
      <line x1="0.26083" y1="-0.032574" x2="0.26083" y2="-0.032604" />
      <path d="M 0.26083,-0.032574 A 0.0021,3.355122000546132e-06 -4.841106953386328e-38 0,1 0.26108,-0.032573" />
      <path d="M 0.26108,-0.032573 A 0.0021,3.355122000546132e-06 -4.841106953386328e-38 0,1 0.26083,-0.032571" />
      <line x1="0.26083" y1="-0.032568" x2="0.26083" y2="-0.032571" />
      <path d="M 0.26083,-0.032568 A 0.0021,3.355122000546132e-06 -4.841106953386328e-38 0,1 0.26108,-0.032567" />
      <path d="M 0.26108,-0.032567 A 0.0021,3.355122000546132e-06 -4.841106953386328e-38 0,1 0.259264,-0.032563" />
      <path d="M 0.26923,-0.032624 A 0.003,4.793031429351618e-06 -4.841106953386328e-38 0,1 0.27223,-0.032619" />
      <path d="M 0.27223,-0.032619 A 0.0030000000000000027,4.793031429351622e-06 -4.841106953386328e-38 0,1 0.26623,-0.032619" />
      <path d="M 0.26623,-0.032619 A 0.003,4.793031429351618e-06 -4.841106953386328e-38 0,1 0.26923,-0.032624" />
      <line x1="0.28163" y1="3.1e-05" x2="0.28163" y2="-0.032569" />
      <path d="M 0.281498,-0.032568 A 0.004,6.390708572468823e-06 -180.0 0,0 0.28163,-0.032569" />
      <line x1="0.281498" y1="-0.032568" x2="0.281498" y2="-0.024668" />
      <path d="M 0.281498,-0.024668 A 0.004,6.390708572468823e-06 -4.841106953386328e-38 0,1 0.279196,-0.024663" />
      <line x1="0.279196" y1="-0.032563" x2="0.279196" y2="-0.024663" />
      <path d="M 0.27763,3.7e-05 A 0.004,6.390708572468823e-06 -180.0 0,0 0.27923,3.6e-05" />
      <path d="M 0.26123,-3e-06 A 0.002,3.1953542862344116e-06 5.401692930135933e-38 0,1 0.25923,-6e-06" />
      <line x1="0.25923" y1="-6e-06" x2="0.25923" y2="-3.2e-05" />
      <line x1="0.27923" y1="-6e-06" x2="0.27923" y2="-3.2e-05" />
      <path d="M 0.27723,-3e-06 A 0.002,3.1953542862344116e-06 -180.0 0,0 0.27923,-6e-06" />
      <line x1="0.26123" y1="-3e-06" x2="0.27723" y2="-3e-06" />
      <line x1="0.25683" y1="-0.034666" x2="0.25683" y2="-0.034731" />
      <line x1="0.25683" y1="-0.034666" x2="0.25683" y2="-0.032566" />
      <line x1="0.25683" y1="-0.032566" x2="0.25683" y2="-0.032569" />
      <line x1="0.25683" y1="-0.032566" x2="0.256919" y2="-0.032566" />
      <path d="M 0.256919,-0.032566 A 0.0021,3.355122000546132e-06 -4.841106953386328e-38 0,1 0.25688,-0.032567" />
      <path d="M 0.25688,-0.032567 A 0.0021,3.355122000546132e-06 -4.841106953386328e-38 0,1 0.256962,-0.032568" />
      <line x1="0.258086" y1="-0.03467" x2="0.258086" y2="-0.02467" />
      <path d="M 0.256919,-0.034666 A 0.0021,3.355122000546132e-06 -4.841106953386328e-38 0,1 0.25688,-0.034667" />
      <path d="M 0.25688,-0.034667 A 0.0021,3.355122000546132e-06 -4.841106953386328e-38 0,1 0.258086,-0.03467" />
      <line x1="0.256919" y1="-0.034666" x2="0.256919" y2="-0.032566" />
      <path d="M 0.256962,-0.024668 A 0.0021,3.355122000546132e-06 -4.841106953386328e-38 0,1 0.258086,-0.02467" />
      <path d="M 0.259875,-0.02467 A 0.0021,3.355122000546132e-06 180.0 0,0 0.26108,-0.024673" />
      <path d="M 0.26108,-0.024673 A 0.0021,3.355122000546132e-06 180.0 1,0 0.25688,-0.024673" />
      <path d="M 0.25688,-0.024673 A 0.0021,3.355122000546132e-06 180.0 0,0 0.258086,-0.02467" />
      <path d="M 0.259875,-0.02467 A 0.0021,3.355122000546132e-06 -4.841106953386328e-38 0,1 0.26108,-0.024667" />
      <path d="M 0.26108,-0.024667 A 0.0021,3.355122000546132e-06 -4.841106953386328e-38 0,1 0.259264,-0.024663" />
      <line x1="0.26083" y1="-0.034668" x2="0.26083" y2="-0.032568" />
      <path d="M 0.259875,-0.03467 A 0.0021,3.355122000546132e-06 -4.841106953386328e-38 0,1 0.26083,-0.034668" />
      <line x1="0.259875" y1="-0.03467" x2="0.259875" y2="-0.02467" />
      <line x1="0.278586" y1="-0.03467" x2="0.278586" y2="-0.02467" />
      <path d="M 0.27763,-0.034668 A 0.0021,3.355122000546132e-06 -4.841106953386328e-38 0,1 0.278586,-0.03467" />
      <line x1="0.27763" y1="-0.034668" x2="0.27763" y2="-0.032568" />
      <path d="M 0.279196,-0.024663 A 0.0021,3.355122000546132e-06 -4.841106953386328e-38 0,1 0.27738,-0.024667" />
      <path d="M 0.27738,-0.024667 A 0.0021,3.355122000546132e-06 -4.841106953386328e-38 0,1 0.278586,-0.02467" />
      <line x1="0.27763" y1="-0.034668" x2="0.27763" y2="-0.034671" />
      <line x1="0.27763" y1="-0.034671" x2="0.27763" y2="-0.032571" />
      <path d="M 0.280375,-0.03467 A 0.0021,3.355122000546132e-06 -180.0 0,0 0.28158,-0.034673" />
      <path d="M 0.28158,-0.034673 A 0.0021,3.355122000546132e-06 -180.0 0,0 0.27763,-0.034674" />
      <line x1="0.280375" y1="-0.03467" x2="0.280375" y2="-0.02467" />
      <path d="M 0.278586,-0.02467 A 0.0021,3.3551220005461326e-06 -1.5178898456982524e-18 0,1 0.27738,-0.024673" />
      <path d="M 0.27738,-0.024673 A 0.0021,3.3551220005461326e-06 -1.5178898456982524e-18 0,1 0.28158,-0.024673" />
      <path d="M 0.28158,-0.024673 A 0.0021,3.3551220005461326e-06 -1.5178898456982524e-18 0,1 0.280375,-0.02467" />
      <path d="M 0.278586,-0.03467 A 0.0021,3.355122000546132e-06 -4.841106953386328e-38 0,1 0.27763,-0.034671" />
      <line x1="0.27763" y1="-0.034674" x2="0.27763" y2="-0.032574" />
      <line x1="0.27763" y1="-0.034674" x2="0.27763" y2="-0.034704" />
      <line x1="0.27763" y1="-0.034704" x2="0.27763" y2="-0.032604" />
      <path d="M 0.27763,-0.034708 A 0.0021,3.355122000546132e-06 -4.841106953386328e-38 0,1 0.27948,-0.034709" />
      <line x1="0.27763" y1="-0.034708" x2="0.27763" y2="-0.032608" />
      <path d="M 0.27948,-0.034709 A 0.0021,3.355122000546132e-06 -4.841106953386328e-38 0,1 0.28158,-0.034706" />
      <path d="M 0.28158,-0.034706 A 0.0021,3.355122000546132e-06 -4.841106953386328e-38 0,1 0.27763,-0.034704" />
      <path d="M 0.27948,-0.024709 A 0.0021,3.355122000546132e-06 -4.841106953386328e-38 0,1 0.28158,-0.024706" />
      <path d="M 0.28158,-0.024706 A 0.0021,3.355122000546132e-06 -4.841106953386328e-38 0,1 0.27738,-0.024706" />
      <path d="M 0.27738,-0.024706 A 0.0021,3.355122000546132e-06 -4.841106953386328e-38 0,1 0.27948,-0.024709" />
      <line x1="0.27763" y1="-0.034708" x2="0.27763" y2="-0.034731" />
      <line x1="0.27763" y1="-0.032635" x2="0.27763" y2="-0.032631" />
      <line x1="0.26083" y1="-0.032635" x2="0.26083" y2="-0.032631" />
      <line x1="0.26083" y1="-0.034708" x2="0.26083" y2="-0.034731" />
      <line x1="0.26083" y1="-0.034708" x2="0.26083" y2="-0.032608" />
      <path d="M 0.26083,-0.034704 A 0.0021,3.355122000546132e-06 -4.841106953386328e-38 0,1 0.25688,-0.034706" />
      <path d="M 0.25688,-0.034706 A 0.0021,3.355122000546132e-06 -4.841106953386328e-38 0,1 0.25898,-0.034709" />
      <line x1="0.26083" y1="-0.034704" x2="0.26083" y2="-0.032604" />
      <path d="M 0.25898,-0.034709 A 0.0021,3.355122000546132e-06 -4.841106953386328e-38 0,1 0.26083,-0.034708" />
      <path d="M 0.25898,-0.024709 A 0.0021,3.355122000546132e-06 -4.841106953386328e-38 0,1 0.26108,-0.024706" />
      <path d="M 0.26108,-0.024706 A 0.0021,3.355122000546132e-06 -4.841106953386328e-38 0,1 0.25688,-0.024706" />
      <path d="M 0.25688,-0.024706 A 0.0021,3.355122000546132e-06 -4.841106953386328e-38 0,1 0.25898,-0.024709" />
      <line x1="0.26083" y1="-0.034674" x2="0.26083" y2="-0.034704" />
      <line x1="0.26083" y1="-0.034674" x2="0.26083" y2="-0.032574" />
      <path d="M 0.26083,-0.034674 A 0.0021,3.3551220005461317e-06 -180.0 0,0 0.25688,-0.034673" />
      <path d="M 0.25688,-0.034673 A 0.0021,3.3551220005461317e-06 -180.0 0,0 0.258086,-0.03467" />
      <line x1="0.26083" y1="-0.034671" x2="0.26083" y2="-0.032571" />
      <path d="M 0.26083,-0.034671 A 0.0021,3.355122000546132e-06 -4.841106953386328e-38 0,1 0.259875,-0.03467" />
      <line x1="0.26083" y1="-0.034668" x2="0.26083" y2="-0.034671" />
      <path d="M 0.27223,-0.033919 A 0.0030000000000000027,4.793031429351622e-06 -4.841106953386328e-38 0,1 0.26623,-0.033919" />
      <line x1="0.28163" y1="-0.034666" x2="0.28163" y2="-0.034731" />
      <line x1="0.28163" y1="-0.034666" x2="0.28163" y2="-0.032566" />
      <line x1="0.28163" y1="-0.032566" x2="0.28163" y2="-0.032569" />
      <line x1="0.281542" y1="-0.032566" x2="0.28163" y2="-0.032566" />
      <path d="M 0.281498,-0.032568 A 0.0021,3.355122000546132e-06 -4.841106953386328e-38 0,1 0.28158,-0.032567" />
      <path d="M 0.28158,-0.032567 A 0.0021,3.355122000546132e-06 -4.841106953386328e-38 0,1 0.281542,-0.032566" />
      <path d="M 0.280375,-0.02467 A 0.0021,3.355122000546132e-06 -4.841106953386328e-38 0,1 0.281498,-0.024668" />
      <line x1="0.281542" y1="-0.034666" x2="0.281542" y2="-0.032566" />
      <path d="M 0.280375,-0.03467 A 0.0021,3.355122000546132e-06 -4.841106953386328e-38 0,1 0.28158,-0.034667" />
      <path d="M 0.28158,-0.034667 A 0.0021,3.355122000546132e-06 -4.841106953386328e-38 0,1 0.281542,-0.034666" />
      <line x1="0.25923" y1="-6e-06" x2="0.25923" y2="0.001694" />
      <line x1="0.27923" y1="-6e-06" x2="0.27923" y2="0.001694" />
      <line x1="0.26473" y1="0.001697" x2="0.27373" y2="0.001697" />
      <line x1="0.25683" y1="-0.034666" x2="0.256919" y2="-0.034666" />
      <line x1="0.281542" y1="-0.034666" x2="0.28163" y2="-0.034666" />
      <path d="M 0.27373,0.001681 A 0.0045,7.1895471440274255e-06 -4.841106953386328e-38 0,1 0.26473,0.001681" />
      <line x1="0.25688" y1="-0.034667" x2="0.25688" y2="-0.032567" />
      <line x1="0.26108" y1="-0.032567" x2="0.26108" y2="-0.024667" />
      <line x1="0.27738" y1="-0.032567" x2="0.27738" y2="-0.024667" />
      <line x1="0.28158" y1="-0.034673" x2="0.28158" y2="-0.024673" />
      <line x1="0.27738" y1="-0.032573" x2="0.27738" y2="-0.024673" />
      <line x1="0.28158" y1="-0.034706" x2="0.28158" y2="-0.024706" />
      <line x1="0.27738" y1="-0.032606" x2="0.27738" y2="-0.024706" />
      <line x1="0.26108" y1="-0.032606" x2="0.26108" y2="-0.024706" />
      <line x1="0.25688" y1="-0.034706" x2="0.25688" y2="-0.024706" />
      <line x1="0.26108" y1="-0.032573" x2="0.26108" y2="-0.024673" />
      <line x1="0.25688" y1="-0.034673" x2="0.25688" y2="-0.024673" />
      <line x1="0.27223" y1="-0.032635" x2="0.27223" y2="-0.032619" />
      <line x1="0.26623" y1="-0.032635" x2="0.26623" y2="-0.032619" />
      <line x1="0.28158" y1="-0.034667" x2="0.28158" y2="-0.032567" />
      <line x1="0.26123" y1="-3e-06" x2="0.26123" y2="0.001697" />
      <line x1="0.27723" y1="-3e-06" x2="0.27723" y2="0.001697" />
    </g>
    <g fill="none" stroke="rgb(220,60,40)" stroke-width="0.00035" id="coupler">
      <line x1="0.037801" y1="-0.010789" x2="0.01" y2="-0.010789" />
      <line x1="0.037801" y1="-0.010789" x2="0.037801" y2="-0.009789" />
      <line x1="0.037801" y1="-0.009789" x2="0.027801" y2="-0.009789" />
      <line x1="0.027801" y1="-0.009789" x2="0.027801" y2="0.009789" />
      <line x1="0.037801" y1="0.009789" x2="0.027801" y2="0.009789" />
      <line x1="0.037801" y1="0.009789" x2="0.037801" y2="0.010789" />
      <line x1="0.037801" y1="0.010789" x2="0.01" y2="0.010789" />
      <line x1="0.01" y1="0.009789" x2="0.01" y2="0.010789" />
      <path d="M 0.01,0.009789 A 0.009789105352524866,0.009789105352524866 0.0 1,1 0.01,-0.009789" />
      <line x1="0.01" y1="-0.010789" x2="0.01" y2="-0.009789" />
      <path d="M 0.006129,-0.004319 A 0.00125,0.00125 30.292915047062724 1,0 0.005681,-0.003871" />
      <path d="M 0.005681,-0.003871 A 0.0058,0.0058 131.8634957265941 0,0 0.005681,0.003871" />
      <path d="M 0.005681,0.003871 A 0.00125,0.00125 -59.70708495293722 1,0 0.006129,0.004319" />
      <path d="M 0.006129,0.004319 A 0.0058,0.0058 131.8634957265941 0,0 0.013871,0.004319" />
      <path d="M 0.013871,0.004319 A 0.00125,0.00125 -149.70708495293812 1,0 0.014319,0.003871" />
      <path d="M 0.014319,0.003871 A 0.0058,0.0058 131.8634957265941 0,0 0.014319,-0.003871" />
      <path d="M 0.014319,-0.003871 A 0.00125,0.00125 120.29291504706183 1,0 0.013871,-0.004319" />
      <path d="M 0.013871,-0.004319 A 0.0058,0.0058 131.8634957265941 0,0 0.006129,-0.004319" />
      <line x1="0.037801" y1="-0.009789" x2="0.027801" y2="-0.009789" />
      <line x1="0.027801" y1="-0.009789" x2="0.027801" y2="0.009789" />
      <line x1="0.037801" y1="0.009789" x2="0.027801" y2="0.009789" />
      <line x1="0.037801" y1="0.009789" x2="0.037801" y2="-0.009789" />
      <line x1="0.106801" y1="-0.010789" x2="0.079001" y2="-0.010789" />
      <line x1="0.106801" y1="-0.010789" x2="0.106801" y2="0.010789" />
      <line x1="0.106801" y1="0.010789" x2="0.079001" y2="0.010789" />
      <line x1="0.079001" y1="0.009789" x2="0.079001" y2="0.010789" />
      <path d="M 0.079001,0.009789 A 0.009789105352524866,0.009789105352524866 0.0 1,1 0.079001,-0.009789" />
      <line x1="0.079001" y1="-0.010789" x2="0.079001" y2="-0.009789" />
      <path d="M 0.07513,-0.004319 A 0.00125,0.00125 30.292915047062724 1,0 0.074681,-0.003871" />
      <path d="M 0.074681,-0.003871 A 0.0058,0.0058 131.8634957265941 0,0 0.074681,0.003871" />
      <path d="M 0.074681,0.003871 A 0.00125,0.00125 -59.70708495293722 1,0 0.07513,0.004319" />
      <path d="M 0.07513,0.004319 A 0.0058,0.0058 131.8634957265941 0,0 0.082871,0.004319" />
      <path d="M 0.082871,0.004319 A 0.00125,0.00125 -149.70708495293812 1,0 0.08332,0.003871" />
      <path d="M 0.08332,0.003871 A 0.0058,0.0058 131.8634957265941 0,0 0.08332,-0.003871" />
      <path d="M 0.08332,-0.003871 A 0.00125,0.00125 120.29291504706183 1,0 0.082871,-0.004319" />
      <path d="M 0.082871,-0.004319 A 0.0058,0.0058 131.8634957265941 0,0 0.07513,-0.004319" />
      <line x1="0.177802" y1="0.009789" x2="0.177802" y2="-0.009789" />
      <line x1="0.167802" y1="-0.009789" x2="0.177802" y2="-0.009789" />
      <line x1="0.167802" y1="0.009789" x2="0.167802" y2="-0.009789" />
      <line x1="0.167802" y1="0.009789" x2="0.177802" y2="0.009789" />
      <line x1="0.24883" y1="0.011683" x2="0.221029" y2="0.011683" />
      <line x1="0.24883" y1="0.011683" x2="0.248795" y2="0.011717" />
      <line x1="0.248795" y1="0.011717" x2="0.220995" y2="0.011717" />
      <line x1="0.220996" y1="0.011716" x2="0.220995" y2="0.011717" />
      <path d="M 0.220996,0.011716 A 0.009789105352524866,1.576041880922712e-05 2.4762381338981672e-21 0,1 0.211223,0.0117" />
      <path d="M 0.211223,0.0117 A 0.009789105352524866,1.576041880922712e-05 2.4762381338981672e-21 0,1 0.221028,0.011684" />
      <line x1="0.221029" y1="0.011683" x2="0.221028" y2="0.011684" />
      <path d="M 0.217148,0.011693 A 0.00125,2.012494789061864e-06 180.0 0,0 0.21732,0.011692" />
      <path d="M 0.21732,0.011692 A 0.0012500000000000011,2.012494789061866e-06 180.0 1,0 0.21482,0.011692" />
      <path d="M 0.21482,0.011692 A 0.00125,2.012494789061864e-06 180.0 0,0 0.216699,0.011694" />
      <path d="M 0.216699,0.011694 A 0.0058,9.337975821247051e-06 180.0 0,0 0.215212,0.0117" />
      <path d="M 0.215212,0.0117 A 0.0058,9.337975821247051e-06 180.0 0,0 0.216686,0.011706" />
      <path d="M 0.216686,0.011706 A 0.00125,2.012494789061864e-06 180.0 0,0 0.214804,0.011708" />
      <path d="M 0.214804,0.011708 A 0.0012500000000000011,2.012494789061866e-06 180.0 1,0 0.217304,0.011708" />
      <path d="M 0.217304,0.011708 A 0.00125,2.012494789061864e-06 180.0 0,0 0.217134,0.011707" />
      <path d="M 0.217134,0.011707 A 0.0058,9.337975821247051e-06 180.0 0,0 0.224876,0.011707" />
      <path d="M 0.224876,0.011707 A 0.00125,2.012494789061864e-06 -180.0 0,0 0.224704,0.011708" />
      <path d="M 0.224704,0.011708 A 0.0012500000000000011,2.012494789061866e-06 -180.0 1,0 0.227204,0.011708" />
      <path d="M 0.227204,0.011708 A 0.00125,2.012494789061864e-06 -180.0 0,0 0.225325,0.011706" />
      <path d="M 0.225325,0.011706 A 0.0058,9.337975821247051e-06 180.0 0,0 0.226812,0.0117" />
      <path d="M 0.226812,0.0117 A 0.0058,9.337975821247051e-06 180.0 0,0 0.225338,0.011694" />
      <path d="M 0.225338,0.011694 A 0.00125,2.012494789061864e-06 -180.0 0,0 0.22722,0.011692" />
      <path d="M 0.22722,0.011692 A 0.0012500000000000011,2.012494789061866e-06 -180.0 1,0 0.22472,0.011692" />
      <path d="M 0.22472,0.011692 A 0.00125,2.012494789061864e-06 -180.0 0,0 0.22489,0.011693" />
      <path d="M 0.22489,0.011693 A 0.0058,9.337975821247051e-06 180.0 0,0 0.217148,0.011693" />
      <line x1="0.24883" y1="0.001683" x2="0.221029" y2="0.001683" />
      <line x1="0.24883" y1="0.001683" x2="0.24883" y2="0.011683" />
      <line x1="0.221029" y1="0.001683" x2="0.221029" y2="0.011683" />
      <line x1="0.248828" y1="-0.033916" x2="0.248828" y2="0.001683" />
      <line x1="0.24883" y1="-0.033917" x2="0.248828" y2="-0.033916" />
      <line x1="0.24883" y1="-0.043917" x2="0.24883" y2="-0.033917" />
      <line x1="0.220995" y1="0.011716" x2="0.220995" y2="0.011717" />
      <line x1="0.221028" y1="0.001684" x2="0.221028" y2="0.011684" />
      <path d="M 0.211223,0.0017 A 0.009789105352524866,1.576041880922712e-05 2.4762381338981672e-21 0,1 0.221028,0.001684" />
      <line x1="0.221029" y1="0.001683" x2="0.221028" y2="0.001684" />
      <line x1="0.217148" y1="0.011691" x2="0.217148" y2="0.011693" />
      <line x1="0.216699" y1="0.01169" x2="0.216699" y2="0.011694" />
      <line x1="0.216686" y1="0.011694" x2="0.216686" y2="0.011706" />
      <line x1="0.217134" y1="0.011693" x2="0.217134" y2="0.011707" />
      <line x1="0.224876" y1="0.011693" x2="0.224876" y2="0.011707" />
      <line x1="0.225325" y1="0.011694" x2="0.225325" y2="0.011706" />
      <line x1="0.225338" y1="0.01169" x2="0.225338" y2="0.011694" />
      <line x1="0.22489" y1="0.011691" x2="0.22489" y2="0.011693" />
      <line x1="0.238829" y1="-0.033916" x2="0.238829" y2="0.001683" />
      <line x1="0.238829" y1="-0.033916" x2="0.248828" y2="-0.033916" />
      <line x1="0.24883" y1="-0.033917" x2="0.221029" y2="-0.033917" />
      <line x1="0.238797" y1="-0.033884" x2="0.238829" y2="-0.033916" />
      <line x1="0.238797" y1="-0.033883" x2="0.220995" y2="-0.033883" />
      <line x1="0.220996" y1="-0.033884" x2="0.220995" y2="-0.033883" />
      <path d="M 0.220996,-0.033884 A 0.009789105352524866,1.576041880922712e-05 2.4762381338981672e-21 0,1 0.211223,-0.0339" />
      <path d="M 0.211223,-0.0339 A 0.009789105352524866,1.576041880922712e-05 2.4762381338981672e-21 0,1 0.221028,-0.033916" />
      <line x1="0.221029" y1="-0.033917" x2="0.221028" y2="-0.033916" />
      <path d="M 0.217148,-0.033907 A 0.00125,2.012494789061864e-06 180.0 0,0 0.21732,-0.033908" />
      <path d="M 0.21732,-0.033908 A 0.0012500000000000011,2.012494789061866e-06 180.0 1,0 0.21482,-0.033908" />
      <path d="M 0.21482,-0.033908 A 0.00125,2.012494789061864e-06 180.0 0,0 0.216699,-0.033906" />
      <path d="M 0.216699,-0.033906 A 0.0058,9.337975821247051e-06 180.0 0,0 0.215212,-0.0339" />
      <path d="M 0.215212,-0.0339 A 0.0058,9.337975821247051e-06 180.0 0,0 0.216686,-0.033894" />
      <path d="M 0.216686,-0.033894 A 0.00125,2.012494789061864e-06 180.0 0,0 0.214804,-0.033892" />
      <path d="M 0.214804,-0.033892 A 0.0012500000000000011,2.012494789061866e-06 180.0 1,0 0.217304,-0.033892" />
      <path d="M 0.217304,-0.033892 A 0.00125,2.012494789061864e-06 180.0 0,0 0.217134,-0.033893" />
      <path d="M 0.217134,-0.033893 A 0.0058,9.337975821247051e-06 180.0 0,0 0.224876,-0.033893" />
      <path d="M 0.224876,-0.033893 A 0.00125,2.012494789061864e-06 -180.0 0,0 0.224704,-0.033892" />
      <path d="M 0.224704,-0.033892 A 0.0012500000000000011,2.012494789061866e-06 -180.0 1,0 0.227204,-0.033892" />
      <path d="M 0.227204,-0.033892 A 0.00125,2.012494789061864e-06 -180.0 0,0 0.225325,-0.033894" />
      <path d="M 0.225325,-0.033894 A 0.0058,9.337975821247051e-06 180.0 0,0 0.226812,-0.0339" />
      <path d="M 0.226812,-0.0339 A 0.0058,9.337975821247051e-06 180.0 0,0 0.225338,-0.033906" />
      <path d="M 0.225338,-0.033906 A 0.00125,2.012494789061864e-06 -180.0 0,0 0.22722,-0.033908" />
      <path d="M 0.22722,-0.033908 A 0.0012500000000000011,2.012494789061866e-06 -180.0 1,0 0.22472,-0.033908" />
      <path d="M 0.22472,-0.033908 A 0.00125,2.012494789061864e-06 -180.0 0,0 0.22489,-0.033907" />
      <path d="M 0.22489,-0.033907 A 0.0058,9.337975821247051e-06 180.0 0,0 0.217148,-0.033907" />
      <line x1="0.24883" y1="-0.043917" x2="0.221029" y2="-0.043917" />
      <line x1="0.221029" y1="-0.043917" x2="0.221029" y2="-0.033917" />
      <path d="M 0.211223,-0.0439 A 0.009789105352524866,1.576041880922712e-05 2.4762381338981672e-21 0,1 0.221028,-0.043916" />
      <line x1="0.221029" y1="-0.043917" x2="0.221028" y2="-0.043916" />
      <line x1="0.220995" y1="-0.033884" x2="0.220995" y2="-0.033883" />
      <line x1="0.238797" y1="-0.033884" x2="0.238797" y2="0.001683" />
      <line x1="0.221028" y1="-0.043916" x2="0.221028" y2="-0.033916" />
      <line x1="0.217148" y1="-0.033909" x2="0.217148" y2="-0.033907" />
      <line x1="0.216699" y1="-0.03391" x2="0.216699" y2="-0.033906" />
      <line x1="0.22489" y1="-0.033909" x2="0.22489" y2="-0.033907" />
      <line x1="0.225338" y1="-0.03391" x2="0.225338" y2="-0.033906" />
      <line x1="0.225325" y1="-0.033906" x2="0.225325" y2="-0.033894" />
      <line x1="0.224876" y1="-0.033907" x2="0.224876" y2="-0.033893" />
      <line x1="0.217134" y1="-0.033907" x2="0.217134" y2="-0.033893" />
      <line x1="0.216686" y1="-0.033906" x2="0.216686" y2="-0.033894" />
      <line x1="0.211223" y1="0.0017" x2="0.211223" y2="0.0117" />
      <line x1="0.211223" y1="-0.0439" x2="0.211223" y2="-0.0339" />
      <line x1="0.258441" y1="0.011681" x2="0.258441" y2="0.011726" />
      <line x1="0.258441" y1="0.011681" x2="0.280019" y2="0.011681" />
      <line x1="0.280019" y1="0.011681" x2="0.280019" y2="0.011726" />
      <line x1="0.279019" y1="0.011726" x2="0.280019" y2="0.011726" />
      <path d="M 0.279019,0.011726 A 0.009789105352524866,1.5785826799672044e-05 -8.141407106488859e-37 1,1 0.259441,0.011726" />
      <line x1="0.258441" y1="0.011726" x2="0.259441" y2="0.011726" />
      <path d="M 0.264911,0.011732 A 0.00125,2.015739210989346e-06 180.0 0,0 0.26303,0.011734" />
      <path d="M 0.26303,0.011734 A 0.0012500000000000011,2.0157392109893478e-06 180.0 0,0 0.26553,0.011734" />
      <path d="M 0.26553,0.011734 A 0.00125,2.015739210989346e-06 180.0 0,0 0.265359,0.011733" />
      <path d="M 0.265359,0.011733 A 0.0058,9.353029938990565e-06 -180.0 0,0 0.273101,0.011733" />
      <path d="M 0.273101,0.011733 A 0.00125,2.0157392109893457e-06 180.0 0,0 0.27293,0.011734" />
      <path d="M 0.27293,0.011734 A 0.0012500000000000011,2.0157392109893474e-06 180.0 0,0 0.27543,0.011734" />
      <path d="M 0.27543,0.011734 A 0.00125,2.0157392109893457e-06 180.0 0,0 0.27355,0.011732" />
      <path d="M 0.27355,0.011732 A 0.0058,9.353029938990565e-06 -180.0 0,0 0.27503,0.011726" />
      <path d="M 0.27503,0.011726 A 0.0058,9.353029938990565e-06 -180.0 0,0 0.27355,0.01172" />
      <path d="M 0.27355,0.01172 A 0.00125,2.015739210989346e-06 -180.0 0,0 0.27543,0.011718" />
      <path d="M 0.27543,0.011718 A 0.0012500000000000011,2.0157392109893478e-06 -180.0 1,0 0.27293,0.011718" />
      <path d="M 0.27293,0.011718 A 0.00125,2.015739210989346e-06 -180.0 0,0 0.273101,0.011719" />
      <path d="M 0.273101,0.011719 A 0.0058,9.353029938990565e-06 -180.0 0,0 0.265359,0.011719" />
      <path d="M 0.265359,0.011719 A 0.00125,2.0157392109893452e-06 -180.0 0,0 0.26553,0.011718" />
      <path d="M 0.26553,0.011718 A 0.0012500000000000011,2.015739210989347e-06 -180.0 0,0 0.26303,0.011718" />
      <path d="M 0.26303,0.011718 A 0.00125,2.0157392109893452e-06 -180.0 0,0 0.264911,0.01172" />
      <path d="M 0.264911,0.01172 A 0.0058,9.353029938990565e-06 -180.0 0,0 0.26343,0.011726" />
      <path d="M 0.26343,0.011726 A 0.0058,9.353029938990565e-06 -180.0 0,0 0.264911,0.011732" />
      <line x1="0.258441" y1="0.001681" x2="0.258441" y2="0.011681" />
      <line x1="0.258441" y1="0.001681" x2="0.259441" y2="0.001681" />
      <line x1="0.259441" y1="-0.033919" x2="0.259441" y2="0.001681" />
      <line x1="0.258441" y1="-0.033919" x2="0.259441" y2="-0.033919" />
      <line x1="0.258441" y1="-0.043919" x2="0.258441" y2="-0.033919" />
      <line x1="0.258441" y1="-0.043919" x2="0.280019" y2="-0.043919" />
      <line x1="0.280019" y1="-0.043919" x2="0.280019" y2="-0.033919" />
      <line x1="0.279019" y1="-0.033919" x2="0.280019" y2="-0.033919" />
      <line x1="0.279019" y1="-0.033919" x2="0.279019" y2="0.001681" />
      <line x1="0.279019" y1="0.001681" x2="0.280019" y2="0.001681" />
      <line x1="0.280019" y1="0.001681" x2="0.280019" y2="0.011681" />
      <line x1="0.264911" y1="0.01172" x2="0.264911" y2="0.011732" />
      <line x1="0.265359" y1="0.011719" x2="0.265359" y2="0.011733" />
      <line x1="0.273101" y1="0.011719" x2="0.273101" y2="0.011733" />
      <line x1="0.27355" y1="0.01172" x2="0.27355" y2="0.011732" />
      <line x1="0.27355" y1="0.011716" x2="0.27355" y2="0.01172" />
      <line x1="0.273101" y1="0.011717" x2="0.273101" y2="0.011719" />
      <line x1="0.265359" y1="0.011717" x2="0.265359" y2="0.011719" />
      <line x1="0.264911" y1="0.011716" x2="0.264911" y2="0.01172" />
      <line x1="0.258441" y1="-0.033919" x2="0.258441" y2="-0.033874" />
      <line x1="0.280019" y1="-0.033919" x2="0.280019" y2="-0.033874" />
      <line x1="0.279019" y1="-0.033874" x2="0.280019" y2="-0.033874" />
      <path d="M 0.279019,-0.033874 A 0.009789105352524866,1.5785826799672044e-05 -8.141407106488859e-37 0,1 0.27854,-0.033869" />
      <path d="M 0.25992,-0.033869 A 0.009789105352524866,1.5785826799672044e-05 -8.141407106488859e-37 0,1 0.259441,-0.033874" />
      <line x1="0.258441" y1="-0.033874" x2="0.259441" y2="-0.033874" />
    </g>
    <g fill="url(#hatch_coupler)" stroke="none" stroke-width="0" id="coupler_fill">
      <path d="M 0.037801,-0.010789 L 0.01,-0.010789 L 0.01,-0.009789 A 0.009789105352524866,0.009789105352524866 0.0 1,0 0.01,0.009789 L 0.01,0.010789 L 0.037801,0.010789 L 0.037801,0.009789 L 0.027801,0.009789 L 0.027801,-0.009789 L 0.037801,-0.009789 L 0.037801,-0.010789 M 0.005681,-0.003871 A 0.00125,0.00125 30.292915047062724 1,1 0.006129,-0.004319 A 0.0058,0.0058 131.8634957265941 0,1 0.013871,-0.004319 A 0.00125,0.00125 120.29291504706183 1,1 0.014319,-0.003871 A 0.0058,0.0058 131.8634957265941 0,1 0.014319,0.003871 A 0.00125,0.00125 -149.70708495293812 1,1 0.013871,0.004319 A 0.0058,0.0058 131.8634957265941 0,1 0.006129,0.004319 A 0.00125,0.00125 -59.70708495293722 1,1 0.005681,0.003871 A 0.0058,0.0058 131.8634957265941 0,1 0.005681,-0.003871" />
      <path d="M 0.027801,-0.009789 L 0.037801,-0.009789 L 0.037801,0.009789 L 0.027801,0.009789 L 0.027801,-0.009789" />
      <path d="M 0.079001,-0.010789 L 0.106801,-0.010789 L 0.106801,0.010789 L 0.079001,0.010789 L 0.079001,0.009789 A 0.009789105352524866,0.009789105352524866 0.0 1,1 0.079001,-0.009789 L 0.079001,-0.010789 M 0.07513,-0.004319 A 0.00125,0.00125 30.292915047062724 1,0 0.074681,-0.003871 A 0.0058,0.0058 131.8634957265941 0,0 0.074681,0.003871 A 0.00125,0.00125 -59.70708495293722 1,0 0.07513,0.004319 A 0.0058,0.0058 131.8634957265941 0,0 0.082871,0.004319 A 0.00125,0.00125 -149.70708495293812 1,0 0.08332,0.003871 A 0.0058,0.0058 131.8634957265941 0,0 0.08332,-0.003871 A 0.00125,0.00125 120.29291504706183 1,0 0.082871,-0.004319 A 0.0058,0.0058 131.8634957265941 0,0 0.07513,-0.004319" />
      <path d="M 0.177802,-0.009789 L 0.177802,0.009789 L 0.167802,0.009789 L 0.167802,-0.009789 L 0.177802,-0.009789" />
    </g>
    <g fill="none" stroke="rgb(220,60,40)" stroke-opacity="0.4" stroke-width="0.00015" id="coupler_hidden" stroke-dasharray="0.0018 0.00045">
      <line x1="0.24883" y1="0.001683" x2="0.248828" y2="0.001684" />
      <line x1="0.248828" y1="0.001683" x2="0.248828" y2="0.001684" />
      <line x1="0.24883" y1="-0.043917" x2="0.248795" y2="-0.043883" />
      <line x1="0.248795" y1="-0.043883" x2="0.248795" y2="-0.033883" />
      <line x1="0.248797" y1="-0.033884" x2="0.248795" y2="-0.033883" />
      <line x1="0.248797" y1="-0.033884" x2="0.248797" y2="0.001716" />
      <line x1="0.248797" y1="0.001716" x2="0.248795" y2="0.001717" />
      <line x1="0.248795" y1="0.001717" x2="0.248795" y2="0.011717" />
      <line x1="0.248795" y1="0.001717" x2="0.220995" y2="0.001717" />
      <line x1="0.220995" y1="0.001717" x2="0.220995" y2="0.011716" />
      <line x1="0.220996" y1="0.001716" x2="0.220995" y2="0.001717" />
      <line x1="0.220996" y1="0.001716" x2="0.220996" y2="0.011716" />
      <path d="M 0.220996,0.001716 A 0.009789105352524866,1.576041880922712e-05 2.4762381338981672e-21 0,1 0.211223,0.0017" />
      <path d="M 0.217148,0.001693 A 0.00125,2.012494789061864e-06 180.0 0,0 0.21732,0.001692" />
      <path d="M 0.21732,0.001692 A 0.0012500000000000011,2.012494789061866e-06 180.0 1,0 0.21482,0.001692" />
      <path d="M 0.21482,0.001692 A 0.00125,2.012494789061864e-06 180.0 0,0 0.216699,0.001694" />
      <line x1="0.217148" y1="0.001693" x2="0.217148" y2="0.011691" />
      <line x1="0.216699" y1="0.001694" x2="0.216699" y2="0.01169" />
      <path d="M 0.216699,0.001694 A 0.0058,9.337975821247051e-06 180.0 0,0 0.215212,0.0017" />
      <path d="M 0.215212,0.0017 A 0.0058,9.337975821247051e-06 180.0 0,0 0.216686,0.001706" />
      <line x1="0.216686" y1="0.001706" x2="0.216686" y2="0.011694" />
      <path d="M 0.216686,0.001706 A 0.00125,2.012494789061864e-06 180.0 0,0 0.214804,0.001708" />
      <path d="M 0.214804,0.001708 A 0.0012500000000000011,2.012494789061866e-06 180.0 1,0 0.217304,0.001708" />
      <path d="M 0.217304,0.001708 A 0.00125,2.012494789061864e-06 180.0 0,0 0.217134,0.001707" />
      <line x1="0.217134" y1="0.001707" x2="0.217134" y2="0.011693" />
      <path d="M 0.217134,0.001707 A 0.0058,9.337975821247051e-06 180.0 0,0 0.224876,0.001707" />
      <line x1="0.224876" y1="0.001707" x2="0.224876" y2="0.011693" />
      <path d="M 0.224876,0.001707 A 0.00125,2.012494789061864e-06 -180.0 0,0 0.224704,0.001708" />
      <path d="M 0.224704,0.001708 A 0.0012500000000000011,2.012494789061866e-06 -180.0 1,0 0.227204,0.001708" />
      <path d="M 0.227204,0.001708 A 0.00125,2.012494789061864e-06 -180.0 0,0 0.225325,0.001706" />
      <line x1="0.225325" y1="0.001706" x2="0.225325" y2="0.011694" />
      <path d="M 0.225325,0.001706 A 0.0058,9.337975821247051e-06 180.0 0,0 0.226812,0.0017" />
      <path d="M 0.226812,0.0017 A 0.0058,9.337975821247051e-06 180.0 0,0 0.225338,0.001694" />
      <line x1="0.225338" y1="0.001694" x2="0.225338" y2="0.01169" />
      <path d="M 0.225338,0.001694 A 0.00125,2.012494789061864e-06 -180.0 0,0 0.22722,0.001692" />
      <path d="M 0.22722,0.001692 A 0.0012500000000000011,2.012494789061866e-06 -180.0 1,0 0.22472,0.001692" />
      <path d="M 0.22472,0.001692 A 0.00125,2.012494789061864e-06 -180.0 0,0 0.22489,0.001693" />
      <line x1="0.22489" y1="0.001693" x2="0.22489" y2="0.011691" />
      <path d="M 0.22489,0.001693 A 0.0058,9.337975821247051e-06 180.0 0,0 0.217148,0.001693" />
      <line x1="0.248828" y1="0.001684" x2="0.238829" y2="0.001684" />
      <line x1="0.238829" y1="0.001684" x2="0.238797" y2="0.001716" />
      <line x1="0.248797" y1="0.001716" x2="0.238797" y2="0.001716" />
      <line x1="0.238829" y1="0.001683" x2="0.238829" y2="0.001684" />
      <line x1="0.238797" y1="-0.033884" x2="0.248797" y2="-0.033884" />
      <line x1="0.248795" y1="-0.033883" x2="0.238797" y2="-0.033883" />
      <line x1="0.248795" y1="-0.043883" x2="0.220995" y2="-0.043883" />
      <line x1="0.220996" y1="-0.043884" x2="0.220995" y2="-0.043883" />
      <path d="M 0.220996,-0.043884 A 0.009789105352524866,1.576041880922712e-05 2.4762381338981672e-21 0,1 0.211223,-0.0439" />
      <path d="M 0.217134,-0.043893 A 0.00125,2.012494789061865e-06 1.2898308919816724e-17 0,1 0.217304,-0.043892" />
      <path d="M 0.217304,-0.043892 A 0.0012500000000000011,2.0124947890618667e-06 1.2898308919816724e-17 1,1 0.214804,-0.043892" />
      <path d="M 0.214804,-0.043892 A 0.00125,2.012494789061865e-06 1.2898308919816724e-17 0,1 0.216686,-0.043894" />
      <path d="M 0.224876,-0.043893 A 0.0058,9.33797582124705e-06 1.4153127032037207e-19 0,1 0.217134,-0.043893" />
      <path d="M 0.225325,-0.043894 A 0.00125,2.0124947890618646e-06 1.5311396767398307e-17 0,1 0.227204,-0.043892" />
      <path d="M 0.227204,-0.043892 A 0.0012500000000000011,2.0124947890618663e-06 1.5311396767398307e-17 0,1 0.224704,-0.043892" />
      <path d="M 0.224704,-0.043892 A 0.00125,2.0124947890618646e-06 1.5311396767398307e-17 0,1 0.224876,-0.043893" />
      <path d="M 0.225338,-0.043906 A 0.0058,9.33797582124705e-06 1.4153127032037207e-19 0,1 0.226812,-0.0439" />
      <path d="M 0.226812,-0.0439 A 0.0058,9.33797582124705e-06 1.4153127032037207e-19 0,1 0.225325,-0.043894" />
      <path d="M 0.22489,-0.043907 A 0.00125,2.0124947890618646e-06 1.121083114127384e-17 0,1 0.22472,-0.043908" />
      <path d="M 0.22472,-0.043908 A 0.0012500000000000011,2.0124947890618663e-06 1.121083114127384e-17 0,1 0.22722,-0.043908" />
      <path d="M 0.22722,-0.043908 A 0.00125,2.0124947890618646e-06 1.121083114127384e-17 0,1 0.225338,-0.043906" />
      <path d="M 0.217148,-0.043907 A 0.0058,9.33797582124705e-06 1.4153127032037207e-19 0,1 0.22489,-0.043907" />
      <path d="M 0.216699,-0.043906 A 0.00125,2.0124947890618646e-06 1.428190027210397e-17 0,1 0.21482,-0.043908" />
      <path d="M 0.21482,-0.043908 A 0.0012500000000000011,2.0124947890618663e-06 1.428190027210397e-17 0,1 0.21732,-0.043908" />
      <path d="M 0.21732,-0.043908 A 0.00125,2.0124947890618646e-06 1.428190027210397e-17 0,1 0.217148,-0.043907" />
      <path d="M 0.216686,-0.043894 A 0.0058,9.33797582124705e-06 1.4153127032037207e-19 0,1 0.215212,-0.0439" />
      <path d="M 0.215212,-0.0439 A 0.0058,9.33797582124705e-06 1.4153127032037207e-19 0,1 0.216699,-0.043906" />
      <line x1="0.220995" y1="-0.043883" x2="0.220995" y2="-0.033884" />
      <line x1="0.238797" y1="0.001683" x2="0.238797" y2="0.001716" />
      <line x1="0.220996" y1="-0.043884" x2="0.220996" y2="-0.033884" />
      <line x1="0.217148" y1="-0.043907" x2="0.217148" y2="-0.033909" />
      <line x1="0.216699" y1="-0.043906" x2="0.216699" y2="-0.03391" />
      <line x1="0.22489" y1="-0.043907" x2="0.22489" y2="-0.033909" />
      <line x1="0.225338" y1="-0.043906" x2="0.225338" y2="-0.03391" />
      <line x1="0.225325" y1="-0.043894" x2="0.225325" y2="-0.033906" />
      <line x1="0.224876" y1="-0.043893" x2="0.224876" y2="-0.033907" />
      <line x1="0.217134" y1="-0.043893" x2="0.217134" y2="-0.033907" />
      <line x1="0.216686" y1="-0.043894" x2="0.216686" y2="-0.033906" />
      <line x1="0.21732" y1="0.001692" x2="0.21732" y2="0.011692" />
      <line x1="0.21482" y1="0.001692" x2="0.21482" y2="0.011692" />
      <line x1="0.215212" y1="0.0017" x2="0.215212" y2="0.0117" />
      <line x1="0.217304" y1="0.001708" x2="0.217304" y2="0.011708" />
      <line x1="0.214804" y1="0.001708" x2="0.214804" y2="0.011708" />
      <line x1="0.227204" y1="0.001708" x2="0.227204" y2="0.011708" />
      <line x1="0.224704" y1="0.001708" x2="0.224704" y2="0.011708" />
      <line x1="0.226812" y1="0.0017" x2="0.226812" y2="0.0117" />
      <line x1="0.22722" y1="0.001692" x2="0.22722" y2="0.011692" />
      <line x1="0.22472" y1="0.001692" x2="0.22472" y2="0.011692" />
      <line x1="0.21732" y1="-0.043908" x2="0.21732" y2="-0.033908" />
      <line x1="0.21482" y1="-0.043908" x2="0.21482" y2="-0.033908" />
      <line x1="0.22722" y1="-0.043908" x2="0.22722" y2="-0.033908" />
      <line x1="0.22472" y1="-0.043908" x2="0.22472" y2="-0.033908" />
      <line x1="0.226812" y1="-0.0439" x2="0.226812" y2="-0.0339" />
      <line x1="0.227204" y1="-0.043892" x2="0.227204" y2="-0.033892" />
      <line x1="0.224704" y1="-0.043892" x2="0.224704" y2="-0.033892" />
      <line x1="0.217304" y1="-0.043892" x2="0.217304" y2="-0.033892" />
      <line x1="0.214804" y1="-0.043892" x2="0.214804" y2="-0.033892" />
      <line x1="0.215212" y1="-0.0439" x2="0.215212" y2="-0.0339" />
      <line x1="0.258441" y1="0.001681" x2="0.258441" y2="0.001726" />
      <line x1="0.258441" y1="0.001726" x2="0.258441" y2="0.011726" />
      <line x1="0.280019" y1="0.001681" x2="0.280019" y2="0.001726" />
      <line x1="0.280019" y1="0.001726" x2="0.280019" y2="0.011726" />
      <line x1="0.279019" y1="0.001726" x2="0.280019" y2="0.001726" />
      <line x1="0.279019" y1="0.001726" x2="0.279019" y2="0.011726" />
      <line x1="0.259441" y1="0.001726" x2="0.259441" y2="0.011726" />
      <path d="M 0.279019,0.001726 A 0.009789105352524866,1.5785826799672044e-05 -8.141407106488859e-37 1,1 0.259441,0.001726" />
      <line x1="0.258441" y1="0.001726" x2="0.259441" y2="0.001726" />
      <path d="M 0.264911,0.001732 A 0.00125,2.015739210989346e-06 180.0 0,0 0.26303,0.001734" />
      <path d="M 0.26303,0.001734 A 0.0012500000000000011,2.0157392109893478e-06 180.0 0,0 0.26553,0.001734" />
      <path d="M 0.26553,0.001734 A 0.00125,2.015739210989346e-06 180.0 0,0 0.265359,0.001733" />
      <line x1="0.264911" y1="0.001732" x2="0.264911" y2="0.01172" />
      <line x1="0.265359" y1="0.001733" x2="0.265359" y2="0.011719" />
      <path d="M 0.265359,0.001733 A 0.0058,9.353029938990565e-06 -180.0 0,0 0.273101,0.001733" />
      <line x1="0.273101" y1="0.001733" x2="0.273101" y2="0.011719" />
      <path d="M 0.273101,0.001733 A 0.00125,2.0157392109893457e-06 180.0 0,0 0.27293,0.001734" />
      <path d="M 0.27293,0.001734 A 0.0012500000000000011,2.0157392109893474e-06 180.0 0,0 0.27543,0.001734" />
      <path d="M 0.27543,0.001734 A 0.00125,2.0157392109893457e-06 180.0 0,0 0.27355,0.001732" />
      <line x1="0.27355" y1="0.001732" x2="0.27355" y2="0.01172" />
      <path d="M 0.27355,0.001732 A 0.0058,9.353029938990565e-06 -180.0 0,0 0.27503,0.001726" />
      <path d="M 0.27503,0.001726 A 0.0058,9.353029938990565e-06 -180.0 0,0 0.27355,0.00172" />
      <line x1="0.27355" y1="0.00172" x2="0.27355" y2="0.011716" />
      <path d="M 0.27355,0.00172 A 0.00125,2.015739210989346e-06 -180.0 0,0 0.27543,0.001718" />
      <path d="M 0.27543,0.001718 A 0.0012500000000000011,2.0157392109893478e-06 -180.0 1,0 0.27293,0.001718" />
      <path d="M 0.27293,0.001718 A 0.00125,2.015739210989346e-06 -180.0 0,0 0.273101,0.001719" />
      <line x1="0.273101" y1="0.001719" x2="0.273101" y2="0.011717" />
      <path d="M 0.273101,0.001719 A 0.0058,9.353029938990565e-06 -180.0 0,0 0.265359,0.001719" />
      <line x1="0.265359" y1="0.001719" x2="0.265359" y2="0.011717" />
      <path d="M 0.265359,0.001719 A 0.00125,2.0157392109893452e-06 -180.0 0,0 0.26553,0.001718" />
      <path d="M 0.26553,0.001718 A 0.0012500000000000011,2.015739210989347e-06 -180.0 0,0 0.26303,0.001718" />
      <path d="M 0.26303,0.001718 A 0.00125,2.0157392109893452e-06 -180.0 0,0 0.264911,0.00172" />
      <line x1="0.264911" y1="0.00172" x2="0.264911" y2="0.011716" />
      <path d="M 0.264911,0.00172 A 0.0058,9.353029938990565e-06 -180.0 0,0 0.26343,0.001726" />
      <path d="M 0.26343,0.001726 A 0.0058,9.353029938990565e-06 -180.0 0,0 0.264911,0.001732" />
      <line x1="0.259441" y1="0.001681" x2="0.259441" y2="0.001697" />
      <line x1="0.259441" y1="0.001697" x2="0.279019" y2="0.001697" />
      <line x1="0.279019" y1="0.001681" x2="0.279019" y2="0.001697" />
      <line x1="0.259441" y1="-0.033903" x2="0.259441" y2="0.001697" />
      <line x1="0.259441" y1="-0.033903" x2="0.259441" y2="-0.033919" />
      <line x1="0.279019" y1="-0.033903" x2="0.259441" y2="-0.033903" />
      <line x1="0.279019" y1="-0.033903" x2="0.279019" y2="-0.033919" />
      <path d="M 0.27854,-0.033869 A 0.009789105352524866,1.5785826799672044e-05 -8.141407106488859e-37 0,1 0.25992,-0.033869" />
      <path d="M 0.264911,-0.033868 A 0.00125,2.015739210989346e-06 180.0 0,0 0.26303,-0.033866" />
      <path d="M 0.26303,-0.033866 A 0.0012500000000000011,2.0157392109893478e-06 180.0 0,0 0.26553,-0.033866" />
      <path d="M 0.26553,-0.033866 A 0.00125,2.015739210989346e-06 180.0 0,0 0.265359,-0.033867" />
      <path d="M 0.265359,-0.033867 A 0.0058,9.353029938990565e-06 -180.0 0,0 0.273101,-0.033867" />
      <path d="M 0.273101,-0.033867 A 0.00125,2.0157392109893457e-06 180.0 0,0 0.27293,-0.033866" />
      <path d="M 0.27293,-0.033866 A 0.0012500000000000011,2.0157392109893474e-06 180.0 0,0 0.27543,-0.033866" />
      <path d="M 0.27543,-0.033866 A 0.00125,2.0157392109893457e-06 180.0 0,0 0.27355,-0.033868" />
      <path d="M 0.27355,-0.033868 A 0.0058,9.353029938990565e-06 -180.0 0,0 0.27503,-0.033874" />
      <path d="M 0.27503,-0.033874 A 0.0058,9.353029938990565e-06 -180.0 0,0 0.27355,-0.03388" />
      <path d="M 0.27355,-0.03388 A 0.00125,2.015739210989346e-06 -180.0 0,0 0.27543,-0.033882" />
      <path d="M 0.27543,-0.033882 A 0.0012500000000000011,2.0157392109893478e-06 -180.0 1,0 0.27293,-0.033882" />
      <path d="M 0.27293,-0.033882 A 0.00125,2.015739210989346e-06 -180.0 0,0 0.273101,-0.033881" />
      <path d="M 0.273101,-0.033881 A 0.0058,9.353029938990565e-06 -180.0 0,0 0.265359,-0.033881" />
      <path d="M 0.265359,-0.033881 A 0.00125,2.0157392109893452e-06 -180.0 0,0 0.26553,-0.033882" />
      <path d="M 0.26553,-0.033882 A 0.0012500000000000011,2.015739210989347e-06 -180.0 0,0 0.26303,-0.033882" />
      <path d="M 0.26303,-0.033882 A 0.00125,2.0157392109893452e-06 -180.0 0,0 0.264911,-0.03388" />
      <path d="M 0.264911,-0.03388 A 0.0058,9.353029938990565e-06 -180.0 0,0 0.26343,-0.033874" />
      <path d="M 0.26343,-0.033874 A 0.0058,9.353029938990565e-06 -180.0 0,0 0.264911,-0.033868" />
      <line x1="0.258441" y1="-0.043919" x2="0.258441" y2="-0.043874" />
      <line x1="0.258441" y1="-0.043874" x2="0.258441" y2="-0.033874" />
      <line x1="0.280019" y1="-0.043919" x2="0.280019" y2="-0.043874" />
      <line x1="0.279019" y1="-0.043874" x2="0.280019" y2="-0.043874" />
      <path d="M 0.279019,-0.043874 A 0.009789105352524866,1.5785826799672044e-05 -8.141407106488859e-37 1,1 0.259441,-0.043874" />
      <line x1="0.258441" y1="-0.043874" x2="0.259441" y2="-0.043874" />
      <path d="M 0.27355,-0.043868 A 0.00125,2.015739210989346e-06 1.9652942413346715e-18 0,1 0.27543,-0.043866" />
      <path d="M 0.27543,-0.043866 A 0.0012500000000000011,2.0157392109893478e-06 1.9652942413346715e-18 0,1 0.27293,-0.043866" />
      <path d="M 0.27293,-0.043866 A 0.00125,2.015739210989346e-06 1.9652942413346715e-18 0,1 0.273101,-0.043867" />
      <path d="M 0.27355,-0.04388 A 0.0058,9.353029938990565e-06 -1.290116108050734e-18 0,1 0.27503,-0.043874" />
      <path d="M 0.27503,-0.043874 A 0.0058,9.353029938990565e-06 -1.290116108050734e-18 0,1 0.27355,-0.043868" />
      <path d="M 0.273101,-0.043881 A 0.00125,2.015739210989346e-06 -3.1478034668803218e-18 0,1 0.27293,-0.043882" />
      <path d="M 0.27293,-0.043882 A 0.0012500000000000011,2.0157392109893478e-06 -3.1478034668803218e-18 0,1 0.27543,-0.043882" />
      <path d="M 0.27543,-0.043882 A 0.00125,2.015739210989346e-06 -3.1478034668803218e-18 0,1 0.27355,-0.04388" />
      <path d="M 0.265359,-0.043881 A 0.0058,9.353029938990565e-06 -1.290116108050734e-18 0,1 0.273101,-0.043881" />
      <path d="M 0.264911,-0.04388 A 0.00125,2.0157392109893457e-06 -4.888494321402466e-18 0,1 0.26303,-0.043882" />
      <path d="M 0.26303,-0.043882 A 0.0012500000000000011,2.0157392109893474e-06 -4.888494321402466e-18 0,1 0.26553,-0.043882" />
      <path d="M 0.26553,-0.043882 A 0.00125,2.0157392109893457e-06 -4.888494321402466e-18 0,1 0.265359,-0.043881" />
      <path d="M 0.264911,-0.043868 A 0.0058,9.353029938990565e-06 -1.290116108050734e-18 0,1 0.26343,-0.043874" />
      <path d="M 0.26343,-0.043874 A 0.0058,9.353029938990565e-06 -1.290116108050734e-18 0,1 0.264911,-0.04388" />
      <path d="M 0.265359,-0.043867 A 0.00125,2.0157392109893457e-06 -3.4586378763294768e-18 0,1 0.26553,-0.043866" />
      <path d="M 0.26553,-0.043866 A 0.0012500000000000011,2.0157392109893474e-06 -3.4586378763294768e-18 0,1 0.26303,-0.043866" />
      <path d="M 0.26303,-0.043866 A 0.00125,2.0157392109893457e-06 -3.4586378763294768e-18 0,1 0.264911,-0.043868" />
      <path d="M 0.273101,-0.043867 A 0.0058,9.353029938990565e-06 -1.290116108050734e-18 0,1 0.265359,-0.043867" />
      <line x1="0.280019" y1="-0.043874" x2="0.280019" y2="-0.033874" />
      <line x1="0.279019" y1="-0.033903" x2="0.279019" y2="0.001697" />
      <line x1="0.259441" y1="-0.043874" x2="0.259441" y2="-0.033874" />
      <line x1="0.279019" y1="-0.043874" x2="0.279019" y2="-0.033874" />
      <line x1="0.264911" y1="-0.043868" x2="0.264911" y2="-0.033868" />
      <line x1="0.265359" y1="-0.043867" x2="0.265359" y2="-0.033867" />
      <line x1="0.264911" y1="-0.04388" x2="0.264911" y2="-0.03388" />
      <line x1="0.265359" y1="-0.043881" x2="0.265359" y2="-0.033881" />
      <line x1="0.273101" y1="-0.043881" x2="0.273101" y2="-0.033881" />
      <line x1="0.27355" y1="-0.04388" x2="0.27355" y2="-0.03388" />
      <line x1="0.27355" y1="-0.043868" x2="0.27355" y2="-0.033868" />
      <line x1="0.273101" y1="-0.043867" x2="0.273101" y2="-0.033867" />
      <line x1="0.26553" y1="0.001734" x2="0.26553" y2="0.011734" />
      <line x1="0.26303" y1="0.001734" x2="0.26303" y2="0.011734" />
      <line x1="0.27543" y1="0.001734" x2="0.27543" y2="0.011734" />
      <line x1="0.27293" y1="0.001734" x2="0.27293" y2="0.011734" />
      <line x1="0.27503" y1="0.001726" x2="0.27503" y2="0.011726" />
      <line x1="0.27543" y1="0.001718" x2="0.27543" y2="0.011718" />
      <line x1="0.27293" y1="0.001718" x2="0.27293" y2="0.011718" />
      <line x1="0.26553" y1="0.001718" x2="0.26553" y2="0.011718" />
      <line x1="0.26303" y1="0.001718" x2="0.26303" y2="0.011718" />
      <line x1="0.26343" y1="0.001726" x2="0.26343" y2="0.011726" />
      <line x1="0.26553" y1="-0.043866" x2="0.26553" y2="-0.033866" />
      <line x1="0.26303" y1="-0.043866" x2="0.26303" y2="-0.033866" />
      <line x1="0.26343" y1="-0.043874" x2="0.26343" y2="-0.033874" />
      <line x1="0.26553" y1="-0.043882" x2="0.26553" y2="-0.033882" />
      <line x1="0.26303" y1="-0.043882" x2="0.26303" y2="-0.033882" />
      <line x1="0.27543" y1="-0.043882" x2="0.27543" y2="-0.033882" />
      <line x1="0.27293" y1="-0.043882" x2="0.27293" y2="-0.033882" />
      <line x1="0.27503" y1="-0.043874" x2="0.27503" y2="-0.033874" />
      <line x1="0.27543" y1="-0.043866" x2="0.27543" y2="-0.033866" />
      <line x1="0.27293" y1="-0.043866" x2="0.27293" y2="-0.033866" />
    </g>
  </g>
  <text x="0.018900" y="-0.018075" text-anchor="middle" font-family="'Input Sans Narrow', 'DejaVu Sans', Arial, sans-serif" font-size="0.002500" font-weight="bold" fill="#333">A-A</text>
  <text x="0.018900" y="-0.014575" text-anchor="middle" font-family="'Input Sans Narrow', 'DejaVu Sans', Arial, sans-serif" font-size="0.001800" fill="#888">front_horn</text>
  <line x1="0.000000" y1="0.011589" x2="0.000000" y2="0.014589" stroke="#555" stroke-width="0.000140" stroke-opacity="0.5"/>
  <line x1="0.037801" y1="0.011589" x2="0.037801" y2="0.014589" stroke="#555" stroke-width="0.000140" stroke-opacity="0.5"/>
  <line x1="0.000000" y1="0.012989" x2="0.000000" y2="0.014589" stroke="#555" stroke-width="0.000200"/>
  <line x1="0.037801" y1="0.012989" x2="0.037801" y2="0.014589" stroke="#555" stroke-width="0.000200"/>
  <line x1="0.000000" y1="0.013789" x2="0.037801" y2="0.013789" stroke="#555" stroke-width="0.000200"/>
  <polygon points="0.000000,0.013789 0.001500,0.013189 0.001500,0.014389" fill="#555"/>
  <polygon points="0.037801,0.013789 0.036301,0.013189 0.036301,0.014389" fill="#555"/>
  <text x="0.018900" y="0.012589" text-anchor="middle" font-family="'Input Sans Narrow', 'DejaVu Sans', Arial, sans-serif" font-size="0.001600" fill="#555">37.8</text>
  <line x1="0.038601" y1="-0.010789" x2="0.041601" y2="-0.010789" stroke="#555" stroke-width="0.000140" stroke-opacity="0.5"/>
  <line x1="0.038601" y1="0.010789" x2="0.041601" y2="0.010789" stroke="#555" stroke-width="0.000140" stroke-opacity="0.5"/>
  <line x1="0.040001" y1="-0.010789" x2="0.041601" y2="-0.010789" stroke="#555" stroke-width="0.000200"/>
  <line x1="0.040001" y1="0.010789" x2="0.041601" y2="0.010789" stroke="#555" stroke-width="0.000200"/>
  <line x1="0.040801" y1="-0.010789" x2="0.040801" y2="0.010789" stroke="#555" stroke-width="0.000200"/>
  <polygon points="0.040801,-0.010789 0.040201,-0.009289 0.041401,-0.009289" fill="#555"/>
  <polygon points="0.040801,0.010789 0.040201,0.009289 0.041401,0.009289" fill="#555"/>
  <text x="0.042301" y="0.000000" text-anchor="middle" dominant-baseline="central" font-family="'Input Sans Narrow', 'DejaVu Sans', Arial, sans-serif" font-size="0.001600" fill="#555" transform="rotate(-90 0.042301 0.000000)">21.6</text>
  <text x="0.076301" y="-0.018075" text-anchor="middle" font-family="'Input Sans Narrow', 'DejaVu Sans', Arial, sans-serif" font-size="0.002500" font-weight="bold" fill="#333">B-B</text>
  <text x="0.076301" y="-0.014575" text-anchor="middle" font-family="'Input Sans Narrow', 'DejaVu Sans', Arial, sans-serif" font-size="0.001800" fill="#888">rear_horn</text>
  <line x1="0.045801" y1="0.013200" x2="0.045801" y2="0.016200" stroke="#555" stroke-width="0.000140" stroke-opacity="0.5"/>
  <line x1="0.106801" y1="0.013200" x2="0.106801" y2="0.016200" stroke="#555" stroke-width="0.000140" stroke-opacity="0.5"/>
  <line x1="0.045801" y1="0.014600" x2="0.045801" y2="0.016200" stroke="#555" stroke-width="0.000200"/>
  <line x1="0.106801" y1="0.014600" x2="0.106801" y2="0.016200" stroke="#555" stroke-width="0.000200"/>
  <line x1="0.045801" y1="0.015400" x2="0.106801" y2="0.015400" stroke="#555" stroke-width="0.000200"/>
  <polygon points="0.045801,0.015400 0.047301,0.014800 0.047301,0.016000" fill="#555"/>
  <polygon points="0.106801,0.015400 0.105301,0.014800 0.105301,0.016000" fill="#555"/>
  <text x="0.076301" y="0.014200" text-anchor="middle" font-family="'Input Sans Narrow', 'DejaVu Sans', Arial, sans-serif" font-size="0.001600" fill="#555">61.0</text>
  <line x1="0.107601" y1="-0.012400" x2="0.110601" y2="-0.012400" stroke="#555" stroke-width="0.000140" stroke-opacity="0.5"/>
  <line x1="0.107601" y1="0.012400" x2="0.110601" y2="0.012400" stroke="#555" stroke-width="0.000140" stroke-opacity="0.5"/>
  <line x1="0.109001" y1="-0.012400" x2="0.110601" y2="-0.012400" stroke="#555" stroke-width="0.000200"/>
  <line x1="0.109001" y1="0.012400" x2="0.110601" y2="0.012400" stroke="#555" stroke-width="0.000200"/>
  <line x1="0.109801" y1="-0.012400" x2="0.109801" y2="0.012400" stroke="#555" stroke-width="0.000200"/>
  <polygon points="0.109801,-0.012400 0.109201,-0.010900 0.110401,-0.010900" fill="#555"/>
  <polygon points="0.109801,0.012400 0.109201,0.010900 0.110401,0.010900" fill="#555"/>
  <text x="0.111301" y="0.000000" text-anchor="middle" dominant-baseline="central" font-family="'Input Sans Narrow', 'DejaVu Sans', Arial, sans-serif" font-size="0.001600" fill="#555" transform="rotate(-90 0.111301 0.000000)">24.8</text>
  <text x="0.146302" y="-0.018075" text-anchor="middle" font-family="'Input Sans Narrow', 'DejaVu Sans', Arial, sans-serif" font-size="0.002500" font-weight="bold" fill="#333">C-C</text>
  <text x="0.146302" y="-0.014575" text-anchor="middle" font-family="'Input Sans Narrow', 'DejaVu Sans', Arial, sans-serif" font-size="0.001800" fill="#888">mid_body</text>
  <line x1="0.114801" y1="0.013200" x2="0.114801" y2="0.016200" stroke="#555" stroke-width="0.000140" stroke-opacity="0.5"/>
  <line x1="0.177802" y1="0.013200" x2="0.177802" y2="0.016200" stroke="#555" stroke-width="0.000140" stroke-opacity="0.5"/>
  <line x1="0.114801" y1="0.014600" x2="0.114801" y2="0.016200" stroke="#555" stroke-width="0.000200"/>
  <line x1="0.177802" y1="0.014600" x2="0.177802" y2="0.016200" stroke="#555" stroke-width="0.000200"/>
  <line x1="0.114801" y1="0.015400" x2="0.177802" y2="0.015400" stroke="#555" stroke-width="0.000200"/>
  <polygon points="0.114801,0.015400 0.116301,0.014800 0.116301,0.016000" fill="#555"/>
  <polygon points="0.177802,0.015400 0.176302,0.014800 0.176302,0.016000" fill="#555"/>
  <text x="0.146302" y="0.014200" text-anchor="middle" font-family="'Input Sans Narrow', 'DejaVu Sans', Arial, sans-serif" font-size="0.001600" fill="#555">63.0</text>
  <line x1="0.178602" y1="-0.012400" x2="0.181602" y2="-0.012400" stroke="#555" stroke-width="0.000140" stroke-opacity="0.5"/>
  <line x1="0.178602" y1="0.012400" x2="0.181602" y2="0.012400" stroke="#555" stroke-width="0.000140" stroke-opacity="0.5"/>
  <line x1="0.180002" y1="-0.012400" x2="0.181602" y2="-0.012400" stroke="#555" stroke-width="0.000200"/>
  <line x1="0.180002" y1="0.012400" x2="0.181602" y2="0.012400" stroke="#555" stroke-width="0.000200"/>
  <line x1="0.180802" y1="-0.012400" x2="0.180802" y2="0.012400" stroke="#555" stroke-width="0.000200"/>
  <polygon points="0.180802,-0.012400 0.180202,-0.010900 0.181402,-0.010900" fill="#555"/>
  <polygon points="0.180802,0.012400 0.180202,0.010900 0.181402,0.010900" fill="#555"/>
  <text x="0.182302" y="0.000000" text-anchor="middle" dominant-baseline="central" font-family="'Input Sans Narrow', 'DejaVu Sans', Arial, sans-serif" font-size="0.001600" fill="#555" transform="rotate(-90 0.182302 0.000000)">24.8</text>
  <text x="0.217316" y="-0.018075" text-anchor="middle" font-family="'Input Sans Narrow', 'DejaVu Sans', Arial, sans-serif" font-size="0.002500" font-weight="bold" fill="#333">side_XZ</text>
  <line x1="0.185802" y1="0.044717" x2="0.185802" y2="0.047717" stroke="#555" stroke-width="0.000140" stroke-opacity="0.5"/>
  <line x1="0.248830" y1="0.044717" x2="0.248830" y2="0.047717" stroke="#555" stroke-width="0.000140" stroke-opacity="0.5"/>
  <line x1="0.185802" y1="0.046117" x2="0.185802" y2="0.047717" stroke="#555" stroke-width="0.000200"/>
  <line x1="0.248830" y1="0.046117" x2="0.248830" y2="0.047717" stroke="#555" stroke-width="0.000200"/>
  <line x1="0.185802" y1="0.046917" x2="0.248830" y2="0.046917" stroke="#555" stroke-width="0.000200"/>
  <polygon points="0.185802,0.046917 0.187302,0.046317 0.187302,0.047517" fill="#555"/>
  <polygon points="0.248830,0.046917 0.247330,0.046317 0.247330,0.047517" fill="#555"/>
  <text x="0.217316" y="0.045717" text-anchor="middle" font-family="'Input Sans Narrow', 'DejaVu Sans', Arial, sans-serif" font-size="0.001600" fill="#555">63.0</text>
  <line x1="0.249630" y1="-0.011717" x2="0.252630" y2="-0.011717" stroke="#555" stroke-width="0.000140" stroke-opacity="0.5"/>
  <line x1="0.249630" y1="0.043917" x2="0.252630" y2="0.043917" stroke="#555" stroke-width="0.000140" stroke-opacity="0.5"/>
  <line x1="0.251030" y1="-0.011717" x2="0.252630" y2="-0.011717" stroke="#555" stroke-width="0.000200"/>
  <line x1="0.251030" y1="0.043917" x2="0.252630" y2="0.043917" stroke="#555" stroke-width="0.000200"/>
  <line x1="0.251830" y1="-0.011717" x2="0.251830" y2="0.043917" stroke="#555" stroke-width="0.000200"/>
  <polygon points="0.251830,-0.011717 0.251230,-0.010217 0.252430,-0.010217" fill="#555"/>
  <polygon points="0.251830,0.043917 0.251230,0.042417 0.252430,0.042417" fill="#555"/>
  <text x="0.253330" y="0.016100" text-anchor="middle" dominant-baseline="central" font-family="'Input Sans Narrow', 'DejaVu Sans', Arial, sans-serif" font-size="0.001600" fill="#555" transform="rotate(-90 0.253330 0.016100)">55.6</text>
  <line x1="0.182802" y1="-0.001700" x2="0.251830" y2="-0.001700" stroke="#555" stroke-width="0.000250" stroke-dasharray="0.002500,0.000800,0.000500,0.000800"/>
  <text x="0.181302" y="-0.001100" text-anchor="end" font-family="'Input Sans Narrow', 'DejaVu Sans', Arial, sans-serif" font-size="0.002000" font-weight="bold" fill="#555">A</text>
  <text x="0.253330" y="-0.001100" text-anchor="start" font-family="'Input Sans Narrow', 'DejaVu Sans', Arial, sans-serif" font-size="0.002000" font-weight="bold" fill="#555">A</text>
  <line x1="0.182802" y1="0.033900" x2="0.251830" y2="0.033900" stroke="#555" stroke-width="0.000250" stroke-dasharray="0.002500,0.000800,0.000500,0.000800"/>
  <text x="0.181302" y="0.034500" text-anchor="end" font-family="'Input Sans Narrow', 'DejaVu Sans', Arial, sans-serif" font-size="0.002000" font-weight="bold" fill="#555">B</text>
  <text x="0.253330" y="0.034500" text-anchor="start" font-family="'Input Sans Narrow', 'DejaVu Sans', Arial, sans-serif" font-size="0.002000" font-weight="bold" fill="#555">B</text>
  <line x1="0.182802" y1="0.016100" x2="0.251830" y2="0.016100" stroke="#555" stroke-width="0.000250" stroke-dasharray="0.002500,0.000800,0.000500,0.000800"/>
  <text x="0.181302" y="0.016700" text-anchor="end" font-family="'Input Sans Narrow', 'DejaVu Sans', Arial, sans-serif" font-size="0.002000" font-weight="bold" fill="#555">C</text>
  <text x="0.253330" y="0.016700" text-anchor="start" font-family="'Input Sans Narrow', 'DejaVu Sans', Arial, sans-serif" font-size="0.002000" font-weight="bold" fill="#555">C</text>
  <text x="0.269230" y="-0.018075" text-anchor="middle" font-family="'Input Sans Narrow', 'DejaVu Sans', Arial, sans-serif" font-size="0.002500" font-weight="bold" fill="#333">side_YZ</text>
  <line x1="0.256830" y1="0.044719" x2="0.256830" y2="0.047719" stroke="#555" stroke-width="0.000140" stroke-opacity="0.5"/>
  <line x1="0.281630" y1="0.044719" x2="0.281630" y2="0.047719" stroke="#555" stroke-width="0.000140" stroke-opacity="0.5"/>
  <line x1="0.256830" y1="0.046119" x2="0.256830" y2="0.047719" stroke="#555" stroke-width="0.000200"/>
  <line x1="0.281630" y1="0.046119" x2="0.281630" y2="0.047719" stroke="#555" stroke-width="0.000200"/>
  <line x1="0.256830" y1="0.046919" x2="0.281630" y2="0.046919" stroke="#555" stroke-width="0.000200"/>
  <polygon points="0.256830,0.046919 0.258330,0.046319 0.258330,0.047519" fill="#555"/>
  <polygon points="0.281630,0.046919 0.280130,0.046319 0.280130,0.047519" fill="#555"/>
  <text x="0.269230" y="0.045719" text-anchor="middle" font-family="'Input Sans Narrow', 'DejaVu Sans', Arial, sans-serif" font-size="0.001600" fill="#555">24.8</text>
  <line x1="0.282430" y1="-0.011742" x2="0.285430" y2="-0.011742" stroke="#555" stroke-width="0.000140" stroke-opacity="0.5"/>
  <line x1="0.282430" y1="0.043919" x2="0.285430" y2="0.043919" stroke="#555" stroke-width="0.000140" stroke-opacity="0.5"/>
  <line x1="0.283830" y1="-0.011742" x2="0.285430" y2="-0.011742" stroke="#555" stroke-width="0.000200"/>
  <line x1="0.283830" y1="0.043919" x2="0.285430" y2="0.043919" stroke="#555" stroke-width="0.000200"/>
  <line x1="0.284630" y1="-0.011742" x2="0.284630" y2="0.043919" stroke="#555" stroke-width="0.000200"/>
  <polygon points="0.284630,-0.011742 0.284030,-0.010242 0.285230,-0.010242" fill="#555"/>
  <polygon points="0.284630,0.043919 0.284030,0.042419 0.285230,0.042419" fill="#555"/>
  <text x="0.286130" y="0.016089" text-anchor="middle" dominant-baseline="central" font-family="'Input Sans Narrow', 'DejaVu Sans', Arial, sans-serif" font-size="0.001600" fill="#555" transform="rotate(-90 0.286130 0.016089)">55.7</text>
  <line x1="0.253830" y1="-0.001700" x2="0.284630" y2="-0.001700" stroke="#555" stroke-width="0.000250" stroke-dasharray="0.002500,0.000800,0.000500,0.000800"/>
  <text x="0.252330" y="-0.001100" text-anchor="end" font-family="'Input Sans Narrow', 'DejaVu Sans', Arial, sans-serif" font-size="0.002000" font-weight="bold" fill="#555">A</text>
  <text x="0.286130" y="-0.001100" text-anchor="start" font-family="'Input Sans Narrow', 'DejaVu Sans', Arial, sans-serif" font-size="0.002000" font-weight="bold" fill="#555">A</text>
  <line x1="0.253830" y1="0.033900" x2="0.284630" y2="0.033900" stroke="#555" stroke-width="0.000250" stroke-dasharray="0.002500,0.000800,0.000500,0.000800"/>
  <text x="0.252330" y="0.034500" text-anchor="end" font-family="'Input Sans Narrow', 'DejaVu Sans', Arial, sans-serif" font-size="0.002000" font-weight="bold" fill="#555">B</text>
  <text x="0.286130" y="0.034500" text-anchor="start" font-family="'Input Sans Narrow', 'DejaVu Sans', Arial, sans-serif" font-size="0.002000" font-weight="bold" fill="#555">B</text>
  <line x1="0.253830" y1="0.016100" x2="0.284630" y2="0.016100" stroke="#555" stroke-width="0.000250" stroke-dasharray="0.002500,0.000800,0.000500,0.000800"/>
  <text x="0.252330" y="0.016700" text-anchor="end" font-family="'Input Sans Narrow', 'DejaVu Sans', Arial, sans-serif" font-size="0.002000" font-weight="bold" fill="#555">C</text>
  <text x="0.286130" y="0.016700" text-anchor="start" font-family="'Input Sans Narrow', 'DejaVu Sans', Arial, sans-serif" font-size="0.002000" font-weight="bold" fill="#555">C</text>
  <text x="-0.001175" y="0.052094" font-family="'Input Sans Narrow', 'DejaVu Sans', Arial, sans-serif" font-size="0.003500" font-weight="bold" fill="#222">coupler</text>
  <line x1="-0.001175" y1="0.056094" x2="0.008825" y2="0.056094" stroke="#333" stroke-width="0.000350"/>
  <line x1="-0.001175" y1="0.055094" x2="-0.001175" y2="0.057094" stroke="#333" stroke-width="0.000250"/>
  <line x1="0.008825" y1="0.055094" x2="0.008825" y2="0.057094" stroke="#333" stroke-width="0.000250"/>
  <text x="0.010325" y="0.056794" font-family="'Input Sans Narrow', 'DejaVu Sans', Arial, sans-serif" font-size="0.001800" fill="#888">10 mm</text>
  <rect x="0.028825" y="0.049594" width="0.004000" height="0.002500" fill="url(#hatch_servo)" stroke="rgb(60,60,60)" stroke-width="0.000300"/>
  <text x="0.034325" y="0.051594" font-family="'Input Sans Narrow', 'DejaVu Sans', Arial, sans-serif" font-size="0.001800" fill="rgb(60,60,60)">servo</text>
  <rect x="0.028825" y="0.053094" width="0.004000" height="0.002500" fill="url(#hatch_coupler)" stroke="rgb(220,60,40)" stroke-width="0.000300"/>
  <text x="0.034325" y="0.055094" font-family="'Input Sans Narrow', 'DejaVu Sans', Arial, sans-serif" font-size="0.001800" fill="rgb(220,60,40)">coupler</text>
</svg>