<?xml version='1.0' encoding='utf-8'?>
<svg width="260.6mm" height="49.8mm" viewBox="-0.0031 -0.0246 0.2606 0.0498" version="1.1" xmlns="http://www.w3.org/2000/svg">
  <g transform="scale(1,-1)" stroke-linecap="round">
    <g fill="none" stroke="rgb(60,60,60)" stroke-width="0.0002" id="servo">
      <line x1="0.0028" y1="-0.0124" x2="0.0028" y2="0.0124" />
      <line x1="0.0028" y1="-0.0124" x2="0.0482" y2="-0.0124" />
      <line x1="0.0482" y1="-0.0124" x2="0.0482" y2="0.0124" />
      <line x1="0.0028" y1="0.0124" x2="0.0482" y2="0.0124" />
      <line x1="0.0588" y1="0.0124" x2="0.1042" y2="0.0124" />
      <line x1="0.1042" y1="0.0124" x2="0.1042" y2="-0.0124" />
      <line x1="0.0588" y1="-0.0124" x2="0.1042" y2="-0.0124" />
      <line x1="0.0588" y1="0.0124" x2="0.0588" y2="-0.0124" />
      <line x1="0.1141" y1="0.01335" x2="0.1141" y2="0.0124" />
      <line x1="0.1141" y1="0.01335" x2="0.1448" y2="0.01335" />
      <line x1="0.1448" y1="0.01335" x2="0.1448" y2="0.0124" />
      <line x1="0.1141" y1="0.0124" x2="0.1448" y2="0.0124" />
      <line x1="0.1141" y1="-0.0124" x2="0.1448" y2="-0.0124" />
      <line x1="0.1448" y1="-0.0124" x2="0.1448" y2="-0.01335" />
      <line x1="0.1141" y1="-0.01335" x2="0.1448" y2="-0.01335" />
      <line x1="0.1141" y1="-0.0124" x2="0.1141" y2="-0.01335" />
      <line x1="0.21" y1="0.0159" x2="0.21" y2="0.0187" />
      <line x1="0.21" y1="0.0159" x2="0.2162" y2="0.0159" />
      <line x1="0.2162" y1="0.0159" x2="0.2162" y2="-0.0159" />
      <line x1="0.1708" y1="-0.0159" x2="0.2162" y2="-0.0159" />
      <line x1="0.1708" y1="0.0159" x2="0.1708" y2="-0.0159" />
      <line x1="0.1708" y1="0.0159" x2="0.202" y2="0.0159" />
      <line x1="0.202" y1="0.0159" x2="0.202" y2="0.0187" />
      <line x1="0.202" y1="0.0187" x2="0.21" y2="0.0187" />
      <line x1="0.2268" y1="0.0159" x2="0.2516" y2="0.0159" />
      <line x1="0.2516" y1="0.0159" x2="0.2516" y2="-0.0159" />
      <line x1="0.2268" y1="-0.0159" x2="0.2516" y2="-0.0159" />
      <line x1="0.2268" y1="0.0159" x2="0.2268" y2="-0.0159" />
      <line x1="0.2516" y1="-0.0159" x2="0.25255" y2="-0.0159" />
      <line x1="0.25255" y1="-0.0159" x2="0.25255" y2="-0.0201" />
      <line x1="0.2516" y1="-0.0201" x2="0.25255" y2="-0.0201" />
      <line x1="0.2516" y1="-0.0159" x2="0.2516" y2="-0.0201" />
      <line x1="0.2268" y1="-0.0159" x2="0.2268" y2="-0.0201" />
      <line x1="0.22585" y1="-0.0201" x2="0.2268" y2="-0.0201" />
      <line x1="0.22585" y1="-0.0159" x2="0.22585" y2="-0.0201" />
      <line x1="0.22585" y1="-0.0159" x2="0.2268" y2="-0.0159" />
    </g>
    <g fill="rgb(60,60,60)" fill-opacity="0.15" stroke="rgb(60,60,60)" stroke-opacity="0.0" stroke-width="0.0" id="servo_fill">
      <path d="M 0.0028,0.0124 L 0.0028,-0.0124 L 0.0482,-0.0124 L 0.0482,0.0124 L 0.0028,0.0124" />
      <path d="M 0.1042,0.0124 L 0.0588,0.0124 L 0.0588,-0.0124 L 0.1042,-0.0124 L 0.1042,0.0124" />
      <path d="M 0.1141,0.01335 L 0.1141,0.0124 L 0.1448,0.0124 L 0.1448,0.01335 L 0.1141,0.01335" />
      <path d="M 0.1448,-0.0124 L 0.1141,-0.0124 L 0.1141,-0.01335 L 0.1448,-0.01335 L 0.1448,-0.0124" />
      <path d="M 0.21,0.0159 L 0.21,0.0187 L 0.202,0.0187 L 0.202,0.0159 L 0.1708,0.0159 L 0.1708,-0.0159 L 0.2162,-0.0159 L 0.2162,0.0159 L 0.21,0.0159" />
      <path d="M 0.2516,0.0159 L 0.2268,0.0159 L 0.2268,-0.0159 L 0.2516,-0.0159 L 0.2516,0.0159" />
      <path d="M 0.25255,-0.0159 L 0.2516,-0.0159 L 0.2516,-0.0201 L 0.25255,-0.0201 L 0.25255,-0.0159" />
      <path d="M 0.2268,-0.0201 L 0.2268,-0.0159 L 0.22585,-0.0159 L 0.22585,-0.0201 L 0.2268,-0.0201" />
    </g>
    <g fill="none" stroke="rgb(50,120,190)" stroke-width="0.0002" id="bracket">
      <line x1="0.0" y1="0.0152" x2="0.051" y2="0.0152" />
      <line x1="0.051" y1="0.0152" x2="0.051" y2="-0.0152" />
      <line x1="0.0" y1="-0.0152" x2="0.051" y2="-0.0152" />
      <line x1="0.0" y1="0.0152" x2="0.0" y2="-0.0152" />
      <line x1="0.0025" y1="0.0127" x2="0.0025" y2="-0.0127" />
      <line x1="0.0025" y1="-0.0127" x2="0.0485" y2="-0.0127" />
      <line x1="0.0485" y1="0.0127" x2="0.0485" y2="-0.0127" />
      <line x1="0.0025" y1="0.0127" x2="0.0485" y2="0.0127" />
      <line x1="0.056" y1="0.0152" x2="0.107" y2="0.0152" />
      <line x1="0.107" y1="0.0152" x2="0.107" y2="-0.0152" />
      <line x1="0.056" y1="-0.0152" x2="0.107" y2="-0.0152" />
      <line x1="0.056" y1="0.0152" x2="0.056" y2="-0.0152" />
      <line x1="0.0585" y1="0.0127" x2="0.0585" y2="-0.0127" />
      <line x1="0.0585" y1="-0.0127" x2="0.1045" y2="-0.0127" />
      <line x1="0.1045" y1="0.0127" x2="0.1045" y2="-0.0127" />
      <line x1="0.0585" y1="0.0127" x2="0.1045" y2="0.0127" />
      <line x1="0.112" y1="0.0152" x2="0.163" y2="0.0152" />
      <line x1="0.163" y1="0.0152" x2="0.163" y2="-0.0152" />
      <line x1="0.112" y1="-0.0152" x2="0.163" y2="-0.0152" />
      <line x1="0.112" y1="-0.005" x2="0.112" y2="-0.0152" />
      <line x1="0.112" y1="-0.005" x2="0.1158" y2="-0.005" />
      <line x1="0.1158" y1="0.005" x2="0.1158" y2="-0.005" />
      <line x1="0.112" y1="0.005" x2="0.1158" y2="0.005" />
      <line x1="0.112" y1="0.0152" x2="0.112" y2="0.005" />
      <path d="M 0.1191,-0.009356 A 0.0021,0.0021 0.0 1,1 0.1191,-0.011144" />
      <path d="M 0.1191,-0.011144 A 0.0021,0.0021 0.0 1,1 0.1191,-0.009356" />
      <circle cx="0.1417" cy="-0.01025" r="0.0021" />
      <path d="M 0.1191,0.011144 A 0.0021,0.0021 0.0 1,1 0.1191,0.009356" />
      <path d="M 0.1191,0.009356 A 0.0021,0.0021 0.0 1,1 0.1191,0.011144" />
      <circle cx="0.1417" cy="0.01025" r="0.0021" />
      <line x1="0.168" y1="0.0215" x2="0.219" y2="0.0215" />
      <line x1="0.219" y1="0.0215" x2="0.219" y2="-0.0221" />
      <line x1="0.168" y1="-0.0221" x2="0.219" y2="-0.0221" />
      <line x1="0.168" y1="-0.0189" x2="0.168" y2="-0.0221" />
      <line x1="0.168" y1="-0.0189" x2="0.1718" y2="-0.0189" />
      <line x1="0.1718" y1="-0.0162" x2="0.1718" y2="-0.0189" />
      <line x1="0.1718" y1="-0.0162" x2="0.2165" y2="-0.0162" />
      <line x1="0.2165" y1="0.0194" x2="0.2165" y2="-0.0162" />
      <line x1="0.1705" y1="0.0194" x2="0.2165" y2="0.0194" />
      <line x1="0.1705" y1="0.0194" x2="0.1705" y2="-0.0129" />
      <line x1="0.168" y1="-0.0129" x2="0.1705" y2="-0.0129" />
      <line x1="0.168" y1="0.0215" x2="0.168" y2="-0.0129" />
      <line x1="0.224" y1="0.0215" x2="0.2544" y2="0.0215" />
      <line x1="0.2544" y1="0.0215" x2="0.2544" y2="-0.0221" />
      <line x1="0.224" y1="-0.0221" x2="0.2544" y2="-0.0221" />
      <line x1="0.224" y1="0.0215" x2="0.224" y2="-0.0221" />
      <line x1="0.2265" y1="-0.0162" x2="0.2519" y2="-0.0162" />
      <line x1="0.2519" y1="0.0194" x2="0.2519" y2="-0.0162" />
      <line x1="0.2265" y1="0.0194" x2="0.2519" y2="0.0194" />
      <line x1="0.2265" y1="0.0194" x2="0.2265" y2="-0.0162" />
    </g>
    <g fill="rgb(50,120,190)" fill-opacity="0.15" stroke="rgb(50,120,190)" stroke-opacity="0.0" stroke-width="0.0" id="bracket_fill">
      <path d="M 0.051,0.0152 L 0.0,0.0152 L 0.0,-0.0152 L 0.051,-0.0152 L 0.051,0.0152 M 0.0025,-0.0127 L 0.0025,0.0127 L 0.0485,0.0127 L 0.0485,-0.0127 L 0.0025,-0.0127" />
      <path d="M 0.107,0.0152 L 0.056,0.0152 L 0.056,-0.0152 L 0.107,-0.0152 L 0.107,0.0152 M 0.0585,-0.0127 L 0.0585,0.0127 L 0.1045,0.0127 L 0.1045,-0.0127 L 0.0585,-0.0127" />
      <path d="M 0.163,0.0152 L 0.112,0.0152 L 0.112,0.005 L 0.1158,0.005 L 0.1158,-0.005 L 0.112,-0.005 L 0.112,-0.0152 L 0.163,-0.0152 L 0.163,0.0152 M 0.1191,-0.011144 A 0.0021,0.0021 0.0 1,0 0.1191,-0.009356 A 0.0021,0.0021 0.0 1,0 0.1191,-0.011144 M 0.1438,-0.01025 A 0.0021000000000000046,0.0021000000000000046 0.0 0,0 0.1396,-0.01025 A 0.0021000000000000046,0.0021000000000000046 0.0 0,0 0.1438,-0.01025 M 0.1191,0.009356 A 0.0021,0.0021 0.0 1,0 0.1191,0.011144 A 0.0021,0.0021 0.0 1,0 0.1191,0.009356 M 0.1438,0.01025 A 0.0021000000000000046,0.0021000000000000046 0.0 0,0 0.1396,0.01025 A 0.0021000000000000046,0.0021000000000000046 0.0 0,0 0.1438,0.01025" />
      <path d="M 0.219,0.0215 L 0.168,0.0215 L 0.168,-0.0129 L 0.1705,-0.0129 L 0.1705,0.0194 L 0.2165,0.0194 L 0.2165,-0.0162 L 0.1718,-0.0162 L 0.1718,-0.0189 L 0.168,-0.0189 L 0.168,-0.0221 L 0.219,-0.0221 L 0.219,0.0215" />
      <path d="M 0.2544,0.0215 L 0.224,0.0215 L 0.224,-0.0221 L 0.2544,-0.0221 L 0.2544,0.0215 M 0.2519,-0.0162 L 0.2265,-0.0162 L 0.2265,0.0194 L 0.2519,0.0194 L 0.2519,-0.0162" />
    </g>
  </g>
</svg>