<?xml version='1.0' encoding='utf-8'?>
<svg width="160.391mm" height="69.8mm" viewBox="-0.0031 -0.0218 0.160391 0.0698" version="1.1" xmlns="http://www.w3.org/2000/svg">
  <g transform="scale(1,-1)" stroke-linecap="round">
    <g fill="none" stroke="rgb(50,120,190)" stroke-width="0.0002" id="cradle">
      <line x1="0.0" y1="0.0152" x2="0.007526" y2="0.0152" />
      <line x1="0.007526" y1="0.0152" x2="0.007526" y2="0.0127" />
      <line x1="0.0025" y1="0.0127" x2="0.007526" y2="0.0127" />
      <line x1="0.0025" y1="0.0127" x2="0.0025" y2="-0.0127" />
      <line x1="0.0025" y1="-0.0127" x2="0.007526" y2="-0.0127" />
      <line x1="0.007526" y1="-0.0127" x2="0.007526" y2="-0.0152" />
      <line x1="0.0" y1="-0.0152" x2="0.007526" y2="-0.0152" />
      <line x1="0.0" y1="0.0152" x2="0.0" y2="-0.0152" />
      <line x1="0.10089" y1="0.0187" x2="0.108417" y2="0.0187" />
      <line x1="0.108417" y1="0.0187" x2="0.108417" y2="0.0162" />
      <line x1="0.10339" y1="0.0162" x2="0.108417" y2="0.0162" />
      <line x1="0.10339" y1="0.0162" x2="0.10339" y2="-0.0129" />
      <line x1="0.10089" y1="-0.0129" x2="0.10339" y2="-0.0129" />
      <line x1="0.10089" y1="0.0187" x2="0.10089" y2="-0.0129" />
      <line x1="0.10089" y1="-0.0189" x2="0.10469" y2="-0.0189" />
      <line x1="0.10469" y1="-0.0162" x2="0.10469" y2="-0.0189" />
      <line x1="0.10469" y1="-0.0162" x2="0.108417" y2="-0.0162" />
      <line x1="0.108417" y1="-0.0162" x2="0.108417" y2="-0.0221" />
      <line x1="0.10089" y1="-0.0221" x2="0.108417" y2="-0.0221" />
      <line x1="0.10089" y1="-0.0189" x2="0.10089" y2="-0.0221" />
    </g>
    <g fill="rgb(50,120,190)" fill-opacity="0.15" stroke="rgb(50,120,190)" stroke-opacity="0.0" stroke-width="0.0" id="cradle_fill">
      <path d="M 0.007526,0.0152 L 0.0,0.0152 L 0.0,-0.0152 L 0.007526,-0.0152 L 0.007526,-0.0127 L 0.0025,-0.0127 L 0.0025,0.0127 L 0.007526,0.0127 L 0.007526,0.0152" />
      <path d="M 0.108417,0.0187 L 0.10089,0.0187 L 0.10089,-0.0129 L 0.10339,-0.0129 L 0.10339,0.0162 L 0.108417,0.0162 L 0.108417,0.0187" />
      <path d="M 0.10469,-0.0189 L 0.10089,-0.0189 L 0.10089,-0.0221 L 0.108417,-0.0221 L 0.108417,-0.0162 L 0.10469,-0.0162 L 0.10469,-0.0189" />
    </g>
    <g fill="none" stroke="rgb(60,60,60)" stroke-width="0.0002" id="servo">
      <line x1="0.0028" y1="0.0124" x2="0.0482" y2="0.0124" />
      <line x1="0.0482" y1="0.0124" x2="0.0482" y2="-0.0124" />
      <line x1="0.0028" y1="-0.0124" x2="0.0482" y2="-0.0124" />
      <line x1="0.0028" y1="0.0124" x2="0.0028" y2="-0.0124" />
      <line x1="0.14289" y1="0.0159" x2="0.14289" y2="0.0187" />
      <line x1="0.14289" y1="0.0159" x2="0.14909" y2="0.0159" />
      <line x1="0.14909" y1="0.0159" x2="0.14909" y2="-0.0159" />
      <line x1="0.10369" y1="-0.0159" x2="0.14909" y2="-0.0159" />
      <line x1="0.10369" y1="0.0159" x2="0.10369" y2="-0.0159" />
      <line x1="0.10369" y1="0.0159" x2="0.13489" y2="0.0159" />
      <line x1="0.13489" y1="0.0159" x2="0.13489" y2="0.0187" />
      <line x1="0.13489" y1="0.0187" x2="0.14289" y2="0.0187" />
    </g>
    <g fill="rgb(60,60,60)" fill-opacity="0.15" stroke="rgb(60,60,60)" stroke-opacity="0.0" stroke-width="0.0" id="servo_fill">
      <path d="M 0.0482,0.0124 L 0.0028,0.0124 L 0.0028,-0.0124 L 0.0482,-0.0124 L 0.0482,0.0124" />
      <path d="M 0.14289,0.0159 L 0.14289,0.0187 L 0.13489,0.0187 L 0.13489,0.0159 L 0.10369,0.0159 L 0.10369,-0.0159 L 0.14909,-0.0159 L 0.14909,0.0159 L 0.14289,0.0159" />
    </g>
    <g fill="none" stroke="rgb(220,60,40)" stroke-width="0.0002" id="coupler">
      <line x1="0.053301" y1="-0.010789" x2="0.0255" y2="-0.010789" />
      <line x1="0.053301" y1="-0.010789" x2="0.053301" y2="-0.009789" />
      <line x1="0.0255" y1="-0.010789" x2="0.0255" y2="-0.009789" />
      <line x1="0.053301" y1="-0.009789" x2="0.043301" y2="-0.009789" />
      <path d="M 0.0255,0.009789 A 0.009789105352524866,0.009789105352524866 0.0 1,1 0.0255,-0.009789" />
      <line x1="0.043301" y1="-0.009789" x2="0.043301" y2="0.009789" />
      <line x1="0.0255" y1="0.009789" x2="0.0255" y2="0.010789" />
      <line x1="0.053301" y1="0.009789" x2="0.043301" y2="0.009789" />
      <line x1="0.053301" y1="0.010789" x2="0.0255" y2="0.010789" />
      <line x1="0.053301" y1="0.009789" x2="0.053301" y2="0.010789" />
      <circle cx="0.02055" cy="-0.00495" r="0.00125" />
      <circle cx="0.0255" cy="0.0" r="0.0053" />
      <circle cx="0.03045" cy="-0.00495" r="0.00125" />
      <circle cx="0.02055" cy="0.00495" r="0.00125" />
      <circle cx="0.03045" cy="0.00495" r="0.00125" />
      <line x1="0.053301" y1="-0.009789" x2="0.043301" y2="-0.009789" />
      <line x1="0.043301" y1="-0.009789" x2="0.043301" y2="0.009789" />
      <line x1="0.053301" y1="0.009789" x2="0.043301" y2="0.009789" />
      <line x1="0.053301" y1="0.009789" x2="0.053301" y2="-0.009789" />
      <line x1="0.09589" y1="-0.010789" x2="0.06809" y2="-0.010789" />
      <line x1="0.09589" y1="-0.010789" x2="0.09589" y2="0.010789" />
      <line x1="0.09589" y1="0.010789" x2="0.06809" y2="0.010789" />
      <line x1="0.06809" y1="0.009789" x2="0.06809" y2="0.010789" />
      <path d="M 0.06809,0.009789 A 0.009789105352524866,0.009789105352524866 0.0 1,1 0.06809,-0.009789" />
      <line x1="0.06809" y1="-0.010789" x2="0.06809" y2="-0.009789" />
      <circle cx="0.06314" cy="-0.00495" r="0.00125" />
      <circle cx="0.06809" cy="0.0" r="0.0053" />
      <circle cx="0.07304" cy="-0.00495" r="0.00125" />
      <circle cx="0.06314" cy="0.00495" r="0.00125" />
      <circle cx="0.07304" cy="0.00495" r="0.00125" />
      <line x1="0.13169" y1="0.0028" x2="0.13169" y2="0.0128" />
      <line x1="0.13169" y1="0.0128" x2="0.154191" y2="0.0128" />
      <line x1="0.154191" y1="0.0128" x2="0.154191" y2="-0.0449" />
      <line x1="0.13169" y1="-0.0449" x2="0.154191" y2="-0.0449" />
      <line x1="0.13169" y1="-0.0449" x2="0.13169" y2="-0.0349" />
      <line x1="0.13169" y1="-0.0349" x2="0.144191" y2="-0.0349" />
      <line x1="0.144191" y1="0.0028" x2="0.144191" y2="-0.0349" />
      <line x1="0.13169" y1="0.0028" x2="0.144191" y2="0.0028" />
      <line x1="0.116601" y1="0.0128" x2="0.12109" y2="0.0128" />
      <line x1="0.12109" y1="0.0028" x2="0.12109" y2="0.0128" />
      <line x1="0.116601" y1="0.0028" x2="0.12109" y2="0.0028" />
      <line x1="0.116601" y1="0.0028" x2="0.116601" y2="0.0128" />
      <line x1="0.116601" y1="-0.0349" x2="0.12109" y2="-0.0349" />
      <line x1="0.12109" y1="-0.0449" x2="0.12109" y2="-0.0349" />
      <line x1="0.116601" y1="-0.0449" x2="0.12109" y2="-0.0449" />
      <line x1="0.116601" y1="-0.0449" x2="0.116601" y2="-0.0349" />
    </g>
    <g fill="rgb(220,60,40)" fill-opacity="0.15" stroke="rgb(220,60,40)" stroke-opacity="0.0" stroke-width="0.0" id="coupler_fill">
      <path d="M 0.053301,-0.010789 L 0.0255,-0.010789 L 0.0255,-0.009789 A 0.009789105352524866,0.009789105352524866 0.0 1,0 0.0255,0.009789 L 0.0255,0.010789 L 0.053301,0.010789 L 0.053301,0.009789 L 0.043301,0.009789 L 0.043301,-0.009789 L 0.053301,-0.009789 L 0.053301,-0.010789 M 0.0218,-0.00495 A 0.00125,0.00125 0.0 0,1 0.0193,-0.00495 A 0.00125,0.00125 0.0 0,1 0.0218,-0.00495 M 0.0308,0.0 A 0.005300000000000001,0.005300000000000001 0.0 0,1 0.0202,0.0 A 0.005300000000000001,0.005300000000000001 0.0 0,1 0.0308,-0.0 M 0.0317,-0.00495 A 0.00125,0.00125 0.0 0,1 0.0292,-0.00495 A 0.00125,0.00125 0.0 0,1 0.0317,-0.00495 M 0.0218,0.00495 A 0.00125,0.00125 0.0 0,1 0.0193,0.00495 A 0.00125,0.00125 0.0 0,1 0.0218,0.00495 M 0.0317,0.00495 A 0.00125,0.00125 0.0 0,1 0.0292,0.00495 A 0.00125,0.00125 0.0 0,1 0.0317,0.00495" />
      <path d="M 0.043301,-0.009789 L 0.053301,-0.009789 L 0.053301,0.009789 L 0.043301,0.009789 L 0.043301,-0.009789" />
      <path d="M 0.06809,-0.010789 L 0.09589,-0.010789 L 0.09589,0.010789 L 0.06809,0.010789 L 0.06809,0.009789 A 0.009789105352524866,0.009789105352524866 0.0 1,1 0.06809,-0.009789 L 0.06809,-0.010789 M 0.06439,-0.00495 A 0.0012500000000000011,0.0012500000000000011 0.0 0,0 0.06189,-0.00495 A 0.0012500000000000011,0.0012500000000000011 0.0 0,0 0.06439,-0.00495 M 0.07339,-0.0 A 0.0053,0.0053 0.0 0,0 0.06279,0.0 A 0.0053,0.0053 0.0 0,0 0.07339,0.0 M 0.07429,-0.00495 A 0.00125,0.00125 0.0 0,0 0.07179,-0.00495 A 0.00125,0.00125 0.0 0,0 0.07429,-0.00495 M 0.06439,0.00495 A 0.0012500000000000011,0.0012500000000000011 0.0 0,0 0.06189,0.00495 A 0.0012500000000000011,0.0012500000000000011 0.0 0,0 0.06439,0.00495 M 0.07429,0.00495 A 0.00125,0.00125 0.0 0,0 0.07179,0.00495 A 0.00125,0.00125 0.0 0,0 0.07429,0.00495" />
      <path d="M 0.13169,0.0128 L 0.13169,0.0028 L 0.144191,0.0028 L 0.144191,-0.0349 L 0.13169,-0.0349 L 0.13169,-0.0449 L 0.154191,-0.0449 L 0.154191,0.0128 L 0.13169,0.0128" />
      <path d="M 0.12109,0.0128 L 0.116601,0.0128 L 0.116601,0.0028 L 0.12109,0.0028 L 0.12109,0.0128" />
      <path d="M 0.12109,-0.0349 L 0.116601,-0.0349 L 0.116601,-0.0449 L 0.12109,-0.0449 L 0.12109,-0.0349" />
    </g>
  </g>
</svg>