<?xml version='1.0' encoding='utf-8'?>
<svg width="297.77mm" height="92.85mm" viewBox="-0.003175 -0.022016 0.297769 0.092852" version="1.1" xmlns="http://www.w3.org/2000/svg">
  <defs>
    <pattern id="hatch_servo" width="0.0012" height="0.0012" patternUnits="userSpaceOnUse" patternTransform="rotate(45)">
      <line x1="0" y1="0" x2="0" y2="0.0012" stroke="rgb(60,60,60)" stroke-width="0.0001" stroke-opacity="0.6"/>
    </pattern>
    <pattern id="hatch_coupler" width="0.0012" height="0.0012" patternUnits="userSpaceOnUse" patternTransform="rotate(75)">
      <line x1="0" y1="0" x2="0" y2="0.0012" stroke="rgb(220,60,40)" stroke-width="0.0001" stroke-opacity="0.6"/>
    </pattern>
  </defs>
  <g transform="scale(1,-1)" stroke-linecap="round">
    <g fill="none" stroke="rgb(60,60,60)" stroke-width="0.00035" id="servo">
      <path d="M 0.04959,0.0124 A 0.004,0.004 180.0 0,1 0.04559,0.0084" />
      <line x1="0.04959" y1="0.0124" x2="0.08699" y2="0.0124" />
      <path d="M 0.09099,0.0084 A 0.004,0.004 0.0 0,1 0.08699,0.0124" />
      <line x1="0.09099" y1="0.0084" x2="0.09099" y2="-0.0084" />
      <path d="M 0.08699,-0.0124 A 0.004,0.004 0.0 0,1 0.09099,-0.0084" />
      <line x1="0.04959" y1="-0.0124" x2="0.08699" y2="-0.0124" />
      <path d="M 0.04559,-0.0084 A 0.004,0.004 180.0 0,1 0.04959,-0.0124" />
      <line x1="0.04559" y1="0.0084" x2="0.04559" y2="-0.0084" />
      <path d="M 0.12059,0.0124 A 0.004,0.004 180.0 0,1 0.11659,0.0084" />
      <line x1="0.12059" y1="0.0124" x2="0.15799" y2="0.0124" />
      <path d="M 0.16199,0.0084 A 0.004,0.004 0.0 0,1 0.15799,0.0124" />
      <line x1="0.16199" y1="0.0084" x2="0.16199" y2="-0.0084" />
      <path d="M 0.15799,-0.0124 A 0.004,0.004 0.0 0,1 0.16199,-0.0084" />
      <line x1="0.12059" y1="-0.0124" x2="0.15799" y2="-0.0124" />
      <path d="M 0.11659,-0.0084 A 0.004,0.004 180.0 0,1 0.12059,-0.0124" />
      <line x1="0.11659" y1="0.0084" x2="0.11659" y2="-0.0084" />
      <line x1="0.187591" y1="-0.048527" x2="0.187591" y2="-0.015927" />
      <line x1="0.187591" y1="-0.015927" x2="0.187611" y2="-0.015873" />
      <path d="M 0.187591,-0.015927 A 0.004,1.2758326567258113e-05 2.7972745530007117e-20 0,1 0.191586,-0.01594" />
      <line x1="0.191586" y1="-0.048539" x2="0.191586" y2="-0.01594" />
      <path d="M 0.190567,-0.048539 A 0.004,1.2758326567258113e-05 2.7972745530007117e-20 0,1 0.191586,-0.048539" />
      <line x1="0.190567" y1="-0.048539" x2="0.190567" y2="-0.040639" />
      <path d="M 0.187909,-0.040632 A 0.004,1.2758326567258113e-05 5.045731239565665e-20 0,1 0.190567,-0.040639" />
      <line x1="0.187909" y1="-0.048532" x2="0.187909" y2="-0.040632" />
      <path d="M 0.187591,-0.048527 A 0.004,1.2758326567258113e-05 2.7972745530007117e-20 0,1 0.187909,-0.048532" />
      <line x1="0.232991" y1="-0.048527" x2="0.233011" y2="-0.048473" />
      <path d="M 0.232991,-0.048527 A 0.004,1.2758326567258113e-05 -180.0 0,0 0.229986,-0.048539" />
      <path d="M 0.190567,-0.048526 A 0.0021,6.698121447810509e-06 5.045731239565665e-20 0,1 0.187909,-0.048532" />
      <path d="M 0.187611,-0.015873 A 0.004,1.2758326567258113e-05 -180.0 0,0 0.191616,-0.01586" />
      <line x1="0.191586" y1="-0.01594" x2="0.228986" y2="-0.01594" />
      <line x1="0.191616" y1="-0.01586" x2="0.212792" y2="-0.015861" />
      <path d="M 0.232991,-0.015927 A 0.004,1.2758326567258113e-05 -180.0 0,0 0.228986,-0.01594" />
      <path d="M 0.233011,-0.015873 A 0.004,1.2758326567258113e-05 2.7972745530007117e-20 0,1 0.232811,-0.015869" />
      <line x1="0.232991" y1="-0.015927" x2="0.233011" y2="-0.015873" />
      <path d="M 0.212792,-0.015926 A 0.002,6.379163283629056e-06 2.7972745530007117e-20 0,1 0.214789,-0.015932" />
      <line x1="0.214789" y1="-0.015932" x2="0.230789" y2="-0.015932" />
      <path d="M 0.232792,-0.015926 A 0.002,6.379163283629056e-06 -180.0 0,0 0.230789,-0.015932" />
      <line x1="0.232792" y1="-0.015926" x2="0.232811" y2="-0.015875" />
      <line x1="0.228986" y1="-0.04854" x2="0.228986" y2="-0.01594" />
      <line x1="0.228986" y1="-0.04854" x2="0.229986" y2="-0.04854" />
      <line x1="0.229986" y1="-0.05064" x2="0.229986" y2="-0.04854" />
      <line x1="0.189586" y1="-0.050639" x2="0.229986" y2="-0.05064" />
      <line x1="0.189586" y1="-0.050639" x2="0.189586" y2="-0.048539" />
      <line x1="0.189586" y1="-0.048539" x2="0.191586" y2="-0.048539" />
      <path d="M 0.189586,-0.048539 A 0.0021,6.698121447810509e-06 5.045731239565665e-20 0,1 0.190567,-0.048539" />
      <line x1="0.229991" y1="-0.050573" x2="0.230011" y2="-0.050573" />
      <line x1="0.230011" y1="-0.050573" x2="0.230011" y2="-0.048539" />
      <line x1="0.230016" y1="-0.05056" x2="0.230016" y2="-0.048539" />
      <line x1="0.230011" y1="-0.050573" x2="0.230016" y2="-0.05056" />
      <line x1="0.233011" y1="-0.015873" x2="0.233011" y2="-0.048473" />
      <path d="M 0.230016,-0.048461 A 0.004,1.2758326567258113e-05 2.7972745530007117e-20 0,1 0.229016,-0.04846" />
      <line x1="0.232991" y1="-0.048527" x2="0.232991" y2="-0.015927" />
      <path d="M 0.229986,-0.048539 A 0.004,1.2758326567258113e-05 -180.0 0,0 0.228986,-0.04854" />
      <line x1="0.229991" y1="-0.050627" x2="0.229991" y2="-0.048539" />
      <line x1="0.229986" y1="-0.05064" x2="0.229991" y2="-0.050627" />
      <line x1="0.189616" y1="-0.048539" x2="0.189616" y2="-0.048526" />
      <path d="M 0.190985,-0.050561 A 0.0021,6.698121447810509e-06 5.045731239565665e-20 0,1 0.189616,-0.050561" />
      <path d="M 0.212792,-0.014226 A 0.002,6.379163283629056e-06 2.7972745530007117e-20 0,1 0.214789,-0.014232" />
      <line x1="0.214789" y1="-0.014232" x2="0.230789" y2="-0.014232" />
      <path d="M 0.232792,-0.014226 A 0.002,6.379163283629056e-06 -180.0 0,0 0.230789,-0.014232" />
      <line x1="0.232792" y1="-0.014226" x2="0.232811" y2="-0.014175" />
      <path d="M 0.232811,-0.014175 A 0.002,6.379163283629056e-06 2.7972745530007117e-20 0,1 0.230813,-0.014168" />
      <line x1="0.214813" y1="-0.014168" x2="0.218301" y2="-0.014168" />
      <line x1="0.227301" y1="-0.014168" x2="0.230813" y2="-0.014168" />
      <path d="M 0.212811,-0.014175 A 0.002,6.379163283629056e-06 -180.0 0,0 0.214813,-0.014168" />
      <line x1="0.212792" y1="-0.014226" x2="0.212811" y2="-0.014175" />
      <path d="M 0.218301,-0.0142 A 0.004500000000000004,1.4353117388165389e-05 5.045731239565665e-20 0,1 0.227301,-0.0142" />
      <path d="M 0.227301,-0.0127 A 0.004500000000000004,1.4353117388165389e-05 5.045731239565665e-20 0,1 0.218301,-0.0127" />
      <path d="M 0.218301,-0.0127 A 0.004500000000000004,1.4353117388165389e-05 5.045731239565665e-20 0,1 0.227301,-0.0127" />
      <line x1="0.212792" y1="-0.015926" x2="0.212792" y2="-0.014226" />
      <line x1="0.214789" y1="-0.015932" x2="0.214789" y2="-0.014232" />
      <line x1="0.230789" y1="-0.015932" x2="0.230789" y2="-0.014232" />
      <line x1="0.232792" y1="-0.015926" x2="0.232792" y2="-0.014226" />
      <line x1="0.232811" y1="-0.015875" x2="0.232811" y2="-0.014175" />
      <line x1="0.187591" y1="-0.048527" x2="0.187591" y2="-0.015927" />
      <line x1="0.233011" y1="-0.048473" x2="0.233011" y2="-0.015873" />
      <line x1="0.212792" y1="-0.015926" x2="0.212792" y2="-0.014226" />
      <line x1="0.232811" y1="-0.015875" x2="0.232811" y2="-0.014175" />
      <line x1="0.227301" y1="-0.0142" x2="0.227301" y2="-0.0127" />
      <line x1="0.218301" y1="-0.0142" x2="0.218301" y2="-0.0127" />
      <path d="M 0.261019,-0.015827 A 0.004,1.2743014220759701e-05 5.137717932218091e-37 0,1 0.258619,-0.015839" />
      <path d="M 0.279419,-0.048571 A 0.004,1.2743014220759701e-05 5.137717932218091e-37 0,1 0.283292,-0.048561" />
      <line x1="0.262619" y1="-0.048571" x2="0.279419" y2="-0.048571" />
      <path d="M 0.262619,-0.048571 A 0.004,1.2743014220759701e-05 -180.0 0,0 0.258746,-0.048561" />
      <path d="M 0.281019,-0.015827 A 0.004,1.2743014220759701e-05 -180.0 0,0 0.283419,-0.015839" />
      <line x1="0.258619" y1="-0.015839" x2="0.258619" y2="-0.015958" />
      <line x1="0.283419" y1="-0.015839" x2="0.283419" y2="-0.015958" />
      <path d="M 0.262619,-0.015971 A 0.004,1.2743014220759701e-05 -180.0 0,0 0.258619,-0.015958" />
      <path d="M 0.279419,-0.015971 A 0.004,1.2743014220759701e-05 5.137717932218091e-37 0,1 0.283419,-0.015958" />
      <line x1="0.262619" y1="-0.015971" x2="0.279419" y2="-0.015971" />
      <path d="M 0.263019,-0.01597 A 0.002,6.371507110379851e-06 -180.0 0,0 0.261019,-0.015964" />
      <line x1="0.263019" y1="-0.01597" x2="0.279019" y2="-0.01597" />
      <path d="M 0.279019,-0.01597 A 0.002,6.371507110379851e-06 5.137717932218091e-37 0,1 0.281019,-0.015964" />
      <line x1="0.258619" y1="-0.048558" x2="0.258619" y2="-0.015958" />
      <line x1="0.258619" y1="-0.048558" x2="0.258619" y2="-0.048561" />
      <line x1="0.258619" y1="-0.050661" x2="0.258619" y2="-0.048561" />
      <line x1="0.279419" y1="-0.050661" x2="0.279419" y2="-0.048571" />
      <line x1="0.283292" y1="-0.048561" x2="0.283419" y2="-0.048561" />
      <line x1="0.283419" y1="-0.050661" x2="0.283419" y2="-0.048561" />
      <line x1="0.279419" y1="-0.050661" x2="0.283419" y2="-0.050661" />
      <line x1="0.283419" y1="-0.015958" x2="0.283419" y2="-0.048558" />
      <line x1="0.279419" y1="-0.015971" x2="0.279419" y2="-0.048571" />
      <path d="M 0.283292,-0.048561 A 0.004,1.2743014220759701e-05 5.137717932218091e-37 0,1 0.283419,-0.048558" />
      <line x1="0.262619" y1="-0.048571" x2="0.262619" y2="-0.015971" />
      <path d="M 0.258746,-0.048561 A 0.004,1.2743014220759701e-05 -180.0 0,0 0.258619,-0.048558" />
      <line x1="0.258619" y1="-0.048561" x2="0.258746" y2="-0.048561" />
      <line x1="0.262619" y1="-0.050661" x2="0.262619" y2="-0.048571" />
      <line x1="0.258619" y1="-0.050661" x2="0.262619" y2="-0.050661" />
      <path d="M 0.271019,-0.049848 A 0.003,9.557260665569775e-06 4.303285539666651e-37 0,1 0.274019,-0.049838" />
      <path d="M 0.268019,-0.049838 A 0.003,9.557260665569775e-06 4.303285539666651e-37 0,1 0.271019,-0.049848" />
      <line x1="0.283419" y1="-0.048558" x2="0.283419" y2="-0.048561" />
      <path d="M 0.263019,-0.014207 A 0.002,6.371507110379851e-06 5.137717932218091e-37 0,1 0.261019,-0.014213" />
      <line x1="0.261019" y1="-0.015964" x2="0.261019" y2="-0.014264" />
      <line x1="0.261019" y1="-0.014213" x2="0.261019" y2="-0.014264" />
      <path d="M 0.263019,-0.01427 A 0.002,6.371507110379851e-06 -180.0 0,0 0.261019,-0.014264" />
      <line x1="0.263019" y1="-0.01427" x2="0.279019" y2="-0.01427" />
      <line x1="0.281019" y1="-0.015964" x2="0.281019" y2="-0.014264" />
      <path d="M 0.279019,-0.01427 A 0.002,6.371507110379851e-06 5.137717932218091e-37 0,1 0.281019,-0.014264" />
      <line x1="0.281019" y1="-0.014213" x2="0.281019" y2="-0.014264" />
      <path d="M 0.279019,-0.014207 A 0.002,6.371507110379851e-06 -180.0 0,0 0.281019,-0.014213" />
      <line x1="0.263019" y1="-0.014207" x2="0.266519" y2="-0.014207" />
      <line x1="0.275519" y1="-0.014207" x2="0.279019" y2="-0.014207" />
      <path d="M 0.271019,-0.014253 A 0.0045,1.4335890998354662e-05 4.303285539666651e-37 0,1 0.275519,-0.014238" />
      <path d="M 0.266519,-0.014238 A 0.0045,1.4335890998354662e-05 4.303285539666651e-37 0,1 0.271019,-0.014253" />
      <path d="M 0.271019,-0.012753 A 0.0045,1.4335890998354662e-05 4.303285539666651e-37 0,1 0.275519,-0.012738" />
      <path d="M 0.275519,-0.012738 A 0.004500000000000004,1.4335890998354676e-05 4.303285539666651e-37 0,1 0.266519,-0.012738" />
      <path d="M 0.266519,-0.012738 A 0.0045,1.4335890998354662e-05 4.303285539666651e-37 0,1 0.271019,-0.012753" />
      <line x1="0.263019" y1="-0.01597" x2="0.263019" y2="-0.01427" />
      <line x1="0.279019" y1="-0.01597" x2="0.279019" y2="-0.01427" />
      <line x1="0.274019" y1="-0.049838" x2="0.274019" y2="-0.048571" />
      <line x1="0.268019" y1="-0.049838" x2="0.268019" y2="-0.048571" />
      <line x1="0.275519" y1="-0.014238" x2="0.275519" y2="-0.012738" />
      <line x1="0.266519" y1="-0.014238" x2="0.266519" y2="-0.012738" />
    </g>
    <g fill="url(#hatch_servo)" stroke="none" stroke-width="0" id="servo_fill">
      <path d="M 0.04959,0.0124 A 0.004,0.004 180.0 0,1 0.04559,0.0084 L 0.04559,-0.0084 A 0.004,0.004 180.0 0,1 0.04959,-0.0124 L 0.08699,-0.0124 A 0.004,0.004 0.0 0,1 0.09099,-0.0084 L 0.09099,0.0084 A 0.004,0.004 0.0 0,1 0.08699,0.0124 L 0.04959,0.0124" />
      <path d="M 0.12059,0.0124 A 0.004,0.004 180.0 0,1 0.11659,0.0084 L 0.11659,-0.0084 A 0.004,0.004 180.0 0,1 0.12059,-0.0124 L 0.15799,-0.0124 A 0.004,0.004 0.0 0,1 0.16199,-0.0084 L 0.16199,0.0084 A 0.004,0.004 0.0 0,1 0.15799,0.0124 L 0.12059,0.0124" />
    </g>
    <g fill="none" stroke="rgb(60,60,60)" stroke-opacity="0.4" stroke-width="0.00015" id="servo_hidden" stroke-dasharray="0.0018 0.00045">
      <line x1="0.187591" y1="-0.048527" x2="0.187611" y2="-0.048473" />
      <line x1="0.187611" y1="-0.015873" x2="0.187611" y2="-0.048473" />
      <path d="M 0.187611,-0.048473 A 0.004,1.2758326567258113e-05 -180.0 0,0 0.187932,-0.048468" />
      <path d="M 0.187932,-0.048468 A 0.0021,6.698121447810509e-06 5.045731239565665e-20 0,1 0.191005,-0.048473" />
      <line x1="0.191005" y1="-0.048473" x2="0.192818" y2="-0.048473" />
      <path d="M 0.192818,-0.048473 A 0.0021,6.698121447810509e-06 5.045731239565665e-20 0,1 0.194805,-0.048473" />
      <line x1="0.194805" y1="-0.048473" x2="0.213518" y2="-0.048473" />
      <path d="M 0.213518,-0.048473 A 0.0021,6.698121447810509e-06 5.045731239565665e-20 0,1 0.215505,-0.048473" />
      <line x1="0.215505" y1="-0.048473" x2="0.230011" y2="-0.048473" />
      <line x1="0.230011" y1="-0.048473" x2="0.230016" y2="-0.048461" />
      <path d="M 0.233011,-0.048473 A 0.004,1.2758326567258113e-05 2.7972745530007117e-20 0,1 0.230016,-0.048461" />
      <line x1="0.229986" y1="-0.048539" x2="0.229991" y2="-0.048527" />
      <line x1="0.215485" y1="-0.048527" x2="0.229991" y2="-0.048527" />
      <path d="M 0.215485,-0.048527 A 0.0021,6.698121447810509e-06 5.045731239565665e-20 0,1 0.213497,-0.048527" />
      <line x1="0.194785" y1="-0.048527" x2="0.213497" y2="-0.048527" />
      <path d="M 0.194785,-0.048527 A 0.0021,6.698121447810509e-06 5.045731239565665e-20 0,1 0.192797,-0.048527" />
      <line x1="0.190985" y1="-0.048527" x2="0.192797" y2="-0.048527" />
      <path d="M 0.190985,-0.048527 A 0.0021,6.698121447810509e-06 5.045731239565665e-20 0,1 0.190567,-0.048526" />
      <path d="M 0.225801,-0.0485 A 0.0030000000000000027,9.568744925443593e-06 5.045731239565665e-20 0,1 0.219801,-0.0485" />
      <path d="M 0.219801,-0.0485 A 0.0030000000000000027,9.568744925443593e-06 5.045731239565665e-20 0,1 0.225801,-0.0485" />
      <line x1="0.191616" y1="-0.01586" x2="0.191616" y2="-0.04846" />
      <path d="M 0.190597,-0.048461 A 0.004,1.2758326567258113e-05 -180.0 0,0 0.191616,-0.04846" />
      <line x1="0.190597" y1="-0.048461" x2="0.190597" y2="-0.040561" />
      <path d="M 0.190597,-0.040561 A 0.004,1.2758326567258113e-05 5.045731239565665e-20 0,1 0.187932,-0.040568" />
      <line x1="0.187932" y1="-0.048468" x2="0.187932" y2="-0.040568" />
      <line x1="0.212792" y1="-0.015861" x2="0.229016" y2="-0.015861" />
      <path d="M 0.232811,-0.015869 A 0.004,1.2758326567258113e-05 2.7972745530007117e-20 0,1 0.229016,-0.015861" />
      <path d="M 0.232811,-0.015875 A 0.002,6.379163283629056e-06 2.7972745530007117e-20 0,1 0.230813,-0.015868" />
      <line x1="0.214813" y1="-0.015868" x2="0.230813" y2="-0.015868" />
      <path d="M 0.212811,-0.015875 A 0.002,6.379163283629056e-06 -180.0 0,0 0.214813,-0.015868" />
      <line x1="0.212792" y1="-0.015926" x2="0.212811" y2="-0.015875" />
      <line x1="0.191888" y1="-0.050635" x2="0.191888" y2="-0.040635" />
      <path d="M 0.189586,-0.050639 A 0.0021,6.698121447810509e-06 5.045731239565665e-20 0,1 0.191888,-0.050635" />
      <line x1="0.189586" y1="-0.050639" x2="0.189586" y2="-0.048539" />
      <path d="M 0.190567,-0.040639 A 0.0021,6.698121447810509e-06 5.045731239565665e-20 0,1 0.191888,-0.040635" />
      <path d="M 0.19189,-0.04063 A 0.0021,6.698121447810509e-06 -180.0 0,0 0.195889,-0.040633" />
      <path d="M 0.195889,-0.040633 A 0.0021,6.698121447810509e-06 -180.0 0,0 0.191888,-0.040635" />
      <path d="M 0.19189,-0.04063 A 0.0021,6.698121447810509e-06 5.045731239565665e-20 0,1 0.187909,-0.040632" />
      <line x1="0.190985" y1="-0.050627" x2="0.190985" y2="-0.048527" />
      <path d="M 0.19189,-0.05063 A 0.0021,6.698121447810509e-06 5.045731239565665e-20 0,1 0.190985,-0.050627" />
      <line x1="0.19189" y1="-0.05063" x2="0.19189" y2="-0.04063" />
      <line x1="0.191912" y1="-0.05057" x2="0.191912" y2="-0.04057" />
      <path d="M 0.191005,-0.050573 A 0.0021,6.698121447810509e-06 5.045731239565665e-20 0,1 0.191912,-0.05057" />
      <line x1="0.191005" y1="-0.050573" x2="0.191005" y2="-0.048473" />
      <path d="M 0.187932,-0.040568 A 0.0021,6.698121447810509e-06 5.045731239565665e-20 0,1 0.191912,-0.04057" />
      <line x1="0.191005" y1="-0.050573" x2="0.192818" y2="-0.050573" />
      <line x1="0.192818" y1="-0.050573" x2="0.192818" y2="-0.048473" />
      <path d="M 0.191915,-0.050564 A 0.0021,6.69812144781051e-06 -180.0 0,0 0.195914,-0.050567" />
      <path d="M 0.195914,-0.050567 A 0.0021,6.69812144781051e-06 -180.0 0,0 0.194805,-0.050573" />
      <line x1="0.191915" y1="-0.050564" x2="0.191915" y2="-0.040564" />
      <path d="M 0.191912,-0.04057 A 0.0021,6.69812144781051e-06 -1.927846472669193e-17 0,1 0.195914,-0.040567" />
      <path d="M 0.195914,-0.040567 A 0.0021,6.69812144781051e-06 -1.927846472669193e-17 0,1 0.191915,-0.040564" />
      <path d="M 0.191912,-0.05057 A 0.0021,6.698121447810509e-06 5.045731239565665e-20 0,1 0.192818,-0.050573" />
      <line x1="0.194805" y1="-0.050573" x2="0.194805" y2="-0.048473" />
      <line x1="0.194805" y1="-0.050573" x2="0.213518" y2="-0.050573" />
      <line x1="0.213518" y1="-0.050573" x2="0.213518" y2="-0.048473" />
      <path d="M 0.215505,-0.050573 A 0.0021,6.698121447810509e-06 5.045731239565665e-20 0,1 0.216614,-0.050567" />
      <line x1="0.215505" y1="-0.050573" x2="0.215505" y2="-0.048473" />
      <path d="M 0.216614,-0.050567 A 0.0021000000000000046,6.698121447810524e-06 5.045731239565665e-20 0,1 0.212414,-0.050567" />
      <path d="M 0.212414,-0.050567 A 0.0021,6.698121447810509e-06 5.045731239565665e-20 0,1 0.213518,-0.050573" />
      <path d="M 0.216614,-0.040567 A 0.0021000000000000046,6.698121447810524e-06 5.045731239565665e-20 0,1 0.212414,-0.040567" />
      <path d="M 0.212414,-0.040567 A 0.0021000000000000046,6.698121447810524e-06 5.045731239565665e-20 0,1 0.216614,-0.040567" />
      <line x1="0.215505" y1="-0.050573" x2="0.229991" y2="-0.050573" />
      <line x1="0.230011" y1="-0.048539" x2="0.230011" y2="-0.048473" />
      <line x1="0.230016" y1="-0.048539" x2="0.230016" y2="-0.04846" />
      <line x1="0.229016" y1="-0.015861" x2="0.229016" y2="-0.04846" />
      <line x1="0.229991" y1="-0.048539" x2="0.229991" y2="-0.048527" />
      <line x1="0.215485" y1="-0.050627" x2="0.229991" y2="-0.050627" />
      <line x1="0.215485" y1="-0.050627" x2="0.215485" y2="-0.048527" />
      <path d="M 0.213497,-0.050627 A 0.0021,6.698121447810509e-06 5.045731239565665e-20 0,1 0.212389,-0.050633" />
      <path d="M 0.212389,-0.050633 A 0.0021000000000000046,6.698121447810524e-06 5.045731239565665e-20 0,1 0.216589,-0.050633" />
      <line x1="0.213497" y1="-0.050627" x2="0.213497" y2="-0.048527" />
      <path d="M 0.216589,-0.050633 A 0.0021,6.698121447810509e-06 5.045731239565665e-20 0,1 0.215485,-0.050627" />
      <path d="M 0.216589,-0.040633 A 0.0021000000000000046,6.698121447810524e-06 5.045731239565665e-20 0,1 0.212389,-0.040633" />
      <path d="M 0.212389,-0.040633 A 0.0021000000000000046,6.698121447810524e-06 5.045731239565665e-20 0,1 0.216589,-0.040633" />
      <line x1="0.194785" y1="-0.050627" x2="0.213497" y2="-0.050627" />
      <line x1="0.194785" y1="-0.050627" x2="0.194785" y2="-0.048527" />
      <path d="M 0.194785,-0.050627 A 0.0021,6.698121447810509e-06 180.0 0,0 0.195889,-0.050633" />
      <path d="M 0.195889,-0.050633 A 0.0021,6.698121447810509e-06 180.0 0,0 0.191888,-0.050635" />
      <line x1="0.192797" y1="-0.050627" x2="0.192797" y2="-0.048527" />
      <path d="M 0.192797,-0.050627 A 0.0021,6.698121447810509e-06 5.045731239565665e-20 0,1 0.19189,-0.05063" />
      <line x1="0.190985" y1="-0.050627" x2="0.192797" y2="-0.050627" />
      <path d="M 0.225801,-0.0498 A 0.0030000000000000027,9.568744925443593e-06 5.045731239565665e-20 0,1 0.219801,-0.0498" />
      <path d="M 0.219801,-0.0498 A 0.0030000000000000027,9.568744925443593e-06 5.045731239565665e-20 0,1 0.225801,-0.0498" />
      <line x1="0.229016" y1="-0.04846" x2="0.230016" y2="-0.04846" />
      <line x1="0.189616" y1="-0.05056" x2="0.230016" y2="-0.05056" />
      <line x1="0.189616" y1="-0.05056" x2="0.189616" y2="-0.04846" />
      <line x1="0.189616" y1="-0.04846" x2="0.191616" y2="-0.04846" />
      <path d="M 0.190597,-0.048461 A 0.0021,6.698121447810509e-06 5.045731239565665e-20 0,1 0.189616,-0.048461" />
      <path d="M 0.191915,-0.040564 A 0.0021,6.698121447810509e-06 5.045731239565665e-20 0,1 0.190597,-0.040561" />
      <line x1="0.189616" y1="-0.050561" x2="0.189616" y2="-0.048539" />
      <line x1="0.189616" y1="-0.048526" x2="0.189616" y2="-0.048461" />
      <path d="M 0.191915,-0.050564 A 0.0021,6.698121447810509e-06 5.045731239565665e-20 0,1 0.190985,-0.050561" />
      <line x1="0.218301" y1="-0.014168" x2="0.227301" y2="-0.014168" />
      <path d="M 0.227301,-0.0142 A 0.004500000000000004,1.4353117388165389e-05 5.045731239565665e-20 0,1 0.218301,-0.0142" />
      <line x1="0.195914" y1="-0.050567" x2="0.195914" y2="-0.040567" />
      <line x1="0.216614" y1="-0.050567" x2="0.216614" y2="-0.040567" />
      <line x1="0.212414" y1="-0.050567" x2="0.212414" y2="-0.040567" />
      <line x1="0.216589" y1="-0.050633" x2="0.216589" y2="-0.040633" />
      <line x1="0.212389" y1="-0.050633" x2="0.212389" y2="-0.040633" />
      <line x1="0.195889" y1="-0.050633" x2="0.195889" y2="-0.040633" />
      <line x1="0.225801" y1="-0.0498" x2="0.225801" y2="-0.0485" />
      <line x1="0.219801" y1="-0.0498" x2="0.219801" y2="-0.0485" />
      <line x1="0.230813" y1="-0.015868" x2="0.230813" y2="-0.014168" />
      <line x1="0.214813" y1="-0.015868" x2="0.214813" y2="-0.014168" />
      <line x1="0.212811" y1="-0.015875" x2="0.212811" y2="-0.014175" />
      <line x1="0.262619" y1="-0.048426" x2="0.262619" y2="-0.015826" />
      <line x1="0.262619" y1="-0.048426" x2="0.279419" y2="-0.048426" />
      <line x1="0.279419" y1="-0.015826" x2="0.279419" y2="-0.048426" />
      <line x1="0.262619" y1="-0.015826" x2="0.279419" y2="-0.015826" />
      <path d="M 0.262619,-0.015826 A 0.004,1.2743014220759701e-05 5.137717932218091e-37 0,1 0.261019,-0.015827" />
      <line x1="0.258619" y1="-0.048439" x2="0.258619" y2="-0.015839" />
      <path d="M 0.258751,-0.048436 A 0.004,1.2743014220759701e-05 5.137717932218091e-37 0,1 0.258619,-0.048439" />
      <line x1="0.258751" y1="-0.048436" x2="0.258751" y2="-0.040536" />
      <path d="M 0.261053,-0.040527 A 0.004,1.2743014220759701e-05 4.303285539666651e-37 0,1 0.258751,-0.040536" />
      <line x1="0.261053" y1="-0.048427" x2="0.261053" y2="-0.040527" />
      <path d="M 0.262619,-0.048426 A 0.004,1.2743014220759701e-05 5.137717932218091e-37 0,1 0.261053,-0.048427" />
      <path d="M 0.279419,-0.048426 A 0.004,1.2743014220759701e-05 -180.0 0,0 0.280985,-0.048427" />
      <path d="M 0.280985,-0.048427 A 0.0021,6.6900824658988425e-06 4.303285539666651e-37 0,1 0.279169,-0.048434" />
      <path d="M 0.279169,-0.048434 A 0.0021,6.6900824658988425e-06 4.303285539666651e-37 0,1 0.279419,-0.048437" />
      <line x1="0.279419" y1="-0.048437" x2="0.279419" y2="-0.048443" />
      <path d="M 0.279419,-0.048443 A 0.0021,6.6900824658988425e-06 4.303285539666651e-37 0,1 0.279169,-0.048446" />
      <path d="M 0.279169,-0.048446 A 0.0021,6.6900824658988425e-06 4.303285539666651e-37 0,1 0.279419,-0.048449" />
      <line x1="0.279419" y1="-0.048449" x2="0.279419" y2="-0.048509" />
      <path d="M 0.279419,-0.048509 A 0.0021,6.6900824658988425e-06 4.303285539666651e-37 0,1 0.279169,-0.048512" />
      <path d="M 0.279169,-0.048512 A 0.0021,6.6900824658988425e-06 4.303285539666651e-37 0,1 0.279419,-0.048515" />
      <line x1="0.279419" y1="-0.048515" x2="0.279419" y2="-0.048561" />
      <line x1="0.279419" y1="-0.048561" x2="0.283292" y2="-0.048561" />
      <line x1="0.258746" y1="-0.048561" x2="0.262619" y2="-0.048561" />
      <line x1="0.262619" y1="-0.048515" x2="0.262619" y2="-0.048561" />
      <path d="M 0.262619,-0.048515 A 0.0021,6.6900824658988425e-06 4.303285539666651e-37 0,1 0.262869,-0.048512" />
      <path d="M 0.262869,-0.048512 A 0.0021,6.6900824658988425e-06 4.303285539666651e-37 0,1 0.262619,-0.048509" />
      <line x1="0.262619" y1="-0.048449" x2="0.262619" y2="-0.048509" />
      <path d="M 0.262619,-0.048449 A 0.0021,6.6900824658988425e-06 4.303285539666651e-37 0,1 0.262869,-0.048446" />
      <path d="M 0.262869,-0.048446 A 0.0021,6.6900824658988425e-06 4.303285539666651e-37 0,1 0.262619,-0.048443" />
      <line x1="0.262619" y1="-0.048437" x2="0.262619" y2="-0.048443" />
      <path d="M 0.262619,-0.048437 A 0.0021,6.6900824658988425e-06 4.303285539666651e-37 0,1 0.262869,-0.048434" />
      <path d="M 0.262869,-0.048434 A 0.0021,6.6900824658988425e-06 4.303285539666651e-37 0,1 0.261053,-0.048427" />
      <path d="M 0.271019,-0.048548 A 0.003,9.557260665569775e-06 4.303285539666651e-37 0,1 0.274019,-0.048538" />
      <path d="M 0.274019,-0.048538 A 0.0030000000000000027,9.557260665569784e-06 4.303285539666651e-37 0,1 0.268019,-0.048538" />
      <path d="M 0.268019,-0.048538 A 0.003,9.557260665569775e-06 4.303285539666651e-37 0,1 0.271019,-0.048548" />
      <line x1="0.283419" y1="-0.015839" x2="0.283419" y2="-0.048439" />
      <path d="M 0.283287,-0.048436 A 0.004,1.2743014220759701e-05 -180.0 0,0 0.283419,-0.048439" />
      <line x1="0.283287" y1="-0.048436" x2="0.283287" y2="-0.040536" />
      <path d="M 0.283287,-0.040536 A 0.004,1.2743014220759701e-05 4.303285539666651e-37 0,1 0.280985,-0.040527" />
      <line x1="0.280985" y1="-0.048427" x2="0.280985" y2="-0.040527" />
      <path d="M 0.279419,-0.015826 A 0.004,1.2743014220759701e-05 -180.0 0,0 0.281019,-0.015827" />
      <path d="M 0.263019,-0.015907 A 0.002,6.371507110379851e-06 5.137717932218091e-37 0,1 0.261019,-0.015913" />
      <line x1="0.261019" y1="-0.015913" x2="0.261019" y2="-0.015964" />
      <line x1="0.281019" y1="-0.015913" x2="0.281019" y2="-0.015964" />
      <path d="M 0.279019,-0.015907 A 0.002,6.371507110379851e-06 -180.0 0,0 0.281019,-0.015913" />
      <line x1="0.263019" y1="-0.015907" x2="0.279019" y2="-0.015907" />
      <line x1="0.258619" y1="-0.050532" x2="0.258619" y2="-0.050661" />
      <line x1="0.258619" y1="-0.050532" x2="0.258619" y2="-0.048432" />
      <line x1="0.258619" y1="-0.048432" x2="0.258619" y2="-0.048439" />
      <line x1="0.258619" y1="-0.048432" x2="0.258708" y2="-0.048432" />
      <path d="M 0.258708,-0.048432 A 0.0021,6.6900824658988425e-06 4.303285539666651e-37 0,1 0.258669,-0.048434" />
      <path d="M 0.258669,-0.048434 A 0.0021,6.6900824658988425e-06 4.303285539666651e-37 0,1 0.258751,-0.048436" />
      <line x1="0.259875" y1="-0.05054" x2="0.259875" y2="-0.04054" />
      <path d="M 0.258708,-0.050532 A 0.0021,6.6900824658988425e-06 4.303285539666651e-37 0,1 0.258669,-0.050534" />
      <path d="M 0.258669,-0.050534 A 0.0021,6.6900824658988425e-06 4.303285539666651e-37 0,1 0.259875,-0.05054" />
      <line x1="0.258708" y1="-0.050532" x2="0.258708" y2="-0.048432" />
      <path d="M 0.258751,-0.040536 A 0.0021,6.6900824658988425e-06 4.303285539666651e-37 0,1 0.259875,-0.04054" />
      <path d="M 0.261663,-0.04054 A 0.0021,6.690082465898843e-06 180.0 0,0 0.262869,-0.040546" />
      <path d="M 0.262869,-0.040546 A 0.0021000000000000185,6.690082465898903e-06 180.0 1,0 0.258669,-0.040546" />
      <path d="M 0.258669,-0.040546 A 0.0021,6.690082465898843e-06 180.0 0,0 0.259875,-0.04054" />
      <path d="M 0.261663,-0.04054 A 0.0021,6.6900824658988425e-06 4.303285539666651e-37 0,1 0.262869,-0.040534" />
      <path d="M 0.262869,-0.040534 A 0.0021,6.6900824658988425e-06 4.303285539666651e-37 0,1 0.261053,-0.040527" />
      <line x1="0.262619" y1="-0.050537" x2="0.262619" y2="-0.048437" />
      <path d="M 0.261663,-0.05054 A 0.0021,6.6900824658988425e-06 4.303285539666651e-37 0,1 0.262619,-0.050537" />
      <line x1="0.261663" y1="-0.05054" x2="0.261663" y2="-0.04054" />
      <line x1="0.280375" y1="-0.05054" x2="0.280375" y2="-0.04054" />
      <path d="M 0.279419,-0.050537 A 0.0021,6.6900824658988425e-06 4.303285539666651e-37 0,1 0.280375,-0.05054" />
      <line x1="0.279419" y1="-0.050537" x2="0.279419" y2="-0.048437" />
      <path d="M 0.280985,-0.040527 A 0.0021,6.6900824658988425e-06 4.303285539666651e-37 0,1 0.279169,-0.040534" />
      <path d="M 0.279169,-0.040534 A 0.0021,6.6900824658988425e-06 4.303285539666651e-37 0,1 0.280375,-0.04054" />
      <line x1="0.279419" y1="-0.050537" x2="0.279419" y2="-0.050543" />
      <line x1="0.279419" y1="-0.050543" x2="0.279419" y2="-0.048443" />
      <path d="M 0.282163,-0.05054 A 0.0021,6.6900824658988425e-06 180.0 0,0 0.283369,-0.050546" />
      <path d="M 0.283369,-0.050546 A 0.0021,6.6900824658988425e-06 180.0 0,0 0.279419,-0.050549" />
      <line x1="0.282163" y1="-0.05054" x2="0.282163" y2="-0.04054" />
      <path d="M 0.280375,-0.04054 A 0.0021,6.690082465898843e-06 8.99643577623463e-18 0,1 0.279169,-0.040546" />
      <path d="M 0.279169,-0.040546 A 0.0021,6.690082465898843e-06 8.99643577623463e-18 0,1 0.283369,-0.040546" />
      <path d="M 0.283369,-0.040546 A 0.0021,6.690082465898843e-06 8.99643577623463e-18 0,1 0.282163,-0.04054" />
      <path d="M 0.280375,-0.05054 A 0.0021,6.6900824658988425e-06 4.303285539666651e-37 0,1 0.279419,-0.050543" />
      <line x1="0.279419" y1="-0.050549" x2="0.279419" y2="-0.048449" />
      <line x1="0.279419" y1="-0.050549" x2="0.279419" y2="-0.050609" />
      <line x1="0.279419" y1="-0.050609" x2="0.279419" y2="-0.048509" />
      <path d="M 0.279419,-0.050615 A 0.0021,6.6900824658988425e-06 4.303285539666651e-37 0,1 0.281269,-0.050618" />
      <line x1="0.279419" y1="-0.050615" x2="0.279419" y2="-0.048515" />
      <path d="M 0.281269,-0.050618 A 0.0021,6.6900824658988425e-06 4.303285539666651e-37 0,1 0.283369,-0.050612" />
      <path d="M 0.283369,-0.050612 A 0.0021,6.6900824658988425e-06 4.303285539666651e-37 0,1 0.279419,-0.050609" />
      <path d="M 0.281269,-0.040619 A 0.0021,6.6900824658988425e-06 4.303285539666651e-37 0,1 0.283369,-0.040612" />
      <path d="M 0.283369,-0.040612 A 0.0021,6.6900824658988425e-06 4.303285539666651e-37 0,1 0.279169,-0.040612" />
      <path d="M 0.279169,-0.040612 A 0.0021,6.6900824658988425e-06 4.303285539666651e-37 0,1 0.281269,-0.040619" />
      <line x1="0.279419" y1="-0.050615" x2="0.279419" y2="-0.050661" />
      <line x1="0.279419" y1="-0.048571" x2="0.279419" y2="-0.048561" />
      <line x1="0.262619" y1="-0.048571" x2="0.262619" y2="-0.048561" />
      <line x1="0.262619" y1="-0.050615" x2="0.262619" y2="-0.050661" />
      <line x1="0.262619" y1="-0.050615" x2="0.262619" y2="-0.048515" />
      <path d="M 0.262619,-0.050609 A 0.0021,6.6900824658988425e-06 4.303285539666651e-37 0,1 0.258669,-0.050612" />
      <path d="M 0.258669,-0.050612 A 0.0021,6.6900824658988425e-06 4.303285539666651e-37 0,1 0.260769,-0.050618" />
      <line x1="0.262619" y1="-0.050609" x2="0.262619" y2="-0.048509" />
      <path d="M 0.260769,-0.050618 A 0.0021,6.6900824658988425e-06 4.303285539666651e-37 0,1 0.262619,-0.050615" />
      <path d="M 0.260769,-0.040619 A 0.0021,6.6900824658988425e-06 4.303285539666651e-37 0,1 0.262869,-0.040612" />
      <path d="M 0.262869,-0.040612 A 0.0021000000000000185,6.690082465898902e-06 4.303285539666651e-37 0,1 0.258669,-0.040612" />
      <path d="M 0.258669,-0.040612 A 0.0021,6.6900824658988425e-06 4.303285539666651e-37 0,1 0.260769,-0.040619" />
      <line x1="0.262619" y1="-0.050549" x2="0.262619" y2="-0.050609" />
      <line x1="0.262619" y1="-0.050549" x2="0.262619" y2="-0.048449" />
      <path d="M 0.262619,-0.050549 A 0.0021,6.6900824658988425e-06 -180.0 0,0 0.258669,-0.050546" />
      <path d="M 0.258669,-0.050546 A 0.0021,6.6900824658988425e-06 -180.0 0,0 0.259875,-0.05054" />
      <line x1="0.262619" y1="-0.050543" x2="0.262619" y2="-0.048443" />
      <path d="M 0.262619,-0.050543 A 0.0021,6.6900824658988425e-06 4.303285539666651e-37 0,1 0.261663,-0.05054" />
      <line x1="0.262619" y1="-0.050537" x2="0.262619" y2="-0.050543" />
      <path d="M 0.274019,-0.049838 A 0.0030000000000000027,9.557260665569784e-06 4.303285539666651e-37 0,1 0.268019,-0.049838" />
      <line x1="0.283419" y1="-0.050532" x2="0.283419" y2="-0.050661" />
      <line x1="0.283419" y1="-0.050532" x2="0.283419" y2="-0.048432" />
      <line x1="0.283419" y1="-0.048432" x2="0.283419" y2="-0.048439" />
      <line x1="0.283331" y1="-0.048432" x2="0.283419" y2="-0.048432" />
      <path d="M 0.283287,-0.048436 A 0.0021,6.6900824658988425e-06 4.303285539666651e-37 0,1 0.283369,-0.048434" />
      <path d="M 0.283369,-0.048434 A 0.0021,6.6900824658988425e-06 4.303285539666651e-37 0,1 0.283331,-0.048432" />
      <path d="M 0.282163,-0.04054 A 0.0021,6.6900824658988425e-06 4.303285539666651e-37 0,1 0.283287,-0.040536" />
      <line x1="0.283331" y1="-0.050532" x2="0.283331" y2="-0.048432" />
      <path d="M 0.282163,-0.05054 A 0.0021,6.6900824658988425e-06 4.303285539666651e-37 0,1 0.283369,-0.050534" />
      <path d="M 0.283369,-0.050534 A 0.0021,6.6900824658988425e-06 4.303285539666651e-37 0,1 0.283331,-0.050532" />
      <line x1="0.261019" y1="-0.015913" x2="0.261019" y2="-0.014213" />
      <line x1="0.281019" y1="-0.015913" x2="0.281019" y2="-0.014213" />
      <line x1="0.266519" y1="-0.014207" x2="0.275519" y2="-0.014207" />
      <line x1="0.258619" y1="-0.050532" x2="0.258708" y2="-0.050532" />
      <line x1="0.283331" y1="-0.050532" x2="0.283419" y2="-0.050532" />
      <path d="M 0.275519,-0.014238 A 0.004500000000000004,1.4335890998354676e-05 4.303285539666651e-37 0,1 0.266519,-0.014238" />
      <line x1="0.258669" y1="-0.050534" x2="0.258669" y2="-0.048434" />
      <line x1="0.262869" y1="-0.048434" x2="0.262869" y2="-0.040534" />
      <line x1="0.279169" y1="-0.048434" x2="0.279169" y2="-0.040534" />
      <line x1="0.283369" y1="-0.050546" x2="0.283369" y2="-0.040546" />
      <line x1="0.279169" y1="-0.048446" x2="0.279169" y2="-0.040546" />
      <line x1="0.283369" y1="-0.050612" x2="0.283369" y2="-0.040612" />
      <line x1="0.279169" y1="-0.048512" x2="0.279169" y2="-0.040612" />
      <line x1="0.262869" y1="-0.048512" x2="0.262869" y2="-0.040612" />
      <line x1="0.258669" y1="-0.050612" x2="0.258669" y2="-0.040612" />
      <line x1="0.262869" y1="-0.048446" x2="0.262869" y2="-0.040546" />
      <line x1="0.258669" y1="-0.050546" x2="0.258669" y2="-0.040546" />
      <line x1="0.274019" y1="-0.048571" x2="0.274019" y2="-0.048538" />
      <line x1="0.268019" y1="-0.048571" x2="0.268019" y2="-0.048538" />
      <line x1="0.283369" y1="-0.050534" x2="0.283369" y2="-0.048434" />
      <line x1="0.263019" y1="-0.015907" x2="0.263019" y2="-0.014207" />
      <line x1="0.279019" y1="-0.015907" x2="0.279019" y2="-0.014207" />
    </g>
    <g fill="none" stroke="rgb(220,60,40)" stroke-width="0.00035" id="coupler">
      <line x1="0.03759" y1="-0.010789" x2="0.009789" y2="-0.010789" />
      <line x1="0.03759" y1="-0.010789" x2="0.03759" y2="-0.009789" />
      <line x1="0.009789" y1="-0.010789" x2="0.009789" y2="-0.009789" />
      <line x1="0.03759" y1="-0.009789" x2="0.02759" y2="-0.009789" />
      <path d="M 0.009789,0.009789 A 0.009789105352524866,0.009789105352524866 0.0 1,1 0.009789,-0.009789" />
      <line x1="0.02759" y1="-0.009789" x2="0.02759" y2="0.009789" />
      <line x1="0.009789" y1="0.009789" x2="0.009789" y2="0.010789" />
      <line x1="0.03759" y1="0.009789" x2="0.02759" y2="0.009789" />
      <line x1="0.03759" y1="0.010789" x2="0.009789" y2="0.010789" />
      <line x1="0.03759" y1="0.009789" x2="0.03759" y2="0.010789" />
      <circle cx="0.004839" cy="-0.00495" r="0.00125" />
      <circle cx="0.009789" cy="0.0" r="0.0053" />
      <circle cx="0.014739" cy="-0.00495" r="0.00125" />
      <circle cx="0.004839" cy="0.00495" r="0.00125" />
      <circle cx="0.014739" cy="0.00495" r="0.00125" />
      <line x1="0.03759" y1="-0.009789" x2="0.02759" y2="-0.009789" />
      <line x1="0.02759" y1="-0.009789" x2="0.02759" y2="0.009789" />
      <line x1="0.03759" y1="0.009789" x2="0.02759" y2="0.009789" />
      <line x1="0.03759" y1="0.009789" x2="0.03759" y2="-0.009789" />
      <line x1="0.10859" y1="-0.010789" x2="0.08079" y2="-0.010789" />
      <line x1="0.10859" y1="-0.010789" x2="0.10859" y2="0.010789" />
      <line x1="0.10859" y1="0.010789" x2="0.08079" y2="0.010789" />
      <line x1="0.08079" y1="0.009789" x2="0.08079" y2="0.010789" />
      <path d="M 0.08079,0.009789 A 0.009789105352524866,0.009789105352524866 0.0 1,1 0.08079,-0.009789" />
      <line x1="0.08079" y1="-0.010789" x2="0.08079" y2="-0.009789" />
      <circle cx="0.07584" cy="-0.00495" r="0.00125" />
      <circle cx="0.08079" cy="0.0" r="0.0053" />
      <circle cx="0.08574" cy="-0.00495" r="0.00125" />
      <circle cx="0.07584" cy="0.00495" r="0.00125" />
      <circle cx="0.08574" cy="0.00495" r="0.00125" />
      <line x1="0.179591" y1="0.009789" x2="0.179591" y2="-0.009789" />
      <line x1="0.169591" y1="-0.009789" x2="0.179591" y2="-0.009789" />
      <line x1="0.169591" y1="0.009789" x2="0.169591" y2="-0.009789" />
      <line x1="0.169591" y1="0.009789" x2="0.179591" y2="0.009789" />
      <line x1="0.250619" y1="0.012783" x2="0.222818" y2="0.012783" />
      <line x1="0.250619" y1="0.012783" x2="0.250585" y2="0.012817" />
      <line x1="0.222818" y1="0.012783" x2="0.222817" y2="0.012784" />
      <line x1="0.250585" y1="0.012817" x2="0.222784" y2="0.012817" />
      <path d="M 0.222786,0.012816 A 0.009789105352524866,1.5711473886037303e-05 -2.9294789267481595e-20 0,1 0.213012,0.0128" />
      <path d="M 0.213012,0.0128 A 0.009789105352524866,1.5711473886037303e-05 -2.9294789267481595e-20 0,1 0.222817,0.012784" />
      <line x1="0.222786" y1="0.012816" x2="0.222784" y2="0.012817" />
      <path d="M 0.219109,0.012792 A 0.0012500000000000011,2.0062448661338747e-06 -2.9294789267481595e-20 0,1 0.216609,0.012792" />
      <path d="M 0.216609,0.012792 A 0.0012500000000000011,2.0062448661338747e-06 -2.9294789267481595e-20 0,1 0.219109,0.012792" />
      <path d="M 0.228101,0.0128 A 0.0053,8.50647823240762e-06 -2.9294789267481595e-20 0,1 0.217501,0.0128" />
      <path d="M 0.217501,0.0128 A 0.0053,8.50647823240762e-06 -2.9294789267481595e-20 0,1 0.228101,0.0128" />
      <path d="M 0.229009,0.012792 A 0.0012500000000000011,2.0062448661338747e-06 -2.9294789267481595e-20 0,1 0.226509,0.012792" />
      <path d="M 0.226509,0.012792 A 0.0012500000000000011,2.0062448661338747e-06 -2.9294789267481595e-20 0,1 0.229009,0.012792" />
      <path d="M 0.219093,0.012808 A 0.0012500000000000011,2.0062448661338747e-06 -2.9294789267481595e-20 0,1 0.216593,0.012808" />
      <path d="M 0.216593,0.012808 A 0.0012500000000000011,2.0062448661338747e-06 -2.9294789267481595e-20 0,1 0.219093,0.012808" />
      <path d="M 0.228993,0.012808 A 0.0012500000000000011,2.0062448661338747e-06 -2.9294789267481595e-20 0,1 0.226493,0.012808" />
      <path d="M 0.226493,0.012808 A 0.0012500000000000011,2.0062448661338747e-06 -2.9294789267481595e-20 0,1 0.228993,0.012808" />
      <line x1="0.250619" y1="0.002783" x2="0.222818" y2="0.002783" />
      <line x1="0.250619" y1="0.002783" x2="0.250619" y2="0.012783" />
      <line x1="0.222818" y1="0.002783" x2="0.222818" y2="0.012783" />
      <line x1="0.250617" y1="-0.034916" x2="0.250617" y2="0.002783" />
      <line x1="0.250619" y1="-0.034917" x2="0.250617" y2="-0.034916" />
      <line x1="0.250619" y1="-0.044917" x2="0.250619" y2="-0.034917" />
      <line x1="0.222817" y1="0.002784" x2="0.222817" y2="0.012784" />
      <line x1="0.222818" y1="0.002783" x2="0.222817" y2="0.002784" />
      <line x1="0.222784" y1="0.012816" x2="0.222784" y2="0.012817" />
      <path d="M 0.213012,0.0028 A 0.009789105352524866,1.5711473886037303e-05 -2.9294789267481595e-20 0,1 0.222817,0.002784" />
      <line x1="0.240617" y1="-0.034916" x2="0.240617" y2="0.002783" />
      <line x1="0.240617" y1="-0.034916" x2="0.250617" y2="-0.034916" />
      <line x1="0.250619" y1="-0.034917" x2="0.222818" y2="-0.034917" />
      <line x1="0.222818" y1="-0.034917" x2="0.222817" y2="-0.034916" />
      <path d="M 0.222786,-0.034884 A 0.009789105352524866,1.5711473886037303e-05 -2.9294789267481595e-20 0,1 0.213012,-0.0349" />
      <path d="M 0.213012,-0.0349 A 0.009789105352524866,1.5711473886037303e-05 -2.9294789267481595e-20 0,1 0.222817,-0.034916" />
      <line x1="0.240586" y1="-0.034884" x2="0.240617" y2="-0.034916" />
      <line x1="0.222786" y1="-0.034884" x2="0.222784" y2="-0.034883" />
      <line x1="0.240586" y1="-0.034883" x2="0.222784" y2="-0.034883" />
      <path d="M 0.219109,-0.034908 A 0.0012500000000000011,2.0062448661338747e-06 -2.9294789267481595e-20 0,1 0.216609,-0.034908" />
      <path d="M 0.216609,-0.034908 A 0.0012500000000000011,2.0062448661338747e-06 -2.9294789267481595e-20 0,1 0.219109,-0.034908" />
      <path d="M 0.228101,-0.0349 A 0.0053,8.50647823240762e-06 -2.9294789267481595e-20 0,1 0.217501,-0.0349" />
      <path d="M 0.217501,-0.0349 A 0.0053,8.50647823240762e-06 -2.9294789267481595e-20 0,1 0.228101,-0.0349" />
      <path d="M 0.229009,-0.034908 A 0.0012500000000000011,2.0062448661338747e-06 -2.9294789267481595e-20 0,1 0.226509,-0.034908" />
      <path d="M 0.226509,-0.034908 A 0.0012500000000000011,2.0062448661338747e-06 -2.9294789267481595e-20 0,1 0.229009,-0.034908" />
      <path d="M 0.219093,-0.034892 A 0.0012500000000000011,2.0062448661338747e-06 -2.9294789267481595e-20 0,1 0.216593,-0.034892" />
      <path d="M 0.216593,-0.034892 A 0.0012500000000000011,2.0062448661338747e-06 -2.9294789267481595e-20 0,1 0.219093,-0.034892" />
      <path d="M 0.228993,-0.034892 A 0.0012500000000000011,2.0062448661338747e-06 -2.9294789267481595e-20 0,1 0.226493,-0.034892" />
      <path d="M 0.226493,-0.034892 A 0.0012500000000000011,2.0062448661338747e-06 -2.9294789267481595e-20 0,1 0.228993,-0.034892" />
      <line x1="0.250619" y1="-0.044917" x2="0.222818" y2="-0.044917" />
      <line x1="0.222818" y1="-0.044917" x2="0.222818" y2="-0.034917" />
      <path d="M 0.213012,-0.0449 A 0.009789105352524866,1.5711473886037303e-05 -2.9294789267481595e-20 0,1 0.222817,-0.044916" />
      <line x1="0.222818" y1="-0.044917" x2="0.222817" y2="-0.044916" />
      <line x1="0.222784" y1="-0.034884" x2="0.222784" y2="-0.034883" />
      <line x1="0.240586" y1="-0.034884" x2="0.240586" y2="0.002783" />
      <line x1="0.222817" y1="-0.044916" x2="0.222817" y2="-0.034916" />
      <line x1="0.213012" y1="0.0028" x2="0.213012" y2="0.0128" />
      <line x1="0.213012" y1="-0.0449" x2="0.213012" y2="-0.0349" />
      <line x1="0.26023" y1="0.012781" x2="0.26023" y2="0.012826" />
      <line x1="0.26023" y1="0.012781" x2="0.281808" y2="0.012781" />
      <line x1="0.26023" y1="0.012826" x2="0.26123" y2="0.012826" />
      <line x1="0.281808" y1="0.012781" x2="0.281808" y2="0.012826" />
      <path d="M 0.280808,0.012826 A 0.009789105352524866,1.5736582993592302e-05 -1.2252831774749501e-36 1,1 0.26123,0.012826" />
      <line x1="0.280808" y1="0.012826" x2="0.281808" y2="0.012826" />
      <path d="M 0.266069,0.012832 A 0.00125,2.0094511228155067e-06 -1.2252831774749501e-36 0,1 0.267319,0.012834" />
      <path d="M 0.267319,0.012834 A 0.00125,2.0094511228155067e-06 -1.2252831774749501e-36 0,1 0.264819,0.012834" />
      <path d="M 0.264819,0.012834 A 0.00125,2.0094511228155067e-06 -1.2252831774749501e-36 0,1 0.266069,0.012832" />
      <path d="M 0.271019,0.012817 A 0.0053,8.520072760737747e-06 -1.2252831774749501e-36 0,1 0.276319,0.012826" />
      <path d="M 0.276319,0.012826 A 0.0053,8.520072760737747e-06 -1.2252831774749501e-36 0,1 0.265719,0.012826" />
      <path d="M 0.265719,0.012826 A 0.0053,8.520072760737747e-06 -1.2252831774749501e-36 0,1 0.271019,0.012817" />
      <path d="M 0.266069,0.012816 A 0.00125,2.0094511228155067e-06 -1.2252831774749501e-36 0,1 0.267319,0.012818" />
      <path d="M 0.267319,0.012818 A 0.00125,2.0094511228155067e-06 -1.2252831774749501e-36 0,1 0.264819,0.012818" />
      <path d="M 0.264819,0.012818 A 0.00125,2.0094511228155067e-06 -1.2252831774749501e-36 0,1 0.266069,0.012816" />
      <path d="M 0.275969,0.012832 A 0.00125,2.0094511228155067e-06 -1.2252831774749501e-36 0,1 0.277219,0.012834" />
      <path d="M 0.277219,0.012834 A 0.0012500000000000011,2.0094511228155084e-06 -1.2252831774749501e-36 0,1 0.274719,0.012834" />
      <path d="M 0.274719,0.012834 A 0.00125,2.0094511228155067e-06 -1.2252831774749501e-36 0,1 0.275969,0.012832" />
      <path d="M 0.275969,0.012816 A 0.00125,2.0094511228155067e-06 -1.2252831774749501e-36 0,1 0.277219,0.012818" />
      <path d="M 0.277219,0.012818 A 0.0012500000000000011,2.0094511228155084e-06 -1.2252831774749501e-36 0,1 0.274719,0.012818" />
      <path d="M 0.274719,0.012818 A 0.00125,2.0094511228155067e-06 -1.2252831774749501e-36 0,1 0.275969,0.012816" />
      <line x1="0.26023" y1="0.002781" x2="0.26023" y2="0.012781" />
      <line x1="0.26023" y1="0.002781" x2="0.26123" y2="0.002781" />
      <line x1="0.26123" y1="-0.034919" x2="0.26123" y2="0.002781" />
      <line x1="0.26023" y1="-0.034919" x2="0.26123" y2="-0.034919" />
      <line x1="0.26023" y1="-0.044919" x2="0.26023" y2="-0.034919" />
      <line x1="0.26023" y1="-0.044919" x2="0.281808" y2="-0.044919" />
      <line x1="0.281808" y1="-0.044919" x2="0.281808" y2="-0.034919" />
      <line x1="0.280808" y1="-0.034919" x2="0.281808" y2="-0.034919" />
      <line x1="0.280808" y1="-0.034919" x2="0.280808" y2="0.002781" />
      <line x1="0.280808" y1="0.002781" x2="0.281808" y2="0.002781" />
      <line x1="0.281808" y1="0.002781" x2="0.281808" y2="0.012781" />
      <line x1="0.26023" y1="-0.034919" x2="0.26023" y2="-0.034874" />
      <line x1="0.26023" y1="-0.034874" x2="0.26123" y2="-0.034874" />
      <path d="M 0.280808,-0.034874 A 0.009789105352524866,1.5736582993592302e-05 -1.2252831774749501e-36 0,1 0.280329,-0.034869" />
      <path d="M 0.261709,-0.034869 A 0.009789105352524866,1.5736582993592302e-05 -1.2252831774749501e-36 0,1 0.26123,-0.034874" />
      <line x1="0.280808" y1="-0.034874" x2="0.281808" y2="-0.034874" />
      <line x1="0.281808" y1="-0.034919" x2="0.281808" y2="-0.034874" />
    </g>
    <g fill="url(#hatch_coupler)" stroke="none" stroke-width="0" id="coupler_fill">
      <path d="M 0.03759,-0.010789 L 0.009789,-0.010789 L 0.009789,-0.009789 A 0.009789105352524866,0.009789105352524866 0.0 1,0 0.009789,0.009789 L 0.009789,0.010789 L 0.03759,0.010789 L 0.03759,0.009789 L 0.02759,0.009789 L 0.02759,-0.009789 L 0.03759,-0.009789 L 0.03759,-0.010789 M 0.006089,-0.00495 A 0.00125,0.00125 0.0 0,1 0.003589,-0.00495 A 0.00125,0.00125 0.0 0,1 0.006089,-0.00495 M 0.015089,0.0 A 0.0053,0.0053 0.0 0,1 0.004489,0.0 A 0.0053,0.0053 0.0 0,1 0.015089,-0.0 M 0.015989,-0.00495 A 0.0012500000000000002,0.0012500000000000002 0.0 0,1 0.013489,-0.00495 A 0.0012500000000000002,0.0012500000000000002 0.0 0,1 0.015989,-0.00495 M 0.006089,0.00495 A 0.00125,0.00125 0.0 0,1 0.003589,0.00495 A 0.00125,0.00125 0.0 0,1 0.006089,0.00495 M 0.015989,0.00495 A 0.0012500000000000002,0.0012500000000000002 0.0 0,1 0.013489,0.00495 A 0.0012500000000000002,0.0012500000000000002 0.0 0,1 0.015989,0.00495" />
      <path d="M 0.02759,-0.009789 L 0.03759,-0.009789 L 0.03759,0.009789 L 0.02759,0.009789 L 0.02759,-0.009789" />
      <path d="M 0.08079,-0.010789 L 0.10859,-0.010789 L 0.10859,0.010789 L 0.08079,0.010789 L 0.08079,0.009789 A 0.009789105352524866,0.009789105352524866 0.0 1,1 0.08079,-0.009789 L 0.08079,-0.010789 M 0.07709,-0.00495 A 0.0012500000000000011,0.0012500000000000011 0.0 0,0 0.07459,-0.00495 A 0.0012500000000000011,0.0012500000000000011 0.0 0,0 0.07709,-0.00495 M 0.08609,-0.0 A 0.0053,0.0053 0.0 0,0 0.07549,0.0 A 0.0053,0.0053 0.0 0,0 0.08609,0.0 M 0.08699,-0.00495 A 0.0012500000000000011,0.0012500000000000011 0.0 0,0 0.08449,-0.00495 A 0.0012500000000000011,0.0012500000000000011 0.0 0,0 0.08699,-0.00495 M 0.07709,0.00495 A 0.0012500000000000011,0.0012500000000000011 0.0 0,0 0.07459,0.00495 A 0.0012500000000000011,0.0012500000000000011 0.0 0,0 0.07709,0.00495 M 0.08699,0.00495 A 0.0012500000000000011,0.0012500000000000011 0.0 0,0 0.08449,0.00495 A 0.0012500000000000011,0.0012500000000000011 0.0 0,0 0.08699,0.00495" />
      <path d="M 0.179591,-0.009789 L 0.179591,0.009789 L 0.169591,0.009789 L 0.169591,-0.009789 L 0.179591,-0.009789" />
    </g>
    <g fill="none" stroke="rgb(220,60,40)" stroke-opacity="0.4" stroke-width="0.00015" id="coupler_hidden" stroke-dasharray="0.0018 0.00045">
      <line x1="0.250619" y1="0.002783" x2="0.250617" y2="0.002784" />
      <line x1="0.250617" y1="0.002783" x2="0.250617" y2="0.002784" />
      <line x1="0.250619" y1="-0.044917" x2="0.250585" y2="-0.044883" />
      <line x1="0.250585" y1="-0.044883" x2="0.250585" y2="-0.034883" />
      <line x1="0.250586" y1="-0.034884" x2="0.250585" y2="-0.034883" />
      <line x1="0.250586" y1="-0.034884" x2="0.250586" y2="0.002816" />
      <line x1="0.250586" y1="0.002816" x2="0.250585" y2="0.002817" />
      <line x1="0.250585" y1="0.002817" x2="0.250585" y2="0.012817" />
      <line x1="0.250585" y1="0.002817" x2="0.222784" y2="0.002817" />
      <line x1="0.222784" y1="0.002817" x2="0.222784" y2="0.012816" />
      <path d="M 0.222786,0.002816 A 0.009789105352524866,1.5711473886037303e-05 -2.9294789267481595e-20 0,1 0.213012,0.0028" />
      <line x1="0.222786" y1="0.002816" x2="0.222786" y2="0.012816" />
      <line x1="0.222786" y1="0.002816" x2="0.222784" y2="0.002817" />
      <path d="M 0.219109,0.002792 A 0.0012500000000000011,2.0062448661338747e-06 -2.9294789267481595e-20 0,1 0.216609,0.002792" />
      <path d="M 0.216609,0.002792 A 0.0012500000000000011,2.0062448661338747e-06 -2.9294789267481595e-20 0,1 0.219109,0.002792" />
      <path d="M 0.228101,0.0028 A 0.0053,8.50647823240762e-06 -2.9294789267481595e-20 0,1 0.217501,0.0028" />
      <path d="M 0.217501,0.0028 A 0.0053,8.50647823240762e-06 -2.9294789267481595e-20 0,1 0.228101,0.0028" />
      <path d="M 0.229009,0.002792 A 0.0012500000000000011,2.0062448661338747e-06 -2.9294789267481595e-20 0,1 0.226509,0.002792" />
      <path d="M 0.226509,0.002792 A 0.0012500000000000011,2.0062448661338747e-06 -2.9294789267481595e-20 0,1 0.229009,0.002792" />
      <path d="M 0.219093,0.002808 A 0.0012500000000000011,2.0062448661338747e-06 -2.9294789267481595e-20 0,1 0.216593,0.002808" />
      <path d="M 0.216593,0.002808 A 0.0012500000000000011,2.0062448661338747e-06 -2.9294789267481595e-20 0,1 0.219093,0.002808" />
      <path d="M 0.228993,0.002808 A 0.0012500000000000011,2.0062448661338747e-06 -2.9294789267481595e-20 0,1 0.226493,0.002808" />
      <path d="M 0.226493,0.002808 A 0.0012500000000000011,2.0062448661338747e-06 -2.9294789267481595e-20 0,1 0.228993,0.002808" />
      <line x1="0.250617" y1="0.002784" x2="0.240617" y2="0.002784" />
      <line x1="0.240617" y1="0.002784" x2="0.240586" y2="0.002816" />
      <line x1="0.250586" y1="0.002816" x2="0.240586" y2="0.002816" />
      <line x1="0.240617" y1="0.002783" x2="0.240617" y2="0.002784" />
      <line x1="0.240586" y1="-0.034884" x2="0.250586" y2="-0.034884" />
      <line x1="0.250585" y1="-0.034883" x2="0.240586" y2="-0.034883" />
      <line x1="0.250585" y1="-0.044883" x2="0.222784" y2="-0.044883" />
      <line x1="0.222786" y1="-0.044884" x2="0.222784" y2="-0.044883" />
      <path d="M 0.222786,-0.044884 A 0.009789105352524866,1.5711473886037303e-05 -2.9294789267481595e-20 0,1 0.213012,-0.0449" />
      <path d="M 0.219109,-0.044908 A 0.0012500000000000011,2.0062448661338747e-06 -2.9294789267481595e-20 0,1 0.216609,-0.044908" />
      <path d="M 0.216609,-0.044908 A 0.0012500000000000011,2.0062448661338747e-06 -2.9294789267481595e-20 0,1 0.219109,-0.044908" />
      <path d="M 0.229009,-0.044908 A 0.0012500000000000011,2.0062448661338747e-06 -2.9294789267481595e-20 0,1 0.226509,-0.044908" />
      <path d="M 0.226509,-0.044908 A 0.0012500000000000011,2.0062448661338747e-06 -2.9294789267481595e-20 0,1 0.229009,-0.044908" />
      <path d="M 0.219093,-0.044892 A 0.0012500000000000011,2.0062448661338747e-06 -2.9294789267481595e-20 0,1 0.216593,-0.044892" />
      <path d="M 0.216593,-0.044892 A 0.0012500000000000011,2.0062448661338747e-06 -2.9294789267481595e-20 0,1 0.219093,-0.044892" />
      <path d="M 0.228101,-0.0449 A 0.0053,8.50647823240762e-06 -2.9294789267481595e-20 0,1 0.217501,-0.0449" />
      <path d="M 0.217501,-0.0449 A 0.0053,8.50647823240762e-06 -2.9294789267481595e-20 0,1 0.228101,-0.0449" />
      <path d="M 0.228993,-0.044892 A 0.0012500000000000011,2.0062448661338747e-06 -2.9294789267481595e-20 0,1 0.226493,-0.044892" />
      <path d="M 0.226493,-0.044892 A 0.0012500000000000011,2.0062448661338747e-06 -2.9294789267481595e-20 0,1 0.228993,-0.044892" />
      <line x1="0.222784" y1="-0.044883" x2="0.222784" y2="-0.034884" />
      <line x1="0.240586" y1="0.002783" x2="0.240586" y2="0.002816" />
      <line x1="0.222786" y1="-0.044884" x2="0.222786" y2="-0.034884" />
      <line x1="0.219109" y1="0.002792" x2="0.219109" y2="0.012792" />
      <line x1="0.216609" y1="0.002792" x2="0.216609" y2="0.012792" />
      <line x1="0.228101" y1="0.0028" x2="0.228101" y2="0.0128" />
      <line x1="0.217501" y1="0.0028" x2="0.217501" y2="0.0128" />
      <line x1="0.229009" y1="0.002792" x2="0.229009" y2="0.012792" />
      <line x1="0.226509" y1="0.002792" x2="0.226509" y2="0.012792" />
      <line x1="0.219093" y1="0.002808" x2="0.219093" y2="0.012808" />
      <line x1="0.216593" y1="0.002808" x2="0.216593" y2="0.012808" />
      <line x1="0.228993" y1="0.002808" x2="0.228993" y2="0.012808" />
      <line x1="0.226493" y1="0.002808" x2="0.226493" y2="0.012808" />
      <line x1="0.219109" y1="-0.044908" x2="0.219109" y2="-0.034908" />
      <line x1="0.216609" y1="-0.044908" x2="0.216609" y2="-0.034908" />
      <line x1="0.228101" y1="-0.0449" x2="0.228101" y2="-0.0349" />
      <line x1="0.217501" y1="-0.0449" x2="0.217501" y2="-0.0349" />
      <line x1="0.229009" y1="-0.044908" x2="0.229009" y2="-0.034908" />
      <line x1="0.226509" y1="-0.044908" x2="0.226509" y2="-0.034908" />
      <line x1="0.219093" y1="-0.044892" x2="0.219093" y2="-0.034892" />
      <line x1="0.216593" y1="-0.044892" x2="0.216593" y2="-0.034892" />
      <line x1="0.228993" y1="-0.044892" x2="0.228993" y2="-0.034892" />
      <line x1="0.226493" y1="-0.044892" x2="0.226493" y2="-0.034892" />
      <line x1="0.26023" y1="0.002781" x2="0.26023" y2="0.002826" />
      <line x1="0.26023" y1="0.002826" x2="0.26023" y2="0.012826" />
      <line x1="0.26123" y1="0.002826" x2="0.26123" y2="0.012826" />
      <line x1="0.26023" y1="0.002826" x2="0.26123" y2="0.002826" />
      <line x1="0.281808" y1="0.002781" x2="0.281808" y2="0.002826" />
      <line x1="0.281808" y1="0.002826" x2="0.281808" y2="0.012826" />
      <path d="M 0.280808,0.002826 A 0.009789105352524866,1.5736582993592302e-05 -1.2252831774749501e-36 1,1 0.26123,0.002826" />
      <line x1="0.280808" y1="0.002826" x2="0.280808" y2="0.012826" />
      <line x1="0.280808" y1="0.002826" x2="0.281808" y2="0.002826" />
      <path d="M 0.266069,0.002832 A 0.00125,2.0094511228155067e-06 -1.2252831774749501e-36 0,1 0.267319,0.002834" />
      <path d="M 0.267319,0.002834 A 0.00125,2.0094511228155067e-06 -1.2252831774749501e-36 0,1 0.264819,0.002834" />
      <path d="M 0.264819,0.002834 A 0.00125,2.0094511228155067e-06 -1.2252831774749501e-36 0,1 0.266069,0.002832" />
      <path d="M 0.271019,0.002817 A 0.0053,8.520072760737747e-06 -1.2252831774749501e-36 0,1 0.276319,0.002826" />
      <path d="M 0.276319,0.002826 A 0.0053,8.520072760737747e-06 -1.2252831774749501e-36 0,1 0.265719,0.002826" />
      <path d="M 0.265719,0.002826 A 0.0053,8.520072760737747e-06 -1.2252831774749501e-36 0,1 0.271019,0.002817" />
      <path d="M 0.266069,0.002816 A 0.00125,2.0094511228155067e-06 -1.2252831774749501e-36 0,1 0.267319,0.002818" />
      <path d="M 0.267319,0.002818 A 0.00125,2.0094511228155067e-06 -1.2252831774749501e-36 0,1 0.264819,0.002818" />
      <path d="M 0.264819,0.002818 A 0.00125,2.0094511228155067e-06 -1.2252831774749501e-36 0,1 0.266069,0.002816" />
      <path d="M 0.275969,0.002832 A 0.00125,2.0094511228155067e-06 -1.2252831774749501e-36 0,1 0.277219,0.002834" />
      <path d="M 0.277219,0.002834 A 0.0012500000000000011,2.0094511228155084e-06 -1.2252831774749501e-36 0,1 0.274719,0.002834" />
      <path d="M 0.274719,0.002834 A 0.00125,2.0094511228155067e-06 -1.2252831774749501e-36 0,1 0.275969,0.002832" />
      <path d="M 0.275969,0.002816 A 0.00125,2.0094511228155067e-06 -1.2252831774749501e-36 0,1 0.277219,0.002818" />
      <path d="M 0.277219,0.002818 A 0.0012500000000000011,2.0094511228155084e-06 -1.2252831774749501e-36 0,1 0.274719,0.002818" />
      <path d="M 0.274719,0.002818 A 0.00125,2.0094511228155067e-06 -1.2252831774749501e-36 0,1 0.275969,0.002816" />
      <line x1="0.26123" y1="0.002781" x2="0.26123" y2="0.002797" />
      <line x1="0.26123" y1="0.002797" x2="0.280808" y2="0.002797" />
      <line x1="0.280808" y1="0.002781" x2="0.280808" y2="0.002797" />
      <line x1="0.26123" y1="-0.034903" x2="0.26123" y2="0.002797" />
      <line x1="0.26123" y1="-0.034903" x2="0.26123" y2="-0.034919" />
      <path d="M 0.280329,-0.034869 A 0.009789105352524866,1.5736582993592302e-05 -1.2252831774749501e-36 0,1 0.261709,-0.034869" />
      <line x1="0.280808" y1="-0.034903" x2="0.26123" y2="-0.034903" />
      <line x1="0.280808" y1="-0.034903" x2="0.280808" y2="-0.034919" />
      <path d="M 0.266069,-0.034868 A 0.00125,2.0094511228155067e-06 -1.2252831774749501e-36 0,1 0.267319,-0.034866" />
      <path d="M 0.267319,-0.034866 A 0.00125,2.0094511228155067e-06 -1.2252831774749501e-36 0,1 0.264819,-0.034866" />
      <path d="M 0.264819,-0.034866 A 0.00125,2.0094511228155067e-06 -1.2252831774749501e-36 0,1 0.266069,-0.034868" />
      <path d="M 0.271019,-0.034883 A 0.0053,8.520072760737747e-06 -1.2252831774749501e-36 0,1 0.276319,-0.034874" />
      <path d="M 0.276319,-0.034874 A 0.0053,8.520072760737747e-06 -1.2252831774749501e-36 0,1 0.265719,-0.034874" />
      <path d="M 0.265719,-0.034874 A 0.0053,8.520072760737747e-06 -1.2252831774749501e-36 0,1 0.271019,-0.034883" />
      <path d="M 0.266069,-0.034884 A 0.00125,2.0094511228155067e-06 -1.2252831774749501e-36 0,1 0.267319,-0.034882" />
      <path d="M 0.267319,-0.034882 A 0.00125,2.0094511228155067e-06 -1.2252831774749501e-36 0,1 0.264819,-0.034882" />
      <path d="M 0.264819,-0.034882 A 0.00125,2.0094511228155067e-06 -1.2252831774749501e-36 0,1 0.266069,-0.034884" />
      <path d="M 0.275969,-0.034868 A 0.00125,2.0094511228155067e-06 -1.2252831774749501e-36 0,1 0.277219,-0.034866" />
      <path d="M 0.277219,-0.034866 A 0.0012500000000000011,2.0094511228155084e-06 -1.2252831774749501e-36 0,1 0.274719,-0.034866" />
      <path d="M 0.274719,-0.034866 A 0.00125,2.0094511228155067e-06 -1.2252831774749501e-36 0,1 0.275969,-0.034868" />
      <path d="M 0.275969,-0.034884 A 0.00125,2.0094511228155067e-06 -1.2252831774749501e-36 0,1 0.277219,-0.034882" />
      <path d="M 0.277219,-0.034882 A 0.0012500000000000011,2.0094511228155084e-06 -1.2252831774749501e-36 0,1 0.274719,-0.034882" />
      <path d="M 0.274719,-0.034882 A 0.00125,2.0094511228155067e-06 -1.2252831774749501e-36 0,1 0.275969,-0.034884" />
      <line x1="0.26023" y1="-0.044919" x2="0.26023" y2="-0.044874" />
      <line x1="0.26023" y1="-0.044874" x2="0.26023" y2="-0.034874" />
      <line x1="0.281808" y1="-0.044919" x2="0.281808" y2="-0.044874" />
      <line x1="0.280808" y1="-0.044874" x2="0.281808" y2="-0.044874" />
      <path d="M 0.280808,-0.044874 A 0.009789105352524866,1.5736582993592302e-05 -1.2252831774749501e-36 1,1 0.26123,-0.044874" />
      <line x1="0.26023" y1="-0.044874" x2="0.26123" y2="-0.044874" />
      <path d="M 0.266069,-0.044868 A 0.00125,2.0094511228155067e-06 -1.2252831774749501e-36 0,1 0.267319,-0.044866" />
      <path d="M 0.267319,-0.044866 A 0.00125,2.0094511228155067e-06 -1.2252831774749501e-36 0,1 0.264819,-0.044866" />
      <path d="M 0.264819,-0.044866 A 0.00125,2.0094511228155067e-06 -1.2252831774749501e-36 0,1 0.266069,-0.044868" />
      <path d="M 0.266069,-0.044884 A 0.00125,2.0094511228155067e-06 -1.2252831774749501e-36 0,1 0.267319,-0.044882" />
      <path d="M 0.267319,-0.044882 A 0.00125,2.0094511228155067e-06 -1.2252831774749501e-36 0,1 0.264819,-0.044882" />
      <path d="M 0.264819,-0.044882 A 0.00125,2.0094511228155067e-06 -1.2252831774749501e-36 0,1 0.266069,-0.044884" />
      <path d="M 0.275969,-0.044868 A 0.00125,2.0094511228155067e-06 -1.2252831774749501e-36 0,1 0.277219,-0.044866" />
      <path d="M 0.277219,-0.044866 A 0.0012500000000000011,2.0094511228155084e-06 -1.2252831774749501e-36 0,1 0.274719,-0.044866" />
      <path d="M 0.274719,-0.044866 A 0.00125,2.0094511228155067e-06 -1.2252831774749501e-36 0,1 0.275969,-0.044868" />
      <path d="M 0.271019,-0.044883 A 0.0053,8.520072760737747e-06 -1.2252831774749501e-36 0,1 0.276319,-0.044874" />
      <path d="M 0.276319,-0.044874 A 0.0053,8.520072760737747e-06 -1.2252831774749501e-36 0,1 0.265719,-0.044874" />
      <path d="M 0.265719,-0.044874 A 0.0053,8.520072760737747e-06 -1.2252831774749501e-36 0,1 0.271019,-0.044883" />
      <path d="M 0.275969,-0.044884 A 0.00125,2.0094511228155067e-06 -1.2252831774749501e-36 0,1 0.277219,-0.044882" />
      <path d="M 0.277219,-0.044882 A 0.0012500000000000011,2.0094511228155084e-06 -1.2252831774749501e-36 0,1 0.274719,-0.044882" />
      <path d="M 0.274719,-0.044882 A 0.00125,2.0094511228155067e-06 -1.2252831774749501e-36 0,1 0.275969,-0.044884" />
      <line x1="0.281808" y1="-0.044874" x2="0.281808" y2="-0.034874" />
      <line x1="0.280808" y1="-0.034903" x2="0.280808" y2="0.002797" />
      <line x1="0.26123" y1="-0.044874" x2="0.26123" y2="-0.034874" />
      <line x1="0.280808" y1="-0.044874" x2="0.280808" y2="-0.034874" />
      <line x1="0.267319" y1="0.002834" x2="0.267319" y2="0.012834" />
      <line x1="0.264819" y1="0.002834" x2="0.264819" y2="0.012834" />
      <line x1="0.276319" y1="0.002826" x2="0.276319" y2="0.012826" />
      <line x1="0.265719" y1="0.002826" x2="0.265719" y2="0.012826" />
      <line x1="0.267319" y1="0.002818" x2="0.267319" y2="0.012818" />
      <line x1="0.264819" y1="0.002818" x2="0.264819" y2="0.012818" />
      <line x1="0.277219" y1="0.002834" x2="0.277219" y2="0.012834" />
      <line x1="0.274719" y1="0.002834" x2="0.274719" y2="0.012834" />
      <line x1="0.277219" y1="0.002818" x2="0.277219" y2="0.012818" />
      <line x1="0.274719" y1="0.002818" x2="0.274719" y2="0.012818" />
      <line x1="0.267319" y1="-0.044866" x2="0.267319" y2="-0.034866" />
      <line x1="0.264819" y1="-0.044866" x2="0.264819" y2="-0.034866" />
      <line x1="0.276319" y1="-0.044874" x2="0.276319" y2="-0.034874" />
      <line x1="0.265719" y1="-0.044874" x2="0.265719" y2="-0.034874" />
      <line x1="0.267319" y1="-0.044882" x2="0.267319" y2="-0.034882" />
      <line x1="0.264819" y1="-0.044882" x2="0.264819" y2="-0.034882" />
      <line x1="0.277219" y1="-0.044866" x2="0.277219" y2="-0.034866" />
      <line x1="0.274719" y1="-0.044866" x2="0.274719" y2="-0.034866" />
      <line x1="0.277219" y1="-0.044882" x2="0.277219" y2="-0.034882" />
      <line x1="0.274719" y1="-0.044882" x2="0.274719" y2="-0.034882" />
    </g>
  </g>
  <text x="0.018795" y="-0.018516" text-anchor="middle" font-family="'Input Sans Narrow', 'DejaVu Sans', Arial, sans-serif" font-size="0.002500" font-weight="bold" fill="#333">A-A</text>
  <text x="0.018795" y="-0.015016" text-anchor="middle" font-family="'Input Sans Narrow', 'DejaVu Sans', Arial, sans-serif" font-size="0.001800" fill="#888">front_horn</text>
  <line x1="0.000000" y1="0.011589" x2="0.000000" y2="0.014589" stroke="#555" stroke-width="0.000140" stroke-opacity="0.5"/>
  <line x1="0.037590" y1="0.011589" x2="0.037590" y2="0.014589" stroke="#555" stroke-width="0.000140" stroke-opacity="0.5"/>
  <line x1="0.000000" y1="0.012989" x2="0.000000" y2="0.014589" stroke="#555" stroke-width="0.000200"/>
  <line x1="0.037590" y1="0.012989" x2="0.037590" y2="0.014589" stroke="#555" stroke-width="0.000200"/>
  <line x1="0.000000" y1="0.013789" x2="0.037590" y2="0.013789" stroke="#555" stroke-width="0.000200"/>
  <polygon points="0.000000,0.013789 0.001500,0.013189 0.001500,0.014389" fill="#555"/>
  <polygon points="0.037590,0.013789 0.036090,0.013189 0.036090,0.014389" fill="#555"/>
  <text x="0.018795" y="0.012589" text-anchor="middle" font-family="'Input Sans Narrow', 'DejaVu Sans', Arial, sans-serif" font-size="0.001600" fill="#555">37.6</text>
  <line x1="0.038390" y1="-0.010789" x2="0.041390" y2="-0.010789" stroke="#555" stroke-width="0.000140" stroke-opacity="0.5"/>
  <line x1="0.038390" y1="0.010789" x2="0.041390" y2="0.010789" stroke="#555" stroke-width="0.000140" stroke-opacity="0.5"/>
  <line x1="0.039790" y1="-0.010789" x2="0.041390" y2="-0.010789" stroke="#555" stroke-width="0.000200"/>
  <line x1="0.039790" y1="0.010789" x2="0.041390" y2="0.010789" stroke="#555" stroke-width="0.000200"/>
  <line x1="0.040590" y1="-0.010789" x2="0.040590" y2="0.010789" stroke="#555" stroke-width="0.000200"/>
  <polygon points="0.040590,-0.010789 0.039990,-0.009289 0.041190,-0.009289" fill="#555"/>
  <polygon points="0.040590,0.010789 0.039990,0.009289 0.041190,0.009289" fill="#555"/>
  <text x="0.042090" y="0.000000" text-anchor="middle" dominant-baseline="central" font-family="'Input Sans Narrow', 'DejaVu Sans', Arial, sans-serif" font-size="0.001600" fill="#555" transform="rotate(-90 0.042090 0.000000)">21.6</text>
  <text x="0.077090" y="-0.018516" text-anchor="middle" font-family="'Input Sans Narrow', 'DejaVu Sans', Arial, sans-serif" font-size="0.002500" font-weight="bold" fill="#333">B-B</text>
  <text x="0.077090" y="-0.015016" text-anchor="middle" font-family="'Input Sans Narrow', 'DejaVu Sans', Arial, sans-serif" font-size="0.001800" fill="#888">rear_horn</text>
  <line x1="0.045590" y1="0.013200" x2="0.045590" y2="0.016200" stroke="#555" stroke-width="0.000140" stroke-opacity="0.5"/>
  <line x1="0.108590" y1="0.013200" x2="0.108590" y2="0.016200" stroke="#555" stroke-width="0.000140" stroke-opacity="0.5"/>
  <line x1="0.045590" y1="0.014600" x2="0.045590" y2="0.016200" stroke="#555" stroke-width="0.000200"/>
  <line x1="0.108590" y1="0.014600" x2="0.108590" y2="0.016200" stroke="#555" stroke-width="0.000200"/>
  <line x1="0.045590" y1="0.015400" x2="0.108590" y2="0.015400" stroke="#555" stroke-width="0.000200"/>
  <polygon points="0.045590,0.015400 0.047090,0.014800 0.047090,0.016000" fill="#555"/>
  <polygon points="0.108590,0.015400 0.107090,0.014800 0.107090,0.016000" fill="#555"/>
  <text x="0.077090" y="0.014200" text-anchor="middle" font-family="'Input Sans Narrow', 'DejaVu Sans', Arial, sans-serif" font-size="0.001600" fill="#555">63.0</text>
  <line x1="0.109390" y1="-0.012400" x2="0.112390" y2="-0.012400" stroke="#555" stroke-width="0.000140" stroke-opacity="0.5"/>
  <line x1="0.109390" y1="0.012400" x2="0.112390" y2="0.012400" stroke="#555" stroke-width="0.000140" stroke-opacity="0.5"/>
  <line x1="0.110790" y1="-0.012400" x2="0.112390" y2="-0.012400" stroke="#555" stroke-width="0.000200"/>
  <line x1="0.110790" y1="0.012400" x2="0.112390" y2="0.012400" stroke="#555" stroke-width="0.000200"/>
  <line x1="0.111590" y1="-0.012400" x2="0.111590" y2="0.012400" stroke="#555" stroke-width="0.000200"/>
  <polygon points="0.111590,-0.012400 0.110990,-0.010900 0.112190,-0.010900" fill="#555"/>
  <polygon points="0.111590,0.012400 0.110990,0.010900 0.112190,0.010900" fill="#555"/>
  <text x="0.113090" y="0.000000" text-anchor="middle" dominant-baseline="central" font-family="'Input Sans Narrow', 'DejaVu Sans', Arial, sans-serif" font-size="0.001600" fill="#555" transform="rotate(-90 0.113090 0.000000)">24.8</text>
  <text x="0.148091" y="-0.018516" text-anchor="middle" font-family="'Input Sans Narrow', 'DejaVu Sans', Arial, sans-serif" font-size="0.002500" font-weight="bold" fill="#333">C-C</text>
  <text x="0.148091" y="-0.015016" text-anchor="middle" font-family="'Input Sans Narrow', 'DejaVu Sans', Arial, sans-serif" font-size="0.001800" fill="#888">mid_body</text>
  <text x="0.219105" y="-0.018516" text-anchor="middle" font-family="'Input Sans Narrow', 'DejaVu Sans', Arial, sans-serif" font-size="0.002500" font-weight="bold" fill="#333">side_XZ</text>
  <line x1="0.187591" y1="0.051440" x2="0.187591" y2="0.054440" stroke="#555" stroke-width="0.000140" stroke-opacity="0.5"/>
  <line x1="0.250619" y1="0.051440" x2="0.250619" y2="0.054440" stroke="#555" stroke-width="0.000140" stroke-opacity="0.5"/>
  <line x1="0.187591" y1="0.052840" x2="0.187591" y2="0.054440" stroke="#555" stroke-width="0.000200"/>
  <line x1="0.250619" y1="0.052840" x2="0.250619" y2="0.054440" stroke="#555" stroke-width="0.000200"/>
  <line x1="0.187591" y1="0.053640" x2="0.250619" y2="0.053640" stroke="#555" stroke-width="0.000200"/>
  <polygon points="0.187591,0.053640 0.189091,0.053040 0.189091,0.054240" fill="#555"/>
  <polygon points="0.250619,0.053640 0.249119,0.053040 0.249119,0.054240" fill="#555"/>
  <text x="0.219105" y="0.052440" text-anchor="middle" font-family="'Input Sans Narrow', 'DejaVu Sans', Arial, sans-serif" font-size="0.001600" fill="#555">63.0</text>
  <line x1="0.251419" y1="-0.012817" x2="0.254419" y2="-0.012817" stroke="#555" stroke-width="0.000140" stroke-opacity="0.5"/>
  <line x1="0.251419" y1="0.050640" x2="0.254419" y2="0.050640" stroke="#555" stroke-width="0.000140" stroke-opacity="0.5"/>
  <line x1="0.252819" y1="-0.012817" x2="0.254419" y2="-0.012817" stroke="#555" stroke-width="0.000200"/>
  <line x1="0.252819" y1="0.050640" x2="0.254419" y2="0.050640" stroke="#555" stroke-width="0.000200"/>
  <line x1="0.253619" y1="-0.012817" x2="0.253619" y2="0.050640" stroke="#555" stroke-width="0.000200"/>
  <polygon points="0.253619,-0.012817 0.253019,-0.011317 0.254219,-0.011317" fill="#555"/>
  <polygon points="0.253619,0.050640 0.253019,0.049140 0.254219,0.049140" fill="#555"/>
  <text x="0.255119" y="0.018911" text-anchor="middle" dominant-baseline="central" font-family="'Input Sans Narrow', 'DejaVu Sans', Arial, sans-serif" font-size="0.001600" fill="#555" transform="rotate(-90 0.255119 0.018911)">63.5</text>
  <line x1="0.184591" y1="-0.002800" x2="0.253619" y2="-0.002800" stroke="#555" stroke-width="0.000250" stroke-dasharray="0.002500,0.000800,0.000500,0.000800"/>
  <text x="0.183091" y="-0.002200" text-anchor="end" font-family="'Input Sans Narrow', 'DejaVu Sans', Arial, sans-serif" font-size="0.002000" font-weight="bold" fill="#555">A</text>
  <text x="0.255119" y="-0.002200" text-anchor="start" font-family="'Input Sans Narrow', 'DejaVu Sans', Arial, sans-serif" font-size="0.002000" font-weight="bold" fill="#555">A</text>
  <line x1="0.184591" y1="0.034900" x2="0.253619" y2="0.034900" stroke="#555" stroke-width="0.000250" stroke-dasharray="0.002500,0.000800,0.000500,0.000800"/>
  <text x="0.183091" y="0.035500" text-anchor="end" font-family="'Input Sans Narrow', 'DejaVu Sans', Arial, sans-serif" font-size="0.002000" font-weight="bold" fill="#555">B</text>
  <text x="0.255119" y="0.035500" text-anchor="start" font-family="'Input Sans Narrow', 'DejaVu Sans', Arial, sans-serif" font-size="0.002000" font-weight="bold" fill="#555">B</text>
  <line x1="0.184591" y1="0.016050" x2="0.253619" y2="0.016050" stroke="#555" stroke-width="0.000250" stroke-dasharray="0.002500,0.000800,0.000500,0.000800"/>
  <text x="0.183091" y="0.016650" text-anchor="end" font-family="'Input Sans Narrow', 'DejaVu Sans', Arial, sans-serif" font-size="0.002000" font-weight="bold" fill="#555">C</text>
  <text x="0.255119" y="0.016650" text-anchor="start" font-family="'Input Sans Narrow', 'DejaVu Sans', Arial, sans-serif" font-size="0.002000" font-weight="bold" fill="#555">C</text>
  <text x="0.271019" y="-0.018516" text-anchor="middle" font-family="'Input Sans Narrow', 'DejaVu Sans', Arial, sans-serif" font-size="0.002500" font-weight="bold" fill="#333">side_YZ</text>
  <line x1="0.258619" y1="0.051461" x2="0.258619" y2="0.054461" stroke="#555" stroke-width="0.000140" stroke-opacity="0.5"/>
  <line x1="0.283419" y1="0.051461" x2="0.283419" y2="0.054461" stroke="#555" stroke-width="0.000140" stroke-opacity="0.5"/>
  <line x1="0.258619" y1="0.052861" x2="0.258619" y2="0.054461" stroke="#555" stroke-width="0.000200"/>
  <line x1="0.283419" y1="0.052861" x2="0.283419" y2="0.054461" stroke="#555" stroke-width="0.000200"/>
  <line x1="0.258619" y1="0.053661" x2="0.283419" y2="0.053661" stroke="#555" stroke-width="0.000200"/>
  <polygon points="0.258619,0.053661 0.260119,0.053061 0.260119,0.054261" fill="#555"/>
  <polygon points="0.283419,0.053661 0.281919,0.053061 0.281919,0.054261" fill="#555"/>
  <text x="0.271019" y="0.052461" text-anchor="middle" font-family="'Input Sans Narrow', 'DejaVu Sans', Arial, sans-serif" font-size="0.001600" fill="#555">24.8</text>
  <line x1="0.284219" y1="-0.012841" x2="0.287219" y2="-0.012841" stroke="#555" stroke-width="0.000140" stroke-opacity="0.5"/>
  <line x1="0.284219" y1="0.050661" x2="0.287219" y2="0.050661" stroke="#555" stroke-width="0.000140" stroke-opacity="0.5"/>
  <line x1="0.285619" y1="-0.012841" x2="0.287219" y2="-0.012841" stroke="#555" stroke-width="0.000200"/>
  <line x1="0.285619" y1="0.050661" x2="0.287219" y2="0.050661" stroke="#555" stroke-width="0.000200"/>
  <line x1="0.286419" y1="-0.012841" x2="0.286419" y2="0.050661" stroke="#555" stroke-width="0.000200"/>
  <polygon points="0.286419,-0.012841 0.285819,-0.011341 0.287019,-0.011341" fill="#555"/>
  <polygon points="0.286419,0.050661 0.285819,0.049161 0.287019,0.049161" fill="#555"/>
  <text x="0.287919" y="0.018910" text-anchor="middle" dominant-baseline="central" font-family="'Input Sans Narrow', 'DejaVu Sans', Arial, sans-serif" font-size="0.001600" fill="#555" transform="rotate(-90 0.287919 0.018910)">63.5</text>
  <line x1="0.255619" y1="-0.002800" x2="0.286419" y2="-0.002800" stroke="#555" stroke-width="0.000250" stroke-dasharray="0.002500,0.000800,0.000500,0.000800"/>
  <text x="0.254119" y="-0.002200" text-anchor="end" font-family="'Input Sans Narrow', 'DejaVu Sans', Arial, sans-serif" font-size="0.002000" font-weight="bold" fill="#555">A</text>
  <text x="0.287919" y="-0.002200" text-anchor="start" font-family="'Input Sans Narrow', 'DejaVu Sans', Arial, sans-serif" font-size="0.002000" font-weight="bold" fill="#555">A</text>
  <line x1="0.255619" y1="0.034900" x2="0.286419" y2="0.034900" stroke="#555" stroke-width="0.000250" stroke-dasharray="0.002500,0.000800,0.000500,0.000800"/>
  <text x="0.254119" y="0.035500" text-anchor="end" font-family="'Input Sans Narrow', 'DejaVu Sans', Arial, sans-serif" font-size="0.002000" font-weight="bold" fill="#555">B</text>
  <text x="0.287919" y="0.035500" text-anchor="start" font-family="'Input Sans Narrow', 'DejaVu Sans', Arial, sans-serif" font-size="0.002000" font-weight="bold" fill="#555">B</text>
  <line x1="0.255619" y1="0.016050" x2="0.286419" y2="0.016050" stroke="#555" stroke-width="0.000250" stroke-dasharray="0.002500,0.000800,0.000500,0.000800"/>
  <text x="0.254119" y="0.016650" text-anchor="end" font-family="'Input Sans Narrow', 'DejaVu Sans', Arial, sans-serif" font-size="0.002000" font-weight="bold" fill="#555">C</text>
  <text x="0.287919" y="0.016650" text-anchor="start" font-family="'Input Sans Narrow', 'DejaVu Sans', Arial, sans-serif" font-size="0.002000" font-weight="bold" fill="#555">C</text>
  <text x="-0.001175" y="0.058836" font-family="'Input Sans Narrow', 'DejaVu Sans', Arial, sans-serif" font-size="0.003500" font-weight="bold" fill="#222">coupler</text>
  <line x1="-0.001175" y1="0.062836" x2="0.008825" y2="0.062836" stroke="#333" stroke-width="0.000350"/>
  <line x1="-0.001175" y1="0.061836" x2="-0.001175" y2="0.063836" stroke="#333" stroke-width="0.000250"/>
  <line x1="0.008825" y1="0.061836" x2="0.008825" y2="0.063836" stroke="#333" stroke-width="0.000250"/>
  <text x="0.010325" y="0.063536" font-family="'Input Sans Narrow', 'DejaVu Sans', Arial, sans-serif" font-size="0.001800" fill="#888">10 mm</text>
  <rect x="0.028825" y="0.056336" width="0.004000" height="0.002500" fill="url(#hatch_servo)" stroke="rgb(60,60,60)" stroke-width="0.000300"/>
  <text x="0.034325" y="0.058336" font-family="'Input Sans Narrow', 'DejaVu Sans', Arial, sans-serif" font-size="0.001800" fill="rgb(60,60,60)">servo</text>
  <rect x="0.028825" y="0.059836" width="0.004000" height="0.002500" fill="url(#hatch_coupler)" stroke="rgb(220,60,40)" stroke-width="0.000300"/>
  <text x="0.034325" y="0.061836" font-family="'Input Sans Narrow', 'DejaVu Sans', Arial, sans-serif" font-size="0.001800" fill="rgb(220,60,40)">coupler</text>
</svg>