<?xml version='1.0' encoding='utf-8'?>
<svg width="301.62mm" height="95.19mm" viewBox="-0.003175 -0.024375 0.301623 0.095190" version="1.1" xmlns="http://www.w3.org/2000/svg">
  <defs>
    <pattern id="hatch_cradle" width="0.0012" height="0.0012" patternUnits="userSpaceOnUse" patternTransform="rotate(45)">
      <line x1="0" y1="0" x2="0" y2="0.0012" stroke="rgb(50,120,190)" stroke-width="0.0001" stroke-opacity="0.6"/>
    </pattern>
    <pattern id="hatch_servo" width="0.0012" height="0.0012" patternUnits="userSpaceOnUse" patternTransform="rotate(75)">
      <line x1="0" y1="0" x2="0" y2="0.0012" stroke="rgb(60,60,60)" stroke-width="0.0001" stroke-opacity="0.6"/>
    </pattern>
    <pattern id="hatch_coupler" width="0.0012" height="0.0012" patternUnits="userSpaceOnUse" patternTransform="rotate(105)">
      <line x1="0" y1="0" x2="0" y2="0.0012" stroke="rgb(220,60,40)" stroke-width="0.0001" stroke-opacity="0.6"/>
    </pattern>
  </defs>
  <g transform="scale(1,-1)" stroke-linecap="round">
    <g fill="none" stroke="rgb(50,120,190)" stroke-width="0.00035" id="cradle">
      <line x1="0.0" y1="-0.0152" x2="0.0" y2="0.0152" />
      <line x1="0.0" y1="0.0152" x2="0.007526" y2="0.0152" />
      <line x1="0.007526" y1="-0.0152" x2="0.007526" y2="0.0152" />
      <line x1="0.0" y1="-0.0152" x2="0.007526" y2="-0.0152" />
      <line x1="0.073801" y1="0.0152" x2="0.081327" y2="0.0152" />
      <line x1="0.081327" y1="0.0152" x2="0.081327" y2="0.0127" />
      <line x1="0.076301" y1="0.0127" x2="0.081327" y2="0.0127" />
      <line x1="0.076301" y1="0.0127" x2="0.076301" y2="-0.0127" />
      <line x1="0.076301" y1="-0.0127" x2="0.081327" y2="-0.0127" />
      <line x1="0.081327" y1="-0.0127" x2="0.081327" y2="-0.0152" />
      <line x1="0.073801" y1="-0.0152" x2="0.081327" y2="-0.0152" />
      <line x1="0.073801" y1="0.0152" x2="0.073801" y2="-0.0152" />
      <line x1="0.147601" y1="0.0152" x2="0.155128" y2="0.0152" />
      <line x1="0.155128" y1="0.0152" x2="0.155128" y2="-0.0152" />
      <line x1="0.147601" y1="-0.0152" x2="0.155128" y2="-0.0152" />
      <line x1="0.147601" y1="0.0152" x2="0.147601" y2="-0.0152" />
      <circle cx="0.152801" cy="-0.01025" r="0.0021" />
      <circle cx="0.152801" cy="0.01025" r="0.0021" />
      <line x1="0.221402" y1="-0.038027" x2="0.221402" y2="0.002773" />
      <line x1="0.221402" y1="0.002773" x2="0.221509" y2="0.002827" />
      <line x1="0.221402" y1="-0.038027" x2="0.228928" y2="-0.038027" />
      <line x1="0.228928" y1="-0.038027" x2="0.228928" y2="0.002773" />
      <line x1="0.221402" y1="0.002773" x2="0.228928" y2="0.002773" />
      <line x1="0.221509" y1="0.002827" x2="0.229035" y2="0.002827" />
      <line x1="0.228928" y1="0.002773" x2="0.229035" y2="0.002827" />
      <line x1="0.228928" y1="-0.038027" x2="0.229035" y2="-0.037973" />
      <line x1="0.229035" y1="-0.037973" x2="0.229035" y2="0.002827" />
      <line x1="0.229027" y1="-0.032077" x2="0.228937" y2="-0.032123" />
      <line x1="0.229027" y1="-0.032077" x2="0.229027" y2="0.000323" />
      <line x1="0.229027" y1="0.000323" x2="0.228937" y2="0.000277" />
      <line x1="0.228937" y1="-0.032123" x2="0.228937" y2="0.000277" />
      <line x1="0.228937" y1="-0.032077" x2="0.229027" y2="-0.032077" />
    </g>
    <g fill="url(#hatch_cradle)" stroke="none" stroke-width="0" id="cradle_fill">
      <path d="M 0.0,0.0152 L 0.0,-0.0152 L 0.007526,-0.0152 L 0.007526,0.0152 L 0.0,0.0152" />
      <path d="M 0.081327,0.0152 L 0.073801,0.0152 L 0.073801,-0.0152 L 0.081327,-0.0152 L 0.081327,-0.0127 L 0.076301,-0.0127 L 0.076301,0.0127 L 0.081327,0.0127 L 0.081327,0.0152" />
      <path d="M 0.155128,0.0152 L 0.147601,0.0152 L 0.147601,-0.0152 L 0.155128,-0.0152 L 0.155128,0.0152 M 0.154901,-0.01025 A 0.0021000000000000046,0.0021000000000000046 0.0 0,0 0.150701,-0.01025 A 0.0021000000000000046,0.0021000000000000046 0.0 0,0 0.154901,-0.01025 M 0.154901,0.01025 A 0.0021000000000000046,0.0021000000000000046 0.0 0,0 0.150701,0.01025 A 0.0021000000000000046,0.0021000000000000046 0.0 0,0 0.154901,0.01025" />
    </g>
    <g fill="none" stroke="rgb(50,120,190)" stroke-opacity="0.4" stroke-width="0.00015" id="cradle_hidden" stroke-dasharray="0.0018 0.00045">
      <line x1="0.221402" y1="-0.038027" x2="0.221509" y2="-0.037973" />
      <line x1="0.221509" y1="-0.037973" x2="0.221509" y2="0.002827" />
      <line x1="0.221473" y1="-0.034791" x2="0.221438" y2="-0.034809" />
      <line x1="0.221473" y1="-0.034791" x2="0.221473" y2="-0.028791" />
      <line x1="0.221473" y1="-0.028791" x2="0.221438" y2="-0.028809" />
      <line x1="0.221438" y1="-0.034809" x2="0.221438" y2="-0.028809" />
      <line x1="0.221509" y1="-0.037973" x2="0.229035" y2="-0.037973" />
      <path d="M 0.228719,-0.038018 A 0.0021000000000000046,3.7606052440131087e-06 -8.781710968625401e-21 0,1 0.224519,-0.038018" />
      <path d="M 0.224519,-0.038018 A 0.0021000000000000046,3.7606052440131087e-06 -8.781710968625401e-21 0,1 0.228719,-0.038018" />
      <path d="M 0.228792,-0.037982 A 0.0021,3.7606052440131002e-06 -8.781710968625401e-21 0,1 0.224592,-0.037982" />
      <path d="M 0.224592,-0.037982 A 0.0021,3.7606052440131002e-06 -8.781710968625401e-21 0,1 0.228792,-0.037982" />
      <line x1="0.221473" y1="-0.034791" x2="0.225273" y2="-0.034791" />
      <line x1="0.225238" y1="-0.034809" x2="0.225273" y2="-0.034791" />
      <line x1="0.221438" y1="-0.034809" x2="0.225238" y2="-0.034809" />
      <line x1="0.225273" y1="-0.034791" x2="0.225273" y2="-0.032091" />
      <line x1="0.225273" y1="-0.032091" x2="0.223973" y2="-0.032091" />
      <line x1="0.223973" y1="-0.032091" x2="0.223973" y2="-0.028791" />
      <line x1="0.221473" y1="-0.028791" x2="0.223973" y2="-0.028791" />
      <line x1="0.223973" y1="-0.028791" x2="0.223938" y2="-0.028809" />
      <line x1="0.221438" y1="-0.028809" x2="0.223938" y2="-0.028809" />
      <line x1="0.225238" y1="-0.034809" x2="0.225238" y2="-0.032109" />
      <line x1="0.225238" y1="-0.032109" x2="0.223938" y2="-0.032109" />
      <line x1="0.223938" y1="-0.032109" x2="0.223938" y2="-0.028809" />
      <path d="M 0.228719,-0.032118 A 0.0021000000000000046,3.7606052440131087e-06 -8.781710968625401e-21 0,1 0.224519,-0.032118" />
      <path d="M 0.224519,-0.032118 A 0.0021000000000000046,3.7606052440131087e-06 -8.781710968625401e-21 0,1 0.228719,-0.032118" />
      <path d="M 0.228792,-0.032082 A 0.0021,3.7606052440131002e-06 -8.781710968625401e-21 0,1 0.224592,-0.032082" />
      <path d="M 0.224592,-0.032082 A 0.0021,3.7606052440131002e-06 -8.781710968625401e-21 0,1 0.228792,-0.032082" />
      <line x1="0.225238" y1="-0.032109" x2="0.225273" y2="-0.032091" />
      <line x1="0.224" y1="-0.032077" x2="0.228937" y2="-0.032077" />
      <line x1="0.223911" y1="-0.032123" x2="0.228937" y2="-0.032123" />
      <line x1="0.223911" y1="-0.032123" x2="0.223938" y2="-0.032109" />
      <line x1="0.223973" y1="-0.032091" x2="0.224" y2="-0.032077" />
      <line x1="0.223911" y1="0.000277" x2="0.224" y2="0.000323" />
      <line x1="0.224" y1="-0.032077" x2="0.224" y2="0.000323" />
      <line x1="0.223911" y1="-0.032123" x2="0.223911" y2="0.000277" />
      <line x1="0.224" y1="0.000323" x2="0.229027" y2="0.000323" />
      <line x1="0.223911" y1="0.000277" x2="0.228937" y2="0.000277" />
      <line x1="0.228719" y1="-0.038018" x2="0.228719" y2="-0.032118" />
      <line x1="0.224519" y1="-0.038018" x2="0.224519" y2="-0.032118" />
      <line x1="0.228792" y1="-0.037982" x2="0.228792" y2="-0.032082" />
      <line x1="0.224592" y1="-0.037982" x2="0.224592" y2="-0.032082" />
    </g>
    <g fill="none" stroke="rgb(60,60,60)" stroke-width="0.00035" id="servo">
      <path d="M 0.080601,0.0124 A 0.004,0.004 180.0 0,1 0.076601,0.0084" />
      <line x1="0.080601" y1="0.0124" x2="0.118001" y2="0.0124" />
      <path d="M 0.122001,0.0084 A 0.004,0.004 0.0 0,1 0.118001,0.0124" />
      <line x1="0.122001" y1="0.0084" x2="0.122001" y2="-0.0084" />
      <path d="M 0.118001,-0.0124 A 0.004,0.004 0.0 0,1 0.122001,-0.0084" />
      <line x1="0.080601" y1="-0.0124" x2="0.118001" y2="-0.0124" />
      <path d="M 0.076601,-0.0084 A 0.004,0.004 180.0 0,1 0.080601,-0.0124" />
      <line x1="0.076601" y1="0.0084" x2="0.076601" y2="-0.0084" />
      <path d="M 0.154401,0.0124 A 0.004,0.004 180.0 0,1 0.150401,0.0084" />
      <line x1="0.154401" y1="0.0124" x2="0.191801" y2="0.0124" />
      <path d="M 0.195801,0.0084 A 0.004,0.004 0.0 0,1 0.191801,0.0124" />
      <line x1="0.195801" y1="0.0084" x2="0.195801" y2="-0.0084" />
      <path d="M 0.191801,-0.0124 A 0.004,0.004 0.0 0,1 0.195801,-0.0084" />
      <line x1="0.154401" y1="-0.0124" x2="0.191801" y2="-0.0124" />
      <path d="M 0.150401,-0.0084 A 0.004,0.004 180.0 0,1 0.154401,-0.0124" />
      <line x1="0.150401" y1="0.0084" x2="0.150401" y2="-0.0084" />
      <line x1="0.224246" y1="-0.048527" x2="0.224246" y2="-0.015927" />
      <line x1="0.224246" y1="-0.015927" x2="0.224266" y2="-0.015873" />
      <path d="M 0.224246,-0.015927 A 0.004,1.2758326567258113e-05 2.7972745530007117e-20 0,1 0.228241,-0.01594" />
      <line x1="0.228241" y1="-0.048539" x2="0.228241" y2="-0.01594" />
      <path d="M 0.227222,-0.048539 A 0.004,1.2758326567258113e-05 2.7972745530007117e-20 0,1 0.228241,-0.048539" />
      <line x1="0.227222" y1="-0.048539" x2="0.227222" y2="-0.040639" />
      <path d="M 0.224563,-0.040632 A 0.004,1.2758326567258113e-05 5.045731239565665e-20 0,1 0.227222,-0.040639" />
      <line x1="0.224563" y1="-0.048532" x2="0.224563" y2="-0.040632" />
      <path d="M 0.224246,-0.048527 A 0.004,1.2758326567258113e-05 2.7972745530007117e-20 0,1 0.224563,-0.048532" />
      <line x1="0.269645" y1="-0.048527" x2="0.269666" y2="-0.048473" />
      <path d="M 0.269645,-0.048527 A 0.004,1.2758326567258113e-05 -180.0 0,0 0.266641,-0.048539" />
      <path d="M 0.227222,-0.048526 A 0.0021,6.698121447810509e-06 5.045731239565665e-20 0,1 0.224563,-0.048532" />
      <path d="M 0.224266,-0.015873 A 0.004,1.2758326567258113e-05 -180.0 0,0 0.228271,-0.01586" />
      <line x1="0.228241" y1="-0.01594" x2="0.265641" y2="-0.01594" />
      <line x1="0.228271" y1="-0.01586" x2="0.249446" y2="-0.015861" />
      <path d="M 0.269645,-0.015927 A 0.004,1.2758326567258113e-05 -180.0 0,0 0.265641,-0.01594" />
      <path d="M 0.269666,-0.015873 A 0.004,1.2758326567258113e-05 2.7972745530007117e-20 0,1 0.269465,-0.015869" />
      <line x1="0.269645" y1="-0.015927" x2="0.269666" y2="-0.015873" />
      <path d="M 0.249446,-0.015926 A 0.002,6.379163283629056e-06 2.7972745530007117e-20 0,1 0.251444,-0.015932" />
      <line x1="0.251444" y1="-0.015932" x2="0.267444" y2="-0.015932" />
      <path d="M 0.269446,-0.015926 A 0.002,6.379163283629056e-06 -180.0 0,0 0.267444,-0.015932" />
      <line x1="0.269446" y1="-0.015926" x2="0.269465" y2="-0.015875" />
      <line x1="0.265641" y1="-0.04854" x2="0.265641" y2="-0.01594" />
      <line x1="0.265641" y1="-0.04854" x2="0.266641" y2="-0.04854" />
      <line x1="0.266641" y1="-0.05064" x2="0.266641" y2="-0.04854" />
      <line x1="0.226241" y1="-0.050639" x2="0.266641" y2="-0.05064" />
      <line x1="0.226241" y1="-0.050639" x2="0.226241" y2="-0.048539" />
      <line x1="0.226241" y1="-0.048539" x2="0.228241" y2="-0.048539" />
      <path d="M 0.226241,-0.048539 A 0.0021,6.698121447810509e-06 5.045731239565665e-20 0,1 0.227222,-0.048539" />
      <line x1="0.266645" y1="-0.050573" x2="0.266666" y2="-0.050573" />
      <line x1="0.266666" y1="-0.050573" x2="0.266666" y2="-0.048539" />
      <line x1="0.26667" y1="-0.05056" x2="0.26667" y2="-0.048539" />
      <line x1="0.266666" y1="-0.050573" x2="0.26667" y2="-0.05056" />
      <line x1="0.269666" y1="-0.015873" x2="0.269666" y2="-0.048473" />
      <path d="M 0.26667,-0.048461 A 0.004,1.2758326567258113e-05 2.7972745530007117e-20 0,1 0.26567,-0.04846" />
      <line x1="0.269645" y1="-0.048527" x2="0.269645" y2="-0.015927" />
      <path d="M 0.266641,-0.048539 A 0.004,1.2758326567258113e-05 -180.0 0,0 0.265641,-0.04854" />
      <line x1="0.266645" y1="-0.050627" x2="0.266645" y2="-0.048539" />
      <line x1="0.266641" y1="-0.05064" x2="0.266645" y2="-0.050627" />
      <line x1="0.22627" y1="-0.048539" x2="0.22627" y2="-0.048526" />
      <path d="M 0.227639,-0.050561 A 0.0021,6.698121447810509e-06 5.045731239565665e-20 0,1 0.22627,-0.050561" />
      <path d="M 0.249446,-0.014226 A 0.002,6.379163283629056e-06 2.7972745530007117e-20 0,1 0.251444,-0.014232" />
      <line x1="0.251444" y1="-0.014232" x2="0.267444" y2="-0.014232" />
      <path d="M 0.269446,-0.014226 A 0.002,6.379163283629056e-06 -180.0 0,0 0.267444,-0.014232" />
      <line x1="0.269446" y1="-0.014226" x2="0.269465" y2="-0.014175" />
      <path d="M 0.269465,-0.014175 A 0.002,6.379163283629056e-06 2.7972745530007117e-20 0,1 0.267468,-0.014168" />
      <line x1="0.251468" y1="-0.014168" x2="0.254956" y2="-0.014168" />
      <line x1="0.263956" y1="-0.014168" x2="0.267468" y2="-0.014168" />
      <path d="M 0.249465,-0.014175 A 0.002,6.379163283629056e-06 -180.0 0,0 0.251468,-0.014168" />
      <line x1="0.249446" y1="-0.014226" x2="0.249465" y2="-0.014175" />
      <path d="M 0.254956,-0.0142 A 0.004500000000000004,1.4353117388165389e-05 5.045731239565665e-20 0,1 0.263956,-0.0142" />
      <path d="M 0.263956,-0.0127 A 0.004500000000000004,1.4353117388165389e-05 5.045731239565665e-20 0,1 0.254956,-0.0127" />
      <path d="M 0.254956,-0.0127 A 0.004500000000000004,1.4353117388165389e-05 5.045731239565665e-20 0,1 0.263956,-0.0127" />
      <line x1="0.249446" y1="-0.015926" x2="0.249446" y2="-0.014226" />
      <line x1="0.251444" y1="-0.015932" x2="0.251444" y2="-0.014232" />
      <line x1="0.267444" y1="-0.015932" x2="0.267444" y2="-0.014232" />
      <line x1="0.269446" y1="-0.015926" x2="0.269446" y2="-0.014226" />
      <line x1="0.269465" y1="-0.015875" x2="0.269465" y2="-0.014175" />
      <line x1="0.224246" y1="-0.048527" x2="0.224246" y2="-0.015927" />
      <line x1="0.269666" y1="-0.048473" x2="0.269666" y2="-0.015873" />
      <line x1="0.249446" y1="-0.015926" x2="0.249446" y2="-0.014226" />
      <line x1="0.269465" y1="-0.015875" x2="0.269465" y2="-0.014175" />
      <line x1="0.263956" y1="-0.0142" x2="0.263956" y2="-0.0127" />
      <line x1="0.254956" y1="-0.0142" x2="0.254956" y2="-0.0127" />
    </g>
    <g fill="url(#hatch_servo)" stroke="none" stroke-width="0" id="servo_fill">
      <path d="M 0.080601,0.0124 A 0.004,0.004 180.0 0,1 0.076601,0.0084 L 0.076601,-0.0084 A 0.004,0.004 180.0 0,1 0.080601,-0.0124 L 0.118001,-0.0124 A 0.004,0.004 0.0 0,1 0.122001,-0.0084 L 0.122001,0.0084 A 0.004,0.004 0.0 0,1 0.118001,0.0124 L 0.080601,0.0124" />
      <path d="M 0.154401,0.0124 A 0.004,0.004 180.0 0,1 0.150401,0.0084 L 0.150401,-0.0084 A 0.004,0.004 180.0 0,1 0.154401,-0.0124 L 0.191801,-0.0124 A 0.004,0.004 0.0 0,1 0.195801,-0.0084 L 0.195801,0.0084 A 0.004,0.004 0.0 0,1 0.191801,0.0124 L 0.154401,0.0124" />
    </g>
    <g fill="none" stroke="rgb(60,60,60)" stroke-opacity="0.4" stroke-width="0.00015" id="servo_hidden" stroke-dasharray="0.0018 0.00045">
      <line x1="0.224246" y1="-0.048527" x2="0.224266" y2="-0.048473" />
      <line x1="0.224266" y1="-0.015873" x2="0.224266" y2="-0.048473" />
      <path d="M 0.224266,-0.048473 A 0.004,1.2758326567258113e-05 -180.0 0,0 0.224587,-0.048468" />
      <path d="M 0.224587,-0.048468 A 0.0021,6.698121447810509e-06 5.045731239565665e-20 0,1 0.227659,-0.048473" />
      <line x1="0.227659" y1="-0.048473" x2="0.229472" y2="-0.048473" />
      <path d="M 0.229472,-0.048473 A 0.0021,6.698121447810509e-06 5.045731239565665e-20 0,1 0.231459,-0.048473" />
      <line x1="0.231459" y1="-0.048473" x2="0.250172" y2="-0.048473" />
      <path d="M 0.250172,-0.048473 A 0.0021,6.698121447810509e-06 5.045731239565665e-20 0,1 0.252159,-0.048473" />
      <line x1="0.252159" y1="-0.048473" x2="0.266666" y2="-0.048473" />
      <line x1="0.266666" y1="-0.048473" x2="0.26667" y2="-0.048461" />
      <path d="M 0.269666,-0.048473 A 0.004,1.2758326567258113e-05 2.7972745530007117e-20 0,1 0.26667,-0.048461" />
      <line x1="0.266641" y1="-0.048539" x2="0.266645" y2="-0.048527" />
      <line x1="0.252139" y1="-0.048527" x2="0.266645" y2="-0.048527" />
      <path d="M 0.252139,-0.048527 A 0.0021,6.698121447810509e-06 5.045731239565665e-20 0,1 0.250152,-0.048527" />
      <line x1="0.231439" y1="-0.048527" x2="0.250152" y2="-0.048527" />
      <path d="M 0.231439,-0.048527 A 0.0021,6.698121447810509e-06 5.045731239565665e-20 0,1 0.229452,-0.048527" />
      <line x1="0.227639" y1="-0.048527" x2="0.229452" y2="-0.048527" />
      <path d="M 0.227639,-0.048527 A 0.0021,6.698121447810509e-06 5.045731239565665e-20 0,1 0.227222,-0.048526" />
      <path d="M 0.262456,-0.0485 A 0.0030000000000000027,9.568744925443593e-06 5.045731239565665e-20 0,1 0.256456,-0.0485" />
      <path d="M 0.256456,-0.0485 A 0.0030000000000000027,9.568744925443593e-06 5.045731239565665e-20 0,1 0.262456,-0.0485" />
      <line x1="0.228271" y1="-0.01586" x2="0.228271" y2="-0.04846" />
      <path d="M 0.227251,-0.048461 A 0.004,1.2758326567258113e-05 -180.0 0,0 0.228271,-0.04846" />
      <line x1="0.227251" y1="-0.048461" x2="0.227251" y2="-0.040561" />
      <path d="M 0.227251,-0.040561 A 0.004,1.2758326567258113e-05 5.045731239565665e-20 0,1 0.224587,-0.040568" />
      <line x1="0.224587" y1="-0.048468" x2="0.224587" y2="-0.040568" />
      <line x1="0.249446" y1="-0.015861" x2="0.26567" y2="-0.015861" />
      <path d="M 0.269465,-0.015869 A 0.004,1.2758326567258113e-05 2.7972745530007117e-20 0,1 0.26567,-0.015861" />
      <path d="M 0.269465,-0.015875 A 0.002,6.379163283629056e-06 2.7972745530007117e-20 0,1 0.267468,-0.015868" />
      <line x1="0.251468" y1="-0.015868" x2="0.267468" y2="-0.015868" />
      <path d="M 0.249465,-0.015875 A 0.002,6.379163283629056e-06 -180.0 0,0 0.251468,-0.015868" />
      <line x1="0.249446" y1="-0.015926" x2="0.249465" y2="-0.015875" />
      <line x1="0.228542" y1="-0.050635" x2="0.228542" y2="-0.040635" />
      <path d="M 0.226241,-0.050639 A 0.0021,6.698121447810509e-06 5.045731239565665e-20 0,1 0.228542,-0.050635" />
      <line x1="0.226241" y1="-0.050639" x2="0.226241" y2="-0.048539" />
      <path d="M 0.227222,-0.040639 A 0.0021,6.698121447810509e-06 5.045731239565665e-20 0,1 0.228542,-0.040635" />
      <path d="M 0.228544,-0.04063 A 0.0021,6.698121447810509e-06 -180.0 0,0 0.232543,-0.040633" />
      <path d="M 0.232543,-0.040633 A 0.0021,6.698121447810509e-06 -180.0 0,0 0.228542,-0.040635" />
      <path d="M 0.228544,-0.04063 A 0.0021,6.698121447810509e-06 5.045731239565665e-20 0,1 0.224563,-0.040632" />
      <line x1="0.227639" y1="-0.050627" x2="0.227639" y2="-0.048527" />
      <path d="M 0.228544,-0.05063 A 0.0021,6.698121447810509e-06 5.045731239565665e-20 0,1 0.227639,-0.050627" />
      <line x1="0.228544" y1="-0.05063" x2="0.228544" y2="-0.04063" />
      <line x1="0.228567" y1="-0.05057" x2="0.228567" y2="-0.04057" />
      <path d="M 0.227659,-0.050573 A 0.0021,6.698121447810509e-06 5.045731239565665e-20 0,1 0.228567,-0.05057" />
      <line x1="0.227659" y1="-0.050573" x2="0.227659" y2="-0.048473" />
      <path d="M 0.224587,-0.040568 A 0.0021,6.698121447810509e-06 5.045731239565665e-20 0,1 0.228567,-0.04057" />
      <line x1="0.227659" y1="-0.050573" x2="0.229472" y2="-0.050573" />
      <line x1="0.229472" y1="-0.050573" x2="0.229472" y2="-0.048473" />
      <path d="M 0.228569,-0.050564 A 0.0021,6.69812144781051e-06 -180.0 0,0 0.232568,-0.050567" />
      <path d="M 0.232568,-0.050567 A 0.0021,6.69812144781051e-06 -180.0 0,0 0.231459,-0.050573" />
      <line x1="0.228569" y1="-0.050564" x2="0.228569" y2="-0.040564" />
      <path d="M 0.228567,-0.04057 A 0.0021,6.69812144781051e-06 -1.927846472669193e-17 0,1 0.232568,-0.040567" />
      <path d="M 0.232568,-0.040567 A 0.0021,6.69812144781051e-06 -1.927846472669193e-17 0,1 0.228569,-0.040564" />
      <path d="M 0.228567,-0.05057 A 0.0021,6.698121447810509e-06 5.045731239565665e-20 0,1 0.229472,-0.050573" />
      <line x1="0.231459" y1="-0.050573" x2="0.231459" y2="-0.048473" />
      <line x1="0.231459" y1="-0.050573" x2="0.250172" y2="-0.050573" />
      <line x1="0.250172" y1="-0.050573" x2="0.250172" y2="-0.048473" />
      <path d="M 0.252159,-0.050573 A 0.0021,6.698121447810509e-06 5.045731239565665e-20 0,1 0.253268,-0.050567" />
      <line x1="0.252159" y1="-0.050573" x2="0.252159" y2="-0.048473" />
      <path d="M 0.253268,-0.050567 A 0.0021,6.698121447810509e-06 5.045731239565665e-20 0,1 0.249068,-0.050567" />
      <path d="M 0.249068,-0.050567 A 0.0021,6.698121447810509e-06 5.045731239565665e-20 0,1 0.250172,-0.050573" />
      <path d="M 0.253268,-0.040567 A 0.0021,6.698121447810509e-06 5.045731239565665e-20 0,1 0.249068,-0.040567" />
      <path d="M 0.249068,-0.040567 A 0.0021,6.698121447810509e-06 5.045731239565665e-20 0,1 0.253268,-0.040567" />
      <line x1="0.252159" y1="-0.050573" x2="0.266645" y2="-0.050573" />
      <line x1="0.266666" y1="-0.048539" x2="0.266666" y2="-0.048473" />
      <line x1="0.26667" y1="-0.048539" x2="0.26667" y2="-0.04846" />
      <line x1="0.26567" y1="-0.015861" x2="0.26567" y2="-0.04846" />
      <line x1="0.266645" y1="-0.048539" x2="0.266645" y2="-0.048527" />
      <line x1="0.252139" y1="-0.050627" x2="0.266645" y2="-0.050627" />
      <line x1="0.252139" y1="-0.050627" x2="0.252139" y2="-0.048527" />
      <path d="M 0.250152,-0.050627 A 0.0021,6.698121447810509e-06 5.045731239565665e-20 0,1 0.249043,-0.050633" />
      <path d="M 0.249043,-0.050633 A 0.0021000000000000046,6.698121447810524e-06 5.045731239565665e-20 0,1 0.253243,-0.050633" />
      <line x1="0.250152" y1="-0.050627" x2="0.250152" y2="-0.048527" />
      <path d="M 0.253243,-0.050633 A 0.0021,6.698121447810509e-06 5.045731239565665e-20 0,1 0.252139,-0.050627" />
      <path d="M 0.253243,-0.040633 A 0.0021000000000000046,6.698121447810524e-06 5.045731239565665e-20 0,1 0.249043,-0.040633" />
      <path d="M 0.249043,-0.040633 A 0.0021000000000000046,6.698121447810524e-06 5.045731239565665e-20 0,1 0.253243,-0.040633" />
      <line x1="0.231439" y1="-0.050627" x2="0.250152" y2="-0.050627" />
      <line x1="0.231439" y1="-0.050627" x2="0.231439" y2="-0.048527" />
      <path d="M 0.231439,-0.050627 A 0.0021,6.698121447810509e-06 180.0 0,0 0.232543,-0.050633" />
      <path d="M 0.232543,-0.050633 A 0.0021,6.698121447810509e-06 180.0 0,0 0.228542,-0.050635" />
      <line x1="0.229452" y1="-0.050627" x2="0.229452" y2="-0.048527" />
      <path d="M 0.229452,-0.050627 A 0.0021,6.698121447810509e-06 5.045731239565665e-20 0,1 0.228544,-0.05063" />
      <line x1="0.227639" y1="-0.050627" x2="0.229452" y2="-0.050627" />
      <path d="M 0.262456,-0.0498 A 0.0030000000000000027,9.568744925443593e-06 5.045731239565665e-20 0,1 0.256456,-0.0498" />
      <path d="M 0.256456,-0.0498 A 0.0030000000000000027,9.568744925443593e-06 5.045731239565665e-20 0,1 0.262456,-0.0498" />
      <line x1="0.26567" y1="-0.04846" x2="0.26667" y2="-0.04846" />
      <line x1="0.226271" y1="-0.05056" x2="0.26667" y2="-0.05056" />
      <line x1="0.226271" y1="-0.05056" x2="0.226271" y2="-0.04846" />
      <line x1="0.226271" y1="-0.04846" x2="0.228271" y2="-0.04846" />
      <path d="M 0.227251,-0.048461 A 0.0021,6.698121447810509e-06 5.045731239565665e-20 0,1 0.22627,-0.048461" />
      <path d="M 0.228569,-0.040564 A 0.0021,6.698121447810509e-06 5.045731239565665e-20 0,1 0.227251,-0.040561" />
      <line x1="0.22627" y1="-0.050561" x2="0.22627" y2="-0.048539" />
      <line x1="0.22627" y1="-0.048526" x2="0.22627" y2="-0.048461" />
      <path d="M 0.228569,-0.050564 A 0.0021,6.698121447810509e-06 5.045731239565665e-20 0,1 0.227639,-0.050561" />
      <line x1="0.254956" y1="-0.014168" x2="0.263956" y2="-0.014168" />
      <path d="M 0.263956,-0.0142 A 0.004500000000000004,1.4353117388165389e-05 5.045731239565665e-20 0,1 0.254956,-0.0142" />
      <line x1="0.232568" y1="-0.050567" x2="0.232568" y2="-0.040567" />
      <line x1="0.253268" y1="-0.050567" x2="0.253268" y2="-0.040567" />
      <line x1="0.249068" y1="-0.050567" x2="0.249068" y2="-0.040567" />
      <line x1="0.253243" y1="-0.050633" x2="0.253243" y2="-0.040633" />
      <line x1="0.249043" y1="-0.050633" x2="0.249043" y2="-0.040633" />
      <line x1="0.232543" y1="-0.050633" x2="0.232543" y2="-0.040633" />
      <line x1="0.262456" y1="-0.0498" x2="0.262456" y2="-0.0485" />
      <line x1="0.256456" y1="-0.0498" x2="0.256456" y2="-0.0485" />
      <line x1="0.267468" y1="-0.015868" x2="0.267468" y2="-0.014168" />
      <line x1="0.251468" y1="-0.015868" x2="0.251468" y2="-0.014168" />
      <line x1="0.249465" y1="-0.015875" x2="0.249465" y2="-0.014175" />
    </g>
    <g fill="none" stroke="rgb(220,60,40)" stroke-width="0.00035" id="coupler">
      <line x1="0.065801" y1="-0.010789" x2="0.038" y2="-0.010789" />
      <line x1="0.065801" y1="-0.010789" x2="0.065801" y2="-0.009789" />
      <line x1="0.038" y1="-0.010789" x2="0.038" y2="-0.009789" />
      <line x1="0.065801" y1="-0.009789" x2="0.055801" y2="-0.009789" />
      <path d="M 0.038,0.009789 A 0.009789105352524866,0.009789105352524866 0.0 1,1 0.038,-0.009789" />
      <line x1="0.055801" y1="-0.009789" x2="0.055801" y2="0.009789" />
      <line x1="0.038" y1="0.009789" x2="0.038" y2="0.010789" />
      <line x1="0.065801" y1="0.009789" x2="0.055801" y2="0.009789" />
      <line x1="0.065801" y1="0.010789" x2="0.038" y2="0.010789" />
      <line x1="0.065801" y1="0.009789" x2="0.065801" y2="0.010789" />
      <circle cx="0.03305" cy="-0.00495" r="0.00125" />
      <circle cx="0.038" cy="0.0" r="0.0053" />
      <circle cx="0.04295" cy="-0.00495" r="0.00125" />
      <circle cx="0.03305" cy="0.00495" r="0.00125" />
      <circle cx="0.04295" cy="0.00495" r="0.00125" />
      <line x1="0.065801" y1="-0.009789" x2="0.055801" y2="-0.009789" />
      <line x1="0.055801" y1="-0.009789" x2="0.055801" y2="0.009789" />
      <line x1="0.065801" y1="0.009789" x2="0.055801" y2="0.009789" />
      <line x1="0.065801" y1="0.009789" x2="0.065801" y2="-0.009789" />
      <line x1="0.139601" y1="0.009789" x2="0.139601" y2="-0.009789" />
      <line x1="0.129601" y1="-0.009789" x2="0.139601" y2="-0.009789" />
      <line x1="0.129601" y1="0.009789" x2="0.129601" y2="-0.009789" />
      <line x1="0.129601" y1="0.009789" x2="0.139601" y2="0.009789" />
      <line x1="0.213402" y1="-0.010789" x2="0.185601" y2="-0.010789" />
      <line x1="0.213402" y1="-0.010789" x2="0.213402" y2="0.010789" />
      <line x1="0.213402" y1="0.010789" x2="0.185601" y2="0.010789" />
      <line x1="0.185601" y1="0.009789" x2="0.185601" y2="0.010789" />
      <path d="M 0.185601,0.009789 A 0.009789105352524866,0.009789105352524866 0.0 1,1 0.185601,-0.009789" />
      <line x1="0.185601" y1="-0.010789" x2="0.185601" y2="-0.009789" />
      <circle cx="0.180651" cy="-0.00495" r="0.00125" />
      <circle cx="0.185601" cy="0.0" r="0.0053" />
      <circle cx="0.190551" cy="-0.00495" r="0.00125" />
      <circle cx="0.180651" cy="0.00495" r="0.00125" />
      <circle cx="0.190551" cy="0.00495" r="0.00125" />
      <line x1="0.287273" y1="0.012783" x2="0.259473" y2="0.012783" />
      <line x1="0.287273" y1="0.012783" x2="0.287239" y2="0.012817" />
      <line x1="0.259473" y1="0.012783" x2="0.259471" y2="0.012784" />
      <line x1="0.287239" y1="0.012817" x2="0.259438" y2="0.012817" />
      <path d="M 0.25944,0.012816 A 0.009789105352524866,1.5711473886037303e-05 -2.9294789267481595e-20 0,1 0.249667,0.0128" />
      <path d="M 0.249667,0.0128 A 0.009789105352524866,1.5711473886037303e-05 -2.9294789267481595e-20 0,1 0.259471,0.012784" />
      <line x1="0.25944" y1="0.012816" x2="0.259438" y2="0.012817" />
      <path d="M 0.255764,0.012792 A 0.0012500000000000011,2.0062448661338747e-06 -2.9294789267481595e-20 0,1 0.253264,0.012792" />
      <path d="M 0.253264,0.012792 A 0.0012500000000000011,2.0062448661338747e-06 -2.9294789267481595e-20 0,1 0.255764,0.012792" />
      <path d="M 0.264756,0.0128 A 0.0053,8.50647823240762e-06 -2.9294789267481595e-20 0,1 0.254156,0.0128" />
      <path d="M 0.254156,0.0128 A 0.0053,8.50647823240762e-06 -2.9294789267481595e-20 0,1 0.264756,0.0128" />
      <path d="M 0.265664,0.012792 A 0.0012500000000000011,2.0062448661338747e-06 -2.9294789267481595e-20 0,1 0.263164,0.012792" />
      <path d="M 0.263164,0.012792 A 0.0012500000000000011,2.0062448661338747e-06 -2.9294789267481595e-20 0,1 0.265664,0.012792" />
      <path d="M 0.255748,0.012808 A 0.0012500000000000011,2.0062448661338747e-06 -2.9294789267481595e-20 0,1 0.253248,0.012808" />
      <path d="M 0.253248,0.012808 A 0.0012500000000000011,2.0062448661338747e-06 -2.9294789267481595e-20 0,1 0.255748,0.012808" />
      <path d="M 0.265648,0.012808 A 0.0012500000000000011,2.0062448661338747e-06 -2.9294789267481595e-20 0,1 0.263148,0.012808" />
      <path d="M 0.263148,0.012808 A 0.0012500000000000011,2.0062448661338747e-06 -2.9294789267481595e-20 0,1 0.265648,0.012808" />
      <line x1="0.287273" y1="0.002783" x2="0.259473" y2="0.002783" />
      <line x1="0.287273" y1="0.002783" x2="0.287273" y2="0.012783" />
      <line x1="0.259473" y1="0.002783" x2="0.259473" y2="0.012783" />
      <line x1="0.287272" y1="-0.034916" x2="0.287272" y2="0.002783" />
      <line x1="0.287273" y1="-0.034917" x2="0.287272" y2="-0.034916" />
      <line x1="0.287273" y1="-0.044917" x2="0.287273" y2="-0.034917" />
      <line x1="0.259471" y1="0.002784" x2="0.259471" y2="0.012784" />
      <line x1="0.259473" y1="0.002783" x2="0.259471" y2="0.002784" />
      <line x1="0.259438" y1="0.012816" x2="0.259438" y2="0.012817" />
      <path d="M 0.249667,0.0028 A 0.009789105352524866,1.5711473886037303e-05 -2.9294789267481595e-20 0,1 0.259471,0.002784" />
      <line x1="0.277272" y1="-0.034916" x2="0.277272" y2="0.002783" />
      <line x1="0.277272" y1="-0.034916" x2="0.287272" y2="-0.034916" />
      <line x1="0.287273" y1="-0.034917" x2="0.259473" y2="-0.034917" />
      <line x1="0.259473" y1="-0.034917" x2="0.259471" y2="-0.034916" />
      <path d="M 0.25944,-0.034884 A 0.009789105352524866,1.5711473886037303e-05 -2.9294789267481595e-20 0,1 0.249667,-0.0349" />
      <path d="M 0.249667,-0.0349 A 0.009789105352524866,1.5711473886037303e-05 -2.9294789267481595e-20 0,1 0.259471,-0.034916" />
      <line x1="0.277241" y1="-0.034884" x2="0.277272" y2="-0.034916" />
      <line x1="0.25944" y1="-0.034884" x2="0.259438" y2="-0.034883" />
      <line x1="0.277241" y1="-0.034883" x2="0.259438" y2="-0.034883" />
      <path d="M 0.255764,-0.034908 A 0.0012500000000000011,2.0062448661338747e-06 -2.9294789267481595e-20 0,1 0.253264,-0.034908" />
      <path d="M 0.253264,-0.034908 A 0.0012500000000000011,2.0062448661338747e-06 -2.9294789267481595e-20 0,1 0.255764,-0.034908" />
      <path d="M 0.264756,-0.0349 A 0.0053,8.50647823240762e-06 -2.9294789267481595e-20 0,1 0.254156,-0.0349" />
      <path d="M 0.254156,-0.0349 A 0.0053,8.50647823240762e-06 -2.9294789267481595e-20 0,1 0.264756,-0.0349" />
      <path d="M 0.265664,-0.034908 A 0.0012500000000000011,2.0062448661338747e-06 -2.9294789267481595e-20 0,1 0.263164,-0.034908" />
      <path d="M 0.263164,-0.034908 A 0.0012500000000000011,2.0062448661338747e-06 -2.9294789267481595e-20 0,1 0.265664,-0.034908" />
      <path d="M 0.255748,-0.034892 A 0.0012500000000000011,2.0062448661338747e-06 -2.9294789267481595e-20 0,1 0.253248,-0.034892" />
      <path d="M 0.253248,-0.034892 A 0.0012500000000000011,2.0062448661338747e-06 -2.9294789267481595e-20 0,1 0.255748,-0.034892" />
      <path d="M 0.265648,-0.034892 A 0.0012500000000000011,2.0062448661338747e-06 -2.9294789267481595e-20 0,1 0.263148,-0.034892" />
      <path d="M 0.263148,-0.034892 A 0.0012500000000000011,2.0062448661338747e-06 -2.9294789267481595e-20 0,1 0.265648,-0.034892" />
      <line x1="0.287273" y1="-0.044917" x2="0.259473" y2="-0.044917" />
      <line x1="0.259473" y1="-0.044917" x2="0.259473" y2="-0.034917" />
      <path d="M 0.249667,-0.0449 A 0.009789105352524866,1.5711473886037303e-05 -2.9294789267481595e-20 0,1 0.259471,-0.044916" />
      <line x1="0.259473" y1="-0.044917" x2="0.259471" y2="-0.044916" />
      <line x1="0.259438" y1="-0.034884" x2="0.259438" y2="-0.034883" />
      <line x1="0.277241" y1="-0.034884" x2="0.277241" y2="0.002783" />
      <line x1="0.259471" y1="-0.044916" x2="0.259471" y2="-0.034916" />
      <line x1="0.249667" y1="0.0028" x2="0.249667" y2="0.0128" />
      <line x1="0.249667" y1="-0.0449" x2="0.249667" y2="-0.0349" />
    </g>
    <g fill="url(#hatch_coupler)" stroke="none" stroke-width="0" id="coupler_fill">
      <path d="M 0.065801,-0.010789 L 0.038,-0.010789 L 0.038,-0.009789 A 0.009789105352524866,0.009789105352524866 0.0 1,0 0.038,0.009789 L 0.038,0.010789 L 0.065801,0.010789 L 0.065801,0.009789 L 0.055801,0.009789 L 0.055801,-0.009789 L 0.065801,-0.009789 L 0.065801,-0.010789 M 0.0343,-0.00495 A 0.00125,0.00125 0.0 0,1 0.0318,-0.00495 A 0.00125,0.00125 0.0 0,1 0.0343,-0.00495 M 0.0433,0.0 A 0.0053,0.0053 0.0 0,1 0.0327,0.0 A 0.0053,0.0053 0.0 0,1 0.0433,-0.0 M 0.0442,-0.00495 A 0.0012500000000000011,0.0012500000000000011 0.0 0,1 0.0417,-0.00495 A 0.0012500000000000011,0.0012500000000000011 0.0 0,1 0.0442,-0.00495 M 0.0343,0.00495 A 0.00125,0.00125 0.0 0,1 0.0318,0.00495 A 0.00125,0.00125 0.0 0,1 0.0343,0.00495 M 0.0442,0.00495 A 0.0012500000000000011,0.0012500000000000011 0.0 0,1 0.0417,0.00495 A 0.0012500000000000011,0.0012500000000000011 0.0 0,1 0.0442,0.00495" />
      <path d="M 0.055801,-0.009789 L 0.065801,-0.009789 L 0.065801,0.009789 L 0.055801,0.009789 L 0.055801,-0.009789" />
      <path d="M 0.139601,-0.009789 L 0.139601,0.009789 L 0.129601,0.009789 L 0.129601,-0.009789 L 0.139601,-0.009789" />
      <path d="M 0.185601,-0.010789 L 0.213402,-0.010789 L 0.213402,0.010789 L 0.185601,0.010789 L 0.185601,0.009789 A 0.009789105352524866,0.009789105352524866 0.0 1,1 0.185601,-0.009789 L 0.185601,-0.010789 M 0.181901,-0.00495 A 0.0012500000000000011,0.0012500000000000011 0.0 0,0 0.179401,-0.00495 A 0.0012500000000000011,0.0012500000000000011 0.0 0,0 0.181901,-0.00495 M 0.190901,-0.0 A 0.0053,0.0053 0.0 0,0 0.180301,0.0 A 0.0053,0.0053 0.0 0,0 0.190901,0.0 M 0.191801,-0.00495 A 0.0012500000000000011,0.0012500000000000011 0.0 0,0 0.189301,-0.00495 A 0.0012500000000000011,0.0012500000000000011 0.0 0,0 0.191801,-0.00495 M 0.181901,0.00495 A 0.0012500000000000011,0.0012500000000000011 0.0 0,0 0.179401,0.00495 A 0.0012500000000000011,0.0012500000000000011 0.0 0,0 0.181901,0.00495 M 0.191801,0.00495 A 0.0012500000000000011,0.0012500000000000011 0.0 0,0 0.189301,0.00495 A 0.0012500000000000011,0.0012500000000000011 0.0 0,0 0.191801,0.00495" />
    </g>
    <g fill="none" stroke="rgb(220,60,40)" stroke-opacity="0.4" stroke-width="0.00015" id="coupler_hidden" stroke-dasharray="0.0018 0.00045">
      <line x1="0.287273" y1="0.002783" x2="0.287272" y2="0.002784" />
      <line x1="0.287272" y1="0.002783" x2="0.287272" y2="0.002784" />
      <line x1="0.287273" y1="-0.044917" x2="0.287239" y2="-0.044883" />
      <line x1="0.287239" y1="-0.044883" x2="0.287239" y2="-0.034883" />
      <line x1="0.287241" y1="-0.034884" x2="0.287239" y2="-0.034883" />
      <line x1="0.287241" y1="-0.034884" x2="0.287241" y2="0.002816" />
      <line x1="0.287241" y1="0.002816" x2="0.287239" y2="0.002817" />
      <line x1="0.287239" y1="0.002817" x2="0.287239" y2="0.012817" />
      <line x1="0.287239" y1="0.002817" x2="0.259438" y2="0.002817" />
      <line x1="0.259438" y1="0.002817" x2="0.259438" y2="0.012816" />
      <path d="M 0.25944,0.002816 A 0.009789105352524866,1.5711473886037303e-05 -2.9294789267481595e-20 0,1 0.249667,0.0028" />
      <line x1="0.25944" y1="0.002816" x2="0.25944" y2="0.012816" />
      <line x1="0.25944" y1="0.002816" x2="0.259438" y2="0.002817" />
      <path d="M 0.255764,0.002792 A 0.0012500000000000011,2.0062448661338747e-06 -2.9294789267481595e-20 0,1 0.253264,0.002792" />
      <path d="M 0.253264,0.002792 A 0.0012500000000000011,2.0062448661338747e-06 -2.9294789267481595e-20 0,1 0.255764,0.002792" />
      <path d="M 0.264756,0.0028 A 0.0053,8.50647823240762e-06 -2.9294789267481595e-20 0,1 0.254156,0.0028" />
      <path d="M 0.254156,0.0028 A 0.0053,8.50647823240762e-06 -2.9294789267481595e-20 0,1 0.264756,0.0028" />
      <path d="M 0.265664,0.002792 A 0.0012500000000000011,2.0062448661338747e-06 -2.9294789267481595e-20 0,1 0.263164,0.002792" />
      <path d="M 0.263164,0.002792 A 0.0012500000000000011,2.0062448661338747e-06 -2.9294789267481595e-20 0,1 0.265664,0.002792" />
      <path d="M 0.255748,0.002808 A 0.0012500000000000011,2.0062448661338747e-06 -2.9294789267481595e-20 0,1 0.253248,0.002808" />
      <path d="M 0.253248,0.002808 A 0.0012500000000000011,2.0062448661338747e-06 -2.9294789267481595e-20 0,1 0.255748,0.002808" />
      <path d="M 0.265648,0.002808 A 0.0012500000000000011,2.0062448661338747e-06 -2.9294789267481595e-20 0,1 0.263148,0.002808" />
      <path d="M 0.263148,0.002808 A 0.0012500000000000011,2.0062448661338747e-06 -2.9294789267481595e-20 0,1 0.265648,0.002808" />
      <line x1="0.287272" y1="0.002784" x2="0.277272" y2="0.002784" />
      <line x1="0.277272" y1="0.002784" x2="0.277241" y2="0.002816" />
      <line x1="0.287241" y1="0.002816" x2="0.277241" y2="0.002816" />
      <line x1="0.277272" y1="0.002783" x2="0.277272" y2="0.002784" />
      <line x1="0.277241" y1="-0.034884" x2="0.287241" y2="-0.034884" />
      <line x1="0.287239" y1="-0.034883" x2="0.277241" y2="-0.034883" />
      <line x1="0.287239" y1="-0.044883" x2="0.259438" y2="-0.044883" />
      <line x1="0.25944" y1="-0.044884" x2="0.259438" y2="-0.044883" />
      <path d="M 0.25944,-0.044884 A 0.009789105352524866,1.5711473886037303e-05 -2.9294789267481595e-20 0,1 0.249667,-0.0449" />
      <path d="M 0.255764,-0.044908 A 0.0012500000000000011,2.0062448661338747e-06 -2.9294789267481595e-20 0,1 0.253264,-0.044908" />
      <path d="M 0.253264,-0.044908 A 0.0012500000000000011,2.0062448661338747e-06 -2.9294789267481595e-20 0,1 0.255764,-0.044908" />
      <path d="M 0.265664,-0.044908 A 0.0012500000000000011,2.0062448661338747e-06 -2.9294789267481595e-20 0,1 0.263164,-0.044908" />
      <path d="M 0.263164,-0.044908 A 0.0012500000000000011,2.0062448661338747e-06 -2.9294789267481595e-20 0,1 0.265664,-0.044908" />
      <path d="M 0.255748,-0.044892 A 0.0012500000000000011,2.0062448661338747e-06 -2.9294789267481595e-20 0,1 0.253248,-0.044892" />
      <path d="M 0.253248,-0.044892 A 0.0012500000000000011,2.0062448661338747e-06 -2.9294789267481595e-20 0,1 0.255748,-0.044892" />
      <path d="M 0.264756,-0.0449 A 0.0053,8.50647823240762e-06 -2.9294789267481595e-20 0,1 0.254156,-0.0449" />
      <path d="M 0.254156,-0.0449 A 0.0053,8.50647823240762e-06 -2.9294789267481595e-20 0,1 0.264756,-0.0449" />
      <path d="M 0.265648,-0.044892 A 0.0012500000000000011,2.0062448661338747e-06 -2.9294789267481595e-20 0,1 0.263148,-0.044892" />
      <path d="M 0.263148,-0.044892 A 0.0012500000000000011,2.0062448661338747e-06 -2.9294789267481595e-20 0,1 0.265648,-0.044892" />
      <line x1="0.259438" y1="-0.044883" x2="0.259438" y2="-0.034884" />
      <line x1="0.277241" y1="0.002783" x2="0.277241" y2="0.002816" />
      <line x1="0.25944" y1="-0.044884" x2="0.25944" y2="-0.034884" />
      <line x1="0.255764" y1="0.002792" x2="0.255764" y2="0.012792" />
      <line x1="0.253264" y1="0.002792" x2="0.253264" y2="0.012792" />
      <line x1="0.264756" y1="0.0028" x2="0.264756" y2="0.0128" />
      <line x1="0.254156" y1="0.0028" x2="0.254156" y2="0.0128" />
      <line x1="0.265664" y1="0.002792" x2="0.265664" y2="0.012792" />
      <line x1="0.263164" y1="0.002792" x2="0.263164" y2="0.012792" />
      <line x1="0.255748" y1="0.002808" x2="0.255748" y2="0.012808" />
      <line x1="0.253248" y1="0.002808" x2="0.253248" y2="0.012808" />
      <line x1="0.265648" y1="0.002808" x2="0.265648" y2="0.012808" />
      <line x1="0.263148" y1="0.002808" x2="0.263148" y2="0.012808" />
      <line x1="0.255764" y1="-0.044908" x2="0.255764" y2="-0.034908" />
      <line x1="0.253264" y1="-0.044908" x2="0.253264" y2="-0.034908" />
      <line x1="0.264756" y1="-0.0449" x2="0.264756" y2="-0.0349" />
      <line x1="0.254156" y1="-0.0449" x2="0.254156" y2="-0.0349" />
      <line x1="0.265664" y1="-0.044908" x2="0.265664" y2="-0.034908" />
      <line x1="0.263164" y1="-0.044908" x2="0.263164" y2="-0.034908" />
      <line x1="0.255748" y1="-0.044892" x2="0.255748" y2="-0.034892" />
      <line x1="0.253248" y1="-0.044892" x2="0.253248" y2="-0.034892" />
      <line x1="0.265648" y1="-0.044892" x2="0.265648" y2="-0.034892" />
      <line x1="0.263148" y1="-0.044892" x2="0.263148" y2="-0.034892" />
    </g>
  </g>
  <text x="0.032900" y="-0.020875" text-anchor="middle" font-family="'Input Sans Narrow', 'DejaVu Sans', Arial, sans-serif" font-size="0.002500" font-weight="bold" fill="#333">A-A</text>
  <text x="0.032900" y="-0.017375" text-anchor="middle" font-family="'Input Sans Narrow', 'DejaVu Sans', Arial, sans-serif" font-size="0.001800" fill="#888">front_horn</text>
  <line x1="0.000000" y1="0.016000" x2="0.000000" y2="0.019000" stroke="#555" stroke-width="0.000140" stroke-opacity="0.5"/>
  <line x1="0.065801" y1="0.016000" x2="0.065801" y2="0.019000" stroke="#555" stroke-width="0.000140" stroke-opacity="0.5"/>
  <line x1="0.000000" y1="0.017400" x2="0.000000" y2="0.019000" stroke="#555" stroke-width="0.000200"/>
  <line x1="0.065801" y1="0.017400" x2="0.065801" y2="0.019000" stroke="#555" stroke-width="0.000200"/>
  <line x1="0.000000" y1="0.018200" x2="0.065801" y2="0.018200" stroke="#555" stroke-width="0.000200"/>
  <polygon points="0.000000,0.018200 0.001500,0.017600 0.001500,0.018800" fill="#555"/>
  <polygon points="0.065801,0.018200 0.064301,0.017600 0.064301,0.018800" fill="#555"/>
  <text x="0.032900" y="0.017000" text-anchor="middle" font-family="'Input Sans Narrow', 'DejaVu Sans', Arial, sans-serif" font-size="0.001600" fill="#555">65.8</text>
  <line x1="0.066601" y1="-0.015200" x2="0.069601" y2="-0.015200" stroke="#555" stroke-width="0.000140" stroke-opacity="0.5"/>
  <line x1="0.066601" y1="0.015200" x2="0.069601" y2="0.015200" stroke="#555" stroke-width="0.000140" stroke-opacity="0.5"/>
  <line x1="0.068001" y1="-0.015200" x2="0.069601" y2="-0.015200" stroke="#555" stroke-width="0.000200"/>
  <line x1="0.068001" y1="0.015200" x2="0.069601" y2="0.015200" stroke="#555" stroke-width="0.000200"/>
  <line x1="0.068801" y1="-0.015200" x2="0.068801" y2="0.015200" stroke="#555" stroke-width="0.000200"/>
  <polygon points="0.068801,-0.015200 0.068201,-0.013700 0.069401,-0.013700" fill="#555"/>
  <polygon points="0.068801,0.015200 0.068201,0.013700 0.069401,0.013700" fill="#555"/>
  <text x="0.070301" y="0.000000" text-anchor="middle" dominant-baseline="central" font-family="'Input Sans Narrow', 'DejaVu Sans', Arial, sans-serif" font-size="0.001600" fill="#555" transform="rotate(-90 0.070301 0.000000)">30.4</text>
  <text x="0.106701" y="-0.020875" text-anchor="middle" font-family="'Input Sans Narrow', 'DejaVu Sans', Arial, sans-serif" font-size="0.002500" font-weight="bold" fill="#333">B-B</text>
  <text x="0.106701" y="-0.017375" text-anchor="middle" font-family="'Input Sans Narrow', 'DejaVu Sans', Arial, sans-serif" font-size="0.001800" fill="#888">mid_body</text>
  <text x="0.180502" y="-0.020875" text-anchor="middle" font-family="'Input Sans Narrow', 'DejaVu Sans', Arial, sans-serif" font-size="0.002500" font-weight="bold" fill="#333">C-C</text>
  <text x="0.180502" y="-0.017375" text-anchor="middle" font-family="'Input Sans Narrow', 'DejaVu Sans', Arial, sans-serif" font-size="0.001800" fill="#888">rear_horn</text>
  <text x="0.254338" y="-0.020875" text-anchor="middle" font-family="'Input Sans Narrow', 'DejaVu Sans', Arial, sans-serif" font-size="0.002500" font-weight="bold" fill="#333">side_XZ</text>
  <line x1="0.221402" y1="0.051440" x2="0.221402" y2="0.054440" stroke="#555" stroke-width="0.000140" stroke-opacity="0.5"/>
  <line x1="0.287273" y1="0.051440" x2="0.287273" y2="0.054440" stroke="#555" stroke-width="0.000140" stroke-opacity="0.5"/>
  <line x1="0.221402" y1="0.052840" x2="0.221402" y2="0.054440" stroke="#555" stroke-width="0.000200"/>
  <line x1="0.287273" y1="0.052840" x2="0.287273" y2="0.054440" stroke="#555" stroke-width="0.000200"/>
  <line x1="0.221402" y1="0.053640" x2="0.287273" y2="0.053640" stroke="#555" stroke-width="0.000200"/>
  <polygon points="0.221402,0.053640 0.222902,0.053040 0.222902,0.054240" fill="#555"/>
  <polygon points="0.287273,0.053640 0.285773,0.053040 0.285773,0.054240" fill="#555"/>
  <text x="0.254338" y="0.052440" text-anchor="middle" font-family="'Input Sans Narrow', 'DejaVu Sans', Arial, sans-serif" font-size="0.001600" fill="#555">65.9</text>
  <line x1="0.288073" y1="-0.012817" x2="0.291073" y2="-0.012817" stroke="#555" stroke-width="0.000140" stroke-opacity="0.5"/>
  <line x1="0.288073" y1="0.050640" x2="0.291073" y2="0.050640" stroke="#555" stroke-width="0.000140" stroke-opacity="0.5"/>
  <line x1="0.289473" y1="-0.012817" x2="0.291073" y2="-0.012817" stroke="#555" stroke-width="0.000200"/>
  <line x1="0.289473" y1="0.050640" x2="0.291073" y2="0.050640" stroke="#555" stroke-width="0.000200"/>
  <line x1="0.290273" y1="-0.012817" x2="0.290273" y2="0.050640" stroke="#555" stroke-width="0.000200"/>
  <polygon points="0.290273,-0.012817 0.289673,-0.011317 0.290873,-0.011317" fill="#555"/>
  <polygon points="0.290273,0.050640 0.289673,0.049140 0.290873,0.049140" fill="#555"/>
  <text x="0.291773" y="0.018911" text-anchor="middle" dominant-baseline="central" font-family="'Input Sans Narrow', 'DejaVu Sans', Arial, sans-serif" font-size="0.001600" fill="#555" transform="rotate(-90 0.291773 0.018911)">63.5</text>
  <line x1="0.218402" y1="-0.002800" x2="0.290273" y2="-0.002800" stroke="#555" stroke-width="0.000250" stroke-dasharray="0.002500,0.000800,0.000500,0.000800"/>
  <text x="0.216902" y="-0.002200" text-anchor="end" font-family="'Input Sans Narrow', 'DejaVu Sans', Arial, sans-serif" font-size="0.002000" font-weight="bold" fill="#555">A</text>
  <text x="0.291773" y="-0.002200" text-anchor="start" font-family="'Input Sans Narrow', 'DejaVu Sans', Arial, sans-serif" font-size="0.002000" font-weight="bold" fill="#555">A</text>
  <line x1="0.218402" y1="0.016050" x2="0.290273" y2="0.016050" stroke="#555" stroke-width="0.000250" stroke-dasharray="0.002500,0.000800,0.000500,0.000800"/>
  <text x="0.216902" y="0.016650" text-anchor="end" font-family="'Input Sans Narrow', 'DejaVu Sans', Arial, sans-serif" font-size="0.002000" font-weight="bold" fill="#555">B</text>
  <text x="0.291773" y="0.016650" text-anchor="start" font-family="'Input Sans Narrow', 'DejaVu Sans', Arial, sans-serif" font-size="0.002000" font-weight="bold" fill="#555">B</text>
  <line x1="0.218402" y1="0.034900" x2="0.290273" y2="0.034900" stroke="#555" stroke-width="0.000250" stroke-dasharray="0.002500,0.000800,0.000500,0.000800"/>
  <text x="0.216902" y="0.035500" text-anchor="end" font-family="'Input Sans Narrow', 'DejaVu Sans', Arial, sans-serif" font-size="0.002000" font-weight="bold" fill="#555">C</text>
  <text x="0.291773" y="0.035500" text-anchor="start" font-family="'Input Sans Narrow', 'DejaVu Sans', Arial, sans-serif" font-size="0.002000" font-weight="bold" fill="#555">C</text>
  <text x="-0.001175" y="0.058815" font-family="'Input Sans Narrow', 'DejaVu Sans', Arial, sans-serif" font-size="0.003500" font-weight="bold" fill="#222">coupler_assembly</text>
  <line x1="-0.001175" y1="0.062815" x2="0.008825" y2="0.062815" stroke="#333" stroke-width="0.000350"/>
  <line x1="-0.001175" y1="0.061815" x2="-0.001175" y2="0.063815" stroke="#333" stroke-width="0.000250"/>
  <line x1="0.008825" y1="0.061815" x2="0.008825" y2="0.063815" stroke="#333" stroke-width="0.000250"/>
  <text x="0.010325" y="0.063515" font-family="'Input Sans Narrow', 'DejaVu Sans', Arial, sans-serif" font-size="0.001800" fill="#888">10 mm</text>
  <rect x="0.028825" y="0.056315" width="0.004000" height="0.002500" fill="url(#hatch_cradle)" stroke="rgb(50,120,190)" stroke-width="0.000300"/>
  <text x="0.034325" y="0.058315" font-family="'Input Sans Narrow', 'DejaVu Sans', Arial, sans-serif" font-size="0.001800" fill="rgb(50,120,190)">cradle</text>
  <rect x="0.028825" y="0.059815" width="0.004000" height="0.002500" fill="url(#hatch_servo)" stroke="rgb(60,60,60)" stroke-width="0.000300"/>
  <text x="0.034325" y="0.061815" font-family="'Input Sans Narrow', 'DejaVu Sans', Arial, sans-serif" font-size="0.001800" fill="rgb(60,60,60)">servo</text>
  <rect x="0.028825" y="0.063315" width="0.004000" height="0.002500" fill="url(#hatch_coupler)" stroke="rgb(220,60,40)" stroke-width="0.000300"/>
  <text x="0.034325" y="0.065315" font-family="'Input Sans Narrow', 'DejaVu Sans', Arial, sans-serif" font-size="0.001800" fill="rgb(220,60,40)">coupler</text>
</svg>