<?xml version='1.0' encoding='utf-8'?>
<svg width="280.75mm" height="85.59mm" viewBox="-0.003175 -0.030683 0.280751 0.085588" version="1.1" xmlns="http://www.w3.org/2000/svg">
  <defs>
    <pattern id="hatch_servo" width="0.0012" height="0.0012" patternUnits="userSpaceOnUse" patternTransform="rotate(45)">
      <line x1="0" y1="0" x2="0" y2="0.0012" stroke="rgb(60,60,60)" stroke-width="0.0001" stroke-opacity="0.6"/>
    </pattern>
    <pattern id="hatch_bracket" width="0.0012" height="0.0012" patternUnits="userSpaceOnUse" patternTransform="rotate(75)">
      <line x1="0" y1="0" x2="0" y2="0.0012" stroke="rgb(50,120,190)" stroke-width="0.0001" stroke-opacity="0.6"/>
    </pattern>
  </defs>
  <g transform="scale(1,-1)" stroke-linecap="round">
    <g fill="none" stroke="rgb(60,60,60)" stroke-width="0.00035" id="servo">
      <line x1="0.0618" y1="-0.0084" x2="0.0618" y2="0.0084" />
      <path d="M 0.0618,-0.0084 A 0.004,0.004 -90.0 0,1 0.0658,-0.0124" />
      <line x1="0.0658" y1="-0.0124" x2="0.1032" y2="-0.0124" />
      <path d="M 0.1072,-0.0084 A 0.004,0.004 -90.0 0,0 0.1032,-0.0124" />
      <line x1="0.1072" y1="-0.0084" x2="0.1072" y2="0.0084" />
      <path d="M 0.1072,0.0084 A 0.004,0.004 -90.0 0,1 0.1032,0.0124" />
      <line x1="0.0658" y1="0.0124" x2="0.1032" y2="0.0124" />
      <path d="M 0.0618,0.0084 A 0.004,0.004 -90.0 0,0 0.0658,0.0124" />
      <path d="M 0.1248,0.0124 A 0.004,0.004 180.0 0,1 0.1208,0.0084" />
      <line x1="0.1248" y1="0.0124" x2="0.1622" y2="0.0124" />
      <path d="M 0.1662,0.0084 A 0.004,0.004 0.0 0,1 0.1622,0.0124" />
      <line x1="0.1662" y1="0.0084" x2="0.1662" y2="-0.0084" />
      <path d="M 0.1622,-0.0124 A 0.004,0.004 0.0 0,1 0.1662,-0.0084" />
      <line x1="0.1248" y1="-0.0124" x2="0.1622" y2="-0.0124" />
      <path d="M 0.1208,-0.0084 A 0.004,0.004 180.0 0,1 0.1248,-0.0124" />
      <line x1="0.1208" y1="0.0084" x2="0.1208" y2="-0.0084" />
      <line x1="0.179801" y1="-0.032613" x2="0.179801" y2="-1.3e-05" />
      <line x1="0.1798" y1="1.3e-05" x2="0.1798" y2="-0.032587" />
      <line x1="0.179801" y1="-1.3e-05" x2="0.1798" y2="1.3e-05" />
      <path d="M 0.179801,-1.3e-05 A 0.004,6.39839249487319e-06 -7.261542142715284e-23 0,1 0.183801,-2e-05" />
      <line x1="0.183801" y1="-0.03262" x2="0.183801" y2="-2e-05" />
      <path d="M 0.182782,-0.03262 A 0.004,6.39839249487319e-06 -7.261542142715284e-23 0,1 0.183801,-0.03262" />
      <line x1="0.182782" y1="-0.03262" x2="0.182782" y2="-0.02472" />
      <path d="M 0.18012,-0.024716 A 0.004,6.39839249487319e-06 3.8228868042372425e-23 0,1 0.182782,-0.02472" />
      <line x1="0.18012" y1="-0.032616" x2="0.18012" y2="-0.024716" />
      <path d="M 0.179801,-0.032613 A 0.004,6.39839249487319e-06 -7.261542142715284e-23 0,1 0.18012,-0.032616" />
      <path d="M 0.225201,-0.032613 A 0.004,6.39839249487319e-06 180.0 0,0 0.222201,-0.03262" />
      <path d="M 0.182782,-0.032613 A 0.0021,3.3591560598084242e-06 3.8228868042372425e-23 0,1 0.18012,-0.032616" />
      <line x1="0.180119" y1="-0.032584" x2="0.180119" y2="-0.024716" />
      <path d="M 0.1798,1.3e-05 A 0.004,6.39839249487319e-06 180.0 0,0 0.1838,2e-05" />
      <line x1="0.183801" y1="-2e-05" x2="0.221201" y2="-2e-05" />
      <line x1="0.1838" y1="2e-05" x2="0.205001" y2="2e-05" />
      <path d="M 0.225201,-1.3e-05 A 0.004,6.39839249487319e-06 180.0 0,0 0.221201,-2e-05" />
      <path d="M 0.2252,1.3e-05 A 0.004,6.39839249487319e-06 -7.261542142715284e-23 0,1 0.225001,1.5e-05" />
      <line x1="0.225201" y1="-1.3e-05" x2="0.2252" y2="1.3e-05" />
      <path d="M 0.205001,-1.3e-05 A 0.002,3.199196247436595e-06 -7.261542142715284e-23 0,1 0.207001,-1.6e-05" />
      <line x1="0.207001" y1="-1.6e-05" x2="0.223001" y2="-1.6e-05" />
      <path d="M 0.225001,-1.3e-05 A 0.002,3.199196247436595e-06 180.0 0,0 0.223001,-1.6e-05" />
      <line x1="0.205001" y1="-1.3e-05" x2="0.205" y2="1.3e-05" />
      <line x1="0.221201" y1="-0.03262" x2="0.221201" y2="-2e-05" />
      <line x1="0.221201" y1="-0.03262" x2="0.222201" y2="-0.03262" />
      <line x1="0.222201" y1="-0.03472" x2="0.222201" y2="-0.03262" />
      <line x1="0.181801" y1="-0.03472" x2="0.222201" y2="-0.03472" />
      <line x1="0.181801" y1="-0.03472" x2="0.181801" y2="-0.03262" />
      <line x1="0.181801" y1="-0.03262" x2="0.183801" y2="-0.03262" />
      <path d="M 0.181801,-0.03262 A 0.0021,3.3591560598084242e-06 3.8228868042372425e-23 0,1 0.182782,-0.03262" />
      <line x1="0.225201" y1="-0.032613" x2="0.225201" y2="-1.3e-05" />
      <path d="M 0.222201,-0.03262 A 0.004,6.39839249487319e-06 180.0 0,0 0.221201,-0.03262" />
      <line x1="0.1818" y1="-0.03468" x2="0.1818" y2="-0.032613" />
      <path d="M 0.181801,-0.03468 A 0.0021,3.3591560598084242e-06 3.8228868042372425e-23 0,1 0.1818,-0.03468" />
      <path d="M 0.205001,0.001687 A 0.002,3.199196247436595e-06 -7.261542142715284e-23 0,1 0.207001,0.001684" />
      <line x1="0.207001" y1="0.001684" x2="0.223001" y2="0.001684" />
      <path d="M 0.225001,0.001687 A 0.002,3.199196247436595e-06 180.0 0,0 0.223001,0.001684" />
      <line x1="0.225001" y1="0.001687" x2="0.225" y2="0.001713" />
      <path d="M 0.225,0.001713 A 0.002,3.199196247436595e-06 -7.261542142715284e-23 0,1 0.223,0.001716" />
      <line x1="0.207" y1="0.001716" x2="0.210501" y2="0.001716" />
      <line x1="0.219501" y1="0.001716" x2="0.223" y2="0.001716" />
      <path d="M 0.205,0.001713 A 0.002,3.199196247436595e-06 180.0 0,0 0.207,0.001716" />
      <line x1="0.205001" y1="0.001687" x2="0.205" y2="0.001713" />
      <path d="M 0.210501,0.0017 A 0.004500000000000004,7.198191556732344e-06 3.8228868042372425e-23 1,1 0.219501,0.0017" />
      <path d="M 0.219501,0.0032 A 0.004500000000000004,7.198191556732344e-06 3.8228868042372425e-23 0,1 0.210501,0.0032" />
      <path d="M 0.210501,0.0032 A 0.004500000000000004,7.198191556732344e-06 3.8228868042372425e-23 1,1 0.219501,0.0032" />
      <line x1="0.205001" y1="-1.3e-05" x2="0.205001" y2="0.001687" />
      <line x1="0.207001" y1="-1.6e-05" x2="0.207001" y2="0.001684" />
      <line x1="0.223001" y1="-1.6e-05" x2="0.223001" y2="0.001684" />
      <line x1="0.225001" y1="-1.3e-05" x2="0.225001" y2="0.001687" />
      <line x1="0.1798" y1="-0.032587" x2="0.1798" y2="1.3e-05" />
      <line x1="0.225201" y1="-0.032613" x2="0.225201" y2="-1.3e-05" />
      <line x1="0.219501" y1="0.0017" x2="0.219501" y2="0.0032" />
      <line x1="0.210501" y1="0.0017" x2="0.210501" y2="0.0032" />
      <path d="M 0.241201,3.7e-05 A 0.004,6.398697318317885e-06 2.4800134760654265e-37 0,1 0.238801,3.1e-05" />
      <path d="M 0.259601,-0.032636 A 0.004,6.398697318317885e-06 2.4800134760654265e-37 0,1 0.263474,-0.032631" />
      <line x1="0.242801" y1="-0.032636" x2="0.259601" y2="-0.032636" />
      <path d="M 0.242801,-0.032636 A 0.004,6.398697318317885e-06 -180.0 0,0 0.238928,-0.032631" />
      <path d="M 0.261201,3.7e-05 A 0.004,6.398697318317885e-06 -180.0 0,0 0.263601,3.1e-05" />
      <line x1="0.238801" y1="3.1e-05" x2="0.238801" y2="-2.9e-05" />
      <line x1="0.263601" y1="3.1e-05" x2="0.263601" y2="-2.9e-05" />
      <path d="M 0.242801,-3.6e-05 A 0.004,6.398697318317885e-06 -180.0 0,0 0.238801,-2.9e-05" />
      <path d="M 0.259601,-3.6e-05 A 0.004,6.398697318317885e-06 2.4800134760654265e-37 0,1 0.263601,-2.9e-05" />
      <line x1="0.242801" y1="-3.6e-05" x2="0.259601" y2="-3.6e-05" />
      <path d="M 0.243201,-3.5e-05 A 0.002,3.1993486591589424e-06 -180.0 0,0 0.241201,-3.2e-05" />
      <line x1="0.243201" y1="-3.5e-05" x2="0.259201" y2="-3.5e-05" />
      <path d="M 0.259201,-3.5e-05 A 0.002,3.1993486591589424e-06 2.4800134760654265e-37 0,1 0.261201,-3.2e-05" />
      <line x1="0.238801" y1="-0.032629" x2="0.238801" y2="-2.9e-05" />
      <line x1="0.238801" y1="-0.032629" x2="0.238801" y2="-0.032631" />
      <line x1="0.238801" y1="-0.034731" x2="0.238801" y2="-0.032631" />
      <line x1="0.259601" y1="-0.034731" x2="0.259601" y2="-0.032636" />
      <line x1="0.263474" y1="-0.032631" x2="0.263601" y2="-0.032631" />
      <line x1="0.263601" y1="-0.034731" x2="0.263601" y2="-0.032631" />
      <line x1="0.259601" y1="-0.034731" x2="0.263601" y2="-0.034731" />
      <line x1="0.263601" y1="-2.9e-05" x2="0.263601" y2="-0.032629" />
      <line x1="0.259601" y1="-3.6e-05" x2="0.259601" y2="-0.032636" />
      <path d="M 0.263474,-0.032631 A 0.004,6.398697318317885e-06 2.4800134760654265e-37 0,1 0.263601,-0.032629" />
      <line x1="0.242801" y1="-0.032636" x2="0.242801" y2="-3.6e-05" />
      <path d="M 0.238928,-0.032631 A 0.004,6.398697318317885e-06 -180.0 0,0 0.238801,-0.032629" />
      <line x1="0.238801" y1="-0.032631" x2="0.238928" y2="-0.032631" />
      <line x1="0.242801" y1="-0.034731" x2="0.242801" y2="-0.032636" />
      <line x1="0.238801" y1="-0.034731" x2="0.242801" y2="-0.034731" />
      <path d="M 0.251201,-0.033924 A 0.003,4.799022988738413e-06 8.589600857720864e-38 0,1 0.254201,-0.033919" />
      <path d="M 0.248201,-0.033919 A 0.003,4.799022988738413e-06 8.589600857720864e-38 0,1 0.251201,-0.033924" />
      <line x1="0.263601" y1="-0.032629" x2="0.263601" y2="-0.032631" />
      <path d="M 0.243201,0.001697 A 0.002,3.1993486591589424e-06 2.4800134760654265e-37 0,1 0.241201,0.001694" />
      <line x1="0.241201" y1="-3.2e-05" x2="0.241201" y2="0.001668" />
      <line x1="0.241201" y1="0.001694" x2="0.241201" y2="0.001668" />
      <path d="M 0.243201,0.001665 A 0.002,3.1993486591589424e-06 -180.0 0,0 0.241201,0.001668" />
      <line x1="0.243201" y1="0.001665" x2="0.259201" y2="0.001665" />
      <line x1="0.261201" y1="-3.2e-05" x2="0.261201" y2="0.001668" />
      <path d="M 0.259201,0.001665 A 0.002,3.1993486591589424e-06 2.4800134760654265e-37 0,1 0.261201,0.001668" />
      <line x1="0.261201" y1="0.001694" x2="0.261201" y2="0.001668" />
      <path d="M 0.259201,0.001697 A 0.002,3.1993486591589424e-06 -180.0 0,0 0.261201,0.001694" />
      <line x1="0.243201" y1="0.001697" x2="0.246701" y2="0.001697" />
      <line x1="0.255701" y1="0.001697" x2="0.259201" y2="0.001697" />
      <path d="M 0.251201,0.001674 A 0.0045,7.198534483107619e-06 8.589600857720864e-38 0,1 0.255701,0.001681" />
      <path d="M 0.246701,0.001681 A 0.0045,7.198534483107619e-06 8.589600857720864e-38 0,1 0.251201,0.001674" />
      <path d="M 0.251201,0.003174 A 0.0045,7.198534483107619e-06 8.589600857720864e-38 0,1 0.255701,0.003181" />
      <path d="M 0.255701,0.003181 A 0.004500000000000004,7.198534483107626e-06 8.589600857720864e-38 0,1 0.246701,0.003181" />
      <path d="M 0.246701,0.003181 A 0.0045,7.198534483107619e-06 8.589600857720864e-38 0,1 0.251201,0.003174" />
      <line x1="0.243201" y1="-3.5e-05" x2="0.243201" y2="0.001665" />
      <line x1="0.259201" y1="-3.5e-05" x2="0.259201" y2="0.001665" />
      <line x1="0.254201" y1="-0.033919" x2="0.254201" y2="-0.032636" />
      <line x1="0.248201" y1="-0.033919" x2="0.248201" y2="-0.032636" />
      <line x1="0.255701" y1="0.001681" x2="0.255701" y2="0.003181" />
      <line x1="0.246701" y1="0.001681" x2="0.246701" y2="0.003181" />
    </g>
    <g fill="url(#hatch_servo)" stroke="none" stroke-width="0" id="servo_fill">
      <path d="M 0.0618,0.0084 L 0.0618,-0.0084 A 0.004,0.004 -90.0 0,1 0.0658,-0.0124 L 0.1032,-0.0124 A 0.004,0.004 -90.0 0,1 0.1072,-0.0084 L 0.1072,0.0084 A 0.004,0.004 -90.0 0,1 0.1032,0.0124 L 0.0658,0.0124 A 0.004,0.004 -90.0 0,1 0.0618,0.0084" />
      <path d="M 0.1248,0.0124 A 0.004,0.004 180.0 0,1 0.1208,0.0084 L 0.1208,-0.0084 A 0.004,0.004 180.0 0,1 0.1248,-0.0124 L 0.1622,-0.0124 A 0.004,0.004 0.0 0,1 0.1662,-0.0084 L 0.1662,0.0084 A 0.004,0.004 0.0 0,1 0.1622,0.0124 L 0.1248,0.0124" />
    </g>
    <g fill="none" stroke="rgb(60,60,60)" stroke-opacity="0.4" stroke-width="0.00015" id="servo_hidden" stroke-dasharray="0.0018 0.00045">
      <line x1="0.179801" y1="-0.032613" x2="0.1798" y2="-0.032587" />
      <path d="M 0.179801,-0.032586 A 0.004,6.39839249487319e-06 180.0 0,0 0.180119,-0.032584" />
      <path d="M 0.180119,-0.032584 A 0.0021,3.3591560598084242e-06 3.8228868042372425e-23 0,1 0.183194,-0.032587" />
      <line x1="0.183194" y1="-0.032587" x2="0.185006" y2="-0.032587" />
      <path d="M 0.185006,-0.032587 A 0.0021,3.3591560598084242e-06 3.8228868042372425e-23 0,1 0.186994,-0.032587" />
      <line x1="0.186994" y1="-0.032587" x2="0.205706" y2="-0.032587" />
      <path d="M 0.205706,-0.032587 A 0.0021,3.3591560598084242e-06 3.8228868042372425e-23 0,1 0.207694,-0.032587" />
      <line x1="0.207694" y1="-0.032587" x2="0.2222" y2="-0.032587" />
      <line x1="0.2222" y1="-0.032587" x2="0.2222" y2="-0.03258" />
      <path d="M 0.2252,-0.032587 A 0.004,6.39839249487319e-06 -7.261542142715284e-23 0,1 0.2222,-0.03258" />
      <line x1="0.225201" y1="-0.032613" x2="0.2252" y2="-0.032587" />
      <line x1="0.222201" y1="-0.03262" x2="0.222201" y2="-0.032613" />
      <line x1="0.207695" y1="-0.032613" x2="0.222201" y2="-0.032613" />
      <path d="M 0.207695,-0.032613 A 0.0021,3.3591560598084242e-06 3.8228868042372425e-23 0,1 0.205707,-0.032613" />
      <line x1="0.186995" y1="-0.032613" x2="0.205707" y2="-0.032613" />
      <path d="M 0.186995,-0.032613 A 0.0021,3.3591560598084242e-06 3.8228868042372425e-23 0,1 0.185007,-0.032613" />
      <line x1="0.183195" y1="-0.032613" x2="0.185007" y2="-0.032613" />
      <path d="M 0.183195,-0.032613 A 0.0021,3.3591560598084242e-06 3.8228868042372425e-23 0,1 0.182782,-0.032613" />
      <path d="M 0.218001,-0.0326 A 0.0030000000000000027,4.798794371154897e-06 3.8228868042372425e-23 0,1 0.212001,-0.0326" />
      <path d="M 0.212001,-0.0326 A 0.0030000000000000027,4.798794371154897e-06 3.8228868042372425e-23 1,1 0.218001,-0.0326" />
      <line x1="0.1838" y1="2e-05" x2="0.1838" y2="-0.03258" />
      <path d="M 0.182781,-0.03258 A 0.004,6.39839249487319e-06 180.0 0,0 0.1838,-0.03258" />
      <line x1="0.182781" y1="-0.03258" x2="0.182781" y2="-0.02468" />
      <path d="M 0.182781,-0.02468 A 0.004,6.39839249487319e-06 3.8228868042372425e-23 0,1 0.180119,-0.024684" />
      <line x1="0.180119" y1="-0.024716" x2="0.180119" y2="-0.024684" />
      <line x1="0.205001" y1="2e-05" x2="0.2212" y2="2e-05" />
      <path d="M 0.225001,1.5e-05 A 0.004,6.39839249487319e-06 -7.261542142715284e-23 0,1 0.2212,2e-05" />
      <line x1="0.225001" y1="-1.3e-05" x2="0.225" y2="1.3e-05" />
      <path d="M 0.225,1.3e-05 A 0.002,3.199196247436595e-06 -7.261542142715284e-23 0,1 0.223,1.6e-05" />
      <line x1="0.207" y1="1.6e-05" x2="0.223" y2="1.6e-05" />
      <path d="M 0.205001,1.3e-05 A 0.002,3.199196247436595e-06 180.0 0,0 0.207,1.6e-05" />
      <line x1="0.184101" y1="-0.034718" x2="0.184101" y2="-0.024718" />
      <path d="M 0.181801,-0.03472 A 0.0021,3.3591560598084242e-06 3.8228868042372425e-23 0,1 0.184101,-0.034718" />
      <line x1="0.181801" y1="-0.03472" x2="0.181801" y2="-0.03262" />
      <path d="M 0.182782,-0.02472 A 0.0021,3.3591560598084242e-06 3.8228868042372425e-23 0,1 0.184101,-0.024718" />
      <path d="M 0.184101,-0.024715 A 0.0021,3.3591560598084242e-06 180.0 0,0 0.188101,-0.024716" />
      <path d="M 0.188101,-0.024716 A 0.0021,3.3591560598084242e-06 180.0 0,0 0.184101,-0.024718" />
      <path d="M 0.184101,-0.024715 A 0.0021,3.3591560598084242e-06 3.8228868042372425e-23 0,1 0.18012,-0.024716" />
      <line x1="0.183195" y1="-0.034713" x2="0.183195" y2="-0.032613" />
      <path d="M 0.184101,-0.034715 A 0.0021,3.3591560598084242e-06 3.8228868042372425e-23 0,1 0.183195,-0.034713" />
      <line x1="0.184101" y1="-0.034715" x2="0.184101" y2="-0.024715" />
      <line x1="0.1841" y1="-0.034685" x2="0.1841" y2="-0.024685" />
      <path d="M 0.183194,-0.034687 A 0.0021,3.3591560598084242e-06 3.8228868042372425e-23 0,1 0.1841,-0.034685" />
      <line x1="0.183194" y1="-0.034687" x2="0.183194" y2="-0.032587" />
      <path d="M 0.180119,-0.024684 A 0.0021,3.3591560598084242e-06 3.8228868042372425e-23 0,1 0.1841,-0.024685" />
      <line x1="0.183194" y1="-0.034687" x2="0.185006" y2="-0.034687" />
      <line x1="0.185006" y1="-0.034687" x2="0.185006" y2="-0.032587" />
      <path d="M 0.1841,-0.034682 A 0.0021,3.3591560598084242e-06 180.0 0,0 0.1881,-0.034684" />
      <path d="M 0.1881,-0.034684 A 0.0021,3.3591560598084242e-06 180.0 0,0 0.186994,-0.034687" />
      <line x1="0.1841" y1="-0.034682" x2="0.1841" y2="-0.024682" />
      <path d="M 0.1841,-0.024685 A 0.0021,3.359156059808424e-06 -8.600007326385562e-18 0,1 0.1881,-0.024684" />
      <path d="M 0.1881,-0.024684 A 0.0021,3.359156059808424e-06 -8.600007326385562e-18 0,1 0.1841,-0.024682" />
      <path d="M 0.1841,-0.034685 A 0.0021,3.3591560598084242e-06 3.8228868042372425e-23 0,1 0.185006,-0.034687" />
      <line x1="0.186994" y1="-0.034687" x2="0.186994" y2="-0.032587" />
      <line x1="0.186994" y1="-0.034687" x2="0.205706" y2="-0.034687" />
      <line x1="0.205706" y1="-0.034687" x2="0.205706" y2="-0.032587" />
      <path d="M 0.207694,-0.034687 A 0.0021,3.3591560598084242e-06 3.8228868042372425e-23 0,1 0.2088,-0.034684" />
      <line x1="0.207694" y1="-0.034687" x2="0.207694" y2="-0.032587" />
      <path d="M 0.2088,-0.034684 A 0.0021000000000000046,3.359156059808432e-06 3.8228868042372425e-23 0,1 0.2046,-0.034684" />
      <path d="M 0.2046,-0.034684 A 0.0021,3.3591560598084242e-06 3.8228868042372425e-23 0,1 0.205706,-0.034687" />
      <path d="M 0.2088,-0.024684 A 0.0021000000000000046,3.359156059808432e-06 3.8228868042372425e-23 0,1 0.2046,-0.024684" />
      <path d="M 0.2046,-0.024684 A 0.0021000000000000046,3.359156059808432e-06 3.8228868042372425e-23 1,1 0.2088,-0.024684" />
      <line x1="0.207694" y1="-0.034687" x2="0.2222" y2="-0.034687" />
      <line x1="0.2222" y1="-0.034687" x2="0.2222" y2="-0.032587" />
      <line x1="0.2222" y1="-0.03468" x2="0.2222" y2="-0.03258" />
      <line x1="0.2222" y1="-0.034687" x2="0.2222" y2="-0.03468" />
      <line x1="0.2212" y1="2e-05" x2="0.2212" y2="-0.03258" />
      <line x1="0.2252" y1="1.3e-05" x2="0.2252" y2="-0.032587" />
      <path d="M 0.2222,-0.03258 A 0.004,6.39839249487319e-06 -7.261542142715284e-23 0,1 0.2212,-0.03258" />
      <line x1="0.222201" y1="-0.034713" x2="0.222201" y2="-0.032613" />
      <line x1="0.222201" y1="-0.03472" x2="0.222201" y2="-0.034713" />
      <line x1="0.207695" y1="-0.034713" x2="0.222201" y2="-0.034713" />
      <line x1="0.207695" y1="-0.034713" x2="0.207695" y2="-0.032613" />
      <path d="M 0.205707,-0.034713 A 0.0021,3.3591560598084242e-06 3.8228868042372425e-23 0,1 0.204601,-0.034716" />
      <path d="M 0.204601,-0.034716 A 0.0021,3.3591560598084242e-06 3.8228868042372425e-23 1,1 0.208801,-0.034716" />
      <line x1="0.205707" y1="-0.034713" x2="0.205707" y2="-0.032613" />
      <path d="M 0.208801,-0.034716 A 0.0021,3.3591560598084242e-06 3.8228868042372425e-23 0,1 0.207695,-0.034713" />
      <path d="M 0.208801,-0.024716 A 0.0021,3.3591560598084242e-06 3.8228868042372425e-23 0,1 0.204601,-0.024716" />
      <path d="M 0.204601,-0.024716 A 0.0021,3.3591560598084242e-06 3.8228868042372425e-23 1,1 0.208801,-0.024716" />
      <line x1="0.186995" y1="-0.034713" x2="0.205707" y2="-0.034713" />
      <line x1="0.186995" y1="-0.034713" x2="0.186995" y2="-0.032613" />
      <path d="M 0.186995,-0.034713 A 0.0021,3.359156059808424e-06 -180.0 0,0 0.188101,-0.034716" />
      <path d="M 0.188101,-0.034716 A 0.0021,3.359156059808424e-06 -180.0 0,0 0.184101,-0.034718" />
      <line x1="0.185007" y1="-0.034713" x2="0.185007" y2="-0.032613" />
      <path d="M 0.185007,-0.034713 A 0.0021,3.3591560598084242e-06 3.8228868042372425e-23 0,1 0.184101,-0.034715" />
      <line x1="0.183195" y1="-0.034713" x2="0.185007" y2="-0.034713" />
      <path d="M 0.218001,-0.0339 A 0.0030000000000000027,4.798794371154897e-06 3.8228868042372425e-23 0,1 0.212001,-0.0339" />
      <path d="M 0.212001,-0.0339 A 0.0030000000000000027,4.798794371154897e-06 3.8228868042372425e-23 1,1 0.218001,-0.0339" />
      <line x1="0.2212" y1="-0.03258" x2="0.2222" y2="-0.03258" />
      <line x1="0.1818" y1="-0.03468" x2="0.2222" y2="-0.03468" />
      <line x1="0.1818" y1="-0.03468" x2="0.1818" y2="-0.03258" />
      <line x1="0.1818" y1="-0.03258" x2="0.1838" y2="-0.03258" />
      <path d="M 0.182781,-0.03258 A 0.0021,3.3591560598084242e-06 3.8228868042372425e-23 0,1 0.1818,-0.03258" />
      <path d="M 0.1841,-0.024682 A 0.0021,3.3591560598084242e-06 3.8228868042372425e-23 0,1 0.182781,-0.02468" />
      <line x1="0.1818" y1="-0.032613" x2="0.1818" y2="-0.03258" />
      <path d="M 0.1841,-0.034682 A 0.0021,3.3591560598084242e-06 3.8228868042372425e-23 0,1 0.181801,-0.03468" />
      <line x1="0.210501" y1="0.001716" x2="0.219501" y2="0.001716" />
      <path d="M 0.219501,0.0017 A 0.004500000000000004,7.198191556732344e-06 3.8228868042372425e-23 0,1 0.210501,0.0017" />
      <line x1="0.1881" y1="-0.034684" x2="0.1881" y2="-0.024684" />
      <line x1="0.2088" y1="-0.034684" x2="0.2088" y2="-0.024684" />
      <line x1="0.2046" y1="-0.034684" x2="0.2046" y2="-0.024684" />
      <line x1="0.208801" y1="-0.034716" x2="0.208801" y2="-0.024716" />
      <line x1="0.204601" y1="-0.034716" x2="0.204601" y2="-0.024716" />
      <line x1="0.188101" y1="-0.034716" x2="0.188101" y2="-0.024716" />
      <line x1="0.218001" y1="-0.0339" x2="0.218001" y2="-0.0326" />
      <line x1="0.212001" y1="-0.0339" x2="0.212001" y2="-0.0326" />
      <line x1="0.225" y1="1.3e-05" x2="0.225" y2="0.001713" />
      <line x1="0.223" y1="1.6e-05" x2="0.223" y2="0.001716" />
      <line x1="0.207" y1="1.6e-05" x2="0.207" y2="0.001716" />
      <line x1="0.205" y1="1.3e-05" x2="0.205" y2="0.001713" />
      <line x1="0.242801" y1="-0.032563" x2="0.242801" y2="3.7e-05" />
      <line x1="0.242801" y1="-0.032563" x2="0.259601" y2="-0.032563" />
      <line x1="0.259601" y1="3.7e-05" x2="0.259601" y2="-0.032563" />
      <line x1="0.242801" y1="3.7e-05" x2="0.259601" y2="3.7e-05" />
      <path d="M 0.242801,3.7e-05 A 0.004,6.398697318317885e-06 2.4800134760654265e-37 0,1 0.241201,3.7e-05" />
      <line x1="0.238801" y1="-0.032569" x2="0.238801" y2="3.1e-05" />
      <path d="M 0.238933,-0.032568 A 0.004,6.398697318317885e-06 2.4800134760654265e-37 0,1 0.238801,-0.032569" />
      <line x1="0.238933" y1="-0.032568" x2="0.238933" y2="-0.024668" />
      <path d="M 0.241235,-0.024663 A 0.004,6.398697318317885e-06 8.589600857720864e-38 0,1 0.238933,-0.024668" />
      <line x1="0.241235" y1="-0.032563" x2="0.241235" y2="-0.024663" />
      <path d="M 0.242801,-0.032563 A 0.004,6.398697318317885e-06 2.4800134760654265e-37 0,1 0.241235,-0.032563" />
      <path d="M 0.259601,-0.032563 A 0.004,6.398697318317885e-06 -180.0 0,0 0.261167,-0.032563" />
      <path d="M 0.261167,-0.032563 A 0.0021,3.359316092116889e-06 8.589600857720864e-38 0,1 0.259351,-0.032567" />
      <path d="M 0.259351,-0.032567 A 0.0021,3.359316092116889e-06 8.589600857720864e-38 0,1 0.259601,-0.032568" />
      <line x1="0.259601" y1="-0.032568" x2="0.259601" y2="-0.032571" />
      <path d="M 0.259601,-0.032571 A 0.0021,3.359316092116889e-06 8.589600857720864e-38 0,1 0.259351,-0.032573" />
      <path d="M 0.259351,-0.032573 A 0.0021,3.359316092116889e-06 8.589600857720864e-38 0,1 0.259601,-0.032574" />
      <line x1="0.259601" y1="-0.032574" x2="0.259601" y2="-0.032604" />
      <path d="M 0.259601,-0.032604 A 0.0021,3.359316092116889e-06 8.589600857720864e-38 0,1 0.259351,-0.032606" />
      <path d="M 0.259351,-0.032606 A 0.0021,3.359316092116889e-06 8.589600857720864e-38 0,1 0.259601,-0.032608" />
      <line x1="0.259601" y1="-0.032608" x2="0.259601" y2="-0.032631" />
      <line x1="0.259601" y1="-0.032631" x2="0.263474" y2="-0.032631" />
      <line x1="0.238928" y1="-0.032631" x2="0.242801" y2="-0.032631" />
      <line x1="0.242801" y1="-0.032608" x2="0.242801" y2="-0.032631" />
      <path d="M 0.242801,-0.032608 A 0.0021,3.359316092116889e-06 8.589600857720864e-38 0,1 0.243051,-0.032606" />
      <path d="M 0.243051,-0.032606 A 0.0021,3.359316092116889e-06 8.589600857720864e-38 0,1 0.242801,-0.032604" />
      <line x1="0.242801" y1="-0.032574" x2="0.242801" y2="-0.032604" />
      <path d="M 0.242801,-0.032574 A 0.0021,3.359316092116889e-06 8.589600857720864e-38 0,1 0.243051,-0.032573" />
      <path d="M 0.243051,-0.032573 A 0.0021,3.359316092116889e-06 8.589600857720864e-38 0,1 0.242801,-0.032571" />
      <line x1="0.242801" y1="-0.032568" x2="0.242801" y2="-0.032571" />
      <path d="M 0.242801,-0.032568 A 0.0021,3.359316092116889e-06 8.589600857720864e-38 0,1 0.243051,-0.032567" />
      <path d="M 0.243051,-0.032567 A 0.0021,3.359316092116889e-06 8.589600857720864e-38 0,1 0.241235,-0.032563" />
      <path d="M 0.251201,-0.032624 A 0.003,4.799022988738413e-06 8.589600857720864e-38 0,1 0.254201,-0.032619" />
      <path d="M 0.254201,-0.032619 A 0.0030000000000000027,4.799022988738417e-06 8.589600857720864e-38 0,1 0.248201,-0.032619" />
      <path d="M 0.248201,-0.032619 A 0.003,4.799022988738413e-06 8.589600857720864e-38 0,1 0.251201,-0.032624" />
      <line x1="0.263601" y1="3.1e-05" x2="0.263601" y2="-0.032569" />
      <path d="M 0.263469,-0.032568 A 0.004,6.398697318317885e-06 -180.0 0,0 0.263601,-0.032569" />
      <line x1="0.263469" y1="-0.032568" x2="0.263469" y2="-0.024668" />
      <path d="M 0.263469,-0.024668 A 0.004,6.398697318317885e-06 8.589600857720864e-38 0,1 0.261167,-0.024663" />
      <line x1="0.261167" y1="-0.032563" x2="0.261167" y2="-0.024663" />
      <path d="M 0.259601,3.7e-05 A 0.004,6.398697318317885e-06 -180.0 0,0 0.261201,3.7e-05" />
      <path d="M 0.243201,-3e-06 A 0.002,3.1993486591589424e-06 2.4800134760654265e-37 0,1 0.241201,-6e-06" />
      <line x1="0.241201" y1="-6e-06" x2="0.241201" y2="-3.2e-05" />
      <line x1="0.261201" y1="-6e-06" x2="0.261201" y2="-3.2e-05" />
      <path d="M 0.259201,-3e-06 A 0.002,3.1993486591589424e-06 -180.0 0,0 0.261201,-6e-06" />
      <line x1="0.243201" y1="-3e-06" x2="0.259201" y2="-3e-06" />
      <line x1="0.238801" y1="-0.034666" x2="0.238801" y2="-0.034731" />
      <line x1="0.238801" y1="-0.034666" x2="0.238801" y2="-0.032566" />
      <line x1="0.238801" y1="-0.032566" x2="0.238801" y2="-0.032569" />
      <line x1="0.238801" y1="-0.032566" x2="0.23889" y2="-0.032566" />
      <path d="M 0.23889,-0.032566 A 0.0021,3.359316092116889e-06 8.589600857720864e-38 0,1 0.238851,-0.032567" />
      <path d="M 0.238851,-0.032567 A 0.0021,3.359316092116889e-06 8.589600857720864e-38 0,1 0.238933,-0.032568" />
      <line x1="0.240057" y1="-0.03467" x2="0.240057" y2="-0.02467" />
      <path d="M 0.23889,-0.034666 A 0.0021,3.359316092116889e-06 8.589600857720864e-38 0,1 0.238851,-0.034667" />
      <path d="M 0.238851,-0.034667 A 0.0021,3.359316092116889e-06 8.589600857720864e-38 0,1 0.240057,-0.03467" />
      <line x1="0.23889" y1="-0.034666" x2="0.23889" y2="-0.032566" />
      <path d="M 0.238933,-0.024668 A 0.0021,3.359316092116889e-06 8.589600857720864e-38 0,1 0.240057,-0.02467" />
      <path d="M 0.241846,-0.02467 A 0.0021,3.3593160921168894e-06 -180.0 0,0 0.243051,-0.024673" />
      <path d="M 0.243051,-0.024673 A 0.0021,3.3593160921168894e-06 -180.0 1,0 0.238851,-0.024673" />
      <path d="M 0.238851,-0.024673 A 0.0021,3.3593160921168894e-06 -180.0 0,0 0.240057,-0.02467" />
      <path d="M 0.241846,-0.02467 A 0.0021,3.359316092116889e-06 8.589600857720864e-38 0,1 0.243051,-0.024667" />
      <path d="M 0.243051,-0.024667 A 0.0021,3.359316092116889e-06 8.589600857720864e-38 0,1 0.241235,-0.024663" />
      <line x1="0.242801" y1="-0.034668" x2="0.242801" y2="-0.032568" />
      <path d="M 0.241846,-0.03467 A 0.0021,3.359316092116889e-06 8.589600857720864e-38 0,1 0.242801,-0.034668" />
      <line x1="0.241846" y1="-0.03467" x2="0.241846" y2="-0.02467" />
      <line x1="0.260557" y1="-0.03467" x2="0.260557" y2="-0.02467" />
      <path d="M 0.259601,-0.034668 A 0.0021,3.359316092116889e-06 8.589600857720864e-38 0,1 0.260557,-0.03467" />
      <line x1="0.259601" y1="-0.034668" x2="0.259601" y2="-0.032568" />
      <path d="M 0.261167,-0.024663 A 0.0021,3.359316092116889e-06 8.589600857720864e-38 0,1 0.259351,-0.024667" />
      <path d="M 0.259351,-0.024667 A 0.0021,3.359316092116889e-06 8.589600857720864e-38 0,1 0.260557,-0.02467" />
      <line x1="0.259601" y1="-0.034668" x2="0.259601" y2="-0.034671" />
      <line x1="0.259601" y1="-0.034671" x2="0.259601" y2="-0.032571" />
      <path d="M 0.262346,-0.03467 A 0.0021,3.3593160921168885e-06 180.0 0,0 0.263551,-0.034673" />
      <path d="M 0.263551,-0.034673 A 0.0021,3.3593160921168885e-06 180.0 0,0 0.259601,-0.034674" />
      <line x1="0.262346" y1="-0.03467" x2="0.262346" y2="-0.02467" />
      <path d="M 0.260557,-0.02467 A 0.0021,3.3593160921168894e-06 -1.6901373733892042e-18 0,1 0.259351,-0.024673" />
      <path d="M 0.259351,-0.024673 A 0.0021,3.3593160921168894e-06 -1.6901373733892042e-18 0,1 0.263551,-0.024673" />
      <path d="M 0.263551,-0.024673 A 0.0021,3.3593160921168894e-06 -1.6901373733892042e-18 0,1 0.262346,-0.02467" />
      <path d="M 0.260557,-0.03467 A 0.0021,3.359316092116889e-06 8.589600857720864e-38 0,1 0.259601,-0.034671" />
      <line x1="0.259601" y1="-0.034674" x2="0.259601" y2="-0.032574" />
      <line x1="0.259601" y1="-0.034674" x2="0.259601" y2="-0.034704" />
      <line x1="0.259601" y1="-0.034704" x2="0.259601" y2="-0.032604" />
      <path d="M 0.259601,-0.034708 A 0.0021,3.359316092116889e-06 8.589600857720864e-38 0,1 0.261451,-0.034709" />
      <line x1="0.259601" y1="-0.034708" x2="0.259601" y2="-0.032608" />
      <path d="M 0.261451,-0.034709 A 0.0021,3.359316092116889e-06 8.589600857720864e-38 0,1 0.263551,-0.034706" />
      <path d="M 0.263551,-0.034706 A 0.0021,3.359316092116889e-06 8.589600857720864e-38 0,1 0.259601,-0.034704" />
      <path d="M 0.261451,-0.024709 A 0.0021,3.359316092116889e-06 8.589600857720864e-38 0,1 0.263551,-0.024706" />
      <path d="M 0.263551,-0.024706 A 0.0021,3.359316092116889e-06 8.589600857720864e-38 0,1 0.259351,-0.024706" />
      <path d="M 0.259351,-0.024706 A 0.0021,3.359316092116889e-06 8.589600857720864e-38 0,1 0.261451,-0.024709" />
      <line x1="0.259601" y1="-0.034708" x2="0.259601" y2="-0.034731" />
      <line x1="0.259601" y1="-0.032636" x2="0.259601" y2="-0.032631" />
      <line x1="0.242801" y1="-0.032636" x2="0.242801" y2="-0.032631" />
      <line x1="0.242801" y1="-0.034708" x2="0.242801" y2="-0.034731" />
      <line x1="0.242801" y1="-0.034708" x2="0.242801" y2="-0.032608" />
      <path d="M 0.242801,-0.034704 A 0.0021,3.359316092116889e-06 8.589600857720864e-38 0,1 0.238851,-0.034706" />
      <path d="M 0.238851,-0.034706 A 0.0021,3.359316092116889e-06 8.589600857720864e-38 0,1 0.240951,-0.034709" />
      <line x1="0.242801" y1="-0.034704" x2="0.242801" y2="-0.032604" />
      <path d="M 0.240951,-0.034709 A 0.0021,3.359316092116889e-06 8.589600857720864e-38 0,1 0.242801,-0.034708" />
      <path d="M 0.240951,-0.024709 A 0.0021,3.359316092116889e-06 8.589600857720864e-38 0,1 0.243051,-0.024706" />
      <path d="M 0.243051,-0.024706 A 0.0021,3.359316092116889e-06 8.589600857720864e-38 0,1 0.238851,-0.024706" />
      <path d="M 0.238851,-0.024706 A 0.0021,3.359316092116889e-06 8.589600857720864e-38 0,1 0.240951,-0.024709" />
      <line x1="0.242801" y1="-0.034674" x2="0.242801" y2="-0.034704" />
      <line x1="0.242801" y1="-0.034674" x2="0.242801" y2="-0.032574" />
      <path d="M 0.242801,-0.034674 A 0.0021,3.359316092116889e-06 180.0 0,0 0.238851,-0.034673" />
      <path d="M 0.238851,-0.034673 A 0.0021,3.359316092116889e-06 180.0 0,0 0.240057,-0.03467" />
      <line x1="0.242801" y1="-0.034671" x2="0.242801" y2="-0.032571" />
      <path d="M 0.242801,-0.034671 A 0.0021,3.359316092116889e-06 8.589600857720864e-38 0,1 0.241846,-0.03467" />
      <line x1="0.242801" y1="-0.034668" x2="0.242801" y2="-0.034671" />
      <path d="M 0.254201,-0.033919 A 0.0030000000000000027,4.799022988738417e-06 8.589600857720864e-38 0,1 0.248201,-0.033919" />
      <line x1="0.263601" y1="-0.034666" x2="0.263601" y2="-0.034731" />
      <line x1="0.263601" y1="-0.034666" x2="0.263601" y2="-0.032566" />
      <line x1="0.263601" y1="-0.032566" x2="0.263601" y2="-0.032569" />
      <line x1="0.263513" y1="-0.032566" x2="0.263601" y2="-0.032566" />
      <path d="M 0.263469,-0.032568 A 0.0021,3.359316092116889e-06 8.589600857720864e-38 0,1 0.263551,-0.032567" />
      <path d="M 0.263551,-0.032567 A 0.0021,3.359316092116889e-06 8.589600857720864e-38 0,1 0.263513,-0.032566" />
      <path d="M 0.262346,-0.02467 A 0.0021,3.359316092116889e-06 8.589600857720864e-38 0,1 0.263469,-0.024668" />
      <line x1="0.263513" y1="-0.034666" x2="0.263513" y2="-0.032566" />
      <path d="M 0.262346,-0.03467 A 0.0021,3.359316092116889e-06 8.589600857720864e-38 0,1 0.263551,-0.034667" />
      <path d="M 0.263551,-0.034667 A 0.0021,3.359316092116889e-06 8.589600857720864e-38 0,1 0.263513,-0.034666" />
      <line x1="0.241201" y1="-6e-06" x2="0.241201" y2="0.001694" />
      <line x1="0.261201" y1="-6e-06" x2="0.261201" y2="0.001694" />
      <line x1="0.246701" y1="0.001697" x2="0.255701" y2="0.001697" />
      <line x1="0.238801" y1="-0.034666" x2="0.23889" y2="-0.034666" />
      <line x1="0.263513" y1="-0.034666" x2="0.263601" y2="-0.034666" />
      <path d="M 0.255701,0.001681 A 0.004500000000000004,7.198534483107626e-06 8.589600857720864e-38 0,1 0.246701,0.001681" />
      <line x1="0.238851" y1="-0.034667" x2="0.238851" y2="-0.032567" />
      <line x1="0.243051" y1="-0.032567" x2="0.243051" y2="-0.024667" />
      <line x1="0.259351" y1="-0.032567" x2="0.259351" y2="-0.024667" />
      <line x1="0.263551" y1="-0.034673" x2="0.263551" y2="-0.024673" />
      <line x1="0.259351" y1="-0.032573" x2="0.259351" y2="-0.024673" />
      <line x1="0.263551" y1="-0.034706" x2="0.263551" y2="-0.024706" />
      <line x1="0.259351" y1="-0.032606" x2="0.259351" y2="-0.024706" />
      <line x1="0.243051" y1="-0.032606" x2="0.243051" y2="-0.024706" />
      <line x1="0.238851" y1="-0.034706" x2="0.238851" y2="-0.024706" />
      <line x1="0.243051" y1="-0.032573" x2="0.243051" y2="-0.024673" />
      <line x1="0.238851" y1="-0.034673" x2="0.238851" y2="-0.024673" />
      <line x1="0.254201" y1="-0.032636" x2="0.254201" y2="-0.032619" />
      <line x1="0.248201" y1="-0.032636" x2="0.248201" y2="-0.032619" />
      <line x1="0.263551" y1="-0.034667" x2="0.263551" y2="-0.032567" />
      <line x1="0.243201" y1="-3e-06" x2="0.243201" y2="0.001697" />
      <line x1="0.259201" y1="-3e-06" x2="0.259201" y2="0.001697" />
    </g>
    <g fill="none" stroke="rgb(50,120,190)" stroke-width="0.00035" id="bracket">
      <line x1="0.0" y1="0.0152" x2="0.051" y2="0.0152" />
      <line x1="0.051" y1="0.0152" x2="0.051" y2="-0.0152" />
      <line x1="0.0" y1="-0.0152" x2="0.051" y2="-0.0152" />
      <line x1="0.0" y1="0.0152" x2="0.0" y2="-0.0152" />
      <line x1="0.0025" y1="0.0127" x2="0.0025" y2="-0.0127" />
      <line x1="0.0025" y1="-0.0127" x2="0.0485" y2="-0.0127" />
      <line x1="0.0485" y1="0.0127" x2="0.0485" y2="-0.0127" />
      <line x1="0.0025" y1="0.0127" x2="0.0485" y2="0.0127" />
      <line x1="0.059" y1="0.0152" x2="0.11" y2="0.0152" />
      <line x1="0.11" y1="0.0152" x2="0.11" y2="-0.0152" />
      <line x1="0.059" y1="-0.0152" x2="0.11" y2="-0.0152" />
      <line x1="0.059" y1="0.0152" x2="0.059" y2="-0.0152" />
      <line x1="0.0615" y1="0.0127" x2="0.0615" y2="-0.0127" />
      <line x1="0.0615" y1="-0.0127" x2="0.1075" y2="-0.0127" />
      <line x1="0.1075" y1="0.0127" x2="0.1075" y2="-0.0127" />
      <line x1="0.0615" y1="0.0127" x2="0.1075" y2="0.0127" />
      <line x1="0.118" y1="0.0152" x2="0.169" y2="0.0152" />
      <line x1="0.169" y1="0.0152" x2="0.169" y2="-0.0152" />
      <line x1="0.118" y1="-0.0152" x2="0.169" y2="-0.0152" />
      <line x1="0.118" y1="-0.005" x2="0.118" y2="-0.0152" />
      <line x1="0.118" y1="-0.005" x2="0.1218" y2="-0.005" />
      <line x1="0.1218" y1="0.005" x2="0.1218" y2="-0.005" />
      <line x1="0.118" y1="0.005" x2="0.1218" y2="0.005" />
      <line x1="0.118" y1="0.0152" x2="0.118" y2="0.005" />
      <path d="M 0.1251,-0.009356 A 0.0021,0.0021 0.0 1,1 0.1251,-0.011144" />
      <path d="M 0.1251,-0.011144 A 0.0021,0.0021 0.0 1,1 0.1251,-0.009356" />
      <circle cx="0.1477" cy="-0.01025" r="0.0021" />
      <path d="M 0.1251,0.011144 A 0.0021,0.0021 0.0 1,1 0.1251,0.009356" />
      <path d="M 0.1251,0.009356 A 0.0021,0.0021 0.0 1,1 0.1251,0.011144" />
      <circle cx="0.1477" cy="0.01025" r="0.0021" />
      <line x1="0.177001" y1="-0.022104" x2="0.177001" y2="0.021496" />
      <line x1="0.177001" y1="0.021496" x2="0.177" y2="0.021504" />
      <line x1="0.177" y1="-0.018899" x2="0.177001" y2="-0.018901" />
      <line x1="0.177" y1="-0.018899" x2="0.177" y2="-0.012899" />
      <line x1="0.177001" y1="-0.022104" x2="0.228001" y2="-0.022104" />
      <line x1="0.228001" y1="-0.022104" x2="0.228001" y2="0.021496" />
      <line x1="0.177001" y1="0.021496" x2="0.228001" y2="0.021496" />
      <line x1="0.177" y1="0.021504" x2="0.228" y2="0.021504" />
      <line x1="0.228001" y1="0.021496" x2="0.228" y2="0.021504" />
      <line x1="0.236001" y1="0.021508" x2="0.266401" y2="0.021508" />
      <line x1="0.236001" y1="-0.022107" x2="0.236001" y2="0.021493" />
      <line x1="0.236001" y1="0.021508" x2="0.236001" y2="0.021493" />
      <line x1="0.266401" y1="0.021508" x2="0.266401" y2="0.021493" />
      <line x1="0.236001" y1="0.021493" x2="0.266401" y2="0.021493" />
      <line x1="0.236001" y1="-0.022107" x2="0.266401" y2="-0.022107" />
      <line x1="0.266401" y1="-0.022107" x2="0.266401" y2="0.021493" />
    </g>
    <g fill="url(#hatch_bracket)" stroke="none" stroke-width="0" id="bracket_fill">
      <path d="M 0.051,0.0152 L 0.0,0.0152 L 0.0,-0.0152 L 0.051,-0.0152 L 0.051,0.0152 M 0.0025,-0.0127 L 0.0025,0.0127 L 0.0485,0.0127 L 0.0485,-0.0127 L 0.0025,-0.0127" />
      <path d="M 0.11,0.0152 L 0.059,0.0152 L 0.059,-0.0152 L 0.11,-0.0152 L 0.11,0.0152 M 0.0615,-0.0127 L 0.0615,0.0127 L 0.1075,0.0127 L 0.1075,-0.0127 L 0.0615,-0.0127" />
      <path d="M 0.169,0.0152 L 0.118,0.0152 L 0.118,0.005 L 0.1218,0.005 L 0.1218,-0.005 L 0.118,-0.005 L 0.118,-0.0152 L 0.169,-0.0152 L 0.169,0.0152 M 0.1251,-0.011144 A 0.0021,0.0021 0.0 1,0 0.1251,-0.009356 A 0.0021,0.0021 0.0 1,0 0.1251,-0.011144 M 0.1498,-0.01025 A 0.0021,0.0021 0.0 0,0 0.1456,-0.01025 A 0.0021,0.0021 0.0 0,0 0.1498,-0.01025 M 0.1251,0.009356 A 0.0021,0.0021 0.0 1,0 0.1251,0.011144 A 0.0021,0.0021 0.0 1,0 0.1251,0.009356 M 0.1498,0.01025 A 0.0021,0.0021 0.0 0,0 0.1456,0.01025 A 0.0021,0.0021 0.0 0,0 0.1498,0.01025" />
    </g>
    <g fill="none" stroke="rgb(50,120,190)" stroke-opacity="0.4" stroke-width="0.00015" id="bracket_hidden" stroke-dasharray="0.0018 0.00045">
      <line x1="0.177001" y1="-0.022104" x2="0.177" y2="-0.022096" />
      <line x1="0.177" y1="-0.022096" x2="0.177" y2="0.021504" />
      <line x1="0.177" y1="-0.012899" x2="0.177001" y2="-0.012901" />
      <line x1="0.177001" y1="-0.018901" x2="0.177001" y2="-0.012901" />
      <line x1="0.228001" y1="-0.022104" x2="0.228" y2="-0.022096" />
      <line x1="0.177" y1="-0.022096" x2="0.228" y2="-0.022096" />
      <path d="M 0.184101,-0.022103 A 0.0021,6.179756173426369e-07 6.703931004703628e-24 0,1 0.180101,-0.022103" />
      <path d="M 0.180101,-0.022103 A 0.0021,6.179756173426369e-07 6.703931004703628e-24 0,1 0.184101,-0.022103" />
      <path d="M 0.184101,-0.022103 A 0.0021,6.179756173426369e-07 5.535513223642168e-19 0,1 0.188101,-0.022103" />
      <path d="M 0.188101,-0.022103 A 0.0021,6.179756173426369e-07 5.535513223642168e-19 0,1 0.184101,-0.022103" />
      <path d="M 0.208801,-0.022103 A 0.0021,6.179756173426369e-07 6.703931004703628e-24 0,1 0.204601,-0.022103" />
      <path d="M 0.204601,-0.022103 A 0.0021,6.179756173426369e-07 6.703931004703628e-24 1,1 0.208801,-0.022103" />
      <path d="M 0.1841,-0.022097 A 0.0021,6.179756173426369e-07 6.703931004703628e-24 0,1 0.1801,-0.022097" />
      <path d="M 0.1801,-0.022097 A 0.0021,6.179756173426369e-07 6.703931004703628e-24 0,1 0.1841,-0.022097" />
      <path d="M 0.1841,-0.022097 A 0.0021,6.179756173426369e-07 5.535513223642168e-19 0,1 0.1881,-0.022097" />
      <path d="M 0.1881,-0.022097 A 0.0021,6.179756173426369e-07 5.535513223642168e-19 0,1 0.1841,-0.022097" />
      <path d="M 0.2088,-0.022097 A 0.0021000000000000046,6.179756173426383e-07 6.703931004703628e-24 0,1 0.2046,-0.022097" />
      <path d="M 0.2046,-0.022097 A 0.0021000000000000046,6.179756173426383e-07 6.703931004703628e-24 1,1 0.2088,-0.022097" />
      <line x1="0.228" y1="-0.022096" x2="0.228" y2="0.021504" />
      <line x1="0.177001" y1="-0.018899" x2="0.1808" y2="-0.018899" />
      <line x1="0.180801" y1="-0.018901" x2="0.1808" y2="-0.018899" />
      <line x1="0.177001" y1="-0.018901" x2="0.180801" y2="-0.018901" />
      <line x1="0.1808" y1="-0.018899" x2="0.1808" y2="-0.016199" />
      <line x1="0.1808" y1="-0.016199" x2="0.1795" y2="-0.016199" />
      <line x1="0.1795" y1="-0.016199" x2="0.1795" y2="-0.012899" />
      <line x1="0.177001" y1="-0.012899" x2="0.1795" y2="-0.012899" />
      <line x1="0.1795" y1="-0.012899" x2="0.179501" y2="-0.012901" />
      <line x1="0.177001" y1="-0.012901" x2="0.179501" y2="-0.012901" />
      <line x1="0.180801" y1="-0.018901" x2="0.180801" y2="-0.016201" />
      <line x1="0.180801" y1="-0.016201" x2="0.179501" y2="-0.016201" />
      <line x1="0.179501" y1="-0.016201" x2="0.179501" y2="-0.012901" />
      <line x1="0.184101" y1="-0.022103" x2="0.184101" y2="-0.016203" />
      <path d="M 0.184101,-0.016203 A 0.0021,6.179756173426369e-07 6.703931004703628e-24 0,1 0.180101,-0.016203" />
      <path d="M 0.180101,-0.016203 A 0.0021,6.179756173426369e-07 6.703931004703628e-24 0,1 0.184101,-0.016203" />
      <line x1="0.184101" y1="-0.022103" x2="0.184101" y2="-0.016203" />
      <path d="M 0.184101,-0.016203 A 0.0021,6.179756173426369e-07 5.535513223642168e-19 0,1 0.188101,-0.016203" />
      <path d="M 0.188101,-0.016203 A 0.0021,6.179756173426369e-07 5.535513223642168e-19 0,1 0.184101,-0.016203" />
      <path d="M 0.208801,-0.016203 A 0.0021,6.179756173426369e-07 6.703931004703628e-24 0,1 0.204601,-0.016203" />
      <path d="M 0.204601,-0.016203 A 0.0021,6.179756173426369e-07 6.703931004703628e-24 1,1 0.208801,-0.016203" />
      <line x1="0.1841" y1="-0.022097" x2="0.1841" y2="-0.016197" />
      <path d="M 0.1841,-0.016197 A 0.0021,6.179756173426369e-07 6.703931004703628e-24 0,1 0.1801,-0.016197" />
      <path d="M 0.1801,-0.016197 A 0.0021,6.179756173426369e-07 6.703931004703628e-24 0,1 0.1841,-0.016197" />
      <line x1="0.1841" y1="-0.022097" x2="0.1841" y2="-0.016197" />
      <path d="M 0.1841,-0.016197 A 0.0021,6.179756173426369e-07 5.535513223642168e-19 0,1 0.1881,-0.016197" />
      <path d="M 0.1881,-0.016197 A 0.0021,6.179756173426369e-07 5.535513223642168e-19 0,1 0.1841,-0.016197" />
      <path d="M 0.2088,-0.016197 A 0.0021000000000000046,6.179756173426383e-07 6.703931004703628e-24 0,1 0.2046,-0.016197" />
      <path d="M 0.2046,-0.016197 A 0.0021000000000000046,6.179756173426383e-07 6.703931004703628e-24 1,1 0.2088,-0.016197" />
      <line x1="0.180801" y1="-0.016201" x2="0.1808" y2="-0.016199" />
      <line x1="0.179501" y1="-0.016204" x2="0.179501" y2="-0.016201" />
      <line x1="0.1795" y1="-0.016199" x2="0.1795" y2="-0.016196" />
      <line x1="0.1795" y1="-0.016196" x2="0.2255" y2="-0.016196" />
      <line x1="0.225501" y1="-0.016204" x2="0.2255" y2="-0.016196" />
      <line x1="0.179501" y1="-0.016204" x2="0.225501" y2="-0.016204" />
      <line x1="0.179501" y1="0.019396" x2="0.1795" y2="0.019404" />
      <line x1="0.1795" y1="-0.016196" x2="0.1795" y2="0.019404" />
      <line x1="0.179501" y1="-0.016204" x2="0.179501" y2="0.019396" />
      <line x1="0.2255" y1="-0.016196" x2="0.2255" y2="0.019404" />
      <line x1="0.1795" y1="0.019404" x2="0.2255" y2="0.019404" />
      <line x1="0.225501" y1="-0.016204" x2="0.225501" y2="0.019396" />
      <line x1="0.225501" y1="0.019396" x2="0.2255" y2="0.019404" />
      <line x1="0.179501" y1="0.019396" x2="0.225501" y2="0.019396" />
      <line x1="0.180101" y1="-0.022103" x2="0.180101" y2="-0.016203" />
      <line x1="0.188101" y1="-0.022103" x2="0.188101" y2="-0.016203" />
      <line x1="0.204601" y1="-0.022103" x2="0.204601" y2="-0.016203" />
      <line x1="0.1801" y1="-0.022097" x2="0.1801" y2="-0.016197" />
      <line x1="0.1881" y1="-0.022097" x2="0.1881" y2="-0.016197" />
      <line x1="0.2046" y1="-0.022097" x2="0.2046" y2="-0.016197" />
      <line x1="0.236001" y1="-0.022092" x2="0.236001" y2="0.021508" />
      <line x1="0.236001" y1="-0.022092" x2="0.266401" y2="-0.022092" />
      <line x1="0.266401" y1="-0.022092" x2="0.266401" y2="0.021508" />
      <line x1="0.256201" y1="-0.018892" x2="0.246201" y2="-0.018892" />
      <line x1="0.256201" y1="-0.018892" x2="0.256201" y2="-0.012892" />
      <line x1="0.256201" y1="-0.012892" x2="0.246201" y2="-0.012892" />
      <line x1="0.246201" y1="-0.018892" x2="0.246201" y2="-0.012892" />
      <line x1="0.236001" y1="-0.022092" x2="0.236001" y2="-0.022107" />
      <line x1="0.266401" y1="-0.022092" x2="0.266401" y2="-0.022107" />
      <path d="M 0.241846,-0.022094 A 0.0021,6.179991518633233e-07 3.542946073833848e-37 0,1 0.243051,-0.022094" />
      <path d="M 0.243051,-0.022094 A 0.0021,6.179991518633233e-07 3.542946073833848e-37 0,1 0.238851,-0.022094" />
      <path d="M 0.238851,-0.022094 A 0.0021,6.179991518633233e-07 3.542946073833848e-37 0,1 0.240057,-0.022094" />
      <path d="M 0.240057,-0.022094 A 0.0021,6.179991518633233e-07 1.4413561223925317e-18 0,1 0.238851,-0.022095" />
      <path d="M 0.238851,-0.022095 A 0.0021,6.179991518633233e-07 1.4413561223925317e-18 0,1 0.243051,-0.022095" />
      <path d="M 0.243051,-0.022095 A 0.0021,6.179991518633233e-07 1.4413561223925317e-18 0,1 0.241846,-0.022094" />
      <path d="M 0.240951,-0.022102 A 0.0021,6.179991518633233e-07 3.542946073833848e-37 0,1 0.243051,-0.022101" />
      <path d="M 0.243051,-0.022101 A 0.0021,6.179991518633233e-07 3.542946073833848e-37 0,1 0.238851,-0.022101" />
      <path d="M 0.238851,-0.022101 A 0.0021,6.179991518633233e-07 3.542946073833848e-37 0,1 0.240951,-0.022102" />
      <path d="M 0.262346,-0.022094 A 0.0021,6.179991518633233e-07 3.542946073833848e-37 0,1 0.263551,-0.022094" />
      <path d="M 0.263551,-0.022094 A 0.0021,6.179991518633233e-07 3.542946073833848e-37 0,1 0.259351,-0.022094" />
      <path d="M 0.259351,-0.022094 A 0.0021,6.179991518633233e-07 3.542946073833848e-37 0,1 0.260557,-0.022094" />
      <path d="M 0.260557,-0.022094 A 0.0021,6.179991518633233e-07 1.4413561223925317e-18 0,1 0.259351,-0.022095" />
      <path d="M 0.259351,-0.022095 A 0.0021,6.179991518633233e-07 1.4413561223925317e-18 0,1 0.263551,-0.022095" />
      <path d="M 0.263551,-0.022095 A 0.0021,6.179991518633233e-07 1.4413561223925317e-18 0,1 0.262346,-0.022094" />
      <path d="M 0.261451,-0.022102 A 0.0021,6.179991518633233e-07 3.542946073833848e-37 0,1 0.263551,-0.022101" />
      <path d="M 0.263551,-0.022101 A 0.0021,6.179991518633233e-07 3.542946073833848e-37 0,1 0.259351,-0.022101" />
      <path d="M 0.259351,-0.022101 A 0.0021,6.179991518633233e-07 3.542946073833848e-37 0,1 0.261451,-0.022102" />
      <line x1="0.256201" y1="-0.018892" x2="0.256201" y2="-0.018894" />
      <line x1="0.246201" y1="-0.018894" x2="0.256201" y2="-0.018894" />
      <line x1="0.246201" y1="-0.018892" x2="0.246201" y2="-0.018894" />
      <line x1="0.256201" y1="-0.018894" x2="0.256201" y2="-0.016194" />
      <line x1="0.256201" y1="-0.016193" x2="0.256201" y2="-0.012893" />
      <line x1="0.256201" y1="-0.012893" x2="0.246201" y2="-0.012893" />
      <line x1="0.246201" y1="-0.018894" x2="0.246201" y2="-0.016194" />
      <line x1="0.246201" y1="-0.016193" x2="0.246201" y2="-0.012893" />
      <line x1="0.241846" y1="-0.022094" x2="0.241846" y2="-0.016194" />
      <path d="M 0.241846,-0.016194 A 0.0021,6.179991518633233e-07 3.542946073833848e-37 0,1 0.243051,-0.016194" />
      <path d="M 0.243051,-0.016194 A 0.0021,6.179991518633233e-07 3.542946073833848e-37 0,1 0.238851,-0.016194" />
      <path d="M 0.238851,-0.016194 A 0.0021,6.179991518633233e-07 3.542946073833848e-37 0,1 0.240057,-0.016194" />
      <line x1="0.240057" y1="-0.022094" x2="0.240057" y2="-0.016194" />
      <path d="M 0.240057,-0.016194 A 0.0021,6.179991518633233e-07 1.4413561223925317e-18 0,1 0.238851,-0.016195" />
      <path d="M 0.238851,-0.016195 A 0.0021,6.179991518633233e-07 1.4413561223925317e-18 0,1 0.243051,-0.016195" />
      <path d="M 0.243051,-0.016195 A 0.0021,6.179991518633233e-07 1.4413561223925317e-18 0,1 0.241846,-0.016194" />
      <path d="M 0.240951,-0.016202 A 0.0021,6.179991518633233e-07 3.542946073833848e-37 0,1 0.243051,-0.016201" />
      <path d="M 0.243051,-0.016201 A 0.0021,6.179991518633233e-07 3.542946073833848e-37 0,1 0.238851,-0.016201" />
      <path d="M 0.238851,-0.016201 A 0.0021,6.179991518633233e-07 3.542946073833848e-37 0,1 0.240951,-0.016202" />
      <line x1="0.262346" y1="-0.022094" x2="0.262346" y2="-0.016194" />
      <path d="M 0.262346,-0.016194 A 0.0021,6.179991518633233e-07 3.542946073833848e-37 0,1 0.263551,-0.016194" />
      <path d="M 0.263551,-0.016194 A 0.0021,6.179991518633233e-07 3.542946073833848e-37 0,1 0.259351,-0.016194" />
      <path d="M 0.259351,-0.016194 A 0.0021,6.179991518633233e-07 3.542946073833848e-37 0,1 0.260557,-0.016194" />
      <line x1="0.260557" y1="-0.022094" x2="0.260557" y2="-0.016194" />
      <path d="M 0.260557,-0.016194 A 0.0021,6.179991518633233e-07 1.4413561223925317e-18 0,1 0.259351,-0.016195" />
      <path d="M 0.259351,-0.016195 A 0.0021,6.179991518633233e-07 1.4413561223925317e-18 0,1 0.263551,-0.016195" />
      <path d="M 0.263551,-0.016195 A 0.0021,6.179991518633233e-07 1.4413561223925317e-18 0,1 0.262346,-0.016194" />
      <path d="M 0.261451,-0.016202 A 0.0021,6.179991518633233e-07 3.542946073833848e-37 0,1 0.263551,-0.016201" />
      <path d="M 0.263551,-0.016201 A 0.0021,6.179991518633233e-07 3.542946073833848e-37 0,1 0.259351,-0.016201" />
      <path d="M 0.259351,-0.016201 A 0.0021,6.179991518633233e-07 3.542946073833848e-37 0,1 0.261451,-0.016202" />
      <line x1="0.246201" y1="-0.016194" x2="0.256201" y2="-0.016194" />
      <line x1="0.238501" y1="-0.016193" x2="0.246201" y2="-0.016193" />
      <line x1="0.256201" y1="-0.016193" x2="0.263901" y2="-0.016193" />
      <line x1="0.263901" y1="-0.016193" x2="0.263901" y2="-0.016207" />
      <line x1="0.238501" y1="-0.016207" x2="0.263901" y2="-0.016207" />
      <line x1="0.238501" y1="-0.016193" x2="0.238501" y2="-0.016207" />
      <line x1="0.238501" y1="0.019407" x2="0.263901" y2="0.019407" />
      <line x1="0.263901" y1="-0.016193" x2="0.263901" y2="0.019407" />
      <line x1="0.238501" y1="-0.016193" x2="0.238501" y2="0.019407" />
      <line x1="0.263901" y1="-0.016207" x2="0.263901" y2="0.019393" />
      <line x1="0.263901" y1="0.019407" x2="0.263901" y2="0.019393" />
      <line x1="0.238501" y1="-0.016207" x2="0.238501" y2="0.019393" />
      <line x1="0.238501" y1="0.019393" x2="0.263901" y2="0.019393" />
      <line x1="0.238501" y1="0.019407" x2="0.238501" y2="0.019393" />
      <line x1="0.243051" y1="-0.022094" x2="0.243051" y2="-0.016194" />
      <line x1="0.238851" y1="-0.022094" x2="0.238851" y2="-0.016194" />
      <line x1="0.243051" y1="-0.022095" x2="0.243051" y2="-0.016195" />
      <line x1="0.238851" y1="-0.022095" x2="0.238851" y2="-0.016195" />
      <line x1="0.243051" y1="-0.022101" x2="0.243051" y2="-0.016201" />
      <line x1="0.238851" y1="-0.022101" x2="0.238851" y2="-0.016201" />
      <line x1="0.263551" y1="-0.022094" x2="0.263551" y2="-0.016194" />
      <line x1="0.259351" y1="-0.022094" x2="0.259351" y2="-0.016194" />
      <line x1="0.263551" y1="-0.022095" x2="0.263551" y2="-0.016195" />
      <line x1="0.259351" y1="-0.022095" x2="0.259351" y2="-0.016195" />
      <line x1="0.263551" y1="-0.022101" x2="0.263551" y2="-0.016201" />
      <line x1="0.259351" y1="-0.022101" x2="0.259351" y2="-0.016201" />
    </g>
  </g>
  <text x="0.025500" y="-0.027183" text-anchor="middle" font-family="'Input Sans Narrow', 'DejaVu Sans', Arial, sans-serif" font-size="0.002500" font-weight="bold" fill="#333">A-A</text>
  <text x="0.025500" y="-0.023683" text-anchor="middle" font-family="'Input Sans Narrow', 'DejaVu Sans', Arial, sans-serif" font-size="0.001800" fill="#888">top_shaft</text>
  <line x1="0.000000" y1="0.016000" x2="0.000000" y2="0.019000" stroke="#555" stroke-width="0.000140" stroke-opacity="0.5"/>
  <line x1="0.051000" y1="0.016000" x2="0.051000" y2="0.019000" stroke="#555" stroke-width="0.000140" stroke-opacity="0.5"/>
  <line x1="0.000000" y1="0.017400" x2="0.000000" y2="0.019000" stroke="#555" stroke-width="0.000200"/>
  <line x1="0.051000" y1="0.017400" x2="0.051000" y2="0.019000" stroke="#555" stroke-width="0.000200"/>
  <line x1="0.000000" y1="0.018200" x2="0.051000" y2="0.018200" stroke="#555" stroke-width="0.000200"/>
  <polygon points="0.000000,0.018200 0.001500,0.017600 0.001500,0.018800" fill="#555"/>
  <polygon points="0.051000,0.018200 0.049500,0.017600 0.049500,0.018800" fill="#555"/>
  <text x="0.025500" y="0.017000" text-anchor="middle" font-family="'Input Sans Narrow', 'DejaVu Sans', Arial, sans-serif" font-size="0.001600" fill="#555">51.0</text>
  <line x1="0.051800" y1="-0.015200" x2="0.054800" y2="-0.015200" stroke="#555" stroke-width="0.000140" stroke-opacity="0.5"/>
  <line x1="0.051800" y1="0.015200" x2="0.054800" y2="0.015200" stroke="#555" stroke-width="0.000140" stroke-opacity="0.5"/>
  <line x1="0.053200" y1="-0.015200" x2="0.054800" y2="-0.015200" stroke="#555" stroke-width="0.000200"/>
  <line x1="0.053200" y1="0.015200" x2="0.054800" y2="0.015200" stroke="#555" stroke-width="0.000200"/>
  <line x1="0.054000" y1="-0.015200" x2="0.054000" y2="0.015200" stroke="#555" stroke-width="0.000200"/>
  <polygon points="0.054000,-0.015200 0.053400,-0.013700 0.054600,-0.013700" fill="#555"/>
  <polygon points="0.054000,0.015200 0.053400,0.013700 0.054600,0.013700" fill="#555"/>
  <text x="0.055500" y="-0.000000" text-anchor="middle" dominant-baseline="central" font-family="'Input Sans Narrow', 'DejaVu Sans', Arial, sans-serif" font-size="0.001600" fill="#555" transform="rotate(-90 0.055500 -0.000000)">30.4</text>
  <text x="0.084500" y="-0.027183" text-anchor="middle" font-family="'Input Sans Narrow', 'DejaVu Sans', Arial, sans-serif" font-size="0.002500" font-weight="bold" fill="#333">B-B</text>
  <text x="0.084500" y="-0.023683" text-anchor="middle" font-family="'Input Sans Narrow', 'DejaVu Sans', Arial, sans-serif" font-size="0.001800" fill="#888">mid_body</text>
  <text x="0.143500" y="-0.027183" text-anchor="middle" font-family="'Input Sans Narrow', 'DejaVu Sans', Arial, sans-serif" font-size="0.002500" font-weight="bold" fill="#333">C-C</text>
  <text x="0.143500" y="-0.023683" text-anchor="middle" font-family="'Input Sans Narrow', 'DejaVu Sans', Arial, sans-serif" font-size="0.001800" fill="#888">ears</text>
  <text x="0.202501" y="-0.027183" text-anchor="middle" font-family="'Input Sans Narrow', 'DejaVu Sans', Arial, sans-serif" font-size="0.002500" font-weight="bold" fill="#333">side_XZ</text>
  <line x1="0.177000" y1="0.035520" x2="0.177000" y2="0.038520" stroke="#555" stroke-width="0.000140" stroke-opacity="0.5"/>
  <line x1="0.228001" y1="0.035520" x2="0.228001" y2="0.038520" stroke="#555" stroke-width="0.000140" stroke-opacity="0.5"/>
  <line x1="0.177000" y1="0.036920" x2="0.177000" y2="0.038520" stroke="#555" stroke-width="0.000200"/>
  <line x1="0.228001" y1="0.036920" x2="0.228001" y2="0.038520" stroke="#555" stroke-width="0.000200"/>
  <line x1="0.177000" y1="0.037720" x2="0.228001" y2="0.037720" stroke="#555" stroke-width="0.000200"/>
  <polygon points="0.177000,0.037720 0.178500,0.037120 0.178500,0.038320" fill="#555"/>
  <polygon points="0.228001,0.037720 0.226501,0.037120 0.226501,0.038320" fill="#555"/>
  <text x="0.202501" y="0.036520" text-anchor="middle" font-family="'Input Sans Narrow', 'DejaVu Sans', Arial, sans-serif" font-size="0.001600" fill="#555">51.0</text>
  <line x1="0.228801" y1="-0.021504" x2="0.231801" y2="-0.021504" stroke="#555" stroke-width="0.000140" stroke-opacity="0.5"/>
  <line x1="0.228801" y1="0.034720" x2="0.231801" y2="0.034720" stroke="#555" stroke-width="0.000140" stroke-opacity="0.5"/>
  <line x1="0.230201" y1="-0.021504" x2="0.231801" y2="-0.021504" stroke="#555" stroke-width="0.000200"/>
  <line x1="0.230201" y1="0.034720" x2="0.231801" y2="0.034720" stroke="#555" stroke-width="0.000200"/>
  <line x1="0.231001" y1="-0.021504" x2="0.231001" y2="0.034720" stroke="#555" stroke-width="0.000200"/>
  <polygon points="0.231001,-0.021504 0.230401,-0.020004 0.231601,-0.020004" fill="#555"/>
  <polygon points="0.231001,0.034720 0.230401,0.033220 0.231601,0.033220" fill="#555"/>
  <text x="0.232501" y="0.006608" text-anchor="middle" dominant-baseline="central" font-family="'Input Sans Narrow', 'DejaVu Sans', Arial, sans-serif" font-size="0.001600" fill="#555" transform="rotate(-90 0.232501 0.006608)">56.2</text>
  <line x1="0.174000" y1="-0.015900" x2="0.231001" y2="-0.015900" stroke="#555" stroke-width="0.000250" stroke-dasharray="0.002500,0.000800,0.000500,0.000800"/>
  <text x="0.172500" y="-0.015300" text-anchor="end" font-family="'Input Sans Narrow', 'DejaVu Sans', Arial, sans-serif" font-size="0.002000" font-weight="bold" fill="#555">A</text>
  <text x="0.232501" y="-0.015300" text-anchor="start" font-family="'Input Sans Narrow', 'DejaVu Sans', Arial, sans-serif" font-size="0.002000" font-weight="bold" fill="#555">A</text>
  <line x1="0.174000" y1="-0.000000" x2="0.231001" y2="-0.000000" stroke="#555" stroke-width="0.000250" stroke-dasharray="0.002500,0.000800,0.000500,0.000800"/>
  <text x="0.172500" y="0.000600" text-anchor="end" font-family="'Input Sans Narrow', 'DejaVu Sans', Arial, sans-serif" font-size="0.002000" font-weight="bold" fill="#555">B</text>
  <text x="0.232501" y="0.000600" text-anchor="start" font-family="'Input Sans Narrow', 'DejaVu Sans', Arial, sans-serif" font-size="0.002000" font-weight="bold" fill="#555">B</text>
  <line x1="0.174000" y1="0.017500" x2="0.231001" y2="0.017500" stroke="#555" stroke-width="0.000250" stroke-dasharray="0.002500,0.000800,0.000500,0.000800"/>
  <text x="0.172500" y="0.018100" text-anchor="end" font-family="'Input Sans Narrow', 'DejaVu Sans', Arial, sans-serif" font-size="0.002000" font-weight="bold" fill="#555">C</text>
  <text x="0.232501" y="0.018100" text-anchor="start" font-family="'Input Sans Narrow', 'DejaVu Sans', Arial, sans-serif" font-size="0.002000" font-weight="bold" fill="#555">C</text>
  <text x="0.251201" y="-0.027183" text-anchor="middle" font-family="'Input Sans Narrow', 'DejaVu Sans', Arial, sans-serif" font-size="0.002500" font-weight="bold" fill="#333">side_YZ</text>
  <line x1="0.236001" y1="0.035531" x2="0.236001" y2="0.038531" stroke="#555" stroke-width="0.000140" stroke-opacity="0.5"/>
  <line x1="0.266401" y1="0.035531" x2="0.266401" y2="0.038531" stroke="#555" stroke-width="0.000140" stroke-opacity="0.5"/>
  <line x1="0.236001" y1="0.036931" x2="0.236001" y2="0.038531" stroke="#555" stroke-width="0.000200"/>
  <line x1="0.266401" y1="0.036931" x2="0.266401" y2="0.038531" stroke="#555" stroke-width="0.000200"/>
  <line x1="0.236001" y1="0.037731" x2="0.266401" y2="0.037731" stroke="#555" stroke-width="0.000200"/>
  <polygon points="0.236001,0.037731 0.237501,0.037131 0.237501,0.038331" fill="#555"/>
  <polygon points="0.266401,0.037731 0.264901,0.037131 0.264901,0.038331" fill="#555"/>
  <text x="0.251201" y="0.036531" text-anchor="middle" font-family="'Input Sans Narrow', 'DejaVu Sans', Arial, sans-serif" font-size="0.001600" fill="#555">30.4</text>
  <line x1="0.267201" y1="-0.021508" x2="0.270201" y2="-0.021508" stroke="#555" stroke-width="0.000140" stroke-opacity="0.5"/>
  <line x1="0.267201" y1="0.034731" x2="0.270201" y2="0.034731" stroke="#555" stroke-width="0.000140" stroke-opacity="0.5"/>
  <line x1="0.268601" y1="-0.021508" x2="0.270201" y2="-0.021508" stroke="#555" stroke-width="0.000200"/>
  <line x1="0.268601" y1="0.034731" x2="0.270201" y2="0.034731" stroke="#555" stroke-width="0.000200"/>
  <line x1="0.269401" y1="-0.021508" x2="0.269401" y2="0.034731" stroke="#555" stroke-width="0.000200"/>
  <polygon points="0.269401,-0.021508 0.268801,-0.020008 0.270001,-0.020008" fill="#555"/>
  <polygon points="0.269401,0.034731 0.268801,0.033231 0.270001,0.033231" fill="#555"/>
  <text x="0.270901" y="0.006612" text-anchor="middle" dominant-baseline="central" font-family="'Input Sans Narrow', 'DejaVu Sans', Arial, sans-serif" font-size="0.001600" fill="#555" transform="rotate(-90 0.270901 0.006612)">56.2</text>
  <line x1="0.233001" y1="-0.015900" x2="0.269401" y2="-0.015900" stroke="#555" stroke-width="0.000250" stroke-dasharray="0.002500,0.000800,0.000500,0.000800"/>
  <text x="0.231501" y="-0.015300" text-anchor="end" font-family="'Input Sans Narrow', 'DejaVu Sans', Arial, sans-serif" font-size="0.002000" font-weight="bold" fill="#555">A</text>
  <text x="0.270901" y="-0.015300" text-anchor="start" font-family="'Input Sans Narrow', 'DejaVu Sans', Arial, sans-serif" font-size="0.002000" font-weight="bold" fill="#555">A</text>
  <line x1="0.233001" y1="-0.000000" x2="0.269401" y2="-0.000000" stroke="#555" stroke-width="0.000250" stroke-dasharray="0.002500,0.000800,0.000500,0.000800"/>
  <text x="0.231501" y="0.000600" text-anchor="end" font-family="'Input Sans Narrow', 'DejaVu Sans', Arial, sans-serif" font-size="0.002000" font-weight="bold" fill="#555">B</text>
  <text x="0.270901" y="0.000600" text-anchor="start" font-family="'Input Sans Narrow', 'DejaVu Sans', Arial, sans-serif" font-size="0.002000" font-weight="bold" fill="#555">B</text>
  <line x1="0.233001" y1="0.017500" x2="0.269401" y2="0.017500" stroke="#555" stroke-width="0.000250" stroke-dasharray="0.002500,0.000800,0.000500,0.000800"/>
  <text x="0.231501" y="0.018100" text-anchor="end" font-family="'Input Sans Narrow', 'DejaVu Sans', Arial, sans-serif" font-size="0.002000" font-weight="bold" fill="#555">C</text>
  <text x="0.270901" y="0.018100" text-anchor="start" font-family="'Input Sans Narrow', 'DejaVu Sans', Arial, sans-serif" font-size="0.002000" font-weight="bold" fill="#555">C</text>
  <text x="-0.001175" y="0.042905" font-family="'Input Sans Narrow', 'DejaVu Sans', Arial, sans-serif" font-size="0.003500" font-weight="bold" fill="#222">pocket_bracket</text>
  <line x1="-0.001175" y1="0.046905" x2="0.008825" y2="0.046905" stroke="#333" stroke-width="0.000350"/>
  <line x1="-0.001175" y1="0.045905" x2="-0.001175" y2="0.047905" stroke="#333" stroke-width="0.000250"/>
  <line x1="0.008825" y1="0.045905" x2="0.008825" y2="0.047905" stroke="#333" stroke-width="0.000250"/>
  <text x="0.010325" y="0.047605" font-family="'Input Sans Narrow', 'DejaVu Sans', Arial, sans-serif" font-size="0.001800" fill="#888">10 mm</text>
  <rect x="0.028825" y="0.040405" width="0.004000" height="0.002500" fill="url(#hatch_servo)" stroke="rgb(60,60,60)" stroke-width="0.000300"/>
  <text x="0.034325" y="0.042405" font-family="'Input Sans Narrow', 'DejaVu Sans', Arial, sans-serif" font-size="0.001800" fill="rgb(60,60,60)">servo</text>
  <rect x="0.028825" y="0.043905" width="0.004000" height="0.002500" fill="url(#hatch_bracket)" stroke="rgb(50,120,190)" stroke-width="0.000300"/>
  <text x="0.034325" y="0.045905" font-family="'Input Sans Narrow', 'DejaVu Sans', Arial, sans-serif" font-size="0.001800" fill="rgb(50,120,190)">bracket</text>
</svg>