<?xml version='1.0' encoding='utf-8'?>
<svg width="280.75mm" height="73.11mm" viewBox="-0.003175 -0.031478 0.280751 0.073105" version="1.1" xmlns="http://www.w3.org/2000/svg">
  <defs>
    <pattern id="hatch_servo" width="0.0012" height="0.0012" patternUnits="userSpaceOnUse" patternTransform="rotate(45)">
      <line x1="0" y1="0" x2="0" y2="0.0012" stroke="rgb(60,60,60)" stroke-width="0.0001" stroke-opacity="0.6"/>
    </pattern>
    <pattern id="hatch_bracket" width="0.0012" height="0.0012" patternUnits="userSpaceOnUse" patternTransform="rotate(75)">
      <line x1="0" y1="0" x2="0" y2="0.0012" stroke="rgb(50,120,190)" stroke-width="0.0001" stroke-opacity="0.6"/>
    </pattern>
  </defs>
  <g transform="scale(1,-1)" stroke-linecap="round">
    <g fill="none" stroke="rgb(60,60,60)" stroke-width="0.00035" id="servo">
      <line x1="0.0028" y1="-0.0084" x2="0.0028" y2="0.0084" />
      <path d="M 0.0028,-0.0084 A 0.004,0.004 -90.0 0,1 0.0068,-0.0124" />
      <line x1="0.0068" y1="-0.0124" x2="0.0442" y2="-0.0124" />
      <path d="M 0.0482,-0.0084 A 0.004,0.004 -90.0 0,0 0.0442,-0.0124" />
      <line x1="0.0482" y1="-0.0084" x2="0.0482" y2="0.0084" />
      <path d="M 0.0482,0.0084 A 0.004,0.004 -90.0 0,1 0.0442,0.0124" />
      <line x1="0.0068" y1="0.0124" x2="0.0442" y2="0.0124" />
      <path d="M 0.0028,0.0084 A 0.004,0.004 -90.0 0,0 0.0068,0.0124" />
      <path d="M 0.0658,0.0124 A 0.004,0.004 180.0 0,1 0.0618,0.0084" />
      <line x1="0.0658" y1="0.0124" x2="0.1032" y2="0.0124" />
      <path d="M 0.1072,0.0084 A 0.004,0.004 0.0 0,1 0.1032,0.0124" />
      <line x1="0.1072" y1="0.0084" x2="0.1072" y2="-0.0084" />
      <path d="M 0.1032,-0.0124 A 0.004,0.004 0.0 0,1 0.1072,-0.0084" />
      <line x1="0.0658" y1="-0.0124" x2="0.1032" y2="-0.0124" />
      <path d="M 0.0618,-0.0084 A 0.004,0.004 180.0 0,1 0.0658,-0.0124" />
      <line x1="0.0618" y1="0.0084" x2="0.0618" y2="-0.0084" />
      <line x1="0.1228" y1="-0.0084" x2="0.1228" y2="-0.0124" />
      <line x1="0.1228" y1="-0.0084" x2="0.1632" y2="-0.0084" />
      <line x1="0.1632" y1="-0.0084" x2="0.1632" y2="-0.0124" />
      <line x1="0.1228" y1="-0.0124" x2="0.1632" y2="-0.0124" />
      <circle cx="0.1265" cy="-0.01025" r="0.0016" />
      <circle cx="0.1435" cy="-0.01025" r="0.0016" />
      <circle cx="0.1605" cy="-0.01025" r="0.0016" />
      <line x1="0.1228" y1="0.0124" x2="0.1632" y2="0.0124" />
      <line x1="0.1632" y1="0.0124" x2="0.1632" y2="0.0084" />
      <line x1="0.1228" y1="0.0084" x2="0.1632" y2="0.0084" />
      <line x1="0.1228" y1="0.0124" x2="0.1228" y2="0.0084" />
      <circle cx="0.1265" cy="0.01025" r="0.0016" />
      <circle cx="0.1435" cy="0.01025" r="0.0016" />
      <circle cx="0.1605" cy="0.01025" r="0.0016" />
      <circle cx="0.156" cy="0.0" r="0.003" />
      <line x1="0.14005" y1="-0.00305" x2="0.13095" y2="-0.00305" />
      <line x1="0.13095" y1="0.00305" x2="0.13095" y2="-0.00305" />
      <line x1="0.14005" y1="0.00305" x2="0.13095" y2="0.00305" />
      <line x1="0.14005" y1="0.00305" x2="0.14005" y2="-0.00305" />
      <line x1="0.13165" y1="0.00235" x2="0.13165" y2="-0.00235" />
      <line x1="0.13935" y1="-0.00235" x2="0.13165" y2="-0.00235" />
      <line x1="0.13935" y1="0.00235" x2="0.13935" y2="-0.00235" />
      <line x1="0.13935" y1="0.00235" x2="0.13165" y2="0.00235" />
      <line x1="0.179801" y1="-0.0163" x2="0.179801" y2="0.0163" />
      <line x1="0.1798" y1="0.0163" x2="0.1798" y2="-0.0163" />
      <path d="M 0.179801,0.0163 A 0.004,7.200512446339205e-08 -1.3567487564507165e-24 0,0 0.183801,0.0163" />
      <path d="M 0.179801,-0.0163 A 0.004,7.200512446339205e-08 -1.3567487564507165e-24 0,0 0.181801,-0.0163" />
      <line x1="0.183801" y1="-0.0163" x2="0.183801" y2="0.0163" />
      <path d="M 0.1798,-0.0163 A 0.004,7.200512446339205e-08 180.0 0,1 0.1818,-0.0163" />
      <path d="M 0.225201,-0.0163 A 0.004,7.200512446339205e-08 180.0 0,1 0.222201,-0.0163" />
      <line x1="0.183801" y1="0.0163" x2="0.221201" y2="0.0163" />
      <path d="M 0.225201,0.0163 A 0.004,7.200512446339205e-08 180.0 0,1 0.221201,0.0163" />
      <line x1="0.221201" y1="0.0163" x2="0.223001" y2="0.0163" />
      <line x1="0.181801" y1="-0.0163" x2="0.183801" y2="-0.0163" />
      <line x1="0.221201" y1="-0.0163" x2="0.221201" y2="0.0163" />
      <line x1="0.221201" y1="-0.0163" x2="0.222201" y2="-0.0163" />
      <line x1="0.222201" y1="-0.0184" x2="0.222201" y2="-0.0163" />
      <line x1="0.181801" y1="-0.0184" x2="0.222201" y2="-0.0184" />
      <line x1="0.181801" y1="-0.0184" x2="0.181801" y2="-0.0163" />
      <line x1="0.1818" y1="-0.0184" x2="0.1818" y2="-0.0163" />
      <line x1="0.1818" y1="-0.0184" x2="0.2222" y2="-0.0184" />
      <line x1="0.225201" y1="-0.0163" x2="0.225201" y2="0.0163" />
      <line x1="0.18995" y1="-0.0184" x2="0.19905" y2="-0.0184" />
      <path d="M 0.205001,0.018 A 0.002,3.6002562231696023e-08 -1.3567487564507165e-24 0,0 0.207001,0.018" />
      <line x1="0.207001" y1="0.018" x2="0.223001" y2="0.018" />
      <path d="M 0.225001,0.018 A 0.002,3.6002562231696023e-08 180.0 0,1 0.223001,0.018" />
      <path d="M 0.187101,-0.0184 A 0.0016,2.8802049785356817e-08 1.3556093641866638e-24 0,0 0.183901,-0.0184" />
      <path d="M 0.183901,-0.0184 A 0.0016,2.8802049785356817e-08 1.3556093641866638e-24 1,0 0.187101,-0.0184" />
      <path d="M 0.204101,-0.0184 A 0.0016000000000000044,2.8802049785356893e-08 1.3556093641866638e-24 0,0 0.200901,-0.0184" />
      <path d="M 0.200901,-0.0184 A 0.0016000000000000044,2.8802049785356893e-08 1.3556093641866638e-24 1,0 0.204101,-0.0184" />
      <path d="M 0.221101,-0.0184 A 0.0016,2.8802049785356817e-08 1.3556093641866638e-24 0,0 0.217901,-0.0184" />
      <path d="M 0.217901,-0.0184 A 0.0016,2.8802049785356817e-08 1.3556093641866638e-24 1,0 0.221101,-0.0184" />
      <path d="M 0.1871,-0.0184 A 0.0016,2.8802049785356817e-08 1.3556093641866638e-24 0,0 0.1839,-0.0184" />
      <path d="M 0.1839,-0.0184 A 0.0016,2.8802049785356817e-08 1.3556093641866638e-24 1,0 0.1871,-0.0184" />
      <path d="M 0.2041,-0.0184 A 0.0016000000000000044,2.8802049785356893e-08 1.3556093641866638e-24 0,0 0.2009,-0.0184" />
      <path d="M 0.2009,-0.0184 A 0.0016000000000000044,2.8802049785356893e-08 1.3556093641866638e-24 1,0 0.2041,-0.0184" />
      <path d="M 0.2211,-0.0184 A 0.0016,2.8802049785356817e-08 1.3556093641866638e-24 0,0 0.2179,-0.0184" />
      <path d="M 0.2179,-0.0184 A 0.0016,2.8802049785356817e-08 1.3556093641866638e-24 1,0 0.2211,-0.0184" />
      <line x1="0.19065" y1="-0.0184" x2="0.19835" y2="-0.0184" />
      <path d="M 0.2105,0.0195 A 0.004500000000000004,8.10057650213161e-08 1.3556093641866638e-24 0,0 0.2195,0.0195" />
      <line x1="0.205001" y1="0.0163" x2="0.205001" y2="0.018" />
      <line x1="0.207001" y1="0.0163" x2="0.207001" y2="0.018" />
      <line x1="0.223001" y1="0.0163" x2="0.223001" y2="0.018" />
      <line x1="0.225001" y1="0.0163" x2="0.225001" y2="0.018" />
      <line x1="0.1798" y1="-0.0163" x2="0.1798" y2="0.0163" />
      <line x1="0.225201" y1="-0.0163" x2="0.225201" y2="0.0163" />
      <line x1="0.2195" y1="0.018" x2="0.2195" y2="0.0195" />
      <line x1="0.2105" y1="0.018" x2="0.2105" y2="0.0195" />
      <line x1="0.238801" y1="-0.0163" x2="0.238801" y2="0.0163" />
      <line x1="0.238928" y1="-0.0163" x2="0.242801" y2="-0.0163" />
      <line x1="0.259601" y1="-0.0163" x2="0.263474" y2="-0.0163" />
      <path d="M 0.242801,-0.0163 A 0.004,7.200694209137211e-08 -180.0 0,1 0.238928,-0.0163" />
      <path d="M 0.259601,-0.0163 A 0.004,7.200694209137211e-08 6.942825831215668e-40 0,0 0.263474,-0.0163" />
      <line x1="0.242801" y1="-0.0163" x2="0.259601" y2="-0.0163" />
      <path d="M 0.251201,-0.0163 A 0.003,5.400520656852908e-08 5.337682365649159e-40 0,0 0.254201,-0.0163" />
      <path d="M 0.248201,-0.0163 A 0.003,5.400520656852908e-08 5.337682365649159e-40 0,0 0.251201,-0.0163" />
      <line x1="0.248151" y1="-0.0163" x2="0.248201" y2="-0.0163" />
      <line x1="0.254201" y1="-0.0163" x2="0.254251" y2="-0.0163" />
      <line x1="0.263601" y1="0.0163" x2="0.263601" y2="-0.0163" />
      <path d="M 0.242801,0.0163 A 0.004,7.200694209137211e-08 -180.0 0,1 0.238801,0.0163" />
      <path d="M 0.259601,0.0163 A 0.004,7.200694209137211e-08 6.942825831215668e-40 0,0 0.263601,0.0163" />
      <line x1="0.242801" y1="0.0163" x2="0.259601" y2="0.0163" />
      <path d="M 0.242801,0.0163 A 0.002,3.6003471045686055e-08 -180.0 0,1 0.241201,0.0163" />
      <path d="M 0.259601,0.0163 A 0.002,3.6003471045686055e-08 6.942825831215668e-40 0,0 0.261201,0.0163" />
      <line x1="0.238801" y1="-0.0163" x2="0.238801" y2="0.0163" />
      <line x1="0.238801" y1="-0.0184" x2="0.238801" y2="-0.0163" />
      <line x1="0.242801" y1="-0.0184" x2="0.242801" y2="-0.0163" />
      <line x1="0.259601" y1="-0.0184" x2="0.259601" y2="-0.0163" />
      <line x1="0.238801" y1="-0.0163" x2="0.238928" y2="-0.0163" />
      <line x1="0.238801" y1="-0.0184" x2="0.242801" y2="-0.0184" />
      <line x1="0.263474" y1="-0.0163" x2="0.263601" y2="-0.0163" />
      <line x1="0.263601" y1="-0.0184" x2="0.263601" y2="-0.0163" />
      <line x1="0.259601" y1="-0.0184" x2="0.263601" y2="-0.0184" />
      <line x1="0.242801" y1="-0.0163" x2="0.242801" y2="0.0163" />
      <line x1="0.263601" y1="0.0163" x2="0.263601" y2="-0.0163" />
      <line x1="0.259601" y1="0.0163" x2="0.259601" y2="-0.0163" />
      <path d="M 0.251201,-0.0176 A 0.003,5.400520656852908e-08 5.337682365649159e-40 0,0 0.254201,-0.0176" />
      <path d="M 0.254201,-0.0176 A 0.0030000000000000027,5.400520656852913e-08 5.337682365649159e-40 0,0 0.248201,-0.0176" />
      <path d="M 0.248201,-0.0176 A 0.003,5.400520656852908e-08 5.337682365649159e-40 0,0 0.251201,-0.0176" />
      <line x1="0.248151" y1="-0.0163" x2="0.248151" y2="-0.0184" />
      <line x1="0.254251" y1="-0.0163" x2="0.254251" y2="-0.0184" />
      <line x1="0.254251" y1="-0.0184" x2="0.248151" y2="-0.0184" />
      <line x1="0.241201" y1="0.0163" x2="0.241201" y2="0.018" />
      <path d="M 0.243201,0.018 A 0.002,3.6003471045686055e-08 -180.0 0,1 0.241201,0.018" />
      <line x1="0.243201" y1="0.018" x2="0.259201" y2="0.018" />
      <line x1="0.261201" y1="0.0163" x2="0.261201" y2="0.018" />
      <path d="M 0.259201,0.018 A 0.002,3.6003471045686055e-08 6.942825831215668e-40 0,0 0.261201,0.018" />
      <path d="M 0.240951,-0.0184 A 0.0016,2.8802776836548845e-08 5.337682365649159e-40 0,0 0.242551,-0.0184" />
      <path d="M 0.242551,-0.0184 A 0.0016,2.8802776836548845e-08 5.337682365649159e-40 0,0 0.239351,-0.0184" />
      <path d="M 0.239351,-0.0184 A 0.0016,2.8802776836548845e-08 5.337682365649159e-40 0,0 0.240951,-0.0184" />
      <path d="M 0.240951,-0.0184 A 0.0016,2.8802776836548845e-08 5.337682365649159e-40 0,0 0.242551,-0.0184" />
      <path d="M 0.242551,-0.0184 A 0.0016,2.8802776836548845e-08 5.337682365649159e-40 0,0 0.239351,-0.0184" />
      <path d="M 0.239351,-0.0184 A 0.0016,2.8802776836548845e-08 5.337682365649159e-40 0,0 0.240951,-0.0184" />
      <path d="M 0.240951,-0.0184 A 0.0016,2.8802776836548845e-08 5.337682365649159e-40 0,0 0.242551,-0.0184" />
      <path d="M 0.242551,-0.0184 A 0.0016,2.8802776836548845e-08 5.337682365649159e-40 0,0 0.239351,-0.0184" />
      <path d="M 0.239351,-0.0184 A 0.0016,2.8802776836548845e-08 5.337682365649159e-40 0,0 0.240951,-0.0184" />
      <path d="M 0.261451,-0.0184 A 0.0016,2.8802776836548845e-08 5.337682365649159e-40 0,0 0.263051,-0.0184" />
      <path d="M 0.263051,-0.0184 A 0.0016,2.8802776836548845e-08 5.337682365649159e-40 0,0 0.259851,-0.0184" />
      <path d="M 0.259851,-0.0184 A 0.0016,2.8802776836548845e-08 5.337682365649159e-40 0,0 0.261451,-0.0184" />
      <path d="M 0.261451,-0.0184 A 0.0016,2.8802776836548845e-08 5.337682365649159e-40 0,0 0.263051,-0.0184" />
      <path d="M 0.263051,-0.0184 A 0.0016,2.8802776836548845e-08 5.337682365649159e-40 0,0 0.259851,-0.0184" />
      <path d="M 0.259851,-0.0184 A 0.0016,2.8802776836548845e-08 5.337682365649159e-40 0,0 0.261451,-0.0184" />
      <path d="M 0.261451,-0.0184 A 0.0016,2.8802776836548845e-08 5.337682365649159e-40 0,0 0.263051,-0.0184" />
      <path d="M 0.263051,-0.0184 A 0.0016,2.8802776836548845e-08 5.337682365649159e-40 0,0 0.259851,-0.0184" />
      <path d="M 0.259851,-0.0184 A 0.0016,2.8802776836548845e-08 5.337682365649159e-40 0,0 0.261451,-0.0184" />
      <line x1="0.253551" y1="-0.0184" x2="0.248851" y2="-0.0184" />
      <path d="M 0.251201,0.0195 A 0.0045,8.100780985279361e-08 5.337682365649159e-40 0,0 0.255701,0.0195" />
      <path d="M 0.246701,0.0195 A 0.0045,8.100780985279361e-08 5.337682365649159e-40 0,0 0.251201,0.0195" />
      <line x1="0.243201" y1="0.0163" x2="0.243201" y2="0.018" />
      <line x1="0.259201" y1="0.0163" x2="0.259201" y2="0.018" />
      <line x1="0.254201" y1="-0.0176" x2="0.254201" y2="-0.0163" />
      <line x1="0.248201" y1="-0.0176" x2="0.248201" y2="-0.0163" />
      <line x1="0.255701" y1="0.018" x2="0.255701" y2="0.0195" />
      <line x1="0.246701" y1="0.018" x2="0.246701" y2="0.0195" />
    </g>
    <g fill="url(#hatch_servo)" stroke="none" stroke-width="0" id="servo_fill">
      <path d="M 0.0028,0.0084 L 0.0028,-0.0084 A 0.004,0.004 -90.0 0,1 0.0068,-0.0124 L 0.0442,-0.0124 A 0.004,0.004 -90.0 0,1 0.0482,-0.0084 L 0.0482,0.0084 A 0.004,0.004 -90.0 0,1 0.0442,0.0124 L 0.0068,0.0124 A 0.004,0.004 -90.0 0,1 0.0028,0.0084" />
      <path d="M 0.0658,0.0124 A 0.004,0.004 180.0 0,1 0.0618,0.0084 L 0.0618,-0.0084 A 0.004,0.004 180.0 0,1 0.0658,-0.0124 L 0.1032,-0.0124 A 0.004,0.004 0.0 0,1 0.1072,-0.0084 L 0.1072,0.0084 A 0.004,0.004 0.0 0,1 0.1032,0.0124 L 0.0658,0.0124" />
      <path d="M 0.1228,-0.0084 L 0.1228,-0.0124 L 0.1632,-0.0124 L 0.1632,-0.0084 L 0.1228,-0.0084 M 0.1281,-0.01025 A 0.0016,0.0016 0.0 0,0 0.1249,-0.01025 A 0.0016,0.0016 0.0 0,0 0.1281,-0.01025 M 0.1451,-0.01025 A 0.0016000000000000044,0.0016000000000000044 0.0 0,0 0.1419,-0.01025 A 0.0016000000000000044,0.0016000000000000044 0.0 0,0 0.1451,-0.01025 M 0.1621,-0.01025 A 0.0016,0.0016 0.0 0,0 0.1589,-0.01025 A 0.0016,0.0016 0.0 0,0 0.1621,-0.01025" />
      <path d="M 0.1632,0.0124 L 0.1228,0.0124 L 0.1228,0.0084 L 0.1632,0.0084 L 0.1632,0.0124 M 0.1281,0.01025 A 0.0016,0.0016 0.0 0,0 0.1249,0.01025 A 0.0016,0.0016 0.0 0,0 0.1281,0.01025 M 0.1451,0.01025 A 0.0016000000000000044,0.0016000000000000044 0.0 0,0 0.1419,0.01025 A 0.0016000000000000044,0.0016000000000000044 0.0 0,0 0.1451,0.01025 M 0.1621,0.01025 A 0.0016,0.0016 0.0 0,0 0.1589,0.01025 A 0.0016,0.0016 0.0 0,0 0.1621,0.01025" />
      <circle cx="0.156" cy="0.0" r="0.003" />
      <path d="M 0.13095,-0.00305 L 0.14005,-0.00305 L 0.14005,0.00305 L 0.13095,0.00305 L 0.13095,-0.00305 M 0.13165,-0.00235 L 0.13165,0.00235 L 0.13935,0.00235 L 0.13935,-0.00235 L 0.13165,-0.00235" />
    </g>
    <g fill="none" stroke="rgb(60,60,60)" stroke-opacity="0.4" stroke-width="0.00015" id="servo_hidden" stroke-dasharray="0.0018 0.00045">
      <path d="M 0.181801,-0.0163 A 0.004,7.200512446339205e-08 -1.3567487564507165e-24 0,0 0.183801,-0.0163" />
      <line x1="0.181801" y1="-0.0163" x2="0.222201" y2="-0.0163" />
      <line x1="0.181801" y1="-0.0163" x2="0.2222" y2="-0.0163" />
      <path d="M 0.2252,-0.0163 A 0.004,7.200512446339205e-08 -1.3567487564507165e-24 0,0 0.2222,-0.0163" />
      <path d="M 0.218,-0.0163 A 0.0030000000000000027,5.4003843347544075e-08 1.3556093641866638e-24 0,0 0.212,-0.0163" />
      <path d="M 0.212,-0.0163 A 0.0030000000000000027,5.4003843347544075e-08 1.3556093641866638e-24 1,0 0.218,-0.0163" />
      <line x1="0.18995" y1="-0.0163" x2="0.19905" y2="-0.0163" />
      <line x1="0.18995" y1="-0.0163" x2="0.19905" y2="-0.0163" />
      <line x1="0.1838" y1="0.0163" x2="0.1838" y2="-0.0163" />
      <path d="M 0.179801,0.0163 A 0.004,7.200512446339205e-08 180.0 0,1 0.1838,0.0163" />
      <path d="M 0.1818,-0.0163 A 0.004,7.200512446339205e-08 180.0 0,1 0.1838,-0.0163" />
      <line x1="0.1838" y1="0.0163" x2="0.2212" y2="0.0163" />
      <path d="M 0.2252,0.0163 A 0.004,7.200512446339205e-08 -1.3567487564507165e-24 0,0 0.2212,0.0163" />
      <path d="M 0.205001,0.0163 A 0.002,3.6002562231696023e-08 -1.3567487564507165e-24 0,0 0.207001,0.0163" />
      <line x1="0.207001" y1="0.0163" x2="0.221201" y2="0.0163" />
      <path d="M 0.225001,0.0163 A 0.002,3.6002562231696023e-08 180.0 0,1 0.223001,0.0163" />
      <path d="M 0.225,0.0163 A 0.002,3.6002562231696023e-08 -1.3567487564507165e-24 0,0 0.223,0.0163" />
      <line x1="0.207" y1="0.0163" x2="0.223" y2="0.0163" />
      <path d="M 0.205,0.0163 A 0.002,3.6002562231696023e-08 180.0 0,1 0.207,0.0163" />
      <line x1="0.181801" y1="-0.0184" x2="0.181801" y2="-0.0163" />
      <line x1="0.1818" y1="-0.0184" x2="0.1818" y2="-0.0163" />
      <line x1="0.181801" y1="-0.0184" x2="0.222201" y2="-0.0184" />
      <line x1="0.222201" y1="-0.0184" x2="0.222201" y2="-0.0163" />
      <line x1="0.2222" y1="-0.0184" x2="0.2222" y2="-0.0163" />
      <line x1="0.2222" y1="-0.0184" x2="0.2222" y2="-0.0163" />
      <path d="M 0.222201,-0.0163 A 0.004,7.200512446339205e-08 180.0 0,1 0.221201,-0.0163" />
      <line x1="0.2212" y1="0.0163" x2="0.2212" y2="-0.0163" />
      <line x1="0.2252" y1="0.0163" x2="0.2252" y2="-0.0163" />
      <path d="M 0.2222,-0.0163 A 0.004,7.200512446339205e-08 -1.3567487564507165e-24 0,0 0.2212,-0.0163" />
      <path d="M 0.218,-0.0176 A 0.0030000000000000027,5.4003843347544075e-08 1.3556093641866638e-24 0,0 0.212,-0.0176" />
      <path d="M 0.212,-0.0176 A 0.0030000000000000027,5.4003843347544075e-08 1.3556093641866638e-24 1,0 0.218,-0.0176" />
      <line x1="0.19905" y1="-0.0163" x2="0.19905" y2="-0.0184" />
      <line x1="0.18995" y1="-0.0163" x2="0.18995" y2="-0.0184" />
      <line x1="0.19905" y1="-0.0163" x2="0.19905" y2="-0.0184" />
      <line x1="0.18995" y1="-0.0184" x2="0.19905" y2="-0.0184" />
      <line x1="0.18995" y1="-0.0163" x2="0.18995" y2="-0.0184" />
      <line x1="0.2212" y1="-0.0163" x2="0.2222" y2="-0.0163" />
      <line x1="0.1818" y1="-0.0184" x2="0.2222" y2="-0.0184" />
      <line x1="0.1818" y1="-0.0163" x2="0.1838" y2="-0.0163" />
      <path d="M 0.225,0.018 A 0.002,3.6002562231696023e-08 -1.3567487564507165e-24 0,0 0.223,0.018" />
      <line x1="0.207" y1="0.018" x2="0.223" y2="0.018" />
      <path d="M 0.205,0.018 A 0.002,3.6002562231696023e-08 180.0 0,1 0.207,0.018" />
      <line x1="0.19065" y1="-0.0184" x2="0.19835" y2="-0.0184" />
      <path d="M 0.2195,0.018 A 0.004500000000000004,8.10057650213161e-08 1.3556093641866638e-24 0,0 0.2105,0.018" />
      <path d="M 0.2105,0.018 A 0.004500000000000004,8.10057650213161e-08 1.3556093641866638e-24 0,0 0.2195,0.018" />
      <path d="M 0.187101,-0.0084 A 0.0016,2.8802049785356817e-08 1.3556093641866638e-24 0,0 0.183901,-0.0084" />
      <path d="M 0.183901,-0.0084 A 0.0016,2.8802049785356817e-08 1.3556093641866638e-24 1,0 0.187101,-0.0084" />
      <path d="M 0.204101,-0.0084 A 0.0016000000000000044,2.8802049785356893e-08 1.3556093641866638e-24 0,0 0.200901,-0.0084" />
      <path d="M 0.200901,-0.0084 A 0.0016000000000000044,2.8802049785356893e-08 1.3556093641866638e-24 1,0 0.204101,-0.0084" />
      <path d="M 0.221101,-0.0084 A 0.0016,2.8802049785356817e-08 1.3556093641866638e-24 0,0 0.217901,-0.0084" />
      <path d="M 0.217901,-0.0084 A 0.0016,2.8802049785356817e-08 1.3556093641866638e-24 1,0 0.221101,-0.0084" />
      <path d="M 0.1871,-0.0084 A 0.0016,2.8802049785356817e-08 1.3556093641866638e-24 0,0 0.1839,-0.0084" />
      <path d="M 0.1839,-0.0084 A 0.0016,2.8802049785356817e-08 1.3556093641866638e-24 1,0 0.1871,-0.0084" />
      <path d="M 0.2041,-0.0084 A 0.0016000000000000044,2.8802049785356893e-08 1.3556093641866638e-24 0,0 0.2009,-0.0084" />
      <path d="M 0.2009,-0.0084 A 0.0016000000000000044,2.8802049785356893e-08 1.3556093641866638e-24 1,0 0.2041,-0.0084" />
      <path d="M 0.2211,-0.0084 A 0.0016,2.8802049785356817e-08 1.3556093641866638e-24 0,0 0.2179,-0.0084" />
      <path d="M 0.2179,-0.0084 A 0.0016,2.8802049785356817e-08 1.3556093641866638e-24 1,0 0.2211,-0.0084" />
      <line x1="0.19065" y1="-0.0163" x2="0.19065" y2="-0.0184" />
      <line x1="0.19065" y1="-0.0163" x2="0.19065" y2="-0.0184" />
      <line x1="0.19835" y1="-0.0163" x2="0.19835" y2="-0.0184" />
      <line x1="0.19065" y1="-0.0163" x2="0.19835" y2="-0.0163" />
      <line x1="0.19835" y1="-0.0163" x2="0.19835" y2="-0.0184" />
      <line x1="0.19065" y1="-0.0163" x2="0.19835" y2="-0.0163" />
      <path d="M 0.2195,0.0195 A 0.004500000000000004,8.10057650213161e-08 1.3556093641866638e-24 0,0 0.2105,0.0195" />
      <line x1="0.212" y1="-0.0176" x2="0.212" y2="-0.0163" />
      <line x1="0.183901" y1="-0.0184" x2="0.183901" y2="-0.0084" />
      <line x1="0.200901" y1="-0.0184" x2="0.200901" y2="-0.0084" />
      <line x1="0.217901" y1="-0.0184" x2="0.217901" y2="-0.0084" />
      <line x1="0.1839" y1="-0.0184" x2="0.1839" y2="-0.0084" />
      <line x1="0.2009" y1="-0.0184" x2="0.2009" y2="-0.0084" />
      <line x1="0.2179" y1="-0.0184" x2="0.2179" y2="-0.0084" />
      <line x1="0.225" y1="0.0163" x2="0.225" y2="0.018" />
      <line x1="0.223" y1="0.0163" x2="0.223" y2="0.018" />
      <line x1="0.207" y1="0.0163" x2="0.207" y2="0.018" />
      <line x1="0.205" y1="0.0163" x2="0.205" y2="0.018" />
      <line x1="0.242801" y1="-0.0163" x2="0.242801" y2="0.0163" />
      <line x1="0.242801" y1="-0.0163" x2="0.259601" y2="-0.0163" />
      <line x1="0.259601" y1="0.0163" x2="0.259601" y2="-0.0163" />
      <line x1="0.242801" y1="0.0163" x2="0.259601" y2="0.0163" />
      <path d="M 0.242801,0.0163 A 0.004,7.200694209137211e-08 6.942825831215668e-40 0,0 0.238801,0.0163" />
      <path d="M 0.242801,-0.0163 A 0.004,7.200694209137211e-08 6.942825831215668e-40 0,0 0.239336,-0.0163" />
      <path d="M 0.239336,-0.0163 A 0.004,7.200694209137211e-08 6.942825831215668e-40 0,0 0.238801,-0.0163" />
      <path d="M 0.259601,-0.0163 A 0.004,7.200694209137211e-08 -180.0 0,1 0.263065,-0.0163" />
      <line x1="0.239336" y1="-0.0163" x2="0.242801" y2="-0.0163" />
      <line x1="0.259601" y1="-0.0163" x2="0.263065" y2="-0.0163" />
      <path d="M 0.254201,-0.0163 A 0.0030000000000000027,5.400520656852913e-08 5.337682365649159e-40 0,0 0.248201,-0.0163" />
      <line x1="0.248201" y1="-0.0163" x2="0.254201" y2="-0.0163" />
      <line x1="0.248151" y1="-0.0163" x2="0.254251" y2="-0.0163" />
      <path d="M 0.259601,0.0163 A 0.004,7.200694209137211e-08 -180.0 0,1 0.263601,0.0163" />
      <path d="M 0.263065,-0.0163 A 0.004,7.200694209137211e-08 -180.0 0,1 0.263601,-0.0163" />
      <path d="M 0.243201,0.0163 A 0.002,3.6003471045686055e-08 6.942825831215668e-40 0,0 0.241201,0.0163" />
      <path d="M 0.243201,0.0163 A 0.002,3.6003471045686055e-08 -180.0 0,1 0.242801,0.0163" />
      <line x1="0.243201" y1="0.0163" x2="0.259201" y2="0.0163" />
      <path d="M 0.259201,0.0163 A 0.002,3.6003471045686055e-08 6.942825831215668e-40 0,0 0.259601,0.0163" />
      <path d="M 0.259201,0.0163 A 0.002,3.6003471045686055e-08 -180.0 0,1 0.261201,0.0163" />
      <line x1="0.243201" y1="0.0163" x2="0.259201" y2="0.0163" />
      <line x1="0.238801" y1="-0.0163" x2="0.239336" y2="-0.0163" />
      <line x1="0.238801" y1="-0.0184" x2="0.238801" y2="-0.0163" />
      <line x1="0.242801" y1="-0.0184" x2="0.242801" y2="-0.0163" />
      <line x1="0.238801" y1="-0.0184" x2="0.242801" y2="-0.0184" />
      <line x1="0.259601" y1="-0.0184" x2="0.259601" y2="-0.0163" />
      <line x1="0.263065" y1="-0.0163" x2="0.263601" y2="-0.0163" />
      <line x1="0.263601" y1="-0.0184" x2="0.263601" y2="-0.0163" />
      <line x1="0.259601" y1="-0.0184" x2="0.263601" y2="-0.0184" />
      <path d="M 0.238928,-0.0163 A 0.004,7.200694209137211e-08 -180.0 0,1 0.238801,-0.0163" />
      <path d="M 0.263474,-0.0163 A 0.004,7.200694209137211e-08 6.942825831215668e-40 0,0 0.263601,-0.0163" />
      <line x1="0.248151" y1="-0.0163" x2="0.248151" y2="-0.0184" />
      <line x1="0.254251" y1="-0.0163" x2="0.254251" y2="-0.0184" />
      <line x1="0.254251" y1="-0.0184" x2="0.248151" y2="-0.0184" />
      <line x1="0.241201" y1="0.0163" x2="0.241201" y2="0.018" />
      <path d="M 0.243201,0.018 A 0.002,3.6003471045686055e-08 6.942825831215668e-40 0,0 0.241201,0.018" />
      <line x1="0.261201" y1="0.0163" x2="0.261201" y2="0.018" />
      <path d="M 0.259201,0.018 A 0.002,3.6003471045686055e-08 -180.0 0,1 0.261201,0.018" />
      <line x1="0.243201" y1="0.018" x2="0.259201" y2="0.018" />
      <line x1="0.253551" y1="-0.0184" x2="0.248851" y2="-0.0184" />
      <path d="M 0.251201,0.018 A 0.0045,8.100780985279361e-08 5.337682365649159e-40 0,0 0.255701,0.018" />
      <path d="M 0.255701,0.018 A 0.004500000000000004,8.100780985279367e-08 5.337682365649159e-40 0,0 0.246701,0.018" />
      <path d="M 0.246701,0.018 A 0.0045,8.100780985279361e-08 5.337682365649159e-40 0,0 0.251201,0.018" />
      <path d="M 0.240951,-0.0084 A 0.0016,2.8802776836548845e-08 5.337682365649159e-40 0,0 0.242551,-0.0084" />
      <path d="M 0.242551,-0.0084 A 0.0016,2.8802776836548845e-08 5.337682365649159e-40 0,0 0.239351,-0.0084" />
      <path d="M 0.239351,-0.0084 A 0.0016,2.8802776836548845e-08 5.337682365649159e-40 0,0 0.240951,-0.0084" />
      <path d="M 0.240951,-0.0084 A 0.0016,2.8802776836548845e-08 5.337682365649159e-40 0,0 0.242551,-0.0084" />
      <path d="M 0.242551,-0.0084 A 0.0016,2.8802776836548845e-08 5.337682365649159e-40 0,0 0.239351,-0.0084" />
      <path d="M 0.239351,-0.0084 A 0.0016,2.8802776836548845e-08 5.337682365649159e-40 0,0 0.240951,-0.0084" />
      <path d="M 0.240951,-0.0084 A 0.0016,2.8802776836548845e-08 5.337682365649159e-40 0,0 0.242551,-0.0084" />
      <path d="M 0.242551,-0.0084 A 0.0016,2.8802776836548845e-08 5.337682365649159e-40 0,0 0.239351,-0.0084" />
      <path d="M 0.239351,-0.0084 A 0.0016,2.8802776836548845e-08 5.337682365649159e-40 0,0 0.240951,-0.0084" />
      <path d="M 0.261451,-0.0084 A 0.0016,2.8802776836548845e-08 5.337682365649159e-40 0,0 0.263051,-0.0084" />
      <path d="M 0.263051,-0.0084 A 0.0016,2.8802776836548845e-08 5.337682365649159e-40 0,0 0.259851,-0.0084" />
      <path d="M 0.259851,-0.0084 A 0.0016,2.8802776836548845e-08 5.337682365649159e-40 0,0 0.261451,-0.0084" />
      <path d="M 0.261451,-0.0084 A 0.0016,2.8802776836548845e-08 5.337682365649159e-40 0,0 0.263051,-0.0084" />
      <path d="M 0.263051,-0.0084 A 0.0016,2.8802776836548845e-08 5.337682365649159e-40 0,0 0.259851,-0.0084" />
      <path d="M 0.259851,-0.0084 A 0.0016,2.8802776836548845e-08 5.337682365649159e-40 0,0 0.261451,-0.0084" />
      <path d="M 0.261451,-0.0084 A 0.0016,2.8802776836548845e-08 5.337682365649159e-40 0,0 0.263051,-0.0084" />
      <path d="M 0.263051,-0.0084 A 0.0016,2.8802776836548845e-08 5.337682365649159e-40 0,0 0.259851,-0.0084" />
      <path d="M 0.259851,-0.0084 A 0.0016,2.8802776836548845e-08 5.337682365649159e-40 0,0 0.261451,-0.0084" />
      <line x1="0.253551" y1="-0.0163" x2="0.253551" y2="-0.0184" />
      <line x1="0.248851" y1="-0.0163" x2="0.248851" y2="-0.0184" />
      <line x1="0.248851" y1="-0.0163" x2="0.253551" y2="-0.0163" />
      <line x1="0.253551" y1="-0.0163" x2="0.253551" y2="-0.0184" />
      <line x1="0.248851" y1="-0.0163" x2="0.248851" y2="-0.0184" />
      <line x1="0.248851" y1="-0.0163" x2="0.253551" y2="-0.0163" />
      <path d="M 0.255701,0.0195 A 0.004500000000000004,8.100780985279367e-08 5.337682365649159e-40 0,0 0.246701,0.0195" />
      <line x1="0.242551" y1="-0.0184" x2="0.242551" y2="-0.0084" />
      <line x1="0.239351" y1="-0.0184" x2="0.239351" y2="-0.0084" />
      <line x1="0.242551" y1="-0.0184" x2="0.242551" y2="-0.0084" />
      <line x1="0.239351" y1="-0.0184" x2="0.239351" y2="-0.0084" />
      <line x1="0.242551" y1="-0.0184" x2="0.242551" y2="-0.0084" />
      <line x1="0.239351" y1="-0.0184" x2="0.239351" y2="-0.0084" />
      <line x1="0.263051" y1="-0.0184" x2="0.263051" y2="-0.0084" />
      <line x1="0.259851" y1="-0.0184" x2="0.259851" y2="-0.0084" />
      <line x1="0.263051" y1="-0.0184" x2="0.263051" y2="-0.0084" />
      <line x1="0.259851" y1="-0.0184" x2="0.259851" y2="-0.0084" />
      <line x1="0.263051" y1="-0.0184" x2="0.263051" y2="-0.0084" />
      <line x1="0.259851" y1="-0.0184" x2="0.259851" y2="-0.0084" />
      <line x1="0.243201" y1="0.0163" x2="0.243201" y2="0.018" />
      <line x1="0.259201" y1="0.0163" x2="0.259201" y2="0.018" />
    </g>
    <g fill="none" stroke="rgb(50,120,190)" stroke-width="0.00035" id="bracket">
      <line x1="0.0" y1="0.0152" x2="0.051" y2="0.0152" />
      <line x1="0.051" y1="0.0152" x2="0.051" y2="-0.0152" />
      <line x1="0.0" y1="-0.0152" x2="0.051" y2="-0.0152" />
      <line x1="0.0" y1="0.0152" x2="0.0" y2="-0.0152" />
      <line x1="0.0025" y1="0.0127" x2="0.0025" y2="-0.0127" />
      <line x1="0.0025" y1="-0.0127" x2="0.0485" y2="-0.0127" />
      <line x1="0.0485" y1="0.0127" x2="0.0485" y2="-0.0127" />
      <line x1="0.0025" y1="0.0127" x2="0.0485" y2="0.0127" />
      <line x1="0.059" y1="0.0152" x2="0.11" y2="0.0152" />
      <line x1="0.11" y1="0.0152" x2="0.11" y2="-0.0152" />
      <line x1="0.059" y1="-0.0152" x2="0.11" y2="-0.0152" />
      <line x1="0.059" y1="0.0152" x2="0.059" y2="-0.0152" />
      <line x1="0.0615" y1="0.0127" x2="0.0615" y2="-0.0127" />
      <line x1="0.0615" y1="-0.0127" x2="0.1075" y2="-0.0127" />
      <line x1="0.1075" y1="0.0127" x2="0.1075" y2="-0.0127" />
      <line x1="0.0615" y1="0.0127" x2="0.1075" y2="0.0127" />
      <line x1="0.118" y1="0.0152" x2="0.169" y2="0.0152" />
      <line x1="0.169" y1="0.0152" x2="0.169" y2="-0.0152" />
      <line x1="0.118" y1="-0.0152" x2="0.169" y2="-0.0152" />
      <line x1="0.118" y1="-0.00455" x2="0.118" y2="-0.0152" />
      <line x1="0.118" y1="-0.00455" x2="0.1214" y2="-0.00455" />
      <line x1="0.1214" y1="0.00455" x2="0.1214" y2="-0.00455" />
      <line x1="0.118" y1="0.00455" x2="0.1214" y2="0.00455" />
      <line x1="0.118" y1="0.0152" x2="0.118" y2="0.00455" />
      <circle cx="0.1265" cy="-0.01025" r="0.0017" />
      <circle cx="0.1435" cy="-0.01025" r="0.0017" />
      <circle cx="0.1605" cy="-0.01025" r="0.0017" />
      <circle cx="0.1265" cy="0.01025" r="0.0017" />
      <circle cx="0.1435" cy="0.01025" r="0.0017" />
      <circle cx="0.1605" cy="0.01025" r="0.0017" />
      <line x1="0.177001" y1="-0.021452" x2="0.177001" y2="0.022298" />
      <line x1="0.177001" y1="0.022298" x2="0.177" y2="0.022302" />
      <line x1="0.177" y1="-0.0201" x2="0.177" y2="-0.0125" />
      <line x1="0.177001" y1="-0.021452" x2="0.228001" y2="-0.021452" />
      <line x1="0.228001" y1="-0.021452" x2="0.228001" y2="0.022298" />
      <line x1="0.177001" y1="0.022298" x2="0.228001" y2="0.022298" />
      <line x1="0.177" y1="0.022302" x2="0.228" y2="0.022302" />
      <line x1="0.228001" y1="0.022298" x2="0.228" y2="0.022302" />
      <line x1="0.236001" y1="0.022303" x2="0.266401" y2="0.022303" />
      <line x1="0.236001" y1="-0.021453" x2="0.236001" y2="0.022297" />
      <line x1="0.236001" y1="0.022303" x2="0.236001" y2="0.022297" />
      <line x1="0.266401" y1="0.022303" x2="0.266401" y2="0.022297" />
      <line x1="0.236001" y1="0.022297" x2="0.266401" y2="0.022297" />
      <line x1="0.236001" y1="-0.021453" x2="0.266401" y2="-0.021453" />
      <line x1="0.266401" y1="-0.021453" x2="0.266401" y2="0.022297" />
    </g>
    <g fill="url(#hatch_bracket)" stroke="none" stroke-width="0" id="bracket_fill">
      <path d="M 0.051,0.0152 L 0.0,0.0152 L 0.0,-0.0152 L 0.051,-0.0152 L 0.051,0.0152 M 0.0025,-0.0127 L 0.0025,0.0127 L 0.0485,0.0127 L 0.0485,-0.0127 L 0.0025,-0.0127" />
      <path d="M 0.11,0.0152 L 0.059,0.0152 L 0.059,-0.0152 L 0.11,-0.0152 L 0.11,0.0152 M 0.0615,-0.0127 L 0.0615,0.0127 L 0.1075,0.0127 L 0.1075,-0.0127 L 0.0615,-0.0127" />
      <path d="M 0.169,0.0152 L 0.118,0.0152 L 0.118,0.00455 L 0.1214,0.00455 L 0.1214,-0.00455 L 0.118,-0.00455 L 0.118,-0.0152 L 0.169,-0.0152 L 0.169,0.0152 M 0.1282,-0.01025 A 0.001700000000000007,0.001700000000000007 0.0 0,0 0.1248,-0.01025 A 0.001700000000000007,0.001700000000000007 0.0 0,0 0.1282,-0.01025 M 0.1452,-0.01025 A 0.0017,0.0017 0.0 0,0 0.1418,-0.01025 A 0.0017,0.0017 0.0 0,0 0.1452,-0.01025 M 0.1622,-0.01025 A 0.001700000000000007,0.001700000000000007 0.0 0,0 0.1588,-0.01025 A 0.001700000000000007,0.001700000000000007 0.0 0,0 0.1622,-0.01025 M 0.1282,0.01025 A 0.001700000000000007,0.001700000000000007 0.0 0,0 0.1248,0.01025 A 0.001700000000000007,0.001700000000000007 0.0 0,0 0.1282,0.01025 M 0.1452,0.01025 A 0.0017,0.0017 0.0 0,0 0.1418,0.01025 A 0.0017,0.0017 0.0 0,0 0.1452,0.01025 M 0.1622,0.01025 A 0.001700000000000007,0.001700000000000007 0.0 0,0 0.1588,0.01025 A 0.001700000000000007,0.001700000000000007 0.0 0,0 0.1622,0.01025" />
    </g>
    <g fill="none" stroke="rgb(50,120,190)" stroke-opacity="0.4" stroke-width="0.00015" id="bracket_hidden" stroke-dasharray="0.0018 0.00045">
      <line x1="0.177001" y1="-0.021452" x2="0.177" y2="-0.021448" />
      <line x1="0.177" y1="-0.021448" x2="0.177" y2="0.022302" />
      <line x1="0.177" y1="-0.0201" x2="0.177" y2="-0.0125" />
      <line x1="0.177" y1="-0.021448" x2="0.228" y2="-0.021448" />
      <line x1="0.228001" y1="-0.021452" x2="0.228" y2="-0.021448" />
      <path d="M 0.188451,-0.021451 A 0.0029500000000000077,3.0407561218250254e-07 3.559274347878471e-23 0,1 0.182551,-0.021451" />
      <path d="M 0.182551,-0.021451 A 0.0029500000000000077,3.0407561218250254e-07 3.559274347878471e-23 1,1 0.188451,-0.021451" />
      <path d="M 0.205451,-0.021451 A 0.00295,3.0407561218250174e-07 3.559274347878471e-23 0,1 0.199551,-0.021451" />
      <path d="M 0.199551,-0.021451 A 0.00295,3.0407561218250174e-07 3.559274347878471e-23 1,1 0.205451,-0.021451" />
      <path d="M 0.222451,-0.021451 A 0.0029500000000000077,3.0407561218250254e-07 3.559274347878471e-23 0,1 0.216551,-0.021451" />
      <path d="M 0.216551,-0.021451 A 0.0029500000000000077,3.0407561218250254e-07 3.559274347878471e-23 1,1 0.222451,-0.021451" />
      <path d="M 0.18845,-0.021449 A 0.0029500000000000077,3.0407561218250254e-07 3.559274347878471e-23 0,1 0.18255,-0.021449" />
      <path d="M 0.18255,-0.021449 A 0.0029500000000000077,3.0407561218250254e-07 3.559274347878471e-23 1,1 0.18845,-0.021449" />
      <path d="M 0.20545,-0.021449 A 0.00295,3.0407561218250174e-07 3.559274347878471e-23 0,1 0.19955,-0.021449" />
      <path d="M 0.19955,-0.021449 A 0.00295,3.0407561218250174e-07 3.559274347878471e-23 1,1 0.20545,-0.021449" />
      <path d="M 0.22245,-0.021449 A 0.0029500000000000077,3.0407561218250254e-07 3.559274347878471e-23 0,1 0.21655,-0.021449" />
      <path d="M 0.21655,-0.021449 A 0.0029500000000000077,3.0407561218250254e-07 3.559274347878471e-23 1,1 0.22245,-0.021449" />
      <line x1="0.228" y1="-0.021448" x2="0.228" y2="0.022302" />
      <line x1="0.177001" y1="-0.0201" x2="0.1804" y2="-0.0201" />
      <line x1="0.177" y1="-0.0201" x2="0.1804" y2="-0.0201" />
      <line x1="0.1804" y1="-0.0201" x2="0.1804" y2="-0.0166" />
      <line x1="0.1804" y1="-0.0166" x2="0.1795" y2="-0.0166" />
      <line x1="0.1795" y1="-0.0166" x2="0.1795" y2="-0.0125" />
      <line x1="0.177001" y1="-0.0125" x2="0.1795" y2="-0.0125" />
      <line x1="0.177" y1="-0.0125" x2="0.1795" y2="-0.0125" />
      <line x1="0.1804" y1="-0.0201" x2="0.1804" y2="-0.0166" />
      <line x1="0.1804" y1="-0.0166" x2="0.1795" y2="-0.0166" />
      <line x1="0.1795" y1="-0.0166" x2="0.1795" y2="-0.0125" />
      <line x1="0.188451" y1="-0.021451" x2="0.188451" y2="-0.018951" />
      <path d="M 0.188451,-0.018951 A 0.0029500000000000077,3.0407561218250254e-07 3.559274347878471e-23 0,1 0.182551,-0.018951" />
      <path d="M 0.182551,-0.018951 A 0.0029500000000000077,3.0407561218250254e-07 3.559274347878471e-23 1,1 0.188451,-0.018951" />
      <line x1="0.205451" y1="-0.021451" x2="0.205451" y2="-0.018951" />
      <path d="M 0.205451,-0.018951 A 0.00295,3.0407561218250174e-07 3.559274347878471e-23 0,1 0.199551,-0.018951" />
      <path d="M 0.199551,-0.018951 A 0.00295,3.0407561218250174e-07 3.559274347878471e-23 1,1 0.205451,-0.018951" />
      <line x1="0.222451" y1="-0.021451" x2="0.222451" y2="-0.018951" />
      <path d="M 0.222451,-0.018951 A 0.0029500000000000077,3.0407561218250254e-07 3.559274347878471e-23 0,1 0.216551,-0.018951" />
      <path d="M 0.216551,-0.018951 A 0.0029500000000000077,3.0407561218250254e-07 3.559274347878471e-23 1,1 0.222451,-0.018951" />
      <line x1="0.18845" y1="-0.021449" x2="0.18845" y2="-0.018949" />
      <path d="M 0.18845,-0.018949 A 0.0029500000000000077,3.0407561218250254e-07 3.559274347878471e-23 0,1 0.18255,-0.018949" />
      <path d="M 0.18255,-0.018949 A 0.0029500000000000077,3.0407561218250254e-07 3.559274347878471e-23 1,1 0.18845,-0.018949" />
      <line x1="0.20545" y1="-0.021449" x2="0.20545" y2="-0.018949" />
      <path d="M 0.20545,-0.018949 A 0.00295,3.0407561218250174e-07 3.559274347878471e-23 0,1 0.19955,-0.018949" />
      <path d="M 0.19955,-0.018949 A 0.00295,3.0407561218250174e-07 3.559274347878471e-23 1,1 0.20545,-0.018949" />
      <line x1="0.22245" y1="-0.021449" x2="0.22245" y2="-0.018949" />
      <path d="M 0.22245,-0.018949 A 0.0029500000000000077,3.0407561218250254e-07 3.559274347878471e-23 0,1 0.21655,-0.018949" />
      <path d="M 0.21655,-0.018949 A 0.0029500000000000077,3.0407561218250254e-07 3.559274347878471e-23 1,1 0.22245,-0.018949" />
      <line x1="0.1795" y1="-0.016599" x2="0.2255" y2="-0.016599" />
      <line x1="0.225501" y1="-0.016601" x2="0.2255" y2="-0.016599" />
      <line x1="0.179501" y1="-0.016601" x2="0.225501" y2="-0.016601" />
      <path d="M 0.187201,-0.016601 A 0.001700000000000007,1.752300138000865e-07 3.559274347878471e-23 0,1 0.183801,-0.016601" />
      <path d="M 0.183801,-0.016601 A 0.001700000000000007,1.752300138000865e-07 3.559274347878471e-23 1,1 0.187201,-0.016601" />
      <path d="M 0.204201,-0.016601 A 0.0017,1.7523001380008576e-07 3.559274347878471e-23 0,1 0.200801,-0.016601" />
      <path d="M 0.200801,-0.016601 A 0.0017,1.7523001380008576e-07 3.559274347878471e-23 1,1 0.204201,-0.016601" />
      <path d="M 0.221201,-0.016601 A 0.001700000000000007,1.752300138000865e-07 3.559274347878471e-23 0,1 0.217801,-0.016601" />
      <path d="M 0.217801,-0.016601 A 0.001700000000000007,1.752300138000865e-07 3.559274347878471e-23 1,1 0.221201,-0.016601" />
      <path d="M 0.1872,-0.016599 A 0.001700000000000007,1.752300138000865e-07 3.559274347878471e-23 0,1 0.1838,-0.016599" />
      <path d="M 0.1838,-0.016599 A 0.001700000000000007,1.752300138000865e-07 3.559274347878471e-23 1,1 0.1872,-0.016599" />
      <path d="M 0.2042,-0.016599 A 0.0017,1.7523001380008576e-07 3.559274347878471e-23 0,1 0.2008,-0.016599" />
      <path d="M 0.2008,-0.016599 A 0.0017,1.7523001380008576e-07 3.559274347878471e-23 1,1 0.2042,-0.016599" />
      <path d="M 0.2212,-0.016599 A 0.001700000000000007,1.752300138000865e-07 3.559274347878471e-23 0,1 0.2178,-0.016599" />
      <path d="M 0.2178,-0.016599 A 0.001700000000000007,1.752300138000865e-07 3.559274347878471e-23 1,1 0.2212,-0.016599" />
      <line x1="0.179501" y1="0.019799" x2="0.1795" y2="0.019801" />
      <line x1="0.1795" y1="-0.016599" x2="0.1795" y2="0.019801" />
      <line x1="0.179501" y1="-0.016601" x2="0.179501" y2="0.019799" />
      <path d="M 0.187201,-0.018951 A 0.001700000000000007,1.752300138000865e-07 3.559274347878471e-23 0,1 0.183801,-0.018951" />
      <path d="M 0.183801,-0.018951 A 0.001700000000000007,1.752300138000865e-07 3.559274347878471e-23 1,1 0.187201,-0.018951" />
      <path d="M 0.204201,-0.018951 A 0.0017,1.7523001380008576e-07 3.559274347878471e-23 0,1 0.200801,-0.018951" />
      <path d="M 0.200801,-0.018951 A 0.0017,1.7523001380008576e-07 3.559274347878471e-23 1,1 0.204201,-0.018951" />
      <path d="M 0.221201,-0.018951 A 0.001700000000000007,1.752300138000865e-07 3.559274347878471e-23 0,1 0.217801,-0.018951" />
      <path d="M 0.217801,-0.018951 A 0.001700000000000007,1.752300138000865e-07 3.559274347878471e-23 1,1 0.221201,-0.018951" />
      <path d="M 0.1872,-0.018949 A 0.001700000000000007,1.752300138000865e-07 3.559274347878471e-23 0,1 0.1838,-0.018949" />
      <path d="M 0.1838,-0.018949 A 0.001700000000000007,1.752300138000865e-07 3.559274347878471e-23 1,1 0.1872,-0.018949" />
      <path d="M 0.2042,-0.018949 A 0.0017,1.7523001380008576e-07 3.559274347878471e-23 0,1 0.2008,-0.018949" />
      <path d="M 0.2008,-0.018949 A 0.0017,1.7523001380008576e-07 3.559274347878471e-23 1,1 0.2042,-0.018949" />
      <path d="M 0.2212,-0.018949 A 0.001700000000000007,1.752300138000865e-07 3.559274347878471e-23 0,1 0.2178,-0.018949" />
      <path d="M 0.2178,-0.018949 A 0.001700000000000007,1.752300138000865e-07 3.559274347878471e-23 1,1 0.2212,-0.018949" />
      <line x1="0.2255" y1="-0.016599" x2="0.2255" y2="0.019801" />
      <line x1="0.1795" y1="0.019801" x2="0.2255" y2="0.019801" />
      <line x1="0.225501" y1="-0.016601" x2="0.225501" y2="0.019799" />
      <line x1="0.225501" y1="0.019799" x2="0.2255" y2="0.019801" />
      <line x1="0.179501" y1="0.019799" x2="0.225501" y2="0.019799" />
      <line x1="0.187201" y1="-0.018951" x2="0.187201" y2="-0.016601" />
      <line x1="0.204201" y1="-0.018951" x2="0.204201" y2="-0.016601" />
      <line x1="0.221201" y1="-0.018951" x2="0.221201" y2="-0.016601" />
      <line x1="0.1872" y1="-0.018949" x2="0.1872" y2="-0.016599" />
      <line x1="0.2042" y1="-0.018949" x2="0.2042" y2="-0.016599" />
      <line x1="0.2212" y1="-0.018949" x2="0.2212" y2="-0.016599" />
      <line x1="0.182551" y1="-0.021451" x2="0.182551" y2="-0.018951" />
      <line x1="0.199551" y1="-0.021451" x2="0.199551" y2="-0.018951" />
      <line x1="0.216551" y1="-0.021451" x2="0.216551" y2="-0.018951" />
      <line x1="0.18255" y1="-0.021449" x2="0.18255" y2="-0.018949" />
      <line x1="0.19955" y1="-0.021449" x2="0.19955" y2="-0.018949" />
      <line x1="0.21655" y1="-0.021449" x2="0.21655" y2="-0.018949" />
      <line x1="0.183801" y1="-0.018951" x2="0.183801" y2="-0.016601" />
      <line x1="0.200801" y1="-0.018951" x2="0.200801" y2="-0.016601" />
      <line x1="0.217801" y1="-0.018951" x2="0.217801" y2="-0.016601" />
      <line x1="0.1838" y1="-0.018949" x2="0.1838" y2="-0.016599" />
      <line x1="0.2008" y1="-0.018949" x2="0.2008" y2="-0.016599" />
      <line x1="0.2178" y1="-0.018949" x2="0.2178" y2="-0.016599" />
      <line x1="0.236001" y1="-0.021447" x2="0.236001" y2="0.022303" />
      <line x1="0.236001" y1="-0.021447" x2="0.266401" y2="-0.021447" />
      <line x1="0.266401" y1="-0.021447" x2="0.266401" y2="0.022303" />
      <line x1="0.255751" y1="-0.020097" x2="0.246651" y2="-0.020097" />
      <line x1="0.255751" y1="-0.020097" x2="0.255751" y2="-0.012497" />
      <line x1="0.255751" y1="-0.012497" x2="0.246651" y2="-0.012497" />
      <line x1="0.246651" y1="-0.020097" x2="0.246651" y2="-0.012497" />
      <line x1="0.236001" y1="-0.021447" x2="0.236001" y2="-0.021453" />
      <line x1="0.266401" y1="-0.021447" x2="0.266401" y2="-0.021453" />
      <path d="M 0.240951,-0.021449 A 0.005069974359846473,5.226054012508853e-07 -2.72262813742839e-38 0,1 0.243901,-0.021448" />
      <path d="M 0.243901,-0.021448 A 0.0029500000000000077,3.040816036270449e-07 -2.72262813742839e-38 0,1 0.238001,-0.021448" />
      <path d="M 0.238001,-0.021448 A 0.005069974359846473,5.226054012508853e-07 -2.72262813742839e-38 0,1 0.240951,-0.021449" />
      <path d="M 0.240951,-0.02145 A 0.00295,3.040816036270441e-07 -2.72262813742839e-38 0,1 0.243901,-0.02145" />
      <path d="M 0.243901,-0.02145 A 0.0029500000000000077,3.040816036270449e-07 -2.72262813742839e-38 0,1 0.238001,-0.02145" />
      <path d="M 0.238001,-0.02145 A 0.00295,3.040816036270441e-07 -2.72262813742839e-38 0,1 0.240951,-0.02145" />
      <path d="M 0.240951,-0.021452 A 0.00295,3.040816036270441e-07 -2.72262813742839e-38 0,1 0.243901,-0.021452" />
      <path d="M 0.243901,-0.021452 A 0.0029500000000000077,3.040816036270449e-07 -2.72262813742839e-38 0,1 0.238001,-0.021452" />
      <path d="M 0.238001,-0.021452 A 0.00295,3.040816036270441e-07 -2.72262813742839e-38 0,1 0.240951,-0.021452" />
      <path d="M 0.261451,-0.021449 A 0.005069974359846473,5.226054012508853e-07 -2.72262813742839e-38 0,1 0.264401,-0.021448" />
      <path d="M 0.264401,-0.021448 A 0.0029500000000000077,3.040816036270449e-07 -2.72262813742839e-38 0,1 0.258501,-0.021448" />
      <path d="M 0.258501,-0.021448 A 0.005069974359846473,5.226054012508853e-07 -2.72262813742839e-38 0,1 0.261451,-0.021449" />
      <path d="M 0.261451,-0.02145 A 0.00295,3.040816036270441e-07 -2.72262813742839e-38 0,1 0.264401,-0.02145" />
      <path d="M 0.264401,-0.02145 A 0.0029500000000000077,3.040816036270449e-07 -2.72262813742839e-38 0,1 0.258501,-0.02145" />
      <path d="M 0.258501,-0.02145 A 0.00295,3.040816036270441e-07 -2.72262813742839e-38 0,1 0.261451,-0.02145" />
      <path d="M 0.261451,-0.021452 A 0.00295,3.040816036270441e-07 -2.72262813742839e-38 0,1 0.264401,-0.021452" />
      <path d="M 0.264401,-0.021452 A 0.0029500000000000077,3.040816036270449e-07 -2.72262813742839e-38 0,1 0.258501,-0.021452" />
      <path d="M 0.258501,-0.021452 A 0.00295,3.040816036270441e-07 -2.72262813742839e-38 0,1 0.261451,-0.021452" />
      <line x1="0.246651" y1="-0.020098" x2="0.255751" y2="-0.020098" />
      <line x1="0.255751" y1="-0.020098" x2="0.255751" y2="-0.016598" />
      <line x1="0.255751" y1="-0.016598" x2="0.255751" y2="-0.012498" />
      <line x1="0.255751" y1="-0.012498" x2="0.246651" y2="-0.012498" />
      <line x1="0.246651" y1="-0.020098" x2="0.246651" y2="-0.016598" />
      <line x1="0.246651" y1="-0.016598" x2="0.246651" y2="-0.012498" />
      <path d="M 0.240951,-0.018949 A 0.005069974359846473,5.226054012508853e-07 -2.72262813742839e-38 0,1 0.243901,-0.018948" />
      <path d="M 0.243901,-0.018948 A 0.0029500000000000077,3.040816036270449e-07 -2.72262813742839e-38 0,1 0.238001,-0.018948" />
      <path d="M 0.238001,-0.018948 A 0.005069974359846473,5.226054012508853e-07 -2.72262813742839e-38 0,1 0.240951,-0.018949" />
      <path d="M 0.240951,-0.01895 A 0.00295,3.040816036270441e-07 -2.72262813742839e-38 0,1 0.243901,-0.01895" />
      <path d="M 0.243901,-0.01895 A 0.0029500000000000077,3.040816036270449e-07 -2.72262813742839e-38 0,1 0.238001,-0.01895" />
      <path d="M 0.238001,-0.01895 A 0.00295,3.040816036270441e-07 -2.72262813742839e-38 0,1 0.240951,-0.01895" />
      <path d="M 0.240951,-0.018952 A 0.00295,3.040816036270441e-07 -2.72262813742839e-38 0,1 0.243901,-0.018952" />
      <path d="M 0.243901,-0.018952 A 0.0029500000000000077,3.040816036270449e-07 -2.72262813742839e-38 0,1 0.238001,-0.018952" />
      <path d="M 0.238001,-0.018952 A 0.00295,3.040816036270441e-07 -2.72262813742839e-38 0,1 0.240951,-0.018952" />
      <path d="M 0.261451,-0.018949 A 0.005069974359846473,5.226054012508853e-07 -2.72262813742839e-38 0,1 0.264401,-0.018948" />
      <path d="M 0.264401,-0.018948 A 0.0029500000000000077,3.040816036270449e-07 -2.72262813742839e-38 0,1 0.258501,-0.018948" />
      <path d="M 0.258501,-0.018948 A 0.005069974359846473,5.226054012508853e-07 -2.72262813742839e-38 0,1 0.261451,-0.018949" />
      <path d="M 0.261451,-0.01895 A 0.00295,3.040816036270441e-07 -2.72262813742839e-38 0,1 0.264401,-0.01895" />
      <path d="M 0.264401,-0.01895 A 0.0029500000000000077,3.040816036270449e-07 -2.72262813742839e-38 0,1 0.258501,-0.01895" />
      <path d="M 0.258501,-0.01895 A 0.00295,3.040816036270441e-07 -2.72262813742839e-38 0,1 0.261451,-0.01895" />
      <path d="M 0.261451,-0.018952 A 0.00295,3.040816036270441e-07 -2.72262813742839e-38 0,1 0.264401,-0.018952" />
      <path d="M 0.264401,-0.018952 A 0.0029500000000000077,3.040816036270449e-07 -2.72262813742839e-38 0,1 0.258501,-0.018952" />
      <path d="M 0.258501,-0.018952 A 0.00295,3.040816036270441e-07 -2.72262813742839e-38 0,1 0.261451,-0.018952" />
      <line x1="0.246651" y1="-0.016598" x2="0.255751" y2="-0.016598" />
      <line x1="0.238501" y1="-0.016598" x2="0.246651" y2="-0.016598" />
      <line x1="0.255751" y1="-0.016598" x2="0.263901" y2="-0.016598" />
      <line x1="0.263901" y1="-0.016598" x2="0.263901" y2="-0.016602" />
      <line x1="0.238501" y1="-0.016602" x2="0.263901" y2="-0.016602" />
      <line x1="0.238501" y1="-0.016598" x2="0.238501" y2="-0.016602" />
      <path d="M 0.240951,-0.016598 A 0.0017,1.7523346649694064e-07 -2.72262813742839e-38 0,1 0.242651,-0.016598" />
      <path d="M 0.242651,-0.016598 A 0.001700000000000007,1.7523346649694138e-07 -2.72262813742839e-38 0,1 0.239251,-0.016598" />
      <path d="M 0.239251,-0.016598 A 0.0017,1.7523346649694064e-07 -2.72262813742839e-38 0,1 0.240951,-0.016598" />
      <path d="M 0.240951,-0.0166 A 0.0017,1.7523346649694064e-07 -2.72262813742839e-38 0,1 0.242651,-0.0166" />
      <path d="M 0.242651,-0.0166 A 0.001700000000000007,1.7523346649694138e-07 -2.72262813742839e-38 0,1 0.239251,-0.0166" />
      <path d="M 0.239251,-0.0166 A 0.0017,1.7523346649694064e-07 -2.72262813742839e-38 0,1 0.240951,-0.0166" />
      <path d="M 0.240951,-0.016602 A 0.0017,1.7523346649694064e-07 -2.72262813742839e-38 0,1 0.242651,-0.016602" />
      <path d="M 0.242651,-0.016602 A 0.001700000000000007,1.7523346649694138e-07 -2.72262813742839e-38 0,1 0.239251,-0.016602" />
      <path d="M 0.239251,-0.016602 A 0.0017,1.7523346649694064e-07 -2.72262813742839e-38 0,1 0.240951,-0.016602" />
      <path d="M 0.261451,-0.016598 A 0.0017,1.7523346649694064e-07 -2.72262813742839e-38 0,1 0.263151,-0.016598" />
      <path d="M 0.263151,-0.016598 A 0.001700000000000007,1.7523346649694138e-07 -2.72262813742839e-38 0,1 0.259751,-0.016598" />
      <path d="M 0.259751,-0.016598 A 0.0017,1.7523346649694064e-07 -2.72262813742839e-38 0,1 0.261451,-0.016598" />
      <path d="M 0.261451,-0.0166 A 0.0017,1.7523346649694064e-07 -2.72262813742839e-38 0,1 0.263151,-0.0166" />
      <path d="M 0.263151,-0.0166 A 0.001700000000000007,1.7523346649694138e-07 -2.72262813742839e-38 0,1 0.259751,-0.0166" />
      <path d="M 0.259751,-0.0166 A 0.0017,1.7523346649694064e-07 -2.72262813742839e-38 0,1 0.261451,-0.0166" />
      <path d="M 0.261451,-0.016602 A 0.0017,1.7523346649694064e-07 -2.72262813742839e-38 0,1 0.263151,-0.016602" />
      <path d="M 0.263151,-0.016602 A 0.001700000000000007,1.7523346649694138e-07 -2.72262813742839e-38 0,1 0.259751,-0.016602" />
      <path d="M 0.259751,-0.016602 A 0.0017,1.7523346649694064e-07 -2.72262813742839e-38 0,1 0.261451,-0.016602" />
      <line x1="0.238501" y1="0.019802" x2="0.263901" y2="0.019802" />
      <line x1="0.263901" y1="-0.016598" x2="0.263901" y2="0.019802" />
      <line x1="0.238501" y1="-0.016598" x2="0.238501" y2="0.019802" />
      <path d="M 0.240951,-0.018948 A 0.0017,1.7523346649694064e-07 -2.72262813742839e-38 0,1 0.242651,-0.018948" />
      <path d="M 0.242651,-0.018948 A 0.001700000000000007,1.7523346649694138e-07 -2.72262813742839e-38 0,1 0.239251,-0.018948" />
      <path d="M 0.239251,-0.018948 A 0.0017,1.7523346649694064e-07 -2.72262813742839e-38 0,1 0.240951,-0.018948" />
      <path d="M 0.240951,-0.01895 A 0.0017,1.7523346649694064e-07 -2.72262813742839e-38 0,1 0.242651,-0.01895" />
      <path d="M 0.242651,-0.01895 A 0.001700000000000007,1.7523346649694138e-07 -2.72262813742839e-38 0,1 0.239251,-0.01895" />
      <path d="M 0.239251,-0.01895 A 0.0017,1.7523346649694064e-07 -2.72262813742839e-38 0,1 0.240951,-0.01895" />
      <path d="M 0.240951,-0.018952 A 0.0017,1.7523346649694064e-07 -2.72262813742839e-38 0,1 0.242651,-0.018952" />
      <path d="M 0.242651,-0.018952 A 0.001700000000000007,1.7523346649694138e-07 -2.72262813742839e-38 0,1 0.239251,-0.018952" />
      <path d="M 0.239251,-0.018952 A 0.0017,1.7523346649694064e-07 -2.72262813742839e-38 0,1 0.240951,-0.018952" />
      <path d="M 0.261451,-0.018948 A 0.0017,1.7523346649694064e-07 -2.72262813742839e-38 0,1 0.263151,-0.018948" />
      <path d="M 0.263151,-0.018948 A 0.001700000000000007,1.7523346649694138e-07 -2.72262813742839e-38 0,1 0.259751,-0.018948" />
      <path d="M 0.259751,-0.018948 A 0.0017,1.7523346649694064e-07 -2.72262813742839e-38 0,1 0.261451,-0.018948" />
      <path d="M 0.261451,-0.01895 A 0.0017,1.7523346649694064e-07 -2.72262813742839e-38 0,1 0.263151,-0.01895" />
      <path d="M 0.263151,-0.01895 A 0.001700000000000007,1.7523346649694138e-07 -2.72262813742839e-38 0,1 0.259751,-0.01895" />
      <path d="M 0.259751,-0.01895 A 0.0017,1.7523346649694064e-07 -2.72262813742839e-38 0,1 0.261451,-0.01895" />
      <path d="M 0.261451,-0.018952 A 0.0017,1.7523346649694064e-07 -2.72262813742839e-38 0,1 0.263151,-0.018952" />
      <path d="M 0.263151,-0.018952 A 0.001700000000000007,1.7523346649694138e-07 -2.72262813742839e-38 0,1 0.259751,-0.018952" />
      <path d="M 0.259751,-0.018952 A 0.0017,1.7523346649694064e-07 -2.72262813742839e-38 0,1 0.261451,-0.018952" />
      <line x1="0.263901" y1="-0.016602" x2="0.263901" y2="0.019798" />
      <line x1="0.263901" y1="0.019802" x2="0.263901" y2="0.019798" />
      <line x1="0.238501" y1="-0.016602" x2="0.238501" y2="0.019798" />
      <line x1="0.238501" y1="0.019798" x2="0.263901" y2="0.019798" />
      <line x1="0.238501" y1="0.019802" x2="0.238501" y2="0.019798" />
      <line x1="0.243901" y1="-0.021448" x2="0.243901" y2="-0.018948" />
      <line x1="0.238001" y1="-0.021448" x2="0.238001" y2="-0.018948" />
      <line x1="0.243901" y1="-0.02145" x2="0.243901" y2="-0.01895" />
      <line x1="0.238001" y1="-0.02145" x2="0.238001" y2="-0.01895" />
      <line x1="0.243901" y1="-0.021452" x2="0.243901" y2="-0.018952" />
      <line x1="0.238001" y1="-0.021452" x2="0.238001" y2="-0.018952" />
      <line x1="0.264401" y1="-0.021448" x2="0.264401" y2="-0.018948" />
      <line x1="0.258501" y1="-0.021448" x2="0.258501" y2="-0.018948" />
      <line x1="0.264401" y1="-0.02145" x2="0.264401" y2="-0.01895" />
      <line x1="0.258501" y1="-0.02145" x2="0.258501" y2="-0.01895" />
      <line x1="0.264401" y1="-0.021452" x2="0.264401" y2="-0.018952" />
      <line x1="0.258501" y1="-0.021452" x2="0.258501" y2="-0.018952" />
      <line x1="0.242651" y1="-0.018948" x2="0.242651" y2="-0.016598" />
      <line x1="0.239251" y1="-0.018948" x2="0.239251" y2="-0.016598" />
      <line x1="0.242651" y1="-0.01895" x2="0.242651" y2="-0.0166" />
      <line x1="0.239251" y1="-0.01895" x2="0.239251" y2="-0.0166" />
      <line x1="0.242651" y1="-0.018952" x2="0.242651" y2="-0.016602" />
      <line x1="0.239251" y1="-0.018952" x2="0.239251" y2="-0.016602" />
      <line x1="0.263151" y1="-0.018948" x2="0.263151" y2="-0.016598" />
      <line x1="0.259751" y1="-0.018948" x2="0.259751" y2="-0.016598" />
      <line x1="0.263151" y1="-0.01895" x2="0.263151" y2="-0.0166" />
      <line x1="0.259751" y1="-0.01895" x2="0.259751" y2="-0.0166" />
      <line x1="0.263151" y1="-0.018952" x2="0.263151" y2="-0.016602" />
      <line x1="0.259751" y1="-0.018952" x2="0.259751" y2="-0.016602" />
    </g>
  </g>
  <text x="0.025500" y="-0.027978" text-anchor="middle" font-family="'Input Sans Narrow', 'DejaVu Sans', Arial, sans-serif" font-size="0.002500" font-weight="bold" fill="#333">A-A</text>
  <text x="0.025500" y="-0.024478" text-anchor="middle" font-family="'Input Sans Narrow', 'DejaVu Sans', Arial, sans-serif" font-size="0.001800" fill="#888">top_shaft</text>
  <line x1="0.000000" y1="0.016000" x2="0.000000" y2="0.019000" stroke="#5C7080" stroke-width="0.000140" stroke-opacity="0.5"/>
  <line x1="0.051000" y1="0.016000" x2="0.051000" y2="0.019000" stroke="#5C7080" stroke-width="0.000140" stroke-opacity="0.5"/>
  <line x1="0.000000" y1="0.017400" x2="0.000000" y2="0.019000" stroke="#5C7080" stroke-width="0.000200"/>
  <line x1="0.051000" y1="0.017400" x2="0.051000" y2="0.019000" stroke="#5C7080" stroke-width="0.000200"/>
  <line x1="0.000000" y1="0.018200" x2="0.051000" y2="0.018200" stroke="#5C7080" stroke-width="0.000200"/>
  <polygon points="0.000000,0.018200 0.001500,0.017600 0.001500,0.018800" fill="#5C7080"/>
  <polygon points="0.051000,0.018200 0.049500,0.017600 0.049500,0.018800" fill="#5C7080"/>
  <text x="0.025500" y="0.017000" text-anchor="middle" font-family="'Input Sans Narrow', 'DejaVu Sans', Arial, sans-serif" font-size="0.001600" fill="#5C7080">51.0</text>
  <line x1="0.051800" y1="-0.015200" x2="0.054800" y2="-0.015200" stroke="#5C7080" stroke-width="0.000140" stroke-opacity="0.5"/>
  <line x1="0.051800" y1="0.015200" x2="0.054800" y2="0.015200" stroke="#5C7080" stroke-width="0.000140" stroke-opacity="0.5"/>
  <line x1="0.053200" y1="-0.015200" x2="0.054800" y2="-0.015200" stroke="#5C7080" stroke-width="0.000200"/>
  <line x1="0.053200" y1="0.015200" x2="0.054800" y2="0.015200" stroke="#5C7080" stroke-width="0.000200"/>
  <line x1="0.054000" y1="-0.015200" x2="0.054000" y2="0.015200" stroke="#5C7080" stroke-width="0.000200"/>
  <polygon points="0.054000,-0.015200 0.053400,-0.013700 0.054600,-0.013700" fill="#5C7080"/>
  <polygon points="0.054000,0.015200 0.053400,0.013700 0.054600,0.013700" fill="#5C7080"/>
  <text x="0.055500" y="-0.000000" text-anchor="middle" dominant-baseline="central" font-family="'Input Sans Narrow', 'DejaVu Sans', Arial, sans-serif" font-size="0.001600" fill="#5C7080" transform="rotate(-90 0.055500 -0.000000)">30.4</text>
  <text x="0.084500" y="-0.027978" text-anchor="middle" font-family="'Input Sans Narrow', 'DejaVu Sans', Arial, sans-serif" font-size="0.002500" font-weight="bold" fill="#333">B-B</text>
  <text x="0.084500" y="-0.024478" text-anchor="middle" font-family="'Input Sans Narrow', 'DejaVu Sans', Arial, sans-serif" font-size="0.001800" fill="#888">mid_body</text>
  <text x="0.143500" y="-0.027978" text-anchor="middle" font-family="'Input Sans Narrow', 'DejaVu Sans', Arial, sans-serif" font-size="0.002500" font-weight="bold" fill="#333">C-C</text>
  <text x="0.143500" y="-0.024478" text-anchor="middle" font-family="'Input Sans Narrow', 'DejaVu Sans', Arial, sans-serif" font-size="0.001800" fill="#888">ears</text>
  <text x="0.202500" y="-0.027978" text-anchor="middle" font-family="'Input Sans Narrow', 'DejaVu Sans', Arial, sans-serif" font-size="0.002500" font-weight="bold" fill="#333">side_XZ</text>
  <line x1="0.177000" y1="0.022252" x2="0.177000" y2="0.025252" stroke="#5C7080" stroke-width="0.000140" stroke-opacity="0.5"/>
  <line x1="0.228001" y1="0.022252" x2="0.228001" y2="0.025252" stroke="#5C7080" stroke-width="0.000140" stroke-opacity="0.5"/>
  <line x1="0.177000" y1="0.023652" x2="0.177000" y2="0.025252" stroke="#5C7080" stroke-width="0.000200"/>
  <line x1="0.228001" y1="0.023652" x2="0.228001" y2="0.025252" stroke="#5C7080" stroke-width="0.000200"/>
  <line x1="0.177000" y1="0.024452" x2="0.228001" y2="0.024452" stroke="#5C7080" stroke-width="0.000200"/>
  <polygon points="0.177000,0.024452 0.178500,0.023852 0.178500,0.025052" fill="#5C7080"/>
  <polygon points="0.228001,0.024452 0.226501,0.023852 0.226501,0.025052" fill="#5C7080"/>
  <text x="0.202500" y="0.023252" text-anchor="middle" font-family="'Input Sans Narrow', 'DejaVu Sans', Arial, sans-serif" font-size="0.001600" fill="#5C7080">51.0</text>
  <line x1="0.228801" y1="-0.022302" x2="0.231801" y2="-0.022302" stroke="#5C7080" stroke-width="0.000140" stroke-opacity="0.5"/>
  <line x1="0.228801" y1="0.021452" x2="0.231801" y2="0.021452" stroke="#5C7080" stroke-width="0.000140" stroke-opacity="0.5"/>
  <line x1="0.230201" y1="-0.022302" x2="0.231801" y2="-0.022302" stroke="#5C7080" stroke-width="0.000200"/>
  <line x1="0.230201" y1="0.021452" x2="0.231801" y2="0.021452" stroke="#5C7080" stroke-width="0.000200"/>
  <line x1="0.231001" y1="-0.022302" x2="0.231001" y2="0.021452" stroke="#5C7080" stroke-width="0.000200"/>
  <polygon points="0.231001,-0.022302 0.230401,-0.020802 0.231601,-0.020802" fill="#5C7080"/>
  <polygon points="0.231001,0.021452 0.230401,0.019952 0.231601,0.019952" fill="#5C7080"/>
  <text x="0.232501" y="-0.000425" text-anchor="middle" dominant-baseline="central" font-family="'Input Sans Narrow', 'DejaVu Sans', Arial, sans-serif" font-size="0.001600" fill="#5C7080" transform="rotate(-90 0.232501 -0.000425)">43.8</text>
  <line x1="0.174000" y1="-0.016300" x2="0.231001" y2="-0.016300" stroke="#555" stroke-width="0.000250" stroke-dasharray="0.002500,0.000800,0.000500,0.000800"/>
  <text x="0.172500" y="-0.015700" text-anchor="end" font-family="'Input Sans Narrow', 'DejaVu Sans', Arial, sans-serif" font-size="0.002000" font-weight="bold" fill="#555">A</text>
  <text x="0.232501" y="-0.015700" text-anchor="start" font-family="'Input Sans Narrow', 'DejaVu Sans', Arial, sans-serif" font-size="0.002000" font-weight="bold" fill="#555">A</text>
  <line x1="0.174000" y1="-0.000000" x2="0.231001" y2="-0.000000" stroke="#555" stroke-width="0.000250" stroke-dasharray="0.002500,0.000800,0.000500,0.000800"/>
  <text x="0.172500" y="0.000600" text-anchor="end" font-family="'Input Sans Narrow', 'DejaVu Sans', Arial, sans-serif" font-size="0.002000" font-weight="bold" fill="#555">B</text>
  <text x="0.232501" y="0.000600" text-anchor="start" font-family="'Input Sans Narrow', 'DejaVu Sans', Arial, sans-serif" font-size="0.002000" font-weight="bold" fill="#555">B</text>
  <line x1="0.174000" y1="0.017350" x2="0.231001" y2="0.017350" stroke="#555" stroke-width="0.000250" stroke-dasharray="0.002500,0.000800,0.000500,0.000800"/>
  <text x="0.172500" y="0.017950" text-anchor="end" font-family="'Input Sans Narrow', 'DejaVu Sans', Arial, sans-serif" font-size="0.002000" font-weight="bold" fill="#555">C</text>
  <text x="0.232501" y="0.017950" text-anchor="start" font-family="'Input Sans Narrow', 'DejaVu Sans', Arial, sans-serif" font-size="0.002000" font-weight="bold" fill="#555">C</text>
  <text x="0.251201" y="-0.027978" text-anchor="middle" font-family="'Input Sans Narrow', 'DejaVu Sans', Arial, sans-serif" font-size="0.002500" font-weight="bold" fill="#333">side_YZ</text>
  <line x1="0.236001" y1="0.022253" x2="0.236001" y2="0.025253" stroke="#5C7080" stroke-width="0.000140" stroke-opacity="0.5"/>
  <line x1="0.266401" y1="0.022253" x2="0.266401" y2="0.025253" stroke="#5C7080" stroke-width="0.000140" stroke-opacity="0.5"/>
  <line x1="0.236001" y1="0.023653" x2="0.236001" y2="0.025253" stroke="#5C7080" stroke-width="0.000200"/>
  <line x1="0.266401" y1="0.023653" x2="0.266401" y2="0.025253" stroke="#5C7080" stroke-width="0.000200"/>
  <line x1="0.236001" y1="0.024453" x2="0.266401" y2="0.024453" stroke="#5C7080" stroke-width="0.000200"/>
  <polygon points="0.236001,0.024453 0.237501,0.023853 0.237501,0.025053" fill="#5C7080"/>
  <polygon points="0.266401,0.024453 0.264901,0.023853 0.264901,0.025053" fill="#5C7080"/>
  <text x="0.251201" y="0.023253" text-anchor="middle" font-family="'Input Sans Narrow', 'DejaVu Sans', Arial, sans-serif" font-size="0.001600" fill="#5C7080">30.4</text>
  <line x1="0.267201" y1="-0.022303" x2="0.270201" y2="-0.022303" stroke="#5C7080" stroke-width="0.000140" stroke-opacity="0.5"/>
  <line x1="0.267201" y1="0.021453" x2="0.270201" y2="0.021453" stroke="#5C7080" stroke-width="0.000140" stroke-opacity="0.5"/>
  <line x1="0.268601" y1="-0.022303" x2="0.270201" y2="-0.022303" stroke="#5C7080" stroke-width="0.000200"/>
  <line x1="0.268601" y1="0.021453" x2="0.270201" y2="0.021453" stroke="#5C7080" stroke-width="0.000200"/>
  <line x1="0.269401" y1="-0.022303" x2="0.269401" y2="0.021453" stroke="#5C7080" stroke-width="0.000200"/>
  <polygon points="0.269401,-0.022303 0.268801,-0.020803 0.270001,-0.020803" fill="#5C7080"/>
  <polygon points="0.269401,0.021453 0.268801,0.019953 0.270001,0.019953" fill="#5C7080"/>
  <text x="0.270901" y="-0.000425" text-anchor="middle" dominant-baseline="central" font-family="'Input Sans Narrow', 'DejaVu Sans', Arial, sans-serif" font-size="0.001600" fill="#5C7080" transform="rotate(-90 0.270901 -0.000425)">43.8</text>
  <line x1="0.233001" y1="-0.016300" x2="0.269401" y2="-0.016300" stroke="#555" stroke-width="0.000250" stroke-dasharray="0.002500,0.000800,0.000500,0.000800"/>
  <text x="0.231501" y="-0.015700" text-anchor="end" font-family="'Input Sans Narrow', 'DejaVu Sans', Arial, sans-serif" font-size="0.002000" font-weight="bold" fill="#555">A</text>
  <text x="0.270901" y="-0.015700" text-anchor="start" font-family="'Input Sans Narrow', 'DejaVu Sans', Arial, sans-serif" font-size="0.002000" font-weight="bold" fill="#555">A</text>
  <line x1="0.233001" y1="-0.000000" x2="0.269401" y2="-0.000000" stroke="#555" stroke-width="0.000250" stroke-dasharray="0.002500,0.000800,0.000500,0.000800"/>
  <text x="0.231501" y="0.000600" text-anchor="end" font-family="'Input Sans Narrow', 'DejaVu Sans', Arial, sans-serif" font-size="0.002000" font-weight="bold" fill="#555">B</text>
  <text x="0.270901" y="0.000600" text-anchor="start" font-family="'Input Sans Narrow', 'DejaVu Sans', Arial, sans-serif" font-size="0.002000" font-weight="bold" fill="#555">B</text>
  <line x1="0.233001" y1="0.017350" x2="0.269401" y2="0.017350" stroke="#555" stroke-width="0.000250" stroke-dasharray="0.002500,0.000800,0.000500,0.000800"/>
  <text x="0.231501" y="0.017950" text-anchor="end" font-family="'Input Sans Narrow', 'DejaVu Sans', Arial, sans-serif" font-size="0.002000" font-weight="bold" fill="#555">C</text>
  <text x="0.270901" y="0.017950" text-anchor="start" font-family="'Input Sans Narrow', 'DejaVu Sans', Arial, sans-serif" font-size="0.002000" font-weight="bold" fill="#555">C</text>
  <text x="-0.001175" y="0.029627" font-family="'Input Sans Narrow', 'DejaVu Sans', Arial, sans-serif" font-size="0.003500" font-weight="bold" fill="#222">pocket_bracket</text>
  <line x1="-0.001175" y1="0.033627" x2="0.008825" y2="0.033627" stroke="#333" stroke-width="0.000350"/>
  <line x1="-0.001175" y1="0.032627" x2="-0.001175" y2="0.034627" stroke="#333" stroke-width="0.000250"/>
  <line x1="0.008825" y1="0.032627" x2="0.008825" y2="0.034627" stroke="#333" stroke-width="0.000250"/>
  <text x="0.010325" y="0.034327" font-family="'Input Sans Narrow', 'DejaVu Sans', Arial, sans-serif" font-size="0.001800" fill="#888">10 mm</text>
  <rect x="0.028825" y="0.027127" width="0.004000" height="0.002500" fill="url(#hatch_servo)" stroke="rgb(60,60,60)" stroke-width="0.000300"/>
  <text x="0.034325" y="0.029127" font-family="'Input Sans Narrow', 'DejaVu Sans', Arial, sans-serif" font-size="0.001800" fill="rgb(60,60,60)">servo</text>
  <rect x="0.028825" y="0.030627" width="0.004000" height="0.002500" fill="url(#hatch_bracket)" stroke="rgb(50,120,190)" stroke-width="0.000300"/>
  <text x="0.034325" y="0.032627" font-family="'Input Sans Narrow', 'DejaVu Sans', Arial, sans-serif" font-size="0.001800" fill="rgb(50,120,190)">bracket</text>
</svg>