<?xml version='1.0' encoding='utf-8'?>
<svg width="285.00mm" height="70.96mm" viewBox="-0.003175 -0.028675 0.285001 0.070961" version="1.1" xmlns="http://www.w3.org/2000/svg">
  <defs>
    <pattern id="hatch_servo" width="0.0012" height="0.0012" patternUnits="userSpaceOnUse" patternTransform="rotate(45)">
      <line x1="0" y1="0" x2="0" y2="0.0012" stroke="rgb(60,60,60)" stroke-width="0.0001" stroke-opacity="0.6"/>
    </pattern>
    <pattern id="hatch_bracket" width="0.0012" height="0.0012" patternUnits="userSpaceOnUse" patternTransform="rotate(75)">
      <line x1="0" y1="0" x2="0" y2="0.0012" stroke="rgb(50,120,190)" stroke-width="0.0001" stroke-opacity="0.6"/>
    </pattern>
  </defs>
  <g transform="scale(1,-1)" stroke-linecap="round">
    <g fill="none" stroke="rgb(60,60,60)" stroke-width="0.00035" id="servo">
      <path d="M 0.007215,0.0124 A 0.004,0.004 180.0 0,1 0.003215,0.0084" />
      <line x1="0.007215" y1="0.0124" x2="0.044615" y2="0.0124" />
      <path d="M 0.048615,0.0084 A 0.004,0.004 0.0 0,1 0.044615,0.0124" />
      <line x1="0.048615" y1="0.0084" x2="0.048615" y2="-0.0084" />
      <path d="M 0.044615,-0.0124 A 0.004,0.004 0.0 0,1 0.048615,-0.0084" />
      <line x1="0.007215" y1="-0.0124" x2="0.044615" y2="-0.0124" />
      <path d="M 0.003215,-0.0084 A 0.004,0.004 180.0 0,1 0.007215,-0.0124" />
      <line x1="0.003215" y1="0.0084" x2="0.003215" y2="-0.0084" />
      <path d="M 0.067045,0.0124 A 0.004,0.004 180.0 0,1 0.063045,0.0084" />
      <line x1="0.067045" y1="0.0124" x2="0.104445" y2="0.0124" />
      <path d="M 0.108445,0.0084 A 0.004,0.004 0.0 0,1 0.104445,0.0124" />
      <line x1="0.108445" y1="0.0084" x2="0.108445" y2="-0.0084" />
      <path d="M 0.104445,-0.0124 A 0.004,0.004 0.0 0,1 0.108445,-0.0084" />
      <line x1="0.067045" y1="-0.0124" x2="0.104445" y2="-0.0124" />
      <path d="M 0.063045,-0.0084 A 0.004,0.004 180.0 0,1 0.067045,-0.0124" />
      <line x1="0.063045" y1="0.0084" x2="0.063045" y2="-0.0084" />
      <line x1="0.140625" y1="-0.00705" x2="0.134525" y2="-0.00705" />
      <line x1="0.134525" y1="-0.00705" x2="0.134525" y2="0.00705" />
      <line x1="0.140625" y1="0.00705" x2="0.134525" y2="0.00705" />
      <line x1="0.140625" y1="-0.00705" x2="0.140625" y2="0.00705" />
      <line x1="0.139925" y1="-0.00635" x2="0.139925" y2="-0.00205" />
      <line x1="0.139925" y1="-0.00205" x2="0.135225" y2="-0.00205" />
      <line x1="0.135225" y1="-0.00635" x2="0.135225" y2="-0.00205" />
      <line x1="0.139925" y1="-0.00635" x2="0.135225" y2="-0.00635" />
      <line x1="0.139925" y1="-0.00135" x2="0.139925" y2="0.00135" />
      <line x1="0.139925" y1="0.00135" x2="0.135225" y2="0.00135" />
      <line x1="0.135225" y1="-0.00135" x2="0.135225" y2="0.00135" />
      <line x1="0.139925" y1="-0.00135" x2="0.135225" y2="-0.00135" />
      <line x1="0.139925" y1="0.00205" x2="0.135225" y2="0.00205" />
      <line x1="0.139925" y1="0.00205" x2="0.139925" y2="0.00635" />
      <line x1="0.139925" y1="0.00635" x2="0.135225" y2="0.00635" />
      <line x1="0.135225" y1="0.00205" x2="0.135225" y2="0.00635" />
      <line x1="0.124875" y1="-0.0084" x2="0.165275" y2="-0.0084" />
      <line x1="0.165275" y1="-0.0084" x2="0.165275" y2="-0.0124" />
      <line x1="0.124875" y1="-0.0124" x2="0.165275" y2="-0.0124" />
      <line x1="0.124875" y1="-0.0084" x2="0.124875" y2="-0.0124" />
      <circle cx="0.128575" cy="-0.01025" r="0.0016" />
      <circle cx="0.145575" cy="-0.01025" r="0.0016" />
      <circle cx="0.162575" cy="-0.01025" r="0.0016" />
      <line x1="0.124875" y1="0.0124" x2="0.165275" y2="0.0124" />
      <line x1="0.165275" y1="0.0124" x2="0.165275" y2="0.0084" />
      <line x1="0.124875" y1="0.0084" x2="0.165275" y2="0.0084" />
      <line x1="0.124875" y1="0.0124" x2="0.124875" y2="0.0084" />
      <circle cx="0.128575" cy="0.01025" r="0.0016" />
      <circle cx="0.145575" cy="0.01025" r="0.0016" />
      <circle cx="0.162575" cy="0.01025" r="0.0016" />
      <circle cx="0.158075" cy="0.0" r="0.003" />
      <path d="M 0.182706,-0.0163 A 0.004,6.859649272376005e-08 -3.0943866743564703e-25 0,0 0.184706,-0.0163" />
      <path d="M 0.228106,-0.0163 A 0.004,6.859649272376005e-08 180.0 0,1 0.225106,-0.0163" />
      <line x1="0.182706" y1="-0.0163" x2="0.182706" y2="0.0163" />
      <line x1="0.186706" y1="-0.0163" x2="0.186706" y2="0.0163" />
      <path d="M 0.182706,0.0163 A 0.004,6.859649272376005e-08 -3.0943866743564703e-25 0,0 0.186706,0.0163" />
      <line x1="0.184706" y1="-0.0184" x2="0.184706" y2="-0.0163" />
      <line x1="0.184705" y1="-0.0184" x2="0.184705" y2="-0.0163" />
      <line x1="0.184705" y1="-0.0184" x2="0.225105" y2="-0.0184" />
      <line x1="0.225106" y1="-0.0184" x2="0.225106" y2="-0.0163" />
      <line x1="0.228106" y1="-0.0163" x2="0.228106" y2="0.0163" />
      <line x1="0.224106" y1="-0.0163" x2="0.224106" y2="0.0163" />
      <path d="M 0.228106,0.0163 A 0.004,6.859649272376005e-08 180.0 0,1 0.224106,0.0163" />
      <line x1="0.186706" y1="0.0163" x2="0.224106" y2="0.0163" />
      <line x1="0.224106" y1="0.0163" x2="0.225906" y2="0.0163" />
      <line x1="0.184706" y1="-0.0163" x2="0.186706" y2="-0.0163" />
      <line x1="0.224106" y1="-0.0163" x2="0.225106" y2="-0.0163" />
      <line x1="0.184706" y1="-0.0184" x2="0.225106" y2="-0.0184" />
      <path d="M 0.190006,-0.0184 A 0.0016000000000000044,2.743859708950409e-08 1.2167981797335742e-24 0,0 0.186806,-0.0184" />
      <path d="M 0.186806,-0.0184 A 0.0016000000000000044,2.743859708950409e-08 1.2167981797335742e-24 1,0 0.190006,-0.0184" />
      <path d="M 0.207006,-0.0184 A 0.0016000000000000044,2.743859708950409e-08 1.2167981797335742e-24 0,0 0.203806,-0.0184" />
      <path d="M 0.203806,-0.0184 A 0.0016000000000000044,2.743859708950409e-08 1.2167981797335742e-24 1,0 0.207006,-0.0184" />
      <path d="M 0.224006,-0.0184 A 0.0016000000000000044,2.743859708950409e-08 1.2167981797335742e-24 0,0 0.220806,-0.0184" />
      <path d="M 0.220806,-0.0184 A 0.0016000000000000044,2.743859708950409e-08 1.2167981797335742e-24 1,0 0.224006,-0.0184" />
      <path d="M 0.190005,-0.0184 A 0.0016000000000000044,2.743859708950409e-08 1.2167981797335742e-24 0,0 0.186805,-0.0184" />
      <path d="M 0.186805,-0.0184 A 0.0016000000000000044,2.743859708950409e-08 1.2167981797335742e-24 1,0 0.190005,-0.0184" />
      <path d="M 0.207005,-0.0184 A 0.0016000000000000044,2.743859708950409e-08 1.2167981797335742e-24 0,0 0.203805,-0.0184" />
      <path d="M 0.203805,-0.0184 A 0.0016000000000000044,2.743859708950409e-08 1.2167981797335742e-24 1,0 0.207005,-0.0184" />
      <path d="M 0.224005,-0.0184 A 0.0016000000000000044,2.743859708950409e-08 1.2167981797335742e-24 0,0 0.220805,-0.0184" />
      <path d="M 0.220805,-0.0184 A 0.0016000000000000044,2.743859708950409e-08 1.2167981797335742e-24 1,0 0.224005,-0.0184" />
      <path d="M 0.207906,0.018 A 0.002,3.429824636188002e-08 -3.0943866743564703e-25 0,0 0.209906,0.018" />
      <line x1="0.209906" y1="0.018" x2="0.225906" y2="0.018" />
      <path d="M 0.227906,0.018 A 0.002,3.429824636188002e-08 180.0 0,1 0.225906,0.018" />
      <path d="M 0.213406,0.0195 A 0.0045,7.717105431423004e-08 1.2167981797335742e-24 0,0 0.222406,0.0195" />
      <line x1="0.207906" y1="0.0163" x2="0.207906" y2="0.018" />
      <line x1="0.209906" y1="0.0163" x2="0.209906" y2="0.018" />
      <line x1="0.225906" y1="0.0163" x2="0.225906" y2="0.018" />
      <line x1="0.227906" y1="0.0163" x2="0.227906" y2="0.018" />
      <line x1="0.222406" y1="0.018" x2="0.222406" y2="0.0195" />
      <line x1="0.213406" y1="0.018" x2="0.213406" y2="0.0195" />
      <line x1="0.247936" y1="-0.0181" x2="0.262036" y2="-0.0181" />
      <line x1="0.247936" y1="-0.0163" x2="0.247936" y2="-0.0181" />
      <line x1="0.262036" y1="-0.0163" x2="0.257986" y2="-0.0163" />
      <line x1="0.251986" y1="-0.0163" x2="0.247936" y2="-0.0163" />
      <line x1="0.262036" y1="-0.0163" x2="0.262036" y2="-0.0181" />
      <line x1="0.256336" y1="-0.0181" x2="0.253636" y2="-0.0181" />
      <line x1="0.261336" y1="-0.0181" x2="0.257036" y2="-0.0181" />
      <line x1="0.252936" y1="-0.0181" x2="0.248636" y2="-0.0181" />
      <line x1="0.242713" y1="-0.0163" x2="0.246586" y2="-0.0163" />
      <path d="M 0.246586,-0.0163 A 0.004,6.85981960184758e-08 180.0 0,1 0.242713,-0.0163" />
      <line x1="0.246586" y1="-0.0163" x2="0.263386" y2="-0.0163" />
      <path d="M 0.263386,-0.0163 A 0.004,6.85981960184758e-08 -1.4759626327786432e-40 0,0 0.267259,-0.0163" />
      <line x1="0.263386" y1="-0.0163" x2="0.267259" y2="-0.0163" />
      <path d="M 0.254986,-0.0163 A 0.003,5.1448647013856847e-08 1.2578210342278858e-40 0,0 0.257986,-0.0163" />
      <path d="M 0.251986,-0.0163 A 0.003,5.1448647013856847e-08 1.2578210342278858e-40 0,0 0.254986,-0.0163" />
      <line x1="0.242586" y1="-0.0163" x2="0.242586" y2="0.0163" />
      <line x1="0.267386" y1="0.0163" x2="0.267386" y2="-0.0163" />
      <line x1="0.246586" y1="-0.0184" x2="0.246586" y2="-0.0163" />
      <line x1="0.263386" y1="-0.0184" x2="0.263386" y2="-0.0163" />
      <line x1="0.242586" y1="-0.0184" x2="0.242586" y2="-0.0163" />
      <line x1="0.242586" y1="-0.0163" x2="0.242713" y2="-0.0163" />
      <line x1="0.242586" y1="-0.0184" x2="0.246586" y2="-0.0184" />
      <line x1="0.267259" y1="-0.0163" x2="0.267386" y2="-0.0163" />
      <line x1="0.267386" y1="-0.0184" x2="0.267386" y2="-0.0163" />
      <line x1="0.263386" y1="-0.0184" x2="0.267386" y2="-0.0184" />
      <line x1="0.246586" y1="-0.0163" x2="0.246586" y2="0.0163" />
      <line x1="0.242586" y1="-0.0163" x2="0.242586" y2="0.0163" />
      <path d="M 0.246586,0.0163 A 0.004,6.85981960184758e-08 180.0 0,1 0.242586,0.0163" />
      <line x1="0.263386" y1="0.0163" x2="0.263386" y2="-0.0163" />
      <line x1="0.267386" y1="0.0163" x2="0.267386" y2="-0.0163" />
      <path d="M 0.263386,0.0163 A 0.004,6.85981960184758e-08 -1.4759626327786432e-40 0,0 0.267386,0.0163" />
      <line x1="0.246586" y1="0.0163" x2="0.263386" y2="0.0163" />
      <path d="M 0.254986,-0.0176 A 0.003,5.1448647013856847e-08 1.2578210342278858e-40 0,0 0.257986,-0.0176" />
      <path d="M 0.257986,-0.0176 A 0.0030000000000000027,5.144864701385689e-08 1.2578210342278858e-40 0,0 0.251986,-0.0176" />
      <path d="M 0.251986,-0.0176 A 0.003,5.1448647013856847e-08 1.2578210342278858e-40 0,0 0.254986,-0.0176" />
      <path d="M 0.246586,0.0163 A 0.002,3.42990980092379e-08 180.0 0,1 0.244986,0.0163" />
      <path d="M 0.263386,0.0163 A 0.002,3.42990980092379e-08 -1.4759626327786432e-40 0,0 0.264986,0.0163" />
      <path d="M 0.244736,-0.0184 A 0.0016,2.7439278407390317e-08 1.2578210342278858e-40 0,0 0.246336,-0.0184" />
      <path d="M 0.246336,-0.0184 A 0.0016000000000000044,2.743927840739039e-08 1.2578210342278858e-40 0,0 0.243136,-0.0184" />
      <path d="M 0.243136,-0.0184 A 0.0016,2.7439278407390317e-08 1.2578210342278858e-40 0,0 0.244736,-0.0184" />
      <path d="M 0.244736,-0.0184 A 0.0016,2.7439278407390317e-08 1.2578210342278858e-40 0,0 0.246336,-0.0184" />
      <path d="M 0.246336,-0.0184 A 0.0016000000000000044,2.743927840739039e-08 1.2578210342278858e-40 0,0 0.243136,-0.0184" />
      <path d="M 0.243136,-0.0184 A 0.0016,2.7439278407390317e-08 1.2578210342278858e-40 0,0 0.244736,-0.0184" />
      <path d="M 0.244736,-0.0184 A 0.0016,2.7439278407390317e-08 1.2578210342278858e-40 0,0 0.246336,-0.0184" />
      <path d="M 0.246336,-0.0184 A 0.0016000000000000044,2.743927840739039e-08 1.2578210342278858e-40 0,0 0.243136,-0.0184" />
      <path d="M 0.243136,-0.0184 A 0.0016,2.7439278407390317e-08 1.2578210342278858e-40 0,0 0.244736,-0.0184" />
      <path d="M 0.265236,-0.0184 A 0.0016,2.7439278407390317e-08 1.2578210342278858e-40 0,0 0.266836,-0.0184" />
      <path d="M 0.266836,-0.0184 A 0.0016000000000000179,2.7439278407390622e-08 1.2578210342278858e-40 0,0 0.263636,-0.0184" />
      <path d="M 0.263636,-0.0184 A 0.0016,2.7439278407390317e-08 1.2578210342278858e-40 0,0 0.265236,-0.0184" />
      <path d="M 0.265236,-0.0184 A 0.0016,2.7439278407390317e-08 1.2578210342278858e-40 0,0 0.266836,-0.0184" />
      <path d="M 0.266836,-0.0184 A 0.0016000000000000179,2.7439278407390622e-08 1.2578210342278858e-40 0,0 0.263636,-0.0184" />
      <path d="M 0.263636,-0.0184 A 0.0016,2.7439278407390317e-08 1.2578210342278858e-40 0,0 0.265236,-0.0184" />
      <path d="M 0.265236,-0.0184 A 0.0016,2.7439278407390317e-08 1.2578210342278858e-40 0,0 0.266836,-0.0184" />
      <path d="M 0.266836,-0.0184 A 0.0016000000000000179,2.7439278407390622e-08 1.2578210342278858e-40 0,0 0.263636,-0.0184" />
      <path d="M 0.263636,-0.0184 A 0.0016,2.7439278407390317e-08 1.2578210342278858e-40 0,0 0.265236,-0.0184" />
      <line x1="0.244986" y1="0.0163" x2="0.244986" y2="0.018" />
      <path d="M 0.246986,0.018 A 0.002,3.42990980092379e-08 180.0 0,1 0.244986,0.018" />
      <line x1="0.246986" y1="0.018" x2="0.262986" y2="0.018" />
      <line x1="0.264986" y1="0.0163" x2="0.264986" y2="0.018" />
      <path d="M 0.262986,0.018 A 0.002,3.42990980092379e-08 -1.4759626327786432e-40 0,0 0.264986,0.018" />
      <path d="M 0.254986,0.0195 A 0.0045,7.717297052078526e-08 1.2578210342278858e-40 0,0 0.259486,0.0195" />
      <path d="M 0.250486,0.0195 A 0.0045,7.717297052078526e-08 1.2578210342278858e-40 0,0 0.254986,0.0195" />
      <line x1="0.246986" y1="0.0163" x2="0.246986" y2="0.018" />
      <line x1="0.262986" y1="0.0163" x2="0.262986" y2="0.018" />
      <line x1="0.257986" y1="-0.0176" x2="0.257986" y2="-0.0163" />
      <line x1="0.251986" y1="-0.0176" x2="0.251986" y2="-0.0163" />
      <line x1="0.259486" y1="0.018" x2="0.259486" y2="0.0195" />
      <line x1="0.250486" y1="0.018" x2="0.250486" y2="0.0195" />
    </g>
    <g fill="url(#hatch_servo)" stroke="none" stroke-width="0" id="servo_fill">
      <path d="M 0.007215,0.0124 A 0.004,0.004 180.0 0,1 0.003215,0.0084 L 0.003215,-0.0084 A 0.004,0.004 180.0 0,1 0.007215,-0.0124 L 0.044615,-0.0124 A 0.004,0.004 0.0 0,1 0.048615,-0.0084 L 0.048615,0.0084 A 0.004,0.004 0.0 0,1 0.044615,0.0124 L 0.007215,0.0124" />
      <path d="M 0.067045,0.0124 A 0.004,0.004 180.0 0,1 0.063045,0.0084 L 0.063045,-0.0084 A 0.004,0.004 180.0 0,1 0.067045,-0.0124 L 0.104445,-0.0124 A 0.004,0.004 0.0 0,1 0.108445,-0.0084 L 0.108445,0.0084 A 0.004,0.004 0.0 0,1 0.104445,0.0124 L 0.067045,0.0124" />
      <path d="M 0.134525,-0.00705 L 0.140625,-0.00705 L 0.140625,0.00705 L 0.134525,0.00705 L 0.134525,-0.00705 M 0.139925,-0.00205 L 0.139925,-0.00635 L 0.135225,-0.00635 L 0.135225,-0.00205 L 0.139925,-0.00205 M 0.139925,0.00135 L 0.139925,-0.00135 L 0.135225,-0.00135 L 0.135225,0.00135 L 0.139925,0.00135 M 0.139925,0.00205 L 0.135225,0.00205 L 0.135225,0.00635 L 0.139925,0.00635 L 0.139925,0.00205" />
      <path d="M 0.165275,-0.0084 L 0.124875,-0.0084 L 0.124875,-0.0124 L 0.165275,-0.0124 L 0.165275,-0.0084 M 0.130175,-0.01025 A 0.0016000000000000044,0.0016000000000000044 0.0 0,0 0.126975,-0.01025 A 0.0016000000000000044,0.0016000000000000044 0.0 0,0 0.130175,-0.01025 M 0.147175,-0.01025 A 0.0016000000000000044,0.0016000000000000044 0.0 0,0 0.143975,-0.01025 A 0.0016000000000000044,0.0016000000000000044 0.0 0,0 0.147175,-0.01025 M 0.164175,-0.01025 A 0.0016,0.0016 0.0 0,0 0.160975,-0.01025 A 0.0016,0.0016 0.0 0,0 0.164175,-0.01025" />
      <path d="M 0.165275,0.0124 L 0.124875,0.0124 L 0.124875,0.0084 L 0.165275,0.0084 L 0.165275,0.0124 M 0.130175,0.01025 A 0.0016000000000000044,0.0016000000000000044 0.0 0,0 0.126975,0.01025 A 0.0016000000000000044,0.0016000000000000044 0.0 0,0 0.130175,0.01025 M 0.147175,0.01025 A 0.0016000000000000044,0.0016000000000000044 0.0 0,0 0.143975,0.01025 A 0.0016000000000000044,0.0016000000000000044 0.0 0,0 0.147175,0.01025 M 0.164175,0.01025 A 0.0016,0.0016 0.0 0,0 0.160975,0.01025 A 0.0016,0.0016 0.0 0,0 0.164175,0.01025" />
      <circle cx="0.158075" cy="0.0" r="0.003" />
    </g>
    <g fill="none" stroke="rgb(60,60,60)" stroke-opacity="0.4" stroke-width="0.00015" id="servo_hidden" stroke-dasharray="0.0018 0.00045">
      <line x1="0.200456" y1="-0.0163" x2="0.200456" y2="-0.0181" />
      <line x1="0.200456" y1="-0.0163" x2="0.200456" y2="-0.0181" />
      <line x1="0.199756" y1="-0.0181" x2="0.195056" y2="-0.0181" />
      <line x1="0.199756" y1="-0.0181" x2="0.195056" y2="-0.0181" />
      <line x1="0.200456" y1="-0.0181" x2="0.194356" y2="-0.0181" />
      <line x1="0.200456" y1="-0.0181" x2="0.194356" y2="-0.0181" />
      <line x1="0.199756" y1="-0.0181" x2="0.195056" y2="-0.0181" />
      <line x1="0.199756" y1="-0.0181" x2="0.195056" y2="-0.0181" />
      <line x1="0.199756" y1="-0.0181" x2="0.195056" y2="-0.0181" />
      <line x1="0.199756" y1="-0.0181" x2="0.195056" y2="-0.0181" />
      <line x1="0.184706" y1="-0.0163" x2="0.225106" y2="-0.0163" />
      <path d="M 0.228105,-0.0163 A 0.004,6.859649272376005e-08 -3.0943866743564703e-25 0,0 0.225105,-0.0163" />
      <line x1="0.184706" y1="-0.0163" x2="0.225105" y2="-0.0163" />
      <path d="M 0.182705,-0.0163 A 0.004,6.859649272376005e-08 180.0 0,1 0.184705,-0.0163" />
      <path d="M 0.220906,-0.0163 A 0.003,5.144736954282004e-08 1.2167981797335742e-24 0,0 0.214906,-0.0163" />
      <path d="M 0.214906,-0.0163 A 0.003,5.144736954282004e-08 1.2167981797335742e-24 1,0 0.220906,-0.0163" />
      <line x1="0.194356" y1="-0.0163" x2="0.200456" y2="-0.0163" />
      <line x1="0.194356" y1="-0.0163" x2="0.200456" y2="-0.0163" />
      <line x1="0.194356" y1="-0.0163" x2="0.194356" y2="-0.0181" />
      <line x1="0.199756" y1="-0.0163" x2="0.199756" y2="-0.0181" />
      <line x1="0.199756" y1="-0.0163" x2="0.199756" y2="-0.0181" />
      <line x1="0.194356" y1="-0.0163" x2="0.194356" y2="-0.0181" />
      <line x1="0.182705" y1="0.0163" x2="0.182705" y2="-0.0163" />
      <path d="M 0.184706,-0.0163 A 0.004,6.859649272376005e-08 -3.0943866743564703e-25 0,0 0.186706,-0.0163" />
      <path d="M 0.184705,-0.0163 A 0.004,6.859649272376005e-08 180.0 0,1 0.186705,-0.0163" />
      <line x1="0.186705" y1="0.0163" x2="0.186705" y2="-0.0163" />
      <path d="M 0.182705,0.0163 A 0.004,6.859649272376005e-08 180.0 0,1 0.186705,0.0163" />
      <line x1="0.184706" y1="-0.0184" x2="0.184706" y2="-0.0163" />
      <line x1="0.184705" y1="-0.0184" x2="0.184705" y2="-0.0163" />
      <line x1="0.184706" y1="-0.0184" x2="0.225106" y2="-0.0184" />
      <line x1="0.225106" y1="-0.0184" x2="0.225106" y2="-0.0163" />
      <line x1="0.225105" y1="-0.0184" x2="0.225105" y2="-0.0163" />
      <line x1="0.225105" y1="-0.0184" x2="0.225105" y2="-0.0163" />
      <path d="M 0.225106,-0.0163 A 0.004,6.859649272376005e-08 180.0 0,1 0.224106,-0.0163" />
      <line x1="0.228105" y1="0.0163" x2="0.228105" y2="-0.0163" />
      <path d="M 0.225105,-0.0163 A 0.004,6.859649272376005e-08 -3.0943866743564703e-25 0,0 0.224105,-0.0163" />
      <line x1="0.224105" y1="0.0163" x2="0.224105" y2="-0.0163" />
      <path d="M 0.228105,0.0163 A 0.004,6.859649272376005e-08 -3.0943866743564703e-25 0,0 0.224105,0.0163" />
      <path d="M 0.220906,-0.0176 A 0.003,5.144736954282004e-08 1.2167981797335742e-24 0,0 0.214906,-0.0176" />
      <path d="M 0.214906,-0.0176 A 0.003,5.144736954282004e-08 1.2167981797335742e-24 1,0 0.220906,-0.0176" />
      <line x1="0.199756" y1="-0.0163" x2="0.199756" y2="-0.0181" />
      <line x1="0.199756" y1="-0.0181" x2="0.199756" y2="-0.0163" />
      <line x1="0.195056" y1="-0.0163" x2="0.195056" y2="-0.0181" />
      <line x1="0.195056" y1="-0.0163" x2="0.199756" y2="-0.0163" />
      <line x1="0.195056" y1="-0.0181" x2="0.195056" y2="-0.0163" />
      <line x1="0.195056" y1="-0.0163" x2="0.195056" y2="-0.0181" />
      <line x1="0.195056" y1="-0.0163" x2="0.195056" y2="-0.0181" />
      <line x1="0.199756" y1="-0.0163" x2="0.199756" y2="-0.0181" />
      <line x1="0.195056" y1="-0.0163" x2="0.199756" y2="-0.0163" />
      <line x1="0.199756" y1="-0.0163" x2="0.199756" y2="-0.0181" />
      <line x1="0.195056" y1="-0.0163" x2="0.199756" y2="-0.0163" />
      <line x1="0.195056" y1="-0.0163" x2="0.195056" y2="-0.0181" />
      <line x1="0.195056" y1="-0.0163" x2="0.199756" y2="-0.0163" />
      <line x1="0.195056" y1="-0.0163" x2="0.195056" y2="-0.0181" />
      <line x1="0.195056" y1="-0.0163" x2="0.199756" y2="-0.0163" />
      <line x1="0.195056" y1="-0.0163" x2="0.199756" y2="-0.0163" />
      <line x1="0.186705" y1="0.0163" x2="0.224105" y2="0.0163" />
      <path d="M 0.207906,0.0163 A 0.002,3.429824636188002e-08 -3.0943866743564703e-25 0,0 0.209906,0.0163" />
      <line x1="0.209906" y1="0.0163" x2="0.224106" y2="0.0163" />
      <path d="M 0.227906,0.0163 A 0.002,3.429824636188002e-08 180.0 0,1 0.225906,0.0163" />
      <path d="M 0.227906,0.0163 A 0.002,3.429824636188002e-08 -3.0943866743564703e-25 0,0 0.225905,0.0163" />
      <line x1="0.209905" y1="0.0163" x2="0.225905" y2="0.0163" />
      <path d="M 0.207906,0.0163 A 0.002,3.429824636188002e-08 180.0 0,1 0.209905,0.0163" />
      <line x1="0.184705" y1="-0.0163" x2="0.186705" y2="-0.0163" />
      <line x1="0.224105" y1="-0.0163" x2="0.225105" y2="-0.0163" />
      <line x1="0.184705" y1="-0.0184" x2="0.225105" y2="-0.0184" />
      <path d="M 0.227906,0.018 A 0.002,3.429824636188002e-08 -3.0943866743564703e-25 0,0 0.225905,0.018" />
      <line x1="0.209905" y1="0.018" x2="0.225905" y2="0.018" />
      <path d="M 0.207906,0.018 A 0.002,3.429824636188002e-08 180.0 0,1 0.209905,0.018" />
      <path d="M 0.190006,-0.0084 A 0.0016000000000000044,2.743859708950409e-08 1.2167981797335742e-24 0,0 0.186806,-0.0084" />
      <path d="M 0.186806,-0.0084 A 0.0016000000000000044,2.743859708950409e-08 1.2167981797335742e-24 1,0 0.190006,-0.0084" />
      <path d="M 0.207006,-0.0084 A 0.0016000000000000044,2.743859708950409e-08 1.2167981797335742e-24 0,0 0.203806,-0.0084" />
      <path d="M 0.203806,-0.0084 A 0.0016000000000000044,2.743859708950409e-08 1.2167981797335742e-24 1,0 0.207006,-0.0084" />
      <path d="M 0.224006,-0.0084 A 0.0016000000000000044,2.743859708950409e-08 1.2167981797335742e-24 0,0 0.220806,-0.0084" />
      <path d="M 0.220806,-0.0084 A 0.0016000000000000044,2.743859708950409e-08 1.2167981797335742e-24 1,0 0.224006,-0.0084" />
      <path d="M 0.190005,-0.0084 A 0.0016000000000000044,2.743859708950409e-08 1.2167981797335742e-24 0,0 0.186805,-0.0084" />
      <path d="M 0.186805,-0.0084 A 0.0016000000000000044,2.743859708950409e-08 1.2167981797335742e-24 1,0 0.190005,-0.0084" />
      <path d="M 0.207005,-0.0084 A 0.0016000000000000044,2.743859708950409e-08 1.2167981797335742e-24 0,0 0.203805,-0.0084" />
      <path d="M 0.203805,-0.0084 A 0.0016000000000000044,2.743859708950409e-08 1.2167981797335742e-24 1,0 0.207005,-0.0084" />
      <path d="M 0.224005,-0.0084 A 0.0016000000000000044,2.743859708950409e-08 1.2167981797335742e-24 0,0 0.220805,-0.0084" />
      <path d="M 0.220805,-0.0084 A 0.0016000000000000044,2.743859708950409e-08 1.2167981797335742e-24 1,0 0.224005,-0.0084" />
      <path d="M 0.222406,0.018 A 0.0045,7.717105431423004e-08 1.2167981797335742e-24 0,0 0.213406,0.018" />
      <path d="M 0.213406,0.018 A 0.0045,7.717105431423004e-08 1.2167981797335742e-24 0,0 0.222406,0.018" />
      <path d="M 0.222406,0.0195 A 0.0045,7.717105431423004e-08 1.2167981797335742e-24 0,0 0.213406,0.0195" />
      <line x1="0.214906" y1="-0.0176" x2="0.214906" y2="-0.0163" />
      <line x1="0.186806" y1="-0.0184" x2="0.186806" y2="-0.0084" />
      <line x1="0.203806" y1="-0.0184" x2="0.203806" y2="-0.0084" />
      <line x1="0.220806" y1="-0.0184" x2="0.220806" y2="-0.0084" />
      <line x1="0.186805" y1="-0.0184" x2="0.186805" y2="-0.0084" />
      <line x1="0.203805" y1="-0.0184" x2="0.203805" y2="-0.0084" />
      <line x1="0.220805" y1="-0.0184" x2="0.220805" y2="-0.0084" />
      <line x1="0.227906" y1="0.0163" x2="0.227906" y2="0.018" />
      <line x1="0.225905" y1="0.0163" x2="0.225905" y2="0.018" />
      <line x1="0.209905" y1="0.0163" x2="0.209905" y2="0.018" />
      <line x1="0.207906" y1="0.0163" x2="0.207906" y2="0.018" />
      <line x1="0.257986" y1="-0.0163" x2="0.251986" y2="-0.0163" />
      <line x1="0.256336" y1="-0.0181" x2="0.253636" y2="-0.0181" />
      <line x1="0.247936" y1="-0.0181" x2="0.262036" y2="-0.0181" />
      <line x1="0.261336" y1="-0.0181" x2="0.257036" y2="-0.0181" />
      <line x1="0.252936" y1="-0.0181" x2="0.248636" y2="-0.0181" />
      <line x1="0.246586" y1="-0.0163" x2="0.263386" y2="-0.0163" />
      <path d="M 0.246586,-0.0163 A 0.004,6.85981960184758e-08 -1.4759626327786432e-40 0,0 0.243122,-0.0163" />
      <line x1="0.243122" y1="-0.0163" x2="0.246586" y2="-0.0163" />
      <line x1="0.263386" y1="-0.0163" x2="0.266851" y2="-0.0163" />
      <path d="M 0.263386,-0.0163 A 0.004,6.85981960184758e-08 180.0 0,1 0.266851,-0.0163" />
      <path d="M 0.257986,-0.0163 A 0.0030000000000000027,5.144864701385689e-08 1.2578210342278858e-40 0,0 0.251986,-0.0163" />
      <line x1="0.262036" y1="-0.0163" x2="0.247936" y2="-0.0163" />
      <line x1="0.247936" y1="-0.0163" x2="0.247936" y2="-0.0181" />
      <line x1="0.253636" y1="-0.0163" x2="0.253636" y2="-0.0181" />
      <line x1="0.256336" y1="-0.0163" x2="0.256336" y2="-0.0181" />
      <line x1="0.256336" y1="-0.0163" x2="0.253636" y2="-0.0163" />
      <line x1="0.262036" y1="-0.0163" x2="0.262036" y2="-0.0181" />
      <line x1="0.246586" y1="0.0163" x2="0.263386" y2="0.0163" />
      <line x1="0.246586" y1="-0.0163" x2="0.246586" y2="0.0163" />
      <line x1="0.263386" y1="0.0163" x2="0.263386" y2="-0.0163" />
      <path d="M 0.243122,-0.0163 A 0.004,6.85981960184758e-08 -1.4759626327786432e-40 0,0 0.242586,-0.0163" />
      <path d="M 0.246586,0.0163 A 0.004,6.85981960184758e-08 -1.4759626327786432e-40 0,0 0.242586,0.0163" />
      <path d="M 0.266851,-0.0163 A 0.004,6.85981960184758e-08 180.0 0,1 0.267386,-0.0163" />
      <path d="M 0.263386,0.0163 A 0.004,6.85981960184758e-08 180.0 0,1 0.267386,0.0163" />
      <line x1="0.242586" y1="-0.0184" x2="0.242586" y2="-0.0163" />
      <line x1="0.242586" y1="-0.0163" x2="0.243122" y2="-0.0163" />
      <line x1="0.246586" y1="-0.0184" x2="0.246586" y2="-0.0163" />
      <line x1="0.242586" y1="-0.0184" x2="0.246586" y2="-0.0184" />
      <line x1="0.263386" y1="-0.0184" x2="0.263386" y2="-0.0163" />
      <line x1="0.266851" y1="-0.0163" x2="0.267386" y2="-0.0163" />
      <line x1="0.267386" y1="-0.0184" x2="0.267386" y2="-0.0163" />
      <line x1="0.263386" y1="-0.0184" x2="0.267386" y2="-0.0184" />
      <path d="M 0.242713,-0.0163 A 0.004,6.85981960184758e-08 180.0 0,1 0.242586,-0.0163" />
      <path d="M 0.267259,-0.0163 A 0.004,6.85981960184758e-08 -1.4759626327786432e-40 0,0 0.267386,-0.0163" />
      <line x1="0.248636" y1="-0.0163" x2="0.248636" y2="-0.0181" />
      <line x1="0.252936" y1="-0.0181" x2="0.252936" y2="-0.0163" />
      <line x1="0.252936" y1="-0.0163" x2="0.248636" y2="-0.0163" />
      <line x1="0.248636" y1="-0.0163" x2="0.248636" y2="-0.0181" />
      <line x1="0.252936" y1="-0.0181" x2="0.252936" y2="-0.0163" />
      <line x1="0.252936" y1="-0.0163" x2="0.248636" y2="-0.0163" />
      <line x1="0.261336" y1="-0.0163" x2="0.257036" y2="-0.0163" />
      <line x1="0.257036" y1="-0.0163" x2="0.257036" y2="-0.0181" />
      <line x1="0.261336" y1="-0.0163" x2="0.261336" y2="-0.0181" />
      <line x1="0.261336" y1="-0.0163" x2="0.261336" y2="-0.0181" />
      <line x1="0.261336" y1="-0.0163" x2="0.257036" y2="-0.0163" />
      <line x1="0.257036" y1="-0.0163" x2="0.257036" y2="-0.0181" />
      <line x1="0.256336" y1="-0.0163" x2="0.256336" y2="-0.0181" />
      <line x1="0.253636" y1="-0.0163" x2="0.253636" y2="-0.0181" />
      <line x1="0.256336" y1="-0.0163" x2="0.253636" y2="-0.0163" />
      <path d="M 0.246986,0.0163 A 0.002,3.42990980092379e-08 -1.4759626327786432e-40 0,0 0.244986,0.0163" />
      <path d="M 0.246986,0.0163 A 0.002,3.42990980092379e-08 180.0 0,1 0.246586,0.0163" />
      <line x1="0.246986" y1="0.0163" x2="0.262986" y2="0.0163" />
      <path d="M 0.262986,0.0163 A 0.002,3.42990980092379e-08 -1.4759626327786432e-40 0,0 0.263386,0.0163" />
      <path d="M 0.262986,0.0163 A 0.002,3.42990980092379e-08 180.0 0,1 0.264986,0.0163" />
      <line x1="0.246986" y1="0.0163" x2="0.262986" y2="0.0163" />
      <line x1="0.244986" y1="0.0163" x2="0.244986" y2="0.018" />
      <path d="M 0.246986,0.018 A 0.002,3.42990980092379e-08 -1.4759626327786432e-40 0,0 0.244986,0.018" />
      <line x1="0.264986" y1="0.0163" x2="0.264986" y2="0.018" />
      <path d="M 0.262986,0.018 A 0.002,3.42990980092379e-08 180.0 0,1 0.264986,0.018" />
      <line x1="0.246986" y1="0.018" x2="0.262986" y2="0.018" />
      <path d="M 0.244736,-0.0084 A 0.0016,2.7439278407390317e-08 1.2578210342278858e-40 0,0 0.246336,-0.0084" />
      <path d="M 0.246336,-0.0084 A 0.0016000000000000044,2.743927840739039e-08 1.2578210342278858e-40 0,0 0.243136,-0.0084" />
      <path d="M 0.243136,-0.0084 A 0.0016,2.7439278407390317e-08 1.2578210342278858e-40 0,0 0.244736,-0.0084" />
      <path d="M 0.244736,-0.0084 A 0.0016,2.7439278407390317e-08 1.2578210342278858e-40 0,0 0.246336,-0.0084" />
      <path d="M 0.246336,-0.0084 A 0.0016000000000000044,2.743927840739039e-08 1.2578210342278858e-40 0,0 0.243136,-0.0084" />
      <path d="M 0.243136,-0.0084 A 0.0016,2.7439278407390317e-08 1.2578210342278858e-40 0,0 0.244736,-0.0084" />
      <path d="M 0.244736,-0.0084 A 0.0016,2.7439278407390317e-08 1.2578210342278858e-40 0,0 0.246336,-0.0084" />
      <path d="M 0.246336,-0.0084 A 0.0016000000000000044,2.743927840739039e-08 1.2578210342278858e-40 0,0 0.243136,-0.0084" />
      <path d="M 0.243136,-0.0084 A 0.0016,2.7439278407390317e-08 1.2578210342278858e-40 0,0 0.244736,-0.0084" />
      <path d="M 0.265236,-0.0084 A 0.0016,2.7439278407390317e-08 1.2578210342278858e-40 0,0 0.266836,-0.0084" />
      <path d="M 0.266836,-0.0084 A 0.0016000000000000179,2.7439278407390622e-08 1.2578210342278858e-40 0,0 0.263636,-0.0084" />
      <path d="M 0.263636,-0.0084 A 0.0016,2.7439278407390317e-08 1.2578210342278858e-40 0,0 0.265236,-0.0084" />
      <path d="M 0.265236,-0.0084 A 0.0016,2.7439278407390317e-08 1.2578210342278858e-40 0,0 0.266836,-0.0084" />
      <path d="M 0.266836,-0.0084 A 0.0016000000000000179,2.7439278407390622e-08 1.2578210342278858e-40 0,0 0.263636,-0.0084" />
      <path d="M 0.263636,-0.0084 A 0.0016,2.7439278407390317e-08 1.2578210342278858e-40 0,0 0.265236,-0.0084" />
      <path d="M 0.265236,-0.0084 A 0.0016,2.7439278407390317e-08 1.2578210342278858e-40 0,0 0.266836,-0.0084" />
      <path d="M 0.266836,-0.0084 A 0.0016000000000000179,2.7439278407390622e-08 1.2578210342278858e-40 0,0 0.263636,-0.0084" />
      <path d="M 0.263636,-0.0084 A 0.0016,2.7439278407390317e-08 1.2578210342278858e-40 0,0 0.265236,-0.0084" />
      <path d="M 0.254986,0.018 A 0.0045,7.717297052078526e-08 1.2578210342278858e-40 0,0 0.259486,0.018" />
      <path d="M 0.259486,0.018 A 0.004500000000000004,7.717297052078533e-08 1.2578210342278858e-40 0,0 0.250486,0.018" />
      <path d="M 0.250486,0.018 A 0.0045,7.717297052078526e-08 1.2578210342278858e-40 0,0 0.254986,0.018" />
      <path d="M 0.259486,0.0195 A 0.004500000000000004,7.717297052078533e-08 1.2578210342278858e-40 0,0 0.250486,0.0195" />
      <line x1="0.246336" y1="-0.0184" x2="0.246336" y2="-0.0084" />
      <line x1="0.243136" y1="-0.0184" x2="0.243136" y2="-0.0084" />
      <line x1="0.246336" y1="-0.0184" x2="0.246336" y2="-0.0084" />
      <line x1="0.243136" y1="-0.0184" x2="0.243136" y2="-0.0084" />
      <line x1="0.246336" y1="-0.0184" x2="0.246336" y2="-0.0084" />
      <line x1="0.243136" y1="-0.0184" x2="0.243136" y2="-0.0084" />
      <line x1="0.266836" y1="-0.0184" x2="0.266836" y2="-0.0084" />
      <line x1="0.263636" y1="-0.0184" x2="0.263636" y2="-0.0084" />
      <line x1="0.266836" y1="-0.0184" x2="0.266836" y2="-0.0084" />
      <line x1="0.263636" y1="-0.0184" x2="0.263636" y2="-0.0084" />
      <line x1="0.266836" y1="-0.0184" x2="0.266836" y2="-0.0084" />
      <line x1="0.263636" y1="-0.0184" x2="0.263636" y2="-0.0084" />
      <line x1="0.246986" y1="0.0163" x2="0.246986" y2="0.018" />
      <line x1="0.262986" y1="0.0163" x2="0.262986" y2="0.018" />
    </g>
    <g fill="none" stroke="rgb(50,120,190)" stroke-width="0.00035" id="bracket">
      <line x1="0.0" y1="0.015665" x2="0.05183" y2="0.015665" />
      <line x1="0.05183" y1="0.015665" x2="0.05183" y2="-0.015665" />
      <line x1="0.0" y1="-0.015665" x2="0.05183" y2="-0.015665" />
      <line x1="0.0" y1="0.015665" x2="0.0" y2="-0.015665" />
      <line x1="0.003" y1="-0.012665" x2="0.04883" y2="-0.012665" />
      <line x1="0.04883" y1="0.012665" x2="0.04883" y2="-0.012665" />
      <line x1="0.003" y1="0.012665" x2="0.04883" y2="0.012665" />
      <line x1="0.003" y1="0.012665" x2="0.003" y2="-0.012665" />
      <line x1="0.05983" y1="0.015665" x2="0.11166" y2="0.015665" />
      <line x1="0.11166" y1="0.015665" x2="0.11166" y2="-0.015665" />
      <line x1="0.05983" y1="-0.015665" x2="0.11166" y2="-0.015665" />
      <line x1="0.05983" y1="0.015665" x2="0.05983" y2="-0.015665" />
      <line x1="0.06283" y1="-0.012665" x2="0.10866" y2="-0.012665" />
      <line x1="0.10866" y1="0.012665" x2="0.10866" y2="-0.012665" />
      <line x1="0.06283" y1="0.012665" x2="0.10866" y2="0.012665" />
      <line x1="0.06283" y1="0.012665" x2="0.06283" y2="-0.012665" />
      <line x1="0.11966" y1="0.015665" x2="0.17149" y2="0.015665" />
      <line x1="0.17149" y1="0.015665" x2="0.17149" y2="-0.015665" />
      <line x1="0.11966" y1="-0.015665" x2="0.17149" y2="-0.015665" />
      <line x1="0.11966" y1="-0.00755" x2="0.11966" y2="-0.015665" />
      <line x1="0.11966" y1="-0.00755" x2="0.12266" y2="-0.00755" />
      <line x1="0.12266" y1="-0.00755" x2="0.12266" y2="-0.012665" />
      <line x1="0.12266" y1="-0.012665" x2="0.16849" y2="-0.012665" />
      <line x1="0.16849" y1="0.012665" x2="0.16849" y2="-0.012665" />
      <line x1="0.12266" y1="0.012665" x2="0.16849" y2="0.012665" />
      <line x1="0.12266" y1="0.012665" x2="0.12266" y2="0.00755" />
      <line x1="0.11966" y1="0.00755" x2="0.12266" y2="0.00755" />
      <line x1="0.11966" y1="0.015665" x2="0.11966" y2="0.00755" />
      <line x1="0.179491" y1="-0.022107" x2="0.179491" y2="0.018993" />
      <line x1="0.179491" y1="0.018993" x2="0.17949" y2="0.019007" />
      <line x1="0.17949" y1="-0.020297" x2="0.179491" y2="-0.020303" />
      <line x1="0.17949" y1="-0.020297" x2="0.17949" y2="-0.011697" />
      <line x1="0.179491" y1="-0.022107" x2="0.231321" y2="-0.022107" />
      <line x1="0.231321" y1="-0.022107" x2="0.231321" y2="0.018993" />
      <line x1="0.179491" y1="0.018993" x2="0.231321" y2="0.018993" />
      <line x1="0.17949" y1="0.019007" x2="0.23132" y2="0.019007" />
      <line x1="0.231321" y1="0.018993" x2="0.23132" y2="0.019007" />
      <line x1="0.228321" y1="0.018995" x2="0.182491" y2="0.018995" />
      <line x1="0.228321" y1="0.018995" x2="0.22832" y2="0.019005" />
      <line x1="0.22832" y1="0.019005" x2="0.18249" y2="0.019005" />
      <line x1="0.182491" y1="0.018995" x2="0.18249" y2="0.019005" />
      <line x1="0.22832" y1="0.018995" x2="0.22832" y2="0.019005" />
      <line x1="0.239321" y1="0.019011" x2="0.270651" y2="0.019011" />
      <line x1="0.239321" y1="-0.022111" x2="0.239321" y2="0.018989" />
      <line x1="0.239321" y1="0.019011" x2="0.239321" y2="0.018989" />
      <line x1="0.270651" y1="0.019011" x2="0.270651" y2="0.018989" />
      <line x1="0.239321" y1="0.018989" x2="0.270651" y2="0.018989" />
      <line x1="0.242321" y1="0.018991" x2="0.242321" y2="0.01901" />
      <line x1="0.242321" y1="0.018991" x2="0.267651" y2="0.018991" />
      <line x1="0.267651" y1="0.018991" x2="0.267651" y2="0.01901" />
      <line x1="0.242321" y1="0.01901" x2="0.267651" y2="0.01901" />
      <line x1="0.239321" y1="-0.022111" x2="0.270651" y2="-0.022111" />
      <line x1="0.270651" y1="-0.022111" x2="0.270651" y2="0.018989" />
      <line x1="0.242321" y1="0.018991" x2="0.242321" y2="0.01901" />
      <line x1="0.267651" y1="0.018991" x2="0.267651" y2="0.01901" />
    </g>
    <g fill="url(#hatch_bracket)" stroke="none" stroke-width="0" id="bracket_fill">
      <path d="M 0.05183,0.015665 L 0.0,0.015665 L 0.0,-0.015665 L 0.05183,-0.015665 L 0.05183,0.015665 M 0.04883,-0.012665 L 0.003,-0.012665 L 0.003,0.012665 L 0.04883,0.012665 L 0.04883,-0.012665" />
      <path d="M 0.11166,0.015665 L 0.05983,0.015665 L 0.05983,-0.015665 L 0.11166,-0.015665 L 0.11166,0.015665 M 0.10866,-0.012665 L 0.06283,-0.012665 L 0.06283,0.012665 L 0.10866,0.012665 L 0.10866,-0.012665" />
      <path d="M 0.17149,0.015665 L 0.11966,0.015665 L 0.11966,0.00755 L 0.12266,0.00755 L 0.12266,0.012665 L 0.16849,0.012665 L 0.16849,-0.012665 L 0.12266,-0.012665 L 0.12266,-0.00755 L 0.11966,-0.00755 L 0.11966,-0.015665 L 0.17149,-0.015665 L 0.17149,0.015665" />
    </g>
    <g fill="none" stroke="rgb(50,120,190)" stroke-opacity="0.4" stroke-width="0.00015" id="bracket_hidden" stroke-dasharray="0.0018 0.00045">
      <line x1="0.179491" y1="-0.022107" x2="0.17949" y2="-0.022093" />
      <line x1="0.17949" y1="-0.022093" x2="0.17949" y2="0.019007" />
      <line x1="0.17949" y1="-0.011697" x2="0.179491" y2="-0.011703" />
      <line x1="0.179491" y1="-0.020303" x2="0.179491" y2="-0.011703" />
      <line x1="0.17949" y1="-0.022093" x2="0.23132" y2="-0.022093" />
      <line x1="0.231321" y1="-0.022107" x2="0.23132" y2="-0.022093" />
      <path d="M 0.191356,-0.022104 A 0.00295,1.2326139065541992e-06 7.540050108264758e-23 0,1 0.185456,-0.022104" />
      <path d="M 0.185456,-0.022104 A 0.00295,1.2326139065541992e-06 7.540050108264758e-23 1,1 0.191356,-0.022104" />
      <path d="M 0.208356,-0.022104 A 0.0029500000000000077,1.2326139065542025e-06 7.540050108264758e-23 0,1 0.202456,-0.022104" />
      <path d="M 0.202456,-0.022104 A 0.0029500000000000077,1.2326139065542025e-06 7.540050108264758e-23 1,1 0.208356,-0.022104" />
      <path d="M 0.225356,-0.022104 A 0.00295,1.2326139065541992e-06 7.540050108264758e-23 0,1 0.219456,-0.022104" />
      <path d="M 0.219456,-0.022104 A 0.00295,1.2326139065541992e-06 7.540050108264758e-23 1,1 0.225356,-0.022104" />
      <path d="M 0.191355,-0.022096 A 0.00295,1.2326139065541992e-06 7.540050108264758e-23 0,1 0.185455,-0.022096" />
      <path d="M 0.185455,-0.022096 A 0.00295,1.2326139065541992e-06 7.540050108264758e-23 1,1 0.191355,-0.022096" />
      <path d="M 0.208355,-0.022096 A 0.0029500000000000077,1.2326139065542025e-06 7.540050108264758e-23 0,1 0.202455,-0.022096" />
      <path d="M 0.202455,-0.022096 A 0.0029500000000000077,1.2326139065542025e-06 7.540050108264758e-23 1,1 0.208355,-0.022096" />
      <path d="M 0.225355,-0.022096 A 0.00295,1.2326139065541992e-06 7.540050108264758e-23 0,1 0.219455,-0.022096" />
      <path d="M 0.219455,-0.022096 A 0.00295,1.2326139065541992e-06 7.540050108264758e-23 1,1 0.225355,-0.022096" />
      <line x1="0.23132" y1="-0.022093" x2="0.23132" y2="0.019007" />
      <line x1="0.17949" y1="-0.020297" x2="0.18314" y2="-0.020297" />
      <line x1="0.183141" y1="-0.020303" x2="0.18314" y2="-0.020297" />
      <line x1="0.179491" y1="-0.020303" x2="0.183141" y2="-0.020303" />
      <line x1="0.18314" y1="-0.020297" x2="0.18314" y2="-0.018797" />
      <line x1="0.18314" y1="-0.018797" x2="0.18249" y2="-0.018797" />
      <line x1="0.18249" y1="-0.018797" x2="0.18249" y2="-0.016297" />
      <line x1="0.18249" y1="-0.016297" x2="0.18249" y2="-0.015697" />
      <line x1="0.18249" y1="-0.015697" x2="0.18249" y2="-0.011697" />
      <line x1="0.17949" y1="-0.011697" x2="0.18249" y2="-0.011697" />
      <line x1="0.18249" y1="-0.011697" x2="0.182491" y2="-0.011703" />
      <line x1="0.179491" y1="-0.011703" x2="0.182491" y2="-0.011703" />
      <line x1="0.183141" y1="-0.020303" x2="0.183141" y2="-0.018803" />
      <line x1="0.183141" y1="-0.018803" x2="0.182491" y2="-0.018803" />
      <line x1="0.182491" y1="-0.018803" x2="0.182491" y2="-0.016303" />
      <line x1="0.182491" y1="-0.016303" x2="0.182491" y2="-0.015703" />
      <line x1="0.182491" y1="-0.015703" x2="0.182491" y2="-0.011703" />
      <line x1="0.228321" y1="-0.015705" x2="0.228321" y2="0.018995" />
      <line x1="0.182491" y1="-0.015705" x2="0.182491" y2="0.018995" />
      <line x1="0.182491" y1="-0.015705" x2="0.228321" y2="-0.015705" />
      <line x1="0.22832" y1="-0.015695" x2="0.22832" y2="0.018995" />
      <line x1="0.228321" y1="-0.015705" x2="0.22832" y2="-0.015695" />
      <line x1="0.18249" y1="-0.015695" x2="0.18249" y2="0.019005" />
      <line x1="0.18249" y1="-0.015695" x2="0.22832" y2="-0.015695" />
      <line x1="0.18249" y1="-0.015697" x2="0.18249" y2="-0.015695" />
      <line x1="0.182491" y1="-0.015705" x2="0.182491" y2="-0.015703" />
      <path d="M 0.191356,-0.019604 A 0.00295,1.2326139065541992e-06 7.540050108264758e-23 0,1 0.185456,-0.019604" />
      <path d="M 0.185456,-0.019604 A 0.00295,1.2326139065541992e-06 7.540050108264758e-23 1,1 0.191356,-0.019604" />
      <path d="M 0.208356,-0.019604 A 0.0029500000000000077,1.2326139065542025e-06 7.540050108264758e-23 0,1 0.202456,-0.019604" />
      <path d="M 0.202456,-0.019604 A 0.0029500000000000077,1.2326139065542025e-06 7.540050108264758e-23 1,1 0.208356,-0.019604" />
      <path d="M 0.225356,-0.019604 A 0.00295,1.2326139065541992e-06 7.540050108264758e-23 0,1 0.219456,-0.019604" />
      <path d="M 0.219456,-0.019604 A 0.00295,1.2326139065541992e-06 7.540050108264758e-23 1,1 0.225356,-0.019604" />
      <path d="M 0.191355,-0.019596 A 0.00295,1.2326139065541992e-06 7.540050108264758e-23 0,1 0.185455,-0.019596" />
      <path d="M 0.185455,-0.019596 A 0.00295,1.2326139065541992e-06 7.540050108264758e-23 1,1 0.191355,-0.019596" />
      <path d="M 0.208355,-0.019596 A 0.0029500000000000077,1.2326139065542025e-06 7.540050108264758e-23 0,1 0.202455,-0.019596" />
      <path d="M 0.202455,-0.019596 A 0.0029500000000000077,1.2326139065542025e-06 7.540050108264758e-23 1,1 0.208355,-0.019596" />
      <path d="M 0.225355,-0.019596 A 0.00295,1.2326139065541992e-06 7.540050108264758e-23 0,1 0.219455,-0.019596" />
      <path d="M 0.219455,-0.019596 A 0.00295,1.2326139065541992e-06 7.540050108264758e-23 1,1 0.225355,-0.019596" />
      <line x1="0.183141" y1="-0.018803" x2="0.18314" y2="-0.018797" />
      <line x1="0.182491" y1="-0.018805" x2="0.182491" y2="-0.018803" />
      <line x1="0.18249" y1="-0.018797" x2="0.18249" y2="-0.018795" />
      <line x1="0.18249" y1="-0.018795" x2="0.22832" y2="-0.018795" />
      <line x1="0.228321" y1="-0.018805" x2="0.22832" y2="-0.018795" />
      <line x1="0.182491" y1="-0.018805" x2="0.228321" y2="-0.018805" />
      <path d="M 0.190106,-0.018804 A 0.0017,7.103198783532673e-07 7.540050108264758e-23 0,1 0.186706,-0.018804" />
      <path d="M 0.186706,-0.018804 A 0.0017,7.103198783532673e-07 7.540050108264758e-23 1,1 0.190106,-0.018804" />
      <path d="M 0.207106,-0.018804 A 0.001700000000000007,7.103198783532702e-07 7.540050108264758e-23 0,1 0.203706,-0.018804" />
      <path d="M 0.203706,-0.018804 A 0.001700000000000007,7.103198783532702e-07 7.540050108264758e-23 1,1 0.207106,-0.018804" />
      <path d="M 0.224106,-0.018804 A 0.0017,7.103198783532673e-07 7.540050108264758e-23 0,1 0.220706,-0.018804" />
      <path d="M 0.220706,-0.018804 A 0.0017,7.103198783532673e-07 7.540050108264758e-23 1,1 0.224106,-0.018804" />
      <path d="M 0.190105,-0.018796 A 0.0017,7.103198783532673e-07 7.540050108264758e-23 0,1 0.186705,-0.018796" />
      <path d="M 0.186705,-0.018796 A 0.0017,7.103198783532673e-07 7.540050108264758e-23 1,1 0.190105,-0.018796" />
      <path d="M 0.207105,-0.018796 A 0.001700000000000007,7.103198783532702e-07 7.540050108264758e-23 0,1 0.203705,-0.018796" />
      <path d="M 0.203705,-0.018796 A 0.001700000000000007,7.103198783532702e-07 7.540050108264758e-23 1,1 0.207105,-0.018796" />
      <path d="M 0.224105,-0.018796 A 0.0017,7.103198783532673e-07 7.540050108264758e-23 0,1 0.220705,-0.018796" />
      <path d="M 0.220705,-0.018796 A 0.0017,7.103198783532673e-07 7.540050108264758e-23 1,1 0.224105,-0.018796" />
      <line x1="0.18249" y1="-0.016297" x2="0.18249" y2="-0.016295" />
      <line x1="0.18249" y1="-0.018795" x2="0.18249" y2="-0.016295" />
      <line x1="0.18249" y1="-0.016295" x2="0.18249" y2="-0.015695" />
      <line x1="0.182491" y1="-0.018805" x2="0.182491" y2="-0.016305" />
      <line x1="0.182491" y1="-0.016305" x2="0.182491" y2="-0.016303" />
      <line x1="0.182491" y1="-0.016305" x2="0.182491" y2="-0.015705" />
      <line x1="0.228321" y1="-0.016305" x2="0.228321" y2="-0.015705" />
      <line x1="0.182491" y1="-0.016305" x2="0.228321" y2="-0.016305" />
      <line x1="0.22832" y1="-0.016295" x2="0.22832" y2="-0.015695" />
      <line x1="0.228321" y1="-0.016305" x2="0.22832" y2="-0.016295" />
      <line x1="0.18249" y1="-0.016295" x2="0.22832" y2="-0.016295" />
      <path d="M 0.190106,-0.019604 A 0.0017,7.103198783532673e-07 7.540050108264758e-23 0,1 0.186706,-0.019604" />
      <path d="M 0.186706,-0.019604 A 0.0017,7.103198783532673e-07 7.540050108264758e-23 1,1 0.190106,-0.019604" />
      <path d="M 0.207106,-0.019604 A 0.001700000000000007,7.103198783532702e-07 7.540050108264758e-23 0,1 0.203706,-0.019604" />
      <path d="M 0.203706,-0.019604 A 0.001700000000000007,7.103198783532702e-07 7.540050108264758e-23 1,1 0.207106,-0.019604" />
      <path d="M 0.224106,-0.019604 A 0.0017,7.103198783532673e-07 7.540050108264758e-23 0,1 0.220706,-0.019604" />
      <path d="M 0.220706,-0.019604 A 0.0017,7.103198783532673e-07 7.540050108264758e-23 1,1 0.224106,-0.019604" />
      <path d="M 0.190105,-0.019596 A 0.0017,7.103198783532673e-07 7.540050108264758e-23 0,1 0.186705,-0.019596" />
      <path d="M 0.186705,-0.019596 A 0.0017,7.103198783532673e-07 7.540050108264758e-23 1,1 0.190105,-0.019596" />
      <path d="M 0.207105,-0.019596 A 0.001700000000000007,7.103198783532702e-07 7.540050108264758e-23 0,1 0.203705,-0.019596" />
      <path d="M 0.203705,-0.019596 A 0.001700000000000007,7.103198783532702e-07 7.540050108264758e-23 1,1 0.207105,-0.019596" />
      <path d="M 0.224105,-0.019596 A 0.0017,7.103198783532673e-07 7.540050108264758e-23 0,1 0.220705,-0.019596" />
      <path d="M 0.220705,-0.019596 A 0.0017,7.103198783532673e-07 7.540050108264758e-23 1,1 0.224105,-0.019596" />
      <line x1="0.22832" y1="-0.018795" x2="0.22832" y2="-0.016295" />
      <line x1="0.228321" y1="-0.018805" x2="0.228321" y2="-0.016305" />
      <line x1="0.191356" y1="-0.022104" x2="0.191356" y2="-0.019604" />
      <line x1="0.185456" y1="-0.022104" x2="0.185456" y2="-0.019604" />
      <line x1="0.208356" y1="-0.022104" x2="0.208356" y2="-0.019604" />
      <line x1="0.202456" y1="-0.022104" x2="0.202456" y2="-0.019604" />
      <line x1="0.225356" y1="-0.022104" x2="0.225356" y2="-0.019604" />
      <line x1="0.219456" y1="-0.022104" x2="0.219456" y2="-0.019604" />
      <line x1="0.191355" y1="-0.022096" x2="0.191355" y2="-0.019596" />
      <line x1="0.185455" y1="-0.022096" x2="0.185455" y2="-0.019596" />
      <line x1="0.208355" y1="-0.022096" x2="0.208355" y2="-0.019596" />
      <line x1="0.202455" y1="-0.022096" x2="0.202455" y2="-0.019596" />
      <line x1="0.225355" y1="-0.022096" x2="0.225355" y2="-0.019596" />
      <line x1="0.219455" y1="-0.022096" x2="0.219455" y2="-0.019596" />
      <line x1="0.186706" y1="-0.019604" x2="0.186706" y2="-0.018804" />
      <line x1="0.203706" y1="-0.019604" x2="0.203706" y2="-0.018804" />
      <line x1="0.220706" y1="-0.019604" x2="0.220706" y2="-0.018804" />
      <line x1="0.186705" y1="-0.019596" x2="0.186705" y2="-0.018796" />
      <line x1="0.203705" y1="-0.019596" x2="0.203705" y2="-0.018796" />
      <line x1="0.220705" y1="-0.019596" x2="0.220705" y2="-0.018796" />
      <line x1="0.239321" y1="-0.022089" x2="0.239321" y2="0.019011" />
      <line x1="0.239321" y1="-0.022089" x2="0.270651" y2="-0.022089" />
      <line x1="0.270651" y1="-0.022089" x2="0.270651" y2="0.019011" />
      <line x1="0.262536" y1="-0.020289" x2="0.247436" y2="-0.020289" />
      <line x1="0.262536" y1="-0.020289" x2="0.262536" y2="-0.011689" />
      <line x1="0.262536" y1="-0.011689" x2="0.247436" y2="-0.011689" />
      <line x1="0.247436" y1="-0.020289" x2="0.247436" y2="-0.011689" />
      <line x1="0.239321" y1="-0.022089" x2="0.239321" y2="-0.022111" />
      <line x1="0.270651" y1="-0.022089" x2="0.270651" y2="-0.022111" />
      <path d="M 0.244736,-0.022094 A 0.00295,1.2326690636998065e-06 -6.585612480183261e-37 0,1 0.247686,-0.022093" />
      <path d="M 0.247686,-0.022093 A 0.00295,1.2326690636998065e-06 -6.585612480183261e-37 0,1 0.241786,-0.022093" />
      <path d="M 0.241786,-0.022093 A 0.00295,1.2326690636998065e-06 -6.585612480183261e-37 0,1 0.244736,-0.022094" />
      <path d="M 0.244736,-0.022101 A 0.00295,1.2326690636998065e-06 -6.585612480183261e-37 0,1 0.247686,-0.0221" />
      <path d="M 0.247686,-0.0221 A 0.00295,1.2326690636998065e-06 -6.585612480183261e-37 0,1 0.241786,-0.0221" />
      <path d="M 0.241786,-0.0221 A 0.00295,1.2326690636998065e-06 -6.585612480183261e-37 0,1 0.244736,-0.022101" />
      <path d="M 0.244736,-0.022108 A 0.00295,1.2326690636998065e-06 -6.585612480183261e-37 0,1 0.247686,-0.022107" />
      <path d="M 0.247686,-0.022107 A 0.00295,1.2326690636998065e-06 -6.585612480183261e-37 0,1 0.241786,-0.022107" />
      <path d="M 0.241786,-0.022107 A 0.00295,1.2326690636998065e-06 -6.585612480183261e-37 0,1 0.244736,-0.022108" />
      <path d="M 0.265236,-0.022094 A 0.00295,1.2326690636998065e-06 -6.585612480183261e-37 0,1 0.268186,-0.022093" />
      <path d="M 0.268186,-0.022093 A 0.00295,1.2326690636998065e-06 -6.585612480183261e-37 0,1 0.262286,-0.022093" />
      <path d="M 0.262286,-0.022093 A 0.00295,1.2326690636998065e-06 -6.585612480183261e-37 0,1 0.265236,-0.022094" />
      <path d="M 0.265236,-0.022101 A 0.00295,1.2326690636998065e-06 -6.585612480183261e-37 0,1 0.268186,-0.0221" />
      <path d="M 0.268186,-0.0221 A 0.00295,1.2326690636998065e-06 -6.585612480183261e-37 0,1 0.262286,-0.0221" />
      <path d="M 0.262286,-0.0221 A 0.00295,1.2326690636998065e-06 -6.585612480183261e-37 0,1 0.265236,-0.022101" />
      <path d="M 0.265236,-0.022108 A 0.00295,1.2326690636998065e-06 -6.585612480183261e-37 0,1 0.268186,-0.022107" />
      <path d="M 0.268186,-0.022107 A 0.00295,1.2326690636998065e-06 -6.585612480183261e-37 0,1 0.262286,-0.022107" />
      <path d="M 0.262286,-0.022107 A 0.00295,1.2326690636998065e-06 -6.585612480183261e-37 0,1 0.265236,-0.022108" />
      <line x1="0.262536" y1="-0.020289" x2="0.262536" y2="-0.020291" />
      <line x1="0.247436" y1="-0.020291" x2="0.262536" y2="-0.020291" />
      <line x1="0.247436" y1="-0.020289" x2="0.247436" y2="-0.020291" />
      <line x1="0.262536" y1="-0.020291" x2="0.262536" y2="-0.018791" />
      <line x1="0.262536" y1="-0.01879" x2="0.262536" y2="-0.01629" />
      <line x1="0.262536" y1="-0.01629" x2="0.262536" y2="-0.01569" />
      <line x1="0.262536" y1="-0.01569" x2="0.262536" y2="-0.01169" />
      <line x1="0.262536" y1="-0.011689" x2="0.262536" y2="-0.01169" />
      <line x1="0.262536" y1="-0.01169" x2="0.247436" y2="-0.01169" />
      <line x1="0.247436" y1="-0.011689" x2="0.247436" y2="-0.01169" />
      <line x1="0.247436" y1="-0.020291" x2="0.247436" y2="-0.018791" />
      <line x1="0.247436" y1="-0.01879" x2="0.247436" y2="-0.01629" />
      <line x1="0.247436" y1="-0.01629" x2="0.247436" y2="-0.01569" />
      <line x1="0.247436" y1="-0.01569" x2="0.247436" y2="-0.01169" />
      <line x1="0.242321" y1="-0.015709" x2="0.242321" y2="0.018991" />
      <line x1="0.242321" y1="-0.01569" x2="0.242321" y2="0.018991" />
      <line x1="0.242321" y1="-0.01569" x2="0.242321" y2="-0.015709" />
      <line x1="0.267651" y1="-0.015709" x2="0.267651" y2="0.018991" />
      <line x1="0.242321" y1="-0.015709" x2="0.267651" y2="-0.015709" />
      <line x1="0.267651" y1="-0.01569" x2="0.267651" y2="0.018991" />
      <line x1="0.267651" y1="-0.01569" x2="0.267651" y2="-0.015709" />
      <line x1="0.262536" y1="-0.01569" x2="0.267651" y2="-0.01569" />
      <line x1="0.242321" y1="-0.01569" x2="0.247436" y2="-0.01569" />
      <path d="M 0.244736,-0.019594 A 0.00295,1.2326690636998065e-06 -6.585612480183261e-37 0,1 0.247686,-0.019593" />
      <path d="M 0.247686,-0.019593 A 0.00295,1.2326690636998065e-06 -6.585612480183261e-37 0,1 0.241786,-0.019593" />
      <path d="M 0.241786,-0.019593 A 0.00295,1.2326690636998065e-06 -6.585612480183261e-37 0,1 0.244736,-0.019594" />
      <path d="M 0.244736,-0.019601 A 0.00295,1.2326690636998065e-06 -6.585612480183261e-37 0,1 0.247686,-0.0196" />
      <path d="M 0.247686,-0.0196 A 0.00295,1.2326690636998065e-06 -6.585612480183261e-37 0,1 0.241786,-0.0196" />
      <path d="M 0.241786,-0.0196 A 0.00295,1.2326690636998065e-06 -6.585612480183261e-37 0,1 0.244736,-0.019601" />
      <path d="M 0.244736,-0.019608 A 0.00295,1.2326690636998065e-06 -6.585612480183261e-37 0,1 0.247686,-0.019607" />
      <path d="M 0.247686,-0.019607 A 0.00295,1.2326690636998065e-06 -6.585612480183261e-37 0,1 0.241786,-0.019607" />
      <path d="M 0.241786,-0.019607 A 0.00295,1.2326690636998065e-06 -6.585612480183261e-37 0,1 0.244736,-0.019608" />
      <path d="M 0.265236,-0.019594 A 0.00295,1.2326690636998065e-06 -6.585612480183261e-37 0,1 0.268186,-0.019593" />
      <path d="M 0.268186,-0.019593 A 0.00295,1.2326690636998065e-06 -6.585612480183261e-37 0,1 0.262286,-0.019593" />
      <path d="M 0.262286,-0.019593 A 0.00295,1.2326690636998065e-06 -6.585612480183261e-37 0,1 0.265236,-0.019594" />
      <path d="M 0.265236,-0.019601 A 0.00295,1.2326690636998065e-06 -6.585612480183261e-37 0,1 0.268186,-0.0196" />
      <path d="M 0.268186,-0.0196 A 0.00295,1.2326690636998065e-06 -6.585612480183261e-37 0,1 0.262286,-0.0196" />
      <path d="M 0.262286,-0.0196 A 0.00295,1.2326690636998065e-06 -6.585612480183261e-37 0,1 0.265236,-0.019601" />
      <path d="M 0.265236,-0.019608 A 0.00295,1.2326690636998065e-06 -6.585612480183261e-37 0,1 0.268186,-0.019607" />
      <path d="M 0.268186,-0.019607 A 0.00295,1.2326690636998065e-06 -6.585612480183261e-37 0,1 0.262286,-0.019607" />
      <path d="M 0.262286,-0.019607 A 0.00295,1.2326690636998065e-06 -6.585612480183261e-37 0,1 0.265236,-0.019608" />
      <line x1="0.247436" y1="-0.018791" x2="0.262536" y2="-0.018791" />
      <line x1="0.242321" y1="-0.01879" x2="0.247436" y2="-0.01879" />
      <line x1="0.262536" y1="-0.01879" x2="0.267651" y2="-0.01879" />
      <line x1="0.267651" y1="-0.01879" x2="0.267651" y2="-0.018809" />
      <line x1="0.242321" y1="-0.018809" x2="0.267651" y2="-0.018809" />
      <line x1="0.242321" y1="-0.01879" x2="0.242321" y2="-0.018809" />
      <path d="M 0.244736,-0.018793 A 0.0017,7.103516638270072e-07 -6.585612480183261e-37 0,1 0.246436,-0.018793" />
      <path d="M 0.246436,-0.018793 A 0.0017,7.103516638270072e-07 -6.585612480183261e-37 0,1 0.243036,-0.018793" />
      <path d="M 0.243036,-0.018793 A 0.0017,7.103516638270072e-07 -6.585612480183261e-37 0,1 0.244736,-0.018793" />
      <path d="M 0.244736,-0.018801 A 0.0017,7.103516638270072e-07 -6.585612480183261e-37 0,1 0.246436,-0.0188" />
      <path d="M 0.246436,-0.0188 A 0.0017,7.103516638270072e-07 -6.585612480183261e-37 0,1 0.243036,-0.0188" />
      <path d="M 0.243036,-0.0188 A 0.0017,7.103516638270072e-07 -6.585612480183261e-37 0,1 0.244736,-0.018801" />
      <path d="M 0.244736,-0.018808 A 0.0017,7.103516638270072e-07 -6.585612480183261e-37 0,1 0.246436,-0.018807" />
      <path d="M 0.246436,-0.018807 A 0.0017,7.103516638270072e-07 -6.585612480183261e-37 0,1 0.243036,-0.018807" />
      <path d="M 0.243036,-0.018807 A 0.0017,7.103516638270072e-07 -6.585612480183261e-37 0,1 0.244736,-0.018808" />
      <path d="M 0.265236,-0.018793 A 0.0017,7.103516638270072e-07 -6.585612480183261e-37 0,1 0.266936,-0.018793" />
      <path d="M 0.266936,-0.018793 A 0.001700000000000007,7.103516638270101e-07 -6.585612480183261e-37 0,1 0.263536,-0.018793" />
      <path d="M 0.263536,-0.018793 A 0.0017,7.103516638270072e-07 -6.585612480183261e-37 0,1 0.265236,-0.018793" />
      <path d="M 0.265236,-0.018801 A 0.0017,7.103516638270072e-07 -6.585612480183261e-37 0,1 0.266936,-0.0188" />
      <path d="M 0.266936,-0.0188 A 0.001700000000000007,7.103516638270101e-07 -6.585612480183261e-37 0,1 0.263536,-0.0188" />
      <path d="M 0.263536,-0.0188 A 0.0017,7.103516638270072e-07 -6.585612480183261e-37 0,1 0.265236,-0.018801" />
      <path d="M 0.265236,-0.018808 A 0.0017,7.103516638270072e-07 -6.585612480183261e-37 0,1 0.266936,-0.018807" />
      <path d="M 0.266936,-0.018807 A 0.001700000000000007,7.103516638270101e-07 -6.585612480183261e-37 0,1 0.263536,-0.018807" />
      <path d="M 0.263536,-0.018807 A 0.0017,7.103516638270072e-07 -6.585612480183261e-37 0,1 0.265236,-0.018808" />
      <line x1="0.262536" y1="-0.01629" x2="0.267651" y2="-0.01629" />
      <line x1="0.267651" y1="-0.01879" x2="0.267651" y2="-0.01629" />
      <line x1="0.267651" y1="-0.01629" x2="0.267651" y2="-0.01569" />
      <line x1="0.242321" y1="-0.01879" x2="0.242321" y2="-0.01629" />
      <line x1="0.242321" y1="-0.01629" x2="0.247436" y2="-0.01629" />
      <line x1="0.242321" y1="-0.01629" x2="0.242321" y2="-0.01569" />
      <line x1="0.242321" y1="-0.016309" x2="0.242321" y2="-0.015709" />
      <line x1="0.242321" y1="-0.01629" x2="0.242321" y2="-0.016309" />
      <line x1="0.267651" y1="-0.016309" x2="0.267651" y2="-0.015709" />
      <line x1="0.242321" y1="-0.016309" x2="0.267651" y2="-0.016309" />
      <line x1="0.267651" y1="-0.01629" x2="0.267651" y2="-0.016309" />
      <path d="M 0.244736,-0.019593 A 0.0017,7.103516638270072e-07 -6.585612480183261e-37 0,1 0.246436,-0.019593" />
      <path d="M 0.246436,-0.019593 A 0.0017,7.103516638270072e-07 -6.585612480183261e-37 0,1 0.243036,-0.019593" />
      <path d="M 0.243036,-0.019593 A 0.0017,7.103516638270072e-07 -6.585612480183261e-37 0,1 0.244736,-0.019593" />
      <path d="M 0.244736,-0.019601 A 0.0017,7.103516638270072e-07 -6.585612480183261e-37 0,1 0.246436,-0.0196" />
      <path d="M 0.246436,-0.0196 A 0.0017,7.103516638270072e-07 -6.585612480183261e-37 0,1 0.243036,-0.0196" />
      <path d="M 0.243036,-0.0196 A 0.0017,7.103516638270072e-07 -6.585612480183261e-37 0,1 0.244736,-0.019601" />
      <path d="M 0.244736,-0.019608 A 0.0017,7.103516638270072e-07 -6.585612480183261e-37 0,1 0.246436,-0.019607" />
      <path d="M 0.246436,-0.019607 A 0.0017,7.103516638270072e-07 -6.585612480183261e-37 0,1 0.243036,-0.019607" />
      <path d="M 0.243036,-0.019607 A 0.0017,7.103516638270072e-07 -6.585612480183261e-37 0,1 0.244736,-0.019608" />
      <path d="M 0.265236,-0.019593 A 0.0017,7.103516638270072e-07 -6.585612480183261e-37 0,1 0.266936,-0.019593" />
      <path d="M 0.266936,-0.019593 A 0.001700000000000007,7.103516638270101e-07 -6.585612480183261e-37 0,1 0.263536,-0.019593" />
      <path d="M 0.263536,-0.019593 A 0.0017,7.103516638270072e-07 -6.585612480183261e-37 0,1 0.265236,-0.019593" />
      <path d="M 0.265236,-0.019601 A 0.0017,7.103516638270072e-07 -6.585612480183261e-37 0,1 0.266936,-0.0196" />
      <path d="M 0.266936,-0.0196 A 0.001700000000000007,7.103516638270101e-07 -6.585612480183261e-37 0,1 0.263536,-0.0196" />
      <path d="M 0.263536,-0.0196 A 0.0017,7.103516638270072e-07 -6.585612480183261e-37 0,1 0.265236,-0.019601" />
      <path d="M 0.265236,-0.019608 A 0.0017,7.103516638270072e-07 -6.585612480183261e-37 0,1 0.266936,-0.019607" />
      <path d="M 0.266936,-0.019607 A 0.001700000000000007,7.103516638270101e-07 -6.585612480183261e-37 0,1 0.263536,-0.019607" />
      <path d="M 0.263536,-0.019607 A 0.0017,7.103516638270072e-07 -6.585612480183261e-37 0,1 0.265236,-0.019608" />
      <line x1="0.267651" y1="-0.018809" x2="0.267651" y2="-0.016309" />
      <line x1="0.242321" y1="-0.018809" x2="0.242321" y2="-0.016309" />
      <line x1="0.247686" y1="-0.022093" x2="0.247686" y2="-0.019593" />
      <line x1="0.241786" y1="-0.022093" x2="0.241786" y2="-0.019593" />
      <line x1="0.247686" y1="-0.0221" x2="0.247686" y2="-0.0196" />
      <line x1="0.241786" y1="-0.0221" x2="0.241786" y2="-0.0196" />
      <line x1="0.247686" y1="-0.022107" x2="0.247686" y2="-0.019607" />
      <line x1="0.241786" y1="-0.022107" x2="0.241786" y2="-0.019607" />
      <line x1="0.268186" y1="-0.022093" x2="0.268186" y2="-0.019593" />
      <line x1="0.262286" y1="-0.022093" x2="0.262286" y2="-0.019593" />
      <line x1="0.268186" y1="-0.0221" x2="0.268186" y2="-0.0196" />
      <line x1="0.262286" y1="-0.0221" x2="0.262286" y2="-0.0196" />
      <line x1="0.268186" y1="-0.022107" x2="0.268186" y2="-0.019607" />
      <line x1="0.262286" y1="-0.022107" x2="0.262286" y2="-0.019607" />
      <line x1="0.246436" y1="-0.019593" x2="0.246436" y2="-0.018793" />
      <line x1="0.243036" y1="-0.019593" x2="0.243036" y2="-0.018793" />
      <line x1="0.246436" y1="-0.0196" x2="0.246436" y2="-0.0188" />
      <line x1="0.243036" y1="-0.0196" x2="0.243036" y2="-0.0188" />
      <line x1="0.246436" y1="-0.019607" x2="0.246436" y2="-0.018807" />
      <line x1="0.243036" y1="-0.019607" x2="0.243036" y2="-0.018807" />
      <line x1="0.266936" y1="-0.019593" x2="0.266936" y2="-0.018793" />
      <line x1="0.263536" y1="-0.019593" x2="0.263536" y2="-0.018793" />
      <line x1="0.266936" y1="-0.0196" x2="0.266936" y2="-0.0188" />
      <line x1="0.263536" y1="-0.0196" x2="0.263536" y2="-0.0188" />
      <line x1="0.266936" y1="-0.019607" x2="0.266936" y2="-0.018807" />
      <line x1="0.263536" y1="-0.019607" x2="0.263536" y2="-0.018807" />
    </g>
  </g>
  <text x="0.025915" y="-0.025175" text-anchor="middle" font-family="'Input Sans Narrow', 'DejaVu Sans', Arial, sans-serif" font-size="0.002500" font-weight="bold" fill="#333">A-A</text>
  <text x="0.025915" y="-0.021675" text-anchor="middle" font-family="'Input Sans Narrow', 'DejaVu Sans', Arial, sans-serif" font-size="0.001800" fill="#888">top_shaft</text>
  <line x1="0.000000" y1="0.016465" x2="0.000000" y2="0.019465" stroke="#5C7080" stroke-width="0.000140" stroke-opacity="0.5"/>
  <line x1="0.051830" y1="0.016465" x2="0.051830" y2="0.019465" stroke="#5C7080" stroke-width="0.000140" stroke-opacity="0.5"/>
  <line x1="0.000000" y1="0.017865" x2="0.000000" y2="0.019465" stroke="#5C7080" stroke-width="0.000200"/>
  <line x1="0.051830" y1="0.017865" x2="0.051830" y2="0.019465" stroke="#5C7080" stroke-width="0.000200"/>
  <line x1="0.000000" y1="0.018665" x2="0.051830" y2="0.018665" stroke="#5C7080" stroke-width="0.000200"/>
  <polygon points="0.000000,0.018665 0.001500,0.018065 0.001500,0.019265" fill="#5C7080"/>
  <polygon points="0.051830,0.018665 0.050330,0.018065 0.050330,0.019265" fill="#5C7080"/>
  <text x="0.025915" y="0.017465" text-anchor="middle" font-family="'Input Sans Narrow', 'DejaVu Sans', Arial, sans-serif" font-size="0.001600" fill="#5C7080">51.8</text>
  <line x1="0.052630" y1="-0.015665" x2="0.055630" y2="-0.015665" stroke="#5C7080" stroke-width="0.000140" stroke-opacity="0.5"/>
  <line x1="0.052630" y1="0.015665" x2="0.055630" y2="0.015665" stroke="#5C7080" stroke-width="0.000140" stroke-opacity="0.5"/>
  <line x1="0.054030" y1="-0.015665" x2="0.055630" y2="-0.015665" stroke="#5C7080" stroke-width="0.000200"/>
  <line x1="0.054030" y1="0.015665" x2="0.055630" y2="0.015665" stroke="#5C7080" stroke-width="0.000200"/>
  <line x1="0.054830" y1="-0.015665" x2="0.054830" y2="0.015665" stroke="#5C7080" stroke-width="0.000200"/>
  <polygon points="0.054830,-0.015665 0.054230,-0.014165 0.055430,-0.014165" fill="#5C7080"/>
  <polygon points="0.054830,0.015665 0.054230,0.014165 0.055430,0.014165" fill="#5C7080"/>
  <text x="0.056330" y="0.000000" text-anchor="middle" dominant-baseline="central" font-family="'Input Sans Narrow', 'DejaVu Sans', Arial, sans-serif" font-size="0.001600" fill="#5C7080" transform="rotate(-90 0.056330 0.000000)">31.3</text>
  <text x="0.085745" y="-0.025175" text-anchor="middle" font-family="'Input Sans Narrow', 'DejaVu Sans', Arial, sans-serif" font-size="0.002500" font-weight="bold" fill="#333">B-B</text>
  <text x="0.085745" y="-0.021675" text-anchor="middle" font-family="'Input Sans Narrow', 'DejaVu Sans', Arial, sans-serif" font-size="0.001800" fill="#888">mid_body</text>
  <text x="0.145575" y="-0.025175" text-anchor="middle" font-family="'Input Sans Narrow', 'DejaVu Sans', Arial, sans-serif" font-size="0.002500" font-weight="bold" fill="#333">C-C</text>
  <text x="0.145575" y="-0.021675" text-anchor="middle" font-family="'Input Sans Narrow', 'DejaVu Sans', Arial, sans-serif" font-size="0.001800" fill="#888">ears</text>
  <text x="0.205406" y="-0.025175" text-anchor="middle" font-family="'Input Sans Narrow', 'DejaVu Sans', Arial, sans-serif" font-size="0.002500" font-weight="bold" fill="#333">side_XZ</text>
  <line x1="0.179490" y1="0.022907" x2="0.179490" y2="0.025907" stroke="#5C7080" stroke-width="0.000140" stroke-opacity="0.5"/>
  <line x1="0.231321" y1="0.022907" x2="0.231321" y2="0.025907" stroke="#5C7080" stroke-width="0.000140" stroke-opacity="0.5"/>
  <line x1="0.179490" y1="0.024307" x2="0.179490" y2="0.025907" stroke="#5C7080" stroke-width="0.000200"/>
  <line x1="0.231321" y1="0.024307" x2="0.231321" y2="0.025907" stroke="#5C7080" stroke-width="0.000200"/>
  <line x1="0.179490" y1="0.025107" x2="0.231321" y2="0.025107" stroke="#5C7080" stroke-width="0.000200"/>
  <polygon points="0.179490,0.025107 0.180990,0.024507 0.180990,0.025707" fill="#5C7080"/>
  <polygon points="0.231321,0.025107 0.229821,0.024507 0.229821,0.025707" fill="#5C7080"/>
  <text x="0.205406" y="0.023907" text-anchor="middle" font-family="'Input Sans Narrow', 'DejaVu Sans', Arial, sans-serif" font-size="0.001600" fill="#5C7080">51.8</text>
  <line x1="0.232121" y1="-0.019500" x2="0.235121" y2="-0.019500" stroke="#5C7080" stroke-width="0.000140" stroke-opacity="0.5"/>
  <line x1="0.232121" y1="0.022107" x2="0.235121" y2="0.022107" stroke="#5C7080" stroke-width="0.000140" stroke-opacity="0.5"/>
  <line x1="0.233521" y1="-0.019500" x2="0.235121" y2="-0.019500" stroke="#5C7080" stroke-width="0.000200"/>
  <line x1="0.233521" y1="0.022107" x2="0.235121" y2="0.022107" stroke="#5C7080" stroke-width="0.000200"/>
  <line x1="0.234321" y1="-0.019500" x2="0.234321" y2="0.022107" stroke="#5C7080" stroke-width="0.000200"/>
  <polygon points="0.234321,-0.019500 0.233721,-0.018000 0.234921,-0.018000" fill="#5C7080"/>
  <polygon points="0.234321,0.022107 0.233721,0.020607 0.234921,0.020607" fill="#5C7080"/>
  <text x="0.235821" y="0.001303" text-anchor="middle" dominant-baseline="central" font-family="'Input Sans Narrow', 'DejaVu Sans', Arial, sans-serif" font-size="0.001600" fill="#5C7080" transform="rotate(-90 0.235821 0.001303)">41.6</text>
  <line x1="0.176490" y1="-0.016000" x2="0.234321" y2="-0.016000" stroke="#555" stroke-width="0.000250" stroke-dasharray="0.002500,0.000800,0.000500,0.000800"/>
  <text x="0.174990" y="-0.015400" text-anchor="end" font-family="'Input Sans Narrow', 'DejaVu Sans', Arial, sans-serif" font-size="0.002000" font-weight="bold" fill="#555">A</text>
  <text x="0.235821" y="-0.015400" text-anchor="start" font-family="'Input Sans Narrow', 'DejaVu Sans', Arial, sans-serif" font-size="0.002000" font-weight="bold" fill="#555">A</text>
  <line x1="0.176490" y1="-0.000000" x2="0.234321" y2="-0.000000" stroke="#555" stroke-width="0.000250" stroke-dasharray="0.002500,0.000800,0.000500,0.000800"/>
  <text x="0.174990" y="0.000600" text-anchor="end" font-family="'Input Sans Narrow', 'DejaVu Sans', Arial, sans-serif" font-size="0.002000" font-weight="bold" fill="#555">B</text>
  <text x="0.235821" y="0.000600" text-anchor="start" font-family="'Input Sans Narrow', 'DejaVu Sans', Arial, sans-serif" font-size="0.002000" font-weight="bold" fill="#555">B</text>
  <line x1="0.176490" y1="0.017500" x2="0.234321" y2="0.017500" stroke="#555" stroke-width="0.000250" stroke-dasharray="0.002500,0.000800,0.000500,0.000800"/>
  <text x="0.174990" y="0.018100" text-anchor="end" font-family="'Input Sans Narrow', 'DejaVu Sans', Arial, sans-serif" font-size="0.002000" font-weight="bold" fill="#555">C</text>
  <text x="0.235821" y="0.018100" text-anchor="start" font-family="'Input Sans Narrow', 'DejaVu Sans', Arial, sans-serif" font-size="0.002000" font-weight="bold" fill="#555">C</text>
  <text x="0.254986" y="-0.025175" text-anchor="middle" font-family="'Input Sans Narrow', 'DejaVu Sans', Arial, sans-serif" font-size="0.002500" font-weight="bold" fill="#333">side_YZ</text>
  <line x1="0.239321" y1="0.022911" x2="0.239321" y2="0.025911" stroke="#5C7080" stroke-width="0.000140" stroke-opacity="0.5"/>
  <line x1="0.270651" y1="0.022911" x2="0.270651" y2="0.025911" stroke="#5C7080" stroke-width="0.000140" stroke-opacity="0.5"/>
  <line x1="0.239321" y1="0.024311" x2="0.239321" y2="0.025911" stroke="#5C7080" stroke-width="0.000200"/>
  <line x1="0.270651" y1="0.024311" x2="0.270651" y2="0.025911" stroke="#5C7080" stroke-width="0.000200"/>
  <line x1="0.239321" y1="0.025111" x2="0.270651" y2="0.025111" stroke="#5C7080" stroke-width="0.000200"/>
  <polygon points="0.239321,0.025111 0.240821,0.024511 0.240821,0.025711" fill="#5C7080"/>
  <polygon points="0.270651,0.025111 0.269151,0.024511 0.269151,0.025711" fill="#5C7080"/>
  <text x="0.254986" y="0.023911" text-anchor="middle" font-family="'Input Sans Narrow', 'DejaVu Sans', Arial, sans-serif" font-size="0.001600" fill="#5C7080">31.3</text>
  <line x1="0.271451" y1="-0.019500" x2="0.274451" y2="-0.019500" stroke="#5C7080" stroke-width="0.000140" stroke-opacity="0.5"/>
  <line x1="0.271451" y1="0.022111" x2="0.274451" y2="0.022111" stroke="#5C7080" stroke-width="0.000140" stroke-opacity="0.5"/>
  <line x1="0.272851" y1="-0.019500" x2="0.274451" y2="-0.019500" stroke="#5C7080" stroke-width="0.000200"/>
  <line x1="0.272851" y1="0.022111" x2="0.274451" y2="0.022111" stroke="#5C7080" stroke-width="0.000200"/>
  <line x1="0.273651" y1="-0.019500" x2="0.273651" y2="0.022111" stroke="#5C7080" stroke-width="0.000200"/>
  <polygon points="0.273651,-0.019500 0.273051,-0.018000 0.274251,-0.018000" fill="#5C7080"/>
  <polygon points="0.273651,0.022111 0.273051,0.020611 0.274251,0.020611" fill="#5C7080"/>
  <text x="0.275151" y="0.001305" text-anchor="middle" dominant-baseline="central" font-family="'Input Sans Narrow', 'DejaVu Sans', Arial, sans-serif" font-size="0.001600" fill="#5C7080" transform="rotate(-90 0.275151 0.001305)">41.6</text>
  <line x1="0.236321" y1="-0.016000" x2="0.273651" y2="-0.016000" stroke="#555" stroke-width="0.000250" stroke-dasharray="0.002500,0.000800,0.000500,0.000800"/>
  <text x="0.234821" y="-0.015400" text-anchor="end" font-family="'Input Sans Narrow', 'DejaVu Sans', Arial, sans-serif" font-size="0.002000" font-weight="bold" fill="#555">A</text>
  <text x="0.275151" y="-0.015400" text-anchor="start" font-family="'Input Sans Narrow', 'DejaVu Sans', Arial, sans-serif" font-size="0.002000" font-weight="bold" fill="#555">A</text>
  <line x1="0.236321" y1="-0.000000" x2="0.273651" y2="-0.000000" stroke="#555" stroke-width="0.000250" stroke-dasharray="0.002500,0.000800,0.000500,0.000800"/>
  <text x="0.234821" y="0.000600" text-anchor="end" font-family="'Input Sans Narrow', 'DejaVu Sans', Arial, sans-serif" font-size="0.002000" font-weight="bold" fill="#555">B</text>
  <text x="0.275151" y="0.000600" text-anchor="start" font-family="'Input Sans Narrow', 'DejaVu Sans', Arial, sans-serif" font-size="0.002000" font-weight="bold" fill="#555">B</text>
  <line x1="0.236321" y1="0.017500" x2="0.273651" y2="0.017500" stroke="#555" stroke-width="0.000250" stroke-dasharray="0.002500,0.000800,0.000500,0.000800"/>
  <text x="0.234821" y="0.018100" text-anchor="end" font-family="'Input Sans Narrow', 'DejaVu Sans', Arial, sans-serif" font-size="0.002000" font-weight="bold" fill="#555">C</text>
  <text x="0.275151" y="0.018100" text-anchor="start" font-family="'Input Sans Narrow', 'DejaVu Sans', Arial, sans-serif" font-size="0.002000" font-weight="bold" fill="#555">C</text>
  <text x="-0.001175" y="0.030286" font-family="'Input Sans Narrow', 'DejaVu Sans', Arial, sans-serif" font-size="0.003500" font-weight="bold" fill="#222">pocket_bracket</text>
  <line x1="-0.001175" y1="0.034286" x2="0.008825" y2="0.034286" stroke="#333" stroke-width="0.000350"/>
  <line x1="-0.001175" y1="0.033286" x2="-0.001175" y2="0.035286" stroke="#333" stroke-width="0.000250"/>
  <line x1="0.008825" y1="0.033286" x2="0.008825" y2="0.035286" stroke="#333" stroke-width="0.000250"/>
  <text x="0.010325" y="0.034986" font-family="'Input Sans Narrow', 'DejaVu Sans', Arial, sans-serif" font-size="0.001800" fill="#888">10 mm</text>
  <rect x="0.028825" y="0.027786" width="0.004000" height="0.002500" fill="url(#hatch_servo)" stroke="rgb(60,60,60)" stroke-width="0.000300"/>
  <text x="0.034325" y="0.029786" font-family="'Input Sans Narrow', 'DejaVu Sans', Arial, sans-serif" font-size="0.001800" fill="rgb(60,60,60)">servo</text>
  <rect x="0.028825" y="0.031286" width="0.004000" height="0.002500" fill="url(#hatch_bracket)" stroke="rgb(50,120,190)" stroke-width="0.000300"/>
  <text x="0.034325" y="0.033286" font-family="'Input Sans Narrow', 'DejaVu Sans', Arial, sans-serif" font-size="0.001800" fill="rgb(50,120,190)">bracket</text>
</svg>