<?xml version='1.0' encoding='utf-8'?>
<svg width="280.75mm" height="72.97mm" viewBox="-0.003175 -0.030683 0.280751 0.072965" version="1.1" xmlns="http://www.w3.org/2000/svg">
  <defs>
    <pattern id="hatch_servo" width="0.0012" height="0.0012" patternUnits="userSpaceOnUse" patternTransform="rotate(45)">
      <line x1="0" y1="0" x2="0" y2="0.0012" stroke="rgb(60,60,60)" stroke-width="0.0001" stroke-opacity="0.6"/>
    </pattern>
    <pattern id="hatch_bracket" width="0.0012" height="0.0012" patternUnits="userSpaceOnUse" patternTransform="rotate(75)">
      <line x1="0" y1="0" x2="0" y2="0.0012" stroke="rgb(50,120,190)" stroke-width="0.0001" stroke-opacity="0.6"/>
    </pattern>
  </defs>
  <g transform="scale(1,-1)" stroke-linecap="round">
    <g fill="none" stroke="rgb(60,60,60)" stroke-width="0.00035" id="servo">
      <line x1="0.0028" y1="-0.0124" x2="0.0028" y2="0.0124" />
      <line x1="0.0028" y1="-0.0124" x2="0.0482" y2="-0.0124" />
      <line x1="0.0482" y1="-0.0124" x2="0.0482" y2="0.0124" />
      <line x1="0.0028" y1="0.0124" x2="0.0482" y2="0.0124" />
      <line x1="0.0618" y1="0.0124" x2="0.1072" y2="0.0124" />
      <line x1="0.1072" y1="0.0124" x2="0.1072" y2="-0.0124" />
      <line x1="0.0618" y1="-0.0124" x2="0.1072" y2="-0.0124" />
      <line x1="0.0618" y1="0.0124" x2="0.0618" y2="-0.0124" />
      <line x1="0.1201" y1="0.01335" x2="0.1201" y2="0.0124" />
      <line x1="0.1201" y1="0.01335" x2="0.1508" y2="0.01335" />
      <line x1="0.1508" y1="0.01335" x2="0.1508" y2="0.0124" />
      <line x1="0.1201" y1="0.0124" x2="0.1508" y2="0.0124" />
      <line x1="0.1201" y1="-0.0124" x2="0.1508" y2="-0.0124" />
      <line x1="0.1508" y1="-0.0124" x2="0.1508" y2="-0.01335" />
      <line x1="0.1201" y1="-0.01335" x2="0.1508" y2="-0.01335" />
      <line x1="0.1201" y1="-0.0124" x2="0.1201" y2="-0.01335" />
      <line x1="0.179801" y1="-0.0159" x2="0.179801" y2="0.0159" />
      <line x1="0.179801" y1="-0.0159" x2="0.209801" y2="-0.0159" />
      <line x1="0.209801" y1="-0.0159" x2="0.225201" y2="-0.0159" />
      <line x1="0.225201" y1="-0.0159" x2="0.225201" y2="0.0159" />
      <line x1="0.179801" y1="0.0159" x2="0.225201" y2="0.0159" />
      <path d="M 0.211001,0.0159 A 0.0040000000000000036,2.1828005848407656e-08 1.919896894700601e-26 0,1 0.219001,0.0159" />
      <path d="M 0.219001,0.0187 A 0.0040000000000000036,2.1828005848407656e-08 1.919896894700601e-26 1,1 0.211001,0.0187" />
      <path d="M 0.211001,0.0187 A 0.0040000000000000036,2.1828005848407656e-08 1.919896894700601e-26 0,1 0.219001,0.0187" />
      <line x1="0.219001" y1="0.0159" x2="0.219001" y2="0.0187" />
      <line x1="0.209801" y1="-0.0201" x2="0.209801" y2="-0.0159" />
      <line x1="0.179101" y1="-0.0159" x2="0.179801" y2="-0.0159" />
      <line x1="0.179101" y1="-0.0201" x2="0.209801" y2="-0.0201" />
      <line x1="0.209801" y1="-0.0201" x2="0.209801" y2="-0.0159" />
      <line x1="0.179101" y1="-0.0159" x2="0.209801" y2="-0.0159" />
      <line x1="0.179101" y1="-0.0201" x2="0.179101" y2="-0.0159" />
      <line x1="0.211001" y1="0.0159" x2="0.211001" y2="0.0187" />
      <line x1="0.238801" y1="-0.0159" x2="0.238801" y2="0.0159" />
      <line x1="0.238801" y1="0.0159" x2="0.263601" y2="0.0159" />
      <path d="M 0.251201,0.0159 A 0.004,2.18279930106383e-08 -3.6630103329404655e-41 0,1 0.255201,0.0159" />
      <path d="M 0.247201,0.0159 A 0.004,2.18279930106383e-08 -3.6630103329404655e-41 0,1 0.251201,0.0159" />
      <line x1="0.263601" y1="-0.0159" x2="0.263601" y2="0.0159" />
      <line x1="0.238801" y1="-0.0159" x2="0.263601" y2="-0.0159" />
      <path d="M 0.251201,0.0187 A 0.004,2.18279930106383e-08 -3.6630103329404655e-41 0,1 0.255201,0.0187" />
      <path d="M 0.255201,0.0187 A 0.0040000000000000036,2.182799301063832e-08 -3.6630103329404655e-41 0,1 0.247201,0.0187" />
      <path d="M 0.247201,0.0187 A 0.004,2.18279930106383e-08 -3.6630103329404655e-41 0,1 0.251201,0.0187" />
      <line x1="0.263601" y1="-0.0201" x2="0.263601" y2="-0.0159" />
      <line x1="0.263601" y1="-0.0201" x2="0.264551" y2="-0.0201" />
      <line x1="0.263601" y1="-0.0159" x2="0.264551" y2="-0.0159" />
      <line x1="0.264551" y1="-0.0201" x2="0.264551" y2="-0.0159" />
      <line x1="0.238801" y1="-0.0201" x2="0.238801" y2="-0.0159" />
      <line x1="0.237851" y1="-0.0201" x2="0.238801" y2="-0.0201" />
      <line x1="0.237851" y1="-0.0201" x2="0.237851" y2="-0.0159" />
      <line x1="0.237851" y1="-0.0159" x2="0.238801" y2="-0.0159" />
      <line x1="0.255201" y1="0.0159" x2="0.255201" y2="0.0187" />
      <line x1="0.247201" y1="0.0159" x2="0.247201" y2="0.0187" />
    </g>
    <g fill="url(#hatch_servo)" stroke="none" stroke-width="0" id="servo_fill">
      <path d="M 0.0028,0.0124 L 0.0028,-0.0124 L 0.0482,-0.0124 L 0.0482,0.0124 L 0.0028,0.0124" />
      <path d="M 0.1072,0.0124 L 0.0618,0.0124 L 0.0618,-0.0124 L 0.1072,-0.0124 L 0.1072,0.0124" />
      <path d="M 0.1201,0.01335 L 0.1201,0.0124 L 0.1508,0.0124 L 0.1508,0.01335 L 0.1201,0.01335" />
      <path d="M 0.1508,-0.0124 L 0.1201,-0.0124 L 0.1201,-0.01335 L 0.1508,-0.01335 L 0.1508,-0.0124" />
    </g>
    <g fill="none" stroke="rgb(60,60,60)" stroke-opacity="0.4" stroke-width="0.00015" id="servo_hidden" stroke-dasharray="0.0018 0.00045">
      <line x1="0.179801" y1="-0.0159" x2="0.179801" y2="0.0159" />
      <line x1="0.179801" y1="0.0159" x2="0.225201" y2="0.0159" />
      <path d="M 0.219001,0.0159 A 0.0040000000000000036,2.1828005848407656e-08 1.919896894700601e-26 1,1 0.211001,0.0159" />
      <line x1="0.179801" y1="-0.0159" x2="0.209801" y2="-0.0159" />
      <line x1="0.209801" y1="-0.0159" x2="0.225201" y2="-0.0159" />
      <line x1="0.225201" y1="-0.0159" x2="0.225201" y2="0.0159" />
      <line x1="0.179101" y1="-0.0201" x2="0.209801" y2="-0.0201" />
      <line x1="0.179101" y1="-0.0201" x2="0.179101" y2="-0.0159" />
      <line x1="0.179101" y1="-0.0201" x2="0.209801" y2="-0.0201" />
      <line x1="0.209801" y1="-0.0201" x2="0.209801" y2="-0.0159" />
      <line x1="0.179101" y1="-0.0159" x2="0.209801" y2="-0.0159" />
      <line x1="0.179101" y1="-0.0201" x2="0.179101" y2="-0.0159" />
      <line x1="0.179101" y1="-0.0201" x2="0.209801" y2="-0.0201" />
      <line x1="0.209801" y1="-0.0201" x2="0.209801" y2="-0.0159" />
      <line x1="0.179101" y1="-0.0159" x2="0.179801" y2="-0.0159" />
      <line x1="0.179101" y1="-0.0201" x2="0.179101" y2="-0.0159" />
      <line x1="0.238801" y1="-0.0159" x2="0.238801" y2="0.0159" />
      <line x1="0.238801" y1="0.0159" x2="0.263601" y2="0.0159" />
      <line x1="0.263601" y1="-0.0159" x2="0.263601" y2="0.0159" />
      <line x1="0.238801" y1="-0.0159" x2="0.263601" y2="-0.0159" />
      <path d="M 0.255201,0.0159 A 0.0040000000000000036,2.182799301063832e-08 -3.6630103329404655e-41 0,1 0.247201,0.0159" />
      <line x1="0.263601" y1="-0.0201" x2="0.263601" y2="-0.0159" />
      <line x1="0.263601" y1="-0.0201" x2="0.264551" y2="-0.0201" />
      <line x1="0.263601" y1="-0.0159" x2="0.264551" y2="-0.0159" />
      <line x1="0.264551" y1="-0.0201" x2="0.264551" y2="-0.0159" />
      <line x1="0.238801" y1="-0.0201" x2="0.238801" y2="-0.0159" />
      <line x1="0.237851" y1="-0.0201" x2="0.238801" y2="-0.0201" />
      <line x1="0.237851" y1="-0.0159" x2="0.238801" y2="-0.0159" />
      <line x1="0.237851" y1="-0.0201" x2="0.237851" y2="-0.0159" />
    </g>
    <g fill="none" stroke="rgb(50,120,190)" stroke-width="0.00035" id="bracket">
      <line x1="0.0" y1="0.0152" x2="0.051" y2="0.0152" />
      <line x1="0.051" y1="0.0152" x2="0.051" y2="-0.0152" />
      <line x1="0.0" y1="-0.0152" x2="0.051" y2="-0.0152" />
      <line x1="0.0" y1="0.0152" x2="0.0" y2="-0.0152" />
      <line x1="0.0025" y1="0.0127" x2="0.0025" y2="-0.0127" />
      <line x1="0.0025" y1="-0.0127" x2="0.0485" y2="-0.0127" />
      <line x1="0.0485" y1="0.0127" x2="0.0485" y2="-0.0127" />
      <line x1="0.0025" y1="0.0127" x2="0.0485" y2="0.0127" />
      <line x1="0.059" y1="0.0152" x2="0.11" y2="0.0152" />
      <line x1="0.11" y1="0.0152" x2="0.11" y2="-0.0152" />
      <line x1="0.059" y1="-0.0152" x2="0.11" y2="-0.0152" />
      <line x1="0.059" y1="0.0152" x2="0.059" y2="-0.0152" />
      <line x1="0.0615" y1="0.0127" x2="0.0615" y2="-0.0127" />
      <line x1="0.0615" y1="-0.0127" x2="0.1075" y2="-0.0127" />
      <line x1="0.1075" y1="0.0127" x2="0.1075" y2="-0.0127" />
      <line x1="0.0615" y1="0.0127" x2="0.1075" y2="0.0127" />
      <line x1="0.118" y1="0.0152" x2="0.169" y2="0.0152" />
      <line x1="0.169" y1="0.0152" x2="0.169" y2="-0.0152" />
      <line x1="0.118" y1="-0.0152" x2="0.169" y2="-0.0152" />
      <line x1="0.118" y1="-0.005" x2="0.118" y2="-0.0152" />
      <line x1="0.118" y1="-0.005" x2="0.1218" y2="-0.005" />
      <line x1="0.1218" y1="0.005" x2="0.1218" y2="-0.005" />
      <line x1="0.118" y1="0.005" x2="0.1218" y2="0.005" />
      <line x1="0.118" y1="0.0152" x2="0.118" y2="0.005" />
      <path d="M 0.1251,-0.009356 A 0.0021,0.0021 0.0 1,1 0.1251,-0.011144" />
      <path d="M 0.1251,-0.011144 A 0.0021,0.0021 0.0 1,1 0.1251,-0.009356" />
      <circle cx="0.1477" cy="-0.01025" r="0.0021" />
      <path d="M 0.1251,0.011144 A 0.0021,0.0021 0.0 1,1 0.1251,0.009356" />
      <path d="M 0.1251,0.009356 A 0.0021,0.0021 0.0 1,1 0.1251,0.011144" />
      <circle cx="0.1477" cy="0.01025" r="0.0021" />
      <line x1="0.177001" y1="-0.022104" x2="0.177001" y2="0.021496" />
      <line x1="0.177001" y1="0.021496" x2="0.177" y2="0.021504" />
      <line x1="0.177" y1="-0.018899" x2="0.177001" y2="-0.018901" />
      <line x1="0.177" y1="-0.018899" x2="0.177" y2="-0.012899" />
      <line x1="0.177001" y1="-0.022104" x2="0.228001" y2="-0.022104" />
      <line x1="0.228001" y1="-0.022104" x2="0.228001" y2="0.021496" />
      <line x1="0.177001" y1="0.021496" x2="0.228001" y2="0.021496" />
      <line x1="0.177" y1="0.021504" x2="0.228" y2="0.021504" />
      <line x1="0.228001" y1="0.021496" x2="0.228" y2="0.021504" />
      <line x1="0.236001" y1="0.021508" x2="0.266401" y2="0.021508" />
      <line x1="0.236001" y1="-0.022107" x2="0.236001" y2="0.021493" />
      <line x1="0.236001" y1="0.021508" x2="0.236001" y2="0.021493" />
      <line x1="0.266401" y1="0.021508" x2="0.266401" y2="0.021493" />
      <line x1="0.236001" y1="0.021493" x2="0.266401" y2="0.021493" />
      <line x1="0.236001" y1="-0.022107" x2="0.266401" y2="-0.022107" />
      <line x1="0.266401" y1="-0.022107" x2="0.266401" y2="0.021493" />
    </g>
    <g fill="url(#hatch_bracket)" stroke="none" stroke-width="0" id="bracket_fill">
      <path d="M 0.051,0.0152 L 0.0,0.0152 L 0.0,-0.0152 L 0.051,-0.0152 L 0.051,0.0152 M 0.0025,-0.0127 L 0.0025,0.0127 L 0.0485,0.0127 L 0.0485,-0.0127 L 0.0025,-0.0127" />
      <path d="M 0.11,0.0152 L 0.059,0.0152 L 0.059,-0.0152 L 0.11,-0.0152 L 0.11,0.0152 M 0.0615,-0.0127 L 0.0615,0.0127 L 0.1075,0.0127 L 0.1075,-0.0127 L 0.0615,-0.0127" />
      <path d="M 0.169,0.0152 L 0.118,0.0152 L 0.118,0.005 L 0.1218,0.005 L 0.1218,-0.005 L 0.118,-0.005 L 0.118,-0.0152 L 0.169,-0.0152 L 0.169,0.0152 M 0.1251,-0.011144 A 0.0021,0.0021 0.0 1,0 0.1251,-0.009356 A 0.0021,0.0021 0.0 1,0 0.1251,-0.011144 M 0.1498,-0.01025 A 0.0021,0.0021 0.0 0,0 0.1456,-0.01025 A 0.0021,0.0021 0.0 0,0 0.1498,-0.01025 M 0.1251,0.009356 A 0.0021,0.0021 0.0 1,0 0.1251,0.011144 A 0.0021,0.0021 0.0 1,0 0.1251,0.009356 M 0.1498,0.01025 A 0.0021,0.0021 0.0 0,0 0.1456,0.01025 A 0.0021,0.0021 0.0 0,0 0.1498,0.01025" />
    </g>
    <g fill="none" stroke="rgb(50,120,190)" stroke-opacity="0.4" stroke-width="0.00015" id="bracket_hidden" stroke-dasharray="0.0018 0.00045">
      <line x1="0.177001" y1="-0.022104" x2="0.177" y2="-0.022096" />
      <line x1="0.177" y1="-0.022096" x2="0.177" y2="0.021504" />
      <line x1="0.177" y1="-0.012899" x2="0.177001" y2="-0.012901" />
      <line x1="0.177001" y1="-0.018901" x2="0.177001" y2="-0.012901" />
      <line x1="0.228001" y1="-0.022104" x2="0.228" y2="-0.022096" />
      <line x1="0.177" y1="-0.022096" x2="0.228" y2="-0.022096" />
      <path d="M 0.184101,-0.022103 A 0.0021,6.179756173426369e-07 6.703931004703628e-24 0,1 0.180101,-0.022103" />
      <path d="M 0.180101,-0.022103 A 0.0021,6.179756173426369e-07 6.703931004703628e-24 0,1 0.184101,-0.022103" />
      <path d="M 0.184101,-0.022103 A 0.0021,6.179756173426369e-07 5.535513223642168e-19 0,1 0.188101,-0.022103" />
      <path d="M 0.188101,-0.022103 A 0.0021,6.179756173426369e-07 5.535513223642168e-19 0,1 0.184101,-0.022103" />
      <path d="M 0.208801,-0.022103 A 0.0021,6.179756173426369e-07 6.703931004703628e-24 0,1 0.204601,-0.022103" />
      <path d="M 0.204601,-0.022103 A 0.0021,6.179756173426369e-07 6.703931004703628e-24 1,1 0.208801,-0.022103" />
      <path d="M 0.1841,-0.022097 A 0.0021,6.179756173426369e-07 6.703931004703628e-24 0,1 0.1801,-0.022097" />
      <path d="M 0.1801,-0.022097 A 0.0021,6.179756173426369e-07 6.703931004703628e-24 0,1 0.1841,-0.022097" />
      <path d="M 0.1841,-0.022097 A 0.0021,6.179756173426369e-07 5.535513223642168e-19 0,1 0.1881,-0.022097" />
      <path d="M 0.1881,-0.022097 A 0.0021,6.179756173426369e-07 5.535513223642168e-19 0,1 0.1841,-0.022097" />
      <path d="M 0.2088,-0.022097 A 0.0021000000000000046,6.179756173426383e-07 6.703931004703628e-24 0,1 0.2046,-0.022097" />
      <path d="M 0.2046,-0.022097 A 0.0021000000000000046,6.179756173426383e-07 6.703931004703628e-24 1,1 0.2088,-0.022097" />
      <line x1="0.228" y1="-0.022096" x2="0.228" y2="0.021504" />
      <line x1="0.177001" y1="-0.018899" x2="0.1808" y2="-0.018899" />
      <line x1="0.180801" y1="-0.018901" x2="0.1808" y2="-0.018899" />
      <line x1="0.177001" y1="-0.018901" x2="0.180801" y2="-0.018901" />
      <line x1="0.1808" y1="-0.018899" x2="0.1808" y2="-0.016199" />
      <line x1="0.1808" y1="-0.016199" x2="0.1795" y2="-0.016199" />
      <line x1="0.1795" y1="-0.016199" x2="0.1795" y2="-0.012899" />
      <line x1="0.177001" y1="-0.012899" x2="0.1795" y2="-0.012899" />
      <line x1="0.1795" y1="-0.012899" x2="0.179501" y2="-0.012901" />
      <line x1="0.177001" y1="-0.012901" x2="0.179501" y2="-0.012901" />
      <line x1="0.180801" y1="-0.018901" x2="0.180801" y2="-0.016201" />
      <line x1="0.180801" y1="-0.016201" x2="0.179501" y2="-0.016201" />
      <line x1="0.179501" y1="-0.016201" x2="0.179501" y2="-0.012901" />
      <line x1="0.184101" y1="-0.022103" x2="0.184101" y2="-0.016203" />
      <path d="M 0.184101,-0.016203 A 0.0021,6.179756173426369e-07 6.703931004703628e-24 0,1 0.180101,-0.016203" />
      <path d="M 0.180101,-0.016203 A 0.0021,6.179756173426369e-07 6.703931004703628e-24 0,1 0.184101,-0.016203" />
      <line x1="0.184101" y1="-0.022103" x2="0.184101" y2="-0.016203" />
      <path d="M 0.184101,-0.016203 A 0.0021,6.179756173426369e-07 5.535513223642168e-19 0,1 0.188101,-0.016203" />
      <path d="M 0.188101,-0.016203 A 0.0021,6.179756173426369e-07 5.535513223642168e-19 0,1 0.184101,-0.016203" />
      <path d="M 0.208801,-0.016203 A 0.0021,6.179756173426369e-07 6.703931004703628e-24 0,1 0.204601,-0.016203" />
      <path d="M 0.204601,-0.016203 A 0.0021,6.179756173426369e-07 6.703931004703628e-24 1,1 0.208801,-0.016203" />
      <line x1="0.1841" y1="-0.022097" x2="0.1841" y2="-0.016197" />
      <path d="M 0.1841,-0.016197 A 0.0021,6.179756173426369e-07 6.703931004703628e-24 0,1 0.1801,-0.016197" />
      <path d="M 0.1801,-0.016197 A 0.0021,6.179756173426369e-07 6.703931004703628e-24 0,1 0.1841,-0.016197" />
      <line x1="0.1841" y1="-0.022097" x2="0.1841" y2="-0.016197" />
      <path d="M 0.1841,-0.016197 A 0.0021,6.179756173426369e-07 5.535513223642168e-19 0,1 0.1881,-0.016197" />
      <path d="M 0.1881,-0.016197 A 0.0021,6.179756173426369e-07 5.535513223642168e-19 0,1 0.1841,-0.016197" />
      <path d="M 0.2088,-0.016197 A 0.0021000000000000046,6.179756173426383e-07 6.703931004703628e-24 0,1 0.2046,-0.016197" />
      <path d="M 0.2046,-0.016197 A 0.0021000000000000046,6.179756173426383e-07 6.703931004703628e-24 1,1 0.2088,-0.016197" />
      <line x1="0.180801" y1="-0.016201" x2="0.1808" y2="-0.016199" />
      <line x1="0.179501" y1="-0.016204" x2="0.179501" y2="-0.016201" />
      <line x1="0.1795" y1="-0.016199" x2="0.1795" y2="-0.016196" />
      <line x1="0.1795" y1="-0.016196" x2="0.2255" y2="-0.016196" />
      <line x1="0.225501" y1="-0.016204" x2="0.2255" y2="-0.016196" />
      <line x1="0.179501" y1="-0.016204" x2="0.225501" y2="-0.016204" />
      <line x1="0.179501" y1="0.019396" x2="0.1795" y2="0.019404" />
      <line x1="0.1795" y1="-0.016196" x2="0.1795" y2="0.019404" />
      <line x1="0.179501" y1="-0.016204" x2="0.179501" y2="0.019396" />
      <line x1="0.2255" y1="-0.016196" x2="0.2255" y2="0.019404" />
      <line x1="0.1795" y1="0.019404" x2="0.2255" y2="0.019404" />
      <line x1="0.225501" y1="-0.016204" x2="0.225501" y2="0.019396" />
      <line x1="0.225501" y1="0.019396" x2="0.2255" y2="0.019404" />
      <line x1="0.179501" y1="0.019396" x2="0.225501" y2="0.019396" />
      <line x1="0.180101" y1="-0.022103" x2="0.180101" y2="-0.016203" />
      <line x1="0.188101" y1="-0.022103" x2="0.188101" y2="-0.016203" />
      <line x1="0.204601" y1="-0.022103" x2="0.204601" y2="-0.016203" />
      <line x1="0.1801" y1="-0.022097" x2="0.1801" y2="-0.016197" />
      <line x1="0.1881" y1="-0.022097" x2="0.1881" y2="-0.016197" />
      <line x1="0.2046" y1="-0.022097" x2="0.2046" y2="-0.016197" />
      <line x1="0.236001" y1="-0.022092" x2="0.236001" y2="0.021508" />
      <line x1="0.236001" y1="-0.022092" x2="0.266401" y2="-0.022092" />
      <line x1="0.266401" y1="-0.022092" x2="0.266401" y2="0.021508" />
      <line x1="0.256201" y1="-0.018892" x2="0.246201" y2="-0.018892" />
      <line x1="0.256201" y1="-0.018892" x2="0.256201" y2="-0.012892" />
      <line x1="0.256201" y1="-0.012892" x2="0.246201" y2="-0.012892" />
      <line x1="0.246201" y1="-0.018892" x2="0.246201" y2="-0.012892" />
      <line x1="0.236001" y1="-0.022092" x2="0.236001" y2="-0.022107" />
      <line x1="0.266401" y1="-0.022092" x2="0.266401" y2="-0.022107" />
      <path d="M 0.241846,-0.022094 A 0.0021,6.179991518633233e-07 3.542946073833848e-37 0,1 0.243051,-0.022094" />
      <path d="M 0.243051,-0.022094 A 0.0021,6.179991518633233e-07 3.542946073833848e-37 0,1 0.238851,-0.022094" />
      <path d="M 0.238851,-0.022094 A 0.0021,6.179991518633233e-07 3.542946073833848e-37 0,1 0.240057,-0.022094" />
      <path d="M 0.240057,-0.022094 A 0.0021,6.179991518633233e-07 1.4413561223925317e-18 0,1 0.238851,-0.022095" />
      <path d="M 0.238851,-0.022095 A 0.0021,6.179991518633233e-07 1.4413561223925317e-18 0,1 0.243051,-0.022095" />
      <path d="M 0.243051,-0.022095 A 0.0021,6.179991518633233e-07 1.4413561223925317e-18 0,1 0.241846,-0.022094" />
      <path d="M 0.240951,-0.022102 A 0.0021,6.179991518633233e-07 3.542946073833848e-37 0,1 0.243051,-0.022101" />
      <path d="M 0.243051,-0.022101 A 0.0021,6.179991518633233e-07 3.542946073833848e-37 0,1 0.238851,-0.022101" />
      <path d="M 0.238851,-0.022101 A 0.0021,6.179991518633233e-07 3.542946073833848e-37 0,1 0.240951,-0.022102" />
      <path d="M 0.262346,-0.022094 A 0.0021,6.179991518633233e-07 3.542946073833848e-37 0,1 0.263551,-0.022094" />
      <path d="M 0.263551,-0.022094 A 0.0021,6.179991518633233e-07 3.542946073833848e-37 0,1 0.259351,-0.022094" />
      <path d="M 0.259351,-0.022094 A 0.0021,6.179991518633233e-07 3.542946073833848e-37 0,1 0.260557,-0.022094" />
      <path d="M 0.260557,-0.022094 A 0.0021,6.179991518633233e-07 1.4413561223925317e-18 0,1 0.259351,-0.022095" />
      <path d="M 0.259351,-0.022095 A 0.0021,6.179991518633233e-07 1.4413561223925317e-18 0,1 0.263551,-0.022095" />
      <path d="M 0.263551,-0.022095 A 0.0021,6.179991518633233e-07 1.4413561223925317e-18 0,1 0.262346,-0.022094" />
      <path d="M 0.261451,-0.022102 A 0.0021,6.179991518633233e-07 3.542946073833848e-37 0,1 0.263551,-0.022101" />
      <path d="M 0.263551,-0.022101 A 0.0021,6.179991518633233e-07 3.542946073833848e-37 0,1 0.259351,-0.022101" />
      <path d="M 0.259351,-0.022101 A 0.0021,6.179991518633233e-07 3.542946073833848e-37 0,1 0.261451,-0.022102" />
      <line x1="0.256201" y1="-0.018892" x2="0.256201" y2="-0.018894" />
      <line x1="0.246201" y1="-0.018894" x2="0.256201" y2="-0.018894" />
      <line x1="0.246201" y1="-0.018892" x2="0.246201" y2="-0.018894" />
      <line x1="0.256201" y1="-0.018894" x2="0.256201" y2="-0.016194" />
      <line x1="0.256201" y1="-0.016193" x2="0.256201" y2="-0.012893" />
      <line x1="0.256201" y1="-0.012893" x2="0.246201" y2="-0.012893" />
      <line x1="0.246201" y1="-0.018894" x2="0.246201" y2="-0.016194" />
      <line x1="0.246201" y1="-0.016193" x2="0.246201" y2="-0.012893" />
      <line x1="0.241846" y1="-0.022094" x2="0.241846" y2="-0.016194" />
      <path d="M 0.241846,-0.016194 A 0.0021,6.179991518633233e-07 3.542946073833848e-37 0,1 0.243051,-0.016194" />
      <path d="M 0.243051,-0.016194 A 0.0021,6.179991518633233e-07 3.542946073833848e-37 0,1 0.238851,-0.016194" />
      <path d="M 0.238851,-0.016194 A 0.0021,6.179991518633233e-07 3.542946073833848e-37 0,1 0.240057,-0.016194" />
      <line x1="0.240057" y1="-0.022094" x2="0.240057" y2="-0.016194" />
      <path d="M 0.240057,-0.016194 A 0.0021,6.179991518633233e-07 1.4413561223925317e-18 0,1 0.238851,-0.016195" />
      <path d="M 0.238851,-0.016195 A 0.0021,6.179991518633233e-07 1.4413561223925317e-18 0,1 0.243051,-0.016195" />
      <path d="M 0.243051,-0.016195 A 0.0021,6.179991518633233e-07 1.4413561223925317e-18 0,1 0.241846,-0.016194" />
      <path d="M 0.240951,-0.016202 A 0.0021,6.179991518633233e-07 3.542946073833848e-37 0,1 0.243051,-0.016201" />
      <path d="M 0.243051,-0.016201 A 0.0021,6.179991518633233e-07 3.542946073833848e-37 0,1 0.238851,-0.016201" />
      <path d="M 0.238851,-0.016201 A 0.0021,6.179991518633233e-07 3.542946073833848e-37 0,1 0.240951,-0.016202" />
      <line x1="0.262346" y1="-0.022094" x2="0.262346" y2="-0.016194" />
      <path d="M 0.262346,-0.016194 A 0.0021,6.179991518633233e-07 3.542946073833848e-37 0,1 0.263551,-0.016194" />
      <path d="M 0.263551,-0.016194 A 0.0021,6.179991518633233e-07 3.542946073833848e-37 0,1 0.259351,-0.016194" />
      <path d="M 0.259351,-0.016194 A 0.0021,6.179991518633233e-07 3.542946073833848e-37 0,1 0.260557,-0.016194" />
      <line x1="0.260557" y1="-0.022094" x2="0.260557" y2="-0.016194" />
      <path d="M 0.260557,-0.016194 A 0.0021,6.179991518633233e-07 1.4413561223925317e-18 0,1 0.259351,-0.016195" />
      <path d="M 0.259351,-0.016195 A 0.0021,6.179991518633233e-07 1.4413561223925317e-18 0,1 0.263551,-0.016195" />
      <path d="M 0.263551,-0.016195 A 0.0021,6.179991518633233e-07 1.4413561223925317e-18 0,1 0.262346,-0.016194" />
      <path d="M 0.261451,-0.016202 A 0.0021,6.179991518633233e-07 3.542946073833848e-37 0,1 0.263551,-0.016201" />
      <path d="M 0.263551,-0.016201 A 0.0021,6.179991518633233e-07 3.542946073833848e-37 0,1 0.259351,-0.016201" />
      <path d="M 0.259351,-0.016201 A 0.0021,6.179991518633233e-07 3.542946073833848e-37 0,1 0.261451,-0.016202" />
      <line x1="0.246201" y1="-0.016194" x2="0.256201" y2="-0.016194" />
      <line x1="0.238501" y1="-0.016193" x2="0.246201" y2="-0.016193" />
      <line x1="0.256201" y1="-0.016193" x2="0.263901" y2="-0.016193" />
      <line x1="0.263901" y1="-0.016193" x2="0.263901" y2="-0.016207" />
      <line x1="0.238501" y1="-0.016207" x2="0.263901" y2="-0.016207" />
      <line x1="0.238501" y1="-0.016193" x2="0.238501" y2="-0.016207" />
      <line x1="0.238501" y1="0.019407" x2="0.263901" y2="0.019407" />
      <line x1="0.263901" y1="-0.016193" x2="0.263901" y2="0.019407" />
      <line x1="0.238501" y1="-0.016193" x2="0.238501" y2="0.019407" />
      <line x1="0.263901" y1="-0.016207" x2="0.263901" y2="0.019393" />
      <line x1="0.263901" y1="0.019407" x2="0.263901" y2="0.019393" />
      <line x1="0.238501" y1="-0.016207" x2="0.238501" y2="0.019393" />
      <line x1="0.238501" y1="0.019393" x2="0.263901" y2="0.019393" />
      <line x1="0.238501" y1="0.019407" x2="0.238501" y2="0.019393" />
      <line x1="0.243051" y1="-0.022094" x2="0.243051" y2="-0.016194" />
      <line x1="0.238851" y1="-0.022094" x2="0.238851" y2="-0.016194" />
      <line x1="0.243051" y1="-0.022095" x2="0.243051" y2="-0.016195" />
      <line x1="0.238851" y1="-0.022095" x2="0.238851" y2="-0.016195" />
      <line x1="0.243051" y1="-0.022101" x2="0.243051" y2="-0.016201" />
      <line x1="0.238851" y1="-0.022101" x2="0.238851" y2="-0.016201" />
      <line x1="0.263551" y1="-0.022094" x2="0.263551" y2="-0.016194" />
      <line x1="0.259351" y1="-0.022094" x2="0.259351" y2="-0.016194" />
      <line x1="0.263551" y1="-0.022095" x2="0.263551" y2="-0.016195" />
      <line x1="0.259351" y1="-0.022095" x2="0.259351" y2="-0.016195" />
      <line x1="0.263551" y1="-0.022101" x2="0.263551" y2="-0.016201" />
      <line x1="0.259351" y1="-0.022101" x2="0.259351" y2="-0.016201" />
    </g>
  </g>
  <text x="0.025500" y="-0.027183" text-anchor="middle" font-family="'Input Sans Narrow', 'DejaVu Sans', Arial, sans-serif" font-size="0.002500" font-weight="bold" fill="#333">A-A</text>
  <text x="0.025500" y="-0.023683" text-anchor="middle" font-family="'Input Sans Narrow', 'DejaVu Sans', Arial, sans-serif" font-size="0.001800" fill="#888">top_shaft</text>
  <line x1="0.000000" y1="0.016000" x2="0.000000" y2="0.019000" stroke="#555" stroke-width="0.000140" stroke-opacity="0.5"/>
  <line x1="0.051000" y1="0.016000" x2="0.051000" y2="0.019000" stroke="#555" stroke-width="0.000140" stroke-opacity="0.5"/>
  <line x1="0.000000" y1="0.017400" x2="0.000000" y2="0.019000" stroke="#555" stroke-width="0.000200"/>
  <line x1="0.051000" y1="0.017400" x2="0.051000" y2="0.019000" stroke="#555" stroke-width="0.000200"/>
  <line x1="0.000000" y1="0.018200" x2="0.051000" y2="0.018200" stroke="#555" stroke-width="0.000200"/>
  <polygon points="0.000000,0.018200 0.001500,0.017600 0.001500,0.018800" fill="#555"/>
  <polygon points="0.051000,0.018200 0.049500,0.017600 0.049500,0.018800" fill="#555"/>
  <text x="0.025500" y="0.017000" text-anchor="middle" font-family="'Input Sans Narrow', 'DejaVu Sans', Arial, sans-serif" font-size="0.001600" fill="#555">51.0</text>
  <line x1="0.051800" y1="-0.015200" x2="0.054800" y2="-0.015200" stroke="#555" stroke-width="0.000140" stroke-opacity="0.5"/>
  <line x1="0.051800" y1="0.015200" x2="0.054800" y2="0.015200" stroke="#555" stroke-width="0.000140" stroke-opacity="0.5"/>
  <line x1="0.053200" y1="-0.015200" x2="0.054800" y2="-0.015200" stroke="#555" stroke-width="0.000200"/>
  <line x1="0.053200" y1="0.015200" x2="0.054800" y2="0.015200" stroke="#555" stroke-width="0.000200"/>
  <line x1="0.054000" y1="-0.015200" x2="0.054000" y2="0.015200" stroke="#555" stroke-width="0.000200"/>
  <polygon points="0.054000,-0.015200 0.053400,-0.013700 0.054600,-0.013700" fill="#555"/>
  <polygon points="0.054000,0.015200 0.053400,0.013700 0.054600,0.013700" fill="#555"/>
  <text x="0.055500" y="-0.000000" text-anchor="middle" dominant-baseline="central" font-family="'Input Sans Narrow', 'DejaVu Sans', Arial, sans-serif" font-size="0.001600" fill="#555" transform="rotate(-90 0.055500 -0.000000)">30.4</text>
  <text x="0.084500" y="-0.027183" text-anchor="middle" font-family="'Input Sans Narrow', 'DejaVu Sans', Arial, sans-serif" font-size="0.002500" font-weight="bold" fill="#333">B-B</text>
  <text x="0.084500" y="-0.023683" text-anchor="middle" font-family="'Input Sans Narrow', 'DejaVu Sans', Arial, sans-serif" font-size="0.001800" fill="#888">mid_body</text>
  <text x="0.143500" y="-0.027183" text-anchor="middle" font-family="'Input Sans Narrow', 'DejaVu Sans', Arial, sans-serif" font-size="0.002500" font-weight="bold" fill="#333">C-C</text>
  <text x="0.143500" y="-0.023683" text-anchor="middle" font-family="'Input Sans Narrow', 'DejaVu Sans', Arial, sans-serif" font-size="0.001800" fill="#888">ears</text>
  <text x="0.202501" y="-0.027183" text-anchor="middle" font-family="'Input Sans Narrow', 'DejaVu Sans', Arial, sans-serif" font-size="0.002500" font-weight="bold" fill="#333">side_XZ</text>
  <line x1="0.177000" y1="0.022904" x2="0.177000" y2="0.025904" stroke="#555" stroke-width="0.000140" stroke-opacity="0.5"/>
  <line x1="0.228001" y1="0.022904" x2="0.228001" y2="0.025904" stroke="#555" stroke-width="0.000140" stroke-opacity="0.5"/>
  <line x1="0.177000" y1="0.024304" x2="0.177000" y2="0.025904" stroke="#555" stroke-width="0.000200"/>
  <line x1="0.228001" y1="0.024304" x2="0.228001" y2="0.025904" stroke="#555" stroke-width="0.000200"/>
  <line x1="0.177000" y1="0.025104" x2="0.228001" y2="0.025104" stroke="#555" stroke-width="0.000200"/>
  <polygon points="0.177000,0.025104 0.178500,0.024504 0.178500,0.025704" fill="#555"/>
  <polygon points="0.228001,0.025104 0.226501,0.024504 0.226501,0.025704" fill="#555"/>
  <text x="0.202501" y="0.023904" text-anchor="middle" font-family="'Input Sans Narrow', 'DejaVu Sans', Arial, sans-serif" font-size="0.001600" fill="#555">51.0</text>
  <line x1="0.228801" y1="-0.021504" x2="0.231801" y2="-0.021504" stroke="#555" stroke-width="0.000140" stroke-opacity="0.5"/>
  <line x1="0.228801" y1="0.022104" x2="0.231801" y2="0.022104" stroke="#555" stroke-width="0.000140" stroke-opacity="0.5"/>
  <line x1="0.230201" y1="-0.021504" x2="0.231801" y2="-0.021504" stroke="#555" stroke-width="0.000200"/>
  <line x1="0.230201" y1="0.022104" x2="0.231801" y2="0.022104" stroke="#555" stroke-width="0.000200"/>
  <line x1="0.231001" y1="-0.021504" x2="0.231001" y2="0.022104" stroke="#555" stroke-width="0.000200"/>
  <polygon points="0.231001,-0.021504 0.230401,-0.020004 0.231601,-0.020004" fill="#555"/>
  <polygon points="0.231001,0.022104 0.230401,0.020604 0.231601,0.020604" fill="#555"/>
  <text x="0.232501" y="0.000300" text-anchor="middle" dominant-baseline="central" font-family="'Input Sans Narrow', 'DejaVu Sans', Arial, sans-serif" font-size="0.001600" fill="#555" transform="rotate(-90 0.232501 0.000300)">43.6</text>
  <line x1="0.174000" y1="-0.015900" x2="0.231001" y2="-0.015900" stroke="#555" stroke-width="0.000250" stroke-dasharray="0.002500,0.000800,0.000500,0.000800"/>
  <text x="0.172500" y="-0.015300" text-anchor="end" font-family="'Input Sans Narrow', 'DejaVu Sans', Arial, sans-serif" font-size="0.002000" font-weight="bold" fill="#555">A</text>
  <text x="0.232501" y="-0.015300" text-anchor="start" font-family="'Input Sans Narrow', 'DejaVu Sans', Arial, sans-serif" font-size="0.002000" font-weight="bold" fill="#555">A</text>
  <line x1="0.174000" y1="-0.000000" x2="0.231001" y2="-0.000000" stroke="#555" stroke-width="0.000250" stroke-dasharray="0.002500,0.000800,0.000500,0.000800"/>
  <text x="0.172500" y="0.000600" text-anchor="end" font-family="'Input Sans Narrow', 'DejaVu Sans', Arial, sans-serif" font-size="0.002000" font-weight="bold" fill="#555">B</text>
  <text x="0.232501" y="0.000600" text-anchor="start" font-family="'Input Sans Narrow', 'DejaVu Sans', Arial, sans-serif" font-size="0.002000" font-weight="bold" fill="#555">B</text>
  <line x1="0.174000" y1="0.017500" x2="0.231001" y2="0.017500" stroke="#555" stroke-width="0.000250" stroke-dasharray="0.002500,0.000800,0.000500,0.000800"/>
  <text x="0.172500" y="0.018100" text-anchor="end" font-family="'Input Sans Narrow', 'DejaVu Sans', Arial, sans-serif" font-size="0.002000" font-weight="bold" fill="#555">C</text>
  <text x="0.232501" y="0.018100" text-anchor="start" font-family="'Input Sans Narrow', 'DejaVu Sans', Arial, sans-serif" font-size="0.002000" font-weight="bold" fill="#555">C</text>
  <text x="0.251201" y="-0.027183" text-anchor="middle" font-family="'Input Sans Narrow', 'DejaVu Sans', Arial, sans-serif" font-size="0.002500" font-weight="bold" fill="#333">side_YZ</text>
  <line x1="0.236001" y1="0.022907" x2="0.236001" y2="0.025907" stroke="#555" stroke-width="0.000140" stroke-opacity="0.5"/>
  <line x1="0.266401" y1="0.022907" x2="0.266401" y2="0.025907" stroke="#555" stroke-width="0.000140" stroke-opacity="0.5"/>
  <line x1="0.236001" y1="0.024307" x2="0.236001" y2="0.025907" stroke="#555" stroke-width="0.000200"/>
  <line x1="0.266401" y1="0.024307" x2="0.266401" y2="0.025907" stroke="#555" stroke-width="0.000200"/>
  <line x1="0.236001" y1="0.025107" x2="0.266401" y2="0.025107" stroke="#555" stroke-width="0.000200"/>
  <polygon points="0.236001,0.025107 0.237501,0.024507 0.237501,0.025707" fill="#555"/>
  <polygon points="0.266401,0.025107 0.264901,0.024507 0.264901,0.025707" fill="#555"/>
  <text x="0.251201" y="0.023907" text-anchor="middle" font-family="'Input Sans Narrow', 'DejaVu Sans', Arial, sans-serif" font-size="0.001600" fill="#555">30.4</text>
  <line x1="0.267201" y1="-0.021508" x2="0.270201" y2="-0.021508" stroke="#555" stroke-width="0.000140" stroke-opacity="0.5"/>
  <line x1="0.267201" y1="0.022107" x2="0.270201" y2="0.022107" stroke="#555" stroke-width="0.000140" stroke-opacity="0.5"/>
  <line x1="0.268601" y1="-0.021508" x2="0.270201" y2="-0.021508" stroke="#555" stroke-width="0.000200"/>
  <line x1="0.268601" y1="0.022107" x2="0.270201" y2="0.022107" stroke="#555" stroke-width="0.000200"/>
  <line x1="0.269401" y1="-0.021508" x2="0.269401" y2="0.022107" stroke="#555" stroke-width="0.000200"/>
  <polygon points="0.269401,-0.021508 0.268801,-0.020008 0.270001,-0.020008" fill="#555"/>
  <polygon points="0.269401,0.022107 0.268801,0.020607 0.270001,0.020607" fill="#555"/>
  <text x="0.270901" y="0.000300" text-anchor="middle" dominant-baseline="central" font-family="'Input Sans Narrow', 'DejaVu Sans', Arial, sans-serif" font-size="0.001600" fill="#555" transform="rotate(-90 0.270901 0.000300)">43.6</text>
  <line x1="0.233001" y1="-0.015900" x2="0.269401" y2="-0.015900" stroke="#555" stroke-width="0.000250" stroke-dasharray="0.002500,0.000800,0.000500,0.000800"/>
  <text x="0.231501" y="-0.015300" text-anchor="end" font-family="'Input Sans Narrow', 'DejaVu Sans', Arial, sans-serif" font-size="0.002000" font-weight="bold" fill="#555">A</text>
  <text x="0.270901" y="-0.015300" text-anchor="start" font-family="'Input Sans Narrow', 'DejaVu Sans', Arial, sans-serif" font-size="0.002000" font-weight="bold" fill="#555">A</text>
  <line x1="0.233001" y1="-0.000000" x2="0.269401" y2="-0.000000" stroke="#555" stroke-width="0.000250" stroke-dasharray="0.002500,0.000800,0.000500,0.000800"/>
  <text x="0.231501" y="0.000600" text-anchor="end" font-family="'Input Sans Narrow', 'DejaVu Sans', Arial, sans-serif" font-size="0.002000" font-weight="bold" fill="#555">B</text>
  <text x="0.270901" y="0.000600" text-anchor="start" font-family="'Input Sans Narrow', 'DejaVu Sans', Arial, sans-serif" font-size="0.002000" font-weight="bold" fill="#555">B</text>
  <line x1="0.233001" y1="0.017500" x2="0.269401" y2="0.017500" stroke="#555" stroke-width="0.000250" stroke-dasharray="0.002500,0.000800,0.000500,0.000800"/>
  <text x="0.231501" y="0.018100" text-anchor="end" font-family="'Input Sans Narrow', 'DejaVu Sans', Arial, sans-serif" font-size="0.002000" font-weight="bold" fill="#555">C</text>
  <text x="0.270901" y="0.018100" text-anchor="start" font-family="'Input Sans Narrow', 'DejaVu Sans', Arial, sans-serif" font-size="0.002000" font-weight="bold" fill="#555">C</text>
  <text x="-0.001175" y="0.030282" font-family="'Input Sans Narrow', 'DejaVu Sans', Arial, sans-serif" font-size="0.003500" font-weight="bold" fill="#222">pocket_bracket</text>
  <line x1="-0.001175" y1="0.034282" x2="0.008825" y2="0.034282" stroke="#333" stroke-width="0.000350"/>
  <line x1="-0.001175" y1="0.033282" x2="-0.001175" y2="0.035282" stroke="#333" stroke-width="0.000250"/>
  <line x1="0.008825" y1="0.033282" x2="0.008825" y2="0.035282" stroke="#333" stroke-width="0.000250"/>
  <text x="0.010325" y="0.034982" font-family="'Input Sans Narrow', 'DejaVu Sans', Arial, sans-serif" font-size="0.001800" fill="#888">10 mm</text>
  <rect x="0.028825" y="0.027782" width="0.004000" height="0.002500" fill="url(#hatch_servo)" stroke="rgb(60,60,60)" stroke-width="0.000300"/>
  <text x="0.034325" y="0.029782" font-family="'Input Sans Narrow', 'DejaVu Sans', Arial, sans-serif" font-size="0.001800" fill="rgb(60,60,60)">servo</text>
  <rect x="0.028825" y="0.031282" width="0.004000" height="0.002500" fill="url(#hatch_bracket)" stroke="rgb(50,120,190)" stroke-width="0.000300"/>
  <text x="0.034325" y="0.033282" font-family="'Input Sans Narrow', 'DejaVu Sans', Arial, sans-serif" font-size="0.001800" fill="rgb(50,120,190)">bracket</text>
</svg>