<?xml version='1.0' encoding='utf-8'?>
<svg width="294.40mm" height="85.67mm" viewBox="-0.003175 -0.021575 0.294401 0.085667" version="1.1" xmlns="http://www.w3.org/2000/svg">
  <defs>
    <pattern id="hatch_servo" width="0.0012" height="0.0012" patternUnits="userSpaceOnUse" patternTransform="rotate(45)">
      <line x1="0" y1="0" x2="0" y2="0.0012" stroke="rgb(60,60,60)" stroke-width="0.0001" stroke-opacity="0.6"/>
    </pattern>
    <pattern id="hatch_coupler" width="0.0012" height="0.0012" patternUnits="userSpaceOnUse" patternTransform="rotate(75)">
      <line x1="0" y1="0" x2="0" y2="0.0012" stroke="rgb(220,60,40)" stroke-width="0.0001" stroke-opacity="0.6"/>
    </pattern>
  </defs>
  <g transform="scale(1,-1)" stroke-linecap="round">
    <g fill="none" stroke="rgb(60,60,60)" stroke-width="0.00035" id="servo">
      <line x1="0.0" y1="-0.008" x2="0.0" y2="0.008" />
      <path d="M 0.0,-0.008 A 0.002,0.002 -90.0 0,1 0.002,-0.01" />
      <line x1="0.002" y1="-0.01" x2="0.018" y2="-0.01" />
      <path d="M 0.02,-0.008 A 0.002,0.002 -90.0 0,0 0.018,-0.01" />
      <line x1="0.02" y1="-0.008" x2="0.02" y2="0.008" />
      <path d="M 0.02,0.008 A 0.002,0.002 -90.0 0,1 0.018,0.01" />
      <line x1="0.002" y1="0.01" x2="0.018" y2="0.01" />
      <path d="M 0.0,0.008 A 0.002,0.002 -90.0 0,0 0.002,0.01" />
      <circle cx="0.078606" cy="0.0" r="0.003" />
      <line x1="0.045406" y1="-0.0084" x2="0.045406" y2="-0.0124" />
      <line x1="0.045406" y1="-0.0084" x2="0.085806" y2="-0.0084" />
      <line x1="0.085806" y1="-0.0084" x2="0.085806" y2="-0.0124" />
      <line x1="0.045406" y1="-0.0124" x2="0.085806" y2="-0.0124" />
      <circle cx="0.049106" cy="-0.01025" r="0.0016" />
      <circle cx="0.066106" cy="-0.01025" r="0.0016" />
      <circle cx="0.083106" cy="-0.01025" r="0.0016" />
      <line x1="0.045406" y1="0.0124" x2="0.085806" y2="0.0124" />
      <line x1="0.085806" y1="0.0124" x2="0.085806" y2="0.0084" />
      <line x1="0.045406" y1="0.0084" x2="0.085806" y2="0.0084" />
      <line x1="0.045406" y1="0.0124" x2="0.045406" y2="0.0084" />
      <circle cx="0.049106" cy="0.01025" r="0.0016" />
      <circle cx="0.066106" cy="0.01025" r="0.0016" />
      <circle cx="0.083106" cy="0.01025" r="0.0016" />
      <path d="M 0.118012,0.0124 A 0.004,0.004 180.0 0,1 0.114012,0.0084" />
      <line x1="0.118012" y1="0.0124" x2="0.155412" y2="0.0124" />
      <path d="M 0.159412,0.0084 A 0.004,0.004 0.0 0,1 0.155412,0.0124" />
      <line x1="0.159412" y1="0.0084" x2="0.159412" y2="-0.0084" />
      <path d="M 0.155412,-0.0124 A 0.004,0.004 0.0 0,1 0.159412,-0.0084" />
      <line x1="0.118012" y1="-0.0124" x2="0.155412" y2="-0.0124" />
      <path d="M 0.114012,-0.0084 A 0.004,0.004 180.0 0,1 0.118012,-0.0124" />
      <line x1="0.114012" y1="0.0084" x2="0.114012" y2="-0.0084" />
      <line x1="0.184619" y1="-0.032613" x2="0.184619" y2="-1.4e-05" />
      <line x1="0.184619" y1="-1.4e-05" x2="0.184639" y2="1.4e-05" />
      <path d="M 0.184619,-1.4e-05 A 0.004,6.44034636134987e-06 -3.570407266150847e-21 0,1 0.188614,-2e-05" />
      <path d="M 0.184619,-0.032613 A 0.004,6.44034636134987e-06 -3.570407266150847e-21 0,1 0.186614,-0.032619" />
      <path d="M 0.186614,-0.032619 A 0.004,6.44034636134987e-06 -3.570407266150847e-21 0,1 0.188614,-0.03262" />
      <line x1="0.188614" y1="-0.03262" x2="0.188614" y2="-2e-05" />
      <path d="M 0.230018,-0.032614 A 0.004,6.44034636134987e-06 180.0 0,0 0.227014,-0.03262" />
      <line x1="0.230018" y1="-0.032614" x2="0.230039" y2="-0.032586" />
      <path d="M 0.184639,1.4e-05 A 0.004,6.44034636134987e-06 180.0 0,0 0.188644,2e-05" />
      <line x1="0.188614" y1="-2e-05" x2="0.226014" y2="-2e-05" />
      <line x1="0.188644" y1="2e-05" x2="0.209819" y2="2e-05" />
      <path d="M 0.230018,-1.4e-05 A 0.004,6.44034636134987e-06 180.0 0,0 0.226014,-2e-05" />
      <path d="M 0.230039,1.3e-05 A 0.004,6.44034636134987e-06 -3.570407266150847e-21 0,1 0.229839,1.5e-05" />
      <line x1="0.230018" y1="-1.4e-05" x2="0.230039" y2="1.3e-05" />
      <path d="M 0.209819,-1.3e-05 A 0.002,3.220173180674935e-06 -3.570407266150847e-21 0,1 0.211817,-1.6e-05" />
      <line x1="0.211817" y1="-1.6e-05" x2="0.227817" y2="-1.6e-05" />
      <path d="M 0.229819,-1.3e-05 A 0.002,3.220173180674935e-06 180.0 0,0 0.227817,-1.6e-05" />
      <line x1="0.229819" y1="-1.3e-05" x2="0.229839" y2="1.3e-05" />
      <line x1="0.186614" y1="-0.03262" x2="0.186614" y2="-0.032619" />
      <line x1="0.186614" y1="-0.03262" x2="0.188614" y2="-0.03262" />
      <line x1="0.226014" y1="-0.03262" x2="0.226014" y2="-2e-05" />
      <line x1="0.226014" y1="-0.03262" x2="0.227014" y2="-0.03262" />
      <line x1="0.227014" y1="-0.03472" x2="0.227014" y2="-0.03262" />
      <line x1="0.186614" y1="-0.03472" x2="0.227014" y2="-0.03472" />
      <line x1="0.186614" y1="-0.03472" x2="0.186614" y2="-0.03262" />
      <line x1="0.227018" y1="-0.034714" x2="0.227018" y2="-0.03262" />
      <line x1="0.227018" y1="-0.034686" x2="0.227039" y2="-0.034686" />
      <line x1="0.227039" y1="-0.034686" x2="0.227039" y2="-0.03262" />
      <line x1="0.227014" y1="-0.03472" x2="0.227018" y2="-0.034714" />
      <line x1="0.227044" y1="-0.03468" x2="0.227044" y2="-0.03262" />
      <line x1="0.227039" y1="-0.034686" x2="0.227044" y2="-0.03468" />
      <line x1="0.230018" y1="-0.032614" x2="0.230018" y2="-1.4e-05" />
      <path d="M 0.227014,-0.03262 A 0.004,6.44034636134987e-06 180.0 0,0 0.226014,-0.03262" />
      <line x1="0.230039" y1="1.3e-05" x2="0.230039" y2="-0.032586" />
      <path d="M 0.227044,-0.03258 A 0.004,6.44034636134987e-06 -3.570407266150847e-21 0,1 0.226044,-0.03258" />
      <path d="M 0.209819,0.001687 A 0.002,3.220173180674935e-06 -3.570407266150847e-21 0,1 0.211817,0.001684" />
      <line x1="0.211817" y1="0.001684" x2="0.227817" y2="0.001684" />
      <path d="M 0.229819,0.001687 A 0.002,3.220173180674935e-06 180.0 0,0 0.227817,0.001684" />
      <line x1="0.229819" y1="0.001687" x2="0.229839" y2="0.001713" />
      <path d="M 0.229839,0.001713 A 0.002,3.220173180674935e-06 -3.570407266150847e-21 0,1 0.227841,0.001716" />
      <line x1="0.211841" y1="0.001716" x2="0.215329" y2="0.001716" />
      <line x1="0.224329" y1="0.001716" x2="0.227841" y2="0.001716" />
      <path d="M 0.209839,0.001713 A 0.002,3.220173180674935e-06 180.0 0,0 0.211841,0.001716" />
      <line x1="0.209819" y1="0.001687" x2="0.209839" y2="0.001713" />
      <path d="M 0.215329,0.0017 A 0.004500000000000004,7.245389656518609e-06 -7.88103626567807e-21 0,1 0.224329,0.0017" />
      <path d="M 0.224329,0.0032 A 0.004500000000000004,7.245389656518609e-06 -7.88103626567807e-21 1,1 0.215329,0.0032" />
      <path d="M 0.215329,0.0032 A 0.004500000000000004,7.245389656518609e-06 -7.88103626567807e-21 0,1 0.224329,0.0032" />
      <line x1="0.209819" y1="-1.3e-05" x2="0.209819" y2="0.001687" />
      <line x1="0.211817" y1="-1.6e-05" x2="0.211817" y2="0.001684" />
      <line x1="0.227817" y1="-1.6e-05" x2="0.227817" y2="0.001684" />
      <line x1="0.229819" y1="-1.3e-05" x2="0.229819" y2="0.001687" />
      <line x1="0.229839" y1="1.3e-05" x2="0.229839" y2="0.001713" />
      <line x1="0.184619" y1="-0.032613" x2="0.184619" y2="-1.4e-05" />
      <line x1="0.230039" y1="-0.032586" x2="0.230039" y2="1.3e-05" />
      <line x1="0.209819" y1="-1.3e-05" x2="0.209819" y2="0.001687" />
      <line x1="0.229839" y1="1.3e-05" x2="0.229839" y2="0.001713" />
      <line x1="0.224329" y1="0.0017" x2="0.224329" y2="0.0032" />
      <line x1="0.215329" y1="0.0017" x2="0.215329" y2="0.0032" />
      <path d="M 0.257651,3.6e-05 A 0.004,6.432478755953831e-06 6.500546119967843e-37 0,1 0.255251,3e-05" />
      <path d="M 0.259251,-0.032636 A 0.004,6.432478755953831e-06 -180.0 0,0 0.255378,-0.032631" />
      <path d="M 0.276051,-0.032636 A 0.004,6.432478755953831e-06 6.500546119967843e-37 0,1 0.279924,-0.032631" />
      <line x1="0.259251" y1="-0.032636" x2="0.276051" y2="-0.032636" />
      <path d="M 0.277651,3.6e-05 A 0.004,6.432478755953831e-06 -180.0 0,0 0.280051,3e-05" />
      <line x1="0.255251" y1="3e-05" x2="0.255251" y2="-3e-05" />
      <line x1="0.280051" y1="3e-05" x2="0.280051" y2="-3e-05" />
      <path d="M 0.259251,-3.6e-05 A 0.004,6.432478755953831e-06 -180.0 0,0 0.255251,-3e-05" />
      <path d="M 0.276051,-3.6e-05 A 0.004,6.432478755953831e-06 6.500546119967843e-37 0,1 0.280051,-3e-05" />
      <line x1="0.259251" y1="-3.6e-05" x2="0.276051" y2="-3.6e-05" />
      <path d="M 0.259651,-3.6e-05 A 0.002,3.2162393779769155e-06 -180.0 0,0 0.257651,-3.3e-05" />
      <line x1="0.259651" y1="-3.6e-05" x2="0.275651" y2="-3.6e-05" />
      <path d="M 0.275651,-3.6e-05 A 0.002,3.2162393779769155e-06 6.500546119967843e-37 0,1 0.277651,-3.3e-05" />
      <line x1="0.255251" y1="-0.03263" x2="0.255251" y2="-3e-05" />
      <line x1="0.255251" y1="-0.03263" x2="0.255251" y2="-0.032631" />
      <line x1="0.255251" y1="-0.034731" x2="0.255251" y2="-0.032631" />
      <line x1="0.259251" y1="-0.034731" x2="0.259251" y2="-0.032636" />
      <line x1="0.276051" y1="-0.034731" x2="0.276051" y2="-0.032636" />
      <line x1="0.255251" y1="-0.032631" x2="0.255378" y2="-0.032631" />
      <line x1="0.255251" y1="-0.034731" x2="0.259251" y2="-0.034731" />
      <line x1="0.279924" y1="-0.032631" x2="0.280051" y2="-0.032631" />
      <line x1="0.280051" y1="-0.034731" x2="0.280051" y2="-0.032631" />
      <line x1="0.276051" y1="-0.034731" x2="0.280051" y2="-0.034731" />
      <line x1="0.259251" y1="-0.032636" x2="0.259251" y2="-3.6e-05" />
      <path d="M 0.255378,-0.032631 A 0.004,6.432478755953831e-06 -180.0 0,0 0.255251,-0.03263" />
      <line x1="0.280051" y1="-3e-05" x2="0.280051" y2="-0.03263" />
      <line x1="0.276051" y1="-3.6e-05" x2="0.276051" y2="-0.032636" />
      <path d="M 0.279924,-0.032631 A 0.004,6.432478755953831e-06 6.500546119967843e-37 0,1 0.280051,-0.03263" />
      <path d="M 0.267651,-0.033924 A 0.003,4.824359066965373e-06 3.470408899297471e-37 0,1 0.270651,-0.03392" />
      <path d="M 0.264651,-0.03392 A 0.003,4.824359066965373e-06 3.470408899297471e-37 0,1 0.267651,-0.033924" />
      <line x1="0.280051" y1="-0.03263" x2="0.280051" y2="-0.032631" />
      <path d="M 0.259651,0.001696 A 0.002,3.2162393779769155e-06 6.500546119967843e-37 0,1 0.257651,0.001693" />
      <line x1="0.257651" y1="-3.3e-05" x2="0.257651" y2="0.001667" />
      <line x1="0.257651" y1="0.001693" x2="0.257651" y2="0.001667" />
      <path d="M 0.259651,0.001664 A 0.002,3.2162393779769155e-06 -180.0 0,0 0.257651,0.001667" />
      <line x1="0.259651" y1="0.001664" x2="0.275651" y2="0.001664" />
      <line x1="0.277651" y1="-3.3e-05" x2="0.277651" y2="0.001667" />
      <path d="M 0.275651,0.001664 A 0.002,3.2162393779769155e-06 6.500546119967843e-37 0,1 0.277651,0.001667" />
      <line x1="0.277651" y1="0.001693" x2="0.277651" y2="0.001667" />
      <path d="M 0.275651,0.001696 A 0.002,3.2162393779769155e-06 -180.0 0,0 0.277651,0.001693" />
      <line x1="0.259651" y1="0.001696" x2="0.263151" y2="0.001696" />
      <line x1="0.272151" y1="0.001696" x2="0.275651" y2="0.001696" />
      <path d="M 0.267651,0.001673 A 0.0045,7.23653860044806e-06 3.470408899297471e-37 0,1 0.272151,0.00168" />
      <path d="M 0.263151,0.00168 A 0.0045,7.23653860044806e-06 3.470408899297471e-37 0,1 0.267651,0.001673" />
      <path d="M 0.267651,0.003173 A 0.0045,7.23653860044806e-06 3.470408899297471e-37 0,1 0.272151,0.00318" />
      <path d="M 0.272151,0.00318 A 0.0045,7.23653860044806e-06 3.470408899297471e-37 0,1 0.263151,0.00318" />
      <path d="M 0.263151,0.00318 A 0.0045,7.23653860044806e-06 3.470408899297471e-37 0,1 0.267651,0.003173" />
      <line x1="0.259651" y1="-3.6e-05" x2="0.259651" y2="0.001664" />
      <line x1="0.275651" y1="-3.6e-05" x2="0.275651" y2="0.001664" />
      <line x1="0.270651" y1="-0.03392" x2="0.270651" y2="-0.032636" />
      <line x1="0.264651" y1="-0.03392" x2="0.264651" y2="-0.032636" />
      <line x1="0.272151" y1="0.00168" x2="0.272151" y2="0.00318" />
      <line x1="0.263151" y1="0.00168" x2="0.263151" y2="0.00318" />
    </g>
    <g fill="url(#hatch_servo)" stroke="none" stroke-width="0" id="servo_fill">
      <path d="M 0.0,0.008 L 0.0,-0.008 A 0.002,0.002 -90.0 0,1 0.002,-0.01 L 0.018,-0.01 A 0.002,0.002 -90.0 0,1 0.02,-0.008 L 0.02,0.008 A 0.002,0.002 -90.0 0,1 0.018,0.01 L 0.002,0.01 A 0.002,0.002 -90.0 0,1 0.0,0.008" />
      <circle cx="0.078606" cy="0.0" r="0.003" />
      <path d="M 0.045406,-0.0084 L 0.045406,-0.0124 L 0.085806,-0.0124 L 0.085806,-0.0084 L 0.045406,-0.0084 M 0.050706,-0.01025 A 0.0016000000000000007,0.0016000000000000007 0.0 0,0 0.047506,-0.01025 A 0.0016000000000000007,0.0016000000000000007 0.0 0,0 0.050706,-0.01025 M 0.067706,-0.01025 A 0.0016000000000000044,0.0016000000000000044 0.0 0,0 0.064506,-0.01025 A 0.0016000000000000044,0.0016000000000000044 0.0 0,0 0.067706,-0.01025 M 0.084706,-0.01025 A 0.0016000000000000044,0.0016000000000000044 0.0 0,0 0.081506,-0.01025 A 0.0016000000000000044,0.0016000000000000044 0.0 0,0 0.084706,-0.01025" />
      <path d="M 0.085806,0.0124 L 0.045406,0.0124 L 0.045406,0.0084 L 0.085806,0.0084 L 0.085806,0.0124 M 0.050706,0.01025 A 0.0016000000000000007,0.0016000000000000007 0.0 0,0 0.047506,0.01025 A 0.0016000000000000007,0.0016000000000000007 0.0 0,0 0.050706,0.01025 M 0.067706,0.01025 A 0.0016000000000000044,0.0016000000000000044 0.0 0,0 0.064506,0.01025 A 0.0016000000000000044,0.0016000000000000044 0.0 0,0 0.067706,0.01025 M 0.084706,0.01025 A 0.0016000000000000044,0.0016000000000000044 0.0 0,0 0.081506,0.01025 A 0.0016000000000000044,0.0016000000000000044 0.0 0,0 0.084706,0.01025" />
      <path d="M 0.118012,0.0124 A 0.004,0.004 180.0 0,1 0.114012,0.0084 L 0.114012,-0.0084 A 0.004,0.004 180.0 0,1 0.118012,-0.0124 L 0.155412,-0.0124 A 0.004,0.004 0.0 0,1 0.159412,-0.0084 L 0.159412,0.0084 A 0.004,0.004 0.0 0,1 0.155412,0.0124 L 0.118012,0.0124" />
    </g>
    <g fill="none" stroke="rgb(60,60,60)" stroke-opacity="0.4" stroke-width="0.00015" id="servo_hidden" stroke-dasharray="0.0018 0.00045">
      <line x1="0.184619" y1="-0.032613" x2="0.184639" y2="-0.032586" />
      <line x1="0.184639" y1="1.4e-05" x2="0.184639" y2="-0.032586" />
      <path d="M 0.184639,-0.032586 A 0.004,6.44034636134987e-06 180.0 0,0 0.186643,-0.032581" />
      <line x1="0.186614" y1="-0.032619" x2="0.186619" y2="-0.032613" />
      <line x1="0.186639" y1="-0.032586" x2="0.186643" y2="-0.032581" />
      <line x1="0.186619" y1="-0.032613" x2="0.227018" y2="-0.032614" />
      <line x1="0.186639" y1="-0.032586" x2="0.227039" y2="-0.032586" />
      <line x1="0.227014" y1="-0.03262" x2="0.227018" y2="-0.032614" />
      <line x1="0.227039" y1="-0.032586" x2="0.227044" y2="-0.03258" />
      <path d="M 0.230039,-0.032586 A 0.004,6.44034636134987e-06 -3.570407266150847e-21 0,1 0.227044,-0.03258" />
      <path d="M 0.222829,-0.0326 A 0.0030000000000000027,4.8302597710124065e-06 -7.88103626567807e-21 1,1 0.216829,-0.0326" />
      <path d="M 0.216829,-0.0326 A 0.0030000000000000027,4.8302597710124065e-06 -7.88103626567807e-21 0,1 0.222829,-0.0326" />
      <line x1="0.188644" y1="2e-05" x2="0.188644" y2="-0.03258" />
      <path d="M 0.186643,-0.032581 A 0.004,6.44034636134987e-06 180.0 0,0 0.188644,-0.03258" />
      <line x1="0.209819" y1="2e-05" x2="0.226044" y2="2e-05" />
      <path d="M 0.229839,1.5e-05 A 0.004,6.44034636134987e-06 -3.570407266150847e-21 0,1 0.226044,2e-05" />
      <path d="M 0.229839,1.3e-05 A 0.002,3.220173180674935e-06 -3.570407266150847e-21 0,1 0.227841,1.6e-05" />
      <line x1="0.211841" y1="1.6e-05" x2="0.227841" y2="1.6e-05" />
      <path d="M 0.209839,1.3e-05 A 0.002,3.220173180674935e-06 180.0 0,0 0.211841,1.6e-05" />
      <line x1="0.209819" y1="-1.3e-05" x2="0.209839" y2="1.3e-05" />
      <line x1="0.186619" y1="-0.034713" x2="0.186619" y2="-0.032613" />
      <line x1="0.186614" y1="-0.03472" x2="0.186619" y2="-0.034713" />
      <line x1="0.186639" y1="-0.034686" x2="0.186639" y2="-0.032586" />
      <line x1="0.186643" y1="-0.032581" x2="0.186644" y2="-0.03258" />
      <line x1="0.186644" y1="-0.03468" x2="0.186644" y2="-0.03258" />
      <line x1="0.186639" y1="-0.034686" x2="0.186644" y2="-0.03468" />
      <line x1="0.186619" y1="-0.034713" x2="0.227018" y2="-0.034714" />
      <line x1="0.227018" y1="-0.03262" x2="0.227018" y2="-0.032614" />
      <line x1="0.186639" y1="-0.034686" x2="0.227018" y2="-0.034686" />
      <line x1="0.227039" y1="-0.03262" x2="0.227039" y2="-0.032586" />
      <line x1="0.227044" y1="-0.03262" x2="0.227044" y2="-0.03258" />
      <line x1="0.226044" y1="2e-05" x2="0.226044" y2="-0.03258" />
      <path d="M 0.222829,-0.0339 A 0.0030000000000000027,4.8302597710124065e-06 -7.88103626567807e-21 1,1 0.216829,-0.0339" />
      <path d="M 0.216829,-0.0339 A 0.0030000000000000027,4.8302597710124065e-06 -7.88103626567807e-21 0,1 0.222829,-0.0339" />
      <line x1="0.226044" y1="-0.03258" x2="0.227044" y2="-0.03258" />
      <line x1="0.186644" y1="-0.03468" x2="0.227044" y2="-0.03468" />
      <line x1="0.186644" y1="-0.03258" x2="0.188644" y2="-0.03258" />
      <line x1="0.215329" y1="0.001716" x2="0.224329" y2="0.001716" />
      <path d="M 0.191916,-0.034716 A 0.0016000000000000044,2.576138544539955e-06 -7.88103626567807e-21 1,1 0.188716,-0.034716" />
      <path d="M 0.188716,-0.034716 A 0.0016000000000000044,2.576138544539955e-06 -7.88103626567807e-21 0,1 0.191916,-0.034716" />
      <path d="M 0.208916,-0.034716 A 0.0016,2.576138544539948e-06 -7.88103626567807e-21 1,1 0.205716,-0.034716" />
      <path d="M 0.205716,-0.034716 A 0.0016,2.576138544539948e-06 -7.88103626567807e-21 0,1 0.208916,-0.034716" />
      <path d="M 0.225916,-0.034717 A 0.0016000000000000044,2.576138544539955e-06 -7.88103626567807e-21 1,1 0.222716,-0.034717" />
      <path d="M 0.222716,-0.034717 A 0.0016000000000000044,2.576138544539955e-06 -7.88103626567807e-21 0,1 0.225916,-0.034717" />
      <path d="M 0.191941,-0.034683 A 0.0016000000000000044,2.576138544539955e-06 -7.88103626567807e-21 1,1 0.188741,-0.034683" />
      <path d="M 0.188741,-0.034683 A 0.0016000000000000044,2.576138544539955e-06 -7.88103626567807e-21 0,1 0.191941,-0.034683" />
      <path d="M 0.208941,-0.034683 A 0.0016,2.576138544539948e-06 -7.88103626567807e-21 1,1 0.205741,-0.034683" />
      <path d="M 0.205741,-0.034683 A 0.0016,2.576138544539948e-06 -7.88103626567807e-21 0,1 0.208941,-0.034683" />
      <path d="M 0.225941,-0.034684 A 0.0016000000000000044,2.576138544539955e-06 -7.88103626567807e-21 1,1 0.222741,-0.034684" />
      <path d="M 0.222741,-0.034684 A 0.0016000000000000044,2.576138544539955e-06 -7.88103626567807e-21 0,1 0.225941,-0.034684" />
      <path d="M 0.224329,0.0017 A 0.004500000000000004,7.245389656518609e-06 -7.88103626567807e-21 1,1 0.215329,0.0017" />
      <path d="M 0.191916,-0.024716 A 0.0016000000000000044,2.576138544539955e-06 -7.88103626567807e-21 1,1 0.188716,-0.024716" />
      <path d="M 0.188716,-0.024716 A 0.0016000000000000044,2.576138544539955e-06 -7.88103626567807e-21 0,1 0.191916,-0.024716" />
      <path d="M 0.208916,-0.024716 A 0.0016,2.576138544539948e-06 -7.88103626567807e-21 1,1 0.205716,-0.024716" />
      <path d="M 0.205716,-0.024716 A 0.0016,2.576138544539948e-06 -7.88103626567807e-21 0,1 0.208916,-0.024716" />
      <path d="M 0.225916,-0.024717 A 0.0016000000000000044,2.576138544539955e-06 -7.88103626567807e-21 1,1 0.222716,-0.024717" />
      <path d="M 0.222716,-0.024717 A 0.0016000000000000044,2.576138544539955e-06 -7.88103626567807e-21 0,1 0.225916,-0.024717" />
      <path d="M 0.191941,-0.024683 A 0.0016000000000000044,2.576138544539955e-06 -7.88103626567807e-21 1,1 0.188741,-0.024683" />
      <path d="M 0.188741,-0.024683 A 0.0016000000000000044,2.576138544539955e-06 -7.88103626567807e-21 0,1 0.191941,-0.024683" />
      <path d="M 0.208941,-0.024683 A 0.0016,2.576138544539948e-06 -7.88103626567807e-21 1,1 0.205741,-0.024683" />
      <path d="M 0.205741,-0.024683 A 0.0016,2.576138544539948e-06 -7.88103626567807e-21 0,1 0.208941,-0.024683" />
      <path d="M 0.225941,-0.024684 A 0.0016000000000000044,2.576138544539955e-06 -7.88103626567807e-21 1,1 0.222741,-0.024684" />
      <path d="M 0.222741,-0.024684 A 0.0016000000000000044,2.576138544539955e-06 -7.88103626567807e-21 0,1 0.225941,-0.024684" />
      <line x1="0.222829" y1="-0.0339" x2="0.222829" y2="-0.0326" />
      <line x1="0.216829" y1="-0.0339" x2="0.216829" y2="-0.0326" />
      <line x1="0.191916" y1="-0.034716" x2="0.191916" y2="-0.024716" />
      <line x1="0.188716" y1="-0.034716" x2="0.188716" y2="-0.024716" />
      <line x1="0.208916" y1="-0.034716" x2="0.208916" y2="-0.024716" />
      <line x1="0.205716" y1="-0.034716" x2="0.205716" y2="-0.024716" />
      <line x1="0.225916" y1="-0.034717" x2="0.225916" y2="-0.024717" />
      <line x1="0.222716" y1="-0.034717" x2="0.222716" y2="-0.024717" />
      <line x1="0.191941" y1="-0.034683" x2="0.191941" y2="-0.024683" />
      <line x1="0.188741" y1="-0.034683" x2="0.188741" y2="-0.024683" />
      <line x1="0.208941" y1="-0.034683" x2="0.208941" y2="-0.024683" />
      <line x1="0.205741" y1="-0.034683" x2="0.205741" y2="-0.024683" />
      <line x1="0.225941" y1="-0.034684" x2="0.225941" y2="-0.024684" />
      <line x1="0.222741" y1="-0.034684" x2="0.222741" y2="-0.024684" />
      <line x1="0.227841" y1="1.6e-05" x2="0.227841" y2="0.001716" />
      <line x1="0.211841" y1="1.6e-05" x2="0.211841" y2="0.001716" />
      <line x1="0.209839" y1="1.3e-05" x2="0.209839" y2="0.001713" />
      <line x1="0.259251" y1="-0.032563" x2="0.259251" y2="3.7e-05" />
      <line x1="0.259251" y1="-0.032563" x2="0.276051" y2="-0.032563" />
      <line x1="0.276051" y1="3.7e-05" x2="0.276051" y2="-0.032563" />
      <line x1="0.259251" y1="3.7e-05" x2="0.276051" y2="3.7e-05" />
      <path d="M 0.259251,3.7e-05 A 0.004,6.432478755953831e-06 6.500546119967843e-37 0,1 0.257651,3.6e-05" />
      <path d="M 0.259251,-0.032563 A 0.004,6.432478755953831e-06 6.500546119967843e-37 0,1 0.255786,-0.032566" />
      <path d="M 0.255786,-0.032566 A 0.004,6.432478755953831e-06 6.500546119967843e-37 0,1 0.255251,-0.032569" />
      <line x1="0.255251" y1="-0.032569" x2="0.255251" y2="3e-05" />
      <path d="M 0.276051,-0.032563 A 0.004,6.432478755953831e-06 -180.0 0,0 0.279515,-0.032566" />
      <line x1="0.255786" y1="-0.032566" x2="0.259251" y2="-0.032566" />
      <line x1="0.276051" y1="-0.032566" x2="0.279515" y2="-0.032566" />
      <line x1="0.259251" y1="-0.032566" x2="0.259251" y2="-0.032631" />
      <line x1="0.276051" y1="-0.032566" x2="0.276051" y2="-0.032631" />
      <line x1="0.255378" y1="-0.032631" x2="0.259251" y2="-0.032631" />
      <line x1="0.276051" y1="-0.032631" x2="0.279924" y2="-0.032631" />
      <path d="M 0.267651,-0.032624 A 0.003,4.824359066965373e-06 3.470408899297471e-37 0,1 0.270651,-0.03262" />
      <path d="M 0.270651,-0.03262 A 0.003,4.824359066965373e-06 3.470408899297471e-37 0,1 0.264651,-0.03262" />
      <path d="M 0.264651,-0.03262 A 0.003,4.824359066965373e-06 3.470408899297471e-37 0,1 0.267651,-0.032624" />
      <line x1="0.280051" y1="3e-05" x2="0.280051" y2="-0.032569" />
      <path d="M 0.276051,3.7e-05 A 0.004,6.432478755953831e-06 -180.0 0,0 0.277651,3.6e-05" />
      <path d="M 0.279515,-0.032566 A 0.004,6.432478755953831e-06 -180.0 0,0 0.280051,-0.032569" />
      <path d="M 0.259651,-4e-06 A 0.002,3.2162393779769155e-06 6.500546119967843e-37 0,1 0.257651,-7e-06" />
      <line x1="0.257651" y1="-7e-06" x2="0.257651" y2="-3.3e-05" />
      <line x1="0.277651" y1="-7e-06" x2="0.277651" y2="-3.3e-05" />
      <path d="M 0.275651,-4e-06 A 0.002,3.2162393779769155e-06 -180.0 0,0 0.277651,-7e-06" />
      <line x1="0.259651" y1="-4e-06" x2="0.275651" y2="-4e-06" />
      <line x1="0.255251" y1="-0.032566" x2="0.255786" y2="-0.032566" />
      <line x1="0.255251" y1="-0.032566" x2="0.255251" y2="-0.032569" />
      <line x1="0.255251" y1="-0.034666" x2="0.255251" y2="-0.034731" />
      <line x1="0.255251" y1="-0.034666" x2="0.255251" y2="-0.032566" />
      <line x1="0.259251" y1="-0.034666" x2="0.259251" y2="-0.032566" />
      <line x1="0.255251" y1="-0.034666" x2="0.259251" y2="-0.034666" />
      <line x1="0.276051" y1="-0.034666" x2="0.276051" y2="-0.032566" />
      <line x1="0.279515" y1="-0.032566" x2="0.280051" y2="-0.032566" />
      <line x1="0.280051" y1="-0.034666" x2="0.280051" y2="-0.032566" />
      <line x1="0.276051" y1="-0.034666" x2="0.280051" y2="-0.034666" />
      <line x1="0.259251" y1="-0.034666" x2="0.259251" y2="-0.034731" />
      <line x1="0.259251" y1="-0.032636" x2="0.259251" y2="-0.032631" />
      <line x1="0.276051" y1="-0.034666" x2="0.276051" y2="-0.034731" />
      <line x1="0.276051" y1="-0.032636" x2="0.276051" y2="-0.032631" />
      <path d="M 0.270651,-0.03392 A 0.003,4.824359066965373e-06 3.470408899297471e-37 0,1 0.264651,-0.03392" />
      <line x1="0.280051" y1="-0.034666" x2="0.280051" y2="-0.034731" />
      <line x1="0.280051" y1="-0.032566" x2="0.280051" y2="-0.032569" />
      <line x1="0.257651" y1="-7e-06" x2="0.257651" y2="0.001693" />
      <line x1="0.277651" y1="-7e-06" x2="0.277651" y2="0.001693" />
      <line x1="0.263151" y1="0.001696" x2="0.272151" y2="0.001696" />
      <path d="M 0.257401,-0.034675 A 0.0016,2.5729915023815325e-06 3.470408899297471e-37 0,1 0.259001,-0.034672" />
      <path d="M 0.259001,-0.034672 A 0.0016,2.5729915023815325e-06 3.470408899297471e-37 0,1 0.255801,-0.034672" />
      <path d="M 0.255801,-0.034672 A 0.0016,2.5729915023815325e-06 3.470408899297471e-37 0,1 0.257401,-0.034675" />
      <path d="M 0.257401,-0.034702 A 0.0016,2.5729915023815325e-06 3.470408899297471e-37 0,1 0.259001,-0.0347" />
      <path d="M 0.259001,-0.0347 A 0.0016,2.5729915023815325e-06 3.470408899297471e-37 0,1 0.255801,-0.0347" />
      <path d="M 0.255801,-0.0347 A 0.0016,2.5729915023815325e-06 3.470408899297471e-37 0,1 0.257401,-0.034702" />
      <path d="M 0.257401,-0.034729 A 0.0016,2.5729915023815325e-06 3.470408899297471e-37 0,1 0.259001,-0.034727" />
      <path d="M 0.259001,-0.034727 A 0.0016,2.5729915023815325e-06 3.470408899297471e-37 0,1 0.255801,-0.034727" />
      <path d="M 0.255801,-0.034727 A 0.0016,2.5729915023815325e-06 3.470408899297471e-37 0,1 0.257401,-0.034729" />
      <path d="M 0.277901,-0.034675 A 0.0016,2.5729915023815325e-06 3.470408899297471e-37 0,1 0.279501,-0.034672" />
      <path d="M 0.279501,-0.034672 A 0.0016,2.5729915023815325e-06 3.470408899297471e-37 0,1 0.276301,-0.034672" />
      <path d="M 0.276301,-0.034672 A 0.0016,2.5729915023815325e-06 3.470408899297471e-37 0,1 0.277901,-0.034675" />
      <path d="M 0.277901,-0.034702 A 0.0016,2.5729915023815325e-06 3.470408899297471e-37 0,1 0.279501,-0.0347" />
      <path d="M 0.279501,-0.0347 A 0.0016,2.5729915023815325e-06 3.470408899297471e-37 0,1 0.276301,-0.0347" />
      <path d="M 0.276301,-0.0347 A 0.0016,2.5729915023815325e-06 3.470408899297471e-37 0,1 0.277901,-0.034702" />
      <path d="M 0.277901,-0.034729 A 0.0016,2.5729915023815325e-06 3.470408899297471e-37 0,1 0.279501,-0.034727" />
      <path d="M 0.279501,-0.034727 A 0.0016,2.5729915023815325e-06 3.470408899297471e-37 0,1 0.276301,-0.034727" />
      <path d="M 0.276301,-0.034727 A 0.0016,2.5729915023815325e-06 3.470408899297471e-37 0,1 0.277901,-0.034729" />
      <path d="M 0.272151,0.00168 A 0.0045,7.23653860044806e-06 3.470408899297471e-37 0,1 0.263151,0.00168" />
      <path d="M 0.257401,-0.024675 A 0.0016,2.5729915023815325e-06 3.470408899297471e-37 0,1 0.259001,-0.024672" />
      <path d="M 0.259001,-0.024672 A 0.0016,2.5729915023815325e-06 3.470408899297471e-37 0,1 0.255801,-0.024672" />
      <path d="M 0.255801,-0.024672 A 0.0016,2.5729915023815325e-06 3.470408899297471e-37 0,1 0.257401,-0.024675" />
      <path d="M 0.257401,-0.024702 A 0.0016,2.5729915023815325e-06 3.470408899297471e-37 0,1 0.259001,-0.0247" />
      <path d="M 0.259001,-0.0247 A 0.0016,2.5729915023815325e-06 3.470408899297471e-37 0,1 0.255801,-0.0247" />
      <path d="M 0.255801,-0.0247 A 0.0016,2.5729915023815325e-06 3.470408899297471e-37 0,1 0.257401,-0.024702" />
      <path d="M 0.257401,-0.024729 A 0.0016,2.5729915023815325e-06 3.470408899297471e-37 0,1 0.259001,-0.024727" />
      <path d="M 0.259001,-0.024727 A 0.0016,2.5729915023815325e-06 3.470408899297471e-37 0,1 0.255801,-0.024727" />
      <path d="M 0.255801,-0.024727 A 0.0016,2.5729915023815325e-06 3.470408899297471e-37 0,1 0.257401,-0.024729" />
      <path d="M 0.277901,-0.024675 A 0.0016,2.5729915023815325e-06 3.470408899297471e-37 0,1 0.279501,-0.024672" />
      <path d="M 0.279501,-0.024672 A 0.0016,2.5729915023815325e-06 3.470408899297471e-37 0,1 0.276301,-0.024672" />
      <path d="M 0.276301,-0.024672 A 0.0016,2.5729915023815325e-06 3.470408899297471e-37 0,1 0.277901,-0.024675" />
      <path d="M 0.277901,-0.024702 A 0.0016,2.5729915023815325e-06 3.470408899297471e-37 0,1 0.279501,-0.0247" />
      <path d="M 0.279501,-0.0247 A 0.0016,2.5729915023815325e-06 3.470408899297471e-37 0,1 0.276301,-0.0247" />
      <path d="M 0.276301,-0.0247 A 0.0016,2.5729915023815325e-06 3.470408899297471e-37 0,1 0.277901,-0.024702" />
      <path d="M 0.277901,-0.024729 A 0.0016,2.5729915023815325e-06 3.470408899297471e-37 0,1 0.279501,-0.024727" />
      <path d="M 0.279501,-0.024727 A 0.0016,2.5729915023815325e-06 3.470408899297471e-37 0,1 0.276301,-0.024727" />
      <path d="M 0.276301,-0.024727 A 0.0016,2.5729915023815325e-06 3.470408899297471e-37 0,1 0.277901,-0.024729" />
      <line x1="0.270651" y1="-0.032636" x2="0.270651" y2="-0.03262" />
      <line x1="0.264651" y1="-0.032636" x2="0.264651" y2="-0.03262" />
      <line x1="0.259001" y1="-0.034672" x2="0.259001" y2="-0.024672" />
      <line x1="0.255801" y1="-0.034672" x2="0.255801" y2="-0.024672" />
      <line x1="0.259001" y1="-0.0347" x2="0.259001" y2="-0.0247" />
      <line x1="0.255801" y1="-0.0347" x2="0.255801" y2="-0.0247" />
      <line x1="0.259001" y1="-0.034727" x2="0.259001" y2="-0.024727" />
      <line x1="0.255801" y1="-0.034727" x2="0.255801" y2="-0.024727" />
      <line x1="0.279501" y1="-0.034672" x2="0.279501" y2="-0.024672" />
      <line x1="0.276301" y1="-0.034672" x2="0.276301" y2="-0.024672" />
      <line x1="0.279501" y1="-0.0347" x2="0.279501" y2="-0.0247" />
      <line x1="0.276301" y1="-0.0347" x2="0.276301" y2="-0.0247" />
      <line x1="0.279501" y1="-0.034727" x2="0.279501" y2="-0.024727" />
      <line x1="0.276301" y1="-0.034727" x2="0.276301" y2="-0.024727" />
      <line x1="0.259651" y1="-4e-06" x2="0.259651" y2="0.001696" />
      <line x1="0.275651" y1="-4e-06" x2="0.275651" y2="0.001696" />
    </g>
    <g fill="none" stroke="rgb(220,60,40)" stroke-width="0.00035" id="coupler">
      <line x1="0.037406" y1="-0.009294" x2="0.01" y2="-0.009294" />
      <line x1="0.037406" y1="-0.009294" x2="0.037406" y2="-0.008294" />
      <line x1="0.037406" y1="-0.008294" x2="0.027406" y2="-0.008294" />
      <line x1="0.027406" y1="-0.008294" x2="0.027406" y2="0.008294" />
      <line x1="0.037406" y1="0.008294" x2="0.027406" y2="0.008294" />
      <line x1="0.037406" y1="0.008294" x2="0.037406" y2="0.009294" />
      <line x1="0.037406" y1="0.009294" x2="0.01" y2="0.009294" />
      <line x1="0.01" y1="0.008294" x2="0.01" y2="0.009294" />
      <path d="M 0.01,0.008294 A 0.008294306588619054,0.008294306588619054 0.0 1,1 0.01,-0.008294" />
      <line x1="0.01" y1="-0.009294" x2="0.01" y2="-0.008294" />
      <path d="M 0.006129,-0.004319 A 0.00125,0.00125 30.292915047062724 1,0 0.005681,-0.003871" />
      <path d="M 0.005681,-0.003871 A 0.0058,0.0058 131.8634957265941 0,0 0.005681,0.003871" />
      <path d="M 0.005681,0.003871 A 0.00125,0.00125 -59.70708495293722 1,0 0.006129,0.004319" />
      <path d="M 0.006129,0.004319 A 0.0058,0.0058 131.8634957265941 0,0 0.013871,0.004319" />
      <path d="M 0.013871,0.004319 A 0.00125,0.00125 -149.70708495293812 1,0 0.014319,0.003871" />
      <path d="M 0.014319,0.003871 A 0.0058,0.0058 131.8634957265941 0,0 0.014319,-0.003871" />
      <path d="M 0.014319,-0.003871 A 0.00125,0.00125 120.29291504706183 1,0 0.013871,-0.004319" />
      <path d="M 0.013871,-0.004319 A 0.0058,0.0058 131.8634957265941 0,0 0.006129,-0.004319" />
      <line x1="0.037406" y1="-0.008294" x2="0.027406" y2="-0.008294" />
      <line x1="0.027406" y1="-0.008294" x2="0.027406" y2="0.008294" />
      <line x1="0.037406" y1="0.008294" x2="0.027406" y2="0.008294" />
      <line x1="0.037406" y1="0.008294" x2="0.037406" y2="-0.008294" />
      <line x1="0.106012" y1="-0.009294" x2="0.078606" y2="-0.009294" />
      <line x1="0.106012" y1="-0.009294" x2="0.106012" y2="0.009294" />
      <line x1="0.106012" y1="0.009294" x2="0.078606" y2="0.009294" />
      <line x1="0.078606" y1="0.008294" x2="0.078606" y2="0.009294" />
      <path d="M 0.078606,0.008294 A 0.008294306588619054,0.008294306588619054 0.0 1,1 0.078606,-0.008294" />
      <line x1="0.078606" y1="-0.009294" x2="0.078606" y2="-0.008294" />
      <path d="M 0.074735,-0.004319 A 0.00125,0.00125 30.292915047062724 1,0 0.074287,-0.003871" />
      <path d="M 0.074287,-0.003871 A 0.0058,0.0058 131.8634957265941 0,0 0.074287,0.003871" />
      <path d="M 0.074287,0.003871 A 0.00125,0.00125 -59.70708495293722 1,0 0.074735,0.004319" />
      <path d="M 0.074735,0.004319 A 0.0058,0.0058 131.8634957265941 0,0 0.082477,0.004319" />
      <path d="M 0.082477,0.004319 A 0.00125,0.00125 -149.70708495293812 1,0 0.082926,0.003871" />
      <path d="M 0.082926,0.003871 A 0.0058,0.0058 131.8634957265941 0,0 0.082926,-0.003871" />
      <path d="M 0.082926,-0.003871 A 0.00125,0.00125 120.29291504706183 1,0 0.082477,-0.004319" />
      <path d="M 0.082477,-0.004319 A 0.0058,0.0058 131.8634957265941 0,0 0.074735,-0.004319" />
      <line x1="0.176619" y1="0.008294" x2="0.176619" y2="-0.008294" />
      <line x1="0.166619" y1="-0.008294" x2="0.176619" y2="-0.008294" />
      <line x1="0.166619" y1="0.008294" x2="0.166619" y2="-0.008294" />
      <line x1="0.166619" y1="0.008294" x2="0.176619" y2="0.008294" />
      <line x1="0.247251" y1="0.011685" x2="0.219844" y2="0.011685" />
      <line x1="0.247251" y1="0.011685" x2="0.247219" y2="0.011715" />
      <line x1="0.247219" y1="0.011715" x2="0.219813" y2="0.011715" />
      <line x1="0.219815" y1="0.011713" x2="0.219813" y2="0.011715" />
      <path d="M 0.219815,0.011713 A 0.008294306588619054,1.3353797496296493e-05 -1.356145821759614e-20 0,1 0.211535,0.0117" />
      <path d="M 0.211535,0.0117 A 0.008294306588619054,1.3353797496296493e-05 -1.356145821759614e-20 0,1 0.219843,0.011687" />
      <line x1="0.219844" y1="0.011685" x2="0.219843" y2="0.011687" />
      <path d="M 0.215965,0.011693 A 0.00125,2.012494557806039e-06 -180.0 0,0 0.216137,0.011692" />
      <path d="M 0.216137,0.011692 A 0.0012500000000000011,2.0124945578060406e-06 -180.0 0,0 0.213637,0.011692" />
      <path d="M 0.213637,0.011692 A 0.00125,2.012494557806039e-06 -180.0 0,0 0.215516,0.011694" />
      <path d="M 0.215516,0.011694 A 0.0058,9.337974748220018e-06 180.0 0,0 0.214029,0.0117" />
      <path d="M 0.214029,0.0117 A 0.0058,9.337974748220018e-06 180.0 0,0 0.215503,0.011706" />
      <path d="M 0.215503,0.011706 A 0.00125,2.012494557806039e-06 -180.0 0,0 0.213621,0.011708" />
      <path d="M 0.213621,0.011708 A 0.0012500000000000011,2.0124945578060406e-06 -180.0 1,0 0.216121,0.011708" />
      <path d="M 0.216121,0.011708 A 0.00125,2.012494557806039e-06 -180.0 0,0 0.215951,0.011707" />
      <path d="M 0.215951,0.011707 A 0.0058,9.337974748220018e-06 180.0 0,0 0.223692,0.011707" />
      <path d="M 0.223692,0.011707 A 0.00125,2.012494557806039e-06 -180.0 0,0 0.22352,0.011708" />
      <path d="M 0.22352,0.011708 A 0.0012500000000000011,2.0124945578060406e-06 -180.0 0,0 0.22602,0.011708" />
      <path d="M 0.22602,0.011708 A 0.00125,2.012494557806039e-06 -180.0 0,0 0.224142,0.011706" />
      <path d="M 0.224142,0.011706 A 0.0058,9.337974748220018e-06 180.0 0,0 0.225629,0.0117" />
      <path d="M 0.225629,0.0117 A 0.0058,9.337974748220018e-06 180.0 0,0 0.224155,0.011694" />
      <path d="M 0.224155,0.011694 A 0.00125,2.0124945578060385e-06 180.0 0,0 0.226037,0.011692" />
      <path d="M 0.226037,0.011692 A 0.00125,2.0124945578060385e-06 180.0 0,0 0.223537,0.011692" />
      <path d="M 0.223537,0.011692 A 0.00125,2.0124945578060385e-06 180.0 0,0 0.223707,0.011693" />
      <path d="M 0.223707,0.011693 A 0.0058,9.337974748220018e-06 180.0 0,0 0.215965,0.011693" />
      <line x1="0.247251" y1="0.001685" x2="0.219844" y2="0.001685" />
      <line x1="0.247251" y1="0.001685" x2="0.247251" y2="0.011685" />
      <line x1="0.219844" y1="0.001685" x2="0.219844" y2="0.011685" />
      <line x1="0.247249" y1="-0.033913" x2="0.247249" y2="0.001685" />
      <line x1="0.247251" y1="-0.033915" x2="0.247249" y2="-0.033913" />
      <line x1="0.247251" y1="-0.043915" x2="0.247251" y2="-0.033915" />
      <line x1="0.219813" y1="0.011713" x2="0.219813" y2="0.011715" />
      <line x1="0.219843" y1="0.001687" x2="0.219843" y2="0.011687" />
      <path d="M 0.211535,0.0017 A 0.008294306588619054,1.3353797496296493e-05 -1.356145821759614e-20 0,1 0.219843,0.001687" />
      <line x1="0.219844" y1="0.001685" x2="0.219843" y2="0.001687" />
      <line x1="0.215965" y1="0.011691" x2="0.215965" y2="0.011693" />
      <line x1="0.215516" y1="0.01169" x2="0.215516" y2="0.011694" />
      <line x1="0.215503" y1="0.011694" x2="0.215503" y2="0.011706" />
      <line x1="0.215951" y1="0.011693" x2="0.215951" y2="0.011707" />
      <line x1="0.223692" y1="0.011693" x2="0.223692" y2="0.011707" />
      <line x1="0.224142" y1="0.011694" x2="0.224142" y2="0.011706" />
      <line x1="0.224155" y1="0.01169" x2="0.224155" y2="0.011694" />
      <line x1="0.223707" y1="0.011691" x2="0.223707" y2="0.011693" />
      <line x1="0.237249" y1="-0.033913" x2="0.237249" y2="0.001685" />
      <line x1="0.237249" y1="-0.033913" x2="0.247249" y2="-0.033913" />
      <line x1="0.247251" y1="-0.033915" x2="0.219844" y2="-0.033915" />
      <line x1="0.237221" y1="-0.033887" x2="0.237249" y2="-0.033913" />
      <line x1="0.237221" y1="-0.033885" x2="0.219813" y2="-0.033885" />
      <line x1="0.219815" y1="-0.033887" x2="0.219813" y2="-0.033885" />
      <path d="M 0.219815,-0.033887 A 0.008294306588619054,1.3353797496296493e-05 -1.356145821759614e-20 0,1 0.211535,-0.0339" />
      <path d="M 0.211535,-0.0339 A 0.008294306588619054,1.3353797496296493e-05 -1.356145821759614e-20 0,1 0.219843,-0.033913" />
      <line x1="0.219844" y1="-0.033915" x2="0.219843" y2="-0.033913" />
      <path d="M 0.215965,-0.033907 A 0.00125,2.012494557806039e-06 -180.0 0,0 0.216137,-0.033908" />
      <path d="M 0.216137,-0.033908 A 0.0012500000000000011,2.0124945578060406e-06 -180.0 0,0 0.213637,-0.033908" />
      <path d="M 0.213637,-0.033908 A 0.00125,2.012494557806039e-06 -180.0 0,0 0.215516,-0.033906" />
      <path d="M 0.215516,-0.033906 A 0.0058,9.337974748220018e-06 180.0 0,0 0.214029,-0.0339" />
      <path d="M 0.214029,-0.0339 A 0.0058,9.337974748220018e-06 180.0 0,0 0.215503,-0.033894" />
      <path d="M 0.215503,-0.033894 A 0.00125,2.012494557806039e-06 -180.0 0,0 0.213621,-0.033892" />
      <path d="M 0.213621,-0.033892 A 0.0012500000000000011,2.0124945578060406e-06 -180.0 1,0 0.216121,-0.033892" />
      <path d="M 0.216121,-0.033892 A 0.00125,2.012494557806039e-06 -180.0 0,0 0.215951,-0.033893" />
      <path d="M 0.215951,-0.033893 A 0.0058,9.337974748220018e-06 180.0 0,0 0.223692,-0.033893" />
      <path d="M 0.223692,-0.033893 A 0.00125,2.012494557806039e-06 -180.0 0,0 0.22352,-0.033892" />
      <path d="M 0.22352,-0.033892 A 0.0012500000000000011,2.0124945578060406e-06 -180.0 0,0 0.22602,-0.033892" />
      <path d="M 0.22602,-0.033892 A 0.00125,2.012494557806039e-06 -180.0 0,0 0.224142,-0.033894" />
      <path d="M 0.224142,-0.033894 A 0.0058,9.337974748220018e-06 180.0 0,0 0.225629,-0.0339" />
      <path d="M 0.225629,-0.0339 A 0.0058,9.337974748220018e-06 180.0 0,0 0.224155,-0.033906" />
      <path d="M 0.224155,-0.033906 A 0.00125,2.0124945578060385e-06 180.0 0,0 0.226037,-0.033908" />
      <path d="M 0.226037,-0.033908 A 0.00125,2.0124945578060385e-06 180.0 0,0 0.223537,-0.033908" />
      <path d="M 0.223537,-0.033908 A 0.00125,2.0124945578060385e-06 180.0 0,0 0.223707,-0.033907" />
      <path d="M 0.223707,-0.033907 A 0.0058,9.337974748220018e-06 180.0 0,0 0.215965,-0.033907" />
      <line x1="0.247251" y1="-0.043915" x2="0.219844" y2="-0.043915" />
      <line x1="0.219844" y1="-0.043915" x2="0.219844" y2="-0.033915" />
      <path d="M 0.211535,-0.0439 A 0.008294306588619054,1.3353797496296493e-05 -1.356145821759614e-20 0,1 0.219843,-0.043913" />
      <line x1="0.219844" y1="-0.043915" x2="0.219843" y2="-0.043913" />
      <line x1="0.219813" y1="-0.033887" x2="0.219813" y2="-0.033885" />
      <line x1="0.237221" y1="-0.033887" x2="0.237221" y2="0.001685" />
      <line x1="0.219843" y1="-0.043913" x2="0.219843" y2="-0.033913" />
      <line x1="0.215965" y1="-0.033909" x2="0.215965" y2="-0.033907" />
      <line x1="0.215516" y1="-0.03391" x2="0.215516" y2="-0.033906" />
      <line x1="0.223707" y1="-0.033909" x2="0.223707" y2="-0.033907" />
      <line x1="0.224155" y1="-0.03391" x2="0.224155" y2="-0.033906" />
      <line x1="0.224142" y1="-0.033906" x2="0.224142" y2="-0.033894" />
      <line x1="0.223692" y1="-0.033907" x2="0.223692" y2="-0.033893" />
      <line x1="0.215951" y1="-0.033907" x2="0.215951" y2="-0.033893" />
      <line x1="0.215503" y1="-0.033906" x2="0.215503" y2="-0.033894" />
      <line x1="0.211535" y1="0.0017" x2="0.211535" y2="0.0117" />
      <line x1="0.211535" y1="-0.0439" x2="0.211535" y2="-0.0339" />
      <line x1="0.258356" y1="0.011683" x2="0.258356" y2="0.011727" />
      <line x1="0.258356" y1="0.011683" x2="0.276945" y2="0.011683" />
      <line x1="0.276945" y1="0.011683" x2="0.276945" y2="0.011727" />
      <line x1="0.275945" y1="0.011727" x2="0.276945" y2="0.011727" />
      <path d="M 0.275945,0.011727 A 0.00829450000000001,1.3376576037516984e-05 -4.67516969889507e-38 1,1 0.259356,0.011727" />
      <line x1="0.258356" y1="0.011727" x2="0.259356" y2="0.011727" />
      <path d="M 0.263331,0.011733 A 0.00125,2.0158804083303646e-06 -180.0 0,0 0.261451,0.011735" />
      <path d="M 0.261451,0.011735 A 0.0012500000000000011,2.0158804083303663e-06 -180.0 0,0 0.263951,0.011735" />
      <path d="M 0.263951,0.011735 A 0.00125,2.0158804083303646e-06 -180.0 0,0 0.26378,0.011734" />
      <path d="M 0.26378,0.011734 A 0.0058,9.353685094652888e-06 -180.0 0,0 0.271521,0.011734" />
      <path d="M 0.271521,0.011734 A 0.00125,2.0158804083303646e-06 180.0 0,0 0.271351,0.011735" />
      <path d="M 0.271351,0.011735 A 0.0012500000000000011,2.0158804083303663e-06 180.0 0,0 0.273851,0.011735" />
      <path d="M 0.273851,0.011735 A 0.00125,2.0158804083303646e-06 180.0 0,0 0.27197,0.011733" />
      <path d="M 0.27197,0.011733 A 0.0058,9.353685094652888e-06 -180.0 0,0 0.273451,0.011727" />
      <path d="M 0.273451,0.011727 A 0.0058,9.353685094652888e-06 -180.0 0,0 0.27197,0.011721" />
      <path d="M 0.27197,0.011721 A 0.00125,2.0158804083303646e-06 180.0 0,0 0.273851,0.011719" />
      <path d="M 0.273851,0.011719 A 0.0012500000000000011,2.0158804083303663e-06 180.0 1,0 0.271351,0.011719" />
      <path d="M 0.271351,0.011719 A 0.00125,2.0158804083303646e-06 180.0 0,0 0.271521,0.01172" />
      <path d="M 0.271521,0.01172 A 0.0058,9.353685094652888e-06 -180.0 0,0 0.26378,0.01172" />
      <path d="M 0.26378,0.01172 A 0.00125,2.015880408330364e-06 180.0 0,0 0.263951,0.011719" />
      <path d="M 0.263951,0.011719 A 0.0012500000000000011,2.015880408330366e-06 180.0 0,0 0.261451,0.011719" />
      <path d="M 0.261451,0.011719 A 0.00125,2.015880408330364e-06 180.0 0,0 0.263331,0.011721" />
      <path d="M 0.263331,0.011721 A 0.0058,9.353685094652888e-06 -180.0 0,0 0.261851,0.011727" />
      <path d="M 0.261851,0.011727 A 0.0058,9.353685094652888e-06 -180.0 0,0 0.263331,0.011733" />
      <line x1="0.258356" y1="0.001683" x2="0.258356" y2="0.011683" />
      <line x1="0.258356" y1="0.001683" x2="0.259356" y2="0.001683" />
      <line x1="0.259356" y1="-0.033917" x2="0.259356" y2="0.001683" />
      <line x1="0.258356" y1="-0.033917" x2="0.259356" y2="-0.033917" />
      <line x1="0.258356" y1="-0.043917" x2="0.258356" y2="-0.033917" />
      <line x1="0.258356" y1="-0.043917" x2="0.276945" y2="-0.043917" />
      <line x1="0.276945" y1="-0.043917" x2="0.276945" y2="-0.033917" />
      <line x1="0.275945" y1="-0.033917" x2="0.276945" y2="-0.033917" />
      <line x1="0.275945" y1="-0.033917" x2="0.275945" y2="0.001683" />
      <line x1="0.275945" y1="0.001683" x2="0.276945" y2="0.001683" />
      <line x1="0.276945" y1="0.001683" x2="0.276945" y2="0.011683" />
      <line x1="0.263331" y1="0.011721" x2="0.263331" y2="0.011733" />
      <line x1="0.26378" y1="0.01172" x2="0.26378" y2="0.011734" />
      <line x1="0.271521" y1="0.01172" x2="0.271521" y2="0.011734" />
      <line x1="0.27197" y1="0.011721" x2="0.27197" y2="0.011733" />
      <line x1="0.27197" y1="0.011717" x2="0.27197" y2="0.011721" />
      <line x1="0.271521" y1="0.011718" x2="0.271521" y2="0.01172" />
      <line x1="0.26378" y1="0.011718" x2="0.26378" y2="0.01172" />
      <line x1="0.263331" y1="0.011717" x2="0.263331" y2="0.011721" />
      <line x1="0.258356" y1="-0.033917" x2="0.258356" y2="-0.033873" />
      <line x1="0.276945" y1="-0.033917" x2="0.276945" y2="-0.033873" />
      <line x1="0.275945" y1="-0.033873" x2="0.276945" y2="-0.033873" />
      <path d="M 0.275945,-0.033873 A 0.008294306588619054,1.3376264122146089e-05 -4.67516969889507e-38 0,1 0.275539,-0.033869" />
      <path d="M 0.259762,-0.033869 A 0.008294306588619054,1.3376264122146089e-05 -4.67516969889507e-38 0,1 0.259356,-0.033873" />
      <line x1="0.258356" y1="-0.033873" x2="0.259356" y2="-0.033873" />
    </g>
    <g fill="url(#hatch_coupler)" stroke="none" stroke-width="0" id="coupler_fill">
      <path d="M 0.037406,-0.009294 L 0.01,-0.009294 L 0.01,-0.008294 A 0.008294306588619054,0.008294306588619054 0.0 1,0 0.01,0.008294 L 0.01,0.009294 L 0.037406,0.009294 L 0.037406,0.008294 L 0.027406,0.008294 L 0.027406,-0.008294 L 0.037406,-0.008294 L 0.037406,-0.009294 M 0.005681,-0.003871 A 0.00125,0.00125 30.292915047062724 1,1 0.006129,-0.004319 A 0.0058,0.0058 131.8634957265941 0,1 0.013871,-0.004319 A 0.00125,0.00125 120.29291504706183 1,1 0.014319,-0.003871 A 0.0058,0.0058 131.8634957265941 0,1 0.014319,0.003871 A 0.00125,0.00125 -149.70708495293812 1,1 0.013871,0.004319 A 0.0058,0.0058 131.8634957265941 0,1 0.006129,0.004319 A 0.00125,0.00125 -59.70708495293722 1,1 0.005681,0.003871 A 0.0058,0.0058 131.8634957265941 0,1 0.005681,-0.003871" />
      <path d="M 0.027406,-0.008294 L 0.037406,-0.008294 L 0.037406,0.008294 L 0.027406,0.008294 L 0.027406,-0.008294" />
      <path d="M 0.078606,-0.009294 L 0.106012,-0.009294 L 0.106012,0.009294 L 0.078606,0.009294 L 0.078606,0.008294 A 0.008294306588619054,0.008294306588619054 0.0 1,1 0.078606,-0.008294 L 0.078606,-0.009294 M 0.074735,-0.004319 A 0.00125,0.00125 30.292915047062724 1,0 0.074287,-0.003871 A 0.0058,0.0058 131.8634957265941 0,0 0.074287,0.003871 A 0.00125,0.00125 -59.70708495293722 1,0 0.074735,0.004319 A 0.0058,0.0058 131.8634957265941 0,0 0.082477,0.004319 A 0.00125,0.00125 -149.70708495293812 1,0 0.082926,0.003871 A 0.0058,0.0058 131.8634957265941 0,0 0.082926,-0.003871 A 0.00125,0.00125 120.29291504706183 1,0 0.082477,-0.004319 A 0.0058,0.0058 131.8634957265941 0,0 0.074735,-0.004319" />
      <path d="M 0.176619,-0.008294 L 0.176619,0.008294 L 0.166619,0.008294 L 0.166619,-0.008294 L 0.176619,-0.008294" />
    </g>
    <g fill="none" stroke="rgb(220,60,40)" stroke-opacity="0.4" stroke-width="0.00015" id="coupler_hidden" stroke-dasharray="0.0018 0.00045">
      <line x1="0.247251" y1="0.001685" x2="0.247249" y2="0.001687" />
      <line x1="0.247249" y1="0.001685" x2="0.247249" y2="0.001687" />
      <line x1="0.247251" y1="-0.043915" x2="0.247219" y2="-0.043885" />
      <line x1="0.247219" y1="-0.043885" x2="0.247219" y2="-0.033885" />
      <line x1="0.247221" y1="-0.033887" x2="0.247219" y2="-0.033885" />
      <line x1="0.247221" y1="-0.033887" x2="0.247221" y2="0.001713" />
      <line x1="0.247221" y1="0.001713" x2="0.247219" y2="0.001715" />
      <line x1="0.247219" y1="0.001715" x2="0.247219" y2="0.011715" />
      <line x1="0.247219" y1="0.001715" x2="0.219813" y2="0.001715" />
      <line x1="0.219813" y1="0.001715" x2="0.219813" y2="0.011713" />
      <line x1="0.219815" y1="0.001713" x2="0.219813" y2="0.001715" />
      <line x1="0.219815" y1="0.001713" x2="0.219815" y2="0.011713" />
      <path d="M 0.219815,0.001713 A 0.008294306588619054,1.3353797496296493e-05 -1.356145821759614e-20 0,1 0.211535,0.0017" />
      <path d="M 0.215965,0.001693 A 0.00125,2.012494557806039e-06 -180.0 0,0 0.216137,0.001692" />
      <path d="M 0.216137,0.001692 A 0.0012500000000000011,2.0124945578060406e-06 -180.0 0,0 0.213637,0.001692" />
      <path d="M 0.213637,0.001692 A 0.00125,2.012494557806039e-06 -180.0 0,0 0.215516,0.001694" />
      <line x1="0.215965" y1="0.001693" x2="0.215965" y2="0.011691" />
      <line x1="0.215516" y1="0.001694" x2="0.215516" y2="0.01169" />
      <path d="M 0.215516,0.001694 A 0.0058,9.337974748220018e-06 180.0 0,0 0.214029,0.0017" />
      <path d="M 0.214029,0.0017 A 0.0058,9.337974748220018e-06 180.0 0,0 0.215503,0.001706" />
      <line x1="0.215503" y1="0.001706" x2="0.215503" y2="0.011694" />
      <path d="M 0.215503,0.001706 A 0.00125,2.012494557806039e-06 -180.0 0,0 0.213621,0.001708" />
      <path d="M 0.213621,0.001708 A 0.0012500000000000011,2.0124945578060406e-06 -180.0 1,0 0.216121,0.001708" />
      <path d="M 0.216121,0.001708 A 0.00125,2.012494557806039e-06 -180.0 0,0 0.215951,0.001707" />
      <line x1="0.215951" y1="0.001707" x2="0.215951" y2="0.011693" />
      <path d="M 0.215951,0.001707 A 0.0058,9.337974748220018e-06 180.0 0,0 0.223692,0.001707" />
      <line x1="0.223692" y1="0.001707" x2="0.223692" y2="0.011693" />
      <path d="M 0.223692,0.001707 A 0.00125,2.012494557806039e-06 -180.0 0,0 0.22352,0.001708" />
      <path d="M 0.22352,0.001708 A 0.0012500000000000011,2.0124945578060406e-06 -180.0 0,0 0.22602,0.001708" />
      <path d="M 0.22602,0.001708 A 0.00125,2.012494557806039e-06 -180.0 0,0 0.224142,0.001706" />
      <line x1="0.224142" y1="0.001706" x2="0.224142" y2="0.011694" />
      <path d="M 0.224142,0.001706 A 0.0058,9.337974748220018e-06 180.0 0,0 0.225629,0.0017" />
      <path d="M 0.225629,0.0017 A 0.0058,9.337974748220018e-06 180.0 0,0 0.224155,0.001694" />
      <line x1="0.224155" y1="0.001694" x2="0.224155" y2="0.01169" />
      <path d="M 0.224155,0.001694 A 0.00125,2.0124945578060385e-06 180.0 0,0 0.226037,0.001692" />
      <path d="M 0.226037,0.001692 A 0.00125,2.0124945578060385e-06 180.0 0,0 0.223537,0.001692" />
      <path d="M 0.223537,0.001692 A 0.00125,2.0124945578060385e-06 180.0 0,0 0.223707,0.001693" />
      <line x1="0.223707" y1="0.001693" x2="0.223707" y2="0.011691" />
      <path d="M 0.223707,0.001693 A 0.0058,9.337974748220018e-06 180.0 0,0 0.215965,0.001693" />
      <line x1="0.247249" y1="0.001687" x2="0.237249" y2="0.001687" />
      <line x1="0.237249" y1="0.001687" x2="0.237221" y2="0.001713" />
      <line x1="0.247221" y1="0.001713" x2="0.237221" y2="0.001713" />
      <line x1="0.237249" y1="0.001685" x2="0.237249" y2="0.001687" />
      <line x1="0.237221" y1="-0.033887" x2="0.247221" y2="-0.033887" />
      <line x1="0.247219" y1="-0.033885" x2="0.237221" y2="-0.033885" />
      <line x1="0.247219" y1="-0.043885" x2="0.219813" y2="-0.043885" />
      <line x1="0.219815" y1="-0.043887" x2="0.219813" y2="-0.043885" />
      <path d="M 0.219815,-0.043887 A 0.008294306588619054,1.3353797496296493e-05 -1.356145821759614e-20 0,1 0.211535,-0.0439" />
      <path d="M 0.215951,-0.043893 A 0.00125,2.012494557806039e-06 -6.2734347397049804e-18 0,1 0.216121,-0.043892" />
      <path d="M 0.216121,-0.043892 A 0.0012500000000000011,2.0124945578060406e-06 -6.2734347397049804e-18 1,1 0.213621,-0.043892" />
      <path d="M 0.213621,-0.043892 A 0.00125,2.012494557806039e-06 -6.2734347397049804e-18 0,1 0.215503,-0.043894" />
      <path d="M 0.223692,-0.043893 A 0.0058,9.337974748220018e-06 1.2191095560488982e-17 0,1 0.215951,-0.043893" />
      <path d="M 0.224142,-0.043894 A 0.00125,2.012494557806039e-06 -6.7537814046071314e-18 0,1 0.22602,-0.043892" />
      <path d="M 0.22602,-0.043892 A 0.0012500000000000011,2.0124945578060406e-06 -6.7537814046071314e-18 1,1 0.22352,-0.043892" />
      <path d="M 0.22352,-0.043892 A 0.00125,2.012494557806039e-06 -6.7537814046071314e-18 0,1 0.223692,-0.043893" />
      <path d="M 0.224155,-0.043906 A 0.0058,9.337974748220018e-06 1.2191095560488982e-17 0,1 0.225629,-0.0439" />
      <path d="M 0.225629,-0.0439 A 0.0058,9.337974748220018e-06 1.2191095560488982e-17 0,1 0.224142,-0.043894" />
      <path d="M 0.223707,-0.043907 A 0.00125,2.0124945578060385e-06 -1.671174752095824e-18 0,1 0.223537,-0.043908" />
      <path d="M 0.223537,-0.043908 A 0.00125,2.0124945578060385e-06 -1.671174752095824e-18 0,1 0.226037,-0.043908" />
      <path d="M 0.226037,-0.043908 A 0.00125,2.0124945578060385e-06 -1.671174752095824e-18 0,1 0.224155,-0.043906" />
      <path d="M 0.215965,-0.043907 A 0.0058,9.337974748220018e-06 1.2191095560488982e-17 0,1 0.223707,-0.043907" />
      <path d="M 0.215516,-0.043906 A 0.00125,2.012494557806039e-06 -1.5783917803596014e-18 0,1 0.213637,-0.043908" />
      <path d="M 0.213637,-0.043908 A 0.0012500000000000011,2.0124945578060406e-06 -1.5783917803596014e-18 0,1 0.216137,-0.043908" />
      <path d="M 0.216137,-0.043908 A 0.00125,2.012494557806039e-06 -1.5783917803596014e-18 0,1 0.215965,-0.043907" />
      <path d="M 0.215503,-0.043894 A 0.0058,9.337974748220018e-06 1.2191095560488982e-17 0,1 0.214029,-0.0439" />
      <path d="M 0.214029,-0.0439 A 0.0058,9.337974748220018e-06 1.2191095560488982e-17 0,1 0.215516,-0.043906" />
      <line x1="0.219813" y1="-0.043885" x2="0.219813" y2="-0.033887" />
      <line x1="0.237221" y1="0.001685" x2="0.237221" y2="0.001713" />
      <line x1="0.219815" y1="-0.043887" x2="0.219815" y2="-0.033887" />
      <line x1="0.215965" y1="-0.043907" x2="0.215965" y2="-0.033909" />
      <line x1="0.215516" y1="-0.043906" x2="0.215516" y2="-0.03391" />
      <line x1="0.223707" y1="-0.043907" x2="0.223707" y2="-0.033909" />
      <line x1="0.224155" y1="-0.043906" x2="0.224155" y2="-0.03391" />
      <line x1="0.224142" y1="-0.043894" x2="0.224142" y2="-0.033906" />
      <line x1="0.223692" y1="-0.043893" x2="0.223692" y2="-0.033907" />
      <line x1="0.215951" y1="-0.043893" x2="0.215951" y2="-0.033907" />
      <line x1="0.215503" y1="-0.043894" x2="0.215503" y2="-0.033906" />
      <line x1="0.216137" y1="0.001692" x2="0.216137" y2="0.011692" />
      <line x1="0.213637" y1="0.001692" x2="0.213637" y2="0.011692" />
      <line x1="0.214029" y1="0.0017" x2="0.214029" y2="0.0117" />
      <line x1="0.216121" y1="0.001708" x2="0.216121" y2="0.011708" />
      <line x1="0.213621" y1="0.001708" x2="0.213621" y2="0.011708" />
      <line x1="0.22602" y1="0.001708" x2="0.22602" y2="0.011708" />
      <line x1="0.22352" y1="0.001708" x2="0.22352" y2="0.011708" />
      <line x1="0.225629" y1="0.0017" x2="0.225629" y2="0.0117" />
      <line x1="0.226037" y1="0.001692" x2="0.226037" y2="0.011692" />
      <line x1="0.223537" y1="0.001692" x2="0.223537" y2="0.011692" />
      <line x1="0.216137" y1="-0.043908" x2="0.216137" y2="-0.033908" />
      <line x1="0.213637" y1="-0.043908" x2="0.213637" y2="-0.033908" />
      <line x1="0.226037" y1="-0.043908" x2="0.226037" y2="-0.033908" />
      <line x1="0.223537" y1="-0.043908" x2="0.223537" y2="-0.033908" />
      <line x1="0.225629" y1="-0.0439" x2="0.225629" y2="-0.0339" />
      <line x1="0.22602" y1="-0.043892" x2="0.22602" y2="-0.033892" />
      <line x1="0.22352" y1="-0.043892" x2="0.22352" y2="-0.033892" />
      <line x1="0.216121" y1="-0.043892" x2="0.216121" y2="-0.033892" />
      <line x1="0.213621" y1="-0.043892" x2="0.213621" y2="-0.033892" />
      <line x1="0.214029" y1="-0.0439" x2="0.214029" y2="-0.0339" />
      <line x1="0.258356" y1="0.001683" x2="0.258356" y2="0.001727" />
      <line x1="0.258356" y1="0.001727" x2="0.258356" y2="0.011727" />
      <line x1="0.276945" y1="0.001683" x2="0.276945" y2="0.001727" />
      <line x1="0.276945" y1="0.001727" x2="0.276945" y2="0.011727" />
      <line x1="0.275945" y1="0.001727" x2="0.276945" y2="0.001727" />
      <line x1="0.275945" y1="0.001727" x2="0.275945" y2="0.011727" />
      <line x1="0.259356" y1="0.001727" x2="0.259356" y2="0.011727" />
      <path d="M 0.275945,0.001727 A 0.00829450000000001,1.3376576037516984e-05 -4.67516969889507e-38 1,1 0.259356,0.001727" />
      <line x1="0.258356" y1="0.001727" x2="0.259356" y2="0.001727" />
      <path d="M 0.263331,0.001733 A 0.00125,2.0158804083303646e-06 -180.0 0,0 0.261451,0.001735" />
      <path d="M 0.261451,0.001735 A 0.0012500000000000011,2.0158804083303663e-06 -180.0 0,0 0.263951,0.001735" />
      <path d="M 0.263951,0.001735 A 0.00125,2.0158804083303646e-06 -180.0 0,0 0.26378,0.001734" />
      <line x1="0.263331" y1="0.001733" x2="0.263331" y2="0.011721" />
      <line x1="0.26378" y1="0.001734" x2="0.26378" y2="0.01172" />
      <path d="M 0.26378,0.001734 A 0.0058,9.353685094652888e-06 -180.0 0,0 0.271521,0.001734" />
      <line x1="0.271521" y1="0.001734" x2="0.271521" y2="0.01172" />
      <path d="M 0.271521,0.001734 A 0.00125,2.0158804083303646e-06 180.0 0,0 0.271351,0.001735" />
      <path d="M 0.271351,0.001735 A 0.0012500000000000011,2.0158804083303663e-06 180.0 0,0 0.273851,0.001735" />
      <path d="M 0.273851,0.001735 A 0.00125,2.0158804083303646e-06 180.0 0,0 0.27197,0.001733" />
      <line x1="0.27197" y1="0.001733" x2="0.27197" y2="0.011721" />
      <path d="M 0.27197,0.001733 A 0.0058,9.353685094652888e-06 -180.0 0,0 0.273451,0.001727" />
      <path d="M 0.273451,0.001727 A 0.0058,9.353685094652888e-06 -180.0 0,0 0.27197,0.001721" />
      <line x1="0.27197" y1="0.001721" x2="0.27197" y2="0.011717" />
      <path d="M 0.27197,0.001721 A 0.00125,2.0158804083303646e-06 180.0 0,0 0.273851,0.001719" />
      <path d="M 0.273851,0.001719 A 0.0012500000000000011,2.0158804083303663e-06 180.0 1,0 0.271351,0.001719" />
      <path d="M 0.271351,0.001719 A 0.00125,2.0158804083303646e-06 180.0 0,0 0.271521,0.00172" />
      <line x1="0.271521" y1="0.00172" x2="0.271521" y2="0.011718" />
      <path d="M 0.271521,0.00172 A 0.0058,9.353685094652888e-06 -180.0 0,0 0.26378,0.00172" />
      <line x1="0.26378" y1="0.00172" x2="0.26378" y2="0.011718" />
      <path d="M 0.26378,0.00172 A 0.00125,2.015880408330364e-06 180.0 0,0 0.263951,0.001719" />
      <path d="M 0.263951,0.001719 A 0.0012500000000000011,2.015880408330366e-06 180.0 0,0 0.261451,0.001719" />
      <path d="M 0.261451,0.001719 A 0.00125,2.015880408330364e-06 180.0 0,0 0.263331,0.001721" />
      <line x1="0.263331" y1="0.001721" x2="0.263331" y2="0.011717" />
      <path d="M 0.263331,0.001721 A 0.0058,9.353685094652888e-06 -180.0 0,0 0.261851,0.001727" />
      <path d="M 0.261851,0.001727 A 0.0058,9.353685094652888e-06 -180.0 0,0 0.263331,0.001733" />
      <line x1="0.259356" y1="0.001683" x2="0.259356" y2="0.001699" />
      <line x1="0.259356" y1="0.001699" x2="0.275945" y2="0.001699" />
      <line x1="0.275945" y1="0.001683" x2="0.275945" y2="0.001699" />
      <line x1="0.259356" y1="-0.033901" x2="0.259356" y2="0.001699" />
      <line x1="0.259356" y1="-0.033901" x2="0.259356" y2="-0.033917" />
      <line x1="0.275945" y1="-0.033901" x2="0.259356" y2="-0.033901" />
      <line x1="0.275945" y1="-0.033901" x2="0.275945" y2="-0.033917" />
      <path d="M 0.275539,-0.033869 A 0.008294306588619054,1.3376264122146089e-05 -4.67516969889507e-38 0,1 0.259762,-0.033869" />
      <path d="M 0.263331,-0.033867 A 0.00125,2.0158804083303646e-06 -180.0 0,0 0.261451,-0.033865" />
      <path d="M 0.261451,-0.033865 A 0.0012500000000000011,2.0158804083303663e-06 -180.0 0,0 0.263951,-0.033865" />
      <path d="M 0.263951,-0.033865 A 0.00125,2.0158804083303646e-06 -180.0 0,0 0.26378,-0.033866" />
      <path d="M 0.26378,-0.033866 A 0.0058,9.353685094652888e-06 -180.0 0,0 0.271521,-0.033866" />
      <path d="M 0.271521,-0.033866 A 0.00125,2.0158804083303646e-06 180.0 0,0 0.271351,-0.033865" />
      <path d="M 0.271351,-0.033865 A 0.0012500000000000011,2.0158804083303663e-06 180.0 0,0 0.273851,-0.033865" />
      <path d="M 0.273851,-0.033865 A 0.00125,2.0158804083303646e-06 180.0 0,0 0.27197,-0.033867" />
      <path d="M 0.27197,-0.033867 A 0.0058,9.353685094652888e-06 -180.0 0,0 0.273451,-0.033873" />
      <path d="M 0.273451,-0.033873 A 0.0058,9.353685094652888e-06 -180.0 0,0 0.27197,-0.033879" />
      <path d="M 0.27197,-0.033879 A 0.00125,2.0158804083303646e-06 180.0 0,0 0.273851,-0.033881" />
      <path d="M 0.273851,-0.033881 A 0.0012500000000000011,2.0158804083303663e-06 180.0 1,0 0.271351,-0.033881" />
      <path d="M 0.271351,-0.033881 A 0.00125,2.0158804083303646e-06 180.0 0,0 0.271521,-0.03388" />
      <path d="M 0.271521,-0.03388 A 0.0058,9.353685094652888e-06 -180.0 0,0 0.26378,-0.03388" />
      <path d="M 0.26378,-0.03388 A 0.00125,2.015880408330364e-06 180.0 0,0 0.263951,-0.033881" />
      <path d="M 0.263951,-0.033881 A 0.0012500000000000011,2.015880408330366e-06 180.0 0,0 0.261451,-0.033881" />
      <path d="M 0.261451,-0.033881 A 0.00125,2.015880408330364e-06 180.0 0,0 0.263331,-0.033879" />
      <path d="M 0.263331,-0.033879 A 0.0058,9.353685094652888e-06 -180.0 0,0 0.261851,-0.033873" />
      <path d="M 0.261851,-0.033873 A 0.0058,9.353685094652888e-06 -180.0 0,0 0.263331,-0.033867" />
      <line x1="0.258356" y1="-0.043917" x2="0.258356" y2="-0.043873" />
      <line x1="0.258356" y1="-0.043873" x2="0.258356" y2="-0.033873" />
      <line x1="0.276945" y1="-0.043917" x2="0.276945" y2="-0.043873" />
      <line x1="0.275945" y1="-0.043873" x2="0.276945" y2="-0.043873" />
      <path d="M 0.275945,-0.043873 A 0.00829450000000001,1.3376576037516984e-05 -4.67516969889507e-38 1,1 0.259356,-0.043873" />
      <line x1="0.258356" y1="-0.043873" x2="0.259356" y2="-0.043873" />
      <path d="M 0.27197,-0.043867 A 0.00125,2.0158804083303646e-06 -2.7769025556128196e-19 0,1 0.273851,-0.043865" />
      <path d="M 0.273851,-0.043865 A 0.0012500000000000011,2.0158804083303663e-06 -2.7769025556128196e-19 0,1 0.271351,-0.043865" />
      <path d="M 0.271351,-0.043865 A 0.00125,2.0158804083303646e-06 -2.7769025556128196e-19 0,1 0.271521,-0.043866" />
      <path d="M 0.27197,-0.043879 A 0.0058,9.353685094652893e-06 -5.315945754718854e-18 0,1 0.273451,-0.043873" />
      <path d="M 0.273451,-0.043873 A 0.0058,9.353685094652893e-06 -5.315945754718854e-18 0,1 0.27197,-0.043867" />
      <path d="M 0.271521,-0.04388 A 0.00125,2.0158804083303646e-06 3.9634604256890005e-18 0,1 0.271351,-0.043881" />
      <path d="M 0.271351,-0.043881 A 0.0012500000000000011,2.0158804083303663e-06 3.9634604256890005e-18 0,1 0.273851,-0.043881" />
      <path d="M 0.273851,-0.043881 A 0.00125,2.0158804083303646e-06 3.9634604256890005e-18 0,1 0.27197,-0.043879" />
      <path d="M 0.26378,-0.04388 A 0.0058,9.353685094652893e-06 -5.315945754718854e-18 0,1 0.271521,-0.04388" />
      <path d="M 0.263331,-0.043879 A 0.00125,2.0158804083303646e-06 5.2261932477563284e-18 0,1 0.261451,-0.043881" />
      <path d="M 0.261451,-0.043881 A 0.0012500000000000011,2.0158804083303663e-06 5.2261932477563284e-18 0,1 0.263951,-0.043881" />
      <path d="M 0.263951,-0.043881 A 0.00125,2.0158804083303646e-06 5.2261932477563284e-18 0,1 0.26378,-0.04388" />
      <path d="M 0.263331,-0.043867 A 0.0058,9.353685094652893e-06 -5.315945754718854e-18 0,1 0.261851,-0.043873" />
      <path d="M 0.261851,-0.043873 A 0.0058,9.353685094652893e-06 -5.315945754718854e-18 0,1 0.263331,-0.043879" />
      <path d="M 0.26378,-0.043866 A 0.00125,2.0158804083303646e-06 3.63957786987902e-18 0,1 0.263951,-0.043865" />
      <path d="M 0.263951,-0.043865 A 0.0012500000000000011,2.0158804083303663e-06 3.63957786987902e-18 0,1 0.261451,-0.043865" />
      <path d="M 0.261451,-0.043865 A 0.00125,2.0158804083303646e-06 3.63957786987902e-18 0,1 0.263331,-0.043867" />
      <path d="M 0.271521,-0.043866 A 0.0058,9.353685094652893e-06 -5.315945754718854e-18 0,1 0.26378,-0.043866" />
      <line x1="0.276945" y1="-0.043873" x2="0.276945" y2="-0.033873" />
      <line x1="0.275945" y1="-0.033901" x2="0.275945" y2="0.001699" />
      <line x1="0.259356" y1="-0.043873" x2="0.259356" y2="-0.033873" />
      <line x1="0.275945" y1="-0.043873" x2="0.275945" y2="-0.033873" />
      <line x1="0.263331" y1="-0.043867" x2="0.263331" y2="-0.033867" />
      <line x1="0.26378" y1="-0.043866" x2="0.26378" y2="-0.033866" />
      <line x1="0.263331" y1="-0.043879" x2="0.263331" y2="-0.033879" />
      <line x1="0.26378" y1="-0.04388" x2="0.26378" y2="-0.03388" />
      <line x1="0.271521" y1="-0.04388" x2="0.271521" y2="-0.03388" />
      <line x1="0.27197" y1="-0.043879" x2="0.27197" y2="-0.033879" />
      <line x1="0.27197" y1="-0.043867" x2="0.27197" y2="-0.033867" />
      <line x1="0.271521" y1="-0.043866" x2="0.271521" y2="-0.033866" />
      <line x1="0.263951" y1="0.001735" x2="0.263951" y2="0.011735" />
      <line x1="0.261451" y1="0.001735" x2="0.261451" y2="0.011735" />
      <line x1="0.273851" y1="0.001735" x2="0.273851" y2="0.011735" />
      <line x1="0.271351" y1="0.001735" x2="0.271351" y2="0.011735" />
      <line x1="0.273451" y1="0.001727" x2="0.273451" y2="0.011727" />
      <line x1="0.273851" y1="0.001719" x2="0.273851" y2="0.011719" />
      <line x1="0.271351" y1="0.001719" x2="0.271351" y2="0.011719" />
      <line x1="0.263951" y1="0.001719" x2="0.263951" y2="0.011719" />
      <line x1="0.261451" y1="0.001719" x2="0.261451" y2="0.011719" />
      <line x1="0.261851" y1="0.001727" x2="0.261851" y2="0.011727" />
      <line x1="0.263951" y1="-0.043865" x2="0.263951" y2="-0.033865" />
      <line x1="0.261451" y1="-0.043865" x2="0.261451" y2="-0.033865" />
      <line x1="0.261851" y1="-0.043873" x2="0.261851" y2="-0.033873" />
      <line x1="0.263951" y1="-0.043881" x2="0.263951" y2="-0.033881" />
      <line x1="0.261451" y1="-0.043881" x2="0.261451" y2="-0.033881" />
      <line x1="0.273851" y1="-0.043881" x2="0.273851" y2="-0.033881" />
      <line x1="0.271351" y1="-0.043881" x2="0.271351" y2="-0.033881" />
      <line x1="0.273451" y1="-0.043873" x2="0.273451" y2="-0.033873" />
      <line x1="0.273851" y1="-0.043865" x2="0.273851" y2="-0.033865" />
      <line x1="0.271351" y1="-0.043865" x2="0.271351" y2="-0.033865" />
    </g>
  </g>
  <text x="0.018703" y="-0.018075" text-anchor="middle" font-family="'Input Sans Narrow', 'DejaVu Sans', Arial, sans-serif" font-size="0.002500" font-weight="bold" fill="#333">A-A</text>
  <text x="0.018703" y="-0.014575" text-anchor="middle" font-family="'Input Sans Narrow', 'DejaVu Sans', Arial, sans-serif" font-size="0.001800" fill="#888">front_horn</text>
  <line x1="0.000000" y1="0.010800" x2="0.000000" y2="0.013800" stroke="#5C7080" stroke-width="0.000140" stroke-opacity="0.5"/>
  <line x1="0.037406" y1="0.010800" x2="0.037406" y2="0.013800" stroke="#5C7080" stroke-width="0.000140" stroke-opacity="0.5"/>
  <line x1="0.000000" y1="0.012200" x2="0.000000" y2="0.013800" stroke="#5C7080" stroke-width="0.000200"/>
  <line x1="0.037406" y1="0.012200" x2="0.037406" y2="0.013800" stroke="#5C7080" stroke-width="0.000200"/>
  <line x1="0.000000" y1="0.013000" x2="0.037406" y2="0.013000" stroke="#5C7080" stroke-width="0.000200"/>
  <polygon points="0.000000,0.013000 0.001500,0.012400 0.001500,0.013600" fill="#5C7080"/>
  <polygon points="0.037406,0.013000 0.035906,0.012400 0.035906,0.013600" fill="#5C7080"/>
  <text x="0.018703" y="0.011800" text-anchor="middle" font-family="'Input Sans Narrow', 'DejaVu Sans', Arial, sans-serif" font-size="0.001600" fill="#5C7080">37.4</text>
  <line x1="0.038206" y1="-0.010000" x2="0.041206" y2="-0.010000" stroke="#5C7080" stroke-width="0.000140" stroke-opacity="0.5"/>
  <line x1="0.038206" y1="0.010000" x2="0.041206" y2="0.010000" stroke="#5C7080" stroke-width="0.000140" stroke-opacity="0.5"/>
  <line x1="0.039606" y1="-0.010000" x2="0.041206" y2="-0.010000" stroke="#5C7080" stroke-width="0.000200"/>
  <line x1="0.039606" y1="0.010000" x2="0.041206" y2="0.010000" stroke="#5C7080" stroke-width="0.000200"/>
  <line x1="0.040406" y1="-0.010000" x2="0.040406" y2="0.010000" stroke="#5C7080" stroke-width="0.000200"/>
  <polygon points="0.040406,-0.010000 0.039806,-0.008500 0.041006,-0.008500" fill="#5C7080"/>
  <polygon points="0.040406,0.010000 0.039806,0.008500 0.041006,0.008500" fill="#5C7080"/>
  <text x="0.041906" y="0.000000" text-anchor="middle" dominant-baseline="central" font-family="'Input Sans Narrow', 'DejaVu Sans', Arial, sans-serif" font-size="0.001600" fill="#5C7080" transform="rotate(-90 0.041906 0.000000)">20.0</text>
  <text x="0.075709" y="-0.018075" text-anchor="middle" font-family="'Input Sans Narrow', 'DejaVu Sans', Arial, sans-serif" font-size="0.002500" font-weight="bold" fill="#333">B-B</text>
  <text x="0.075709" y="-0.014575" text-anchor="middle" font-family="'Input Sans Narrow', 'DejaVu Sans', Arial, sans-serif" font-size="0.001800" fill="#888">rear_horn</text>
  <line x1="0.045406" y1="0.013200" x2="0.045406" y2="0.016200" stroke="#5C7080" stroke-width="0.000140" stroke-opacity="0.5"/>
  <line x1="0.106012" y1="0.013200" x2="0.106012" y2="0.016200" stroke="#5C7080" stroke-width="0.000140" stroke-opacity="0.5"/>
  <line x1="0.045406" y1="0.014600" x2="0.045406" y2="0.016200" stroke="#5C7080" stroke-width="0.000200"/>
  <line x1="0.106012" y1="0.014600" x2="0.106012" y2="0.016200" stroke="#5C7080" stroke-width="0.000200"/>
  <line x1="0.045406" y1="0.015400" x2="0.106012" y2="0.015400" stroke="#5C7080" stroke-width="0.000200"/>
  <polygon points="0.045406,0.015400 0.046906,0.014800 0.046906,0.016000" fill="#5C7080"/>
  <polygon points="0.106012,0.015400 0.104512,0.014800 0.104512,0.016000" fill="#5C7080"/>
  <text x="0.075709" y="0.014200" text-anchor="middle" font-family="'Input Sans Narrow', 'DejaVu Sans', Arial, sans-serif" font-size="0.001600" fill="#5C7080">60.6</text>
  <line x1="0.106812" y1="-0.012400" x2="0.109812" y2="-0.012400" stroke="#5C7080" stroke-width="0.000140" stroke-opacity="0.5"/>
  <line x1="0.106812" y1="0.012400" x2="0.109812" y2="0.012400" stroke="#5C7080" stroke-width="0.000140" stroke-opacity="0.5"/>
  <line x1="0.108212" y1="-0.012400" x2="0.109812" y2="-0.012400" stroke="#5C7080" stroke-width="0.000200"/>
  <line x1="0.108212" y1="0.012400" x2="0.109812" y2="0.012400" stroke="#5C7080" stroke-width="0.000200"/>
  <line x1="0.109012" y1="-0.012400" x2="0.109012" y2="0.012400" stroke="#5C7080" stroke-width="0.000200"/>
  <polygon points="0.109012,-0.012400 0.108412,-0.010900 0.109612,-0.010900" fill="#5C7080"/>
  <polygon points="0.109012,0.012400 0.108412,0.010900 0.109612,0.010900" fill="#5C7080"/>
  <text x="0.110512" y="0.000000" text-anchor="middle" dominant-baseline="central" font-family="'Input Sans Narrow', 'DejaVu Sans', Arial, sans-serif" font-size="0.001600" fill="#5C7080" transform="rotate(-90 0.110512 0.000000)">24.8</text>
  <text x="0.145315" y="-0.018075" text-anchor="middle" font-family="'Input Sans Narrow', 'DejaVu Sans', Arial, sans-serif" font-size="0.002500" font-weight="bold" fill="#333">C-C</text>
  <text x="0.145315" y="-0.014575" text-anchor="middle" font-family="'Input Sans Narrow', 'DejaVu Sans', Arial, sans-serif" font-size="0.001800" fill="#888">mid_body</text>
  <line x1="0.114012" y1="0.013200" x2="0.114012" y2="0.016200" stroke="#5C7080" stroke-width="0.000140" stroke-opacity="0.5"/>
  <line x1="0.176619" y1="0.013200" x2="0.176619" y2="0.016200" stroke="#5C7080" stroke-width="0.000140" stroke-opacity="0.5"/>
  <line x1="0.114012" y1="0.014600" x2="0.114012" y2="0.016200" stroke="#5C7080" stroke-width="0.000200"/>
  <line x1="0.176619" y1="0.014600" x2="0.176619" y2="0.016200" stroke="#5C7080" stroke-width="0.000200"/>
  <line x1="0.114012" y1="0.015400" x2="0.176619" y2="0.015400" stroke="#5C7080" stroke-width="0.000200"/>
  <polygon points="0.114012,0.015400 0.115512,0.014800 0.115512,0.016000" fill="#5C7080"/>
  <polygon points="0.176619,0.015400 0.175119,0.014800 0.175119,0.016000" fill="#5C7080"/>
  <text x="0.145315" y="0.014200" text-anchor="middle" font-family="'Input Sans Narrow', 'DejaVu Sans', Arial, sans-serif" font-size="0.001600" fill="#5C7080">62.6</text>
  <line x1="0.177419" y1="-0.012400" x2="0.180419" y2="-0.012400" stroke="#5C7080" stroke-width="0.000140" stroke-opacity="0.5"/>
  <line x1="0.177419" y1="0.012400" x2="0.180419" y2="0.012400" stroke="#5C7080" stroke-width="0.000140" stroke-opacity="0.5"/>
  <line x1="0.178819" y1="-0.012400" x2="0.180419" y2="-0.012400" stroke="#5C7080" stroke-width="0.000200"/>
  <line x1="0.178819" y1="0.012400" x2="0.180419" y2="0.012400" stroke="#5C7080" stroke-width="0.000200"/>
  <line x1="0.179619" y1="-0.012400" x2="0.179619" y2="0.012400" stroke="#5C7080" stroke-width="0.000200"/>
  <polygon points="0.179619,-0.012400 0.179019,-0.010900 0.180219,-0.010900" fill="#5C7080"/>
  <polygon points="0.179619,0.012400 0.179019,0.010900 0.180219,0.010900" fill="#5C7080"/>
  <text x="0.181119" y="0.000000" text-anchor="middle" dominant-baseline="central" font-family="'Input Sans Narrow', 'DejaVu Sans', Arial, sans-serif" font-size="0.001600" fill="#5C7080" transform="rotate(-90 0.181119 0.000000)">24.8</text>
  <text x="0.215935" y="-0.018075" text-anchor="middle" font-family="'Input Sans Narrow', 'DejaVu Sans', Arial, sans-serif" font-size="0.002500" font-weight="bold" fill="#333">side_XZ</text>
  <line x1="0.184619" y1="0.044715" x2="0.184619" y2="0.047715" stroke="#5C7080" stroke-width="0.000140" stroke-opacity="0.5"/>
  <line x1="0.247251" y1="0.044715" x2="0.247251" y2="0.047715" stroke="#5C7080" stroke-width="0.000140" stroke-opacity="0.5"/>
  <line x1="0.184619" y1="0.046115" x2="0.184619" y2="0.047715" stroke="#5C7080" stroke-width="0.000200"/>
  <line x1="0.247251" y1="0.046115" x2="0.247251" y2="0.047715" stroke="#5C7080" stroke-width="0.000200"/>
  <line x1="0.184619" y1="0.046915" x2="0.247251" y2="0.046915" stroke="#5C7080" stroke-width="0.000200"/>
  <polygon points="0.184619,0.046915 0.186119,0.046315 0.186119,0.047515" fill="#5C7080"/>
  <polygon points="0.247251,0.046915 0.245751,0.046315 0.245751,0.047515" fill="#5C7080"/>
  <text x="0.215935" y="0.045715" text-anchor="middle" font-family="'Input Sans Narrow', 'DejaVu Sans', Arial, sans-serif" font-size="0.001600" fill="#5C7080">62.6</text>
  <line x1="0.248051" y1="-0.011715" x2="0.251051" y2="-0.011715" stroke="#5C7080" stroke-width="0.000140" stroke-opacity="0.5"/>
  <line x1="0.248051" y1="0.043915" x2="0.251051" y2="0.043915" stroke="#5C7080" stroke-width="0.000140" stroke-opacity="0.5"/>
  <line x1="0.249451" y1="-0.011715" x2="0.251051" y2="-0.011715" stroke="#5C7080" stroke-width="0.000200"/>
  <line x1="0.249451" y1="0.043915" x2="0.251051" y2="0.043915" stroke="#5C7080" stroke-width="0.000200"/>
  <line x1="0.250251" y1="-0.011715" x2="0.250251" y2="0.043915" stroke="#5C7080" stroke-width="0.000200"/>
  <polygon points="0.250251,-0.011715 0.249651,-0.010215 0.250851,-0.010215" fill="#5C7080"/>
  <polygon points="0.250251,0.043915 0.249651,0.042415 0.250851,0.042415" fill="#5C7080"/>
  <text x="0.251751" y="0.016100" text-anchor="middle" dominant-baseline="central" font-family="'Input Sans Narrow', 'DejaVu Sans', Arial, sans-serif" font-size="0.001600" fill="#5C7080" transform="rotate(-90 0.251751 0.016100)">55.6</text>
  <line x1="0.181619" y1="-0.001700" x2="0.250251" y2="-0.001700" stroke="#555" stroke-width="0.000250" stroke-dasharray="0.002500,0.000800,0.000500,0.000800"/>
  <text x="0.180119" y="-0.001100" text-anchor="end" font-family="'Input Sans Narrow', 'DejaVu Sans', Arial, sans-serif" font-size="0.002000" font-weight="bold" fill="#555">A</text>
  <text x="0.251751" y="-0.001100" text-anchor="start" font-family="'Input Sans Narrow', 'DejaVu Sans', Arial, sans-serif" font-size="0.002000" font-weight="bold" fill="#555">A</text>
  <line x1="0.181619" y1="0.033900" x2="0.250251" y2="0.033900" stroke="#555" stroke-width="0.000250" stroke-dasharray="0.002500,0.000800,0.000500,0.000800"/>
  <text x="0.180119" y="0.034500" text-anchor="end" font-family="'Input Sans Narrow', 'DejaVu Sans', Arial, sans-serif" font-size="0.002000" font-weight="bold" fill="#555">B</text>
  <text x="0.251751" y="0.034500" text-anchor="start" font-family="'Input Sans Narrow', 'DejaVu Sans', Arial, sans-serif" font-size="0.002000" font-weight="bold" fill="#555">B</text>
  <line x1="0.181619" y1="0.016100" x2="0.250251" y2="0.016100" stroke="#555" stroke-width="0.000250" stroke-dasharray="0.002500,0.000800,0.000500,0.000800"/>
  <text x="0.180119" y="0.016700" text-anchor="end" font-family="'Input Sans Narrow', 'DejaVu Sans', Arial, sans-serif" font-size="0.002000" font-weight="bold" fill="#555">C</text>
  <text x="0.251751" y="0.016700" text-anchor="start" font-family="'Input Sans Narrow', 'DejaVu Sans', Arial, sans-serif" font-size="0.002000" font-weight="bold" fill="#555">C</text>
  <text x="0.267651" y="-0.018075" text-anchor="middle" font-family="'Input Sans Narrow', 'DejaVu Sans', Arial, sans-serif" font-size="0.002500" font-weight="bold" fill="#333">side_YZ</text>
  <line x1="0.255251" y1="0.044717" x2="0.255251" y2="0.047717" stroke="#5C7080" stroke-width="0.000140" stroke-opacity="0.5"/>
  <line x1="0.280051" y1="0.044717" x2="0.280051" y2="0.047717" stroke="#5C7080" stroke-width="0.000140" stroke-opacity="0.5"/>
  <line x1="0.255251" y1="0.046117" x2="0.255251" y2="0.047717" stroke="#5C7080" stroke-width="0.000200"/>
  <line x1="0.280051" y1="0.046117" x2="0.280051" y2="0.047717" stroke="#5C7080" stroke-width="0.000200"/>
  <line x1="0.255251" y1="0.046917" x2="0.280051" y2="0.046917" stroke="#5C7080" stroke-width="0.000200"/>
  <polygon points="0.255251,0.046917 0.256751,0.046317 0.256751,0.047517" fill="#5C7080"/>
  <polygon points="0.280051,0.046917 0.278551,0.046317 0.278551,0.047517" fill="#5C7080"/>
  <text x="0.267651" y="0.045717" text-anchor="middle" font-family="'Input Sans Narrow', 'DejaVu Sans', Arial, sans-serif" font-size="0.001600" fill="#5C7080">24.8</text>
  <line x1="0.280851" y1="-0.011740" x2="0.283851" y2="-0.011740" stroke="#5C7080" stroke-width="0.000140" stroke-opacity="0.5"/>
  <line x1="0.280851" y1="0.043917" x2="0.283851" y2="0.043917" stroke="#5C7080" stroke-width="0.000140" stroke-opacity="0.5"/>
  <line x1="0.282251" y1="-0.011740" x2="0.283851" y2="-0.011740" stroke="#5C7080" stroke-width="0.000200"/>
  <line x1="0.282251" y1="0.043917" x2="0.283851" y2="0.043917" stroke="#5C7080" stroke-width="0.000200"/>
  <line x1="0.283051" y1="-0.011740" x2="0.283051" y2="0.043917" stroke="#5C7080" stroke-width="0.000200"/>
  <polygon points="0.283051,-0.011740 0.282451,-0.010240 0.283651,-0.010240" fill="#5C7080"/>
  <polygon points="0.283051,0.043917 0.282451,0.042417 0.283651,0.042417" fill="#5C7080"/>
  <text x="0.284551" y="0.016088" text-anchor="middle" dominant-baseline="central" font-family="'Input Sans Narrow', 'DejaVu Sans', Arial, sans-serif" font-size="0.001600" fill="#5C7080" transform="rotate(-90 0.284551 0.016088)">55.7</text>
  <line x1="0.252251" y1="-0.001700" x2="0.283051" y2="-0.001700" stroke="#555" stroke-width="0.000250" stroke-dasharray="0.002500,0.000800,0.000500,0.000800"/>
  <text x="0.250751" y="-0.001100" text-anchor="end" font-family="'Input Sans Narrow', 'DejaVu Sans', Arial, sans-serif" font-size="0.002000" font-weight="bold" fill="#555">A</text>
  <text x="0.284551" y="-0.001100" text-anchor="start" font-family="'Input Sans Narrow', 'DejaVu Sans', Arial, sans-serif" font-size="0.002000" font-weight="bold" fill="#555">A</text>
  <line x1="0.252251" y1="0.033900" x2="0.283051" y2="0.033900" stroke="#555" stroke-width="0.000250" stroke-dasharray="0.002500,0.000800,0.000500,0.000800"/>
  <text x="0.250751" y="0.034500" text-anchor="end" font-family="'Input Sans Narrow', 'DejaVu Sans', Arial, sans-serif" font-size="0.002000" font-weight="bold" fill="#555">B</text>
  <text x="0.284551" y="0.034500" text-anchor="start" font-family="'Input Sans Narrow', 'DejaVu Sans', Arial, sans-serif" font-size="0.002000" font-weight="bold" fill="#555">B</text>
  <line x1="0.252251" y1="0.016100" x2="0.283051" y2="0.016100" stroke="#555" stroke-width="0.000250" stroke-dasharray="0.002500,0.000800,0.000500,0.000800"/>
  <text x="0.250751" y="0.016700" text-anchor="end" font-family="'Input Sans Narrow', 'DejaVu Sans', Arial, sans-serif" font-size="0.002000" font-weight="bold" fill="#555">C</text>
  <text x="0.284551" y="0.016700" text-anchor="start" font-family="'Input Sans Narrow', 'DejaVu Sans', Arial, sans-serif" font-size="0.002000" font-weight="bold" fill="#555">C</text>
  <text x="-0.001175" y="0.052092" font-family="'Input Sans Narrow', 'DejaVu Sans', Arial, sans-serif" font-size="0.003500" font-weight="bold" fill="#222">coupler</text>
  <line x1="-0.001175" y1="0.056092" x2="0.008825" y2="0.056092" stroke="#333" stroke-width="0.000350"/>
  <line x1="-0.001175" y1="0.055092" x2="-0.001175" y2="0.057092" stroke="#333" stroke-width="0.000250"/>
  <line x1="0.008825" y1="0.055092" x2="0.008825" y2="0.057092" stroke="#333" stroke-width="0.000250"/>
  <text x="0.010325" y="0.056792" font-family="'Input Sans Narrow', 'DejaVu Sans', Arial, sans-serif" font-size="0.001800" fill="#888">10 mm</text>
  <rect x="0.028825" y="0.049592" width="0.004000" height="0.002500" fill="url(#hatch_servo)" stroke="rgb(60,60,60)" stroke-width="0.000300"/>
  <text x="0.034325" y="0.051592" font-family="'Input Sans Narrow', 'DejaVu Sans', Arial, sans-serif" font-size="0.001800" fill="rgb(60,60,60)">servo</text>
  <rect x="0.028825" y="0.053092" width="0.004000" height="0.002500" fill="url(#hatch_coupler)" stroke="rgb(220,60,40)" stroke-width="0.000300"/>
  <text x="0.034325" y="0.055092" font-family="'Input Sans Narrow', 'DejaVu Sans', Arial, sans-serif" font-size="0.001800" fill="rgb(220,60,40)">coupler</text>
</svg>