<?xml version='1.0' encoding='utf-8'?>
<svg width="265.78mm" height="83.17mm" viewBox="-0.003175 -0.024840 0.265775 0.083167" version="1.1" xmlns="http://www.w3.org/2000/svg">
  <defs>
    <pattern id="hatch_servo" width="0.0012" height="0.0012" patternUnits="userSpaceOnUse" patternTransform="rotate(45)">
      <line x1="0" y1="0" x2="0" y2="0.0012" stroke="rgb(60,60,60)" stroke-width="0.0001" stroke-opacity="0.6"/>
    </pattern>
    <pattern id="hatch_cradle" width="0.0012" height="0.0012" patternUnits="userSpaceOnUse" patternTransform="rotate(75)">
      <line x1="0" y1="0" x2="0" y2="0.0012" stroke="rgb(50,120,190)" stroke-width="0.0001" stroke-opacity="0.6"/>
    </pattern>
  </defs>
  <g transform="scale(1,-1)" stroke-linecap="round">
    <g fill="none" stroke="rgb(60,60,60)" stroke-width="0.00035" id="servo">
      <path d="M 0.004,0.0124 A 0.004,0.004 180.0 0,1 0.0,0.0084" />
      <line x1="0.004" y1="0.0124" x2="0.0414" y2="0.0124" />
      <path d="M 0.0454,0.0084 A 0.004,0.004 0.0 0,1 0.0414,0.0124" />
      <line x1="0.0454" y1="0.0084" x2="0.0454" y2="-0.0084" />
      <path d="M 0.0414,-0.0124 A 0.004,0.004 0.0 0,1 0.0454,-0.0084" />
      <line x1="0.004" y1="-0.0124" x2="0.0414" y2="-0.0124" />
      <path d="M 0.0,-0.0084 A 0.004,0.004 180.0 0,1 0.004,-0.0124" />
      <line x1="0.0" y1="0.0084" x2="0.0" y2="-0.0084" />
      <path d="M 0.060615,0.0124 A 0.004,0.004 180.0 0,1 0.056615,0.0084" />
      <line x1="0.060615" y1="0.0124" x2="0.098015" y2="0.0124" />
      <path d="M 0.102015,0.0084 A 0.004,0.004 0.0 0,1 0.098015,0.0124" />
      <line x1="0.102015" y1="0.0084" x2="0.102015" y2="-0.0084" />
      <path d="M 0.098015,-0.0124 A 0.004,0.004 0.0 0,1 0.102015,-0.0084" />
      <line x1="0.060615" y1="-0.0124" x2="0.098015" y2="-0.0124" />
      <path d="M 0.056615,-0.0084 A 0.004,0.004 180.0 0,1 0.060615,-0.0124" />
      <line x1="0.056615" y1="0.0084" x2="0.056615" y2="-0.0084" />
      <circle cx="0.062315" cy="-0.01025" r="0.0016" />
      <circle cx="0.079315" cy="-0.01025" r="0.0016" />
      <circle cx="0.096315" cy="-0.01025" r="0.0016" />
      <circle cx="0.062315" cy="0.01025" r="0.0016" />
      <circle cx="0.079315" cy="0.01025" r="0.0016" />
      <circle cx="0.096315" cy="0.01025" r="0.0016" />
      <path d="M 0.114015,0.0124 A 0.004,0.004 180.0 0,1 0.110015,0.0084" />
      <line x1="0.114015" y1="0.0124" x2="0.151415" y2="0.0124" />
      <path d="M 0.155415,0.0084 A 0.004,0.004 0.0 0,1 0.151415,0.0124" />
      <line x1="0.155415" y1="0.0084" x2="0.155415" y2="-0.0084" />
      <path d="M 0.151415,-0.0124 A 0.004,0.004 0.0 0,1 0.155415,-0.0084" />
      <line x1="0.114015" y1="-0.0124" x2="0.151415" y2="-0.0124" />
      <path d="M 0.110015,-0.0084 A 0.004,0.004 180.0 0,1 0.114015,-0.0124" />
      <line x1="0.110015" y1="0.0084" x2="0.110015" y2="-0.0084" />
      <path d="M 0.166675,-0.032313 A 0.004,6.331390824028431e-06 1.7086817160884977e-20 0,1 0.168671,-0.032319" />
      <path d="M 0.212075,-0.032313 A 0.004,6.331390824028431e-06 -180.0 0,0 0.20907,-0.032319" />
      <line x1="0.212075" y1="-0.032313" x2="0.212095" y2="-0.032287" />
      <line x1="0.166675" y1="0.000287" x2="0.166696" y2="0.000313" />
      <line x1="0.166675" y1="-0.032313" x2="0.166675" y2="0.000287" />
      <path d="M 0.168671,-0.032319 A 0.004,6.331390824028431e-06 1.7086817160884977e-20 0,1 0.17067,-0.03232" />
      <line x1="0.17067" y1="-0.03232" x2="0.17067" y2="0.00028" />
      <path d="M 0.166675,0.000287 A 0.004,6.331390824028431e-06 1.7086817160884977e-20 0,1 0.17067,0.00028" />
      <path d="M 0.166696,0.000313 A 0.004,6.331390824028431e-06 -180.0 0,0 0.1707,0.00032" />
      <line x1="0.16867" y1="-0.03442" x2="0.16867" y2="-0.03232" />
      <line x1="0.16867" y1="-0.03232" x2="0.168671" y2="-0.032319" />
      <line x1="0.209075" y1="-0.034413" x2="0.209075" y2="-0.032319" />
      <line x1="0.209075" y1="-0.034387" x2="0.209095" y2="-0.034387" />
      <line x1="0.209095" y1="-0.034387" x2="0.209095" y2="-0.032319" />
      <line x1="0.20907" y1="-0.03442" x2="0.20907" y2="-0.03232" />
      <line x1="0.20907" y1="-0.03442" x2="0.209075" y2="-0.034413" />
      <line x1="0.2091" y1="-0.03438" x2="0.2091" y2="-0.032319" />
      <line x1="0.209095" y1="-0.034387" x2="0.2091" y2="-0.03438" />
      <line x1="0.212075" y1="-0.032313" x2="0.212075" y2="0.000287" />
      <path d="M 0.20907,-0.032319 A 0.004,6.331390824028431e-06 -180.0 0,0 0.20807,-0.03232" />
      <line x1="0.20807" y1="-0.03232" x2="0.20807" y2="0.00028" />
      <path d="M 0.212075,0.000287 A 0.004,6.331390824028431e-06 -180.0 0,0 0.20807,0.00028" />
      <line x1="0.212095" y1="0.000313" x2="0.212095" y2="-0.032287" />
      <path d="M 0.2091,-0.032281 A 0.004,6.331390824028431e-06 1.7086817160884977e-20 0,1 0.2081,-0.03228" />
      <path d="M 0.212095,0.000313 A 0.004,6.331390824028431e-06 1.7086817160884977e-20 0,1 0.211895,0.000315" />
      <line x1="0.212075" y1="0.000287" x2="0.212095" y2="0.000313" />
      <line x1="0.17067" y1="0.00028" x2="0.20807" y2="0.00028" />
      <line x1="0.1707" y1="0.00032" x2="0.191875" y2="0.00032" />
      <path d="M 0.191875,0.000287 A 0.002,3.1656954120142157e-06 1.7086817160884977e-20 0,1 0.193873,0.000284" />
      <line x1="0.193873" y1="0.000284" x2="0.209873" y2="0.000284" />
      <path d="M 0.211875,0.000287 A 0.002,3.1656954120142157e-06 -180.0 0,0 0.209873,0.000284" />
      <line x1="0.211875" y1="0.000287" x2="0.211895" y2="0.000313" />
      <line x1="0.16867" y1="-0.03232" x2="0.17067" y2="-0.03232" />
      <line x1="0.20807" y1="-0.03232" x2="0.20907" y2="-0.03232" />
      <line x1="0.16867" y1="-0.03442" x2="0.20907" y2="-0.03442" />
      <path d="M 0.191875,0.001987 A 0.002,3.1656954120142157e-06 1.7086817160884977e-20 0,1 0.193873,0.001984" />
      <line x1="0.193873" y1="0.001984" x2="0.209873" y2="0.001984" />
      <path d="M 0.211875,0.001987 A 0.002,3.1656954120142157e-06 -180.0 0,0 0.209873,0.001984" />
      <line x1="0.211875" y1="0.001987" x2="0.211895" y2="0.002013" />
      <path d="M 0.211895,0.002013 A 0.002,3.1656954120142157e-06 1.7086817160884977e-20 0,1 0.209897,0.002016" />
      <line x1="0.193897" y1="0.002016" x2="0.197385" y2="0.002016" />
      <line x1="0.206385" y1="0.002016" x2="0.209897" y2="0.002016" />
      <path d="M 0.191895,0.002013 A 0.002,3.1656954120142157e-06 -180.0 0,0 0.193897,0.002016" />
      <line x1="0.191875" y1="0.001987" x2="0.191895" y2="0.002013" />
      <path d="M 0.197385,0.002 A 0.004500000000000004,7.122814677031991e-06 1.575652030466048e-20 0,1 0.206385,0.002" />
      <path d="M 0.206385,0.0035 A 0.004500000000000004,7.122814677031991e-06 1.575652030466048e-20 0,1 0.197385,0.0035" />
      <path d="M 0.197385,0.0035 A 0.004500000000000004,7.122814677031991e-06 1.575652030466048e-20 0,1 0.206385,0.0035" />
      <line x1="0.191875" y1="0.000287" x2="0.191875" y2="0.001987" />
      <line x1="0.193873" y1="0.000284" x2="0.193873" y2="0.001984" />
      <line x1="0.209873" y1="0.000284" x2="0.209873" y2="0.001984" />
      <line x1="0.211875" y1="0.000287" x2="0.211875" y2="0.001987" />
      <line x1="0.211895" y1="0.000313" x2="0.211895" y2="0.002013" />
      <line x1="0.166675" y1="-0.032313" x2="0.166675" y2="0.000287" />
      <line x1="0.212095" y1="-0.032287" x2="0.212095" y2="0.000313" />
      <line x1="0.191875" y1="0.000287" x2="0.191875" y2="0.001987" />
      <line x1="0.211895" y1="0.000313" x2="0.211895" y2="0.002013" />
      <line x1="0.206385" y1="0.002" x2="0.206385" y2="0.0035" />
      <line x1="0.197385" y1="0.002" x2="0.197385" y2="0.0035" />
      <line x1="0.22871" y1="-0.034092" x2="0.24281" y2="-0.034092" />
      <line x1="0.22871" y1="-0.032335" x2="0.22871" y2="-0.034092" />
      <line x1="0.24281" y1="-0.032335" x2="0.24281" y2="-0.034092" />
      <path d="M 0.22736,-0.032335 A 0.004,6.323648049565119e-06 180.0 0,0 0.223487,-0.032331" />
      <line x1="0.22736" y1="-0.032335" x2="0.24416" y2="-0.032335" />
      <path d="M 0.24416,-0.032335 A 0.004,6.323648049565119e-06 -5.108351376014021e-38 0,1 0.248033,-0.032331" />
      <path d="M 0.22576,0.000336 A 0.004,6.323648049565119e-06 -5.108351376014021e-38 0,1 0.22336,0.00033" />
      <path d="M 0.24576,0.000336 A 0.004,6.323648049565119e-06 180.0 0,0 0.24816,0.00033" />
      <line x1="0.22736" y1="-0.034431" x2="0.22736" y2="-0.032335" />
      <line x1="0.24416" y1="-0.034431" x2="0.24416" y2="-0.032335" />
      <line x1="0.22336" y1="-0.034431" x2="0.22336" y2="-0.032331" />
      <line x1="0.22336" y1="-0.032331" x2="0.223487" y2="-0.032331" />
      <line x1="0.22336" y1="-0.034431" x2="0.22736" y2="-0.034431" />
      <line x1="0.248033" y1="-0.032331" x2="0.24816" y2="-0.032331" />
      <line x1="0.24816" y1="-0.034431" x2="0.24816" y2="-0.032331" />
      <line x1="0.24416" y1="-0.034431" x2="0.24816" y2="-0.034431" />
      <line x1="0.22736" y1="-0.032335" x2="0.22736" y2="0.000264" />
      <path d="M 0.223487,-0.032331 A 0.004,6.323648049565119e-06 180.0 0,0 0.22336,-0.032329" />
      <line x1="0.22336" y1="-0.032329" x2="0.22336" y2="0.000271" />
      <path d="M 0.22736,0.000264 A 0.004,6.323648049565119e-06 180.0 0,0 0.22336,0.000271" />
      <line x1="0.24416" y1="0.000264" x2="0.24416" y2="-0.032335" />
      <path d="M 0.248033,-0.032331 A 0.004,6.323648049565119e-06 -5.108351376014021e-38 0,1 0.24816,-0.032329" />
      <line x1="0.24816" y1="0.000271" x2="0.24816" y2="-0.032329" />
      <path d="M 0.24416,0.000264 A 0.004,6.323648049565119e-06 -5.108351376014021e-38 0,1 0.24816,0.000271" />
      <line x1="0.22736" y1="0.000264" x2="0.24416" y2="0.000264" />
      <path d="M 0.23576,-0.033624 A 0.003,4.742736037173839e-06 -6.915920008524899e-38 0,1 0.23876,-0.033619" />
      <path d="M 0.23276,-0.033619 A 0.003,4.742736037173839e-06 -6.915920008524899e-38 0,1 0.23576,-0.033624" />
      <line x1="0.22336" y1="0.00033" x2="0.22336" y2="0.000271" />
      <line x1="0.24816" y1="0.00033" x2="0.24816" y2="0.000271" />
      <path d="M 0.22776,0.000265 A 0.002,3.1618240247825596e-06 180.0 0,0 0.22576,0.000268" />
      <line x1="0.22776" y1="0.000265" x2="0.24376" y2="0.000265" />
      <path d="M 0.24376,0.000265 A 0.002,3.1618240247825596e-06 -5.108351376014021e-38 0,1 0.24576,0.000268" />
      <line x1="0.22336" y1="-0.032329" x2="0.22336" y2="-0.032331" />
      <line x1="0.24816" y1="-0.032329" x2="0.24816" y2="-0.032331" />
      <path d="M 0.22776,0.001996 A 0.002,3.1618240247825596e-06 -5.108351376014021e-38 0,1 0.22576,0.001993" />
      <line x1="0.22576" y1="0.000268" x2="0.22576" y2="0.001968" />
      <line x1="0.22576" y1="0.001993" x2="0.22576" y2="0.001968" />
      <path d="M 0.22776,0.001965 A 0.002,3.1618240247825596e-06 180.0 0,0 0.22576,0.001968" />
      <line x1="0.22776" y1="0.001965" x2="0.24376" y2="0.001965" />
      <line x1="0.24576" y1="0.000268" x2="0.24576" y2="0.001968" />
      <path d="M 0.24376,0.001965 A 0.002,3.1618240247825596e-06 -5.108351376014021e-38 0,1 0.24576,0.001968" />
      <line x1="0.24576" y1="0.001993" x2="0.24576" y2="0.001968" />
      <path d="M 0.24376,0.001996 A 0.002,3.1618240247825596e-06 180.0 0,0 0.24576,0.001993" />
      <line x1="0.22776" y1="0.001996" x2="0.23126" y2="0.001996" />
      <line x1="0.24026" y1="0.001996" x2="0.24376" y2="0.001996" />
      <path d="M 0.23576,0.001973 A 0.0045,7.114104055760758e-06 -6.915920008524899e-38 0,1 0.24026,0.001981" />
      <path d="M 0.23126,0.001981 A 0.0045,7.114104055760758e-06 -6.915920008524899e-38 0,1 0.23576,0.001973" />
      <path d="M 0.23576,0.003473 A 0.0045,7.114104055760758e-06 -6.915920008524899e-38 0,1 0.24026,0.003481" />
      <path d="M 0.24026,0.003481 A 0.004500000000000004,7.114104055760764e-06 -6.915920008524899e-38 0,1 0.23126,0.003481" />
      <path d="M 0.23126,0.003481 A 0.0045,7.114104055760758e-06 -6.915920008524899e-38 0,1 0.23576,0.003473" />
      <line x1="0.22776" y1="0.000265" x2="0.22776" y2="0.001965" />
      <line x1="0.24376" y1="0.000265" x2="0.24376" y2="0.001965" />
      <line x1="0.23876" y1="-0.033619" x2="0.23876" y2="-0.032335" />
      <line x1="0.23276" y1="-0.033619" x2="0.23276" y2="-0.032335" />
      <line x1="0.24026" y1="0.001981" x2="0.24026" y2="0.003481" />
      <line x1="0.23126" y1="0.001981" x2="0.23126" y2="0.003481" />
    </g>
    <g fill="url(#hatch_servo)" stroke="none" stroke-width="0" id="servo_fill">
      <path d="M 0.004,0.0124 A 0.004,0.004 180.0 0,1 0.0,0.0084 L 0.0,-0.0084 A 0.004,0.004 180.0 0,1 0.004,-0.0124 L 0.0414,-0.0124 A 0.004,0.004 0.0 0,1 0.0454,-0.0084 L 0.0454,0.0084 A 0.004,0.004 0.0 0,1 0.0414,0.0124 L 0.004,0.0124" />
      <path d="M 0.060615,0.0124 A 0.004,0.004 180.0 0,1 0.056615,0.0084 L 0.056615,-0.0084 A 0.004,0.004 180.0 0,1 0.060615,-0.0124 L 0.098015,-0.0124 A 0.004,0.004 0.0 0,1 0.102015,-0.0084 L 0.102015,0.0084 A 0.004,0.004 0.0 0,1 0.098015,0.0124 L 0.060615,0.0124 M 0.063915,-0.01025 A 0.0016000000000000007,0.0016000000000000007 0.0 0,0 0.060715,-0.01025 A 0.0016000000000000007,0.0016000000000000007 0.0 0,0 0.063915,-0.01025 M 0.080915,-0.01025 A 0.0016,0.0016 0.0 0,0 0.077715,-0.01025 A 0.0016,0.0016 0.0 0,0 0.080915,-0.01025 M 0.097915,-0.01025 A 0.0016000000000000044,0.0016000000000000044 0.0 0,0 0.094715,-0.01025 A 0.0016000000000000044,0.0016000000000000044 0.0 0,0 0.097915,-0.01025 M 0.063915,0.01025 A 0.0016000000000000007,0.0016000000000000007 0.0 0,0 0.060715,0.01025 A 0.0016000000000000007,0.0016000000000000007 0.0 0,0 0.063915,0.01025 M 0.080915,0.01025 A 0.0016,0.0016 0.0 0,0 0.077715,0.01025 A 0.0016,0.0016 0.0 0,0 0.080915,0.01025 M 0.097915,0.01025 A 0.0016000000000000044,0.0016000000000000044 0.0 0,0 0.094715,0.01025 A 0.0016000000000000044,0.0016000000000000044 0.0 0,0 0.097915,0.01025" />
      <path d="M 0.114015,0.0124 A 0.004,0.004 180.0 0,1 0.110015,0.0084 L 0.110015,-0.0084 A 0.004,0.004 180.0 0,1 0.114015,-0.0124 L 0.151415,-0.0124 A 0.004,0.004 0.0 0,1 0.155415,-0.0084 L 0.155415,0.0084 A 0.004,0.004 0.0 0,1 0.151415,0.0124 L 0.114015,0.0124" />
    </g>
    <g fill="none" stroke="rgb(60,60,60)" stroke-opacity="0.4" stroke-width="0.00015" id="servo_hidden" stroke-dasharray="0.0018 0.00045">
      <line x1="0.184427" y1="-0.034111" x2="0.184444" y2="-0.034089" />
      <line x1="0.184427" y1="-0.032311" x2="0.184427" y2="-0.034111" />
      <line x1="0.184444" y1="-0.032289" x2="0.184427" y2="-0.032311" />
      <line x1="0.184444" y1="-0.032289" x2="0.184444" y2="-0.034089" />
      <line x1="0.183737" y1="-0.034098" x2="0.183734" y2="-0.034102" />
      <line x1="0.183737" y1="-0.034098" x2="0.179037" y2="-0.034098" />
      <line x1="0.179037" y1="-0.034098" x2="0.179034" y2="-0.034102" />
      <line x1="0.183734" y1="-0.034102" x2="0.179034" y2="-0.034102" />
      <line x1="0.184427" y1="-0.034111" x2="0.178327" y2="-0.034111" />
      <line x1="0.178327" y1="-0.034111" x2="0.178344" y2="-0.034089" />
      <line x1="0.184444" y1="-0.034089" x2="0.178344" y2="-0.034089" />
      <line x1="0.179043" y1="-0.03409" x2="0.179038" y2="-0.034097" />
      <line x1="0.183738" y1="-0.034097" x2="0.179038" y2="-0.034097" />
      <line x1="0.183743" y1="-0.03409" x2="0.183738" y2="-0.034097" />
      <line x1="0.183743" y1="-0.03409" x2="0.179043" y2="-0.03409" />
      <line x1="0.183733" y1="-0.034103" x2="0.179033" y2="-0.034103" />
      <line x1="0.179033" y1="-0.034103" x2="0.179027" y2="-0.03411" />
      <line x1="0.183727" y1="-0.03411" x2="0.179027" y2="-0.03411" />
      <line x1="0.183733" y1="-0.034103" x2="0.183727" y2="-0.03411" />
      <line x1="0.166675" y1="-0.032313" x2="0.166696" y2="-0.032287" />
      <line x1="0.168671" y1="-0.032319" x2="0.168675" y2="-0.032313" />
      <line x1="0.168675" y1="-0.032313" x2="0.209075" y2="-0.032313" />
      <line x1="0.20907" y1="-0.032319" x2="0.209075" y2="-0.032313" />
      <path d="M 0.212095,-0.032287 A 0.004,6.331390824028431e-06 1.7086817160884977e-20 0,1 0.2091,-0.032281" />
      <line x1="0.209095" y1="-0.032287" x2="0.2091" y2="-0.032281" />
      <line x1="0.168696" y1="-0.032287" x2="0.209095" y2="-0.032287" />
      <line x1="0.168696" y1="-0.032287" x2="0.1687" y2="-0.032281" />
      <path d="M 0.166696,-0.032287 A 0.004,6.331390824028431e-06 -180.0 0,0 0.1687,-0.032281" />
      <path d="M 0.204885,-0.0323 A 0.0030000000000000027,4.748543118021328e-06 1.575652030466048e-20 0,1 0.198885,-0.0323" />
      <path d="M 0.198885,-0.0323 A 0.0030000000000000027,4.748543118021328e-06 1.575652030466048e-20 0,1 0.204885,-0.0323" />
      <line x1="0.178327" y1="-0.032311" x2="0.184427" y2="-0.032311" />
      <line x1="0.178344" y1="-0.032289" x2="0.178327" y2="-0.032311" />
      <line x1="0.178344" y1="-0.032289" x2="0.184444" y2="-0.032289" />
      <line x1="0.178327" y1="-0.032311" x2="0.178327" y2="-0.034111" />
      <line x1="0.183734" y1="-0.032302" x2="0.183734" y2="-0.034102" />
      <line x1="0.183737" y1="-0.032298" x2="0.183737" y2="-0.034098" />
      <line x1="0.183737" y1="-0.032298" x2="0.183734" y2="-0.032302" />
      <line x1="0.178344" y1="-0.032289" x2="0.178344" y2="-0.034089" />
      <line x1="0.166696" y1="0.000313" x2="0.166696" y2="-0.032287" />
      <path d="M 0.1687,-0.032281 A 0.004,6.331390824028431e-06 -180.0 0,0 0.1707,-0.03228" />
      <line x1="0.1707" y1="0.00032" x2="0.1707" y2="-0.03228" />
      <line x1="0.168675" y1="-0.034413" x2="0.168675" y2="-0.032313" />
      <line x1="0.16867" y1="-0.03442" x2="0.168675" y2="-0.034413" />
      <line x1="0.168696" y1="-0.034387" x2="0.168696" y2="-0.032287" />
      <line x1="0.1687" y1="-0.032281" x2="0.1687" y2="-0.03228" />
      <line x1="0.1687" y1="-0.03438" x2="0.1687" y2="-0.03228" />
      <line x1="0.168696" y1="-0.034387" x2="0.1687" y2="-0.03438" />
      <line x1="0.168675" y1="-0.034413" x2="0.209075" y2="-0.034413" />
      <line x1="0.209075" y1="-0.032319" x2="0.209075" y2="-0.032313" />
      <line x1="0.168696" y1="-0.034387" x2="0.209075" y2="-0.034387" />
      <line x1="0.209095" y1="-0.032319" x2="0.209095" y2="-0.032287" />
      <line x1="0.2091" y1="-0.032319" x2="0.2091" y2="-0.03228" />
      <line x1="0.2081" y1="0.00032" x2="0.2081" y2="-0.03228" />
      <path d="M 0.211895,0.000315 A 0.004,6.331390824028431e-06 1.7086817160884977e-20 0,1 0.2081,0.00032" />
      <path d="M 0.204885,-0.0336 A 0.0030000000000000027,4.748543118021328e-06 1.575652030466048e-20 0,1 0.198885,-0.0336" />
      <path d="M 0.198885,-0.0336 A 0.0030000000000000027,4.748543118021328e-06 1.575652030466048e-20 0,1 0.204885,-0.0336" />
      <line x1="0.183727" y1="-0.03231" x2="0.183727" y2="-0.03411" />
      <line x1="0.183733" y1="-0.034103" x2="0.183733" y2="-0.032303" />
      <line x1="0.183733" y1="-0.032303" x2="0.183727" y2="-0.03231" />
      <line x1="0.179027" y1="-0.03231" x2="0.179027" y2="-0.03411" />
      <line x1="0.179027" y1="-0.03231" x2="0.183727" y2="-0.03231" />
      <line x1="0.179033" y1="-0.034103" x2="0.179033" y2="-0.032303" />
      <line x1="0.179033" y1="-0.032303" x2="0.179027" y2="-0.03231" />
      <line x1="0.179043" y1="-0.03229" x2="0.179038" y2="-0.032297" />
      <line x1="0.179038" y1="-0.032297" x2="0.179038" y2="-0.034097" />
      <line x1="0.179043" y1="-0.03229" x2="0.179043" y2="-0.03409" />
      <line x1="0.183743" y1="-0.03229" x2="0.183743" y2="-0.03409" />
      <line x1="0.179043" y1="-0.03229" x2="0.183743" y2="-0.03229" />
      <line x1="0.183743" y1="-0.03229" x2="0.183738" y2="-0.032297" />
      <line x1="0.183738" y1="-0.032297" x2="0.183738" y2="-0.034097" />
      <line x1="0.179038" y1="-0.032297" x2="0.183738" y2="-0.032297" />
      <line x1="0.179037" y1="-0.032298" x2="0.179037" y2="-0.034098" />
      <line x1="0.179037" y1="-0.032298" x2="0.183737" y2="-0.032298" />
      <line x1="0.179034" y1="-0.032302" x2="0.179034" y2="-0.034102" />
      <line x1="0.179034" y1="-0.032302" x2="0.183734" y2="-0.032302" />
      <line x1="0.179037" y1="-0.032298" x2="0.179034" y2="-0.032302" />
      <line x1="0.179033" y1="-0.032303" x2="0.183733" y2="-0.032303" />
      <line x1="0.191875" y1="0.00032" x2="0.2081" y2="0.00032" />
      <path d="M 0.211895,0.000313 A 0.002,3.1656954120142157e-06 1.7086817160884977e-20 0,1 0.209897,0.000316" />
      <line x1="0.193897" y1="0.000316" x2="0.209897" y2="0.000316" />
      <path d="M 0.191895,0.000313 A 0.002,3.1656954120142157e-06 -180.0 0,0 0.193897,0.000316" />
      <line x1="0.191875" y1="0.000287" x2="0.191895" y2="0.000313" />
      <line x1="0.1687" y1="-0.03228" x2="0.1707" y2="-0.03228" />
      <line x1="0.2081" y1="-0.03228" x2="0.2091" y2="-0.03228" />
      <line x1="0.1687" y1="-0.03438" x2="0.2091" y2="-0.03438" />
      <path d="M 0.173973,-0.034416 A 0.0016,2.5325563296113727e-06 1.575652030466048e-20 0,1 0.170773,-0.034416" />
      <path d="M 0.170773,-0.034416 A 0.0016,2.5325563296113727e-06 1.575652030466048e-20 0,1 0.173973,-0.034416" />
      <path d="M 0.190973,-0.034416 A 0.0016000000000000044,2.5325563296113795e-06 1.575652030466048e-20 0,1 0.187773,-0.034416" />
      <path d="M 0.187773,-0.034416 A 0.0016000000000000044,2.5325563296113795e-06 1.575652030466048e-20 0,1 0.190973,-0.034416" />
      <path d="M 0.207973,-0.034416 A 0.0016,2.5325563296113727e-06 1.575652030466048e-20 0,1 0.204773,-0.034416" />
      <path d="M 0.204773,-0.034416 A 0.0016,2.5325563296113727e-06 1.575652030466048e-20 0,1 0.207973,-0.034416" />
      <path d="M 0.173998,-0.034384 A 0.0016000000000000044,2.5325563296113795e-06 1.575652030466048e-20 0,1 0.170798,-0.034384" />
      <path d="M 0.170798,-0.034384 A 0.0016000000000000044,2.5325563296113795e-06 1.575652030466048e-20 0,1 0.173998,-0.034384" />
      <path d="M 0.190998,-0.034384 A 0.0016000000000000044,2.5325563296113795e-06 1.575652030466048e-20 0,1 0.187798,-0.034384" />
      <path d="M 0.187798,-0.034384 A 0.0016000000000000044,2.5325563296113795e-06 1.575652030466048e-20 0,1 0.190998,-0.034384" />
      <path d="M 0.207998,-0.034384 A 0.0016,2.5325563296113727e-06 1.575652030466048e-20 0,1 0.204798,-0.034384" />
      <path d="M 0.204798,-0.034384 A 0.0016,2.5325563296113727e-06 1.575652030466048e-20 0,1 0.207998,-0.034384" />
      <line x1="0.197385" y1="0.002016" x2="0.206385" y2="0.002016" />
      <path d="M 0.173973,-0.024416 A 0.0016,2.5325563296113727e-06 1.575652030466048e-20 0,1 0.170773,-0.024416" />
      <path d="M 0.170773,-0.024416 A 0.0016,2.5325563296113727e-06 1.575652030466048e-20 0,1 0.173973,-0.024416" />
      <path d="M 0.190973,-0.024416 A 0.0016000000000000044,2.5325563296113795e-06 1.575652030466048e-20 0,1 0.187773,-0.024416" />
      <path d="M 0.187773,-0.024416 A 0.0016000000000000044,2.5325563296113795e-06 1.575652030466048e-20 0,1 0.190973,-0.024416" />
      <path d="M 0.207973,-0.024416 A 0.0016,2.5325563296113727e-06 1.575652030466048e-20 0,1 0.204773,-0.024416" />
      <path d="M 0.204773,-0.024416 A 0.0016,2.5325563296113727e-06 1.575652030466048e-20 0,1 0.207973,-0.024416" />
      <path d="M 0.173998,-0.024384 A 0.0016000000000000044,2.5325563296113795e-06 1.575652030466048e-20 0,1 0.170798,-0.024384" />
      <path d="M 0.170798,-0.024384 A 0.0016000000000000044,2.5325563296113795e-06 1.575652030466048e-20 0,1 0.173998,-0.024384" />
      <path d="M 0.190998,-0.024384 A 0.0016000000000000044,2.5325563296113795e-06 1.575652030466048e-20 0,1 0.187798,-0.024384" />
      <path d="M 0.187798,-0.024384 A 0.0016000000000000044,2.5325563296113795e-06 1.575652030466048e-20 0,1 0.190998,-0.024384" />
      <path d="M 0.207998,-0.024384 A 0.0016,2.5325563296113727e-06 1.575652030466048e-20 0,1 0.204798,-0.024384" />
      <path d="M 0.204798,-0.024384 A 0.0016,2.5325563296113727e-06 1.575652030466048e-20 0,1 0.207998,-0.024384" />
      <path d="M 0.206385,0.002 A 0.004500000000000004,7.122814677031991e-06 1.575652030466048e-20 0,1 0.197385,0.002" />
      <line x1="0.204885" y1="-0.0336" x2="0.204885" y2="-0.0323" />
      <line x1="0.198885" y1="-0.0336" x2="0.198885" y2="-0.0323" />
      <line x1="0.173973" y1="-0.034416" x2="0.173973" y2="-0.024416" />
      <line x1="0.170773" y1="-0.034416" x2="0.170773" y2="-0.024416" />
      <line x1="0.190973" y1="-0.034416" x2="0.190973" y2="-0.024416" />
      <line x1="0.187773" y1="-0.034416" x2="0.187773" y2="-0.024416" />
      <line x1="0.207973" y1="-0.034416" x2="0.207973" y2="-0.024416" />
      <line x1="0.204773" y1="-0.034416" x2="0.204773" y2="-0.024416" />
      <line x1="0.173998" y1="-0.034384" x2="0.173998" y2="-0.024384" />
      <line x1="0.170798" y1="-0.034384" x2="0.170798" y2="-0.024384" />
      <line x1="0.190998" y1="-0.034384" x2="0.190998" y2="-0.024384" />
      <line x1="0.187798" y1="-0.034384" x2="0.187798" y2="-0.024384" />
      <line x1="0.207998" y1="-0.034384" x2="0.207998" y2="-0.024384" />
      <line x1="0.204798" y1="-0.034384" x2="0.204798" y2="-0.024384" />
      <line x1="0.209897" y1="0.000316" x2="0.209897" y2="0.002016" />
      <line x1="0.193897" y1="0.000316" x2="0.193897" y2="0.002016" />
      <line x1="0.191895" y1="0.000313" x2="0.191895" y2="0.002013" />
      <line x1="0.22871" y1="-0.032292" x2="0.22871" y2="-0.032335" />
      <line x1="0.24281" y1="-0.032292" x2="0.22871" y2="-0.032292" />
      <line x1="0.24281" y1="-0.032292" x2="0.24281" y2="-0.032335" />
      <line x1="0.23711" y1="-0.034091" x2="0.23441" y2="-0.034091" />
      <line x1="0.23711" y1="-0.034091" x2="0.23711" y2="-0.034083" />
      <line x1="0.23711" y1="-0.034083" x2="0.23441" y2="-0.034083" />
      <line x1="0.23441" y1="-0.034091" x2="0.23441" y2="-0.034083" />
      <line x1="0.22871" y1="-0.034092" x2="0.22871" y2="-0.034082" />
      <line x1="0.22871" y1="-0.034082" x2="0.24281" y2="-0.034082" />
      <line x1="0.24281" y1="-0.034092" x2="0.24281" y2="-0.034082" />
      <line x1="0.24211" y1="-0.034083" x2="0.23781" y2="-0.034083" />
      <line x1="0.23781" y1="-0.034091" x2="0.23781" y2="-0.034083" />
      <line x1="0.24211" y1="-0.034091" x2="0.23781" y2="-0.034091" />
      <line x1="0.24211" y1="-0.034091" x2="0.24211" y2="-0.034083" />
      <line x1="0.23371" y1="-0.034091" x2="0.23371" y2="-0.034083" />
      <line x1="0.23371" y1="-0.034083" x2="0.22941" y2="-0.034083" />
      <line x1="0.22941" y1="-0.034091" x2="0.22941" y2="-0.034083" />
      <line x1="0.23371" y1="-0.034091" x2="0.22941" y2="-0.034091" />
      <line x1="0.22736" y1="-0.032264" x2="0.24416" y2="-0.032264" />
      <path d="M 0.22736,-0.032264 A 0.004,6.323648049565119e-06 -5.108351376014021e-38 0,1 0.223896,-0.032267" />
      <line x1="0.223896" y1="-0.032267" x2="0.22736" y2="-0.032267" />
      <line x1="0.22736" y1="-0.032267" x2="0.22736" y2="-0.032331" />
      <line x1="0.223487" y1="-0.032331" x2="0.22736" y2="-0.032331" />
      <line x1="0.24416" y1="-0.032331" x2="0.248033" y2="-0.032331" />
      <line x1="0.24416" y1="-0.032267" x2="0.24416" y2="-0.032331" />
      <line x1="0.24416" y1="-0.032267" x2="0.247625" y2="-0.032267" />
      <path d="M 0.24416,-0.032264 A 0.004,6.323648049565119e-06 180.0 0,0 0.247625,-0.032267" />
      <path d="M 0.23576,-0.032324 A 0.003,4.742736037173839e-06 -6.915920008524899e-38 0,1 0.23876,-0.032319" />
      <path d="M 0.23876,-0.032319 A 0.0030000000000000027,4.742736037173843e-06 -6.915920008524899e-38 0,1 0.23276,-0.032319" />
      <path d="M 0.23276,-0.032319 A 0.003,4.742736037173839e-06 -6.915920008524899e-38 0,1 0.23576,-0.032324" />
      <line x1="0.22871" y1="-0.032282" x2="0.22871" y2="-0.032292" />
      <line x1="0.24281" y1="-0.032282" x2="0.22871" y2="-0.032282" />
      <line x1="0.24281" y1="-0.032282" x2="0.24281" y2="-0.032292" />
      <line x1="0.22871" y1="-0.032282" x2="0.22871" y2="-0.034082" />
      <line x1="0.23441" y1="-0.032291" x2="0.23441" y2="-0.034091" />
      <line x1="0.23711" y1="-0.032291" x2="0.23711" y2="-0.034091" />
      <line x1="0.23711" y1="-0.032291" x2="0.23441" y2="-0.032291" />
      <line x1="0.24281" y1="-0.032282" x2="0.24281" y2="-0.034082" />
      <line x1="0.22736" y1="0.000336" x2="0.24416" y2="0.000336" />
      <line x1="0.22736" y1="-0.032264" x2="0.22736" y2="0.000336" />
      <line x1="0.24416" y1="0.000336" x2="0.24416" y2="-0.032264" />
      <path d="M 0.223896,-0.032267 A 0.004,6.323648049565119e-06 -5.108351376014021e-38 0,1 0.22336,-0.03227" />
      <line x1="0.22336" y1="-0.03227" x2="0.22336" y2="0.00033" />
      <path d="M 0.22736,0.000336 A 0.004,6.323648049565119e-06 -5.108351376014021e-38 0,1 0.22576,0.000336" />
      <path d="M 0.247625,-0.032267 A 0.004,6.323648049565119e-06 180.0 0,0 0.24816,-0.03227" />
      <line x1="0.24816" y1="0.00033" x2="0.24816" y2="-0.03227" />
      <path d="M 0.24416,0.000336 A 0.004,6.323648049565119e-06 180.0 0,0 0.24576,0.000336" />
      <line x1="0.22336" y1="-0.034367" x2="0.22336" y2="-0.032267" />
      <line x1="0.22336" y1="-0.032267" x2="0.223896" y2="-0.032267" />
      <line x1="0.22736" y1="-0.034367" x2="0.22736" y2="-0.032267" />
      <line x1="0.22336" y1="-0.034367" x2="0.22736" y2="-0.034367" />
      <line x1="0.24416" y1="-0.034367" x2="0.24416" y2="-0.032267" />
      <line x1="0.247625" y1="-0.032267" x2="0.24816" y2="-0.032267" />
      <line x1="0.24816" y1="-0.034367" x2="0.24816" y2="-0.032267" />
      <line x1="0.24416" y1="-0.034367" x2="0.24816" y2="-0.034367" />
      <line x1="0.22736" y1="-0.034367" x2="0.22736" y2="-0.034431" />
      <line x1="0.22736" y1="-0.032335" x2="0.22736" y2="-0.032331" />
      <line x1="0.24416" y1="-0.034367" x2="0.24416" y2="-0.034431" />
      <line x1="0.24416" y1="-0.032335" x2="0.24416" y2="-0.032331" />
      <path d="M 0.23876,-0.033619 A 0.0030000000000000027,4.742736037173843e-06 -6.915920008524899e-38 0,1 0.23276,-0.033619" />
      <line x1="0.22941" y1="-0.032291" x2="0.22941" y2="-0.034091" />
      <line x1="0.23371" y1="-0.034091" x2="0.23371" y2="-0.032291" />
      <line x1="0.23371" y1="-0.032291" x2="0.22941" y2="-0.032291" />
      <line x1="0.22941" y1="-0.032283" x2="0.22941" y2="-0.034083" />
      <line x1="0.22941" y1="-0.032283" x2="0.22941" y2="-0.032291" />
      <line x1="0.23371" y1="-0.034083" x2="0.23371" y2="-0.032283" />
      <line x1="0.23371" y1="-0.032283" x2="0.22941" y2="-0.032283" />
      <line x1="0.24211" y1="-0.032283" x2="0.23781" y2="-0.032283" />
      <line x1="0.23781" y1="-0.032283" x2="0.23781" y2="-0.034083" />
      <line x1="0.24211" y1="-0.032283" x2="0.24211" y2="-0.034083" />
      <line x1="0.24211" y1="-0.032291" x2="0.24211" y2="-0.034091" />
      <line x1="0.24211" y1="-0.032283" x2="0.24211" y2="-0.032291" />
      <line x1="0.24211" y1="-0.032291" x2="0.23781" y2="-0.032291" />
      <line x1="0.23781" y1="-0.032291" x2="0.23781" y2="-0.034091" />
      <line x1="0.23781" y1="-0.032283" x2="0.23781" y2="-0.032291" />
      <line x1="0.23711" y1="-0.032283" x2="0.23711" y2="-0.034083" />
      <line x1="0.23711" y1="-0.032283" x2="0.23711" y2="-0.032291" />
      <line x1="0.23441" y1="-0.032283" x2="0.23441" y2="-0.034083" />
      <line x1="0.23441" y1="-0.032283" x2="0.23441" y2="-0.032291" />
      <line x1="0.23711" y1="-0.032283" x2="0.23441" y2="-0.032283" />
      <line x1="0.23371" y1="-0.032283" x2="0.23371" y2="-0.032291" />
      <path d="M 0.22776,0.000296 A 0.002,3.1618240247825596e-06 -5.108351376014021e-38 0,1 0.22576,0.000293" />
      <line x1="0.22576" y1="0.000293" x2="0.22576" y2="0.000268" />
      <line x1="0.24576" y1="0.000293" x2="0.24576" y2="0.000268" />
      <path d="M 0.24376,0.000296 A 0.002,3.1618240247825596e-06 180.0 0,0 0.24576,0.000293" />
      <line x1="0.22776" y1="0.000296" x2="0.24376" y2="0.000296" />
      <line x1="0.22336" y1="-0.032267" x2="0.22336" y2="-0.03227" />
      <line x1="0.22336" y1="-0.034367" x2="0.22336" y2="-0.034431" />
      <line x1="0.24816" y1="-0.032267" x2="0.24816" y2="-0.03227" />
      <line x1="0.24816" y1="-0.034367" x2="0.24816" y2="-0.034431" />
      <path d="M 0.22551,-0.034375 A 0.0016,2.5294592198260478e-06 -6.915920008524899e-38 0,1 0.22711,-0.034373" />
      <path d="M 0.22711,-0.034373 A 0.0016000000000000044,2.5294592198260546e-06 -6.915920008524899e-38 0,1 0.22391,-0.034373" />
      <path d="M 0.22391,-0.034373 A 0.0016,2.5294592198260478e-06 -6.915920008524899e-38 0,1 0.22551,-0.034375" />
      <path d="M 0.22551,-0.034402 A 0.0016,2.5294592198260478e-06 -6.915920008524899e-38 0,1 0.22711,-0.0344" />
      <path d="M 0.22711,-0.0344 A 0.0016000000000000044,2.5294592198260546e-06 -6.915920008524899e-38 0,1 0.22391,-0.0344" />
      <path d="M 0.22391,-0.0344 A 0.0016,2.5294592198260478e-06 -6.915920008524899e-38 0,1 0.22551,-0.034402" />
      <path d="M 0.22551,-0.034429 A 0.0016,2.5294592198260478e-06 -6.915920008524899e-38 0,1 0.22711,-0.034426" />
      <path d="M 0.22711,-0.034426 A 0.0016000000000000044,2.5294592198260546e-06 -6.915920008524899e-38 0,1 0.22391,-0.034426" />
      <path d="M 0.22391,-0.034426 A 0.0016,2.5294592198260478e-06 -6.915920008524899e-38 0,1 0.22551,-0.034429" />
      <path d="M 0.24601,-0.034375 A 0.0016,2.5294592198260478e-06 -6.915920008524899e-38 0,1 0.24761,-0.034373" />
      <path d="M 0.24761,-0.034373 A 0.0016000000000000044,2.5294592198260546e-06 -6.915920008524899e-38 0,1 0.24441,-0.034373" />
      <path d="M 0.24441,-0.034373 A 0.0016,2.5294592198260478e-06 -6.915920008524899e-38 0,1 0.24601,-0.034375" />
      <path d="M 0.24601,-0.034402 A 0.0016,2.5294592198260478e-06 -6.915920008524899e-38 0,1 0.24761,-0.0344" />
      <path d="M 0.24761,-0.0344 A 0.0016000000000000044,2.5294592198260546e-06 -6.915920008524899e-38 0,1 0.24441,-0.0344" />
      <path d="M 0.24441,-0.0344 A 0.0016,2.5294592198260478e-06 -6.915920008524899e-38 0,1 0.24601,-0.034402" />
      <path d="M 0.24601,-0.034429 A 0.0016,2.5294592198260478e-06 -6.915920008524899e-38 0,1 0.24761,-0.034426" />
      <path d="M 0.24761,-0.034426 A 0.0016000000000000044,2.5294592198260546e-06 -6.915920008524899e-38 0,1 0.24441,-0.034426" />
      <path d="M 0.24441,-0.034426 A 0.0016,2.5294592198260478e-06 -6.915920008524899e-38 0,1 0.24601,-0.034429" />
      <line x1="0.22576" y1="0.000293" x2="0.22576" y2="0.001993" />
      <line x1="0.24576" y1="0.000293" x2="0.24576" y2="0.001993" />
      <line x1="0.23126" y1="0.001996" x2="0.24026" y2="0.001996" />
      <path d="M 0.22551,-0.024375 A 0.0016,2.5294592198260478e-06 -6.915920008524899e-38 0,1 0.22711,-0.024373" />
      <path d="M 0.22711,-0.024373 A 0.0016000000000000044,2.5294592198260546e-06 -6.915920008524899e-38 0,1 0.22391,-0.024373" />
      <path d="M 0.22391,-0.024373 A 0.0016,2.5294592198260478e-06 -6.915920008524899e-38 0,1 0.22551,-0.024375" />
      <path d="M 0.22551,-0.024402 A 0.0016,2.5294592198260478e-06 -6.915920008524899e-38 0,1 0.22711,-0.0244" />
      <path d="M 0.22711,-0.0244 A 0.0016000000000000044,2.5294592198260546e-06 -6.915920008524899e-38 0,1 0.22391,-0.0244" />
      <path d="M 0.22391,-0.0244 A 0.0016,2.5294592198260478e-06 -6.915920008524899e-38 0,1 0.22551,-0.024402" />
      <path d="M 0.22551,-0.024429 A 0.0016,2.5294592198260478e-06 -6.915920008524899e-38 0,1 0.22711,-0.024426" />
      <path d="M 0.22711,-0.024426 A 0.0016000000000000044,2.5294592198260546e-06 -6.915920008524899e-38 0,1 0.22391,-0.024426" />
      <path d="M 0.22391,-0.024426 A 0.0016,2.5294592198260478e-06 -6.915920008524899e-38 0,1 0.22551,-0.024429" />
      <path d="M 0.24601,-0.024375 A 0.0016,2.5294592198260478e-06 -6.915920008524899e-38 0,1 0.24761,-0.024373" />
      <path d="M 0.24761,-0.024373 A 0.0016000000000000044,2.5294592198260546e-06 -6.915920008524899e-38 0,1 0.24441,-0.024373" />
      <path d="M 0.24441,-0.024373 A 0.0016,2.5294592198260478e-06 -6.915920008524899e-38 0,1 0.24601,-0.024375" />
      <path d="M 0.24601,-0.024402 A 0.0016,2.5294592198260478e-06 -6.915920008524899e-38 0,1 0.24761,-0.0244" />
      <path d="M 0.24761,-0.0244 A 0.0016000000000000044,2.5294592198260546e-06 -6.915920008524899e-38 0,1 0.24441,-0.0244" />
      <path d="M 0.24441,-0.0244 A 0.0016,2.5294592198260478e-06 -6.915920008524899e-38 0,1 0.24601,-0.024402" />
      <path d="M 0.24601,-0.024429 A 0.0016,2.5294592198260478e-06 -6.915920008524899e-38 0,1 0.24761,-0.024426" />
      <path d="M 0.24761,-0.024426 A 0.0016000000000000044,2.5294592198260546e-06 -6.915920008524899e-38 0,1 0.24441,-0.024426" />
      <path d="M 0.24441,-0.024426 A 0.0016,2.5294592198260478e-06 -6.915920008524899e-38 0,1 0.24601,-0.024429" />
      <path d="M 0.24026,0.001981 A 0.004500000000000004,7.114104055760764e-06 -6.915920008524899e-38 0,1 0.23126,0.001981" />
      <line x1="0.23876" y1="-0.032335" x2="0.23876" y2="-0.032319" />
      <line x1="0.23276" y1="-0.032335" x2="0.23276" y2="-0.032319" />
      <line x1="0.22711" y1="-0.034373" x2="0.22711" y2="-0.024373" />
      <line x1="0.22391" y1="-0.034373" x2="0.22391" y2="-0.024373" />
      <line x1="0.22711" y1="-0.0344" x2="0.22711" y2="-0.0244" />
      <line x1="0.22391" y1="-0.0344" x2="0.22391" y2="-0.0244" />
      <line x1="0.22711" y1="-0.034426" x2="0.22711" y2="-0.024426" />
      <line x1="0.22391" y1="-0.034426" x2="0.22391" y2="-0.024426" />
      <line x1="0.24761" y1="-0.034373" x2="0.24761" y2="-0.024373" />
      <line x1="0.24441" y1="-0.034373" x2="0.24441" y2="-0.024373" />
      <line x1="0.24761" y1="-0.0344" x2="0.24761" y2="-0.0244" />
      <line x1="0.24441" y1="-0.0344" x2="0.24441" y2="-0.0244" />
      <line x1="0.24761" y1="-0.034426" x2="0.24761" y2="-0.024426" />
      <line x1="0.24441" y1="-0.034426" x2="0.24441" y2="-0.024426" />
      <line x1="0.22776" y1="0.000296" x2="0.22776" y2="0.001996" />
      <line x1="0.24376" y1="0.000296" x2="0.24376" y2="0.001996" />
    </g>
    <g fill="none" stroke="rgb(50,120,190)" stroke-width="0.00035" id="cradle">
      <line x1="0.0534" y1="0.015665" x2="0.062232" y2="0.015665" />
      <line x1="0.062232" y1="0.015665" x2="0.062232" y2="0.012665" />
      <line x1="0.0564" y1="0.012665" x2="0.062232" y2="0.012665" />
      <line x1="0.0564" y1="0.012665" x2="0.0564" y2="0.00755" />
      <line x1="0.0534" y1="0.00755" x2="0.0564" y2="0.00755" />
      <line x1="0.0534" y1="0.015665" x2="0.0534" y2="0.00755" />
      <line x1="0.0534" y1="-0.00755" x2="0.0564" y2="-0.00755" />
      <line x1="0.0564" y1="-0.00755" x2="0.0564" y2="-0.012665" />
      <line x1="0.0564" y1="-0.012665" x2="0.062232" y2="-0.012665" />
      <line x1="0.062232" y1="-0.012665" x2="0.062232" y2="-0.015665" />
      <line x1="0.0534" y1="-0.015665" x2="0.062232" y2="-0.015665" />
      <line x1="0.0534" y1="-0.00755" x2="0.0534" y2="-0.015665" />
      <line x1="0.163415" y1="-0.028052" x2="0.163444" y2="-0.028025" />
      <line x1="0.163497" y1="-0.028025" x2="0.163497" y2="-0.027975" />
      <line x1="0.163497" y1="-0.027975" x2="0.163525" y2="-0.027948" />
      <line x1="0.163415" y1="-0.038152" x2="0.163415" y2="-0.028052" />
      <line x1="0.166444" y1="-0.028025" x2="0.163444" y2="-0.028025" />
      <line x1="0.166426" y1="-0.028042" x2="0.166444" y2="-0.028025" />
      <line x1="0.172257" y1="-0.028042" x2="0.166426" y2="-0.028042" />
      <line x1="0.172247" y1="-0.028052" x2="0.172257" y2="-0.028042" />
      <line x1="0.163415" y1="-0.028052" x2="0.172247" y2="-0.028052" />
      <line x1="0.166444" y1="-0.028042" x2="0.166444" y2="-0.028025" />
      <line x1="0.166497" y1="-0.028042" x2="0.166497" y2="-0.027975" />
      <line x1="0.166497" y1="-0.027975" x2="0.163497" y2="-0.027975" />
      <line x1="0.172346" y1="-0.027958" x2="0.172357" y2="-0.027948" />
      <line x1="0.172346" y1="-0.027958" x2="0.166515" y2="-0.027958" />
      <line x1="0.166497" y1="-0.027975" x2="0.166515" y2="-0.027958" />
      <line x1="0.163525" y1="-0.027948" x2="0.172357" y2="-0.027948" />
      <line x1="0.172357" y1="-0.038048" x2="0.172357" y2="-0.027948" />
      <path d="M 0.172348,-0.038056 A 0.00295,9.854214615771964e-06 4.3498286580142875e-20 0,1 0.172255,-0.038056" />
      <line x1="0.172247" y1="-0.038152" x2="0.172255" y2="-0.038144" />
      <line x1="0.163415" y1="-0.038152" x2="0.172247" y2="-0.038152" />
      <line x1="0.172348" y1="-0.038056" x2="0.172357" y2="-0.038048" />
      <line x1="0.172247" y1="-0.038152" x2="0.172247" y2="-0.028052" />
      <line x1="0.166515" y1="-0.028042" x2="0.166515" y2="-0.027958" />
      <line x1="0.172257" y1="-0.035642" x2="0.172257" y2="-0.028042" />
      <line x1="0.172255" y1="-0.038144" x2="0.172255" y2="-0.035644" />
      <line x1="0.172348" y1="-0.038056" x2="0.172348" y2="-0.035556" />
      <line x1="0.172346" y1="-0.035558" x2="0.172346" y2="-0.027958" />
      <line x1="0.172257" y1="-0.035558" x2="0.172346" y2="-0.035558" />
      <path d="M 0.172348,-0.035556 A 0.00295,9.854214615771964e-06 4.3498286580142875e-20 0,1 0.172257,-0.035556" />
      <line x1="0.220095" y1="-0.027989" x2="0.22821" y2="-0.027989" />
      <line x1="0.24331" y1="-0.036289" x2="0.22821" y2="-0.036289" />
      <line x1="0.24331" y1="-0.027989" x2="0.251425" y2="-0.027989" />
      <line x1="0.22821" y1="-0.027999" x2="0.22821" y2="-0.027989" />
      <line x1="0.223095" y1="-0.027999" x2="0.22821" y2="-0.027999" />
      <line x1="0.223095" y1="-0.028019" x2="0.223095" y2="-0.027999" />
      <line x1="0.220095" y1="-0.028019" x2="0.223095" y2="-0.028019" />
      <line x1="0.220095" y1="-0.027989" x2="0.220095" y2="-0.028019" />
      <line x1="0.22821" y1="-0.036299" x2="0.22821" y2="-0.027999" />
      <line x1="0.24331" y1="-0.036299" x2="0.22821" y2="-0.036299" />
      <line x1="0.24331" y1="-0.036299" x2="0.24331" y2="-0.027999" />
      <line x1="0.24331" y1="-0.027999" x2="0.24331" y2="-0.027989" />
      <line x1="0.248425" y1="-0.028019" x2="0.251425" y2="-0.028019" />
      <line x1="0.248425" y1="-0.028019" x2="0.248425" y2="-0.027999" />
      <line x1="0.24331" y1="-0.027999" x2="0.248425" y2="-0.027999" />
      <line x1="0.251425" y1="-0.027989" x2="0.251425" y2="-0.028019" />
      <line x1="0.251425" y1="-0.038119" x2="0.251425" y2="-0.028019" />
      <path d="M 0.248959,-0.038119 A 0.00295,9.819665180940423e-06 7.6459649307049e-37 0,1 0.248425,-0.038113" />
      <line x1="0.223095" y1="-0.038099" x2="0.248425" y2="-0.038099" />
      <path d="M 0.223095,-0.038113 A 0.00295,9.819665180940423e-06 7.6459649307049e-37 0,1 0.222562,-0.038119" />
      <line x1="0.220095" y1="-0.038119" x2="0.222562" y2="-0.038119" />
      <line x1="0.248959" y1="-0.038119" x2="0.251425" y2="-0.038119" />
      <line x1="0.220095" y1="-0.038119" x2="0.220095" y2="-0.028019" />
      <line x1="0.223095" y1="-0.038099" x2="0.223095" y2="-0.035619" />
      <line x1="0.223095" y1="-0.038113" x2="0.223095" y2="-0.035619" />
      <line x1="0.223095" y1="-0.035619" x2="0.223095" y2="-0.028019" />
      <line x1="0.223095" y1="-0.035619" x2="0.22256" y2="-0.035619" />
      <line x1="0.222562" y1="-0.038119" x2="0.222562" y2="-0.035619" />
      <line x1="0.248959" y1="-0.038119" x2="0.248959" y2="-0.035619" />
      <line x1="0.24896" y1="-0.035619" x2="0.248425" y2="-0.035619" />
      <line x1="0.248425" y1="-0.035619" x2="0.248425" y2="-0.028019" />
      <line x1="0.248425" y1="-0.038113" x2="0.248425" y2="-0.035619" />
    </g>
    <g fill="url(#hatch_cradle)" stroke="none" stroke-width="0" id="cradle_fill">
      <path d="M 0.062232,0.015665 L 0.0534,0.015665 L 0.0534,0.00755 L 0.0564,0.00755 L 0.0564,0.012665 L 0.062232,0.012665 L 0.062232,0.015665" />
      <path d="M 0.0564,-0.00755 L 0.0534,-0.00755 L 0.0534,-0.015665 L 0.062232,-0.015665 L 0.062232,-0.012665 L 0.0564,-0.012665 L 0.0564,-0.00755" />
    </g>
    <g fill="none" stroke="rgb(50,120,190)" stroke-opacity="0.4" stroke-width="0.00015" id="cradle_hidden" stroke-dasharray="0.0018 0.00045">
      <line x1="0.163444" y1="-0.036325" x2="0.163444" y2="-0.028025" />
      <line x1="0.163497" y1="-0.036275" x2="0.163444" y2="-0.036325" />
      <line x1="0.163497" y1="-0.036275" x2="0.163497" y2="-0.028025" />
      <line x1="0.163525" y1="-0.038048" x2="0.163525" y2="-0.027948" />
      <line x1="0.163415" y1="-0.038152" x2="0.163525" y2="-0.038048" />
      <line x1="0.163444" y1="-0.036325" x2="0.166444" y2="-0.036325" />
      <line x1="0.166444" y1="-0.036325" x2="0.166444" y2="-0.028042" />
      <line x1="0.163497" y1="-0.036275" x2="0.166497" y2="-0.036275" />
      <line x1="0.166497" y1="-0.036275" x2="0.166444" y2="-0.036325" />
      <line x1="0.166497" y1="-0.036275" x2="0.166497" y2="-0.028042" />
      <line x1="0.163525" y1="-0.038048" x2="0.172357" y2="-0.038048" />
      <path d="M 0.172255,-0.038056 A 0.00295,9.854214615771964e-06 4.3498286580142875e-20 0,1 0.170736,-0.038058" />
      <line x1="0.170736" y1="-0.038058" x2="0.166515" y2="-0.038058" />
      <line x1="0.166426" y1="-0.038142" x2="0.166515" y2="-0.038058" />
      <line x1="0.170646" y1="-0.038142" x2="0.166426" y2="-0.038142" />
      <path d="M 0.170646,-0.038142 A 0.00295,9.854214615771964e-06 4.3498286580142875e-20 0,1 0.172255,-0.038144" />
      <line x1="0.166426" y1="-0.038142" x2="0.166426" y2="-0.028042" />
      <line x1="0.166515" y1="-0.038058" x2="0.166515" y2="-0.028042" />
      <line x1="0.170646" y1="-0.038142" x2="0.170646" y2="-0.035642" />
      <line x1="0.170646" y1="-0.035642" x2="0.172257" y2="-0.035642" />
      <line x1="0.170736" y1="-0.038058" x2="0.170736" y2="-0.035558" />
      <line x1="0.170736" y1="-0.035558" x2="0.172257" y2="-0.035558" />
      <path d="M 0.172257,-0.035556 A 0.00295,9.854214615771964e-06 4.3498286580142875e-20 0,1 0.170736,-0.035558" />
      <path d="M 0.170646,-0.035642 A 0.00295,9.854214615771964e-06 4.3498286580142875e-20 0,1 0.172255,-0.035644" />
      <line x1="0.22821" y1="-0.036289" x2="0.22821" y2="-0.027989" />
      <line x1="0.24331" y1="-0.036289" x2="0.24331" y2="-0.027989" />
      <line x1="0.251425" y1="-0.038089" x2="0.251425" y2="-0.027989" />
      <line x1="0.220095" y1="-0.038089" x2="0.251425" y2="-0.038089" />
      <line x1="0.220095" y1="-0.038089" x2="0.220095" y2="-0.027989" />
      <line x1="0.22821" y1="-0.036289" x2="0.22821" y2="-0.036299" />
      <line x1="0.24331" y1="-0.036289" x2="0.24331" y2="-0.036299" />
      <line x1="0.251425" y1="-0.038089" x2="0.251425" y2="-0.038119" />
      <line x1="0.248425" y1="-0.038113" x2="0.248425" y2="-0.038099" />
      <line x1="0.223095" y1="-0.038113" x2="0.223095" y2="-0.038099" />
      <line x1="0.220095" y1="-0.038089" x2="0.220095" y2="-0.038119" />
      <line x1="0.223095" y1="-0.035619" x2="0.223095" y2="-0.027999" />
      <line x1="0.248425" y1="-0.038099" x2="0.248425" y2="-0.027999" />
      <line x1="0.223095" y1="-0.035619" x2="0.223095" y2="-0.035613" />
      <line x1="0.223095" y1="-0.035613" x2="0.223095" y2="-0.035619" />
      <line x1="0.248425" y1="-0.035619" x2="0.248425" y2="-0.035613" />
      <line x1="0.248425" y1="-0.035613" x2="0.248425" y2="-0.035619" />
      <path d="M 0.248959,-0.035619 A 0.00295,9.819665180940423e-06 7.6459649307049e-37 0,1 0.248425,-0.035613" />
      <path d="M 0.223095,-0.035613 A 0.00295,9.819665180940423e-06 7.6459649307049e-37 0,1 0.222562,-0.035619" />
    </g>
  </g>
  <text x="0.022700" y="-0.021340" text-anchor="middle" font-family="'Input Sans Narrow', 'DejaVu Sans', Arial, sans-serif" font-size="0.002500" font-weight="bold" fill="#333">A-A</text>
  <text x="0.022700" y="-0.017840" text-anchor="middle" font-family="'Input Sans Narrow', 'DejaVu Sans', Arial, sans-serif" font-size="0.001800" fill="#888">front_horn</text>
  <line x1="0.000000" y1="0.013200" x2="0.000000" y2="0.016200" stroke="#5C7080" stroke-width="0.000140" stroke-opacity="0.5"/>
  <line x1="0.045400" y1="0.013200" x2="0.045400" y2="0.016200" stroke="#5C7080" stroke-width="0.000140" stroke-opacity="0.5"/>
  <line x1="0.000000" y1="0.014600" x2="0.000000" y2="0.016200" stroke="#5C7080" stroke-width="0.000200"/>
  <line x1="0.045400" y1="0.014600" x2="0.045400" y2="0.016200" stroke="#5C7080" stroke-width="0.000200"/>
  <line x1="0.000000" y1="0.015400" x2="0.045400" y2="0.015400" stroke="#5C7080" stroke-width="0.000200"/>
  <polygon points="0.000000,0.015400 0.001500,0.014800 0.001500,0.016000" fill="#5C7080"/>
  <polygon points="0.045400,0.015400 0.043900,0.014800 0.043900,0.016000" fill="#5C7080"/>
  <text x="0.022700" y="0.014200" text-anchor="middle" font-family="'Input Sans Narrow', 'DejaVu Sans', Arial, sans-serif" font-size="0.001600" fill="#5C7080">45.4</text>
  <line x1="0.046200" y1="-0.012400" x2="0.049200" y2="-0.012400" stroke="#5C7080" stroke-width="0.000140" stroke-opacity="0.5"/>
  <line x1="0.046200" y1="0.012400" x2="0.049200" y2="0.012400" stroke="#5C7080" stroke-width="0.000140" stroke-opacity="0.5"/>
  <line x1="0.047600" y1="-0.012400" x2="0.049200" y2="-0.012400" stroke="#5C7080" stroke-width="0.000200"/>
  <line x1="0.047600" y1="0.012400" x2="0.049200" y2="0.012400" stroke="#5C7080" stroke-width="0.000200"/>
  <line x1="0.048400" y1="-0.012400" x2="0.048400" y2="0.012400" stroke="#5C7080" stroke-width="0.000200"/>
  <polygon points="0.048400,-0.012400 0.047800,-0.010900 0.049000,-0.010900" fill="#5C7080"/>
  <polygon points="0.048400,0.012400 0.047800,0.010900 0.049000,0.010900" fill="#5C7080"/>
  <text x="0.049900" y="0.000000" text-anchor="middle" dominant-baseline="central" font-family="'Input Sans Narrow', 'DejaVu Sans', Arial, sans-serif" font-size="0.001600" fill="#5C7080" transform="rotate(-90 0.049900 0.000000)">24.8</text>
  <text x="0.077708" y="-0.021340" text-anchor="middle" font-family="'Input Sans Narrow', 'DejaVu Sans', Arial, sans-serif" font-size="0.002500" font-weight="bold" fill="#333">B-B</text>
  <text x="0.077708" y="-0.017840" text-anchor="middle" font-family="'Input Sans Narrow', 'DejaVu Sans', Arial, sans-serif" font-size="0.001800" fill="#888">rear_horn</text>
  <line x1="0.053400" y1="0.016465" x2="0.053400" y2="0.019465" stroke="#5C7080" stroke-width="0.000140" stroke-opacity="0.5"/>
  <line x1="0.102015" y1="0.016465" x2="0.102015" y2="0.019465" stroke="#5C7080" stroke-width="0.000140" stroke-opacity="0.5"/>
  <line x1="0.053400" y1="0.017865" x2="0.053400" y2="0.019465" stroke="#5C7080" stroke-width="0.000200"/>
  <line x1="0.102015" y1="0.017865" x2="0.102015" y2="0.019465" stroke="#5C7080" stroke-width="0.000200"/>
  <line x1="0.053400" y1="0.018665" x2="0.102015" y2="0.018665" stroke="#5C7080" stroke-width="0.000200"/>
  <polygon points="0.053400,0.018665 0.054900,0.018065 0.054900,0.019265" fill="#5C7080"/>
  <polygon points="0.102015,0.018665 0.100515,0.018065 0.100515,0.019265" fill="#5C7080"/>
  <text x="0.077708" y="0.017465" text-anchor="middle" font-family="'Input Sans Narrow', 'DejaVu Sans', Arial, sans-serif" font-size="0.001600" fill="#5C7080">48.6</text>
  <line x1="0.102815" y1="-0.015665" x2="0.105815" y2="-0.015665" stroke="#5C7080" stroke-width="0.000140" stroke-opacity="0.5"/>
  <line x1="0.102815" y1="0.015665" x2="0.105815" y2="0.015665" stroke="#5C7080" stroke-width="0.000140" stroke-opacity="0.5"/>
  <line x1="0.104215" y1="-0.015665" x2="0.105815" y2="-0.015665" stroke="#5C7080" stroke-width="0.000200"/>
  <line x1="0.104215" y1="0.015665" x2="0.105815" y2="0.015665" stroke="#5C7080" stroke-width="0.000200"/>
  <line x1="0.105015" y1="-0.015665" x2="0.105015" y2="0.015665" stroke="#5C7080" stroke-width="0.000200"/>
  <polygon points="0.105015,-0.015665 0.104415,-0.014165 0.105615,-0.014165" fill="#5C7080"/>
  <polygon points="0.105015,0.015665 0.104415,0.014165 0.105615,0.014165" fill="#5C7080"/>
  <text x="0.106515" y="0.000000" text-anchor="middle" dominant-baseline="central" font-family="'Input Sans Narrow', 'DejaVu Sans', Arial, sans-serif" font-size="0.001600" fill="#5C7080" transform="rotate(-90 0.106515 0.000000)">31.3</text>
  <text x="0.132715" y="-0.021340" text-anchor="middle" font-family="'Input Sans Narrow', 'DejaVu Sans', Arial, sans-serif" font-size="0.002500" font-weight="bold" fill="#333">C-C</text>
  <text x="0.132715" y="-0.017840" text-anchor="middle" font-family="'Input Sans Narrow', 'DejaVu Sans', Arial, sans-serif" font-size="0.001800" fill="#888">mid_body</text>
  <line x1="0.110015" y1="0.013200" x2="0.110015" y2="0.016200" stroke="#5C7080" stroke-width="0.000140" stroke-opacity="0.5"/>
  <line x1="0.155415" y1="0.013200" x2="0.155415" y2="0.016200" stroke="#5C7080" stroke-width="0.000140" stroke-opacity="0.5"/>
  <line x1="0.110015" y1="0.014600" x2="0.110015" y2="0.016200" stroke="#5C7080" stroke-width="0.000200"/>
  <line x1="0.155415" y1="0.014600" x2="0.155415" y2="0.016200" stroke="#5C7080" stroke-width="0.000200"/>
  <line x1="0.110015" y1="0.015400" x2="0.155415" y2="0.015400" stroke="#5C7080" stroke-width="0.000200"/>
  <polygon points="0.110015,0.015400 0.111515,0.014800 0.111515,0.016000" fill="#5C7080"/>
  <polygon points="0.155415,0.015400 0.153915,0.014800 0.153915,0.016000" fill="#5C7080"/>
  <text x="0.132715" y="0.014200" text-anchor="middle" font-family="'Input Sans Narrow', 'DejaVu Sans', Arial, sans-serif" font-size="0.001600" fill="#5C7080">45.4</text>
  <line x1="0.156215" y1="-0.012400" x2="0.159215" y2="-0.012400" stroke="#5C7080" stroke-width="0.000140" stroke-opacity="0.5"/>
  <line x1="0.156215" y1="0.012400" x2="0.159215" y2="0.012400" stroke="#5C7080" stroke-width="0.000140" stroke-opacity="0.5"/>
  <line x1="0.157615" y1="-0.012400" x2="0.159215" y2="-0.012400" stroke="#5C7080" stroke-width="0.000200"/>
  <line x1="0.157615" y1="0.012400" x2="0.159215" y2="0.012400" stroke="#5C7080" stroke-width="0.000200"/>
  <line x1="0.158415" y1="-0.012400" x2="0.158415" y2="0.012400" stroke="#5C7080" stroke-width="0.000200"/>
  <polygon points="0.158415,-0.012400 0.157815,-0.010900 0.159015,-0.010900" fill="#5C7080"/>
  <polygon points="0.158415,0.012400 0.157815,0.010900 0.159015,0.010900" fill="#5C7080"/>
  <text x="0.159915" y="0.000000" text-anchor="middle" dominant-baseline="central" font-family="'Input Sans Narrow', 'DejaVu Sans', Arial, sans-serif" font-size="0.001600" fill="#5C7080" transform="rotate(-90 0.159915 0.000000)">24.8</text>
  <text x="0.187755" y="-0.021340" text-anchor="middle" font-family="'Input Sans Narrow', 'DejaVu Sans', Arial, sans-serif" font-size="0.002500" font-weight="bold" fill="#333">side_XZ</text>
  <line x1="0.163415" y1="0.038952" x2="0.163415" y2="0.041952" stroke="#5C7080" stroke-width="0.000140" stroke-opacity="0.5"/>
  <line x1="0.212095" y1="0.038952" x2="0.212095" y2="0.041952" stroke="#5C7080" stroke-width="0.000140" stroke-opacity="0.5"/>
  <line x1="0.163415" y1="0.040352" x2="0.163415" y2="0.041952" stroke="#5C7080" stroke-width="0.000200"/>
  <line x1="0.212095" y1="0.040352" x2="0.212095" y2="0.041952" stroke="#5C7080" stroke-width="0.000200"/>
  <line x1="0.163415" y1="0.041152" x2="0.212095" y2="0.041152" stroke="#5C7080" stroke-width="0.000200"/>
  <polygon points="0.163415,0.041152 0.164915,0.040552 0.164915,0.041752" fill="#5C7080"/>
  <polygon points="0.212095,0.041152 0.210595,0.040552 0.210595,0.041752" fill="#5C7080"/>
  <text x="0.187755" y="0.039952" text-anchor="middle" font-family="'Input Sans Narrow', 'DejaVu Sans', Arial, sans-serif" font-size="0.001600" fill="#5C7080">48.7</text>
  <line x1="0.212895" y1="-0.003507" x2="0.215895" y2="-0.003507" stroke="#5C7080" stroke-width="0.000140" stroke-opacity="0.5"/>
  <line x1="0.212895" y1="0.038152" x2="0.215895" y2="0.038152" stroke="#5C7080" stroke-width="0.000140" stroke-opacity="0.5"/>
  <line x1="0.214295" y1="-0.003507" x2="0.215895" y2="-0.003507" stroke="#5C7080" stroke-width="0.000200"/>
  <line x1="0.214295" y1="0.038152" x2="0.215895" y2="0.038152" stroke="#5C7080" stroke-width="0.000200"/>
  <line x1="0.215095" y1="-0.003507" x2="0.215095" y2="0.038152" stroke="#5C7080" stroke-width="0.000200"/>
  <polygon points="0.215095,-0.003507 0.214495,-0.002007 0.215695,-0.002007" fill="#5C7080"/>
  <polygon points="0.215095,0.038152 0.214495,0.036652 0.215695,0.036652" fill="#5C7080"/>
  <text x="0.216595" y="0.017323" text-anchor="middle" dominant-baseline="central" font-family="'Input Sans Narrow', 'DejaVu Sans', Arial, sans-serif" font-size="0.001600" fill="#5C7080" transform="rotate(-90 0.216595 0.017323)">41.7</text>
  <line x1="0.160415" y1="-0.000000" x2="0.215095" y2="-0.000000" stroke="#555" stroke-width="0.000250" stroke-dasharray="0.002500,0.000800,0.000500,0.000800"/>
  <text x="0.158915" y="0.000600" text-anchor="end" font-family="'Input Sans Narrow', 'DejaVu Sans', Arial, sans-serif" font-size="0.002000" font-weight="bold" fill="#555">A</text>
  <text x="0.216595" y="0.000600" text-anchor="start" font-family="'Input Sans Narrow', 'DejaVu Sans', Arial, sans-serif" font-size="0.002000" font-weight="bold" fill="#555">A</text>
  <line x1="0.160415" y1="0.032000" x2="0.215095" y2="0.032000" stroke="#555" stroke-width="0.000250" stroke-dasharray="0.002500,0.000800,0.000500,0.000800"/>
  <text x="0.158915" y="0.032600" text-anchor="end" font-family="'Input Sans Narrow', 'DejaVu Sans', Arial, sans-serif" font-size="0.002000" font-weight="bold" fill="#555">B</text>
  <text x="0.216595" y="0.032600" text-anchor="start" font-family="'Input Sans Narrow', 'DejaVu Sans', Arial, sans-serif" font-size="0.002000" font-weight="bold" fill="#555">B</text>
  <line x1="0.160415" y1="0.016000" x2="0.215095" y2="0.016000" stroke="#555" stroke-width="0.000250" stroke-dasharray="0.002500,0.000800,0.000500,0.000800"/>
  <text x="0.158915" y="0.016600" text-anchor="end" font-family="'Input Sans Narrow', 'DejaVu Sans', Arial, sans-serif" font-size="0.002000" font-weight="bold" fill="#555">C</text>
  <text x="0.216595" y="0.016600" text-anchor="start" font-family="'Input Sans Narrow', 'DejaVu Sans', Arial, sans-serif" font-size="0.002000" font-weight="bold" fill="#555">C</text>
  <text x="0.235760" y="-0.021340" text-anchor="middle" font-family="'Input Sans Narrow', 'DejaVu Sans', Arial, sans-serif" font-size="0.002500" font-weight="bold" fill="#333">side_YZ</text>
  <line x1="0.220095" y1="0.038919" x2="0.220095" y2="0.041919" stroke="#5C7080" stroke-width="0.000140" stroke-opacity="0.5"/>
  <line x1="0.251425" y1="0.038919" x2="0.251425" y2="0.041919" stroke="#5C7080" stroke-width="0.000140" stroke-opacity="0.5"/>
  <line x1="0.220095" y1="0.040319" x2="0.220095" y2="0.041919" stroke="#5C7080" stroke-width="0.000200"/>
  <line x1="0.251425" y1="0.040319" x2="0.251425" y2="0.041919" stroke="#5C7080" stroke-width="0.000200"/>
  <line x1="0.220095" y1="0.041119" x2="0.251425" y2="0.041119" stroke="#5C7080" stroke-width="0.000200"/>
  <polygon points="0.220095,0.041119 0.221595,0.040519 0.221595,0.041719" fill="#5C7080"/>
  <polygon points="0.251425,0.041119 0.249925,0.040519 0.249925,0.041719" fill="#5C7080"/>
  <text x="0.235760" y="0.039919" text-anchor="middle" font-family="'Input Sans Narrow', 'DejaVu Sans', Arial, sans-serif" font-size="0.001600" fill="#5C7080">31.3</text>
  <line x1="0.252225" y1="-0.003488" x2="0.255225" y2="-0.003488" stroke="#5C7080" stroke-width="0.000140" stroke-opacity="0.5"/>
  <line x1="0.252225" y1="0.038119" x2="0.255225" y2="0.038119" stroke="#5C7080" stroke-width="0.000140" stroke-opacity="0.5"/>
  <line x1="0.253625" y1="-0.003488" x2="0.255225" y2="-0.003488" stroke="#5C7080" stroke-width="0.000200"/>
  <line x1="0.253625" y1="0.038119" x2="0.255225" y2="0.038119" stroke="#5C7080" stroke-width="0.000200"/>
  <line x1="0.254425" y1="-0.003488" x2="0.254425" y2="0.038119" stroke="#5C7080" stroke-width="0.000200"/>
  <polygon points="0.254425,-0.003488 0.253825,-0.001988 0.255025,-0.001988" fill="#5C7080"/>
  <polygon points="0.254425,0.038119 0.253825,0.036619 0.255025,0.036619" fill="#5C7080"/>
  <text x="0.255925" y="0.017316" text-anchor="middle" dominant-baseline="central" font-family="'Input Sans Narrow', 'DejaVu Sans', Arial, sans-serif" font-size="0.001600" fill="#5C7080" transform="rotate(-90 0.255925 0.017316)">41.6</text>
  <line x1="0.217095" y1="-0.000000" x2="0.254425" y2="-0.000000" stroke="#555" stroke-width="0.000250" stroke-dasharray="0.002500,0.000800,0.000500,0.000800"/>
  <text x="0.215595" y="0.000600" text-anchor="end" font-family="'Input Sans Narrow', 'DejaVu Sans', Arial, sans-serif" font-size="0.002000" font-weight="bold" fill="#555">A</text>
  <text x="0.255925" y="0.000600" text-anchor="start" font-family="'Input Sans Narrow', 'DejaVu Sans', Arial, sans-serif" font-size="0.002000" font-weight="bold" fill="#555">A</text>
  <line x1="0.217095" y1="0.032000" x2="0.254425" y2="0.032000" stroke="#555" stroke-width="0.000250" stroke-dasharray="0.002500,0.000800,0.000500,0.000800"/>
  <text x="0.215595" y="0.032600" text-anchor="end" font-family="'Input Sans Narrow', 'DejaVu Sans', Arial, sans-serif" font-size="0.002000" font-weight="bold" fill="#555">B</text>
  <text x="0.255925" y="0.032600" text-anchor="start" font-family="'Input Sans Narrow', 'DejaVu Sans', Arial, sans-serif" font-size="0.002000" font-weight="bold" fill="#555">B</text>
  <line x1="0.217095" y1="0.016000" x2="0.254425" y2="0.016000" stroke="#555" stroke-width="0.000250" stroke-dasharray="0.002500,0.000800,0.000500,0.000800"/>
  <text x="0.215595" y="0.016600" text-anchor="end" font-family="'Input Sans Narrow', 'DejaVu Sans', Arial, sans-serif" font-size="0.002000" font-weight="bold" fill="#555">C</text>
  <text x="0.255925" y="0.016600" text-anchor="start" font-family="'Input Sans Narrow', 'DejaVu Sans', Arial, sans-serif" font-size="0.002000" font-weight="bold" fill="#555">C</text>
  <text x="-0.001175" y="0.046327" font-family="'Input Sans Narrow', 'DejaVu Sans', Arial, sans-serif" font-size="0.003500" font-weight="bold" fill="#222">cradle</text>
  <line x1="-0.001175" y1="0.050327" x2="0.008825" y2="0.050327" stroke="#333" stroke-width="0.000350"/>
  <line x1="-0.001175" y1="0.049327" x2="-0.001175" y2="0.051327" stroke="#333" stroke-width="0.000250"/>
  <line x1="0.008825" y1="0.049327" x2="0.008825" y2="0.051327" stroke="#333" stroke-width="0.000250"/>
  <text x="0.010325" y="0.051027" font-family="'Input Sans Narrow', 'DejaVu Sans', Arial, sans-serif" font-size="0.001800" fill="#888">10 mm</text>
  <rect x="0.028825" y="0.043827" width="0.004000" height="0.002500" fill="url(#hatch_servo)" stroke="rgb(60,60,60)" stroke-width="0.000300"/>
  <text x="0.034325" y="0.045827" font-family="'Input Sans Narrow', 'DejaVu Sans', Arial, sans-serif" font-size="0.001800" fill="rgb(60,60,60)">servo</text>
  <rect x="0.028825" y="0.047327" width="0.004000" height="0.002500" fill="url(#hatch_cradle)" stroke="rgb(50,120,190)" stroke-width="0.000300"/>
  <text x="0.034325" y="0.049327" font-family="'Input Sans Narrow', 'DejaVu Sans', Arial, sans-serif" font-size="0.001800" fill="rgb(50,120,190)">cradle</text>
</svg>