<?xml version='1.0' encoding='utf-8'?>
<svg width="272.75mm" height="64.95mm" viewBox="-0.003175 -0.030675 0.272750 0.064950" version="1.1" xmlns="http://www.w3.org/2000/svg">
  <defs>
    <pattern id="hatch_servo" width="0.0012" height="0.0012" patternUnits="userSpaceOnUse" patternTransform="rotate(45)">
      <line x1="0" y1="0" x2="0" y2="0.0012" stroke="rgb(60,60,60)" stroke-width="0.0001" stroke-opacity="0.6"/>
    </pattern>
    <pattern id="hatch_bracket" width="0.0012" height="0.0012" patternUnits="userSpaceOnUse" patternTransform="rotate(75)">
      <line x1="0" y1="0" x2="0" y2="0.0012" stroke="rgb(50,120,190)" stroke-width="0.0001" stroke-opacity="0.6"/>
    </pattern>
  </defs>
  <g transform="scale(1,-1)" stroke-linecap="round">
    <g fill="none" stroke="rgb(60,60,60)" stroke-width="0.00035" id="servo">
      <line x1="0.0028" y1="-0.0124" x2="0.0028" y2="0.0124" />
      <line x1="0.0028" y1="-0.0124" x2="0.0482" y2="-0.0124" />
      <line x1="0.0482" y1="-0.0124" x2="0.0482" y2="0.0124" />
      <line x1="0.0028" y1="0.0124" x2="0.0482" y2="0.0124" />
      <line x1="0.0618" y1="0.0124" x2="0.1072" y2="0.0124" />
      <line x1="0.1072" y1="0.0124" x2="0.1072" y2="-0.0124" />
      <line x1="0.0618" y1="-0.0124" x2="0.1072" y2="-0.0124" />
      <line x1="0.0618" y1="0.0124" x2="0.0618" y2="-0.0124" />
      <line x1="0.1201" y1="0.01335" x2="0.1201" y2="0.0124" />
      <line x1="0.1201" y1="0.01335" x2="0.1508" y2="0.01335" />
      <line x1="0.1508" y1="0.01335" x2="0.1508" y2="0.0124" />
      <line x1="0.1201" y1="0.0124" x2="0.1508" y2="0.0124" />
      <line x1="0.1201" y1="-0.0124" x2="0.1508" y2="-0.0124" />
      <line x1="0.1508" y1="-0.0124" x2="0.1508" y2="-0.01335" />
      <line x1="0.1201" y1="-0.01335" x2="0.1508" y2="-0.01335" />
      <line x1="0.1201" y1="-0.0124" x2="0.1201" y2="-0.01335" />
      <line x1="0.219" y1="0.0159" x2="0.219" y2="0.0187" />
      <line x1="0.219" y1="0.0159" x2="0.2252" y2="0.0159" />
      <line x1="0.2252" y1="0.0159" x2="0.2252" y2="-0.0159" />
      <line x1="0.1798" y1="-0.0159" x2="0.2252" y2="-0.0159" />
      <line x1="0.1798" y1="0.0159" x2="0.1798" y2="-0.0159" />
      <line x1="0.1798" y1="0.0159" x2="0.211" y2="0.0159" />
      <line x1="0.211" y1="0.0159" x2="0.211" y2="0.0187" />
      <line x1="0.211" y1="0.0187" x2="0.219" y2="0.0187" />
      <line x1="0.2388" y1="0.0159" x2="0.2636" y2="0.0159" />
      <line x1="0.2636" y1="0.0159" x2="0.2636" y2="-0.0159" />
      <line x1="0.2388" y1="-0.0159" x2="0.2636" y2="-0.0159" />
      <line x1="0.2388" y1="0.0159" x2="0.2388" y2="-0.0159" />
      <line x1="0.2636" y1="-0.0159" x2="0.26455" y2="-0.0159" />
      <line x1="0.26455" y1="-0.0159" x2="0.26455" y2="-0.0201" />
      <line x1="0.2636" y1="-0.0201" x2="0.26455" y2="-0.0201" />
      <line x1="0.2636" y1="-0.0159" x2="0.2636" y2="-0.0201" />
      <line x1="0.2388" y1="-0.0159" x2="0.2388" y2="-0.0201" />
      <line x1="0.23785" y1="-0.0201" x2="0.2388" y2="-0.0201" />
      <line x1="0.23785" y1="-0.0159" x2="0.23785" y2="-0.0201" />
      <line x1="0.23785" y1="-0.0159" x2="0.2388" y2="-0.0159" />
    </g>
    <g fill="url(#hatch_servo)" stroke="none" stroke-width="0" id="servo_fill">
      <path d="M 0.0028,0.0124 L 0.0028,-0.0124 L 0.0482,-0.0124 L 0.0482,0.0124 L 0.0028,0.0124" />
      <path d="M 0.1072,0.0124 L 0.0618,0.0124 L 0.0618,-0.0124 L 0.1072,-0.0124 L 0.1072,0.0124" />
      <path d="M 0.1201,0.01335 L 0.1201,0.0124 L 0.1508,0.0124 L 0.1508,0.01335 L 0.1201,0.01335" />
      <path d="M 0.1508,-0.0124 L 0.1201,-0.0124 L 0.1201,-0.01335 L 0.1508,-0.01335 L 0.1508,-0.0124" />
      <path d="M 0.219,0.0159 L 0.219,0.0187 L 0.211,0.0187 L 0.211,0.0159 L 0.1798,0.0159 L 0.1798,-0.0159 L 0.2252,-0.0159 L 0.2252,0.0159 L 0.219,0.0159" />
      <path d="M 0.2636,0.0159 L 0.2388,0.0159 L 0.2388,-0.0159 L 0.2636,-0.0159 L 0.2636,0.0159" />
      <path d="M 0.26455,-0.0159 L 0.2636,-0.0159 L 0.2636,-0.0201 L 0.26455,-0.0201 L 0.26455,-0.0159" />
      <path d="M 0.2388,-0.0201 L 0.2388,-0.0159 L 0.23785,-0.0159 L 0.23785,-0.0201 L 0.2388,-0.0201" />
    </g>
    <g fill="none" stroke="rgb(50,120,190)" stroke-width="0.00035" id="bracket">
      <line x1="0.0" y1="0.0152" x2="0.051" y2="0.0152" />
      <line x1="0.051" y1="0.0152" x2="0.051" y2="-0.0152" />
      <line x1="0.0" y1="-0.0152" x2="0.051" y2="-0.0152" />
      <line x1="0.0" y1="0.0152" x2="0.0" y2="-0.0152" />
      <line x1="0.0025" y1="0.0127" x2="0.0025" y2="-0.0127" />
      <line x1="0.0025" y1="-0.0127" x2="0.0485" y2="-0.0127" />
      <line x1="0.0485" y1="0.0127" x2="0.0485" y2="-0.0127" />
      <line x1="0.0025" y1="0.0127" x2="0.0485" y2="0.0127" />
      <line x1="0.059" y1="0.0152" x2="0.11" y2="0.0152" />
      <line x1="0.11" y1="0.0152" x2="0.11" y2="-0.0152" />
      <line x1="0.059" y1="-0.0152" x2="0.11" y2="-0.0152" />
      <line x1="0.059" y1="0.0152" x2="0.059" y2="-0.0152" />
      <line x1="0.0615" y1="0.0127" x2="0.0615" y2="-0.0127" />
      <line x1="0.0615" y1="-0.0127" x2="0.1075" y2="-0.0127" />
      <line x1="0.1075" y1="0.0127" x2="0.1075" y2="-0.0127" />
      <line x1="0.0615" y1="0.0127" x2="0.1075" y2="0.0127" />
      <line x1="0.118" y1="0.0152" x2="0.169" y2="0.0152" />
      <line x1="0.169" y1="0.0152" x2="0.169" y2="-0.0152" />
      <line x1="0.118" y1="-0.0152" x2="0.169" y2="-0.0152" />
      <line x1="0.118" y1="-0.005" x2="0.118" y2="-0.0152" />
      <line x1="0.118" y1="-0.005" x2="0.1218" y2="-0.005" />
      <line x1="0.1218" y1="0.005" x2="0.1218" y2="-0.005" />
      <line x1="0.118" y1="0.005" x2="0.1218" y2="0.005" />
      <line x1="0.118" y1="0.0152" x2="0.118" y2="0.005" />
      <path d="M 0.1251,-0.009356 A 0.0021,0.0021 0.0 1,1 0.1251,-0.011144" />
      <path d="M 0.1251,-0.011144 A 0.0021,0.0021 0.0 1,1 0.1251,-0.009356" />
      <circle cx="0.1477" cy="-0.01025" r="0.0021" />
      <path d="M 0.1251,0.011144 A 0.0021,0.0021 0.0 1,1 0.1251,0.009356" />
      <path d="M 0.1251,0.009356 A 0.0021,0.0021 0.0 1,1 0.1251,0.011144" />
      <circle cx="0.1477" cy="0.01025" r="0.0021" />
      <line x1="0.177" y1="0.0215" x2="0.228" y2="0.0215" />
      <line x1="0.228" y1="0.0215" x2="0.228" y2="-0.0221" />
      <line x1="0.177" y1="-0.0221" x2="0.228" y2="-0.0221" />
      <line x1="0.177" y1="-0.0189" x2="0.177" y2="-0.0221" />
      <line x1="0.177" y1="-0.0189" x2="0.1808" y2="-0.0189" />
      <line x1="0.1808" y1="-0.0162" x2="0.1808" y2="-0.0189" />
      <line x1="0.1808" y1="-0.0162" x2="0.2255" y2="-0.0162" />
      <line x1="0.2255" y1="0.0194" x2="0.2255" y2="-0.0162" />
      <line x1="0.1795" y1="0.0194" x2="0.2255" y2="0.0194" />
      <line x1="0.1795" y1="0.0194" x2="0.1795" y2="-0.0129" />
      <line x1="0.177" y1="-0.0129" x2="0.1795" y2="-0.0129" />
      <line x1="0.177" y1="0.0215" x2="0.177" y2="-0.0129" />
      <line x1="0.236" y1="0.0215" x2="0.2664" y2="0.0215" />
      <line x1="0.2664" y1="0.0215" x2="0.2664" y2="-0.0221" />
      <line x1="0.236" y1="-0.0221" x2="0.2664" y2="-0.0221" />
      <line x1="0.236" y1="0.0215" x2="0.236" y2="-0.0221" />
      <line x1="0.2385" y1="-0.0162" x2="0.2639" y2="-0.0162" />
      <line x1="0.2639" y1="0.0194" x2="0.2639" y2="-0.0162" />
      <line x1="0.2385" y1="0.0194" x2="0.2639" y2="0.0194" />
      <line x1="0.2385" y1="0.0194" x2="0.2385" y2="-0.0162" />
    </g>
    <g fill="url(#hatch_bracket)" stroke="none" stroke-width="0" id="bracket_fill">
      <path d="M 0.051,0.0152 L 0.0,0.0152 L 0.0,-0.0152 L 0.051,-0.0152 L 0.051,0.0152 M 0.0025,-0.0127 L 0.0025,0.0127 L 0.0485,0.0127 L 0.0485,-0.0127 L 0.0025,-0.0127" />
      <path d="M 0.11,0.0152 L 0.059,0.0152 L 0.059,-0.0152 L 0.11,-0.0152 L 0.11,0.0152 M 0.0615,-0.0127 L 0.0615,0.0127 L 0.1075,0.0127 L 0.1075,-0.0127 L 0.0615,-0.0127" />
      <path d="M 0.169,0.0152 L 0.118,0.0152 L 0.118,0.005 L 0.1218,0.005 L 0.1218,-0.005 L 0.118,-0.005 L 0.118,-0.0152 L 0.169,-0.0152 L 0.169,0.0152 M 0.1251,-0.011144 A 0.0021,0.0021 0.0 1,0 0.1251,-0.009356 A 0.0021,0.0021 0.0 1,0 0.1251,-0.011144 M 0.1498,-0.01025 A 0.0021,0.0021 0.0 0,0 0.1456,-0.01025 A 0.0021,0.0021 0.0 0,0 0.1498,-0.01025 M 0.1251,0.009356 A 0.0021,0.0021 0.0 1,0 0.1251,0.011144 A 0.0021,0.0021 0.0 1,0 0.1251,0.009356 M 0.1498,0.01025 A 0.0021,0.0021 0.0 0,0 0.1456,0.01025 A 0.0021,0.0021 0.0 0,0 0.1498,0.01025" />
      <path d="M 0.228,0.0215 L 0.177,0.0215 L 0.177,-0.0129 L 0.1795,-0.0129 L 0.1795,0.0194 L 0.2255,0.0194 L 0.2255,-0.0162 L 0.1808,-0.0162 L 0.1808,-0.0189 L 0.177,-0.0189 L 0.177,-0.0221 L 0.228,-0.0221 L 0.228,0.0215" />
      <path d="M 0.2664,0.0215 L 0.236,0.0215 L 0.236,-0.0221 L 0.2664,-0.0221 L 0.2664,0.0215 M 0.2639,-0.0162 L 0.2385,-0.0162 L 0.2385,0.0194 L 0.2639,0.0194 L 0.2639,-0.0162" />
    </g>
  </g>
  <text x="0.025500" y="-0.027175" text-anchor="middle" font-family="'Input Sans Narrow', 'DejaVu Sans', Arial, sans-serif" font-size="0.002500" font-weight="bold" fill="#333">A-A</text>
  <text x="0.025500" y="-0.023675" text-anchor="middle" font-family="'Input Sans Narrow', 'DejaVu Sans', Arial, sans-serif" font-size="0.001800" fill="#888">top_shaft</text>
  <text x="0.084500" y="-0.027175" text-anchor="middle" font-family="'Input Sans Narrow', 'DejaVu Sans', Arial, sans-serif" font-size="0.002500" font-weight="bold" fill="#333">B-B</text>
  <text x="0.084500" y="-0.023675" text-anchor="middle" font-family="'Input Sans Narrow', 'DejaVu Sans', Arial, sans-serif" font-size="0.001800" fill="#888">mid_body</text>
  <text x="0.143500" y="-0.027175" text-anchor="middle" font-family="'Input Sans Narrow', 'DejaVu Sans', Arial, sans-serif" font-size="0.002500" font-weight="bold" fill="#333">C-C</text>
  <text x="0.143500" y="-0.023675" text-anchor="middle" font-family="'Input Sans Narrow', 'DejaVu Sans', Arial, sans-serif" font-size="0.001800" fill="#888">ears</text>
  <text x="0.202500" y="-0.027175" text-anchor="middle" font-family="'Input Sans Narrow', 'DejaVu Sans', Arial, sans-serif" font-size="0.002500" font-weight="bold" fill="#333">D-D</text>
  <text x="0.202500" y="-0.023675" text-anchor="middle" font-family="'Input Sans Narrow', 'DejaVu Sans', Arial, sans-serif" font-size="0.001800" fill="#888">side_XZ</text>
  <text x="0.251200" y="-0.027175" text-anchor="middle" font-family="'Input Sans Narrow', 'DejaVu Sans', Arial, sans-serif" font-size="0.002500" font-weight="bold" fill="#333">E-E</text>
  <text x="0.251200" y="-0.023675" text-anchor="middle" font-family="'Input Sans Narrow', 'DejaVu Sans', Arial, sans-serif" font-size="0.001800" fill="#888">side_YZ</text>
  <text x="-0.001175" y="0.025775" font-family="'Input Sans Narrow', 'DejaVu Sans', Arial, sans-serif" font-size="0.003500" font-weight="bold" fill="#222">pocket_bracket</text>
  <line x1="-0.001175" y1="0.029775" x2="0.008825" y2="0.029775" stroke="#333" stroke-width="0.000350"/>
  <line x1="-0.001175" y1="0.028775" x2="-0.001175" y2="0.030775" stroke="#333" stroke-width="0.000250"/>
  <line x1="0.008825" y1="0.028775" x2="0.008825" y2="0.030775" stroke="#333" stroke-width="0.000250"/>
  <text x="0.010325" y="0.030475" font-family="'Input Sans Narrow', 'DejaVu Sans', Arial, sans-serif" font-size="0.001800" fill="#888">10 mm</text>
  <rect x="0.028825" y="0.023275" width="0.004000" height="0.002500" fill="url(#hatch_servo)" stroke="rgb(60,60,60)" stroke-width="0.000300"/>
  <text x="0.034325" y="0.025275" font-family="'Input Sans Narrow', 'DejaVu Sans', Arial, sans-serif" font-size="0.001800" fill="rgb(60,60,60)">servo</text>
  <rect x="0.028825" y="0.026775" width="0.004000" height="0.002500" fill="url(#hatch_bracket)" stroke="rgb(50,120,190)" stroke-width="0.000300"/>
  <text x="0.034325" y="0.028775" font-family="'Input Sans Narrow', 'DejaVu Sans', Arial, sans-serif" font-size="0.001800" fill="rgb(50,120,190)">bracket</text>
</svg>