<?xml version='1.0' encoding='utf-8'?>
<svg width="301.08mm" height="87.62mm" viewBox="-0.003175 -0.022525 0.301076 0.087619" version="1.1" xmlns="http://www.w3.org/2000/svg">
  <defs>
    <pattern id="hatch_servo" width="0.0012" height="0.0012" patternUnits="userSpaceOnUse" patternTransform="rotate(45)">
      <line x1="0" y1="0" x2="0" y2="0.0012" stroke="rgb(60,60,60)" stroke-width="0.0001" stroke-opacity="0.6"/>
    </pattern>
    <pattern id="hatch_coupler" width="0.0012" height="0.0012" patternUnits="userSpaceOnUse" patternTransform="rotate(75)">
      <line x1="0" y1="0" x2="0" y2="0.0012" stroke="rgb(220,60,40)" stroke-width="0.0001" stroke-opacity="0.6"/>
    </pattern>
  </defs>
  <g transform="scale(1,-1)" stroke-linecap="round">
    <g fill="none" stroke="rgb(60,60,60)" stroke-width="0.00035" id="servo">
      <circle cx="0.009789" cy="0.0" r="0.004" />
      <line x1="0.04559" y1="0.01335" x2="0.04559" y2="0.0124" />
      <line x1="0.04559" y1="0.01335" x2="0.07629" y2="0.01335" />
      <line x1="0.07629" y1="0.01335" x2="0.07629" y2="0.0124" />
      <line x1="0.04559" y1="0.0124" x2="0.07629" y2="0.0124" />
      <line x1="0.04559" y1="-0.0124" x2="0.07629" y2="-0.0124" />
      <line x1="0.07629" y1="-0.0124" x2="0.07629" y2="-0.01335" />
      <line x1="0.04559" y1="-0.01335" x2="0.07629" y2="-0.01335" />
      <line x1="0.04559" y1="-0.0124" x2="0.04559" y2="-0.01335" />
      <line x1="0.11729" y1="0.0124" x2="0.16269" y2="0.0124" />
      <line x1="0.16269" y1="0.0124" x2="0.16269" y2="-0.0124" />
      <line x1="0.11729" y1="-0.0124" x2="0.16269" y2="-0.0124" />
      <line x1="0.11729" y1="0.0124" x2="0.11729" y2="-0.0124" />
      <line x1="0.188992" y1="-0.03182" x2="0.188992" y2="-2e-05" />
      <line x1="0.188992" y1="-2e-05" x2="0.189023" y2="2e-05" />
      <line x1="0.188992" y1="-0.03182" x2="0.218992" y2="-0.03182" />
      <line x1="0.218992" y1="-0.03182" x2="0.234392" y2="-0.03182" />
      <line x1="0.234392" y1="-0.03182" x2="0.234392" y2="-2e-05" />
      <line x1="0.188992" y1="-2e-05" x2="0.234392" y2="-2e-05" />
      <line x1="0.189023" y1="2e-05" x2="0.220208" y2="2e-05" />
      <line x1="0.228208" y1="2e-05" x2="0.234423" y2="2e-05" />
      <line x1="0.234392" y1="-2e-05" x2="0.234423" y2="2e-05" />
      <path d="M 0.220208,-0.0 A 0.0040000000000000036,6.381814892975729e-06 -1.8136319151190684e-20 0,1 0.228208,-0.0" />
      <line x1="0.234423" y1="-0.03178" x2="0.234423" y2="2e-05" />
      <line x1="0.234392" y1="-0.03182" x2="0.234423" y2="-0.03178" />
      <path d="M 0.228208,0.0028 A 0.0040000000000000036,6.381814892975729e-06 -1.8136319151190684e-20 0,1 0.220208,0.0028" />
      <path d="M 0.220208,0.0028 A 0.0040000000000000036,6.381814892975729e-06 -1.8136319151190684e-20 0,1 0.228208,0.0028" />
      <line x1="0.218992" y1="-0.03598" x2="0.219023" y2="-0.03598" />
      <line x1="0.219023" y1="-0.03598" x2="0.219023" y2="-0.03182" />
      <line x1="0.188323" y1="-0.03178" x2="0.188992" y2="-0.03178" />
      <line x1="0.188323" y1="-0.03182" x2="0.188323" y2="-0.03178" />
      <line x1="0.219023" y1="-0.03598" x2="0.219024" y2="-0.035979" />
      <line x1="0.219024" y1="-0.035979" x2="0.219024" y2="-0.03182" />
      <line x1="0.188323" y1="-0.03178" x2="0.188325" y2="-0.031779" />
      <line x1="0.188325" y1="-0.031779" x2="0.188992" y2="-0.031779" />
      <line x1="0.218992" y1="-0.03602" x2="0.218992" y2="-0.03182" />
      <line x1="0.188292" y1="-0.03182" x2="0.188992" y2="-0.03182" />
      <line x1="0.218991" y1="-0.036021" x2="0.218992" y2="-0.03602" />
      <line x1="0.188291" y1="-0.036021" x2="0.218991" y2="-0.036021" />
      <line x1="0.218991" y1="-0.036021" x2="0.218991" y2="-0.031821" />
      <line x1="0.218991" y1="-0.031821" x2="0.218992" y2="-0.03182" />
      <line x1="0.188291" y1="-0.031821" x2="0.188292" y2="-0.03182" />
      <line x1="0.188291" y1="-0.031821" x2="0.218991" y2="-0.031821" />
      <line x1="0.188291" y1="-0.036021" x2="0.188291" y2="-0.031821" />
      <line x1="0.228208" y1="-0.0" x2="0.228208" y2="0.0028" />
      <line x1="0.220208" y1="-0.0" x2="0.220208" y2="0.0028" />
      <line x1="0.260976" y1="3.6e-05" x2="0.269376" y2="3.6e-05" />
      <line x1="0.277376" y1="3.6e-05" x2="0.285776" y2="3.6e-05" />
      <line x1="0.260976" y1="-0.031836" x2="0.260976" y2="-3.6e-05" />
      <line x1="0.260976" y1="3.6e-05" x2="0.260976" y2="-3.6e-05" />
      <line x1="0.285776" y1="3.6e-05" x2="0.285776" y2="-3.6e-05" />
      <line x1="0.260976" y1="-3.6e-05" x2="0.285776" y2="-3.6e-05" />
      <path d="M 0.273376,-2.6e-05 A 0.004,6.373848843995446e-06 7.189373842472463e-38 0,1 0.277376,-2e-05" />
      <path d="M 0.269376,-2e-05 A 0.004,6.373848843995446e-06 7.189373842472463e-38 0,1 0.273376,-2.6e-05" />
      <line x1="0.285776" y1="-0.031836" x2="0.285776" y2="-3.6e-05" />
      <line x1="0.260976" y1="-0.031836" x2="0.285776" y2="-0.031836" />
      <path d="M 0.273376,0.002774 A 0.004,6.373848843995446e-06 7.189373842472463e-38 0,1 0.277376,0.00278" />
      <path d="M 0.277376,0.00278 A 0.0040000000000000036,6.373848843995452e-06 7.189373842472463e-38 0,1 0.269376,0.00278" />
      <path d="M 0.269376,0.00278 A 0.004,6.373848843995446e-06 7.189373842472463e-38 0,1 0.273376,0.002774" />
      <line x1="0.285776" y1="-0.036012" x2="0.285776" y2="-0.031836" />
      <line x1="0.285776" y1="-0.036012" x2="0.286726" y2="-0.036012" />
      <line x1="0.285776" y1="-0.031812" x2="0.286726" y2="-0.031812" />
      <line x1="0.286726" y1="-0.036012" x2="0.286726" y2="-0.031812" />
      <line x1="0.285776" y1="-0.031763" x2="0.286726" y2="-0.031763" />
      <line x1="0.286726" y1="-0.031763" x2="0.286726" y2="-0.031812" />
      <line x1="0.260976" y1="-0.036012" x2="0.260976" y2="-0.031836" />
      <line x1="0.260026" y1="-0.036012" x2="0.260976" y2="-0.036012" />
      <line x1="0.260026" y1="-0.036012" x2="0.260026" y2="-0.031812" />
      <line x1="0.260026" y1="-0.031812" x2="0.260976" y2="-0.031812" />
      <line x1="0.260026" y1="-0.031763" x2="0.260976" y2="-0.031763" />
      <line x1="0.260026" y1="-0.031763" x2="0.260026" y2="-0.031812" />
      <line x1="0.277376" y1="-2e-05" x2="0.277376" y2="0.00278" />
      <line x1="0.269376" y1="-2e-05" x2="0.269376" y2="0.00278" />
    </g>
    <g fill="url(#hatch_servo)" stroke="none" stroke-width="0" id="servo_fill">
      <circle cx="0.009789" cy="0.0" r="0.004" />
      <path d="M 0.04559,0.01335 L 0.04559,0.0124 L 0.07629,0.0124 L 0.07629,0.01335 L 0.04559,0.01335" />
      <path d="M 0.07629,-0.0124 L 0.04559,-0.0124 L 0.04559,-0.01335 L 0.07629,-0.01335 L 0.07629,-0.0124" />
      <path d="M 0.16269,0.0124 L 0.11729,0.0124 L 0.11729,-0.0124 L 0.16269,-0.0124 L 0.16269,0.0124" />
    </g>
    <g fill="none" stroke="rgb(60,60,60)" stroke-opacity="0.4" stroke-width="0.00015" id="servo_hidden" stroke-dasharray="0.0018 0.00045">
      <line x1="0.189023" y1="-0.03178" x2="0.189023" y2="2e-05" />
      <line x1="0.188992" y1="-0.03182" x2="0.189023" y2="-0.03178" />
      <line x1="0.220208" y1="2e-05" x2="0.228208" y2="2e-05" />
      <path d="M 0.228208,-0.0 A 0.0040000000000000036,6.381814892975729e-06 -1.8136319151190684e-20 0,1 0.220208,-0.0" />
      <line x1="0.189023" y1="-0.03178" x2="0.219023" y2="-0.03178" />
      <line x1="0.219023" y1="-0.03178" x2="0.234423" y2="-0.03178" />
      <line x1="0.188323" y1="-0.03598" x2="0.218992" y2="-0.03598" />
      <line x1="0.219023" y1="-0.03182" x2="0.219023" y2="-0.03178" />
      <line x1="0.188992" y1="-0.03178" x2="0.189023" y2="-0.03178" />
      <line x1="0.188323" y1="-0.03598" x2="0.188323" y2="-0.03182" />
      <line x1="0.188323" y1="-0.03598" x2="0.188325" y2="-0.035979" />
      <line x1="0.188325" y1="-0.035979" x2="0.219024" y2="-0.035979" />
      <line x1="0.219023" y1="-0.03178" x2="0.219024" y2="-0.031779" />
      <line x1="0.219024" y1="-0.03182" x2="0.219024" y2="-0.031779" />
      <line x1="0.188992" y1="-0.031779" x2="0.219024" y2="-0.031779" />
      <line x1="0.188325" y1="-0.035979" x2="0.188325" y2="-0.031779" />
      <line x1="0.188292" y1="-0.03602" x2="0.218992" y2="-0.03602" />
      <line x1="0.188292" y1="-0.03602" x2="0.188292" y2="-0.03182" />
      <line x1="0.188291" y1="-0.036021" x2="0.188292" y2="-0.03602" />
      <line x1="0.260976" y1="-0.031764" x2="0.260976" y2="3.6e-05" />
      <line x1="0.269376" y1="3.6e-05" x2="0.277376" y2="3.6e-05" />
      <line x1="0.285776" y1="-0.031764" x2="0.285776" y2="3.6e-05" />
      <line x1="0.260976" y1="-0.031764" x2="0.285776" y2="-0.031764" />
      <line x1="0.260976" y1="-0.031764" x2="0.260976" y2="-0.031812" />
      <line x1="0.260976" y1="-0.031812" x2="0.260976" y2="-0.031836" />
      <path d="M 0.277376,-2e-05 A 0.0040000000000000036,6.373848843995452e-06 7.189373842472463e-38 0,1 0.269376,-2e-05" />
      <line x1="0.285776" y1="-0.031764" x2="0.285776" y2="-0.031812" />
      <line x1="0.285776" y1="-0.031812" x2="0.285776" y2="-0.031836" />
      <line x1="0.285776" y1="-0.035963" x2="0.285776" y2="-0.036012" />
      <line x1="0.285776" y1="-0.031836" x2="0.285776" y2="-0.031812" />
      <line x1="0.285776" y1="-0.031763" x2="0.285776" y2="-0.031764" />
      <line x1="0.285776" y1="-0.035963" x2="0.285776" y2="-0.031763" />
      <line x1="0.285776" y1="-0.035963" x2="0.286726" y2="-0.035963" />
      <line x1="0.286726" y1="-0.035963" x2="0.286726" y2="-0.036012" />
      <line x1="0.286726" y1="-0.035963" x2="0.286726" y2="-0.031763" />
      <line x1="0.260976" y1="-0.035963" x2="0.260976" y2="-0.036012" />
      <line x1="0.260976" y1="-0.031836" x2="0.260976" y2="-0.031812" />
      <line x1="0.260976" y1="-0.031763" x2="0.260976" y2="-0.031764" />
      <line x1="0.260976" y1="-0.035963" x2="0.260976" y2="-0.031763" />
      <line x1="0.260026" y1="-0.035963" x2="0.260976" y2="-0.035963" />
      <line x1="0.260026" y1="-0.035963" x2="0.260026" y2="-0.036012" />
      <line x1="0.260026" y1="-0.035963" x2="0.260026" y2="-0.031763" />
    </g>
    <g fill="none" stroke="rgb(220,60,40)" stroke-width="0.00035" id="coupler">
      <line x1="0.03759" y1="-0.010789" x2="0.009789" y2="-0.010789" />
      <line x1="0.03759" y1="-0.010789" x2="0.03759" y2="-0.009789" />
      <line x1="0.009789" y1="-0.010789" x2="0.009789" y2="-0.009789" />
      <line x1="0.03759" y1="-0.009789" x2="0.02759" y2="-0.009789" />
      <path d="M 0.009789,0.009789 A 0.009789105352524866,0.009789105352524866 0.0 1,1 0.009789,-0.009789" />
      <line x1="0.02759" y1="-0.009789" x2="0.02759" y2="0.009789" />
      <line x1="0.009789" y1="0.009789" x2="0.009789" y2="0.010789" />
      <line x1="0.03759" y1="0.009789" x2="0.02759" y2="0.009789" />
      <line x1="0.03759" y1="0.010789" x2="0.009789" y2="0.010789" />
      <line x1="0.03759" y1="0.009789" x2="0.03759" y2="0.010789" />
      <circle cx="0.004839" cy="-0.00495" r="0.00125" />
      <circle cx="0.009789" cy="0.0" r="0.0053" />
      <circle cx="0.014739" cy="-0.00495" r="0.00125" />
      <circle cx="0.004839" cy="0.00495" r="0.00125" />
      <circle cx="0.014739" cy="0.00495" r="0.00125" />
      <line x1="0.03759" y1="-0.009789" x2="0.02759" y2="-0.009789" />
      <line x1="0.02759" y1="-0.009789" x2="0.02759" y2="0.009789" />
      <line x1="0.03759" y1="0.009789" x2="0.02759" y2="0.009789" />
      <line x1="0.03759" y1="0.009789" x2="0.03759" y2="-0.009789" />
      <line x1="0.10929" y1="-0.010789" x2="0.08149" y2="-0.010789" />
      <line x1="0.10929" y1="-0.010789" x2="0.10929" y2="0.010789" />
      <line x1="0.10929" y1="0.010789" x2="0.08149" y2="0.010789" />
      <line x1="0.08149" y1="0.009789" x2="0.08149" y2="0.010789" />
      <path d="M 0.08149,0.009789 A 0.009789105352524866,0.009789105352524866 0.0 1,1 0.08149,-0.009789" />
      <line x1="0.08149" y1="-0.010789" x2="0.08149" y2="-0.009789" />
      <circle cx="0.07654" cy="-0.00495" r="0.00125" />
      <circle cx="0.08149" cy="0.0" r="0.0053" />
      <circle cx="0.08644" cy="-0.00495" r="0.00125" />
      <circle cx="0.07654" cy="0.00495" r="0.00125" />
      <circle cx="0.08644" cy="0.00495" r="0.00125" />
      <line x1="0.180291" y1="0.009789" x2="0.180291" y2="-0.009789" />
      <line x1="0.170291" y1="-0.009789" x2="0.180291" y2="-0.009789" />
      <line x1="0.170291" y1="0.009789" x2="0.170291" y2="-0.009789" />
      <line x1="0.170291" y1="0.009789" x2="0.180291" y2="0.009789" />
      <line x1="0.252026" y1="0.012783" x2="0.224225" y2="0.012783" />
      <line x1="0.252026" y1="0.012783" x2="0.251991" y2="0.012817" />
      <line x1="0.224225" y1="0.012783" x2="0.224223" y2="0.012784" />
      <line x1="0.251991" y1="0.012817" x2="0.224191" y2="0.012817" />
      <path d="M 0.224192,0.012816 A 0.009789105352524866,1.5711473886037303e-05 -2.9294789267481595e-20 0,1 0.214419,0.0128" />
      <path d="M 0.214419,0.0128 A 0.009789105352524866,1.5711473886037303e-05 -2.9294789267481595e-20 0,1 0.224223,0.012784" />
      <line x1="0.224192" y1="0.012816" x2="0.224191" y2="0.012817" />
      <path d="M 0.220516,0.012792 A 0.0012500000000000011,2.0062448661338747e-06 -2.9294789267481595e-20 0,1 0.218016,0.012792" />
      <path d="M 0.218016,0.012792 A 0.0012500000000000011,2.0062448661338747e-06 -2.9294789267481595e-20 0,1 0.220516,0.012792" />
      <path d="M 0.229508,0.0128 A 0.0053,8.50647823240762e-06 -2.9294789267481595e-20 0,1 0.218908,0.0128" />
      <path d="M 0.218908,0.0128 A 0.0053,8.50647823240762e-06 -2.9294789267481595e-20 0,1 0.229508,0.0128" />
      <path d="M 0.230416,0.012792 A 0.0012500000000000011,2.0062448661338747e-06 -2.9294789267481595e-20 0,1 0.227916,0.012792" />
      <path d="M 0.227916,0.012792 A 0.0012500000000000011,2.0062448661338747e-06 -2.9294789267481595e-20 0,1 0.230416,0.012792" />
      <path d="M 0.2205,0.012808 A 0.0012500000000000011,2.0062448661338747e-06 -2.9294789267481595e-20 0,1 0.218,0.012808" />
      <path d="M 0.218,0.012808 A 0.0012500000000000011,2.0062448661338747e-06 -2.9294789267481595e-20 0,1 0.2205,0.012808" />
      <path d="M 0.2304,0.012808 A 0.0012500000000000011,2.0062448661338747e-06 -2.9294789267481595e-20 0,1 0.2279,0.012808" />
      <path d="M 0.2279,0.012808 A 0.0012500000000000011,2.0062448661338747e-06 -2.9294789267481595e-20 0,1 0.2304,0.012808" />
      <line x1="0.252026" y1="0.002783" x2="0.224225" y2="0.002783" />
      <line x1="0.252026" y1="0.002783" x2="0.252026" y2="0.012783" />
      <line x1="0.224225" y1="0.002783" x2="0.224225" y2="0.012783" />
      <line x1="0.252024" y1="-0.034916" x2="0.252024" y2="0.002783" />
      <line x1="0.252026" y1="-0.034917" x2="0.252024" y2="-0.034916" />
      <line x1="0.252026" y1="-0.044917" x2="0.252026" y2="-0.034917" />
      <line x1="0.224223" y1="0.002784" x2="0.224223" y2="0.012784" />
      <line x1="0.224225" y1="0.002783" x2="0.224223" y2="0.002784" />
      <line x1="0.224191" y1="0.012816" x2="0.224191" y2="0.012817" />
      <path d="M 0.214419,0.0028 A 0.009789105352524866,1.5711473886037303e-05 -2.9294789267481595e-20 0,1 0.224223,0.002784" />
      <line x1="0.242024" y1="-0.034916" x2="0.242024" y2="0.002783" />
      <line x1="0.242024" y1="-0.034916" x2="0.252024" y2="-0.034916" />
      <line x1="0.252026" y1="-0.034917" x2="0.224225" y2="-0.034917" />
      <line x1="0.224225" y1="-0.034917" x2="0.224223" y2="-0.034916" />
      <path d="M 0.224192,-0.034884 A 0.009789105352524866,1.5711473886037303e-05 -2.9294789267481595e-20 0,1 0.214419,-0.0349" />
      <path d="M 0.214419,-0.0349 A 0.009789105352524866,1.5711473886037303e-05 -2.9294789267481595e-20 0,1 0.224223,-0.034916" />
      <line x1="0.241993" y1="-0.034884" x2="0.242024" y2="-0.034916" />
      <line x1="0.224192" y1="-0.034884" x2="0.224191" y2="-0.034883" />
      <line x1="0.241993" y1="-0.034883" x2="0.224191" y2="-0.034883" />
      <path d="M 0.220516,-0.034908 A 0.0012500000000000011,2.0062448661338747e-06 -2.9294789267481595e-20 0,1 0.218016,-0.034908" />
      <path d="M 0.218016,-0.034908 A 0.0012500000000000011,2.0062448661338747e-06 -2.9294789267481595e-20 0,1 0.220516,-0.034908" />
      <path d="M 0.229508,-0.0349 A 0.0053,8.50647823240762e-06 -2.9294789267481595e-20 0,1 0.218908,-0.0349" />
      <path d="M 0.218908,-0.0349 A 0.0053,8.50647823240762e-06 -2.9294789267481595e-20 0,1 0.229508,-0.0349" />
      <path d="M 0.230416,-0.034908 A 0.0012500000000000011,2.0062448661338747e-06 -2.9294789267481595e-20 0,1 0.227916,-0.034908" />
      <path d="M 0.227916,-0.034908 A 0.0012500000000000011,2.0062448661338747e-06 -2.9294789267481595e-20 0,1 0.230416,-0.034908" />
      <path d="M 0.2205,-0.034892 A 0.0012500000000000011,2.0062448661338747e-06 -2.9294789267481595e-20 0,1 0.218,-0.034892" />
      <path d="M 0.218,-0.034892 A 0.0012500000000000011,2.0062448661338747e-06 -2.9294789267481595e-20 0,1 0.2205,-0.034892" />
      <path d="M 0.2304,-0.034892 A 0.0012500000000000011,2.0062448661338747e-06 -2.9294789267481595e-20 0,1 0.2279,-0.034892" />
      <path d="M 0.2279,-0.034892 A 0.0012500000000000011,2.0062448661338747e-06 -2.9294789267481595e-20 0,1 0.2304,-0.034892" />
      <line x1="0.252026" y1="-0.044917" x2="0.224225" y2="-0.044917" />
      <line x1="0.224225" y1="-0.044917" x2="0.224225" y2="-0.034917" />
      <path d="M 0.214419,-0.0449 A 0.009789105352524866,1.5711473886037303e-05 -2.9294789267481595e-20 0,1 0.224223,-0.044916" />
      <line x1="0.224225" y1="-0.044917" x2="0.224223" y2="-0.044916" />
      <line x1="0.224191" y1="-0.034884" x2="0.224191" y2="-0.034883" />
      <line x1="0.241993" y1="-0.034884" x2="0.241993" y2="0.002783" />
      <line x1="0.224223" y1="-0.044916" x2="0.224223" y2="-0.034916" />
      <line x1="0.214419" y1="0.0028" x2="0.214419" y2="0.0128" />
      <line x1="0.214419" y1="-0.0449" x2="0.214419" y2="-0.0349" />
      <line x1="0.262587" y1="0.012781" x2="0.262587" y2="0.012826" />
      <line x1="0.262587" y1="0.012781" x2="0.284165" y2="0.012781" />
      <line x1="0.262587" y1="0.012826" x2="0.263587" y2="0.012826" />
      <line x1="0.284165" y1="0.012781" x2="0.284165" y2="0.012826" />
      <path d="M 0.283165,0.012826 A 0.009789105352524866,1.5736582993592302e-05 -1.2252831774749501e-36 1,1 0.263587,0.012826" />
      <line x1="0.283165" y1="0.012826" x2="0.284165" y2="0.012826" />
      <path d="M 0.268426,0.012832 A 0.00125,2.0094511228155067e-06 -1.2252831774749501e-36 0,1 0.269676,0.012834" />
      <path d="M 0.269676,0.012834 A 0.0012500000000000011,2.0094511228155084e-06 -1.2252831774749501e-36 0,1 0.267176,0.012834" />
      <path d="M 0.267176,0.012834 A 0.00125,2.0094511228155067e-06 -1.2252831774749501e-36 0,1 0.268426,0.012832" />
      <path d="M 0.273376,0.012817 A 0.0053,8.520072760737747e-06 -1.2252831774749501e-36 0,1 0.278676,0.012826" />
      <path d="M 0.278676,0.012826 A 0.0053,8.520072760737747e-06 -1.2252831774749501e-36 0,1 0.268076,0.012826" />
      <path d="M 0.268076,0.012826 A 0.0053,8.520072760737747e-06 -1.2252831774749501e-36 0,1 0.273376,0.012817" />
      <path d="M 0.268426,0.012816 A 0.00125,2.0094511228155067e-06 -1.2252831774749501e-36 0,1 0.269676,0.012818" />
      <path d="M 0.269676,0.012818 A 0.0012500000000000011,2.0094511228155084e-06 -1.2252831774749501e-36 0,1 0.267176,0.012818" />
      <path d="M 0.267176,0.012818 A 0.00125,2.0094511228155067e-06 -1.2252831774749501e-36 0,1 0.268426,0.012816" />
      <path d="M 0.278326,0.012832 A 0.00125,2.0094511228155067e-06 -1.2252831774749501e-36 0,1 0.279576,0.012834" />
      <path d="M 0.279576,0.012834 A 0.0012500000000000011,2.0094511228155084e-06 -1.2252831774749501e-36 0,1 0.277076,0.012834" />
      <path d="M 0.277076,0.012834 A 0.00125,2.0094511228155067e-06 -1.2252831774749501e-36 0,1 0.278326,0.012832" />
      <path d="M 0.278326,0.012816 A 0.00125,2.0094511228155067e-06 -1.2252831774749501e-36 0,1 0.279576,0.012818" />
      <path d="M 0.279576,0.012818 A 0.0012500000000000011,2.0094511228155084e-06 -1.2252831774749501e-36 0,1 0.277076,0.012818" />
      <path d="M 0.277076,0.012818 A 0.00125,2.0094511228155067e-06 -1.2252831774749501e-36 0,1 0.278326,0.012816" />
      <line x1="0.262587" y1="0.002781" x2="0.262587" y2="0.012781" />
      <line x1="0.262587" y1="0.002781" x2="0.263587" y2="0.002781" />
      <line x1="0.263587" y1="-0.034919" x2="0.263587" y2="0.002781" />
      <line x1="0.262587" y1="-0.034919" x2="0.263587" y2="-0.034919" />
      <line x1="0.262587" y1="-0.044919" x2="0.262587" y2="-0.034919" />
      <line x1="0.262587" y1="-0.044919" x2="0.284165" y2="-0.044919" />
      <line x1="0.284165" y1="-0.044919" x2="0.284165" y2="-0.034919" />
      <line x1="0.283165" y1="-0.034919" x2="0.284165" y2="-0.034919" />
      <line x1="0.283165" y1="-0.034919" x2="0.283165" y2="0.002781" />
      <line x1="0.283165" y1="0.002781" x2="0.284165" y2="0.002781" />
      <line x1="0.284165" y1="0.002781" x2="0.284165" y2="0.012781" />
      <line x1="0.262587" y1="-0.034919" x2="0.262587" y2="-0.034874" />
      <line x1="0.262587" y1="-0.034874" x2="0.263587" y2="-0.034874" />
      <path d="M 0.283165,-0.034874 A 0.009789105352524866,1.5736582993592302e-05 -1.2252831774749501e-36 0,1 0.282686,-0.034869" />
      <path d="M 0.264066,-0.034869 A 0.009789105352524866,1.5736582993592302e-05 -1.2252831774749501e-36 0,1 0.263587,-0.034874" />
      <line x1="0.283165" y1="-0.034874" x2="0.284165" y2="-0.034874" />
      <line x1="0.284165" y1="-0.034919" x2="0.284165" y2="-0.034874" />
    </g>
    <g fill="url(#hatch_coupler)" stroke="none" stroke-width="0" id="coupler_fill">
      <path d="M 0.03759,-0.010789 L 0.009789,-0.010789 L 0.009789,-0.009789 A 0.009789105352524866,0.009789105352524866 0.0 1,0 0.009789,0.009789 L 0.009789,0.010789 L 0.03759,0.010789 L 0.03759,0.009789 L 0.02759,0.009789 L 0.02759,-0.009789 L 0.03759,-0.009789 L 0.03759,-0.010789 M 0.006089,-0.00495 A 0.00125,0.00125 0.0 0,1 0.003589,-0.00495 A 0.00125,0.00125 0.0 0,1 0.006089,-0.00495 M 0.015089,0.0 A 0.0053,0.0053 0.0 0,1 0.004489,0.0 A 0.0053,0.0053 0.0 0,1 0.015089,-0.0 M 0.015989,-0.00495 A 0.0012500000000000002,0.0012500000000000002 0.0 0,1 0.013489,-0.00495 A 0.0012500000000000002,0.0012500000000000002 0.0 0,1 0.015989,-0.00495 M 0.006089,0.00495 A 0.00125,0.00125 0.0 0,1 0.003589,0.00495 A 0.00125,0.00125 0.0 0,1 0.006089,0.00495 M 0.015989,0.00495 A 0.0012500000000000002,0.0012500000000000002 0.0 0,1 0.013489,0.00495 A 0.0012500000000000002,0.0012500000000000002 0.0 0,1 0.015989,0.00495" />
      <path d="M 0.02759,-0.009789 L 0.03759,-0.009789 L 0.03759,0.009789 L 0.02759,0.009789 L 0.02759,-0.009789" />
      <path d="M 0.08149,-0.010789 L 0.10929,-0.010789 L 0.10929,0.010789 L 0.08149,0.010789 L 0.08149,0.009789 A 0.009789105352524866,0.009789105352524866 0.0 1,1 0.08149,-0.009789 L 0.08149,-0.010789 M 0.07779,-0.00495 A 0.0012500000000000011,0.0012500000000000011 0.0 0,0 0.07529,-0.00495 A 0.0012500000000000011,0.0012500000000000011 0.0 0,0 0.07779,-0.00495 M 0.08679,-0.0 A 0.005300000000000006,0.005300000000000006 0.0 0,0 0.07619,0.0 A 0.005300000000000006,0.005300000000000006 0.0 0,0 0.08679,0.0 M 0.08769,-0.00495 A 0.0012500000000000011,0.0012500000000000011 0.0 0,0 0.08519,-0.00495 A 0.0012500000000000011,0.0012500000000000011 0.0 0,0 0.08769,-0.00495 M 0.07779,0.00495 A 0.0012500000000000011,0.0012500000000000011 0.0 0,0 0.07529,0.00495 A 0.0012500000000000011,0.0012500000000000011 0.0 0,0 0.07779,0.00495 M 0.08769,0.00495 A 0.0012500000000000011,0.0012500000000000011 0.0 0,0 0.08519,0.00495 A 0.0012500000000000011,0.0012500000000000011 0.0 0,0 0.08769,0.00495" />
      <path d="M 0.180291,-0.009789 L 0.180291,0.009789 L 0.170291,0.009789 L 0.170291,-0.009789 L 0.180291,-0.009789" />
    </g>
    <g fill="none" stroke="rgb(220,60,40)" stroke-opacity="0.4" stroke-width="0.00015" id="coupler_hidden" stroke-dasharray="0.0018 0.00045">
      <line x1="0.252026" y1="0.002783" x2="0.252024" y2="0.002784" />
      <line x1="0.252024" y1="0.002783" x2="0.252024" y2="0.002784" />
      <line x1="0.252026" y1="-0.044917" x2="0.251991" y2="-0.044883" />
      <line x1="0.251991" y1="-0.044883" x2="0.251991" y2="-0.034883" />
      <line x1="0.251993" y1="-0.034884" x2="0.251991" y2="-0.034883" />
      <line x1="0.251993" y1="-0.034884" x2="0.251993" y2="0.002816" />
      <line x1="0.251993" y1="0.002816" x2="0.251991" y2="0.002817" />
      <line x1="0.251991" y1="0.002817" x2="0.251991" y2="0.012817" />
      <line x1="0.251991" y1="0.002817" x2="0.224191" y2="0.002817" />
      <line x1="0.224191" y1="0.002817" x2="0.224191" y2="0.012816" />
      <path d="M 0.224192,0.002816 A 0.009789105352524866,1.5711473886037303e-05 -2.9294789267481595e-20 0,1 0.214419,0.0028" />
      <line x1="0.224192" y1="0.002816" x2="0.224192" y2="0.012816" />
      <line x1="0.224192" y1="0.002816" x2="0.224191" y2="0.002817" />
      <path d="M 0.220516,0.002792 A 0.0012500000000000011,2.0062448661338747e-06 -2.9294789267481595e-20 0,1 0.218016,0.002792" />
      <path d="M 0.218016,0.002792 A 0.0012500000000000011,2.0062448661338747e-06 -2.9294789267481595e-20 0,1 0.220516,0.002792" />
      <path d="M 0.229508,0.0028 A 0.0053,8.50647823240762e-06 -2.9294789267481595e-20 0,1 0.218908,0.0028" />
      <path d="M 0.218908,0.0028 A 0.0053,8.50647823240762e-06 -2.9294789267481595e-20 0,1 0.229508,0.0028" />
      <path d="M 0.230416,0.002792 A 0.0012500000000000011,2.0062448661338747e-06 -2.9294789267481595e-20 0,1 0.227916,0.002792" />
      <path d="M 0.227916,0.002792 A 0.0012500000000000011,2.0062448661338747e-06 -2.9294789267481595e-20 0,1 0.230416,0.002792" />
      <path d="M 0.2205,0.002808 A 0.0012500000000000011,2.0062448661338747e-06 -2.9294789267481595e-20 0,1 0.218,0.002808" />
      <path d="M 0.218,0.002808 A 0.0012500000000000011,2.0062448661338747e-06 -2.9294789267481595e-20 0,1 0.2205,0.002808" />
      <path d="M 0.2304,0.002808 A 0.0012500000000000011,2.0062448661338747e-06 -2.9294789267481595e-20 0,1 0.2279,0.002808" />
      <path d="M 0.2279,0.002808 A 0.0012500000000000011,2.0062448661338747e-06 -2.9294789267481595e-20 0,1 0.2304,0.002808" />
      <line x1="0.252024" y1="0.002784" x2="0.242024" y2="0.002784" />
      <line x1="0.242024" y1="0.002784" x2="0.241993" y2="0.002816" />
      <line x1="0.251993" y1="0.002816" x2="0.241993" y2="0.002816" />
      <line x1="0.242024" y1="0.002783" x2="0.242024" y2="0.002784" />
      <line x1="0.241993" y1="-0.034884" x2="0.251993" y2="-0.034884" />
      <line x1="0.251991" y1="-0.034883" x2="0.241993" y2="-0.034883" />
      <line x1="0.251991" y1="-0.044883" x2="0.224191" y2="-0.044883" />
      <line x1="0.224192" y1="-0.044884" x2="0.224191" y2="-0.044883" />
      <path d="M 0.224192,-0.044884 A 0.009789105352524866,1.5711473886037303e-05 -2.9294789267481595e-20 0,1 0.214419,-0.0449" />
      <path d="M 0.220516,-0.044908 A 0.0012500000000000011,2.0062448661338747e-06 -2.9294789267481595e-20 0,1 0.218016,-0.044908" />
      <path d="M 0.218016,-0.044908 A 0.0012500000000000011,2.0062448661338747e-06 -2.9294789267481595e-20 0,1 0.220516,-0.044908" />
      <path d="M 0.230416,-0.044908 A 0.0012500000000000011,2.0062448661338747e-06 -2.9294789267481595e-20 0,1 0.227916,-0.044908" />
      <path d="M 0.227916,-0.044908 A 0.0012500000000000011,2.0062448661338747e-06 -2.9294789267481595e-20 0,1 0.230416,-0.044908" />
      <path d="M 0.2205,-0.044892 A 0.0012500000000000011,2.0062448661338747e-06 -2.9294789267481595e-20 0,1 0.218,-0.044892" />
      <path d="M 0.218,-0.044892 A 0.0012500000000000011,2.0062448661338747e-06 -2.9294789267481595e-20 0,1 0.2205,-0.044892" />
      <path d="M 0.229508,-0.0449 A 0.0053,8.50647823240762e-06 -2.9294789267481595e-20 0,1 0.218908,-0.0449" />
      <path d="M 0.218908,-0.0449 A 0.0053,8.50647823240762e-06 -2.9294789267481595e-20 0,1 0.229508,-0.0449" />
      <path d="M 0.2304,-0.044892 A 0.0012500000000000011,2.0062448661338747e-06 -2.9294789267481595e-20 0,1 0.2279,-0.044892" />
      <path d="M 0.2279,-0.044892 A 0.0012500000000000011,2.0062448661338747e-06 -2.9294789267481595e-20 0,1 0.2304,-0.044892" />
      <line x1="0.224191" y1="-0.044883" x2="0.224191" y2="-0.034884" />
      <line x1="0.241993" y1="0.002783" x2="0.241993" y2="0.002816" />
      <line x1="0.224192" y1="-0.044884" x2="0.224192" y2="-0.034884" />
      <line x1="0.220516" y1="0.002792" x2="0.220516" y2="0.012792" />
      <line x1="0.218016" y1="0.002792" x2="0.218016" y2="0.012792" />
      <line x1="0.229508" y1="0.0028" x2="0.229508" y2="0.0128" />
      <line x1="0.218908" y1="0.0028" x2="0.218908" y2="0.0128" />
      <line x1="0.230416" y1="0.002792" x2="0.230416" y2="0.012792" />
      <line x1="0.227916" y1="0.002792" x2="0.227916" y2="0.012792" />
      <line x1="0.2205" y1="0.002808" x2="0.2205" y2="0.012808" />
      <line x1="0.218" y1="0.002808" x2="0.218" y2="0.012808" />
      <line x1="0.2304" y1="0.002808" x2="0.2304" y2="0.012808" />
      <line x1="0.2279" y1="0.002808" x2="0.2279" y2="0.012808" />
      <line x1="0.220516" y1="-0.044908" x2="0.220516" y2="-0.034908" />
      <line x1="0.218016" y1="-0.044908" x2="0.218016" y2="-0.034908" />
      <line x1="0.229508" y1="-0.0449" x2="0.229508" y2="-0.0349" />
      <line x1="0.218908" y1="-0.0449" x2="0.218908" y2="-0.0349" />
      <line x1="0.230416" y1="-0.044908" x2="0.230416" y2="-0.034908" />
      <line x1="0.227916" y1="-0.044908" x2="0.227916" y2="-0.034908" />
      <line x1="0.2205" y1="-0.044892" x2="0.2205" y2="-0.034892" />
      <line x1="0.218" y1="-0.044892" x2="0.218" y2="-0.034892" />
      <line x1="0.2304" y1="-0.044892" x2="0.2304" y2="-0.034892" />
      <line x1="0.2279" y1="-0.044892" x2="0.2279" y2="-0.034892" />
      <line x1="0.262587" y1="0.002781" x2="0.262587" y2="0.002826" />
      <line x1="0.262587" y1="0.002826" x2="0.262587" y2="0.012826" />
      <line x1="0.263587" y1="0.002826" x2="0.263587" y2="0.012826" />
      <line x1="0.262587" y1="0.002826" x2="0.263587" y2="0.002826" />
      <line x1="0.284165" y1="0.002781" x2="0.284165" y2="0.002826" />
      <line x1="0.284165" y1="0.002826" x2="0.284165" y2="0.012826" />
      <path d="M 0.283165,0.002826 A 0.009789105352524866,1.5736582993592302e-05 -1.2252831774749501e-36 1,1 0.263587,0.002826" />
      <line x1="0.283165" y1="0.002826" x2="0.283165" y2="0.012826" />
      <line x1="0.283165" y1="0.002826" x2="0.284165" y2="0.002826" />
      <path d="M 0.268426,0.002832 A 0.00125,2.0094511228155067e-06 -1.2252831774749501e-36 0,1 0.269676,0.002834" />
      <path d="M 0.269676,0.002834 A 0.0012500000000000011,2.0094511228155084e-06 -1.2252831774749501e-36 0,1 0.267176,0.002834" />
      <path d="M 0.267176,0.002834 A 0.00125,2.0094511228155067e-06 -1.2252831774749501e-36 0,1 0.268426,0.002832" />
      <path d="M 0.273376,0.002817 A 0.0053,8.520072760737747e-06 -1.2252831774749501e-36 0,1 0.278676,0.002826" />
      <path d="M 0.278676,0.002826 A 0.0053,8.520072760737747e-06 -1.2252831774749501e-36 0,1 0.268076,0.002826" />
      <path d="M 0.268076,0.002826 A 0.0053,8.520072760737747e-06 -1.2252831774749501e-36 0,1 0.273376,0.002817" />
      <path d="M 0.268426,0.002816 A 0.00125,2.0094511228155067e-06 -1.2252831774749501e-36 0,1 0.269676,0.002818" />
      <path d="M 0.269676,0.002818 A 0.0012500000000000011,2.0094511228155084e-06 -1.2252831774749501e-36 0,1 0.267176,0.002818" />
      <path d="M 0.267176,0.002818 A 0.00125,2.0094511228155067e-06 -1.2252831774749501e-36 0,1 0.268426,0.002816" />
      <path d="M 0.278326,0.002832 A 0.00125,2.0094511228155067e-06 -1.2252831774749501e-36 0,1 0.279576,0.002834" />
      <path d="M 0.279576,0.002834 A 0.0012500000000000011,2.0094511228155084e-06 -1.2252831774749501e-36 0,1 0.277076,0.002834" />
      <path d="M 0.277076,0.002834 A 0.00125,2.0094511228155067e-06 -1.2252831774749501e-36 0,1 0.278326,0.002832" />
      <path d="M 0.278326,0.002816 A 0.00125,2.0094511228155067e-06 -1.2252831774749501e-36 0,1 0.279576,0.002818" />
      <path d="M 0.279576,0.002818 A 0.0012500000000000011,2.0094511228155084e-06 -1.2252831774749501e-36 0,1 0.277076,0.002818" />
      <path d="M 0.277076,0.002818 A 0.00125,2.0094511228155067e-06 -1.2252831774749501e-36 0,1 0.278326,0.002816" />
      <line x1="0.263587" y1="0.002781" x2="0.263587" y2="0.002797" />
      <line x1="0.263587" y1="0.002797" x2="0.283165" y2="0.002797" />
      <line x1="0.283165" y1="0.002781" x2="0.283165" y2="0.002797" />
      <line x1="0.263587" y1="-0.034903" x2="0.263587" y2="0.002797" />
      <line x1="0.263587" y1="-0.034903" x2="0.263587" y2="-0.034919" />
      <path d="M 0.282686,-0.034869 A 0.009789105352524866,1.5736582993592302e-05 -1.2252831774749501e-36 0,1 0.264066,-0.034869" />
      <line x1="0.283165" y1="-0.034903" x2="0.263587" y2="-0.034903" />
      <line x1="0.283165" y1="-0.034903" x2="0.283165" y2="-0.034919" />
      <path d="M 0.268426,-0.034868 A 0.00125,2.0094511228155067e-06 -1.2252831774749501e-36 0,1 0.269676,-0.034866" />
      <path d="M 0.269676,-0.034866 A 0.0012500000000000011,2.0094511228155084e-06 -1.2252831774749501e-36 0,1 0.267176,-0.034866" />
      <path d="M 0.267176,-0.034866 A 0.00125,2.0094511228155067e-06 -1.2252831774749501e-36 0,1 0.268426,-0.034868" />
      <path d="M 0.273376,-0.034883 A 0.0053,8.520072760737747e-06 -1.2252831774749501e-36 0,1 0.278676,-0.034874" />
      <path d="M 0.278676,-0.034874 A 0.0053,8.520072760737747e-06 -1.2252831774749501e-36 0,1 0.268076,-0.034874" />
      <path d="M 0.268076,-0.034874 A 0.0053,8.520072760737747e-06 -1.2252831774749501e-36 0,1 0.273376,-0.034883" />
      <path d="M 0.268426,-0.034884 A 0.00125,2.0094511228155067e-06 -1.2252831774749501e-36 0,1 0.269676,-0.034882" />
      <path d="M 0.269676,-0.034882 A 0.0012500000000000011,2.0094511228155084e-06 -1.2252831774749501e-36 0,1 0.267176,-0.034882" />
      <path d="M 0.267176,-0.034882 A 0.00125,2.0094511228155067e-06 -1.2252831774749501e-36 0,1 0.268426,-0.034884" />
      <path d="M 0.278326,-0.034868 A 0.00125,2.0094511228155067e-06 -1.2252831774749501e-36 0,1 0.279576,-0.034866" />
      <path d="M 0.279576,-0.034866 A 0.0012500000000000011,2.0094511228155084e-06 -1.2252831774749501e-36 0,1 0.277076,-0.034866" />
      <path d="M 0.277076,-0.034866 A 0.00125,2.0094511228155067e-06 -1.2252831774749501e-36 0,1 0.278326,-0.034868" />
      <path d="M 0.278326,-0.034884 A 0.00125,2.0094511228155067e-06 -1.2252831774749501e-36 0,1 0.279576,-0.034882" />
      <path d="M 0.279576,-0.034882 A 0.0012500000000000011,2.0094511228155084e-06 -1.2252831774749501e-36 0,1 0.277076,-0.034882" />
      <path d="M 0.277076,-0.034882 A 0.00125,2.0094511228155067e-06 -1.2252831774749501e-36 0,1 0.278326,-0.034884" />
      <line x1="0.262587" y1="-0.044919" x2="0.262587" y2="-0.044874" />
      <line x1="0.262587" y1="-0.044874" x2="0.262587" y2="-0.034874" />
      <line x1="0.284165" y1="-0.044919" x2="0.284165" y2="-0.044874" />
      <line x1="0.283165" y1="-0.044874" x2="0.284165" y2="-0.044874" />
      <path d="M 0.283165,-0.044874 A 0.009789105352524866,1.5736582993592302e-05 -1.2252831774749501e-36 1,1 0.263587,-0.044874" />
      <line x1="0.262587" y1="-0.044874" x2="0.263587" y2="-0.044874" />
      <path d="M 0.268426,-0.044868 A 0.00125,2.0094511228155067e-06 -1.2252831774749501e-36 0,1 0.269676,-0.044866" />
      <path d="M 0.269676,-0.044866 A 0.0012500000000000011,2.0094511228155084e-06 -1.2252831774749501e-36 0,1 0.267176,-0.044866" />
      <path d="M 0.267176,-0.044866 A 0.00125,2.0094511228155067e-06 -1.2252831774749501e-36 0,1 0.268426,-0.044868" />
      <path d="M 0.268426,-0.044884 A 0.00125,2.0094511228155067e-06 -1.2252831774749501e-36 0,1 0.269676,-0.044882" />
      <path d="M 0.269676,-0.044882 A 0.0012500000000000011,2.0094511228155084e-06 -1.2252831774749501e-36 0,1 0.267176,-0.044882" />
      <path d="M 0.267176,-0.044882 A 0.00125,2.0094511228155067e-06 -1.2252831774749501e-36 0,1 0.268426,-0.044884" />
      <path d="M 0.278326,-0.044868 A 0.00125,2.0094511228155067e-06 -1.2252831774749501e-36 0,1 0.279576,-0.044866" />
      <path d="M 0.279576,-0.044866 A 0.0012500000000000011,2.0094511228155084e-06 -1.2252831774749501e-36 0,1 0.277076,-0.044866" />
      <path d="M 0.277076,-0.044866 A 0.00125,2.0094511228155067e-06 -1.2252831774749501e-36 0,1 0.278326,-0.044868" />
      <path d="M 0.273376,-0.044883 A 0.0053,8.520072760737747e-06 -1.2252831774749501e-36 0,1 0.278676,-0.044874" />
      <path d="M 0.278676,-0.044874 A 0.0053,8.520072760737747e-06 -1.2252831774749501e-36 0,1 0.268076,-0.044874" />
      <path d="M 0.268076,-0.044874 A 0.0053,8.520072760737747e-06 -1.2252831774749501e-36 0,1 0.273376,-0.044883" />
      <path d="M 0.278326,-0.044884 A 0.00125,2.0094511228155067e-06 -1.2252831774749501e-36 0,1 0.279576,-0.044882" />
      <path d="M 0.279576,-0.044882 A 0.0012500000000000011,2.0094511228155084e-06 -1.2252831774749501e-36 0,1 0.277076,-0.044882" />
      <path d="M 0.277076,-0.044882 A 0.00125,2.0094511228155067e-06 -1.2252831774749501e-36 0,1 0.278326,-0.044884" />
      <line x1="0.284165" y1="-0.044874" x2="0.284165" y2="-0.034874" />
      <line x1="0.283165" y1="-0.034903" x2="0.283165" y2="0.002797" />
      <line x1="0.263587" y1="-0.044874" x2="0.263587" y2="-0.034874" />
      <line x1="0.283165" y1="-0.044874" x2="0.283165" y2="-0.034874" />
      <line x1="0.269676" y1="0.002834" x2="0.269676" y2="0.012834" />
      <line x1="0.267176" y1="0.002834" x2="0.267176" y2="0.012834" />
      <line x1="0.278676" y1="0.002826" x2="0.278676" y2="0.012826" />
      <line x1="0.268076" y1="0.002826" x2="0.268076" y2="0.012826" />
      <line x1="0.269676" y1="0.002818" x2="0.269676" y2="0.012818" />
      <line x1="0.267176" y1="0.002818" x2="0.267176" y2="0.012818" />
      <line x1="0.279576" y1="0.002834" x2="0.279576" y2="0.012834" />
      <line x1="0.277076" y1="0.002834" x2="0.277076" y2="0.012834" />
      <line x1="0.279576" y1="0.002818" x2="0.279576" y2="0.012818" />
      <line x1="0.277076" y1="0.002818" x2="0.277076" y2="0.012818" />
      <line x1="0.269676" y1="-0.044866" x2="0.269676" y2="-0.034866" />
      <line x1="0.267176" y1="-0.044866" x2="0.267176" y2="-0.034866" />
      <line x1="0.278676" y1="-0.044874" x2="0.278676" y2="-0.034874" />
      <line x1="0.268076" y1="-0.044874" x2="0.268076" y2="-0.034874" />
      <line x1="0.269676" y1="-0.044882" x2="0.269676" y2="-0.034882" />
      <line x1="0.267176" y1="-0.044882" x2="0.267176" y2="-0.034882" />
      <line x1="0.279576" y1="-0.044866" x2="0.279576" y2="-0.034866" />
      <line x1="0.277076" y1="-0.044866" x2="0.277076" y2="-0.034866" />
      <line x1="0.279576" y1="-0.044882" x2="0.279576" y2="-0.034882" />
      <line x1="0.277076" y1="-0.044882" x2="0.277076" y2="-0.034882" />
    </g>
  </g>
  <text x="0.018795" y="-0.019025" text-anchor="middle" font-family="'Input Sans Narrow', 'DejaVu Sans', Arial, sans-serif" font-size="0.002500" font-weight="bold" fill="#333">A-A</text>
  <text x="0.018795" y="-0.015525" text-anchor="middle" font-family="'Input Sans Narrow', 'DejaVu Sans', Arial, sans-serif" font-size="0.001800" fill="#888">front_horn</text>
  <line x1="0.000000" y1="0.011589" x2="0.000000" y2="0.014589" stroke="#555" stroke-width="0.000140" stroke-opacity="0.5"/>
  <line x1="0.037590" y1="0.011589" x2="0.037590" y2="0.014589" stroke="#555" stroke-width="0.000140" stroke-opacity="0.5"/>
  <line x1="0.000000" y1="0.012989" x2="0.000000" y2="0.014589" stroke="#555" stroke-width="0.000200"/>
  <line x1="0.037590" y1="0.012989" x2="0.037590" y2="0.014589" stroke="#555" stroke-width="0.000200"/>
  <line x1="0.000000" y1="0.013789" x2="0.037590" y2="0.013789" stroke="#555" stroke-width="0.000200"/>
  <polygon points="0.000000,0.013789 0.001500,0.013189 0.001500,0.014389" fill="#555"/>
  <polygon points="0.037590,0.013789 0.036090,0.013189 0.036090,0.014389" fill="#555"/>
  <text x="0.018795" y="0.012589" text-anchor="middle" font-family="'Input Sans Narrow', 'DejaVu Sans', Arial, sans-serif" font-size="0.001600" fill="#555">37.6</text>
  <line x1="0.038390" y1="-0.010789" x2="0.041390" y2="-0.010789" stroke="#555" stroke-width="0.000140" stroke-opacity="0.5"/>
  <line x1="0.038390" y1="0.010789" x2="0.041390" y2="0.010789" stroke="#555" stroke-width="0.000140" stroke-opacity="0.5"/>
  <line x1="0.039790" y1="-0.010789" x2="0.041390" y2="-0.010789" stroke="#555" stroke-width="0.000200"/>
  <line x1="0.039790" y1="0.010789" x2="0.041390" y2="0.010789" stroke="#555" stroke-width="0.000200"/>
  <line x1="0.040590" y1="-0.010789" x2="0.040590" y2="0.010789" stroke="#555" stroke-width="0.000200"/>
  <polygon points="0.040590,-0.010789 0.039990,-0.009289 0.041190,-0.009289" fill="#555"/>
  <polygon points="0.040590,0.010789 0.039990,0.009289 0.041190,0.009289" fill="#555"/>
  <text x="0.042090" y="0.000000" text-anchor="middle" dominant-baseline="central" font-family="'Input Sans Narrow', 'DejaVu Sans', Arial, sans-serif" font-size="0.001600" fill="#555" transform="rotate(-90 0.042090 0.000000)">21.6</text>
  <text x="0.077440" y="-0.019025" text-anchor="middle" font-family="'Input Sans Narrow', 'DejaVu Sans', Arial, sans-serif" font-size="0.002500" font-weight="bold" fill="#333">B-B</text>
  <text x="0.077440" y="-0.015525" text-anchor="middle" font-family="'Input Sans Narrow', 'DejaVu Sans', Arial, sans-serif" font-size="0.001800" fill="#888">rear_horn</text>
  <line x1="0.045590" y1="0.014150" x2="0.045590" y2="0.017150" stroke="#555" stroke-width="0.000140" stroke-opacity="0.5"/>
  <line x1="0.109290" y1="0.014150" x2="0.109290" y2="0.017150" stroke="#555" stroke-width="0.000140" stroke-opacity="0.5"/>
  <line x1="0.045590" y1="0.015550" x2="0.045590" y2="0.017150" stroke="#555" stroke-width="0.000200"/>
  <line x1="0.109290" y1="0.015550" x2="0.109290" y2="0.017150" stroke="#555" stroke-width="0.000200"/>
  <line x1="0.045590" y1="0.016350" x2="0.109290" y2="0.016350" stroke="#555" stroke-width="0.000200"/>
  <polygon points="0.045590,0.016350 0.047090,0.015750 0.047090,0.016950" fill="#555"/>
  <polygon points="0.109290,0.016350 0.107790,0.015750 0.107790,0.016950" fill="#555"/>
  <text x="0.077440" y="0.015150" text-anchor="middle" font-family="'Input Sans Narrow', 'DejaVu Sans', Arial, sans-serif" font-size="0.001600" fill="#555">63.7</text>
  <line x1="0.110090" y1="-0.013350" x2="0.113090" y2="-0.013350" stroke="#555" stroke-width="0.000140" stroke-opacity="0.5"/>
  <line x1="0.110090" y1="0.013350" x2="0.113090" y2="0.013350" stroke="#555" stroke-width="0.000140" stroke-opacity="0.5"/>
  <line x1="0.111490" y1="-0.013350" x2="0.113090" y2="-0.013350" stroke="#555" stroke-width="0.000200"/>
  <line x1="0.111490" y1="0.013350" x2="0.113090" y2="0.013350" stroke="#555" stroke-width="0.000200"/>
  <line x1="0.112290" y1="-0.013350" x2="0.112290" y2="0.013350" stroke="#555" stroke-width="0.000200"/>
  <polygon points="0.112290,-0.013350 0.111690,-0.011850 0.112890,-0.011850" fill="#555"/>
  <polygon points="0.112290,0.013350 0.111690,0.011850 0.112890,0.011850" fill="#555"/>
  <text x="0.113790" y="-0.000000" text-anchor="middle" dominant-baseline="central" font-family="'Input Sans Narrow', 'DejaVu Sans', Arial, sans-serif" font-size="0.001600" fill="#555" transform="rotate(-90 0.113790 -0.000000)">26.7</text>
  <text x="0.148791" y="-0.019025" text-anchor="middle" font-family="'Input Sans Narrow', 'DejaVu Sans', Arial, sans-serif" font-size="0.002500" font-weight="bold" fill="#333">C-C</text>
  <text x="0.148791" y="-0.015525" text-anchor="middle" font-family="'Input Sans Narrow', 'DejaVu Sans', Arial, sans-serif" font-size="0.001800" fill="#888">mid_body</text>
  <line x1="0.117290" y1="0.013200" x2="0.117290" y2="0.016200" stroke="#555" stroke-width="0.000140" stroke-opacity="0.5"/>
  <line x1="0.180291" y1="0.013200" x2="0.180291" y2="0.016200" stroke="#555" stroke-width="0.000140" stroke-opacity="0.5"/>
  <line x1="0.117290" y1="0.014600" x2="0.117290" y2="0.016200" stroke="#555" stroke-width="0.000200"/>
  <line x1="0.180291" y1="0.014600" x2="0.180291" y2="0.016200" stroke="#555" stroke-width="0.000200"/>
  <line x1="0.117290" y1="0.015400" x2="0.180291" y2="0.015400" stroke="#555" stroke-width="0.000200"/>
  <polygon points="0.117290,0.015400 0.118790,0.014800 0.118790,0.016000" fill="#555"/>
  <polygon points="0.180291,0.015400 0.178791,0.014800 0.178791,0.016000" fill="#555"/>
  <text x="0.148791" y="0.014200" text-anchor="middle" font-family="'Input Sans Narrow', 'DejaVu Sans', Arial, sans-serif" font-size="0.001600" fill="#555">63.0</text>
  <line x1="0.181091" y1="-0.012400" x2="0.184091" y2="-0.012400" stroke="#555" stroke-width="0.000140" stroke-opacity="0.5"/>
  <line x1="0.181091" y1="0.012400" x2="0.184091" y2="0.012400" stroke="#555" stroke-width="0.000140" stroke-opacity="0.5"/>
  <line x1="0.182491" y1="-0.012400" x2="0.184091" y2="-0.012400" stroke="#555" stroke-width="0.000200"/>
  <line x1="0.182491" y1="0.012400" x2="0.184091" y2="0.012400" stroke="#555" stroke-width="0.000200"/>
  <line x1="0.183291" y1="-0.012400" x2="0.183291" y2="0.012400" stroke="#555" stroke-width="0.000200"/>
  <polygon points="0.183291,-0.012400 0.182691,-0.010900 0.183891,-0.010900" fill="#555"/>
  <polygon points="0.183291,0.012400 0.182691,0.010900 0.183891,0.010900" fill="#555"/>
  <text x="0.184791" y="0.000000" text-anchor="middle" dominant-baseline="central" font-family="'Input Sans Narrow', 'DejaVu Sans', Arial, sans-serif" font-size="0.001600" fill="#555" transform="rotate(-90 0.184791 0.000000)">24.8</text>
  <text x="0.220158" y="-0.019025" text-anchor="middle" font-family="'Input Sans Narrow', 'DejaVu Sans', Arial, sans-serif" font-size="0.002500" font-weight="bold" fill="#333">side_XZ</text>
  <line x1="0.188291" y1="0.045717" x2="0.188291" y2="0.048717" stroke="#555" stroke-width="0.000140" stroke-opacity="0.5"/>
  <line x1="0.252026" y1="0.045717" x2="0.252026" y2="0.048717" stroke="#555" stroke-width="0.000140" stroke-opacity="0.5"/>
  <line x1="0.188291" y1="0.047117" x2="0.188291" y2="0.048717" stroke="#555" stroke-width="0.000200"/>
  <line x1="0.252026" y1="0.047117" x2="0.252026" y2="0.048717" stroke="#555" stroke-width="0.000200"/>
  <line x1="0.188291" y1="0.047917" x2="0.252026" y2="0.047917" stroke="#555" stroke-width="0.000200"/>
  <polygon points="0.188291,0.047917 0.189791,0.047317 0.189791,0.048517" fill="#555"/>
  <polygon points="0.252026,0.047917 0.250526,0.047317 0.250526,0.048517" fill="#555"/>
  <text x="0.220158" y="0.046717" text-anchor="middle" font-family="'Input Sans Narrow', 'DejaVu Sans', Arial, sans-serif" font-size="0.001600" fill="#555">63.7</text>
  <line x1="0.252826" y1="-0.012817" x2="0.255826" y2="-0.012817" stroke="#555" stroke-width="0.000140" stroke-opacity="0.5"/>
  <line x1="0.252826" y1="0.044917" x2="0.255826" y2="0.044917" stroke="#555" stroke-width="0.000140" stroke-opacity="0.5"/>
  <line x1="0.254226" y1="-0.012817" x2="0.255826" y2="-0.012817" stroke="#555" stroke-width="0.000200"/>
  <line x1="0.254226" y1="0.044917" x2="0.255826" y2="0.044917" stroke="#555" stroke-width="0.000200"/>
  <line x1="0.255026" y1="-0.012817" x2="0.255026" y2="0.044917" stroke="#555" stroke-width="0.000200"/>
  <polygon points="0.255026,-0.012817 0.254426,-0.011317 0.255626,-0.011317" fill="#555"/>
  <polygon points="0.255026,0.044917 0.254426,0.043417 0.255626,0.043417" fill="#555"/>
  <text x="0.256526" y="0.016050" text-anchor="middle" dominant-baseline="central" font-family="'Input Sans Narrow', 'DejaVu Sans', Arial, sans-serif" font-size="0.001600" fill="#555" transform="rotate(-90 0.256526 0.016050)">57.7</text>
  <line x1="0.185291" y1="-0.002800" x2="0.255026" y2="-0.002800" stroke="#555" stroke-width="0.000250" stroke-dasharray="0.002500,0.000800,0.000500,0.000800"/>
  <text x="0.183791" y="-0.002200" text-anchor="end" font-family="'Input Sans Narrow', 'DejaVu Sans', Arial, sans-serif" font-size="0.002000" font-weight="bold" fill="#555">A</text>
  <text x="0.256526" y="-0.002200" text-anchor="start" font-family="'Input Sans Narrow', 'DejaVu Sans', Arial, sans-serif" font-size="0.002000" font-weight="bold" fill="#555">A</text>
  <line x1="0.185291" y1="0.034900" x2="0.255026" y2="0.034900" stroke="#555" stroke-width="0.000250" stroke-dasharray="0.002500,0.000800,0.000500,0.000800"/>
  <text x="0.183791" y="0.035500" text-anchor="end" font-family="'Input Sans Narrow', 'DejaVu Sans', Arial, sans-serif" font-size="0.002000" font-weight="bold" fill="#555">B</text>
  <text x="0.256526" y="0.035500" text-anchor="start" font-family="'Input Sans Narrow', 'DejaVu Sans', Arial, sans-serif" font-size="0.002000" font-weight="bold" fill="#555">B</text>
  <line x1="0.185291" y1="0.016050" x2="0.255026" y2="0.016050" stroke="#555" stroke-width="0.000250" stroke-dasharray="0.002500,0.000800,0.000500,0.000800"/>
  <text x="0.183791" y="0.016650" text-anchor="end" font-family="'Input Sans Narrow', 'DejaVu Sans', Arial, sans-serif" font-size="0.002000" font-weight="bold" fill="#555">C</text>
  <text x="0.256526" y="0.016650" text-anchor="start" font-family="'Input Sans Narrow', 'DejaVu Sans', Arial, sans-serif" font-size="0.002000" font-weight="bold" fill="#555">C</text>
  <text x="0.273376" y="-0.019025" text-anchor="middle" font-family="'Input Sans Narrow', 'DejaVu Sans', Arial, sans-serif" font-size="0.002500" font-weight="bold" fill="#333">side_YZ</text>
  <line x1="0.260026" y1="0.045719" x2="0.260026" y2="0.048719" stroke="#555" stroke-width="0.000140" stroke-opacity="0.5"/>
  <line x1="0.286726" y1="0.045719" x2="0.286726" y2="0.048719" stroke="#555" stroke-width="0.000140" stroke-opacity="0.5"/>
  <line x1="0.260026" y1="0.047119" x2="0.260026" y2="0.048719" stroke="#555" stroke-width="0.000200"/>
  <line x1="0.286726" y1="0.047119" x2="0.286726" y2="0.048719" stroke="#555" stroke-width="0.000200"/>
  <line x1="0.260026" y1="0.047919" x2="0.286726" y2="0.047919" stroke="#555" stroke-width="0.000200"/>
  <polygon points="0.260026,0.047919 0.261526,0.047319 0.261526,0.048519" fill="#555"/>
  <polygon points="0.286726,0.047919 0.285226,0.047319 0.285226,0.048519" fill="#555"/>
  <text x="0.273376" y="0.046719" text-anchor="middle" font-family="'Input Sans Narrow', 'DejaVu Sans', Arial, sans-serif" font-size="0.001600" fill="#555">26.7</text>
  <line x1="0.287526" y1="-0.012841" x2="0.290526" y2="-0.012841" stroke="#555" stroke-width="0.000140" stroke-opacity="0.5"/>
  <line x1="0.287526" y1="0.044919" x2="0.290526" y2="0.044919" stroke="#555" stroke-width="0.000140" stroke-opacity="0.5"/>
  <line x1="0.288926" y1="-0.012841" x2="0.290526" y2="-0.012841" stroke="#555" stroke-width="0.000200"/>
  <line x1="0.288926" y1="0.044919" x2="0.290526" y2="0.044919" stroke="#555" stroke-width="0.000200"/>
  <line x1="0.289726" y1="-0.012841" x2="0.289726" y2="0.044919" stroke="#555" stroke-width="0.000200"/>
  <polygon points="0.289726,-0.012841 0.289126,-0.011341 0.290326,-0.011341" fill="#555"/>
  <polygon points="0.289726,0.044919 0.289126,0.043419 0.290326,0.043419" fill="#555"/>
  <text x="0.291226" y="0.016039" text-anchor="middle" dominant-baseline="central" font-family="'Input Sans Narrow', 'DejaVu Sans', Arial, sans-serif" font-size="0.001600" fill="#555" transform="rotate(-90 0.291226 0.016039)">57.8</text>
  <line x1="0.257026" y1="-0.002800" x2="0.289726" y2="-0.002800" stroke="#555" stroke-width="0.000250" stroke-dasharray="0.002500,0.000800,0.000500,0.000800"/>
  <text x="0.255526" y="-0.002200" text-anchor="end" font-family="'Input Sans Narrow', 'DejaVu Sans', Arial, sans-serif" font-size="0.002000" font-weight="bold" fill="#555">A</text>
  <text x="0.291226" y="-0.002200" text-anchor="start" font-family="'Input Sans Narrow', 'DejaVu Sans', Arial, sans-serif" font-size="0.002000" font-weight="bold" fill="#555">A</text>
  <line x1="0.257026" y1="0.034900" x2="0.289726" y2="0.034900" stroke="#555" stroke-width="0.000250" stroke-dasharray="0.002500,0.000800,0.000500,0.000800"/>
  <text x="0.255526" y="0.035500" text-anchor="end" font-family="'Input Sans Narrow', 'DejaVu Sans', Arial, sans-serif" font-size="0.002000" font-weight="bold" fill="#555">B</text>
  <text x="0.291226" y="0.035500" text-anchor="start" font-family="'Input Sans Narrow', 'DejaVu Sans', Arial, sans-serif" font-size="0.002000" font-weight="bold" fill="#555">B</text>
  <line x1="0.257026" y1="0.016050" x2="0.289726" y2="0.016050" stroke="#555" stroke-width="0.000250" stroke-dasharray="0.002500,0.000800,0.000500,0.000800"/>
  <text x="0.255526" y="0.016650" text-anchor="end" font-family="'Input Sans Narrow', 'DejaVu Sans', Arial, sans-serif" font-size="0.002000" font-weight="bold" fill="#555">C</text>
  <text x="0.291226" y="0.016650" text-anchor="start" font-family="'Input Sans Narrow', 'DejaVu Sans', Arial, sans-serif" font-size="0.002000" font-weight="bold" fill="#555">C</text>
  <text x="-0.001175" y="0.053094" font-family="'Input Sans Narrow', 'DejaVu Sans', Arial, sans-serif" font-size="0.003500" font-weight="bold" fill="#222">coupler</text>
  <line x1="-0.001175" y1="0.057094" x2="0.008825" y2="0.057094" stroke="#333" stroke-width="0.000350"/>
  <line x1="-0.001175" y1="0.056094" x2="-0.001175" y2="0.058094" stroke="#333" stroke-width="0.000250"/>
  <line x1="0.008825" y1="0.056094" x2="0.008825" y2="0.058094" stroke="#333" stroke-width="0.000250"/>
  <text x="0.010325" y="0.057794" font-family="'Input Sans Narrow', 'DejaVu Sans', Arial, sans-serif" font-size="0.001800" fill="#888">10 mm</text>
  <rect x="0.028825" y="0.050594" width="0.004000" height="0.002500" fill="url(#hatch_servo)" stroke="rgb(60,60,60)" stroke-width="0.000300"/>
  <text x="0.034325" y="0.052594" font-family="'Input Sans Narrow', 'DejaVu Sans', Arial, sans-serif" font-size="0.001800" fill="rgb(60,60,60)">servo</text>
  <rect x="0.028825" y="0.054094" width="0.004000" height="0.002500" fill="url(#hatch_coupler)" stroke="rgb(220,60,40)" stroke-width="0.000300"/>
  <text x="0.034325" y="0.056094" font-family="'Input Sans Narrow', 'DejaVu Sans', Arial, sans-serif" font-size="0.001800" fill="rgb(220,60,40)">coupler</text>
</svg>