<?xml version='1.0' encoding='utf-8'?>
<svg width="300.04mm" height="88.46mm" viewBox="-0.003175 -0.024375 0.300043 0.088465" version="1.1" xmlns="http://www.w3.org/2000/svg">
  <defs>
    <pattern id="hatch_cradle" width="0.0012" height="0.0012" patternUnits="userSpaceOnUse" patternTransform="rotate(45)">
      <line x1="0" y1="0" x2="0" y2="0.0012" stroke="rgb(50,120,190)" stroke-width="0.0001" stroke-opacity="0.6"/>
    </pattern>
    <pattern id="hatch_servo" width="0.0012" height="0.0012" patternUnits="userSpaceOnUse" patternTransform="rotate(75)">
      <line x1="0" y1="0" x2="0" y2="0.0012" stroke="rgb(60,60,60)" stroke-width="0.0001" stroke-opacity="0.6"/>
    </pattern>
    <pattern id="hatch_coupler" width="0.0012" height="0.0012" patternUnits="userSpaceOnUse" patternTransform="rotate(105)">
      <line x1="0" y1="0" x2="0" y2="0.0012" stroke="rgb(220,60,40)" stroke-width="0.0001" stroke-opacity="0.6"/>
    </pattern>
  </defs>
  <g transform="scale(1,-1)" stroke-linecap="round">
    <g fill="none" stroke="rgb(50,120,190)" stroke-width="0.00035" id="cradle">
      <line x1="0.0" y1="0.0152" x2="0.008366" y2="0.0152" />
      <line x1="0.008366" y1="0.0152" x2="0.008366" y2="-0.0152" />
      <line x1="0.0" y1="-0.0152" x2="0.008366" y2="-0.0152" />
      <line x1="0.0" y1="0.0152" x2="0.0" y2="-0.0152" />
      <line x1="0.073406" y1="0.0152" x2="0.081772" y2="0.0152" />
      <line x1="0.081772" y1="0.0152" x2="0.081772" y2="0.0127" />
      <line x1="0.075906" y1="0.0127" x2="0.081772" y2="0.0127" />
      <line x1="0.075906" y1="0.0127" x2="0.075906" y2="-0.0127" />
      <line x1="0.075906" y1="-0.0127" x2="0.081772" y2="-0.0127" />
      <line x1="0.081772" y1="-0.0127" x2="0.081772" y2="-0.0152" />
      <line x1="0.073406" y1="-0.0152" x2="0.081772" y2="-0.0152" />
      <line x1="0.073406" y1="0.0152" x2="0.073406" y2="-0.0152" />
      <line x1="0.146812" y1="0.0152" x2="0.155179" y2="0.0152" />
      <line x1="0.155179" y1="0.0152" x2="0.155179" y2="0.011945" />
      <path d="M 0.155179,0.011945 A 0.0017,0.0017 0.0 0,1 0.155179,0.008555" />
      <line x1="0.155179" y1="0.008555" x2="0.155179" y2="-0.008555" />
      <path d="M 0.155179,-0.008555 A 0.0017,0.0017 0.0 0,1 0.155179,-0.011945" />
      <line x1="0.155179" y1="-0.011945" x2="0.155179" y2="-0.0152" />
      <line x1="0.146812" y1="-0.0152" x2="0.155179" y2="-0.0152" />
      <line x1="0.146812" y1="-0.00455" x2="0.146812" y2="-0.0152" />
      <line x1="0.146812" y1="-0.00455" x2="0.150212" y2="-0.00455" />
      <line x1="0.150212" y1="0.00455" x2="0.150212" y2="-0.00455" />
      <line x1="0.146812" y1="0.00455" x2="0.150212" y2="0.00455" />
      <line x1="0.146812" y1="0.0152" x2="0.146812" y2="0.00455" />
      <line x1="0.220219" y1="-0.037777" x2="0.220219" y2="0.002773" />
      <line x1="0.220219" y1="0.002773" x2="0.220325" y2="0.002827" />
      <line x1="0.220219" y1="-0.037777" x2="0.228585" y2="-0.037777" />
      <line x1="0.228585" y1="-0.037777" x2="0.228585" y2="0.002773" />
      <line x1="0.220219" y1="0.002773" x2="0.228585" y2="0.002773" />
      <line x1="0.220325" y1="0.002827" x2="0.228691" y2="0.002827" />
      <line x1="0.228585" y1="0.002773" x2="0.228691" y2="0.002827" />
      <path d="M 0.228612,-0.037763 A 0.00295,5.222496328932063e-06 -3.979381807949067e-20 0,1 0.228592,-0.037763" />
      <line x1="0.228585" y1="-0.037777" x2="0.228592" y2="-0.037773" />
      <line x1="0.228684" y1="-0.037727" x2="0.228691" y2="-0.037723" />
      <path d="M 0.228684,-0.037727 A 0.00295,5.222496328932063e-06 -3.979381807949067e-20 0,1 0.228663,-0.037727" />
      <line x1="0.228612" y1="-0.037763" x2="0.228663" y2="-0.037737" />
      <line x1="0.228691" y1="-0.037723" x2="0.228691" y2="0.002827" />
      <line x1="0.228684" y1="-0.037727" x2="0.228684" y2="-0.035227" />
      <line x1="0.228684" y1="-0.035227" x2="0.22868" y2="-0.035229" />
      <line x1="0.22868" y1="-0.035229" x2="0.22868" y2="-0.032879" />
      <line x1="0.228682" y1="-0.032878" x2="0.22868" y2="-0.032879" />
      <line x1="0.228682" y1="-0.032878" x2="0.228682" y2="0.000322" />
      <line x1="0.228682" y1="0.000322" x2="0.228593" y2="0.000277" />
      <line x1="0.228593" y1="-0.032922" x2="0.228593" y2="0.000277" />
      <line x1="0.228596" y1="-0.032921" x2="0.228593" y2="-0.032922" />
      <line x1="0.228596" y1="-0.035271" x2="0.228596" y2="-0.032921" />
      <line x1="0.228596" y1="-0.035271" x2="0.228592" y2="-0.035273" />
      <line x1="0.228592" y1="-0.037773" x2="0.228592" y2="-0.035273" />
      <line x1="0.228612" y1="-0.037763" x2="0.228612" y2="-0.035263" />
      <line x1="0.228663" y1="-0.037737" x2="0.228663" y2="-0.035237" />
      <line x1="0.228612" y1="-0.035263" x2="0.228608" y2="-0.035265" />
      <line x1="0.228608" y1="-0.035265" x2="0.228608" y2="-0.032915" />
      <line x1="0.228668" y1="-0.032885" x2="0.228608" y2="-0.032915" />
      <line x1="0.228668" y1="-0.035235" x2="0.228668" y2="-0.032885" />
      <line x1="0.228668" y1="-0.035235" x2="0.228663" y2="-0.035237" />
      <line x1="0.228593" y1="-0.032878" x2="0.228682" y2="-0.032878" />
      <path d="M 0.22868,-0.032879 A 0.0017,3.009574155655765e-06 -3.979381807949067e-20 0,1 0.228593,-0.032879" />
      <path d="M 0.228593,-0.032885 A 0.0017,3.009574155655765e-06 -3.979381807949067e-20 0,1 0.228668,-0.032885" />
      <path d="M 0.228608,-0.032915 A 0.0017,3.009574155655765e-06 -3.979381807949067e-20 0,1 0.228593,-0.032915" />
      <path d="M 0.228593,-0.032921 A 0.0017,3.009574155655765e-06 -3.979381807949067e-20 0,1 0.228596,-0.032921" />
      <path d="M 0.22868,-0.035229 A 0.0017,3.009574155655765e-06 -3.979381807949067e-20 0,1 0.228668,-0.035229" />
      <path d="M 0.228608,-0.035265 A 0.0017,3.009574155655765e-06 -3.979381807949067e-20 0,1 0.228596,-0.035265" />
    </g>
    <g fill="url(#hatch_cradle)" stroke="none" stroke-width="0" id="cradle_fill">
      <path d="M 0.008366,0.0152 L 0.0,0.0152 L 0.0,-0.0152 L 0.008366,-0.0152 L 0.008366,0.0152" />
      <path d="M 0.081772,0.0152 L 0.073406,0.0152 L 0.073406,-0.0152 L 0.081772,-0.0152 L 0.081772,-0.0127 L 0.075906,-0.0127 L 0.075906,0.0127 L 0.081772,0.0127 L 0.081772,0.0152" />
      <path d="M 0.155179,0.0152 L 0.146812,0.0152 L 0.146812,0.00455 L 0.150212,0.00455 L 0.150212,-0.00455 L 0.146812,-0.00455 L 0.146812,-0.0152 L 0.155179,-0.0152 L 0.155179,-0.011945 A 0.0017,0.0017 0.0 0,0 0.155179,-0.008555 L 0.155179,0.008555 A 0.0017,0.0017 0.0 0,0 0.155179,0.011945 L 0.155179,0.0152" />
    </g>
    <g fill="none" stroke="rgb(50,120,190)" stroke-opacity="0.4" stroke-width="0.00015" id="cradle_hidden" stroke-dasharray="0.0018 0.00045">
      <line x1="0.220219" y1="-0.037777" x2="0.220325" y2="-0.037723" />
      <line x1="0.220325" y1="-0.037723" x2="0.220325" y2="0.002827" />
      <line x1="0.220288" y1="-0.036392" x2="0.220256" y2="-0.036408" />
      <line x1="0.220288" y1="-0.036392" x2="0.220288" y2="-0.028792" />
      <line x1="0.220288" y1="-0.028792" x2="0.220256" y2="-0.028808" />
      <line x1="0.220256" y1="-0.036408" x2="0.220256" y2="-0.028808" />
      <path d="M 0.228592,-0.037763 A 0.00295,5.222496328932063e-06 -3.979381807949067e-20 0,1 0.225786,-0.037768" />
      <path d="M 0.225786,-0.037768 A 0.00295,5.222496328932063e-06 -3.979381807949067e-20 0,1 0.228592,-0.037773" />
      <line x1="0.220325" y1="-0.037723" x2="0.228691" y2="-0.037723" />
      <path d="M 0.228663,-0.037727 A 0.00295,5.222496328932063e-06 -3.979381807949067e-20 0,1 0.225857,-0.037732" />
      <path d="M 0.225857,-0.037732 A 0.00295,5.222496328932063e-06 -3.979381807949067e-20 0,1 0.228663,-0.037737" />
      <line x1="0.220288" y1="-0.036392" x2="0.223688" y2="-0.036392" />
      <line x1="0.223656" y1="-0.036408" x2="0.223688" y2="-0.036392" />
      <line x1="0.220256" y1="-0.036408" x2="0.223656" y2="-0.036408" />
      <line x1="0.223688" y1="-0.036392" x2="0.223688" y2="-0.032892" />
      <line x1="0.223688" y1="-0.032892" x2="0.222788" y2="-0.032892" />
      <line x1="0.222788" y1="-0.032892" x2="0.222788" y2="-0.028792" />
      <line x1="0.220288" y1="-0.028792" x2="0.222788" y2="-0.028792" />
      <line x1="0.222788" y1="-0.028792" x2="0.222756" y2="-0.028808" />
      <line x1="0.220256" y1="-0.028808" x2="0.222756" y2="-0.028808" />
      <line x1="0.223656" y1="-0.036408" x2="0.223656" y2="-0.032908" />
      <line x1="0.223656" y1="-0.032908" x2="0.222756" y2="-0.032908" />
      <line x1="0.222756" y1="-0.032908" x2="0.222756" y2="-0.028808" />
      <path d="M 0.228612,-0.035263 A 0.00295,5.222496328932063e-06 -3.979381807949067e-20 0,1 0.225786,-0.035268" />
      <path d="M 0.225786,-0.035268 A 0.00295,5.222496328932063e-06 -3.979381807949067e-20 0,1 0.228592,-0.035273" />
      <path d="M 0.228684,-0.035227 A 0.00295,5.222496328932063e-06 -3.979381807949067e-20 0,1 0.225857,-0.035232" />
      <path d="M 0.225857,-0.035232 A 0.00295,5.222496328932063e-06 -3.979381807949067e-20 0,1 0.228663,-0.035237" />
      <line x1="0.223656" y1="-0.032908" x2="0.223688" y2="-0.032892" />
      <line x1="0.222816" y1="-0.032877" x2="0.228593" y2="-0.032878" />
      <path d="M 0.228593,-0.032879 A 0.0017,3.009574155655765e-06 -3.979381807949067e-20 0,1 0.227107,-0.032882" />
      <path d="M 0.227107,-0.032882 A 0.0017,3.009574155655765e-06 -3.979381807949067e-20 0,1 0.228593,-0.032885" />
      <path d="M 0.228593,-0.032915 A 0.0017,3.009574155655765e-06 -3.979381807949067e-20 0,1 0.227036,-0.032918" />
      <path d="M 0.227036,-0.032918 A 0.0017,3.009574155655765e-06 -3.979381807949067e-20 0,1 0.228593,-0.032921" />
      <line x1="0.222727" y1="-0.032922" x2="0.228593" y2="-0.032922" />
      <line x1="0.222727" y1="-0.032922" x2="0.222756" y2="-0.032908" />
      <line x1="0.222788" y1="-0.032892" x2="0.222816" y2="-0.032877" />
      <line x1="0.222727" y1="0.000277" x2="0.222816" y2="0.000322" />
      <line x1="0.222816" y1="-0.032877" x2="0.222816" y2="0.000322" />
      <line x1="0.222727" y1="-0.032922" x2="0.222727" y2="0.000277" />
      <path d="M 0.228668,-0.035229 A 0.0017,3.009574155655765e-06 -3.979381807949067e-20 0,1 0.227107,-0.035232" />
      <path d="M 0.227107,-0.035232 A 0.0017,3.009574155655765e-06 -3.979381807949067e-20 0,1 0.228668,-0.035235" />
      <line x1="0.222816" y1="0.000322" x2="0.228682" y2="0.000322" />
      <line x1="0.222727" y1="0.000277" x2="0.228593" y2="0.000277" />
      <path d="M 0.228596,-0.035265 A 0.0017,3.009574155655765e-06 -3.979381807949067e-20 0,1 0.227036,-0.035268" />
      <path d="M 0.227036,-0.035268 A 0.0017,3.009574155655765e-06 -3.979381807949067e-20 0,1 0.228596,-0.035271" />
      <line x1="0.225786" y1="-0.037768" x2="0.225786" y2="-0.035268" />
      <line x1="0.225857" y1="-0.037732" x2="0.225857" y2="-0.035232" />
      <line x1="0.227107" y1="-0.035232" x2="0.227107" y2="-0.032882" />
      <line x1="0.227036" y1="-0.035268" x2="0.227036" y2="-0.032918" />
    </g>
    <g fill="none" stroke="rgb(60,60,60)" stroke-width="0.00035" id="servo">
      <line x1="0.028" y1="-0.008" x2="0.028" y2="0.008" />
      <path d="M 0.028,-0.008 A 0.002,0.002 -90.0 0,1 0.03,-0.01" />
      <line x1="0.03" y1="-0.01" x2="0.046" y2="-0.01" />
      <path d="M 0.048,-0.008 A 0.002,0.002 -90.0 0,0 0.046,-0.01" />
      <line x1="0.048" y1="-0.008" x2="0.048" y2="0.008" />
      <path d="M 0.048,0.008 A 0.002,0.002 -90.0 0,1 0.046,0.01" />
      <line x1="0.03" y1="0.01" x2="0.046" y2="0.01" />
      <path d="M 0.028,0.008 A 0.002,0.002 -90.0 0,0 0.03,0.01" />
      <path d="M 0.080206,0.0124 A 0.004,0.004 180.0 0,1 0.076206,0.0084" />
      <line x1="0.080206" y1="0.0124" x2="0.117606" y2="0.0124" />
      <path d="M 0.121606,0.0084 A 0.004,0.004 0.0 0,1 0.117606,0.0124" />
      <line x1="0.121606" y1="0.0084" x2="0.121606" y2="-0.0084" />
      <path d="M 0.117606,-0.0124 A 0.004,0.004 0.0 0,1 0.121606,-0.0084" />
      <line x1="0.080206" y1="-0.0124" x2="0.117606" y2="-0.0124" />
      <path d="M 0.076206,-0.0084 A 0.004,0.004 180.0 0,1 0.080206,-0.0124" />
      <line x1="0.076206" y1="0.0084" x2="0.076206" y2="-0.0084" />
      <circle cx="0.184812" cy="0.0" r="0.003" />
      <line x1="0.151612" y1="-0.0084" x2="0.151612" y2="-0.0124" />
      <line x1="0.151612" y1="-0.0084" x2="0.192012" y2="-0.0084" />
      <line x1="0.192012" y1="-0.0084" x2="0.192012" y2="-0.0124" />
      <line x1="0.151612" y1="-0.0124" x2="0.192012" y2="-0.0124" />
      <circle cx="0.155312" cy="-0.01025" r="0.0016" />
      <circle cx="0.172312" cy="-0.01025" r="0.0016" />
      <circle cx="0.189312" cy="-0.01025" r="0.0016" />
      <line x1="0.151612" y1="0.0124" x2="0.192012" y2="0.0124" />
      <line x1="0.192012" y1="0.0124" x2="0.192012" y2="0.0084" />
      <line x1="0.151612" y1="0.0084" x2="0.192012" y2="0.0084" />
      <line x1="0.151612" y1="0.0124" x2="0.151612" y2="0.0084" />
      <circle cx="0.155312" cy="0.01025" r="0.0016" />
      <circle cx="0.172312" cy="0.01025" r="0.0016" />
      <circle cx="0.189312" cy="0.01025" r="0.0016" />
      <line x1="0.168862" y1="-0.00305" x2="0.159762" y2="-0.00305" />
      <line x1="0.159762" y1="0.00305" x2="0.159762" y2="-0.00305" />
      <line x1="0.168862" y1="0.00305" x2="0.159762" y2="0.00305" />
      <line x1="0.168862" y1="0.00305" x2="0.168862" y2="-0.00305" />
      <line x1="0.160462" y1="0.00235" x2="0.160462" y2="-0.00235" />
      <line x1="0.168162" y1="-0.00235" x2="0.160462" y2="-0.00235" />
      <line x1="0.168162" y1="0.00235" x2="0.168162" y2="-0.00235" />
      <line x1="0.168162" y1="0.00235" x2="0.160462" y2="0.00235" />
      <line x1="0.223061" y1="-0.032613" x2="0.223061" y2="-1.4e-05" />
      <line x1="0.223061" y1="-1.4e-05" x2="0.223082" y2="1.4e-05" />
      <path d="M 0.223061,-1.4e-05 A 0.004,6.44798166175754e-06 2.6700668807576755e-21 0,1 0.227056,-2e-05" />
      <path d="M 0.223061,-0.032613 A 0.004,6.44798166175754e-06 2.6700668807576755e-21 0,1 0.225057,-0.032619" />
      <path d="M 0.225057,-0.032619 A 0.004,6.44798166175754e-06 2.6700668807576755e-21 0,1 0.227056,-0.03262" />
      <line x1="0.227056" y1="-0.03262" x2="0.227056" y2="-2e-05" />
      <path d="M 0.268461,-0.032614 A 0.004,6.44798166175754e-06 -180.0 0,0 0.265457,-0.03262" />
      <line x1="0.268461" y1="-0.032614" x2="0.268482" y2="-0.032586" />
      <path d="M 0.223082,1.4e-05 A 0.004,6.44798166175754e-06 -180.0 0,0 0.227087,2e-05" />
      <line x1="0.227056" y1="-2e-05" x2="0.264456" y2="-2e-05" />
      <line x1="0.227087" y1="2e-05" x2="0.248262" y2="2e-05" />
      <path d="M 0.268461,-1.4e-05 A 0.004,6.44798166175754e-06 -180.0 0,0 0.264456,-2e-05" />
      <path d="M 0.268482,1.3e-05 A 0.004,6.44798166175754e-06 2.6700668807576755e-21 0,1 0.268281,1.5e-05" />
      <line x1="0.268461" y1="-1.4e-05" x2="0.268482" y2="1.3e-05" />
      <path d="M 0.248262,-1.3e-05 A 0.002,3.22399083087877e-06 2.6700668807576755e-21 0,1 0.250259,-1.6e-05" />
      <line x1="0.250259" y1="-1.6e-05" x2="0.266259" y2="-1.6e-05" />
      <path d="M 0.268262,-1.3e-05 A 0.002,3.22399083087877e-06 -180.0 0,0 0.266259,-1.6e-05" />
      <line x1="0.268262" y1="-1.3e-05" x2="0.268281" y2="1.3e-05" />
      <line x1="0.225056" y1="-0.03262" x2="0.225057" y2="-0.032619" />
      <line x1="0.225056" y1="-0.03262" x2="0.227056" y2="-0.03262" />
      <line x1="0.264456" y1="-0.03262" x2="0.264456" y2="-2e-05" />
      <line x1="0.264456" y1="-0.03262" x2="0.265456" y2="-0.03262" />
      <line x1="0.265456" y1="-0.03472" x2="0.265456" y2="-0.03262" />
      <line x1="0.225056" y1="-0.03472" x2="0.265456" y2="-0.03472" />
      <line x1="0.225056" y1="-0.03472" x2="0.225056" y2="-0.03262" />
      <line x1="0.265461" y1="-0.034714" x2="0.265461" y2="-0.03262" />
      <line x1="0.265461" y1="-0.034686" x2="0.265482" y2="-0.034686" />
      <line x1="0.265482" y1="-0.034686" x2="0.265482" y2="-0.03262" />
      <line x1="0.265456" y1="-0.03472" x2="0.265461" y2="-0.034714" />
      <line x1="0.265487" y1="-0.03468" x2="0.265487" y2="-0.03262" />
      <line x1="0.265482" y1="-0.034686" x2="0.265487" y2="-0.03468" />
      <line x1="0.268461" y1="-0.032614" x2="0.268461" y2="-1.4e-05" />
      <path d="M 0.265457,-0.03262 A 0.004,6.44798166175754e-06 -180.0 0,0 0.264456,-0.03262" />
      <line x1="0.268482" y1="1.3e-05" x2="0.268482" y2="-0.032586" />
      <path d="M 0.265487,-0.03258 A 0.004,6.44798166175754e-06 2.6700668807576755e-21 0,1 0.264487,-0.03258" />
      <path d="M 0.248262,0.001687 A 0.002,3.22399083087877e-06 2.6700668807576755e-21 0,1 0.250259,0.001684" />
      <line x1="0.250259" y1="0.001684" x2="0.266259" y2="0.001684" />
      <path d="M 0.268262,0.001687 A 0.002,3.22399083087877e-06 -180.0 0,0 0.266259,0.001684" />
      <line x1="0.268262" y1="0.001687" x2="0.268281" y2="0.001713" />
      <path d="M 0.268281,0.001713 A 0.002,3.22399083087877e-06 2.6700668807576755e-21 0,1 0.266284,0.001716" />
      <line x1="0.250284" y1="0.001716" x2="0.253772" y2="0.001716" />
      <line x1="0.262772" y1="0.001716" x2="0.266284" y2="0.001716" />
      <path d="M 0.248281,0.001713 A 0.002,3.22399083087877e-06 -180.0 0,0 0.250284,0.001716" />
      <line x1="0.248262" y1="0.001687" x2="0.248281" y2="0.001713" />
      <path d="M 0.253772,0.0017 A 0.004500000000000004,7.253979369477238e-06 3.606320894914267e-21 0,1 0.262772,0.0017" />
      <path d="M 0.262772,0.0032 A 0.004500000000000004,7.253979369477238e-06 3.606320894914267e-21 0,1 0.253772,0.0032" />
      <path d="M 0.253772,0.0032 A 0.004500000000000004,7.253979369477238e-06 3.606320894914267e-21 0,1 0.262772,0.0032" />
      <line x1="0.248262" y1="-1.3e-05" x2="0.248262" y2="0.001687" />
      <line x1="0.250259" y1="-1.6e-05" x2="0.250259" y2="0.001684" />
      <line x1="0.266259" y1="-1.6e-05" x2="0.266259" y2="0.001684" />
      <line x1="0.268262" y1="-1.3e-05" x2="0.268262" y2="0.001687" />
      <line x1="0.268281" y1="1.3e-05" x2="0.268281" y2="0.001713" />
      <line x1="0.223061" y1="-0.032613" x2="0.223061" y2="-1.4e-05" />
      <line x1="0.268482" y1="-0.032586" x2="0.268482" y2="1.3e-05" />
      <line x1="0.248262" y1="-1.3e-05" x2="0.248262" y2="0.001687" />
      <line x1="0.268281" y1="1.3e-05" x2="0.268281" y2="0.001713" />
      <line x1="0.262772" y1="0.0017" x2="0.262772" y2="0.0032" />
      <line x1="0.253772" y1="0.0017" x2="0.253772" y2="0.0032" />
    </g>
    <g fill="url(#hatch_servo)" stroke="none" stroke-width="0" id="servo_fill">
      <path d="M 0.028,0.008 L 0.028,-0.008 A 0.002,0.002 -90.0 0,1 0.03,-0.01 L 0.046,-0.01 A 0.002,0.002 -90.0 0,1 0.048,-0.008 L 0.048,0.008 A 0.002,0.002 -90.0 0,1 0.046,0.01 L 0.03,0.01 A 0.002,0.002 -90.0 0,1 0.028,0.008" />
      <path d="M 0.080206,0.0124 A 0.004,0.004 180.0 0,1 0.076206,0.0084 L 0.076206,-0.0084 A 0.004,0.004 180.0 0,1 0.080206,-0.0124 L 0.117606,-0.0124 A 0.004,0.004 0.0 0,1 0.121606,-0.0084 L 0.121606,0.0084 A 0.004,0.004 0.0 0,1 0.117606,0.0124 L 0.080206,0.0124" />
      <circle cx="0.184812" cy="0.0" r="0.003" />
      <path d="M 0.151612,-0.0084 L 0.151612,-0.0124 L 0.192012,-0.0124 L 0.192012,-0.0084 L 0.151612,-0.0084 M 0.156912,-0.01025 A 0.0016000000000000044,0.0016000000000000044 0.0 0,0 0.153712,-0.01025 A 0.0016000000000000044,0.0016000000000000044 0.0 0,0 0.156912,-0.01025 M 0.173912,-0.01025 A 0.0016000000000000044,0.0016000000000000044 0.0 0,0 0.170712,-0.01025 A 0.0016000000000000044,0.0016000000000000044 0.0 0,0 0.173912,-0.01025 M 0.190912,-0.01025 A 0.0016000000000000044,0.0016000000000000044 0.0 0,0 0.187712,-0.01025 A 0.0016000000000000044,0.0016000000000000044 0.0 0,0 0.190912,-0.01025" />
      <path d="M 0.192012,0.0124 L 0.151612,0.0124 L 0.151612,0.0084 L 0.192012,0.0084 L 0.192012,0.0124 M 0.156912,0.01025 A 0.0016000000000000044,0.0016000000000000044 0.0 0,0 0.153712,0.01025 A 0.0016000000000000044,0.0016000000000000044 0.0 0,0 0.156912,0.01025 M 0.173912,0.01025 A 0.0016000000000000044,0.0016000000000000044 0.0 0,0 0.170712,0.01025 A 0.0016000000000000044,0.0016000000000000044 0.0 0,0 0.173912,0.01025 M 0.190912,0.01025 A 0.0016000000000000044,0.0016000000000000044 0.0 0,0 0.187712,0.01025 A 0.0016000000000000044,0.0016000000000000044 0.0 0,0 0.190912,0.01025" />
      <path d="M 0.159762,-0.00305 L 0.168862,-0.00305 L 0.168862,0.00305 L 0.159762,0.00305 L 0.159762,-0.00305 M 0.160462,-0.00235 L 0.160462,0.00235 L 0.168162,0.00235 L 0.168162,-0.00235 L 0.160462,-0.00235" />
    </g>
    <g fill="none" stroke="rgb(60,60,60)" stroke-opacity="0.4" stroke-width="0.00015" id="servo_hidden" stroke-dasharray="0.0018 0.00045">
      <line x1="0.223061" y1="-0.032613" x2="0.223082" y2="-0.032586" />
      <line x1="0.223082" y1="1.4e-05" x2="0.223082" y2="-0.032586" />
      <path d="M 0.223082,-0.032586 A 0.004,6.44798166175754e-06 -180.0 0,0 0.225086,-0.032581" />
      <line x1="0.225057" y1="-0.032619" x2="0.225061" y2="-0.032613" />
      <line x1="0.225082" y1="-0.032586" x2="0.225086" y2="-0.032581" />
      <line x1="0.225061" y1="-0.032613" x2="0.265461" y2="-0.032614" />
      <line x1="0.225082" y1="-0.032586" x2="0.265482" y2="-0.032586" />
      <line x1="0.265457" y1="-0.03262" x2="0.265461" y2="-0.032614" />
      <line x1="0.265482" y1="-0.032586" x2="0.265487" y2="-0.03258" />
      <path d="M 0.268482,-0.032586 A 0.004,6.44798166175754e-06 2.6700668807576755e-21 0,1 0.265487,-0.03258" />
      <path d="M 0.261272,-0.0326 A 0.0030000000000000027,4.835986246318159e-06 3.606320894914267e-21 0,1 0.255272,-0.0326" />
      <path d="M 0.255272,-0.0326 A 0.0030000000000000027,4.835986246318159e-06 3.606320894914267e-21 0,1 0.261272,-0.0326" />
      <line x1="0.233218" y1="-0.032605" x2="0.242318" y2="-0.032605" />
      <line x1="0.242318" y1="-0.032605" x2="0.242325" y2="-0.032595" />
      <line x1="0.233225" y1="-0.032595" x2="0.242325" y2="-0.032595" />
      <line x1="0.233218" y1="-0.032605" x2="0.233225" y2="-0.032595" />
      <line x1="0.227087" y1="2e-05" x2="0.227087" y2="-0.03258" />
      <path d="M 0.225086,-0.032581 A 0.004,6.44798166175754e-06 -180.0 0,0 0.227087,-0.03258" />
      <line x1="0.248262" y1="2e-05" x2="0.264487" y2="2e-05" />
      <path d="M 0.268281,1.5e-05 A 0.004,6.44798166175754e-06 2.6700668807576755e-21 0,1 0.264487,2e-05" />
      <path d="M 0.268281,1.3e-05 A 0.002,3.22399083087877e-06 2.6700668807576755e-21 0,1 0.266284,1.6e-05" />
      <line x1="0.250284" y1="1.6e-05" x2="0.266284" y2="1.6e-05" />
      <path d="M 0.248281,1.3e-05 A 0.002,3.22399083087877e-06 -180.0 0,0 0.250284,1.6e-05" />
      <line x1="0.248262" y1="-1.3e-05" x2="0.248281" y2="1.3e-05" />
      <line x1="0.225061" y1="-0.034713" x2="0.225061" y2="-0.032613" />
      <line x1="0.225056" y1="-0.03472" x2="0.225061" y2="-0.034713" />
      <line x1="0.225082" y1="-0.034686" x2="0.225082" y2="-0.032586" />
      <line x1="0.225086" y1="-0.032581" x2="0.225087" y2="-0.03258" />
      <line x1="0.225087" y1="-0.03468" x2="0.225087" y2="-0.03258" />
      <line x1="0.225082" y1="-0.034686" x2="0.225087" y2="-0.03468" />
      <line x1="0.225061" y1="-0.034713" x2="0.265461" y2="-0.034714" />
      <line x1="0.265461" y1="-0.03262" x2="0.265461" y2="-0.032614" />
      <line x1="0.225082" y1="-0.034686" x2="0.265461" y2="-0.034686" />
      <line x1="0.265482" y1="-0.03262" x2="0.265482" y2="-0.032586" />
      <line x1="0.265487" y1="-0.03262" x2="0.265487" y2="-0.03258" />
      <line x1="0.264487" y1="2e-05" x2="0.264487" y2="-0.03258" />
      <path d="M 0.261272,-0.0339 A 0.0030000000000000027,4.835986246318159e-06 3.606320894914267e-21 0,1 0.255272,-0.0339" />
      <path d="M 0.255272,-0.0339 A 0.0030000000000000027,4.835986246318159e-06 3.606320894914267e-21 0,1 0.261272,-0.0339" />
      <line x1="0.242318" y1="-0.032605" x2="0.242318" y2="-0.034705" />
      <line x1="0.233218" y1="-0.034705" x2="0.242318" y2="-0.034705" />
      <line x1="0.233218" y1="-0.032605" x2="0.233218" y2="-0.034705" />
      <line x1="0.242325" y1="-0.032595" x2="0.242325" y2="-0.034695" />
      <line x1="0.242325" y1="-0.034695" x2="0.242318" y2="-0.034705" />
      <line x1="0.233225" y1="-0.034695" x2="0.242325" y2="-0.034695" />
      <line x1="0.233225" y1="-0.032595" x2="0.233225" y2="-0.034695" />
      <line x1="0.233225" y1="-0.034695" x2="0.233218" y2="-0.034705" />
      <line x1="0.264487" y1="-0.03258" x2="0.265487" y2="-0.03258" />
      <line x1="0.225087" y1="-0.03468" x2="0.265487" y2="-0.03468" />
      <line x1="0.225087" y1="-0.03258" x2="0.227087" y2="-0.03258" />
      <line x1="0.253772" y1="0.001716" x2="0.262772" y2="0.001716" />
      <path d="M 0.230359,-0.034716 A 0.0016000000000000044,2.579192664703023e-06 3.606320894914267e-21 0,1 0.227159,-0.034716" />
      <path d="M 0.227159,-0.034716 A 0.0016000000000000044,2.579192664703023e-06 3.606320894914267e-21 0,1 0.230359,-0.034716" />
      <path d="M 0.247359,-0.034716 A 0.0016000000000000044,2.579192664703023e-06 3.606320894914267e-21 0,1 0.244159,-0.034716" />
      <path d="M 0.244159,-0.034716 A 0.0016297877989831662,2.62721046009991e-06 3.606320894914267e-21 0,1 0.247359,-0.034717" />
      <path d="M 0.264359,-0.034717 A 0.0016000000000000179,2.579192664703045e-06 3.606320894914267e-21 0,1 0.261159,-0.034717" />
      <path d="M 0.261159,-0.034717 A 0.0016000000000000179,2.579192664703045e-06 3.606320894914267e-21 0,1 0.264359,-0.034717" />
      <path d="M 0.230384,-0.034683 A 0.0016000000000000044,2.579192664703023e-06 3.606320894914267e-21 0,1 0.227184,-0.034683" />
      <path d="M 0.227184,-0.034683 A 0.0016000000000000044,2.579192664703023e-06 3.606320894914267e-21 0,1 0.230384,-0.034683" />
      <path d="M 0.247384,-0.034683 A 0.0016,2.579192664703016e-06 3.606320894914267e-21 0,1 0.244184,-0.034683" />
      <path d="M 0.244184,-0.034683 A 0.0016,2.579192664703016e-06 3.606320894914267e-21 0,1 0.247384,-0.034683" />
      <path d="M 0.264384,-0.034683 A 0.0016,2.579192664703016e-06 3.606320894914267e-21 0,1 0.261184,-0.034683" />
      <path d="M 0.261184,-0.034683 A 0.0016,2.579192664703016e-06 3.606320894914267e-21 0,1 0.264384,-0.034683" />
      <line x1="0.233925" y1="-0.034696" x2="0.233919" y2="-0.034704" />
      <line x1="0.233925" y1="-0.034696" x2="0.241625" y2="-0.034696" />
      <line x1="0.241625" y1="-0.034696" x2="0.241619" y2="-0.034704" />
      <line x1="0.233919" y1="-0.034704" x2="0.241619" y2="-0.034704" />
      <path d="M 0.262772,0.0017 A 0.004500000000000004,7.253979369477238e-06 3.606320894914267e-21 0,1 0.253772,0.0017" />
      <path d="M 0.230359,-0.024716 A 0.0016000000000000044,2.579192664703023e-06 3.606320894914267e-21 0,1 0.227159,-0.024716" />
      <path d="M 0.227159,-0.024716 A 0.0016000000000000044,2.579192664703023e-06 3.606320894914267e-21 0,1 0.230359,-0.024716" />
      <path d="M 0.247359,-0.024717 A 0.0016000000000000044,2.579192664703023e-06 3.606320894914267e-21 0,1 0.244159,-0.024717" />
      <path d="M 0.244159,-0.024717 A 0.0016000000000000044,2.579192664703023e-06 3.606320894914267e-21 0,1 0.247359,-0.024717" />
      <path d="M 0.264359,-0.024717 A 0.0016000000000000179,2.579192664703045e-06 3.606320894914267e-21 0,1 0.261159,-0.024717" />
      <path d="M 0.261159,-0.024717 A 0.0016000000000000179,2.579192664703045e-06 3.606320894914267e-21 0,1 0.264359,-0.024717" />
      <path d="M 0.230384,-0.024683 A 0.0016000000000000044,2.579192664703023e-06 3.606320894914267e-21 0,1 0.227184,-0.024683" />
      <path d="M 0.227184,-0.024683 A 0.0016000000000000044,2.579192664703023e-06 3.606320894914267e-21 0,1 0.230384,-0.024683" />
      <path d="M 0.247384,-0.024683 A 0.0016,2.579192664703016e-06 3.606320894914267e-21 0,1 0.244184,-0.024683" />
      <path d="M 0.244184,-0.024683 A 0.0016,2.579192664703016e-06 3.606320894914267e-21 0,1 0.247384,-0.024683" />
      <path d="M 0.264384,-0.024683 A 0.0016,2.579192664703016e-06 3.606320894914267e-21 0,1 0.261184,-0.024683" />
      <path d="M 0.261184,-0.024683 A 0.0016297877989831524,2.6272104600998875e-06 3.606320894914267e-21 0,1 0.264384,-0.024684" />
      <line x1="0.233925" y1="-0.032596" x2="0.233925" y2="-0.034696" />
      <line x1="0.233919" y1="-0.032604" x2="0.233919" y2="-0.034704" />
      <line x1="0.233919" y1="-0.032604" x2="0.233925" y2="-0.032596" />
      <line x1="0.241625" y1="-0.032596" x2="0.241625" y2="-0.034696" />
      <line x1="0.233925" y1="-0.032596" x2="0.241625" y2="-0.032596" />
      <line x1="0.241619" y1="-0.032604" x2="0.241619" y2="-0.034704" />
      <line x1="0.241619" y1="-0.032604" x2="0.241625" y2="-0.032596" />
      <line x1="0.233919" y1="-0.032604" x2="0.241619" y2="-0.032604" />
      <line x1="0.261272" y1="-0.0339" x2="0.261272" y2="-0.0326" />
      <line x1="0.255272" y1="-0.0339" x2="0.255272" y2="-0.0326" />
      <line x1="0.230359" y1="-0.034716" x2="0.230359" y2="-0.024716" />
      <line x1="0.227159" y1="-0.034716" x2="0.227159" y2="-0.024716" />
      <line x1="0.247359" y1="-0.034716" x2="0.247359" y2="-0.024717" />
      <line x1="0.244159" y1="-0.034716" x2="0.244159" y2="-0.024717" />
      <line x1="0.264359" y1="-0.034717" x2="0.264359" y2="-0.024717" />
      <line x1="0.261159" y1="-0.034717" x2="0.261159" y2="-0.024717" />
      <line x1="0.230384" y1="-0.034683" x2="0.230384" y2="-0.024683" />
      <line x1="0.227184" y1="-0.034683" x2="0.227184" y2="-0.024683" />
      <line x1="0.247384" y1="-0.034683" x2="0.247384" y2="-0.024683" />
      <line x1="0.244184" y1="-0.034683" x2="0.244184" y2="-0.024683" />
      <line x1="0.264384" y1="-0.034683" x2="0.264384" y2="-0.024683" />
      <line x1="0.261184" y1="-0.034683" x2="0.261184" y2="-0.024683" />
      <line x1="0.266284" y1="1.6e-05" x2="0.266284" y2="0.001716" />
      <line x1="0.250284" y1="1.6e-05" x2="0.250284" y2="0.001716" />
      <line x1="0.248281" y1="1.3e-05" x2="0.248281" y2="0.001713" />
    </g>
    <g fill="none" stroke="rgb(220,60,40)" stroke-width="0.00035" id="coupler">
      <line x1="0.065406" y1="-0.009294" x2="0.038" y2="-0.009294" />
      <line x1="0.065406" y1="-0.009294" x2="0.065406" y2="-0.008294" />
      <line x1="0.065406" y1="-0.008294" x2="0.055406" y2="-0.008294" />
      <line x1="0.055406" y1="-0.008294" x2="0.055406" y2="0.008294" />
      <line x1="0.065406" y1="0.008294" x2="0.055406" y2="0.008294" />
      <line x1="0.065406" y1="0.008294" x2="0.065406" y2="0.009294" />
      <line x1="0.065406" y1="0.009294" x2="0.038" y2="0.009294" />
      <line x1="0.038" y1="0.008294" x2="0.038" y2="0.009294" />
      <path d="M 0.038,0.008294 A 0.008294306588619054,0.008294306588619054 0.0 0,1 0.03266,0.006347" />
      <path d="M 0.03266,0.006347 A 0.00145,0.00145 105.60850485956315 0,0 0.034455,0.00459" />
      <path d="M 0.034455,0.00459 A 0.0058,0.0058 127.68093438926024 0,0 0.041545,0.00459" />
      <path d="M 0.041545,0.00459 A 0.00145,0.00145 -165.63576778793214 1,0 0.04259,0.003545" />
      <path d="M 0.04259,0.003545 A 0.0058,0.0058 127.68093438926024 0,0 0.034455,-0.00459" />
      <path d="M 0.034455,-0.00459 A 0.00145,0.00145 14.364232212067673 0,0 0.03266,-0.006347" />
      <path d="M 0.03266,-0.006347 A 0.008294306588619054,0.008294306588619054 0.0 0,1 0.038,-0.008294" />
      <line x1="0.038" y1="-0.009294" x2="0.038" y2="-0.008294" />
      <line x1="0.065406" y1="-0.008294" x2="0.055406" y2="-0.008294" />
      <line x1="0.055406" y1="-0.008294" x2="0.055406" y2="0.008294" />
      <line x1="0.065406" y1="0.008294" x2="0.055406" y2="0.008294" />
      <line x1="0.065406" y1="0.008294" x2="0.065406" y2="-0.008294" />
      <path d="M 0.031653,0.00534 A 0.008294306588619054,0.008294306588619054 0.0 0,1 0.031653,-0.00534" />
      <path d="M 0.031653,0.00534 A 0.00145,0.00145 0.0 0,1 0.03341,0.003545" />
      <path d="M 0.03341,-0.003545 A 0.0058,0.0058 127.68093438926024 0,0 0.03341,0.003545" />
      <path d="M 0.03341,-0.003545 A 0.00145,0.00145 0.0 0,1 0.031653,-0.00534" />
      <line x1="0.138812" y1="0.008294" x2="0.138812" y2="-0.008294" />
      <line x1="0.128812" y1="-0.008294" x2="0.138812" y2="-0.008294" />
      <line x1="0.128812" y1="0.008294" x2="0.128812" y2="-0.008294" />
      <line x1="0.128812" y1="0.008294" x2="0.138812" y2="0.008294" />
      <line x1="0.212219" y1="-0.009294" x2="0.184812" y2="-0.009294" />
      <line x1="0.212219" y1="-0.009294" x2="0.212219" y2="0.009294" />
      <line x1="0.212219" y1="0.009294" x2="0.184812" y2="0.009294" />
      <line x1="0.184812" y1="0.008294" x2="0.184812" y2="0.009294" />
      <path d="M 0.184812,0.008294 A 0.008294306588619054,0.008294306588619054 0.0 1,1 0.184812,-0.008294" />
      <line x1="0.184812" y1="-0.009294" x2="0.184812" y2="-0.008294" />
      <circle cx="0.184812" cy="0.0" r="0.0058" />
      <line x1="0.285693" y1="0.011685" x2="0.258287" y2="0.011685" />
      <line x1="0.285693" y1="0.011685" x2="0.285662" y2="0.011715" />
      <line x1="0.285662" y1="0.011715" x2="0.258256" y2="0.011715" />
      <line x1="0.258258" y1="0.011714" x2="0.258256" y2="0.011715" />
      <path d="M 0.258258,0.011714 A 0.008294306588619054,1.3576282899776943e-05 1.0955988221629788e-20 0,1 0.252921,0.01171" />
      <path d="M 0.252921,0.01171 A 0.00145,2.3733882988709355e-06 180.0 0,0 0.254763,0.011708" />
      <path d="M 0.254763,0.011708 A 0.00145,2.3733882988709355e-06 180.0 0,0 0.254719,0.011707" />
      <path d="M 0.254719,0.011707 A 0.0058,9.493553195483742e-06 -180.0 0,0 0.261809,0.011707" />
      <path d="M 0.261809,0.011707 A 0.00145,2.3733882988709355e-06 -180.0 0,0 0.261763,0.011708" />
      <path d="M 0.261763,0.011708 A 0.00145,2.3733882988709355e-06 -180.0 0,0 0.264663,0.011708" />
      <path d="M 0.264663,0.011708 A 0.00145,2.3733882988709355e-06 -180.0 0,0 0.262856,0.011706" />
      <path d="M 0.262856,0.011706 A 0.0058,9.493553195483742e-06 -180.0 0,0 0.264072,0.0117" />
      <path d="M 0.264072,0.0117 A 0.0058,9.493553195483742e-06 -180.0 0,0 0.254734,0.011692" />
      <path d="M 0.254734,0.011692 A 0.00145,2.3733882988709355e-06 180.0 0,0 0.25478,0.011692" />
      <path d="M 0.25478,0.011692 A 0.00145,2.3733882988709355e-06 180.0 0,0 0.252942,0.01169" />
      <path d="M 0.252942,0.01169 A 0.008294306588619054,1.3576282899776943e-05 1.0955988221629788e-20 0,1 0.258285,0.011686" />
      <line x1="0.258287" y1="0.011685" x2="0.258285" y2="0.011686" />
      <line x1="0.285693" y1="0.001685" x2="0.258287" y2="0.001685" />
      <line x1="0.285693" y1="0.001685" x2="0.285693" y2="0.011685" />
      <line x1="0.258287" y1="0.001685" x2="0.258287" y2="0.011685" />
      <line x1="0.258285" y1="0.001686" x2="0.258285" y2="0.011686" />
      <line x1="0.258287" y1="0.001685" x2="0.258285" y2="0.001686" />
      <path d="M 0.252942,0.00169 A 0.008294306588619054,1.3576282899776943e-05 1.0955988221629788e-20 0,1 0.258285,0.001686" />
      <line x1="0.252942" y1="0.00169" x2="0.252942" y2="0.01169" />
      <line x1="0.254734" y1="0.011691" x2="0.254734" y2="0.011692" />
      <line x1="0.262856" y1="0.011694" x2="0.262856" y2="0.011706" />
      <line x1="0.261809" y1="0.011692" x2="0.261809" y2="0.011707" />
      <line x1="0.254719" y1="0.011692" x2="0.254719" y2="0.011707" />
      <line x1="0.252921" y1="0.011706" x2="0.252921" y2="0.01171" />
      <line x1="0.258256" y1="0.011714" x2="0.258256" y2="0.011715" />
      <line x1="0.285692" y1="-0.033913" x2="0.285692" y2="0.001685" />
      <line x1="0.285693" y1="-0.033915" x2="0.285692" y2="-0.033913" />
      <line x1="0.285693" y1="-0.043915" x2="0.285693" y2="-0.033915" />
      <line x1="0.275692" y1="-0.033914" x2="0.275692" y2="0.001685" />
      <line x1="0.275692" y1="-0.033914" x2="0.285692" y2="-0.033913" />
      <line x1="0.285693" y1="-0.033915" x2="0.258287" y2="-0.033915" />
      <line x1="0.258287" y1="-0.033915" x2="0.258285" y2="-0.033914" />
      <path d="M 0.258258,-0.033886 A 0.008294306588619054,1.3576282899776943e-05 1.0955988221629788e-20 0,1 0.249977,-0.0339" />
      <path d="M 0.249977,-0.0339 A 0.008294306588619054,1.3576282899776943e-05 1.0955988221629788e-20 0,1 0.258285,-0.033914" />
      <line x1="0.258258" y1="-0.033886" x2="0.258256" y2="-0.033885" />
      <line x1="0.275664" y1="-0.033885" x2="0.258256" y2="-0.033885" />
      <line x1="0.275664" y1="-0.033886" x2="0.275692" y2="-0.033914" />
      <path d="M 0.264072,-0.0339 A 0.0058,9.49355319548374e-06 1.0955988221629788e-20 0,1 0.252472,-0.0339" />
      <path d="M 0.252472,-0.0339 A 0.0058,9.49355319548374e-06 1.0955988221629788e-20 1,1 0.264072,-0.0339" />
      <line x1="0.285693" y1="-0.043915" x2="0.258287" y2="-0.043915" />
      <line x1="0.258287" y1="-0.043915" x2="0.258287" y2="-0.033915" />
      <path d="M 0.249977,-0.0439 A 0.008294306588619054,1.3576282899776943e-05 1.0955988221629788e-20 0,1 0.258285,-0.043914" />
      <line x1="0.258287" y1="-0.043915" x2="0.258285" y2="-0.043914" />
      <line x1="0.258256" y1="-0.033886" x2="0.258256" y2="-0.033885" />
      <line x1="0.275664" y1="-0.033886" x2="0.275664" y2="0.001685" />
      <line x1="0.258285" y1="-0.043914" x2="0.258285" y2="-0.033914" />
      <path d="M 0.251916,0.011709 A 0.008294306588619054,1.3576282899776943e-05 1.0955988221629788e-20 0,1 0.249977,0.0117" />
      <path d="M 0.249977,0.0117 A 0.008294306588619054,1.3576282899776943e-05 1.0955988221629788e-20 0,1 0.251934,0.011691" />
      <path d="M 0.251916,0.011709 A 0.00145,2.373388298870935e-06 1.0955988221629788e-20 0,1 0.251863,0.011708" />
      <path d="M 0.251863,0.011708 A 0.00145,2.373388298870935e-06 1.0955988221629788e-20 0,1 0.253676,0.011706" />
      <path d="M 0.253687,0.011694 A 0.0058,9.493553195483742e-06 -180.0 0,0 0.252472,0.0117" />
      <path d="M 0.252472,0.0117 A 0.0058,9.493553195483742e-06 -180.0 0,0 0.253676,0.011706" />
      <path d="M 0.253687,0.011694 A 0.00145,2.373388298870935e-06 1.0955988221629788e-20 0,1 0.25188,0.011692" />
      <path d="M 0.25188,0.011692 A 0.00145,2.373388298870935e-06 1.0955988221629788e-20 0,1 0.251934,0.011691" />
      <line x1="0.251934" y1="0.001691" x2="0.251934" y2="0.011691" />
      <path d="M 0.249977,0.0017 A 0.008294306588619054,1.3576282899776943e-05 1.0955988221629788e-20 0,1 0.251934,0.001691" />
      <line x1="0.251916" y1="0.011707" x2="0.251916" y2="0.011709" />
      <line x1="0.253676" y1="0.011694" x2="0.253676" y2="0.011706" />
      <path d="M 0.252472,0.0017 A 0.0058,9.493553195483742e-06 -180.0 0,0 0.252942,0.001704" />
      <line x1="0.253687" y1="0.01169" x2="0.253687" y2="0.011694" />
      <path d="M 0.252942,0.001694 A 0.00145,2.373388298870935e-06 1.0955988221629788e-20 0,1 0.251934,0.001692" />
      <line x1="0.249977" y1="-0.0439" x2="0.249977" y2="-0.0339" />
      <line x1="0.249977" y1="0.0017" x2="0.249977" y2="0.0117" />
    </g>
    <g fill="url(#hatch_coupler)" stroke="none" stroke-width="0" id="coupler_fill">
      <path d="M 0.065406,-0.009294 L 0.038,-0.009294 L 0.038,-0.008294 A 0.008294306588619054,0.008294306588619054 0.0 0,0 0.03266,-0.006347 A 0.00145,0.00145 14.364232212067673 0,1 0.034455,-0.00459 A 0.0058,0.0058 127.68093438926024 0,1 0.04259,0.003545 A 0.00145,0.00145 -165.63576778793214 1,1 0.041545,0.00459 A 0.0058,0.0058 127.68093438926024 0,1 0.034455,0.00459 A 0.00145,0.00145 105.60850485956315 0,1 0.03266,0.006347 A 0.008294306588619054,0.008294306588619054 0.0 0,0 0.038,0.008294 L 0.038,0.009294 L 0.065406,0.009294 L 0.065406,0.008294 L 0.055406,0.008294 L 0.055406,-0.008294 L 0.065406,-0.008294 L 0.065406,-0.009294" />
      <path d="M 0.055406,-0.008294 L 0.065406,-0.008294 L 0.065406,0.008294 L 0.055406,0.008294 L 0.055406,-0.008294" />
      <path d="M 0.031653,-0.00534 A 0.008294306588619054,0.008294306588619054 0.0 0,0 0.031653,0.00534 A 0.00145,0.00145 0.0 0,1 0.03341,0.003545 A 0.0058,0.0058 127.68093438926024 0,1 0.03341,-0.003545 A 0.00145,0.00145 0.0 0,1 0.031653,-0.00534" />
      <path d="M 0.138812,-0.008294 L 0.138812,0.008294 L 0.128812,0.008294 L 0.128812,-0.008294 L 0.138812,-0.008294" />
      <path d="M 0.184812,-0.009294 L 0.212219,-0.009294 L 0.212219,0.009294 L 0.184812,0.009294 L 0.184812,0.008294 A 0.008294306588619054,0.008294306588619054 0.0 1,1 0.184812,-0.008294 L 0.184812,-0.009294 M 0.190612,-0.0 A 0.0058,0.0058 0.0 0,0 0.179012,0.0 A 0.0058,0.0058 0.0 0,0 0.190612,0.0" />
    </g>
    <g fill="none" stroke="rgb(220,60,40)" stroke-opacity="0.4" stroke-width="0.00015" id="coupler_hidden" stroke-dasharray="0.0018 0.00045">
      <path d="M 0.254734,0.001692 A 0.00145,2.3733882988709355e-06 180.0 0,0 0.25478,0.001692" />
      <path d="M 0.25478,0.001692 A 0.00145,2.3733882988709355e-06 180.0 0,0 0.252942,0.00169" />
      <line x1="0.254734" y1="0.001692" x2="0.254734" y2="0.011691" />
      <path d="M 0.262856,0.001706 A 0.0058,9.493553195483742e-06 -180.0 0,0 0.264072,0.0017" />
      <path d="M 0.264072,0.0017 A 0.0058,9.493553195483742e-06 -180.0 0,0 0.254734,0.001692" />
      <line x1="0.262856" y1="0.001706" x2="0.262856" y2="0.011694" />
      <path d="M 0.261809,0.001707 A 0.00145,2.3733882988709355e-06 -180.0 0,0 0.261763,0.001708" />
      <path d="M 0.261763,0.001708 A 0.00145,2.3733882988709355e-06 -180.0 0,0 0.264663,0.001708" />
      <path d="M 0.264663,0.001708 A 0.00145,2.3733882988709355e-06 -180.0 0,0 0.262856,0.001706" />
      <line x1="0.261809" y1="0.001707" x2="0.261809" y2="0.011692" />
      <path d="M 0.254719,0.001707 A 0.0058,9.493553195483742e-06 -180.0 0,0 0.261809,0.001707" />
      <line x1="0.254719" y1="0.001707" x2="0.254719" y2="0.011692" />
      <path d="M 0.252921,0.00171 A 0.00145,2.3733882988709355e-06 180.0 0,0 0.254763,0.001708" />
      <path d="M 0.254763,0.001708 A 0.00145,2.3733882988709355e-06 180.0 0,0 0.254719,0.001707" />
      <line x1="0.252921" y1="0.00171" x2="0.252921" y2="0.011706" />
      <path d="M 0.258258,0.001714 A 0.008294306588619054,1.3576282899776943e-05 1.0955988221629788e-20 0,1 0.252921,0.00171" />
      <line x1="0.258258" y1="0.001714" x2="0.258258" y2="0.011714" />
      <line x1="0.258256" y1="0.001715" x2="0.258256" y2="0.011714" />
      <line x1="0.258258" y1="0.001714" x2="0.258256" y2="0.001715" />
      <line x1="0.285662" y1="0.001715" x2="0.258256" y2="0.001715" />
      <line x1="0.285662" y1="0.001715" x2="0.285662" y2="0.011715" />
      <line x1="0.285693" y1="0.001685" x2="0.285692" y2="0.001686" />
      <line x1="0.285692" y1="0.001685" x2="0.285692" y2="0.001686" />
      <line x1="0.285693" y1="-0.043915" x2="0.285662" y2="-0.043885" />
      <line x1="0.285662" y1="-0.043885" x2="0.285662" y2="-0.033885" />
      <line x1="0.285664" y1="-0.033886" x2="0.285662" y2="-0.033885" />
      <line x1="0.285664" y1="-0.033886" x2="0.285664" y2="0.001714" />
      <line x1="0.285664" y1="0.001714" x2="0.285662" y2="0.001715" />
      <line x1="0.285692" y1="0.001686" x2="0.275692" y2="0.001686" />
      <line x1="0.275692" y1="0.001686" x2="0.275664" y2="0.001714" />
      <line x1="0.285664" y1="0.001714" x2="0.275664" y2="0.001714" />
      <line x1="0.275692" y1="0.001685" x2="0.275692" y2="0.001686" />
      <line x1="0.285662" y1="-0.033885" x2="0.275664" y2="-0.033885" />
      <line x1="0.275664" y1="-0.033886" x2="0.285664" y2="-0.033886" />
      <line x1="0.285662" y1="-0.043885" x2="0.258256" y2="-0.043885" />
      <line x1="0.258258" y1="-0.043886" x2="0.258256" y2="-0.043885" />
      <path d="M 0.258258,-0.043886 A 0.008294306588619054,1.3576282899776943e-05 1.0955988221629788e-20 0,1 0.249977,-0.0439" />
      <path d="M 0.264072,-0.0439 A 0.0058,9.49355319548374e-06 1.0955988221629788e-20 0,1 0.252472,-0.0439" />
      <path d="M 0.252472,-0.0439 A 0.0058,9.49355319548374e-06 1.0955988221629788e-20 1,1 0.264072,-0.0439" />
      <line x1="0.258256" y1="-0.043885" x2="0.258256" y2="-0.033886" />
      <line x1="0.275664" y1="0.001685" x2="0.275664" y2="0.001714" />
      <line x1="0.258258" y1="-0.043886" x2="0.258258" y2="-0.033886" />
      <path d="M 0.251916,0.001709 A 0.008294306588619054,1.3576282899776943e-05 1.0955988221629788e-20 0,1 0.249977,0.0017" />
      <line x1="0.251916" y1="0.001709" x2="0.251916" y2="0.011707" />
      <line x1="0.253676" y1="0.001706" x2="0.253676" y2="0.011694" />
      <path d="M 0.251916,0.001709 A 0.00145,2.373388298870935e-06 1.0955988221629788e-20 0,1 0.251863,0.001708" />
      <path d="M 0.251863,0.001708 A 0.00145,2.373388298870935e-06 1.0955988221629788e-20 0,1 0.253676,0.001706" />
      <path d="M 0.253687,0.001694 A 0.0058,9.493553195483742e-06 -180.0 0,0 0.252472,0.0017" />
      <path d="M 0.252942,0.001704 A 0.0058,9.493553195483742e-06 -180.0 0,0 0.253676,0.001706" />
      <line x1="0.253687" y1="0.001694" x2="0.253687" y2="0.01169" />
      <path d="M 0.253687,0.001694 A 0.00145,2.373388298870935e-06 1.0955988221629788e-20 0,1 0.252942,0.001694" />
      <path d="M 0.251934,0.001692 A 0.00145,2.373388298870935e-06 1.0955988221629788e-20 0,1 0.25188,0.001692" />
      <path d="M 0.25188,0.001692 A 0.00145,2.373388298870935e-06 1.0955988221629788e-20 0,1 0.251934,0.001691" />
      <line x1="0.25478" y1="0.001692" x2="0.25478" y2="0.011692" />
      <line x1="0.264072" y1="0.0017" x2="0.264072" y2="0.0117" />
      <line x1="0.264663" y1="0.001708" x2="0.264663" y2="0.011708" />
      <line x1="0.261763" y1="0.001708" x2="0.261763" y2="0.011708" />
      <line x1="0.254763" y1="0.001708" x2="0.254763" y2="0.011708" />
      <line x1="0.264072" y1="-0.0439" x2="0.264072" y2="-0.0339" />
      <line x1="0.252472" y1="-0.0439" x2="0.252472" y2="-0.0339" />
      <line x1="0.251863" y1="0.001708" x2="0.251863" y2="0.011708" />
      <line x1="0.252472" y1="0.0017" x2="0.252472" y2="0.0117" />
      <line x1="0.25188" y1="0.001692" x2="0.25188" y2="0.011692" />
    </g>
  </g>
  <text x="0.032703" y="-0.020875" text-anchor="middle" font-family="'Input Sans Narrow', 'DejaVu Sans', Arial, sans-serif" font-size="0.002500" font-weight="bold" fill="#333">A-A</text>
  <text x="0.032703" y="-0.017375" text-anchor="middle" font-family="'Input Sans Narrow', 'DejaVu Sans', Arial, sans-serif" font-size="0.001800" fill="#888">front_horn</text>
  <line x1="0.000000" y1="0.016000" x2="0.000000" y2="0.019000" stroke="#5C7080" stroke-width="0.000140" stroke-opacity="0.5"/>
  <line x1="0.065406" y1="0.016000" x2="0.065406" y2="0.019000" stroke="#5C7080" stroke-width="0.000140" stroke-opacity="0.5"/>
  <line x1="0.000000" y1="0.017400" x2="0.000000" y2="0.019000" stroke="#5C7080" stroke-width="0.000200"/>
  <line x1="0.065406" y1="0.017400" x2="0.065406" y2="0.019000" stroke="#5C7080" stroke-width="0.000200"/>
  <line x1="0.000000" y1="0.018200" x2="0.065406" y2="0.018200" stroke="#5C7080" stroke-width="0.000200"/>
  <polygon points="0.000000,0.018200 0.001500,0.017600 0.001500,0.018800" fill="#5C7080"/>
  <polygon points="0.065406,0.018200 0.063906,0.017600 0.063906,0.018800" fill="#5C7080"/>
  <text x="0.032703" y="0.017000" text-anchor="middle" font-family="'Input Sans Narrow', 'DejaVu Sans', Arial, sans-serif" font-size="0.001600" fill="#5C7080">65.4</text>
  <line x1="0.066206" y1="-0.015200" x2="0.069206" y2="-0.015200" stroke="#5C7080" stroke-width="0.000140" stroke-opacity="0.5"/>
  <line x1="0.066206" y1="0.015200" x2="0.069206" y2="0.015200" stroke="#5C7080" stroke-width="0.000140" stroke-opacity="0.5"/>
  <line x1="0.067606" y1="-0.015200" x2="0.069206" y2="-0.015200" stroke="#5C7080" stroke-width="0.000200"/>
  <line x1="0.067606" y1="0.015200" x2="0.069206" y2="0.015200" stroke="#5C7080" stroke-width="0.000200"/>
  <line x1="0.068406" y1="-0.015200" x2="0.068406" y2="0.015200" stroke="#5C7080" stroke-width="0.000200"/>
  <polygon points="0.068406,-0.015200 0.067806,-0.013700 0.069006,-0.013700" fill="#5C7080"/>
  <polygon points="0.068406,0.015200 0.067806,0.013700 0.069006,0.013700" fill="#5C7080"/>
  <text x="0.069906" y="-0.000000" text-anchor="middle" dominant-baseline="central" font-family="'Input Sans Narrow', 'DejaVu Sans', Arial, sans-serif" font-size="0.001600" fill="#5C7080" transform="rotate(-90 0.069906 -0.000000)">30.4</text>
  <text x="0.106109" y="-0.020875" text-anchor="middle" font-family="'Input Sans Narrow', 'DejaVu Sans', Arial, sans-serif" font-size="0.002500" font-weight="bold" fill="#333">B-B</text>
  <text x="0.106109" y="-0.017375" text-anchor="middle" font-family="'Input Sans Narrow', 'DejaVu Sans', Arial, sans-serif" font-size="0.001800" fill="#888">mid_body</text>
  <text x="0.179515" y="-0.020875" text-anchor="middle" font-family="'Input Sans Narrow', 'DejaVu Sans', Arial, sans-serif" font-size="0.002500" font-weight="bold" fill="#333">C-C</text>
  <text x="0.179515" y="-0.017375" text-anchor="middle" font-family="'Input Sans Narrow', 'DejaVu Sans', Arial, sans-serif" font-size="0.001800" fill="#888">rear_horn</text>
  <text x="0.252956" y="-0.020875" text-anchor="middle" font-family="'Input Sans Narrow', 'DejaVu Sans', Arial, sans-serif" font-size="0.002500" font-weight="bold" fill="#333">side_XZ</text>
  <line x1="0.220219" y1="0.044715" x2="0.220219" y2="0.047715" stroke="#5C7080" stroke-width="0.000140" stroke-opacity="0.5"/>
  <line x1="0.285693" y1="0.044715" x2="0.285693" y2="0.047715" stroke="#5C7080" stroke-width="0.000140" stroke-opacity="0.5"/>
  <line x1="0.220219" y1="0.046115" x2="0.220219" y2="0.047715" stroke="#5C7080" stroke-width="0.000200"/>
  <line x1="0.285693" y1="0.046115" x2="0.285693" y2="0.047715" stroke="#5C7080" stroke-width="0.000200"/>
  <line x1="0.220219" y1="0.046915" x2="0.285693" y2="0.046915" stroke="#5C7080" stroke-width="0.000200"/>
  <polygon points="0.220219,0.046915 0.221719,0.046315 0.221719,0.047515" fill="#5C7080"/>
  <polygon points="0.285693,0.046915 0.284193,0.046315 0.284193,0.047515" fill="#5C7080"/>
  <text x="0.252956" y="0.045715" text-anchor="middle" font-family="'Input Sans Narrow', 'DejaVu Sans', Arial, sans-serif" font-size="0.001600" fill="#5C7080">65.5</text>
  <line x1="0.286493" y1="-0.011715" x2="0.289493" y2="-0.011715" stroke="#5C7080" stroke-width="0.000140" stroke-opacity="0.5"/>
  <line x1="0.286493" y1="0.043915" x2="0.289493" y2="0.043915" stroke="#5C7080" stroke-width="0.000140" stroke-opacity="0.5"/>
  <line x1="0.287893" y1="-0.011715" x2="0.289493" y2="-0.011715" stroke="#5C7080" stroke-width="0.000200"/>
  <line x1="0.287893" y1="0.043915" x2="0.289493" y2="0.043915" stroke="#5C7080" stroke-width="0.000200"/>
  <line x1="0.288693" y1="-0.011715" x2="0.288693" y2="0.043915" stroke="#5C7080" stroke-width="0.000200"/>
  <polygon points="0.288693,-0.011715 0.288093,-0.010215 0.289293,-0.010215" fill="#5C7080"/>
  <polygon points="0.288693,0.043915 0.288093,0.042415 0.289293,0.042415" fill="#5C7080"/>
  <text x="0.290193" y="0.016100" text-anchor="middle" dominant-baseline="central" font-family="'Input Sans Narrow', 'DejaVu Sans', Arial, sans-serif" font-size="0.001600" fill="#5C7080" transform="rotate(-90 0.290193 0.016100)">55.6</text>
  <line x1="0.217219" y1="-0.001700" x2="0.288693" y2="-0.001700" stroke="#555" stroke-width="0.000250" stroke-dasharray="0.002500,0.000800,0.000500,0.000800"/>
  <text x="0.215719" y="-0.001100" text-anchor="end" font-family="'Input Sans Narrow', 'DejaVu Sans', Arial, sans-serif" font-size="0.002000" font-weight="bold" fill="#555">A</text>
  <text x="0.290193" y="-0.001100" text-anchor="start" font-family="'Input Sans Narrow', 'DejaVu Sans', Arial, sans-serif" font-size="0.002000" font-weight="bold" fill="#555">A</text>
  <line x1="0.217219" y1="0.016100" x2="0.288693" y2="0.016100" stroke="#555" stroke-width="0.000250" stroke-dasharray="0.002500,0.000800,0.000500,0.000800"/>
  <text x="0.215719" y="0.016700" text-anchor="end" font-family="'Input Sans Narrow', 'DejaVu Sans', Arial, sans-serif" font-size="0.002000" font-weight="bold" fill="#555">B</text>
  <text x="0.290193" y="0.016700" text-anchor="start" font-family="'Input Sans Narrow', 'DejaVu Sans', Arial, sans-serif" font-size="0.002000" font-weight="bold" fill="#555">B</text>
  <line x1="0.217219" y1="0.033900" x2="0.288693" y2="0.033900" stroke="#555" stroke-width="0.000250" stroke-dasharray="0.002500,0.000800,0.000500,0.000800"/>
  <text x="0.215719" y="0.034500" text-anchor="end" font-family="'Input Sans Narrow', 'DejaVu Sans', Arial, sans-serif" font-size="0.002000" font-weight="bold" fill="#555">C</text>
  <text x="0.290193" y="0.034500" text-anchor="start" font-family="'Input Sans Narrow', 'DejaVu Sans', Arial, sans-serif" font-size="0.002000" font-weight="bold" fill="#555">C</text>
  <text x="-0.001175" y="0.052090" font-family="'Input Sans Narrow', 'DejaVu Sans', Arial, sans-serif" font-size="0.003500" font-weight="bold" fill="#222">coupler_assembly</text>
  <line x1="-0.001175" y1="0.056090" x2="0.008825" y2="0.056090" stroke="#333" stroke-width="0.000350"/>
  <line x1="-0.001175" y1="0.055090" x2="-0.001175" y2="0.057090" stroke="#333" stroke-width="0.000250"/>
  <line x1="0.008825" y1="0.055090" x2="0.008825" y2="0.057090" stroke="#333" stroke-width="0.000250"/>
  <text x="0.010325" y="0.056790" font-family="'Input Sans Narrow', 'DejaVu Sans', Arial, sans-serif" font-size="0.001800" fill="#888">10 mm</text>
  <rect x="0.028825" y="0.049590" width="0.004000" height="0.002500" fill="url(#hatch_cradle)" stroke="rgb(50,120,190)" stroke-width="0.000300"/>
  <text x="0.034325" y="0.051590" font-family="'Input Sans Narrow', 'DejaVu Sans', Arial, sans-serif" font-size="0.001800" fill="rgb(50,120,190)">cradle</text>
  <rect x="0.028825" y="0.053090" width="0.004000" height="0.002500" fill="url(#hatch_servo)" stroke="rgb(60,60,60)" stroke-width="0.000300"/>
  <text x="0.034325" y="0.055090" font-family="'Input Sans Narrow', 'DejaVu Sans', Arial, sans-serif" font-size="0.001800" fill="rgb(60,60,60)">servo</text>
  <rect x="0.028825" y="0.056590" width="0.004000" height="0.002500" fill="url(#hatch_coupler)" stroke="rgb(220,60,40)" stroke-width="0.000300"/>
  <text x="0.034325" y="0.058590" font-family="'Input Sans Narrow', 'DejaVu Sans', Arial, sans-serif" font-size="0.001800" fill="rgb(220,60,40)">coupler</text>
</svg>