<?xml version='1.0' encoding='utf-8'?>
<svg width="186.25mm" height="62.15mm" viewBox="-0.003175 -0.027875 0.186250 0.062150" version="1.1" xmlns="http://www.w3.org/2000/svg">
  <defs>
    <pattern id="hatch_servo" width="0.0012" height="0.0012" patternUnits="userSpaceOnUse" patternTransform="rotate(45)">
      <line x1="0" y1="0" x2="0" y2="0.0012" stroke="rgb(60,60,60)" stroke-width="0.0001" stroke-opacity="0.6"/>
    </pattern>
    <pattern id="hatch_cradle" width="0.0012" height="0.0012" patternUnits="userSpaceOnUse" patternTransform="rotate(75)">
      <line x1="0" y1="0" x2="0" y2="0.0012" stroke="rgb(50,120,190)" stroke-width="0.0001" stroke-opacity="0.6"/>
    </pattern>
  </defs>
  <g transform="scale(1,-1)" stroke-linecap="round">
    <g fill="none" stroke="rgb(60,60,60)" stroke-width="0.00035" id="servo">
      <line x1="0.0028" y1="0.0124" x2="0.0482" y2="0.0124" />
      <line x1="0.0482" y1="0.0124" x2="0.0482" y2="-0.0124" />
      <line x1="0.0028" y1="-0.0124" x2="0.0482" y2="-0.0124" />
      <line x1="0.0028" y1="0.0124" x2="0.0028" y2="-0.0124" />
      <line x1="0.0583" y1="0.01335" x2="0.0583" y2="0.0124" />
      <line x1="0.0583" y1="0.01335" x2="0.089" y2="0.01335" />
      <line x1="0.089" y1="0.01335" x2="0.089" y2="0.0124" />
      <line x1="0.0583" y1="0.0124" x2="0.089" y2="0.0124" />
      <line x1="0.0583" y1="-0.0124" x2="0.089" y2="-0.0124" />
      <line x1="0.089" y1="-0.0124" x2="0.089" y2="-0.01335" />
      <line x1="0.0583" y1="-0.01335" x2="0.089" y2="-0.01335" />
      <line x1="0.0583" y1="-0.0124" x2="0.0583" y2="-0.01335" />
      <line x1="0.139" y1="0.0159" x2="0.139" y2="0.0187" />
      <line x1="0.139" y1="0.0159" x2="0.1452" y2="0.0159" />
      <line x1="0.1452" y1="0.0159" x2="0.1452" y2="-0.0159" />
      <line x1="0.0998" y1="-0.0159" x2="0.1452" y2="-0.0159" />
      <line x1="0.0998" y1="0.0159" x2="0.0998" y2="-0.0159" />
      <line x1="0.0998" y1="0.0159" x2="0.131" y2="0.0159" />
      <line x1="0.131" y1="0.0159" x2="0.131" y2="0.0187" />
      <line x1="0.131" y1="0.0187" x2="0.139" y2="0.0187" />
      <line x1="0.15415" y1="0.0159" x2="0.17895" y2="0.0159" />
      <line x1="0.17895" y1="0.0159" x2="0.17895" y2="-0.0159" />
      <line x1="0.15415" y1="-0.0159" x2="0.17895" y2="-0.0159" />
      <line x1="0.15415" y1="0.0159" x2="0.15415" y2="-0.0159" />
      <line x1="0.17895" y1="-0.0159" x2="0.1799" y2="-0.0159" />
      <line x1="0.1799" y1="-0.0159" x2="0.1799" y2="-0.0201" />
      <line x1="0.17895" y1="-0.0201" x2="0.1799" y2="-0.0201" />
      <line x1="0.17895" y1="-0.0159" x2="0.17895" y2="-0.0201" />
      <line x1="0.15415" y1="-0.0159" x2="0.15415" y2="-0.0201" />
      <line x1="0.1532" y1="-0.0201" x2="0.15415" y2="-0.0201" />
      <line x1="0.1532" y1="-0.0159" x2="0.1532" y2="-0.0201" />
      <line x1="0.1532" y1="-0.0159" x2="0.15415" y2="-0.0159" />
    </g>
    <g fill="url(#hatch_servo)" stroke="none" stroke-width="0" id="servo_fill">
      <path d="M 0.0482,0.0124 L 0.0028,0.0124 L 0.0028,-0.0124 L 0.0482,-0.0124 L 0.0482,0.0124" />
      <path d="M 0.0583,0.01335 L 0.0583,0.0124 L 0.089,0.0124 L 0.089,0.01335 L 0.0583,0.01335" />
      <path d="M 0.089,-0.0124 L 0.0583,-0.0124 L 0.0583,-0.01335 L 0.089,-0.01335 L 0.089,-0.0124" />
      <path d="M 0.139,0.0159 L 0.139,0.0187 L 0.131,0.0187 L 0.131,0.0159 L 0.0998,0.0159 L 0.0998,-0.0159 L 0.1452,-0.0159 L 0.1452,0.0159 L 0.139,0.0159" />
      <path d="M 0.17895,0.0159 L 0.15415,0.0159 L 0.15415,-0.0159 L 0.17895,-0.0159 L 0.17895,0.0159" />
      <path d="M 0.1799,-0.0159 L 0.17895,-0.0159 L 0.17895,-0.0201 L 0.1799,-0.0201 L 0.1799,-0.0159" />
      <path d="M 0.15415,-0.0201 L 0.15415,-0.0159 L 0.1532,-0.0159 L 0.1532,-0.0201 L 0.15415,-0.0201" />
    </g>
    <g fill="none" stroke="rgb(50,120,190)" stroke-width="0.00035" id="cradle">
      <line x1="0.0" y1="0.0152" x2="0.007526" y2="0.0152" />
      <line x1="0.007526" y1="0.0152" x2="0.007526" y2="0.0127" />
      <line x1="0.0025" y1="0.0127" x2="0.007526" y2="0.0127" />
      <line x1="0.0025" y1="0.0127" x2="0.0025" y2="-0.0127" />
      <line x1="0.0025" y1="-0.0127" x2="0.007526" y2="-0.0127" />
      <line x1="0.007526" y1="-0.0127" x2="0.007526" y2="-0.0152" />
      <line x1="0.0" y1="-0.0152" x2="0.007526" y2="-0.0152" />
      <line x1="0.0" y1="0.0152" x2="0.0" y2="-0.0152" />
      <line x1="0.0562" y1="0.0152" x2="0.063726" y2="0.0152" />
      <line x1="0.063726" y1="0.0152" x2="0.063726" y2="0.0127" />
      <line x1="0.0587" y1="0.0127" x2="0.063726" y2="0.0127" />
      <line x1="0.0587" y1="0.0127" x2="0.0587" y2="0.005" />
      <line x1="0.0562" y1="0.005" x2="0.0587" y2="0.005" />
      <line x1="0.0562" y1="0.0152" x2="0.0562" y2="0.005" />
      <line x1="0.0562" y1="-0.005" x2="0.0587" y2="-0.005" />
      <line x1="0.0587" y1="-0.005" x2="0.0587" y2="-0.0127" />
      <line x1="0.0587" y1="-0.0127" x2="0.063726" y2="-0.0127" />
      <line x1="0.063726" y1="-0.0127" x2="0.063726" y2="-0.0152" />
      <line x1="0.0562" y1="-0.0152" x2="0.063726" y2="-0.0152" />
      <line x1="0.0562" y1="-0.005" x2="0.0562" y2="-0.0152" />
      <line x1="0.097" y1="0.0187" x2="0.104526" y2="0.0187" />
      <line x1="0.104526" y1="0.0187" x2="0.104526" y2="0.0162" />
      <line x1="0.0995" y1="0.0162" x2="0.104526" y2="0.0162" />
      <line x1="0.0995" y1="0.0162" x2="0.0995" y2="-0.0129" />
      <line x1="0.097" y1="-0.0129" x2="0.0995" y2="-0.0129" />
      <line x1="0.097" y1="0.0187" x2="0.097" y2="-0.0129" />
      <line x1="0.097" y1="-0.0189" x2="0.1008" y2="-0.0189" />
      <line x1="0.1008" y1="-0.0162" x2="0.1008" y2="-0.0189" />
      <line x1="0.1008" y1="-0.0162" x2="0.104526" y2="-0.0162" />
      <line x1="0.104526" y1="-0.0162" x2="0.104526" y2="-0.0221" />
      <line x1="0.097" y1="-0.0221" x2="0.104526" y2="-0.0221" />
      <line x1="0.097" y1="-0.0189" x2="0.097" y2="-0.0221" />
    </g>
    <g fill="url(#hatch_cradle)" stroke="none" stroke-width="0" id="cradle_fill">
      <path d="M 0.007526,0.0152 L 0.0,0.0152 L 0.0,-0.0152 L 0.007526,-0.0152 L 0.007526,-0.0127 L 0.0025,-0.0127 L 0.0025,0.0127 L 0.007526,0.0127 L 0.007526,0.0152" />
      <path d="M 0.063726,0.0152 L 0.0562,0.0152 L 0.0562,0.005 L 0.0587,0.005 L 0.0587,0.0127 L 0.063726,0.0127 L 0.063726,0.0152" />
      <path d="M 0.0587,-0.005 L 0.0562,-0.005 L 0.0562,-0.0152 L 0.063726,-0.0152 L 0.063726,-0.0127 L 0.0587,-0.0127 L 0.0587,-0.005" />
      <path d="M 0.104526,0.0187 L 0.097,0.0187 L 0.097,-0.0129 L 0.0995,-0.0129 L 0.0995,0.0162 L 0.104526,0.0162 L 0.104526,0.0187" />
      <path d="M 0.1008,-0.0189 L 0.097,-0.0189 L 0.097,-0.0221 L 0.104526,-0.0221 L 0.104526,-0.0162 L 0.1008,-0.0162 L 0.1008,-0.0189" />
    </g>
  </g>
  <text x="0.024100" y="-0.024375" text-anchor="middle" font-family="'Input Sans Narrow', 'DejaVu Sans', Arial, sans-serif" font-size="0.002500" font-weight="bold" fill="#333">A-A</text>
  <text x="0.024100" y="-0.020875" text-anchor="middle" font-family="'Input Sans Narrow', 'DejaVu Sans', Arial, sans-serif" font-size="0.001800" fill="#888">front_horn</text>
  <text x="0.072600" y="-0.024375" text-anchor="middle" font-family="'Input Sans Narrow', 'DejaVu Sans', Arial, sans-serif" font-size="0.002500" font-weight="bold" fill="#333">B-B</text>
  <text x="0.072600" y="-0.020875" text-anchor="middle" font-family="'Input Sans Narrow', 'DejaVu Sans', Arial, sans-serif" font-size="0.001800" fill="#888">mid_body</text>
  <text x="0.121100" y="-0.024375" text-anchor="middle" font-family="'Input Sans Narrow', 'DejaVu Sans', Arial, sans-serif" font-size="0.002500" font-weight="bold" fill="#333">C-C</text>
  <text x="0.121100" y="-0.020875" text-anchor="middle" font-family="'Input Sans Narrow', 'DejaVu Sans', Arial, sans-serif" font-size="0.001800" fill="#888">side_XZ</text>
  <text x="0.166550" y="-0.024375" text-anchor="middle" font-family="'Input Sans Narrow', 'DejaVu Sans', Arial, sans-serif" font-size="0.002500" font-weight="bold" fill="#333">D-D</text>
  <text x="0.166550" y="-0.020875" text-anchor="middle" font-family="'Input Sans Narrow', 'DejaVu Sans', Arial, sans-serif" font-size="0.001800" fill="#888">side_YZ</text>
  <text x="-0.001175" y="0.025775" font-family="'Input Sans Narrow', 'DejaVu Sans', Arial, sans-serif" font-size="0.003500" font-weight="bold" fill="#222">cradle</text>
  <line x1="-0.001175" y1="0.029775" x2="0.008825" y2="0.029775" stroke="#333" stroke-width="0.000350"/>
  <line x1="-0.001175" y1="0.028775" x2="-0.001175" y2="0.030775" stroke="#333" stroke-width="0.000250"/>
  <line x1="0.008825" y1="0.028775" x2="0.008825" y2="0.030775" stroke="#333" stroke-width="0.000250"/>
  <text x="0.010325" y="0.030475" font-family="'Input Sans Narrow', 'DejaVu Sans', Arial, sans-serif" font-size="0.001800" fill="#888">10 mm</text>
  <rect x="0.028825" y="0.023275" width="0.004000" height="0.002500" fill="url(#hatch_servo)" stroke="rgb(60,60,60)" stroke-width="0.000300"/>
  <text x="0.034325" y="0.025275" font-family="'Input Sans Narrow', 'DejaVu Sans', Arial, sans-serif" font-size="0.001800" fill="rgb(60,60,60)">servo</text>
  <rect x="0.028825" y="0.026775" width="0.004000" height="0.002500" fill="url(#hatch_cradle)" stroke="rgb(50,120,190)" stroke-width="0.000300"/>
  <text x="0.034325" y="0.028775" font-family="'Input Sans Narrow', 'DejaVu Sans', Arial, sans-serif" font-size="0.001800" fill="rgb(50,120,190)">cradle</text>
</svg>