<?xml version='1.0' encoding='utf-8'?>
<svg width="237.62mm" height="83.35mm" viewBox="-0.003175 -0.024875 0.237616 0.083353" version="1.1" xmlns="http://www.w3.org/2000/svg">
  <defs>
    <pattern id="hatch_servo" width="0.0012" height="0.0012" patternUnits="userSpaceOnUse" patternTransform="rotate(45)">
      <line x1="0" y1="0" x2="0" y2="0.0012" stroke="rgb(60,60,60)" stroke-width="0.0001" stroke-opacity="0.6"/>
    </pattern>
    <pattern id="hatch_cradle" width="0.0012" height="0.0012" patternUnits="userSpaceOnUse" patternTransform="rotate(75)">
      <line x1="0" y1="0" x2="0" y2="0.0012" stroke="rgb(50,120,190)" stroke-width="0.0001" stroke-opacity="0.6"/>
    </pattern>
  </defs>
  <g transform="scale(1,-1)" stroke-linecap="round">
    <g fill="none" stroke="rgb(60,60,60)" stroke-width="0.00035" id="servo">
      <line x1="0.0" y1="-0.008" x2="0.0" y2="0.008" />
      <path d="M 0.0,-0.008 A 0.002,0.002 -90.0 0,1 0.002,-0.01" />
      <line x1="0.002" y1="-0.01" x2="0.018" y2="-0.01" />
      <path d="M 0.02,-0.008 A 0.002,0.002 -90.0 0,0 0.018,-0.01" />
      <line x1="0.02" y1="-0.008" x2="0.02" y2="0.008" />
      <path d="M 0.02,0.008 A 0.002,0.002 -90.0 0,1 0.018,0.01" />
      <line x1="0.002" y1="0.01" x2="0.018" y2="0.01" />
      <path d="M 0.0,0.008 A 0.002,0.002 -90.0 0,0 0.002,0.01" />
      <circle cx="0.0665" cy="0.0" r="0.003" />
      <line x1="0.0333" y1="-0.0084" x2="0.0333" y2="-0.0124" />
      <line x1="0.0333" y1="-0.0084" x2="0.0737" y2="-0.0084" />
      <line x1="0.0737" y1="-0.0084" x2="0.0737" y2="-0.0124" />
      <line x1="0.0333" y1="-0.0124" x2="0.0737" y2="-0.0124" />
      <circle cx="0.037" cy="-0.01025" r="0.0016" />
      <circle cx="0.054" cy="-0.01025" r="0.0016" />
      <circle cx="0.071" cy="-0.01025" r="0.0016" />
      <line x1="0.0333" y1="0.0124" x2="0.0737" y2="0.0124" />
      <line x1="0.0737" y1="0.0124" x2="0.0737" y2="0.0084" />
      <line x1="0.0333" y1="0.0084" x2="0.0737" y2="0.0084" />
      <line x1="0.0333" y1="0.0124" x2="0.0333" y2="0.0084" />
      <circle cx="0.037" cy="0.01025" r="0.0016" />
      <circle cx="0.054" cy="0.01025" r="0.0016" />
      <circle cx="0.071" cy="0.01025" r="0.0016" />
      <path d="M 0.0857,0.0124 A 0.004,0.004 180.0 0,1 0.0817,0.0084" />
      <line x1="0.0857" y1="0.0124" x2="0.1231" y2="0.0124" />
      <path d="M 0.1271,0.0084 A 0.004,0.004 0.0 0,1 0.1231,0.0124" />
      <line x1="0.1271" y1="0.0084" x2="0.1271" y2="-0.0084" />
      <path d="M 0.1231,-0.0124 A 0.004,0.004 0.0 0,1 0.1271,-0.0084" />
      <line x1="0.0857" y1="-0.0124" x2="0.1231" y2="-0.0124" />
      <path d="M 0.0817,-0.0084 A 0.004,0.004 180.0 0,1 0.0857,-0.0124" />
      <line x1="0.0817" y1="0.0084" x2="0.0817" y2="-0.0084" />
      <line x1="0.138446" y1="-0.032613" x2="0.138446" y2="-1.4e-05" />
      <line x1="0.138446" y1="-1.4e-05" x2="0.138466" y2="1.4e-05" />
      <path d="M 0.138446,-1.4e-05 A 0.004,6.44034636134987e-06 -3.570407266150847e-21 0,1 0.142441,-2e-05" />
      <path d="M 0.138446,-0.032613 A 0.004,6.44034636134987e-06 -3.570407266150847e-21 0,1 0.140441,-0.032619" />
      <path d="M 0.140441,-0.032619 A 0.004,6.44034636134987e-06 -3.570407266150847e-21 0,1 0.142441,-0.03262" />
      <line x1="0.142441" y1="-0.03262" x2="0.142441" y2="-2e-05" />
      <path d="M 0.183846,-0.032614 A 0.004,6.44034636134987e-06 180.0 0,0 0.180841,-0.03262" />
      <line x1="0.183846" y1="-0.032614" x2="0.183866" y2="-0.032586" />
      <path d="M 0.138466,1.4e-05 A 0.004,6.44034636134987e-06 180.0 0,0 0.142471,2e-05" />
      <line x1="0.142441" y1="-2e-05" x2="0.179841" y2="-2e-05" />
      <line x1="0.142471" y1="2e-05" x2="0.163646" y2="2e-05" />
      <path d="M 0.183846,-1.4e-05 A 0.004,6.44034636134987e-06 180.0 0,0 0.179841,-2e-05" />
      <path d="M 0.183866,1.3e-05 A 0.004,6.44034636134987e-06 -3.570407266150847e-21 0,1 0.183666,1.5e-05" />
      <line x1="0.183846" y1="-1.4e-05" x2="0.183866" y2="1.3e-05" />
      <path d="M 0.163646,-1.3e-05 A 0.002,3.220173180674935e-06 -3.570407266150847e-21 0,1 0.165644,-1.6e-05" />
      <line x1="0.165644" y1="-1.6e-05" x2="0.181644" y2="-1.6e-05" />
      <path d="M 0.183646,-1.3e-05 A 0.002,3.220173180674935e-06 180.0 0,0 0.181644,-1.6e-05" />
      <line x1="0.183646" y1="-1.3e-05" x2="0.183666" y2="1.3e-05" />
      <line x1="0.140441" y1="-0.03262" x2="0.140441" y2="-0.032619" />
      <line x1="0.140441" y1="-0.03262" x2="0.142441" y2="-0.03262" />
      <line x1="0.179841" y1="-0.03262" x2="0.179841" y2="-2e-05" />
      <line x1="0.179841" y1="-0.03262" x2="0.180841" y2="-0.03262" />
      <line x1="0.180841" y1="-0.03472" x2="0.180841" y2="-0.03262" />
      <line x1="0.140441" y1="-0.03472" x2="0.180841" y2="-0.03472" />
      <line x1="0.140441" y1="-0.03472" x2="0.140441" y2="-0.03262" />
      <line x1="0.180846" y1="-0.034714" x2="0.180846" y2="-0.03262" />
      <line x1="0.180846" y1="-0.034686" x2="0.180866" y2="-0.034686" />
      <line x1="0.180866" y1="-0.034686" x2="0.180866" y2="-0.03262" />
      <line x1="0.180841" y1="-0.03472" x2="0.180846" y2="-0.034714" />
      <line x1="0.180871" y1="-0.03468" x2="0.180871" y2="-0.03262" />
      <line x1="0.180866" y1="-0.034686" x2="0.180871" y2="-0.03468" />
      <line x1="0.183846" y1="-0.032614" x2="0.183846" y2="-1.4e-05" />
      <path d="M 0.180841,-0.03262 A 0.004,6.44034636134987e-06 180.0 0,0 0.179841,-0.03262" />
      <line x1="0.183866" y1="1.3e-05" x2="0.183866" y2="-0.032586" />
      <path d="M 0.180871,-0.03258 A 0.004,6.44034636134987e-06 -3.570407266150847e-21 0,1 0.179871,-0.03258" />
      <path d="M 0.163646,0.001687 A 0.002,3.220173180674935e-06 -3.570407266150847e-21 0,1 0.165644,0.001684" />
      <line x1="0.165644" y1="0.001684" x2="0.181644" y2="0.001684" />
      <path d="M 0.183646,0.001687 A 0.002,3.220173180674935e-06 180.0 0,0 0.181644,0.001684" />
      <line x1="0.183646" y1="0.001687" x2="0.183666" y2="0.001713" />
      <path d="M 0.183666,0.001713 A 0.002,3.220173180674935e-06 -3.570407266150847e-21 0,1 0.181668,0.001716" />
      <line x1="0.165668" y1="0.001716" x2="0.169156" y2="0.001716" />
      <line x1="0.178156" y1="0.001716" x2="0.181668" y2="0.001716" />
      <path d="M 0.163666,0.001713 A 0.002,3.220173180674935e-06 180.0 0,0 0.165668,0.001716" />
      <line x1="0.163646" y1="0.001687" x2="0.163666" y2="0.001713" />
      <path d="M 0.169156,0.0017 A 0.004500000000000004,7.245389656518609e-06 -7.88103626567807e-21 0,1 0.178156,0.0017" />
      <path d="M 0.178156,0.0032 A 0.004500000000000004,7.245389656518609e-06 -7.88103626567807e-21 1,1 0.169156,0.0032" />
      <path d="M 0.169156,0.0032 A 0.004500000000000004,7.245389656518609e-06 -7.88103626567807e-21 0,1 0.178156,0.0032" />
      <line x1="0.163646" y1="-1.3e-05" x2="0.163646" y2="0.001687" />
      <line x1="0.165644" y1="-1.6e-05" x2="0.165644" y2="0.001684" />
      <line x1="0.181644" y1="-1.6e-05" x2="0.181644" y2="0.001684" />
      <line x1="0.183646" y1="-1.3e-05" x2="0.183646" y2="0.001687" />
      <line x1="0.183666" y1="1.3e-05" x2="0.183666" y2="0.001713" />
      <line x1="0.138446" y1="-0.032613" x2="0.138446" y2="-1.4e-05" />
      <line x1="0.183866" y1="-0.032586" x2="0.183866" y2="1.3e-05" />
      <line x1="0.163646" y1="-1.3e-05" x2="0.163646" y2="0.001687" />
      <line x1="0.183666" y1="1.3e-05" x2="0.183666" y2="0.001713" />
      <line x1="0.178156" y1="0.0017" x2="0.178156" y2="0.0032" />
      <line x1="0.169156" y1="0.0017" x2="0.169156" y2="0.0032" />
      <path d="M 0.197566,3.6e-05 A 0.004,6.432478755953831e-06 6.500546119967843e-37 0,1 0.195166,3e-05" />
      <path d="M 0.199166,-0.032636 A 0.004,6.432478755953831e-06 -180.0 0,0 0.195293,-0.032631" />
      <path d="M 0.215966,-0.032636 A 0.004,6.432478755953831e-06 6.500546119967843e-37 0,1 0.219839,-0.032631" />
      <line x1="0.199166" y1="-0.032636" x2="0.215966" y2="-0.032636" />
      <path d="M 0.217566,3.6e-05 A 0.004,6.432478755953831e-06 -180.0 0,0 0.219966,3e-05" />
      <line x1="0.195166" y1="3e-05" x2="0.195166" y2="-3e-05" />
      <line x1="0.219966" y1="3e-05" x2="0.219966" y2="-3e-05" />
      <path d="M 0.199166,-3.6e-05 A 0.004,6.432478755953831e-06 -180.0 0,0 0.195166,-3e-05" />
      <path d="M 0.215966,-3.6e-05 A 0.004,6.432478755953831e-06 6.500546119967843e-37 0,1 0.219966,-3e-05" />
      <line x1="0.199166" y1="-3.6e-05" x2="0.215966" y2="-3.6e-05" />
      <path d="M 0.199566,-3.6e-05 A 0.002,3.2162393779769155e-06 -180.0 0,0 0.197566,-3.3e-05" />
      <line x1="0.199566" y1="-3.6e-05" x2="0.215566" y2="-3.6e-05" />
      <path d="M 0.215566,-3.6e-05 A 0.002,3.2162393779769155e-06 6.500546119967843e-37 0,1 0.217566,-3.3e-05" />
      <line x1="0.195166" y1="-0.03263" x2="0.195166" y2="-3e-05" />
      <line x1="0.195166" y1="-0.03263" x2="0.195166" y2="-0.032631" />
      <line x1="0.195166" y1="-0.034731" x2="0.195166" y2="-0.032631" />
      <line x1="0.199166" y1="-0.034731" x2="0.199166" y2="-0.032636" />
      <line x1="0.215966" y1="-0.034731" x2="0.215966" y2="-0.032636" />
      <line x1="0.195166" y1="-0.032631" x2="0.195293" y2="-0.032631" />
      <line x1="0.195166" y1="-0.034731" x2="0.199166" y2="-0.034731" />
      <line x1="0.219839" y1="-0.032631" x2="0.219966" y2="-0.032631" />
      <line x1="0.219966" y1="-0.034731" x2="0.219966" y2="-0.032631" />
      <line x1="0.215966" y1="-0.034731" x2="0.219966" y2="-0.034731" />
      <line x1="0.199166" y1="-0.032636" x2="0.199166" y2="-3.6e-05" />
      <path d="M 0.195293,-0.032631 A 0.004,6.432478755953831e-06 -180.0 0,0 0.195166,-0.03263" />
      <line x1="0.219966" y1="-3e-05" x2="0.219966" y2="-0.03263" />
      <line x1="0.215966" y1="-3.6e-05" x2="0.215966" y2="-0.032636" />
      <path d="M 0.219839,-0.032631 A 0.004,6.432478755953831e-06 6.500546119967843e-37 0,1 0.219966,-0.03263" />
      <path d="M 0.207566,-0.033924 A 0.003,4.824359066965373e-06 3.470408899297471e-37 0,1 0.210566,-0.03392" />
      <path d="M 0.204566,-0.03392 A 0.003,4.824359066965373e-06 3.470408899297471e-37 0,1 0.207566,-0.033924" />
      <line x1="0.219966" y1="-0.03263" x2="0.219966" y2="-0.032631" />
      <path d="M 0.199566,0.001696 A 0.002,3.2162393779769155e-06 6.500546119967843e-37 0,1 0.197566,0.001693" />
      <line x1="0.197566" y1="-3.3e-05" x2="0.197566" y2="0.001667" />
      <line x1="0.197566" y1="0.001693" x2="0.197566" y2="0.001667" />
      <path d="M 0.199566,0.001664 A 0.002,3.2162393779769155e-06 -180.0 0,0 0.197566,0.001667" />
      <line x1="0.199566" y1="0.001664" x2="0.215566" y2="0.001664" />
      <line x1="0.217566" y1="-3.3e-05" x2="0.217566" y2="0.001667" />
      <path d="M 0.215566,0.001664 A 0.002,3.2162393779769155e-06 6.500546119967843e-37 0,1 0.217566,0.001667" />
      <line x1="0.217566" y1="0.001693" x2="0.217566" y2="0.001667" />
      <path d="M 0.215566,0.001696 A 0.002,3.2162393779769155e-06 -180.0 0,0 0.217566,0.001693" />
      <line x1="0.199566" y1="0.001696" x2="0.203066" y2="0.001696" />
      <line x1="0.212066" y1="0.001696" x2="0.215566" y2="0.001696" />
      <path d="M 0.207566,0.001673 A 0.0045,7.23653860044806e-06 3.470408899297471e-37 0,1 0.212066,0.00168" />
      <path d="M 0.203066,0.00168 A 0.0045,7.23653860044806e-06 3.470408899297471e-37 0,1 0.207566,0.001673" />
      <path d="M 0.207566,0.003173 A 0.0045,7.23653860044806e-06 3.470408899297471e-37 0,1 0.212066,0.00318" />
      <path d="M 0.212066,0.00318 A 0.004500000000000004,7.236538600448066e-06 3.470408899297471e-37 0,1 0.203066,0.00318" />
      <path d="M 0.203066,0.00318 A 0.0045,7.23653860044806e-06 3.470408899297471e-37 0,1 0.207566,0.003173" />
      <line x1="0.199566" y1="-3.6e-05" x2="0.199566" y2="0.001664" />
      <line x1="0.215566" y1="-3.6e-05" x2="0.215566" y2="0.001664" />
      <line x1="0.210566" y1="-0.03392" x2="0.210566" y2="-0.032636" />
      <line x1="0.204566" y1="-0.03392" x2="0.204566" y2="-0.032636" />
      <line x1="0.212066" y1="0.00168" x2="0.212066" y2="0.00318" />
      <line x1="0.203066" y1="0.00168" x2="0.203066" y2="0.00318" />
    </g>
    <g fill="url(#hatch_servo)" stroke="none" stroke-width="0" id="servo_fill">
      <path d="M 0.0,0.008 L 0.0,-0.008 A 0.002,0.002 -90.0 0,1 0.002,-0.01 L 0.018,-0.01 A 0.002,0.002 -90.0 0,1 0.02,-0.008 L 0.02,0.008 A 0.002,0.002 -90.0 0,1 0.018,0.01 L 0.002,0.01 A 0.002,0.002 -90.0 0,1 0.0,0.008" />
      <circle cx="0.0665" cy="0.0" r="0.003" />
      <path d="M 0.0333,-0.0084 L 0.0333,-0.0124 L 0.0737,-0.0124 L 0.0737,-0.0084 L 0.0333,-0.0084 M 0.0386,-0.01025 A 0.0016000000000000007,0.0016000000000000007 0.0 0,0 0.0354,-0.01025 A 0.0016000000000000007,0.0016000000000000007 0.0 0,0 0.0386,-0.01025 M 0.0556,-0.01025 A 0.0016,0.0016 0.0 0,0 0.0524,-0.01025 A 0.0016,0.0016 0.0 0,0 0.0556,-0.01025 M 0.0726,-0.01025 A 0.0016,0.0016 0.0 0,0 0.0694,-0.01025 A 0.0016,0.0016 0.0 0,0 0.0726,-0.01025" />
      <path d="M 0.0737,0.0124 L 0.0333,0.0124 L 0.0333,0.0084 L 0.0737,0.0084 L 0.0737,0.0124 M 0.0386,0.01025 A 0.0016000000000000007,0.0016000000000000007 0.0 0,0 0.0354,0.01025 A 0.0016000000000000007,0.0016000000000000007 0.0 0,0 0.0386,0.01025 M 0.0556,0.01025 A 0.0016,0.0016 0.0 0,0 0.0524,0.01025 A 0.0016,0.0016 0.0 0,0 0.0556,0.01025 M 0.0726,0.01025 A 0.0016,0.0016 0.0 0,0 0.0694,0.01025 A 0.0016,0.0016 0.0 0,0 0.0726,0.01025" />
      <path d="M 0.0857,0.0124 A 0.004,0.004 180.0 0,1 0.0817,0.0084 L 0.0817,-0.0084 A 0.004,0.004 180.0 0,1 0.0857,-0.0124 L 0.1231,-0.0124 A 0.004,0.004 0.0 0,1 0.1271,-0.0084 L 0.1271,0.0084 A 0.004,0.004 0.0 0,1 0.1231,0.0124 L 0.0857,0.0124" />
    </g>
    <g fill="none" stroke="rgb(60,60,60)" stroke-opacity="0.4" stroke-width="0.00015" id="servo_hidden" stroke-dasharray="0.0018 0.00045">
      <line x1="0.138446" y1="-0.032613" x2="0.138466" y2="-0.032586" />
      <line x1="0.138466" y1="1.4e-05" x2="0.138466" y2="-0.032586" />
      <path d="M 0.138466,-0.032586 A 0.004,6.44034636134987e-06 180.0 0,0 0.14047,-0.032581" />
      <line x1="0.140441" y1="-0.032619" x2="0.140446" y2="-0.032613" />
      <line x1="0.140466" y1="-0.032586" x2="0.14047" y2="-0.032581" />
      <line x1="0.140446" y1="-0.032613" x2="0.180846" y2="-0.032614" />
      <line x1="0.140466" y1="-0.032586" x2="0.180866" y2="-0.032586" />
      <line x1="0.180841" y1="-0.03262" x2="0.180846" y2="-0.032614" />
      <line x1="0.180866" y1="-0.032586" x2="0.180871" y2="-0.03258" />
      <path d="M 0.183866,-0.032586 A 0.004,6.44034636134987e-06 -3.570407266150847e-21 0,1 0.180871,-0.03258" />
      <path d="M 0.176656,-0.0326 A 0.0030000000000000027,4.8302597710124065e-06 -7.88103626567807e-21 1,1 0.170656,-0.0326" />
      <path d="M 0.170656,-0.0326 A 0.0030000000000000027,4.8302597710124065e-06 -7.88103626567807e-21 0,1 0.176656,-0.0326" />
      <line x1="0.142471" y1="2e-05" x2="0.142471" y2="-0.03258" />
      <path d="M 0.14047,-0.032581 A 0.004,6.44034636134987e-06 180.0 0,0 0.142471,-0.03258" />
      <line x1="0.163646" y1="2e-05" x2="0.179871" y2="2e-05" />
      <path d="M 0.183666,1.5e-05 A 0.004,6.44034636134987e-06 -3.570407266150847e-21 0,1 0.179871,2e-05" />
      <path d="M 0.183666,1.3e-05 A 0.002,3.220173180674935e-06 -3.570407266150847e-21 0,1 0.181668,1.6e-05" />
      <line x1="0.165668" y1="1.6e-05" x2="0.181668" y2="1.6e-05" />
      <path d="M 0.163666,1.3e-05 A 0.002,3.220173180674935e-06 180.0 0,0 0.165668,1.6e-05" />
      <line x1="0.163646" y1="-1.3e-05" x2="0.163666" y2="1.3e-05" />
      <line x1="0.140446" y1="-0.034713" x2="0.140446" y2="-0.032613" />
      <line x1="0.140441" y1="-0.03472" x2="0.140446" y2="-0.034713" />
      <line x1="0.140466" y1="-0.034686" x2="0.140466" y2="-0.032586" />
      <line x1="0.14047" y1="-0.032581" x2="0.140471" y2="-0.03258" />
      <line x1="0.140471" y1="-0.03468" x2="0.140471" y2="-0.03258" />
      <line x1="0.140466" y1="-0.034686" x2="0.140471" y2="-0.03468" />
      <line x1="0.140446" y1="-0.034713" x2="0.180846" y2="-0.034714" />
      <line x1="0.180846" y1="-0.03262" x2="0.180846" y2="-0.032614" />
      <line x1="0.140466" y1="-0.034686" x2="0.180846" y2="-0.034686" />
      <line x1="0.180866" y1="-0.03262" x2="0.180866" y2="-0.032586" />
      <line x1="0.180871" y1="-0.03262" x2="0.180871" y2="-0.03258" />
      <line x1="0.179871" y1="2e-05" x2="0.179871" y2="-0.03258" />
      <path d="M 0.176656,-0.0339 A 0.0030000000000000027,4.8302597710124065e-06 -7.88103626567807e-21 1,1 0.170656,-0.0339" />
      <path d="M 0.170656,-0.0339 A 0.0030000000000000027,4.8302597710124065e-06 -7.88103626567807e-21 0,1 0.176656,-0.0339" />
      <line x1="0.179871" y1="-0.03258" x2="0.180871" y2="-0.03258" />
      <line x1="0.140471" y1="-0.03468" x2="0.180871" y2="-0.03468" />
      <line x1="0.140471" y1="-0.03258" x2="0.142471" y2="-0.03258" />
      <line x1="0.169156" y1="0.001716" x2="0.178156" y2="0.001716" />
      <path d="M 0.145743,-0.034716 A 0.0016000000000000044,2.576138544539955e-06 -7.88103626567807e-21 1,1 0.142543,-0.034716" />
      <path d="M 0.142543,-0.034716 A 0.0016000000000000044,2.576138544539955e-06 -7.88103626567807e-21 0,1 0.145743,-0.034716" />
      <path d="M 0.162743,-0.034716 A 0.0016000000000000044,2.576138544539955e-06 -7.88103626567807e-21 1,1 0.159543,-0.034716" />
      <path d="M 0.159543,-0.034716 A 0.0016000000000000044,2.576138544539955e-06 -7.88103626567807e-21 0,1 0.162743,-0.034716" />
      <path d="M 0.179743,-0.034717 A 0.0016000000000000044,2.576138544539955e-06 -7.88103626567807e-21 1,1 0.176543,-0.034717" />
      <path d="M 0.176543,-0.034717 A 0.0016000000000000044,2.576138544539955e-06 -7.88103626567807e-21 0,1 0.179743,-0.034717" />
      <path d="M 0.145768,-0.034683 A 0.0016000000000000044,2.576138544539955e-06 -7.88103626567807e-21 1,1 0.142568,-0.034683" />
      <path d="M 0.142568,-0.034683 A 0.0016000000000000044,2.576138544539955e-06 -7.88103626567807e-21 0,1 0.145768,-0.034683" />
      <path d="M 0.162768,-0.034683 A 0.0016000000000000044,2.576138544539955e-06 -7.88103626567807e-21 1,1 0.159568,-0.034683" />
      <path d="M 0.159568,-0.034683 A 0.0016000000000000044,2.576138544539955e-06 -7.88103626567807e-21 0,1 0.162768,-0.034683" />
      <path d="M 0.179768,-0.034684 A 0.0016000000000000044,2.576138544539955e-06 -7.88103626567807e-21 1,1 0.176568,-0.034684" />
      <path d="M 0.176568,-0.034684 A 0.0016000000000000044,2.576138544539955e-06 -7.88103626567807e-21 0,1 0.179768,-0.034684" />
      <path d="M 0.178156,0.0017 A 0.004500000000000004,7.245389656518609e-06 -7.88103626567807e-21 1,1 0.169156,0.0017" />
      <path d="M 0.145743,-0.024716 A 0.0016000000000000044,2.576138544539955e-06 -7.88103626567807e-21 1,1 0.142543,-0.024716" />
      <path d="M 0.142543,-0.024716 A 0.0016000000000000044,2.576138544539955e-06 -7.88103626567807e-21 0,1 0.145743,-0.024716" />
      <path d="M 0.162743,-0.024716 A 0.0016000000000000044,2.576138544539955e-06 -7.88103626567807e-21 1,1 0.159543,-0.024716" />
      <path d="M 0.159543,-0.024716 A 0.0016000000000000044,2.576138544539955e-06 -7.88103626567807e-21 0,1 0.162743,-0.024716" />
      <path d="M 0.179743,-0.024717 A 0.0016000000000000044,2.576138544539955e-06 -7.88103626567807e-21 1,1 0.176543,-0.024717" />
      <path d="M 0.176543,-0.024717 A 0.0016000000000000044,2.576138544539955e-06 -7.88103626567807e-21 0,1 0.179743,-0.024717" />
      <path d="M 0.145768,-0.024683 A 0.0016000000000000044,2.576138544539955e-06 -7.88103626567807e-21 1,1 0.142568,-0.024683" />
      <path d="M 0.142568,-0.024683 A 0.0016000000000000044,2.576138544539955e-06 -7.88103626567807e-21 0,1 0.145768,-0.024683" />
      <path d="M 0.162768,-0.024683 A 0.0016000000000000044,2.576138544539955e-06 -7.88103626567807e-21 1,1 0.159568,-0.024683" />
      <path d="M 0.159568,-0.024683 A 0.0016000000000000044,2.576138544539955e-06 -7.88103626567807e-21 0,1 0.162768,-0.024683" />
      <path d="M 0.179768,-0.024684 A 0.0016000000000000044,2.576138544539955e-06 -7.88103626567807e-21 1,1 0.176568,-0.024684" />
      <path d="M 0.176568,-0.024684 A 0.0016000000000000044,2.576138544539955e-06 -7.88103626567807e-21 0,1 0.179768,-0.024684" />
      <line x1="0.176656" y1="-0.0339" x2="0.176656" y2="-0.0326" />
      <line x1="0.170656" y1="-0.0339" x2="0.170656" y2="-0.0326" />
      <line x1="0.145743" y1="-0.034716" x2="0.145743" y2="-0.024716" />
      <line x1="0.142543" y1="-0.034716" x2="0.142543" y2="-0.024716" />
      <line x1="0.162743" y1="-0.034716" x2="0.162743" y2="-0.024716" />
      <line x1="0.159543" y1="-0.034716" x2="0.159543" y2="-0.024716" />
      <line x1="0.179743" y1="-0.034717" x2="0.179743" y2="-0.024717" />
      <line x1="0.176543" y1="-0.034717" x2="0.176543" y2="-0.024717" />
      <line x1="0.145768" y1="-0.034683" x2="0.145768" y2="-0.024683" />
      <line x1="0.142568" y1="-0.034683" x2="0.142568" y2="-0.024683" />
      <line x1="0.162768" y1="-0.034683" x2="0.162768" y2="-0.024683" />
      <line x1="0.159568" y1="-0.034683" x2="0.159568" y2="-0.024683" />
      <line x1="0.179768" y1="-0.034684" x2="0.179768" y2="-0.024684" />
      <line x1="0.176568" y1="-0.034684" x2="0.176568" y2="-0.024684" />
      <line x1="0.181668" y1="1.6e-05" x2="0.181668" y2="0.001716" />
      <line x1="0.165668" y1="1.6e-05" x2="0.165668" y2="0.001716" />
      <line x1="0.163666" y1="1.3e-05" x2="0.163666" y2="0.001713" />
      <line x1="0.199166" y1="-0.032563" x2="0.199166" y2="3.7e-05" />
      <line x1="0.199166" y1="-0.032563" x2="0.215966" y2="-0.032563" />
      <line x1="0.215966" y1="3.7e-05" x2="0.215966" y2="-0.032563" />
      <line x1="0.199166" y1="3.7e-05" x2="0.215966" y2="3.7e-05" />
      <path d="M 0.199166,3.7e-05 A 0.004,6.432478755953831e-06 6.500546119967843e-37 0,1 0.197566,3.6e-05" />
      <path d="M 0.199166,-0.032563 A 0.004,6.432478755953831e-06 6.500546119967843e-37 0,1 0.195702,-0.032566" />
      <path d="M 0.195702,-0.032566 A 0.004,6.432478755953831e-06 6.500546119967843e-37 0,1 0.195166,-0.032569" />
      <line x1="0.195166" y1="-0.032569" x2="0.195166" y2="3e-05" />
      <path d="M 0.215966,-0.032563 A 0.004,6.432478755953831e-06 -180.0 0,0 0.21943,-0.032566" />
      <line x1="0.195702" y1="-0.032566" x2="0.199166" y2="-0.032566" />
      <line x1="0.215966" y1="-0.032566" x2="0.21943" y2="-0.032566" />
      <line x1="0.199166" y1="-0.032566" x2="0.199166" y2="-0.032631" />
      <line x1="0.215966" y1="-0.032566" x2="0.215966" y2="-0.032631" />
      <line x1="0.195293" y1="-0.032631" x2="0.199166" y2="-0.032631" />
      <line x1="0.215966" y1="-0.032631" x2="0.219839" y2="-0.032631" />
      <path d="M 0.207566,-0.032624 A 0.003,4.824359066965373e-06 3.470408899297471e-37 0,1 0.210566,-0.03262" />
      <path d="M 0.210566,-0.03262 A 0.0030000000000000027,4.824359066965377e-06 3.470408899297471e-37 0,1 0.204566,-0.03262" />
      <path d="M 0.204566,-0.03262 A 0.003,4.824359066965373e-06 3.470408899297471e-37 0,1 0.207566,-0.032624" />
      <line x1="0.219966" y1="3e-05" x2="0.219966" y2="-0.032569" />
      <path d="M 0.215966,3.7e-05 A 0.004,6.432478755953831e-06 -180.0 0,0 0.217566,3.6e-05" />
      <path d="M 0.21943,-0.032566 A 0.004,6.432478755953831e-06 -180.0 0,0 0.219966,-0.032569" />
      <path d="M 0.199566,-4e-06 A 0.002,3.2162393779769155e-06 6.500546119967843e-37 0,1 0.197566,-7e-06" />
      <line x1="0.197566" y1="-7e-06" x2="0.197566" y2="-3.3e-05" />
      <line x1="0.217566" y1="-7e-06" x2="0.217566" y2="-3.3e-05" />
      <path d="M 0.215566,-4e-06 A 0.002,3.2162393779769155e-06 -180.0 0,0 0.217566,-7e-06" />
      <line x1="0.199566" y1="-4e-06" x2="0.215566" y2="-4e-06" />
      <line x1="0.195166" y1="-0.032566" x2="0.195702" y2="-0.032566" />
      <line x1="0.195166" y1="-0.032566" x2="0.195166" y2="-0.032569" />
      <line x1="0.195166" y1="-0.034666" x2="0.195166" y2="-0.034731" />
      <line x1="0.195166" y1="-0.034666" x2="0.195166" y2="-0.032566" />
      <line x1="0.199166" y1="-0.034666" x2="0.199166" y2="-0.032566" />
      <line x1="0.195166" y1="-0.034666" x2="0.199166" y2="-0.034666" />
      <line x1="0.215966" y1="-0.034666" x2="0.215966" y2="-0.032566" />
      <line x1="0.21943" y1="-0.032566" x2="0.219966" y2="-0.032566" />
      <line x1="0.219966" y1="-0.034666" x2="0.219966" y2="-0.032566" />
      <line x1="0.215966" y1="-0.034666" x2="0.219966" y2="-0.034666" />
      <line x1="0.199166" y1="-0.034666" x2="0.199166" y2="-0.034731" />
      <line x1="0.199166" y1="-0.032636" x2="0.199166" y2="-0.032631" />
      <line x1="0.215966" y1="-0.034666" x2="0.215966" y2="-0.034731" />
      <line x1="0.215966" y1="-0.032636" x2="0.215966" y2="-0.032631" />
      <path d="M 0.210566,-0.03392 A 0.0030000000000000027,4.824359066965377e-06 3.470408899297471e-37 0,1 0.204566,-0.03392" />
      <line x1="0.219966" y1="-0.034666" x2="0.219966" y2="-0.034731" />
      <line x1="0.219966" y1="-0.032566" x2="0.219966" y2="-0.032569" />
      <line x1="0.197566" y1="-7e-06" x2="0.197566" y2="0.001693" />
      <line x1="0.217566" y1="-7e-06" x2="0.217566" y2="0.001693" />
      <line x1="0.203066" y1="0.001696" x2="0.212066" y2="0.001696" />
      <path d="M 0.197316,-0.034675 A 0.0016,2.5729915023815325e-06 3.470408899297471e-37 0,1 0.198916,-0.034672" />
      <path d="M 0.198916,-0.034672 A 0.0016000000000000044,2.5729915023815393e-06 3.470408899297471e-37 0,1 0.195716,-0.034672" />
      <path d="M 0.195716,-0.034672 A 0.0016,2.5729915023815325e-06 3.470408899297471e-37 0,1 0.197316,-0.034675" />
      <path d="M 0.197316,-0.034702 A 0.0016,2.5729915023815325e-06 3.470408899297471e-37 0,1 0.198916,-0.0347" />
      <path d="M 0.198916,-0.0347 A 0.0016000000000000044,2.5729915023815393e-06 3.470408899297471e-37 0,1 0.195716,-0.0347" />
      <path d="M 0.195716,-0.0347 A 0.0016,2.5729915023815325e-06 3.470408899297471e-37 0,1 0.197316,-0.034702" />
      <path d="M 0.197316,-0.034729 A 0.0016,2.5729915023815325e-06 3.470408899297471e-37 0,1 0.198916,-0.034727" />
      <path d="M 0.198916,-0.034727 A 0.0016000000000000044,2.5729915023815393e-06 3.470408899297471e-37 0,1 0.195716,-0.034727" />
      <path d="M 0.195716,-0.034727 A 0.0016,2.5729915023815325e-06 3.470408899297471e-37 0,1 0.197316,-0.034729" />
      <path d="M 0.217816,-0.034675 A 0.0016,2.5729915023815325e-06 3.470408899297471e-37 0,1 0.219416,-0.034672" />
      <path d="M 0.219416,-0.034672 A 0.0016000000000000044,2.5729915023815393e-06 3.470408899297471e-37 0,1 0.216216,-0.034672" />
      <path d="M 0.216216,-0.034672 A 0.0016,2.5729915023815325e-06 3.470408899297471e-37 0,1 0.217816,-0.034675" />
      <path d="M 0.217816,-0.034702 A 0.0016,2.5729915023815325e-06 3.470408899297471e-37 0,1 0.219416,-0.0347" />
      <path d="M 0.219416,-0.0347 A 0.0016000000000000044,2.5729915023815393e-06 3.470408899297471e-37 0,1 0.216216,-0.0347" />
      <path d="M 0.216216,-0.0347 A 0.0016,2.5729915023815325e-06 3.470408899297471e-37 0,1 0.217816,-0.034702" />
      <path d="M 0.217816,-0.034729 A 0.0016,2.5729915023815325e-06 3.470408899297471e-37 0,1 0.219416,-0.034727" />
      <path d="M 0.219416,-0.034727 A 0.0016000000000000044,2.5729915023815393e-06 3.470408899297471e-37 0,1 0.216216,-0.034727" />
      <path d="M 0.216216,-0.034727 A 0.0016,2.5729915023815325e-06 3.470408899297471e-37 0,1 0.217816,-0.034729" />
      <path d="M 0.212066,0.00168 A 0.004500000000000004,7.236538600448066e-06 3.470408899297471e-37 0,1 0.203066,0.00168" />
      <path d="M 0.197316,-0.024675 A 0.0016,2.5729915023815325e-06 3.470408899297471e-37 0,1 0.198916,-0.024672" />
      <path d="M 0.198916,-0.024672 A 0.0016000000000000044,2.5729915023815393e-06 3.470408899297471e-37 0,1 0.195716,-0.024672" />
      <path d="M 0.195716,-0.024672 A 0.0016,2.5729915023815325e-06 3.470408899297471e-37 0,1 0.197316,-0.024675" />
      <path d="M 0.197316,-0.024702 A 0.0016,2.5729915023815325e-06 3.470408899297471e-37 0,1 0.198916,-0.0247" />
      <path d="M 0.198916,-0.0247 A 0.0016000000000000044,2.5729915023815393e-06 3.470408899297471e-37 0,1 0.195716,-0.0247" />
      <path d="M 0.195716,-0.0247 A 0.0016,2.5729915023815325e-06 3.470408899297471e-37 0,1 0.197316,-0.024702" />
      <path d="M 0.197316,-0.024729 A 0.0016,2.5729915023815325e-06 3.470408899297471e-37 0,1 0.198916,-0.024727" />
      <path d="M 0.198916,-0.024727 A 0.0016000000000000044,2.5729915023815393e-06 3.470408899297471e-37 0,1 0.195716,-0.024727" />
      <path d="M 0.195716,-0.024727 A 0.0016,2.5729915023815325e-06 3.470408899297471e-37 0,1 0.197316,-0.024729" />
      <path d="M 0.217816,-0.024675 A 0.0016,2.5729915023815325e-06 3.470408899297471e-37 0,1 0.219416,-0.024672" />
      <path d="M 0.219416,-0.024672 A 0.0016000000000000044,2.5729915023815393e-06 3.470408899297471e-37 0,1 0.216216,-0.024672" />
      <path d="M 0.216216,-0.024672 A 0.0016,2.5729915023815325e-06 3.470408899297471e-37 0,1 0.217816,-0.024675" />
      <path d="M 0.217816,-0.024702 A 0.0016,2.5729915023815325e-06 3.470408899297471e-37 0,1 0.219416,-0.0247" />
      <path d="M 0.219416,-0.0247 A 0.0016000000000000044,2.5729915023815393e-06 3.470408899297471e-37 0,1 0.216216,-0.0247" />
      <path d="M 0.216216,-0.0247 A 0.0016,2.5729915023815325e-06 3.470408899297471e-37 0,1 0.217816,-0.024702" />
      <path d="M 0.217816,-0.024729 A 0.0016,2.5729915023815325e-06 3.470408899297471e-37 0,1 0.219416,-0.024727" />
      <path d="M 0.219416,-0.024727 A 0.0016000000000000044,2.5729915023815393e-06 3.470408899297471e-37 0,1 0.216216,-0.024727" />
      <path d="M 0.216216,-0.024727 A 0.0016,2.5729915023815325e-06 3.470408899297471e-37 0,1 0.217816,-0.024729" />
      <line x1="0.210566" y1="-0.032636" x2="0.210566" y2="-0.03262" />
      <line x1="0.204566" y1="-0.032636" x2="0.204566" y2="-0.03262" />
      <line x1="0.198916" y1="-0.034672" x2="0.198916" y2="-0.024672" />
      <line x1="0.195716" y1="-0.034672" x2="0.195716" y2="-0.024672" />
      <line x1="0.198916" y1="-0.0347" x2="0.198916" y2="-0.0247" />
      <line x1="0.195716" y1="-0.0347" x2="0.195716" y2="-0.0247" />
      <line x1="0.198916" y1="-0.034727" x2="0.198916" y2="-0.024727" />
      <line x1="0.195716" y1="-0.034727" x2="0.195716" y2="-0.024727" />
      <line x1="0.219416" y1="-0.034672" x2="0.219416" y2="-0.024672" />
      <line x1="0.216216" y1="-0.034672" x2="0.216216" y2="-0.024672" />
      <line x1="0.219416" y1="-0.0347" x2="0.219416" y2="-0.0247" />
      <line x1="0.216216" y1="-0.0347" x2="0.216216" y2="-0.0247" />
      <line x1="0.219416" y1="-0.034727" x2="0.219416" y2="-0.024727" />
      <line x1="0.216216" y1="-0.034727" x2="0.216216" y2="-0.024727" />
      <line x1="0.199566" y1="-4e-06" x2="0.199566" y2="0.001696" />
      <line x1="0.215566" y1="-4e-06" x2="0.215566" y2="0.001696" />
    </g>
    <g fill="none" stroke="rgb(50,120,190)" stroke-width="0.00035" id="cradle">
      <line x1="0.028" y1="0.0157" x2="0.036866" y2="0.0157" />
      <line x1="0.036866" y1="0.0157" x2="0.036866" y2="0.0127" />
      <line x1="0.031" y1="0.0127" x2="0.036866" y2="0.0127" />
      <line x1="0.031" y1="0.0127" x2="0.031" y2="0.005" />
      <line x1="0.028" y1="0.005" x2="0.031" y2="0.005" />
      <line x1="0.028" y1="0.0157" x2="0.028" y2="0.005" />
      <line x1="0.028" y1="-0.005" x2="0.031" y2="-0.005" />
      <line x1="0.031" y1="-0.005" x2="0.031" y2="-0.0127" />
      <line x1="0.031" y1="-0.0127" x2="0.036866" y2="-0.0127" />
      <line x1="0.036866" y1="-0.0127" x2="0.036866" y2="-0.0157" />
      <line x1="0.028" y1="-0.0157" x2="0.036866" y2="-0.0157" />
      <line x1="0.028" y1="-0.005" x2="0.028" y2="-0.0157" />
      <line x1="0.1351" y1="-0.038303" x2="0.1351" y2="-0.028653" />
      <line x1="0.1351" y1="-0.028653" x2="0.135212" y2="-0.028547" />
      <line x1="0.1351" y1="-0.038303" x2="0.143966" y2="-0.038303" />
      <line x1="0.143966" y1="-0.038303" x2="0.143966" y2="-0.028653" />
      <line x1="0.1351" y1="-0.028653" x2="0.143966" y2="-0.028653" />
      <line x1="0.135212" y1="-0.028547" x2="0.144078" y2="-0.028547" />
      <line x1="0.144067" y1="-0.028557" x2="0.144078" y2="-0.028547" />
      <line x1="0.144067" y1="-0.028557" x2="0.138201" y2="-0.028557" />
      <line x1="0.138111" y1="-0.028643" x2="0.138201" y2="-0.028557" />
      <line x1="0.143977" y1="-0.028643" x2="0.138111" y2="-0.028643" />
      <line x1="0.143966" y1="-0.028653" x2="0.143977" y2="-0.028643" />
      <line x1="0.144067" y1="-0.038207" x2="0.144078" y2="-0.038197" />
      <line x1="0.144067" y1="-0.038207" x2="0.143977" y2="-0.038207" />
      <line x1="0.143966" y1="-0.038303" x2="0.143977" y2="-0.038293" />
      <line x1="0.144078" y1="-0.038197" x2="0.144078" y2="-0.028547" />
      <line x1="0.143977" y1="-0.038293" x2="0.143977" y2="-0.028643" />
      <line x1="0.144067" y1="-0.038207" x2="0.144067" y2="-0.028557" />
      <line x1="0.138201" y1="-0.028643" x2="0.138201" y2="-0.028557" />
      <line x1="0.191866" y1="-0.02859" x2="0.223266" y2="-0.02859" />
      <line x1="0.212566" y1="-0.03559" x2="0.202566" y2="-0.03559" />
      <line x1="0.191866" y1="-0.03827" x2="0.191866" y2="-0.02862" />
      <line x1="0.191866" y1="-0.02859" x2="0.191866" y2="-0.02862" />
      <line x1="0.223266" y1="-0.02859" x2="0.223266" y2="-0.02862" />
      <line x1="0.220266" y1="-0.02862" x2="0.223266" y2="-0.02862" />
      <line x1="0.220266" y1="-0.02862" x2="0.220266" y2="-0.0286" />
      <line x1="0.194866" y1="-0.0286" x2="0.220266" y2="-0.0286" />
      <line x1="0.194866" y1="-0.02862" x2="0.194866" y2="-0.0286" />
      <line x1="0.191866" y1="-0.02862" x2="0.194866" y2="-0.02862" />
      <line x1="0.220266" y1="-0.03827" x2="0.223266" y2="-0.03827" />
      <line x1="0.194866" y1="-0.03825" x2="0.220266" y2="-0.03825" />
      <line x1="0.191866" y1="-0.03827" x2="0.194866" y2="-0.03827" />
      <line x1="0.223266" y1="-0.03827" x2="0.223266" y2="-0.02862" />
      <line x1="0.212566" y1="-0.0356" x2="0.202566" y2="-0.0356" />
      <line x1="0.212566" y1="-0.0356" x2="0.212566" y2="-0.0296" />
      <line x1="0.212566" y1="-0.0296" x2="0.202566" y2="-0.0296" />
      <line x1="0.202566" y1="-0.0356" x2="0.202566" y2="-0.0296" />
      <line x1="0.194866" y1="-0.03827" x2="0.194866" y2="-0.02862" />
      <line x1="0.220266" y1="-0.03827" x2="0.220266" y2="-0.02862" />
    </g>
    <g fill="url(#hatch_cradle)" stroke="none" stroke-width="0" id="cradle_fill">
      <path d="M 0.036866,0.0157 L 0.028,0.0157 L 0.028,0.005 L 0.031,0.005 L 0.031,0.0127 L 0.036866,0.0127 L 0.036866,0.0157" />
      <path d="M 0.031,-0.005 L 0.028,-0.005 L 0.028,-0.0157 L 0.036866,-0.0157 L 0.036866,-0.0127 L 0.031,-0.0127 L 0.031,-0.005" />
    </g>
    <g fill="none" stroke="rgb(50,120,190)" stroke-opacity="0.4" stroke-width="0.00015" id="cradle_hidden" stroke-dasharray="0.0018 0.00045">
      <line x1="0.1351" y1="-0.038303" x2="0.135212" y2="-0.038197" />
      <line x1="0.135212" y1="-0.038197" x2="0.135212" y2="-0.028547" />
      <line x1="0.135174" y1="-0.035583" x2="0.135138" y2="-0.035617" />
      <line x1="0.135174" y1="-0.035583" x2="0.135174" y2="-0.029583" />
      <line x1="0.135174" y1="-0.029583" x2="0.135138" y2="-0.029617" />
      <line x1="0.135138" y1="-0.035617" x2="0.135138" y2="-0.029617" />
      <line x1="0.135212" y1="-0.038197" x2="0.144078" y2="-0.038197" />
      <line x1="0.143977" y1="-0.038207" x2="0.138201" y2="-0.038207" />
      <line x1="0.138111" y1="-0.038293" x2="0.138201" y2="-0.038207" />
      <line x1="0.143977" y1="-0.038293" x2="0.138111" y2="-0.038293" />
      <line x1="0.135174" y1="-0.035583" x2="0.138174" y2="-0.035583" />
      <line x1="0.138174" y1="-0.035583" x2="0.138138" y2="-0.035617" />
      <line x1="0.135138" y1="-0.035617" x2="0.138138" y2="-0.035617" />
      <line x1="0.138174" y1="-0.035583" x2="0.138174" y2="-0.029583" />
      <line x1="0.135174" y1="-0.029583" x2="0.138174" y2="-0.029583" />
      <line x1="0.138174" y1="-0.029583" x2="0.138138" y2="-0.029617" />
      <line x1="0.135138" y1="-0.029617" x2="0.138138" y2="-0.029617" />
      <line x1="0.138138" y1="-0.035617" x2="0.138138" y2="-0.029617" />
      <line x1="0.138201" y1="-0.038207" x2="0.138201" y2="-0.028643" />
      <line x1="0.138111" y1="-0.038293" x2="0.138111" y2="-0.028643" />
      <line x1="0.191866" y1="-0.03824" x2="0.191866" y2="-0.02859" />
      <line x1="0.191866" y1="-0.03824" x2="0.223266" y2="-0.03824" />
      <line x1="0.223266" y1="-0.03824" x2="0.223266" y2="-0.02859" />
      <line x1="0.212566" y1="-0.03559" x2="0.212566" y2="-0.02959" />
      <line x1="0.212566" y1="-0.02959" x2="0.202566" y2="-0.02959" />
      <line x1="0.202566" y1="-0.03559" x2="0.202566" y2="-0.02959" />
      <line x1="0.191866" y1="-0.03824" x2="0.191866" y2="-0.03827" />
      <line x1="0.223266" y1="-0.03824" x2="0.223266" y2="-0.03827" />
      <line x1="0.220266" y1="-0.03827" x2="0.220266" y2="-0.03825" />
      <line x1="0.194866" y1="-0.03827" x2="0.194866" y2="-0.03825" />
      <line x1="0.212566" y1="-0.03559" x2="0.212566" y2="-0.0356" />
      <line x1="0.202566" y1="-0.03559" x2="0.202566" y2="-0.0356" />
      <line x1="0.212566" y1="-0.02959" x2="0.212566" y2="-0.0296" />
      <line x1="0.202566" y1="-0.02959" x2="0.202566" y2="-0.0296" />
      <line x1="0.220266" y1="-0.03825" x2="0.220266" y2="-0.0286" />
      <line x1="0.194866" y1="-0.03825" x2="0.194866" y2="-0.0286" />
    </g>
  </g>
  <text x="0.010000" y="-0.021375" text-anchor="middle" font-family="'Input Sans Narrow', 'DejaVu Sans', Arial, sans-serif" font-size="0.002500" font-weight="bold" fill="#333">A-A</text>
  <text x="0.010000" y="-0.017875" text-anchor="middle" font-family="'Input Sans Narrow', 'DejaVu Sans', Arial, sans-serif" font-size="0.001800" fill="#888">front_horn</text>
  <line x1="0.000000" y1="0.010800" x2="0.000000" y2="0.013800" stroke="#5C7080" stroke-width="0.000140" stroke-opacity="0.5"/>
  <line x1="0.020000" y1="0.010800" x2="0.020000" y2="0.013800" stroke="#5C7080" stroke-width="0.000140" stroke-opacity="0.5"/>
  <line x1="0.000000" y1="0.012200" x2="0.000000" y2="0.013800" stroke="#5C7080" stroke-width="0.000200"/>
  <line x1="0.020000" y1="0.012200" x2="0.020000" y2="0.013800" stroke="#5C7080" stroke-width="0.000200"/>
  <line x1="0.000000" y1="0.013000" x2="0.020000" y2="0.013000" stroke="#5C7080" stroke-width="0.000200"/>
  <polygon points="0.000000,0.013000 0.001500,0.012400 0.001500,0.013600" fill="#5C7080"/>
  <polygon points="0.020000,0.013000 0.018500,0.012400 0.018500,0.013600" fill="#5C7080"/>
  <text x="0.010000" y="0.011800" text-anchor="middle" font-family="'Input Sans Narrow', 'DejaVu Sans', Arial, sans-serif" font-size="0.001600" fill="#5C7080">20.0</text>
  <line x1="0.020800" y1="-0.010000" x2="0.023800" y2="-0.010000" stroke="#5C7080" stroke-width="0.000140" stroke-opacity="0.5"/>
  <line x1="0.020800" y1="0.010000" x2="0.023800" y2="0.010000" stroke="#5C7080" stroke-width="0.000140" stroke-opacity="0.5"/>
  <line x1="0.022200" y1="-0.010000" x2="0.023800" y2="-0.010000" stroke="#5C7080" stroke-width="0.000200"/>
  <line x1="0.022200" y1="0.010000" x2="0.023800" y2="0.010000" stroke="#5C7080" stroke-width="0.000200"/>
  <line x1="0.023000" y1="-0.010000" x2="0.023000" y2="0.010000" stroke="#5C7080" stroke-width="0.000200"/>
  <polygon points="0.023000,-0.010000 0.022400,-0.008500 0.023600,-0.008500" fill="#5C7080"/>
  <polygon points="0.023000,0.010000 0.022400,0.008500 0.023600,0.008500" fill="#5C7080"/>
  <text x="0.024500" y="0.000000" text-anchor="middle" dominant-baseline="central" font-family="'Input Sans Narrow', 'DejaVu Sans', Arial, sans-serif" font-size="0.001600" fill="#5C7080" transform="rotate(-90 0.024500 0.000000)">20.0</text>
  <text x="0.050850" y="-0.021375" text-anchor="middle" font-family="'Input Sans Narrow', 'DejaVu Sans', Arial, sans-serif" font-size="0.002500" font-weight="bold" fill="#333">B-B</text>
  <text x="0.050850" y="-0.017875" text-anchor="middle" font-family="'Input Sans Narrow', 'DejaVu Sans', Arial, sans-serif" font-size="0.001800" fill="#888">rear_horn</text>
  <line x1="0.028000" y1="0.016500" x2="0.028000" y2="0.019500" stroke="#5C7080" stroke-width="0.000140" stroke-opacity="0.5"/>
  <line x1="0.073700" y1="0.016500" x2="0.073700" y2="0.019500" stroke="#5C7080" stroke-width="0.000140" stroke-opacity="0.5"/>
  <line x1="0.028000" y1="0.017900" x2="0.028000" y2="0.019500" stroke="#5C7080" stroke-width="0.000200"/>
  <line x1="0.073700" y1="0.017900" x2="0.073700" y2="0.019500" stroke="#5C7080" stroke-width="0.000200"/>
  <line x1="0.028000" y1="0.018700" x2="0.073700" y2="0.018700" stroke="#5C7080" stroke-width="0.000200"/>
  <polygon points="0.028000,0.018700 0.029500,0.018100 0.029500,0.019300" fill="#5C7080"/>
  <polygon points="0.073700,0.018700 0.072200,0.018100 0.072200,0.019300" fill="#5C7080"/>
  <text x="0.050850" y="0.017500" text-anchor="middle" font-family="'Input Sans Narrow', 'DejaVu Sans', Arial, sans-serif" font-size="0.001600" fill="#5C7080">45.7</text>
  <line x1="0.074500" y1="-0.015700" x2="0.077500" y2="-0.015700" stroke="#5C7080" stroke-width="0.000140" stroke-opacity="0.5"/>
  <line x1="0.074500" y1="0.015700" x2="0.077500" y2="0.015700" stroke="#5C7080" stroke-width="0.000140" stroke-opacity="0.5"/>
  <line x1="0.075900" y1="-0.015700" x2="0.077500" y2="-0.015700" stroke="#5C7080" stroke-width="0.000200"/>
  <line x1="0.075900" y1="0.015700" x2="0.077500" y2="0.015700" stroke="#5C7080" stroke-width="0.000200"/>
  <line x1="0.076700" y1="-0.015700" x2="0.076700" y2="0.015700" stroke="#5C7080" stroke-width="0.000200"/>
  <polygon points="0.076700,-0.015700 0.076100,-0.014200 0.077300,-0.014200" fill="#5C7080"/>
  <polygon points="0.076700,0.015700 0.076100,0.014200 0.077300,0.014200" fill="#5C7080"/>
  <text x="0.078200" y="0.000000" text-anchor="middle" dominant-baseline="central" font-family="'Input Sans Narrow', 'DejaVu Sans', Arial, sans-serif" font-size="0.001600" fill="#5C7080" transform="rotate(-90 0.078200 0.000000)">31.4</text>
  <text x="0.104400" y="-0.021375" text-anchor="middle" font-family="'Input Sans Narrow', 'DejaVu Sans', Arial, sans-serif" font-size="0.002500" font-weight="bold" fill="#333">C-C</text>
  <text x="0.104400" y="-0.017875" text-anchor="middle" font-family="'Input Sans Narrow', 'DejaVu Sans', Arial, sans-serif" font-size="0.001800" fill="#888">mid_body</text>
  <line x1="0.081700" y1="0.013200" x2="0.081700" y2="0.016200" stroke="#5C7080" stroke-width="0.000140" stroke-opacity="0.5"/>
  <line x1="0.127100" y1="0.013200" x2="0.127100" y2="0.016200" stroke="#5C7080" stroke-width="0.000140" stroke-opacity="0.5"/>
  <line x1="0.081700" y1="0.014600" x2="0.081700" y2="0.016200" stroke="#5C7080" stroke-width="0.000200"/>
  <line x1="0.127100" y1="0.014600" x2="0.127100" y2="0.016200" stroke="#5C7080" stroke-width="0.000200"/>
  <line x1="0.081700" y1="0.015400" x2="0.127100" y2="0.015400" stroke="#5C7080" stroke-width="0.000200"/>
  <polygon points="0.081700,0.015400 0.083200,0.014800 0.083200,0.016000" fill="#5C7080"/>
  <polygon points="0.127100,0.015400 0.125600,0.014800 0.125600,0.016000" fill="#5C7080"/>
  <text x="0.104400" y="0.014200" text-anchor="middle" font-family="'Input Sans Narrow', 'DejaVu Sans', Arial, sans-serif" font-size="0.001600" fill="#5C7080">45.4</text>
  <line x1="0.127900" y1="-0.012400" x2="0.130900" y2="-0.012400" stroke="#5C7080" stroke-width="0.000140" stroke-opacity="0.5"/>
  <line x1="0.127900" y1="0.012400" x2="0.130900" y2="0.012400" stroke="#5C7080" stroke-width="0.000140" stroke-opacity="0.5"/>
  <line x1="0.129300" y1="-0.012400" x2="0.130900" y2="-0.012400" stroke="#5C7080" stroke-width="0.000200"/>
  <line x1="0.129300" y1="0.012400" x2="0.130900" y2="0.012400" stroke="#5C7080" stroke-width="0.000200"/>
  <line x1="0.130100" y1="-0.012400" x2="0.130100" y2="0.012400" stroke="#5C7080" stroke-width="0.000200"/>
  <polygon points="0.130100,-0.012400 0.129500,-0.010900 0.130700,-0.010900" fill="#5C7080"/>
  <polygon points="0.130100,0.012400 0.129500,0.010900 0.130700,0.010900" fill="#5C7080"/>
  <text x="0.131600" y="0.000000" text-anchor="middle" dominant-baseline="central" font-family="'Input Sans Narrow', 'DejaVu Sans', Arial, sans-serif" font-size="0.001600" fill="#5C7080" transform="rotate(-90 0.131600 0.000000)">24.8</text>
  <text x="0.159483" y="-0.021375" text-anchor="middle" font-family="'Input Sans Narrow', 'DejaVu Sans', Arial, sans-serif" font-size="0.002500" font-weight="bold" fill="#333">side_XZ</text>
  <line x1="0.135100" y1="0.039103" x2="0.135100" y2="0.042103" stroke="#5C7080" stroke-width="0.000140" stroke-opacity="0.5"/>
  <line x1="0.183866" y1="0.039103" x2="0.183866" y2="0.042103" stroke="#5C7080" stroke-width="0.000140" stroke-opacity="0.5"/>
  <line x1="0.135100" y1="0.040503" x2="0.135100" y2="0.042103" stroke="#5C7080" stroke-width="0.000200"/>
  <line x1="0.183866" y1="0.040503" x2="0.183866" y2="0.042103" stroke="#5C7080" stroke-width="0.000200"/>
  <line x1="0.135100" y1="0.041303" x2="0.183866" y2="0.041303" stroke="#5C7080" stroke-width="0.000200"/>
  <polygon points="0.135100,0.041303 0.136600,0.040703 0.136600,0.041903" fill="#5C7080"/>
  <polygon points="0.183866,0.041303 0.182366,0.040703 0.182366,0.041903" fill="#5C7080"/>
  <text x="0.159483" y="0.040103" text-anchor="middle" font-family="'Input Sans Narrow', 'DejaVu Sans', Arial, sans-serif" font-size="0.001600" fill="#5C7080">48.8</text>
  <line x1="0.184666" y1="-0.003207" x2="0.187666" y2="-0.003207" stroke="#5C7080" stroke-width="0.000140" stroke-opacity="0.5"/>
  <line x1="0.184666" y1="0.038303" x2="0.187666" y2="0.038303" stroke="#5C7080" stroke-width="0.000140" stroke-opacity="0.5"/>
  <line x1="0.186066" y1="-0.003207" x2="0.187666" y2="-0.003207" stroke="#5C7080" stroke-width="0.000200"/>
  <line x1="0.186066" y1="0.038303" x2="0.187666" y2="0.038303" stroke="#5C7080" stroke-width="0.000200"/>
  <line x1="0.186866" y1="-0.003207" x2="0.186866" y2="0.038303" stroke="#5C7080" stroke-width="0.000200"/>
  <polygon points="0.186866,-0.003207 0.186266,-0.001707 0.187466,-0.001707" fill="#5C7080"/>
  <polygon points="0.186866,0.038303 0.186266,0.036803 0.187466,0.036803" fill="#5C7080"/>
  <text x="0.188366" y="0.017548" text-anchor="middle" dominant-baseline="central" font-family="'Input Sans Narrow', 'DejaVu Sans', Arial, sans-serif" font-size="0.001600" fill="#5C7080" transform="rotate(-90 0.188366 0.017548)">41.5</text>
  <line x1="0.132100" y1="-0.001700" x2="0.186866" y2="-0.001700" stroke="#555" stroke-width="0.000250" stroke-dasharray="0.002500,0.000800,0.000500,0.000800"/>
  <text x="0.130600" y="-0.001100" text-anchor="end" font-family="'Input Sans Narrow', 'DejaVu Sans', Arial, sans-serif" font-size="0.002000" font-weight="bold" fill="#555">A</text>
  <text x="0.188366" y="-0.001100" text-anchor="start" font-family="'Input Sans Narrow', 'DejaVu Sans', Arial, sans-serif" font-size="0.002000" font-weight="bold" fill="#555">A</text>
  <line x1="0.132100" y1="0.033900" x2="0.186866" y2="0.033900" stroke="#555" stroke-width="0.000250" stroke-dasharray="0.002500,0.000800,0.000500,0.000800"/>
  <text x="0.130600" y="0.034500" text-anchor="end" font-family="'Input Sans Narrow', 'DejaVu Sans', Arial, sans-serif" font-size="0.002000" font-weight="bold" fill="#555">B</text>
  <text x="0.188366" y="0.034500" text-anchor="start" font-family="'Input Sans Narrow', 'DejaVu Sans', Arial, sans-serif" font-size="0.002000" font-weight="bold" fill="#555">B</text>
  <line x1="0.132100" y1="0.016100" x2="0.186866" y2="0.016100" stroke="#555" stroke-width="0.000250" stroke-dasharray="0.002500,0.000800,0.000500,0.000800"/>
  <text x="0.130600" y="0.016700" text-anchor="end" font-family="'Input Sans Narrow', 'DejaVu Sans', Arial, sans-serif" font-size="0.002000" font-weight="bold" fill="#555">C</text>
  <text x="0.188366" y="0.016700" text-anchor="start" font-family="'Input Sans Narrow', 'DejaVu Sans', Arial, sans-serif" font-size="0.002000" font-weight="bold" fill="#555">C</text>
  <text x="0.207566" y="-0.021375" text-anchor="middle" font-family="'Input Sans Narrow', 'DejaVu Sans', Arial, sans-serif" font-size="0.002500" font-weight="bold" fill="#333">side_YZ</text>
  <line x1="0.191866" y1="0.039070" x2="0.191866" y2="0.042070" stroke="#5C7080" stroke-width="0.000140" stroke-opacity="0.5"/>
  <line x1="0.223266" y1="0.039070" x2="0.223266" y2="0.042070" stroke="#5C7080" stroke-width="0.000140" stroke-opacity="0.5"/>
  <line x1="0.191866" y1="0.040470" x2="0.191866" y2="0.042070" stroke="#5C7080" stroke-width="0.000200"/>
  <line x1="0.223266" y1="0.040470" x2="0.223266" y2="0.042070" stroke="#5C7080" stroke-width="0.000200"/>
  <line x1="0.191866" y1="0.041270" x2="0.223266" y2="0.041270" stroke="#5C7080" stroke-width="0.000200"/>
  <polygon points="0.191866,0.041270 0.193366,0.040670 0.193366,0.041870" fill="#5C7080"/>
  <polygon points="0.223266,0.041270 0.221766,0.040670 0.221766,0.041870" fill="#5C7080"/>
  <text x="0.207566" y="0.040070" text-anchor="middle" font-family="'Input Sans Narrow', 'DejaVu Sans', Arial, sans-serif" font-size="0.001600" fill="#5C7080">31.4</text>
  <line x1="0.224066" y1="-0.003188" x2="0.227066" y2="-0.003188" stroke="#5C7080" stroke-width="0.000140" stroke-opacity="0.5"/>
  <line x1="0.224066" y1="0.038270" x2="0.227066" y2="0.038270" stroke="#5C7080" stroke-width="0.000140" stroke-opacity="0.5"/>
  <line x1="0.225466" y1="-0.003188" x2="0.227066" y2="-0.003188" stroke="#5C7080" stroke-width="0.000200"/>
  <line x1="0.225466" y1="0.038270" x2="0.227066" y2="0.038270" stroke="#5C7080" stroke-width="0.000200"/>
  <line x1="0.226266" y1="-0.003188" x2="0.226266" y2="0.038270" stroke="#5C7080" stroke-width="0.000200"/>
  <polygon points="0.226266,-0.003188 0.225666,-0.001688 0.226866,-0.001688" fill="#5C7080"/>
  <polygon points="0.226266,0.038270 0.225666,0.036770 0.226866,0.036770" fill="#5C7080"/>
  <text x="0.227766" y="0.017541" text-anchor="middle" dominant-baseline="central" font-family="'Input Sans Narrow', 'DejaVu Sans', Arial, sans-serif" font-size="0.001600" fill="#5C7080" transform="rotate(-90 0.227766 0.017541)">41.5</text>
  <line x1="0.188866" y1="-0.001700" x2="0.226266" y2="-0.001700" stroke="#555" stroke-width="0.000250" stroke-dasharray="0.002500,0.000800,0.000500,0.000800"/>
  <text x="0.187366" y="-0.001100" text-anchor="end" font-family="'Input Sans Narrow', 'DejaVu Sans', Arial, sans-serif" font-size="0.002000" font-weight="bold" fill="#555">A</text>
  <text x="0.227766" y="-0.001100" text-anchor="start" font-family="'Input Sans Narrow', 'DejaVu Sans', Arial, sans-serif" font-size="0.002000" font-weight="bold" fill="#555">A</text>
  <line x1="0.188866" y1="0.033900" x2="0.226266" y2="0.033900" stroke="#555" stroke-width="0.000250" stroke-dasharray="0.002500,0.000800,0.000500,0.000800"/>
  <text x="0.187366" y="0.034500" text-anchor="end" font-family="'Input Sans Narrow', 'DejaVu Sans', Arial, sans-serif" font-size="0.002000" font-weight="bold" fill="#555">B</text>
  <text x="0.227766" y="0.034500" text-anchor="start" font-family="'Input Sans Narrow', 'DejaVu Sans', Arial, sans-serif" font-size="0.002000" font-weight="bold" fill="#555">B</text>
  <line x1="0.188866" y1="0.016100" x2="0.226266" y2="0.016100" stroke="#555" stroke-width="0.000250" stroke-dasharray="0.002500,0.000800,0.000500,0.000800"/>
  <text x="0.187366" y="0.016700" text-anchor="end" font-family="'Input Sans Narrow', 'DejaVu Sans', Arial, sans-serif" font-size="0.002000" font-weight="bold" fill="#555">C</text>
  <text x="0.227766" y="0.016700" text-anchor="start" font-family="'Input Sans Narrow', 'DejaVu Sans', Arial, sans-serif" font-size="0.002000" font-weight="bold" fill="#555">C</text>
  <text x="-0.001175" y="0.046478" font-family="'Input Sans Narrow', 'DejaVu Sans', Arial, sans-serif" font-size="0.003500" font-weight="bold" fill="#222">cradle</text>
  <line x1="-0.001175" y1="0.050478" x2="0.008825" y2="0.050478" stroke="#333" stroke-width="0.000350"/>
  <line x1="-0.001175" y1="0.049478" x2="-0.001175" y2="0.051478" stroke="#333" stroke-width="0.000250"/>
  <line x1="0.008825" y1="0.049478" x2="0.008825" y2="0.051478" stroke="#333" stroke-width="0.000250"/>
  <text x="0.010325" y="0.051178" font-family="'Input Sans Narrow', 'DejaVu Sans', Arial, sans-serif" font-size="0.001800" fill="#888">10 mm</text>
  <rect x="0.028825" y="0.043978" width="0.004000" height="0.002500" fill="url(#hatch_servo)" stroke="rgb(60,60,60)" stroke-width="0.000300"/>
  <text x="0.034325" y="0.045978" font-family="'Input Sans Narrow', 'DejaVu Sans', Arial, sans-serif" font-size="0.001800" fill="rgb(60,60,60)">servo</text>
  <rect x="0.028825" y="0.047478" width="0.004000" height="0.002500" fill="url(#hatch_cradle)" stroke="rgb(50,120,190)" stroke-width="0.000300"/>
  <text x="0.034325" y="0.049478" font-family="'Input Sans Narrow', 'DejaVu Sans', Arial, sans-serif" font-size="0.001800" fill="rgb(50,120,190)">cradle</text>
</svg>