<?xml version='1.0' encoding='utf-8'?>
<svg width="248.02mm" height="82.58mm" viewBox="-0.003175 -0.024375 0.248019 0.082577" version="1.1" xmlns="http://www.w3.org/2000/svg">
  <defs>
    <pattern id="hatch_servo" width="0.0012" height="0.0012" patternUnits="userSpaceOnUse" patternTransform="rotate(45)">
      <line x1="0" y1="0" x2="0" y2="0.0012" stroke="rgb(60,60,60)" stroke-width="0.0001" stroke-opacity="0.6"/>
    </pattern>
    <pattern id="hatch_cradle" width="0.0012" height="0.0012" patternUnits="userSpaceOnUse" patternTransform="rotate(75)">
      <line x1="0" y1="0" x2="0" y2="0.0012" stroke="rgb(50,120,190)" stroke-width="0.0001" stroke-opacity="0.6"/>
    </pattern>
  </defs>
  <g transform="scale(1,-1)" stroke-linecap="round">
    <g fill="none" stroke="rgb(60,60,60)" stroke-width="0.00035" id="servo">
      <circle cx="0.038" cy="0.0" r="0.004" />
      <line x1="0.0521" y1="0.01335" x2="0.0521" y2="0.0124" />
      <line x1="0.0521" y1="0.01335" x2="0.0828" y2="0.01335" />
      <line x1="0.0828" y1="0.01335" x2="0.0828" y2="0.0124" />
      <line x1="0.0521" y1="0.0124" x2="0.0828" y2="0.0124" />
      <line x1="0.0521" y1="-0.0124" x2="0.0828" y2="-0.0124" />
      <line x1="0.0828" y1="-0.0124" x2="0.0828" y2="-0.01335" />
      <line x1="0.0521" y1="-0.01335" x2="0.0828" y2="-0.01335" />
      <line x1="0.0521" y1="-0.0124" x2="0.0521" y2="-0.01335" />
      <line x1="0.0936" y1="0.0124" x2="0.139" y2="0.0124" />
      <line x1="0.139" y1="0.0124" x2="0.139" y2="-0.0124" />
      <line x1="0.0936" y1="-0.0124" x2="0.139" y2="-0.0124" />
      <line x1="0.0936" y1="0.0124" x2="0.0936" y2="-0.0124" />
      <line x1="0.149838" y1="-0.03182" x2="0.149838" y2="-2e-05" />
      <line x1="0.149838" y1="-2e-05" x2="0.149869" y2="2e-05" />
      <line x1="0.149838" y1="-0.03182" x2="0.179838" y2="-0.03182" />
      <line x1="0.179838" y1="-0.03182" x2="0.195238" y2="-0.03182" />
      <line x1="0.195238" y1="-0.03182" x2="0.195238" y2="-2e-05" />
      <line x1="0.149838" y1="-2e-05" x2="0.195238" y2="-2e-05" />
      <line x1="0.149869" y1="2e-05" x2="0.181054" y2="2e-05" />
      <line x1="0.189054" y1="2e-05" x2="0.195269" y2="2e-05" />
      <line x1="0.195238" y1="-2e-05" x2="0.195269" y2="2e-05" />
      <path d="M 0.181054,-0.0 A 0.0040000000000000036,6.381814892975729e-06 -1.8136319151190684e-20 0,1 0.189054,-0.0" />
      <line x1="0.195269" y1="-0.03178" x2="0.195269" y2="2e-05" />
      <line x1="0.195238" y1="-0.03182" x2="0.195269" y2="-0.03178" />
      <path d="M 0.189054,0.0028 A 0.0040000000000000036,6.381814892975729e-06 -1.8136319151190684e-20 0,1 0.181054,0.0028" />
      <path d="M 0.181054,0.0028 A 0.0040000000000000036,6.381814892975729e-06 -1.8136319151190684e-20 0,1 0.189054,0.0028" />
      <line x1="0.179838" y1="-0.03598" x2="0.179869" y2="-0.03598" />
      <line x1="0.179869" y1="-0.03598" x2="0.179869" y2="-0.03182" />
      <line x1="0.149169" y1="-0.03178" x2="0.149838" y2="-0.03178" />
      <line x1="0.149169" y1="-0.03182" x2="0.149169" y2="-0.03178" />
      <line x1="0.179869" y1="-0.03598" x2="0.17987" y2="-0.035979" />
      <line x1="0.17987" y1="-0.035979" x2="0.17987" y2="-0.03182" />
      <line x1="0.149169" y1="-0.03178" x2="0.14917" y2="-0.031779" />
      <line x1="0.14917" y1="-0.031779" x2="0.149838" y2="-0.031779" />
      <line x1="0.179838" y1="-0.03602" x2="0.179838" y2="-0.03182" />
      <line x1="0.149138" y1="-0.03182" x2="0.149838" y2="-0.03182" />
      <line x1="0.179837" y1="-0.036021" x2="0.179838" y2="-0.03602" />
      <line x1="0.149137" y1="-0.036021" x2="0.179837" y2="-0.036021" />
      <line x1="0.179837" y1="-0.036021" x2="0.179837" y2="-0.031821" />
      <line x1="0.179837" y1="-0.031821" x2="0.179838" y2="-0.03182" />
      <line x1="0.149137" y1="-0.031821" x2="0.149138" y2="-0.03182" />
      <line x1="0.149137" y1="-0.031821" x2="0.179837" y2="-0.031821" />
      <line x1="0.149137" y1="-0.036021" x2="0.149137" y2="-0.031821" />
      <line x1="0.189054" y1="-0.0" x2="0.189054" y2="0.0028" />
      <line x1="0.181054" y1="-0.0" x2="0.181054" y2="0.0028" />
      <line x1="0.206069" y1="3.6e-05" x2="0.214469" y2="3.6e-05" />
      <line x1="0.222469" y1="3.6e-05" x2="0.230869" y2="3.6e-05" />
      <line x1="0.206069" y1="-0.031836" x2="0.206069" y2="-3.6e-05" />
      <line x1="0.206069" y1="3.6e-05" x2="0.206069" y2="-3.6e-05" />
      <line x1="0.230869" y1="3.6e-05" x2="0.230869" y2="-3.6e-05" />
      <line x1="0.206069" y1="-3.6e-05" x2="0.230869" y2="-3.6e-05" />
      <path d="M 0.218469,-2.6e-05 A 0.004,6.373848843995446e-06 7.189373842472463e-38 0,1 0.222469,-2e-05" />
      <path d="M 0.214469,-2e-05 A 0.004,6.373848843995446e-06 7.189373842472463e-38 0,1 0.218469,-2.6e-05" />
      <line x1="0.230869" y1="-0.031836" x2="0.230869" y2="-3.6e-05" />
      <line x1="0.206069" y1="-0.031836" x2="0.230869" y2="-0.031836" />
      <path d="M 0.218469,0.002774 A 0.004,6.373848843995446e-06 7.189373842472463e-38 0,1 0.222469,0.00278" />
      <path d="M 0.222469,0.00278 A 0.0040000000000000036,6.373848843995452e-06 7.189373842472463e-38 0,1 0.214469,0.00278" />
      <path d="M 0.214469,0.00278 A 0.004,6.373848843995446e-06 7.189373842472463e-38 0,1 0.218469,0.002774" />
      <line x1="0.230869" y1="-0.036012" x2="0.230869" y2="-0.031836" />
      <line x1="0.230869" y1="-0.036012" x2="0.231819" y2="-0.036012" />
      <line x1="0.230869" y1="-0.031812" x2="0.231819" y2="-0.031812" />
      <line x1="0.231819" y1="-0.036012" x2="0.231819" y2="-0.031812" />
      <line x1="0.230869" y1="-0.031763" x2="0.231819" y2="-0.031763" />
      <line x1="0.231819" y1="-0.031763" x2="0.231819" y2="-0.031812" />
      <line x1="0.206069" y1="-0.036012" x2="0.206069" y2="-0.031836" />
      <line x1="0.205119" y1="-0.036012" x2="0.206069" y2="-0.036012" />
      <line x1="0.205119" y1="-0.036012" x2="0.205119" y2="-0.031812" />
      <line x1="0.205119" y1="-0.031812" x2="0.206069" y2="-0.031812" />
      <line x1="0.205119" y1="-0.031763" x2="0.206069" y2="-0.031763" />
      <line x1="0.205119" y1="-0.031763" x2="0.205119" y2="-0.031812" />
      <line x1="0.222469" y1="-2e-05" x2="0.222469" y2="0.00278" />
      <line x1="0.214469" y1="-2e-05" x2="0.214469" y2="0.00278" />
    </g>
    <g fill="url(#hatch_servo)" stroke="none" stroke-width="0" id="servo_fill">
      <circle cx="0.038" cy="0.0" r="0.004" />
      <path d="M 0.0521,0.01335 L 0.0521,0.0124 L 0.0828,0.0124 L 0.0828,0.01335 L 0.0521,0.01335" />
      <path d="M 0.0828,-0.0124 L 0.0521,-0.0124 L 0.0521,-0.01335 L 0.0828,-0.01335 L 0.0828,-0.0124" />
      <path d="M 0.139,0.0124 L 0.0936,0.0124 L 0.0936,-0.0124 L 0.139,-0.0124 L 0.139,0.0124" />
    </g>
    <g fill="none" stroke="rgb(60,60,60)" stroke-opacity="0.4" stroke-width="0.00015" id="servo_hidden" stroke-dasharray="0.0018 0.00045">
      <line x1="0.149869" y1="-0.03178" x2="0.149869" y2="2e-05" />
      <line x1="0.149838" y1="-0.03182" x2="0.149869" y2="-0.03178" />
      <line x1="0.181054" y1="2e-05" x2="0.189054" y2="2e-05" />
      <path d="M 0.189054,-0.0 A 0.0040000000000000036,6.381814892975729e-06 -1.8136319151190684e-20 0,1 0.181054,-0.0" />
      <line x1="0.149869" y1="-0.03178" x2="0.179869" y2="-0.03178" />
      <line x1="0.179869" y1="-0.03178" x2="0.195269" y2="-0.03178" />
      <line x1="0.149169" y1="-0.03598" x2="0.179838" y2="-0.03598" />
      <line x1="0.179869" y1="-0.03182" x2="0.179869" y2="-0.03178" />
      <line x1="0.149838" y1="-0.03178" x2="0.149869" y2="-0.03178" />
      <line x1="0.149169" y1="-0.03598" x2="0.149169" y2="-0.03182" />
      <line x1="0.149169" y1="-0.03598" x2="0.14917" y2="-0.035979" />
      <line x1="0.14917" y1="-0.035979" x2="0.17987" y2="-0.035979" />
      <line x1="0.179869" y1="-0.03178" x2="0.17987" y2="-0.031779" />
      <line x1="0.17987" y1="-0.03182" x2="0.17987" y2="-0.031779" />
      <line x1="0.149838" y1="-0.031779" x2="0.17987" y2="-0.031779" />
      <line x1="0.14917" y1="-0.035979" x2="0.14917" y2="-0.031779" />
      <line x1="0.149138" y1="-0.03602" x2="0.179838" y2="-0.03602" />
      <line x1="0.149138" y1="-0.03602" x2="0.149138" y2="-0.03182" />
      <line x1="0.149137" y1="-0.036021" x2="0.149138" y2="-0.03602" />
      <line x1="0.206069" y1="-0.031764" x2="0.206069" y2="3.6e-05" />
      <line x1="0.214469" y1="3.6e-05" x2="0.222469" y2="3.6e-05" />
      <line x1="0.230869" y1="-0.031764" x2="0.230869" y2="3.6e-05" />
      <line x1="0.206069" y1="-0.031764" x2="0.230869" y2="-0.031764" />
      <line x1="0.206069" y1="-0.031764" x2="0.206069" y2="-0.031812" />
      <line x1="0.206069" y1="-0.031812" x2="0.206069" y2="-0.031836" />
      <path d="M 0.222469,-2e-05 A 0.0040000000000000036,6.373848843995452e-06 7.189373842472463e-38 0,1 0.214469,-2e-05" />
      <line x1="0.230869" y1="-0.031764" x2="0.230869" y2="-0.031812" />
      <line x1="0.230869" y1="-0.031812" x2="0.230869" y2="-0.031836" />
      <line x1="0.230869" y1="-0.035963" x2="0.230869" y2="-0.036012" />
      <line x1="0.230869" y1="-0.031836" x2="0.230869" y2="-0.031812" />
      <line x1="0.230869" y1="-0.031763" x2="0.230869" y2="-0.031764" />
      <line x1="0.230869" y1="-0.035963" x2="0.230869" y2="-0.031763" />
      <line x1="0.230869" y1="-0.035963" x2="0.231819" y2="-0.035963" />
      <line x1="0.231819" y1="-0.035963" x2="0.231819" y2="-0.036012" />
      <line x1="0.231819" y1="-0.035963" x2="0.231819" y2="-0.031763" />
      <line x1="0.206069" y1="-0.035963" x2="0.206069" y2="-0.036012" />
      <line x1="0.206069" y1="-0.031836" x2="0.206069" y2="-0.031812" />
      <line x1="0.206069" y1="-0.031763" x2="0.206069" y2="-0.031764" />
      <line x1="0.206069" y1="-0.035963" x2="0.206069" y2="-0.031763" />
      <line x1="0.205119" y1="-0.035963" x2="0.206069" y2="-0.035963" />
      <line x1="0.205119" y1="-0.035963" x2="0.205119" y2="-0.036012" />
      <line x1="0.205119" y1="-0.035963" x2="0.205119" y2="-0.031763" />
    </g>
    <g fill="none" stroke="rgb(50,120,190)" stroke-width="0.00035" id="cradle">
      <line x1="0.0" y1="-0.0152" x2="0.0" y2="0.0152" />
      <line x1="0.0" y1="0.0152" x2="0.007526" y2="0.0152" />
      <line x1="0.007526" y1="-0.0152" x2="0.007526" y2="0.0152" />
      <line x1="0.0" y1="-0.0152" x2="0.007526" y2="-0.0152" />
      <line x1="0.05" y1="0.0152" x2="0.057526" y2="0.0152" />
      <line x1="0.057526" y1="0.0152" x2="0.057526" y2="-0.0152" />
      <line x1="0.05" y1="-0.0152" x2="0.057526" y2="-0.0152" />
      <line x1="0.05" y1="0.0152" x2="0.05" y2="-0.0152" />
      <circle cx="0.0552" cy="-0.01025" r="0.0021" />
      <circle cx="0.0552" cy="0.01025" r="0.0021" />
      <line x1="0.0908" y1="0.0152" x2="0.098326" y2="0.0152" />
      <line x1="0.098326" y1="0.0152" x2="0.098326" y2="0.0127" />
      <line x1="0.0933" y1="0.0127" x2="0.098326" y2="0.0127" />
      <line x1="0.0933" y1="0.0127" x2="0.0933" y2="-0.0127" />
      <line x1="0.0933" y1="-0.0127" x2="0.098326" y2="-0.0127" />
      <line x1="0.098326" y1="-0.0127" x2="0.098326" y2="-0.0152" />
      <line x1="0.0908" y1="-0.0152" x2="0.098326" y2="-0.0152" />
      <line x1="0.0908" y1="0.0152" x2="0.0908" y2="-0.0152" />
      <line x1="0.147" y1="-0.038027" x2="0.147" y2="0.002773" />
      <line x1="0.147" y1="0.002773" x2="0.147107" y2="0.002827" />
      <line x1="0.147" y1="-0.038027" x2="0.154526" y2="-0.038027" />
      <line x1="0.154526" y1="-0.038027" x2="0.154526" y2="0.002773" />
      <line x1="0.147" y1="0.002773" x2="0.154526" y2="0.002773" />
      <line x1="0.147107" y1="0.002827" x2="0.154633" y2="0.002827" />
      <line x1="0.154526" y1="0.002773" x2="0.154633" y2="0.002827" />
      <line x1="0.154526" y1="-0.038027" x2="0.154633" y2="-0.037973" />
      <line x1="0.154633" y1="-0.037973" x2="0.154633" y2="0.002827" />
      <line x1="0.154625" y1="-0.032077" x2="0.154535" y2="-0.032123" />
      <line x1="0.154625" y1="-0.032077" x2="0.154625" y2="0.000323" />
      <line x1="0.154625" y1="0.000323" x2="0.154535" y2="0.000277" />
      <line x1="0.154535" y1="-0.032123" x2="0.154535" y2="0.000277" />
      <line x1="0.154535" y1="-0.032077" x2="0.154625" y2="-0.032077" />
      <line x1="0.203269" y1="0.002805" x2="0.233669" y2="0.002805" />
      <line x1="0.203269" y1="-0.038009" x2="0.203269" y2="0.002791" />
      <line x1="0.203269" y1="0.002805" x2="0.203269" y2="0.002791" />
      <line x1="0.233669" y1="0.002805" x2="0.233669" y2="0.002791" />
      <line x1="0.203269" y1="0.002791" x2="0.233669" y2="0.002791" />
      <line x1="0.203269" y1="-0.038009" x2="0.233669" y2="-0.038009" />
      <line x1="0.233669" y1="-0.038009" x2="0.233669" y2="0.002791" />
      <line x1="0.223469" y1="-0.032102" x2="0.223469" y2="-0.0321" />
      <line x1="0.223469" y1="-0.0321" x2="0.223469" y2="-0.0288" />
      <line x1="0.223469" y1="-0.0288" x2="0.213469" y2="-0.0288" />
      <line x1="0.213469" y1="-0.032102" x2="0.213469" y2="-0.0321" />
      <line x1="0.213469" y1="-0.0321" x2="0.213469" y2="-0.0288" />
      <line x1="0.231169" y1="-0.032109" x2="0.205769" y2="-0.032109" />
      <line x1="0.231169" y1="-0.032109" x2="0.231169" y2="0.000291" />
      <line x1="0.231169" y1="0.000291" x2="0.205769" y2="0.000291" />
      <line x1="0.205769" y1="-0.032109" x2="0.205769" y2="0.000291" />
      <path d="M 0.208219,-0.032108 A 0.0021,3.747411835936681e-06 0.0 0,1 0.210319,-0.032104" />
      <path d="M 0.210319,-0.032104 A 0.0021000000000000046,3.7474118359366894e-06 0.0 0,1 0.206119,-0.032104" />
      <path d="M 0.206119,-0.032104 A 0.0021,3.747411835936681e-06 0.0 0,1 0.208219,-0.032108" />
      <path d="M 0.228719,-0.032108 A 0.0021,3.747411835936681e-06 0.0 0,1 0.230819,-0.032104" />
      <path d="M 0.230819,-0.032104 A 0.0021000000000000046,3.7474118359366894e-06 0.0 0,1 0.226619,-0.032104" />
      <path d="M 0.226619,-0.032104 A 0.0021,3.747411835936681e-06 0.0 0,1 0.228719,-0.032108" />
      <line x1="0.213469" y1="-0.032102" x2="0.223469" y2="-0.032102" />
      <line x1="0.205769" y1="-0.0321" x2="0.213469" y2="-0.0321" />
      <line x1="0.223469" y1="-0.0321" x2="0.231169" y2="-0.0321" />
      <line x1="0.231169" y1="-0.0321" x2="0.231169" y2="0.000291" />
      <line x1="0.205769" y1="-0.0321" x2="0.205769" y2="0.000291" />
    </g>
    <g fill="url(#hatch_cradle)" stroke="none" stroke-width="0" id="cradle_fill">
      <path d="M 0.0,0.0152 L 0.0,-0.0152 L 0.007526,-0.0152 L 0.007526,0.0152 L 0.0,0.0152" />
      <path d="M 0.057526,0.0152 L 0.05,0.0152 L 0.05,-0.0152 L 0.057526,-0.0152 L 0.057526,0.0152 M 0.0573,-0.01025 A 0.0021,0.0021 0.0 0,0 0.0531,-0.01025 A 0.0021,0.0021 0.0 0,0 0.0573,-0.01025 M 0.0573,0.01025 A 0.0021,0.0021 0.0 0,0 0.0531,0.01025 A 0.0021,0.0021 0.0 0,0 0.0573,0.01025" />
      <path d="M 0.098326,0.0152 L 0.0908,0.0152 L 0.0908,-0.0152 L 0.098326,-0.0152 L 0.098326,-0.0127 L 0.0933,-0.0127 L 0.0933,0.0127 L 0.098326,0.0127 L 0.098326,0.0152" />
    </g>
    <g fill="none" stroke="rgb(50,120,190)" stroke-opacity="0.4" stroke-width="0.00015" id="cradle_hidden" stroke-dasharray="0.0018 0.00045">
      <line x1="0.147" y1="-0.038027" x2="0.147107" y2="-0.037973" />
      <line x1="0.147107" y1="-0.037973" x2="0.147107" y2="0.002827" />
      <line x1="0.147071" y1="-0.034791" x2="0.147036" y2="-0.034809" />
      <line x1="0.147071" y1="-0.034791" x2="0.147071" y2="-0.028791" />
      <line x1="0.147071" y1="-0.028791" x2="0.147036" y2="-0.028809" />
      <line x1="0.147036" y1="-0.034809" x2="0.147036" y2="-0.028809" />
      <line x1="0.147107" y1="-0.037973" x2="0.154633" y2="-0.037973" />
      <path d="M 0.154317,-0.038018 A 0.0021000000000000046,3.7606052440131087e-06 -8.781710968625401e-21 0,1 0.150117,-0.038018" />
      <path d="M 0.150117,-0.038018 A 0.0021000000000000046,3.7606052440131087e-06 -8.781710968625401e-21 0,1 0.154317,-0.038018" />
      <path d="M 0.15439,-0.037982 A 0.0021000000000000046,3.7606052440131087e-06 -8.781710968625401e-21 0,1 0.15019,-0.037982" />
      <path d="M 0.15019,-0.037982 A 0.0021000000000000046,3.7606052440131087e-06 -8.781710968625401e-21 0,1 0.15439,-0.037982" />
      <line x1="0.147071" y1="-0.034791" x2="0.150871" y2="-0.034791" />
      <line x1="0.150836" y1="-0.034809" x2="0.150871" y2="-0.034791" />
      <line x1="0.147036" y1="-0.034809" x2="0.150836" y2="-0.034809" />
      <line x1="0.150871" y1="-0.034791" x2="0.150871" y2="-0.032091" />
      <line x1="0.150871" y1="-0.032091" x2="0.149571" y2="-0.032091" />
      <line x1="0.149571" y1="-0.032091" x2="0.149571" y2="-0.028791" />
      <line x1="0.147071" y1="-0.028791" x2="0.149571" y2="-0.028791" />
      <line x1="0.149571" y1="-0.028791" x2="0.149536" y2="-0.028809" />
      <line x1="0.147036" y1="-0.028809" x2="0.149536" y2="-0.028809" />
      <line x1="0.150836" y1="-0.034809" x2="0.150836" y2="-0.032109" />
      <line x1="0.150836" y1="-0.032109" x2="0.149536" y2="-0.032109" />
      <line x1="0.149536" y1="-0.032109" x2="0.149536" y2="-0.028809" />
      <path d="M 0.154317,-0.032118 A 0.0021000000000000046,3.7606052440131087e-06 -8.781710968625401e-21 0,1 0.150117,-0.032118" />
      <path d="M 0.150117,-0.032118 A 0.0021000000000000046,3.7606052440131087e-06 -8.781710968625401e-21 0,1 0.154317,-0.032118" />
      <path d="M 0.15439,-0.032082 A 0.0021000000000000046,3.7606052440131087e-06 -8.781710968625401e-21 0,1 0.15019,-0.032082" />
      <path d="M 0.15019,-0.032082 A 0.0021000000000000046,3.7606052440131087e-06 -8.781710968625401e-21 0,1 0.15439,-0.032082" />
      <line x1="0.150836" y1="-0.032109" x2="0.150871" y2="-0.032091" />
      <line x1="0.149598" y1="-0.032077" x2="0.154535" y2="-0.032077" />
      <line x1="0.149509" y1="-0.032123" x2="0.154535" y2="-0.032123" />
      <line x1="0.149509" y1="-0.032123" x2="0.149536" y2="-0.032109" />
      <line x1="0.149571" y1="-0.032091" x2="0.149598" y2="-0.032077" />
      <line x1="0.149509" y1="0.000277" x2="0.149598" y2="0.000323" />
      <line x1="0.149598" y1="-0.032077" x2="0.149598" y2="0.000323" />
      <line x1="0.149509" y1="-0.032123" x2="0.149509" y2="0.000277" />
      <line x1="0.149598" y1="0.000323" x2="0.154625" y2="0.000323" />
      <line x1="0.149509" y1="0.000277" x2="0.154535" y2="0.000277" />
      <line x1="0.154317" y1="-0.038018" x2="0.154317" y2="-0.032118" />
      <line x1="0.150117" y1="-0.038018" x2="0.150117" y2="-0.032118" />
      <line x1="0.15439" y1="-0.037982" x2="0.15439" y2="-0.032082" />
      <line x1="0.15019" y1="-0.037982" x2="0.15019" y2="-0.032082" />
      <line x1="0.203269" y1="-0.037995" x2="0.203269" y2="0.002805" />
      <line x1="0.203269" y1="-0.037995" x2="0.233669" y2="-0.037995" />
      <line x1="0.233669" y1="-0.037995" x2="0.233669" y2="0.002805" />
      <line x1="0.223469" y1="-0.034795" x2="0.213469" y2="-0.034795" />
      <line x1="0.223469" y1="-0.034795" x2="0.223469" y2="-0.028795" />
      <line x1="0.223469" y1="-0.028795" x2="0.213469" y2="-0.028795" />
      <line x1="0.213469" y1="-0.034795" x2="0.213469" y2="-0.028795" />
      <line x1="0.203269" y1="-0.037995" x2="0.203269" y2="-0.038009" />
      <line x1="0.233669" y1="-0.037995" x2="0.233669" y2="-0.038009" />
      <path d="M 0.208219,-0.038008 A 0.0021,3.747411835936681e-06 0.0 0,1 0.210319,-0.038004" />
      <path d="M 0.210319,-0.038004 A 0.0021000000000000046,3.7474118359366894e-06 0.0 0,1 0.206119,-0.038004" />
      <path d="M 0.206119,-0.038004 A 0.0021,3.747411835936681e-06 0.0 0,1 0.208219,-0.038008" />
      <path d="M 0.228719,-0.038008 A 0.0021,3.747411835936681e-06 0.0 0,1 0.230819,-0.038004" />
      <path d="M 0.230819,-0.038004 A 0.0021000000000000046,3.7474118359366894e-06 0.0 0,1 0.226619,-0.038004" />
      <path d="M 0.226619,-0.038004 A 0.0021,3.747411835936681e-06 0.0 0,1 0.228719,-0.038008" />
      <line x1="0.223469" y1="-0.034795" x2="0.223469" y2="-0.034802" />
      <line x1="0.213469" y1="-0.034802" x2="0.223469" y2="-0.034802" />
      <line x1="0.213469" y1="-0.034795" x2="0.213469" y2="-0.034802" />
      <line x1="0.223469" y1="-0.034802" x2="0.223469" y2="-0.032102" />
      <line x1="0.223469" y1="-0.028795" x2="0.223469" y2="-0.0288" />
      <line x1="0.213469" y1="-0.028795" x2="0.213469" y2="-0.0288" />
      <line x1="0.213469" y1="-0.034802" x2="0.213469" y2="-0.032102" />
      <line x1="0.231169" y1="-0.0321" x2="0.231169" y2="-0.032109" />
      <line x1="0.205769" y1="-0.0321" x2="0.205769" y2="-0.032109" />
      <line x1="0.205769" y1="0.0003" x2="0.231169" y2="0.0003" />
      <line x1="0.231169" y1="0.000291" x2="0.231169" y2="0.0003" />
      <line x1="0.205769" y1="0.000291" x2="0.205769" y2="0.0003" />
      <line x1="0.231169" y1="0.0003" x2="0.231169" y2="0.000291" />
      <line x1="0.205769" y1="0.0003" x2="0.205769" y2="0.000291" />
      <line x1="0.210319" y1="-0.038004" x2="0.210319" y2="-0.032104" />
      <line x1="0.206119" y1="-0.038004" x2="0.206119" y2="-0.032104" />
      <line x1="0.230819" y1="-0.038004" x2="0.230819" y2="-0.032104" />
      <line x1="0.226619" y1="-0.038004" x2="0.226619" y2="-0.032104" />
    </g>
  </g>
  <text x="0.021000" y="-0.020875" text-anchor="middle" font-family="'Input Sans Narrow', 'DejaVu Sans', Arial, sans-serif" font-size="0.002500" font-weight="bold" fill="#333">A-A</text>
  <text x="0.021000" y="-0.017375" text-anchor="middle" font-family="'Input Sans Narrow', 'DejaVu Sans', Arial, sans-serif" font-size="0.001800" fill="#888">front_horn</text>
  <line x1="0.000000" y1="0.016000" x2="0.000000" y2="0.019000" stroke="#555" stroke-width="0.000140" stroke-opacity="0.5"/>
  <line x1="0.042000" y1="0.016000" x2="0.042000" y2="0.019000" stroke="#555" stroke-width="0.000140" stroke-opacity="0.5"/>
  <line x1="0.000000" y1="0.017400" x2="0.000000" y2="0.019000" stroke="#555" stroke-width="0.000200"/>
  <line x1="0.042000" y1="0.017400" x2="0.042000" y2="0.019000" stroke="#555" stroke-width="0.000200"/>
  <line x1="0.000000" y1="0.018200" x2="0.042000" y2="0.018200" stroke="#555" stroke-width="0.000200"/>
  <polygon points="0.000000,0.018200 0.001500,0.017600 0.001500,0.018800" fill="#555"/>
  <polygon points="0.042000,0.018200 0.040500,0.017600 0.040500,0.018800" fill="#555"/>
  <text x="0.021000" y="0.017000" text-anchor="middle" font-family="'Input Sans Narrow', 'DejaVu Sans', Arial, sans-serif" font-size="0.001600" fill="#555">42.0</text>
  <line x1="0.042800" y1="-0.015200" x2="0.045800" y2="-0.015200" stroke="#555" stroke-width="0.000140" stroke-opacity="0.5"/>
  <line x1="0.042800" y1="0.015200" x2="0.045800" y2="0.015200" stroke="#555" stroke-width="0.000140" stroke-opacity="0.5"/>
  <line x1="0.044200" y1="-0.015200" x2="0.045800" y2="-0.015200" stroke="#555" stroke-width="0.000200"/>
  <line x1="0.044200" y1="0.015200" x2="0.045800" y2="0.015200" stroke="#555" stroke-width="0.000200"/>
  <line x1="0.045000" y1="-0.015200" x2="0.045000" y2="0.015200" stroke="#555" stroke-width="0.000200"/>
  <polygon points="0.045000,-0.015200 0.044400,-0.013700 0.045600,-0.013700" fill="#555"/>
  <polygon points="0.045000,0.015200 0.044400,0.013700 0.045600,0.013700" fill="#555"/>
  <text x="0.046500" y="0.000000" text-anchor="middle" dominant-baseline="central" font-family="'Input Sans Narrow', 'DejaVu Sans', Arial, sans-serif" font-size="0.001600" fill="#555" transform="rotate(-90 0.046500 0.000000)">30.4</text>
  <text x="0.066400" y="-0.020875" text-anchor="middle" font-family="'Input Sans Narrow', 'DejaVu Sans', Arial, sans-serif" font-size="0.002500" font-weight="bold" fill="#333">B-B</text>
  <text x="0.066400" y="-0.017375" text-anchor="middle" font-family="'Input Sans Narrow', 'DejaVu Sans', Arial, sans-serif" font-size="0.001800" fill="#888">rear_horn</text>
  <line x1="0.050000" y1="0.016000" x2="0.050000" y2="0.019000" stroke="#555" stroke-width="0.000140" stroke-opacity="0.5"/>
  <line x1="0.082800" y1="0.016000" x2="0.082800" y2="0.019000" stroke="#555" stroke-width="0.000140" stroke-opacity="0.5"/>
  <line x1="0.050000" y1="0.017400" x2="0.050000" y2="0.019000" stroke="#555" stroke-width="0.000200"/>
  <line x1="0.082800" y1="0.017400" x2="0.082800" y2="0.019000" stroke="#555" stroke-width="0.000200"/>
  <line x1="0.050000" y1="0.018200" x2="0.082800" y2="0.018200" stroke="#555" stroke-width="0.000200"/>
  <polygon points="0.050000,0.018200 0.051500,0.017600 0.051500,0.018800" fill="#555"/>
  <polygon points="0.082800,0.018200 0.081300,0.017600 0.081300,0.018800" fill="#555"/>
  <text x="0.066400" y="0.017000" text-anchor="middle" font-family="'Input Sans Narrow', 'DejaVu Sans', Arial, sans-serif" font-size="0.001600" fill="#555">32.8</text>
  <line x1="0.083600" y1="-0.015200" x2="0.086600" y2="-0.015200" stroke="#555" stroke-width="0.000140" stroke-opacity="0.5"/>
  <line x1="0.083600" y1="0.015200" x2="0.086600" y2="0.015200" stroke="#555" stroke-width="0.000140" stroke-opacity="0.5"/>
  <line x1="0.085000" y1="-0.015200" x2="0.086600" y2="-0.015200" stroke="#555" stroke-width="0.000200"/>
  <line x1="0.085000" y1="0.015200" x2="0.086600" y2="0.015200" stroke="#555" stroke-width="0.000200"/>
  <line x1="0.085800" y1="-0.015200" x2="0.085800" y2="0.015200" stroke="#555" stroke-width="0.000200"/>
  <polygon points="0.085800,-0.015200 0.085200,-0.013700 0.086400,-0.013700" fill="#555"/>
  <polygon points="0.085800,0.015200 0.085200,0.013700 0.086400,0.013700" fill="#555"/>
  <text x="0.087300" y="-0.000000" text-anchor="middle" dominant-baseline="central" font-family="'Input Sans Narrow', 'DejaVu Sans', Arial, sans-serif" font-size="0.001600" fill="#555" transform="rotate(-90 0.087300 -0.000000)">30.4</text>
  <text x="0.114900" y="-0.020875" text-anchor="middle" font-family="'Input Sans Narrow', 'DejaVu Sans', Arial, sans-serif" font-size="0.002500" font-weight="bold" fill="#333">C-C</text>
  <text x="0.114900" y="-0.017375" text-anchor="middle" font-family="'Input Sans Narrow', 'DejaVu Sans', Arial, sans-serif" font-size="0.001800" fill="#888">mid_body</text>
  <line x1="0.090800" y1="0.016000" x2="0.090800" y2="0.019000" stroke="#555" stroke-width="0.000140" stroke-opacity="0.5"/>
  <line x1="0.139000" y1="0.016000" x2="0.139000" y2="0.019000" stroke="#555" stroke-width="0.000140" stroke-opacity="0.5"/>
  <line x1="0.090800" y1="0.017400" x2="0.090800" y2="0.019000" stroke="#555" stroke-width="0.000200"/>
  <line x1="0.139000" y1="0.017400" x2="0.139000" y2="0.019000" stroke="#555" stroke-width="0.000200"/>
  <line x1="0.090800" y1="0.018200" x2="0.139000" y2="0.018200" stroke="#555" stroke-width="0.000200"/>
  <polygon points="0.090800,0.018200 0.092300,0.017600 0.092300,0.018800" fill="#555"/>
  <polygon points="0.139000,0.018200 0.137500,0.017600 0.137500,0.018800" fill="#555"/>
  <text x="0.114900" y="0.017000" text-anchor="middle" font-family="'Input Sans Narrow', 'DejaVu Sans', Arial, sans-serif" font-size="0.001600" fill="#555">48.2</text>
  <line x1="0.139800" y1="-0.015200" x2="0.142800" y2="-0.015200" stroke="#555" stroke-width="0.000140" stroke-opacity="0.5"/>
  <line x1="0.139800" y1="0.015200" x2="0.142800" y2="0.015200" stroke="#555" stroke-width="0.000140" stroke-opacity="0.5"/>
  <line x1="0.141200" y1="-0.015200" x2="0.142800" y2="-0.015200" stroke="#555" stroke-width="0.000200"/>
  <line x1="0.141200" y1="0.015200" x2="0.142800" y2="0.015200" stroke="#555" stroke-width="0.000200"/>
  <line x1="0.142000" y1="-0.015200" x2="0.142000" y2="0.015200" stroke="#555" stroke-width="0.000200"/>
  <polygon points="0.142000,-0.015200 0.141400,-0.013700 0.142600,-0.013700" fill="#555"/>
  <polygon points="0.142000,0.015200 0.141400,0.013700 0.142600,0.013700" fill="#555"/>
  <text x="0.143500" y="-0.000000" text-anchor="middle" dominant-baseline="central" font-family="'Input Sans Narrow', 'DejaVu Sans', Arial, sans-serif" font-size="0.001600" fill="#555" transform="rotate(-90 0.143500 -0.000000)">30.4</text>
  <text x="0.171135" y="-0.020875" text-anchor="middle" font-family="'Input Sans Narrow', 'DejaVu Sans', Arial, sans-serif" font-size="0.002500" font-weight="bold" fill="#333">side_XZ</text>
  <line x1="0.147000" y1="0.038827" x2="0.147000" y2="0.041827" stroke="#555" stroke-width="0.000140" stroke-opacity="0.5"/>
  <line x1="0.195269" y1="0.038827" x2="0.195269" y2="0.041827" stroke="#555" stroke-width="0.000140" stroke-opacity="0.5"/>
  <line x1="0.147000" y1="0.040227" x2="0.147000" y2="0.041827" stroke="#555" stroke-width="0.000200"/>
  <line x1="0.195269" y1="0.040227" x2="0.195269" y2="0.041827" stroke="#555" stroke-width="0.000200"/>
  <line x1="0.147000" y1="0.041027" x2="0.195269" y2="0.041027" stroke="#555" stroke-width="0.000200"/>
  <polygon points="0.147000,0.041027 0.148500,0.040427 0.148500,0.041627" fill="#555"/>
  <polygon points="0.195269,0.041027 0.193769,0.040427 0.193769,0.041627" fill="#555"/>
  <text x="0.171135" y="0.039827" text-anchor="middle" font-family="'Input Sans Narrow', 'DejaVu Sans', Arial, sans-serif" font-size="0.001600" fill="#555">48.3</text>
  <line x1="0.196069" y1="-0.002827" x2="0.199069" y2="-0.002827" stroke="#555" stroke-width="0.000140" stroke-opacity="0.5"/>
  <line x1="0.196069" y1="0.038027" x2="0.199069" y2="0.038027" stroke="#555" stroke-width="0.000140" stroke-opacity="0.5"/>
  <line x1="0.197469" y1="-0.002827" x2="0.199069" y2="-0.002827" stroke="#555" stroke-width="0.000200"/>
  <line x1="0.197469" y1="0.038027" x2="0.199069" y2="0.038027" stroke="#555" stroke-width="0.000200"/>
  <line x1="0.198269" y1="-0.002827" x2="0.198269" y2="0.038027" stroke="#555" stroke-width="0.000200"/>
  <polygon points="0.198269,-0.002827 0.197669,-0.001327 0.198869,-0.001327" fill="#555"/>
  <polygon points="0.198269,0.038027 0.197669,0.036527 0.198869,0.036527" fill="#555"/>
  <text x="0.199769" y="0.017600" text-anchor="middle" dominant-baseline="central" font-family="'Input Sans Narrow', 'DejaVu Sans', Arial, sans-serif" font-size="0.001600" fill="#555" transform="rotate(-90 0.199769 0.017600)">40.9</text>
  <line x1="0.144000" y1="-0.002800" x2="0.198269" y2="-0.002800" stroke="#555" stroke-width="0.000250" stroke-dasharray="0.002500,0.000800,0.000500,0.000800"/>
  <text x="0.142500" y="-0.002200" text-anchor="end" font-family="'Input Sans Narrow', 'DejaVu Sans', Arial, sans-serif" font-size="0.002000" font-weight="bold" fill="#555">A</text>
  <text x="0.199769" y="-0.002200" text-anchor="start" font-family="'Input Sans Narrow', 'DejaVu Sans', Arial, sans-serif" font-size="0.002000" font-weight="bold" fill="#555">A</text>
  <line x1="0.144000" y1="0.034900" x2="0.198269" y2="0.034900" stroke="#555" stroke-width="0.000250" stroke-dasharray="0.002500,0.000800,0.000500,0.000800"/>
  <text x="0.142500" y="0.035500" text-anchor="end" font-family="'Input Sans Narrow', 'DejaVu Sans', Arial, sans-serif" font-size="0.002000" font-weight="bold" fill="#555">B</text>
  <text x="0.199769" y="0.035500" text-anchor="start" font-family="'Input Sans Narrow', 'DejaVu Sans', Arial, sans-serif" font-size="0.002000" font-weight="bold" fill="#555">B</text>
  <line x1="0.144000" y1="0.016050" x2="0.198269" y2="0.016050" stroke="#555" stroke-width="0.000250" stroke-dasharray="0.002500,0.000800,0.000500,0.000800"/>
  <text x="0.142500" y="0.016650" text-anchor="end" font-family="'Input Sans Narrow', 'DejaVu Sans', Arial, sans-serif" font-size="0.002000" font-weight="bold" fill="#555">C</text>
  <text x="0.199769" y="0.016650" text-anchor="start" font-family="'Input Sans Narrow', 'DejaVu Sans', Arial, sans-serif" font-size="0.002000" font-weight="bold" fill="#555">C</text>
  <text x="0.218469" y="-0.020875" text-anchor="middle" font-family="'Input Sans Narrow', 'DejaVu Sans', Arial, sans-serif" font-size="0.002500" font-weight="bold" fill="#333">side_YZ</text>
  <line x1="0.203269" y1="0.038809" x2="0.203269" y2="0.041809" stroke="#555" stroke-width="0.000140" stroke-opacity="0.5"/>
  <line x1="0.233669" y1="0.038809" x2="0.233669" y2="0.041809" stroke="#555" stroke-width="0.000140" stroke-opacity="0.5"/>
  <line x1="0.203269" y1="0.040209" x2="0.203269" y2="0.041809" stroke="#555" stroke-width="0.000200"/>
  <line x1="0.233669" y1="0.040209" x2="0.233669" y2="0.041809" stroke="#555" stroke-width="0.000200"/>
  <line x1="0.203269" y1="0.041009" x2="0.233669" y2="0.041009" stroke="#555" stroke-width="0.000200"/>
  <polygon points="0.203269,0.041009 0.204769,0.040409 0.204769,0.041609" fill="#555"/>
  <polygon points="0.233669,0.041009 0.232169,0.040409 0.232169,0.041609" fill="#555"/>
  <text x="0.218469" y="0.039809" text-anchor="middle" font-family="'Input Sans Narrow', 'DejaVu Sans', Arial, sans-serif" font-size="0.001600" fill="#555">30.4</text>
  <line x1="0.234469" y1="-0.002805" x2="0.237469" y2="-0.002805" stroke="#555" stroke-width="0.000140" stroke-opacity="0.5"/>
  <line x1="0.234469" y1="0.038009" x2="0.237469" y2="0.038009" stroke="#555" stroke-width="0.000140" stroke-opacity="0.5"/>
  <line x1="0.235869" y1="-0.002805" x2="0.237469" y2="-0.002805" stroke="#555" stroke-width="0.000200"/>
  <line x1="0.235869" y1="0.038009" x2="0.237469" y2="0.038009" stroke="#555" stroke-width="0.000200"/>
  <line x1="0.236669" y1="-0.002805" x2="0.236669" y2="0.038009" stroke="#555" stroke-width="0.000200"/>
  <polygon points="0.236669,-0.002805 0.236069,-0.001305 0.237269,-0.001305" fill="#555"/>
  <polygon points="0.236669,0.038009 0.236069,0.036509 0.237269,0.036509" fill="#555"/>
  <text x="0.238169" y="0.017602" text-anchor="middle" dominant-baseline="central" font-family="'Input Sans Narrow', 'DejaVu Sans', Arial, sans-serif" font-size="0.001600" fill="#555" transform="rotate(-90 0.238169 0.017602)">40.8</text>
  <line x1="0.200269" y1="-0.002800" x2="0.236669" y2="-0.002800" stroke="#555" stroke-width="0.000250" stroke-dasharray="0.002500,0.000800,0.000500,0.000800"/>
  <text x="0.198769" y="-0.002200" text-anchor="end" font-family="'Input Sans Narrow', 'DejaVu Sans', Arial, sans-serif" font-size="0.002000" font-weight="bold" fill="#555">A</text>
  <text x="0.238169" y="-0.002200" text-anchor="start" font-family="'Input Sans Narrow', 'DejaVu Sans', Arial, sans-serif" font-size="0.002000" font-weight="bold" fill="#555">A</text>
  <line x1="0.200269" y1="0.034900" x2="0.236669" y2="0.034900" stroke="#555" stroke-width="0.000250" stroke-dasharray="0.002500,0.000800,0.000500,0.000800"/>
  <text x="0.198769" y="0.035500" text-anchor="end" font-family="'Input Sans Narrow', 'DejaVu Sans', Arial, sans-serif" font-size="0.002000" font-weight="bold" fill="#555">B</text>
  <text x="0.238169" y="0.035500" text-anchor="start" font-family="'Input Sans Narrow', 'DejaVu Sans', Arial, sans-serif" font-size="0.002000" font-weight="bold" fill="#555">B</text>
  <line x1="0.200269" y1="0.016050" x2="0.236669" y2="0.016050" stroke="#555" stroke-width="0.000250" stroke-dasharray="0.002500,0.000800,0.000500,0.000800"/>
  <text x="0.198769" y="0.016650" text-anchor="end" font-family="'Input Sans Narrow', 'DejaVu Sans', Arial, sans-serif" font-size="0.002000" font-weight="bold" fill="#555">C</text>
  <text x="0.238169" y="0.016650" text-anchor="start" font-family="'Input Sans Narrow', 'DejaVu Sans', Arial, sans-serif" font-size="0.002000" font-weight="bold" fill="#555">C</text>
  <text x="-0.001175" y="0.046202" font-family="'Input Sans Narrow', 'DejaVu Sans', Arial, sans-serif" font-size="0.003500" font-weight="bold" fill="#222">cradle</text>
  <line x1="-0.001175" y1="0.050202" x2="0.008825" y2="0.050202" stroke="#333" stroke-width="0.000350"/>
  <line x1="-0.001175" y1="0.049202" x2="-0.001175" y2="0.051202" stroke="#333" stroke-width="0.000250"/>
  <line x1="0.008825" y1="0.049202" x2="0.008825" y2="0.051202" stroke="#333" stroke-width="0.000250"/>
  <text x="0.010325" y="0.050902" font-family="'Input Sans Narrow', 'DejaVu Sans', Arial, sans-serif" font-size="0.001800" fill="#888">10 mm</text>
  <rect x="0.028825" y="0.043702" width="0.004000" height="0.002500" fill="url(#hatch_servo)" stroke="rgb(60,60,60)" stroke-width="0.000300"/>
  <text x="0.034325" y="0.045702" font-family="'Input Sans Narrow', 'DejaVu Sans', Arial, sans-serif" font-size="0.001800" fill="rgb(60,60,60)">servo</text>
  <rect x="0.028825" y="0.047202" width="0.004000" height="0.002500" fill="url(#hatch_cradle)" stroke="rgb(50,120,190)" stroke-width="0.000300"/>
  <text x="0.034325" y="0.049202" font-family="'Input Sans Narrow', 'DejaVu Sans', Arial, sans-serif" font-size="0.001800" fill="rgb(50,120,190)">cradle</text>
</svg>