<?xml version='1.0' encoding='utf-8'?>
<svg width="212.47mm" height="85.77mm" viewBox="-0.003175 -0.047197 0.212469 0.085773" version="1.1" xmlns="http://www.w3.org/2000/svg">
  <defs>
    <pattern id="hatch_servo" width="0.0012" height="0.0012" patternUnits="userSpaceOnUse" patternTransform="rotate(45)">
      <line x1="0" y1="0" x2="0" y2="0.0012" stroke="rgb(60,60,60)" stroke-width="0.0001" stroke-opacity="0.6"/>
    </pattern>
    <pattern id="hatch_bracket" width="0.0012" height="0.0012" patternUnits="userSpaceOnUse" patternTransform="rotate(75)">
      <line x1="0" y1="0" x2="0" y2="0.0012" stroke="rgb(50,120,190)" stroke-width="0.0001" stroke-opacity="0.6"/>
    </pattern>
  </defs>
  <g transform="scale(1,-1)" stroke-linecap="round">
    <g fill="none" stroke="rgb(60,60,60)" stroke-width="0.00035" id="servo">
      <line x1="0.0153" y1="-0.0084" x2="0.0153" y2="0.0084" />
      <path d="M 0.0153,-0.0084 A 0.004,0.004 -90.0 0,1 0.0193,-0.0124" />
      <line x1="0.0193" y1="-0.0124" x2="0.0567" y2="-0.0124" />
      <path d="M 0.0607,-0.0084 A 0.004,0.004 -90.0 0,0 0.0567,-0.0124" />
      <line x1="0.0607" y1="-0.0084" x2="0.0607" y2="0.0084" />
      <path d="M 0.0607,0.0084 A 0.004,0.004 -90.0 0,1 0.0567,0.0124" />
      <line x1="0.0193" y1="0.0124" x2="0.0567" y2="0.0124" />
      <path d="M 0.0153,0.0084 A 0.004,0.004 -90.0 0,0 0.0193,0.0124" />
      <path d="M 0.088,0.0124 A 0.004,0.004 180.0 0,1 0.084,0.0084" />
      <line x1="0.088" y1="0.0124" x2="0.1254" y2="0.0124" />
      <path d="M 0.1294,0.0084 A 0.004,0.004 0.0 0,1 0.1254,0.0124" />
      <line x1="0.1294" y1="0.0084" x2="0.1294" y2="-0.0084" />
      <path d="M 0.1254,-0.0124 A 0.004,0.004 0.0 0,1 0.1294,-0.0084" />
      <line x1="0.088" y1="-0.0124" x2="0.1254" y2="-0.0124" />
      <path d="M 0.084,-0.0084 A 0.004,0.004 180.0 0,1 0.088,-0.0124" />
      <line x1="0.084" y1="0.0084" x2="0.084" y2="-0.0084" />
      <line x1="0.152719" y1="-0.0163" x2="0.152719" y2="0.0163" />
      <line x1="0.152718" y1="0.0163" x2="0.152718" y2="-0.0163" />
      <path d="M 0.152719,0.0163 A 0.004,7.200512446339205e-08 -1.3567487564507165e-24 0,0 0.156719,0.0163" />
      <path d="M 0.152719,-0.0163 A 0.004,7.200512446339205e-08 -1.3567487564507165e-24 0,0 0.154719,-0.0163" />
      <line x1="0.156719" y1="-0.0163" x2="0.156719" y2="0.0163" />
      <path d="M 0.152718,-0.0163 A 0.004,7.200512446339205e-08 180.0 0,1 0.154718,-0.0163" />
      <path d="M 0.198119,-0.0163 A 0.004,7.200512446339205e-08 180.0 0,1 0.195119,-0.0163" />
      <line x1="0.156719" y1="0.0163" x2="0.194119" y2="0.0163" />
      <path d="M 0.198119,0.0163 A 0.004,7.200512446339205e-08 180.0 0,1 0.194119,0.0163" />
      <line x1="0.194119" y1="0.0163" x2="0.195919" y2="0.0163" />
      <line x1="0.154719" y1="-0.0163" x2="0.156719" y2="-0.0163" />
      <line x1="0.194119" y1="-0.0163" x2="0.194119" y2="0.0163" />
      <line x1="0.194119" y1="-0.0163" x2="0.195119" y2="-0.0163" />
      <line x1="0.195119" y1="-0.0184" x2="0.195119" y2="-0.0163" />
      <line x1="0.154719" y1="-0.0184" x2="0.195119" y2="-0.0184" />
      <line x1="0.154719" y1="-0.0184" x2="0.154719" y2="-0.0163" />
      <line x1="0.154718" y1="-0.0184" x2="0.154718" y2="-0.0163" />
      <line x1="0.154718" y1="-0.0184" x2="0.195118" y2="-0.0184" />
      <line x1="0.198119" y1="-0.0163" x2="0.198119" y2="0.0163" />
      <line x1="0.162869" y1="-0.0184" x2="0.171969" y2="-0.0184" />
      <path d="M 0.177919,0.018 A 0.002,3.6002562231696023e-08 -1.3567487564507165e-24 0,0 0.179919,0.018" />
      <line x1="0.179919" y1="0.018" x2="0.195919" y2="0.018" />
      <path d="M 0.197919,0.018 A 0.002,3.6002562231696023e-08 180.0 0,1 0.195919,0.018" />
      <path d="M 0.160019,-0.0184 A 0.0016000000000000044,2.8802049785356893e-08 1.3556093641866638e-24 0,0 0.156819,-0.0184" />
      <path d="M 0.156819,-0.0184 A 0.0016000000000000044,2.8802049785356893e-08 1.3556093641866638e-24 1,0 0.160019,-0.0184" />
      <path d="M 0.177019,-0.0184 A 0.0016000000000000044,2.8802049785356893e-08 1.3556093641866638e-24 0,0 0.173819,-0.0184" />
      <path d="M 0.173819,-0.0184 A 0.0016000000000000044,2.8802049785356893e-08 1.3556093641866638e-24 1,0 0.177019,-0.0184" />
      <path d="M 0.194019,-0.0184 A 0.0016000000000000044,2.8802049785356893e-08 1.3556093641866638e-24 0,0 0.190819,-0.0184" />
      <path d="M 0.190819,-0.0184 A 0.0016000000000000044,2.8802049785356893e-08 1.3556093641866638e-24 1,0 0.194019,-0.0184" />
      <path d="M 0.160018,-0.0184 A 0.0016,2.8802049785356817e-08 1.3556093641866638e-24 0,0 0.156818,-0.0184" />
      <path d="M 0.156818,-0.0184 A 0.0016,2.8802049785356817e-08 1.3556093641866638e-24 1,0 0.160018,-0.0184" />
      <path d="M 0.177018,-0.0184 A 0.0016000000000000044,2.8802049785356893e-08 1.3556093641866638e-24 0,0 0.173818,-0.0184" />
      <path d="M 0.173818,-0.0184 A 0.0016000000000000044,2.8802049785356893e-08 1.3556093641866638e-24 1,0 0.177018,-0.0184" />
      <path d="M 0.194018,-0.0184 A 0.0016000000000000044,2.8802049785356893e-08 1.3556093641866638e-24 0,0 0.190818,-0.0184" />
      <path d="M 0.190818,-0.0184 A 0.0016000000000000044,2.8802049785356893e-08 1.3556093641866638e-24 1,0 0.194018,-0.0184" />
      <line x1="0.163569" y1="-0.0184" x2="0.171269" y2="-0.0184" />
      <path d="M 0.183419,0.0195 A 0.004500000000000004,8.10057650213161e-08 1.3556093641866638e-24 0,0 0.192419,0.0195" />
      <line x1="0.177919" y1="0.0163" x2="0.177919" y2="0.018" />
      <line x1="0.179919" y1="0.0163" x2="0.179919" y2="0.018" />
      <line x1="0.195919" y1="0.0163" x2="0.195919" y2="0.018" />
      <line x1="0.197919" y1="0.0163" x2="0.197919" y2="0.018" />
      <line x1="0.152718" y1="-0.0163" x2="0.152718" y2="0.0163" />
      <line x1="0.198119" y1="-0.0163" x2="0.198119" y2="0.0163" />
      <line x1="0.192419" y1="0.018" x2="0.192419" y2="0.0195" />
      <line x1="0.183419" y1="0.018" x2="0.183419" y2="0.0195" />
    </g>
    <g fill="url(#hatch_servo)" stroke="none" stroke-width="0" id="servo_fill">
      <path d="M 0.0153,0.0084 L 0.0153,-0.0084 A 0.004,0.004 -90.0 0,1 0.0193,-0.0124 L 0.0567,-0.0124 A 0.004,0.004 -90.0 0,1 0.0607,-0.0084 L 0.0607,0.0084 A 0.004,0.004 -90.0 0,1 0.0567,0.0124 L 0.0193,0.0124 A 0.004,0.004 -90.0 0,1 0.0153,0.0084" />
      <path d="M 0.088,0.0124 A 0.004,0.004 180.0 0,1 0.084,0.0084 L 0.084,-0.0084 A 0.004,0.004 180.0 0,1 0.088,-0.0124 L 0.1254,-0.0124 A 0.004,0.004 0.0 0,1 0.1294,-0.0084 L 0.1294,0.0084 A 0.004,0.004 0.0 0,1 0.1254,0.0124 L 0.088,0.0124" />
    </g>
    <g fill="none" stroke="rgb(60,60,60)" stroke-opacity="0.4" stroke-width="0.00015" id="servo_hidden" stroke-dasharray="0.0018 0.00045">
      <path d="M 0.154719,-0.0163 A 0.004,7.200512446339205e-08 -1.3567487564507165e-24 0,0 0.156719,-0.0163" />
      <line x1="0.154719" y1="-0.0163" x2="0.195119" y2="-0.0163" />
      <line x1="0.154719" y1="-0.0163" x2="0.195118" y2="-0.0163" />
      <path d="M 0.198118,-0.0163 A 0.004,7.200512446339205e-08 -1.3567487564507165e-24 0,0 0.195118,-0.0163" />
      <path d="M 0.190919,-0.0163 A 0.0030000000000000027,5.4003843347544075e-08 1.3556093641866638e-24 0,0 0.184919,-0.0163" />
      <path d="M 0.184919,-0.0163 A 0.0030000000000000027,5.4003843347544075e-08 1.3556093641866638e-24 1,0 0.190919,-0.0163" />
      <line x1="0.162869" y1="-0.0163" x2="0.171969" y2="-0.0163" />
      <line x1="0.162869" y1="-0.0163" x2="0.171969" y2="-0.0163" />
      <line x1="0.156718" y1="0.0163" x2="0.156718" y2="-0.0163" />
      <path d="M 0.152719,0.0163 A 0.004,7.200512446339205e-08 180.0 0,1 0.156718,0.0163" />
      <path d="M 0.154718,-0.0163 A 0.004,7.200512446339205e-08 180.0 0,1 0.156718,-0.0163" />
      <line x1="0.156718" y1="0.0163" x2="0.194118" y2="0.0163" />
      <path d="M 0.198118,0.0163 A 0.004,7.200512446339205e-08 -1.3567487564507165e-24 0,0 0.194118,0.0163" />
      <path d="M 0.177919,0.0163 A 0.002,3.6002562231696023e-08 -1.3567487564507165e-24 0,0 0.179919,0.0163" />
      <line x1="0.179919" y1="0.0163" x2="0.194119" y2="0.0163" />
      <path d="M 0.197919,0.0163 A 0.002,3.6002562231696023e-08 180.0 0,1 0.195919,0.0163" />
      <path d="M 0.197918,0.0163 A 0.002,3.6002562231696023e-08 -1.3567487564507165e-24 0,0 0.195918,0.0163" />
      <line x1="0.179918" y1="0.0163" x2="0.195918" y2="0.0163" />
      <path d="M 0.177918,0.0163 A 0.002,3.6002562231696023e-08 180.0 0,1 0.179918,0.0163" />
      <line x1="0.154719" y1="-0.0184" x2="0.154719" y2="-0.0163" />
      <line x1="0.154718" y1="-0.0184" x2="0.154718" y2="-0.0163" />
      <line x1="0.154719" y1="-0.0184" x2="0.195119" y2="-0.0184" />
      <line x1="0.195119" y1="-0.0184" x2="0.195119" y2="-0.0163" />
      <line x1="0.195118" y1="-0.0184" x2="0.195118" y2="-0.0163" />
      <line x1="0.195118" y1="-0.0184" x2="0.195118" y2="-0.0163" />
      <path d="M 0.195119,-0.0163 A 0.004,7.200512446339205e-08 180.0 0,1 0.194119,-0.0163" />
      <line x1="0.194118" y1="0.0163" x2="0.194118" y2="-0.0163" />
      <line x1="0.198118" y1="0.0163" x2="0.198118" y2="-0.0163" />
      <path d="M 0.195118,-0.0163 A 0.004,7.200512446339205e-08 -1.3567487564507165e-24 0,0 0.194118,-0.0163" />
      <path d="M 0.190919,-0.0176 A 0.0030000000000000027,5.4003843347544075e-08 1.3556093641866638e-24 0,0 0.184919,-0.0176" />
      <path d="M 0.184919,-0.0176 A 0.0030000000000000027,5.4003843347544075e-08 1.3556093641866638e-24 1,0 0.190919,-0.0176" />
      <line x1="0.171969" y1="-0.0163" x2="0.171969" y2="-0.0184" />
      <line x1="0.162869" y1="-0.0163" x2="0.162869" y2="-0.0184" />
      <line x1="0.171969" y1="-0.0163" x2="0.171969" y2="-0.0184" />
      <line x1="0.162869" y1="-0.0184" x2="0.171969" y2="-0.0184" />
      <line x1="0.162869" y1="-0.0163" x2="0.162869" y2="-0.0184" />
      <line x1="0.194118" y1="-0.0163" x2="0.195118" y2="-0.0163" />
      <line x1="0.154718" y1="-0.0184" x2="0.195118" y2="-0.0184" />
      <line x1="0.154718" y1="-0.0163" x2="0.156718" y2="-0.0163" />
      <path d="M 0.197918,0.018 A 0.002,3.6002562231696023e-08 -1.3567487564507165e-24 0,0 0.195918,0.018" />
      <line x1="0.179918" y1="0.018" x2="0.195918" y2="0.018" />
      <path d="M 0.177918,0.018 A 0.002,3.6002562231696023e-08 180.0 0,1 0.179918,0.018" />
      <line x1="0.163569" y1="-0.0184" x2="0.171269" y2="-0.0184" />
      <path d="M 0.192419,0.018 A 0.004500000000000004,8.10057650213161e-08 1.3556093641866638e-24 0,0 0.183419,0.018" />
      <path d="M 0.183419,0.018 A 0.004500000000000004,8.10057650213161e-08 1.3556093641866638e-24 0,0 0.192419,0.018" />
      <path d="M 0.160019,-0.0084 A 0.0016000000000000044,2.8802049785356893e-08 1.3556093641866638e-24 0,0 0.156819,-0.0084" />
      <path d="M 0.156819,-0.0084 A 0.0016000000000000044,2.8802049785356893e-08 1.3556093641866638e-24 1,0 0.160019,-0.0084" />
      <path d="M 0.177019,-0.0084 A 0.0016000000000000044,2.8802049785356893e-08 1.3556093641866638e-24 0,0 0.173819,-0.0084" />
      <path d="M 0.173819,-0.0084 A 0.0016000000000000044,2.8802049785356893e-08 1.3556093641866638e-24 1,0 0.177019,-0.0084" />
      <path d="M 0.194019,-0.0084 A 0.0016000000000000044,2.8802049785356893e-08 1.3556093641866638e-24 0,0 0.190819,-0.0084" />
      <path d="M 0.190819,-0.0084 A 0.0016000000000000044,2.8802049785356893e-08 1.3556093641866638e-24 1,0 0.194019,-0.0084" />
      <path d="M 0.160018,-0.0084 A 0.0016,2.8802049785356817e-08 1.3556093641866638e-24 0,0 0.156818,-0.0084" />
      <path d="M 0.156818,-0.0084 A 0.0016,2.8802049785356817e-08 1.3556093641866638e-24 1,0 0.160018,-0.0084" />
      <path d="M 0.177018,-0.0084 A 0.0016000000000000044,2.8802049785356893e-08 1.3556093641866638e-24 0,0 0.173818,-0.0084" />
      <path d="M 0.173818,-0.0084 A 0.0016000000000000044,2.8802049785356893e-08 1.3556093641866638e-24 1,0 0.177018,-0.0084" />
      <path d="M 0.194018,-0.0084 A 0.0016000000000000044,2.8802049785356893e-08 1.3556093641866638e-24 0,0 0.190818,-0.0084" />
      <path d="M 0.190818,-0.0084 A 0.0016000000000000044,2.8802049785356893e-08 1.3556093641866638e-24 1,0 0.194018,-0.0084" />
      <line x1="0.163569" y1="-0.0163" x2="0.163569" y2="-0.0184" />
      <line x1="0.163569" y1="-0.0163" x2="0.163569" y2="-0.0184" />
      <line x1="0.171269" y1="-0.0163" x2="0.171269" y2="-0.0184" />
      <line x1="0.163569" y1="-0.0163" x2="0.171269" y2="-0.0163" />
      <line x1="0.171269" y1="-0.0163" x2="0.171269" y2="-0.0184" />
      <line x1="0.163569" y1="-0.0163" x2="0.171269" y2="-0.0163" />
      <path d="M 0.192419,0.0195 A 0.004500000000000004,8.10057650213161e-08 1.3556093641866638e-24 0,0 0.183419,0.0195" />
      <line x1="0.184919" y1="-0.0176" x2="0.184919" y2="-0.0163" />
      <line x1="0.156819" y1="-0.0184" x2="0.156819" y2="-0.0084" />
      <line x1="0.173819" y1="-0.0184" x2="0.173819" y2="-0.0084" />
      <line x1="0.190819" y1="-0.0184" x2="0.190819" y2="-0.0084" />
      <line x1="0.156818" y1="-0.0184" x2="0.156818" y2="-0.0084" />
      <line x1="0.173818" y1="-0.0184" x2="0.173818" y2="-0.0084" />
      <line x1="0.190818" y1="-0.0184" x2="0.190818" y2="-0.0084" />
      <line x1="0.197918" y1="0.0163" x2="0.197918" y2="0.018" />
      <line x1="0.195918" y1="0.0163" x2="0.195918" y2="0.018" />
      <line x1="0.179918" y1="0.0163" x2="0.179918" y2="0.018" />
      <line x1="0.177918" y1="0.0163" x2="0.177918" y2="0.018" />
    </g>
    <g fill="none" stroke="rgb(50,120,190)" stroke-width="0.00035" id="bracket">
      <line x1="0.0" y1="0.0152" x2="0.051" y2="0.0152" />
      <line x1="0.051" y1="0.0152" x2="0.051" y2="-0.0152" />
      <line x1="0.0" y1="-0.0152" x2="0.051" y2="-0.0152" />
      <line x1="0.0" y1="0.0152" x2="0.0" y2="-0.0152" />
      <line x1="0.0025" y1="0.0127" x2="0.0025" y2="-0.0127" />
      <line x1="0.0025" y1="-0.0127" x2="0.0485" y2="-0.0127" />
      <line x1="0.0485" y1="0.0127" x2="0.0485" y2="-0.0127" />
      <line x1="0.0025" y1="0.0127" x2="0.0485" y2="0.0127" />
      <line x1="0.0687" y1="0.0152" x2="0.1197" y2="0.0152" />
      <line x1="0.1197" y1="0.0152" x2="0.1197" y2="-0.0152" />
      <line x1="0.0687" y1="-0.0152" x2="0.1197" y2="-0.0152" />
      <line x1="0.0687" y1="-0.00455" x2="0.0687" y2="-0.0152" />
      <line x1="0.0687" y1="-0.00455" x2="0.0712" y2="-0.00455" />
      <line x1="0.0712" y1="-0.00455" x2="0.0712" y2="-0.0127" />
      <line x1="0.0712" y1="-0.0127" x2="0.1172" y2="-0.0127" />
      <line x1="0.1172" y1="0.0127" x2="0.1172" y2="-0.0127" />
      <line x1="0.0712" y1="0.0127" x2="0.1172" y2="0.0127" />
      <line x1="0.0712" y1="0.0127" x2="0.0712" y2="0.00455" />
      <line x1="0.0687" y1="0.00455" x2="0.0712" y2="0.00455" />
      <line x1="0.0687" y1="0.0152" x2="0.0687" y2="0.00455" />
      <line x1="0.1374" y1="-0.005728" x2="0.1374" y2="0.038022" />
      <line x1="0.1374" y1="-0.005728" x2="0.137437" y2="-0.005772" />
      <line x1="0.1374" y1="-0.005728" x2="0.1884" y2="-0.005728" />
      <line x1="0.1884" y1="-0.005728" x2="0.1884" y2="0.038022" />
      <line x1="0.1374" y1="0.038022" x2="0.1884" y2="0.038022" />
      <line x1="0.1884" y1="0.038022" x2="0.188437" y2="0.037978" />
      <line x1="0.137437" y1="-0.005772" x2="0.188437" y2="-0.005772" />
      <line x1="0.1884" y1="-0.005728" x2="0.188437" y2="-0.005772" />
      <path d="M 0.148856,-0.005735 A 0.00295,4.327416455089139e-06 -9.936706569461998e-21 1,0 0.142956,-0.005735" />
      <path d="M 0.142956,-0.005735 A 0.00295,4.327416455089139e-06 -9.936706569461998e-21 0,0 0.148856,-0.005735" />
      <path d="M 0.165856,-0.005735 A 0.0029500000000000077,4.3274164550891506e-06 -9.936706569461998e-21 1,0 0.159956,-0.005735" />
      <path d="M 0.159956,-0.005735 A 0.0029500000000000077,4.3274164550891506e-06 -9.936706569461998e-21 0,0 0.165856,-0.005735" />
      <path d="M 0.182856,-0.005735 A 0.00295,4.327416455089139e-06 -9.936706569461998e-21 1,0 0.176956,-0.005735" />
      <path d="M 0.176956,-0.005735 A 0.00295,4.327416455089139e-06 -9.936706569461998e-21 0,0 0.182856,-0.005735" />
      <path d="M 0.148881,-0.005765 A 0.0029500000000000077,4.3274164550891506e-06 -9.936706569461998e-21 1,0 0.142981,-0.005765" />
      <path d="M 0.142981,-0.005765 A 0.0029500000000000077,4.3274164550891506e-06 -9.936706569461998e-21 0,0 0.148881,-0.005765" />
      <path d="M 0.165881,-0.005765 A 0.00295,4.327416455089139e-06 -9.936706569461998e-21 1,0 0.159981,-0.005765" />
      <path d="M 0.159981,-0.005765 A 0.00295,4.327416455089139e-06 -9.936706569461998e-21 0,0 0.165881,-0.005765" />
      <path d="M 0.182881,-0.005765 A 0.00295,4.327416455089139e-06 -9.936706569461998e-21 1,0 0.176981,-0.005765" />
      <path d="M 0.176981,-0.005765 A 0.00295,4.327416455089139e-06 -9.936706569461998e-21 0,0 0.182881,-0.005765" />
      <line x1="0.188437" y1="-0.005772" x2="0.188437" y2="0.037978" />
    </g>
    <g fill="url(#hatch_bracket)" stroke="none" stroke-width="0" id="bracket_fill">
      <path d="M 0.051,0.0152 L 0.0,0.0152 L 0.0,-0.0152 L 0.051,-0.0152 L 0.051,0.0152 M 0.0025,-0.0127 L 0.0025,0.0127 L 0.0485,0.0127 L 0.0485,-0.0127 L 0.0025,-0.0127" />
      <path d="M 0.1197,0.0152 L 0.0687,0.0152 L 0.0687,0.00455 L 0.0712,0.00455 L 0.0712,0.0127 L 0.1172,0.0127 L 0.1172,-0.0127 L 0.0712,-0.0127 L 0.0712,-0.00455 L 0.0687,-0.00455 L 0.0687,-0.0152 L 0.1197,-0.0152 L 0.1197,0.0152" />
    </g>
    <g fill="none" stroke="rgb(50,120,190)" stroke-opacity="0.4" stroke-width="0.00015" id="bracket_hidden" stroke-dasharray="0.0018 0.00045">
      <line x1="0.1374" y1="0.038022" x2="0.137437" y2="0.037978" />
      <line x1="0.137437" y1="-0.005772" x2="0.137437" y2="0.037978" />
      <line x1="0.137424" y1="-0.004407" x2="0.137413" y2="-0.004393" />
      <line x1="0.137424" y1="-0.004407" x2="0.137424" y2="0.003193" />
      <line x1="0.137424" y1="0.003193" x2="0.137413" y2="0.003207" />
      <line x1="0.137413" y1="-0.004393" x2="0.137413" y2="0.003207" />
      <line x1="0.137437" y1="0.037978" x2="0.188437" y2="0.037978" />
      <line x1="0.137424" y1="-0.004407" x2="0.140824" y2="-0.004407" />
      <line x1="0.140813" y1="-0.004393" x2="0.140824" y2="-0.004407" />
      <line x1="0.137413" y1="-0.004393" x2="0.140813" y2="-0.004393" />
      <line x1="0.140824" y1="-0.004407" x2="0.140824" y2="-0.000907" />
      <line x1="0.140824" y1="-0.000907" x2="0.139924" y2="-0.000907" />
      <line x1="0.139924" y1="-0.000907" x2="0.139924" y2="0.003193" />
      <line x1="0.137424" y1="0.003193" x2="0.139924" y2="0.003193" />
      <line x1="0.139924" y1="0.003193" x2="0.139913" y2="0.003207" />
      <line x1="0.137413" y1="0.003207" x2="0.139913" y2="0.003207" />
      <line x1="0.140813" y1="-0.004393" x2="0.140813" y2="-0.000893" />
      <line x1="0.140813" y1="-0.000893" x2="0.139913" y2="-0.000893" />
      <line x1="0.139913" y1="-0.000893" x2="0.139913" y2="0.003207" />
      <path d="M 0.148856,-0.003235 A 0.00295,4.327416455089139e-06 -9.936706569461998e-21 1,0 0.142956,-0.003235" />
      <path d="M 0.142956,-0.003235 A 0.00295,4.327416455089139e-06 -9.936706569461998e-21 0,0 0.148856,-0.003235" />
      <path d="M 0.165856,-0.003235 A 0.0029500000000000077,4.3274164550891506e-06 -9.936706569461998e-21 1,0 0.159956,-0.003235" />
      <path d="M 0.159956,-0.003235 A 0.0029500000000000077,4.3274164550891506e-06 -9.936706569461998e-21 0,0 0.165856,-0.003235" />
      <path d="M 0.182856,-0.003235 A 0.00295,4.327416455089139e-06 -9.936706569461998e-21 1,0 0.176956,-0.003235" />
      <path d="M 0.176956,-0.003235 A 0.00295,4.327416455089139e-06 -9.936706569461998e-21 0,0 0.182856,-0.003235" />
      <path d="M 0.148881,-0.003265 A 0.0029500000000000077,4.3274164550891506e-06 -9.936706569461998e-21 1,0 0.142981,-0.003265" />
      <path d="M 0.142981,-0.003265 A 0.0029500000000000077,4.3274164550891506e-06 -9.936706569461998e-21 0,0 0.148881,-0.003265" />
      <path d="M 0.165881,-0.003265 A 0.00295,4.327416455089139e-06 -9.936706569461998e-21 1,0 0.159981,-0.003265" />
      <path d="M 0.159981,-0.003265 A 0.00295,4.327416455089139e-06 -9.936706569461998e-21 0,0 0.165881,-0.003265" />
      <path d="M 0.182881,-0.003265 A 0.00295,4.327416455089139e-06 -9.936706569461998e-21 1,0 0.176981,-0.003265" />
      <path d="M 0.176981,-0.003265 A 0.00295,4.327416455089139e-06 -9.936706569461998e-21 0,0 0.182881,-0.003265" />
      <line x1="0.140813" y1="-0.000893" x2="0.140824" y2="-0.000907" />
      <line x1="0.139903" y1="-0.000881" x2="0.139913" y2="-0.000893" />
      <line x1="0.139924" y1="-0.000907" x2="0.139934" y2="-0.000919" />
      <line x1="0.139934" y1="-0.000919" x2="0.185934" y2="-0.000919" />
      <line x1="0.185903" y1="-0.000881" x2="0.185934" y2="-0.000919" />
      <line x1="0.139903" y1="-0.000881" x2="0.185903" y2="-0.000881" />
      <path d="M 0.147606,-0.000885 A 0.0017,2.4937654147971307e-06 -9.936706569461998e-21 1,0 0.144206,-0.000885" />
      <path d="M 0.144206,-0.000885 A 0.0017,2.4937654147971307e-06 -9.936706569461998e-21 0,0 0.147606,-0.000885" />
      <path d="M 0.164606,-0.000885 A 0.001700000000000007,2.4937654147971413e-06 -9.936706569461998e-21 1,0 0.161206,-0.000885" />
      <path d="M 0.161206,-0.000885 A 0.001700000000000007,2.4937654147971413e-06 -9.936706569461998e-21 0,0 0.164606,-0.000885" />
      <path d="M 0.181606,-0.000885 A 0.0017,2.4937654147971307e-06 -9.936706569461998e-21 1,0 0.178206,-0.000885" />
      <path d="M 0.178206,-0.000885 A 0.0017,2.4937654147971307e-06 -9.936706569461998e-21 0,0 0.181606,-0.000885" />
      <path d="M 0.147631,-0.000915 A 0.001700000000000007,2.4937654147971413e-06 -9.936706569461998e-21 1,0 0.144231,-0.000915" />
      <path d="M 0.144231,-0.000915 A 0.001700000000000007,2.4937654147971413e-06 -9.936706569461998e-21 0,0 0.147631,-0.000915" />
      <path d="M 0.164631,-0.000915 A 0.0017,2.4937654147971307e-06 -9.936706569461998e-21 1,0 0.161231,-0.000915" />
      <path d="M 0.161231,-0.000915 A 0.0017,2.4937654147971307e-06 -9.936706569461998e-21 0,0 0.164631,-0.000915" />
      <path d="M 0.181631,-0.000915 A 0.0017,2.4937654147971307e-06 -9.936706569461998e-21 1,0 0.178231,-0.000915" />
      <path d="M 0.178231,-0.000915 A 0.0017,2.4937654147971307e-06 -9.936706569461998e-21 0,0 0.181631,-0.000915" />
      <line x1="0.139903" y1="0.035519" x2="0.139934" y2="0.035481" />
      <line x1="0.139934" y1="-0.000919" x2="0.139934" y2="0.035481" />
      <line x1="0.139903" y1="-0.000881" x2="0.139903" y2="0.035519" />
      <path d="M 0.147606,-0.003235 A 0.0017,2.4937654147971307e-06 -9.936706569461998e-21 1,0 0.144206,-0.003235" />
      <path d="M 0.144206,-0.003235 A 0.0017,2.4937654147971307e-06 -9.936706569461998e-21 0,0 0.147606,-0.003235" />
      <path d="M 0.164606,-0.003235 A 0.001700000000000007,2.4937654147971413e-06 -9.936706569461998e-21 1,0 0.161206,-0.003235" />
      <path d="M 0.161206,-0.003235 A 0.001700000000000007,2.4937654147971413e-06 -9.936706569461998e-21 0,0 0.164606,-0.003235" />
      <path d="M 0.181606,-0.003235 A 0.0017,2.4937654147971307e-06 -9.936706569461998e-21 1,0 0.178206,-0.003235" />
      <path d="M 0.178206,-0.003235 A 0.0017,2.4937654147971307e-06 -9.936706569461998e-21 0,0 0.181606,-0.003235" />
      <path d="M 0.147631,-0.003265 A 0.001700000000000007,2.4937654147971413e-06 -9.936706569461998e-21 1,0 0.144231,-0.003265" />
      <path d="M 0.144231,-0.003265 A 0.001700000000000007,2.4937654147971413e-06 -9.936706569461998e-21 0,0 0.147631,-0.003265" />
      <path d="M 0.164631,-0.003265 A 0.0017,2.4937654147971307e-06 -9.936706569461998e-21 1,0 0.161231,-0.003265" />
      <path d="M 0.161231,-0.003265 A 0.0017,2.4937654147971307e-06 -9.936706569461998e-21 0,0 0.164631,-0.003265" />
      <path d="M 0.181631,-0.003265 A 0.0017,2.4937654147971307e-06 -9.936706569461998e-21 1,0 0.178231,-0.003265" />
      <path d="M 0.178231,-0.003265 A 0.0017,2.4937654147971307e-06 -9.936706569461998e-21 0,0 0.181631,-0.003265" />
      <line x1="0.185934" y1="-0.000919" x2="0.185934" y2="0.035481" />
      <line x1="0.139934" y1="0.035481" x2="0.185934" y2="0.035481" />
      <line x1="0.185903" y1="-0.000881" x2="0.185903" y2="0.035519" />
      <line x1="0.185903" y1="0.035519" x2="0.185934" y2="0.035481" />
      <line x1="0.139903" y1="0.035519" x2="0.185903" y2="0.035519" />
      <line x1="0.148856" y1="-0.005735" x2="0.148856" y2="-0.003235" />
      <line x1="0.142956" y1="-0.005735" x2="0.142956" y2="-0.003235" />
      <line x1="0.165856" y1="-0.005735" x2="0.165856" y2="-0.003235" />
      <line x1="0.159956" y1="-0.005735" x2="0.159956" y2="-0.003235" />
      <line x1="0.182856" y1="-0.005735" x2="0.182856" y2="-0.003235" />
      <line x1="0.176956" y1="-0.005735" x2="0.176956" y2="-0.003235" />
      <line x1="0.148881" y1="-0.005765" x2="0.148881" y2="-0.003265" />
      <line x1="0.142981" y1="-0.005765" x2="0.142981" y2="-0.003265" />
      <line x1="0.165881" y1="-0.005765" x2="0.165881" y2="-0.003265" />
      <line x1="0.159981" y1="-0.005765" x2="0.159981" y2="-0.003265" />
      <line x1="0.182881" y1="-0.005765" x2="0.182881" y2="-0.003265" />
      <line x1="0.176981" y1="-0.005765" x2="0.176981" y2="-0.003265" />
      <line x1="0.147606" y1="-0.003235" x2="0.147606" y2="-0.000885" />
      <line x1="0.144206" y1="-0.003235" x2="0.144206" y2="-0.000885" />
      <line x1="0.164606" y1="-0.003235" x2="0.164606" y2="-0.000885" />
      <line x1="0.161206" y1="-0.003235" x2="0.161206" y2="-0.000885" />
      <line x1="0.181606" y1="-0.003235" x2="0.181606" y2="-0.000885" />
      <line x1="0.178206" y1="-0.003235" x2="0.178206" y2="-0.000885" />
      <line x1="0.147631" y1="-0.003265" x2="0.147631" y2="-0.000915" />
      <line x1="0.144231" y1="-0.003265" x2="0.144231" y2="-0.000915" />
      <line x1="0.164631" y1="-0.003265" x2="0.164631" y2="-0.000915" />
      <line x1="0.161231" y1="-0.003265" x2="0.161231" y2="-0.000915" />
      <line x1="0.181631" y1="-0.003265" x2="0.181631" y2="-0.000915" />
      <line x1="0.178231" y1="-0.003265" x2="0.178231" y2="-0.000915" />
    </g>
  </g>
  <text x="0.030350" y="-0.043697" text-anchor="middle" font-family="'Input Sans Narrow', 'DejaVu Sans', Arial, sans-serif" font-size="0.002500" font-weight="bold" fill="#333">A-A</text>
  <text x="0.030350" y="-0.040197" text-anchor="middle" font-family="'Input Sans Narrow', 'DejaVu Sans', Arial, sans-serif" font-size="0.001800" fill="#888">shaft_face</text>
  <line x1="0.000000" y1="0.016000" x2="0.000000" y2="0.019000" stroke="#5C7080" stroke-width="0.000140" stroke-opacity="0.5"/>
  <line x1="0.060700" y1="0.016000" x2="0.060700" y2="0.019000" stroke="#5C7080" stroke-width="0.000140" stroke-opacity="0.5"/>
  <line x1="0.000000" y1="0.017400" x2="0.000000" y2="0.019000" stroke="#5C7080" stroke-width="0.000200"/>
  <line x1="0.060700" y1="0.017400" x2="0.060700" y2="0.019000" stroke="#5C7080" stroke-width="0.000200"/>
  <line x1="0.000000" y1="0.018200" x2="0.060700" y2="0.018200" stroke="#5C7080" stroke-width="0.000200"/>
  <polygon points="0.000000,0.018200 0.001500,0.017600 0.001500,0.018800" fill="#5C7080"/>
  <polygon points="0.060700,0.018200 0.059200,0.017600 0.059200,0.018800" fill="#5C7080"/>
  <text x="0.030350" y="0.017000" text-anchor="middle" font-family="'Input Sans Narrow', 'DejaVu Sans', Arial, sans-serif" font-size="0.001600" fill="#5C7080">60.7</text>
  <line x1="0.061500" y1="-0.015200" x2="0.064500" y2="-0.015200" stroke="#5C7080" stroke-width="0.000140" stroke-opacity="0.5"/>
  <line x1="0.061500" y1="0.015200" x2="0.064500" y2="0.015200" stroke="#5C7080" stroke-width="0.000140" stroke-opacity="0.5"/>
  <line x1="0.062900" y1="-0.015200" x2="0.064500" y2="-0.015200" stroke="#5C7080" stroke-width="0.000200"/>
  <line x1="0.062900" y1="0.015200" x2="0.064500" y2="0.015200" stroke="#5C7080" stroke-width="0.000200"/>
  <line x1="0.063700" y1="-0.015200" x2="0.063700" y2="0.015200" stroke="#5C7080" stroke-width="0.000200"/>
  <polygon points="0.063700,-0.015200 0.063100,-0.013700 0.064300,-0.013700" fill="#5C7080"/>
  <polygon points="0.063700,0.015200 0.063100,0.013700 0.064300,0.013700" fill="#5C7080"/>
  <text x="0.065200" y="-0.000000" text-anchor="middle" dominant-baseline="central" font-family="'Input Sans Narrow', 'DejaVu Sans', Arial, sans-serif" font-size="0.001600" fill="#5C7080" transform="rotate(-90 0.065200 -0.000000)">30.4</text>
  <text x="0.099050" y="-0.043697" text-anchor="middle" font-family="'Input Sans Narrow', 'DejaVu Sans', Arial, sans-serif" font-size="0.002500" font-weight="bold" fill="#333">B-B</text>
  <text x="0.099050" y="-0.040197" text-anchor="middle" font-family="'Input Sans Narrow', 'DejaVu Sans', Arial, sans-serif" font-size="0.001800" fill="#888">mid_body</text>
  <text x="0.167759" y="-0.043697" text-anchor="middle" font-family="'Input Sans Narrow', 'DejaVu Sans', Arial, sans-serif" font-size="0.002500" font-weight="bold" fill="#333">side_XZ</text>
  <line x1="0.137400" y1="0.019200" x2="0.137400" y2="0.022200" stroke="#5C7080" stroke-width="0.000140" stroke-opacity="0.5"/>
  <line x1="0.198119" y1="0.019200" x2="0.198119" y2="0.022200" stroke="#5C7080" stroke-width="0.000140" stroke-opacity="0.5"/>
  <line x1="0.137400" y1="0.020600" x2="0.137400" y2="0.022200" stroke="#5C7080" stroke-width="0.000200"/>
  <line x1="0.198119" y1="0.020600" x2="0.198119" y2="0.022200" stroke="#5C7080" stroke-width="0.000200"/>
  <line x1="0.137400" y1="0.021400" x2="0.198119" y2="0.021400" stroke="#5C7080" stroke-width="0.000200"/>
  <polygon points="0.137400,0.021400 0.138900,0.020800 0.138900,0.022000" fill="#5C7080"/>
  <polygon points="0.198119,0.021400 0.196619,0.020800 0.196619,0.022000" fill="#5C7080"/>
  <text x="0.167759" y="0.020200" text-anchor="middle" font-family="'Input Sans Narrow', 'DejaVu Sans', Arial, sans-serif" font-size="0.001600" fill="#5C7080">60.7</text>
  <line x1="0.198919" y1="-0.038022" x2="0.201919" y2="-0.038022" stroke="#5C7080" stroke-width="0.000140" stroke-opacity="0.5"/>
  <line x1="0.198919" y1="0.018400" x2="0.201919" y2="0.018400" stroke="#5C7080" stroke-width="0.000140" stroke-opacity="0.5"/>
  <line x1="0.200319" y1="-0.038022" x2="0.201919" y2="-0.038022" stroke="#5C7080" stroke-width="0.000200"/>
  <line x1="0.200319" y1="0.018400" x2="0.201919" y2="0.018400" stroke="#5C7080" stroke-width="0.000200"/>
  <line x1="0.201119" y1="-0.038022" x2="0.201119" y2="0.018400" stroke="#5C7080" stroke-width="0.000200"/>
  <polygon points="0.201119,-0.038022 0.200519,-0.036522 0.201719,-0.036522" fill="#5C7080"/>
  <polygon points="0.201119,0.018400 0.200519,0.016900 0.201719,0.016900" fill="#5C7080"/>
  <text x="0.202619" y="-0.009811" text-anchor="middle" dominant-baseline="central" font-family="'Input Sans Narrow', 'DejaVu Sans', Arial, sans-serif" font-size="0.001600" fill="#5C7080" transform="rotate(-90 0.202619 -0.009811)">56.4</text>
  <line x1="0.134400" y1="-0.016300" x2="0.201119" y2="-0.016300" stroke="#555" stroke-width="0.000250" stroke-dasharray="0.002500,0.000800,0.000500,0.000800"/>
  <text x="0.132900" y="-0.015700" text-anchor="end" font-family="'Input Sans Narrow', 'DejaVu Sans', Arial, sans-serif" font-size="0.002000" font-weight="bold" fill="#555">A</text>
  <text x="0.202619" y="-0.015700" text-anchor="start" font-family="'Input Sans Narrow', 'DejaVu Sans', Arial, sans-serif" font-size="0.002000" font-weight="bold" fill="#555">A</text>
  <line x1="0.134400" y1="-0.000000" x2="0.201119" y2="-0.000000" stroke="#555" stroke-width="0.000250" stroke-dasharray="0.002500,0.000800,0.000500,0.000800"/>
  <text x="0.132900" y="0.000600" text-anchor="end" font-family="'Input Sans Narrow', 'DejaVu Sans', Arial, sans-serif" font-size="0.002000" font-weight="bold" fill="#555">B</text>
  <text x="0.202619" y="0.000600" text-anchor="start" font-family="'Input Sans Narrow', 'DejaVu Sans', Arial, sans-serif" font-size="0.002000" font-weight="bold" fill="#555">B</text>
  <text x="-0.001175" y="0.026576" font-family="'Input Sans Narrow', 'DejaVu Sans', Arial, sans-serif" font-size="0.003500" font-weight="bold" fill="#222">joint_wrist_roll</text>
  <line x1="-0.001175" y1="0.030576" x2="0.008825" y2="0.030576" stroke="#333" stroke-width="0.000350"/>
  <line x1="-0.001175" y1="0.029576" x2="-0.001175" y2="0.031576" stroke="#333" stroke-width="0.000250"/>
  <line x1="0.008825" y1="0.029576" x2="0.008825" y2="0.031576" stroke="#333" stroke-width="0.000250"/>
  <text x="0.010325" y="0.031276" font-family="'Input Sans Narrow', 'DejaVu Sans', Arial, sans-serif" font-size="0.001800" fill="#888">10 mm</text>
  <rect x="0.028825" y="0.024076" width="0.004000" height="0.002500" fill="url(#hatch_servo)" stroke="rgb(60,60,60)" stroke-width="0.000300"/>
  <text x="0.034325" y="0.026076" font-family="'Input Sans Narrow', 'DejaVu Sans', Arial, sans-serif" font-size="0.001800" fill="rgb(60,60,60)">servo</text>
  <rect x="0.028825" y="0.027576" width="0.004000" height="0.002500" fill="url(#hatch_bracket)" stroke="rgb(50,120,190)" stroke-width="0.000300"/>
  <text x="0.034325" y="0.029576" font-family="'Input Sans Narrow', 'DejaVu Sans', Arial, sans-serif" font-size="0.001800" fill="rgb(50,120,190)">bracket</text>
</svg>