<?xml version='1.0' encoding='utf-8'?>
<svg width="169.2mm" height="49.8mm" viewBox="-0.0031 -0.0246 0.1692 0.0498" version="1.1" xmlns="http://www.w3.org/2000/svg">
  <g transform="scale(1,-1)" stroke-linecap="round">
    <g fill="none" stroke="rgb(60,60,60)" stroke-width="0.0002" id="servo">
      <line x1="0.0028" y1="-0.0124" x2="0.0028" y2="0.0124" />
      <line x1="0.0028" y1="-0.0124" x2="0.0482" y2="-0.0124" />
      <line x1="0.0482" y1="-0.0124" x2="0.0482" y2="0.0124" />
      <line x1="0.0028" y1="0.0124" x2="0.0482" y2="0.0124" />
      <line x1="0.0588" y1="0.0124" x2="0.1042" y2="0.0124" />
      <line x1="0.1042" y1="0.0124" x2="0.1042" y2="-0.0124" />
      <line x1="0.0588" y1="-0.0124" x2="0.1042" y2="-0.0124" />
      <line x1="0.0588" y1="0.0124" x2="0.0588" y2="-0.0124" />
      <line x1="0.154" y1="0.0159" x2="0.154" y2="0.0187" />
      <line x1="0.154" y1="0.0159" x2="0.1602" y2="0.0159" />
      <line x1="0.1602" y1="0.0159" x2="0.1602" y2="-0.0159" />
      <line x1="0.1148" y1="-0.0159" x2="0.1602" y2="-0.0159" />
      <line x1="0.1148" y1="0.0159" x2="0.1148" y2="-0.0159" />
      <line x1="0.1148" y1="0.0159" x2="0.146" y2="0.0159" />
      <line x1="0.146" y1="0.0159" x2="0.146" y2="0.0187" />
      <line x1="0.146" y1="0.0187" x2="0.154" y2="0.0187" />
    </g>
    <g fill="rgb(60,60,60)" fill-opacity="0.15" stroke="rgb(60,60,60)" stroke-opacity="0.0" stroke-width="0.0" id="servo_fill">
      <path d="M 0.0028,0.0124 L 0.0028,-0.0124 L 0.0482,-0.0124 L 0.0482,0.0124 L 0.0028,0.0124" />
      <path d="M 0.1042,0.0124 L 0.0588,0.0124 L 0.0588,-0.0124 L 0.1042,-0.0124 L 0.1042,0.0124" />
      <path d="M 0.154,0.0159 L 0.154,0.0187 L 0.146,0.0187 L 0.146,0.0159 L 0.1148,0.0159 L 0.1148,-0.0159 L 0.1602,-0.0159 L 0.1602,0.0159 L 0.154,0.0159" />
    </g>
    <g fill="none" stroke="rgb(50,120,190)" stroke-width="0.0002" id="bracket">
      <line x1="0.0" y1="0.0152" x2="0.051" y2="0.0152" />
      <line x1="0.051" y1="0.0152" x2="0.051" y2="-0.0152" />
      <line x1="0.0" y1="-0.0152" x2="0.051" y2="-0.0152" />
      <line x1="0.0" y1="0.0152" x2="0.0" y2="-0.0152" />
      <line x1="0.0025" y1="0.0127" x2="0.0025" y2="-0.0127" />
      <line x1="0.0025" y1="-0.0127" x2="0.0485" y2="-0.0127" />
      <line x1="0.0485" y1="0.0127" x2="0.0485" y2="-0.0127" />
      <line x1="0.0025" y1="0.0127" x2="0.0485" y2="0.0127" />
      <line x1="0.056" y1="0.0152" x2="0.107" y2="0.0152" />
      <line x1="0.107" y1="0.0152" x2="0.107" y2="-0.0152" />
      <line x1="0.056" y1="-0.0152" x2="0.107" y2="-0.0152" />
      <line x1="0.056" y1="0.0152" x2="0.056" y2="-0.0152" />
      <line x1="0.0585" y1="0.0127" x2="0.0585" y2="-0.0127" />
      <line x1="0.0585" y1="-0.0127" x2="0.1045" y2="-0.0127" />
      <line x1="0.1045" y1="0.0127" x2="0.1045" y2="-0.0127" />
      <line x1="0.0585" y1="0.0127" x2="0.1045" y2="0.0127" />
      <line x1="0.112" y1="0.0215" x2="0.163" y2="0.0215" />
      <line x1="0.163" y1="0.0215" x2="0.163" y2="-0.0221" />
      <line x1="0.112" y1="-0.0221" x2="0.163" y2="-0.0221" />
      <line x1="0.112" y1="-0.0189" x2="0.112" y2="-0.0221" />
      <line x1="0.112" y1="-0.0189" x2="0.1158" y2="-0.0189" />
      <line x1="0.1158" y1="-0.0162" x2="0.1158" y2="-0.0189" />
      <line x1="0.1158" y1="-0.0162" x2="0.1605" y2="-0.0162" />
      <line x1="0.1605" y1="0.0194" x2="0.1605" y2="-0.0162" />
      <line x1="0.1145" y1="0.0194" x2="0.1605" y2="0.0194" />
      <line x1="0.1145" y1="0.0194" x2="0.1145" y2="-0.0129" />
      <line x1="0.112" y1="-0.0129" x2="0.1145" y2="-0.0129" />
      <line x1="0.112" y1="0.0215" x2="0.112" y2="-0.0129" />
    </g>
    <g fill="rgb(50,120,190)" fill-opacity="0.15" stroke="rgb(50,120,190)" stroke-opacity="0.0" stroke-width="0.0" id="bracket_fill">
      <path d="M 0.051,0.0152 L 0.0,0.0152 L 0.0,-0.0152 L 0.051,-0.0152 L 0.051,0.0152 M 0.0025,-0.0127 L 0.0025,0.0127 L 0.0485,0.0127 L 0.0485,-0.0127 L 0.0025,-0.0127" />
      <path d="M 0.107,0.0152 L 0.056,0.0152 L 0.056,-0.0152 L 0.107,-0.0152 L 0.107,0.0152 M 0.0585,-0.0127 L 0.0585,0.0127 L 0.1045,0.0127 L 0.1045,-0.0127 L 0.0585,-0.0127" />
      <path d="M 0.163,0.0215 L 0.112,0.0215 L 0.112,-0.0129 L 0.1145,-0.0129 L 0.1145,0.0194 L 0.1605,0.0194 L 0.1605,-0.0162 L 0.1158,-0.0162 L 0.1158,-0.0189 L 0.112,-0.0189 L 0.112,-0.0221 L 0.163,-0.0221 L 0.163,0.0215" />
    </g>
  </g>
</svg>