<?xml version='1.0' encoding='utf-8'?>
<svg width="185.84mm" height="70.96mm" viewBox="-0.003175 -0.028675 0.185841 0.070959" version="1.1" xmlns="http://www.w3.org/2000/svg">
  <defs>
    <pattern id="hatch_servo" width="0.0012" height="0.0012" patternUnits="userSpaceOnUse" patternTransform="rotate(45)">
      <line x1="0" y1="0" x2="0" y2="0.0012" stroke="rgb(60,60,60)" stroke-width="0.0001" stroke-opacity="0.6"/>
    </pattern>
    <pattern id="hatch_bracket" width="0.0012" height="0.0012" patternUnits="userSpaceOnUse" patternTransform="rotate(75)">
      <line x1="0" y1="0" x2="0" y2="0.0012" stroke="rgb(50,120,190)" stroke-width="0.0001" stroke-opacity="0.6"/>
    </pattern>
  </defs>
  <g transform="scale(1,-1)" stroke-linecap="round">
    <g fill="none" stroke="rgb(60,60,60)" stroke-width="0.00035" id="servo">
      <path d="M 0.007215,0.0124 A 0.004,0.004 180.0 0,1 0.003215,0.0084" />
      <line x1="0.007215" y1="0.0124" x2="0.044615" y2="0.0124" />
      <path d="M 0.048615,0.0084 A 0.004,0.004 0.0 0,1 0.044615,0.0124" />
      <line x1="0.048615" y1="0.0084" x2="0.048615" y2="-0.0084" />
      <path d="M 0.044615,-0.0124 A 0.004,0.004 0.0 0,1 0.048615,-0.0084" />
      <line x1="0.007215" y1="-0.0124" x2="0.044615" y2="-0.0124" />
      <path d="M 0.003215,-0.0084 A 0.004,0.004 180.0 0,1 0.007215,-0.0124" />
      <line x1="0.003215" y1="0.0084" x2="0.003215" y2="-0.0084" />
      <path d="M 0.067045,0.0124 A 0.004,0.004 180.0 0,1 0.063045,0.0084" />
      <line x1="0.067045" y1="0.0124" x2="0.104445" y2="0.0124" />
      <path d="M 0.108445,0.0084 A 0.004,0.004 0.0 0,1 0.104445,0.0124" />
      <line x1="0.108445" y1="0.0084" x2="0.108445" y2="-0.0084" />
      <path d="M 0.104445,-0.0124 A 0.004,0.004 0.0 0,1 0.108445,-0.0084" />
      <line x1="0.067045" y1="-0.0124" x2="0.104445" y2="-0.0124" />
      <path d="M 0.063045,-0.0084 A 0.004,0.004 180.0 0,1 0.067045,-0.0124" />
      <line x1="0.063045" y1="0.0084" x2="0.063045" y2="-0.0084" />
      <line x1="0.122876" y1="-0.0163" x2="0.122876" y2="0.0163" />
      <path d="M 0.122876,0.0163 A 0.004,6.859649272376026e-08 1.636918068961253e-25 0,0 0.126876,0.0163" />
      <path d="M 0.122876,-0.0163 A 0.004,6.859649272376026e-08 1.636918068961253e-25 0,0 0.124876,-0.0163" />
      <line x1="0.126876" y1="-0.0163" x2="0.126876" y2="0.0163" />
      <path d="M 0.168276,-0.0163 A 0.004,6.859649272376026e-08 -180.0 0,1 0.165276,-0.0163" />
      <line x1="0.126876" y1="0.0163" x2="0.164276" y2="0.0163" />
      <path d="M 0.168276,0.0163 A 0.004,6.859649272376026e-08 -180.0 0,1 0.164276,0.0163" />
      <line x1="0.164276" y1="0.0163" x2="0.166076" y2="0.0163" />
      <line x1="0.124876" y1="-0.0163" x2="0.126876" y2="-0.0163" />
      <line x1="0.164276" y1="-0.0163" x2="0.164276" y2="0.0163" />
      <line x1="0.164276" y1="-0.0163" x2="0.165276" y2="-0.0163" />
      <line x1="0.165276" y1="-0.0184" x2="0.165276" y2="-0.0163" />
      <line x1="0.124876" y1="-0.0184" x2="0.165276" y2="-0.0184" />
      <line x1="0.124876" y1="-0.0184" x2="0.124876" y2="-0.0163" />
      <line x1="0.124875" y1="-0.0184" x2="0.124875" y2="-0.0163" />
      <line x1="0.124875" y1="-0.0184" x2="0.165275" y2="-0.0184" />
      <line x1="0.168276" y1="-0.0163" x2="0.168276" y2="0.0163" />
      <path d="M 0.148076,0.018 A 0.002,3.429824636188013e-08 1.636918068961253e-25 0,0 0.150076,0.018" />
      <line x1="0.150076" y1="0.018" x2="0.166076" y2="0.018" />
      <path d="M 0.168076,0.018 A 0.002,3.429824636188013e-08 -180.0 0,1 0.166076,0.018" />
      <path d="M 0.130176,-0.0184 A 0.0016,2.7438597089504108e-08 1.2167982161475265e-24 0,0 0.126976,-0.0184" />
      <path d="M 0.126976,-0.0184 A 0.0016,2.7438597089504108e-08 1.2167982161475265e-24 1,0 0.130176,-0.0184" />
      <path d="M 0.147176,-0.0184 A 0.0016000000000000044,2.743859708950418e-08 1.2167982161475265e-24 0,0 0.143976,-0.0184" />
      <path d="M 0.143976,-0.0184 A 0.0016000000000000044,2.743859708950418e-08 1.2167982161475265e-24 1,0 0.147176,-0.0184" />
      <path d="M 0.164176,-0.0184 A 0.0016,2.7438597089504108e-08 1.2167982161475265e-24 0,0 0.160976,-0.0184" />
      <path d="M 0.160976,-0.0184 A 0.0016,2.7438597089504108e-08 1.2167982161475265e-24 1,0 0.164176,-0.0184" />
      <path d="M 0.130175,-0.0184 A 0.0016000000000000044,2.743859708950418e-08 1.2167982161475265e-24 0,0 0.126975,-0.0184" />
      <path d="M 0.126975,-0.0184 A 0.0016000000000000044,2.743859708950418e-08 1.2167982161475265e-24 1,0 0.130175,-0.0184" />
      <path d="M 0.147175,-0.0184 A 0.0016000000000000044,2.743859708950418e-08 1.2167982161475265e-24 0,0 0.143975,-0.0184" />
      <path d="M 0.143975,-0.0184 A 0.0016000000000000044,2.743859708950418e-08 1.2167982161475265e-24 1,0 0.147175,-0.0184" />
      <path d="M 0.164175,-0.0184 A 0.0016,2.7438597089504108e-08 1.2167982161475265e-24 0,0 0.160975,-0.0184" />
      <path d="M 0.160975,-0.0184 A 0.0016,2.7438597089504108e-08 1.2167982161475265e-24 1,0 0.164175,-0.0184" />
      <path d="M 0.153576,0.0195 A 0.004500000000000004,7.717105431423036e-08 1.2167982161475265e-24 0,0 0.162576,0.0195" />
      <line x1="0.148076" y1="0.0163" x2="0.148076" y2="0.018" />
      <line x1="0.150076" y1="0.0163" x2="0.150076" y2="0.018" />
      <line x1="0.166076" y1="0.0163" x2="0.166076" y2="0.018" />
      <line x1="0.168076" y1="0.0163" x2="0.168076" y2="0.018" />
      <line x1="0.162576" y1="0.018" x2="0.162576" y2="0.0195" />
      <line x1="0.153576" y1="0.018" x2="0.153576" y2="0.0195" />
    </g>
    <g fill="url(#hatch_servo)" stroke="none" stroke-width="0" id="servo_fill">
      <path d="M 0.007215,0.0124 A 0.004,0.004 180.0 0,1 0.003215,0.0084 L 0.003215,-0.0084 A 0.004,0.004 180.0 0,1 0.007215,-0.0124 L 0.044615,-0.0124 A 0.004,0.004 0.0 0,1 0.048615,-0.0084 L 0.048615,0.0084 A 0.004,0.004 0.0 0,1 0.044615,0.0124 L 0.007215,0.0124" />
      <path d="M 0.067045,0.0124 A 0.004,0.004 180.0 0,1 0.063045,0.0084 L 0.063045,-0.0084 A 0.004,0.004 180.0 0,1 0.067045,-0.0124 L 0.104445,-0.0124 A 0.004,0.004 0.0 0,1 0.108445,-0.0084 L 0.108445,0.0084 A 0.004,0.004 0.0 0,1 0.104445,0.0124 L 0.067045,0.0124" />
    </g>
    <g fill="none" stroke="rgb(60,60,60)" stroke-opacity="0.4" stroke-width="0.00015" id="servo_hidden" stroke-dasharray="0.0018 0.00045">
      <line x1="0.122875" y1="0.0163" x2="0.122875" y2="-0.0163" />
      <path d="M 0.124876,-0.0163 A 0.004,6.859649272376026e-08 1.636918068961253e-25 0,0 0.126876,-0.0163" />
      <line x1="0.124876" y1="-0.0163" x2="0.165276" y2="-0.0163" />
      <path d="M 0.168275,-0.0163 A 0.004,6.859649272376026e-08 1.636918068961253e-25 0,0 0.165275,-0.0163" />
      <line x1="0.124876" y1="-0.0163" x2="0.165275" y2="-0.0163" />
      <path d="M 0.122875,-0.0163 A 0.004,6.859649272376026e-08 -180.0 0,1 0.124875,-0.0163" />
      <path d="M 0.161076,-0.0163 A 0.0030000000000000027,5.144736954282024e-08 1.2167982161475265e-24 0,0 0.155076,-0.0163" />
      <path d="M 0.155076,-0.0163 A 0.0030000000000000027,5.144736954282024e-08 1.2167982161475265e-24 1,0 0.161076,-0.0163" />
      <line x1="0.134526" y1="-0.0163" x2="0.140626" y2="-0.0163" />
      <line x1="0.134525" y1="-0.0163" x2="0.140625" y2="-0.0163" />
      <line x1="0.126875" y1="0.0163" x2="0.126875" y2="-0.0163" />
      <path d="M 0.122875,0.0163 A 0.004,6.859649272376026e-08 -180.0 0,1 0.126875,0.0163" />
      <path d="M 0.124875,-0.0163 A 0.004,6.859649272376026e-08 -180.0 0,1 0.126875,-0.0163" />
      <line x1="0.126875" y1="0.0163" x2="0.164275" y2="0.0163" />
      <path d="M 0.168275,0.0163 A 0.004,6.859649272376026e-08 1.636918068961253e-25 0,0 0.164275,0.0163" />
      <path d="M 0.148076,0.0163 A 0.002,3.429824636188013e-08 1.636918068961253e-25 0,0 0.150076,0.0163" />
      <line x1="0.150076" y1="0.0163" x2="0.164276" y2="0.0163" />
      <path d="M 0.168076,0.0163 A 0.002,3.429824636188013e-08 -180.0 0,1 0.166076,0.0163" />
      <path d="M 0.168075,0.0163 A 0.002,3.429824636188013e-08 1.636918068961253e-25 0,0 0.166075,0.0163" />
      <line x1="0.150075" y1="0.0163" x2="0.166075" y2="0.0163" />
      <path d="M 0.148075,0.0163 A 0.002,3.429824636188013e-08 -180.0 0,1 0.150075,0.0163" />
      <line x1="0.124876" y1="-0.0184" x2="0.124876" y2="-0.0163" />
      <line x1="0.124875" y1="-0.0184" x2="0.124875" y2="-0.0163" />
      <line x1="0.124876" y1="-0.0184" x2="0.165276" y2="-0.0184" />
      <line x1="0.165276" y1="-0.0184" x2="0.165276" y2="-0.0163" />
      <line x1="0.165275" y1="-0.0184" x2="0.165275" y2="-0.0163" />
      <line x1="0.165275" y1="-0.0184" x2="0.165275" y2="-0.0163" />
      <path d="M 0.165276,-0.0163 A 0.004,6.859649272376026e-08 -180.0 0,1 0.164276,-0.0163" />
      <line x1="0.164275" y1="0.0163" x2="0.164275" y2="-0.0163" />
      <line x1="0.168275" y1="0.0163" x2="0.168275" y2="-0.0163" />
      <path d="M 0.165275,-0.0163 A 0.004,6.859649272376026e-08 1.636918068961253e-25 0,0 0.164275,-0.0163" />
      <path d="M 0.161076,-0.0176 A 0.0030000000000000027,5.144736954282024e-08 1.2167982161475265e-24 0,0 0.155076,-0.0176" />
      <path d="M 0.155076,-0.0176 A 0.0030000000000000027,5.144736954282024e-08 1.2167982161475265e-24 1,0 0.161076,-0.0176" />
      <line x1="0.134526" y1="-0.0163" x2="0.134526" y2="-0.0181" />
      <line x1="0.134525" y1="-0.0163" x2="0.134525" y2="-0.0181" />
      <line x1="0.140626" y1="-0.0163" x2="0.140626" y2="-0.0181" />
      <line x1="0.140626" y1="-0.0181" x2="0.134526" y2="-0.0181" />
      <line x1="0.140625" y1="-0.0163" x2="0.140625" y2="-0.0181" />
      <line x1="0.140625" y1="-0.0181" x2="0.134525" y2="-0.0181" />
      <line x1="0.164275" y1="-0.0163" x2="0.165275" y2="-0.0163" />
      <line x1="0.124875" y1="-0.0184" x2="0.165275" y2="-0.0184" />
      <line x1="0.124875" y1="-0.0163" x2="0.126875" y2="-0.0163" />
      <path d="M 0.168075,0.018 A 0.002,3.429824636188013e-08 1.636918068961253e-25 0,0 0.166075,0.018" />
      <line x1="0.150075" y1="0.018" x2="0.166075" y2="0.018" />
      <path d="M 0.148075,0.018 A 0.002,3.429824636188013e-08 -180.0 0,1 0.150075,0.018" />
      <line x1="0.139926" y1="-0.0181" x2="0.135226" y2="-0.0181" />
      <line x1="0.139926" y1="-0.0181" x2="0.135226" y2="-0.0181" />
      <line x1="0.139926" y1="-0.0181" x2="0.135226" y2="-0.0181" />
      <line x1="0.139926" y1="-0.0181" x2="0.135226" y2="-0.0181" />
      <line x1="0.139926" y1="-0.0181" x2="0.135226" y2="-0.0181" />
      <line x1="0.139926" y1="-0.0181" x2="0.135226" y2="-0.0181" />
      <path d="M 0.162576,0.018 A 0.004500000000000004,7.717105431423036e-08 1.2167982161475265e-24 0,0 0.153576,0.018" />
      <path d="M 0.153576,0.018 A 0.004500000000000004,7.717105431423036e-08 1.2167982161475265e-24 0,0 0.162576,0.018" />
      <path d="M 0.130176,-0.0084 A 0.0016,2.7438597089504108e-08 1.2167982161475265e-24 0,0 0.126976,-0.0084" />
      <path d="M 0.126976,-0.0084 A 0.0016,2.7438597089504108e-08 1.2167982161475265e-24 1,0 0.130176,-0.0084" />
      <path d="M 0.147176,-0.0084 A 0.0016000000000000044,2.743859708950418e-08 1.2167982161475265e-24 0,0 0.143976,-0.0084" />
      <path d="M 0.143976,-0.0084 A 0.0016000000000000044,2.743859708950418e-08 1.2167982161475265e-24 1,0 0.147176,-0.0084" />
      <path d="M 0.164176,-0.0084 A 0.0016,2.7438597089504108e-08 1.2167982161475265e-24 0,0 0.160976,-0.0084" />
      <path d="M 0.160976,-0.0084 A 0.0016,2.7438597089504108e-08 1.2167982161475265e-24 1,0 0.164176,-0.0084" />
      <path d="M 0.130175,-0.0084 A 0.0016000000000000044,2.743859708950418e-08 1.2167982161475265e-24 0,0 0.126975,-0.0084" />
      <path d="M 0.126975,-0.0084 A 0.0016000000000000044,2.743859708950418e-08 1.2167982161475265e-24 1,0 0.130175,-0.0084" />
      <path d="M 0.147175,-0.0084 A 0.0016000000000000044,2.743859708950418e-08 1.2167982161475265e-24 0,0 0.143975,-0.0084" />
      <path d="M 0.143975,-0.0084 A 0.0016000000000000044,2.743859708950418e-08 1.2167982161475265e-24 1,0 0.147175,-0.0084" />
      <path d="M 0.164175,-0.0084 A 0.0016,2.7438597089504108e-08 1.2167982161475265e-24 0,0 0.160975,-0.0084" />
      <path d="M 0.160975,-0.0084 A 0.0016,2.7438597089504108e-08 1.2167982161475265e-24 1,0 0.164175,-0.0084" />
      <line x1="0.139926" y1="-0.0163" x2="0.139926" y2="-0.0181" />
      <line x1="0.139926" y1="-0.0181" x2="0.139926" y2="-0.0163" />
      <line x1="0.135226" y1="-0.0163" x2="0.135226" y2="-0.0181" />
      <line x1="0.135226" y1="-0.0163" x2="0.139926" y2="-0.0163" />
      <line x1="0.135226" y1="-0.0181" x2="0.135226" y2="-0.0163" />
      <line x1="0.139926" y1="-0.0163" x2="0.139926" y2="-0.0181" />
      <line x1="0.139926" y1="-0.0163" x2="0.139926" y2="-0.0181" />
      <line x1="0.135226" y1="-0.0163" x2="0.135226" y2="-0.0181" />
      <line x1="0.135226" y1="-0.0163" x2="0.135226" y2="-0.0181" />
      <line x1="0.139926" y1="-0.0163" x2="0.139926" y2="-0.0181" />
      <line x1="0.135226" y1="-0.0163" x2="0.139926" y2="-0.0163" />
      <line x1="0.139926" y1="-0.0163" x2="0.139926" y2="-0.0181" />
      <line x1="0.135226" y1="-0.0163" x2="0.135226" y2="-0.0181" />
      <line x1="0.135226" y1="-0.0163" x2="0.135226" y2="-0.0181" />
      <path d="M 0.162576,0.0195 A 0.004500000000000004,7.717105431423036e-08 1.2167982161475265e-24 0,0 0.153576,0.0195" />
      <line x1="0.135226" y1="-0.0163" x2="0.139926" y2="-0.0163" />
      <line x1="0.135226" y1="-0.0163" x2="0.139926" y2="-0.0163" />
      <line x1="0.135226" y1="-0.0163" x2="0.139926" y2="-0.0163" />
      <line x1="0.135226" y1="-0.0163" x2="0.139926" y2="-0.0163" />
      <line x1="0.155076" y1="-0.0176" x2="0.155076" y2="-0.0163" />
      <line x1="0.126976" y1="-0.0184" x2="0.126976" y2="-0.0084" />
      <line x1="0.143976" y1="-0.0184" x2="0.143976" y2="-0.0084" />
      <line x1="0.160976" y1="-0.0184" x2="0.160976" y2="-0.0084" />
      <line x1="0.126975" y1="-0.0184" x2="0.126975" y2="-0.0084" />
      <line x1="0.143975" y1="-0.0184" x2="0.143975" y2="-0.0084" />
      <line x1="0.160975" y1="-0.0184" x2="0.160975" y2="-0.0084" />
      <line x1="0.168075" y1="0.0163" x2="0.168075" y2="0.018" />
      <line x1="0.166075" y1="0.0163" x2="0.166075" y2="0.018" />
      <line x1="0.150075" y1="0.0163" x2="0.150075" y2="0.018" />
      <line x1="0.148075" y1="0.0163" x2="0.148075" y2="0.018" />
    </g>
    <g fill="none" stroke="rgb(50,120,190)" stroke-width="0.00035" id="bracket">
      <line x1="0.0" y1="0.015665" x2="0.05183" y2="0.015665" />
      <line x1="0.05183" y1="0.015665" x2="0.05183" y2="-0.015665" />
      <line x1="0.0" y1="-0.015665" x2="0.05183" y2="-0.015665" />
      <line x1="0.0" y1="0.015665" x2="0.0" y2="-0.015665" />
      <line x1="0.003" y1="-0.012665" x2="0.04883" y2="-0.012665" />
      <line x1="0.04883" y1="0.012665" x2="0.04883" y2="-0.012665" />
      <line x1="0.003" y1="0.012665" x2="0.04883" y2="0.012665" />
      <line x1="0.003" y1="0.012665" x2="0.003" y2="-0.012665" />
      <line x1="0.05983" y1="0.015665" x2="0.11166" y2="0.015665" />
      <line x1="0.11166" y1="0.015665" x2="0.11166" y2="-0.015665" />
      <line x1="0.05983" y1="-0.015665" x2="0.11166" y2="-0.015665" />
      <line x1="0.05983" y1="0.015665" x2="0.05983" y2="-0.015665" />
      <line x1="0.06283" y1="-0.012665" x2="0.10866" y2="-0.012665" />
      <line x1="0.10866" y1="0.012665" x2="0.10866" y2="-0.012665" />
      <line x1="0.06283" y1="0.012665" x2="0.10866" y2="0.012665" />
      <line x1="0.06283" y1="0.012665" x2="0.06283" y2="-0.012665" />
      <line x1="0.119661" y1="-0.022109" x2="0.119661" y2="0.018991" />
      <line x1="0.119661" y1="0.018991" x2="0.11966" y2="0.019009" />
      <line x1="0.11966" y1="-0.020296" x2="0.119661" y2="-0.020304" />
      <line x1="0.11966" y1="-0.020296" x2="0.11966" y2="-0.011696" />
      <line x1="0.119661" y1="-0.022109" x2="0.171491" y2="-0.022109" />
      <line x1="0.171491" y1="-0.022109" x2="0.171491" y2="0.018991" />
      <line x1="0.119661" y1="0.018991" x2="0.171491" y2="0.018991" />
      <line x1="0.11966" y1="0.019009" x2="0.17149" y2="0.019009" />
      <line x1="0.171491" y1="0.018991" x2="0.17149" y2="0.019009" />
      <line x1="0.168491" y1="0.018993" x2="0.122661" y2="0.018993" />
      <line x1="0.168491" y1="0.018993" x2="0.16849" y2="0.019007" />
      <line x1="0.16849" y1="0.019007" x2="0.12266" y2="0.019007" />
      <line x1="0.122661" y1="0.018993" x2="0.12266" y2="0.019007" />
      <line x1="0.16849" y1="0.018993" x2="0.16849" y2="0.019007" />
    </g>
    <g fill="url(#hatch_bracket)" stroke="none" stroke-width="0" id="bracket_fill">
      <path d="M 0.05183,0.015665 L 0.0,0.015665 L 0.0,-0.015665 L 0.05183,-0.015665 L 0.05183,0.015665 M 0.04883,-0.012665 L 0.003,-0.012665 L 0.003,0.012665 L 0.04883,0.012665 L 0.04883,-0.012665" />
      <path d="M 0.11166,0.015665 L 0.05983,0.015665 L 0.05983,-0.015665 L 0.11166,-0.015665 L 0.11166,0.015665 M 0.10866,-0.012665 L 0.06283,-0.012665 L 0.06283,0.012665 L 0.10866,0.012665 L 0.10866,-0.012665" />
    </g>
    <g fill="none" stroke="rgb(50,120,190)" stroke-opacity="0.4" stroke-width="0.00015" id="bracket_hidden" stroke-dasharray="0.0018 0.00045">
      <line x1="0.119661" y1="-0.022109" x2="0.11966" y2="-0.022091" />
      <line x1="0.11966" y1="-0.022091" x2="0.11966" y2="0.019009" />
      <line x1="0.11966" y1="-0.011696" x2="0.119661" y2="-0.011704" />
      <line x1="0.119661" y1="-0.020304" x2="0.119661" y2="-0.011704" />
      <line x1="0.11966" y1="-0.022091" x2="0.17149" y2="-0.022091" />
      <line x1="0.171491" y1="-0.022109" x2="0.17149" y2="-0.022091" />
      <path d="M 0.131526,-0.022106 A 0.0029500000000000077,1.6696863183309557e-06 -2.024288426382829e-22 0,1 0.125626,-0.022106" />
      <path d="M 0.125626,-0.022106 A 0.0029500000000000077,1.6696863183309557e-06 -2.024288426382829e-22 0,1 0.131526,-0.022106" />
      <path d="M 0.148526,-0.022106 A 0.00295,1.6696863183309512e-06 -2.024288426382829e-22 0,1 0.142626,-0.022106" />
      <path d="M 0.142626,-0.022106 A 0.00295,1.6696863183309512e-06 -2.024288426382829e-22 0,1 0.148526,-0.022106" />
      <path d="M 0.165526,-0.022106 A 0.0029500000000000077,1.6696863183309557e-06 -2.024288426382829e-22 0,1 0.159626,-0.022106" />
      <path d="M 0.159626,-0.022106 A 0.0029500000000000077,1.6696863183309557e-06 -2.024288426382829e-22 0,1 0.165526,-0.022106" />
      <path d="M 0.131525,-0.022094 A 0.0029500000000000077,1.6696863183309557e-06 -2.024288426382829e-22 0,1 0.125625,-0.022094" />
      <path d="M 0.125625,-0.022094 A 0.0029500000000000077,1.6696863183309557e-06 -2.024288426382829e-22 0,1 0.131525,-0.022094" />
      <path d="M 0.148525,-0.022094 A 0.00295,1.6696863183309512e-06 -2.024288426382829e-22 0,1 0.142625,-0.022094" />
      <path d="M 0.142625,-0.022094 A 0.00295,1.6696863183309512e-06 -2.024288426382829e-22 0,1 0.148525,-0.022094" />
      <path d="M 0.165525,-0.022094 A 0.0029500000000000077,1.6696863183309557e-06 -2.024288426382829e-22 0,1 0.159625,-0.022094" />
      <path d="M 0.159625,-0.022094 A 0.0029500000000000077,1.6696863183309557e-06 -2.024288426382829e-22 0,1 0.165525,-0.022094" />
      <line x1="0.17149" y1="-0.022091" x2="0.17149" y2="0.019009" />
      <line x1="0.119661" y1="-0.020296" x2="0.12331" y2="-0.020296" />
      <line x1="0.123311" y1="-0.020304" x2="0.12331" y2="-0.020296" />
      <line x1="0.119661" y1="-0.020304" x2="0.123311" y2="-0.020304" />
      <line x1="0.12331" y1="-0.020296" x2="0.12331" y2="-0.016296" />
      <line x1="0.12331" y1="-0.016296" x2="0.12266" y2="-0.016296" />
      <line x1="0.12266" y1="-0.016296" x2="0.12266" y2="-0.011696" />
      <line x1="0.119661" y1="-0.011696" x2="0.12266" y2="-0.011696" />
      <line x1="0.12266" y1="-0.011696" x2="0.122661" y2="-0.011704" />
      <line x1="0.119661" y1="-0.011704" x2="0.122661" y2="-0.011704" />
      <line x1="0.123311" y1="-0.020304" x2="0.123311" y2="-0.016304" />
      <line x1="0.123311" y1="-0.016304" x2="0.122661" y2="-0.016304" />
      <line x1="0.122661" y1="-0.016304" x2="0.122661" y2="-0.011704" />
      <line x1="0.168491" y1="-0.016307" x2="0.168491" y2="0.018993" />
      <line x1="0.122661" y1="-0.016307" x2="0.122661" y2="0.018993" />
      <line x1="0.122661" y1="-0.016307" x2="0.168491" y2="-0.016307" />
      <line x1="0.16849" y1="-0.016293" x2="0.16849" y2="0.018993" />
      <line x1="0.168491" y1="-0.016307" x2="0.16849" y2="-0.016293" />
      <line x1="0.12266" y1="-0.016293" x2="0.12266" y2="0.019007" />
      <line x1="0.12266" y1="-0.016293" x2="0.16849" y2="-0.016293" />
      <line x1="0.12266" y1="-0.016296" x2="0.12266" y2="-0.016293" />
      <line x1="0.122661" y1="-0.016307" x2="0.122661" y2="-0.016304" />
      <path d="M 0.131526,-0.019606 A 0.0029500000000000077,1.6696863183309557e-06 -2.024288426382829e-22 0,1 0.125626,-0.019606" />
      <path d="M 0.125626,-0.019606 A 0.0029500000000000077,1.6696863183309557e-06 -2.024288426382829e-22 0,1 0.131526,-0.019606" />
      <path d="M 0.148526,-0.019606 A 0.00295,1.6696863183309512e-06 -2.024288426382829e-22 0,1 0.142626,-0.019606" />
      <path d="M 0.142626,-0.019606 A 0.00295,1.6696863183309512e-06 -2.024288426382829e-22 0,1 0.148526,-0.019606" />
      <path d="M 0.165526,-0.019606 A 0.0029500000000000077,1.6696863183309557e-06 -2.024288426382829e-22 0,1 0.159626,-0.019606" />
      <path d="M 0.159626,-0.019606 A 0.0029500000000000077,1.6696863183309557e-06 -2.024288426382829e-22 0,1 0.165526,-0.019606" />
      <path d="M 0.131525,-0.019594 A 0.0029500000000000077,1.6696863183309557e-06 -2.024288426382829e-22 0,1 0.125625,-0.019594" />
      <path d="M 0.125625,-0.019594 A 0.0029500000000000077,1.6696863183309557e-06 -2.024288426382829e-22 0,1 0.131525,-0.019594" />
      <path d="M 0.148525,-0.019594 A 0.00295,1.6696863183309512e-06 -2.024288426382829e-22 0,1 0.142625,-0.019594" />
      <path d="M 0.142625,-0.019594 A 0.00295,1.6696863183309512e-06 -2.024288426382829e-22 0,1 0.148525,-0.019594" />
      <path d="M 0.165525,-0.019594 A 0.0029500000000000077,1.6696863183309557e-06 -2.024288426382829e-22 0,1 0.159625,-0.019594" />
      <path d="M 0.159625,-0.019594 A 0.0029500000000000077,1.6696863183309557e-06 -2.024288426382829e-22 0,1 0.165525,-0.019594" />
      <line x1="0.123311" y1="-0.016304" x2="0.12331" y2="-0.016296" />
      <path d="M 0.130276,-0.016306 A 0.001700000000000007,9.621921156483488e-07 -2.024288426382829e-22 0,1 0.126876,-0.016306" />
      <path d="M 0.126876,-0.016306 A 0.001700000000000007,9.621921156483488e-07 -2.024288426382829e-22 1,1 0.130276,-0.016306" />
      <path d="M 0.147276,-0.016306 A 0.0017,9.621921156483448e-07 -2.024288426382829e-22 0,1 0.143876,-0.016306" />
      <path d="M 0.143876,-0.016306 A 0.0017,9.621921156483448e-07 -2.024288426382829e-22 1,1 0.147276,-0.016306" />
      <path d="M 0.164276,-0.016306 A 0.001700000000000007,9.621921156483488e-07 -2.024288426382829e-22 0,1 0.160876,-0.016306" />
      <path d="M 0.160876,-0.016306 A 0.001700000000000007,9.621921156483488e-07 -2.024288426382829e-22 1,1 0.164276,-0.016306" />
      <path d="M 0.130275,-0.016294 A 0.001700000000000007,9.621921156483488e-07 -2.024288426382829e-22 0,1 0.126875,-0.016294" />
      <path d="M 0.126875,-0.016294 A 0.001700000000000007,9.621921156483488e-07 -2.024288426382829e-22 1,1 0.130275,-0.016294" />
      <path d="M 0.147275,-0.016294 A 0.0017,9.621921156483448e-07 -2.024288426382829e-22 0,1 0.143875,-0.016294" />
      <path d="M 0.143875,-0.016294 A 0.0017,9.621921156483448e-07 -2.024288426382829e-22 1,1 0.147275,-0.016294" />
      <path d="M 0.164275,-0.016294 A 0.001700000000000007,9.621921156483488e-07 -2.024288426382829e-22 0,1 0.160875,-0.016294" />
      <path d="M 0.160875,-0.016294 A 0.001700000000000007,9.621921156483488e-07 -2.024288426382829e-22 1,1 0.164275,-0.016294" />
      <path d="M 0.130276,-0.019606 A 0.001700000000000007,9.621921156483488e-07 -2.024288426382829e-22 0,1 0.126876,-0.019606" />
      <path d="M 0.126876,-0.019606 A 0.001700000000000007,9.621921156483488e-07 -2.024288426382829e-22 1,1 0.130276,-0.019606" />
      <path d="M 0.147276,-0.019606 A 0.0017,9.621921156483448e-07 -2.024288426382829e-22 0,1 0.143876,-0.019606" />
      <path d="M 0.143876,-0.019606 A 0.0017,9.621921156483448e-07 -2.024288426382829e-22 1,1 0.147276,-0.019606" />
      <path d="M 0.164276,-0.019606 A 0.001700000000000007,9.621921156483488e-07 -2.024288426382829e-22 0,1 0.160876,-0.019606" />
      <path d="M 0.160876,-0.019606 A 0.001700000000000007,9.621921156483488e-07 -2.024288426382829e-22 1,1 0.164276,-0.019606" />
      <path d="M 0.130275,-0.019594 A 0.001700000000000007,9.621921156483488e-07 -2.024288426382829e-22 0,1 0.126875,-0.019594" />
      <path d="M 0.126875,-0.019594 A 0.001700000000000007,9.621921156483488e-07 -2.024288426382829e-22 1,1 0.130275,-0.019594" />
      <path d="M 0.147275,-0.019594 A 0.0017,9.621921156483448e-07 -2.024288426382829e-22 0,1 0.143875,-0.019594" />
      <path d="M 0.143875,-0.019594 A 0.0017,9.621921156483448e-07 -2.024288426382829e-22 1,1 0.147275,-0.019594" />
      <path d="M 0.164275,-0.019594 A 0.001700000000000007,9.621921156483488e-07 -2.024288426382829e-22 0,1 0.160875,-0.019594" />
      <path d="M 0.160875,-0.019594 A 0.001700000000000007,9.621921156483488e-07 -2.024288426382829e-22 1,1 0.164275,-0.019594" />
      <line x1="0.131526" y1="-0.022106" x2="0.131526" y2="-0.019606" />
      <line x1="0.125626" y1="-0.022106" x2="0.125626" y2="-0.019606" />
      <line x1="0.148526" y1="-0.022106" x2="0.148526" y2="-0.019606" />
      <line x1="0.142626" y1="-0.022106" x2="0.142626" y2="-0.019606" />
      <line x1="0.165526" y1="-0.022106" x2="0.165526" y2="-0.019606" />
      <line x1="0.159626" y1="-0.022106" x2="0.159626" y2="-0.019606" />
      <line x1="0.131525" y1="-0.022094" x2="0.131525" y2="-0.019594" />
      <line x1="0.125625" y1="-0.022094" x2="0.125625" y2="-0.019594" />
      <line x1="0.148525" y1="-0.022094" x2="0.148525" y2="-0.019594" />
      <line x1="0.142625" y1="-0.022094" x2="0.142625" y2="-0.019594" />
      <line x1="0.165525" y1="-0.022094" x2="0.165525" y2="-0.019594" />
      <line x1="0.159625" y1="-0.022094" x2="0.159625" y2="-0.019594" />
      <line x1="0.126876" y1="-0.019606" x2="0.126876" y2="-0.016306" />
      <line x1="0.143876" y1="-0.019606" x2="0.143876" y2="-0.016306" />
      <line x1="0.160876" y1="-0.019606" x2="0.160876" y2="-0.016306" />
      <line x1="0.126875" y1="-0.019594" x2="0.126875" y2="-0.016294" />
      <line x1="0.143875" y1="-0.019594" x2="0.143875" y2="-0.016294" />
      <line x1="0.160875" y1="-0.019594" x2="0.160875" y2="-0.016294" />
    </g>
  </g>
  <text x="0.025915" y="-0.025175" text-anchor="middle" font-family="'Input Sans Narrow', 'DejaVu Sans', Arial, sans-serif" font-size="0.002500" font-weight="bold" fill="#333">A-A</text>
  <text x="0.025915" y="-0.021675" text-anchor="middle" font-family="'Input Sans Narrow', 'DejaVu Sans', Arial, sans-serif" font-size="0.001800" fill="#888">shaft_face</text>
  <line x1="0.000000" y1="0.016465" x2="0.000000" y2="0.019465" stroke="#5C7080" stroke-width="0.000140" stroke-opacity="0.5"/>
  <line x1="0.051830" y1="0.016465" x2="0.051830" y2="0.019465" stroke="#5C7080" stroke-width="0.000140" stroke-opacity="0.5"/>
  <line x1="0.000000" y1="0.017865" x2="0.000000" y2="0.019465" stroke="#5C7080" stroke-width="0.000200"/>
  <line x1="0.051830" y1="0.017865" x2="0.051830" y2="0.019465" stroke="#5C7080" stroke-width="0.000200"/>
  <line x1="0.000000" y1="0.018665" x2="0.051830" y2="0.018665" stroke="#5C7080" stroke-width="0.000200"/>
  <polygon points="0.000000,0.018665 0.001500,0.018065 0.001500,0.019265" fill="#5C7080"/>
  <polygon points="0.051830,0.018665 0.050330,0.018065 0.050330,0.019265" fill="#5C7080"/>
  <text x="0.025915" y="0.017465" text-anchor="middle" font-family="'Input Sans Narrow', 'DejaVu Sans', Arial, sans-serif" font-size="0.001600" fill="#5C7080">51.8</text>
  <line x1="0.052630" y1="-0.015665" x2="0.055630" y2="-0.015665" stroke="#5C7080" stroke-width="0.000140" stroke-opacity="0.5"/>
  <line x1="0.052630" y1="0.015665" x2="0.055630" y2="0.015665" stroke="#5C7080" stroke-width="0.000140" stroke-opacity="0.5"/>
  <line x1="0.054030" y1="-0.015665" x2="0.055630" y2="-0.015665" stroke="#5C7080" stroke-width="0.000200"/>
  <line x1="0.054030" y1="0.015665" x2="0.055630" y2="0.015665" stroke="#5C7080" stroke-width="0.000200"/>
  <line x1="0.054830" y1="-0.015665" x2="0.054830" y2="0.015665" stroke="#5C7080" stroke-width="0.000200"/>
  <polygon points="0.054830,-0.015665 0.054230,-0.014165 0.055430,-0.014165" fill="#5C7080"/>
  <polygon points="0.054830,0.015665 0.054230,0.014165 0.055430,0.014165" fill="#5C7080"/>
  <text x="0.056330" y="0.000000" text-anchor="middle" dominant-baseline="central" font-family="'Input Sans Narrow', 'DejaVu Sans', Arial, sans-serif" font-size="0.001600" fill="#5C7080" transform="rotate(-90 0.056330 0.000000)">31.3</text>
  <text x="0.085745" y="-0.025175" text-anchor="middle" font-family="'Input Sans Narrow', 'DejaVu Sans', Arial, sans-serif" font-size="0.002500" font-weight="bold" fill="#333">B-B</text>
  <text x="0.085745" y="-0.021675" text-anchor="middle" font-family="'Input Sans Narrow', 'DejaVu Sans', Arial, sans-serif" font-size="0.001800" fill="#888">mid_body</text>
  <text x="0.145576" y="-0.025175" text-anchor="middle" font-family="'Input Sans Narrow', 'DejaVu Sans', Arial, sans-serif" font-size="0.002500" font-weight="bold" fill="#333">side_XZ</text>
  <line x1="0.119660" y1="0.022909" x2="0.119660" y2="0.025909" stroke="#5C7080" stroke-width="0.000140" stroke-opacity="0.5"/>
  <line x1="0.171491" y1="0.022909" x2="0.171491" y2="0.025909" stroke="#5C7080" stroke-width="0.000140" stroke-opacity="0.5"/>
  <line x1="0.119660" y1="0.024309" x2="0.119660" y2="0.025909" stroke="#5C7080" stroke-width="0.000200"/>
  <line x1="0.171491" y1="0.024309" x2="0.171491" y2="0.025909" stroke="#5C7080" stroke-width="0.000200"/>
  <line x1="0.119660" y1="0.025109" x2="0.171491" y2="0.025109" stroke="#5C7080" stroke-width="0.000200"/>
  <polygon points="0.119660,0.025109 0.121160,0.024509 0.121160,0.025709" fill="#5C7080"/>
  <polygon points="0.171491,0.025109 0.169991,0.024509 0.169991,0.025709" fill="#5C7080"/>
  <text x="0.145576" y="0.023909" text-anchor="middle" font-family="'Input Sans Narrow', 'DejaVu Sans', Arial, sans-serif" font-size="0.001600" fill="#5C7080">51.8</text>
  <line x1="0.172291" y1="-0.019500" x2="0.175291" y2="-0.019500" stroke="#5C7080" stroke-width="0.000140" stroke-opacity="0.5"/>
  <line x1="0.172291" y1="0.022109" x2="0.175291" y2="0.022109" stroke="#5C7080" stroke-width="0.000140" stroke-opacity="0.5"/>
  <line x1="0.173691" y1="-0.019500" x2="0.175291" y2="-0.019500" stroke="#5C7080" stroke-width="0.000200"/>
  <line x1="0.173691" y1="0.022109" x2="0.175291" y2="0.022109" stroke="#5C7080" stroke-width="0.000200"/>
  <line x1="0.174491" y1="-0.019500" x2="0.174491" y2="0.022109" stroke="#5C7080" stroke-width="0.000200"/>
  <polygon points="0.174491,-0.019500 0.173891,-0.018000 0.175091,-0.018000" fill="#5C7080"/>
  <polygon points="0.174491,0.022109 0.173891,0.020609 0.175091,0.020609" fill="#5C7080"/>
  <text x="0.175991" y="0.001304" text-anchor="middle" dominant-baseline="central" font-family="'Input Sans Narrow', 'DejaVu Sans', Arial, sans-serif" font-size="0.001600" fill="#5C7080" transform="rotate(-90 0.175991 0.001304)">41.6</text>
  <line x1="0.116660" y1="-0.016000" x2="0.174491" y2="-0.016000" stroke="#555" stroke-width="0.000250" stroke-dasharray="0.002500,0.000800,0.000500,0.000800"/>
  <text x="0.115160" y="-0.015400" text-anchor="end" font-family="'Input Sans Narrow', 'DejaVu Sans', Arial, sans-serif" font-size="0.002000" font-weight="bold" fill="#555">A</text>
  <text x="0.175991" y="-0.015400" text-anchor="start" font-family="'Input Sans Narrow', 'DejaVu Sans', Arial, sans-serif" font-size="0.002000" font-weight="bold" fill="#555">A</text>
  <line x1="0.116660" y1="-0.000000" x2="0.174491" y2="-0.000000" stroke="#555" stroke-width="0.000250" stroke-dasharray="0.002500,0.000800,0.000500,0.000800"/>
  <text x="0.115160" y="0.000600" text-anchor="end" font-family="'Input Sans Narrow', 'DejaVu Sans', Arial, sans-serif" font-size="0.002000" font-weight="bold" fill="#555">B</text>
  <text x="0.175991" y="0.000600" text-anchor="start" font-family="'Input Sans Narrow', 'DejaVu Sans', Arial, sans-serif" font-size="0.002000" font-weight="bold" fill="#555">B</text>
  <text x="-0.001175" y="0.030284" font-family="'Input Sans Narrow', 'DejaVu Sans', Arial, sans-serif" font-size="0.003500" font-weight="bold" fill="#222">joint_elbow_flex</text>
  <line x1="-0.001175" y1="0.034284" x2="0.008825" y2="0.034284" stroke="#333" stroke-width="0.000350"/>
  <line x1="-0.001175" y1="0.033284" x2="-0.001175" y2="0.035284" stroke="#333" stroke-width="0.000250"/>
  <line x1="0.008825" y1="0.033284" x2="0.008825" y2="0.035284" stroke="#333" stroke-width="0.000250"/>
  <text x="0.010325" y="0.034984" font-family="'Input Sans Narrow', 'DejaVu Sans', Arial, sans-serif" font-size="0.001800" fill="#888">10 mm</text>
  <rect x="0.028825" y="0.027784" width="0.004000" height="0.002500" fill="url(#hatch_servo)" stroke="rgb(60,60,60)" stroke-width="0.000300"/>
  <text x="0.034325" y="0.029784" font-family="'Input Sans Narrow', 'DejaVu Sans', Arial, sans-serif" font-size="0.001800" fill="rgb(60,60,60)">servo</text>
  <rect x="0.028825" y="0.031284" width="0.004000" height="0.002500" fill="url(#hatch_bracket)" stroke="rgb(50,120,190)" stroke-width="0.000300"/>
  <text x="0.034325" y="0.033284" font-family="'Input Sans Narrow', 'DejaVu Sans', Arial, sans-serif" font-size="0.001800" fill="rgb(50,120,190)">bracket</text>
</svg>