<?xml version='1.0' encoding='utf-8'?>
<svg width="186.35mm" height="70.81mm" viewBox="-0.003175 -0.028675 0.186350 0.070809" version="1.1" xmlns="http://www.w3.org/2000/svg">
  <defs>
    <pattern id="hatch_servo" width="0.0012" height="0.0012" patternUnits="userSpaceOnUse" patternTransform="rotate(45)">
      <line x1="0" y1="0" x2="0" y2="0.0012" stroke="rgb(60,60,60)" stroke-width="0.0001" stroke-opacity="0.6"/>
    </pattern>
    <pattern id="hatch_bracket" width="0.0012" height="0.0012" patternUnits="userSpaceOnUse" patternTransform="rotate(75)">
      <line x1="0" y1="0" x2="0" y2="0.0012" stroke="rgb(50,120,190)" stroke-width="0.0001" stroke-opacity="0.6"/>
    </pattern>
  </defs>
  <g transform="scale(1,-1)" stroke-linecap="round">
    <g fill="none" stroke="rgb(60,60,60)" stroke-width="0.00035" id="servo">
      <line x1="0.0033" y1="-0.0084" x2="0.0033" y2="0.0084" />
      <path d="M 0.0033,-0.0084 A 0.004,0.004 -90.0 0,1 0.0073,-0.0124" />
      <line x1="0.0073" y1="-0.0124" x2="0.0447" y2="-0.0124" />
      <path d="M 0.0487,-0.0084 A 0.004,0.004 -90.0 0,0 0.0447,-0.0124" />
      <line x1="0.0487" y1="-0.0084" x2="0.0487" y2="0.0084" />
      <path d="M 0.0487,0.0084 A 0.004,0.004 -90.0 0,1 0.0447,0.0124" />
      <line x1="0.0073" y1="0.0124" x2="0.0447" y2="0.0124" />
      <path d="M 0.0033,0.0084 A 0.004,0.004 -90.0 0,0 0.0073,0.0124" />
      <path d="M 0.0673,0.0124 A 0.004,0.004 180.0 0,1 0.0633,0.0084" />
      <line x1="0.0673" y1="0.0124" x2="0.1047" y2="0.0124" />
      <path d="M 0.1087,0.0084 A 0.004,0.004 0.0 0,1 0.1047,0.0124" />
      <line x1="0.1087" y1="0.0084" x2="0.1087" y2="-0.0084" />
      <path d="M 0.1047,-0.0124 A 0.004,0.004 0.0 0,1 0.1087,-0.0084" />
      <line x1="0.0673" y1="-0.0124" x2="0.1047" y2="-0.0124" />
      <path d="M 0.0633,-0.0084 A 0.004,0.004 180.0 0,1 0.0673,-0.0124" />
      <line x1="0.0633" y1="0.0084" x2="0.0633" y2="-0.0084" />
      <line x1="0.1233" y1="-0.0163" x2="0.1233" y2="0.0163" />
      <line x1="0.1233" y1="0.0163" x2="0.1233" y2="-0.0163" />
      <path d="M 0.1233,0.0163 A 0.004,7.964046740044567e-08 -3.901348164522844e-24 0,0 0.1273,0.0163" />
      <path d="M 0.1233,-0.0163 A 0.004,7.964046740044567e-08 -3.901348164522844e-24 0,0 0.1253,-0.0163" />
      <line x1="0.1273" y1="-0.0163" x2="0.1273" y2="0.0163" />
      <path d="M 0.1233,-0.0163 A 0.004,7.964046740044567e-08 180.0 0,1 0.1253,-0.0163" />
      <path d="M 0.1687,-0.0163 A 0.004,7.964046740044567e-08 180.0 0,1 0.1657,-0.0163" />
      <line x1="0.1273" y1="0.0163" x2="0.1647" y2="0.0163" />
      <path d="M 0.1687,0.0163 A 0.004,7.964046740044567e-08 180.0 0,1 0.1647,0.0163" />
      <line x1="0.1647" y1="0.0163" x2="0.1665" y2="0.0163" />
      <line x1="0.1253" y1="-0.0163" x2="0.1273" y2="-0.0163" />
      <line x1="0.1647" y1="-0.0163" x2="0.1647" y2="0.0163" />
      <line x1="0.1647" y1="-0.0163" x2="0.1657" y2="-0.0163" />
      <line x1="0.1657" y1="-0.0184" x2="0.1657" y2="-0.0163" />
      <line x1="0.1253" y1="-0.0184" x2="0.1657" y2="-0.0184" />
      <line x1="0.1253" y1="-0.0184" x2="0.1253" y2="-0.0163" />
      <line x1="0.1253" y1="-0.0184" x2="0.1253" y2="-0.0163" />
      <line x1="0.1253" y1="-0.0184" x2="0.1657" y2="-0.0184" />
      <line x1="0.1687" y1="-0.0163" x2="0.1687" y2="0.0163" />
      <path d="M 0.1485,0.018 A 0.002,3.9820233700222834e-08 -3.901348164522844e-24 0,0 0.1505,0.018" />
      <line x1="0.1505" y1="0.018" x2="0.1665" y2="0.018" />
      <path d="M 0.1685,0.018 A 0.002,3.9820233700222834e-08 180.0 0,1 0.1665,0.018" />
      <path d="M 0.1306,-0.0184 A 0.0016,3.185618696017826e-08 -3.1156113220371268e-24 0,0 0.1274,-0.0184" />
      <path d="M 0.1274,-0.0184 A 0.0016,3.185618696017826e-08 -3.1156113220371268e-24 1,0 0.1306,-0.0184" />
      <path d="M 0.1476,-0.0184 A 0.0016000000000000044,3.185618696017835e-08 -3.1156113220371268e-24 0,0 0.1444,-0.0184" />
      <path d="M 0.1444,-0.0184 A 0.0016000000000000044,3.185618696017835e-08 -3.1156113220371268e-24 1,0 0.1476,-0.0184" />
      <path d="M 0.1646,-0.0184 A 0.0016000000000000044,3.185618696017835e-08 -3.1156113220371268e-24 0,0 0.1614,-0.0184" />
      <path d="M 0.1614,-0.0184 A 0.0016000000000000044,3.185618696017835e-08 -3.1156113220371268e-24 1,0 0.1646,-0.0184" />
      <path d="M 0.1306,-0.0184 A 0.0016,3.185618696017826e-08 -3.1156113220371268e-24 0,0 0.1274,-0.0184" />
      <path d="M 0.1274,-0.0184 A 0.0016,3.185618696017826e-08 -3.1156113220371268e-24 1,0 0.1306,-0.0184" />
      <path d="M 0.1476,-0.0184 A 0.0016000000000000044,3.185618696017835e-08 -3.1156113220371268e-24 0,0 0.1444,-0.0184" />
      <path d="M 0.1444,-0.0184 A 0.0016000000000000044,3.185618696017835e-08 -3.1156113220371268e-24 1,0 0.1476,-0.0184" />
      <path d="M 0.1646,-0.0184 A 0.0016000000000000044,3.185618696017835e-08 -3.1156113220371268e-24 0,0 0.1614,-0.0184" />
      <path d="M 0.1614,-0.0184 A 0.0016000000000000044,3.185618696017835e-08 -3.1156113220371268e-24 1,0 0.1646,-0.0184" />
      <path d="M 0.154,0.0195 A 0.004500000000000004,8.959552582550142e-08 -3.1156113220371268e-24 0,0 0.163,0.0195" />
      <line x1="0.1485" y1="0.0163" x2="0.1485" y2="0.018" />
      <line x1="0.1505" y1="0.0163" x2="0.1505" y2="0.018" />
      <line x1="0.1665" y1="0.0163" x2="0.1665" y2="0.018" />
      <line x1="0.1685" y1="0.0163" x2="0.1685" y2="0.018" />
      <line x1="0.1233" y1="-0.0163" x2="0.1233" y2="0.0163" />
      <line x1="0.1687" y1="-0.0163" x2="0.1687" y2="0.0163" />
      <line x1="0.163" y1="0.018" x2="0.163" y2="0.0195" />
      <line x1="0.154" y1="0.018" x2="0.154" y2="0.0195" />
    </g>
    <g fill="url(#hatch_servo)" stroke="none" stroke-width="0" id="servo_fill">
      <path d="M 0.0033,0.0084 L 0.0033,-0.0084 A 0.004,0.004 -90.0 0,1 0.0073,-0.0124 L 0.0447,-0.0124 A 0.004,0.004 -90.0 0,1 0.0487,-0.0084 L 0.0487,0.0084 A 0.004,0.004 -90.0 0,1 0.0447,0.0124 L 0.0073,0.0124 A 0.004,0.004 -90.0 0,1 0.0033,0.0084" />
      <path d="M 0.0673,0.0124 A 0.004,0.004 180.0 0,1 0.0633,0.0084 L 0.0633,-0.0084 A 0.004,0.004 180.0 0,1 0.0673,-0.0124 L 0.1047,-0.0124 A 0.004,0.004 0.0 0,1 0.1087,-0.0084 L 0.1087,0.0084 A 0.004,0.004 0.0 0,1 0.1047,0.0124 L 0.0673,0.0124" />
    </g>
    <g fill="none" stroke="rgb(60,60,60)" stroke-opacity="0.4" stroke-width="0.00015" id="servo_hidden" stroke-dasharray="0.0018 0.00045">
      <path d="M 0.1253,-0.0163 A 0.004,7.964046740044567e-08 -3.901348164522844e-24 0,0 0.1273,-0.0163" />
      <line x1="0.1253" y1="-0.0163" x2="0.1657" y2="-0.0163" />
      <line x1="0.1253" y1="-0.0163" x2="0.1657" y2="-0.0163" />
      <path d="M 0.1687,-0.0163 A 0.004,7.964046740044567e-08 -3.901348164522844e-24 0,0 0.1657,-0.0163" />
      <path d="M 0.1615,-0.0163 A 0.0030000000000000027,5.973035055033429e-08 -3.1156113220371268e-24 0,0 0.1555,-0.0163" />
      <path d="M 0.1555,-0.0163 A 0.0030000000000000027,5.973035055033429e-08 -3.1156113220371268e-24 1,0 0.1615,-0.0163" />
      <line x1="0.1273" y1="0.0163" x2="0.1273" y2="-0.0163" />
      <path d="M 0.1233,0.0163 A 0.004,7.964046740044567e-08 180.0 0,1 0.1273,0.0163" />
      <path d="M 0.1253,-0.0163 A 0.004,7.964046740044567e-08 180.0 0,1 0.1273,-0.0163" />
      <line x1="0.1273" y1="0.0163" x2="0.1647" y2="0.0163" />
      <path d="M 0.1687,0.0163 A 0.004,7.964046740044567e-08 -3.901348164522844e-24 0,0 0.1647,0.0163" />
      <path d="M 0.1485,0.0163 A 0.002,3.9820233700222834e-08 -3.901348164522844e-24 0,0 0.1505,0.0163" />
      <line x1="0.1505" y1="0.0163" x2="0.1647" y2="0.0163" />
      <path d="M 0.1685,0.0163 A 0.002,3.9820233700222834e-08 180.0 0,1 0.1665,0.0163" />
      <path d="M 0.1685,0.0163 A 0.002,3.9820233700222834e-08 -3.901348164522844e-24 0,0 0.1665,0.0163" />
      <line x1="0.1505" y1="0.0163" x2="0.1665" y2="0.0163" />
      <path d="M 0.1485,0.0163 A 0.002,3.9820233700222834e-08 180.0 0,1 0.1505,0.0163" />
      <line x1="0.1253" y1="-0.0184" x2="0.1253" y2="-0.0163" />
      <line x1="0.1253" y1="-0.0184" x2="0.1253" y2="-0.0163" />
      <line x1="0.1253" y1="-0.0184" x2="0.1657" y2="-0.0184" />
      <line x1="0.1657" y1="-0.0184" x2="0.1657" y2="-0.0163" />
      <line x1="0.1657" y1="-0.0184" x2="0.1657" y2="-0.0163" />
      <line x1="0.1657" y1="-0.0184" x2="0.1657" y2="-0.0163" />
      <path d="M 0.1657,-0.0163 A 0.004,7.964046740044567e-08 180.0 0,1 0.1647,-0.0163" />
      <line x1="0.1647" y1="0.0163" x2="0.1647" y2="-0.0163" />
      <line x1="0.1687" y1="0.0163" x2="0.1687" y2="-0.0163" />
      <path d="M 0.1657,-0.0163 A 0.004,7.964046740044567e-08 -3.901348164522844e-24 0,0 0.1647,-0.0163" />
      <path d="M 0.1615,-0.0176 A 0.0030000000000000027,5.973035055033429e-08 -3.1156113220371268e-24 0,0 0.1555,-0.0176" />
      <path d="M 0.1555,-0.0176 A 0.0030000000000000027,5.973035055033429e-08 -3.1156113220371268e-24 1,0 0.1615,-0.0176" />
      <line x1="0.1647" y1="-0.0163" x2="0.1657" y2="-0.0163" />
      <line x1="0.1253" y1="-0.0184" x2="0.1657" y2="-0.0184" />
      <line x1="0.1253" y1="-0.0163" x2="0.1273" y2="-0.0163" />
      <path d="M 0.1685,0.018 A 0.002,3.9820233700222834e-08 -3.901348164522844e-24 0,0 0.1665,0.018" />
      <line x1="0.1505" y1="0.018" x2="0.1665" y2="0.018" />
      <path d="M 0.1485,0.018 A 0.002,3.9820233700222834e-08 180.0 0,1 0.1505,0.018" />
      <path d="M 0.163,0.018 A 0.004500000000000004,8.959552582550142e-08 -3.1156113220371268e-24 0,0 0.154,0.018" />
      <path d="M 0.154,0.018 A 0.004500000000000004,8.959552582550142e-08 -3.1156113220371268e-24 0,0 0.163,0.018" />
      <path d="M 0.1306,-0.0084 A 0.0016,3.185618696017826e-08 -3.1156113220371268e-24 0,0 0.1274,-0.0084" />
      <path d="M 0.1274,-0.0084 A 0.0016,3.185618696017826e-08 -3.1156113220371268e-24 1,0 0.1306,-0.0084" />
      <path d="M 0.1476,-0.0084 A 0.0016000000000000044,3.185618696017835e-08 -3.1156113220371268e-24 0,0 0.1444,-0.0084" />
      <path d="M 0.1444,-0.0084 A 0.0016000000000000044,3.185618696017835e-08 -3.1156113220371268e-24 1,0 0.1476,-0.0084" />
      <path d="M 0.1646,-0.0084 A 0.0016000000000000044,3.185618696017835e-08 -3.1156113220371268e-24 0,0 0.1614,-0.0084" />
      <path d="M 0.1614,-0.0084 A 0.0016000000000000044,3.185618696017835e-08 -3.1156113220371268e-24 1,0 0.1646,-0.0084" />
      <path d="M 0.1306,-0.0084 A 0.0016,3.185618696017826e-08 -3.1156113220371268e-24 0,0 0.1274,-0.0084" />
      <path d="M 0.1274,-0.0084 A 0.0016,3.185618696017826e-08 -3.1156113220371268e-24 1,0 0.1306,-0.0084" />
      <path d="M 0.1476,-0.0084 A 0.0016000000000000044,3.185618696017835e-08 -3.1156113220371268e-24 0,0 0.1444,-0.0084" />
      <path d="M 0.1444,-0.0084 A 0.0016000000000000044,3.185618696017835e-08 -3.1156113220371268e-24 1,0 0.1476,-0.0084" />
      <path d="M 0.1646,-0.0084 A 0.0016000000000000044,3.185618696017835e-08 -3.1156113220371268e-24 0,0 0.1614,-0.0084" />
      <path d="M 0.1614,-0.0084 A 0.0016000000000000044,3.185618696017835e-08 -3.1156113220371268e-24 1,0 0.1646,-0.0084" />
      <path d="M 0.163,0.0195 A 0.004500000000000004,8.959552582550142e-08 -3.1156113220371268e-24 0,0 0.154,0.0195" />
      <line x1="0.1555" y1="-0.0176" x2="0.1555" y2="-0.0163" />
      <line x1="0.1274" y1="-0.0184" x2="0.1274" y2="-0.0084" />
      <line x1="0.1444" y1="-0.0184" x2="0.1444" y2="-0.0084" />
      <line x1="0.1614" y1="-0.0184" x2="0.1614" y2="-0.0084" />
      <line x1="0.1274" y1="-0.0184" x2="0.1274" y2="-0.0084" />
      <line x1="0.1444" y1="-0.0184" x2="0.1444" y2="-0.0084" />
      <line x1="0.1614" y1="-0.0184" x2="0.1614" y2="-0.0084" />
      <line x1="0.1685" y1="0.0163" x2="0.1685" y2="0.018" />
      <line x1="0.1665" y1="0.0163" x2="0.1665" y2="0.018" />
      <line x1="0.1505" y1="0.0163" x2="0.1505" y2="0.018" />
      <line x1="0.1485" y1="0.0163" x2="0.1485" y2="0.018" />
    </g>
    <g fill="none" stroke="rgb(50,120,190)" stroke-width="0.00035" id="bracket">
      <line x1="0.0" y1="0.0157" x2="0.052" y2="0.0157" />
      <line x1="0.052" y1="0.0157" x2="0.052" y2="-0.0157" />
      <line x1="0.0" y1="-0.0157" x2="0.052" y2="-0.0157" />
      <line x1="0.0" y1="0.0157" x2="0.0" y2="-0.0157" />
      <line x1="0.003" y1="-0.0127" x2="0.049" y2="-0.0127" />
      <line x1="0.049" y1="0.0127" x2="0.049" y2="-0.0127" />
      <line x1="0.003" y1="0.0127" x2="0.049" y2="0.0127" />
      <line x1="0.003" y1="0.0127" x2="0.003" y2="-0.0127" />
      <line x1="0.06" y1="0.0157" x2="0.112" y2="0.0157" />
      <line x1="0.112" y1="0.0157" x2="0.112" y2="-0.0157" />
      <line x1="0.06" y1="-0.0157" x2="0.112" y2="-0.0157" />
      <line x1="0.06" y1="0.0157" x2="0.06" y2="-0.0157" />
      <line x1="0.063" y1="-0.0127" x2="0.109" y2="-0.0127" />
      <line x1="0.109" y1="0.0127" x2="0.109" y2="-0.0127" />
      <line x1="0.063" y1="0.0127" x2="0.109" y2="0.0127" />
      <line x1="0.063" y1="0.0127" x2="0.063" y2="-0.0127" />
      <line x1="0.12" y1="-0.021959" x2="0.12" y2="0.019291" />
      <line x1="0.12" y1="0.019291" x2="0.12" y2="0.019309" />
      <line x1="0.12" y1="-0.021959" x2="0.172" y2="-0.021959" />
      <line x1="0.172" y1="-0.021959" x2="0.172" y2="0.019291" />
      <line x1="0.12" y1="0.019291" x2="0.172" y2="0.019291" />
      <line x1="0.12" y1="0.019309" x2="0.172" y2="0.019309" />
      <line x1="0.172" y1="0.019291" x2="0.172" y2="0.019309" />
      <line x1="0.169" y1="0.019293" x2="0.123" y2="0.019293" />
      <line x1="0.169" y1="0.019293" x2="0.169" y2="0.019307" />
      <line x1="0.169" y1="0.019307" x2="0.123" y2="0.019307" />
      <line x1="0.123" y1="0.019293" x2="0.123" y2="0.019307" />
      <line x1="0.169" y1="0.019293" x2="0.169" y2="0.019307" />
    </g>
    <g fill="url(#hatch_bracket)" stroke="none" stroke-width="0" id="bracket_fill">
      <path d="M 0.052,0.0157 L 0.0,0.0157 L 0.0,-0.0157 L 0.052,-0.0157 L 0.052,0.0157 M 0.049,-0.0127 L 0.003,-0.0127 L 0.003,0.0127 L 0.049,0.0127 L 0.049,-0.0127" />
      <path d="M 0.112,0.0157 L 0.06,0.0157 L 0.06,-0.0157 L 0.112,-0.0157 L 0.112,0.0157 M 0.109,-0.0127 L 0.063,-0.0127 L 0.063,0.0127 L 0.109,0.0127 L 0.109,-0.0127" />
    </g>
    <g fill="none" stroke="rgb(50,120,190)" stroke-opacity="0.4" stroke-width="0.00015" id="bracket_hidden" stroke-dasharray="0.0018 0.00045">
      <line x1="0.12" y1="-0.021941" x2="0.12" y2="0.019309" />
      <line x1="0.12" y1="-0.021959" x2="0.12" y2="-0.021941" />
      <line x1="0.12" y1="-0.021941" x2="0.172" y2="-0.021941" />
      <line x1="0.172" y1="-0.021941" x2="0.172" y2="0.019309" />
      <line x1="0.172" y1="-0.021959" x2="0.172" y2="-0.021941" />
      <path d="M 0.1306,-0.021956 A 0.0016,8.728179711111575e-07 2.59667551648653e-24 0,1 0.1274,-0.021956" />
      <path d="M 0.1274,-0.021956 A 0.0016,8.728179711111575e-07 2.59667551648653e-24 1,1 0.1306,-0.021956" />
      <line x1="0.143" y1="-0.021952" x2="0.133" y2="-0.021952" />
      <line x1="0.143" y1="-0.021952" x2="0.143" y2="-0.021948" />
      <line x1="0.143" y1="-0.021948" x2="0.133" y2="-0.021948" />
      <line x1="0.133" y1="-0.021952" x2="0.133" y2="-0.021948" />
      <path d="M 0.1476,-0.021956 A 0.0016000000000000044,8.728179711111598e-07 2.59667551648653e-24 0,1 0.1444,-0.021956" />
      <path d="M 0.1444,-0.021956 A 0.0016000000000000044,8.728179711111598e-07 2.59667551648653e-24 1,1 0.1476,-0.021956" />
      <path d="M 0.1646,-0.021956 A 0.0016000000000000044,8.728179711111598e-07 2.59667551648653e-24 0,1 0.1614,-0.021956" />
      <path d="M 0.1614,-0.021956 A 0.0016000000000000044,8.728179711111598e-07 2.59667551648653e-24 1,1 0.1646,-0.021956" />
      <path d="M 0.1306,-0.021944 A 0.0016,8.728179711111575e-07 2.59667551648653e-24 0,1 0.1274,-0.021944" />
      <path d="M 0.1274,-0.021944 A 0.0016,8.728179711111575e-07 2.59667551648653e-24 1,1 0.1306,-0.021944" />
      <path d="M 0.1476,-0.021944 A 0.0016000000000000044,8.728179711111598e-07 2.59667551648653e-24 0,1 0.1444,-0.021944" />
      <path d="M 0.1444,-0.021944 A 0.0016000000000000044,8.728179711111598e-07 2.59667551648653e-24 1,1 0.1476,-0.021944" />
      <path d="M 0.1646,-0.021944 A 0.0016000000000000044,8.728179711111598e-07 2.59667551648653e-24 0,1 0.1614,-0.021944" />
      <path d="M 0.1614,-0.021944 A 0.0016000000000000044,8.728179711111598e-07 2.59667551648653e-24 1,1 0.1646,-0.021944" />
      <line x1="0.169" y1="-0.016607" x2="0.169" y2="0.019293" />
      <line x1="0.123" y1="-0.016607" x2="0.123" y2="0.019293" />
      <line x1="0.123" y1="-0.016607" x2="0.169" y2="-0.016607" />
      <line x1="0.169" y1="-0.016593" x2="0.169" y2="0.019293" />
      <line x1="0.169" y1="-0.016607" x2="0.169" y2="-0.016593" />
      <line x1="0.123" y1="-0.016593" x2="0.123" y2="0.019307" />
      <line x1="0.123" y1="-0.016593" x2="0.169" y2="-0.016593" />
      <line x1="0.123" y1="-0.016607" x2="0.123" y2="-0.016593" />
      <path d="M 0.1306,-0.016606 A 0.0016,8.728179711111575e-07 2.59667551648653e-24 0,1 0.1274,-0.016606" />
      <path d="M 0.1274,-0.016606 A 0.0016,8.728179711111575e-07 2.59667551648653e-24 1,1 0.1306,-0.016606" />
      <line x1="0.1306" y1="-0.021956" x2="0.1306" y2="-0.016606" />
      <line x1="0.143" y1="-0.021952" x2="0.143" y2="-0.017652" />
      <line x1="0.133" y1="-0.017652" x2="0.143" y2="-0.017652" />
      <line x1="0.133" y1="-0.021952" x2="0.133" y2="-0.017652" />
      <line x1="0.143" y1="-0.017652" x2="0.143" y2="-0.017648" />
      <line x1="0.143" y1="-0.021948" x2="0.143" y2="-0.017648" />
      <line x1="0.133" y1="-0.017648" x2="0.143" y2="-0.017648" />
      <line x1="0.133" y1="-0.021948" x2="0.133" y2="-0.017648" />
      <line x1="0.133" y1="-0.017652" x2="0.133" y2="-0.017648" />
      <path d="M 0.1476,-0.016606 A 0.0016000000000000044,8.728179711111598e-07 2.59667551648653e-24 0,1 0.1444,-0.016606" />
      <path d="M 0.1444,-0.016606 A 0.0016000000000000044,8.728179711111598e-07 2.59667551648653e-24 1,1 0.1476,-0.016606" />
      <line x1="0.1476" y1="-0.021956" x2="0.1476" y2="-0.016606" />
      <path d="M 0.1646,-0.016606 A 0.0016000000000000044,8.728179711111598e-07 2.59667551648653e-24 0,1 0.1614,-0.016606" />
      <path d="M 0.1614,-0.016606 A 0.0016000000000000044,8.728179711111598e-07 2.59667551648653e-24 1,1 0.1646,-0.016606" />
      <line x1="0.1646" y1="-0.021956" x2="0.1646" y2="-0.016606" />
      <path d="M 0.1306,-0.016594 A 0.0016,8.728179711111575e-07 2.59667551648653e-24 0,1 0.1274,-0.016594" />
      <path d="M 0.1274,-0.016594 A 0.0016,8.728179711111575e-07 2.59667551648653e-24 1,1 0.1306,-0.016594" />
      <line x1="0.1306" y1="-0.021944" x2="0.1306" y2="-0.016594" />
      <path d="M 0.1476,-0.016594 A 0.0016000000000000044,8.728179711111598e-07 2.59667551648653e-24 0,1 0.1444,-0.016594" />
      <path d="M 0.1444,-0.016594 A 0.0016000000000000044,8.728179711111598e-07 2.59667551648653e-24 1,1 0.1476,-0.016594" />
      <line x1="0.1476" y1="-0.021944" x2="0.1476" y2="-0.016594" />
      <path d="M 0.1646,-0.016594 A 0.0016000000000000044,8.728179711111598e-07 2.59667551648653e-24 0,1 0.1614,-0.016594" />
      <path d="M 0.1614,-0.016594 A 0.0016000000000000044,8.728179711111598e-07 2.59667551648653e-24 1,1 0.1646,-0.016594" />
      <line x1="0.1646" y1="-0.021944" x2="0.1646" y2="-0.016594" />
      <line x1="0.1274" y1="-0.021956" x2="0.1274" y2="-0.016606" />
      <line x1="0.1444" y1="-0.021956" x2="0.1444" y2="-0.016606" />
      <line x1="0.1614" y1="-0.021956" x2="0.1614" y2="-0.016606" />
      <line x1="0.1274" y1="-0.021944" x2="0.1274" y2="-0.016594" />
      <line x1="0.1444" y1="-0.021944" x2="0.1444" y2="-0.016594" />
      <line x1="0.1614" y1="-0.021944" x2="0.1614" y2="-0.016594" />
    </g>
  </g>
  <text x="0.026000" y="-0.025175" text-anchor="middle" font-family="'Input Sans Narrow', 'DejaVu Sans', Arial, sans-serif" font-size="0.002500" font-weight="bold" fill="#333">A-A</text>
  <text x="0.026000" y="-0.021675" text-anchor="middle" font-family="'Input Sans Narrow', 'DejaVu Sans', Arial, sans-serif" font-size="0.001800" fill="#888">shaft_face</text>
  <line x1="0.000000" y1="0.016500" x2="0.000000" y2="0.019500" stroke="#5C7080" stroke-width="0.000140" stroke-opacity="0.5"/>
  <line x1="0.052000" y1="0.016500" x2="0.052000" y2="0.019500" stroke="#5C7080" stroke-width="0.000140" stroke-opacity="0.5"/>
  <line x1="0.000000" y1="0.017900" x2="0.000000" y2="0.019500" stroke="#5C7080" stroke-width="0.000200"/>
  <line x1="0.052000" y1="0.017900" x2="0.052000" y2="0.019500" stroke="#5C7080" stroke-width="0.000200"/>
  <line x1="0.000000" y1="0.018700" x2="0.052000" y2="0.018700" stroke="#5C7080" stroke-width="0.000200"/>
  <polygon points="0.000000,0.018700 0.001500,0.018100 0.001500,0.019300" fill="#5C7080"/>
  <polygon points="0.052000,0.018700 0.050500,0.018100 0.050500,0.019300" fill="#5C7080"/>
  <text x="0.026000" y="0.017500" text-anchor="middle" font-family="'Input Sans Narrow', 'DejaVu Sans', Arial, sans-serif" font-size="0.001600" fill="#5C7080">52.0</text>
  <line x1="0.052800" y1="-0.015700" x2="0.055800" y2="-0.015700" stroke="#5C7080" stroke-width="0.000140" stroke-opacity="0.5"/>
  <line x1="0.052800" y1="0.015700" x2="0.055800" y2="0.015700" stroke="#5C7080" stroke-width="0.000140" stroke-opacity="0.5"/>
  <line x1="0.054200" y1="-0.015700" x2="0.055800" y2="-0.015700" stroke="#5C7080" stroke-width="0.000200"/>
  <line x1="0.054200" y1="0.015700" x2="0.055800" y2="0.015700" stroke="#5C7080" stroke-width="0.000200"/>
  <line x1="0.055000" y1="-0.015700" x2="0.055000" y2="0.015700" stroke="#5C7080" stroke-width="0.000200"/>
  <polygon points="0.055000,-0.015700 0.054400,-0.014200 0.055600,-0.014200" fill="#5C7080"/>
  <polygon points="0.055000,0.015700 0.054400,0.014200 0.055600,0.014200" fill="#5C7080"/>
  <text x="0.056500" y="0.000000" text-anchor="middle" dominant-baseline="central" font-family="'Input Sans Narrow', 'DejaVu Sans', Arial, sans-serif" font-size="0.001600" fill="#5C7080" transform="rotate(-90 0.056500 0.000000)">31.4</text>
  <text x="0.086000" y="-0.025175" text-anchor="middle" font-family="'Input Sans Narrow', 'DejaVu Sans', Arial, sans-serif" font-size="0.002500" font-weight="bold" fill="#333">B-B</text>
  <text x="0.086000" y="-0.021675" text-anchor="middle" font-family="'Input Sans Narrow', 'DejaVu Sans', Arial, sans-serif" font-size="0.001800" fill="#888">mid_body</text>
  <text x="0.146000" y="-0.025175" text-anchor="middle" font-family="'Input Sans Narrow', 'DejaVu Sans', Arial, sans-serif" font-size="0.002500" font-weight="bold" fill="#333">side_XZ</text>
  <line x1="0.120000" y1="0.022759" x2="0.120000" y2="0.025759" stroke="#5C7080" stroke-width="0.000140" stroke-opacity="0.5"/>
  <line x1="0.172000" y1="0.022759" x2="0.172000" y2="0.025759" stroke="#5C7080" stroke-width="0.000140" stroke-opacity="0.5"/>
  <line x1="0.120000" y1="0.024159" x2="0.120000" y2="0.025759" stroke="#5C7080" stroke-width="0.000200"/>
  <line x1="0.172000" y1="0.024159" x2="0.172000" y2="0.025759" stroke="#5C7080" stroke-width="0.000200"/>
  <line x1="0.120000" y1="0.024959" x2="0.172000" y2="0.024959" stroke="#5C7080" stroke-width="0.000200"/>
  <polygon points="0.120000,0.024959 0.121500,0.024359 0.121500,0.025559" fill="#5C7080"/>
  <polygon points="0.172000,0.024959 0.170500,0.024359 0.170500,0.025559" fill="#5C7080"/>
  <text x="0.146000" y="0.023759" text-anchor="middle" font-family="'Input Sans Narrow', 'DejaVu Sans', Arial, sans-serif" font-size="0.001600" fill="#5C7080">52.0</text>
  <line x1="0.172800" y1="-0.019500" x2="0.175800" y2="-0.019500" stroke="#5C7080" stroke-width="0.000140" stroke-opacity="0.5"/>
  <line x1="0.172800" y1="0.021959" x2="0.175800" y2="0.021959" stroke="#5C7080" stroke-width="0.000140" stroke-opacity="0.5"/>
  <line x1="0.174200" y1="-0.019500" x2="0.175800" y2="-0.019500" stroke="#5C7080" stroke-width="0.000200"/>
  <line x1="0.174200" y1="0.021959" x2="0.175800" y2="0.021959" stroke="#5C7080" stroke-width="0.000200"/>
  <line x1="0.175000" y1="-0.019500" x2="0.175000" y2="0.021959" stroke="#5C7080" stroke-width="0.000200"/>
  <polygon points="0.175000,-0.019500 0.174400,-0.018000 0.175600,-0.018000" fill="#5C7080"/>
  <polygon points="0.175000,0.021959 0.174400,0.020459 0.175600,0.020459" fill="#5C7080"/>
  <text x="0.176500" y="0.001229" text-anchor="middle" dominant-baseline="central" font-family="'Input Sans Narrow', 'DejaVu Sans', Arial, sans-serif" font-size="0.001600" fill="#5C7080" transform="rotate(-90 0.176500 0.001229)">41.5</text>
  <line x1="0.117000" y1="-0.016300" x2="0.175000" y2="-0.016300" stroke="#555" stroke-width="0.000250" stroke-dasharray="0.002500,0.000800,0.000500,0.000800"/>
  <text x="0.115500" y="-0.015700" text-anchor="end" font-family="'Input Sans Narrow', 'DejaVu Sans', Arial, sans-serif" font-size="0.002000" font-weight="bold" fill="#555">A</text>
  <text x="0.176500" y="-0.015700" text-anchor="start" font-family="'Input Sans Narrow', 'DejaVu Sans', Arial, sans-serif" font-size="0.002000" font-weight="bold" fill="#555">A</text>
  <line x1="0.117000" y1="-0.000000" x2="0.175000" y2="-0.000000" stroke="#555" stroke-width="0.000250" stroke-dasharray="0.002500,0.000800,0.000500,0.000800"/>
  <text x="0.115500" y="0.000600" text-anchor="end" font-family="'Input Sans Narrow', 'DejaVu Sans', Arial, sans-serif" font-size="0.002000" font-weight="bold" fill="#555">B</text>
  <text x="0.176500" y="0.000600" text-anchor="start" font-family="'Input Sans Narrow', 'DejaVu Sans', Arial, sans-serif" font-size="0.002000" font-weight="bold" fill="#555">B</text>
  <text x="-0.001175" y="0.030134" font-family="'Input Sans Narrow', 'DejaVu Sans', Arial, sans-serif" font-size="0.003500" font-weight="bold" fill="#222">joint_shoulder_lift</text>
  <line x1="-0.001175" y1="0.034134" x2="0.008825" y2="0.034134" stroke="#333" stroke-width="0.000350"/>
  <line x1="-0.001175" y1="0.033134" x2="-0.001175" y2="0.035134" stroke="#333" stroke-width="0.000250"/>
  <line x1="0.008825" y1="0.033134" x2="0.008825" y2="0.035134" stroke="#333" stroke-width="0.000250"/>
  <text x="0.010325" y="0.034834" font-family="'Input Sans Narrow', 'DejaVu Sans', Arial, sans-serif" font-size="0.001800" fill="#888">10 mm</text>
  <rect x="0.028825" y="0.027634" width="0.004000" height="0.002500" fill="url(#hatch_servo)" stroke="rgb(60,60,60)" stroke-width="0.000300"/>
  <text x="0.034325" y="0.029634" font-family="'Input Sans Narrow', 'DejaVu Sans', Arial, sans-serif" font-size="0.001800" fill="rgb(60,60,60)">servo</text>
  <rect x="0.028825" y="0.031134" width="0.004000" height="0.002500" fill="url(#hatch_bracket)" stroke="rgb(50,120,190)" stroke-width="0.000300"/>
  <text x="0.034325" y="0.033134" font-family="'Input Sans Narrow', 'DejaVu Sans', Arial, sans-serif" font-size="0.001800" fill="rgb(50,120,190)">bracket</text>
</svg>