<?xml version='1.0' encoding='utf-8'?>
<svg width="213.97mm" height="82.77mm" viewBox="-0.003175 -0.044191 0.213970 0.082766" version="1.1" xmlns="http://www.w3.org/2000/svg">
  <defs>
    <pattern id="hatch_servo" width="0.0012" height="0.0012" patternUnits="userSpaceOnUse" patternTransform="rotate(45)">
      <line x1="0" y1="0" x2="0" y2="0.0012" stroke="rgb(60,60,60)" stroke-width="0.0001" stroke-opacity="0.6"/>
    </pattern>
    <pattern id="hatch_bracket" width="0.0012" height="0.0012" patternUnits="userSpaceOnUse" patternTransform="rotate(75)">
      <line x1="0" y1="0" x2="0" y2="0.0012" stroke="rgb(50,120,190)" stroke-width="0.0001" stroke-opacity="0.6"/>
    </pattern>
  </defs>
  <g transform="scale(1,-1)" stroke-linecap="round">
    <g fill="none" stroke="rgb(60,60,60)" stroke-width="0.00035" id="servo">
      <line x1="0.0158" y1="-0.0084" x2="0.0158" y2="0.0084" />
      <path d="M 0.0158,-0.0084 A 0.004,0.004 -90.0 0,1 0.0198,-0.0124" />
      <line x1="0.0198" y1="-0.0124" x2="0.0572" y2="-0.0124" />
      <path d="M 0.0612,-0.0084 A 0.004,0.004 -90.0 0,0 0.0572,-0.0124" />
      <line x1="0.0612" y1="-0.0084" x2="0.0612" y2="0.0084" />
      <path d="M 0.0612,0.0084 A 0.004,0.004 -90.0 0,1 0.0572,0.0124" />
      <line x1="0.0198" y1="0.0124" x2="0.0572" y2="0.0124" />
      <path d="M 0.0158,0.0084 A 0.004,0.004 -90.0 0,0 0.0198,0.0124" />
      <path d="M 0.089,0.0124 A 0.004,0.004 180.0 0,1 0.085,0.0084" />
      <line x1="0.089" y1="0.0124" x2="0.1264" y2="0.0124" />
      <path d="M 0.1304,0.0084 A 0.004,0.004 0.0 0,1 0.1264,0.0124" />
      <line x1="0.1304" y1="0.0084" x2="0.1304" y2="-0.0084" />
      <path d="M 0.1264,-0.0124 A 0.004,0.004 0.0 0,1 0.1304,-0.0084" />
      <line x1="0.089" y1="-0.0124" x2="0.1264" y2="-0.0124" />
      <path d="M 0.085,-0.0084 A 0.004,0.004 180.0 0,1 0.089,-0.0124" />
      <line x1="0.085" y1="0.0084" x2="0.085" y2="-0.0084" />
      <line x1="0.15422" y1="-0.0163" x2="0.15422" y2="0.0163" />
      <line x1="0.154219" y1="0.0163" x2="0.154219" y2="-0.0163" />
      <path d="M 0.15422,0.0163 A 0.004,7.964046740044567e-08 -3.901348164522844e-24 0,0 0.15822,0.0163" />
      <path d="M 0.15422,-0.0163 A 0.004,7.964046740044567e-08 -3.901348164522844e-24 0,0 0.15622,-0.0163" />
      <line x1="0.15822" y1="-0.0163" x2="0.15822" y2="0.0163" />
      <path d="M 0.154219,-0.0163 A 0.004,7.964046740044567e-08 180.0 0,1 0.156219,-0.0163" />
      <path d="M 0.19962,-0.0163 A 0.004,7.964046740044567e-08 180.0 0,1 0.19662,-0.0163" />
      <line x1="0.15822" y1="0.0163" x2="0.19562" y2="0.0163" />
      <path d="M 0.19962,0.0163 A 0.004,7.964046740044567e-08 180.0 0,1 0.19562,0.0163" />
      <line x1="0.19562" y1="0.0163" x2="0.19742" y2="0.0163" />
      <line x1="0.15622" y1="-0.0163" x2="0.15822" y2="-0.0163" />
      <line x1="0.19562" y1="-0.0163" x2="0.19562" y2="0.0163" />
      <line x1="0.19562" y1="-0.0163" x2="0.19662" y2="-0.0163" />
      <line x1="0.19662" y1="-0.0184" x2="0.19662" y2="-0.0163" />
      <line x1="0.15622" y1="-0.0184" x2="0.19662" y2="-0.0184" />
      <line x1="0.15622" y1="-0.0184" x2="0.15622" y2="-0.0163" />
      <line x1="0.156219" y1="-0.0184" x2="0.156219" y2="-0.0163" />
      <line x1="0.156219" y1="-0.0184" x2="0.196619" y2="-0.0184" />
      <line x1="0.19962" y1="-0.0163" x2="0.19962" y2="0.0163" />
      <path d="M 0.17942,0.018 A 0.002,3.9820233700222834e-08 -3.901348164522844e-24 0,0 0.18142,0.018" />
      <line x1="0.18142" y1="0.018" x2="0.19742" y2="0.018" />
      <path d="M 0.19942,0.018 A 0.002,3.9820233700222834e-08 180.0 0,1 0.19742,0.018" />
      <path d="M 0.16152,-0.0184 A 0.0016000000000000044,3.185618696017835e-08 -3.1156113220371268e-24 0,0 0.15832,-0.0184" />
      <path d="M 0.15832,-0.0184 A 0.0016000000000000044,3.185618696017835e-08 -3.1156113220371268e-24 1,0 0.16152,-0.0184" />
      <path d="M 0.17852,-0.0184 A 0.0016000000000000044,3.185618696017835e-08 -3.1156113220371268e-24 0,0 0.17532,-0.0184" />
      <path d="M 0.17532,-0.0184 A 0.0016000000000000044,3.185618696017835e-08 -3.1156113220371268e-24 1,0 0.17852,-0.0184" />
      <path d="M 0.19552,-0.0184 A 0.0016000000000000044,3.185618696017835e-08 -3.1156113220371268e-24 0,0 0.19232,-0.0184" />
      <path d="M 0.19232,-0.0184 A 0.0016000000000000044,3.185618696017835e-08 -3.1156113220371268e-24 1,0 0.19552,-0.0184" />
      <path d="M 0.161519,-0.0184 A 0.0016000000000000044,3.185618696017835e-08 -3.1156113220371268e-24 0,0 0.158319,-0.0184" />
      <path d="M 0.158319,-0.0184 A 0.0016000000000000044,3.185618696017835e-08 -3.1156113220371268e-24 1,0 0.161519,-0.0184" />
      <path d="M 0.178519,-0.0184 A 0.0016000000000000044,3.185618696017835e-08 -3.1156113220371268e-24 0,0 0.175319,-0.0184" />
      <path d="M 0.175319,-0.0184 A 0.0016000000000000044,3.185618696017835e-08 -3.1156113220371268e-24 1,0 0.178519,-0.0184" />
      <path d="M 0.195519,-0.0184 A 0.0016000000000000044,3.185618696017835e-08 -3.1156113220371268e-24 0,0 0.192319,-0.0184" />
      <path d="M 0.192319,-0.0184 A 0.0016000000000000044,3.185618696017835e-08 -3.1156113220371268e-24 1,0 0.195519,-0.0184" />
      <path d="M 0.184919,0.0195 A 0.004500000000000004,8.959552582550142e-08 -3.1156113220371268e-24 0,0 0.193919,0.0195" />
      <line x1="0.17942" y1="0.0163" x2="0.17942" y2="0.018" />
      <line x1="0.18142" y1="0.0163" x2="0.18142" y2="0.018" />
      <line x1="0.19742" y1="0.0163" x2="0.19742" y2="0.018" />
      <line x1="0.19942" y1="0.0163" x2="0.19942" y2="0.018" />
      <line x1="0.154219" y1="-0.0163" x2="0.154219" y2="0.0163" />
      <line x1="0.19962" y1="-0.0163" x2="0.19962" y2="0.0163" />
      <line x1="0.193919" y1="0.018" x2="0.193919" y2="0.0195" />
      <line x1="0.184919" y1="0.018" x2="0.184919" y2="0.0195" />
    </g>
    <g fill="url(#hatch_servo)" stroke="none" stroke-width="0" id="servo_fill">
      <path d="M 0.0158,0.0084 L 0.0158,-0.0084 A 0.004,0.004 -90.0 0,1 0.0198,-0.0124 L 0.0572,-0.0124 A 0.004,0.004 -90.0 0,1 0.0612,-0.0084 L 0.0612,0.0084 A 0.004,0.004 -90.0 0,1 0.0572,0.0124 L 0.0198,0.0124 A 0.004,0.004 -90.0 0,1 0.0158,0.0084" />
      <path d="M 0.089,0.0124 A 0.004,0.004 180.0 0,1 0.085,0.0084 L 0.085,-0.0084 A 0.004,0.004 180.0 0,1 0.089,-0.0124 L 0.1264,-0.0124 A 0.004,0.004 0.0 0,1 0.1304,-0.0084 L 0.1304,0.0084 A 0.004,0.004 0.0 0,1 0.1264,0.0124 L 0.089,0.0124" />
    </g>
    <g fill="none" stroke="rgb(60,60,60)" stroke-opacity="0.4" stroke-width="0.00015" id="servo_hidden" stroke-dasharray="0.0018 0.00045">
      <path d="M 0.15622,-0.0163 A 0.004,7.964046740044567e-08 -3.901348164522844e-24 0,0 0.15822,-0.0163" />
      <line x1="0.15622" y1="-0.0163" x2="0.19662" y2="-0.0163" />
      <line x1="0.15622" y1="-0.0163" x2="0.196619" y2="-0.0163" />
      <path d="M 0.199619,-0.0163 A 0.004,7.964046740044567e-08 -3.901348164522844e-24 0,0 0.196619,-0.0163" />
      <path d="M 0.192419,-0.0163 A 0.0030000000000000027,5.973035055033429e-08 -3.1156113220371268e-24 0,0 0.186419,-0.0163" />
      <path d="M 0.186419,-0.0163 A 0.0030000000000000027,5.973035055033429e-08 -3.1156113220371268e-24 1,0 0.192419,-0.0163" />
      <line x1="0.158219" y1="0.0163" x2="0.158219" y2="-0.0163" />
      <path d="M 0.15422,0.0163 A 0.004,7.964046740044567e-08 180.0 0,1 0.158219,0.0163" />
      <path d="M 0.156219,-0.0163 A 0.004,7.964046740044567e-08 180.0 0,1 0.158219,-0.0163" />
      <line x1="0.158219" y1="0.0163" x2="0.195619" y2="0.0163" />
      <path d="M 0.199619,0.0163 A 0.004,7.964046740044567e-08 -3.901348164522844e-24 0,0 0.195619,0.0163" />
      <path d="M 0.17942,0.0163 A 0.002,3.9820233700222834e-08 -3.901348164522844e-24 0,0 0.18142,0.0163" />
      <line x1="0.18142" y1="0.0163" x2="0.19562" y2="0.0163" />
      <path d="M 0.19942,0.0163 A 0.002,3.9820233700222834e-08 180.0 0,1 0.19742,0.0163" />
      <path d="M 0.199419,0.0163 A 0.002,3.9820233700222834e-08 -3.901348164522844e-24 0,0 0.197419,0.0163" />
      <line x1="0.181419" y1="0.0163" x2="0.197419" y2="0.0163" />
      <path d="M 0.179419,0.0163 A 0.002,3.9820233700222834e-08 180.0 0,1 0.181419,0.0163" />
      <line x1="0.15622" y1="-0.0184" x2="0.15622" y2="-0.0163" />
      <line x1="0.156219" y1="-0.0184" x2="0.156219" y2="-0.0163" />
      <line x1="0.15622" y1="-0.0184" x2="0.19662" y2="-0.0184" />
      <line x1="0.19662" y1="-0.0184" x2="0.19662" y2="-0.0163" />
      <line x1="0.196619" y1="-0.0184" x2="0.196619" y2="-0.0163" />
      <line x1="0.196619" y1="-0.0184" x2="0.196619" y2="-0.0163" />
      <path d="M 0.19662,-0.0163 A 0.004,7.964046740044567e-08 180.0 0,1 0.19562,-0.0163" />
      <line x1="0.195619" y1="0.0163" x2="0.195619" y2="-0.0163" />
      <line x1="0.199619" y1="0.0163" x2="0.199619" y2="-0.0163" />
      <path d="M 0.196619,-0.0163 A 0.004,7.964046740044567e-08 -3.901348164522844e-24 0,0 0.195619,-0.0163" />
      <path d="M 0.192419,-0.0176 A 0.0030000000000000027,5.973035055033429e-08 -3.1156113220371268e-24 0,0 0.186419,-0.0176" />
      <path d="M 0.186419,-0.0176 A 0.0030000000000000027,5.973035055033429e-08 -3.1156113220371268e-24 1,0 0.192419,-0.0176" />
      <line x1="0.195619" y1="-0.0163" x2="0.196619" y2="-0.0163" />
      <line x1="0.156219" y1="-0.0184" x2="0.196619" y2="-0.0184" />
      <line x1="0.156219" y1="-0.0163" x2="0.158219" y2="-0.0163" />
      <path d="M 0.199419,0.018 A 0.002,3.9820233700222834e-08 -3.901348164522844e-24 0,0 0.197419,0.018" />
      <line x1="0.181419" y1="0.018" x2="0.197419" y2="0.018" />
      <path d="M 0.179419,0.018 A 0.002,3.9820233700222834e-08 180.0 0,1 0.181419,0.018" />
      <path d="M 0.193919,0.018 A 0.004500000000000004,8.959552582550142e-08 -3.1156113220371268e-24 0,0 0.184919,0.018" />
      <path d="M 0.184919,0.018 A 0.004500000000000004,8.959552582550142e-08 -3.1156113220371268e-24 0,0 0.193919,0.018" />
      <path d="M 0.16152,-0.0084 A 0.0016000000000000044,3.185618696017835e-08 -3.1156113220371268e-24 0,0 0.15832,-0.0084" />
      <path d="M 0.15832,-0.0084 A 0.0016000000000000044,3.185618696017835e-08 -3.1156113220371268e-24 1,0 0.16152,-0.0084" />
      <path d="M 0.17852,-0.0084 A 0.0016000000000000044,3.185618696017835e-08 -3.1156113220371268e-24 0,0 0.17532,-0.0084" />
      <path d="M 0.17532,-0.0084 A 0.0016000000000000044,3.185618696017835e-08 -3.1156113220371268e-24 1,0 0.17852,-0.0084" />
      <path d="M 0.19552,-0.0084 A 0.0016000000000000044,3.185618696017835e-08 -3.1156113220371268e-24 0,0 0.19232,-0.0084" />
      <path d="M 0.19232,-0.0084 A 0.0016000000000000044,3.185618696017835e-08 -3.1156113220371268e-24 1,0 0.19552,-0.0084" />
      <path d="M 0.161519,-0.0084 A 0.0016000000000000044,3.185618696017835e-08 -3.1156113220371268e-24 0,0 0.158319,-0.0084" />
      <path d="M 0.158319,-0.0084 A 0.0016000000000000044,3.185618696017835e-08 -3.1156113220371268e-24 1,0 0.161519,-0.0084" />
      <path d="M 0.178519,-0.0084 A 0.0016000000000000044,3.185618696017835e-08 -3.1156113220371268e-24 0,0 0.175319,-0.0084" />
      <path d="M 0.175319,-0.0084 A 0.0016000000000000044,3.185618696017835e-08 -3.1156113220371268e-24 1,0 0.178519,-0.0084" />
      <path d="M 0.195519,-0.0084 A 0.0016000000000000044,3.185618696017835e-08 -3.1156113220371268e-24 0,0 0.192319,-0.0084" />
      <path d="M 0.192319,-0.0084 A 0.0016000000000000044,3.185618696017835e-08 -3.1156113220371268e-24 1,0 0.195519,-0.0084" />
      <path d="M 0.193919,0.0195 A 0.004500000000000004,8.959552582550142e-08 -3.1156113220371268e-24 0,0 0.184919,0.0195" />
      <line x1="0.186419" y1="-0.0176" x2="0.186419" y2="-0.0163" />
      <line x1="0.15832" y1="-0.0184" x2="0.15832" y2="-0.0084" />
      <line x1="0.17532" y1="-0.0184" x2="0.17532" y2="-0.0084" />
      <line x1="0.19232" y1="-0.0184" x2="0.19232" y2="-0.0084" />
      <line x1="0.158319" y1="-0.0184" x2="0.158319" y2="-0.0084" />
      <line x1="0.175319" y1="-0.0184" x2="0.175319" y2="-0.0084" />
      <line x1="0.192319" y1="-0.0184" x2="0.192319" y2="-0.0084" />
      <line x1="0.199419" y1="0.0163" x2="0.199419" y2="0.018" />
      <line x1="0.197419" y1="0.0163" x2="0.197419" y2="0.018" />
      <line x1="0.181419" y1="0.0163" x2="0.181419" y2="0.018" />
      <line x1="0.179419" y1="0.0163" x2="0.179419" y2="0.018" />
    </g>
    <g fill="none" stroke="rgb(50,120,190)" stroke-width="0.00035" id="bracket">
      <line x1="0.0" y1="0.0157" x2="0.052" y2="0.0157" />
      <line x1="0.052" y1="0.0157" x2="0.052" y2="-0.0157" />
      <line x1="0.0" y1="-0.0157" x2="0.052" y2="-0.0157" />
      <line x1="0.0" y1="0.0157" x2="0.0" y2="-0.0157" />
      <line x1="0.003" y1="-0.0127" x2="0.049" y2="-0.0127" />
      <line x1="0.049" y1="0.0127" x2="0.049" y2="-0.0127" />
      <line x1="0.003" y1="0.0127" x2="0.049" y2="0.0127" />
      <line x1="0.003" y1="0.0127" x2="0.003" y2="-0.0127" />
      <line x1="0.0692" y1="0.0157" x2="0.1212" y2="0.0157" />
      <line x1="0.1212" y1="0.0157" x2="0.1212" y2="-0.0157" />
      <line x1="0.0692" y1="-0.0157" x2="0.1212" y2="-0.0157" />
      <line x1="0.0692" y1="0.0157" x2="0.0692" y2="-0.0157" />
      <line x1="0.0722" y1="-0.0127" x2="0.1182" y2="-0.0127" />
      <line x1="0.1182" y1="0.0127" x2="0.1182" y2="-0.0127" />
      <line x1="0.0722" y1="0.0127" x2="0.1182" y2="0.0127" />
      <line x1="0.0722" y1="0.0127" x2="0.0722" y2="-0.0127" />
      <line x1="0.1384" y1="-0.006234" x2="0.1384" y2="0.035016" />
      <line x1="0.1384" y1="-0.006234" x2="0.138439" y2="-0.006266" />
      <line x1="0.1384" y1="-0.006234" x2="0.1904" y2="-0.006234" />
      <line x1="0.1904" y1="-0.006234" x2="0.1904" y2="0.035016" />
      <line x1="0.1384" y1="0.035016" x2="0.1904" y2="0.035016" />
      <line x1="0.1904" y1="0.035016" x2="0.190439" y2="0.034984" />
      <line x1="0.138439" y1="-0.006266" x2="0.190439" y2="-0.006266" />
      <line x1="0.190439" y1="-0.006266" x2="0.190439" y2="0.034984" />
      <line x1="0.1904" y1="-0.006234" x2="0.190439" y2="-0.006266" />
      <path d="M 0.149007,-0.00624 A 0.0016000000000000044,1.6391797750944282e-06 6.29157385628148e-21 0,0 0.145807,-0.00624" />
      <path d="M 0.145807,-0.00624 A 0.0016000000000000044,1.6391797750944282e-06 6.29157385628148e-21 0,0 0.149007,-0.00624" />
      <line x1="0.161416" y1="-0.006247" x2="0.151416" y2="-0.006247" />
      <line x1="0.161416" y1="-0.006247" x2="0.161423" y2="-0.006253" />
      <line x1="0.161423" y1="-0.006253" x2="0.151423" y2="-0.006253" />
      <line x1="0.151416" y1="-0.006247" x2="0.151423" y2="-0.006253" />
      <path d="M 0.166007,-0.006239 A 0.0016,1.6391797750944238e-06 6.29157385628148e-21 0,0 0.162807,-0.006239" />
      <path d="M 0.162807,-0.006239 A 0.0016,1.6391797750944238e-06 6.29157385628148e-21 0,0 0.166007,-0.006239" />
      <path d="M 0.183007,-0.006239 A 0.0016000000000000044,1.6391797750944282e-06 6.29157385628148e-21 0,0 0.179807,-0.006239" />
      <path d="M 0.179807,-0.006239 A 0.0016000000000000044,1.6391797750944282e-06 6.29157385628148e-21 0,0 0.183007,-0.006239" />
      <path d="M 0.149032,-0.006261 A 0.0016000000000000044,1.6391797750944282e-06 6.29157385628148e-21 0,0 0.145832,-0.006261" />
      <path d="M 0.145832,-0.006261 A 0.0016000000000000044,1.6391797750944282e-06 6.29157385628148e-21 0,0 0.149032,-0.006261" />
      <path d="M 0.166032,-0.00626 A 0.0016000000000000044,1.6391797750944282e-06 6.29157385628148e-21 0,0 0.162832,-0.00626" />
      <path d="M 0.162832,-0.00626 A 0.0016000000000000044,1.6391797750944282e-06 6.29157385628148e-21 0,0 0.166032,-0.00626" />
      <path d="M 0.183032,-0.00626 A 0.0016000000000000044,1.6391797750944282e-06 6.29157385628148e-21 0,0 0.179832,-0.00626" />
      <path d="M 0.179832,-0.00626 A 0.0016000000000000044,1.6391797750944282e-06 6.29157385628148e-21 0,0 0.183032,-0.00626" />
      <line x1="0.151423" y1="-0.006253" x2="0.151423" y2="-0.006247" />
    </g>
    <g fill="url(#hatch_bracket)" stroke="none" stroke-width="0" id="bracket_fill">
      <path d="M 0.052,0.0157 L 0.0,0.0157 L 0.0,-0.0157 L 0.052,-0.0157 L 0.052,0.0157 M 0.049,-0.0127 L 0.003,-0.0127 L 0.003,0.0127 L 0.049,0.0127 L 0.049,-0.0127" />
      <path d="M 0.1212,0.0157 L 0.0692,0.0157 L 0.0692,-0.0157 L 0.1212,-0.0157 L 0.1212,0.0157 M 0.1182,-0.0127 L 0.0722,-0.0127 L 0.0722,0.0127 L 0.1182,0.0127 L 0.1182,-0.0127" />
    </g>
    <g fill="none" stroke="rgb(50,120,190)" stroke-opacity="0.4" stroke-width="0.00015" id="bracket_hidden" stroke-dasharray="0.0018 0.00045">
      <line x1="0.1384" y1="0.035016" x2="0.138439" y2="0.034984" />
      <line x1="0.138439" y1="-0.006266" x2="0.138439" y2="0.034984" />
      <line x1="0.138439" y1="0.034984" x2="0.190439" y2="0.034984" />
      <line x1="0.187404" y1="0.035013" x2="0.141404" y2="0.035013" />
      <line x1="0.187404" y1="0.035013" x2="0.187435" y2="0.034987" />
      <line x1="0.187435" y1="0.034987" x2="0.141435" y2="0.034987" />
      <line x1="0.141404" y1="0.035013" x2="0.141435" y2="0.034987" />
      <line x1="0.187404" y1="-0.000887" x2="0.187404" y2="0.035013" />
      <line x1="0.141404" y1="-0.000887" x2="0.141404" y2="0.035013" />
      <line x1="0.141404" y1="-0.000887" x2="0.187404" y2="-0.000887" />
      <line x1="0.187435" y1="-0.000913" x2="0.187435" y2="0.034987" />
      <line x1="0.187404" y1="-0.000887" x2="0.187435" y2="-0.000913" />
      <line x1="0.141435" y1="-0.000913" x2="0.141435" y2="0.034987" />
      <line x1="0.141435" y1="-0.000913" x2="0.187435" y2="-0.000913" />
      <line x1="0.141404" y1="-0.000887" x2="0.141435" y2="-0.000913" />
      <path d="M 0.149007,-0.00089 A 0.0016000000000000044,1.6391797750944282e-06 6.29157385628148e-21 0,0 0.145807,-0.00089" />
      <path d="M 0.145807,-0.00089 A 0.0016000000000000044,1.6391797750944282e-06 6.29157385628148e-21 0,0 0.149007,-0.00089" />
      <line x1="0.161416" y1="-0.006247" x2="0.161416" y2="-0.001947" />
      <line x1="0.151416" y1="-0.001947" x2="0.161416" y2="-0.001947" />
      <line x1="0.151416" y1="-0.006247" x2="0.151416" y2="-0.001947" />
      <line x1="0.161416" y1="-0.001947" x2="0.161423" y2="-0.001953" />
      <line x1="0.161423" y1="-0.006253" x2="0.161423" y2="-0.001953" />
      <line x1="0.151423" y1="-0.001953" x2="0.161423" y2="-0.001953" />
      <line x1="0.151423" y1="-0.006247" x2="0.151423" y2="-0.001953" />
      <line x1="0.151416" y1="-0.001947" x2="0.151423" y2="-0.001953" />
      <path d="M 0.166007,-0.000889 A 0.0016,1.6391797750944238e-06 6.29157385628148e-21 0,0 0.162807,-0.000889" />
      <path d="M 0.162807,-0.000889 A 0.0016,1.6391797750944238e-06 6.29157385628148e-21 0,0 0.166007,-0.000889" />
      <path d="M 0.183007,-0.000889 A 0.0016000000000000044,1.6391797750944282e-06 6.29157385628148e-21 0,0 0.179807,-0.000889" />
      <path d="M 0.179807,-0.000889 A 0.0016000000000000044,1.6391797750944282e-06 6.29157385628148e-21 0,0 0.183007,-0.000889" />
      <path d="M 0.149032,-0.000911 A 0.0016000000000000044,1.6391797750944282e-06 6.29157385628148e-21 0,0 0.145832,-0.000911" />
      <path d="M 0.145832,-0.000911 A 0.0016000000000000044,1.6391797750944282e-06 6.29157385628148e-21 0,0 0.149032,-0.000911" />
      <path d="M 0.166032,-0.00091 A 0.0016000000000000044,1.6391797750944282e-06 6.29157385628148e-21 0,0 0.162832,-0.00091" />
      <path d="M 0.162832,-0.00091 A 0.0016000000000000044,1.6391797750944282e-06 6.29157385628148e-21 0,0 0.166032,-0.00091" />
      <path d="M 0.183032,-0.00091 A 0.0016000000000000044,1.6391797750944282e-06 6.29157385628148e-21 0,0 0.179832,-0.00091" />
      <path d="M 0.179832,-0.00091 A 0.0016000000000000044,1.6391797750944282e-06 6.29157385628148e-21 0,0 0.183032,-0.00091" />
      <line x1="0.149007" y1="-0.00624" x2="0.149007" y2="-0.00089" />
      <line x1="0.145807" y1="-0.00624" x2="0.145807" y2="-0.00089" />
      <line x1="0.166007" y1="-0.006239" x2="0.166007" y2="-0.000889" />
      <line x1="0.162807" y1="-0.006239" x2="0.162807" y2="-0.000889" />
      <line x1="0.183007" y1="-0.006239" x2="0.183007" y2="-0.000889" />
      <line x1="0.179807" y1="-0.006239" x2="0.179807" y2="-0.000889" />
      <line x1="0.149032" y1="-0.006261" x2="0.149032" y2="-0.000911" />
      <line x1="0.145832" y1="-0.006261" x2="0.145832" y2="-0.000911" />
      <line x1="0.166032" y1="-0.00626" x2="0.166032" y2="-0.00091" />
      <line x1="0.162832" y1="-0.00626" x2="0.162832" y2="-0.00091" />
      <line x1="0.183032" y1="-0.00626" x2="0.183032" y2="-0.00091" />
      <line x1="0.179832" y1="-0.00626" x2="0.179832" y2="-0.00091" />
    </g>
  </g>
  <text x="0.030600" y="-0.040691" text-anchor="middle" font-family="'Input Sans Narrow', 'DejaVu Sans', Arial, sans-serif" font-size="0.002500" font-weight="bold" fill="#333">A-A</text>
  <text x="0.030600" y="-0.037191" text-anchor="middle" font-family="'Input Sans Narrow', 'DejaVu Sans', Arial, sans-serif" font-size="0.001800" fill="#888">shaft_face</text>
  <line x1="0.000000" y1="0.016500" x2="0.000000" y2="0.019500" stroke="#5C7080" stroke-width="0.000140" stroke-opacity="0.5"/>
  <line x1="0.061200" y1="0.016500" x2="0.061200" y2="0.019500" stroke="#5C7080" stroke-width="0.000140" stroke-opacity="0.5"/>
  <line x1="0.000000" y1="0.017900" x2="0.000000" y2="0.019500" stroke="#5C7080" stroke-width="0.000200"/>
  <line x1="0.061200" y1="0.017900" x2="0.061200" y2="0.019500" stroke="#5C7080" stroke-width="0.000200"/>
  <line x1="0.000000" y1="0.018700" x2="0.061200" y2="0.018700" stroke="#5C7080" stroke-width="0.000200"/>
  <polygon points="0.000000,0.018700 0.001500,0.018100 0.001500,0.019300" fill="#5C7080"/>
  <polygon points="0.061200,0.018700 0.059700,0.018100 0.059700,0.019300" fill="#5C7080"/>
  <text x="0.030600" y="0.017500" text-anchor="middle" font-family="'Input Sans Narrow', 'DejaVu Sans', Arial, sans-serif" font-size="0.001600" fill="#5C7080">61.2</text>
  <line x1="0.062000" y1="-0.015700" x2="0.065000" y2="-0.015700" stroke="#5C7080" stroke-width="0.000140" stroke-opacity="0.5"/>
  <line x1="0.062000" y1="0.015700" x2="0.065000" y2="0.015700" stroke="#5C7080" stroke-width="0.000140" stroke-opacity="0.5"/>
  <line x1="0.063400" y1="-0.015700" x2="0.065000" y2="-0.015700" stroke="#5C7080" stroke-width="0.000200"/>
  <line x1="0.063400" y1="0.015700" x2="0.065000" y2="0.015700" stroke="#5C7080" stroke-width="0.000200"/>
  <line x1="0.064200" y1="-0.015700" x2="0.064200" y2="0.015700" stroke="#5C7080" stroke-width="0.000200"/>
  <polygon points="0.064200,-0.015700 0.063600,-0.014200 0.064800,-0.014200" fill="#5C7080"/>
  <polygon points="0.064200,0.015700 0.063600,0.014200 0.064800,0.014200" fill="#5C7080"/>
  <text x="0.065700" y="0.000000" text-anchor="middle" dominant-baseline="central" font-family="'Input Sans Narrow', 'DejaVu Sans', Arial, sans-serif" font-size="0.001600" fill="#5C7080" transform="rotate(-90 0.065700 0.000000)">31.4</text>
  <text x="0.099800" y="-0.040691" text-anchor="middle" font-family="'Input Sans Narrow', 'DejaVu Sans', Arial, sans-serif" font-size="0.002500" font-weight="bold" fill="#333">B-B</text>
  <text x="0.099800" y="-0.037191" text-anchor="middle" font-family="'Input Sans Narrow', 'DejaVu Sans', Arial, sans-serif" font-size="0.001800" fill="#888">mid_body</text>
  <text x="0.169010" y="-0.040691" text-anchor="middle" font-family="'Input Sans Narrow', 'DejaVu Sans', Arial, sans-serif" font-size="0.002500" font-weight="bold" fill="#333">side_XZ</text>
  <line x1="0.138400" y1="0.019200" x2="0.138400" y2="0.022200" stroke="#5C7080" stroke-width="0.000140" stroke-opacity="0.5"/>
  <line x1="0.199620" y1="0.019200" x2="0.199620" y2="0.022200" stroke="#5C7080" stroke-width="0.000140" stroke-opacity="0.5"/>
  <line x1="0.138400" y1="0.020600" x2="0.138400" y2="0.022200" stroke="#5C7080" stroke-width="0.000200"/>
  <line x1="0.199620" y1="0.020600" x2="0.199620" y2="0.022200" stroke="#5C7080" stroke-width="0.000200"/>
  <line x1="0.138400" y1="0.021400" x2="0.199620" y2="0.021400" stroke="#5C7080" stroke-width="0.000200"/>
  <polygon points="0.138400,0.021400 0.139900,0.020800 0.139900,0.022000" fill="#5C7080"/>
  <polygon points="0.199620,0.021400 0.198120,0.020800 0.198120,0.022000" fill="#5C7080"/>
  <text x="0.169010" y="0.020200" text-anchor="middle" font-family="'Input Sans Narrow', 'DejaVu Sans', Arial, sans-serif" font-size="0.001600" fill="#5C7080">61.2</text>
  <line x1="0.200420" y1="-0.035016" x2="0.203420" y2="-0.035016" stroke="#5C7080" stroke-width="0.000140" stroke-opacity="0.5"/>
  <line x1="0.200420" y1="0.018400" x2="0.203420" y2="0.018400" stroke="#5C7080" stroke-width="0.000140" stroke-opacity="0.5"/>
  <line x1="0.201820" y1="-0.035016" x2="0.203420" y2="-0.035016" stroke="#5C7080" stroke-width="0.000200"/>
  <line x1="0.201820" y1="0.018400" x2="0.203420" y2="0.018400" stroke="#5C7080" stroke-width="0.000200"/>
  <line x1="0.202620" y1="-0.035016" x2="0.202620" y2="0.018400" stroke="#5C7080" stroke-width="0.000200"/>
  <polygon points="0.202620,-0.035016 0.202020,-0.033516 0.203220,-0.033516" fill="#5C7080"/>
  <polygon points="0.202620,0.018400 0.202020,0.016900 0.203220,0.016900" fill="#5C7080"/>
  <text x="0.204120" y="-0.008308" text-anchor="middle" dominant-baseline="central" font-family="'Input Sans Narrow', 'DejaVu Sans', Arial, sans-serif" font-size="0.001600" fill="#5C7080" transform="rotate(-90 0.204120 -0.008308)">53.4</text>
  <line x1="0.135400" y1="-0.016300" x2="0.202620" y2="-0.016300" stroke="#555" stroke-width="0.000250" stroke-dasharray="0.002500,0.000800,0.000500,0.000800"/>
  <text x="0.133900" y="-0.015700" text-anchor="end" font-family="'Input Sans Narrow', 'DejaVu Sans', Arial, sans-serif" font-size="0.002000" font-weight="bold" fill="#555">A</text>
  <text x="0.204120" y="-0.015700" text-anchor="start" font-family="'Input Sans Narrow', 'DejaVu Sans', Arial, sans-serif" font-size="0.002000" font-weight="bold" fill="#555">A</text>
  <line x1="0.135400" y1="-0.000000" x2="0.202620" y2="-0.000000" stroke="#555" stroke-width="0.000250" stroke-dasharray="0.002500,0.000800,0.000500,0.000800"/>
  <text x="0.133900" y="0.000600" text-anchor="end" font-family="'Input Sans Narrow', 'DejaVu Sans', Arial, sans-serif" font-size="0.002000" font-weight="bold" fill="#555">B</text>
  <text x="0.204120" y="0.000600" text-anchor="start" font-family="'Input Sans Narrow', 'DejaVu Sans', Arial, sans-serif" font-size="0.002000" font-weight="bold" fill="#555">B</text>
  <text x="-0.001175" y="0.026575" font-family="'Input Sans Narrow', 'DejaVu Sans', Arial, sans-serif" font-size="0.003500" font-weight="bold" fill="#222">joint_shoulder_pan</text>
  <line x1="-0.001175" y1="0.030575" x2="0.008825" y2="0.030575" stroke="#333" stroke-width="0.000350"/>
  <line x1="-0.001175" y1="0.029575" x2="-0.001175" y2="0.031575" stroke="#333" stroke-width="0.000250"/>
  <line x1="0.008825" y1="0.029575" x2="0.008825" y2="0.031575" stroke="#333" stroke-width="0.000250"/>
  <text x="0.010325" y="0.031275" font-family="'Input Sans Narrow', 'DejaVu Sans', Arial, sans-serif" font-size="0.001800" fill="#888">10 mm</text>
  <rect x="0.028825" y="0.024075" width="0.004000" height="0.002500" fill="url(#hatch_servo)" stroke="rgb(60,60,60)" stroke-width="0.000300"/>
  <text x="0.034325" y="0.026075" font-family="'Input Sans Narrow', 'DejaVu Sans', Arial, sans-serif" font-size="0.001800" fill="rgb(60,60,60)">servo</text>
  <rect x="0.028825" y="0.027575" width="0.004000" height="0.002500" fill="url(#hatch_bracket)" stroke="rgb(50,120,190)" stroke-width="0.000300"/>
  <text x="0.034325" y="0.029575" font-family="'Input Sans Narrow', 'DejaVu Sans', Arial, sans-serif" font-size="0.001800" fill="rgb(50,120,190)">bracket</text>
</svg>