<?xml version='1.0' encoding='utf-8'?>
<svg width="183.35mm" height="73.10mm" viewBox="-0.003175 -0.031477 0.183351 0.073104" version="1.1" xmlns="http://www.w3.org/2000/svg">
  <defs>
    <pattern id="hatch_servo" width="0.0012" height="0.0012" patternUnits="userSpaceOnUse" patternTransform="rotate(45)">
      <line x1="0" y1="0" x2="0" y2="0.0012" stroke="rgb(60,60,60)" stroke-width="0.0001" stroke-opacity="0.6"/>
    </pattern>
    <pattern id="hatch_bracket" width="0.0012" height="0.0012" patternUnits="userSpaceOnUse" patternTransform="rotate(75)">
      <line x1="0" y1="0" x2="0" y2="0.0012" stroke="rgb(50,120,190)" stroke-width="0.0001" stroke-opacity="0.6"/>
    </pattern>
  </defs>
  <g transform="scale(1,-1)" stroke-linecap="round">
    <g fill="none" stroke="rgb(60,60,60)" stroke-width="0.00035" id="servo">
      <line x1="0.0028" y1="-0.0084" x2="0.0028" y2="0.0084" />
      <path d="M 0.0028,-0.0084 A 0.004,0.004 -90.0 0,1 0.0068,-0.0124" />
      <line x1="0.0068" y1="-0.0124" x2="0.0442" y2="-0.0124" />
      <path d="M 0.0482,-0.0084 A 0.004,0.004 -90.0 0,0 0.0442,-0.0124" />
      <line x1="0.0482" y1="-0.0084" x2="0.0482" y2="0.0084" />
      <path d="M 0.0482,0.0084 A 0.004,0.004 -90.0 0,1 0.0442,0.0124" />
      <line x1="0.0068" y1="0.0124" x2="0.0442" y2="0.0124" />
      <path d="M 0.0028,0.0084 A 0.004,0.004 -90.0 0,0 0.0068,0.0124" />
      <path d="M 0.0658,0.0124 A 0.004,0.004 180.0 0,1 0.0618,0.0084" />
      <line x1="0.0658" y1="0.0124" x2="0.1032" y2="0.0124" />
      <path d="M 0.1072,0.0084 A 0.004,0.004 0.0 0,1 0.1032,0.0124" />
      <line x1="0.1072" y1="0.0084" x2="0.1072" y2="-0.0084" />
      <path d="M 0.1032,-0.0124 A 0.004,0.004 0.0 0,1 0.1072,-0.0084" />
      <line x1="0.0658" y1="-0.0124" x2="0.1032" y2="-0.0124" />
      <path d="M 0.0618,-0.0084 A 0.004,0.004 180.0 0,1 0.0658,-0.0124" />
      <line x1="0.0618" y1="0.0084" x2="0.0618" y2="-0.0084" />
      <line x1="0.1208" y1="-0.0163" x2="0.1208" y2="0.0163" />
      <line x1="0.1208" y1="0.0163" x2="0.1208" y2="-0.0163" />
      <path d="M 0.1208,0.0163 A 0.004,7.964046740044567e-08 -3.901348164522844e-24 0,0 0.124801,0.0163" />
      <path d="M 0.1208,-0.0163 A 0.004,7.964046740044567e-08 -3.901348164522844e-24 0,0 0.122801,-0.0163" />
      <line x1="0.124801" y1="-0.0163" x2="0.124801" y2="0.0163" />
      <path d="M 0.1208,-0.0163 A 0.004,7.964046740044567e-08 180.0 0,1 0.1228,-0.0163" />
      <path d="M 0.1662,-0.0163 A 0.004,7.964046740044567e-08 180.0 0,1 0.163201,-0.0163" />
      <line x1="0.124801" y1="0.0163" x2="0.162201" y2="0.0163" />
      <path d="M 0.1662,0.0163 A 0.004,7.964046740044567e-08 180.0 0,1 0.162201,0.0163" />
      <line x1="0.162201" y1="0.0163" x2="0.164001" y2="0.0163" />
      <line x1="0.122801" y1="-0.0163" x2="0.124801" y2="-0.0163" />
      <line x1="0.162201" y1="-0.0163" x2="0.162201" y2="0.0163" />
      <line x1="0.162201" y1="-0.0163" x2="0.163201" y2="-0.0163" />
      <line x1="0.163201" y1="-0.0184" x2="0.163201" y2="-0.0163" />
      <line x1="0.122801" y1="-0.0184" x2="0.163201" y2="-0.0184" />
      <line x1="0.122801" y1="-0.0184" x2="0.122801" y2="-0.0163" />
      <line x1="0.1228" y1="-0.0184" x2="0.1228" y2="-0.0163" />
      <line x1="0.1228" y1="-0.0184" x2="0.1632" y2="-0.0184" />
      <line x1="0.1662" y1="-0.0163" x2="0.1662" y2="0.0163" />
      <path d="M 0.146,0.018 A 0.002,3.9820233700222834e-08 -3.901348164522844e-24 0,0 0.148001,0.018" />
      <line x1="0.148001" y1="0.018" x2="0.164001" y2="0.018" />
      <path d="M 0.166,0.018 A 0.002,3.9820233700222834e-08 180.0 0,1 0.164001,0.018" />
      <path d="M 0.128101,-0.0184 A 0.0016,3.185618696017826e-08 -3.1156113220371268e-24 0,0 0.124901,-0.0184" />
      <path d="M 0.124901,-0.0184 A 0.0016,3.185618696017826e-08 -3.1156113220371268e-24 1,0 0.128101,-0.0184" />
      <path d="M 0.145101,-0.0184 A 0.0016000000000000044,3.185618696017835e-08 -3.1156113220371268e-24 0,0 0.141901,-0.0184" />
      <path d="M 0.141901,-0.0184 A 0.0016000000000000044,3.185618696017835e-08 -3.1156113220371268e-24 1,0 0.145101,-0.0184" />
      <path d="M 0.162101,-0.0184 A 0.0016000000000000044,3.185618696017835e-08 -3.1156113220371268e-24 0,0 0.158901,-0.0184" />
      <path d="M 0.158901,-0.0184 A 0.0016000000000000044,3.185618696017835e-08 -3.1156113220371268e-24 1,0 0.162101,-0.0184" />
      <path d="M 0.1281,-0.0184 A 0.0016,3.185618696017826e-08 -3.1156113220371268e-24 0,0 0.1249,-0.0184" />
      <path d="M 0.1249,-0.0184 A 0.0016,3.185618696017826e-08 -3.1156113220371268e-24 1,0 0.1281,-0.0184" />
      <path d="M 0.1451,-0.0184 A 0.0016000000000000044,3.185618696017835e-08 -3.1156113220371268e-24 0,0 0.1419,-0.0184" />
      <path d="M 0.1419,-0.0184 A 0.0016000000000000044,3.185618696017835e-08 -3.1156113220371268e-24 1,0 0.1451,-0.0184" />
      <path d="M 0.1621,-0.0184 A 0.0016,3.185618696017826e-08 -3.1156113220371268e-24 0,0 0.1589,-0.0184" />
      <path d="M 0.1589,-0.0184 A 0.0016,3.185618696017826e-08 -3.1156113220371268e-24 1,0 0.1621,-0.0184" />
      <path d="M 0.1515,0.0195 A 0.004500000000000004,8.959552582550142e-08 -3.1156113220371268e-24 0,0 0.1605,0.0195" />
      <line x1="0.146" y1="0.0163" x2="0.146" y2="0.018" />
      <line x1="0.148001" y1="0.0163" x2="0.148001" y2="0.018" />
      <line x1="0.164001" y1="0.0163" x2="0.164001" y2="0.018" />
      <line x1="0.166" y1="0.0163" x2="0.166" y2="0.018" />
      <line x1="0.1208" y1="-0.0163" x2="0.1208" y2="0.0163" />
      <line x1="0.1662" y1="-0.0163" x2="0.1662" y2="0.0163" />
      <line x1="0.1605" y1="0.018" x2="0.1605" y2="0.0195" />
      <line x1="0.1515" y1="0.018" x2="0.1515" y2="0.0195" />
    </g>
    <g fill="url(#hatch_servo)" stroke="none" stroke-width="0" id="servo_fill">
      <path d="M 0.0028,0.0084 L 0.0028,-0.0084 A 0.004,0.004 -90.0 0,1 0.0068,-0.0124 L 0.0442,-0.0124 A 0.004,0.004 -90.0 0,1 0.0482,-0.0084 L 0.0482,0.0084 A 0.004,0.004 -90.0 0,1 0.0442,0.0124 L 0.0068,0.0124 A 0.004,0.004 -90.0 0,1 0.0028,0.0084" />
      <path d="M 0.0658,0.0124 A 0.004,0.004 180.0 0,1 0.0618,0.0084 L 0.0618,-0.0084 A 0.004,0.004 180.0 0,1 0.0658,-0.0124 L 0.1032,-0.0124 A 0.004,0.004 0.0 0,1 0.1072,-0.0084 L 0.1072,0.0084 A 0.004,0.004 0.0 0,1 0.1032,0.0124 L 0.0658,0.0124" />
    </g>
    <g fill="none" stroke="rgb(60,60,60)" stroke-opacity="0.4" stroke-width="0.00015" id="servo_hidden" stroke-dasharray="0.0018 0.00045">
      <path d="M 0.122801,-0.0163 A 0.004,7.964046740044567e-08 -3.901348164522844e-24 0,0 0.124801,-0.0163" />
      <line x1="0.1228" y1="-0.0163" x2="0.1632" y2="-0.0163" />
      <line x1="0.122801" y1="-0.0163" x2="0.1632" y2="-0.0163" />
      <path d="M 0.1662,-0.0163 A 0.004,7.964046740044567e-08 -3.901348164522844e-24 0,0 0.1632,-0.0163" />
      <path d="M 0.159,-0.0163 A 0.0030000000000000027,5.973035055033429e-08 -3.1156113220371268e-24 0,0 0.153,-0.0163" />
      <path d="M 0.153,-0.0163 A 0.0030000000000000027,5.973035055033429e-08 -3.1156113220371268e-24 1,0 0.159,-0.0163" />
      <line x1="0.1248" y1="0.0163" x2="0.1248" y2="-0.0163" />
      <path d="M 0.1208,0.0163 A 0.004,7.964046740044567e-08 180.0 0,1 0.1248,0.0163" />
      <path d="M 0.1228,-0.0163 A 0.004,7.964046740044567e-08 180.0 0,1 0.1248,-0.0163" />
      <line x1="0.1248" y1="0.0163" x2="0.1622" y2="0.0163" />
      <path d="M 0.1662,0.0163 A 0.004,7.964046740044567e-08 -3.901348164522844e-24 0,0 0.1622,0.0163" />
      <path d="M 0.146,0.0163 A 0.002,3.9820233700222834e-08 -3.901348164522844e-24 0,0 0.148001,0.0163" />
      <line x1="0.148001" y1="0.0163" x2="0.162201" y2="0.0163" />
      <path d="M 0.166,0.0163 A 0.002,3.9820233700222834e-08 180.0 0,1 0.164001,0.0163" />
      <path d="M 0.166,0.0163 A 0.002,3.9820233700222834e-08 -3.901348164522844e-24 0,0 0.164,0.0163" />
      <line x1="0.148" y1="0.0163" x2="0.164" y2="0.0163" />
      <path d="M 0.146,0.0163 A 0.002,3.9820233700222834e-08 180.0 0,1 0.148,0.0163" />
      <line x1="0.1228" y1="-0.0184" x2="0.1228" y2="-0.0163" />
      <line x1="0.1228" y1="-0.0184" x2="0.1228" y2="-0.0163" />
      <line x1="0.1228" y1="-0.0184" x2="0.1632" y2="-0.0184" />
      <line x1="0.1632" y1="-0.0184" x2="0.1632" y2="-0.0163" />
      <line x1="0.1632" y1="-0.0184" x2="0.1632" y2="-0.0163" />
      <line x1="0.1632" y1="-0.0184" x2="0.1632" y2="-0.0163" />
      <path d="M 0.163201,-0.0163 A 0.004,7.964046740044567e-08 180.0 0,1 0.162201,-0.0163" />
      <line x1="0.1622" y1="0.0163" x2="0.1622" y2="-0.0163" />
      <line x1="0.1662" y1="0.0163" x2="0.1662" y2="-0.0163" />
      <path d="M 0.1632,-0.0163 A 0.004,7.964046740044567e-08 -3.901348164522844e-24 0,0 0.1622,-0.0163" />
      <path d="M 0.159,-0.0176 A 0.0030000000000000027,5.973035055033429e-08 -3.1156113220371268e-24 0,0 0.153,-0.0176" />
      <path d="M 0.153,-0.0176 A 0.0030000000000000027,5.973035055033429e-08 -3.1156113220371268e-24 1,0 0.159,-0.0176" />
      <line x1="0.1622" y1="-0.0163" x2="0.1632" y2="-0.0163" />
      <line x1="0.1228" y1="-0.0184" x2="0.1632" y2="-0.0184" />
      <line x1="0.1228" y1="-0.0163" x2="0.1248" y2="-0.0163" />
      <path d="M 0.166,0.018 A 0.002,3.9820233700222834e-08 -3.901348164522844e-24 0,0 0.164,0.018" />
      <line x1="0.148" y1="0.018" x2="0.164" y2="0.018" />
      <path d="M 0.146,0.018 A 0.002,3.9820233700222834e-08 180.0 0,1 0.148,0.018" />
      <path d="M 0.1605,0.018 A 0.004500000000000004,8.959552582550142e-08 -3.1156113220371268e-24 0,0 0.1515,0.018" />
      <path d="M 0.1515,0.018 A 0.004500000000000004,8.959552582550142e-08 -3.1156113220371268e-24 0,0 0.1605,0.018" />
      <path d="M 0.128101,-0.0084 A 0.0016,3.185618696017826e-08 -3.1156113220371268e-24 0,0 0.124901,-0.0084" />
      <path d="M 0.124901,-0.0084 A 0.0016,3.185618696017826e-08 -3.1156113220371268e-24 1,0 0.128101,-0.0084" />
      <path d="M 0.145101,-0.0084 A 0.0016000000000000044,3.185618696017835e-08 -3.1156113220371268e-24 0,0 0.141901,-0.0084" />
      <path d="M 0.141901,-0.0084 A 0.0016000000000000044,3.185618696017835e-08 -3.1156113220371268e-24 1,0 0.145101,-0.0084" />
      <path d="M 0.162101,-0.0084 A 0.0016000000000000044,3.185618696017835e-08 -3.1156113220371268e-24 0,0 0.158901,-0.0084" />
      <path d="M 0.158901,-0.0084 A 0.0016000000000000044,3.185618696017835e-08 -3.1156113220371268e-24 1,0 0.162101,-0.0084" />
      <path d="M 0.1281,-0.0084 A 0.0016,3.185618696017826e-08 -3.1156113220371268e-24 0,0 0.1249,-0.0084" />
      <path d="M 0.1249,-0.0084 A 0.0016,3.185618696017826e-08 -3.1156113220371268e-24 1,0 0.1281,-0.0084" />
      <path d="M 0.1451,-0.0084 A 0.0016000000000000044,3.185618696017835e-08 -3.1156113220371268e-24 0,0 0.1419,-0.0084" />
      <path d="M 0.1419,-0.0084 A 0.0016000000000000044,3.185618696017835e-08 -3.1156113220371268e-24 1,0 0.1451,-0.0084" />
      <path d="M 0.1621,-0.0084 A 0.0016,3.185618696017826e-08 -3.1156113220371268e-24 0,0 0.1589,-0.0084" />
      <path d="M 0.1589,-0.0084 A 0.0016,3.185618696017826e-08 -3.1156113220371268e-24 1,0 0.1621,-0.0084" />
      <path d="M 0.1605,0.0195 A 0.004500000000000004,8.959552582550142e-08 -3.1156113220371268e-24 0,0 0.1515,0.0195" />
      <line x1="0.153" y1="-0.0176" x2="0.153" y2="-0.0163" />
      <line x1="0.124901" y1="-0.0184" x2="0.124901" y2="-0.0084" />
      <line x1="0.141901" y1="-0.0184" x2="0.141901" y2="-0.0084" />
      <line x1="0.158901" y1="-0.0184" x2="0.158901" y2="-0.0084" />
      <line x1="0.1249" y1="-0.0184" x2="0.1249" y2="-0.0084" />
      <line x1="0.1419" y1="-0.0184" x2="0.1419" y2="-0.0084" />
      <line x1="0.1589" y1="-0.0184" x2="0.1589" y2="-0.0084" />
      <line x1="0.166" y1="0.0163" x2="0.166" y2="0.018" />
      <line x1="0.164" y1="0.0163" x2="0.164" y2="0.018" />
      <line x1="0.148" y1="0.0163" x2="0.148" y2="0.018" />
      <line x1="0.146" y1="0.0163" x2="0.146" y2="0.018" />
    </g>
    <g fill="none" stroke="rgb(50,120,190)" stroke-width="0.00035" id="bracket">
      <line x1="0.0" y1="0.0152" x2="0.051" y2="0.0152" />
      <line x1="0.051" y1="0.0152" x2="0.051" y2="-0.0152" />
      <line x1="0.0" y1="-0.0152" x2="0.051" y2="-0.0152" />
      <line x1="0.0" y1="0.0152" x2="0.0" y2="-0.0152" />
      <line x1="0.0025" y1="0.0127" x2="0.0025" y2="-0.0127" />
      <line x1="0.0025" y1="-0.0127" x2="0.0485" y2="-0.0127" />
      <line x1="0.0485" y1="0.0127" x2="0.0485" y2="-0.0127" />
      <line x1="0.0025" y1="0.0127" x2="0.0485" y2="0.0127" />
      <line x1="0.059" y1="0.0152" x2="0.11" y2="0.0152" />
      <line x1="0.11" y1="0.0152" x2="0.11" y2="-0.0152" />
      <line x1="0.059" y1="-0.0152" x2="0.11" y2="-0.0152" />
      <line x1="0.059" y1="0.0152" x2="0.059" y2="-0.0152" />
      <line x1="0.0615" y1="0.0127" x2="0.0615" y2="-0.0127" />
      <line x1="0.0615" y1="-0.0127" x2="0.1075" y2="-0.0127" />
      <line x1="0.1075" y1="0.0127" x2="0.1075" y2="-0.0127" />
      <line x1="0.0615" y1="0.0127" x2="0.1075" y2="0.0127" />
      <line x1="0.118001" y1="-0.021452" x2="0.118001" y2="0.022298" />
      <line x1="0.118001" y1="0.022298" x2="0.118" y2="0.022302" />
      <line x1="0.118" y1="-0.019299" x2="0.118" y2="-0.019301" />
      <line x1="0.118" y1="-0.019299" x2="0.118" y2="-0.013299" />
      <line x1="0.118001" y1="-0.021452" x2="0.169001" y2="-0.021452" />
      <line x1="0.169001" y1="-0.021452" x2="0.169001" y2="0.022298" />
      <line x1="0.118001" y1="0.022298" x2="0.169001" y2="0.022298" />
      <line x1="0.118" y1="0.022302" x2="0.169" y2="0.022302" />
      <line x1="0.169001" y1="0.022298" x2="0.169" y2="0.022302" />
    </g>
    <g fill="url(#hatch_bracket)" stroke="none" stroke-width="0" id="bracket_fill">
      <path d="M 0.051,0.0152 L 0.0,0.0152 L 0.0,-0.0152 L 0.051,-0.0152 L 0.051,0.0152 M 0.0025,-0.0127 L 0.0025,0.0127 L 0.0485,0.0127 L 0.0485,-0.0127 L 0.0025,-0.0127" />
      <path d="M 0.11,0.0152 L 0.059,0.0152 L 0.059,-0.0152 L 0.11,-0.0152 L 0.11,0.0152 M 0.0615,-0.0127 L 0.0615,0.0127 L 0.1075,0.0127 L 0.1075,-0.0127 L 0.0615,-0.0127" />
    </g>
    <g fill="none" stroke="rgb(50,120,190)" stroke-opacity="0.4" stroke-width="0.00015" id="bracket_hidden" stroke-dasharray="0.0018 0.00045">
      <line x1="0.118001" y1="-0.021452" x2="0.118" y2="-0.021448" />
      <line x1="0.118" y1="-0.021448" x2="0.118" y2="0.022302" />
      <line x1="0.118" y1="-0.013299" x2="0.118" y2="-0.013301" />
      <line x1="0.118" y1="-0.019301" x2="0.118" y2="-0.013301" />
      <line x1="0.118" y1="-0.021448" x2="0.169" y2="-0.021448" />
      <line x1="0.169001" y1="-0.021452" x2="0.169" y2="-0.021448" />
      <path d="M 0.1281,-0.021451 A 0.0016,2.0379985907751456e-07 7.105226005215031e-25 0,1 0.1249,-0.021451" />
      <path d="M 0.1249,-0.021451 A 0.0016,2.0379985907751456e-07 7.105226005215031e-25 1,1 0.1281,-0.021451" />
      <path d="M 0.1451,-0.021451 A 0.0016000000000000044,2.037998590775151e-07 7.105226005215031e-25 0,1 0.1419,-0.021451" />
      <path d="M 0.1419,-0.021451 A 0.0016000000000000044,2.037998590775151e-07 7.105226005215031e-25 1,1 0.1451,-0.021451" />
      <path d="M 0.1621,-0.021451 A 0.0016,2.0379985907751456e-07 7.105226005215031e-25 0,1 0.1589,-0.021451" />
      <path d="M 0.1589,-0.021451 A 0.0016,2.0379985907751456e-07 7.105226005215031e-25 1,1 0.1621,-0.021451" />
      <path d="M 0.1281,-0.021449 A 0.0016,2.0379985907751456e-07 7.105226005215031e-25 0,1 0.1249,-0.021449" />
      <path d="M 0.1249,-0.021449 A 0.0016,2.0379985907751456e-07 7.105226005215031e-25 1,1 0.1281,-0.021449" />
      <path d="M 0.1451,-0.021449 A 0.0016000000000000044,2.037998590775151e-07 7.105226005215031e-25 0,1 0.1419,-0.021449" />
      <path d="M 0.1419,-0.021449 A 0.0016000000000000044,2.037998590775151e-07 7.105226005215031e-25 1,1 0.1451,-0.021449" />
      <path d="M 0.1621,-0.021449 A 0.0016,2.0379985907751456e-07 7.105226005215031e-25 0,1 0.1589,-0.021449" />
      <path d="M 0.1589,-0.021449 A 0.0016,2.0379985907751456e-07 7.105226005215031e-25 1,1 0.1621,-0.021449" />
      <line x1="0.169" y1="-0.021448" x2="0.169" y2="0.022302" />
      <line x1="0.118001" y1="-0.019299" x2="0.1218" y2="-0.019299" />
      <line x1="0.1218" y1="-0.019301" x2="0.1218" y2="-0.019299" />
      <line x1="0.118" y1="-0.019301" x2="0.1218" y2="-0.019301" />
      <line x1="0.1218" y1="-0.019299" x2="0.1218" y2="-0.016599" />
      <line x1="0.1218" y1="-0.016599" x2="0.1205" y2="-0.016599" />
      <line x1="0.1205" y1="-0.016599" x2="0.1205" y2="-0.013299" />
      <line x1="0.118001" y1="-0.013299" x2="0.1205" y2="-0.013299" />
      <line x1="0.1205" y1="-0.013299" x2="0.1205" y2="-0.013301" />
      <line x1="0.118" y1="-0.013301" x2="0.1205" y2="-0.013301" />
      <line x1="0.1218" y1="-0.019301" x2="0.1218" y2="-0.016601" />
      <line x1="0.1218" y1="-0.016601" x2="0.1205" y2="-0.016601" />
      <line x1="0.1205" y1="-0.016601" x2="0.1205" y2="-0.013301" />
      <path d="M 0.1281,-0.016601 A 0.0016,2.0379985907751456e-07 7.105226005215031e-25 0,1 0.1249,-0.016601" />
      <path d="M 0.1249,-0.016601 A 0.0016,2.0379985907751456e-07 7.105226005215031e-25 1,1 0.1281,-0.016601" />
      <line x1="0.1281" y1="-0.021451" x2="0.1281" y2="-0.016601" />
      <path d="M 0.1451,-0.016601 A 0.0016000000000000044,2.037998590775151e-07 7.105226005215031e-25 0,1 0.1419,-0.016601" />
      <path d="M 0.1419,-0.016601 A 0.0016000000000000044,2.037998590775151e-07 7.105226005215031e-25 1,1 0.1451,-0.016601" />
      <line x1="0.1451" y1="-0.021451" x2="0.1451" y2="-0.016601" />
      <path d="M 0.1621,-0.016601 A 0.0016,2.0379985907751456e-07 7.105226005215031e-25 0,1 0.1589,-0.016601" />
      <path d="M 0.1589,-0.016601 A 0.0016,2.0379985907751456e-07 7.105226005215031e-25 1,1 0.1621,-0.016601" />
      <line x1="0.1621" y1="-0.021451" x2="0.1621" y2="-0.016601" />
      <path d="M 0.1281,-0.016599 A 0.0016,2.0379985907751456e-07 7.105226005215031e-25 0,1 0.1249,-0.016599" />
      <path d="M 0.1249,-0.016599 A 0.0016,2.0379985907751456e-07 7.105226005215031e-25 1,1 0.1281,-0.016599" />
      <line x1="0.1281" y1="-0.021449" x2="0.1281" y2="-0.016599" />
      <path d="M 0.1451,-0.016599 A 0.0016000000000000044,2.037998590775151e-07 7.105226005215031e-25 0,1 0.1419,-0.016599" />
      <path d="M 0.1419,-0.016599 A 0.0016000000000000044,2.037998590775151e-07 7.105226005215031e-25 1,1 0.1451,-0.016599" />
      <line x1="0.1451" y1="-0.021449" x2="0.1451" y2="-0.016599" />
      <path d="M 0.1621,-0.016599 A 0.0016,2.0379985907751456e-07 7.105226005215031e-25 0,1 0.1589,-0.016599" />
      <path d="M 0.1589,-0.016599 A 0.0016,2.0379985907751456e-07 7.105226005215031e-25 1,1 0.1621,-0.016599" />
      <line x1="0.1621" y1="-0.021449" x2="0.1621" y2="-0.016599" />
      <line x1="0.1218" y1="-0.016601" x2="0.1218" y2="-0.016599" />
      <line x1="0.1205" y1="-0.016598" x2="0.1665" y2="-0.016598" />
      <line x1="0.1665" y1="-0.016602" x2="0.1665" y2="-0.016598" />
      <line x1="0.1205" y1="-0.016602" x2="0.1665" y2="-0.016602" />
      <line x1="0.1205" y1="0.019798" x2="0.1205" y2="0.019802" />
      <line x1="0.1205" y1="-0.016598" x2="0.1205" y2="0.019802" />
      <line x1="0.1205" y1="-0.016602" x2="0.1205" y2="0.019798" />
      <line x1="0.1665" y1="-0.016598" x2="0.1665" y2="0.019802" />
      <line x1="0.1205" y1="0.019802" x2="0.1665" y2="0.019802" />
      <line x1="0.1665" y1="-0.016602" x2="0.1665" y2="0.019798" />
      <line x1="0.1665" y1="0.019798" x2="0.1665" y2="0.019802" />
      <line x1="0.1205" y1="0.019798" x2="0.1665" y2="0.019798" />
      <line x1="0.1249" y1="-0.021451" x2="0.1249" y2="-0.016601" />
      <line x1="0.1419" y1="-0.021451" x2="0.1419" y2="-0.016601" />
      <line x1="0.1589" y1="-0.021451" x2="0.1589" y2="-0.016601" />
      <line x1="0.1249" y1="-0.021449" x2="0.1249" y2="-0.016599" />
      <line x1="0.1419" y1="-0.021449" x2="0.1419" y2="-0.016599" />
      <line x1="0.1589" y1="-0.021449" x2="0.1589" y2="-0.016599" />
    </g>
  </g>
  <text x="0.025500" y="-0.027977" text-anchor="middle" font-family="'Input Sans Narrow', 'DejaVu Sans', Arial, sans-serif" font-size="0.002500" font-weight="bold" fill="#333">A-A</text>
  <text x="0.025500" y="-0.024477" text-anchor="middle" font-family="'Input Sans Narrow', 'DejaVu Sans', Arial, sans-serif" font-size="0.001800" fill="#888">shaft_face</text>
  <line x1="0.000000" y1="0.016000" x2="0.000000" y2="0.019000" stroke="#5C7080" stroke-width="0.000140" stroke-opacity="0.5"/>
  <line x1="0.051000" y1="0.016000" x2="0.051000" y2="0.019000" stroke="#5C7080" stroke-width="0.000140" stroke-opacity="0.5"/>
  <line x1="0.000000" y1="0.017400" x2="0.000000" y2="0.019000" stroke="#5C7080" stroke-width="0.000200"/>
  <line x1="0.051000" y1="0.017400" x2="0.051000" y2="0.019000" stroke="#5C7080" stroke-width="0.000200"/>
  <line x1="0.000000" y1="0.018200" x2="0.051000" y2="0.018200" stroke="#5C7080" stroke-width="0.000200"/>
  <polygon points="0.000000,0.018200 0.001500,0.017600 0.001500,0.018800" fill="#5C7080"/>
  <polygon points="0.051000,0.018200 0.049500,0.017600 0.049500,0.018800" fill="#5C7080"/>
  <text x="0.025500" y="0.017000" text-anchor="middle" font-family="'Input Sans Narrow', 'DejaVu Sans', Arial, sans-serif" font-size="0.001600" fill="#5C7080">51.0</text>
  <line x1="0.051800" y1="-0.015200" x2="0.054800" y2="-0.015200" stroke="#5C7080" stroke-width="0.000140" stroke-opacity="0.5"/>
  <line x1="0.051800" y1="0.015200" x2="0.054800" y2="0.015200" stroke="#5C7080" stroke-width="0.000140" stroke-opacity="0.5"/>
  <line x1="0.053200" y1="-0.015200" x2="0.054800" y2="-0.015200" stroke="#5C7080" stroke-width="0.000200"/>
  <line x1="0.053200" y1="0.015200" x2="0.054800" y2="0.015200" stroke="#5C7080" stroke-width="0.000200"/>
  <line x1="0.054000" y1="-0.015200" x2="0.054000" y2="0.015200" stroke="#5C7080" stroke-width="0.000200"/>
  <polygon points="0.054000,-0.015200 0.053400,-0.013700 0.054600,-0.013700" fill="#5C7080"/>
  <polygon points="0.054000,0.015200 0.053400,0.013700 0.054600,0.013700" fill="#5C7080"/>
  <text x="0.055500" y="-0.000000" text-anchor="middle" dominant-baseline="central" font-family="'Input Sans Narrow', 'DejaVu Sans', Arial, sans-serif" font-size="0.001600" fill="#5C7080" transform="rotate(-90 0.055500 -0.000000)">30.4</text>
  <text x="0.084500" y="-0.027977" text-anchor="middle" font-family="'Input Sans Narrow', 'DejaVu Sans', Arial, sans-serif" font-size="0.002500" font-weight="bold" fill="#333">B-B</text>
  <text x="0.084500" y="-0.024477" text-anchor="middle" font-family="'Input Sans Narrow', 'DejaVu Sans', Arial, sans-serif" font-size="0.001800" fill="#888">mid_body</text>
  <text x="0.143500" y="-0.027977" text-anchor="middle" font-family="'Input Sans Narrow', 'DejaVu Sans', Arial, sans-serif" font-size="0.002500" font-weight="bold" fill="#333">side_XZ</text>
  <line x1="0.118000" y1="0.022252" x2="0.118000" y2="0.025252" stroke="#5C7080" stroke-width="0.000140" stroke-opacity="0.5"/>
  <line x1="0.169001" y1="0.022252" x2="0.169001" y2="0.025252" stroke="#5C7080" stroke-width="0.000140" stroke-opacity="0.5"/>
  <line x1="0.118000" y1="0.023652" x2="0.118000" y2="0.025252" stroke="#5C7080" stroke-width="0.000200"/>
  <line x1="0.169001" y1="0.023652" x2="0.169001" y2="0.025252" stroke="#5C7080" stroke-width="0.000200"/>
  <line x1="0.118000" y1="0.024452" x2="0.169001" y2="0.024452" stroke="#5C7080" stroke-width="0.000200"/>
  <polygon points="0.118000,0.024452 0.119500,0.023852 0.119500,0.025052" fill="#5C7080"/>
  <polygon points="0.169001,0.024452 0.167501,0.023852 0.167501,0.025052" fill="#5C7080"/>
  <text x="0.143500" y="0.023252" text-anchor="middle" font-family="'Input Sans Narrow', 'DejaVu Sans', Arial, sans-serif" font-size="0.001600" fill="#5C7080">51.0</text>
  <line x1="0.169801" y1="-0.022302" x2="0.172801" y2="-0.022302" stroke="#5C7080" stroke-width="0.000140" stroke-opacity="0.5"/>
  <line x1="0.169801" y1="0.021452" x2="0.172801" y2="0.021452" stroke="#5C7080" stroke-width="0.000140" stroke-opacity="0.5"/>
  <line x1="0.171201" y1="-0.022302" x2="0.172801" y2="-0.022302" stroke="#5C7080" stroke-width="0.000200"/>
  <line x1="0.171201" y1="0.021452" x2="0.172801" y2="0.021452" stroke="#5C7080" stroke-width="0.000200"/>
  <line x1="0.172001" y1="-0.022302" x2="0.172001" y2="0.021452" stroke="#5C7080" stroke-width="0.000200"/>
  <polygon points="0.172001,-0.022302 0.171401,-0.020802 0.172601,-0.020802" fill="#5C7080"/>
  <polygon points="0.172001,0.021452 0.171401,0.019952 0.172601,0.019952" fill="#5C7080"/>
  <text x="0.173501" y="-0.000425" text-anchor="middle" dominant-baseline="central" font-family="'Input Sans Narrow', 'DejaVu Sans', Arial, sans-serif" font-size="0.001600" fill="#5C7080" transform="rotate(-90 0.173501 -0.000425)">43.8</text>
  <line x1="0.115000" y1="-0.016300" x2="0.172001" y2="-0.016300" stroke="#555" stroke-width="0.000250" stroke-dasharray="0.002500,0.000800,0.000500,0.000800"/>
  <text x="0.113500" y="-0.015700" text-anchor="end" font-family="'Input Sans Narrow', 'DejaVu Sans', Arial, sans-serif" font-size="0.002000" font-weight="bold" fill="#555">A</text>
  <text x="0.173501" y="-0.015700" text-anchor="start" font-family="'Input Sans Narrow', 'DejaVu Sans', Arial, sans-serif" font-size="0.002000" font-weight="bold" fill="#555">A</text>
  <line x1="0.115000" y1="-0.000000" x2="0.172001" y2="-0.000000" stroke="#555" stroke-width="0.000250" stroke-dasharray="0.002500,0.000800,0.000500,0.000800"/>
  <text x="0.113500" y="0.000600" text-anchor="end" font-family="'Input Sans Narrow', 'DejaVu Sans', Arial, sans-serif" font-size="0.002000" font-weight="bold" fill="#555">B</text>
  <text x="0.173501" y="0.000600" text-anchor="start" font-family="'Input Sans Narrow', 'DejaVu Sans', Arial, sans-serif" font-size="0.002000" font-weight="bold" fill="#555">B</text>
  <text x="-0.001175" y="0.029627" font-family="'Input Sans Narrow', 'DejaVu Sans', Arial, sans-serif" font-size="0.003500" font-weight="bold" fill="#222">joint_shoulder_pan</text>
  <line x1="-0.001175" y1="0.033627" x2="0.008825" y2="0.033627" stroke="#333" stroke-width="0.000350"/>
  <line x1="-0.001175" y1="0.032627" x2="-0.001175" y2="0.034627" stroke="#333" stroke-width="0.000250"/>
  <line x1="0.008825" y1="0.032627" x2="0.008825" y2="0.034627" stroke="#333" stroke-width="0.000250"/>
  <text x="0.010325" y="0.034327" font-family="'Input Sans Narrow', 'DejaVu Sans', Arial, sans-serif" font-size="0.001800" fill="#888">10 mm</text>
  <rect x="0.028825" y="0.027127" width="0.004000" height="0.002500" fill="url(#hatch_servo)" stroke="rgb(60,60,60)" stroke-width="0.000300"/>
  <text x="0.034325" y="0.029127" font-family="'Input Sans Narrow', 'DejaVu Sans', Arial, sans-serif" font-size="0.001800" fill="rgb(60,60,60)">servo</text>
  <rect x="0.028825" y="0.030627" width="0.004000" height="0.002500" fill="url(#hatch_bracket)" stroke="rgb(50,120,190)" stroke-width="0.000300"/>
  <text x="0.034325" y="0.032627" font-family="'Input Sans Narrow', 'DejaVu Sans', Arial, sans-serif" font-size="0.001800" fill="rgb(50,120,190)">bracket</text>
</svg>