<?xml version='1.0' encoding='utf-8'?>
<svg width="223.45mm" height="85.77mm" viewBox="-0.003175 -0.047197 0.223454 0.085772" version="1.1" xmlns="http://www.w3.org/2000/svg">
  <defs>
    <pattern id="hatch_servo" width="0.0012" height="0.0012" patternUnits="userSpaceOnUse" patternTransform="rotate(45)">
      <line x1="0" y1="0" x2="0" y2="0.0012" stroke="rgb(60,60,60)" stroke-width="0.0001" stroke-opacity="0.6"/>
    </pattern>
    <pattern id="hatch_bracket" width="0.0012" height="0.0012" patternUnits="userSpaceOnUse" patternTransform="rotate(75)">
      <line x1="0" y1="0" x2="0" y2="0.0012" stroke="rgb(50,120,190)" stroke-width="0.0001" stroke-opacity="0.6"/>
    </pattern>
  </defs>
  <g transform="scale(1,-1)" stroke-linecap="round">
    <g fill="none" stroke="rgb(60,60,60)" stroke-width="0.00035" id="servo">
      <line x1="0.0153" y1="-0.0084" x2="0.0153" y2="0.0084" />
      <path d="M 0.0153,-0.0084 A 0.004,0.004 -90.0 0,1 0.0193,-0.0124" />
      <line x1="0.0193" y1="-0.0124" x2="0.0567" y2="-0.0124" />
      <path d="M 0.0607,-0.0084 A 0.004,0.004 -90.0 0,0 0.0567,-0.0124" />
      <line x1="0.0607" y1="-0.0084" x2="0.0607" y2="0.0084" />
      <path d="M 0.0607,0.0084 A 0.004,0.004 -90.0 0,1 0.0567,0.0124" />
      <line x1="0.0193" y1="0.0124" x2="0.0567" y2="0.0124" />
      <path d="M 0.0153,0.0084 A 0.004,0.004 -90.0 0,0 0.0193,0.0124" />
      <path d="M 0.0935,0.0124 A 0.004,0.004 180.0 0,1 0.0895,0.0084" />
      <line x1="0.0935" y1="0.0124" x2="0.1309" y2="0.0124" />
      <path d="M 0.1349,0.0084 A 0.004,0.004 0.0 0,1 0.1309,0.0124" />
      <line x1="0.1349" y1="0.0084" x2="0.1349" y2="-0.0084" />
      <path d="M 0.1309,-0.0124 A 0.004,0.004 0.0 0,1 0.1349,-0.0084" />
      <line x1="0.0935" y1="-0.0124" x2="0.1309" y2="-0.0124" />
      <path d="M 0.0895,-0.0084 A 0.004,0.004 180.0 0,1 0.0935,-0.0124" />
      <line x1="0.0895" y1="0.0084" x2="0.0895" y2="-0.0084" />
      <line x1="0.163704" y1="-0.0163" x2="0.163704" y2="0.0163" />
      <line x1="0.163704" y1="0.0163" x2="0.163704" y2="-0.0163" />
      <path d="M 0.163704,0.0163 A 0.004,7.964046740044567e-08 -3.901348164522844e-24 0,0 0.167704,0.0163" />
      <path d="M 0.163704,-0.0163 A 0.004,7.964046740044567e-08 -3.901348164522844e-24 0,0 0.165704,-0.0163" />
      <line x1="0.167704" y1="-0.0163" x2="0.167704" y2="0.0163" />
      <path d="M 0.163704,-0.0163 A 0.004,7.964046740044567e-08 180.0 0,1 0.165703,-0.0163" />
      <path d="M 0.209104,-0.0163 A 0.004,7.964046740044567e-08 180.0 0,1 0.206104,-0.0163" />
      <line x1="0.167704" y1="0.0163" x2="0.205104" y2="0.0163" />
      <path d="M 0.209104,0.0163 A 0.004,7.964046740044567e-08 180.0 0,1 0.205104,0.0163" />
      <line x1="0.205104" y1="0.0163" x2="0.206904" y2="0.0163" />
      <line x1="0.165704" y1="-0.0163" x2="0.167704" y2="-0.0163" />
      <line x1="0.205104" y1="-0.0163" x2="0.205104" y2="0.0163" />
      <line x1="0.205104" y1="-0.0163" x2="0.206104" y2="-0.0163" />
      <line x1="0.206104" y1="-0.0184" x2="0.206104" y2="-0.0163" />
      <line x1="0.165704" y1="-0.0184" x2="0.206104" y2="-0.0184" />
      <line x1="0.165704" y1="-0.0184" x2="0.165704" y2="-0.0163" />
      <line x1="0.165704" y1="-0.0184" x2="0.165704" y2="-0.0163" />
      <line x1="0.165704" y1="-0.0184" x2="0.206104" y2="-0.0184" />
      <line x1="0.209104" y1="-0.0163" x2="0.209104" y2="0.0163" />
      <path d="M 0.188904,0.018 A 0.002,3.9820233700222834e-08 -3.901348164522844e-24 0,0 0.190904,0.018" />
      <line x1="0.190904" y1="0.018" x2="0.206904" y2="0.018" />
      <path d="M 0.208904,0.018 A 0.002,3.9820233700222834e-08 180.0 0,1 0.206904,0.018" />
      <path d="M 0.171004,-0.0184 A 0.0016,3.185618696017826e-08 -3.1156113220371268e-24 0,0 0.167804,-0.0184" />
      <path d="M 0.167804,-0.0184 A 0.0016,3.185618696017826e-08 -3.1156113220371268e-24 1,0 0.171004,-0.0184" />
      <path d="M 0.188004,-0.0184 A 0.0016000000000000044,3.185618696017835e-08 -3.1156113220371268e-24 0,0 0.184804,-0.0184" />
      <path d="M 0.184804,-0.0184 A 0.0016000000000000044,3.185618696017835e-08 -3.1156113220371268e-24 1,0 0.188004,-0.0184" />
      <path d="M 0.205004,-0.0184 A 0.0016,3.185618696017826e-08 -3.1156113220371268e-24 0,0 0.201804,-0.0184" />
      <path d="M 0.201804,-0.0184 A 0.0016,3.185618696017826e-08 -3.1156113220371268e-24 1,0 0.205004,-0.0184" />
      <path d="M 0.171004,-0.0184 A 0.0016,3.185618696017826e-08 -3.1156113220371268e-24 0,0 0.167804,-0.0184" />
      <path d="M 0.167804,-0.0184 A 0.0016,3.185618696017826e-08 -3.1156113220371268e-24 1,0 0.171004,-0.0184" />
      <path d="M 0.188004,-0.0184 A 0.0016000000000000044,3.185618696017835e-08 -3.1156113220371268e-24 0,0 0.184804,-0.0184" />
      <path d="M 0.184804,-0.0184 A 0.0016000000000000044,3.185618696017835e-08 -3.1156113220371268e-24 1,0 0.188004,-0.0184" />
      <path d="M 0.205004,-0.0184 A 0.0016,3.185618696017826e-08 -3.1156113220371268e-24 0,0 0.201804,-0.0184" />
      <path d="M 0.201804,-0.0184 A 0.0016,3.185618696017826e-08 -3.1156113220371268e-24 1,0 0.205004,-0.0184" />
      <path d="M 0.194404,0.0195 A 0.004500000000000004,8.959552582550142e-08 -3.1156113220371268e-24 0,0 0.203404,0.0195" />
      <line x1="0.188904" y1="0.0163" x2="0.188904" y2="0.018" />
      <line x1="0.190904" y1="0.0163" x2="0.190904" y2="0.018" />
      <line x1="0.206904" y1="0.0163" x2="0.206904" y2="0.018" />
      <line x1="0.208904" y1="0.0163" x2="0.208904" y2="0.018" />
      <line x1="0.163704" y1="-0.0163" x2="0.163704" y2="0.0163" />
      <line x1="0.209104" y1="-0.0163" x2="0.209104" y2="0.0163" />
      <line x1="0.203404" y1="0.018" x2="0.203404" y2="0.0195" />
      <line x1="0.194404" y1="0.018" x2="0.194404" y2="0.0195" />
    </g>
    <g fill="url(#hatch_servo)" stroke="none" stroke-width="0" id="servo_fill">
      <path d="M 0.0153,0.0084 L 0.0153,-0.0084 A 0.004,0.004 -90.0 0,1 0.0193,-0.0124 L 0.0567,-0.0124 A 0.004,0.004 -90.0 0,1 0.0607,-0.0084 L 0.0607,0.0084 A 0.004,0.004 -90.0 0,1 0.0567,0.0124 L 0.0193,0.0124 A 0.004,0.004 -90.0 0,1 0.0153,0.0084" />
      <path d="M 0.0935,0.0124 A 0.004,0.004 180.0 0,1 0.0895,0.0084 L 0.0895,-0.0084 A 0.004,0.004 180.0 0,1 0.0935,-0.0124 L 0.1309,-0.0124 A 0.004,0.004 0.0 0,1 0.1349,-0.0084 L 0.1349,0.0084 A 0.004,0.004 0.0 0,1 0.1309,0.0124 L 0.0935,0.0124" />
    </g>
    <g fill="none" stroke="rgb(60,60,60)" stroke-opacity="0.4" stroke-width="0.00015" id="servo_hidden" stroke-dasharray="0.0018 0.00045">
      <path d="M 0.165704,-0.0163 A 0.004,7.964046740044567e-08 -3.901348164522844e-24 0,0 0.167704,-0.0163" />
      <line x1="0.165704" y1="-0.0163" x2="0.206104" y2="-0.0163" />
      <line x1="0.165704" y1="-0.0163" x2="0.206104" y2="-0.0163" />
      <path d="M 0.209104,-0.0163 A 0.004,7.964046740044567e-08 -3.901348164522844e-24 0,0 0.206103,-0.0163" />
      <path d="M 0.201904,-0.0163 A 0.0030000000000000027,5.973035055033429e-08 -3.1156113220371268e-24 0,0 0.195904,-0.0163" />
      <path d="M 0.195904,-0.0163 A 0.0030000000000000027,5.973035055033429e-08 -3.1156113220371268e-24 1,0 0.201904,-0.0163" />
      <line x1="0.167703" y1="0.0163" x2="0.167703" y2="-0.0163" />
      <path d="M 0.163704,0.0163 A 0.004,7.964046740044567e-08 180.0 0,1 0.167703,0.0163" />
      <path d="M 0.165703,-0.0163 A 0.004,7.964046740044567e-08 180.0 0,1 0.167703,-0.0163" />
      <line x1="0.167703" y1="0.0163" x2="0.205103" y2="0.0163" />
      <path d="M 0.209104,0.0163 A 0.004,7.964046740044567e-08 -3.901348164522844e-24 0,0 0.205103,0.0163" />
      <path d="M 0.188904,0.0163 A 0.002,3.9820233700222834e-08 -3.901348164522844e-24 0,0 0.190904,0.0163" />
      <line x1="0.190904" y1="0.0163" x2="0.205104" y2="0.0163" />
      <path d="M 0.208904,0.0163 A 0.002,3.9820233700222834e-08 180.0 0,1 0.206904,0.0163" />
      <path d="M 0.208904,0.0163 A 0.002,3.9820233700222834e-08 -3.901348164522844e-24 0,0 0.206904,0.0163" />
      <line x1="0.190904" y1="0.0163" x2="0.206904" y2="0.0163" />
      <path d="M 0.188904,0.0163 A 0.002,3.9820233700222834e-08 180.0 0,1 0.190904,0.0163" />
      <line x1="0.165704" y1="-0.0184" x2="0.165704" y2="-0.0163" />
      <line x1="0.165703" y1="-0.0184" x2="0.165703" y2="-0.0163" />
      <line x1="0.165704" y1="-0.0184" x2="0.206104" y2="-0.0184" />
      <line x1="0.206104" y1="-0.0184" x2="0.206104" y2="-0.0163" />
      <line x1="0.206104" y1="-0.0184" x2="0.206104" y2="-0.0163" />
      <line x1="0.206103" y1="-0.0184" x2="0.206103" y2="-0.0163" />
      <path d="M 0.206104,-0.0163 A 0.004,7.964046740044567e-08 180.0 0,1 0.205104,-0.0163" />
      <line x1="0.205103" y1="0.0163" x2="0.205103" y2="-0.0163" />
      <line x1="0.209104" y1="0.0163" x2="0.209104" y2="-0.0163" />
      <path d="M 0.206103,-0.0163 A 0.004,7.964046740044567e-08 -3.901348164522844e-24 0,0 0.205103,-0.0163" />
      <path d="M 0.201904,-0.0176 A 0.0030000000000000027,5.973035055033429e-08 -3.1156113220371268e-24 0,0 0.195904,-0.0176" />
      <path d="M 0.195904,-0.0176 A 0.0030000000000000027,5.973035055033429e-08 -3.1156113220371268e-24 1,0 0.201904,-0.0176" />
      <line x1="0.205103" y1="-0.0163" x2="0.206103" y2="-0.0163" />
      <line x1="0.165703" y1="-0.0184" x2="0.206103" y2="-0.0184" />
      <line x1="0.165703" y1="-0.0163" x2="0.167703" y2="-0.0163" />
      <path d="M 0.208904,0.018 A 0.002,3.9820233700222834e-08 -3.901348164522844e-24 0,0 0.206904,0.018" />
      <line x1="0.190904" y1="0.018" x2="0.206904" y2="0.018" />
      <path d="M 0.188904,0.018 A 0.002,3.9820233700222834e-08 180.0 0,1 0.190904,0.018" />
      <path d="M 0.203404,0.018 A 0.004500000000000004,8.959552582550142e-08 -3.1156113220371268e-24 0,0 0.194404,0.018" />
      <path d="M 0.194404,0.018 A 0.004500000000000004,8.959552582550142e-08 -3.1156113220371268e-24 0,0 0.203404,0.018" />
      <path d="M 0.171004,-0.0084 A 0.0016,3.185618696017826e-08 -3.1156113220371268e-24 0,0 0.167804,-0.0084" />
      <path d="M 0.167804,-0.0084 A 0.0016,3.185618696017826e-08 -3.1156113220371268e-24 1,0 0.171004,-0.0084" />
      <path d="M 0.188004,-0.0084 A 0.0016000000000000044,3.185618696017835e-08 -3.1156113220371268e-24 0,0 0.184804,-0.0084" />
      <path d="M 0.184804,-0.0084 A 0.0016000000000000044,3.185618696017835e-08 -3.1156113220371268e-24 1,0 0.188004,-0.0084" />
      <path d="M 0.205004,-0.0084 A 0.0016,3.185618696017826e-08 -3.1156113220371268e-24 0,0 0.201804,-0.0084" />
      <path d="M 0.201804,-0.0084 A 0.0016,3.185618696017826e-08 -3.1156113220371268e-24 1,0 0.205004,-0.0084" />
      <path d="M 0.171004,-0.0084 A 0.0016,3.185618696017826e-08 -3.1156113220371268e-24 0,0 0.167804,-0.0084" />
      <path d="M 0.167804,-0.0084 A 0.0016,3.185618696017826e-08 -3.1156113220371268e-24 1,0 0.171004,-0.0084" />
      <path d="M 0.188004,-0.0084 A 0.0016000000000000044,3.185618696017835e-08 -3.1156113220371268e-24 0,0 0.184804,-0.0084" />
      <path d="M 0.184804,-0.0084 A 0.0016000000000000044,3.185618696017835e-08 -3.1156113220371268e-24 1,0 0.188004,-0.0084" />
      <path d="M 0.205004,-0.0084 A 0.0016,3.185618696017826e-08 -3.1156113220371268e-24 0,0 0.201804,-0.0084" />
      <path d="M 0.201804,-0.0084 A 0.0016,3.185618696017826e-08 -3.1156113220371268e-24 1,0 0.205004,-0.0084" />
      <path d="M 0.203404,0.0195 A 0.004500000000000004,8.959552582550142e-08 -3.1156113220371268e-24 0,0 0.194404,0.0195" />
      <line x1="0.195904" y1="-0.0176" x2="0.195904" y2="-0.0163" />
      <line x1="0.167804" y1="-0.0184" x2="0.167804" y2="-0.0084" />
      <line x1="0.184804" y1="-0.0184" x2="0.184804" y2="-0.0084" />
      <line x1="0.201804" y1="-0.0184" x2="0.201804" y2="-0.0084" />
      <line x1="0.167804" y1="-0.0184" x2="0.167804" y2="-0.0084" />
      <line x1="0.184804" y1="-0.0184" x2="0.184804" y2="-0.0084" />
      <line x1="0.201804" y1="-0.0184" x2="0.201804" y2="-0.0084" />
      <line x1="0.208904" y1="0.0163" x2="0.208904" y2="0.018" />
      <line x1="0.206904" y1="0.0163" x2="0.206904" y2="0.018" />
      <line x1="0.190904" y1="0.0163" x2="0.190904" y2="0.018" />
      <line x1="0.188904" y1="0.0163" x2="0.188904" y2="0.018" />
    </g>
    <g fill="none" stroke="rgb(50,120,190)" stroke-width="0.00035" id="bracket">
      <line x1="0.0" y1="0.0152" x2="0.051" y2="0.0152" />
      <line x1="0.051" y1="0.0152" x2="0.051" y2="-0.0152" />
      <line x1="0.0" y1="-0.0152" x2="0.051" y2="-0.0152" />
      <line x1="0.0" y1="0.0152" x2="0.0" y2="-0.0152" />
      <line x1="0.0025" y1="0.0127" x2="0.0025" y2="-0.0127" />
      <line x1="0.0025" y1="-0.0127" x2="0.0485" y2="-0.0127" />
      <line x1="0.0485" y1="0.0127" x2="0.0485" y2="-0.0127" />
      <line x1="0.0025" y1="0.0127" x2="0.0485" y2="0.0127" />
      <line x1="0.0687" y1="-0.00305" x2="0.0687" y2="-0.00235" />
      <line x1="0.0687" y1="-0.00235" x2="0.07122" y2="-0.00235" />
      <line x1="0.07122" y1="-0.00235" x2="0.07122" y2="0.00235" />
      <line x1="0.0687" y1="0.00235" x2="0.07122" y2="0.00235" />
      <line x1="0.0687" y1="0.00235" x2="0.0687" y2="0.00305" />
      <line x1="0.0687" y1="0.00305" x2="0.0729" y2="0.00305" />
      <line x1="0.0729" y1="-0.00305" x2="0.0729" y2="0.00305" />
      <line x1="0.0687" y1="-0.00305" x2="0.0729" y2="-0.00305" />
      <line x1="0.0742" y1="0.0152" x2="0.1252" y2="0.0152" />
      <line x1="0.1252" y1="0.0152" x2="0.1252" y2="-0.0152" />
      <line x1="0.0742" y1="-0.0152" x2="0.1252" y2="-0.0152" />
      <line x1="0.0742" y1="-0.00455" x2="0.0742" y2="-0.0152" />
      <line x1="0.0742" y1="-0.00455" x2="0.0767" y2="-0.00455" />
      <line x1="0.0767" y1="-0.00455" x2="0.0767" y2="-0.0127" />
      <line x1="0.0767" y1="-0.0127" x2="0.1227" y2="-0.0127" />
      <line x1="0.1227" y1="0.0127" x2="0.1227" y2="-0.0127" />
      <line x1="0.0767" y1="0.0127" x2="0.1227" y2="0.0127" />
      <line x1="0.0767" y1="0.0127" x2="0.0767" y2="0.00455" />
      <line x1="0.0742" y1="0.00455" x2="0.0767" y2="0.00455" />
      <line x1="0.0742" y1="0.0152" x2="0.0742" y2="0.00455" />
      <line x1="0.1471" y1="-0.005146" x2="0.1429" y2="-0.005146" />
      <line x1="0.1429" y1="-0.005146" x2="0.142908" y2="-0.005154" />
      <line x1="0.147108" y1="-0.005154" x2="0.142908" y2="-0.005154" />
      <line x1="0.1471" y1="-0.005146" x2="0.147108" y2="-0.005154" />
      <line x1="0.1471" y1="-0.005146" x2="0.1471" y2="0.003954" />
      <line x1="0.1471" y1="0.003954" x2="0.1429" y2="0.003954" />
      <line x1="0.1429" y1="-0.005146" x2="0.1429" y2="0.003954" />
      <line x1="0.147108" y1="-0.005154" x2="0.147108" y2="-0.002775" />
      <line x1="0.147108" y1="-0.002175" x2="0.147108" y2="0.000975" />
      <line x1="0.147108" y1="0.001575" x2="0.147108" y2="0.003946" />
      <line x1="0.1471" y1="0.003954" x2="0.147108" y2="0.003946" />
      <path d="M 0.147104,-0.002775 A 0.00030000031888379516,3.740637362844713e-07 90.00010416398155 0,0 0.147104,-0.002175" />
      <path d="M 0.147104,0.000975 A 0.0003000003188837951,3.740637362844712e-07 90.00010416398155 0,0 0.147104,0.001575" />
      <line x1="0.148385" y1="-0.005728" x2="0.148385" y2="0.038022" />
      <line x1="0.148385" y1="-0.005728" x2="0.148423" y2="-0.005772" />
      <line x1="0.148385" y1="-0.005728" x2="0.199385" y2="-0.005728" />
      <line x1="0.199385" y1="-0.005728" x2="0.199385" y2="0.038022" />
      <line x1="0.148385" y1="0.038022" x2="0.199385" y2="0.038022" />
      <line x1="0.199385" y1="0.038022" x2="0.199423" y2="0.037978" />
      <line x1="0.148423" y1="-0.005772" x2="0.199423" y2="-0.005772" />
      <line x1="0.199385" y1="-0.005728" x2="0.199423" y2="-0.005772" />
      <path d="M 0.159841,-0.005735 A 0.0029500000000000077,4.301226028133642e-06 -1.0925435300119508e-21 0,0 0.153941,-0.005735" />
      <path d="M 0.153941,-0.005735 A 0.0029500000000000077,4.301226028133642e-06 -1.0925435300119508e-21 0,0 0.159841,-0.005735" />
      <path d="M 0.176841,-0.005735 A 0.00295,4.30122602813363e-06 -1.0925435300119508e-21 0,0 0.170941,-0.005735" />
      <path d="M 0.170941,-0.005735 A 0.00295,4.30122602813363e-06 -1.0925435300119508e-21 0,0 0.176841,-0.005735" />
      <path d="M 0.193841,-0.005735 A 0.0029500000000000077,4.301226028133642e-06 -1.0925435300119508e-21 0,0 0.187941,-0.005735" />
      <path d="M 0.187941,-0.005735 A 0.0029500000000000077,4.301226028133642e-06 -1.0925435300119508e-21 0,0 0.193841,-0.005735" />
      <path d="M 0.159867,-0.005765 A 0.0029500000000000077,4.301226028133642e-06 -1.0925435300119508e-21 0,0 0.153967,-0.005765" />
      <path d="M 0.153967,-0.005765 A 0.0029500000000000077,4.301226028133642e-06 -1.0925435300119508e-21 0,0 0.159867,-0.005765" />
      <path d="M 0.176867,-0.005765 A 0.00295,4.30122602813363e-06 -1.0925435300119508e-21 0,0 0.170967,-0.005765" />
      <path d="M 0.170967,-0.005765 A 0.00295,4.30122602813363e-06 -1.0925435300119508e-21 0,0 0.176867,-0.005765" />
      <path d="M 0.193867,-0.005765 A 0.0029500000000000077,4.301226028133642e-06 -1.0925435300119508e-21 0,0 0.187967,-0.005765" />
      <path d="M 0.187967,-0.005765 A 0.0029500000000000077,4.301226028133642e-06 -1.0925435300119508e-21 0,0 0.193867,-0.005765" />
      <line x1="0.199423" y1="-0.005772" x2="0.199423" y2="0.037978" />
      <line x1="0.148385" y1="-0.002175" x2="0.147104" y2="-0.002175" />
      <line x1="0.148385" y1="-0.002775" x2="0.147104" y2="-0.002775" />
      <line x1="0.148385" y1="0.001575" x2="0.147104" y2="0.001575" />
      <line x1="0.148385" y1="0.000975" x2="0.147104" y2="0.000975" />
    </g>
    <g fill="url(#hatch_bracket)" stroke="none" stroke-width="0" id="bracket_fill">
      <path d="M 0.051,0.0152 L 0.0,0.0152 L 0.0,-0.0152 L 0.051,-0.0152 L 0.051,0.0152 M 0.0025,-0.0127 L 0.0025,0.0127 L 0.0485,0.0127 L 0.0485,-0.0127 L 0.0025,-0.0127" />
      <path d="M 0.0687,-0.00235 L 0.0687,-0.00305 L 0.0729,-0.00305 L 0.0729,0.00305 L 0.0687,0.00305 L 0.0687,0.00235 L 0.07122,0.00235 L 0.07122,-0.00235 L 0.0687,-0.00235" />
      <path d="M 0.1252,0.0152 L 0.0742,0.0152 L 0.0742,0.00455 L 0.0767,0.00455 L 0.0767,0.0127 L 0.1227,0.0127 L 0.1227,-0.0127 L 0.0767,-0.0127 L 0.0767,-0.00455 L 0.0742,-0.00455 L 0.0742,-0.0152 L 0.1252,-0.0152 L 0.1252,0.0152" />
    </g>
    <g fill="none" stroke="rgb(50,120,190)" stroke-opacity="0.4" stroke-width="0.00015" id="bracket_hidden" stroke-dasharray="0.0018 0.00045">
      <line x1="0.142908" y1="-0.005154" x2="0.142908" y2="0.003946" />
      <line x1="0.1429" y1="0.003954" x2="0.142908" y2="0.003946" />
      <line x1="0.142901" y1="-0.004447" x2="0.142907" y2="-0.004453" />
      <line x1="0.142901" y1="-0.004447" x2="0.142901" y2="0.003253" />
      <line x1="0.142901" y1="0.003253" x2="0.142907" y2="0.003247" />
      <line x1="0.142907" y1="-0.004453" x2="0.142907" y2="0.003247" />
      <line x1="0.147108" y1="-0.002775" x2="0.147108" y2="-0.002175" />
      <line x1="0.147108" y1="0.000975" x2="0.147108" y2="0.001575" />
      <line x1="0.147108" y1="0.003946" x2="0.142908" y2="0.003946" />
      <path d="M 0.147104,-0.002175 A 0.00030000031888379516,3.740637362844713e-07 90.00010416398155 0,0 0.147104,-0.002775" />
      <path d="M 0.147104,0.001575 A 0.0003000003188837951,3.740637362844712e-07 90.00010416398155 0,0 0.147104,0.000975" />
      <line x1="0.145421" y1="-0.004447" x2="0.142901" y2="-0.004447" />
      <line x1="0.145427" y1="-0.004453" x2="0.142907" y2="-0.004453" />
      <line x1="0.145421" y1="-0.004447" x2="0.145427" y2="-0.004453" />
      <line x1="0.145421" y1="-0.004447" x2="0.145421" y2="0.003253" />
      <line x1="0.145421" y1="0.003253" x2="0.142901" y2="0.003253" />
      <line x1="0.145427" y1="0.003247" x2="0.142907" y2="0.003247" />
      <line x1="0.145421" y1="0.003253" x2="0.145427" y2="0.003247" />
      <line x1="0.145427" y1="-0.004453" x2="0.145427" y2="0.003247" />
      <path d="M 0.150104,-0.002175 A 0.00030000031888379516,3.740637362844713e-07 90.00010416398155 0,0 0.150104,-0.002775" />
      <path d="M 0.150104,-0.002775 A 0.00030000031888379516,3.740637362844713e-07 90.00010416398155 0,0 0.150104,-0.002175" />
      <path d="M 0.150104,0.001575 A 0.0003000003188837951,3.740637362844712e-07 90.00010416398155 0,0 0.150104,0.000975" />
      <path d="M 0.150104,0.000975 A 0.0003000003188837951,3.740637362844712e-07 90.00010416398155 0,0 0.150104,0.001575" />
      <line x1="0.148385" y1="0.038022" x2="0.148423" y2="0.037978" />
      <line x1="0.148423" y1="-0.005772" x2="0.148423" y2="0.037978" />
      <line x1="0.148409" y1="-0.004407" x2="0.148398" y2="-0.004393" />
      <line x1="0.148409" y1="-0.004407" x2="0.148409" y2="0.003193" />
      <line x1="0.148409" y1="0.003193" x2="0.148398" y2="0.003207" />
      <line x1="0.148398" y1="-0.004393" x2="0.148398" y2="0.003207" />
      <line x1="0.148423" y1="0.037978" x2="0.199423" y2="0.037978" />
      <line x1="0.148409" y1="-0.004407" x2="0.151809" y2="-0.004407" />
      <line x1="0.151798" y1="-0.004393" x2="0.151809" y2="-0.004407" />
      <line x1="0.148398" y1="-0.004393" x2="0.151798" y2="-0.004393" />
      <line x1="0.151809" y1="-0.004407" x2="0.151809" y2="-0.000907" />
      <line x1="0.151809" y1="-0.000907" x2="0.150909" y2="-0.000907" />
      <line x1="0.150909" y1="-0.000907" x2="0.150909" y2="0.003193" />
      <line x1="0.148409" y1="0.003193" x2="0.150909" y2="0.003193" />
      <line x1="0.150909" y1="0.003193" x2="0.150898" y2="0.003207" />
      <line x1="0.148398" y1="0.003207" x2="0.150898" y2="0.003207" />
      <line x1="0.151798" y1="-0.004393" x2="0.151798" y2="-0.000893" />
      <line x1="0.151798" y1="-0.000893" x2="0.150898" y2="-0.000893" />
      <line x1="0.150898" y1="-0.000893" x2="0.150898" y2="0.003207" />
      <path d="M 0.159841,-0.003235 A 0.0029500000000000077,4.301226028133642e-06 -1.0925435300119508e-21 0,0 0.153941,-0.003235" />
      <path d="M 0.153941,-0.003235 A 0.0029500000000000077,4.301226028133642e-06 -1.0925435300119508e-21 0,0 0.159841,-0.003235" />
      <path d="M 0.176841,-0.003235 A 0.00295,4.30122602813363e-06 -1.0925435300119508e-21 0,0 0.170941,-0.003235" />
      <path d="M 0.170941,-0.003235 A 0.00295,4.30122602813363e-06 -1.0925435300119508e-21 0,0 0.176841,-0.003235" />
      <path d="M 0.193841,-0.003235 A 0.0029500000000000077,4.301226028133642e-06 -1.0925435300119508e-21 0,0 0.187941,-0.003235" />
      <path d="M 0.187941,-0.003235 A 0.0029500000000000077,4.301226028133642e-06 -1.0925435300119508e-21 0,0 0.193841,-0.003235" />
      <path d="M 0.159867,-0.003265 A 0.0029500000000000077,4.301226028133642e-06 -1.0925435300119508e-21 0,0 0.153967,-0.003265" />
      <path d="M 0.153967,-0.003265 A 0.0029500000000000077,4.301226028133642e-06 -1.0925435300119508e-21 0,0 0.159867,-0.003265" />
      <path d="M 0.176867,-0.003265 A 0.00295,4.30122602813363e-06 -1.0925435300119508e-21 0,0 0.170967,-0.003265" />
      <path d="M 0.170967,-0.003265 A 0.00295,4.30122602813363e-06 -1.0925435300119508e-21 0,0 0.176867,-0.003265" />
      <path d="M 0.193867,-0.003265 A 0.0029500000000000077,4.301226028133642e-06 -1.0925435300119508e-21 0,0 0.187967,-0.003265" />
      <path d="M 0.187967,-0.003265 A 0.0029500000000000077,4.301226028133642e-06 -1.0925435300119508e-21 0,0 0.193867,-0.003265" />
      <line x1="0.151798" y1="-0.000893" x2="0.151809" y2="-0.000907" />
      <line x1="0.150888" y1="-0.000882" x2="0.150898" y2="-0.000893" />
      <line x1="0.150909" y1="-0.000907" x2="0.15092" y2="-0.000919" />
      <line x1="0.15092" y1="-0.000919" x2="0.19692" y2="-0.000918" />
      <line x1="0.196888" y1="-0.000881" x2="0.19692" y2="-0.000918" />
      <line x1="0.150888" y1="-0.000882" x2="0.196888" y2="-0.000881" />
      <path d="M 0.158591,-0.000885 A 0.001700000000000007,2.478672626382102e-06 -1.0925435300119508e-21 0,0 0.155191,-0.000885" />
      <path d="M 0.155191,-0.000885 A 0.001700000000000007,2.478672626382102e-06 -1.0925435300119508e-21 0,0 0.158591,-0.000885" />
      <path d="M 0.175591,-0.000885 A 0.0017,2.4786726263820916e-06 -1.0925435300119508e-21 0,0 0.172191,-0.000885" />
      <path d="M 0.172191,-0.000885 A 0.0017,2.4786726263820916e-06 -1.0925435300119508e-21 0,0 0.175591,-0.000885" />
      <path d="M 0.192591,-0.000885 A 0.001700000000000007,2.478672626382102e-06 -1.0925435300119508e-21 0,0 0.189191,-0.000885" />
      <path d="M 0.189191,-0.000885 A 0.001700000000000007,2.478672626382102e-06 -1.0925435300119508e-21 0,0 0.192591,-0.000885" />
      <path d="M 0.158617,-0.000915 A 0.001700000000000007,2.478672626382102e-06 -1.0925435300119508e-21 0,0 0.155217,-0.000915" />
      <path d="M 0.155217,-0.000915 A 0.001700000000000007,2.478672626382102e-06 -1.0925435300119508e-21 0,0 0.158617,-0.000915" />
      <path d="M 0.175617,-0.000915 A 0.0017,2.4786726263820916e-06 -1.0925435300119508e-21 0,0 0.172217,-0.000915" />
      <path d="M 0.172217,-0.000915 A 0.0017,2.4786726263820916e-06 -1.0925435300119508e-21 0,0 0.175617,-0.000915" />
      <path d="M 0.192617,-0.000915 A 0.001700000000000007,2.478672626382102e-06 -1.0925435300119508e-21 0,0 0.189217,-0.000915" />
      <path d="M 0.189217,-0.000915 A 0.001700000000000007,2.478672626382102e-06 -1.0925435300119508e-21 0,0 0.192617,-0.000915" />
      <line x1="0.150888" y1="0.035518" x2="0.15092" y2="0.035481" />
      <line x1="0.15092" y1="-0.000919" x2="0.15092" y2="0.035481" />
      <line x1="0.150888" y1="-0.000882" x2="0.150888" y2="0.035518" />
      <path d="M 0.158591,-0.003235 A 0.001700000000000007,2.478672626382102e-06 -1.0925435300119508e-21 0,0 0.155191,-0.003235" />
      <path d="M 0.155191,-0.003235 A 0.001700000000000007,2.478672626382102e-06 -1.0925435300119508e-21 0,0 0.158591,-0.003235" />
      <path d="M 0.175591,-0.003235 A 0.0017,2.4786726263820916e-06 -1.0925435300119508e-21 0,0 0.172191,-0.003235" />
      <path d="M 0.172191,-0.003235 A 0.0017,2.4786726263820916e-06 -1.0925435300119508e-21 0,0 0.175591,-0.003235" />
      <path d="M 0.192591,-0.003235 A 0.001700000000000007,2.478672626382102e-06 -1.0925435300119508e-21 0,0 0.189191,-0.003235" />
      <path d="M 0.189191,-0.003235 A 0.001700000000000007,2.478672626382102e-06 -1.0925435300119508e-21 0,0 0.192591,-0.003235" />
      <path d="M 0.158617,-0.003265 A 0.001700000000000007,2.478672626382102e-06 -1.0925435300119508e-21 0,0 0.155217,-0.003265" />
      <path d="M 0.155217,-0.003265 A 0.001700000000000007,2.478672626382102e-06 -1.0925435300119508e-21 0,0 0.158617,-0.003265" />
      <path d="M 0.175617,-0.003265 A 0.0017,2.4786726263820916e-06 -1.0925435300119508e-21 0,0 0.172217,-0.003265" />
      <path d="M 0.172217,-0.003265 A 0.0017,2.4786726263820916e-06 -1.0925435300119508e-21 0,0 0.175617,-0.003265" />
      <path d="M 0.192617,-0.003265 A 0.001700000000000007,2.478672626382102e-06 -1.0925435300119508e-21 0,0 0.189217,-0.003265" />
      <path d="M 0.189217,-0.003265 A 0.001700000000000007,2.478672626382102e-06 -1.0925435300119508e-21 0,0 0.192617,-0.003265" />
      <line x1="0.19692" y1="-0.000918" x2="0.19692" y2="0.035482" />
      <line x1="0.15092" y1="0.035481" x2="0.19692" y2="0.035482" />
      <line x1="0.196888" y1="-0.000881" x2="0.196888" y2="0.035519" />
      <line x1="0.196888" y1="0.035519" x2="0.19692" y2="0.035482" />
      <line x1="0.150888" y1="0.035518" x2="0.196888" y2="0.035519" />
      <line x1="0.150104" y1="-0.002175" x2="0.148385" y2="-0.002175" />
      <line x1="0.150104" y1="-0.002775" x2="0.148385" y2="-0.002775" />
      <line x1="0.150104" y1="0.001575" x2="0.148385" y2="0.001575" />
      <line x1="0.150104" y1="0.000975" x2="0.148385" y2="0.000975" />
      <line x1="0.159841" y1="-0.005735" x2="0.159841" y2="-0.003235" />
      <line x1="0.153941" y1="-0.005735" x2="0.153941" y2="-0.003235" />
      <line x1="0.176841" y1="-0.005735" x2="0.176841" y2="-0.003235" />
      <line x1="0.170941" y1="-0.005735" x2="0.170941" y2="-0.003235" />
      <line x1="0.193841" y1="-0.005735" x2="0.193841" y2="-0.003235" />
      <line x1="0.187941" y1="-0.005735" x2="0.187941" y2="-0.003235" />
      <line x1="0.159867" y1="-0.005765" x2="0.159867" y2="-0.003265" />
      <line x1="0.153967" y1="-0.005765" x2="0.153967" y2="-0.003265" />
      <line x1="0.176867" y1="-0.005765" x2="0.176867" y2="-0.003265" />
      <line x1="0.170967" y1="-0.005765" x2="0.170967" y2="-0.003265" />
      <line x1="0.193867" y1="-0.005765" x2="0.193867" y2="-0.003265" />
      <line x1="0.187967" y1="-0.005765" x2="0.187967" y2="-0.003265" />
      <line x1="0.158591" y1="-0.003235" x2="0.158591" y2="-0.000885" />
      <line x1="0.155191" y1="-0.003235" x2="0.155191" y2="-0.000885" />
      <line x1="0.175591" y1="-0.003235" x2="0.175591" y2="-0.000885" />
      <line x1="0.172191" y1="-0.003235" x2="0.172191" y2="-0.000885" />
      <line x1="0.192591" y1="-0.003235" x2="0.192591" y2="-0.000885" />
      <line x1="0.189191" y1="-0.003235" x2="0.189191" y2="-0.000885" />
      <line x1="0.158617" y1="-0.003265" x2="0.158617" y2="-0.000915" />
      <line x1="0.155217" y1="-0.003265" x2="0.155217" y2="-0.000915" />
      <line x1="0.175617" y1="-0.003265" x2="0.175617" y2="-0.000915" />
      <line x1="0.172217" y1="-0.003265" x2="0.172217" y2="-0.000915" />
      <line x1="0.192617" y1="-0.003265" x2="0.192617" y2="-0.000915" />
      <line x1="0.189217" y1="-0.003265" x2="0.189217" y2="-0.000915" />
    </g>
  </g>
  <text x="0.030350" y="-0.043697" text-anchor="middle" font-family="'Input Sans Narrow', 'DejaVu Sans', Arial, sans-serif" font-size="0.002500" font-weight="bold" fill="#333">A-A</text>
  <text x="0.030350" y="-0.040197" text-anchor="middle" font-family="'Input Sans Narrow', 'DejaVu Sans', Arial, sans-serif" font-size="0.001800" fill="#888">shaft_face</text>
  <line x1="0.000000" y1="0.016000" x2="0.000000" y2="0.019000" stroke="#5C7080" stroke-width="0.000140" stroke-opacity="0.5"/>
  <line x1="0.060700" y1="0.016000" x2="0.060700" y2="0.019000" stroke="#5C7080" stroke-width="0.000140" stroke-opacity="0.5"/>
  <line x1="0.000000" y1="0.017400" x2="0.000000" y2="0.019000" stroke="#5C7080" stroke-width="0.000200"/>
  <line x1="0.060700" y1="0.017400" x2="0.060700" y2="0.019000" stroke="#5C7080" stroke-width="0.000200"/>
  <line x1="0.000000" y1="0.018200" x2="0.060700" y2="0.018200" stroke="#5C7080" stroke-width="0.000200"/>
  <polygon points="0.000000,0.018200 0.001500,0.017600 0.001500,0.018800" fill="#5C7080"/>
  <polygon points="0.060700,0.018200 0.059200,0.017600 0.059200,0.018800" fill="#5C7080"/>
  <text x="0.030350" y="0.017000" text-anchor="middle" font-family="'Input Sans Narrow', 'DejaVu Sans', Arial, sans-serif" font-size="0.001600" fill="#5C7080">60.7</text>
  <line x1="0.061500" y1="-0.015200" x2="0.064500" y2="-0.015200" stroke="#5C7080" stroke-width="0.000140" stroke-opacity="0.5"/>
  <line x1="0.061500" y1="0.015200" x2="0.064500" y2="0.015200" stroke="#5C7080" stroke-width="0.000140" stroke-opacity="0.5"/>
  <line x1="0.062900" y1="-0.015200" x2="0.064500" y2="-0.015200" stroke="#5C7080" stroke-width="0.000200"/>
  <line x1="0.062900" y1="0.015200" x2="0.064500" y2="0.015200" stroke="#5C7080" stroke-width="0.000200"/>
  <line x1="0.063700" y1="-0.015200" x2="0.063700" y2="0.015200" stroke="#5C7080" stroke-width="0.000200"/>
  <polygon points="0.063700,-0.015200 0.063100,-0.013700 0.064300,-0.013700" fill="#5C7080"/>
  <polygon points="0.063700,0.015200 0.063100,0.013700 0.064300,0.013700" fill="#5C7080"/>
  <text x="0.065200" y="-0.000000" text-anchor="middle" dominant-baseline="central" font-family="'Input Sans Narrow', 'DejaVu Sans', Arial, sans-serif" font-size="0.001600" fill="#5C7080" transform="rotate(-90 0.065200 -0.000000)">30.4</text>
  <text x="0.101800" y="-0.043697" text-anchor="middle" font-family="'Input Sans Narrow', 'DejaVu Sans', Arial, sans-serif" font-size="0.002500" font-weight="bold" fill="#333">B-B</text>
  <text x="0.101800" y="-0.040197" text-anchor="middle" font-family="'Input Sans Narrow', 'DejaVu Sans', Arial, sans-serif" font-size="0.001800" fill="#888">mid_body</text>
  <line x1="0.068700" y1="0.016000" x2="0.068700" y2="0.019000" stroke="#5C7080" stroke-width="0.000140" stroke-opacity="0.5"/>
  <line x1="0.134900" y1="0.016000" x2="0.134900" y2="0.019000" stroke="#5C7080" stroke-width="0.000140" stroke-opacity="0.5"/>
  <line x1="0.068700" y1="0.017400" x2="0.068700" y2="0.019000" stroke="#5C7080" stroke-width="0.000200"/>
  <line x1="0.134900" y1="0.017400" x2="0.134900" y2="0.019000" stroke="#5C7080" stroke-width="0.000200"/>
  <line x1="0.068700" y1="0.018200" x2="0.134900" y2="0.018200" stroke="#5C7080" stroke-width="0.000200"/>
  <polygon points="0.068700,0.018200 0.070200,0.017600 0.070200,0.018800" fill="#5C7080"/>
  <polygon points="0.134900,0.018200 0.133400,0.017600 0.133400,0.018800" fill="#5C7080"/>
  <text x="0.101800" y="0.017000" text-anchor="middle" font-family="'Input Sans Narrow', 'DejaVu Sans', Arial, sans-serif" font-size="0.001600" fill="#5C7080">66.2</text>
  <line x1="0.135700" y1="-0.015200" x2="0.138700" y2="-0.015200" stroke="#5C7080" stroke-width="0.000140" stroke-opacity="0.5"/>
  <line x1="0.135700" y1="0.015200" x2="0.138700" y2="0.015200" stroke="#5C7080" stroke-width="0.000140" stroke-opacity="0.5"/>
  <line x1="0.137100" y1="-0.015200" x2="0.138700" y2="-0.015200" stroke="#5C7080" stroke-width="0.000200"/>
  <line x1="0.137100" y1="0.015200" x2="0.138700" y2="0.015200" stroke="#5C7080" stroke-width="0.000200"/>
  <line x1="0.137900" y1="-0.015200" x2="0.137900" y2="0.015200" stroke="#5C7080" stroke-width="0.000200"/>
  <polygon points="0.137900,-0.015200 0.137300,-0.013700 0.138500,-0.013700" fill="#5C7080"/>
  <polygon points="0.137900,0.015200 0.137300,0.013700 0.138500,0.013700" fill="#5C7080"/>
  <text x="0.139400" y="-0.000000" text-anchor="middle" dominant-baseline="central" font-family="'Input Sans Narrow', 'DejaVu Sans', Arial, sans-serif" font-size="0.001600" fill="#5C7080" transform="rotate(-90 0.139400 -0.000000)">30.4</text>
  <text x="0.176002" y="-0.043697" text-anchor="middle" font-family="'Input Sans Narrow', 'DejaVu Sans', Arial, sans-serif" font-size="0.002500" font-weight="bold" fill="#333">side_XZ</text>
  <line x1="0.142900" y1="0.019200" x2="0.142900" y2="0.022200" stroke="#5C7080" stroke-width="0.000140" stroke-opacity="0.5"/>
  <line x1="0.209104" y1="0.019200" x2="0.209104" y2="0.022200" stroke="#5C7080" stroke-width="0.000140" stroke-opacity="0.5"/>
  <line x1="0.142900" y1="0.020600" x2="0.142900" y2="0.022200" stroke="#5C7080" stroke-width="0.000200"/>
  <line x1="0.209104" y1="0.020600" x2="0.209104" y2="0.022200" stroke="#5C7080" stroke-width="0.000200"/>
  <line x1="0.142900" y1="0.021400" x2="0.209104" y2="0.021400" stroke="#5C7080" stroke-width="0.000200"/>
  <polygon points="0.142900,0.021400 0.144400,0.020800 0.144400,0.022000" fill="#5C7080"/>
  <polygon points="0.209104,0.021400 0.207604,0.020800 0.207604,0.022000" fill="#5C7080"/>
  <text x="0.176002" y="0.020200" text-anchor="middle" font-family="'Input Sans Narrow', 'DejaVu Sans', Arial, sans-serif" font-size="0.001600" fill="#5C7080">66.2</text>
  <line x1="0.209904" y1="-0.038022" x2="0.212904" y2="-0.038022" stroke="#5C7080" stroke-width="0.000140" stroke-opacity="0.5"/>
  <line x1="0.209904" y1="0.018400" x2="0.212904" y2="0.018400" stroke="#5C7080" stroke-width="0.000140" stroke-opacity="0.5"/>
  <line x1="0.211304" y1="-0.038022" x2="0.212904" y2="-0.038022" stroke="#5C7080" stroke-width="0.000200"/>
  <line x1="0.211304" y1="0.018400" x2="0.212904" y2="0.018400" stroke="#5C7080" stroke-width="0.000200"/>
  <line x1="0.212104" y1="-0.038022" x2="0.212104" y2="0.018400" stroke="#5C7080" stroke-width="0.000200"/>
  <polygon points="0.212104,-0.038022 0.211504,-0.036522 0.212704,-0.036522" fill="#5C7080"/>
  <polygon points="0.212104,0.018400 0.211504,0.016900 0.212704,0.016900" fill="#5C7080"/>
  <text x="0.213604" y="-0.009811" text-anchor="middle" dominant-baseline="central" font-family="'Input Sans Narrow', 'DejaVu Sans', Arial, sans-serif" font-size="0.001600" fill="#5C7080" transform="rotate(-90 0.213604 -0.009811)">56.4</text>
  <line x1="0.139900" y1="-0.016300" x2="0.212104" y2="-0.016300" stroke="#555" stroke-width="0.000250" stroke-dasharray="0.002500,0.000800,0.000500,0.000800"/>
  <text x="0.138400" y="-0.015700" text-anchor="end" font-family="'Input Sans Narrow', 'DejaVu Sans', Arial, sans-serif" font-size="0.002000" font-weight="bold" fill="#555">A</text>
  <text x="0.213604" y="-0.015700" text-anchor="start" font-family="'Input Sans Narrow', 'DejaVu Sans', Arial, sans-serif" font-size="0.002000" font-weight="bold" fill="#555">A</text>
  <line x1="0.139900" y1="-0.000000" x2="0.212104" y2="-0.000000" stroke="#555" stroke-width="0.000250" stroke-dasharray="0.002500,0.000800,0.000500,0.000800"/>
  <text x="0.138400" y="0.000600" text-anchor="end" font-family="'Input Sans Narrow', 'DejaVu Sans', Arial, sans-serif" font-size="0.002000" font-weight="bold" fill="#555">B</text>
  <text x="0.213604" y="0.000600" text-anchor="start" font-family="'Input Sans Narrow', 'DejaVu Sans', Arial, sans-serif" font-size="0.002000" font-weight="bold" fill="#555">B</text>
  <text x="-0.001175" y="0.026575" font-family="'Input Sans Narrow', 'DejaVu Sans', Arial, sans-serif" font-size="0.003500" font-weight="bold" fill="#222">joint_elbow_flex</text>
  <line x1="-0.001175" y1="0.030575" x2="0.008825" y2="0.030575" stroke="#333" stroke-width="0.000350"/>
  <line x1="-0.001175" y1="0.029575" x2="-0.001175" y2="0.031575" stroke="#333" stroke-width="0.000250"/>
  <line x1="0.008825" y1="0.029575" x2="0.008825" y2="0.031575" stroke="#333" stroke-width="0.000250"/>
  <text x="0.010325" y="0.031275" font-family="'Input Sans Narrow', 'DejaVu Sans', Arial, sans-serif" font-size="0.001800" fill="#888">10 mm</text>
  <rect x="0.028825" y="0.024075" width="0.004000" height="0.002500" fill="url(#hatch_servo)" stroke="rgb(60,60,60)" stroke-width="0.000300"/>
  <text x="0.034325" y="0.026075" font-family="'Input Sans Narrow', 'DejaVu Sans', Arial, sans-serif" font-size="0.001800" fill="rgb(60,60,60)">servo</text>
  <rect x="0.028825" y="0.027575" width="0.004000" height="0.002500" fill="url(#hatch_bracket)" stroke="rgb(50,120,190)" stroke-width="0.000300"/>
  <text x="0.034325" y="0.029575" font-family="'Input Sans Narrow', 'DejaVu Sans', Arial, sans-serif" font-size="0.001800" fill="rgb(50,120,190)">bracket</text>
</svg>