<?xml version='1.0' encoding='utf-8'?>
<svg width="183.35mm" height="72.96mm" viewBox="-0.003175 -0.030679 0.183351 0.072959" version="1.1" xmlns="http://www.w3.org/2000/svg">
  <defs>
    <pattern id="hatch_servo" width="0.0012" height="0.0012" patternUnits="userSpaceOnUse" patternTransform="rotate(45)">
      <line x1="0" y1="0" x2="0" y2="0.0012" stroke="rgb(60,60,60)" stroke-width="0.0001" stroke-opacity="0.6"/>
    </pattern>
    <pattern id="hatch_bracket" width="0.0012" height="0.0012" patternUnits="userSpaceOnUse" patternTransform="rotate(75)">
      <line x1="0" y1="0" x2="0" y2="0.0012" stroke="rgb(50,120,190)" stroke-width="0.0001" stroke-opacity="0.6"/>
    </pattern>
  </defs>
  <g transform="scale(1,-1)" stroke-linecap="round">
    <g fill="none" stroke="rgb(60,60,60)" stroke-width="0.00035" id="servo">
      <line x1="0.0028" y1="-0.0124" x2="0.0028" y2="0.0124" />
      <line x1="0.0028" y1="-0.0124" x2="0.0482" y2="-0.0124" />
      <line x1="0.0482" y1="-0.0124" x2="0.0482" y2="0.0124" />
      <line x1="0.0028" y1="0.0124" x2="0.0482" y2="0.0124" />
      <line x1="0.0618" y1="0.0124" x2="0.1072" y2="0.0124" />
      <line x1="0.1072" y1="0.0124" x2="0.1072" y2="-0.0124" />
      <line x1="0.0618" y1="-0.0124" x2="0.1072" y2="-0.0124" />
      <line x1="0.0618" y1="0.0124" x2="0.0618" y2="-0.0124" />
      <line x1="0.120801" y1="-0.0159" x2="0.120801" y2="0.0159" />
      <line x1="0.120801" y1="-0.0159" x2="0.150801" y2="-0.0159" />
      <line x1="0.150801" y1="-0.0159" x2="0.166201" y2="-0.0159" />
      <line x1="0.166201" y1="-0.0159" x2="0.166201" y2="0.0159" />
      <line x1="0.120801" y1="0.0159" x2="0.166201" y2="0.0159" />
      <path d="M 0.152001,0.0159 A 0.0040000000000000036,2.1828005848407656e-08 1.919896894700601e-26 0,1 0.160001,0.0159" />
      <path d="M 0.160001,0.0187 A 0.0040000000000000036,2.1828005848407656e-08 1.919896894700601e-26 1,1 0.152001,0.0187" />
      <path d="M 0.152001,0.0187 A 0.0040000000000000036,2.1828005848407656e-08 1.919896894700601e-26 0,1 0.160001,0.0187" />
      <line x1="0.160001" y1="0.0159" x2="0.160001" y2="0.0187" />
      <line x1="0.150801" y1="-0.0201" x2="0.150801" y2="-0.0159" />
      <line x1="0.120101" y1="-0.0159" x2="0.120801" y2="-0.0159" />
      <line x1="0.120101" y1="-0.0201" x2="0.150801" y2="-0.0201" />
      <line x1="0.150801" y1="-0.0201" x2="0.150801" y2="-0.0159" />
      <line x1="0.120101" y1="-0.0159" x2="0.150801" y2="-0.0159" />
      <line x1="0.120101" y1="-0.0201" x2="0.120101" y2="-0.0159" />
      <line x1="0.152001" y1="0.0159" x2="0.152001" y2="0.0187" />
    </g>
    <g fill="url(#hatch_servo)" stroke="none" stroke-width="0" id="servo_fill">
      <path d="M 0.0028,0.0124 L 0.0028,-0.0124 L 0.0482,-0.0124 L 0.0482,0.0124 L 0.0028,0.0124" />
      <path d="M 0.1072,0.0124 L 0.0618,0.0124 L 0.0618,-0.0124 L 0.1072,-0.0124 L 0.1072,0.0124" />
    </g>
    <g fill="none" stroke="rgb(60,60,60)" stroke-opacity="0.4" stroke-width="0.00015" id="servo_hidden" stroke-dasharray="0.0018 0.00045">
      <line x1="0.120801" y1="-0.0159" x2="0.120801" y2="0.0159" />
      <line x1="0.120801" y1="0.0159" x2="0.166201" y2="0.0159" />
      <path d="M 0.160001,0.0159 A 0.0040000000000000036,2.1828005848407656e-08 1.919896894700601e-26 1,1 0.152001,0.0159" />
      <line x1="0.120801" y1="-0.0159" x2="0.150801" y2="-0.0159" />
      <line x1="0.150801" y1="-0.0159" x2="0.166201" y2="-0.0159" />
      <line x1="0.166201" y1="-0.0159" x2="0.166201" y2="0.0159" />
      <line x1="0.120101" y1="-0.0201" x2="0.150801" y2="-0.0201" />
      <line x1="0.120101" y1="-0.0201" x2="0.120101" y2="-0.0159" />
      <line x1="0.120101" y1="-0.0201" x2="0.150801" y2="-0.0201" />
      <line x1="0.150801" y1="-0.0201" x2="0.150801" y2="-0.0159" />
      <line x1="0.120101" y1="-0.0159" x2="0.150801" y2="-0.0159" />
      <line x1="0.120101" y1="-0.0201" x2="0.120101" y2="-0.0159" />
      <line x1="0.120101" y1="-0.0201" x2="0.150801" y2="-0.0201" />
      <line x1="0.150801" y1="-0.0201" x2="0.150801" y2="-0.0159" />
      <line x1="0.120101" y1="-0.0159" x2="0.120801" y2="-0.0159" />
      <line x1="0.120101" y1="-0.0201" x2="0.120101" y2="-0.0159" />
    </g>
    <g fill="none" stroke="rgb(50,120,190)" stroke-width="0.00035" id="bracket">
      <line x1="0.0" y1="0.0152" x2="0.051" y2="0.0152" />
      <line x1="0.051" y1="0.0152" x2="0.051" y2="-0.0152" />
      <line x1="0.0" y1="-0.0152" x2="0.051" y2="-0.0152" />
      <line x1="0.0" y1="0.0152" x2="0.0" y2="-0.0152" />
      <line x1="0.0025" y1="0.0127" x2="0.0025" y2="-0.0127" />
      <line x1="0.0025" y1="-0.0127" x2="0.0485" y2="-0.0127" />
      <line x1="0.0485" y1="0.0127" x2="0.0485" y2="-0.0127" />
      <line x1="0.0025" y1="0.0127" x2="0.0485" y2="0.0127" />
      <line x1="0.059" y1="0.0152" x2="0.11" y2="0.0152" />
      <line x1="0.11" y1="0.0152" x2="0.11" y2="-0.0152" />
      <line x1="0.059" y1="-0.0152" x2="0.11" y2="-0.0152" />
      <line x1="0.059" y1="0.0152" x2="0.059" y2="-0.0152" />
      <line x1="0.0615" y1="0.0127" x2="0.0615" y2="-0.0127" />
      <line x1="0.0615" y1="-0.0127" x2="0.1075" y2="-0.0127" />
      <line x1="0.1075" y1="0.0127" x2="0.1075" y2="-0.0127" />
      <line x1="0.0615" y1="0.0127" x2="0.1075" y2="0.0127" />
      <line x1="0.118001" y1="-0.022104" x2="0.118001" y2="0.021496" />
      <line x1="0.118001" y1="0.021496" x2="0.118" y2="0.021504" />
      <line x1="0.118" y1="-0.018899" x2="0.118001" y2="-0.018901" />
      <line x1="0.118" y1="-0.018899" x2="0.118" y2="-0.012899" />
      <line x1="0.118001" y1="-0.022104" x2="0.169001" y2="-0.022104" />
      <line x1="0.169001" y1="-0.022104" x2="0.169001" y2="0.021496" />
      <line x1="0.118001" y1="0.021496" x2="0.169001" y2="0.021496" />
      <line x1="0.118" y1="0.021504" x2="0.169" y2="0.021504" />
      <line x1="0.169001" y1="0.021496" x2="0.169" y2="0.021504" />
    </g>
    <g fill="url(#hatch_bracket)" stroke="none" stroke-width="0" id="bracket_fill">
      <path d="M 0.051,0.0152 L 0.0,0.0152 L 0.0,-0.0152 L 0.051,-0.0152 L 0.051,0.0152 M 0.0025,-0.0127 L 0.0025,0.0127 L 0.0485,0.0127 L 0.0485,-0.0127 L 0.0025,-0.0127" />
      <path d="M 0.11,0.0152 L 0.059,0.0152 L 0.059,-0.0152 L 0.11,-0.0152 L 0.11,0.0152 M 0.0615,-0.0127 L 0.0615,0.0127 L 0.1075,0.0127 L 0.1075,-0.0127 L 0.0615,-0.0127" />
    </g>
    <g fill="none" stroke="rgb(50,120,190)" stroke-opacity="0.4" stroke-width="0.00015" id="bracket_hidden" stroke-dasharray="0.0018 0.00045">
      <line x1="0.118001" y1="-0.022104" x2="0.118" y2="-0.022096" />
      <line x1="0.118" y1="-0.022096" x2="0.118" y2="0.021504" />
      <line x1="0.118" y1="-0.012899" x2="0.118001" y2="-0.012901" />
      <line x1="0.118001" y1="-0.018901" x2="0.118001" y2="-0.012901" />
      <line x1="0.169001" y1="-0.022104" x2="0.169" y2="-0.022096" />
      <line x1="0.118" y1="-0.022096" x2="0.169" y2="-0.022096" />
      <path d="M 0.125101,-0.022103 A 0.0021,6.179756173426369e-07 6.703931004703628e-24 0,1 0.121101,-0.022103" />
      <path d="M 0.121101,-0.022103 A 0.0021,6.179756173426369e-07 6.703931004703628e-24 0,1 0.125101,-0.022103" />
      <path d="M 0.125101,-0.022103 A 0.0021,6.179756173426369e-07 5.535513223642168e-19 0,1 0.129101,-0.022103" />
      <path d="M 0.129101,-0.022103 A 0.0021,6.179756173426369e-07 5.535513223642168e-19 0,1 0.125101,-0.022103" />
      <path d="M 0.149801,-0.022103 A 0.0021,6.179756173426369e-07 6.703931004703628e-24 0,1 0.145601,-0.022103" />
      <path d="M 0.145601,-0.022103 A 0.0021,6.179756173426369e-07 6.703931004703628e-24 1,1 0.149801,-0.022103" />
      <path d="M 0.1251,-0.022097 A 0.0021,6.179756173426369e-07 6.703931004703628e-24 0,1 0.1211,-0.022097" />
      <path d="M 0.1211,-0.022097 A 0.0021,6.179756173426369e-07 6.703931004703628e-24 0,1 0.1251,-0.022097" />
      <path d="M 0.1251,-0.022097 A 0.0021,6.179756173426369e-07 5.535513223642168e-19 0,1 0.1291,-0.022097" />
      <path d="M 0.1291,-0.022097 A 0.0021,6.179756173426369e-07 5.535513223642168e-19 0,1 0.1251,-0.022097" />
      <path d="M 0.1498,-0.022097 A 0.0021,6.179756173426369e-07 6.703931004703628e-24 0,1 0.1456,-0.022097" />
      <path d="M 0.1456,-0.022097 A 0.0021,6.179756173426369e-07 6.703931004703628e-24 1,1 0.1498,-0.022097" />
      <line x1="0.169" y1="-0.022096" x2="0.169" y2="0.021504" />
      <line x1="0.118001" y1="-0.018899" x2="0.1218" y2="-0.018899" />
      <line x1="0.121801" y1="-0.018901" x2="0.1218" y2="-0.018899" />
      <line x1="0.118001" y1="-0.018901" x2="0.121801" y2="-0.018901" />
      <line x1="0.1218" y1="-0.018899" x2="0.1218" y2="-0.016199" />
      <line x1="0.1218" y1="-0.016199" x2="0.1205" y2="-0.016199" />
      <line x1="0.1205" y1="-0.016199" x2="0.1205" y2="-0.012899" />
      <line x1="0.118001" y1="-0.012899" x2="0.1205" y2="-0.012899" />
      <line x1="0.1205" y1="-0.012899" x2="0.120501" y2="-0.012901" />
      <line x1="0.118001" y1="-0.012901" x2="0.120501" y2="-0.012901" />
      <line x1="0.121801" y1="-0.018901" x2="0.121801" y2="-0.016201" />
      <line x1="0.121801" y1="-0.016201" x2="0.120501" y2="-0.016201" />
      <line x1="0.120501" y1="-0.016201" x2="0.120501" y2="-0.012901" />
      <line x1="0.125101" y1="-0.022103" x2="0.125101" y2="-0.016203" />
      <path d="M 0.125101,-0.016203 A 0.0021,6.179756173426369e-07 6.703931004703628e-24 0,1 0.121101,-0.016203" />
      <path d="M 0.121101,-0.016203 A 0.0021,6.179756173426369e-07 6.703931004703628e-24 0,1 0.125101,-0.016203" />
      <line x1="0.125101" y1="-0.022103" x2="0.125101" y2="-0.016203" />
      <path d="M 0.125101,-0.016203 A 0.0021,6.179756173426369e-07 5.535513223642168e-19 0,1 0.129101,-0.016203" />
      <path d="M 0.129101,-0.016203 A 0.0021,6.179756173426369e-07 5.535513223642168e-19 0,1 0.125101,-0.016203" />
      <path d="M 0.149801,-0.016203 A 0.0021,6.179756173426369e-07 6.703931004703628e-24 0,1 0.145601,-0.016203" />
      <path d="M 0.145601,-0.016203 A 0.0021,6.179756173426369e-07 6.703931004703628e-24 1,1 0.149801,-0.016203" />
      <line x1="0.1251" y1="-0.022097" x2="0.1251" y2="-0.016197" />
      <path d="M 0.1251,-0.016197 A 0.0021,6.179756173426369e-07 6.703931004703628e-24 0,1 0.1211,-0.016197" />
      <path d="M 0.1211,-0.016197 A 0.0021,6.179756173426369e-07 6.703931004703628e-24 0,1 0.1251,-0.016197" />
      <line x1="0.1251" y1="-0.022097" x2="0.1251" y2="-0.016197" />
      <path d="M 0.1251,-0.016197 A 0.0021,6.179756173426369e-07 5.535513223642168e-19 0,1 0.1291,-0.016197" />
      <path d="M 0.1291,-0.016197 A 0.0021,6.179756173426369e-07 5.535513223642168e-19 0,1 0.1251,-0.016197" />
      <path d="M 0.1498,-0.016197 A 0.0021,6.179756173426369e-07 6.703931004703628e-24 0,1 0.1456,-0.016197" />
      <path d="M 0.1456,-0.016197 A 0.0021,6.179756173426369e-07 6.703931004703628e-24 1,1 0.1498,-0.016197" />
      <line x1="0.121801" y1="-0.016201" x2="0.1218" y2="-0.016199" />
      <line x1="0.120501" y1="-0.016204" x2="0.120501" y2="-0.016201" />
      <line x1="0.1205" y1="-0.016199" x2="0.1205" y2="-0.016196" />
      <line x1="0.1205" y1="-0.016196" x2="0.1665" y2="-0.016196" />
      <line x1="0.166501" y1="-0.016204" x2="0.1665" y2="-0.016196" />
      <line x1="0.120501" y1="-0.016204" x2="0.166501" y2="-0.016204" />
      <line x1="0.120501" y1="0.019396" x2="0.1205" y2="0.019404" />
      <line x1="0.1205" y1="-0.016196" x2="0.1205" y2="0.019404" />
      <line x1="0.120501" y1="-0.016204" x2="0.120501" y2="0.019396" />
      <line x1="0.1665" y1="-0.016196" x2="0.1665" y2="0.019404" />
      <line x1="0.1205" y1="0.019404" x2="0.1665" y2="0.019404" />
      <line x1="0.166501" y1="-0.016204" x2="0.166501" y2="0.019396" />
      <line x1="0.166501" y1="0.019396" x2="0.1665" y2="0.019404" />
      <line x1="0.120501" y1="0.019396" x2="0.166501" y2="0.019396" />
      <line x1="0.121101" y1="-0.022103" x2="0.121101" y2="-0.016203" />
      <line x1="0.129101" y1="-0.022103" x2="0.129101" y2="-0.016203" />
      <line x1="0.145601" y1="-0.022103" x2="0.145601" y2="-0.016203" />
      <line x1="0.1211" y1="-0.022097" x2="0.1211" y2="-0.016197" />
      <line x1="0.1291" y1="-0.022097" x2="0.1291" y2="-0.016197" />
      <line x1="0.1456" y1="-0.022097" x2="0.1456" y2="-0.016197" />
    </g>
  </g>
  <text x="0.025500" y="-0.027179" text-anchor="middle" font-family="'Input Sans Narrow', 'DejaVu Sans', Arial, sans-serif" font-size="0.002500" font-weight="bold" fill="#333">A-A</text>
  <text x="0.025500" y="-0.023679" text-anchor="middle" font-family="'Input Sans Narrow', 'DejaVu Sans', Arial, sans-serif" font-size="0.001800" fill="#888">shaft_face</text>
  <line x1="0.000000" y1="0.016000" x2="0.000000" y2="0.019000" stroke="#555" stroke-width="0.000140" stroke-opacity="0.5"/>
  <line x1="0.051000" y1="0.016000" x2="0.051000" y2="0.019000" stroke="#555" stroke-width="0.000140" stroke-opacity="0.5"/>
  <line x1="0.000000" y1="0.017400" x2="0.000000" y2="0.019000" stroke="#555" stroke-width="0.000200"/>
  <line x1="0.051000" y1="0.017400" x2="0.051000" y2="0.019000" stroke="#555" stroke-width="0.000200"/>
  <line x1="0.000000" y1="0.018200" x2="0.051000" y2="0.018200" stroke="#555" stroke-width="0.000200"/>
  <polygon points="0.000000,0.018200 0.001500,0.017600 0.001500,0.018800" fill="#555"/>
  <polygon points="0.051000,0.018200 0.049500,0.017600 0.049500,0.018800" fill="#555"/>
  <text x="0.025500" y="0.017000" text-anchor="middle" font-family="'Input Sans Narrow', 'DejaVu Sans', Arial, sans-serif" font-size="0.001600" fill="#555">51.0</text>
  <line x1="0.051800" y1="-0.015200" x2="0.054800" y2="-0.015200" stroke="#555" stroke-width="0.000140" stroke-opacity="0.5"/>
  <line x1="0.051800" y1="0.015200" x2="0.054800" y2="0.015200" stroke="#555" stroke-width="0.000140" stroke-opacity="0.5"/>
  <line x1="0.053200" y1="-0.015200" x2="0.054800" y2="-0.015200" stroke="#555" stroke-width="0.000200"/>
  <line x1="0.053200" y1="0.015200" x2="0.054800" y2="0.015200" stroke="#555" stroke-width="0.000200"/>
  <line x1="0.054000" y1="-0.015200" x2="0.054000" y2="0.015200" stroke="#555" stroke-width="0.000200"/>
  <polygon points="0.054000,-0.015200 0.053400,-0.013700 0.054600,-0.013700" fill="#555"/>
  <polygon points="0.054000,0.015200 0.053400,0.013700 0.054600,0.013700" fill="#555"/>
  <text x="0.055500" y="-0.000000" text-anchor="middle" dominant-baseline="central" font-family="'Input Sans Narrow', 'DejaVu Sans', Arial, sans-serif" font-size="0.001600" fill="#555" transform="rotate(-90 0.055500 -0.000000)">30.4</text>
  <text x="0.084500" y="-0.027179" text-anchor="middle" font-family="'Input Sans Narrow', 'DejaVu Sans', Arial, sans-serif" font-size="0.002500" font-weight="bold" fill="#333">B-B</text>
  <text x="0.084500" y="-0.023679" text-anchor="middle" font-family="'Input Sans Narrow', 'DejaVu Sans', Arial, sans-serif" font-size="0.001800" fill="#888">mid_body</text>
  <text x="0.143501" y="-0.027179" text-anchor="middle" font-family="'Input Sans Narrow', 'DejaVu Sans', Arial, sans-serif" font-size="0.002500" font-weight="bold" fill="#333">side_XZ</text>
  <line x1="0.118000" y1="0.022904" x2="0.118000" y2="0.025904" stroke="#555" stroke-width="0.000140" stroke-opacity="0.5"/>
  <line x1="0.169001" y1="0.022904" x2="0.169001" y2="0.025904" stroke="#555" stroke-width="0.000140" stroke-opacity="0.5"/>
  <line x1="0.118000" y1="0.024304" x2="0.118000" y2="0.025904" stroke="#555" stroke-width="0.000200"/>
  <line x1="0.169001" y1="0.024304" x2="0.169001" y2="0.025904" stroke="#555" stroke-width="0.000200"/>
  <line x1="0.118000" y1="0.025104" x2="0.169001" y2="0.025104" stroke="#555" stroke-width="0.000200"/>
  <polygon points="0.118000,0.025104 0.119500,0.024504 0.119500,0.025704" fill="#555"/>
  <polygon points="0.169001,0.025104 0.167501,0.024504 0.167501,0.025704" fill="#555"/>
  <text x="0.143501" y="0.023904" text-anchor="middle" font-family="'Input Sans Narrow', 'DejaVu Sans', Arial, sans-serif" font-size="0.001600" fill="#555">51.0</text>
  <line x1="0.169801" y1="-0.021504" x2="0.172801" y2="-0.021504" stroke="#555" stroke-width="0.000140" stroke-opacity="0.5"/>
  <line x1="0.169801" y1="0.022104" x2="0.172801" y2="0.022104" stroke="#555" stroke-width="0.000140" stroke-opacity="0.5"/>
  <line x1="0.171201" y1="-0.021504" x2="0.172801" y2="-0.021504" stroke="#555" stroke-width="0.000200"/>
  <line x1="0.171201" y1="0.022104" x2="0.172801" y2="0.022104" stroke="#555" stroke-width="0.000200"/>
  <line x1="0.172001" y1="-0.021504" x2="0.172001" y2="0.022104" stroke="#555" stroke-width="0.000200"/>
  <polygon points="0.172001,-0.021504 0.171401,-0.020004 0.172601,-0.020004" fill="#555"/>
  <polygon points="0.172001,0.022104 0.171401,0.020604 0.172601,0.020604" fill="#555"/>
  <text x="0.173501" y="0.000300" text-anchor="middle" dominant-baseline="central" font-family="'Input Sans Narrow', 'DejaVu Sans', Arial, sans-serif" font-size="0.001600" fill="#555" transform="rotate(-90 0.173501 0.000300)">43.6</text>
  <line x1="0.115000" y1="-0.015900" x2="0.172001" y2="-0.015900" stroke="#555" stroke-width="0.000250" stroke-dasharray="0.002500,0.000800,0.000500,0.000800"/>
  <text x="0.113500" y="-0.015300" text-anchor="end" font-family="'Input Sans Narrow', 'DejaVu Sans', Arial, sans-serif" font-size="0.002000" font-weight="bold" fill="#555">A</text>
  <text x="0.173501" y="-0.015300" text-anchor="start" font-family="'Input Sans Narrow', 'DejaVu Sans', Arial, sans-serif" font-size="0.002000" font-weight="bold" fill="#555">A</text>
  <line x1="0.115000" y1="-0.000000" x2="0.172001" y2="-0.000000" stroke="#555" stroke-width="0.000250" stroke-dasharray="0.002500,0.000800,0.000500,0.000800"/>
  <text x="0.113500" y="0.000600" text-anchor="end" font-family="'Input Sans Narrow', 'DejaVu Sans', Arial, sans-serif" font-size="0.002000" font-weight="bold" fill="#555">B</text>
  <text x="0.173501" y="0.000600" text-anchor="start" font-family="'Input Sans Narrow', 'DejaVu Sans', Arial, sans-serif" font-size="0.002000" font-weight="bold" fill="#555">B</text>
  <text x="-0.001175" y="0.030280" font-family="'Input Sans Narrow', 'DejaVu Sans', Arial, sans-serif" font-size="0.003500" font-weight="bold" fill="#222">joint_gripper</text>
  <line x1="-0.001175" y1="0.034280" x2="0.008825" y2="0.034280" stroke="#333" stroke-width="0.000350"/>
  <line x1="-0.001175" y1="0.033280" x2="-0.001175" y2="0.035280" stroke="#333" stroke-width="0.000250"/>
  <line x1="0.008825" y1="0.033280" x2="0.008825" y2="0.035280" stroke="#333" stroke-width="0.000250"/>
  <text x="0.010325" y="0.034980" font-family="'Input Sans Narrow', 'DejaVu Sans', Arial, sans-serif" font-size="0.001800" fill="#888">10 mm</text>
  <rect x="0.028825" y="0.027780" width="0.004000" height="0.002500" fill="url(#hatch_servo)" stroke="rgb(60,60,60)" stroke-width="0.000300"/>
  <text x="0.034325" y="0.029780" font-family="'Input Sans Narrow', 'DejaVu Sans', Arial, sans-serif" font-size="0.001800" fill="rgb(60,60,60)">servo</text>
  <rect x="0.028825" y="0.031280" width="0.004000" height="0.002500" fill="url(#hatch_bracket)" stroke="rgb(50,120,190)" stroke-width="0.000300"/>
  <text x="0.034325" y="0.033280" font-family="'Input Sans Narrow', 'DejaVu Sans', Arial, sans-serif" font-size="0.001800" fill="rgb(50,120,190)">bracket</text>
</svg>