<?xml version='1.0' encoding='utf-8'?>
<svg width="311.52mm" height="85.77mm" viewBox="-0.003175 -0.047194 0.311522 0.085769" version="1.1" xmlns="http://www.w3.org/2000/svg">
  <defs>
    <pattern id="hatch_servo" width="0.0012" height="0.0012" patternUnits="userSpaceOnUse" patternTransform="rotate(45)">
      <line x1="0" y1="0" x2="0" y2="0.0012" stroke="rgb(60,60,60)" stroke-width="0.0001" stroke-opacity="0.6"/>
    </pattern>
    <pattern id="hatch_bracket" width="0.0012" height="0.0012" patternUnits="userSpaceOnUse" patternTransform="rotate(75)">
      <line x1="0" y1="0" x2="0" y2="0.0012" stroke="rgb(50,120,190)" stroke-width="0.0001" stroke-opacity="0.6"/>
    </pattern>
  </defs>
  <g transform="scale(1,-1)" stroke-linecap="round">
    <g fill="none" stroke="rgb(60,60,60)" stroke-width="0.00035" id="servo">
      <line x1="0.0" y1="-0.0084" x2="0.0" y2="0.0084" />
      <path d="M 0.0,-0.0084 A 0.004,0.004 -90.0 0,1 0.004,-0.0124" />
      <line x1="0.004" y1="-0.0124" x2="0.0414" y2="-0.0124" />
      <path d="M 0.0454,-0.0084 A 0.004,0.004 -90.0 0,0 0.0414,-0.0124" />
      <line x1="0.0454" y1="-0.0084" x2="0.0454" y2="0.0084" />
      <path d="M 0.0454,0.0084 A 0.004,0.004 -90.0 0,1 0.0414,0.0124" />
      <line x1="0.004" y1="0.0124" x2="0.0414" y2="0.0124" />
      <path d="M 0.0,0.0084 A 0.004,0.004 -90.0 0,0 0.004,0.0124" />
      <path d="M 0.1057,0.0124 A 0.004,0.004 180.0 0,1 0.1017,0.0084" />
      <line x1="0.1057" y1="0.0124" x2="0.1431" y2="0.0124" />
      <path d="M 0.1471,0.0084 A 0.004,0.004 0.0 0,1 0.1431,0.0124" />
      <line x1="0.1471" y1="0.0084" x2="0.1471" y2="-0.0084" />
      <path d="M 0.1431,-0.0124 A 0.004,0.004 0.0 0,1 0.1471,-0.0084" />
      <line x1="0.1057" y1="-0.0124" x2="0.1431" y2="-0.0124" />
      <path d="M 0.1017,-0.0084 A 0.004,0.004 180.0 0,1 0.1057,-0.0124" />
      <line x1="0.1017" y1="0.0084" x2="0.1017" y2="-0.0084" />
      <line x1="0.2034" y1="-0.0163" x2="0.2034" y2="0.0163" />
      <line x1="0.2034" y1="0.0163" x2="0.2034" y2="-0.0163" />
      <path d="M 0.2034,0.0163 A 0.004,7.964046740044567e-08 -3.901348164522844e-24 0,0 0.207401,0.0163" />
      <path d="M 0.2034,-0.0163 A 0.004,7.964046740044567e-08 -3.901348164522844e-24 0,0 0.205401,-0.0163" />
      <line x1="0.207401" y1="-0.0163" x2="0.207401" y2="0.0163" />
      <path d="M 0.2034,-0.0163 A 0.004,7.964046740044567e-08 180.0 0,1 0.2054,-0.0163" />
      <path d="M 0.2488,-0.0163 A 0.004,7.964046740044567e-08 180.0 0,1 0.245801,-0.0163" />
      <line x1="0.207401" y1="0.0163" x2="0.244801" y2="0.0163" />
      <path d="M 0.2488,0.0163 A 0.004,7.964046740044567e-08 180.0 0,1 0.244801,0.0163" />
      <line x1="0.244801" y1="0.0163" x2="0.2466" y2="0.0163" />
      <line x1="0.205401" y1="-0.0163" x2="0.207401" y2="-0.0163" />
      <line x1="0.244801" y1="-0.0163" x2="0.244801" y2="0.0163" />
      <line x1="0.244801" y1="-0.0163" x2="0.245801" y2="-0.0163" />
      <line x1="0.245801" y1="-0.0184" x2="0.245801" y2="-0.0163" />
      <line x1="0.205401" y1="-0.0184" x2="0.245801" y2="-0.0184" />
      <line x1="0.205401" y1="-0.0184" x2="0.205401" y2="-0.0163" />
      <line x1="0.2054" y1="-0.0184" x2="0.2054" y2="-0.0163" />
      <line x1="0.2054" y1="-0.0184" x2="0.2458" y2="-0.0184" />
      <line x1="0.2488" y1="-0.0163" x2="0.2488" y2="0.0163" />
      <path d="M 0.2286,0.018 A 0.002,3.9820233700222834e-08 -3.901348164522844e-24 0,0 0.2306,0.018" />
      <line x1="0.2306" y1="0.018" x2="0.2466" y2="0.018" />
      <path d="M 0.2486,0.018 A 0.002,3.9820233700222834e-08 180.0 0,1 0.2466,0.018" />
      <path d="M 0.2107,-0.0184 A 0.0016000000000000044,3.185618696017835e-08 -3.1156113220371268e-24 0,0 0.2075,-0.0184" />
      <path d="M 0.2075,-0.0184 A 0.0016000000000000044,3.185618696017835e-08 -3.1156113220371268e-24 1,0 0.2107,-0.0184" />
      <path d="M 0.2277,-0.0184 A 0.0016000000000000044,3.185618696017835e-08 -3.1156113220371268e-24 0,0 0.2245,-0.0184" />
      <path d="M 0.2245,-0.0184 A 0.0016000000000000044,3.185618696017835e-08 -3.1156113220371268e-24 1,0 0.2277,-0.0184" />
      <path d="M 0.2447,-0.0184 A 0.0016000000000000044,3.185618696017835e-08 -3.1156113220371268e-24 0,0 0.2415,-0.0184" />
      <path d="M 0.2415,-0.0184 A 0.0016000000000000044,3.185618696017835e-08 -3.1156113220371268e-24 1,0 0.2447,-0.0184" />
      <path d="M 0.2107,-0.0184 A 0.0016000000000000044,3.185618696017835e-08 -3.1156113220371268e-24 0,0 0.2075,-0.0184" />
      <path d="M 0.2075,-0.0184 A 0.0016000000000000044,3.185618696017835e-08 -3.1156113220371268e-24 1,0 0.2107,-0.0184" />
      <path d="M 0.2277,-0.0184 A 0.0016000000000000044,3.185618696017835e-08 -3.1156113220371268e-24 0,0 0.2245,-0.0184" />
      <path d="M 0.2245,-0.0184 A 0.0016000000000000044,3.185618696017835e-08 -3.1156113220371268e-24 1,0 0.2277,-0.0184" />
      <path d="M 0.2447,-0.0184 A 0.0016000000000000044,3.185618696017835e-08 -3.1156113220371268e-24 0,0 0.2415,-0.0184" />
      <path d="M 0.2415,-0.0184 A 0.0016000000000000044,3.185618696017835e-08 -3.1156113220371268e-24 1,0 0.2447,-0.0184" />
      <path d="M 0.2341,0.0195 A 0.004500000000000004,8.959552582550142e-08 -3.1156113220371268e-24 0,0 0.2431,0.0195" />
      <line x1="0.2286" y1="0.0163" x2="0.2286" y2="0.018" />
      <line x1="0.2306" y1="0.0163" x2="0.2306" y2="0.018" />
      <line x1="0.2466" y1="0.0163" x2="0.2466" y2="0.018" />
      <line x1="0.2486" y1="0.0163" x2="0.2486" y2="0.018" />
      <line x1="0.2034" y1="-0.0163" x2="0.2034" y2="0.0163" />
      <line x1="0.2488" y1="-0.0163" x2="0.2488" y2="0.0163" />
      <line x1="0.2431" y1="0.018" x2="0.2431" y2="0.0195" />
      <line x1="0.2341" y1="0.018" x2="0.2341" y2="0.0195" />
    </g>
    <g fill="url(#hatch_servo)" stroke="none" stroke-width="0" id="servo_fill">
      <path d="M 0.0,0.0084 L 0.0,-0.0084 A 0.004,0.004 -90.0 0,1 0.004,-0.0124 L 0.0414,-0.0124 A 0.004,0.004 -90.0 0,1 0.0454,-0.0084 L 0.0454,0.0084 A 0.004,0.004 -90.0 0,1 0.0414,0.0124 L 0.004,0.0124 A 0.004,0.004 -90.0 0,1 0.0,0.0084" />
      <path d="M 0.1057,0.0124 A 0.004,0.004 180.0 0,1 0.1017,0.0084 L 0.1017,-0.0084 A 0.004,0.004 180.0 0,1 0.1057,-0.0124 L 0.1431,-0.0124 A 0.004,0.004 0.0 0,1 0.1471,-0.0084 L 0.1471,0.0084 A 0.004,0.004 0.0 0,1 0.1431,0.0124 L 0.1057,0.0124" />
    </g>
    <g fill="none" stroke="rgb(60,60,60)" stroke-opacity="0.4" stroke-width="0.00015" id="servo_hidden" stroke-dasharray="0.0018 0.00045">
      <path d="M 0.205401,-0.0163 A 0.004,7.964046740044567e-08 -3.901348164522844e-24 0,0 0.207401,-0.0163" />
      <line x1="0.2054" y1="-0.0163" x2="0.2458" y2="-0.0163" />
      <line x1="0.205401" y1="-0.0163" x2="0.2458" y2="-0.0163" />
      <path d="M 0.2488,-0.0163 A 0.004,7.964046740044567e-08 -3.901348164522844e-24 0,0 0.2458,-0.0163" />
      <path d="M 0.2416,-0.0163 A 0.0030000000000000027,5.973035055033429e-08 -3.1156113220371268e-24 0,0 0.2356,-0.0163" />
      <path d="M 0.2356,-0.0163 A 0.0030000000000000027,5.973035055033429e-08 -3.1156113220371268e-24 1,0 0.2416,-0.0163" />
      <line x1="0.2074" y1="0.0163" x2="0.2074" y2="-0.0163" />
      <path d="M 0.2034,0.0163 A 0.004,7.964046740044567e-08 180.0 0,1 0.2074,0.0163" />
      <path d="M 0.2054,-0.0163 A 0.004,7.964046740044567e-08 180.0 0,1 0.2074,-0.0163" />
      <line x1="0.2074" y1="0.0163" x2="0.2448" y2="0.0163" />
      <path d="M 0.2488,0.0163 A 0.004,7.964046740044567e-08 -3.901348164522844e-24 0,0 0.2448,0.0163" />
      <path d="M 0.2286,0.0163 A 0.002,3.9820233700222834e-08 -3.901348164522844e-24 0,0 0.2306,0.0163" />
      <line x1="0.2306" y1="0.0163" x2="0.244801" y2="0.0163" />
      <path d="M 0.2486,0.0163 A 0.002,3.9820233700222834e-08 180.0 0,1 0.2466,0.0163" />
      <path d="M 0.2486,0.0163 A 0.002,3.9820233700222834e-08 -3.901348164522844e-24 0,0 0.2466,0.0163" />
      <line x1="0.2306" y1="0.0163" x2="0.2466" y2="0.0163" />
      <path d="M 0.2286,0.0163 A 0.002,3.9820233700222834e-08 180.0 0,1 0.2306,0.0163" />
      <line x1="0.2054" y1="-0.0184" x2="0.2054" y2="-0.0163" />
      <line x1="0.2054" y1="-0.0184" x2="0.2054" y2="-0.0163" />
      <line x1="0.2054" y1="-0.0184" x2="0.2458" y2="-0.0184" />
      <line x1="0.2458" y1="-0.0184" x2="0.2458" y2="-0.0163" />
      <line x1="0.2458" y1="-0.0184" x2="0.2458" y2="-0.0163" />
      <line x1="0.2458" y1="-0.0184" x2="0.2458" y2="-0.0163" />
      <path d="M 0.245801,-0.0163 A 0.004,7.964046740044567e-08 180.0 0,1 0.244801,-0.0163" />
      <line x1="0.2448" y1="0.0163" x2="0.2448" y2="-0.0163" />
      <line x1="0.2488" y1="0.0163" x2="0.2488" y2="-0.0163" />
      <path d="M 0.2458,-0.0163 A 0.004,7.964046740044567e-08 -3.901348164522844e-24 0,0 0.2448,-0.0163" />
      <path d="M 0.2416,-0.0176 A 0.0030000000000000027,5.973035055033429e-08 -3.1156113220371268e-24 0,0 0.2356,-0.0176" />
      <path d="M 0.2356,-0.0176 A 0.0030000000000000027,5.973035055033429e-08 -3.1156113220371268e-24 1,0 0.2416,-0.0176" />
      <line x1="0.2448" y1="-0.0163" x2="0.2458" y2="-0.0163" />
      <line x1="0.2054" y1="-0.0184" x2="0.2458" y2="-0.0184" />
      <line x1="0.2054" y1="-0.0163" x2="0.2074" y2="-0.0163" />
      <path d="M 0.2486,0.018 A 0.002,3.9820233700222834e-08 -3.901348164522844e-24 0,0 0.2466,0.018" />
      <line x1="0.2306" y1="0.018" x2="0.2466" y2="0.018" />
      <path d="M 0.2286,0.018 A 0.002,3.9820233700222834e-08 180.0 0,1 0.2306,0.018" />
      <path d="M 0.2431,0.018 A 0.004500000000000004,8.959552582550142e-08 -3.1156113220371268e-24 0,0 0.2341,0.018" />
      <path d="M 0.2341,0.018 A 0.004500000000000004,8.959552582550142e-08 -3.1156113220371268e-24 0,0 0.2431,0.018" />
      <path d="M 0.2107,-0.0084 A 0.0016000000000000044,3.185618696017835e-08 -3.1156113220371268e-24 0,0 0.2075,-0.0084" />
      <path d="M 0.2075,-0.0084 A 0.0016000000000000044,3.185618696017835e-08 -3.1156113220371268e-24 1,0 0.2107,-0.0084" />
      <path d="M 0.2277,-0.0084 A 0.0016000000000000044,3.185618696017835e-08 -3.1156113220371268e-24 0,0 0.2245,-0.0084" />
      <path d="M 0.2245,-0.0084 A 0.0016000000000000044,3.185618696017835e-08 -3.1156113220371268e-24 1,0 0.2277,-0.0084" />
      <path d="M 0.2447,-0.0084 A 0.0016000000000000044,3.185618696017835e-08 -3.1156113220371268e-24 0,0 0.2415,-0.0084" />
      <path d="M 0.2415,-0.0084 A 0.0016000000000000044,3.185618696017835e-08 -3.1156113220371268e-24 1,0 0.2447,-0.0084" />
      <path d="M 0.2107,-0.0084 A 0.0016000000000000044,3.185618696017835e-08 -3.1156113220371268e-24 0,0 0.2075,-0.0084" />
      <path d="M 0.2075,-0.0084 A 0.0016000000000000044,3.185618696017835e-08 -3.1156113220371268e-24 1,0 0.2107,-0.0084" />
      <path d="M 0.2277,-0.0084 A 0.0016000000000000044,3.185618696017835e-08 -3.1156113220371268e-24 0,0 0.2245,-0.0084" />
      <path d="M 0.2245,-0.0084 A 0.0016000000000000044,3.185618696017835e-08 -3.1156113220371268e-24 1,0 0.2277,-0.0084" />
      <path d="M 0.2447,-0.0084 A 0.0016000000000000044,3.185618696017835e-08 -3.1156113220371268e-24 0,0 0.2415,-0.0084" />
      <path d="M 0.2415,-0.0084 A 0.0016000000000000044,3.185618696017835e-08 -3.1156113220371268e-24 1,0 0.2447,-0.0084" />
      <path d="M 0.2431,0.0195 A 0.004500000000000004,8.959552582550142e-08 -3.1156113220371268e-24 0,0 0.2341,0.0195" />
      <line x1="0.2356" y1="-0.0176" x2="0.2356" y2="-0.0163" />
      <line x1="0.2075" y1="-0.0184" x2="0.2075" y2="-0.0084" />
      <line x1="0.2245" y1="-0.0184" x2="0.2245" y2="-0.0084" />
      <line x1="0.2415" y1="-0.0184" x2="0.2415" y2="-0.0084" />
      <line x1="0.2075" y1="-0.0184" x2="0.2075" y2="-0.0084" />
      <line x1="0.2245" y1="-0.0184" x2="0.2245" y2="-0.0084" />
      <line x1="0.2415" y1="-0.0184" x2="0.2415" y2="-0.0084" />
      <line x1="0.2486" y1="0.0163" x2="0.2486" y2="0.018" />
      <line x1="0.2466" y1="0.0163" x2="0.2466" y2="0.018" />
      <line x1="0.2306" y1="0.0163" x2="0.2306" y2="0.018" />
      <line x1="0.2286" y1="0.0163" x2="0.2286" y2="0.018" />
    </g>
    <g fill="none" stroke="rgb(50,120,190)" stroke-width="0.00035" id="bracket">
      <line x1="0.04995" y1="0.0152" x2="0.04995" y2="-0.0152" />
      <line x1="0.04995" y1="0.0152" x2="0.0937" y2="0.0152" />
      <line x1="0.0937" y1="0.0152" x2="0.0937" y2="-0.0152" />
      <line x1="0.04995" y1="-0.0152" x2="0.0937" y2="-0.0152" />
      <line x1="0.0548" y1="0.0127" x2="0.0548" y2="-0.0127" />
      <line x1="0.0548" y1="-0.0127" x2="0.0912" y2="-0.0127" />
      <line x1="0.0912" y1="0.0127" x2="0.0912" y2="-0.0127" />
      <line x1="0.0548" y1="0.0127" x2="0.0912" y2="0.0127" />
      <line x1="0.15165" y1="0.0152" x2="0.15165" y2="-0.0152" />
      <line x1="0.15165" y1="0.0152" x2="0.1954" y2="0.0152" />
      <line x1="0.1954" y1="0.0152" x2="0.1954" y2="-0.0152" />
      <line x1="0.15165" y1="-0.0152" x2="0.1954" y2="-0.0152" />
      <line x1="0.1565" y1="0.0127" x2="0.1565" y2="-0.0127" />
      <line x1="0.1565" y1="-0.0127" x2="0.1929" y2="-0.0127" />
      <line x1="0.1929" y1="0.0127" x2="0.1929" y2="-0.0127" />
      <line x1="0.1565" y1="0.0127" x2="0.1929" y2="0.0127" />
      <line x1="0.253423" y1="0.038019" x2="0.297172" y2="0.038019" />
      <line x1="0.253423" y1="0.038019" x2="0.253278" y2="0.037981" />
      <line x1="0.253423" y1="0.038019" x2="0.253423" y2="-0.012981" />
      <line x1="0.253423" y1="-0.012981" x2="0.297172" y2="-0.012981" />
      <line x1="0.297172" y1="0.038019" x2="0.297172" y2="-0.012981" />
      <line x1="0.297172" y1="-0.012981" x2="0.297028" y2="-0.013019" />
      <line x1="0.253278" y1="0.037981" x2="0.253278" y2="-0.013019" />
      <line x1="0.253423" y1="-0.012981" x2="0.253278" y2="-0.013019" />
      <path d="M 0.253399,0.027913 A 0.001600001214679979,7.588114801908439e-06 -90.00033483212776 1,0 0.253399,0.031113" />
      <path d="M 0.253399,0.031113 A 0.001600001214679979,7.588114801908439e-06 -90.00033483212776 0,0 0.253399,0.027913" />
      <path d="M 0.253399,0.010913 A 0.0016000012146799802,7.588114801908444e-06 -90.00033483212776 1,0 0.253399,0.014113" />
      <path d="M 0.253399,0.014113 A 0.0016000012146799802,7.588114801908444e-06 -90.00033483212776 0,0 0.253399,0.010913" />
      <path d="M 0.253399,-0.006087 A 0.0016000012146799806,7.588114801908445e-06 -90.00033483212776 1,0 0.253399,-0.002887" />
      <path d="M 0.253399,-0.002887 A 0.0016000012146799806,7.588114801908445e-06 -90.00033483212776 0,0 0.253399,-0.006087" />
      <path d="M 0.253302,0.027887 A 0.0016000012146799808,7.588114801908447e-06 -90.00033483212776 1,0 0.253302,0.031087" />
      <path d="M 0.253302,0.031087 A 0.0016000012146799808,7.588114801908447e-06 -90.00033483212776 0,0 0.253302,0.027887" />
      <path d="M 0.253302,0.010887 A 0.0016000012146799802,7.588114801908444e-06 -90.00033483212776 1,0 0.253302,0.014087" />
      <path d="M 0.253302,0.014087 A 0.0016000012146799802,7.588114801908444e-06 -90.00033483212776 0,0 0.253302,0.010887" />
      <path d="M 0.253302,-0.006112 A 0.0016000012146799802,7.588114801908444e-06 -90.00033483212776 1,0 0.253302,-0.002912" />
      <path d="M 0.253302,-0.002912 A 0.0016000012146799802,7.588114801908444e-06 -90.00033483212776 0,0 0.253302,-0.006112" />
      <line x1="0.253278" y1="-0.013019" x2="0.297028" y2="-0.013019" />
    </g>
    <g fill="url(#hatch_bracket)" stroke="none" stroke-width="0" id="bracket_fill">
      <path d="M 0.04995,0.0152 L 0.04995,-0.0152 L 0.0937,-0.0152 L 0.0937,0.0152 L 0.04995,0.0152 M 0.0548,-0.0127 L 0.0548,0.0127 L 0.0912,0.0127 L 0.0912,-0.0127 L 0.0548,-0.0127" />
      <path d="M 0.15165,0.0152 L 0.15165,-0.0152 L 0.1954,-0.0152 L 0.1954,0.0152 L 0.15165,0.0152 M 0.1565,-0.0127 L 0.1565,0.0127 L 0.1929,0.0127 L 0.1929,-0.0127 L 0.1565,-0.0127" />
    </g>
    <g fill="none" stroke="rgb(50,120,190)" stroke-opacity="0.4" stroke-width="0.00015" id="bracket_hidden" stroke-dasharray="0.0018 0.00045">
      <line x1="0.297172" y1="0.038019" x2="0.297028" y2="0.037981" />
      <line x1="0.253278" y1="0.037981" x2="0.297028" y2="0.037981" />
      <line x1="0.255477" y1="0.037994" x2="0.255524" y2="0.038006" />
      <line x1="0.255477" y1="0.037994" x2="0.261477" y2="0.037994" />
      <line x1="0.261477" y1="0.037994" x2="0.261524" y2="0.038006" />
      <line x1="0.255524" y1="0.038006" x2="0.261524" y2="0.038006" />
      <line x1="0.297028" y1="0.037981" x2="0.297028" y2="-0.013019" />
      <line x1="0.255477" y1="0.037994" x2="0.255477" y2="0.034194" />
      <line x1="0.255524" y1="0.034206" x2="0.255477" y2="0.034194" />
      <line x1="0.255524" y1="0.038006" x2="0.255524" y2="0.034206" />
      <line x1="0.255477" y1="0.034194" x2="0.258177" y2="0.034194" />
      <line x1="0.258177" y1="0.034194" x2="0.258177" y2="0.035494" />
      <line x1="0.258177" y1="0.035494" x2="0.261477" y2="0.035494" />
      <line x1="0.261477" y1="0.037994" x2="0.261477" y2="0.035494" />
      <line x1="0.261477" y1="0.035494" x2="0.261524" y2="0.035506" />
      <line x1="0.261524" y1="0.038006" x2="0.261524" y2="0.035506" />
      <line x1="0.255524" y1="0.034206" x2="0.258224" y2="0.034206" />
      <line x1="0.258224" y1="0.034206" x2="0.258224" y2="0.035506" />
      <line x1="0.258224" y1="0.035506" x2="0.261524" y2="0.035506" />
      <path d="M 0.258249,0.027913 A 0.001600001214679979,7.588114801908439e-06 -90.00033483212776 1,0 0.258249,0.031113" />
      <path d="M 0.258249,0.031113 A 0.001600001214679979,7.588114801908439e-06 -90.00033483212776 0,0 0.258249,0.027913" />
      <path d="M 0.258249,0.010913 A 0.0016000012146799802,7.588114801908444e-06 -90.00033483212776 1,0 0.258249,0.014113" />
      <path d="M 0.258249,0.014113 A 0.0016000012146799802,7.588114801908444e-06 -90.00033483212776 0,0 0.258249,0.010913" />
      <path d="M 0.258249,-0.006087 A 0.0016000012146799806,7.588114801908445e-06 -90.00033483212776 1,0 0.258249,-0.002887" />
      <path d="M 0.258249,-0.002887 A 0.0016000012146799806,7.588114801908445e-06 -90.00033483212776 0,0 0.258249,-0.006087" />
      <path d="M 0.258152,0.027887 A 0.0016000012146799808,7.588114801908447e-06 -90.00033483212776 1,0 0.258152,0.031087" />
      <path d="M 0.258152,0.031087 A 0.0016000012146799808,7.588114801908447e-06 -90.00033483212776 0,0 0.258152,0.027887" />
      <path d="M 0.258152,0.010887 A 0.0016000012146799802,7.588114801908444e-06 -90.00033483212776 1,0 0.258152,0.014087" />
      <path d="M 0.258152,0.014087 A 0.0016000012146799802,7.588114801908444e-06 -90.00033483212776 0,0 0.258152,0.010887" />
      <path d="M 0.258152,-0.006113 A 0.0016000012146799806,7.588114801908445e-06 -90.00033483212776 1,0 0.258152,-0.002913" />
      <path d="M 0.258152,-0.002913 A 0.0016000012146799806,7.588114801908445e-06 -90.00033483212776 0,0 0.258152,-0.006113" />
      <line x1="0.258224" y1="0.034206" x2="0.258177" y2="0.034194" />
      <line x1="0.258261" y1="0.035516" x2="0.258224" y2="0.035506" />
      <line x1="0.258177" y1="0.035494" x2="0.25814" y2="0.035484" />
      <line x1="0.25814" y1="0.035484" x2="0.25814" y2="-0.010516" />
      <line x1="0.258261" y1="-0.010484" x2="0.25814" y2="-0.010516" />
      <line x1="0.258261" y1="0.035516" x2="0.258261" y2="-0.010484" />
      <line x1="0.29466" y1="0.035516" x2="0.29454" y2="0.035484" />
      <line x1="0.25814" y1="0.035484" x2="0.29454" y2="0.035484" />
      <line x1="0.258261" y1="0.035516" x2="0.29466" y2="0.035516" />
      <line x1="0.25814" y1="-0.010516" x2="0.29454" y2="-0.010516" />
      <line x1="0.29454" y1="0.035484" x2="0.29454" y2="-0.010516" />
      <line x1="0.258261" y1="-0.010484" x2="0.29466" y2="-0.010484" />
      <line x1="0.29466" y1="-0.010484" x2="0.29454" y2="-0.010516" />
      <line x1="0.29466" y1="0.035516" x2="0.29466" y2="-0.010484" />
      <line x1="0.253399" y1="0.027913" x2="0.258249" y2="0.027913" />
      <line x1="0.253399" y1="0.031113" x2="0.258249" y2="0.031113" />
      <line x1="0.253399" y1="0.010913" x2="0.258249" y2="0.010913" />
      <line x1="0.253399" y1="0.014113" x2="0.258249" y2="0.014113" />
      <line x1="0.253399" y1="-0.006087" x2="0.258249" y2="-0.006087" />
      <line x1="0.253399" y1="-0.002887" x2="0.258249" y2="-0.002887" />
      <line x1="0.253302" y1="0.027887" x2="0.258152" y2="0.027887" />
      <line x1="0.253302" y1="0.031087" x2="0.258152" y2="0.031087" />
      <line x1="0.253302" y1="0.010887" x2="0.258152" y2="0.010887" />
      <line x1="0.253302" y1="0.014087" x2="0.258152" y2="0.014087" />
      <line x1="0.253302" y1="-0.006112" x2="0.258152" y2="-0.006113" />
      <line x1="0.253302" y1="-0.002912" x2="0.258152" y2="-0.002913" />
    </g>
  </g>
  <text x="0.046850" y="-0.043694" text-anchor="middle" font-family="'Input Sans Narrow', 'DejaVu Sans', Arial, sans-serif" font-size="0.002500" font-weight="bold" fill="#333">A-A</text>
  <text x="0.046850" y="-0.040194" text-anchor="middle" font-family="'Input Sans Narrow', 'DejaVu Sans', Arial, sans-serif" font-size="0.001800" fill="#888">shaft_face</text>
  <line x1="0.000000" y1="0.016000" x2="0.000000" y2="0.019000" stroke="#5C7080" stroke-width="0.000140" stroke-opacity="0.5"/>
  <line x1="0.093700" y1="0.016000" x2="0.093700" y2="0.019000" stroke="#5C7080" stroke-width="0.000140" stroke-opacity="0.5"/>
  <line x1="0.000000" y1="0.017400" x2="0.000000" y2="0.019000" stroke="#5C7080" stroke-width="0.000200"/>
  <line x1="0.093700" y1="0.017400" x2="0.093700" y2="0.019000" stroke="#5C7080" stroke-width="0.000200"/>
  <line x1="0.000000" y1="0.018200" x2="0.093700" y2="0.018200" stroke="#5C7080" stroke-width="0.000200"/>
  <polygon points="0.000000,0.018200 0.001500,0.017600 0.001500,0.018800" fill="#5C7080"/>
  <polygon points="0.093700,0.018200 0.092200,0.017600 0.092200,0.018800" fill="#5C7080"/>
  <text x="0.046850" y="0.017000" text-anchor="middle" font-family="'Input Sans Narrow', 'DejaVu Sans', Arial, sans-serif" font-size="0.001600" fill="#5C7080">93.7</text>
  <line x1="0.094500" y1="-0.015200" x2="0.097500" y2="-0.015200" stroke="#5C7080" stroke-width="0.000140" stroke-opacity="0.5"/>
  <line x1="0.094500" y1="0.015200" x2="0.097500" y2="0.015200" stroke="#5C7080" stroke-width="0.000140" stroke-opacity="0.5"/>
  <line x1="0.095900" y1="-0.015200" x2="0.097500" y2="-0.015200" stroke="#5C7080" stroke-width="0.000200"/>
  <line x1="0.095900" y1="0.015200" x2="0.097500" y2="0.015200" stroke="#5C7080" stroke-width="0.000200"/>
  <line x1="0.096700" y1="-0.015200" x2="0.096700" y2="0.015200" stroke="#5C7080" stroke-width="0.000200"/>
  <polygon points="0.096700,-0.015200 0.096100,-0.013700 0.097300,-0.013700" fill="#5C7080"/>
  <polygon points="0.096700,0.015200 0.096100,0.013700 0.097300,0.013700" fill="#5C7080"/>
  <text x="0.098200" y="-0.000000" text-anchor="middle" dominant-baseline="central" font-family="'Input Sans Narrow', 'DejaVu Sans', Arial, sans-serif" font-size="0.001600" fill="#5C7080" transform="rotate(-90 0.098200 -0.000000)">30.4</text>
  <text x="0.148550" y="-0.043694" text-anchor="middle" font-family="'Input Sans Narrow', 'DejaVu Sans', Arial, sans-serif" font-size="0.002500" font-weight="bold" fill="#333">B-B</text>
  <text x="0.148550" y="-0.040194" text-anchor="middle" font-family="'Input Sans Narrow', 'DejaVu Sans', Arial, sans-serif" font-size="0.001800" fill="#888">mid_body</text>
  <text x="0.250286" y="-0.043694" text-anchor="middle" font-family="'Input Sans Narrow', 'DejaVu Sans', Arial, sans-serif" font-size="0.002500" font-weight="bold" fill="#333">side_XZ</text>
  <line x1="0.203400" y1="0.019200" x2="0.203400" y2="0.022200" stroke="#5C7080" stroke-width="0.000140" stroke-opacity="0.5"/>
  <line x1="0.297172" y1="0.019200" x2="0.297172" y2="0.022200" stroke="#5C7080" stroke-width="0.000140" stroke-opacity="0.5"/>
  <line x1="0.203400" y1="0.020600" x2="0.203400" y2="0.022200" stroke="#5C7080" stroke-width="0.000200"/>
  <line x1="0.297172" y1="0.020600" x2="0.297172" y2="0.022200" stroke="#5C7080" stroke-width="0.000200"/>
  <line x1="0.203400" y1="0.021400" x2="0.297172" y2="0.021400" stroke="#5C7080" stroke-width="0.000200"/>
  <polygon points="0.203400,0.021400 0.204900,0.020800 0.204900,0.022000" fill="#5C7080"/>
  <polygon points="0.297172,0.021400 0.295672,0.020800 0.295672,0.022000" fill="#5C7080"/>
  <text x="0.250286" y="0.020200" text-anchor="middle" font-family="'Input Sans Narrow', 'DejaVu Sans', Arial, sans-serif" font-size="0.001600" fill="#5C7080">93.8</text>
  <line x1="0.297972" y1="-0.038019" x2="0.300972" y2="-0.038019" stroke="#5C7080" stroke-width="0.000140" stroke-opacity="0.5"/>
  <line x1="0.297972" y1="0.018400" x2="0.300972" y2="0.018400" stroke="#5C7080" stroke-width="0.000140" stroke-opacity="0.5"/>
  <line x1="0.299372" y1="-0.038019" x2="0.300972" y2="-0.038019" stroke="#5C7080" stroke-width="0.000200"/>
  <line x1="0.299372" y1="0.018400" x2="0.300972" y2="0.018400" stroke="#5C7080" stroke-width="0.000200"/>
  <line x1="0.300172" y1="-0.038019" x2="0.300172" y2="0.018400" stroke="#5C7080" stroke-width="0.000200"/>
  <polygon points="0.300172,-0.038019 0.299572,-0.036519 0.300772,-0.036519" fill="#5C7080"/>
  <polygon points="0.300172,0.018400 0.299572,0.016900 0.300772,0.016900" fill="#5C7080"/>
  <text x="0.301672" y="-0.009809" text-anchor="middle" dominant-baseline="central" font-family="'Input Sans Narrow', 'DejaVu Sans', Arial, sans-serif" font-size="0.001600" fill="#5C7080" transform="rotate(-90 0.301672 -0.009809)">56.4</text>
  <line x1="0.200400" y1="-0.016300" x2="0.300172" y2="-0.016300" stroke="#555" stroke-width="0.000250" stroke-dasharray="0.002500,0.000800,0.000500,0.000800"/>
  <text x="0.198900" y="-0.015700" text-anchor="end" font-family="'Input Sans Narrow', 'DejaVu Sans', Arial, sans-serif" font-size="0.002000" font-weight="bold" fill="#555">A</text>
  <text x="0.301672" y="-0.015700" text-anchor="start" font-family="'Input Sans Narrow', 'DejaVu Sans', Arial, sans-serif" font-size="0.002000" font-weight="bold" fill="#555">A</text>
  <line x1="0.200400" y1="-0.000000" x2="0.300172" y2="-0.000000" stroke="#555" stroke-width="0.000250" stroke-dasharray="0.002500,0.000800,0.000500,0.000800"/>
  <text x="0.198900" y="0.000600" text-anchor="end" font-family="'Input Sans Narrow', 'DejaVu Sans', Arial, sans-serif" font-size="0.002000" font-weight="bold" fill="#555">B</text>
  <text x="0.301672" y="0.000600" text-anchor="start" font-family="'Input Sans Narrow', 'DejaVu Sans', Arial, sans-serif" font-size="0.002000" font-weight="bold" fill="#555">B</text>
  <text x="-0.001175" y="0.026575" font-family="'Input Sans Narrow', 'DejaVu Sans', Arial, sans-serif" font-size="0.003500" font-weight="bold" fill="#222">joint_left_wheel</text>
  <line x1="-0.001175" y1="0.030575" x2="0.008825" y2="0.030575" stroke="#333" stroke-width="0.000350"/>
  <line x1="-0.001175" y1="0.029575" x2="-0.001175" y2="0.031575" stroke="#333" stroke-width="0.000250"/>
  <line x1="0.008825" y1="0.029575" x2="0.008825" y2="0.031575" stroke="#333" stroke-width="0.000250"/>
  <text x="0.010325" y="0.031275" font-family="'Input Sans Narrow', 'DejaVu Sans', Arial, sans-serif" font-size="0.001800" fill="#888">10 mm</text>
  <rect x="0.028825" y="0.024075" width="0.004000" height="0.002500" fill="url(#hatch_servo)" stroke="rgb(60,60,60)" stroke-width="0.000300"/>
  <text x="0.034325" y="0.026075" font-family="'Input Sans Narrow', 'DejaVu Sans', Arial, sans-serif" font-size="0.001800" fill="rgb(60,60,60)">servo</text>
  <rect x="0.028825" y="0.027575" width="0.004000" height="0.002500" fill="url(#hatch_bracket)" stroke="rgb(50,120,190)" stroke-width="0.000300"/>
  <text x="0.034325" y="0.029575" font-family="'Input Sans Narrow', 'DejaVu Sans', Arial, sans-serif" font-size="0.001800" fill="rgb(50,120,190)">bracket</text>
</svg>