<?xml version='1.0' encoding='utf-8'?>
<svg width="302.52mm" height="86.27mm" viewBox="-0.003175 -0.047695 0.302518 0.086270" version="1.1" xmlns="http://www.w3.org/2000/svg">
  <defs>
    <pattern id="hatch_servo" width="0.0012" height="0.0012" patternUnits="userSpaceOnUse" patternTransform="rotate(45)">
      <line x1="0" y1="0" x2="0" y2="0.0012" stroke="rgb(60,60,60)" stroke-width="0.0001" stroke-opacity="0.6"/>
    </pattern>
    <pattern id="hatch_bracket" width="0.0012" height="0.0012" patternUnits="userSpaceOnUse" patternTransform="rotate(75)">
      <line x1="0" y1="0" x2="0" y2="0.0012" stroke="rgb(50,120,190)" stroke-width="0.0001" stroke-opacity="0.6"/>
    </pattern>
  </defs>
  <g transform="scale(1,-1)" stroke-linecap="round">
    <g fill="none" stroke="rgb(60,60,60)" stroke-width="0.00035" id="servo">
      <line x1="0.0" y1="-0.0084" x2="0.0" y2="0.0084" />
      <path d="M 0.0,-0.0084 A 0.004,0.004 -90.0 0,1 0.004,-0.0124" />
      <line x1="0.004" y1="-0.0124" x2="0.0414" y2="-0.0124" />
      <path d="M 0.0454,-0.0084 A 0.004,0.004 -90.0 0,0 0.0414,-0.0124" />
      <line x1="0.0454" y1="-0.0084" x2="0.0454" y2="0.0084" />
      <path d="M 0.0454,0.0084 A 0.004,0.004 -90.0 0,1 0.0414,0.0124" />
      <line x1="0.004" y1="0.0124" x2="0.0414" y2="0.0124" />
      <path d="M 0.0,0.0084 A 0.004,0.004 -90.0 0,0 0.004,0.0124" />
      <path d="M 0.1027,0.0124 A 0.004,0.004 180.0 0,1 0.0987,0.0084" />
      <line x1="0.1027" y1="0.0124" x2="0.1401" y2="0.0124" />
      <path d="M 0.1441,0.0084 A 0.004,0.004 0.0 0,1 0.1401,0.0124" />
      <line x1="0.1441" y1="0.0084" x2="0.1441" y2="-0.0084" />
      <path d="M 0.1401,-0.0124 A 0.004,0.004 0.0 0,1 0.1441,-0.0084" />
      <line x1="0.1027" y1="-0.0124" x2="0.1401" y2="-0.0124" />
      <path d="M 0.0987,-0.0084 A 0.004,0.004 180.0 0,1 0.1027,-0.0124" />
      <line x1="0.0987" y1="0.0084" x2="0.0987" y2="-0.0084" />
      <line x1="0.1974" y1="-0.0163" x2="0.1974" y2="0.0163" />
      <line x1="0.1974" y1="0.0163" x2="0.1974" y2="-0.0163" />
      <path d="M 0.1974,0.0163 A 0.004,7.964046740044567e-08 -3.901348164522844e-24 0,0 0.201401,0.0163" />
      <path d="M 0.1974,-0.0163 A 0.004,7.964046740044567e-08 -3.901348164522844e-24 0,0 0.199401,-0.0163" />
      <line x1="0.201401" y1="-0.0163" x2="0.201401" y2="0.0163" />
      <path d="M 0.1974,-0.0163 A 0.004,7.964046740044567e-08 180.0 0,1 0.1994,-0.0163" />
      <path d="M 0.2428,-0.0163 A 0.004,7.964046740044567e-08 180.0 0,1 0.239801,-0.0163" />
      <line x1="0.201401" y1="0.0163" x2="0.238801" y2="0.0163" />
      <path d="M 0.2428,0.0163 A 0.004,7.964046740044567e-08 180.0 0,1 0.238801,0.0163" />
      <line x1="0.238801" y1="0.0163" x2="0.2406" y2="0.0163" />
      <line x1="0.199401" y1="-0.0163" x2="0.201401" y2="-0.0163" />
      <line x1="0.238801" y1="-0.0163" x2="0.238801" y2="0.0163" />
      <line x1="0.238801" y1="-0.0163" x2="0.239801" y2="-0.0163" />
      <line x1="0.239801" y1="-0.0184" x2="0.239801" y2="-0.0163" />
      <line x1="0.199401" y1="-0.0184" x2="0.239801" y2="-0.0184" />
      <line x1="0.199401" y1="-0.0184" x2="0.199401" y2="-0.0163" />
      <line x1="0.1994" y1="-0.0184" x2="0.1994" y2="-0.0163" />
      <line x1="0.1994" y1="-0.0184" x2="0.2398" y2="-0.0184" />
      <line x1="0.2428" y1="-0.0163" x2="0.2428" y2="0.0163" />
      <path d="M 0.2226,0.018 A 0.002,3.9820233700222834e-08 -3.901348164522844e-24 0,0 0.2246,0.018" />
      <line x1="0.2246" y1="0.018" x2="0.2406" y2="0.018" />
      <path d="M 0.2426,0.018 A 0.002,3.9820233700222834e-08 180.0 0,1 0.2406,0.018" />
      <path d="M 0.2047,-0.0184 A 0.0016,3.185618696017826e-08 -3.1156113220371268e-24 0,0 0.2015,-0.0184" />
      <path d="M 0.2015,-0.0184 A 0.0016,3.185618696017826e-08 -3.1156113220371268e-24 1,0 0.2047,-0.0184" />
      <path d="M 0.2217,-0.0184 A 0.0016000000000000044,3.185618696017835e-08 -3.1156113220371268e-24 0,0 0.2185,-0.0184" />
      <path d="M 0.2185,-0.0184 A 0.0016000000000000044,3.185618696017835e-08 -3.1156113220371268e-24 1,0 0.2217,-0.0184" />
      <path d="M 0.2387,-0.0184 A 0.0016000000000000044,3.185618696017835e-08 -3.1156113220371268e-24 0,0 0.2355,-0.0184" />
      <path d="M 0.2355,-0.0184 A 0.0016000000000000044,3.185618696017835e-08 -3.1156113220371268e-24 1,0 0.2387,-0.0184" />
      <path d="M 0.2047,-0.0184 A 0.0016,3.185618696017826e-08 -3.1156113220371268e-24 0,0 0.2015,-0.0184" />
      <path d="M 0.2015,-0.0184 A 0.0016,3.185618696017826e-08 -3.1156113220371268e-24 1,0 0.2047,-0.0184" />
      <path d="M 0.2217,-0.0184 A 0.0016000000000000044,3.185618696017835e-08 -3.1156113220371268e-24 0,0 0.2185,-0.0184" />
      <path d="M 0.2185,-0.0184 A 0.0016000000000000044,3.185618696017835e-08 -3.1156113220371268e-24 1,0 0.2217,-0.0184" />
      <path d="M 0.2387,-0.0184 A 0.0016000000000000044,3.185618696017835e-08 -3.1156113220371268e-24 0,0 0.2355,-0.0184" />
      <path d="M 0.2355,-0.0184 A 0.0016000000000000044,3.185618696017835e-08 -3.1156113220371268e-24 1,0 0.2387,-0.0184" />
      <path d="M 0.2281,0.0195 A 0.004500000000000004,8.959552582550142e-08 -3.1156113220371268e-24 0,0 0.2371,0.0195" />
      <line x1="0.2226" y1="0.0163" x2="0.2226" y2="0.018" />
      <line x1="0.2246" y1="0.0163" x2="0.2246" y2="0.018" />
      <line x1="0.2406" y1="0.0163" x2="0.2406" y2="0.018" />
      <line x1="0.2426" y1="0.0163" x2="0.2426" y2="0.018" />
      <line x1="0.1974" y1="-0.0163" x2="0.1974" y2="0.0163" />
      <line x1="0.2428" y1="-0.0163" x2="0.2428" y2="0.0163" />
      <line x1="0.2371" y1="0.018" x2="0.2371" y2="0.0195" />
      <line x1="0.2281" y1="0.018" x2="0.2281" y2="0.0195" />
    </g>
    <g fill="url(#hatch_servo)" stroke="none" stroke-width="0" id="servo_fill">
      <path d="M 0.0,0.0084 L 0.0,-0.0084 A 0.004,0.004 -90.0 0,1 0.004,-0.0124 L 0.0414,-0.0124 A 0.004,0.004 -90.0 0,1 0.0454,-0.0084 L 0.0454,0.0084 A 0.004,0.004 -90.0 0,1 0.0414,0.0124 L 0.004,0.0124 A 0.004,0.004 -90.0 0,1 0.0,0.0084" />
      <path d="M 0.1027,0.0124 A 0.004,0.004 180.0 0,1 0.0987,0.0084 L 0.0987,-0.0084 A 0.004,0.004 180.0 0,1 0.1027,-0.0124 L 0.1401,-0.0124 A 0.004,0.004 0.0 0,1 0.1441,-0.0084 L 0.1441,0.0084 A 0.004,0.004 0.0 0,1 0.1401,0.0124 L 0.1027,0.0124" />
    </g>
    <g fill="none" stroke="rgb(60,60,60)" stroke-opacity="0.4" stroke-width="0.00015" id="servo_hidden" stroke-dasharray="0.0018 0.00045">
      <path d="M 0.199401,-0.0163 A 0.004,7.964046740044567e-08 -3.901348164522844e-24 0,0 0.201401,-0.0163" />
      <line x1="0.1994" y1="-0.0163" x2="0.2398" y2="-0.0163" />
      <line x1="0.199401" y1="-0.0163" x2="0.2398" y2="-0.0163" />
      <path d="M 0.2428,-0.0163 A 0.004,7.964046740044567e-08 -3.901348164522844e-24 0,0 0.2398,-0.0163" />
      <path d="M 0.2356,-0.0163 A 0.0030000000000000027,5.973035055033429e-08 -3.1156113220371268e-24 0,0 0.2296,-0.0163" />
      <path d="M 0.2296,-0.0163 A 0.0030000000000000027,5.973035055033429e-08 -3.1156113220371268e-24 1,0 0.2356,-0.0163" />
      <line x1="0.2014" y1="0.0163" x2="0.2014" y2="-0.0163" />
      <path d="M 0.1974,0.0163 A 0.004,7.964046740044567e-08 180.0 0,1 0.2014,0.0163" />
      <path d="M 0.1994,-0.0163 A 0.004,7.964046740044567e-08 180.0 0,1 0.2014,-0.0163" />
      <line x1="0.2014" y1="0.0163" x2="0.2388" y2="0.0163" />
      <path d="M 0.2428,0.0163 A 0.004,7.964046740044567e-08 -3.901348164522844e-24 0,0 0.2388,0.0163" />
      <path d="M 0.2226,0.0163 A 0.002,3.9820233700222834e-08 -3.901348164522844e-24 0,0 0.2246,0.0163" />
      <line x1="0.2246" y1="0.0163" x2="0.238801" y2="0.0163" />
      <path d="M 0.2426,0.0163 A 0.002,3.9820233700222834e-08 180.0 0,1 0.2406,0.0163" />
      <path d="M 0.2426,0.0163 A 0.002,3.9820233700222834e-08 -3.901348164522844e-24 0,0 0.2406,0.0163" />
      <line x1="0.2246" y1="0.0163" x2="0.2406" y2="0.0163" />
      <path d="M 0.2226,0.0163 A 0.002,3.9820233700222834e-08 180.0 0,1 0.2246,0.0163" />
      <line x1="0.1994" y1="-0.0184" x2="0.1994" y2="-0.0163" />
      <line x1="0.1994" y1="-0.0184" x2="0.1994" y2="-0.0163" />
      <line x1="0.1994" y1="-0.0184" x2="0.2398" y2="-0.0184" />
      <line x1="0.2398" y1="-0.0184" x2="0.2398" y2="-0.0163" />
      <line x1="0.2398" y1="-0.0184" x2="0.2398" y2="-0.0163" />
      <line x1="0.2398" y1="-0.0184" x2="0.2398" y2="-0.0163" />
      <path d="M 0.239801,-0.0163 A 0.004,7.964046740044567e-08 180.0 0,1 0.238801,-0.0163" />
      <line x1="0.2388" y1="0.0163" x2="0.2388" y2="-0.0163" />
      <line x1="0.2428" y1="0.0163" x2="0.2428" y2="-0.0163" />
      <path d="M 0.2398,-0.0163 A 0.004,7.964046740044567e-08 -3.901348164522844e-24 0,0 0.2388,-0.0163" />
      <path d="M 0.2356,-0.0176 A 0.0030000000000000027,5.973035055033429e-08 -3.1156113220371268e-24 0,0 0.2296,-0.0176" />
      <path d="M 0.2296,-0.0176 A 0.0030000000000000027,5.973035055033429e-08 -3.1156113220371268e-24 1,0 0.2356,-0.0176" />
      <line x1="0.2388" y1="-0.0163" x2="0.2398" y2="-0.0163" />
      <line x1="0.1994" y1="-0.0184" x2="0.2398" y2="-0.0184" />
      <line x1="0.1994" y1="-0.0163" x2="0.2014" y2="-0.0163" />
      <path d="M 0.2426,0.018 A 0.002,3.9820233700222834e-08 -3.901348164522844e-24 0,0 0.2406,0.018" />
      <line x1="0.2246" y1="0.018" x2="0.2406" y2="0.018" />
      <path d="M 0.2226,0.018 A 0.002,3.9820233700222834e-08 180.0 0,1 0.2246,0.018" />
      <path d="M 0.2371,0.018 A 0.004500000000000004,8.959552582550142e-08 -3.1156113220371268e-24 0,0 0.2281,0.018" />
      <path d="M 0.2281,0.018 A 0.004500000000000004,8.959552582550142e-08 -3.1156113220371268e-24 0,0 0.2371,0.018" />
      <path d="M 0.2047,-0.0084 A 0.0016,3.185618696017826e-08 -3.1156113220371268e-24 0,0 0.2015,-0.0084" />
      <path d="M 0.2015,-0.0084 A 0.0016,3.185618696017826e-08 -3.1156113220371268e-24 1,0 0.2047,-0.0084" />
      <path d="M 0.2217,-0.0084 A 0.0016000000000000044,3.185618696017835e-08 -3.1156113220371268e-24 0,0 0.2185,-0.0084" />
      <path d="M 0.2185,-0.0084 A 0.0016000000000000044,3.185618696017835e-08 -3.1156113220371268e-24 1,0 0.2217,-0.0084" />
      <path d="M 0.2387,-0.0084 A 0.0016000000000000044,3.185618696017835e-08 -3.1156113220371268e-24 0,0 0.2355,-0.0084" />
      <path d="M 0.2355,-0.0084 A 0.0016000000000000044,3.185618696017835e-08 -3.1156113220371268e-24 1,0 0.2387,-0.0084" />
      <path d="M 0.2047,-0.0084 A 0.0016,3.185618696017826e-08 -3.1156113220371268e-24 0,0 0.2015,-0.0084" />
      <path d="M 0.2015,-0.0084 A 0.0016,3.185618696017826e-08 -3.1156113220371268e-24 1,0 0.2047,-0.0084" />
      <path d="M 0.2217,-0.0084 A 0.0016000000000000044,3.185618696017835e-08 -3.1156113220371268e-24 0,0 0.2185,-0.0084" />
      <path d="M 0.2185,-0.0084 A 0.0016000000000000044,3.185618696017835e-08 -3.1156113220371268e-24 1,0 0.2217,-0.0084" />
      <path d="M 0.2387,-0.0084 A 0.0016000000000000044,3.185618696017835e-08 -3.1156113220371268e-24 0,0 0.2355,-0.0084" />
      <path d="M 0.2355,-0.0084 A 0.0016000000000000044,3.185618696017835e-08 -3.1156113220371268e-24 1,0 0.2387,-0.0084" />
      <path d="M 0.2371,0.0195 A 0.004500000000000004,8.959552582550142e-08 -3.1156113220371268e-24 0,0 0.2281,0.0195" />
      <line x1="0.2296" y1="-0.0176" x2="0.2296" y2="-0.0163" />
      <line x1="0.2015" y1="-0.0184" x2="0.2015" y2="-0.0084" />
      <line x1="0.2185" y1="-0.0184" x2="0.2185" y2="-0.0084" />
      <line x1="0.2355" y1="-0.0184" x2="0.2355" y2="-0.0084" />
      <line x1="0.2015" y1="-0.0184" x2="0.2015" y2="-0.0084" />
      <line x1="0.2185" y1="-0.0184" x2="0.2185" y2="-0.0084" />
      <line x1="0.2355" y1="-0.0184" x2="0.2355" y2="-0.0084" />
      <line x1="0.2426" y1="0.0163" x2="0.2426" y2="0.018" />
      <line x1="0.2406" y1="0.0163" x2="0.2406" y2="0.018" />
      <line x1="0.2246" y1="0.0163" x2="0.2246" y2="0.018" />
      <line x1="0.2226" y1="0.0163" x2="0.2226" y2="0.018" />
    </g>
    <g fill="none" stroke="rgb(50,120,190)" stroke-width="0.00035" id="bracket">
      <line x1="0.04945" y1="-0.003" x2="0.04945" y2="-0.0157" />
      <line x1="0.04945" y1="-0.003" x2="0.05375" y2="-0.003" />
      <line x1="0.05375" y1="0.003" x2="0.05375" y2="-0.003" />
      <line x1="0.04945" y1="0.003" x2="0.05375" y2="0.003" />
      <line x1="0.04945" y1="0.0157" x2="0.04945" y2="0.003" />
      <line x1="0.04945" y1="0.0157" x2="0.0907" y2="0.0157" />
      <line x1="0.0907" y1="0.0157" x2="0.0907" y2="0.0127" />
      <line x1="0.0548" y1="0.0127" x2="0.0907" y2="0.0127" />
      <line x1="0.0548" y1="0.0127" x2="0.0548" y2="-0.0127" />
      <line x1="0.0548" y1="-0.0127" x2="0.0907" y2="-0.0127" />
      <line x1="0.0907" y1="-0.0127" x2="0.0907" y2="-0.0157" />
      <line x1="0.04945" y1="-0.0157" x2="0.0907" y2="-0.0157" />
      <line x1="0.14815" y1="0.0157" x2="0.14815" y2="-0.0157" />
      <line x1="0.14815" y1="0.0157" x2="0.1894" y2="0.0157" />
      <line x1="0.1894" y1="0.0157" x2="0.1894" y2="0.0127" />
      <line x1="0.1535" y1="0.0127" x2="0.1894" y2="0.0127" />
      <line x1="0.1535" y1="0.0127" x2="0.1535" y2="-0.0127" />
      <line x1="0.1535" y1="-0.0127" x2="0.1894" y2="-0.0127" />
      <line x1="0.1894" y1="-0.0127" x2="0.1894" y2="-0.0157" />
      <line x1="0.14815" y1="-0.0157" x2="0.1894" y2="-0.0157" />
      <line x1="0.246918" y1="0.03852" x2="0.288168" y2="0.038519" />
      <line x1="0.246918" y1="0.03852" x2="0.246782" y2="0.038481" />
      <line x1="0.246918" y1="0.03852" x2="0.246918" y2="-0.01348" />
      <line x1="0.246918" y1="-0.01348" x2="0.288168" y2="-0.013481" />
      <line x1="0.288168" y1="0.038519" x2="0.288168" y2="-0.013481" />
      <line x1="0.288168" y1="-0.013481" x2="0.288032" y2="-0.01352" />
      <line x1="0.246782" y1="0.038481" x2="0.246782" y2="-0.013519" />
      <line x1="0.246782" y1="-0.013519" x2="0.288032" y2="-0.01352" />
      <line x1="0.246918" y1="-0.01348" x2="0.246782" y2="-0.013519" />
      <path d="M 0.246895,0.027913 A 0.0016000012334473398,6.919117201387989e-06 -90.00030766100872 0,0 0.246895,0.031113" />
      <path d="M 0.246895,0.031113 A 0.0016000012334473398,6.919117201387989e-06 -90.00030766100872 0,0 0.246895,0.027913" />
      <line x1="0.246863" y1="0.015504" x2="0.246863" y2="0.025504" />
      <line x1="0.246863" y1="0.015504" x2="0.246837" y2="0.015496" />
      <line x1="0.246837" y1="0.015496" x2="0.246837" y2="0.025496" />
      <line x1="0.246863" y1="0.025504" x2="0.246837" y2="0.025496" />
      <path d="M 0.246895,0.010913 A 0.0016000012334473404,6.9191172013879915e-06 -90.00030766100872 0,0 0.246895,0.014113" />
      <path d="M 0.246895,0.014113 A 0.0016000012334473404,6.9191172013879915e-06 -90.00030766100872 0,0 0.246895,0.010913" />
      <path d="M 0.246895,-0.006087 A 0.0016000012334473409,6.919117201387993e-06 -90.00030766100872 0,0 0.246895,-0.002887" />
      <path d="M 0.246895,-0.002887 A 0.0016000012334473409,6.919117201387993e-06 -90.00030766100872 0,0 0.246895,-0.006087" />
      <path d="M 0.246806,0.027887 A 0.0016000012334473415,6.9191172013879966e-06 -90.00030766100872 0,0 0.246806,0.031087" />
      <path d="M 0.246806,0.031087 A 0.0016000012334473415,6.9191172013879966e-06 -90.00030766100872 0,0 0.246806,0.027887" />
      <path d="M 0.246806,0.010887 A 0.0016000012334473404,6.9191172013879915e-06 -90.00030766100872 0,0 0.246806,0.014087" />
      <path d="M 0.246806,0.014087 A 0.0016000012334473404,6.9191172013879915e-06 -90.00030766100872 0,0 0.246806,0.010887" />
      <path d="M 0.246806,-0.006113 A 0.0016000012334473409,6.919117201387993e-06 -90.00030766100872 0,0 0.246806,-0.002913" />
      <path d="M 0.246806,-0.002913 A 0.0016000012334473409,6.919117201387993e-06 -90.00030766100872 0,0 0.246806,-0.006113" />
      <line x1="0.246837" y1="0.025496" x2="0.246863" y2="0.025496" />
    </g>
    <g fill="url(#hatch_bracket)" stroke="none" stroke-width="0" id="bracket_fill">
      <path d="M 0.04945,-0.003 L 0.04945,-0.0157 L 0.0907,-0.0157 L 0.0907,-0.0127 L 0.0548,-0.0127 L 0.0548,0.0127 L 0.0907,0.0127 L 0.0907,0.0157 L 0.04945,0.0157 L 0.04945,0.003 L 0.05375,0.003 L 0.05375,-0.003 L 0.04945,-0.003" />
      <path d="M 0.14815,0.0157 L 0.14815,-0.0157 L 0.1894,-0.0157 L 0.1894,-0.0127 L 0.1535,-0.0127 L 0.1535,0.0127 L 0.1894,0.0127 L 0.1894,0.0157 L 0.14815,0.0157" />
    </g>
    <g fill="none" stroke="rgb(50,120,190)" stroke-opacity="0.4" stroke-width="0.00015" id="bracket_hidden" stroke-dasharray="0.0018 0.00045">
      <line x1="0.288168" y1="0.038519" x2="0.288032" y2="0.03848" />
      <line x1="0.246782" y1="0.038481" x2="0.288032" y2="0.03848" />
      <line x1="0.288032" y1="0.03848" x2="0.288032" y2="-0.01352" />
      <line x1="0.288155" y1="-0.010484" x2="0.288155" y2="0.035516" />
      <line x1="0.288155" y1="-0.010484" x2="0.288045" y2="-0.010516" />
      <line x1="0.288045" y1="-0.010516" x2="0.288045" y2="0.035484" />
      <line x1="0.288155" y1="0.035516" x2="0.288045" y2="0.035484" />
      <line x1="0.252255" y1="-0.010484" x2="0.288155" y2="-0.010484" />
      <line x1="0.252255" y1="0.035516" x2="0.288155" y2="0.035516" />
      <line x1="0.252255" y1="0.035516" x2="0.252255" y2="-0.010484" />
      <line x1="0.252145" y1="-0.010516" x2="0.288045" y2="-0.010516" />
      <line x1="0.252255" y1="-0.010484" x2="0.252145" y2="-0.010516" />
      <line x1="0.252145" y1="0.035484" x2="0.288045" y2="0.035484" />
      <line x1="0.252145" y1="0.035484" x2="0.252145" y2="-0.010516" />
      <line x1="0.252255" y1="0.035516" x2="0.252145" y2="0.035484" />
      <path d="M 0.252245,0.027913 A 0.0016000012334473398,6.919117201387989e-06 -90.00030766100872 0,0 0.252245,0.031113" />
      <path d="M 0.252245,0.031113 A 0.0016000012334473398,6.919117201387989e-06 -90.00030766100872 0,0 0.252245,0.027913" />
      <line x1="0.246863" y1="0.015504" x2="0.251163" y2="0.015504" />
      <line x1="0.251163" y1="0.025504" x2="0.251163" y2="0.015504" />
      <line x1="0.246863" y1="0.025504" x2="0.251163" y2="0.025504" />
      <line x1="0.251163" y1="0.015504" x2="0.251137" y2="0.015496" />
      <line x1="0.246837" y1="0.015496" x2="0.251137" y2="0.015496" />
      <line x1="0.251137" y1="0.025496" x2="0.251137" y2="0.015496" />
      <line x1="0.246863" y1="0.025496" x2="0.251137" y2="0.025496" />
      <line x1="0.251163" y1="0.025504" x2="0.251137" y2="0.025496" />
      <path d="M 0.252245,0.010913 A 0.0016000012334473404,6.9191172013879915e-06 -90.00030766100872 0,0 0.252245,0.014113" />
      <path d="M 0.252245,0.014113 A 0.0016000012334473404,6.9191172013879915e-06 -90.00030766100872 0,0 0.252245,0.010913" />
      <path d="M 0.252245,-0.006087 A 0.0016000012334473409,6.919117201387993e-06 -90.00030766100872 0,0 0.252245,-0.002887" />
      <path d="M 0.252245,-0.002887 A 0.0016000012334473409,6.919117201387993e-06 -90.00030766100872 0,0 0.252245,-0.006087" />
      <path d="M 0.252156,0.027887 A 0.0016000012334473415,6.9191172013879966e-06 -90.00030766100872 0,0 0.252156,0.031087" />
      <path d="M 0.252156,0.031087 A 0.0016000012334473415,6.9191172013879966e-06 -90.00030766100872 0,0 0.252156,0.027887" />
      <path d="M 0.252156,0.010887 A 0.0016000012334473404,6.9191172013879915e-06 -90.00030766100872 0,0 0.252156,0.014087" />
      <path d="M 0.252156,0.014087 A 0.0016000012334473404,6.9191172013879915e-06 -90.00030766100872 0,0 0.252156,0.010887" />
      <path d="M 0.252156,-0.006113 A 0.0016000012334473409,6.919117201387993e-06 -90.00030766100872 0,0 0.252156,-0.002913" />
      <path d="M 0.252156,-0.002913 A 0.0016000012334473409,6.919117201387993e-06 -90.00030766100872 0,0 0.252156,-0.006113" />
      <line x1="0.246895" y1="0.027913" x2="0.252245" y2="0.027913" />
      <line x1="0.246895" y1="0.031113" x2="0.252245" y2="0.031113" />
      <line x1="0.246895" y1="0.010913" x2="0.252245" y2="0.010913" />
      <line x1="0.246895" y1="0.014113" x2="0.252245" y2="0.014113" />
      <line x1="0.246895" y1="-0.006087" x2="0.252245" y2="-0.006087" />
      <line x1="0.246895" y1="-0.002887" x2="0.252245" y2="-0.002887" />
      <line x1="0.246806" y1="0.027887" x2="0.252156" y2="0.027887" />
      <line x1="0.246806" y1="0.031087" x2="0.252156" y2="0.031087" />
      <line x1="0.246806" y1="0.010887" x2="0.252156" y2="0.010887" />
      <line x1="0.246806" y1="0.014087" x2="0.252156" y2="0.014087" />
      <line x1="0.246806" y1="-0.006113" x2="0.252156" y2="-0.006113" />
      <line x1="0.246806" y1="-0.002913" x2="0.252156" y2="-0.002913" />
    </g>
  </g>
  <text x="0.045350" y="-0.044195" text-anchor="middle" font-family="'Input Sans Narrow', 'DejaVu Sans', Arial, sans-serif" font-size="0.002500" font-weight="bold" fill="#333">A-A</text>
  <text x="0.045350" y="-0.040695" text-anchor="middle" font-family="'Input Sans Narrow', 'DejaVu Sans', Arial, sans-serif" font-size="0.001800" fill="#888">shaft_face</text>
  <line x1="0.000000" y1="0.016500" x2="0.000000" y2="0.019500" stroke="#5C7080" stroke-width="0.000140" stroke-opacity="0.5"/>
  <line x1="0.090700" y1="0.016500" x2="0.090700" y2="0.019500" stroke="#5C7080" stroke-width="0.000140" stroke-opacity="0.5"/>
  <line x1="0.000000" y1="0.017900" x2="0.000000" y2="0.019500" stroke="#5C7080" stroke-width="0.000200"/>
  <line x1="0.090700" y1="0.017900" x2="0.090700" y2="0.019500" stroke="#5C7080" stroke-width="0.000200"/>
  <line x1="0.000000" y1="0.018700" x2="0.090700" y2="0.018700" stroke="#5C7080" stroke-width="0.000200"/>
  <polygon points="0.000000,0.018700 0.001500,0.018100 0.001500,0.019300" fill="#5C7080"/>
  <polygon points="0.090700,0.018700 0.089200,0.018100 0.089200,0.019300" fill="#5C7080"/>
  <text x="0.045350" y="0.017500" text-anchor="middle" font-family="'Input Sans Narrow', 'DejaVu Sans', Arial, sans-serif" font-size="0.001600" fill="#5C7080">90.7</text>
  <line x1="0.091500" y1="-0.015700" x2="0.094500" y2="-0.015700" stroke="#5C7080" stroke-width="0.000140" stroke-opacity="0.5"/>
  <line x1="0.091500" y1="0.015700" x2="0.094500" y2="0.015700" stroke="#5C7080" stroke-width="0.000140" stroke-opacity="0.5"/>
  <line x1="0.092900" y1="-0.015700" x2="0.094500" y2="-0.015700" stroke="#5C7080" stroke-width="0.000200"/>
  <line x1="0.092900" y1="0.015700" x2="0.094500" y2="0.015700" stroke="#5C7080" stroke-width="0.000200"/>
  <line x1="0.093700" y1="-0.015700" x2="0.093700" y2="0.015700" stroke="#5C7080" stroke-width="0.000200"/>
  <polygon points="0.093700,-0.015700 0.093100,-0.014200 0.094300,-0.014200" fill="#5C7080"/>
  <polygon points="0.093700,0.015700 0.093100,0.014200 0.094300,0.014200" fill="#5C7080"/>
  <text x="0.095200" y="0.000000" text-anchor="middle" dominant-baseline="central" font-family="'Input Sans Narrow', 'DejaVu Sans', Arial, sans-serif" font-size="0.001600" fill="#5C7080" transform="rotate(-90 0.095200 0.000000)">31.4</text>
  <text x="0.144050" y="-0.044195" text-anchor="middle" font-family="'Input Sans Narrow', 'DejaVu Sans', Arial, sans-serif" font-size="0.002500" font-weight="bold" fill="#333">B-B</text>
  <text x="0.144050" y="-0.040695" text-anchor="middle" font-family="'Input Sans Narrow', 'DejaVu Sans', Arial, sans-serif" font-size="0.001800" fill="#888">mid_body</text>
  <text x="0.242784" y="-0.044195" text-anchor="middle" font-family="'Input Sans Narrow', 'DejaVu Sans', Arial, sans-serif" font-size="0.002500" font-weight="bold" fill="#333">side_XZ</text>
  <line x1="0.197400" y1="0.019200" x2="0.197400" y2="0.022200" stroke="#5C7080" stroke-width="0.000140" stroke-opacity="0.5"/>
  <line x1="0.288168" y1="0.019200" x2="0.288168" y2="0.022200" stroke="#5C7080" stroke-width="0.000140" stroke-opacity="0.5"/>
  <line x1="0.197400" y1="0.020600" x2="0.197400" y2="0.022200" stroke="#5C7080" stroke-width="0.000200"/>
  <line x1="0.288168" y1="0.020600" x2="0.288168" y2="0.022200" stroke="#5C7080" stroke-width="0.000200"/>
  <line x1="0.197400" y1="0.021400" x2="0.288168" y2="0.021400" stroke="#5C7080" stroke-width="0.000200"/>
  <polygon points="0.197400,0.021400 0.198900,0.020800 0.198900,0.022000" fill="#5C7080"/>
  <polygon points="0.288168,0.021400 0.286668,0.020800 0.286668,0.022000" fill="#5C7080"/>
  <text x="0.242784" y="0.020200" text-anchor="middle" font-family="'Input Sans Narrow', 'DejaVu Sans', Arial, sans-serif" font-size="0.001600" fill="#5C7080">90.8</text>
  <line x1="0.288968" y1="-0.038520" x2="0.291968" y2="-0.038520" stroke="#5C7080" stroke-width="0.000140" stroke-opacity="0.5"/>
  <line x1="0.288968" y1="0.018400" x2="0.291968" y2="0.018400" stroke="#5C7080" stroke-width="0.000140" stroke-opacity="0.5"/>
  <line x1="0.290368" y1="-0.038520" x2="0.291968" y2="-0.038520" stroke="#5C7080" stroke-width="0.000200"/>
  <line x1="0.290368" y1="0.018400" x2="0.291968" y2="0.018400" stroke="#5C7080" stroke-width="0.000200"/>
  <line x1="0.291168" y1="-0.038520" x2="0.291168" y2="0.018400" stroke="#5C7080" stroke-width="0.000200"/>
  <polygon points="0.291168,-0.038520 0.290568,-0.037020 0.291768,-0.037020" fill="#5C7080"/>
  <polygon points="0.291168,0.018400 0.290568,0.016900 0.291768,0.016900" fill="#5C7080"/>
  <text x="0.292668" y="-0.010060" text-anchor="middle" dominant-baseline="central" font-family="'Input Sans Narrow', 'DejaVu Sans', Arial, sans-serif" font-size="0.001600" fill="#5C7080" transform="rotate(-90 0.292668 -0.010060)">56.9</text>
  <line x1="0.194400" y1="-0.016300" x2="0.291168" y2="-0.016300" stroke="#555" stroke-width="0.000250" stroke-dasharray="0.002500,0.000800,0.000500,0.000800"/>
  <text x="0.192900" y="-0.015700" text-anchor="end" font-family="'Input Sans Narrow', 'DejaVu Sans', Arial, sans-serif" font-size="0.002000" font-weight="bold" fill="#555">A</text>
  <text x="0.292668" y="-0.015700" text-anchor="start" font-family="'Input Sans Narrow', 'DejaVu Sans', Arial, sans-serif" font-size="0.002000" font-weight="bold" fill="#555">A</text>
  <line x1="0.194400" y1="-0.000000" x2="0.291168" y2="-0.000000" stroke="#555" stroke-width="0.000250" stroke-dasharray="0.002500,0.000800,0.000500,0.000800"/>
  <text x="0.192900" y="0.000600" text-anchor="end" font-family="'Input Sans Narrow', 'DejaVu Sans', Arial, sans-serif" font-size="0.002000" font-weight="bold" fill="#555">B</text>
  <text x="0.292668" y="0.000600" text-anchor="start" font-family="'Input Sans Narrow', 'DejaVu Sans', Arial, sans-serif" font-size="0.002000" font-weight="bold" fill="#555">B</text>
  <text x="-0.001175" y="0.026575" font-family="'Input Sans Narrow', 'DejaVu Sans', Arial, sans-serif" font-size="0.003500" font-weight="bold" fill="#222">joint_left_wheel</text>
  <line x1="-0.001175" y1="0.030575" x2="0.008825" y2="0.030575" stroke="#333" stroke-width="0.000350"/>
  <line x1="-0.001175" y1="0.029575" x2="-0.001175" y2="0.031575" stroke="#333" stroke-width="0.000250"/>
  <line x1="0.008825" y1="0.029575" x2="0.008825" y2="0.031575" stroke="#333" stroke-width="0.000250"/>
  <text x="0.010325" y="0.031275" font-family="'Input Sans Narrow', 'DejaVu Sans', Arial, sans-serif" font-size="0.001800" fill="#888">10 mm</text>
  <rect x="0.028825" y="0.024075" width="0.004000" height="0.002500" fill="url(#hatch_servo)" stroke="rgb(60,60,60)" stroke-width="0.000300"/>
  <text x="0.034325" y="0.026075" font-family="'Input Sans Narrow', 'DejaVu Sans', Arial, sans-serif" font-size="0.001800" fill="rgb(60,60,60)">servo</text>
  <rect x="0.028825" y="0.027575" width="0.004000" height="0.002500" fill="url(#hatch_bracket)" stroke="rgb(50,120,190)" stroke-width="0.000300"/>
  <text x="0.034325" y="0.029575" font-family="'Input Sans Narrow', 'DejaVu Sans', Arial, sans-serif" font-size="0.001800" fill="rgb(50,120,190)">bracket</text>
</svg>