<?xml version='1.0' encoding='utf-8'?>
<svg width="188.85mm" height="73.10mm" viewBox="-0.003175 -0.031477 0.188850 0.073103" version="1.1" xmlns="http://www.w3.org/2000/svg">
  <defs>
    <pattern id="hatch_servo" width="0.0012" height="0.0012" patternUnits="userSpaceOnUse" patternTransform="rotate(45)">
      <line x1="0" y1="0" x2="0" y2="0.0012" stroke="rgb(60,60,60)" stroke-width="0.0001" stroke-opacity="0.6"/>
    </pattern>
    <pattern id="hatch_bracket" width="0.0012" height="0.0012" patternUnits="userSpaceOnUse" patternTransform="rotate(75)">
      <line x1="0" y1="0" x2="0" y2="0.0012" stroke="rgb(50,120,190)" stroke-width="0.0001" stroke-opacity="0.6"/>
    </pattern>
  </defs>
  <g transform="scale(1,-1)" stroke-linecap="round">
    <g fill="none" stroke="rgb(60,60,60)" stroke-width="0.00035" id="servo">
      <line x1="0.0028" y1="-0.0084" x2="0.0028" y2="0.0084" />
      <path d="M 0.0028,-0.0084 A 0.004,0.004 -90.0 0,1 0.0068,-0.0124" />
      <line x1="0.0068" y1="-0.0124" x2="0.0442" y2="-0.0124" />
      <path d="M 0.0482,-0.0084 A 0.004,0.004 -90.0 0,0 0.0442,-0.0124" />
      <line x1="0.0482" y1="-0.0084" x2="0.0482" y2="0.0084" />
      <path d="M 0.0482,0.0084 A 0.004,0.004 -90.0 0,1 0.0442,0.0124" />
      <line x1="0.0068" y1="0.0124" x2="0.0442" y2="0.0124" />
      <path d="M 0.0028,0.0084 A 0.004,0.004 -90.0 0,0 0.0068,0.0124" />
      <path d="M 0.0658,0.0124 A 0.004,0.004 180.0 0,1 0.0618,0.0084" />
      <line x1="0.0658" y1="0.0124" x2="0.1032" y2="0.0124" />
      <path d="M 0.1072,0.0084 A 0.004,0.004 0.0 0,1 0.1032,0.0124" />
      <line x1="0.1072" y1="0.0084" x2="0.1072" y2="-0.0084" />
      <path d="M 0.1032,-0.0124 A 0.004,0.004 0.0 0,1 0.1072,-0.0084" />
      <line x1="0.0658" y1="-0.0124" x2="0.1032" y2="-0.0124" />
      <path d="M 0.0618,-0.0084 A 0.004,0.004 180.0 0,1 0.0658,-0.0124" />
      <line x1="0.0618" y1="0.0084" x2="0.0618" y2="-0.0084" />
      <line x1="0.1263" y1="-0.0163" x2="0.1263" y2="0.0163" />
      <line x1="0.1263" y1="0.0163" x2="0.1263" y2="-0.0163" />
      <path d="M 0.1263,0.0163 A 0.004,7.964046740044567e-08 -3.901348164522844e-24 0,0 0.1303,0.0163" />
      <path d="M 0.1263,-0.0163 A 0.004,7.964046740044567e-08 -3.901348164522844e-24 0,0 0.1283,-0.0163" />
      <line x1="0.1303" y1="-0.0163" x2="0.1303" y2="0.0163" />
      <path d="M 0.1263,-0.0163 A 0.004,7.964046740044567e-08 180.0 0,1 0.1283,-0.0163" />
      <path d="M 0.1717,-0.0163 A 0.004,7.964046740044567e-08 180.0 0,1 0.1687,-0.0163" />
      <line x1="0.1303" y1="0.0163" x2="0.1677" y2="0.0163" />
      <path d="M 0.1717,0.0163 A 0.004,7.964046740044567e-08 180.0 0,1 0.1677,0.0163" />
      <line x1="0.1677" y1="0.0163" x2="0.1695" y2="0.0163" />
      <line x1="0.1283" y1="-0.0163" x2="0.1303" y2="-0.0163" />
      <line x1="0.1677" y1="-0.0163" x2="0.1677" y2="0.0163" />
      <line x1="0.1677" y1="-0.0163" x2="0.1687" y2="-0.0163" />
      <line x1="0.1687" y1="-0.0184" x2="0.1687" y2="-0.0163" />
      <line x1="0.1283" y1="-0.0184" x2="0.1687" y2="-0.0184" />
      <line x1="0.1283" y1="-0.0184" x2="0.1283" y2="-0.0163" />
      <line x1="0.1283" y1="-0.0184" x2="0.1283" y2="-0.0163" />
      <line x1="0.1283" y1="-0.0184" x2="0.1687" y2="-0.0184" />
      <line x1="0.1717" y1="-0.0163" x2="0.1717" y2="0.0163" />
      <path d="M 0.1515,0.018 A 0.002,3.9820233700222834e-08 -3.901348164522844e-24 0,0 0.1535,0.018" />
      <line x1="0.1535" y1="0.018" x2="0.1695" y2="0.018" />
      <path d="M 0.1715,0.018 A 0.002,3.9820233700222834e-08 180.0 0,1 0.1695,0.018" />
      <path d="M 0.1336,-0.0184 A 0.0016000000000000044,3.185618696017835e-08 -3.1156113220371268e-24 0,0 0.1304,-0.0184" />
      <path d="M 0.1304,-0.0184 A 0.0016000000000000044,3.185618696017835e-08 -3.1156113220371268e-24 1,0 0.1336,-0.0184" />
      <path d="M 0.1506,-0.0184 A 0.0016000000000000044,3.185618696017835e-08 -3.1156113220371268e-24 0,0 0.1474,-0.0184" />
      <path d="M 0.1474,-0.0184 A 0.0016000000000000044,3.185618696017835e-08 -3.1156113220371268e-24 1,0 0.1506,-0.0184" />
      <path d="M 0.1676,-0.0184 A 0.0016000000000000044,3.185618696017835e-08 -3.1156113220371268e-24 0,0 0.1644,-0.0184" />
      <path d="M 0.1644,-0.0184 A 0.0016000000000000044,3.185618696017835e-08 -3.1156113220371268e-24 1,0 0.1676,-0.0184" />
      <path d="M 0.1336,-0.0184 A 0.0016000000000000044,3.185618696017835e-08 -3.1156113220371268e-24 0,0 0.1304,-0.0184" />
      <path d="M 0.1304,-0.0184 A 0.0016000000000000044,3.185618696017835e-08 -3.1156113220371268e-24 1,0 0.1336,-0.0184" />
      <path d="M 0.1506,-0.0184 A 0.0016000000000000044,3.185618696017835e-08 -3.1156113220371268e-24 0,0 0.1474,-0.0184" />
      <path d="M 0.1474,-0.0184 A 0.0016000000000000044,3.185618696017835e-08 -3.1156113220371268e-24 1,0 0.1506,-0.0184" />
      <path d="M 0.1676,-0.0184 A 0.0016000000000000044,3.185618696017835e-08 -3.1156113220371268e-24 0,0 0.1644,-0.0184" />
      <path d="M 0.1644,-0.0184 A 0.0016000000000000044,3.185618696017835e-08 -3.1156113220371268e-24 1,0 0.1676,-0.0184" />
      <path d="M 0.157,0.0195 A 0.004500000000000004,8.959552582550142e-08 -3.1156113220371268e-24 0,0 0.166,0.0195" />
      <line x1="0.1515" y1="0.0163" x2="0.1515" y2="0.018" />
      <line x1="0.1535" y1="0.0163" x2="0.1535" y2="0.018" />
      <line x1="0.1695" y1="0.0163" x2="0.1695" y2="0.018" />
      <line x1="0.1715" y1="0.0163" x2="0.1715" y2="0.018" />
      <line x1="0.1263" y1="-0.0163" x2="0.1263" y2="0.0163" />
      <line x1="0.1717" y1="-0.0163" x2="0.1717" y2="0.0163" />
      <line x1="0.166" y1="0.018" x2="0.166" y2="0.0195" />
      <line x1="0.157" y1="0.018" x2="0.157" y2="0.0195" />
    </g>
    <g fill="url(#hatch_servo)" stroke="none" stroke-width="0" id="servo_fill">
      <path d="M 0.0028,0.0084 L 0.0028,-0.0084 A 0.004,0.004 -90.0 0,1 0.0068,-0.0124 L 0.0442,-0.0124 A 0.004,0.004 -90.0 0,1 0.0482,-0.0084 L 0.0482,0.0084 A 0.004,0.004 -90.0 0,1 0.0442,0.0124 L 0.0068,0.0124 A 0.004,0.004 -90.0 0,1 0.0028,0.0084" />
      <path d="M 0.0658,0.0124 A 0.004,0.004 180.0 0,1 0.0618,0.0084 L 0.0618,-0.0084 A 0.004,0.004 180.0 0,1 0.0658,-0.0124 L 0.1032,-0.0124 A 0.004,0.004 0.0 0,1 0.1072,-0.0084 L 0.1072,0.0084 A 0.004,0.004 0.0 0,1 0.1032,0.0124 L 0.0658,0.0124" />
    </g>
    <g fill="none" stroke="rgb(60,60,60)" stroke-opacity="0.4" stroke-width="0.00015" id="servo_hidden" stroke-dasharray="0.0018 0.00045">
      <path d="M 0.1283,-0.0163 A 0.004,7.964046740044567e-08 -3.901348164522844e-24 0,0 0.1303,-0.0163" />
      <line x1="0.1283" y1="-0.0163" x2="0.1687" y2="-0.0163" />
      <line x1="0.1283" y1="-0.0163" x2="0.1687" y2="-0.0163" />
      <path d="M 0.1717,-0.0163 A 0.004,7.964046740044567e-08 -3.901348164522844e-24 0,0 0.1687,-0.0163" />
      <path d="M 0.1645,-0.0163 A 0.0030000000000000027,5.973035055033429e-08 -3.1156113220371268e-24 0,0 0.1585,-0.0163" />
      <path d="M 0.1585,-0.0163 A 0.0030000000000000027,5.973035055033429e-08 -3.1156113220371268e-24 1,0 0.1645,-0.0163" />
      <line x1="0.1303" y1="0.0163" x2="0.1303" y2="-0.0163" />
      <path d="M 0.1263,0.0163 A 0.004,7.964046740044567e-08 180.0 0,1 0.1303,0.0163" />
      <path d="M 0.1283,-0.0163 A 0.004,7.964046740044567e-08 180.0 0,1 0.1303,-0.0163" />
      <line x1="0.1303" y1="0.0163" x2="0.1677" y2="0.0163" />
      <path d="M 0.1717,0.0163 A 0.004,7.964046740044567e-08 -3.901348164522844e-24 0,0 0.1677,0.0163" />
      <path d="M 0.1515,0.0163 A 0.002,3.9820233700222834e-08 -3.901348164522844e-24 0,0 0.1535,0.0163" />
      <line x1="0.1535" y1="0.0163" x2="0.1677" y2="0.0163" />
      <path d="M 0.1715,0.0163 A 0.002,3.9820233700222834e-08 180.0 0,1 0.1695,0.0163" />
      <path d="M 0.1715,0.0163 A 0.002,3.9820233700222834e-08 -3.901348164522844e-24 0,0 0.1695,0.0163" />
      <line x1="0.1535" y1="0.0163" x2="0.1695" y2="0.0163" />
      <path d="M 0.1515,0.0163 A 0.002,3.9820233700222834e-08 180.0 0,1 0.1535,0.0163" />
      <line x1="0.1283" y1="-0.0184" x2="0.1283" y2="-0.0163" />
      <line x1="0.1283" y1="-0.0184" x2="0.1283" y2="-0.0163" />
      <line x1="0.1283" y1="-0.0184" x2="0.1687" y2="-0.0184" />
      <line x1="0.1687" y1="-0.0184" x2="0.1687" y2="-0.0163" />
      <line x1="0.1687" y1="-0.0184" x2="0.1687" y2="-0.0163" />
      <line x1="0.1687" y1="-0.0184" x2="0.1687" y2="-0.0163" />
      <path d="M 0.1687,-0.0163 A 0.004,7.964046740044567e-08 180.0 0,1 0.1677,-0.0163" />
      <line x1="0.1677" y1="0.0163" x2="0.1677" y2="-0.0163" />
      <line x1="0.1717" y1="0.0163" x2="0.1717" y2="-0.0163" />
      <path d="M 0.1687,-0.0163 A 0.004,7.964046740044567e-08 -3.901348164522844e-24 0,0 0.1677,-0.0163" />
      <path d="M 0.1645,-0.0176 A 0.0030000000000000027,5.973035055033429e-08 -3.1156113220371268e-24 0,0 0.1585,-0.0176" />
      <path d="M 0.1585,-0.0176 A 0.0030000000000000027,5.973035055033429e-08 -3.1156113220371268e-24 1,0 0.1645,-0.0176" />
      <line x1="0.1677" y1="-0.0163" x2="0.1687" y2="-0.0163" />
      <line x1="0.1283" y1="-0.0184" x2="0.1687" y2="-0.0184" />
      <line x1="0.1283" y1="-0.0163" x2="0.1303" y2="-0.0163" />
      <path d="M 0.1715,0.018 A 0.002,3.9820233700222834e-08 -3.901348164522844e-24 0,0 0.1695,0.018" />
      <line x1="0.1535" y1="0.018" x2="0.1695" y2="0.018" />
      <path d="M 0.1515,0.018 A 0.002,3.9820233700222834e-08 180.0 0,1 0.1535,0.018" />
      <path d="M 0.166,0.018 A 0.004500000000000004,8.959552582550142e-08 -3.1156113220371268e-24 0,0 0.157,0.018" />
      <path d="M 0.157,0.018 A 0.004500000000000004,8.959552582550142e-08 -3.1156113220371268e-24 0,0 0.166,0.018" />
      <path d="M 0.1336,-0.0084 A 0.0016000000000000044,3.185618696017835e-08 -3.1156113220371268e-24 0,0 0.1304,-0.0084" />
      <path d="M 0.1304,-0.0084 A 0.0016000000000000044,3.185618696017835e-08 -3.1156113220371268e-24 1,0 0.1336,-0.0084" />
      <path d="M 0.1506,-0.0084 A 0.0016000000000000044,3.185618696017835e-08 -3.1156113220371268e-24 0,0 0.1474,-0.0084" />
      <path d="M 0.1474,-0.0084 A 0.0016000000000000044,3.185618696017835e-08 -3.1156113220371268e-24 1,0 0.1506,-0.0084" />
      <path d="M 0.1676,-0.0084 A 0.0016000000000000044,3.185618696017835e-08 -3.1156113220371268e-24 0,0 0.1644,-0.0084" />
      <path d="M 0.1644,-0.0084 A 0.0016000000000000044,3.185618696017835e-08 -3.1156113220371268e-24 1,0 0.1676,-0.0084" />
      <path d="M 0.1336,-0.0084 A 0.0016000000000000044,3.185618696017835e-08 -3.1156113220371268e-24 0,0 0.1304,-0.0084" />
      <path d="M 0.1304,-0.0084 A 0.0016000000000000044,3.185618696017835e-08 -3.1156113220371268e-24 1,0 0.1336,-0.0084" />
      <path d="M 0.1506,-0.0084 A 0.0016000000000000044,3.185618696017835e-08 -3.1156113220371268e-24 0,0 0.1474,-0.0084" />
      <path d="M 0.1474,-0.0084 A 0.0016000000000000044,3.185618696017835e-08 -3.1156113220371268e-24 1,0 0.1506,-0.0084" />
      <path d="M 0.1676,-0.0084 A 0.0016000000000000044,3.185618696017835e-08 -3.1156113220371268e-24 0,0 0.1644,-0.0084" />
      <path d="M 0.1644,-0.0084 A 0.0016000000000000044,3.185618696017835e-08 -3.1156113220371268e-24 1,0 0.1676,-0.0084" />
      <path d="M 0.166,0.0195 A 0.004500000000000004,8.959552582550142e-08 -3.1156113220371268e-24 0,0 0.157,0.0195" />
      <line x1="0.1585" y1="-0.0176" x2="0.1585" y2="-0.0163" />
      <line x1="0.1304" y1="-0.0184" x2="0.1304" y2="-0.0084" />
      <line x1="0.1474" y1="-0.0184" x2="0.1474" y2="-0.0084" />
      <line x1="0.1644" y1="-0.0184" x2="0.1644" y2="-0.0084" />
      <line x1="0.1304" y1="-0.0184" x2="0.1304" y2="-0.0084" />
      <line x1="0.1474" y1="-0.0184" x2="0.1474" y2="-0.0084" />
      <line x1="0.1644" y1="-0.0184" x2="0.1644" y2="-0.0084" />
      <line x1="0.1715" y1="0.0163" x2="0.1715" y2="0.018" />
      <line x1="0.1695" y1="0.0163" x2="0.1695" y2="0.018" />
      <line x1="0.1535" y1="0.0163" x2="0.1535" y2="0.018" />
      <line x1="0.1515" y1="0.0163" x2="0.1515" y2="0.018" />
    </g>
    <g fill="none" stroke="rgb(50,120,190)" stroke-width="0.00035" id="bracket">
      <line x1="0.0" y1="0.0152" x2="0.051" y2="0.0152" />
      <line x1="0.051" y1="0.0152" x2="0.051" y2="-0.0152" />
      <line x1="0.0" y1="-0.0152" x2="0.051" y2="-0.0152" />
      <line x1="0.0" y1="0.0152" x2="0.0" y2="-0.0152" />
      <line x1="0.0025" y1="0.0127" x2="0.0025" y2="-0.0127" />
      <line x1="0.0025" y1="-0.0127" x2="0.0485" y2="-0.0127" />
      <line x1="0.0485" y1="0.0127" x2="0.0485" y2="-0.0127" />
      <line x1="0.0025" y1="0.0127" x2="0.0485" y2="0.0127" />
      <line x1="0.059" y1="0.0152" x2="0.11" y2="0.0152" />
      <line x1="0.11" y1="0.0152" x2="0.11" y2="-0.0152" />
      <line x1="0.059" y1="-0.0152" x2="0.11" y2="-0.0152" />
      <line x1="0.059" y1="0.0152" x2="0.059" y2="-0.0152" />
      <line x1="0.0615" y1="0.0127" x2="0.0615" y2="-0.0127" />
      <line x1="0.0615" y1="-0.0127" x2="0.1075" y2="-0.0127" />
      <line x1="0.1075" y1="0.0127" x2="0.1075" y2="-0.0127" />
      <line x1="0.0615" y1="0.0127" x2="0.1075" y2="0.0127" />
      <line x1="0.1222" y1="-0.02085" x2="0.118" y2="-0.02085" />
      <line x1="0.1222" y1="-0.02085" x2="0.1222" y2="-0.01175" />
      <line x1="0.1222" y1="-0.01175" x2="0.118" y2="-0.01175" />
      <line x1="0.118" y1="-0.02085" x2="0.118" y2="-0.01175" />
      <line x1="0.118" y1="-0.02015" x2="0.118" y2="-0.01245" />
      <line x1="0.1222" y1="-0.01175" x2="0.118" y2="-0.01175" />
      <line x1="0.1235" y1="-0.021452" x2="0.1235" y2="0.022298" />
      <line x1="0.1235" y1="0.022298" x2="0.1235" y2="0.022302" />
      <line x1="0.1235" y1="-0.020099" x2="0.1235" y2="-0.020101" />
      <line x1="0.1235" y1="-0.020099" x2="0.1235" y2="-0.012499" />
      <line x1="0.1235" y1="-0.021452" x2="0.1745" y2="-0.021452" />
      <line x1="0.1745" y1="-0.021452" x2="0.1745" y2="0.022298" />
      <line x1="0.1235" y1="0.022298" x2="0.1745" y2="0.022298" />
      <line x1="0.1235" y1="0.022302" x2="0.1745" y2="0.022302" />
      <line x1="0.1745" y1="0.022298" x2="0.1745" y2="0.022302" />
      <line x1="0.1235" y1="-0.018475" x2="0.1222" y2="-0.018475" />
      <line x1="0.1235" y1="-0.014725" x2="0.1222" y2="-0.014725" />
    </g>
    <g fill="url(#hatch_bracket)" stroke="none" stroke-width="0" id="bracket_fill">
      <path d="M 0.051,0.0152 L 0.0,0.0152 L 0.0,-0.0152 L 0.051,-0.0152 L 0.051,0.0152 M 0.0025,-0.0127 L 0.0025,0.0127 L 0.0485,0.0127 L 0.0485,-0.0127 L 0.0025,-0.0127" />
      <path d="M 0.11,0.0152 L 0.059,0.0152 L 0.059,-0.0152 L 0.11,-0.0152 L 0.11,0.0152 M 0.0615,-0.0127 L 0.0615,0.0127 L 0.1075,0.0127 L 0.1075,-0.0127 L 0.0615,-0.0127" />
    </g>
    <g fill="none" stroke="rgb(50,120,190)" stroke-opacity="0.4" stroke-width="0.00015" id="bracket_hidden" stroke-dasharray="0.0018 0.00045">
      <line x1="0.1222" y1="-0.02085" x2="0.118" y2="-0.02085" />
      <line x1="0.118" y1="-0.02085" x2="0.118" y2="-0.01175" />
      <line x1="0.118" y1="-0.02015" x2="0.118" y2="-0.01245" />
      <line x1="0.1222" y1="-0.02085" x2="0.1222" y2="-0.01175" />
      <path d="M 0.1222,-0.017875 A 0.00030000000188007067,9.35972935329515e-10 90.00000002001272 1,1 0.1222,-0.018475" />
      <path d="M 0.1222,-0.018475 A 0.00030000000188007067,9.35972935329515e-10 90.00000002001272 0,1 0.1222,-0.017875" />
      <path d="M 0.1222,-0.014125 A 0.00030000000188007067,9.35972935329515e-10 90.00000002001272 1,1 0.1222,-0.014725" />
      <path d="M 0.1222,-0.014725 A 0.00030000000188007067,9.35972935329515e-10 90.00000002001272 0,1 0.1222,-0.014125" />
      <line x1="0.12052" y1="-0.02015" x2="0.118" y2="-0.02015" />
      <line x1="0.12052" y1="-0.02015" x2="0.118" y2="-0.02015" />
      <line x1="0.12052" y1="-0.02015" x2="0.12052" y2="-0.01245" />
      <line x1="0.12052" y1="-0.01245" x2="0.118" y2="-0.01245" />
      <line x1="0.12052" y1="-0.01245" x2="0.118" y2="-0.01245" />
      <line x1="0.12052" y1="-0.02015" x2="0.12052" y2="-0.01245" />
      <path d="M 0.1252,-0.017875 A 0.00030000000188007067,9.35972935329515e-10 90.00000002001272 1,1 0.1252,-0.018475" />
      <path d="M 0.1252,-0.018475 A 0.00030000000188007067,9.35972935329515e-10 90.00000002001272 0,1 0.1252,-0.017875" />
      <path d="M 0.1252,-0.014125 A 0.00030000000188007067,9.35972935329515e-10 90.00000002001272 1,1 0.1252,-0.014725" />
      <path d="M 0.1252,-0.014725 A 0.00030000000188007067,9.35972935329515e-10 90.00000002001272 0,1 0.1252,-0.014125" />
      <line x1="0.1235" y1="-0.021452" x2="0.1235" y2="-0.021448" />
      <line x1="0.1235" y1="-0.021448" x2="0.1235" y2="0.022302" />
      <line x1="0.1235" y1="-0.012499" x2="0.1235" y2="-0.012501" />
      <line x1="0.1235" y1="-0.020101" x2="0.1235" y2="-0.012501" />
      <line x1="0.1235" y1="-0.021448" x2="0.1745" y2="-0.021448" />
      <line x1="0.1745" y1="-0.021452" x2="0.1745" y2="-0.021448" />
      <path d="M 0.13495,-0.021451 A 0.00295,3.30266054242361e-07 -4.910375367252416e-25 0,1 0.12905,-0.021451" />
      <path d="M 0.12905,-0.021451 A 0.00295,3.30266054242361e-07 -4.910375367252416e-25 1,1 0.13495,-0.021451" />
      <path d="M 0.15195,-0.021451 A 0.00295,3.30266054242361e-07 -4.910375367252416e-25 0,1 0.14605,-0.021451" />
      <path d="M 0.14605,-0.021451 A 0.00295,3.30266054242361e-07 -4.910375367252416e-25 1,1 0.15195,-0.021451" />
      <path d="M 0.16895,-0.021451 A 0.00295,3.30266054242361e-07 -4.910375367252416e-25 0,1 0.16305,-0.021451" />
      <path d="M 0.16305,-0.021451 A 0.00295,3.30266054242361e-07 -4.910375367252416e-25 1,1 0.16895,-0.021451" />
      <path d="M 0.13495,-0.021449 A 0.00295,3.30266054242361e-07 -4.910375367252416e-25 0,1 0.12905,-0.021449" />
      <path d="M 0.12905,-0.021449 A 0.00295,3.30266054242361e-07 -4.910375367252416e-25 1,1 0.13495,-0.021449" />
      <path d="M 0.15195,-0.021449 A 0.00295,3.30266054242361e-07 -4.910375367252416e-25 0,1 0.14605,-0.021449" />
      <path d="M 0.14605,-0.021449 A 0.00295,3.30266054242361e-07 -4.910375367252416e-25 1,1 0.15195,-0.021449" />
      <path d="M 0.16895,-0.021449 A 0.00295,3.30266054242361e-07 -4.910375367252416e-25 0,1 0.16305,-0.021449" />
      <path d="M 0.16305,-0.021449 A 0.00295,3.30266054242361e-07 -4.910375367252416e-25 1,1 0.16895,-0.021449" />
      <line x1="0.1745" y1="-0.021448" x2="0.1745" y2="0.022302" />
      <line x1="0.1235" y1="-0.020099" x2="0.1269" y2="-0.020099" />
      <line x1="0.1269" y1="-0.020101" x2="0.1269" y2="-0.020099" />
      <line x1="0.1235" y1="-0.020101" x2="0.1269" y2="-0.020101" />
      <line x1="0.1269" y1="-0.020099" x2="0.1269" y2="-0.016599" />
      <line x1="0.1269" y1="-0.016599" x2="0.126" y2="-0.016599" />
      <line x1="0.126" y1="-0.016599" x2="0.126" y2="-0.012499" />
      <line x1="0.1235" y1="-0.012499" x2="0.126" y2="-0.012499" />
      <line x1="0.126" y1="-0.012499" x2="0.126" y2="-0.012501" />
      <line x1="0.1235" y1="-0.012501" x2="0.126" y2="-0.012501" />
      <line x1="0.1269" y1="-0.020101" x2="0.1269" y2="-0.016601" />
      <line x1="0.1269" y1="-0.016601" x2="0.126" y2="-0.016601" />
      <line x1="0.126" y1="-0.016601" x2="0.126" y2="-0.012501" />
      <line x1="0.13495" y1="-0.021451" x2="0.13495" y2="-0.018951" />
      <path d="M 0.13495,-0.018951 A 0.00295,3.30266054242361e-07 -4.910375367252416e-25 0,1 0.12905,-0.018951" />
      <path d="M 0.12905,-0.018951 A 0.00295,3.30266054242361e-07 -4.910375367252416e-25 1,1 0.13495,-0.018951" />
      <line x1="0.15195" y1="-0.021451" x2="0.15195" y2="-0.018951" />
      <path d="M 0.15195,-0.018951 A 0.00295,3.30266054242361e-07 -4.910375367252416e-25 0,1 0.14605,-0.018951" />
      <path d="M 0.14605,-0.018951 A 0.00295,3.30266054242361e-07 -4.910375367252416e-25 1,1 0.15195,-0.018951" />
      <line x1="0.16895" y1="-0.021451" x2="0.16895" y2="-0.018951" />
      <path d="M 0.16895,-0.018951 A 0.00295,3.30266054242361e-07 -4.910375367252416e-25 0,1 0.16305,-0.018951" />
      <path d="M 0.16305,-0.018951 A 0.00295,3.30266054242361e-07 -4.910375367252416e-25 1,1 0.16895,-0.018951" />
      <line x1="0.13495" y1="-0.021449" x2="0.13495" y2="-0.018949" />
      <path d="M 0.13495,-0.018949 A 0.00295,3.30266054242361e-07 -4.910375367252416e-25 0,1 0.12905,-0.018949" />
      <path d="M 0.12905,-0.018949 A 0.00295,3.30266054242361e-07 -4.910375367252416e-25 1,1 0.13495,-0.018949" />
      <line x1="0.15195" y1="-0.021449" x2="0.15195" y2="-0.018949" />
      <path d="M 0.15195,-0.018949 A 0.00295,3.30266054242361e-07 -4.910375367252416e-25 0,1 0.14605,-0.018949" />
      <path d="M 0.14605,-0.018949 A 0.00295,3.30266054242361e-07 -4.910375367252416e-25 1,1 0.15195,-0.018949" />
      <line x1="0.16895" y1="-0.021449" x2="0.16895" y2="-0.018949" />
      <path d="M 0.16895,-0.018949 A 0.00295,3.30266054242361e-07 -4.910375367252416e-25 0,1 0.16305,-0.018949" />
      <path d="M 0.16305,-0.018949 A 0.00295,3.30266054242361e-07 -4.910375367252416e-25 1,1 0.16895,-0.018949" />
      <line x1="0.1269" y1="-0.016601" x2="0.1269" y2="-0.016599" />
      <line x1="0.126" y1="-0.016599" x2="0.172" y2="-0.016599" />
      <line x1="0.172" y1="-0.016601" x2="0.172" y2="-0.016599" />
      <line x1="0.126" y1="-0.016601" x2="0.172" y2="-0.016601" />
      <path d="M 0.1337,-0.016601 A 0.001700000000000007,1.9032281091932748e-07 -4.910375367252416e-25 0,1 0.1303,-0.016601" />
      <path d="M 0.1303,-0.016601 A 0.001700000000000007,1.9032281091932748e-07 -4.910375367252416e-25 1,1 0.1337,-0.016601" />
      <path d="M 0.1507,-0.016601 A 0.001700000000000007,1.9032281091932748e-07 -4.910375367252416e-25 0,1 0.1473,-0.016601" />
      <path d="M 0.1473,-0.016601 A 0.001700000000000007,1.9032281091932748e-07 -4.910375367252416e-25 1,1 0.1507,-0.016601" />
      <path d="M 0.1677,-0.016601 A 0.0017,1.9032281091932668e-07 -4.910375367252416e-25 0,1 0.1643,-0.016601" />
      <path d="M 0.1643,-0.016601 A 0.0017,1.9032281091932668e-07 -4.910375367252416e-25 1,1 0.1677,-0.016601" />
      <path d="M 0.1337,-0.016599 A 0.001700000000000007,1.9032281091932748e-07 -4.910375367252416e-25 0,1 0.1303,-0.016599" />
      <path d="M 0.1303,-0.016599 A 0.001700000000000007,1.9032281091932748e-07 -4.910375367252416e-25 1,1 0.1337,-0.016599" />
      <path d="M 0.1507,-0.016599 A 0.001700000000000007,1.9032281091932748e-07 -4.910375367252416e-25 0,1 0.1473,-0.016599" />
      <path d="M 0.1473,-0.016599 A 0.001700000000000007,1.9032281091932748e-07 -4.910375367252416e-25 1,1 0.1507,-0.016599" />
      <path d="M 0.1677,-0.016599 A 0.0017,1.9032281091932668e-07 -4.910375367252416e-25 0,1 0.1643,-0.016599" />
      <path d="M 0.1643,-0.016599 A 0.0017,1.9032281091932668e-07 -4.910375367252416e-25 1,1 0.1677,-0.016599" />
      <line x1="0.126" y1="0.019799" x2="0.126" y2="0.019801" />
      <line x1="0.126" y1="-0.016599" x2="0.126" y2="0.019801" />
      <line x1="0.126" y1="-0.016601" x2="0.126" y2="0.019799" />
      <path d="M 0.1337,-0.018951 A 0.001700000000000007,1.9032281091932748e-07 -4.910375367252416e-25 0,1 0.1303,-0.018951" />
      <path d="M 0.1303,-0.018951 A 0.001700000000000007,1.9032281091932748e-07 -4.910375367252416e-25 1,1 0.1337,-0.018951" />
      <path d="M 0.1507,-0.018951 A 0.001700000000000007,1.9032281091932748e-07 -4.910375367252416e-25 0,1 0.1473,-0.018951" />
      <path d="M 0.1473,-0.018951 A 0.001700000000000007,1.9032281091932748e-07 -4.910375367252416e-25 1,1 0.1507,-0.018951" />
      <path d="M 0.1677,-0.018951 A 0.0017,1.9032281091932668e-07 -4.910375367252416e-25 0,1 0.1643,-0.018951" />
      <path d="M 0.1643,-0.018951 A 0.0017,1.9032281091932668e-07 -4.910375367252416e-25 1,1 0.1677,-0.018951" />
      <path d="M 0.1337,-0.018949 A 0.001700000000000007,1.9032281091932748e-07 -4.910375367252416e-25 0,1 0.1303,-0.018949" />
      <path d="M 0.1303,-0.018949 A 0.001700000000000007,1.9032281091932748e-07 -4.910375367252416e-25 1,1 0.1337,-0.018949" />
      <path d="M 0.1507,-0.018949 A 0.001700000000000007,1.9032281091932748e-07 -4.910375367252416e-25 0,1 0.1473,-0.018949" />
      <path d="M 0.1473,-0.018949 A 0.001700000000000007,1.9032281091932748e-07 -4.910375367252416e-25 1,1 0.1507,-0.018949" />
      <path d="M 0.1677,-0.018949 A 0.0017,1.9032281091932668e-07 -4.910375367252416e-25 0,1 0.1643,-0.018949" />
      <path d="M 0.1643,-0.018949 A 0.0017,1.9032281091932668e-07 -4.910375367252416e-25 1,1 0.1677,-0.018949" />
      <line x1="0.172" y1="-0.016599" x2="0.172" y2="0.019801" />
      <line x1="0.126" y1="0.019801" x2="0.172" y2="0.019801" />
      <line x1="0.172" y1="-0.016601" x2="0.172" y2="0.019799" />
      <line x1="0.172" y1="0.019799" x2="0.172" y2="0.019801" />
      <line x1="0.126" y1="0.019799" x2="0.172" y2="0.019799" />
      <line x1="0.1337" y1="-0.018951" x2="0.1337" y2="-0.016601" />
      <line x1="0.1507" y1="-0.018951" x2="0.1507" y2="-0.016601" />
      <line x1="0.1677" y1="-0.018951" x2="0.1677" y2="-0.016601" />
      <line x1="0.1337" y1="-0.018949" x2="0.1337" y2="-0.016599" />
      <line x1="0.1507" y1="-0.018949" x2="0.1507" y2="-0.016599" />
      <line x1="0.1677" y1="-0.018949" x2="0.1677" y2="-0.016599" />
      <line x1="0.1252" y1="-0.018475" x2="0.1235" y2="-0.018475" />
      <line x1="0.1252" y1="-0.014725" x2="0.1235" y2="-0.014725" />
      <line x1="0.12905" y1="-0.021451" x2="0.12905" y2="-0.018951" />
      <line x1="0.14605" y1="-0.021451" x2="0.14605" y2="-0.018951" />
      <line x1="0.16305" y1="-0.021451" x2="0.16305" y2="-0.018951" />
      <line x1="0.12905" y1="-0.021449" x2="0.12905" y2="-0.018949" />
      <line x1="0.14605" y1="-0.021449" x2="0.14605" y2="-0.018949" />
      <line x1="0.16305" y1="-0.021449" x2="0.16305" y2="-0.018949" />
      <line x1="0.1303" y1="-0.018951" x2="0.1303" y2="-0.016601" />
      <line x1="0.1473" y1="-0.018951" x2="0.1473" y2="-0.016601" />
      <line x1="0.1643" y1="-0.018951" x2="0.1643" y2="-0.016601" />
      <line x1="0.1303" y1="-0.018949" x2="0.1303" y2="-0.016599" />
      <line x1="0.1473" y1="-0.018949" x2="0.1473" y2="-0.016599" />
      <line x1="0.1643" y1="-0.018949" x2="0.1643" y2="-0.016599" />
    </g>
  </g>
  <text x="0.025500" y="-0.027977" text-anchor="middle" font-family="'Input Sans Narrow', 'DejaVu Sans', Arial, sans-serif" font-size="0.002500" font-weight="bold" fill="#333">A-A</text>
  <text x="0.025500" y="-0.024477" text-anchor="middle" font-family="'Input Sans Narrow', 'DejaVu Sans', Arial, sans-serif" font-size="0.001800" fill="#888">shaft_face</text>
  <line x1="0.000000" y1="0.016000" x2="0.000000" y2="0.019000" stroke="#5C7080" stroke-width="0.000140" stroke-opacity="0.5"/>
  <line x1="0.051000" y1="0.016000" x2="0.051000" y2="0.019000" stroke="#5C7080" stroke-width="0.000140" stroke-opacity="0.5"/>
  <line x1="0.000000" y1="0.017400" x2="0.000000" y2="0.019000" stroke="#5C7080" stroke-width="0.000200"/>
  <line x1="0.051000" y1="0.017400" x2="0.051000" y2="0.019000" stroke="#5C7080" stroke-width="0.000200"/>
  <line x1="0.000000" y1="0.018200" x2="0.051000" y2="0.018200" stroke="#5C7080" stroke-width="0.000200"/>
  <polygon points="0.000000,0.018200 0.001500,0.017600 0.001500,0.018800" fill="#5C7080"/>
  <polygon points="0.051000,0.018200 0.049500,0.017600 0.049500,0.018800" fill="#5C7080"/>
  <text x="0.025500" y="0.017000" text-anchor="middle" font-family="'Input Sans Narrow', 'DejaVu Sans', Arial, sans-serif" font-size="0.001600" fill="#5C7080">51.0</text>
  <line x1="0.051800" y1="-0.015200" x2="0.054800" y2="-0.015200" stroke="#5C7080" stroke-width="0.000140" stroke-opacity="0.5"/>
  <line x1="0.051800" y1="0.015200" x2="0.054800" y2="0.015200" stroke="#5C7080" stroke-width="0.000140" stroke-opacity="0.5"/>
  <line x1="0.053200" y1="-0.015200" x2="0.054800" y2="-0.015200" stroke="#5C7080" stroke-width="0.000200"/>
  <line x1="0.053200" y1="0.015200" x2="0.054800" y2="0.015200" stroke="#5C7080" stroke-width="0.000200"/>
  <line x1="0.054000" y1="-0.015200" x2="0.054000" y2="0.015200" stroke="#5C7080" stroke-width="0.000200"/>
  <polygon points="0.054000,-0.015200 0.053400,-0.013700 0.054600,-0.013700" fill="#5C7080"/>
  <polygon points="0.054000,0.015200 0.053400,0.013700 0.054600,0.013700" fill="#5C7080"/>
  <text x="0.055500" y="-0.000000" text-anchor="middle" dominant-baseline="central" font-family="'Input Sans Narrow', 'DejaVu Sans', Arial, sans-serif" font-size="0.001600" fill="#5C7080" transform="rotate(-90 0.055500 -0.000000)">30.4</text>
  <text x="0.084500" y="-0.027977" text-anchor="middle" font-family="'Input Sans Narrow', 'DejaVu Sans', Arial, sans-serif" font-size="0.002500" font-weight="bold" fill="#333">B-B</text>
  <text x="0.084500" y="-0.024477" text-anchor="middle" font-family="'Input Sans Narrow', 'DejaVu Sans', Arial, sans-serif" font-size="0.001800" fill="#888">mid_body</text>
  <text x="0.146250" y="-0.027977" text-anchor="middle" font-family="'Input Sans Narrow', 'DejaVu Sans', Arial, sans-serif" font-size="0.002500" font-weight="bold" fill="#333">side_XZ</text>
  <line x1="0.118000" y1="0.022252" x2="0.118000" y2="0.025252" stroke="#5C7080" stroke-width="0.000140" stroke-opacity="0.5"/>
  <line x1="0.174500" y1="0.022252" x2="0.174500" y2="0.025252" stroke="#5C7080" stroke-width="0.000140" stroke-opacity="0.5"/>
  <line x1="0.118000" y1="0.023652" x2="0.118000" y2="0.025252" stroke="#5C7080" stroke-width="0.000200"/>
  <line x1="0.174500" y1="0.023652" x2="0.174500" y2="0.025252" stroke="#5C7080" stroke-width="0.000200"/>
  <line x1="0.118000" y1="0.024452" x2="0.174500" y2="0.024452" stroke="#5C7080" stroke-width="0.000200"/>
  <polygon points="0.118000,0.024452 0.119500,0.023852 0.119500,0.025052" fill="#5C7080"/>
  <polygon points="0.174500,0.024452 0.173000,0.023852 0.173000,0.025052" fill="#5C7080"/>
  <text x="0.146250" y="0.023252" text-anchor="middle" font-family="'Input Sans Narrow', 'DejaVu Sans', Arial, sans-serif" font-size="0.001600" fill="#5C7080">56.5</text>
  <line x1="0.175300" y1="-0.022302" x2="0.178300" y2="-0.022302" stroke="#5C7080" stroke-width="0.000140" stroke-opacity="0.5"/>
  <line x1="0.175300" y1="0.021452" x2="0.178300" y2="0.021452" stroke="#5C7080" stroke-width="0.000140" stroke-opacity="0.5"/>
  <line x1="0.176700" y1="-0.022302" x2="0.178300" y2="-0.022302" stroke="#5C7080" stroke-width="0.000200"/>
  <line x1="0.176700" y1="0.021452" x2="0.178300" y2="0.021452" stroke="#5C7080" stroke-width="0.000200"/>
  <line x1="0.177500" y1="-0.022302" x2="0.177500" y2="0.021452" stroke="#5C7080" stroke-width="0.000200"/>
  <polygon points="0.177500,-0.022302 0.176900,-0.020802 0.178100,-0.020802" fill="#5C7080"/>
  <polygon points="0.177500,0.021452 0.176900,0.019952 0.178100,0.019952" fill="#5C7080"/>
  <text x="0.179000" y="-0.000425" text-anchor="middle" dominant-baseline="central" font-family="'Input Sans Narrow', 'DejaVu Sans', Arial, sans-serif" font-size="0.001600" fill="#5C7080" transform="rotate(-90 0.179000 -0.000425)">43.8</text>
  <line x1="0.115000" y1="-0.016300" x2="0.177500" y2="-0.016300" stroke="#555" stroke-width="0.000250" stroke-dasharray="0.002500,0.000800,0.000500,0.000800"/>
  <text x="0.113500" y="-0.015700" text-anchor="end" font-family="'Input Sans Narrow', 'DejaVu Sans', Arial, sans-serif" font-size="0.002000" font-weight="bold" fill="#555">A</text>
  <text x="0.179000" y="-0.015700" text-anchor="start" font-family="'Input Sans Narrow', 'DejaVu Sans', Arial, sans-serif" font-size="0.002000" font-weight="bold" fill="#555">A</text>
  <line x1="0.115000" y1="-0.000000" x2="0.177500" y2="-0.000000" stroke="#555" stroke-width="0.000250" stroke-dasharray="0.002500,0.000800,0.000500,0.000800"/>
  <text x="0.113500" y="0.000600" text-anchor="end" font-family="'Input Sans Narrow', 'DejaVu Sans', Arial, sans-serif" font-size="0.002000" font-weight="bold" fill="#555">B</text>
  <text x="0.179000" y="0.000600" text-anchor="start" font-family="'Input Sans Narrow', 'DejaVu Sans', Arial, sans-serif" font-size="0.002000" font-weight="bold" fill="#555">B</text>
  <text x="-0.001175" y="0.029626" font-family="'Input Sans Narrow', 'DejaVu Sans', Arial, sans-serif" font-size="0.003500" font-weight="bold" fill="#222">joint_shoulder_yaw</text>
  <line x1="-0.001175" y1="0.033626" x2="0.008825" y2="0.033626" stroke="#333" stroke-width="0.000350"/>
  <line x1="-0.001175" y1="0.032626" x2="-0.001175" y2="0.034626" stroke="#333" stroke-width="0.000250"/>
  <line x1="0.008825" y1="0.032626" x2="0.008825" y2="0.034626" stroke="#333" stroke-width="0.000250"/>
  <text x="0.010325" y="0.034326" font-family="'Input Sans Narrow', 'DejaVu Sans', Arial, sans-serif" font-size="0.001800" fill="#888">10 mm</text>
  <rect x="0.028825" y="0.027126" width="0.004000" height="0.002500" fill="url(#hatch_servo)" stroke="rgb(60,60,60)" stroke-width="0.000300"/>
  <text x="0.034325" y="0.029126" font-family="'Input Sans Narrow', 'DejaVu Sans', Arial, sans-serif" font-size="0.001800" fill="rgb(60,60,60)">servo</text>
  <rect x="0.028825" y="0.030626" width="0.004000" height="0.002500" fill="url(#hatch_bracket)" stroke="rgb(50,120,190)" stroke-width="0.000300"/>
  <text x="0.034325" y="0.032626" font-family="'Input Sans Narrow', 'DejaVu Sans', Arial, sans-serif" font-size="0.001800" fill="rgb(50,120,190)">bracket</text>
</svg>