<?xml version='1.0' encoding='utf-8'?>
<svg width="183.35mm" height="73.61mm" viewBox="-0.003175 -0.031478 0.183351 0.073605" version="1.1" xmlns="http://www.w3.org/2000/svg">
  <defs>
    <pattern id="hatch_servo" width="0.0012" height="0.0012" patternUnits="userSpaceOnUse" patternTransform="rotate(45)">
      <line x1="0" y1="0" x2="0" y2="0.0012" stroke="rgb(60,60,60)" stroke-width="0.0001" stroke-opacity="0.6"/>
    </pattern>
    <pattern id="hatch_bracket" width="0.0012" height="0.0012" patternUnits="userSpaceOnUse" patternTransform="rotate(75)">
      <line x1="0" y1="0" x2="0" y2="0.0012" stroke="rgb(50,120,190)" stroke-width="0.0001" stroke-opacity="0.6"/>
    </pattern>
  </defs>
  <g transform="scale(1,-1)" stroke-linecap="round">
    <g fill="none" stroke="rgb(60,60,60)" stroke-width="0.00035" id="servo">
      <line x1="0.0028" y1="-0.0084" x2="0.0028" y2="0.0084" />
      <path d="M 0.0028,-0.0084 A 0.004,0.004 -90.0 0,1 0.0068,-0.0124" />
      <line x1="0.0068" y1="-0.0124" x2="0.0442" y2="-0.0124" />
      <path d="M 0.0482,-0.0084 A 0.004,0.004 -90.0 0,0 0.0442,-0.0124" />
      <line x1="0.0482" y1="-0.0084" x2="0.0482" y2="0.0084" />
      <path d="M 0.0482,0.0084 A 0.004,0.004 -90.0 0,1 0.0442,0.0124" />
      <line x1="0.0068" y1="0.0124" x2="0.0442" y2="0.0124" />
      <path d="M 0.0028,0.0084 A 0.004,0.004 -90.0 0,0 0.0068,0.0124" />
      <path d="M 0.0658,0.0124 A 0.004,0.004 180.0 0,1 0.0618,0.0084" />
      <line x1="0.0658" y1="0.0124" x2="0.1032" y2="0.0124" />
      <path d="M 0.1072,0.0084 A 0.004,0.004 0.0 0,1 0.1032,0.0124" />
      <line x1="0.1072" y1="0.0084" x2="0.1072" y2="-0.0084" />
      <path d="M 0.1032,-0.0124 A 0.004,0.004 0.0 0,1 0.1072,-0.0084" />
      <line x1="0.0658" y1="-0.0124" x2="0.1032" y2="-0.0124" />
      <path d="M 0.0618,-0.0084 A 0.004,0.004 180.0 0,1 0.0658,-0.0124" />
      <line x1="0.0618" y1="0.0084" x2="0.0618" y2="-0.0084" />
      <line x1="0.120801" y1="-0.0163" x2="0.120801" y2="0.0163" />
      <line x1="0.1208" y1="0.0163" x2="0.1208" y2="-0.0163" />
      <path d="M 0.120801,0.0163 A 0.004,1.2159931182820816e-07 -6.570239861226303e-24 0,0 0.124801,0.0163" />
      <line x1="0.124801" y1="-0.0163" x2="0.124801" y2="0.0163" />
      <line x1="0.123782" y1="-0.0163" x2="0.123782" y2="-0.0084" />
      <path d="M 0.12112,-0.0084 A 0.004,1.2159931182820814e-07 -6.2856768930221406e-24 0,0 0.123782,-0.0084" />
      <line x1="0.12112" y1="-0.0163" x2="0.12112" y2="-0.0084" />
      <path d="M 0.120801,-0.0163 A 0.004,1.2159931182820816e-07 -6.570239861226303e-24 0,0 0.12112,-0.0163" />
      <path d="M 0.1208,-0.0163 A 0.004,1.2159931182820816e-07 180.0 0,1 0.121119,-0.0163" />
      <path d="M 0.166201,-0.0163 A 0.004,1.2159931182820816e-07 180.0 0,1 0.163201,-0.0163" />
      <path d="M 0.122801,-0.0163 A 0.0021,6.383963870980927e-08 -6.2856768930221406e-24 0,0 0.12112,-0.0163" />
      <line x1="0.124801" y1="0.0163" x2="0.162201" y2="0.0163" />
      <path d="M 0.166201,0.0163 A 0.004,1.2159931182820816e-07 180.0 0,1 0.162201,0.0163" />
      <line x1="0.162201" y1="-0.0163" x2="0.162201" y2="0.0163" />
      <line x1="0.162201" y1="-0.0163" x2="0.163201" y2="-0.0163" />
      <line x1="0.163201" y1="-0.0184" x2="0.163201" y2="-0.0163" />
      <line x1="0.122801" y1="-0.0184" x2="0.163201" y2="-0.0184" />
      <line x1="0.122801" y1="-0.0184" x2="0.122801" y2="-0.0163" />
      <line x1="0.122801" y1="-0.0163" x2="0.124801" y2="-0.0163" />
      <path d="M 0.123782,-0.0084 A 0.0021,6.383963870980927e-08 -6.2856768930221406e-24 0,0 0.12112,-0.0084" />
      <path d="M 0.125101,-0.0184 A 0.0021,6.383963870980927e-08 -6.2856768930221406e-24 0,0 0.124195,-0.0184" />
      <line x1="0.124194" y1="-0.0184" x2="0.126006" y2="-0.0184" />
      <path d="M 0.1251,-0.0184 A 0.0021,6.383963870980927e-08 180.0 0,1 0.1291,-0.0184" />
      <path d="M 0.1291,-0.0184 A 0.0021,6.383963870980927e-08 180.0 0,1 0.127994,-0.0184" />
      <path d="M 0.1251,-0.0184 A 0.0021,6.383963870980927e-08 -6.2856768930221406e-24 0,0 0.126006,-0.0184" />
      <line x1="0.127994" y1="-0.0184" x2="0.146706" y2="-0.0184" />
      <path d="M 0.148694,-0.0184 A 0.0021,6.383963870980927e-08 -6.2856768930221406e-24 0,0 0.1498,-0.0184" />
      <path d="M 0.1498,-0.0184 A 0.0021,6.383963870980927e-08 -6.2856768930221406e-24 0,0 0.1456,-0.0184" />
      <path d="M 0.1456,-0.0184 A 0.0021,6.383963870980927e-08 -6.2856768930221406e-24 0,0 0.146706,-0.0184" />
      <line x1="0.148694" y1="-0.0184" x2="0.1632" y2="-0.0184" />
      <line x1="0.166201" y1="-0.0163" x2="0.166201" y2="0.0163" />
      <path d="M 0.146707,-0.0184 A 0.0021,6.383963870980927e-08 -6.2856768930221406e-24 0,0 0.145601,-0.0184" />
      <path d="M 0.145601,-0.0184 A 0.0021,6.383963870980927e-08 -6.2856768930221406e-24 1,0 0.149801,-0.0184" />
      <path d="M 0.149801,-0.0184 A 0.0021,6.383963870980927e-08 -6.2856768930221406e-24 0,0 0.148695,-0.0184" />
      <path d="M 0.127995,-0.0184 A 0.0021,6.383963870980927e-08 -180.0 0,1 0.129101,-0.0184" />
      <path d="M 0.129101,-0.0184 A 0.0021,6.383963870980927e-08 -180.0 0,1 0.125101,-0.0184" />
      <path d="M 0.126007,-0.0184 A 0.0021,6.383963870980927e-08 -6.2856768930221406e-24 0,0 0.125101,-0.0184" />
      <path d="M 0.122801,-0.0163 A 0.0021,6.383963870980927e-08 -6.2856768930221406e-24 0,0 0.1228,-0.0163" />
      <line x1="0.1228" y1="-0.0184" x2="0.1228" y2="-0.0163" />
      <path d="M 0.1251,-0.0184 A 0.0021,6.383963870980927e-08 -6.2856768930221406e-24 0,0 0.1228,-0.0184" />
      <path d="M 0.146001,0.018 A 0.002,6.079965591410408e-08 -6.570239861226303e-24 0,0 0.148001,0.018" />
      <line x1="0.148001" y1="0.018" x2="0.164001" y2="0.018" />
      <path d="M 0.166001,0.018 A 0.002,6.079965591410408e-08 180.0 0,1 0.164001,0.018" />
      <path d="M 0.151501,0.0195 A 0.004500000000000004,1.3679922580673427e-07 -6.2856768930221406e-24 1,0 0.160501,0.0195" />
      <line x1="0.146001" y1="0.0163" x2="0.146001" y2="0.018" />
      <line x1="0.148001" y1="0.0163" x2="0.148001" y2="0.018" />
      <line x1="0.164001" y1="0.0163" x2="0.164001" y2="0.018" />
      <line x1="0.166001" y1="0.0163" x2="0.166001" y2="0.018" />
      <line x1="0.1208" y1="-0.0163" x2="0.1208" y2="0.0163" />
      <line x1="0.166201" y1="-0.0163" x2="0.166201" y2="0.0163" />
      <line x1="0.160501" y1="0.018" x2="0.160501" y2="0.0195" />
      <line x1="0.151501" y1="0.018" x2="0.151501" y2="0.0195" />
    </g>
    <g fill="url(#hatch_servo)" stroke="none" stroke-width="0" id="servo_fill">
      <path d="M 0.0028,0.0084 L 0.0028,-0.0084 A 0.004,0.004 -90.0 0,1 0.0068,-0.0124 L 0.0442,-0.0124 A 0.004,0.004 -90.0 0,1 0.0482,-0.0084 L 0.0482,0.0084 A 0.004,0.004 -90.0 0,1 0.0442,0.0124 L 0.0068,0.0124 A 0.004,0.004 -90.0 0,1 0.0028,0.0084" />
      <path d="M 0.0658,0.0124 A 0.004,0.004 180.0 0,1 0.0618,0.0084 L 0.0618,-0.0084 A 0.004,0.004 180.0 0,1 0.0658,-0.0124 L 0.1032,-0.0124 A 0.004,0.004 0.0 0,1 0.1072,-0.0084 L 0.1072,0.0084 A 0.004,0.004 0.0 0,1 0.1032,0.0124 L 0.0658,0.0124" />
    </g>
    <g fill="none" stroke="rgb(60,60,60)" stroke-opacity="0.4" stroke-width="0.00015" id="servo_hidden" stroke-dasharray="0.0018 0.00045">
      <path d="M 0.123782,-0.0163 A 0.004,1.2159931182820816e-07 -6.570239861226303e-24 0,0 0.124801,-0.0163" />
      <path d="M 0.121119,-0.0163 A 0.0021,6.383963870980927e-08 -6.2856768930221406e-24 0,0 0.124194,-0.0163" />
      <line x1="0.124194" y1="-0.0163" x2="0.126006" y2="-0.0163" />
      <path d="M 0.126006,-0.0163 A 0.0021,6.383963870980927e-08 -6.2856768930221406e-24 0,0 0.127994,-0.0163" />
      <line x1="0.127994" y1="-0.0163" x2="0.146706" y2="-0.0163" />
      <path d="M 0.146706,-0.0163 A 0.0021,6.383963870980927e-08 -6.2856768930221406e-24 0,0 0.148694,-0.0163" />
      <line x1="0.148694" y1="-0.0163" x2="0.1632" y2="-0.0163" />
      <path d="M 0.1662,-0.0163 A 0.004,1.2159931182820816e-07 -6.570239861226303e-24 0,0 0.1632,-0.0163" />
      <line x1="0.148695" y1="-0.0163" x2="0.163201" y2="-0.0163" />
      <path d="M 0.148695,-0.0163 A 0.0021,6.383963870980927e-08 -6.2856768930221406e-24 0,0 0.146707,-0.0163" />
      <line x1="0.127995" y1="-0.0163" x2="0.146707" y2="-0.0163" />
      <path d="M 0.127995,-0.0163 A 0.0021,6.383963870980927e-08 -6.2856768930221406e-24 0,0 0.126007,-0.0163" />
      <line x1="0.124195" y1="-0.0163" x2="0.126007" y2="-0.0163" />
      <path d="M 0.124195,-0.0163 A 0.0021,6.383963870980927e-08 -6.2856768930221406e-24 0,0 0.122801,-0.0163" />
      <path d="M 0.159001,-0.0163 A 0.0030000000000000027,9.119948387115618e-08 -6.2856768930221406e-24 0,0 0.153001,-0.0163" />
      <path d="M 0.153001,-0.0163 A 0.0030000000000000027,9.119948387115618e-08 -6.2856768930221406e-24 1,0 0.159001,-0.0163" />
      <line x1="0.1248" y1="0.0163" x2="0.1248" y2="-0.0163" />
      <path d="M 0.123781,-0.0163 A 0.004,1.2159931182820816e-07 180.0 0,1 0.1248,-0.0163" />
      <line x1="0.123781" y1="-0.0163" x2="0.123781" y2="-0.0084" />
      <path d="M 0.123781,-0.0084 A 0.004,1.2159931182820814e-07 -6.2856768930221406e-24 0,0 0.121119,-0.0084" />
      <line x1="0.121119" y1="-0.0163" x2="0.121119" y2="-0.0084" />
      <path d="M 0.120801,0.0163 A 0.004,1.2159931182820816e-07 180.0 0,1 0.1248,0.0163" />
      <line x1="0.1248" y1="0.0163" x2="0.1622" y2="0.0163" />
      <path d="M 0.1662,0.0163 A 0.004,1.2159931182820816e-07 -6.570239861226303e-24 0,0 0.1622,0.0163" />
      <path d="M 0.146001,0.0163 A 0.002,6.079965591410408e-08 -6.570239861226303e-24 0,0 0.148001,0.0163" />
      <line x1="0.148001" y1="0.0163" x2="0.164001" y2="0.0163" />
      <path d="M 0.166001,0.0163 A 0.002,6.079965591410408e-08 180.0 0,1 0.164001,0.0163" />
      <path d="M 0.166,0.0163 A 0.002,6.079965591410408e-08 -6.570239861226303e-24 0,0 0.164,0.0163" />
      <line x1="0.148" y1="0.0163" x2="0.164" y2="0.0163" />
      <path d="M 0.146,0.0163 A 0.002,6.079965591410408e-08 180.0 0,1 0.148,0.0163" />
      <path d="M 0.122801,-0.0163 A 0.0021,6.383963870980927e-08 -6.2856768930221406e-24 0,0 0.123782,-0.0163" />
      <line x1="0.125101" y1="-0.0184" x2="0.125101" y2="-0.0084" />
      <path d="M 0.122801,-0.0184 A 0.0021,6.383963870980927e-08 -6.2856768930221406e-24 0,0 0.125101,-0.0184" />
      <line x1="0.122801" y1="-0.0184" x2="0.122801" y2="-0.0163" />
      <path d="M 0.123782,-0.0084 A 0.0021,6.383963870980927e-08 -6.2856768930221406e-24 0,0 0.125101,-0.0084" />
      <path d="M 0.125101,-0.0084 A 0.0021,6.383963870980927e-08 180.0 0,1 0.129101,-0.0084" />
      <path d="M 0.129101,-0.0084 A 0.0021,6.383963870980927e-08 180.0 0,1 0.125101,-0.0084" />
      <path d="M 0.125101,-0.0084 A 0.0021,6.383963870980927e-08 -6.2856768930221406e-24 0,0 0.123782,-0.0084" />
      <line x1="0.124195" y1="-0.0184" x2="0.124195" y2="-0.0163" />
      <line x1="0.125101" y1="-0.0184" x2="0.125101" y2="-0.0084" />
      <line x1="0.1251" y1="-0.0184" x2="0.1251" y2="-0.0084" />
      <path d="M 0.124194,-0.0184 A 0.0021,6.383963870980927e-08 -6.2856768930221406e-24 0,0 0.1251,-0.0184" />
      <line x1="0.124194" y1="-0.0184" x2="0.124194" y2="-0.0163" />
      <path d="M 0.121119,-0.0084 A 0.0021,6.383963870980927e-08 -6.2856768930221406e-24 0,0 0.1251,-0.0084" />
      <line x1="0.126006" y1="-0.0184" x2="0.126006" y2="-0.0163" />
      <line x1="0.1251" y1="-0.0184" x2="0.1251" y2="-0.0084" />
      <path d="M 0.1251,-0.0084 A 0.0021,6.383963870980927e-08 7.25390229779094e-21 0,0 0.1291,-0.0084" />
      <path d="M 0.1291,-0.0084 A 0.0021,6.383963870980927e-08 7.25390229779094e-21 0,0 0.1251,-0.0084" />
      <line x1="0.127994" y1="-0.0184" x2="0.127994" y2="-0.0163" />
      <line x1="0.146706" y1="-0.0184" x2="0.146706" y2="-0.0163" />
      <line x1="0.148694" y1="-0.0184" x2="0.148694" y2="-0.0163" />
      <path d="M 0.1498,-0.0084 A 0.0021,6.383963870980927e-08 -6.2856768930221406e-24 0,0 0.1456,-0.0084" />
      <path d="M 0.1456,-0.0084 A 0.0021,6.383963870980927e-08 -6.2856768930221406e-24 1,0 0.1498,-0.0084" />
      <line x1="0.1632" y1="-0.0184" x2="0.1632" y2="-0.0163" />
      <line x1="0.1632" y1="-0.0184" x2="0.1632" y2="-0.0163" />
      <line x1="0.1622" y1="0.0163" x2="0.1622" y2="-0.0163" />
      <line x1="0.1662" y1="0.0163" x2="0.1662" y2="-0.0163" />
      <path d="M 0.1632,-0.0163 A 0.004,1.2159931182820816e-07 -6.570239861226303e-24 0,0 0.1622,-0.0163" />
      <path d="M 0.163201,-0.0163 A 0.004,1.2159931182820816e-07 180.0 0,1 0.162201,-0.0163" />
      <line x1="0.163201" y1="-0.0184" x2="0.163201" y2="-0.0163" />
      <line x1="0.148695" y1="-0.0184" x2="0.163201" y2="-0.0184" />
      <line x1="0.148695" y1="-0.0184" x2="0.148695" y2="-0.0163" />
      <line x1="0.146707" y1="-0.0184" x2="0.146707" y2="-0.0163" />
      <path d="M 0.149801,-0.0084 A 0.0021,6.383963870980927e-08 -6.2856768930221406e-24 0,0 0.145601,-0.0084" />
      <path d="M 0.145601,-0.0084 A 0.0021,6.383963870980927e-08 -6.2856768930221406e-24 1,0 0.149801,-0.0084" />
      <line x1="0.127995" y1="-0.0184" x2="0.146707" y2="-0.0184" />
      <line x1="0.127995" y1="-0.0184" x2="0.127995" y2="-0.0163" />
      <line x1="0.126007" y1="-0.0184" x2="0.126007" y2="-0.0163" />
      <line x1="0.124195" y1="-0.0184" x2="0.126007" y2="-0.0184" />
      <path d="M 0.159001,-0.0176 A 0.0030000000000000027,9.119948387115618e-08 -6.2856768930221406e-24 0,0 0.153001,-0.0176" />
      <path d="M 0.153001,-0.0176 A 0.0030000000000000027,9.119948387115618e-08 -6.2856768930221406e-24 1,0 0.159001,-0.0176" />
      <line x1="0.1622" y1="-0.0163" x2="0.1632" y2="-0.0163" />
      <line x1="0.1228" y1="-0.0184" x2="0.1632" y2="-0.0184" />
      <line x1="0.1228" y1="-0.0184" x2="0.1228" y2="-0.0163" />
      <line x1="0.1228" y1="-0.0163" x2="0.1248" y2="-0.0163" />
      <path d="M 0.123781,-0.0163 A 0.0021,6.383963870980927e-08 -6.2856768930221406e-24 0,0 0.122801,-0.0163" />
      <path d="M 0.1251,-0.0084 A 0.0021,6.383963870980927e-08 -6.2856768930221406e-24 0,0 0.123781,-0.0084" />
      <path d="M 0.166,0.018 A 0.002,6.079965591410408e-08 -6.570239861226303e-24 0,0 0.164,0.018" />
      <line x1="0.148" y1="0.018" x2="0.164" y2="0.018" />
      <path d="M 0.146,0.018 A 0.002,6.079965591410408e-08 180.0 0,1 0.148,0.018" />
      <path d="M 0.160501,0.018 A 0.004500000000000004,1.3679922580673427e-07 -6.2856768930221406e-24 0,0 0.151501,0.018" />
      <path d="M 0.151501,0.018 A 0.004500000000000004,1.3679922580673427e-07 -6.2856768930221406e-24 1,0 0.160501,0.018" />
      <path d="M 0.160501,0.0195 A 0.004500000000000004,1.3679922580673427e-07 -6.2856768930221406e-24 0,0 0.151501,0.0195" />
      <line x1="0.1291" y1="-0.0184" x2="0.1291" y2="-0.0084" />
      <line x1="0.1498" y1="-0.0184" x2="0.1498" y2="-0.0084" />
      <line x1="0.1456" y1="-0.0184" x2="0.1456" y2="-0.0084" />
      <line x1="0.149801" y1="-0.0184" x2="0.149801" y2="-0.0084" />
      <line x1="0.145601" y1="-0.0184" x2="0.145601" y2="-0.0084" />
      <line x1="0.129101" y1="-0.0184" x2="0.129101" y2="-0.0084" />
      <line x1="0.159001" y1="-0.0176" x2="0.159001" y2="-0.0163" />
      <line x1="0.153001" y1="-0.0176" x2="0.153001" y2="-0.0163" />
      <line x1="0.166" y1="0.0163" x2="0.166" y2="0.018" />
      <line x1="0.164" y1="0.0163" x2="0.164" y2="0.018" />
      <line x1="0.148" y1="0.0163" x2="0.148" y2="0.018" />
      <line x1="0.146" y1="0.0163" x2="0.146" y2="0.018" />
    </g>
    <g fill="none" stroke="rgb(50,120,190)" stroke-width="0.00035" id="bracket">
      <line x1="0.0" y1="0.0152" x2="0.051" y2="0.0152" />
      <line x1="0.051" y1="0.0152" x2="0.051" y2="-0.0152" />
      <line x1="0.0" y1="-0.0152" x2="0.051" y2="-0.0152" />
      <line x1="0.0" y1="0.0152" x2="0.0" y2="-0.0152" />
      <line x1="0.0025" y1="0.0127" x2="0.0025" y2="-0.0127" />
      <line x1="0.0025" y1="-0.0127" x2="0.0485" y2="-0.0127" />
      <line x1="0.0485" y1="0.0127" x2="0.0485" y2="-0.0127" />
      <line x1="0.0025" y1="0.0127" x2="0.0485" y2="0.0127" />
      <line x1="0.059" y1="0.0152" x2="0.11" y2="0.0152" />
      <line x1="0.11" y1="0.0152" x2="0.11" y2="-0.0152" />
      <line x1="0.059" y1="-0.0152" x2="0.11" y2="-0.0152" />
      <line x1="0.059" y1="0.0152" x2="0.059" y2="-0.0152" />
      <line x1="0.0615" y1="0.0127" x2="0.0615" y2="-0.0127" />
      <line x1="0.0615" y1="-0.0127" x2="0.1075" y2="-0.0127" />
      <line x1="0.1075" y1="0.0127" x2="0.1075" y2="-0.0127" />
      <line x1="0.0615" y1="0.0127" x2="0.1075" y2="0.0127" />
      <line x1="0.118001" y1="-0.021953" x2="0.118001" y2="0.022297" />
      <line x1="0.118001" y1="0.022297" x2="0.118" y2="0.022303" />
      <line x1="0.118" y1="-0.019299" x2="0.118001" y2="-0.019301" />
      <line x1="0.118" y1="-0.019299" x2="0.118" y2="-0.013299" />
      <line x1="0.118001" y1="-0.021953" x2="0.169001" y2="-0.021953" />
      <line x1="0.169001" y1="-0.021953" x2="0.169001" y2="0.022297" />
      <line x1="0.118001" y1="0.022297" x2="0.169001" y2="0.022297" />
      <line x1="0.118" y1="0.022303" x2="0.169" y2="0.022303" />
      <line x1="0.169001" y1="0.022297" x2="0.169" y2="0.022303" />
    </g>
    <g fill="url(#hatch_bracket)" stroke="none" stroke-width="0" id="bracket_fill">
      <path d="M 0.051,0.0152 L 0.0,0.0152 L 0.0,-0.0152 L 0.051,-0.0152 L 0.051,0.0152 M 0.0025,-0.0127 L 0.0025,0.0127 L 0.0485,0.0127 L 0.0485,-0.0127 L 0.0025,-0.0127" />
      <path d="M 0.11,0.0152 L 0.059,0.0152 L 0.059,-0.0152 L 0.11,-0.0152 L 0.11,0.0152 M 0.0615,-0.0127 L 0.0615,0.0127 L 0.1075,0.0127 L 0.1075,-0.0127 L 0.0615,-0.0127" />
    </g>
    <g fill="none" stroke="rgb(50,120,190)" stroke-opacity="0.4" stroke-width="0.00015" id="bracket_hidden" stroke-dasharray="0.0018 0.00045">
      <line x1="0.118001" y1="-0.021953" x2="0.118" y2="-0.021947" />
      <line x1="0.118" y1="-0.021947" x2="0.118" y2="0.022303" />
      <line x1="0.118" y1="-0.013299" x2="0.118001" y2="-0.013301" />
      <line x1="0.118001" y1="-0.019301" x2="0.118001" y2="-0.013301" />
      <line x1="0.169001" y1="-0.021953" x2="0.169" y2="-0.021947" />
      <line x1="0.118" y1="-0.021947" x2="0.169" y2="-0.021947" />
      <path d="M 0.125101,-0.021952 A 0.0021,3.671292225642711e-07 -3.142176405862912e-24 0,1 0.121101,-0.021952" />
      <path d="M 0.121101,-0.021952 A 0.0021,3.671292225642711e-07 -3.142176405862912e-24 0,1 0.125101,-0.021952" />
      <path d="M 0.125101,-0.021952 A 0.0021,3.671292225642711e-07 -2.756206628987413e-19 0,1 0.129101,-0.021952" />
      <path d="M 0.129101,-0.021952 A 0.0021,3.671292225642711e-07 -2.756206628987413e-19 0,1 0.125101,-0.021952" />
      <path d="M 0.149801,-0.021952 A 0.0021,3.671292225642711e-07 -3.142176405862912e-24 0,1 0.145601,-0.021952" />
      <path d="M 0.145601,-0.021952 A 0.0021,3.671292225642711e-07 -3.142176405862912e-24 1,1 0.149801,-0.021952" />
      <path d="M 0.1251,-0.021948 A 0.0021,3.671292225642711e-07 -3.142176405862912e-24 0,1 0.1211,-0.021948" />
      <path d="M 0.1211,-0.021948 A 0.0021,3.671292225642711e-07 -3.142176405862912e-24 0,1 0.1251,-0.021948" />
      <path d="M 0.1251,-0.021948 A 0.0021,3.671292225642711e-07 -2.756206628987413e-19 0,1 0.1291,-0.021948" />
      <path d="M 0.1291,-0.021948 A 0.0021,3.671292225642711e-07 -2.756206628987413e-19 0,1 0.1251,-0.021948" />
      <path d="M 0.1498,-0.021948 A 0.0021,3.671292225642711e-07 -3.142176405862912e-24 0,1 0.1456,-0.021948" />
      <path d="M 0.1456,-0.021948 A 0.0021,3.671292225642711e-07 -3.142176405862912e-24 1,1 0.1498,-0.021948" />
      <line x1="0.169" y1="-0.021947" x2="0.169" y2="0.022303" />
      <line x1="0.118001" y1="-0.019299" x2="0.1218" y2="-0.019299" />
      <line x1="0.121801" y1="-0.019301" x2="0.1218" y2="-0.019299" />
      <line x1="0.118001" y1="-0.019301" x2="0.121801" y2="-0.019301" />
      <line x1="0.1218" y1="-0.019299" x2="0.1218" y2="-0.016599" />
      <line x1="0.1218" y1="-0.016599" x2="0.1205" y2="-0.016599" />
      <line x1="0.1205" y1="-0.016599" x2="0.1205" y2="-0.013299" />
      <line x1="0.118001" y1="-0.013299" x2="0.1205" y2="-0.013299" />
      <line x1="0.1205" y1="-0.013299" x2="0.120501" y2="-0.013301" />
      <line x1="0.118001" y1="-0.013301" x2="0.120501" y2="-0.013301" />
      <line x1="0.121801" y1="-0.019301" x2="0.121801" y2="-0.016601" />
      <line x1="0.121801" y1="-0.016601" x2="0.120501" y2="-0.016601" />
      <line x1="0.120501" y1="-0.016601" x2="0.120501" y2="-0.013301" />
      <line x1="0.125101" y1="-0.021952" x2="0.125101" y2="-0.016602" />
      <path d="M 0.125101,-0.016602 A 0.0021,3.671292225642711e-07 -3.142176405862912e-24 0,1 0.121101,-0.016602" />
      <path d="M 0.121101,-0.016602 A 0.0021,3.671292225642711e-07 -3.142176405862912e-24 0,1 0.125101,-0.016602" />
      <line x1="0.125101" y1="-0.021952" x2="0.125101" y2="-0.016602" />
      <path d="M 0.125101,-0.016602 A 0.0021,3.671292225642711e-07 -2.756206628987413e-19 0,1 0.129101,-0.016602" />
      <path d="M 0.129101,-0.016602 A 0.0021,3.671292225642711e-07 -2.756206628987413e-19 0,1 0.125101,-0.016602" />
      <path d="M 0.149801,-0.016602 A 0.0021,3.671292225642711e-07 -3.142176405862912e-24 0,1 0.145601,-0.016602" />
      <path d="M 0.145601,-0.016602 A 0.0021,3.671292225642711e-07 -3.142176405862912e-24 1,1 0.149801,-0.016602" />
      <line x1="0.1251" y1="-0.021948" x2="0.1251" y2="-0.016598" />
      <path d="M 0.1251,-0.016598 A 0.0021,3.671292225642711e-07 -3.142176405862912e-24 0,1 0.1211,-0.016598" />
      <path d="M 0.1211,-0.016598 A 0.0021,3.671292225642711e-07 -3.142176405862912e-24 0,1 0.1251,-0.016598" />
      <line x1="0.1251" y1="-0.021948" x2="0.1251" y2="-0.016598" />
      <path d="M 0.1251,-0.016598 A 0.0021,3.671292225642711e-07 -2.756206628987413e-19 0,1 0.1291,-0.016598" />
      <path d="M 0.1291,-0.016598 A 0.0021,3.671292225642711e-07 -2.756206628987413e-19 0,1 0.1251,-0.016598" />
      <path d="M 0.1498,-0.016598 A 0.0021,3.671292225642711e-07 -3.142176405862912e-24 0,1 0.1456,-0.016598" />
      <path d="M 0.1456,-0.016598 A 0.0021,3.671292225642711e-07 -3.142176405862912e-24 1,1 0.1498,-0.016598" />
      <line x1="0.121801" y1="-0.016601" x2="0.1218" y2="-0.016599" />
      <line x1="0.120501" y1="-0.016602" x2="0.120501" y2="-0.016601" />
      <line x1="0.1205" y1="-0.016599" x2="0.1205" y2="-0.016598" />
      <line x1="0.1205" y1="-0.016598" x2="0.1665" y2="-0.016598" />
      <line x1="0.166501" y1="-0.016602" x2="0.1665" y2="-0.016598" />
      <line x1="0.120501" y1="-0.016602" x2="0.166501" y2="-0.016602" />
      <line x1="0.120501" y1="0.019798" x2="0.1205" y2="0.019802" />
      <line x1="0.1205" y1="-0.016598" x2="0.1205" y2="0.019802" />
      <line x1="0.120501" y1="-0.016602" x2="0.120501" y2="0.019798" />
      <line x1="0.1665" y1="-0.016598" x2="0.1665" y2="0.019802" />
      <line x1="0.1205" y1="0.019802" x2="0.1665" y2="0.019802" />
      <line x1="0.166501" y1="-0.016602" x2="0.166501" y2="0.019798" />
      <line x1="0.166501" y1="0.019798" x2="0.1665" y2="0.019802" />
      <line x1="0.120501" y1="0.019798" x2="0.166501" y2="0.019798" />
      <line x1="0.121101" y1="-0.021952" x2="0.121101" y2="-0.016602" />
      <line x1="0.129101" y1="-0.021952" x2="0.129101" y2="-0.016602" />
      <line x1="0.145601" y1="-0.021952" x2="0.145601" y2="-0.016602" />
      <line x1="0.1211" y1="-0.021948" x2="0.1211" y2="-0.016598" />
      <line x1="0.1291" y1="-0.021948" x2="0.1291" y2="-0.016598" />
      <line x1="0.1456" y1="-0.021948" x2="0.1456" y2="-0.016598" />
    </g>
  </g>
  <text x="0.025500" y="-0.027978" text-anchor="middle" font-family="'Input Sans Narrow', 'DejaVu Sans', Arial, sans-serif" font-size="0.002500" font-weight="bold" fill="#333">A-A</text>
  <text x="0.025500" y="-0.024478" text-anchor="middle" font-family="'Input Sans Narrow', 'DejaVu Sans', Arial, sans-serif" font-size="0.001800" fill="#888">shaft_face</text>
  <line x1="0.000000" y1="0.016000" x2="0.000000" y2="0.019000" stroke="#555" stroke-width="0.000140" stroke-opacity="0.5"/>
  <line x1="0.051000" y1="0.016000" x2="0.051000" y2="0.019000" stroke="#555" stroke-width="0.000140" stroke-opacity="0.5"/>
  <line x1="0.000000" y1="0.017400" x2="0.000000" y2="0.019000" stroke="#555" stroke-width="0.000200"/>
  <line x1="0.051000" y1="0.017400" x2="0.051000" y2="0.019000" stroke="#555" stroke-width="0.000200"/>
  <line x1="0.000000" y1="0.018200" x2="0.051000" y2="0.018200" stroke="#555" stroke-width="0.000200"/>
  <polygon points="0.000000,0.018200 0.001500,0.017600 0.001500,0.018800" fill="#555"/>
  <polygon points="0.051000,0.018200 0.049500,0.017600 0.049500,0.018800" fill="#555"/>
  <text x="0.025500" y="0.017000" text-anchor="middle" font-family="'Input Sans Narrow', 'DejaVu Sans', Arial, sans-serif" font-size="0.001600" fill="#555">51.0</text>
  <line x1="0.051800" y1="-0.015200" x2="0.054800" y2="-0.015200" stroke="#555" stroke-width="0.000140" stroke-opacity="0.5"/>
  <line x1="0.051800" y1="0.015200" x2="0.054800" y2="0.015200" stroke="#555" stroke-width="0.000140" stroke-opacity="0.5"/>
  <line x1="0.053200" y1="-0.015200" x2="0.054800" y2="-0.015200" stroke="#555" stroke-width="0.000200"/>
  <line x1="0.053200" y1="0.015200" x2="0.054800" y2="0.015200" stroke="#555" stroke-width="0.000200"/>
  <line x1="0.054000" y1="-0.015200" x2="0.054000" y2="0.015200" stroke="#555" stroke-width="0.000200"/>
  <polygon points="0.054000,-0.015200 0.053400,-0.013700 0.054600,-0.013700" fill="#555"/>
  <polygon points="0.054000,0.015200 0.053400,0.013700 0.054600,0.013700" fill="#555"/>
  <text x="0.055500" y="-0.000000" text-anchor="middle" dominant-baseline="central" font-family="'Input Sans Narrow', 'DejaVu Sans', Arial, sans-serif" font-size="0.001600" fill="#555" transform="rotate(-90 0.055500 -0.000000)">30.4</text>
  <text x="0.084500" y="-0.027978" text-anchor="middle" font-family="'Input Sans Narrow', 'DejaVu Sans', Arial, sans-serif" font-size="0.002500" font-weight="bold" fill="#333">B-B</text>
  <text x="0.084500" y="-0.024478" text-anchor="middle" font-family="'Input Sans Narrow', 'DejaVu Sans', Arial, sans-serif" font-size="0.001800" fill="#888">mid_body</text>
  <text x="0.143501" y="-0.027978" text-anchor="middle" font-family="'Input Sans Narrow', 'DejaVu Sans', Arial, sans-serif" font-size="0.002500" font-weight="bold" fill="#333">side_XZ</text>
  <line x1="0.118000" y1="0.022753" x2="0.118000" y2="0.025753" stroke="#555" stroke-width="0.000140" stroke-opacity="0.5"/>
  <line x1="0.169001" y1="0.022753" x2="0.169001" y2="0.025753" stroke="#555" stroke-width="0.000140" stroke-opacity="0.5"/>
  <line x1="0.118000" y1="0.024153" x2="0.118000" y2="0.025753" stroke="#555" stroke-width="0.000200"/>
  <line x1="0.169001" y1="0.024153" x2="0.169001" y2="0.025753" stroke="#555" stroke-width="0.000200"/>
  <line x1="0.118000" y1="0.024953" x2="0.169001" y2="0.024953" stroke="#555" stroke-width="0.000200"/>
  <polygon points="0.118000,0.024953 0.119500,0.024353 0.119500,0.025553" fill="#555"/>
  <polygon points="0.169001,0.024953 0.167501,0.024353 0.167501,0.025553" fill="#555"/>
  <text x="0.143501" y="0.023753" text-anchor="middle" font-family="'Input Sans Narrow', 'DejaVu Sans', Arial, sans-serif" font-size="0.001600" fill="#555">51.0</text>
  <line x1="0.169801" y1="-0.022303" x2="0.172801" y2="-0.022303" stroke="#555" stroke-width="0.000140" stroke-opacity="0.5"/>
  <line x1="0.169801" y1="0.021953" x2="0.172801" y2="0.021953" stroke="#555" stroke-width="0.000140" stroke-opacity="0.5"/>
  <line x1="0.171201" y1="-0.022303" x2="0.172801" y2="-0.022303" stroke="#555" stroke-width="0.000200"/>
  <line x1="0.171201" y1="0.021953" x2="0.172801" y2="0.021953" stroke="#555" stroke-width="0.000200"/>
  <line x1="0.172001" y1="-0.022303" x2="0.172001" y2="0.021953" stroke="#555" stroke-width="0.000200"/>
  <polygon points="0.172001,-0.022303 0.171401,-0.020803 0.172601,-0.020803" fill="#555"/>
  <polygon points="0.172001,0.021953 0.171401,0.020453 0.172601,0.020453" fill="#555"/>
  <text x="0.173501" y="-0.000175" text-anchor="middle" dominant-baseline="central" font-family="'Input Sans Narrow', 'DejaVu Sans', Arial, sans-serif" font-size="0.001600" fill="#555" transform="rotate(-90 0.173501 -0.000175)">44.3</text>
  <line x1="0.115000" y1="-0.016300" x2="0.172001" y2="-0.016300" stroke="#555" stroke-width="0.000250" stroke-dasharray="0.002500,0.000800,0.000500,0.000800"/>
  <text x="0.113500" y="-0.015700" text-anchor="end" font-family="'Input Sans Narrow', 'DejaVu Sans', Arial, sans-serif" font-size="0.002000" font-weight="bold" fill="#555">A</text>
  <text x="0.173501" y="-0.015700" text-anchor="start" font-family="'Input Sans Narrow', 'DejaVu Sans', Arial, sans-serif" font-size="0.002000" font-weight="bold" fill="#555">A</text>
  <line x1="0.115000" y1="-0.000000" x2="0.172001" y2="-0.000000" stroke="#555" stroke-width="0.000250" stroke-dasharray="0.002500,0.000800,0.000500,0.000800"/>
  <text x="0.113500" y="0.000600" text-anchor="end" font-family="'Input Sans Narrow', 'DejaVu Sans', Arial, sans-serif" font-size="0.002000" font-weight="bold" fill="#555">B</text>
  <text x="0.173501" y="0.000600" text-anchor="start" font-family="'Input Sans Narrow', 'DejaVu Sans', Arial, sans-serif" font-size="0.002000" font-weight="bold" fill="#555">B</text>
  <text x="-0.001175" y="0.030127" font-family="'Input Sans Narrow', 'DejaVu Sans', Arial, sans-serif" font-size="0.003500" font-weight="bold" fill="#222">joint_shoulder_yaw</text>
  <line x1="-0.001175" y1="0.034127" x2="0.008825" y2="0.034127" stroke="#333" stroke-width="0.000350"/>
  <line x1="-0.001175" y1="0.033127" x2="-0.001175" y2="0.035127" stroke="#333" stroke-width="0.000250"/>
  <line x1="0.008825" y1="0.033127" x2="0.008825" y2="0.035127" stroke="#333" stroke-width="0.000250"/>
  <text x="0.010325" y="0.034827" font-family="'Input Sans Narrow', 'DejaVu Sans', Arial, sans-serif" font-size="0.001800" fill="#888">10 mm</text>
  <rect x="0.028825" y="0.027627" width="0.004000" height="0.002500" fill="url(#hatch_servo)" stroke="rgb(60,60,60)" stroke-width="0.000300"/>
  <text x="0.034325" y="0.029627" font-family="'Input Sans Narrow', 'DejaVu Sans', Arial, sans-serif" font-size="0.001800" fill="rgb(60,60,60)">servo</text>
  <rect x="0.028825" y="0.031127" width="0.004000" height="0.002500" fill="url(#hatch_bracket)" stroke="rgb(50,120,190)" stroke-width="0.000300"/>
  <text x="0.034325" y="0.033127" font-family="'Input Sans Narrow', 'DejaVu Sans', Arial, sans-serif" font-size="0.001800" fill="rgb(50,120,190)">bracket</text>
</svg>