<?xml version='1.0' encoding='utf-8'?>
<svg width="183.47mm" height="74.28mm" viewBox="-0.003175 -0.034057 0.183465 0.074285" version="1.1" xmlns="http://www.w3.org/2000/svg">
  <defs>
    <pattern id="hatch_servo" width="0.0012" height="0.0012" patternUnits="userSpaceOnUse" patternTransform="rotate(45)">
      <line x1="0" y1="0" x2="0" y2="0.0012" stroke="rgb(60,60,60)" stroke-width="0.0001" stroke-opacity="0.6"/>
    </pattern>
    <pattern id="hatch_bracket" width="0.0012" height="0.0012" patternUnits="userSpaceOnUse" patternTransform="rotate(75)">
      <line x1="0" y1="0" x2="0" y2="0.0012" stroke="rgb(50,120,190)" stroke-width="0.0001" stroke-opacity="0.6"/>
    </pattern>
  </defs>
  <g transform="scale(1,-1)" stroke-linecap="round">
    <g fill="none" stroke="rgb(60,60,60)" stroke-width="0.00035" id="servo">
      <line x1="0.0028" y1="-0.0124" x2="0.0028" y2="0.0124" />
      <line x1="0.0028" y1="-0.0124" x2="0.0482" y2="-0.0124" />
      <line x1="0.0482" y1="-0.0124" x2="0.0482" y2="0.0124" />
      <line x1="0.0028" y1="0.0124" x2="0.0482" y2="0.0124" />
      <line x1="0.0618" y1="0.0124" x2="0.1072" y2="0.0124" />
      <line x1="0.1072" y1="0.0124" x2="0.1072" y2="-0.0124" />
      <line x1="0.0618" y1="-0.0124" x2="0.1072" y2="-0.0124" />
      <line x1="0.0618" y1="0.0124" x2="0.0618" y2="-0.0124" />
      <line x1="0.121244" y1="-0.015852" x2="0.121244" y2="0.015948" />
      <line x1="0.121244" y1="0.015948" x2="0.121245" y2="0.015961" />
      <line x1="0.121244" y1="-0.015852" x2="0.151244" y2="-0.015852" />
      <line x1="0.151244" y1="-0.015852" x2="0.166644" y2="-0.015852" />
      <line x1="0.166644" y1="-0.015852" x2="0.166644" y2="0.015948" />
      <line x1="0.121244" y1="0.015948" x2="0.166644" y2="0.015948" />
      <line x1="0.121245" y1="0.015961" x2="0.152444" y2="0.015961" />
      <line x1="0.160444" y1="0.015961" x2="0.166645" y2="0.015961" />
      <line x1="0.166644" y1="0.015948" x2="0.166645" y2="0.015961" />
      <path d="M 0.152444,0.015955 A 0.0040000000000000036,2.182800256091935e-06 -6.830285894301604e-23 0,1 0.160444,0.015955" />
      <path d="M 0.160444,0.018755 A 0.0040000000000000036,2.182800256091935e-06 -6.830285894301604e-23 0,1 0.152444,0.018755" />
      <path d="M 0.152444,0.018755 A 0.0040000000000000036,2.182800256091935e-06 -6.830285894301604e-23 0,1 0.160444,0.018755" />
      <line x1="0.151244" y1="-0.020039" x2="0.151245" y2="-0.020039" />
      <line x1="0.151245" y1="-0.020039" x2="0.151245" y2="-0.015852" />
      <line x1="0.120545" y1="-0.015839" x2="0.121244" y2="-0.015839" />
      <line x1="0.120545" y1="-0.015852" x2="0.120545" y2="-0.015839" />
      <line x1="0.120545" y1="-0.015838" x2="0.121244" y2="-0.015838" />
      <line x1="0.120544" y1="-0.015852" x2="0.121244" y2="-0.015852" />
      <line x1="0.120544" y1="-0.020053" x2="0.151244" y2="-0.020053" />
      <line x1="0.151244" y1="-0.020053" x2="0.151244" y2="-0.015853" />
      <line x1="0.120544" y1="-0.015853" x2="0.151244" y2="-0.015853" />
      <line x1="0.120544" y1="-0.020053" x2="0.120544" y2="-0.015853" />
      <line x1="0.160444" y1="0.015955" x2="0.160444" y2="0.018755" />
      <line x1="0.152444" y1="0.015955" x2="0.152444" y2="0.018755" />
    </g>
    <g fill="url(#hatch_servo)" stroke="none" stroke-width="0" id="servo_fill">
      <path d="M 0.0028,0.0124 L 0.0028,-0.0124 L 0.0482,-0.0124 L 0.0482,0.0124 L 0.0028,0.0124" />
      <path d="M 0.1072,0.0124 L 0.0618,0.0124 L 0.0618,-0.0124 L 0.1072,-0.0124 L 0.1072,0.0124" />
    </g>
    <g fill="none" stroke="rgb(60,60,60)" stroke-opacity="0.4" stroke-width="0.00015" id="servo_hidden" stroke-dasharray="0.0018 0.00045">
      <line x1="0.121245" y1="-0.015839" x2="0.121245" y2="0.015961" />
      <line x1="0.121244" y1="-0.015852" x2="0.121245" y2="-0.015839" />
      <line x1="0.152444" y1="0.015961" x2="0.160444" y2="0.015961" />
      <path d="M 0.160444,0.015955 A 0.0040000000000000036,2.182800256091935e-06 -6.830285894301604e-23 0,1 0.152444,0.015955" />
      <line x1="0.121245" y1="-0.015839" x2="0.151245" y2="-0.015839" />
      <line x1="0.151245" y1="-0.015839" x2="0.166645" y2="-0.015839" />
      <line x1="0.166645" y1="-0.015839" x2="0.166645" y2="0.015961" />
      <line x1="0.166644" y1="-0.015852" x2="0.166645" y2="-0.015839" />
      <line x1="0.120545" y1="-0.020039" x2="0.151244" y2="-0.020039" />
      <line x1="0.151245" y1="-0.015852" x2="0.151245" y2="-0.015839" />
      <line x1="0.121244" y1="-0.015839" x2="0.121245" y2="-0.015839" />
      <line x1="0.120545" y1="-0.020039" x2="0.120545" y2="-0.015852" />
      <line x1="0.120545" y1="-0.020038" x2="0.151245" y2="-0.020038" />
      <line x1="0.151245" y1="-0.020038" x2="0.151245" y2="-0.015838" />
      <line x1="0.121244" y1="-0.015838" x2="0.151245" y2="-0.015838" />
      <line x1="0.120545" y1="-0.020038" x2="0.120545" y2="-0.015838" />
      <line x1="0.120544" y1="-0.020052" x2="0.151244" y2="-0.020052" />
      <line x1="0.151244" y1="-0.020052" x2="0.151244" y2="-0.015852" />
      <line x1="0.120544" y1="-0.020052" x2="0.120544" y2="-0.015852" />
    </g>
    <g fill="none" stroke="rgb(50,120,190)" stroke-width="0.00035" id="bracket">
      <line x1="0.0" y1="0.0152" x2="0.051" y2="0.0152" />
      <line x1="0.051" y1="0.0152" x2="0.051" y2="-0.0152" />
      <line x1="0.0" y1="-0.0152" x2="0.051" y2="-0.0152" />
      <line x1="0.0" y1="0.0152" x2="0.0" y2="-0.0152" />
      <line x1="0.0025" y1="0.0127" x2="0.0025" y2="-0.0127" />
      <line x1="0.0025" y1="-0.0127" x2="0.0485" y2="-0.0127" />
      <line x1="0.0485" y1="0.0127" x2="0.0485" y2="-0.0127" />
      <line x1="0.0025" y1="0.0127" x2="0.0485" y2="0.0127" />
      <line x1="0.059" y1="0.0152" x2="0.11" y2="0.0152" />
      <line x1="0.11" y1="0.0152" x2="0.11" y2="-0.0152" />
      <line x1="0.059" y1="-0.0152" x2="0.11" y2="-0.0152" />
      <line x1="0.059" y1="0.0152" x2="0.059" y2="-0.0152" />
      <line x1="0.0615" y1="0.0127" x2="0.0615" y2="-0.0127" />
      <line x1="0.0615" y1="-0.0127" x2="0.1075" y2="-0.0127" />
      <line x1="0.1075" y1="0.0127" x2="0.1075" y2="-0.0127" />
      <line x1="0.0615" y1="0.0127" x2="0.1075" y2="0.0127" />
      <line x1="0.118116" y1="-0.019599" x2="0.118116" y2="0.023982" />
      <line x1="0.118116" y1="0.023982" x2="0.118" y2="0.024876" />
      <line x1="0.118116" y1="-0.019599" x2="0.118" y2="-0.018705" />
      <line x1="0.118" y1="-0.018705" x2="0.118" y2="0.024876" />
      <line x1="0.118039" y1="-0.015806" x2="0.118077" y2="-0.0161" />
      <line x1="0.118039" y1="-0.015806" x2="0.118039" y2="-0.009809" />
      <line x1="0.118039" y1="-0.009809" x2="0.118077" y2="-0.010103" />
      <line x1="0.118077" y1="-0.0161" x2="0.118077" y2="-0.010103" />
      <line x1="0.118116" y1="-0.019599" x2="0.169115" y2="-0.019593" />
      <line x1="0.169115" y1="-0.019593" x2="0.169115" y2="0.023988" />
      <line x1="0.118116" y1="0.023982" x2="0.169115" y2="0.023988" />
      <line x1="0.118" y1="0.024876" x2="0.169" y2="0.024882" />
      <line x1="0.169115" y1="0.023988" x2="0.169" y2="0.024882" />
      <line x1="0.118039" y1="-0.015806" x2="0.118077" y2="-0.015806" />
    </g>
    <g fill="url(#hatch_bracket)" stroke="none" stroke-width="0" id="bracket_fill">
      <path d="M 0.051,0.0152 L 0.0,0.0152 L 0.0,-0.0152 L 0.051,-0.0152 L 0.051,0.0152 M 0.0025,-0.0127 L 0.0025,0.0127 L 0.0485,0.0127 L 0.0485,-0.0127 L 0.0025,-0.0127" />
      <path d="M 0.11,0.0152 L 0.059,0.0152 L 0.059,-0.0152 L 0.11,-0.0152 L 0.11,0.0152 M 0.0615,-0.0127 L 0.0615,0.0127 L 0.1075,0.0127 L 0.1075,-0.0127 L 0.0615,-0.0127" />
    </g>
    <g fill="none" stroke="rgb(50,120,190)" stroke-opacity="0.4" stroke-width="0.00015" id="bracket_hidden" stroke-dasharray="0.0018 0.00045">
      <line x1="0.169115" y1="-0.019593" x2="0.169" y2="-0.018699" />
      <line x1="0.118" y1="-0.018705" x2="0.169" y2="-0.018699" />
      <path d="M 0.125193,-0.019426 A 0.0021,6.177037682514863e-05 6.788346705214816e-19 0,1 0.121197,-0.019453" />
      <path d="M 0.121197,-0.019453 A 0.0021,6.177037682514863e-05 6.788346705214816e-19 0,1 0.1252,-0.019479" />
      <path d="M 0.1252,-0.019479 A 0.0021,6.177037682514861e-05 -3.3825560674581144e-17 0,1 0.129197,-0.019452" />
      <path d="M 0.129197,-0.019452 A 0.0021,6.177037682514861e-05 -3.3825560674581144e-17 0,1 0.125193,-0.019426" />
      <path d="M 0.149897,-0.01945 A 0.0021000000000000046,6.177037682514876e-05 6.788346705214816e-19 0,1 0.145697,-0.01945" />
      <path d="M 0.145697,-0.01945 A 0.0021000000000000046,6.177037682514876e-05 6.788346705214816e-19 0,1 0.149897,-0.01945" />
      <path d="M 0.125115,-0.018823 A 0.0021,6.177037682514863e-05 6.788346705214816e-19 0,1 0.121119,-0.01885" />
      <path d="M 0.121119,-0.01885 A 0.0021,6.177037682514863e-05 6.788346705214816e-19 0,1 0.125122,-0.018876" />
      <path d="M 0.125122,-0.018876 A 0.0021,6.177037682514861e-05 -3.3825560674581144e-17 0,1 0.129119,-0.018849" />
      <path d="M 0.129119,-0.018849 A 0.0021,6.177037682514861e-05 -3.3825560674581144e-17 0,1 0.125115,-0.018823" />
      <path d="M 0.149819,-0.018847 A 0.0021000000000000046,6.177037682514876e-05 6.788346705214816e-19 0,1 0.145619,-0.018847" />
      <path d="M 0.145619,-0.018847 A 0.0021000000000000046,6.177037682514876e-05 6.788346705214816e-19 0,1 0.149819,-0.018847" />
      <line x1="0.169" y1="-0.018699" x2="0.169" y2="0.024882" />
      <line x1="0.118077" y1="-0.015806" x2="0.121839" y2="-0.015806" />
      <line x1="0.121877" y1="-0.0161" x2="0.121839" y2="-0.015806" />
      <line x1="0.118077" y1="-0.0161" x2="0.121877" y2="-0.0161" />
      <line x1="0.121839" y1="-0.015806" x2="0.121839" y2="-0.013107" />
      <line x1="0.121839" y1="-0.013107" x2="0.120539" y2="-0.013107" />
      <line x1="0.120539" y1="-0.013107" x2="0.120539" y2="-0.009808" />
      <line x1="0.118039" y1="-0.009809" x2="0.120539" y2="-0.009808" />
      <line x1="0.120539" y1="-0.009808" x2="0.120577" y2="-0.010103" />
      <line x1="0.118077" y1="-0.010103" x2="0.120577" y2="-0.010103" />
      <line x1="0.121877" y1="-0.0161" x2="0.121877" y2="-0.013401" />
      <line x1="0.121877" y1="-0.013401" x2="0.120577" y2="-0.013401" />
      <line x1="0.120577" y1="-0.013401" x2="0.120577" y2="-0.010103" />
      <line x1="0.125193" y1="-0.019426" x2="0.125193" y2="-0.013529" />
      <path d="M 0.125193,-0.013529 A 0.0021,6.177037682514863e-05 6.788346705214816e-19 0,1 0.121197,-0.013555" />
      <path d="M 0.121197,-0.013555 A 0.0021,6.177037682514863e-05 6.788346705214816e-19 0,1 0.1252,-0.013581" />
      <line x1="0.1252" y1="-0.019479" x2="0.1252" y2="-0.013581" />
      <path d="M 0.1252,-0.013581 A 0.0021,6.177037682514861e-05 -3.3825560674581144e-17 0,1 0.129197,-0.013555" />
      <path d="M 0.129197,-0.013555 A 0.0021,6.177037682514861e-05 -3.3825560674581144e-17 0,1 0.125193,-0.013529" />
      <path d="M 0.149897,-0.013552 A 0.0021000687957631547,6.177240041572674e-05 6.788346705214816e-19 0,1 0.145697,-0.013553" />
      <path d="M 0.145697,-0.013553 A 0.0021000000000000046,6.177037682514876e-05 6.788346705214816e-19 0,1 0.149897,-0.013553" />
      <line x1="0.125115" y1="-0.018823" x2="0.125115" y2="-0.012926" />
      <path d="M 0.125115,-0.012926 A 0.0021,6.177037682514863e-05 6.788346705214816e-19 0,1 0.121119,-0.012952" />
      <path d="M 0.121119,-0.012952 A 0.0021,6.177037682514863e-05 6.788346705214816e-19 0,1 0.125122,-0.012978" />
      <line x1="0.125122" y1="-0.018876" x2="0.125122" y2="-0.012978" />
      <path d="M 0.125122,-0.012978 A 0.0021,6.177037682514861e-05 -3.3825560674581144e-17 0,1 0.129119,-0.012952" />
      <path d="M 0.129119,-0.012952 A 0.0021,6.177037682514861e-05 -3.3825560674581144e-17 0,1 0.125115,-0.012926" />
      <path d="M 0.149819,-0.012949 A 0.0021000687957631542,6.177240041572673e-05 6.788346705214816e-19 0,1 0.145619,-0.01295" />
      <path d="M 0.145619,-0.01295 A 0.0021000000000000046,6.177037682514876e-05 6.788346705214816e-19 0,1 0.149819,-0.01295" />
      <line x1="0.121877" y1="-0.013401" x2="0.121839" y2="-0.013107" />
      <line x1="0.120606" y1="-0.013628" x2="0.120577" y2="-0.013401" />
      <line x1="0.120539" y1="-0.013107" x2="0.12051" y2="-0.012881" />
      <line x1="0.12051" y1="-0.012881" x2="0.166509" y2="-0.012875" />
      <line x1="0.166606" y1="-0.013623" x2="0.166509" y2="-0.012875" />
      <line x1="0.120606" y1="-0.013628" x2="0.166606" y2="-0.013623" />
      <line x1="0.120606" y1="0.021957" x2="0.12051" y2="0.022704" />
      <line x1="0.12051" y1="-0.012881" x2="0.12051" y2="0.022704" />
      <line x1="0.120606" y1="-0.013628" x2="0.120606" y2="0.021957" />
      <line x1="0.166509" y1="-0.012875" x2="0.166509" y2="0.022709" />
      <line x1="0.12051" y1="0.022704" x2="0.166509" y2="0.022709" />
      <line x1="0.166606" y1="-0.013623" x2="0.166606" y2="0.021962" />
      <line x1="0.166606" y1="0.021962" x2="0.166509" y2="0.022709" />
      <line x1="0.120606" y1="0.021957" x2="0.166606" y2="0.021962" />
      <line x1="0.121197" y1="-0.019453" x2="0.121197" y2="-0.013555" />
      <line x1="0.129197" y1="-0.019452" x2="0.129197" y2="-0.013555" />
      <line x1="0.149897" y1="-0.01945" x2="0.149897" y2="-0.013553" />
      <line x1="0.145697" y1="-0.01945" x2="0.145697" y2="-0.013553" />
      <line x1="0.121119" y1="-0.01885" x2="0.121119" y2="-0.012952" />
      <line x1="0.129119" y1="-0.018849" x2="0.129119" y2="-0.012952" />
      <line x1="0.149819" y1="-0.018847" x2="0.149819" y2="-0.01295" />
      <line x1="0.145619" y1="-0.018847" x2="0.145619" y2="-0.01295" />
    </g>
  </g>
  <text x="0.025500" y="-0.030557" text-anchor="middle" font-family="'Input Sans Narrow', 'DejaVu Sans', Arial, sans-serif" font-size="0.002500" font-weight="bold" fill="#333">A-A</text>
  <text x="0.025500" y="-0.027057" text-anchor="middle" font-family="'Input Sans Narrow', 'DejaVu Sans', Arial, sans-serif" font-size="0.001800" fill="#888">shaft_face</text>
  <line x1="0.000000" y1="0.017400" x2="0.000000" y2="0.019000" stroke="#555" stroke-width="0.000200"/>
  <line x1="0.051000" y1="0.017400" x2="0.051000" y2="0.019000" stroke="#555" stroke-width="0.000200"/>
  <line x1="0.000000" y1="0.018200" x2="0.051000" y2="0.018200" stroke="#555" stroke-width="0.000200"/>
  <polygon points="0.000000,0.018200 0.001500,0.017600 0.001500,0.018800" fill="#555"/>
  <polygon points="0.051000,0.018200 0.049500,0.017600 0.049500,0.018800" fill="#555"/>
  <text x="0.025500" y="0.016400" text-anchor="middle" font-family="'Input Sans Narrow', 'DejaVu Sans', Arial, sans-serif" font-size="0.001600" fill="#555">51.0</text>
  <line x1="0.053200" y1="-0.015200" x2="0.054800" y2="-0.015200" stroke="#555" stroke-width="0.000200"/>
  <line x1="0.053200" y1="0.015200" x2="0.054800" y2="0.015200" stroke="#555" stroke-width="0.000200"/>
  <line x1="0.054000" y1="-0.015200" x2="0.054000" y2="0.015200" stroke="#555" stroke-width="0.000200"/>
  <polygon points="0.054000,-0.015200 0.053400,-0.013700 0.054600,-0.013700" fill="#555"/>
  <polygon points="0.054000,0.015200 0.053400,0.013700 0.054600,0.013700" fill="#555"/>
  <text x="0.055500" y="-0.000000" text-anchor="middle" dominant-baseline="central" font-family="'Input Sans Narrow', 'DejaVu Sans', Arial, sans-serif" font-size="0.001600" fill="#555" transform="rotate(-90 0.055500 -0.000000)">30.4</text>
  <text x="0.084500" y="-0.030557" text-anchor="middle" font-family="'Input Sans Narrow', 'DejaVu Sans', Arial, sans-serif" font-size="0.002500" font-weight="bold" fill="#333">B-B</text>
  <text x="0.084500" y="-0.027057" text-anchor="middle" font-family="'Input Sans Narrow', 'DejaVu Sans', Arial, sans-serif" font-size="0.001800" fill="#888">mid_body</text>
  <line x1="0.059000" y1="0.017400" x2="0.059000" y2="0.019000" stroke="#555" stroke-width="0.000200"/>
  <line x1="0.110000" y1="0.017400" x2="0.110000" y2="0.019000" stroke="#555" stroke-width="0.000200"/>
  <line x1="0.059000" y1="0.018200" x2="0.110000" y2="0.018200" stroke="#555" stroke-width="0.000200"/>
  <polygon points="0.059000,0.018200 0.060500,0.017600 0.060500,0.018800" fill="#555"/>
  <polygon points="0.110000,0.018200 0.108500,0.017600 0.108500,0.018800" fill="#555"/>
  <text x="0.084500" y="0.016400" text-anchor="middle" font-family="'Input Sans Narrow', 'DejaVu Sans', Arial, sans-serif" font-size="0.001600" fill="#555">51.0</text>
  <line x1="0.112200" y1="-0.015200" x2="0.113800" y2="-0.015200" stroke="#555" stroke-width="0.000200"/>
  <line x1="0.112200" y1="0.015200" x2="0.113800" y2="0.015200" stroke="#555" stroke-width="0.000200"/>
  <line x1="0.113000" y1="-0.015200" x2="0.113000" y2="0.015200" stroke="#555" stroke-width="0.000200"/>
  <polygon points="0.113000,-0.015200 0.112400,-0.013700 0.113600,-0.013700" fill="#555"/>
  <polygon points="0.113000,0.015200 0.112400,0.013700 0.113600,0.013700" fill="#555"/>
  <text x="0.114500" y="-0.000000" text-anchor="middle" dominant-baseline="central" font-family="'Input Sans Narrow', 'DejaVu Sans', Arial, sans-serif" font-size="0.001600" fill="#555" transform="rotate(-90 0.114500 -0.000000)">30.4</text>
  <text x="0.143558" y="-0.030557" text-anchor="middle" font-family="'Input Sans Narrow', 'DejaVu Sans', Arial, sans-serif" font-size="0.002500" font-weight="bold" fill="#333">side_XZ</text>
  <line x1="0.118000" y1="0.022253" x2="0.118000" y2="0.023853" stroke="#555" stroke-width="0.000200"/>
  <line x1="0.169115" y1="0.022253" x2="0.169115" y2="0.023853" stroke="#555" stroke-width="0.000200"/>
  <line x1="0.118000" y1="0.023053" x2="0.169115" y2="0.023053" stroke="#555" stroke-width="0.000200"/>
  <polygon points="0.118000,0.023053 0.119500,0.022453 0.119500,0.023653" fill="#555"/>
  <polygon points="0.169115,0.023053 0.167615,0.022453 0.167615,0.023653" fill="#555"/>
  <text x="0.143558" y="0.021253" text-anchor="middle" font-family="'Input Sans Narrow', 'DejaVu Sans', Arial, sans-serif" font-size="0.001600" fill="#555">51.1</text>
  <line x1="0.171315" y1="-0.024882" x2="0.172915" y2="-0.024882" stroke="#555" stroke-width="0.000200"/>
  <line x1="0.171315" y1="0.020053" x2="0.172915" y2="0.020053" stroke="#555" stroke-width="0.000200"/>
  <line x1="0.172115" y1="-0.024882" x2="0.172115" y2="0.020053" stroke="#555" stroke-width="0.000200"/>
  <polygon points="0.172115,-0.024882 0.171515,-0.023382 0.172715,-0.023382" fill="#555"/>
  <polygon points="0.172115,0.020053 0.171515,0.018553 0.172715,0.018553" fill="#555"/>
  <text x="0.173615" y="-0.002415" text-anchor="middle" dominant-baseline="central" font-family="'Input Sans Narrow', 'DejaVu Sans', Arial, sans-serif" font-size="0.001600" fill="#555" transform="rotate(-90 0.173615 -0.002415)">44.9</text>
  <text x="-0.001175" y="0.023728" font-family="'Input Sans Narrow', 'DejaVu Sans', Arial, sans-serif" font-size="0.003500" font-weight="bold" fill="#222">joint_shoulder_pitch</text>
  <line x1="-0.001175" y1="0.027728" x2="0.008825" y2="0.027728" stroke="#333" stroke-width="0.000350"/>
  <line x1="-0.001175" y1="0.026728" x2="-0.001175" y2="0.028728" stroke="#333" stroke-width="0.000250"/>
  <line x1="0.008825" y1="0.026728" x2="0.008825" y2="0.028728" stroke="#333" stroke-width="0.000250"/>
  <text x="0.010325" y="0.028428" font-family="'Input Sans Narrow', 'DejaVu Sans', Arial, sans-serif" font-size="0.001800" fill="#888">10 mm</text>
  <rect x="0.028825" y="0.021228" width="0.004000" height="0.002500" fill="url(#hatch_servo)" stroke="rgb(60,60,60)" stroke-width="0.000300"/>
  <text x="0.034325" y="0.023228" font-family="'Input Sans Narrow', 'DejaVu Sans', Arial, sans-serif" font-size="0.001800" fill="rgb(60,60,60)">servo</text>
  <rect x="0.028825" y="0.024728" width="0.004000" height="0.002500" fill="url(#hatch_bracket)" stroke="rgb(50,120,190)" stroke-width="0.000300"/>
  <text x="0.034325" y="0.026728" font-family="'Input Sans Narrow', 'DejaVu Sans', Arial, sans-serif" font-size="0.001800" fill="rgb(50,120,190)">bracket</text>
</svg>