<?xml version='1.0' encoding='utf-8'?>
<svg width="287.51mm" height="86.27mm" viewBox="-0.003175 -0.047695 0.287510 0.086270" version="1.1" xmlns="http://www.w3.org/2000/svg">
  <defs>
    <pattern id="hatch_servo" width="0.0012" height="0.0012" patternUnits="userSpaceOnUse" patternTransform="rotate(45)">
      <line x1="0" y1="0" x2="0" y2="0.0012" stroke="rgb(60,60,60)" stroke-width="0.0001" stroke-opacity="0.6"/>
    </pattern>
    <pattern id="hatch_bracket" width="0.0012" height="0.0012" patternUnits="userSpaceOnUse" patternTransform="rotate(75)">
      <line x1="0" y1="0" x2="0" y2="0.0012" stroke="rgb(50,120,190)" stroke-width="0.0001" stroke-opacity="0.6"/>
    </pattern>
  </defs>
  <g transform="scale(1,-1)" stroke-linecap="round">
    <g fill="none" stroke="rgb(60,60,60)" stroke-width="0.00035" id="servo">
      <line x1="0.0" y1="-0.0084" x2="0.0" y2="0.0084" />
      <path d="M 0.0,-0.0084 A 0.004,0.004 -90.0 0,1 0.004,-0.0124" />
      <line x1="0.004" y1="-0.0124" x2="0.0414" y2="-0.0124" />
      <path d="M 0.0454,-0.0084 A 0.004,0.004 -90.0 0,0 0.0414,-0.0124" />
      <line x1="0.0454" y1="-0.0084" x2="0.0454" y2="0.0084" />
      <path d="M 0.0454,0.0084 A 0.004,0.004 -90.0 0,1 0.0414,0.0124" />
      <line x1="0.004" y1="0.0124" x2="0.0414" y2="0.0124" />
      <path d="M 0.0,0.0084 A 0.004,0.004 -90.0 0,0 0.004,0.0124" />
      <path d="M 0.0977,0.0124 A 0.004,0.004 180.0 0,1 0.0937,0.0084" />
      <line x1="0.0977" y1="0.0124" x2="0.1351" y2="0.0124" />
      <path d="M 0.1391,0.0084 A 0.004,0.004 0.0 0,1 0.1351,0.0124" />
      <line x1="0.1391" y1="0.0084" x2="0.1391" y2="-0.0084" />
      <path d="M 0.1351,-0.0124 A 0.004,0.004 0.0 0,1 0.1391,-0.0084" />
      <line x1="0.0977" y1="-0.0124" x2="0.1351" y2="-0.0124" />
      <path d="M 0.0937,-0.0084 A 0.004,0.004 180.0 0,1 0.0977,-0.0124" />
      <line x1="0.0937" y1="0.0084" x2="0.0937" y2="-0.0084" />
      <line x1="0.1874" y1="-0.0163" x2="0.1874" y2="0.0163" />
      <line x1="0.1874" y1="0.0163" x2="0.1874" y2="-0.0163" />
      <path d="M 0.1874,0.0163 A 0.004,7.964046740044567e-08 -3.901348164522844e-24 0,0 0.191401,0.0163" />
      <path d="M 0.1874,-0.0163 A 0.004,7.964046740044567e-08 -3.901348164522844e-24 0,0 0.189401,-0.0163" />
      <line x1="0.191401" y1="-0.0163" x2="0.191401" y2="0.0163" />
      <path d="M 0.1874,-0.0163 A 0.004,7.964046740044567e-08 180.0 0,1 0.1894,-0.0163" />
      <path d="M 0.2328,-0.0163 A 0.004,7.964046740044567e-08 180.0 0,1 0.229801,-0.0163" />
      <line x1="0.191401" y1="0.0163" x2="0.228801" y2="0.0163" />
      <path d="M 0.2328,0.0163 A 0.004,7.964046740044567e-08 180.0 0,1 0.228801,0.0163" />
      <line x1="0.228801" y1="0.0163" x2="0.2306" y2="0.0163" />
      <line x1="0.189401" y1="-0.0163" x2="0.191401" y2="-0.0163" />
      <line x1="0.228801" y1="-0.0163" x2="0.228801" y2="0.0163" />
      <line x1="0.228801" y1="-0.0163" x2="0.229801" y2="-0.0163" />
      <line x1="0.229801" y1="-0.0184" x2="0.229801" y2="-0.0163" />
      <line x1="0.189401" y1="-0.0184" x2="0.229801" y2="-0.0184" />
      <line x1="0.189401" y1="-0.0184" x2="0.189401" y2="-0.0163" />
      <line x1="0.1894" y1="-0.0184" x2="0.1894" y2="-0.0163" />
      <line x1="0.1894" y1="-0.0184" x2="0.2298" y2="-0.0184" />
      <line x1="0.2328" y1="-0.0163" x2="0.2328" y2="0.0163" />
      <path d="M 0.2126,0.018 A 0.002,3.9820233700222834e-08 -3.901348164522844e-24 0,0 0.2146,0.018" />
      <line x1="0.2146" y1="0.018" x2="0.2306" y2="0.018" />
      <path d="M 0.2326,0.018 A 0.002,3.9820233700222834e-08 180.0 0,1 0.2306,0.018" />
      <path d="M 0.1947,-0.0184 A 0.0016000000000000044,3.185618696017835e-08 -3.1156113220371268e-24 0,0 0.1915,-0.0184" />
      <path d="M 0.1915,-0.0184 A 0.0016000000000000044,3.185618696017835e-08 -3.1156113220371268e-24 1,0 0.1947,-0.0184" />
      <path d="M 0.2117,-0.0184 A 0.0016000000000000044,3.185618696017835e-08 -3.1156113220371268e-24 0,0 0.2085,-0.0184" />
      <path d="M 0.2085,-0.0184 A 0.0016000000000000044,3.185618696017835e-08 -3.1156113220371268e-24 1,0 0.2117,-0.0184" />
      <path d="M 0.2287,-0.0184 A 0.0016,3.185618696017826e-08 -3.1156113220371268e-24 0,0 0.2255,-0.0184" />
      <path d="M 0.2255,-0.0184 A 0.0016,3.185618696017826e-08 -3.1156113220371268e-24 1,0 0.2287,-0.0184" />
      <path d="M 0.1947,-0.0184 A 0.0016000000000000044,3.185618696017835e-08 -3.1156113220371268e-24 0,0 0.1915,-0.0184" />
      <path d="M 0.1915,-0.0184 A 0.0016000000000000044,3.185618696017835e-08 -3.1156113220371268e-24 1,0 0.1947,-0.0184" />
      <path d="M 0.2117,-0.0184 A 0.0016000000000000044,3.185618696017835e-08 -3.1156113220371268e-24 0,0 0.2085,-0.0184" />
      <path d="M 0.2085,-0.0184 A 0.0016000000000000044,3.185618696017835e-08 -3.1156113220371268e-24 1,0 0.2117,-0.0184" />
      <path d="M 0.2287,-0.0184 A 0.0016,3.185618696017826e-08 -3.1156113220371268e-24 0,0 0.2255,-0.0184" />
      <path d="M 0.2255,-0.0184 A 0.0016,3.185618696017826e-08 -3.1156113220371268e-24 1,0 0.2287,-0.0184" />
      <path d="M 0.2181,0.0195 A 0.004500000000000004,8.959552582550142e-08 -3.1156113220371268e-24 0,0 0.2271,0.0195" />
      <line x1="0.2126" y1="0.0163" x2="0.2126" y2="0.018" />
      <line x1="0.2146" y1="0.0163" x2="0.2146" y2="0.018" />
      <line x1="0.2306" y1="0.0163" x2="0.2306" y2="0.018" />
      <line x1="0.2326" y1="0.0163" x2="0.2326" y2="0.018" />
      <line x1="0.1874" y1="-0.0163" x2="0.1874" y2="0.0163" />
      <line x1="0.2328" y1="-0.0163" x2="0.2328" y2="0.0163" />
      <line x1="0.2271" y1="0.018" x2="0.2271" y2="0.0195" />
      <line x1="0.2181" y1="0.018" x2="0.2181" y2="0.0195" />
    </g>
    <g fill="url(#hatch_servo)" stroke="none" stroke-width="0" id="servo_fill">
      <path d="M 0.0,0.0084 L 0.0,-0.0084 A 0.004,0.004 -90.0 0,1 0.004,-0.0124 L 0.0414,-0.0124 A 0.004,0.004 -90.0 0,1 0.0454,-0.0084 L 0.0454,0.0084 A 0.004,0.004 -90.0 0,1 0.0414,0.0124 L 0.004,0.0124 A 0.004,0.004 -90.0 0,1 0.0,0.0084" />
      <path d="M 0.0977,0.0124 A 0.004,0.004 180.0 0,1 0.0937,0.0084 L 0.0937,-0.0084 A 0.004,0.004 180.0 0,1 0.0977,-0.0124 L 0.1351,-0.0124 A 0.004,0.004 0.0 0,1 0.1391,-0.0084 L 0.1391,0.0084 A 0.004,0.004 0.0 0,1 0.1351,0.0124 L 0.0977,0.0124" />
    </g>
    <g fill="none" stroke="rgb(60,60,60)" stroke-opacity="0.4" stroke-width="0.00015" id="servo_hidden" stroke-dasharray="0.0018 0.00045">
      <path d="M 0.189401,-0.0163 A 0.004,7.964046740044567e-08 -3.901348164522844e-24 0,0 0.191401,-0.0163" />
      <line x1="0.1894" y1="-0.0163" x2="0.2298" y2="-0.0163" />
      <line x1="0.189401" y1="-0.0163" x2="0.2298" y2="-0.0163" />
      <path d="M 0.2328,-0.0163 A 0.004,7.964046740044567e-08 -3.901348164522844e-24 0,0 0.2298,-0.0163" />
      <path d="M 0.2256,-0.0163 A 0.0030000000000000027,5.973035055033429e-08 -3.1156113220371268e-24 0,0 0.2196,-0.0163" />
      <path d="M 0.2196,-0.0163 A 0.0030000000000000027,5.973035055033429e-08 -3.1156113220371268e-24 1,0 0.2256,-0.0163" />
      <line x1="0.1914" y1="0.0163" x2="0.1914" y2="-0.0163" />
      <path d="M 0.1874,0.0163 A 0.004,7.964046740044567e-08 180.0 0,1 0.1914,0.0163" />
      <path d="M 0.1894,-0.0163 A 0.004,7.964046740044567e-08 180.0 0,1 0.1914,-0.0163" />
      <line x1="0.1914" y1="0.0163" x2="0.2288" y2="0.0163" />
      <path d="M 0.2328,0.0163 A 0.004,7.964046740044567e-08 -3.901348164522844e-24 0,0 0.2288,0.0163" />
      <path d="M 0.2126,0.0163 A 0.002,3.9820233700222834e-08 -3.901348164522844e-24 0,0 0.2146,0.0163" />
      <line x1="0.2146" y1="0.0163" x2="0.228801" y2="0.0163" />
      <path d="M 0.2326,0.0163 A 0.002,3.9820233700222834e-08 180.0 0,1 0.2306,0.0163" />
      <path d="M 0.2326,0.0163 A 0.002,3.9820233700222834e-08 -3.901348164522844e-24 0,0 0.2306,0.0163" />
      <line x1="0.2146" y1="0.0163" x2="0.2306" y2="0.0163" />
      <path d="M 0.2126,0.0163 A 0.002,3.9820233700222834e-08 180.0 0,1 0.2146,0.0163" />
      <line x1="0.1894" y1="-0.0184" x2="0.1894" y2="-0.0163" />
      <line x1="0.1894" y1="-0.0184" x2="0.1894" y2="-0.0163" />
      <line x1="0.1894" y1="-0.0184" x2="0.2298" y2="-0.0184" />
      <line x1="0.2298" y1="-0.0184" x2="0.2298" y2="-0.0163" />
      <line x1="0.2298" y1="-0.0184" x2="0.2298" y2="-0.0163" />
      <line x1="0.2298" y1="-0.0184" x2="0.2298" y2="-0.0163" />
      <path d="M 0.229801,-0.0163 A 0.004,7.964046740044567e-08 180.0 0,1 0.228801,-0.0163" />
      <line x1="0.2288" y1="0.0163" x2="0.2288" y2="-0.0163" />
      <line x1="0.2328" y1="0.0163" x2="0.2328" y2="-0.0163" />
      <path d="M 0.2298,-0.0163 A 0.004,7.964046740044567e-08 -3.901348164522844e-24 0,0 0.2288,-0.0163" />
      <path d="M 0.2256,-0.0176 A 0.0030000000000000027,5.973035055033429e-08 -3.1156113220371268e-24 0,0 0.2196,-0.0176" />
      <path d="M 0.2196,-0.0176 A 0.0030000000000000027,5.973035055033429e-08 -3.1156113220371268e-24 1,0 0.2256,-0.0176" />
      <line x1="0.2288" y1="-0.0163" x2="0.2298" y2="-0.0163" />
      <line x1="0.1894" y1="-0.0184" x2="0.2298" y2="-0.0184" />
      <line x1="0.1894" y1="-0.0163" x2="0.1914" y2="-0.0163" />
      <path d="M 0.2326,0.018 A 0.002,3.9820233700222834e-08 -3.901348164522844e-24 0,0 0.2306,0.018" />
      <line x1="0.2146" y1="0.018" x2="0.2306" y2="0.018" />
      <path d="M 0.2126,0.018 A 0.002,3.9820233700222834e-08 180.0 0,1 0.2146,0.018" />
      <path d="M 0.2271,0.018 A 0.004500000000000004,8.959552582550142e-08 -3.1156113220371268e-24 0,0 0.2181,0.018" />
      <path d="M 0.2181,0.018 A 0.004500000000000004,8.959552582550142e-08 -3.1156113220371268e-24 0,0 0.2271,0.018" />
      <path d="M 0.1947,-0.0084 A 0.0016000000000000044,3.185618696017835e-08 -3.1156113220371268e-24 0,0 0.1915,-0.0084" />
      <path d="M 0.1915,-0.0084 A 0.0016000000000000044,3.185618696017835e-08 -3.1156113220371268e-24 1,0 0.1947,-0.0084" />
      <path d="M 0.2117,-0.0084 A 0.0016000000000000044,3.185618696017835e-08 -3.1156113220371268e-24 0,0 0.2085,-0.0084" />
      <path d="M 0.2085,-0.0084 A 0.0016000000000000044,3.185618696017835e-08 -3.1156113220371268e-24 1,0 0.2117,-0.0084" />
      <path d="M 0.2287,-0.0084 A 0.0016,3.185618696017826e-08 -3.1156113220371268e-24 0,0 0.2255,-0.0084" />
      <path d="M 0.2255,-0.0084 A 0.0016,3.185618696017826e-08 -3.1156113220371268e-24 1,0 0.2287,-0.0084" />
      <path d="M 0.1947,-0.0084 A 0.0016000000000000044,3.185618696017835e-08 -3.1156113220371268e-24 0,0 0.1915,-0.0084" />
      <path d="M 0.1915,-0.0084 A 0.0016000000000000044,3.185618696017835e-08 -3.1156113220371268e-24 1,0 0.1947,-0.0084" />
      <path d="M 0.2117,-0.0084 A 0.0016000000000000044,3.185618696017835e-08 -3.1156113220371268e-24 0,0 0.2085,-0.0084" />
      <path d="M 0.2085,-0.0084 A 0.0016000000000000044,3.185618696017835e-08 -3.1156113220371268e-24 1,0 0.2117,-0.0084" />
      <path d="M 0.2287,-0.0084 A 0.0016,3.185618696017826e-08 -3.1156113220371268e-24 0,0 0.2255,-0.0084" />
      <path d="M 0.2255,-0.0084 A 0.0016,3.185618696017826e-08 -3.1156113220371268e-24 1,0 0.2287,-0.0084" />
      <path d="M 0.2271,0.0195 A 0.004500000000000004,8.959552582550142e-08 -3.1156113220371268e-24 0,0 0.2181,0.0195" />
      <line x1="0.2196" y1="-0.0176" x2="0.2196" y2="-0.0163" />
      <line x1="0.1915" y1="-0.0184" x2="0.1915" y2="-0.0084" />
      <line x1="0.2085" y1="-0.0184" x2="0.2085" y2="-0.0084" />
      <line x1="0.2255" y1="-0.0184" x2="0.2255" y2="-0.0084" />
      <line x1="0.1915" y1="-0.0184" x2="0.1915" y2="-0.0084" />
      <line x1="0.2085" y1="-0.0184" x2="0.2085" y2="-0.0084" />
      <line x1="0.2255" y1="-0.0184" x2="0.2255" y2="-0.0084" />
      <line x1="0.2326" y1="0.0163" x2="0.2326" y2="0.018" />
      <line x1="0.2306" y1="0.0163" x2="0.2306" y2="0.018" />
      <line x1="0.2146" y1="0.0163" x2="0.2146" y2="0.018" />
      <line x1="0.2126" y1="0.0163" x2="0.2126" y2="0.018" />
    </g>
    <g fill="none" stroke="rgb(50,120,190)" stroke-width="0.00035" id="bracket">
      <line x1="0.04445" y1="-0.003" x2="0.04445" y2="-0.0157" />
      <line x1="0.04445" y1="-0.003" x2="0.04875" y2="-0.003" />
      <line x1="0.04875" y1="0.003" x2="0.04875" y2="-0.003" />
      <line x1="0.04445" y1="0.003" x2="0.04875" y2="0.003" />
      <line x1="0.04445" y1="0.0157" x2="0.04445" y2="0.003" />
      <line x1="0.04445" y1="0.0157" x2="0.0857" y2="0.0157" />
      <line x1="0.0857" y1="0.0157" x2="0.0857" y2="0.0127" />
      <line x1="0.0498" y1="0.0127" x2="0.0857" y2="0.0127" />
      <line x1="0.0498" y1="0.0127" x2="0.0498" y2="-0.0127" />
      <line x1="0.0498" y1="-0.0127" x2="0.0857" y2="-0.0127" />
      <line x1="0.0857" y1="-0.0127" x2="0.0857" y2="-0.0157" />
      <line x1="0.04445" y1="-0.0157" x2="0.0857" y2="-0.0157" />
      <line x1="0.13815" y1="0.0157" x2="0.13815" y2="-0.0157" />
      <line x1="0.13815" y1="0.0157" x2="0.1794" y2="0.0157" />
      <line x1="0.1794" y1="0.0157" x2="0.1794" y2="0.0127" />
      <line x1="0.1435" y1="0.0127" x2="0.1794" y2="0.0127" />
      <line x1="0.1435" y1="0.0127" x2="0.1435" y2="-0.0127" />
      <line x1="0.1435" y1="-0.0127" x2="0.1794" y2="-0.0127" />
      <line x1="0.1794" y1="-0.0127" x2="0.1794" y2="-0.0157" />
      <line x1="0.13815" y1="-0.0157" x2="0.1794" y2="-0.0157" />
      <line x1="0.23191" y1="0.03852" x2="0.27316" y2="0.038519" />
      <line x1="0.23191" y1="0.03852" x2="0.23179" y2="0.038481" />
      <line x1="0.23191" y1="0.03852" x2="0.23191" y2="-0.01348" />
      <line x1="0.23191" y1="-0.01348" x2="0.27316" y2="-0.013481" />
      <line x1="0.27316" y1="0.038519" x2="0.27316" y2="-0.013481" />
      <line x1="0.27316" y1="-0.013481" x2="0.27304" y2="-0.01352" />
      <line x1="0.23179" y1="0.038481" x2="0.23179" y2="-0.013519" />
      <line x1="0.23179" y1="-0.013519" x2="0.27304" y2="-0.01352" />
      <line x1="0.23191" y1="-0.01348" x2="0.23179" y2="-0.013519" />
      <path d="M 0.23189,0.027913 A 0.0016000012334523655,6.11913714772114e-06 -90.00027208961095 0,0 0.23189,0.031113" />
      <path d="M 0.23189,0.031113 A 0.0016000012334523655,6.11913714772114e-06 -90.00027208961095 0,0 0.23189,0.027913" />
      <line x1="0.231862" y1="0.015504" x2="0.231862" y2="0.025504" />
      <line x1="0.231862" y1="0.015504" x2="0.231839" y2="0.015496" />
      <line x1="0.231839" y1="0.015496" x2="0.231839" y2="0.025496" />
      <line x1="0.231862" y1="0.025504" x2="0.231839" y2="0.025496" />
      <path d="M 0.23189,0.010913 A 0.0016000012334523664,6.119137147721144e-06 -90.00027208961095 0,0 0.23189,0.014113" />
      <path d="M 0.23189,0.014113 A 0.0016000012334523664,6.119137147721144e-06 -90.00027208961095 0,0 0.23189,0.010913" />
      <path d="M 0.23189,-0.006087 A 0.0016000012334523668,6.119137147721146e-06 -90.00027208961095 0,0 0.23189,-0.002887" />
      <path d="M 0.23189,-0.002887 A 0.0016000012334523668,6.119137147721146e-06 -90.00027208961095 0,0 0.23189,-0.006087" />
      <path d="M 0.231811,0.027887 A 0.0016000012334523672,6.119137147721147e-06 -90.00027208961095 0,0 0.231811,0.031087" />
      <path d="M 0.231811,0.031087 A 0.0016000012334523672,6.119137147721147e-06 -90.00027208961095 0,0 0.231811,0.027887" />
      <path d="M 0.231811,0.010887 A 0.0016000012334523664,6.119137147721144e-06 -90.00027208961095 0,0 0.231811,0.014087" />
      <path d="M 0.231811,0.014087 A 0.0016000012334523664,6.119137147721144e-06 -90.00027208961095 0,0 0.231811,0.010887" />
      <path d="M 0.231811,-0.006113 A 0.0016000012334523668,6.119137147721146e-06 -90.00027208961095 0,0 0.231811,-0.002913" />
      <path d="M 0.231811,-0.002913 A 0.0016000012334523668,6.119137147721146e-06 -90.00027208961095 0,0 0.231811,-0.006113" />
      <line x1="0.231839" y1="0.025496" x2="0.231862" y2="0.025496" />
    </g>
    <g fill="url(#hatch_bracket)" stroke="none" stroke-width="0" id="bracket_fill">
      <path d="M 0.04445,-0.003 L 0.04445,-0.0157 L 0.0857,-0.0157 L 0.0857,-0.0127 L 0.0498,-0.0127 L 0.0498,0.0127 L 0.0857,0.0127 L 0.0857,0.0157 L 0.04445,0.0157 L 0.04445,0.003 L 0.04875,0.003 L 0.04875,-0.003 L 0.04445,-0.003" />
      <path d="M 0.13815,0.0157 L 0.13815,-0.0157 L 0.1794,-0.0157 L 0.1794,-0.0127 L 0.1435,-0.0127 L 0.1435,0.0127 L 0.1794,0.0127 L 0.1794,0.0157 L 0.13815,0.0157" />
    </g>
    <g fill="none" stroke="rgb(50,120,190)" stroke-opacity="0.4" stroke-width="0.00015" id="bracket_hidden" stroke-dasharray="0.0018 0.00045">
      <line x1="0.27316" y1="0.038519" x2="0.27304" y2="0.03848" />
      <line x1="0.23179" y1="0.038481" x2="0.27304" y2="0.03848" />
      <line x1="0.27304" y1="0.03848" x2="0.27304" y2="-0.01352" />
      <line x1="0.273149" y1="-0.010484" x2="0.273149" y2="0.035516" />
      <line x1="0.273149" y1="-0.010484" x2="0.273051" y2="-0.010516" />
      <line x1="0.273051" y1="-0.010516" x2="0.273051" y2="0.035484" />
      <line x1="0.273149" y1="0.035516" x2="0.273051" y2="0.035484" />
      <line x1="0.237249" y1="-0.010484" x2="0.273149" y2="-0.010484" />
      <line x1="0.237249" y1="0.035516" x2="0.273149" y2="0.035516" />
      <line x1="0.237249" y1="0.035516" x2="0.237249" y2="-0.010484" />
      <line x1="0.237152" y1="-0.010516" x2="0.273051" y2="-0.010516" />
      <line x1="0.237249" y1="-0.010484" x2="0.237152" y2="-0.010516" />
      <line x1="0.237152" y1="0.035484" x2="0.273051" y2="0.035484" />
      <line x1="0.237152" y1="0.035484" x2="0.237152" y2="-0.010516" />
      <line x1="0.237249" y1="0.035516" x2="0.237152" y2="0.035484" />
      <path d="M 0.237239,0.027913 A 0.0016051718800230404,6.138912067169223e-06 -90.00027208961095 0,0 0.23724,0.031113" />
      <path d="M 0.23724,0.031113 A 0.0016000012334523655,6.11913714772114e-06 -90.00027208961095 0,0 0.23724,0.027913" />
      <line x1="0.231862" y1="0.015504" x2="0.236162" y2="0.015504" />
      <line x1="0.236162" y1="0.025504" x2="0.236162" y2="0.015504" />
      <line x1="0.231862" y1="0.025504" x2="0.236162" y2="0.025504" />
      <line x1="0.236162" y1="0.015504" x2="0.236139" y2="0.015496" />
      <line x1="0.231839" y1="0.015496" x2="0.236139" y2="0.015496" />
      <line x1="0.236139" y1="0.025496" x2="0.236139" y2="0.015496" />
      <line x1="0.231862" y1="0.025496" x2="0.236139" y2="0.025496" />
      <line x1="0.236162" y1="0.025504" x2="0.236139" y2="0.025496" />
      <path d="M 0.237239,0.010913 A 0.0016051718800230413,6.138912067169227e-06 -90.00027208961095 0,0 0.23724,0.014113" />
      <path d="M 0.23724,0.014113 A 0.0016000012334523664,6.119137147721144e-06 -90.00027208961095 0,0 0.23724,0.010913" />
      <path d="M 0.237239,-0.006087 A 0.0016051718800230415,6.1389120671692275e-06 -90.00027208961095 0,0 0.23724,-0.002887" />
      <path d="M 0.23724,-0.002887 A 0.0016000012334523668,6.119137147721146e-06 -90.00027208961095 0,0 0.23724,-0.006087" />
      <path d="M 0.237161,0.027887 A 0.0016000012334523672,6.119137147721147e-06 -90.00027208961095 0,0 0.237161,0.031087" />
      <path d="M 0.237161,0.031087 A 0.0016000012334523672,6.119137147721147e-06 -90.00027208961095 0,0 0.237161,0.027887" />
      <path d="M 0.237161,0.010887 A 0.0016000012334523664,6.119137147721144e-06 -90.00027208961095 0,0 0.237161,0.014087" />
      <path d="M 0.237161,0.014087 A 0.0016000012334523664,6.119137147721144e-06 -90.00027208961095 0,0 0.237161,0.010887" />
      <path d="M 0.237161,-0.006113 A 0.0016000012334523668,6.119137147721146e-06 -90.00027208961095 0,0 0.237161,-0.002913" />
      <path d="M 0.237161,-0.002913 A 0.0016000012334523668,6.119137147721146e-06 -90.00027208961095 0,0 0.237161,-0.006113" />
      <line x1="0.23189" y1="0.027913" x2="0.237239" y2="0.027913" />
      <line x1="0.23189" y1="0.031113" x2="0.23724" y2="0.031113" />
      <line x1="0.23189" y1="0.010913" x2="0.237239" y2="0.010913" />
      <line x1="0.23189" y1="0.014113" x2="0.23724" y2="0.014113" />
      <line x1="0.23189" y1="-0.006087" x2="0.237239" y2="-0.006087" />
      <line x1="0.23189" y1="-0.002887" x2="0.23724" y2="-0.002887" />
      <line x1="0.231811" y1="0.027887" x2="0.237161" y2="0.027887" />
      <line x1="0.231811" y1="0.031087" x2="0.237161" y2="0.031087" />
      <line x1="0.231811" y1="0.010887" x2="0.237161" y2="0.010887" />
      <line x1="0.231811" y1="0.014087" x2="0.237161" y2="0.014087" />
      <line x1="0.231811" y1="-0.006113" x2="0.237161" y2="-0.006113" />
      <line x1="0.231811" y1="-0.002913" x2="0.237161" y2="-0.002913" />
    </g>
  </g>
  <text x="0.042850" y="-0.044195" text-anchor="middle" font-family="'Input Sans Narrow', 'DejaVu Sans', Arial, sans-serif" font-size="0.002500" font-weight="bold" fill="#333">A-A</text>
  <text x="0.042850" y="-0.040695" text-anchor="middle" font-family="'Input Sans Narrow', 'DejaVu Sans', Arial, sans-serif" font-size="0.001800" fill="#888">shaft_face</text>
  <line x1="0.000000" y1="0.016500" x2="0.000000" y2="0.019500" stroke="#5C7080" stroke-width="0.000140" stroke-opacity="0.5"/>
  <line x1="0.085700" y1="0.016500" x2="0.085700" y2="0.019500" stroke="#5C7080" stroke-width="0.000140" stroke-opacity="0.5"/>
  <line x1="0.000000" y1="0.017900" x2="0.000000" y2="0.019500" stroke="#5C7080" stroke-width="0.000200"/>
  <line x1="0.085700" y1="0.017900" x2="0.085700" y2="0.019500" stroke="#5C7080" stroke-width="0.000200"/>
  <line x1="0.000000" y1="0.018700" x2="0.085700" y2="0.018700" stroke="#5C7080" stroke-width="0.000200"/>
  <polygon points="0.000000,0.018700 0.001500,0.018100 0.001500,0.019300" fill="#5C7080"/>
  <polygon points="0.085700,0.018700 0.084200,0.018100 0.084200,0.019300" fill="#5C7080"/>
  <text x="0.042850" y="0.017500" text-anchor="middle" font-family="'Input Sans Narrow', 'DejaVu Sans', Arial, sans-serif" font-size="0.001600" fill="#5C7080">85.7</text>
  <line x1="0.086500" y1="-0.015700" x2="0.089500" y2="-0.015700" stroke="#5C7080" stroke-width="0.000140" stroke-opacity="0.5"/>
  <line x1="0.086500" y1="0.015700" x2="0.089500" y2="0.015700" stroke="#5C7080" stroke-width="0.000140" stroke-opacity="0.5"/>
  <line x1="0.087900" y1="-0.015700" x2="0.089500" y2="-0.015700" stroke="#5C7080" stroke-width="0.000200"/>
  <line x1="0.087900" y1="0.015700" x2="0.089500" y2="0.015700" stroke="#5C7080" stroke-width="0.000200"/>
  <line x1="0.088700" y1="-0.015700" x2="0.088700" y2="0.015700" stroke="#5C7080" stroke-width="0.000200"/>
  <polygon points="0.088700,-0.015700 0.088100,-0.014200 0.089300,-0.014200" fill="#5C7080"/>
  <polygon points="0.088700,0.015700 0.088100,0.014200 0.089300,0.014200" fill="#5C7080"/>
  <text x="0.090200" y="0.000000" text-anchor="middle" dominant-baseline="central" font-family="'Input Sans Narrow', 'DejaVu Sans', Arial, sans-serif" font-size="0.001600" fill="#5C7080" transform="rotate(-90 0.090200 0.000000)">31.4</text>
  <text x="0.136550" y="-0.044195" text-anchor="middle" font-family="'Input Sans Narrow', 'DejaVu Sans', Arial, sans-serif" font-size="0.002500" font-weight="bold" fill="#333">B-B</text>
  <text x="0.136550" y="-0.040695" text-anchor="middle" font-family="'Input Sans Narrow', 'DejaVu Sans', Arial, sans-serif" font-size="0.001800" fill="#888">mid_body</text>
  <text x="0.230280" y="-0.044195" text-anchor="middle" font-family="'Input Sans Narrow', 'DejaVu Sans', Arial, sans-serif" font-size="0.002500" font-weight="bold" fill="#333">side_XZ</text>
  <line x1="0.187400" y1="0.019200" x2="0.187400" y2="0.022200" stroke="#5C7080" stroke-width="0.000140" stroke-opacity="0.5"/>
  <line x1="0.273160" y1="0.019200" x2="0.273160" y2="0.022200" stroke="#5C7080" stroke-width="0.000140" stroke-opacity="0.5"/>
  <line x1="0.187400" y1="0.020600" x2="0.187400" y2="0.022200" stroke="#5C7080" stroke-width="0.000200"/>
  <line x1="0.273160" y1="0.020600" x2="0.273160" y2="0.022200" stroke="#5C7080" stroke-width="0.000200"/>
  <line x1="0.187400" y1="0.021400" x2="0.273160" y2="0.021400" stroke="#5C7080" stroke-width="0.000200"/>
  <polygon points="0.187400,0.021400 0.188900,0.020800 0.188900,0.022000" fill="#5C7080"/>
  <polygon points="0.273160,0.021400 0.271660,0.020800 0.271660,0.022000" fill="#5C7080"/>
  <text x="0.230280" y="0.020200" text-anchor="middle" font-family="'Input Sans Narrow', 'DejaVu Sans', Arial, sans-serif" font-size="0.001600" fill="#5C7080">85.8</text>
  <line x1="0.273960" y1="-0.038520" x2="0.276960" y2="-0.038520" stroke="#5C7080" stroke-width="0.000140" stroke-opacity="0.5"/>
  <line x1="0.273960" y1="0.018400" x2="0.276960" y2="0.018400" stroke="#5C7080" stroke-width="0.000140" stroke-opacity="0.5"/>
  <line x1="0.275360" y1="-0.038520" x2="0.276960" y2="-0.038520" stroke="#5C7080" stroke-width="0.000200"/>
  <line x1="0.275360" y1="0.018400" x2="0.276960" y2="0.018400" stroke="#5C7080" stroke-width="0.000200"/>
  <line x1="0.276160" y1="-0.038520" x2="0.276160" y2="0.018400" stroke="#5C7080" stroke-width="0.000200"/>
  <polygon points="0.276160,-0.038520 0.275560,-0.037020 0.276760,-0.037020" fill="#5C7080"/>
  <polygon points="0.276160,0.018400 0.275560,0.016900 0.276760,0.016900" fill="#5C7080"/>
  <text x="0.277660" y="-0.010060" text-anchor="middle" dominant-baseline="central" font-family="'Input Sans Narrow', 'DejaVu Sans', Arial, sans-serif" font-size="0.001600" fill="#5C7080" transform="rotate(-90 0.277660 -0.010060)">56.9</text>
  <line x1="0.184400" y1="-0.016300" x2="0.276160" y2="-0.016300" stroke="#555" stroke-width="0.000250" stroke-dasharray="0.002500,0.000800,0.000500,0.000800"/>
  <text x="0.182900" y="-0.015700" text-anchor="end" font-family="'Input Sans Narrow', 'DejaVu Sans', Arial, sans-serif" font-size="0.002000" font-weight="bold" fill="#555">A</text>
  <text x="0.277660" y="-0.015700" text-anchor="start" font-family="'Input Sans Narrow', 'DejaVu Sans', Arial, sans-serif" font-size="0.002000" font-weight="bold" fill="#555">A</text>
  <line x1="0.184400" y1="-0.000000" x2="0.276160" y2="-0.000000" stroke="#555" stroke-width="0.000250" stroke-dasharray="0.002500,0.000800,0.000500,0.000800"/>
  <text x="0.182900" y="0.000600" text-anchor="end" font-family="'Input Sans Narrow', 'DejaVu Sans', Arial, sans-serif" font-size="0.002000" font-weight="bold" fill="#555">B</text>
  <text x="0.277660" y="0.000600" text-anchor="start" font-family="'Input Sans Narrow', 'DejaVu Sans', Arial, sans-serif" font-size="0.002000" font-weight="bold" fill="#555">B</text>
  <text x="-0.001175" y="0.026575" font-family="'Input Sans Narrow', 'DejaVu Sans', Arial, sans-serif" font-size="0.003500" font-weight="bold" fill="#222">joint_right_wheel</text>
  <line x1="-0.001175" y1="0.030575" x2="0.008825" y2="0.030575" stroke="#333" stroke-width="0.000350"/>
  <line x1="-0.001175" y1="0.029575" x2="-0.001175" y2="0.031575" stroke="#333" stroke-width="0.000250"/>
  <line x1="0.008825" y1="0.029575" x2="0.008825" y2="0.031575" stroke="#333" stroke-width="0.000250"/>
  <text x="0.010325" y="0.031275" font-family="'Input Sans Narrow', 'DejaVu Sans', Arial, sans-serif" font-size="0.001800" fill="#888">10 mm</text>
  <rect x="0.028825" y="0.024075" width="0.004000" height="0.002500" fill="url(#hatch_servo)" stroke="rgb(60,60,60)" stroke-width="0.000300"/>
  <text x="0.034325" y="0.026075" font-family="'Input Sans Narrow', 'DejaVu Sans', Arial, sans-serif" font-size="0.001800" fill="rgb(60,60,60)">servo</text>
  <rect x="0.028825" y="0.027575" width="0.004000" height="0.002500" fill="url(#hatch_bracket)" stroke="rgb(50,120,190)" stroke-width="0.000300"/>
  <text x="0.034325" y="0.029575" font-family="'Input Sans Narrow', 'DejaVu Sans', Arial, sans-serif" font-size="0.001800" fill="rgb(50,120,190)">bracket</text>
</svg>