<?xml version='1.0' encoding='utf-8'?>
<svg width="183.35mm" height="85.57mm" viewBox="-0.003175 -0.030679 0.183351 0.085574" version="1.1" xmlns="http://www.w3.org/2000/svg">
  <defs>
    <pattern id="hatch_servo" width="0.0012" height="0.0012" patternUnits="userSpaceOnUse" patternTransform="rotate(45)">
      <line x1="0" y1="0" x2="0" y2="0.0012" stroke="rgb(60,60,60)" stroke-width="0.0001" stroke-opacity="0.6"/>
    </pattern>
    <pattern id="hatch_bracket" width="0.0012" height="0.0012" patternUnits="userSpaceOnUse" patternTransform="rotate(75)">
      <line x1="0" y1="0" x2="0" y2="0.0012" stroke="rgb(50,120,190)" stroke-width="0.0001" stroke-opacity="0.6"/>
    </pattern>
  </defs>
  <g transform="scale(1,-1)" stroke-linecap="round">
    <g fill="none" stroke="rgb(60,60,60)" stroke-width="0.00035" id="servo">
      <line x1="0.0618" y1="-0.0084" x2="0.0618" y2="0.0084" />
      <path d="M 0.0618,-0.0084 A 0.004,0.004 -90.0 0,1 0.0658,-0.0124" />
      <line x1="0.0658" y1="-0.0124" x2="0.1032" y2="-0.0124" />
      <path d="M 0.1072,-0.0084 A 0.004,0.004 -90.0 0,0 0.1032,-0.0124" />
      <line x1="0.1072" y1="-0.0084" x2="0.1072" y2="0.0084" />
      <path d="M 0.1072,0.0084 A 0.004,0.004 -90.0 0,1 0.1032,0.0124" />
      <line x1="0.0658" y1="0.0124" x2="0.1032" y2="0.0124" />
      <path d="M 0.0618,0.0084 A 0.004,0.004 -90.0 0,0 0.0658,0.0124" />
      <line x1="0.120801" y1="-0.032613" x2="0.120801" y2="-1.3e-05" />
      <line x1="0.1208" y1="1.3e-05" x2="0.1208" y2="-0.032587" />
      <line x1="0.120801" y1="-1.3e-05" x2="0.1208" y2="1.3e-05" />
      <path d="M 0.120801,-1.3e-05 A 0.004,6.39839249487319e-06 -7.261542142715284e-23 0,1 0.124801,-2e-05" />
      <line x1="0.124801" y1="-0.03262" x2="0.124801" y2="-2e-05" />
      <path d="M 0.123782,-0.03262 A 0.004,6.39839249487319e-06 -7.261542142715284e-23 0,1 0.124801,-0.03262" />
      <line x1="0.123782" y1="-0.03262" x2="0.123782" y2="-0.02472" />
      <path d="M 0.12112,-0.024716 A 0.004,6.39839249487319e-06 3.8228868042372425e-23 0,1 0.123782,-0.02472" />
      <line x1="0.12112" y1="-0.032616" x2="0.12112" y2="-0.024716" />
      <path d="M 0.120801,-0.032613 A 0.004,6.39839249487319e-06 -7.261542142715284e-23 0,1 0.12112,-0.032616" />
      <path d="M 0.166201,-0.032613 A 0.004,6.39839249487319e-06 180.0 0,0 0.163201,-0.03262" />
      <path d="M 0.123782,-0.032613 A 0.0021,3.3591560598084242e-06 3.8228868042372425e-23 0,1 0.12112,-0.032616" />
      <line x1="0.121119" y1="-0.032584" x2="0.121119" y2="-0.024716" />
      <path d="M 0.1208,1.3e-05 A 0.004,6.39839249487319e-06 180.0 0,0 0.1248,2e-05" />
      <line x1="0.124801" y1="-2e-05" x2="0.162201" y2="-2e-05" />
      <line x1="0.1248" y1="2e-05" x2="0.146001" y2="2e-05" />
      <path d="M 0.166201,-1.3e-05 A 0.004,6.39839249487319e-06 180.0 0,0 0.162201,-2e-05" />
      <path d="M 0.1662,1.3e-05 A 0.004,6.39839249487319e-06 -7.261542142715284e-23 0,1 0.166001,1.5e-05" />
      <line x1="0.166201" y1="-1.3e-05" x2="0.1662" y2="1.3e-05" />
      <path d="M 0.146001,-1.3e-05 A 0.002,3.199196247436595e-06 -7.261542142715284e-23 0,1 0.148001,-1.6e-05" />
      <line x1="0.148001" y1="-1.6e-05" x2="0.164001" y2="-1.6e-05" />
      <path d="M 0.166001,-1.3e-05 A 0.002,3.199196247436595e-06 180.0 0,0 0.164001,-1.6e-05" />
      <line x1="0.146001" y1="-1.3e-05" x2="0.146" y2="1.3e-05" />
      <line x1="0.162201" y1="-0.03262" x2="0.162201" y2="-2e-05" />
      <line x1="0.162201" y1="-0.03262" x2="0.163201" y2="-0.03262" />
      <line x1="0.163201" y1="-0.03472" x2="0.163201" y2="-0.03262" />
      <line x1="0.122801" y1="-0.03472" x2="0.163201" y2="-0.03472" />
      <line x1="0.122801" y1="-0.03472" x2="0.122801" y2="-0.03262" />
      <line x1="0.122801" y1="-0.03262" x2="0.124801" y2="-0.03262" />
      <path d="M 0.122801,-0.03262 A 0.0021,3.3591560598084242e-06 3.8228868042372425e-23 0,1 0.123782,-0.03262" />
      <line x1="0.166201" y1="-0.032613" x2="0.166201" y2="-1.3e-05" />
      <path d="M 0.163201,-0.03262 A 0.004,6.39839249487319e-06 180.0 0,0 0.162201,-0.03262" />
      <line x1="0.1228" y1="-0.03468" x2="0.1228" y2="-0.032613" />
      <path d="M 0.122801,-0.03468 A 0.0021,3.3591560598084242e-06 3.8228868042372425e-23 0,1 0.1228,-0.03468" />
      <path d="M 0.146001,0.001687 A 0.002,3.199196247436595e-06 -7.261542142715284e-23 0,1 0.148001,0.001684" />
      <line x1="0.148001" y1="0.001684" x2="0.164001" y2="0.001684" />
      <path d="M 0.166001,0.001687 A 0.002,3.199196247436595e-06 180.0 0,0 0.164001,0.001684" />
      <line x1="0.166001" y1="0.001687" x2="0.166" y2="0.001713" />
      <path d="M 0.166,0.001713 A 0.002,3.199196247436595e-06 -7.261542142715284e-23 0,1 0.164,0.001716" />
      <line x1="0.148" y1="0.001716" x2="0.151501" y2="0.001716" />
      <line x1="0.160501" y1="0.001716" x2="0.164" y2="0.001716" />
      <path d="M 0.146,0.001713 A 0.002,3.199196247436595e-06 180.0 0,0 0.148,0.001716" />
      <line x1="0.146001" y1="0.001687" x2="0.146" y2="0.001713" />
      <path d="M 0.151501,0.0017 A 0.004500000000000004,7.198191556732344e-06 3.8228868042372425e-23 1,1 0.160501,0.0017" />
      <path d="M 0.160501,0.0032 A 0.004500000000000004,7.198191556732344e-06 3.8228868042372425e-23 0,1 0.151501,0.0032" />
      <path d="M 0.151501,0.0032 A 0.004500000000000004,7.198191556732344e-06 3.8228868042372425e-23 1,1 0.160501,0.0032" />
      <line x1="0.146001" y1="-1.3e-05" x2="0.146001" y2="0.001687" />
      <line x1="0.148001" y1="-1.6e-05" x2="0.148001" y2="0.001684" />
      <line x1="0.164001" y1="-1.6e-05" x2="0.164001" y2="0.001684" />
      <line x1="0.166001" y1="-1.3e-05" x2="0.166001" y2="0.001687" />
      <line x1="0.1208" y1="-0.032587" x2="0.1208" y2="1.3e-05" />
      <line x1="0.166201" y1="-0.032613" x2="0.166201" y2="-1.3e-05" />
      <line x1="0.160501" y1="0.0017" x2="0.160501" y2="0.0032" />
      <line x1="0.151501" y1="0.0017" x2="0.151501" y2="0.0032" />
    </g>
    <g fill="url(#hatch_servo)" stroke="none" stroke-width="0" id="servo_fill">
      <path d="M 0.0618,0.0084 L 0.0618,-0.0084 A 0.004,0.004 -90.0 0,1 0.0658,-0.0124 L 0.1032,-0.0124 A 0.004,0.004 -90.0 0,1 0.1072,-0.0084 L 0.1072,0.0084 A 0.004,0.004 -90.0 0,1 0.1032,0.0124 L 0.0658,0.0124 A 0.004,0.004 -90.0 0,1 0.0618,0.0084" />
    </g>
    <g fill="none" stroke="rgb(60,60,60)" stroke-opacity="0.4" stroke-width="0.00015" id="servo_hidden" stroke-dasharray="0.0018 0.00045">
      <line x1="0.120801" y1="-0.032613" x2="0.1208" y2="-0.032587" />
      <path d="M 0.120801,-0.032586 A 0.004,6.39839249487319e-06 180.0 0,0 0.121119,-0.032584" />
      <path d="M 0.121119,-0.032584 A 0.0021,3.3591560598084242e-06 3.8228868042372425e-23 0,1 0.124194,-0.032587" />
      <line x1="0.124194" y1="-0.032587" x2="0.126006" y2="-0.032587" />
      <path d="M 0.126006,-0.032587 A 0.0021,3.3591560598084242e-06 3.8228868042372425e-23 0,1 0.127994,-0.032587" />
      <line x1="0.127994" y1="-0.032587" x2="0.146706" y2="-0.032587" />
      <path d="M 0.146706,-0.032587 A 0.0021,3.3591560598084242e-06 3.8228868042372425e-23 0,1 0.148694,-0.032587" />
      <line x1="0.148694" y1="-0.032587" x2="0.1632" y2="-0.032587" />
      <line x1="0.1632" y1="-0.032587" x2="0.1632" y2="-0.03258" />
      <path d="M 0.1662,-0.032587 A 0.004,6.39839249487319e-06 -7.261542142715284e-23 0,1 0.1632,-0.03258" />
      <line x1="0.166201" y1="-0.032613" x2="0.1662" y2="-0.032587" />
      <line x1="0.163201" y1="-0.03262" x2="0.163201" y2="-0.032613" />
      <line x1="0.148695" y1="-0.032613" x2="0.163201" y2="-0.032613" />
      <path d="M 0.148695,-0.032613 A 0.0021,3.3591560598084242e-06 3.8228868042372425e-23 0,1 0.146707,-0.032613" />
      <line x1="0.127995" y1="-0.032613" x2="0.146707" y2="-0.032613" />
      <path d="M 0.127995,-0.032613 A 0.0021,3.3591560598084242e-06 3.8228868042372425e-23 0,1 0.126007,-0.032613" />
      <line x1="0.124195" y1="-0.032613" x2="0.126007" y2="-0.032613" />
      <path d="M 0.124195,-0.032613 A 0.0021,3.3591560598084242e-06 3.8228868042372425e-23 0,1 0.123782,-0.032613" />
      <path d="M 0.159001,-0.0326 A 0.0030000000000000027,4.798794371154897e-06 3.8228868042372425e-23 0,1 0.153001,-0.0326" />
      <path d="M 0.153001,-0.0326 A 0.0030000000000000027,4.798794371154897e-06 3.8228868042372425e-23 1,1 0.159001,-0.0326" />
      <line x1="0.1248" y1="2e-05" x2="0.1248" y2="-0.03258" />
      <path d="M 0.123781,-0.03258 A 0.004,6.39839249487319e-06 180.0 0,0 0.1248,-0.03258" />
      <line x1="0.123781" y1="-0.03258" x2="0.123781" y2="-0.02468" />
      <path d="M 0.123781,-0.02468 A 0.004,6.39839249487319e-06 3.8228868042372425e-23 0,1 0.121119,-0.024684" />
      <line x1="0.121119" y1="-0.024716" x2="0.121119" y2="-0.024684" />
      <line x1="0.146001" y1="2e-05" x2="0.1622" y2="2e-05" />
      <path d="M 0.166001,1.5e-05 A 0.004,6.39839249487319e-06 -7.261542142715284e-23 0,1 0.1622,2e-05" />
      <line x1="0.166001" y1="-1.3e-05" x2="0.166" y2="1.3e-05" />
      <path d="M 0.166,1.3e-05 A 0.002,3.199196247436595e-06 -7.261542142715284e-23 0,1 0.164,1.6e-05" />
      <line x1="0.148" y1="1.6e-05" x2="0.164" y2="1.6e-05" />
      <path d="M 0.146001,1.3e-05 A 0.002,3.199196247436595e-06 180.0 0,0 0.148,1.6e-05" />
      <line x1="0.125101" y1="-0.034718" x2="0.125101" y2="-0.024718" />
      <path d="M 0.122801,-0.03472 A 0.0021,3.3591560598084242e-06 3.8228868042372425e-23 0,1 0.125101,-0.034718" />
      <line x1="0.122801" y1="-0.03472" x2="0.122801" y2="-0.03262" />
      <path d="M 0.123782,-0.02472 A 0.0021,3.3591560598084242e-06 3.8228868042372425e-23 0,1 0.125101,-0.024718" />
      <path d="M 0.125101,-0.024715 A 0.0021,3.3591560598084242e-06 180.0 0,0 0.129101,-0.024716" />
      <path d="M 0.129101,-0.024716 A 0.0021,3.3591560598084242e-06 180.0 0,0 0.125101,-0.024718" />
      <path d="M 0.125101,-0.024715 A 0.0021,3.3591560598084242e-06 3.8228868042372425e-23 0,1 0.12112,-0.024716" />
      <line x1="0.124195" y1="-0.034713" x2="0.124195" y2="-0.032613" />
      <path d="M 0.125101,-0.034715 A 0.0021,3.3591560598084242e-06 3.8228868042372425e-23 0,1 0.124195,-0.034713" />
      <line x1="0.125101" y1="-0.034715" x2="0.125101" y2="-0.024715" />
      <line x1="0.1251" y1="-0.034685" x2="0.1251" y2="-0.024685" />
      <path d="M 0.124194,-0.034687 A 0.0021,3.3591560598084242e-06 3.8228868042372425e-23 0,1 0.1251,-0.034685" />
      <line x1="0.124194" y1="-0.034687" x2="0.124194" y2="-0.032587" />
      <path d="M 0.121119,-0.024684 A 0.0021,3.3591560598084242e-06 3.8228868042372425e-23 0,1 0.1251,-0.024685" />
      <line x1="0.124194" y1="-0.034687" x2="0.126006" y2="-0.034687" />
      <line x1="0.126006" y1="-0.034687" x2="0.126006" y2="-0.032587" />
      <path d="M 0.1251,-0.034682 A 0.0021,3.3591560598084242e-06 180.0 0,0 0.1291,-0.034684" />
      <path d="M 0.1291,-0.034684 A 0.0021,3.3591560598084242e-06 180.0 0,0 0.127994,-0.034687" />
      <line x1="0.1251" y1="-0.034682" x2="0.1251" y2="-0.024682" />
      <path d="M 0.1251,-0.024685 A 0.0021,3.359156059808424e-06 -8.600007326385562e-18 0,1 0.1291,-0.024684" />
      <path d="M 0.1291,-0.024684 A 0.0021,3.359156059808424e-06 -8.600007326385562e-18 0,1 0.1251,-0.024682" />
      <path d="M 0.1251,-0.034685 A 0.0021,3.3591560598084242e-06 3.8228868042372425e-23 0,1 0.126006,-0.034687" />
      <line x1="0.127994" y1="-0.034687" x2="0.127994" y2="-0.032587" />
      <line x1="0.127994" y1="-0.034687" x2="0.146706" y2="-0.034687" />
      <line x1="0.146706" y1="-0.034687" x2="0.146706" y2="-0.032587" />
      <path d="M 0.148694,-0.034687 A 0.0021,3.3591560598084242e-06 3.8228868042372425e-23 0,1 0.1498,-0.034684" />
      <line x1="0.148694" y1="-0.034687" x2="0.148694" y2="-0.032587" />
      <path d="M 0.1498,-0.034684 A 0.0021,3.3591560598084242e-06 3.8228868042372425e-23 0,1 0.1456,-0.034684" />
      <path d="M 0.1456,-0.034684 A 0.0021,3.3591560598084242e-06 3.8228868042372425e-23 0,1 0.146706,-0.034687" />
      <path d="M 0.1498,-0.024684 A 0.0021,3.3591560598084242e-06 3.8228868042372425e-23 0,1 0.1456,-0.024684" />
      <path d="M 0.1456,-0.024684 A 0.0021,3.3591560598084242e-06 3.8228868042372425e-23 1,1 0.1498,-0.024684" />
      <line x1="0.148694" y1="-0.034687" x2="0.1632" y2="-0.034687" />
      <line x1="0.1632" y1="-0.034687" x2="0.1632" y2="-0.032587" />
      <line x1="0.1632" y1="-0.03468" x2="0.1632" y2="-0.03258" />
      <line x1="0.1632" y1="-0.034687" x2="0.1632" y2="-0.03468" />
      <line x1="0.1622" y1="2e-05" x2="0.1622" y2="-0.03258" />
      <line x1="0.1662" y1="1.3e-05" x2="0.1662" y2="-0.032587" />
      <path d="M 0.1632,-0.03258 A 0.004,6.39839249487319e-06 -7.261542142715284e-23 0,1 0.1622,-0.03258" />
      <line x1="0.163201" y1="-0.034713" x2="0.163201" y2="-0.032613" />
      <line x1="0.163201" y1="-0.03472" x2="0.163201" y2="-0.034713" />
      <line x1="0.148695" y1="-0.034713" x2="0.163201" y2="-0.034713" />
      <line x1="0.148695" y1="-0.034713" x2="0.148695" y2="-0.032613" />
      <path d="M 0.146707,-0.034713 A 0.0021,3.3591560598084242e-06 3.8228868042372425e-23 0,1 0.145601,-0.034716" />
      <path d="M 0.145601,-0.034716 A 0.0021,3.3591560598084242e-06 3.8228868042372425e-23 1,1 0.149801,-0.034716" />
      <line x1="0.146707" y1="-0.034713" x2="0.146707" y2="-0.032613" />
      <path d="M 0.149801,-0.034716 A 0.0021,3.3591560598084242e-06 3.8228868042372425e-23 0,1 0.148695,-0.034713" />
      <path d="M 0.149801,-0.024716 A 0.0021,3.3591560598084242e-06 3.8228868042372425e-23 0,1 0.145601,-0.024716" />
      <path d="M 0.145601,-0.024716 A 0.0021,3.3591560598084242e-06 3.8228868042372425e-23 1,1 0.149801,-0.024716" />
      <line x1="0.127995" y1="-0.034713" x2="0.146707" y2="-0.034713" />
      <line x1="0.127995" y1="-0.034713" x2="0.127995" y2="-0.032613" />
      <path d="M 0.127995,-0.034713 A 0.0021,3.359156059808424e-06 -180.0 0,0 0.129101,-0.034716" />
      <path d="M 0.129101,-0.034716 A 0.0021,3.359156059808424e-06 -180.0 0,0 0.125101,-0.034718" />
      <line x1="0.126007" y1="-0.034713" x2="0.126007" y2="-0.032613" />
      <path d="M 0.126007,-0.034713 A 0.0021,3.3591560598084242e-06 3.8228868042372425e-23 0,1 0.125101,-0.034715" />
      <line x1="0.124195" y1="-0.034713" x2="0.126007" y2="-0.034713" />
      <path d="M 0.159001,-0.0339 A 0.0030000000000000027,4.798794371154897e-06 3.8228868042372425e-23 0,1 0.153001,-0.0339" />
      <path d="M 0.153001,-0.0339 A 0.0030000000000000027,4.798794371154897e-06 3.8228868042372425e-23 1,1 0.159001,-0.0339" />
      <line x1="0.1622" y1="-0.03258" x2="0.1632" y2="-0.03258" />
      <line x1="0.1228" y1="-0.03468" x2="0.1632" y2="-0.03468" />
      <line x1="0.1228" y1="-0.03468" x2="0.1228" y2="-0.03258" />
      <line x1="0.1228" y1="-0.03258" x2="0.1248" y2="-0.03258" />
      <path d="M 0.123781,-0.03258 A 0.0021,3.3591560598084242e-06 3.8228868042372425e-23 0,1 0.1228,-0.03258" />
      <path d="M 0.1251,-0.024682 A 0.0021,3.3591560598084242e-06 3.8228868042372425e-23 0,1 0.123781,-0.02468" />
      <line x1="0.1228" y1="-0.032613" x2="0.1228" y2="-0.03258" />
      <path d="M 0.1251,-0.034682 A 0.0021,3.3591560598084242e-06 3.8228868042372425e-23 0,1 0.122801,-0.03468" />
      <line x1="0.151501" y1="0.001716" x2="0.160501" y2="0.001716" />
      <path d="M 0.160501,0.0017 A 0.004500000000000004,7.198191556732344e-06 3.8228868042372425e-23 0,1 0.151501,0.0017" />
      <line x1="0.1291" y1="-0.034684" x2="0.1291" y2="-0.024684" />
      <line x1="0.1498" y1="-0.034684" x2="0.1498" y2="-0.024684" />
      <line x1="0.1456" y1="-0.034684" x2="0.1456" y2="-0.024684" />
      <line x1="0.149801" y1="-0.034716" x2="0.149801" y2="-0.024716" />
      <line x1="0.145601" y1="-0.034716" x2="0.145601" y2="-0.024716" />
      <line x1="0.129101" y1="-0.034716" x2="0.129101" y2="-0.024716" />
      <line x1="0.159001" y1="-0.0339" x2="0.159001" y2="-0.0326" />
      <line x1="0.153001" y1="-0.0339" x2="0.153001" y2="-0.0326" />
      <line x1="0.166" y1="1.3e-05" x2="0.166" y2="0.001713" />
      <line x1="0.164" y1="1.6e-05" x2="0.164" y2="0.001716" />
      <line x1="0.148" y1="1.6e-05" x2="0.148" y2="0.001716" />
      <line x1="0.146" y1="1.3e-05" x2="0.146" y2="0.001713" />
    </g>
    <g fill="none" stroke="rgb(50,120,190)" stroke-width="0.00035" id="bracket">
      <line x1="0.0" y1="0.0152" x2="0.051" y2="0.0152" />
      <line x1="0.051" y1="0.0152" x2="0.051" y2="-0.0152" />
      <line x1="0.0" y1="-0.0152" x2="0.051" y2="-0.0152" />
      <line x1="0.0" y1="0.0152" x2="0.0" y2="-0.0152" />
      <line x1="0.0025" y1="0.0127" x2="0.0025" y2="-0.0127" />
      <line x1="0.0025" y1="-0.0127" x2="0.0485" y2="-0.0127" />
      <line x1="0.0485" y1="0.0127" x2="0.0485" y2="-0.0127" />
      <line x1="0.0025" y1="0.0127" x2="0.0485" y2="0.0127" />
      <line x1="0.059" y1="0.0152" x2="0.11" y2="0.0152" />
      <line x1="0.11" y1="0.0152" x2="0.11" y2="-0.0152" />
      <line x1="0.059" y1="-0.0152" x2="0.11" y2="-0.0152" />
      <line x1="0.059" y1="0.0152" x2="0.059" y2="-0.0152" />
      <line x1="0.0615" y1="0.0127" x2="0.0615" y2="-0.0127" />
      <line x1="0.0615" y1="-0.0127" x2="0.1075" y2="-0.0127" />
      <line x1="0.1075" y1="0.0127" x2="0.1075" y2="-0.0127" />
      <line x1="0.0615" y1="0.0127" x2="0.1075" y2="0.0127" />
      <line x1="0.118001" y1="-0.022104" x2="0.118001" y2="0.021496" />
      <line x1="0.118001" y1="0.021496" x2="0.118" y2="0.021504" />
      <line x1="0.118" y1="-0.018899" x2="0.118001" y2="-0.018901" />
      <line x1="0.118" y1="-0.018899" x2="0.118" y2="-0.012899" />
      <line x1="0.118001" y1="-0.022104" x2="0.169001" y2="-0.022104" />
      <line x1="0.169001" y1="-0.022104" x2="0.169001" y2="0.021496" />
      <line x1="0.118001" y1="0.021496" x2="0.169001" y2="0.021496" />
      <line x1="0.118" y1="0.021504" x2="0.169" y2="0.021504" />
      <line x1="0.169001" y1="0.021496" x2="0.169" y2="0.021504" />
    </g>
    <g fill="url(#hatch_bracket)" stroke="none" stroke-width="0" id="bracket_fill">
      <path d="M 0.051,0.0152 L 0.0,0.0152 L 0.0,-0.0152 L 0.051,-0.0152 L 0.051,0.0152 M 0.0025,-0.0127 L 0.0025,0.0127 L 0.0485,0.0127 L 0.0485,-0.0127 L 0.0025,-0.0127" />
      <path d="M 0.11,0.0152 L 0.059,0.0152 L 0.059,-0.0152 L 0.11,-0.0152 L 0.11,0.0152 M 0.0615,-0.0127 L 0.0615,0.0127 L 0.1075,0.0127 L 0.1075,-0.0127 L 0.0615,-0.0127" />
    </g>
    <g fill="none" stroke="rgb(50,120,190)" stroke-opacity="0.4" stroke-width="0.00015" id="bracket_hidden" stroke-dasharray="0.0018 0.00045">
      <line x1="0.118001" y1="-0.022104" x2="0.118" y2="-0.022096" />
      <line x1="0.118" y1="-0.022096" x2="0.118" y2="0.021504" />
      <line x1="0.118" y1="-0.012899" x2="0.118001" y2="-0.012901" />
      <line x1="0.118001" y1="-0.018901" x2="0.118001" y2="-0.012901" />
      <line x1="0.169001" y1="-0.022104" x2="0.169" y2="-0.022096" />
      <line x1="0.118" y1="-0.022096" x2="0.169" y2="-0.022096" />
      <path d="M 0.125101,-0.022103 A 0.0021,6.179756173426369e-07 6.703931004703628e-24 0,1 0.121101,-0.022103" />
      <path d="M 0.121101,-0.022103 A 0.0021,6.179756173426369e-07 6.703931004703628e-24 0,1 0.125101,-0.022103" />
      <path d="M 0.125101,-0.022103 A 0.0021,6.179756173426369e-07 5.535513223642168e-19 0,1 0.129101,-0.022103" />
      <path d="M 0.129101,-0.022103 A 0.0021,6.179756173426369e-07 5.535513223642168e-19 0,1 0.125101,-0.022103" />
      <path d="M 0.149801,-0.022103 A 0.0021,6.179756173426369e-07 6.703931004703628e-24 0,1 0.145601,-0.022103" />
      <path d="M 0.145601,-0.022103 A 0.0021,6.179756173426369e-07 6.703931004703628e-24 1,1 0.149801,-0.022103" />
      <path d="M 0.1251,-0.022097 A 0.0021,6.179756173426369e-07 6.703931004703628e-24 0,1 0.1211,-0.022097" />
      <path d="M 0.1211,-0.022097 A 0.0021,6.179756173426369e-07 6.703931004703628e-24 0,1 0.1251,-0.022097" />
      <path d="M 0.1251,-0.022097 A 0.0021,6.179756173426369e-07 5.535513223642168e-19 0,1 0.1291,-0.022097" />
      <path d="M 0.1291,-0.022097 A 0.0021,6.179756173426369e-07 5.535513223642168e-19 0,1 0.1251,-0.022097" />
      <path d="M 0.1498,-0.022097 A 0.0021,6.179756173426369e-07 6.703931004703628e-24 0,1 0.1456,-0.022097" />
      <path d="M 0.1456,-0.022097 A 0.0021,6.179756173426369e-07 6.703931004703628e-24 1,1 0.1498,-0.022097" />
      <line x1="0.169" y1="-0.022096" x2="0.169" y2="0.021504" />
      <line x1="0.118001" y1="-0.018899" x2="0.1218" y2="-0.018899" />
      <line x1="0.121801" y1="-0.018901" x2="0.1218" y2="-0.018899" />
      <line x1="0.118001" y1="-0.018901" x2="0.121801" y2="-0.018901" />
      <line x1="0.1218" y1="-0.018899" x2="0.1218" y2="-0.016199" />
      <line x1="0.1218" y1="-0.016199" x2="0.1205" y2="-0.016199" />
      <line x1="0.1205" y1="-0.016199" x2="0.1205" y2="-0.012899" />
      <line x1="0.118001" y1="-0.012899" x2="0.1205" y2="-0.012899" />
      <line x1="0.1205" y1="-0.012899" x2="0.120501" y2="-0.012901" />
      <line x1="0.118001" y1="-0.012901" x2="0.120501" y2="-0.012901" />
      <line x1="0.121801" y1="-0.018901" x2="0.121801" y2="-0.016201" />
      <line x1="0.121801" y1="-0.016201" x2="0.120501" y2="-0.016201" />
      <line x1="0.120501" y1="-0.016201" x2="0.120501" y2="-0.012901" />
      <line x1="0.125101" y1="-0.022103" x2="0.125101" y2="-0.016203" />
      <path d="M 0.125101,-0.016203 A 0.0021,6.179756173426369e-07 6.703931004703628e-24 0,1 0.121101,-0.016203" />
      <path d="M 0.121101,-0.016203 A 0.0021,6.179756173426369e-07 6.703931004703628e-24 0,1 0.125101,-0.016203" />
      <line x1="0.125101" y1="-0.022103" x2="0.125101" y2="-0.016203" />
      <path d="M 0.125101,-0.016203 A 0.0021,6.179756173426369e-07 5.535513223642168e-19 0,1 0.129101,-0.016203" />
      <path d="M 0.129101,-0.016203 A 0.0021,6.179756173426369e-07 5.535513223642168e-19 0,1 0.125101,-0.016203" />
      <path d="M 0.149801,-0.016203 A 0.0021,6.179756173426369e-07 6.703931004703628e-24 0,1 0.145601,-0.016203" />
      <path d="M 0.145601,-0.016203 A 0.0021,6.179756173426369e-07 6.703931004703628e-24 1,1 0.149801,-0.016203" />
      <line x1="0.1251" y1="-0.022097" x2="0.1251" y2="-0.016197" />
      <path d="M 0.1251,-0.016197 A 0.0021,6.179756173426369e-07 6.703931004703628e-24 0,1 0.1211,-0.016197" />
      <path d="M 0.1211,-0.016197 A 0.0021,6.179756173426369e-07 6.703931004703628e-24 0,1 0.1251,-0.016197" />
      <line x1="0.1251" y1="-0.022097" x2="0.1251" y2="-0.016197" />
      <path d="M 0.1251,-0.016197 A 0.0021,6.179756173426369e-07 5.535513223642168e-19 0,1 0.1291,-0.016197" />
      <path d="M 0.1291,-0.016197 A 0.0021,6.179756173426369e-07 5.535513223642168e-19 0,1 0.1251,-0.016197" />
      <path d="M 0.1498,-0.016197 A 0.0021,6.179756173426369e-07 6.703931004703628e-24 0,1 0.1456,-0.016197" />
      <path d="M 0.1456,-0.016197 A 0.0021,6.179756173426369e-07 6.703931004703628e-24 1,1 0.1498,-0.016197" />
      <line x1="0.121801" y1="-0.016201" x2="0.1218" y2="-0.016199" />
      <line x1="0.120501" y1="-0.016204" x2="0.120501" y2="-0.016201" />
      <line x1="0.1205" y1="-0.016199" x2="0.1205" y2="-0.016196" />
      <line x1="0.1205" y1="-0.016196" x2="0.1665" y2="-0.016196" />
      <line x1="0.166501" y1="-0.016204" x2="0.1665" y2="-0.016196" />
      <line x1="0.120501" y1="-0.016204" x2="0.166501" y2="-0.016204" />
      <line x1="0.120501" y1="0.019396" x2="0.1205" y2="0.019404" />
      <line x1="0.1205" y1="-0.016196" x2="0.1205" y2="0.019404" />
      <line x1="0.120501" y1="-0.016204" x2="0.120501" y2="0.019396" />
      <line x1="0.1665" y1="-0.016196" x2="0.1665" y2="0.019404" />
      <line x1="0.1205" y1="0.019404" x2="0.1665" y2="0.019404" />
      <line x1="0.166501" y1="-0.016204" x2="0.166501" y2="0.019396" />
      <line x1="0.166501" y1="0.019396" x2="0.1665" y2="0.019404" />
      <line x1="0.120501" y1="0.019396" x2="0.166501" y2="0.019396" />
      <line x1="0.121101" y1="-0.022103" x2="0.121101" y2="-0.016203" />
      <line x1="0.129101" y1="-0.022103" x2="0.129101" y2="-0.016203" />
      <line x1="0.145601" y1="-0.022103" x2="0.145601" y2="-0.016203" />
      <line x1="0.1211" y1="-0.022097" x2="0.1211" y2="-0.016197" />
      <line x1="0.1291" y1="-0.022097" x2="0.1291" y2="-0.016197" />
      <line x1="0.1456" y1="-0.022097" x2="0.1456" y2="-0.016197" />
    </g>
  </g>
  <text x="0.025500" y="-0.027179" text-anchor="middle" font-family="'Input Sans Narrow', 'DejaVu Sans', Arial, sans-serif" font-size="0.002500" font-weight="bold" fill="#333">A-A</text>
  <text x="0.025500" y="-0.023679" text-anchor="middle" font-family="'Input Sans Narrow', 'DejaVu Sans', Arial, sans-serif" font-size="0.001800" fill="#888">shaft_face</text>
  <line x1="0.000000" y1="0.016000" x2="0.000000" y2="0.019000" stroke="#555" stroke-width="0.000140" stroke-opacity="0.5"/>
  <line x1="0.051000" y1="0.016000" x2="0.051000" y2="0.019000" stroke="#555" stroke-width="0.000140" stroke-opacity="0.5"/>
  <line x1="0.000000" y1="0.017400" x2="0.000000" y2="0.019000" stroke="#555" stroke-width="0.000200"/>
  <line x1="0.051000" y1="0.017400" x2="0.051000" y2="0.019000" stroke="#555" stroke-width="0.000200"/>
  <line x1="0.000000" y1="0.018200" x2="0.051000" y2="0.018200" stroke="#555" stroke-width="0.000200"/>
  <polygon points="0.000000,0.018200 0.001500,0.017600 0.001500,0.018800" fill="#555"/>
  <polygon points="0.051000,0.018200 0.049500,0.017600 0.049500,0.018800" fill="#555"/>
  <text x="0.025500" y="0.017000" text-anchor="middle" font-family="'Input Sans Narrow', 'DejaVu Sans', Arial, sans-serif" font-size="0.001600" fill="#555">51.0</text>
  <line x1="0.051800" y1="-0.015200" x2="0.054800" y2="-0.015200" stroke="#555" stroke-width="0.000140" stroke-opacity="0.5"/>
  <line x1="0.051800" y1="0.015200" x2="0.054800" y2="0.015200" stroke="#555" stroke-width="0.000140" stroke-opacity="0.5"/>
  <line x1="0.053200" y1="-0.015200" x2="0.054800" y2="-0.015200" stroke="#555" stroke-width="0.000200"/>
  <line x1="0.053200" y1="0.015200" x2="0.054800" y2="0.015200" stroke="#555" stroke-width="0.000200"/>
  <line x1="0.054000" y1="-0.015200" x2="0.054000" y2="0.015200" stroke="#555" stroke-width="0.000200"/>
  <polygon points="0.054000,-0.015200 0.053400,-0.013700 0.054600,-0.013700" fill="#555"/>
  <polygon points="0.054000,0.015200 0.053400,0.013700 0.054600,0.013700" fill="#555"/>
  <text x="0.055500" y="-0.000000" text-anchor="middle" dominant-baseline="central" font-family="'Input Sans Narrow', 'DejaVu Sans', Arial, sans-serif" font-size="0.001600" fill="#555" transform="rotate(-90 0.055500 -0.000000)">30.4</text>
  <text x="0.084500" y="-0.027179" text-anchor="middle" font-family="'Input Sans Narrow', 'DejaVu Sans', Arial, sans-serif" font-size="0.002500" font-weight="bold" fill="#333">B-B</text>
  <text x="0.084500" y="-0.023679" text-anchor="middle" font-family="'Input Sans Narrow', 'DejaVu Sans', Arial, sans-serif" font-size="0.001800" fill="#888">mid_body</text>
  <text x="0.143501" y="-0.027179" text-anchor="middle" font-family="'Input Sans Narrow', 'DejaVu Sans', Arial, sans-serif" font-size="0.002500" font-weight="bold" fill="#333">side_XZ</text>
  <line x1="0.118000" y1="0.035520" x2="0.118000" y2="0.038520" stroke="#555" stroke-width="0.000140" stroke-opacity="0.5"/>
  <line x1="0.169001" y1="0.035520" x2="0.169001" y2="0.038520" stroke="#555" stroke-width="0.000140" stroke-opacity="0.5"/>
  <line x1="0.118000" y1="0.036920" x2="0.118000" y2="0.038520" stroke="#555" stroke-width="0.000200"/>
  <line x1="0.169001" y1="0.036920" x2="0.169001" y2="0.038520" stroke="#555" stroke-width="0.000200"/>
  <line x1="0.118000" y1="0.037720" x2="0.169001" y2="0.037720" stroke="#555" stroke-width="0.000200"/>
  <polygon points="0.118000,0.037720 0.119500,0.037120 0.119500,0.038320" fill="#555"/>
  <polygon points="0.169001,0.037720 0.167501,0.037120 0.167501,0.038320" fill="#555"/>
  <text x="0.143501" y="0.036520" text-anchor="middle" font-family="'Input Sans Narrow', 'DejaVu Sans', Arial, sans-serif" font-size="0.001600" fill="#555">51.0</text>
  <line x1="0.169801" y1="-0.021504" x2="0.172801" y2="-0.021504" stroke="#555" stroke-width="0.000140" stroke-opacity="0.5"/>
  <line x1="0.169801" y1="0.034720" x2="0.172801" y2="0.034720" stroke="#555" stroke-width="0.000140" stroke-opacity="0.5"/>
  <line x1="0.171201" y1="-0.021504" x2="0.172801" y2="-0.021504" stroke="#555" stroke-width="0.000200"/>
  <line x1="0.171201" y1="0.034720" x2="0.172801" y2="0.034720" stroke="#555" stroke-width="0.000200"/>
  <line x1="0.172001" y1="-0.021504" x2="0.172001" y2="0.034720" stroke="#555" stroke-width="0.000200"/>
  <polygon points="0.172001,-0.021504 0.171401,-0.020004 0.172601,-0.020004" fill="#555"/>
  <polygon points="0.172001,0.034720 0.171401,0.033220 0.172601,0.033220" fill="#555"/>
  <text x="0.173501" y="0.006608" text-anchor="middle" dominant-baseline="central" font-family="'Input Sans Narrow', 'DejaVu Sans', Arial, sans-serif" font-size="0.001600" fill="#555" transform="rotate(-90 0.173501 0.006608)">56.2</text>
  <line x1="0.115000" y1="-0.015900" x2="0.172001" y2="-0.015900" stroke="#555" stroke-width="0.000250" stroke-dasharray="0.002500,0.000800,0.000500,0.000800"/>
  <text x="0.113500" y="-0.015300" text-anchor="end" font-family="'Input Sans Narrow', 'DejaVu Sans', Arial, sans-serif" font-size="0.002000" font-weight="bold" fill="#555">A</text>
  <text x="0.173501" y="-0.015300" text-anchor="start" font-family="'Input Sans Narrow', 'DejaVu Sans', Arial, sans-serif" font-size="0.002000" font-weight="bold" fill="#555">A</text>
  <line x1="0.115000" y1="-0.000000" x2="0.172001" y2="-0.000000" stroke="#555" stroke-width="0.000250" stroke-dasharray="0.002500,0.000800,0.000500,0.000800"/>
  <text x="0.113500" y="0.000600" text-anchor="end" font-family="'Input Sans Narrow', 'DejaVu Sans', Arial, sans-serif" font-size="0.002000" font-weight="bold" fill="#555">B</text>
  <text x="0.173501" y="0.000600" text-anchor="start" font-family="'Input Sans Narrow', 'DejaVu Sans', Arial, sans-serif" font-size="0.002000" font-weight="bold" fill="#555">B</text>
  <text x="-0.001175" y="0.042895" font-family="'Input Sans Narrow', 'DejaVu Sans', Arial, sans-serif" font-size="0.003500" font-weight="bold" fill="#222">joint_wrist</text>
  <line x1="-0.001175" y1="0.046895" x2="0.008825" y2="0.046895" stroke="#333" stroke-width="0.000350"/>
  <line x1="-0.001175" y1="0.045895" x2="-0.001175" y2="0.047895" stroke="#333" stroke-width="0.000250"/>
  <line x1="0.008825" y1="0.045895" x2="0.008825" y2="0.047895" stroke="#333" stroke-width="0.000250"/>
  <text x="0.010325" y="0.047595" font-family="'Input Sans Narrow', 'DejaVu Sans', Arial, sans-serif" font-size="0.001800" fill="#888">10 mm</text>
  <rect x="0.028825" y="0.040395" width="0.004000" height="0.002500" fill="url(#hatch_servo)" stroke="rgb(60,60,60)" stroke-width="0.000300"/>
  <text x="0.034325" y="0.042395" font-family="'Input Sans Narrow', 'DejaVu Sans', Arial, sans-serif" font-size="0.001800" fill="rgb(60,60,60)">servo</text>
  <rect x="0.028825" y="0.043895" width="0.004000" height="0.002500" fill="url(#hatch_bracket)" stroke="rgb(50,120,190)" stroke-width="0.000300"/>
  <text x="0.034325" y="0.045895" font-family="'Input Sans Narrow', 'DejaVu Sans', Arial, sans-serif" font-size="0.001800" fill="rgb(50,120,190)">bracket</text>
</svg>