<?xml version='1.0' encoding='utf-8'?>
<svg width="296.52mm" height="91.25mm" viewBox="-0.003175 -0.052679 0.296515 0.091254" version="1.1" xmlns="http://www.w3.org/2000/svg">
  <defs>
    <pattern id="hatch_servo" width="0.0012" height="0.0012" patternUnits="userSpaceOnUse" patternTransform="rotate(45)">
      <line x1="0" y1="0" x2="0" y2="0.0012" stroke="rgb(60,60,60)" stroke-width="0.0001" stroke-opacity="0.6"/>
    </pattern>
    <pattern id="hatch_bracket" width="0.0012" height="0.0012" patternUnits="userSpaceOnUse" patternTransform="rotate(75)">
      <line x1="0" y1="0" x2="0" y2="0.0012" stroke="rgb(50,120,190)" stroke-width="0.0001" stroke-opacity="0.6"/>
    </pattern>
  </defs>
  <g transform="scale(1,-1)" stroke-linecap="round">
    <g fill="none" stroke="rgb(60,60,60)" stroke-width="0.00035" id="servo">
      <line x1="0.0" y1="-0.0084" x2="0.0" y2="0.0084" />
      <path d="M 0.0,-0.0084 A 0.004,0.004 -90.0 0,1 0.004,-0.0124" />
      <line x1="0.004" y1="-0.0124" x2="0.0414" y2="-0.0124" />
      <path d="M 0.0454,-0.0084 A 0.004,0.004 -90.0 0,0 0.0414,-0.0124" />
      <line x1="0.0454" y1="-0.0084" x2="0.0454" y2="0.0084" />
      <path d="M 0.0454,0.0084 A 0.004,0.004 -90.0 0,1 0.0414,0.0124" />
      <line x1="0.004" y1="0.0124" x2="0.0414" y2="0.0124" />
      <path d="M 0.0,0.0084 A 0.004,0.004 -90.0 0,0 0.004,0.0124" />
      <path d="M 0.1007,0.0124 A 0.004,0.004 180.0 0,1 0.0967,0.0084" />
      <line x1="0.1007" y1="0.0124" x2="0.1381" y2="0.0124" />
      <path d="M 0.1421,0.0084 A 0.004,0.004 0.0 0,1 0.1381,0.0124" />
      <line x1="0.1421" y1="0.0084" x2="0.1421" y2="-0.0084" />
      <path d="M 0.1381,-0.0124 A 0.004,0.004 0.0 0,1 0.1421,-0.0084" />
      <line x1="0.1007" y1="-0.0124" x2="0.1381" y2="-0.0124" />
      <path d="M 0.0967,-0.0084 A 0.004,0.004 180.0 0,1 0.1007,-0.0124" />
      <line x1="0.0967" y1="0.0084" x2="0.0967" y2="-0.0084" />
      <line x1="0.1934" y1="-0.0163" x2="0.1934" y2="0.0163" />
      <line x1="0.1934" y1="0.0163" x2="0.1934" y2="-0.0163" />
      <path d="M 0.1934,0.0163 A 0.004,7.964046740044567e-08 -3.901348164522844e-24 0,0 0.197401,0.0163" />
      <path d="M 0.1934,-0.0163 A 0.004,7.964046740044567e-08 -3.901348164522844e-24 0,0 0.195401,-0.0163" />
      <line x1="0.197401" y1="-0.0163" x2="0.197401" y2="0.0163" />
      <path d="M 0.1934,-0.0163 A 0.004,7.964046740044567e-08 180.0 0,1 0.1954,-0.0163" />
      <path d="M 0.2388,-0.0163 A 0.004,7.964046740044567e-08 180.0 0,1 0.235801,-0.0163" />
      <line x1="0.197401" y1="0.0163" x2="0.234801" y2="0.0163" />
      <path d="M 0.2388,0.0163 A 0.004,7.964046740044567e-08 180.0 0,1 0.234801,0.0163" />
      <line x1="0.234801" y1="0.0163" x2="0.2366" y2="0.0163" />
      <line x1="0.195401" y1="-0.0163" x2="0.197401" y2="-0.0163" />
      <line x1="0.234801" y1="-0.0163" x2="0.234801" y2="0.0163" />
      <line x1="0.234801" y1="-0.0163" x2="0.235801" y2="-0.0163" />
      <line x1="0.235801" y1="-0.0184" x2="0.235801" y2="-0.0163" />
      <line x1="0.195401" y1="-0.0184" x2="0.235801" y2="-0.0184" />
      <line x1="0.195401" y1="-0.0184" x2="0.195401" y2="-0.0163" />
      <line x1="0.1954" y1="-0.0184" x2="0.1954" y2="-0.0163" />
      <line x1="0.1954" y1="-0.0184" x2="0.2358" y2="-0.0184" />
      <line x1="0.2388" y1="-0.0163" x2="0.2388" y2="0.0163" />
      <path d="M 0.2186,0.018 A 0.002,3.9820233700222834e-08 -3.901348164522844e-24 0,0 0.2206,0.018" />
      <line x1="0.2206" y1="0.018" x2="0.2366" y2="0.018" />
      <path d="M 0.2386,0.018 A 0.002,3.9820233700222834e-08 180.0 0,1 0.2366,0.018" />
      <path d="M 0.2007,-0.0184 A 0.0016,3.185618696017826e-08 -3.1156113220371268e-24 0,0 0.1975,-0.0184" />
      <path d="M 0.1975,-0.0184 A 0.0016,3.185618696017826e-08 -3.1156113220371268e-24 1,0 0.2007,-0.0184" />
      <path d="M 0.2177,-0.0184 A 0.0016000000000000044,3.185618696017835e-08 -3.1156113220371268e-24 0,0 0.2145,-0.0184" />
      <path d="M 0.2145,-0.0184 A 0.0016000000000000044,3.185618696017835e-08 -3.1156113220371268e-24 1,0 0.2177,-0.0184" />
      <path d="M 0.2347,-0.0184 A 0.0016,3.185618696017826e-08 -3.1156113220371268e-24 0,0 0.2315,-0.0184" />
      <path d="M 0.2315,-0.0184 A 0.0016,3.185618696017826e-08 -3.1156113220371268e-24 1,0 0.2347,-0.0184" />
      <path d="M 0.2007,-0.0184 A 0.0016,3.185618696017826e-08 -3.1156113220371268e-24 0,0 0.1975,-0.0184" />
      <path d="M 0.1975,-0.0184 A 0.0016,3.185618696017826e-08 -3.1156113220371268e-24 1,0 0.2007,-0.0184" />
      <path d="M 0.2177,-0.0184 A 0.0016000000000000044,3.185618696017835e-08 -3.1156113220371268e-24 0,0 0.2145,-0.0184" />
      <path d="M 0.2145,-0.0184 A 0.0016000000000000044,3.185618696017835e-08 -3.1156113220371268e-24 1,0 0.2177,-0.0184" />
      <path d="M 0.2347,-0.0184 A 0.0016,3.185618696017826e-08 -3.1156113220371268e-24 0,0 0.2315,-0.0184" />
      <path d="M 0.2315,-0.0184 A 0.0016,3.185618696017826e-08 -3.1156113220371268e-24 1,0 0.2347,-0.0184" />
      <path d="M 0.2241,0.0195 A 0.004500000000000004,8.959552582550142e-08 -3.1156113220371268e-24 0,0 0.2331,0.0195" />
      <line x1="0.2186" y1="0.0163" x2="0.2186" y2="0.018" />
      <line x1="0.2206" y1="0.0163" x2="0.2206" y2="0.018" />
      <line x1="0.2366" y1="0.0163" x2="0.2366" y2="0.018" />
      <line x1="0.2386" y1="0.0163" x2="0.2386" y2="0.018" />
      <line x1="0.1934" y1="-0.0163" x2="0.1934" y2="0.0163" />
      <line x1="0.2388" y1="-0.0163" x2="0.2388" y2="0.0163" />
      <line x1="0.2331" y1="0.018" x2="0.2331" y2="0.0195" />
      <line x1="0.2241" y1="0.018" x2="0.2241" y2="0.0195" />
    </g>
    <g fill="url(#hatch_servo)" stroke="none" stroke-width="0" id="servo_fill">
      <path d="M 0.0,0.0084 L 0.0,-0.0084 A 0.004,0.004 -90.0 0,1 0.004,-0.0124 L 0.0414,-0.0124 A 0.004,0.004 -90.0 0,1 0.0454,-0.0084 L 0.0454,0.0084 A 0.004,0.004 -90.0 0,1 0.0414,0.0124 L 0.004,0.0124 A 0.004,0.004 -90.0 0,1 0.0,0.0084" />
      <path d="M 0.1007,0.0124 A 0.004,0.004 180.0 0,1 0.0967,0.0084 L 0.0967,-0.0084 A 0.004,0.004 180.0 0,1 0.1007,-0.0124 L 0.1381,-0.0124 A 0.004,0.004 0.0 0,1 0.1421,-0.0084 L 0.1421,0.0084 A 0.004,0.004 0.0 0,1 0.1381,0.0124 L 0.1007,0.0124" />
    </g>
    <g fill="none" stroke="rgb(60,60,60)" stroke-opacity="0.4" stroke-width="0.00015" id="servo_hidden" stroke-dasharray="0.0018 0.00045">
      <path d="M 0.195401,-0.0163 A 0.004,7.964046740044567e-08 -3.901348164522844e-24 0,0 0.197401,-0.0163" />
      <line x1="0.1954" y1="-0.0163" x2="0.2358" y2="-0.0163" />
      <line x1="0.195401" y1="-0.0163" x2="0.2358" y2="-0.0163" />
      <path d="M 0.2388,-0.0163 A 0.004,7.964046740044567e-08 -3.901348164522844e-24 0,0 0.2358,-0.0163" />
      <path d="M 0.2316,-0.0163 A 0.0030000000000000027,5.973035055033429e-08 -3.1156113220371268e-24 0,0 0.2256,-0.0163" />
      <path d="M 0.2256,-0.0163 A 0.0030000000000000027,5.973035055033429e-08 -3.1156113220371268e-24 1,0 0.2316,-0.0163" />
      <line x1="0.1974" y1="0.0163" x2="0.1974" y2="-0.0163" />
      <path d="M 0.1934,0.0163 A 0.004,7.964046740044567e-08 180.0 0,1 0.1974,0.0163" />
      <path d="M 0.1954,-0.0163 A 0.004,7.964046740044567e-08 180.0 0,1 0.1974,-0.0163" />
      <line x1="0.1974" y1="0.0163" x2="0.2348" y2="0.0163" />
      <path d="M 0.2388,0.0163 A 0.004,7.964046740044567e-08 -3.901348164522844e-24 0,0 0.2348,0.0163" />
      <path d="M 0.2186,0.0163 A 0.002,3.9820233700222834e-08 -3.901348164522844e-24 0,0 0.2206,0.0163" />
      <line x1="0.2206" y1="0.0163" x2="0.234801" y2="0.0163" />
      <path d="M 0.2386,0.0163 A 0.002,3.9820233700222834e-08 180.0 0,1 0.2366,0.0163" />
      <path d="M 0.2386,0.0163 A 0.002,3.9820233700222834e-08 -3.901348164522844e-24 0,0 0.2366,0.0163" />
      <line x1="0.2206" y1="0.0163" x2="0.2366" y2="0.0163" />
      <path d="M 0.2186,0.0163 A 0.002,3.9820233700222834e-08 180.0 0,1 0.2206,0.0163" />
      <line x1="0.1954" y1="-0.0184" x2="0.1954" y2="-0.0163" />
      <line x1="0.1954" y1="-0.0184" x2="0.1954" y2="-0.0163" />
      <line x1="0.1954" y1="-0.0184" x2="0.2358" y2="-0.0184" />
      <line x1="0.2358" y1="-0.0184" x2="0.2358" y2="-0.0163" />
      <line x1="0.2358" y1="-0.0184" x2="0.2358" y2="-0.0163" />
      <line x1="0.2358" y1="-0.0184" x2="0.2358" y2="-0.0163" />
      <path d="M 0.235801,-0.0163 A 0.004,7.964046740044567e-08 180.0 0,1 0.234801,-0.0163" />
      <line x1="0.2348" y1="0.0163" x2="0.2348" y2="-0.0163" />
      <line x1="0.2388" y1="0.0163" x2="0.2388" y2="-0.0163" />
      <path d="M 0.2358,-0.0163 A 0.004,7.964046740044567e-08 -3.901348164522844e-24 0,0 0.2348,-0.0163" />
      <path d="M 0.2316,-0.0176 A 0.0030000000000000027,5.973035055033429e-08 -3.1156113220371268e-24 0,0 0.2256,-0.0176" />
      <path d="M 0.2256,-0.0176 A 0.0030000000000000027,5.973035055033429e-08 -3.1156113220371268e-24 1,0 0.2316,-0.0176" />
      <line x1="0.2348" y1="-0.0163" x2="0.2358" y2="-0.0163" />
      <line x1="0.1954" y1="-0.0184" x2="0.2358" y2="-0.0184" />
      <line x1="0.1954" y1="-0.0163" x2="0.1974" y2="-0.0163" />
      <path d="M 0.2386,0.018 A 0.002,3.9820233700222834e-08 -3.901348164522844e-24 0,0 0.2366,0.018" />
      <line x1="0.2206" y1="0.018" x2="0.2366" y2="0.018" />
      <path d="M 0.2186,0.018 A 0.002,3.9820233700222834e-08 180.0 0,1 0.2206,0.018" />
      <path d="M 0.2331,0.018 A 0.004500000000000004,8.959552582550142e-08 -3.1156113220371268e-24 0,0 0.2241,0.018" />
      <path d="M 0.2241,0.018 A 0.004500000000000004,8.959552582550142e-08 -3.1156113220371268e-24 0,0 0.2331,0.018" />
      <path d="M 0.2007,-0.0084 A 0.0016,3.185618696017826e-08 -3.1156113220371268e-24 0,0 0.1975,-0.0084" />
      <path d="M 0.1975,-0.0084 A 0.0016,3.185618696017826e-08 -3.1156113220371268e-24 1,0 0.2007,-0.0084" />
      <path d="M 0.2177,-0.0084 A 0.0016000000000000044,3.185618696017835e-08 -3.1156113220371268e-24 0,0 0.2145,-0.0084" />
      <path d="M 0.2145,-0.0084 A 0.0016000000000000044,3.185618696017835e-08 -3.1156113220371268e-24 1,0 0.2177,-0.0084" />
      <path d="M 0.2347,-0.0084 A 0.0016,3.185618696017826e-08 -3.1156113220371268e-24 0,0 0.2315,-0.0084" />
      <path d="M 0.2315,-0.0084 A 0.0016,3.185618696017826e-08 -3.1156113220371268e-24 1,0 0.2347,-0.0084" />
      <path d="M 0.2007,-0.0084 A 0.0016,3.185618696017826e-08 -3.1156113220371268e-24 0,0 0.1975,-0.0084" />
      <path d="M 0.1975,-0.0084 A 0.0016,3.185618696017826e-08 -3.1156113220371268e-24 1,0 0.2007,-0.0084" />
      <path d="M 0.2177,-0.0084 A 0.0016000000000000044,3.185618696017835e-08 -3.1156113220371268e-24 0,0 0.2145,-0.0084" />
      <path d="M 0.2145,-0.0084 A 0.0016000000000000044,3.185618696017835e-08 -3.1156113220371268e-24 1,0 0.2177,-0.0084" />
      <path d="M 0.2347,-0.0084 A 0.0016,3.185618696017826e-08 -3.1156113220371268e-24 0,0 0.2315,-0.0084" />
      <path d="M 0.2315,-0.0084 A 0.0016,3.185618696017826e-08 -3.1156113220371268e-24 1,0 0.2347,-0.0084" />
      <path d="M 0.2331,0.0195 A 0.004500000000000004,8.959552582550142e-08 -3.1156113220371268e-24 0,0 0.2241,0.0195" />
      <line x1="0.2256" y1="-0.0176" x2="0.2256" y2="-0.0163" />
      <line x1="0.1975" y1="-0.0184" x2="0.1975" y2="-0.0084" />
      <line x1="0.2145" y1="-0.0184" x2="0.2145" y2="-0.0084" />
      <line x1="0.2315" y1="-0.0184" x2="0.2315" y2="-0.0084" />
      <line x1="0.1975" y1="-0.0184" x2="0.1975" y2="-0.0084" />
      <line x1="0.2145" y1="-0.0184" x2="0.2145" y2="-0.0084" />
      <line x1="0.2315" y1="-0.0184" x2="0.2315" y2="-0.0084" />
      <line x1="0.2386" y1="0.0163" x2="0.2386" y2="0.018" />
      <line x1="0.2366" y1="0.0163" x2="0.2366" y2="0.018" />
      <line x1="0.2206" y1="0.0163" x2="0.2206" y2="0.018" />
      <line x1="0.2186" y1="0.0163" x2="0.2186" y2="0.018" />
    </g>
    <g fill="none" stroke="rgb(50,120,190)" stroke-width="0.00035" id="bracket">
      <line x1="0.04495" y1="0.0152" x2="0.04495" y2="-0.0152" />
      <line x1="0.04495" y1="0.0152" x2="0.0887" y2="0.0152" />
      <line x1="0.0887" y1="0.0152" x2="0.0887" y2="-0.0152" />
      <line x1="0.04495" y1="-0.0152" x2="0.0887" y2="-0.0152" />
      <line x1="0.0498" y1="0.0127" x2="0.0498" y2="-0.0127" />
      <line x1="0.0498" y1="-0.0127" x2="0.0862" y2="-0.0127" />
      <line x1="0.0862" y1="0.0127" x2="0.0862" y2="-0.0127" />
      <line x1="0.0498" y1="0.0127" x2="0.0862" y2="0.0127" />
      <line x1="0.14165" y1="0.0152" x2="0.14165" y2="-0.0152" />
      <line x1="0.14165" y1="0.0152" x2="0.1854" y2="0.0152" />
      <line x1="0.1854" y1="0.0152" x2="0.1854" y2="-0.0152" />
      <line x1="0.14165" y1="-0.0152" x2="0.1854" y2="-0.0152" />
      <line x1="0.1465" y1="0.0127" x2="0.1465" y2="-0.0127" />
      <line x1="0.1465" y1="-0.0127" x2="0.1829" y2="-0.0127" />
      <line x1="0.1829" y1="0.0127" x2="0.1829" y2="-0.0127" />
      <line x1="0.1465" y1="0.0127" x2="0.1829" y2="0.0127" />
      <line x1="0.238963" y1="0.039304" x2="0.238963" y2="0.043504" />
      <line x1="0.238963" y1="0.043504" x2="0.238937" y2="0.043496" />
      <line x1="0.238937" y1="0.039296" x2="0.238937" y2="0.043496" />
      <line x1="0.238963" y1="0.039304" x2="0.238937" y2="0.039296" />
      <line x1="0.238963" y1="0.039304" x2="0.248063" y2="0.039304" />
      <line x1="0.248063" y1="0.039304" x2="0.248063" y2="0.043504" />
      <line x1="0.238963" y1="0.043504" x2="0.248063" y2="0.043504" />
      <line x1="0.238937" y1="0.039296" x2="0.241325" y2="0.039296" />
      <line x1="0.241925" y1="0.039296" x2="0.245075" y2="0.039296" />
      <line x1="0.245675" y1="0.039296" x2="0.248037" y2="0.039296" />
      <line x1="0.248063" y1="0.039304" x2="0.248037" y2="0.039296" />
      <path d="M 0.241325,0.0393 A 0.0003,3.740603452702794e-07 -3.544924189499593e-21 0,0 0.241925,0.0393" />
      <path d="M 0.245075,0.0393 A 0.0003000000000000086,3.740603452702901e-07 -3.544924189499593e-21 0,0 0.245675,0.0393" />
      <line x1="0.238415" y1="0.038019" x2="0.282165" y2="0.038019" />
      <line x1="0.238415" y1="0.038019" x2="0.238286" y2="0.037981" />
      <line x1="0.238415" y1="0.038019" x2="0.238415" y2="-0.012981" />
      <line x1="0.238415" y1="-0.012981" x2="0.282165" y2="-0.012981" />
      <line x1="0.282165" y1="0.038019" x2="0.282165" y2="-0.012981" />
      <line x1="0.282165" y1="-0.012981" x2="0.282035" y2="-0.013019" />
      <line x1="0.238286" y1="0.037981" x2="0.238286" y2="-0.013019" />
      <line x1="0.238415" y1="-0.012981" x2="0.238286" y2="-0.013019" />
      <path d="M 0.238394,0.026563 A 0.002950002293154721,1.2561120071678248e-05 -90.00030419588593 0,0 0.238394,0.032463" />
      <path d="M 0.238394,0.032463 A 0.002950002293154721,1.2561120071678248e-05 -90.00030419588593 0,0 0.238394,0.026563" />
      <path d="M 0.238394,0.009563 A 0.002950002293154721,1.2561120071678248e-05 -90.00030419588593 0,0 0.238394,0.015463" />
      <path d="M 0.238394,0.015463 A 0.002950002293154721,1.2561120071678248e-05 -90.00030419588593 0,0 0.238394,0.009563" />
      <path d="M 0.238394,-0.007437 A 0.002950002293154721,1.2561120071678248e-05 -90.00030419588593 0,0 0.238394,-0.001537" />
      <path d="M 0.238394,-0.001537 A 0.002950002293154721,1.2561120071678248e-05 -90.00030419588593 0,0 0.238394,-0.007437" />
      <path d="M 0.238307,0.026537 A 0.002950002293154721,1.2561120071678248e-05 -90.00030419588593 0,0 0.238307,0.032437" />
      <path d="M 0.238307,0.032437 A 0.002950002293154721,1.2561120071678248e-05 -90.00030419588593 0,0 0.238307,0.026537" />
      <path d="M 0.238307,0.009537 A 0.002950002293154721,1.2561120071678248e-05 -90.00030419588593 0,0 0.238307,0.015437" />
      <path d="M 0.238307,0.015437 A 0.002950002293154721,1.2561120071678248e-05 -90.00030419588593 0,0 0.238307,0.009537" />
      <path d="M 0.238307,-0.007463 A 0.002950002293154721,1.2561120071678248e-05 -90.00030419588593 0,0 0.238307,-0.001563" />
      <path d="M 0.238307,-0.001563 A 0.002950002293154721,1.2561120071678248e-05 -90.00030419588593 0,0 0.238307,-0.007463" />
      <line x1="0.238286" y1="-0.013019" x2="0.282035" y2="-0.013019" />
      <line x1="0.241925" y1="0.038019" x2="0.241925" y2="0.0393" />
      <line x1="0.241325" y1="0.038019" x2="0.241325" y2="0.0393" />
      <line x1="0.245675" y1="0.038019" x2="0.245675" y2="0.0393" />
      <line x1="0.245075" y1="0.038019" x2="0.245075" y2="0.0393" />
    </g>
    <g fill="url(#hatch_bracket)" stroke="none" stroke-width="0" id="bracket_fill">
      <path d="M 0.04495,0.0152 L 0.04495,-0.0152 L 0.0887,-0.0152 L 0.0887,0.0152 L 0.04495,0.0152 M 0.0498,-0.0127 L 0.0498,0.0127 L 0.0862,0.0127 L 0.0862,-0.0127 L 0.0498,-0.0127" />
      <path d="M 0.14165,0.0152 L 0.14165,-0.0152 L 0.1854,-0.0152 L 0.1854,0.0152 L 0.14165,0.0152 M 0.1465,-0.0127 L 0.1465,0.0127 L 0.1829,0.0127 L 0.1829,-0.0127 L 0.1465,-0.0127" />
    </g>
    <g fill="none" stroke="rgb(50,120,190)" stroke-opacity="0.4" stroke-width="0.00015" id="bracket_hidden" stroke-dasharray="0.0018 0.00045">
      <line x1="0.238937" y1="0.043496" x2="0.248037" y2="0.043496" />
      <line x1="0.248063" y1="0.043504" x2="0.248037" y2="0.043496" />
      <line x1="0.23966" y1="0.043503" x2="0.23964" y2="0.043497" />
      <line x1="0.23966" y1="0.043503" x2="0.24736" y2="0.043503" />
      <line x1="0.24736" y1="0.043503" x2="0.24734" y2="0.043497" />
      <line x1="0.23964" y1="0.043497" x2="0.24734" y2="0.043497" />
      <line x1="0.241325" y1="0.039296" x2="0.241925" y2="0.039296" />
      <line x1="0.245075" y1="0.039296" x2="0.245675" y2="0.039296" />
      <line x1="0.248037" y1="0.039296" x2="0.248037" y2="0.043496" />
      <path d="M 0.241925,0.0393 A 0.0003,3.740603452702794e-07 -3.544924189499593e-21 0,0 0.241325,0.0393" />
      <path d="M 0.245675,0.0393 A 0.0003000000000000086,3.740603452702901e-07 -3.544924189499593e-21 0,0 0.245075,0.0393" />
      <line x1="0.23966" y1="0.040983" x2="0.23966" y2="0.043503" />
      <line x1="0.23964" y1="0.040977" x2="0.23964" y2="0.043497" />
      <line x1="0.23966" y1="0.040983" x2="0.23964" y2="0.040977" />
      <line x1="0.23966" y1="0.040983" x2="0.24736" y2="0.040983" />
      <line x1="0.24736" y1="0.040983" x2="0.24736" y2="0.043503" />
      <line x1="0.24734" y1="0.040977" x2="0.24734" y2="0.043497" />
      <line x1="0.24736" y1="0.040983" x2="0.24734" y2="0.040977" />
      <line x1="0.23964" y1="0.040977" x2="0.24734" y2="0.040977" />
      <path d="M 0.241925,0.0363 A 0.0003,3.740603452702794e-07 -3.544924189499593e-21 0,0 0.241325,0.0363" />
      <path d="M 0.241325,0.0363 A 0.0003,3.740603452702794e-07 -3.544924189499593e-21 0,0 0.241925,0.0363" />
      <path d="M 0.245675,0.0363 A 0.0003000000000000086,3.740603452702901e-07 -3.544924189499593e-21 0,0 0.245075,0.0363" />
      <path d="M 0.245075,0.0363 A 0.0003000000000000086,3.740603452702901e-07 -3.544924189499593e-21 0,0 0.245675,0.0363" />
      <line x1="0.282165" y1="0.038019" x2="0.282035" y2="0.037981" />
      <line x1="0.238286" y1="0.037981" x2="0.282035" y2="0.037981" />
      <line x1="0.239681" y1="0.037994" x2="0.23972" y2="0.038006" />
      <line x1="0.239681" y1="0.037994" x2="0.247281" y2="0.037994" />
      <line x1="0.247281" y1="0.037994" x2="0.24732" y2="0.038006" />
      <line x1="0.23972" y1="0.038006" x2="0.24732" y2="0.038006" />
      <line x1="0.282035" y1="0.037981" x2="0.282035" y2="-0.013019" />
      <line x1="0.239681" y1="0.037994" x2="0.239681" y2="0.034594" />
      <line x1="0.23972" y1="0.034606" x2="0.239681" y2="0.034594" />
      <line x1="0.23972" y1="0.038006" x2="0.23972" y2="0.034606" />
      <line x1="0.239681" y1="0.034594" x2="0.243181" y2="0.034594" />
      <line x1="0.243181" y1="0.034594" x2="0.243181" y2="0.035494" />
      <line x1="0.243181" y1="0.035494" x2="0.247281" y2="0.035494" />
      <line x1="0.247281" y1="0.037994" x2="0.247281" y2="0.035494" />
      <line x1="0.247281" y1="0.035494" x2="0.24732" y2="0.035506" />
      <line x1="0.24732" y1="0.038006" x2="0.24732" y2="0.035506" />
      <line x1="0.23972" y1="0.034606" x2="0.24322" y2="0.034606" />
      <line x1="0.24322" y1="0.034606" x2="0.24322" y2="0.035506" />
      <line x1="0.24322" y1="0.035506" x2="0.24732" y2="0.035506" />
      <path d="M 0.240894,0.026563 A 0.002950002293154721,1.2561120071678248e-05 -90.00030419588593 0,0 0.240894,0.032463" />
      <path d="M 0.240894,0.032463 A 0.002950002293154721,1.2561120071678248e-05 -90.00030419588593 0,0 0.240894,0.026563" />
      <path d="M 0.240894,0.009563 A 0.002950002293154721,1.2561120071678248e-05 -90.00030419588593 0,0 0.240894,0.015463" />
      <path d="M 0.240894,0.015463 A 0.002950002293154721,1.2561120071678248e-05 -90.00030419588593 0,0 0.240894,0.009563" />
      <path d="M 0.240894,-0.007437 A 0.002950002293154721,1.2561120071678248e-05 -90.00030419588593 0,0 0.240894,-0.001537" />
      <path d="M 0.240894,-0.001537 A 0.002950002293154721,1.2561120071678248e-05 -90.00030419588593 0,0 0.240894,-0.007437" />
      <path d="M 0.240807,0.026537 A 0.002950002293154721,1.2561120071678248e-05 -90.00030419588593 0,0 0.240807,0.032437" />
      <path d="M 0.240807,0.032437 A 0.002950002293154721,1.2561120071678248e-05 -90.00030419588593 0,0 0.240807,0.026537" />
      <path d="M 0.240807,0.009537 A 0.002950002293154721,1.2561120071678248e-05 -90.00030419588593 0,0 0.240807,0.015437" />
      <path d="M 0.240807,0.015437 A 0.002950002293154721,1.2561120071678248e-05 -90.00030419588593 0,0 0.240807,0.009537" />
      <path d="M 0.240807,-0.007463 A 0.002950002293154721,1.2561120071678248e-05 -90.00030419588593 0,0 0.240807,-0.001563" />
      <path d="M 0.240807,-0.001563 A 0.002950002293154721,1.2561120071678248e-05 -90.00030419588593 0,0 0.240807,-0.007463" />
      <line x1="0.24322" y1="0.034606" x2="0.243181" y2="0.034594" />
      <line x1="0.243254" y1="0.035516" x2="0.24322" y2="0.035506" />
      <line x1="0.243181" y1="0.035494" x2="0.243146" y2="0.035484" />
      <line x1="0.243146" y1="0.035484" x2="0.243146" y2="-0.010516" />
      <line x1="0.243254" y1="-0.010484" x2="0.243146" y2="-0.010516" />
      <line x1="0.243254" y1="0.035516" x2="0.243254" y2="-0.010484" />
      <path d="M 0.243244,0.027813 A 0.0017000013214789921,7.2386115667298394e-06 -90.00030419588593 0,0 0.243244,0.031213" />
      <path d="M 0.243244,0.031213 A 0.0017000013214789921,7.2386115667298394e-06 -90.00030419588593 0,0 0.243244,0.027813" />
      <path d="M 0.243244,0.010813 A 0.0017000013214789921,7.2386115667298394e-06 -90.00030419588593 0,0 0.243244,0.014213" />
      <path d="M 0.243244,0.014213 A 0.0017000013214789921,7.2386115667298394e-06 -90.00030419588593 0,0 0.243244,0.010813" />
      <path d="M 0.243244,-0.006187 A 0.0017000013214789917,7.238611566729839e-06 -90.00030419588593 0,0 0.243244,-0.002787" />
      <path d="M 0.243244,-0.002787 A 0.0017000013214789917,7.238611566729839e-06 -90.00030419588593 0,0 0.243244,-0.006187" />
      <path d="M 0.243157,0.027787 A 0.0017000013214789921,7.2386115667298394e-06 -90.00030419588593 0,0 0.243157,0.031187" />
      <path d="M 0.243157,0.031187 A 0.0017000013214789921,7.2386115667298394e-06 -90.00030419588593 0,0 0.243157,0.027787" />
      <path d="M 0.243157,0.010787 A 0.0017000013214789921,7.2386115667298394e-06 -90.00030419588593 0,0 0.243157,0.014187" />
      <path d="M 0.243157,0.014187 A 0.0017000013214789921,7.2386115667298394e-06 -90.00030419588593 0,0 0.243157,0.010787" />
      <path d="M 0.243157,-0.006213 A 0.0017000013214789917,7.238611566729839e-06 -90.00030419588593 0,0 0.243157,-0.002813" />
      <path d="M 0.243157,-0.002813 A 0.0017000013214789917,7.238611566729839e-06 -90.00030419588593 0,0 0.243157,-0.006213" />
      <line x1="0.279654" y1="0.035516" x2="0.279546" y2="0.035484" />
      <line x1="0.243146" y1="0.035484" x2="0.279546" y2="0.035484" />
      <line x1="0.243254" y1="0.035516" x2="0.279654" y2="0.035516" />
      <path d="M 0.240894,0.027813 A 0.0017000013214789921,7.2386115667298394e-06 -90.00030419588593 0,0 0.240894,0.031213" />
      <path d="M 0.240894,0.031213 A 0.0017000013214789921,7.2386115667298394e-06 -90.00030419588593 0,0 0.240894,0.027813" />
      <path d="M 0.240894,0.010813 A 0.0017000013214789921,7.2386115667298394e-06 -90.00030419588593 0,0 0.240894,0.014213" />
      <path d="M 0.240894,0.014213 A 0.0017000013214789921,7.2386115667298394e-06 -90.00030419588593 0,0 0.240894,0.010813" />
      <path d="M 0.240894,-0.006187 A 0.0017000013214789917,7.238611566729839e-06 -90.00030419588593 0,0 0.240894,-0.002787" />
      <path d="M 0.240894,-0.002787 A 0.0017000013214789917,7.238611566729839e-06 -90.00030419588593 0,0 0.240894,-0.006187" />
      <path d="M 0.240807,0.027787 A 0.0017000013214789921,7.2386115667298394e-06 -90.00030419588593 0,0 0.240807,0.031187" />
      <path d="M 0.240807,0.031187 A 0.0017000013214789921,7.2386115667298394e-06 -90.00030419588593 0,0 0.240807,0.027787" />
      <path d="M 0.240807,0.010787 A 0.0017000013214789921,7.2386115667298394e-06 -90.00030419588593 0,0 0.240807,0.014187" />
      <path d="M 0.240807,0.014187 A 0.0017000013214789921,7.2386115667298394e-06 -90.00030419588593 0,0 0.240807,0.010787" />
      <path d="M 0.240807,-0.006213 A 0.0017000013214789917,7.238611566729839e-06 -90.00030419588593 0,0 0.240807,-0.002813" />
      <path d="M 0.240807,-0.002813 A 0.0017000013214789917,7.238611566729839e-06 -90.00030419588593 0,0 0.240807,-0.006213" />
      <line x1="0.243146" y1="-0.010516" x2="0.279546" y2="-0.010516" />
      <line x1="0.279546" y1="0.035484" x2="0.279546" y2="-0.010516" />
      <line x1="0.243254" y1="-0.010484" x2="0.279654" y2="-0.010484" />
      <line x1="0.279654" y1="-0.010484" x2="0.279546" y2="-0.010516" />
      <line x1="0.279654" y1="0.035516" x2="0.279654" y2="-0.010484" />
      <line x1="0.241925" y1="0.0363" x2="0.241925" y2="0.038019" />
      <line x1="0.241325" y1="0.0363" x2="0.241325" y2="0.038019" />
      <line x1="0.245675" y1="0.0363" x2="0.245675" y2="0.038019" />
      <line x1="0.245075" y1="0.0363" x2="0.245075" y2="0.038019" />
      <line x1="0.238394" y1="0.026563" x2="0.240894" y2="0.026563" />
      <line x1="0.238394" y1="0.032463" x2="0.240894" y2="0.032463" />
      <line x1="0.238394" y1="0.009563" x2="0.240894" y2="0.009563" />
      <line x1="0.238394" y1="0.015463" x2="0.240894" y2="0.015463" />
      <line x1="0.238394" y1="-0.007437" x2="0.240894" y2="-0.007437" />
      <line x1="0.238394" y1="-0.001537" x2="0.240894" y2="-0.001537" />
      <line x1="0.238307" y1="0.026537" x2="0.240807" y2="0.026537" />
      <line x1="0.238307" y1="0.032437" x2="0.240807" y2="0.032437" />
      <line x1="0.238307" y1="0.009537" x2="0.240807" y2="0.009537" />
      <line x1="0.238307" y1="0.015437" x2="0.240807" y2="0.015437" />
      <line x1="0.238307" y1="-0.007463" x2="0.240807" y2="-0.007463" />
      <line x1="0.238307" y1="-0.001563" x2="0.240807" y2="-0.001563" />
      <line x1="0.240894" y1="0.027813" x2="0.243244" y2="0.027813" />
      <line x1="0.240894" y1="0.031213" x2="0.243244" y2="0.031213" />
      <line x1="0.240894" y1="0.010813" x2="0.243244" y2="0.010813" />
      <line x1="0.240894" y1="0.014213" x2="0.243244" y2="0.014213" />
      <line x1="0.240894" y1="-0.006187" x2="0.243244" y2="-0.006187" />
      <line x1="0.240894" y1="-0.002787" x2="0.243244" y2="-0.002787" />
      <line x1="0.240807" y1="0.027787" x2="0.243157" y2="0.027787" />
      <line x1="0.240807" y1="0.031187" x2="0.243157" y2="0.031187" />
      <line x1="0.240807" y1="0.010787" x2="0.243157" y2="0.010787" />
      <line x1="0.240807" y1="0.014187" x2="0.243157" y2="0.014187" />
      <line x1="0.240807" y1="-0.006213" x2="0.243157" y2="-0.006213" />
      <line x1="0.240807" y1="-0.002813" x2="0.243157" y2="-0.002813" />
    </g>
  </g>
  <text x="0.044350" y="-0.049179" text-anchor="middle" font-family="'Input Sans Narrow', 'DejaVu Sans', Arial, sans-serif" font-size="0.002500" font-weight="bold" fill="#333">A-A</text>
  <text x="0.044350" y="-0.045679" text-anchor="middle" font-family="'Input Sans Narrow', 'DejaVu Sans', Arial, sans-serif" font-size="0.001800" fill="#888">shaft_face</text>
  <line x1="0.000000" y1="0.016000" x2="0.000000" y2="0.019000" stroke="#5C7080" stroke-width="0.000140" stroke-opacity="0.5"/>
  <line x1="0.088700" y1="0.016000" x2="0.088700" y2="0.019000" stroke="#5C7080" stroke-width="0.000140" stroke-opacity="0.5"/>
  <line x1="0.000000" y1="0.017400" x2="0.000000" y2="0.019000" stroke="#5C7080" stroke-width="0.000200"/>
  <line x1="0.088700" y1="0.017400" x2="0.088700" y2="0.019000" stroke="#5C7080" stroke-width="0.000200"/>
  <line x1="0.000000" y1="0.018200" x2="0.088700" y2="0.018200" stroke="#5C7080" stroke-width="0.000200"/>
  <polygon points="0.000000,0.018200 0.001500,0.017600 0.001500,0.018800" fill="#5C7080"/>
  <polygon points="0.088700,0.018200 0.087200,0.017600 0.087200,0.018800" fill="#5C7080"/>
  <text x="0.044350" y="0.017000" text-anchor="middle" font-family="'Input Sans Narrow', 'DejaVu Sans', Arial, sans-serif" font-size="0.001600" fill="#5C7080">88.7</text>
  <line x1="0.089500" y1="-0.015200" x2="0.092500" y2="-0.015200" stroke="#5C7080" stroke-width="0.000140" stroke-opacity="0.5"/>
  <line x1="0.089500" y1="0.015200" x2="0.092500" y2="0.015200" stroke="#5C7080" stroke-width="0.000140" stroke-opacity="0.5"/>
  <line x1="0.090900" y1="-0.015200" x2="0.092500" y2="-0.015200" stroke="#5C7080" stroke-width="0.000200"/>
  <line x1="0.090900" y1="0.015200" x2="0.092500" y2="0.015200" stroke="#5C7080" stroke-width="0.000200"/>
  <line x1="0.091700" y1="-0.015200" x2="0.091700" y2="0.015200" stroke="#5C7080" stroke-width="0.000200"/>
  <polygon points="0.091700,-0.015200 0.091100,-0.013700 0.092300,-0.013700" fill="#5C7080"/>
  <polygon points="0.091700,0.015200 0.091100,0.013700 0.092300,0.013700" fill="#5C7080"/>
  <text x="0.093200" y="-0.000000" text-anchor="middle" dominant-baseline="central" font-family="'Input Sans Narrow', 'DejaVu Sans', Arial, sans-serif" font-size="0.001600" fill="#5C7080" transform="rotate(-90 0.093200 -0.000000)">30.4</text>
  <text x="0.141050" y="-0.049179" text-anchor="middle" font-family="'Input Sans Narrow', 'DejaVu Sans', Arial, sans-serif" font-size="0.002500" font-weight="bold" fill="#333">B-B</text>
  <text x="0.141050" y="-0.045679" text-anchor="middle" font-family="'Input Sans Narrow', 'DejaVu Sans', Arial, sans-serif" font-size="0.001800" fill="#888">mid_body</text>
  <text x="0.237782" y="-0.049179" text-anchor="middle" font-family="'Input Sans Narrow', 'DejaVu Sans', Arial, sans-serif" font-size="0.002500" font-weight="bold" fill="#333">side_XZ</text>
  <line x1="0.193400" y1="0.019200" x2="0.193400" y2="0.022200" stroke="#5C7080" stroke-width="0.000140" stroke-opacity="0.5"/>
  <line x1="0.282165" y1="0.019200" x2="0.282165" y2="0.022200" stroke="#5C7080" stroke-width="0.000140" stroke-opacity="0.5"/>
  <line x1="0.193400" y1="0.020600" x2="0.193400" y2="0.022200" stroke="#5C7080" stroke-width="0.000200"/>
  <line x1="0.282165" y1="0.020600" x2="0.282165" y2="0.022200" stroke="#5C7080" stroke-width="0.000200"/>
  <line x1="0.193400" y1="0.021400" x2="0.282165" y2="0.021400" stroke="#5C7080" stroke-width="0.000200"/>
  <polygon points="0.193400,0.021400 0.194900,0.020800 0.194900,0.022000" fill="#5C7080"/>
  <polygon points="0.282165,0.021400 0.280665,0.020800 0.280665,0.022000" fill="#5C7080"/>
  <text x="0.237782" y="0.020200" text-anchor="middle" font-family="'Input Sans Narrow', 'DejaVu Sans', Arial, sans-serif" font-size="0.001600" fill="#5C7080">88.8</text>
  <line x1="0.282965" y1="-0.043504" x2="0.285965" y2="-0.043504" stroke="#5C7080" stroke-width="0.000140" stroke-opacity="0.5"/>
  <line x1="0.282965" y1="0.018400" x2="0.285965" y2="0.018400" stroke="#5C7080" stroke-width="0.000140" stroke-opacity="0.5"/>
  <line x1="0.284365" y1="-0.043504" x2="0.285965" y2="-0.043504" stroke="#5C7080" stroke-width="0.000200"/>
  <line x1="0.284365" y1="0.018400" x2="0.285965" y2="0.018400" stroke="#5C7080" stroke-width="0.000200"/>
  <line x1="0.285165" y1="-0.043504" x2="0.285165" y2="0.018400" stroke="#5C7080" stroke-width="0.000200"/>
  <polygon points="0.285165,-0.043504 0.284565,-0.042004 0.285765,-0.042004" fill="#5C7080"/>
  <polygon points="0.285165,0.018400 0.284565,0.016900 0.285765,0.016900" fill="#5C7080"/>
  <text x="0.286665" y="-0.012552" text-anchor="middle" dominant-baseline="central" font-family="'Input Sans Narrow', 'DejaVu Sans', Arial, sans-serif" font-size="0.001600" fill="#5C7080" transform="rotate(-90 0.286665 -0.012552)">61.9</text>
  <line x1="0.190400" y1="-0.016300" x2="0.285165" y2="-0.016300" stroke="#555" stroke-width="0.000250" stroke-dasharray="0.002500,0.000800,0.000500,0.000800"/>
  <text x="0.188900" y="-0.015700" text-anchor="end" font-family="'Input Sans Narrow', 'DejaVu Sans', Arial, sans-serif" font-size="0.002000" font-weight="bold" fill="#555">A</text>
  <text x="0.286665" y="-0.015700" text-anchor="start" font-family="'Input Sans Narrow', 'DejaVu Sans', Arial, sans-serif" font-size="0.002000" font-weight="bold" fill="#555">A</text>
  <line x1="0.190400" y1="-0.000000" x2="0.285165" y2="-0.000000" stroke="#555" stroke-width="0.000250" stroke-dasharray="0.002500,0.000800,0.000500,0.000800"/>
  <text x="0.188900" y="0.000600" text-anchor="end" font-family="'Input Sans Narrow', 'DejaVu Sans', Arial, sans-serif" font-size="0.002000" font-weight="bold" fill="#555">B</text>
  <text x="0.286665" y="0.000600" text-anchor="start" font-family="'Input Sans Narrow', 'DejaVu Sans', Arial, sans-serif" font-size="0.002000" font-weight="bold" fill="#555">B</text>
  <text x="-0.001175" y="0.026575" font-family="'Input Sans Narrow', 'DejaVu Sans', Arial, sans-serif" font-size="0.003500" font-weight="bold" fill="#222">joint_left_wheel</text>
  <line x1="-0.001175" y1="0.030575" x2="0.008825" y2="0.030575" stroke="#333" stroke-width="0.000350"/>
  <line x1="-0.001175" y1="0.029575" x2="-0.001175" y2="0.031575" stroke="#333" stroke-width="0.000250"/>
  <line x1="0.008825" y1="0.029575" x2="0.008825" y2="0.031575" stroke="#333" stroke-width="0.000250"/>
  <text x="0.010325" y="0.031275" font-family="'Input Sans Narrow', 'DejaVu Sans', Arial, sans-serif" font-size="0.001800" fill="#888">10 mm</text>
  <rect x="0.028825" y="0.024075" width="0.004000" height="0.002500" fill="url(#hatch_servo)" stroke="rgb(60,60,60)" stroke-width="0.000300"/>
  <text x="0.034325" y="0.026075" font-family="'Input Sans Narrow', 'DejaVu Sans', Arial, sans-serif" font-size="0.001800" fill="rgb(60,60,60)">servo</text>
  <rect x="0.028825" y="0.027575" width="0.004000" height="0.002500" fill="url(#hatch_bracket)" stroke="rgb(50,120,190)" stroke-width="0.000300"/>
  <text x="0.034325" y="0.029575" font-family="'Input Sans Narrow', 'DejaVu Sans', Arial, sans-serif" font-size="0.001800" fill="rgb(50,120,190)">bracket</text>
</svg>