<?xml version='1.0' encoding='utf-8'?>
<svg width="130.55mm" height="56.86mm" viewBox="-0.003175 -0.022425 0.130550 0.056856" version="1.1" xmlns="http://www.w3.org/2000/svg">
  <defs>
    <pattern id="hatch_servo" width="0.0012" height="0.0012" patternUnits="userSpaceOnUse" patternTransform="rotate(45)">
      <line x1="0" y1="0" x2="0" y2="0.0012" stroke="rgb(60,60,60)" stroke-width="0.0001" stroke-opacity="0.6"/>
    </pattern>
    <pattern id="hatch_bracket" width="0.0012" height="0.0012" patternUnits="userSpaceOnUse" patternTransform="rotate(75)">
      <line x1="0" y1="0" x2="0" y2="0.0012" stroke="rgb(50,120,190)" stroke-width="0.0001" stroke-opacity="0.6"/>
    </pattern>
  </defs>
  <g transform="scale(1,-1)" stroke-linecap="round">
    <g fill="none" stroke="rgb(60,60,60)" stroke-width="0.00035" id="servo">
      <line x1="0.0" y1="-0.00505" x2="0.0" y2="0.00505" />
      <path d="M 0.0,-0.00505 A 0.001,0.001 -90.0 0,1 0.001,-0.00605" />
      <line x1="0.001" y1="-0.00605" x2="0.0222" y2="-0.00605" />
      <path d="M 0.0232,-0.00505 A 0.001,0.001 -90.0 0,0 0.0222,-0.00605" />
      <line x1="0.0232" y1="-0.00505" x2="0.0232" y2="0.00505" />
      <path d="M 0.0232,0.00505 A 0.001,0.001 -90.0 0,1 0.0222,0.00605" />
      <line x1="0.001" y1="0.00605" x2="0.0222" y2="0.00605" />
      <path d="M 0.0,0.00505 A 0.001,0.001 -90.0 0,0 0.001,0.00605" />
      <path d="M 0.03885,-0.00505 A 0.001,0.001 180.0 0,1 0.03985,-0.00605" />
      <line x1="0.03885" y1="0.00505" x2="0.03885" y2="-0.00505" />
      <path d="M 0.03985,0.00605 A 0.001,0.001 180.0 0,1 0.03885,0.00505" />
      <line x1="0.03985" y1="0.00605" x2="0.06105" y2="0.00605" />
      <path d="M 0.06205,0.00505 A 0.001,0.001 0.0 0,1 0.06105,0.00605" />
      <line x1="0.06205" y1="0.00505" x2="0.06205" y2="-0.00505" />
      <path d="M 0.06105,-0.00605 A 0.001,0.001 0.0 0,1 0.06205,-0.00505" />
      <line x1="0.03985" y1="-0.00605" x2="0.06105" y2="-0.00605" />
      <path d="M 0.08535,0.01125 A 0.001,1.3722531377442303e-08 0.0 0,0 0.08635,0.01125" />
      <line x1="0.08635" y1="0.01125" x2="0.10755" y2="0.01125" />
      <path d="M 0.10855,0.01125 A 0.001,1.3722531377442303e-08 180.0 0,1 0.10755,0.01125" />
      <line x1="0.08535" y1="0.0035" x2="0.08535" y2="0.01125" />
      <line x1="0.0807" y1="0.0035" x2="0.08635" y2="0.0035" />
      <line x1="0.08535" y1="0.0035" x2="0.08535" y2="0.01125" />
      <line x1="0.08635" y1="0.0035" x2="0.08635" y2="0.01125" />
      <line x1="0.10755" y1="0.0035" x2="0.10755" y2="0.01125" />
      <line x1="0.10755" y1="0.0035" x2="0.1132" y2="0.0035" />
      <line x1="0.1132" y1="0.001" x2="0.1132" y2="0.0035" />
      <line x1="0.10755" y1="0.001" x2="0.1132" y2="0.001" />
      <line x1="0.10755" y1="-0.01125" x2="0.10755" y2="0.001" />
      <line x1="0.08635" y1="-0.01125" x2="0.10755" y2="-0.01125" />
      <line x1="0.08635" y1="-0.01125" x2="0.08635" y2="0.001" />
      <line x1="0.0807" y1="0.001" x2="0.08635" y2="0.001" />
      <line x1="0.0807" y1="0.001" x2="0.0807" y2="0.0035" />
      <line x1="0.10755" y1="0.0035" x2="0.10755" y2="0.01125" />
      <line x1="0.10855" y1="0.0035" x2="0.10855" y2="0.01125" />
      <path d="M 0.10077,0.01325 A 0.0019800000000000026,2.7170612127335794e-08 0.0 1,0 0.10473,0.01325" />
      <line x1="0.10473" y1="0.01125" x2="0.10473" y2="0.01325" />
      <path d="M 0.08395,0.001 A 0.0010000000000000009,1.3722531377442314e-08 0.0 0,0 0.08195,0.001" />
      <path d="M 0.08195,0.001 A 0.0010000000000000009,1.3722531377442314e-08 0.0 1,0 0.08395,0.001" />
      <path d="M 0.10755,0.001 A 0.001,1.3722531377442303e-08 0.0 0,0 0.10855,0.001" />
      <path d="M 0.11195,0.001 A 0.001,1.3722531377442303e-08 0.0 0,0 0.10995,0.001" />
      <path d="M 0.10995,0.001 A 0.001,1.3722531377442303e-08 0.0 1,0 0.11195,0.001" />
      <line x1="0.10855" y1="-0.01125" x2="0.10855" y2="0.001" />
      <path d="M 0.10855,-0.01125 A 0.001,1.3722531377442303e-08 180.0 0,1 0.10755,-0.01125" />
      <path d="M 0.08535,-0.01125 A 0.001,1.3722531377442303e-08 0.0 0,0 0.08635,-0.01125" />
      <path d="M 0.08535,-0.01125 A 0.001,1.3722531377442303e-08 180.0 0,1 0.08635,-0.01125" />
      <path d="M 0.10855,-0.01125 A 0.001,1.3722531377442303e-08 0.0 0,0 0.10755,-0.01125" />
      <line x1="0.08535" y1="-0.01125" x2="0.08535" y2="0.001" />
      <path d="M 0.08535,0.001 A 0.001,1.3722531377442303e-08 0.0 0,0 0.08635,0.001" />
      <line x1="0.10855" y1="-0.01125" x2="0.10855" y2="0.001" />
      <line x1="0.08535" y1="-0.01125" x2="0.08535" y2="0.001" />
      <line x1="0.08535" y1="0.0035" x2="0.08535" y2="0.01125" />
      <line x1="0.08535" y1="0.0035" x2="0.08535" y2="0.01125" />
      <line x1="0.10077" y1="0.01125" x2="0.10077" y2="0.01325" />
    </g>
    <g fill="url(#hatch_servo)" stroke="none" stroke-width="0" id="servo_fill">
      <path d="M 0.0,0.00505 L 0.0,-0.00505 A 0.001,0.001 -90.0 0,1 0.001,-0.00605 L 0.0222,-0.00605 A 0.001,0.001 -90.0 0,1 0.0232,-0.00505 L 0.0232,0.00505 A 0.001,0.001 -90.0 0,1 0.0222,0.00605 L 0.001,0.00605 A 0.001,0.001 -90.0 0,1 0.0,0.00505" />
      <path d="M 0.03885,-0.00505 A 0.001,0.001 180.0 0,1 0.03985,-0.00605 L 0.06105,-0.00605 A 0.001,0.001 0.0 0,1 0.06205,-0.00505 L 0.06205,0.00505 A 0.001,0.001 0.0 0,1 0.06105,0.00605 L 0.03985,0.00605 A 0.001,0.001 180.0 0,1 0.03885,0.00505 L 0.03885,-0.00505" />
    </g>
    <g fill="none" stroke="rgb(60,60,60)" stroke-opacity="0.4" stroke-width="0.00015" id="servo_hidden" stroke-dasharray="0.0018 0.00045">
      <path d="M 0.08535,0.01125 A 0.001,1.3722531377442303e-08 180.0 0,1 0.08635,0.01125" />
      <line x1="0.08635" y1="0.01125" x2="0.10755" y2="0.01125" />
      <path d="M 0.10855,0.01125 A 0.001,1.3722531377442303e-08 0.0 0,0 0.10755,0.01125" />
      <path d="M 0.10473,0.01125 A 0.0019800000000000026,2.7170612127335794e-08 0.0 0,0 0.10077,0.01125" />
      <path d="M 0.10077,0.01125 A 0.0019800000000000026,2.7170612127335794e-08 0.0 1,0 0.10473,0.01125" />
      <line x1="0.08635" y1="0.0035" x2="0.08635" y2="0.01125" />
      <path d="M 0.08635,0.0035 A 0.001,1.3722531377442303e-08 0.0 0,0 0.08535,0.0035" />
      <line x1="0.0807" y1="0.0035" x2="0.08635" y2="0.0035" />
      <path d="M 0.08535,0.0035 A 0.001,1.3722531377442303e-08 0.0 0,0 0.08635,0.0035" />
      <path d="M 0.08395,0.0035 A 0.0010000000000000009,1.3722531377442314e-08 0.0 0,0 0.08195,0.0035" />
      <path d="M 0.08195,0.0035 A 0.0010000000000000009,1.3722531377442314e-08 0.0 1,0 0.08395,0.0035" />
      <line x1="0.10755" y1="0.0035" x2="0.1132" y2="0.0035" />
      <line x1="0.1132" y1="0.001" x2="0.1132" y2="0.0035" />
      <line x1="0.10755" y1="0.001" x2="0.1132" y2="0.001" />
      <line x1="0.10755" y1="-0.01125" x2="0.10755" y2="0.001" />
      <line x1="0.08635" y1="-0.01125" x2="0.10755" y2="-0.01125" />
      <line x1="0.08635" y1="-0.01125" x2="0.08635" y2="0.001" />
      <line x1="0.0807" y1="0.001" x2="0.08635" y2="0.001" />
      <line x1="0.0807" y1="0.001" x2="0.0807" y2="0.0035" />
      <path d="M 0.10755,0.0035 A 0.001,1.3722531377442303e-08 0.0 0,0 0.10855,0.0035" />
      <line x1="0.10855" y1="0.0035" x2="0.10855" y2="0.01125" />
      <path d="M 0.10855,0.0035 A 0.001,1.3722531377442303e-08 0.0 0,0 0.10755,0.0035" />
      <path d="M 0.10473,0.01325 A 0.0019800000000000026,2.7170612127335794e-08 0.0 0,0 0.10077,0.01325" />
      <line x1="0.08395" y1="0.001" x2="0.08395" y2="0.0035" />
      <path d="M 0.11195,0.0035 A 0.001,1.3722531377442303e-08 0.0 0,0 0.10995,0.0035" />
      <path d="M 0.10995,0.0035 A 0.001,1.3722531377442303e-08 0.0 1,0 0.11195,0.0035" />
      <path d="M 0.10855,0.001 A 0.001,1.3722531377442303e-08 0.0 0,0 0.10755,0.001" />
      <path d="M 0.08635,0.001 A 0.001,1.3722531377442303e-08 0.0 0,0 0.08535,0.001" />
      <line x1="0.11195" y1="0.001" x2="0.11195" y2="0.0035" />
      <line x1="0.08195" y1="0.001" x2="0.08195" y2="0.0035" />
      <line x1="0.10995" y1="0.001" x2="0.10995" y2="0.0035" />
    </g>
    <g fill="none" stroke="rgb(50,120,190)" stroke-width="0.00035" id="bracket">
      <line x1="0.0312" y1="0.00935" x2="0.0697" y2="0.00935" />
      <line x1="0.0697" y1="0.00935" x2="0.0697" y2="-0.00935" />
      <line x1="0.0312" y1="-0.00935" x2="0.0697" y2="-0.00935" />
      <line x1="0.0312" y1="0.00935" x2="0.0312" y2="-0.00935" />
      <circle cx="0.03645" cy="0.0" r="0.0012" />
      <line x1="0.03855" y1="-0.00635" x2="0.06235" y2="-0.00635" />
      <line x1="0.06235" y1="0.00635" x2="0.06235" y2="-0.00635" />
      <line x1="0.03855" y1="0.00635" x2="0.06235" y2="0.00635" />
      <line x1="0.03855" y1="0.00635" x2="0.03855" y2="-0.00635" />
      <circle cx="0.06445" cy="0.0" r="0.0012" />
      <line x1="0.0777" y1="-0.014256" x2="0.0777" y2="0.000994" />
      <line x1="0.0777" y1="0.000994" x2="0.0777" y2="0.001006" />
      <line x1="0.0777" y1="-0.014256" x2="0.1162" y2="-0.014256" />
      <line x1="0.1162" y1="-0.014256" x2="0.1162" y2="0.000994" />
      <line x1="0.0777" y1="0.000994" x2="0.1162" y2="0.000994" />
      <line x1="0.0777" y1="0.001006" x2="0.1162" y2="0.001006" />
      <line x1="0.1162" y1="0.000994" x2="0.1162" y2="0.001006" />
      <path d="M 0.08415,0.001 A 0.0012,7.94999825534823e-07 -6.735087992394382e-37 0,1 0.08175,0.001" />
      <path d="M 0.08175,0.001 A 0.0012,7.94999825534823e-07 -6.735087992394382e-37 0,1 0.08415,0.001" />
      <line x1="0.10885" y1="0.000996" x2="0.08505" y2="0.000996" />
      <line x1="0.10885" y1="0.000996" x2="0.10885" y2="0.001004" />
      <line x1="0.08505" y1="0.000996" x2="0.08505" y2="0.001004" />
      <line x1="0.10885" y1="0.001004" x2="0.08505" y2="0.001004" />
      <path d="M 0.11215,0.001 A 0.0012,7.94999825534823e-07 -6.735087992394382e-37 0,1 0.10975,0.001" />
      <path d="M 0.10975,0.001 A 0.0012,7.94999825534823e-07 -6.735087992394382e-37 0,1 0.11215,0.001" />
      <line x1="0.10885" y1="0.000996" x2="0.10885" y2="0.001004" />
      <line x1="0.08505" y1="0.000996" x2="0.08505" y2="0.001004" />
    </g>
    <g fill="url(#hatch_bracket)" stroke="none" stroke-width="0" id="bracket_fill">
      <path d="M 0.0697,0.00935 L 0.0312,0.00935 L 0.0312,-0.00935 L 0.0697,-0.00935 L 0.0697,0.00935 M 0.03765,-0.0 A 0.0012000000000000031,0.0012000000000000031 0.0 0,0 0.03525,0.0 A 0.0012000000000000031,0.0012000000000000031 0.0 0,0 0.03765,0.0 M 0.06235,-0.00635 L 0.03855,-0.00635 L 0.03855,0.00635 L 0.06235,0.00635 L 0.06235,-0.00635 M 0.06565,-0.0 A 0.0012,0.0012 0.0 0,0 0.06325,0.0 A 0.0012,0.0012 0.0 0,0 0.06565,0.0" />
    </g>
    <g fill="none" stroke="rgb(50,120,190)" stroke-opacity="0.4" stroke-width="0.00015" id="bracket_hidden" stroke-dasharray="0.0018 0.00045">
      <line x1="0.0777" y1="-0.014244" x2="0.0777" y2="0.001006" />
      <line x1="0.0777" y1="-0.014256" x2="0.0777" y2="-0.014244" />
      <line x1="0.0777" y1="-0.014244" x2="0.1162" y2="-0.014244" />
      <line x1="0.1162" y1="-0.014244" x2="0.1162" y2="0.001006" />
      <line x1="0.1162" y1="-0.014256" x2="0.1162" y2="-0.014244" />
      <path d="M 0.08415,-0.01425 A 0.0012,7.94999825534823e-07 -6.735087992394382e-37 0,1 0.08175,-0.01425" />
      <path d="M 0.08175,-0.01425 A 0.0012,7.94999825534823e-07 -6.735087992394382e-37 0,1 0.08415,-0.01425" />
      <line x1="0.10885" y1="-0.014254" x2="0.08505" y2="-0.014254" />
      <line x1="0.10885" y1="-0.014254" x2="0.10885" y2="-0.014246" />
      <line x1="0.08505" y1="-0.014254" x2="0.08505" y2="-0.014246" />
      <line x1="0.10885" y1="-0.014246" x2="0.08505" y2="-0.014246" />
      <path d="M 0.11215,-0.01425 A 0.0012,7.94999825534823e-07 -6.735087992394382e-37 0,1 0.10975,-0.01425" />
      <path d="M 0.10975,-0.01425 A 0.0012,7.94999825534823e-07 -6.735087992394382e-37 0,1 0.11215,-0.01425" />
      <line x1="0.08415" y1="-0.01425" x2="0.08415" y2="0.001" />
      <line x1="0.10885" y1="-0.014254" x2="0.10885" y2="0.000996" />
      <line x1="0.08505" y1="-0.014254" x2="0.08505" y2="0.000996" />
      <line x1="0.10885" y1="-0.014246" x2="0.10885" y2="0.000996" />
      <line x1="0.08505" y1="-0.014246" x2="0.08505" y2="0.000996" />
      <line x1="0.11215" y1="-0.01425" x2="0.11215" y2="0.001" />
      <line x1="0.08175" y1="-0.01425" x2="0.08175" y2="0.001" />
      <line x1="0.10975" y1="-0.01425" x2="0.10975" y2="0.001" />
    </g>
  </g>
  <text x="0.011600" y="-0.018925" text-anchor="middle" font-family="'Input Sans Narrow', 'DejaVu Sans', Arial, sans-serif" font-size="0.002500" font-weight="bold" fill="#333">A-A</text>
  <text x="0.011600" y="-0.015425" text-anchor="middle" font-family="'Input Sans Narrow', 'DejaVu Sans', Arial, sans-serif" font-size="0.001800" fill="#888">shaft_face</text>
  <line x1="0.000000" y1="0.006850" x2="0.000000" y2="0.009850" stroke="#5C7080" stroke-width="0.000140" stroke-opacity="0.5"/>
  <line x1="0.023200" y1="0.006850" x2="0.023200" y2="0.009850" stroke="#5C7080" stroke-width="0.000140" stroke-opacity="0.5"/>
  <line x1="0.000000" y1="0.008250" x2="0.000000" y2="0.009850" stroke="#5C7080" stroke-width="0.000200"/>
  <line x1="0.023200" y1="0.008250" x2="0.023200" y2="0.009850" stroke="#5C7080" stroke-width="0.000200"/>
  <line x1="0.000000" y1="0.009050" x2="0.023200" y2="0.009050" stroke="#5C7080" stroke-width="0.000200"/>
  <polygon points="0.000000,0.009050 0.001500,0.008450 0.001500,0.009650" fill="#5C7080"/>
  <polygon points="0.023200,0.009050 0.021700,0.008450 0.021700,0.009650" fill="#5C7080"/>
  <text x="0.011600" y="0.007850" text-anchor="middle" font-family="'Input Sans Narrow', 'DejaVu Sans', Arial, sans-serif" font-size="0.001600" fill="#5C7080">23.2</text>
  <line x1="0.024000" y1="-0.006050" x2="0.027000" y2="-0.006050" stroke="#5C7080" stroke-width="0.000140" stroke-opacity="0.5"/>
  <line x1="0.024000" y1="0.006050" x2="0.027000" y2="0.006050" stroke="#5C7080" stroke-width="0.000140" stroke-opacity="0.5"/>
  <line x1="0.025400" y1="-0.006050" x2="0.027000" y2="-0.006050" stroke="#5C7080" stroke-width="0.000200"/>
  <line x1="0.025400" y1="0.006050" x2="0.027000" y2="0.006050" stroke="#5C7080" stroke-width="0.000200"/>
  <line x1="0.026200" y1="-0.006050" x2="0.026200" y2="0.006050" stroke="#5C7080" stroke-width="0.000200"/>
  <polygon points="0.026200,-0.006050 0.025600,-0.004550 0.026800,-0.004550" fill="#5C7080"/>
  <polygon points="0.026200,0.006050 0.025600,0.004550 0.026800,0.004550" fill="#5C7080"/>
  <text x="0.027700" y="0.000000" text-anchor="middle" dominant-baseline="central" font-family="'Input Sans Narrow', 'DejaVu Sans', Arial, sans-serif" font-size="0.001600" fill="#5C7080" transform="rotate(-90 0.027700 0.000000)">12.1</text>
  <text x="0.050450" y="-0.018925" text-anchor="middle" font-family="'Input Sans Narrow', 'DejaVu Sans', Arial, sans-serif" font-size="0.002500" font-weight="bold" fill="#333">B-B</text>
  <text x="0.050450" y="-0.015425" text-anchor="middle" font-family="'Input Sans Narrow', 'DejaVu Sans', Arial, sans-serif" font-size="0.001800" fill="#888">mid_body</text>
  <line x1="0.031200" y1="0.010150" x2="0.031200" y2="0.013150" stroke="#5C7080" stroke-width="0.000140" stroke-opacity="0.5"/>
  <line x1="0.069700" y1="0.010150" x2="0.069700" y2="0.013150" stroke="#5C7080" stroke-width="0.000140" stroke-opacity="0.5"/>
  <line x1="0.031200" y1="0.011550" x2="0.031200" y2="0.013150" stroke="#5C7080" stroke-width="0.000200"/>
  <line x1="0.069700" y1="0.011550" x2="0.069700" y2="0.013150" stroke="#5C7080" stroke-width="0.000200"/>
  <line x1="0.031200" y1="0.012350" x2="0.069700" y2="0.012350" stroke="#5C7080" stroke-width="0.000200"/>
  <polygon points="0.031200,0.012350 0.032700,0.011750 0.032700,0.012950" fill="#5C7080"/>
  <polygon points="0.069700,0.012350 0.068200,0.011750 0.068200,0.012950" fill="#5C7080"/>
  <text x="0.050450" y="0.011150" text-anchor="middle" font-family="'Input Sans Narrow', 'DejaVu Sans', Arial, sans-serif" font-size="0.001600" fill="#5C7080">38.5</text>
  <line x1="0.070500" y1="-0.009350" x2="0.073500" y2="-0.009350" stroke="#5C7080" stroke-width="0.000140" stroke-opacity="0.5"/>
  <line x1="0.070500" y1="0.009350" x2="0.073500" y2="0.009350" stroke="#5C7080" stroke-width="0.000140" stroke-opacity="0.5"/>
  <line x1="0.071900" y1="-0.009350" x2="0.073500" y2="-0.009350" stroke="#5C7080" stroke-width="0.000200"/>
  <line x1="0.071900" y1="0.009350" x2="0.073500" y2="0.009350" stroke="#5C7080" stroke-width="0.000200"/>
  <line x1="0.072700" y1="-0.009350" x2="0.072700" y2="0.009350" stroke="#5C7080" stroke-width="0.000200"/>
  <polygon points="0.072700,-0.009350 0.072100,-0.007850 0.073300,-0.007850" fill="#5C7080"/>
  <polygon points="0.072700,0.009350 0.072100,0.007850 0.073300,0.007850" fill="#5C7080"/>
  <text x="0.074200" y="0.000000" text-anchor="middle" dominant-baseline="central" font-family="'Input Sans Narrow', 'DejaVu Sans', Arial, sans-serif" font-size="0.001600" fill="#5C7080" transform="rotate(-90 0.074200 0.000000)">18.7</text>
  <text x="0.096950" y="-0.018925" text-anchor="middle" font-family="'Input Sans Narrow', 'DejaVu Sans', Arial, sans-serif" font-size="0.002500" font-weight="bold" fill="#333">side_XZ</text>
  <line x1="0.077700" y1="0.015056" x2="0.077700" y2="0.018056" stroke="#5C7080" stroke-width="0.000140" stroke-opacity="0.5"/>
  <line x1="0.116200" y1="0.015056" x2="0.116200" y2="0.018056" stroke="#5C7080" stroke-width="0.000140" stroke-opacity="0.5"/>
  <line x1="0.077700" y1="0.016456" x2="0.077700" y2="0.018056" stroke="#5C7080" stroke-width="0.000200"/>
  <line x1="0.116200" y1="0.016456" x2="0.116200" y2="0.018056" stroke="#5C7080" stroke-width="0.000200"/>
  <line x1="0.077700" y1="0.017256" x2="0.116200" y2="0.017256" stroke="#5C7080" stroke-width="0.000200"/>
  <polygon points="0.077700,0.017256 0.079200,0.016656 0.079200,0.017856" fill="#5C7080"/>
  <polygon points="0.116200,0.017256 0.114700,0.016656 0.114700,0.017856" fill="#5C7080"/>
  <text x="0.096950" y="0.016056" text-anchor="middle" font-family="'Input Sans Narrow', 'DejaVu Sans', Arial, sans-serif" font-size="0.001600" fill="#5C7080">38.5</text>
  <line x1="0.117000" y1="-0.013250" x2="0.120000" y2="-0.013250" stroke="#5C7080" stroke-width="0.000140" stroke-opacity="0.5"/>
  <line x1="0.117000" y1="0.014256" x2="0.120000" y2="0.014256" stroke="#5C7080" stroke-width="0.000140" stroke-opacity="0.5"/>
  <line x1="0.118400" y1="-0.013250" x2="0.120000" y2="-0.013250" stroke="#5C7080" stroke-width="0.000200"/>
  <line x1="0.118400" y1="0.014256" x2="0.120000" y2="0.014256" stroke="#5C7080" stroke-width="0.000200"/>
  <line x1="0.119200" y1="-0.013250" x2="0.119200" y2="0.014256" stroke="#5C7080" stroke-width="0.000200"/>
  <polygon points="0.119200,-0.013250 0.118600,-0.011750 0.119800,-0.011750" fill="#5C7080"/>
  <polygon points="0.119200,0.014256 0.118600,0.012756 0.119800,0.012756" fill="#5C7080"/>
  <text x="0.120700" y="0.000503" text-anchor="middle" dominant-baseline="central" font-family="'Input Sans Narrow', 'DejaVu Sans', Arial, sans-serif" font-size="0.001600" fill="#5C7080" transform="rotate(-90 0.120700 0.000503)">27.5</text>
  <line x1="0.074700" y1="-0.011250" x2="0.119200" y2="-0.011250" stroke="#555" stroke-width="0.000250" stroke-dasharray="0.002500,0.000800,0.000500,0.000800"/>
  <text x="0.073200" y="-0.010650" text-anchor="end" font-family="'Input Sans Narrow', 'DejaVu Sans', Arial, sans-serif" font-size="0.002000" font-weight="bold" fill="#555">A</text>
  <text x="0.120700" y="-0.010650" text-anchor="start" font-family="'Input Sans Narrow', 'DejaVu Sans', Arial, sans-serif" font-size="0.002000" font-weight="bold" fill="#555">A</text>
  <line x1="0.074700" y1="-0.000000" x2="0.119200" y2="-0.000000" stroke="#555" stroke-width="0.000250" stroke-dasharray="0.002500,0.000800,0.000500,0.000800"/>
  <text x="0.073200" y="0.000600" text-anchor="end" font-family="'Input Sans Narrow', 'DejaVu Sans', Arial, sans-serif" font-size="0.002000" font-weight="bold" fill="#555">B</text>
  <text x="0.120700" y="0.000600" text-anchor="start" font-family="'Input Sans Narrow', 'DejaVu Sans', Arial, sans-serif" font-size="0.002000" font-weight="bold" fill="#555">B</text>
  <text x="-0.001175" y="0.022431" font-family="'Input Sans Narrow', 'DejaVu Sans', Arial, sans-serif" font-size="0.003500" font-weight="bold" fill="#222">joint_left_aileron</text>
  <line x1="-0.001175" y1="0.026431" x2="0.008825" y2="0.026431" stroke="#333" stroke-width="0.000350"/>
  <line x1="-0.001175" y1="0.025431" x2="-0.001175" y2="0.027431" stroke="#333" stroke-width="0.000250"/>
  <line x1="0.008825" y1="0.025431" x2="0.008825" y2="0.027431" stroke="#333" stroke-width="0.000250"/>
  <text x="0.010325" y="0.027131" font-family="'Input Sans Narrow', 'DejaVu Sans', Arial, sans-serif" font-size="0.001800" fill="#888">10 mm</text>
  <rect x="0.028825" y="0.019931" width="0.004000" height="0.002500" fill="url(#hatch_servo)" stroke="rgb(60,60,60)" stroke-width="0.000300"/>
  <text x="0.034325" y="0.021931" font-family="'Input Sans Narrow', 'DejaVu Sans', Arial, sans-serif" font-size="0.001800" fill="rgb(60,60,60)">servo</text>
  <rect x="0.028825" y="0.023431" width="0.004000" height="0.002500" fill="url(#hatch_bracket)" stroke="rgb(50,120,190)" stroke-width="0.000300"/>
  <text x="0.034325" y="0.025431" font-family="'Input Sans Narrow', 'DejaVu Sans', Arial, sans-serif" font-size="0.001800" fill="rgb(50,120,190)">bracket</text>
</svg>